<svg xmlns="http://www.w3.org/2000/svg" viewBox="4468 384253 22872 29568" stroke="black" stroke-width="24" stroke-linecap="round" stroke-linejoin="round" fill="none" data-xena="-1156 -51295 5"><style>@media(prefers-color-scheme:dark){svg{background-color:black;stroke:white;}}</style>
<path d="M4660 384445l"/>
<path d="M11802 385442l"/>
<path d="M15275 403451l-3 0-26 16 32 12 33-17 28-24 25-22 25-26 26-26 24-26 23-22 29-24 27-23"/>
<path d="M15392 403462l-2-2 12-28 13 33 4 33 1 29 1 36 1 37-1 42-3 43-1 31-1 31-3 30-2 31-2 30-4 43-3 36-3 33-1 30"/>
<path d="M15243 403986l-1 1 30 11 36-7 33-12 34-16 28-20 30-24 25-20 24-19 29-26 24-23"/>
<path d="M15568 403623l-2-1-2 33 2 31 1 34 1 33 1 33 0 35-7 31 4-33 7-38 8-31 8-31 11-29 11-35 14-28 16-29 26-17 15 29 5 38-1 36 0 37-1 34 1 32 32 2 19-33"/>
<path d="M15794 403553l-1 0-12 28-2 35 2 33 7 31 8 31 13 33 14 28 32 2 15-27 13-36 10-31 10-33 7-33 5-33 3-33 2-30 0-37"/>
<path d="M15997 403565l 0-1 25-18 24-22 18-24 12-28-21-27-32-4-26 21-19 28-13 28-11 30-6 31-1 36 11 30 24 23 32 7 30-6 30-13 31-24 24-27 19-31 11-30 7-34 1-31 5-30 27-17 21 21-12 31-13 32-13 35-7 31 0 31 32-3 21-22 22-29 18-27 18-28 16-28 14-28 12-34 7-33-27 14 10 30 21 22 26 18 21 22 4 30-21 23-33 4-27-16 15-27 25-17 27-21 28-21 29-19 28-13 28-12 28-16 23-22 5-32-9-31-15-28-21-21-31-5-21 28-14 33-12 35-6 32-4 35-1 35 6 37 16 31 27 19 29 7 30-2 30-10 27-14 32-22 24-19 27-24"/>
<path d="M17018 403131l-2 0-30-2-22 21-15 30-7 35 1 34 12 29 30 8 29-11 26-16 12-29 16-26 26-16 21-23 22-25 24-33 17-29 19-33 16-35 14-34 10-34 7-35 1-37-2-40-6-41-10-40-13-32-17-29-24-19-22 23-16 34-11 36-6 43-1 33 2 35 2 36 6 39 7 39 7 42 8 43 9 43 8 44 9 42 9 41 10 38 9 35 8 33 8 32 12 42 10 38 14 35 20 27 32-13 12-36 4-35-1-38-7-31-10-30-13-31-16-29-15-26-21-28-24-18 30-10"/>
<path d="M17664 402968l-2-1 8-31 20-24 21-23 23-20 22 21-3 34-5 36-4 35-1 31-1 33 3 31 29-14 20-30 18-27 15-27 13-29 25 18 28 14 26-17 21-26 14-29 10-32 4-32 6-31 12 30 7 30 9 37 5 31 7 34 8 36 7 36 6 38 5 40 2 39 1 37 2 31-1 36-1 33-7-35-4-31-4-41-5-44-5-32-3-33-4-33-4-33-3-30-3-42-2-39-2-35-2-30 1-30 6-34 15-30 21-23 27-21 32-9 32 7 14 31-3 33-9 31-13 38-11 29-11 29-13 30-18 27"/>
<path d="M18217 402685l 1 0 21 28 12 28 11 37 9 36 7 30 4 36 5 38 2 38 0 38 0 39-1 39-1 34-3 36-5 31 3-37 2-37 2-31 0-34 1-37 2-38 1-40 3-39 2-36 2-31 4-39 2-30 2-32 3-30 6-30 18-26 31-14 31 0 24 19 10 34-5 30-13 33-14 30-16 26-22 23-25 25"/>
<path d="M18463 402665l 2-1 33 2 29-7 27-20 21-23 9-30-21-23-27 12-19 25-13 32-9 29-9 35 0 32 17 28 35 1 32-16 29-22 28-26 27-27 21-25 20-27 7-29 27-18 29-10 7 31-11 30-13 34-12 32-8 29 2 32 31 12 31-23"/>
<path d="M19182 402598l-1 1 29 13 30-13 26-28 19-26 21-33 23-39 14-30 15-31 13-35 14-35 12-35 10-35 9-35 7-35 4-35 3-34 1-34-1-34-3-43-2-35-3-31-18 34-3 33-3 40-1 45 0 34-2 35 0 37-1 37 0 36 1 37 2 34 1 34 3 32 5 39 6 34 11 28 20 23 31-6 24-19 27-24 22-28 19-27"/>
<path d="M19589 402252l-2 2 33-11 32-5 30-3 29 8 0 31-11 30-11 30 21 25 30-8 32-12"/>
<path d="M19901 402226l-2 1-17 24-8 35-2 33 1 31 9 29 30-8"/>
<path d="M19870 402068l-2 2"/>
<path d="M19264 402320l-1 0 24-19 29-18 28-14 34-16 36-17 39-20 41-20 28-14 29-13"/>
<path d="M20446 402042l 0-2 9-30 21-22-2 34-7 37-8 34-7 31-6 35-3 31 31 2 22-21 23-23 19-27 15-31 3-30 4-30 10-29 11-29 10-32 7-29 12 28 11 30 19 28 22 21 27 20 15 27-15 27-25 19 25-21 27-19 23-19"/>
<path d="M20498 401806l 0-1"/>
<path d="M21263 401750l 0-1-3 35-4 39-3 36-5 37-3 36-3 32 1 34 6 31 27-12 21-28 17-28 17-28 14-32 11-32 8-31 8-35 5-32-1-30-5 33-1 34-1 34 1 36 3 33 8 33 16 26 32 9"/>
<path d="M21548 401389l 0-1 24 19 15 29 12 35 8 33 5 38 1 31 1 32-1 34-3 36-2 36-2 34-3 32 0 30 2 35 6 33 23 20 29-9 29-14 27-15 25-21 20-22 18-25"/>
<path d="M21544 401665l-1-1 18-27 27-15 29-11 37-11 31-9 29-7"/>
<path d="M21471 401896l-1 0"/>
<path d="M21941 401831l 0 1"/>
<path d="M22030 401288l-1-1 26-21 32-8 30 3 20 26-2 34-8 34-11 30-10 29-11 35-11 30-7 33-8 38"/>
<path d="M22155 401747l-1 2"/>
<path d="M15727 405644l-1 2 23 20 22-24 12-35 9-36 10-44 9-31 8-37 9-38 9-40 8-42 8-43 8-43 6-41 8-45 6-43 5-40 5-40 4-34 4-32 3-40 3-34 2-30 11 36 6 43 6 32 6 33 6 35 7 36 8 37 7 38 9 33 10 37 10 33 10 32 12 36 10 30 16 40 16 36 15 30 16 29 17 26"/>
<path d="M15820 405348l-2 0 32-9 24-19 28-26 24-24 24-25 25-22"/>
<path d="M16177 404906l-1-1 11 29 11 28 11 36 9 30 8 36 6 41 7 42 4 31 6 44 3 31 4 40 3 36 3 31"/>
<path d="M16191 404916l-1-1 14-31 24-18 29-15 28-12 30-10 32-7 32-4 31 6 3 30-11 29-18 35-18 26-20 28-22 26-20 23-21 29-22 24 33-11 30-10 37-11 33-12 35-13 37-9 33-7 31-1 33 10 22 22 11 36-3 42-7 34-10 36-13 36-18 37-20 34-23 34-25 31-26 28-26 20-27 15-33 10-37 1-30-17-20-24-11-28"/>
<path d="M16674 404954l 0-1 26-16 30-12 28-12 33-9"/>
<path d="M16731 405014l-1-1 29-15 28-13 28-13 31-16 30-18"/>
<path d="M17044 404614l 0-1 31-16 33-15 31-18 32-19 32-17 29-17 30-16 27-17 30-15 30-9"/>
<path d="M17223 404577l-1-1 5 35 6 37 7 39 7 30 7 33 7 33 8 33 7 34 6 35 6 34 7 33 5 30 7 38 4 34 1 31-7 29"/>
<path d="M17149 405159l-2 0 35 2 30-10 29-9 33-12 33-10 34-9 34-9 34-8 30-12 29-10 28-10 27-15 24-18"/>
<path d="M17792 404990l 0-2 11 30 2 38-4 36-4 31-7 31-8 33"/>
<path d="M18079 404893l 1 1 27 14 21-23 14-28 14-33 11-38 10-36 9-40 10-43 6-31 6-33 4-37 3-38 3-41 2-40 1-41 2-40 2-35 2-30 2-34 1-32 1 35 3 31 6 35 8 42 7 31 8 31 9 33 11 33 10 33 12 31 12 30 13 28 18 39 18 36 17 30 16 27 18 30 19 26"/>
<path d="M18178 404642l 0 1 31-11 31-10 30-9 35-10 30-11"/>
<path d="M18823 404523l 0-3 9-29 38-59 30-4 4 31-3 34-3 31-3 31-4 31-3 36 0 30 4 33 30 11 21-28 16-27 17-34 14-36 14-36 11-37 8-36 7-31 4-34 4-32-8 35-3 30 0 32 1 33 3 31 7 36 8 31 16 29"/>
<path d="M19172 404569l 0 0"/>
<path d="M19177 404073l 1 0 29 11 18 25 10 35 4 36 1 34 0 40-2 34-5 36-5 39-5 40-5 42-4 39-4 36-2 37 1 31 13 29 33-8 27-26 25-26 20-24 24-31 20-32"/>
<path d="M19169 404356l-1 0 21-23 27-14 32-10 32-11 32-4"/>
<path d="M19451 404544l 1 1 12 28"/>
<path d="M19866 403967l 0-1 32-1 30 11 19 26 9 29 6 31 3 30 4 34 3 36 1 38 0 35 0 33 0 31-2 33-16-30-7-29-5-38-3-30-1-33 0-35 3-37 4-41 7-38 8-33 12-35 12-28 17-29 27-17 28 18 16 28 12 32 7 37 2 31 1 33 0 32-1 32 2 32 6 32 29 14"/>
<path d="M20231 403828l 0-2 12-30 16-28 22-20 30 9 14 31 10 31 10 30 10 33 11 30 14 29 18 25 28 15 25-19 18-27"/>
<path d="M20404 403652l-2 1-21 22-16 31-14 34-16 35-14 30-13 34-13 34-11 31-11 37-9 31"/>
<path d="M20530 403700l-2-1 15 30 11 34 10 31 6 36 8 39 6 39 4 36 1 30-1 31-16-30-6-33 0-40 1-34 2-34 5-32 6-33 6-32 9-31 12-35 14-28 15-29 18-27 31-7 15 32 4 35 3 32 1 34 0 33 3 35 2 33 3 32 7 36 11 33 21 25"/>
<path d="M21119 403559l-1 0 28-17 30-18 29-16 32-17 30-13 33-14 30-8 33-3"/>
<path d="M21160 403635l 1-2 30-18 32-15 33-15 33-14 33-15 29-14 28-17"/>
<path d="M21358 403365l-2-1 30-8 30-4 34 4 34 11 30 15 23 22 13 27-6 33-13 29-18 28-16 25-25 31-19 25-18 24"/>
<path d="M21663 403826l 2 1 32-9 24-21 20-25 18-34 14-28 13-31 14-35 15-42 11-32 11-34 10-35 10-37 10-40 8-41 7-40 5-39 5-39 5-35 3-31 4-38 4-36-2-30-3 30 3 35 4 31 9 30 10 35 12 37 12 41 12 43 9 30 9 29 13 42 13 39 11 38 13 33 16 34 16 34 18 27"/>
<path d="M21874 403523l 1 0 29-13 31-10 34-10 33-8"/>
<path d="M22210 403683l-1 0-12 28-8 33-8 33-7 33-1 31 5 34"/>
<path d="M22195 403540l-2-1-3 30"/>
<path d="M22290 403618l-1-2 18 26"/>
<path d="M22317 403811l 1-1 11 30 16 27 19 28 17 27 15 29 9 29 5 31-1 37-5 32-7 36-7 37-9 31-14 29-31 1-25-23-18-28-15-33-10-31-8-32-4-31"/>
<path d="M22565 403453l-1-1 29-16 34 0"/>
<path d="M22586 403522l 1-1 26-19 28-12 31-9"/>
<path d="M22879 403262l-2 1-25 24-17 33-10 30-8 36-4 37-1 37 4 36 8 37 11 32 20 33 28 19 30 10 37 1 32-9 33-15 33-25 22-24 16-26 16-32 7-36-3-39-12-27-18-30-26-31-31-29-31-26-32-20-34-13-34-5-32 1-30 7-35 16-30 23"/>
<path d="M23560 403143l 0-1 28 18 11 37 8 31 8 38 9 43 5 32 7 32 4 31 8 42 9 37 13 34 20 24 25-18 13-30 10-34 11-38 11-44 4-32 5-34 6-36 4-37 5-37 6-37 4-35 4-31 4-36 1-32"/>
<path d="M23628 403239l-1 0 29-14 28-12 33-13"/>
<path d="M24252 403182l 0-2 13 29-6 37-6 36-4 39-3 32-3 32-2 37 2 36 9 30 26 18 29-11 25-20"/>
<path d="M24226 403022l 1-1"/>
<path d="M24498 403002l-2-1 25 24 24 19 31 19 29 14 29 10 32 11 26 18-12 30-29 19-27 16-26 15-27 15-26 17"/>
<path d="M24902 402962l-1 0-8 29"/>
<path d="M24884 403230l-1 0 7 31 7 32 6 34 5 36 5 30 9 31 11 32 11 32 10 28 8 30-1 32-8 29-22 29-22 21-27 14-35 10-33 3-36 0-29-8-30-14"/>
<path d="M15803 406438l 1-2 20 26 7 34 6 39 3 30 2 39 1 33-1 34 0 33 0 34-1 37-2 36-4 36-4 33-4 36-7 31"/>
<path d="M15809 406459l-1-2 3-31 24-25 28-17 33-13 32-7 36-4 36-4 31 2 30 6 27 17 0 32-15 33-16 31-21 33-17 26-21 27-19 25-21 23-22 26-23 22 7-31 25-17 28-18 33-12 34-8 31-4 35-3 36-1 31 5 34 12 26 21 15 26 8 30 1 34-6 40-9 33-10 33-14 30-19 28-26 28-32 26-24 19-27 16-27 14-39 17-38 13-39 9-35 6-31 2-36 3-34-5-20-24"/>
<path d="M16624 406437l-1 0-31-8-31 15-25 23-22 24-20 29-14 27-7 30-4 36 4 30 11 28 25 19 30 10 31 1 30-4 34-11 28-12"/>
<path d="M16538 406584l-1 0 32 5 31-2 35-12"/>
<path d="M16914 406266l-2-1 4 32 7 38 4 30 3 34 2 42 2 42 1 43 1 42 1 31 0 31 1 30 0 43 0 37-1 36"/>
<path d="M16991 406296l 0 2 2 34 5 37 5 36 4 31 4 34 3 35 2 37 3 40 2 39 2 40 1 37 1 37 1 31 0 32 0 30"/>
<path d="M16934 406321l-1-1 15-30 22-22 22-23 27-16 29-10 34-3 34 7 31 16 21 27 5 31-7 33-13 32-15 28-19 30-22 30-22 24-20 22-26 23-26 17 26-21 31 1 32 5 36 13 36 15 34 17 33 21 28 21 24 25 23 26 17 26 13 31"/>
<path d="M17300 406023l-1-2-5 31-2 34-2 31-5 30-6 32-3-32 2-35 0-31 4-33 11-28 15-27 30-5 11 30 8 30 13 29 13 29 6 31 6 30"/>
<path d="M17466 405979l-2 0 30-2 27 15 25 22 24 24 22 21 22 22 25 19"/>
<path d="M17601 405935l-2 3-19 29-15 30-15 33-13 28-15 31-12 27"/>
<path d="M17713 405945l 0 0 8 31 10 30 14 31 11 33 7 32 5 31-11-31-1-36 3-30 4-37 9-31 12-28 15-28 31 1 12 29 6 34 4 34 5 38 3 30 4 32 12 32"/>
<path d="M15423 407815l-1 0 32-7 29-7 32-8 32-7 32-7"/>
<path d="M15419 407930l-2 2 34 0 29-7 30-11 33-14"/>
<path d="M15560 407679l 0-1 29 9 32 1 33 5 30 9 26 20 18 25 6 32-8 30-15 29-14 27-19 32-21 27-19 24"/>
<path d="M15915 408340l-2 0 11-32 14-27 18-36 18-34 13-28 15-30 14-31 15-35 17-36 16-34 18-38 16-35 14-35 12-34 10-30 7-30 10-40 7-34 6-33 3 35 1 38 3 30 4 35 9 40 5 30 7 30 8 30 12 38 15 39 12 35 13 32 11 28 15 31 17 28"/>
<path d="M16066 408082l-2 1 30-3 34-7 31-9 35-14 28-15"/>
<path d="M16361 407719l-1 0 3 36 13 35 11 35 12 43 7 32 8 34 8 35 7 36 7 36 8 35 7 37 8 33 7 32 9 40 8 30"/>
<path d="M16371 407743l-2-2 8-30 28-17 31-3 37-2 31-1 30 1 33 8 31 15 16 26-7 30-18 30-22 25-26 26-30 25-28 20-25 17-28 17 26-18 31-8 34-6 32-5 35-5 35-3 31 0 33 6 30 13 21 26 2 35-6 37-10 32-15 30-22 30-27 27-25 18-27 14-36 13-32 8-36 3-34-3-26-17"/>
<path d="M16951 407983l-1 1-11 31-10 34-11 31-9 29-8 32-8 33-5 33-3 34-1 30 2 34 11 34 19 23 31 10"/>
<path d="M17050 408107l-2 1 7 31 2 34 2 33 2 31 1 32 2 33 22 21 23-20"/>
<path d="M17036 407937l-1 1"/>
<path d="M17240 408315l-1 0 6 31-3 31-7 30-8 33"/>
<path d="M17329 408000l 0 4 4 30 5 31 3 31 5 34 5 37 5 37 4 35 2 32-2 32-10-29-7-33-3-30-2-35 4-32 9-29 23-20 28 11 10 30-14 30-19 23-24 22-24 19 30 3 33-3 32-1 32 2"/>
<path d="M17417 407937l 2 2 26 15 27 16 25 21 28 23 22 24 18 26 18 29 12 34 4 30-1 33-5 37-10 34-14 28-20 27"/>
<path d="M17706 407767l 0 0 32-6 33-3 34-4 31-5"/>
<path d="M17740 407852l-1 0 33-6 32-11"/>
<path d="M18194 407511l-3 1 27-19 34-17 28-14 30-13 32-11 30-15 30-6 30 5 0 31-17 29-19 24-20 25-19 23"/>
<path d="M18139 407563l-4 1 33 7 32 9 29 15 28 14 23 23 6 31-10 29-15 29-18 30-17 31-20 35-18 29-18 32-21 31-19 32-18 26-20 29-16 26 1 31 32-1 32-2 37-5 32-5 36-7 37-10 38-12 38-12 29-11 33-15 32-14 28-13 28-15 26-16-21-22-29-13-30-12"/>
<path d="M18315 408208l-2 1"/>
<path d="M18349 408334l 1 2 23 19 21 22 19 28 13 29 6 33 0 33-7 31-26 17-33 5-34 2-30-2-23-19 1-33"/>
<path d="M18786 407997l-1-2 10-30 9-32 8-31 10-34 12-41 13-41 8-30 8-30 11-41 6-31 9-44 6-42 5-39 4-35 3-36 4-34 2 31 7 39 9 32 11 32 12 37 13 42 16 41 16 41 16 37 17 37 18 37 17 33 18 28 19 31 19 31 14 27"/>
<path d="M18877 407840l-1-2 14-27 26-21 34-11 34-9 31-4"/>
<path d="M19295 408005l-1-3-7 32-1 33 4 30 14 27 30-12 16-26"/>
<path d="M19292 407766l-3 0-28 12 9 29"/>
<path d="M19436 408065l-1 1 10 31 2 30-1 34-4 30"/>
<path d="M19519 407735l-1 0"/>
<path d="M19522 407925l-1 0 10 28 19 25 19 27 15 26 18 31 15 29 15 30 9 30 5 33 0 30-5 31-12 30-21 28-27 19-33 7-32-1-28-12-16-27"/>
<path d="M19830 407354l 0-2 18 32 3 32 3 36 3 38 4 40 3 42 3 44 2 31 0 31 0 32 2 31 3 42 4 37 4 30 3 30"/>
<path d="M19848 407368l-2-3-4-30 23-22 30-14 37-8 35-3 36-4 34-2 30 2 32 6 26 16 9 30-8 30-14 29-19 31-25 30-27 26-30 21-26 18-28 17-29 11 27-18 28-11 29-7 32-4 34-5 35-6 36 2 32 5 34 9 27 17 19 25 13 33 0 31-5 37-8 31-10 31-14 32-18 30-24 27-27 22-29 19-31 15-28 14-30 9-36 8-33 4-34 1-30-10-15-26 14-27"/>
<path d="M20479 407586l-2-1"/>
<path d="M20494 407769l-2 0 15 28 18 26 17 26 18 30 13 34 8 36 5 30 4 35-1 35-7 32-12 29-22 21-29 15-35 8-33-2-32-7-31-17-20-26-10-34"/>
<path d="M20645 407536l 0 2 2 30 11 30 11 33 10 32 8 37 6 34 5 33 2 32 3 31-2 32-24-24-7-29-2-37 4-34 10-35 12-30 20-27 28-14 31-4 30 10 12 29-14 28-16 27-19 25-20 23 17 26 34 0 33 0 30 4"/>
<path d="M20598 407823l 1 2 23 20 16 28 0 35-4 34"/>
<path d="M17883 409504l-2-1 19-26 31-15 28-12 31-14"/>
<path d="M17897 409586l-1-1 20-24 29-12 29-10 28-12 30-15"/>
<path d="M18237 409384l-1 0 33-5 33 12 32 13 32 13 30 12 25 19 20 24-4 30-11 30-15 27-16 28-22 27-20 22-25 22-26 23-26 22-24 19-24 21-24 19 28 10 35 3 30 3 33 3 36 3 35 2 35 0 38-4 30-3 30-5 30-7 37-11 36-9 33-10 28-13 31-9 3-31-26-21-30-14"/>
<path d="M18232 410028l-2 0"/>
<path d="M18259 410124l 0-2 13 27 19 29 15 31 15 32 12 31 8 30 6 33 4 34-4 33-15 27-30 7-32-5-31-12-25-16-16-27"/>
<path d="M18403 410033l 0 2 28-12 26-15 30-11"/>
<path d="M18414 410099l 0-1 29-13 29-16"/>
<path d="M18948 409668l-1 1 10-29 11-34 12-36 13-38 11-34 11-38 11-40 7-30 7-30 4-31 3-30 4-44 1-37-1-31-4-35-7-29 11 29 10 32 10 32 13 35 15 38 16 41 12 28 13 28 12 27 17 40 16 38 15 30 19 33 16 28 16 26"/>
<path d="M19046 409437l-2 0 27-16 29-8 31-4 31-7"/>
<path d="M19459 409664l-2 2-7 29-1 30 0 34 2 34 4 30 8 30 19 23 27-16 13-30"/>
<path d="M19419 409552l-2-2"/>
<path d="M19627 409841l-2 0-1 30-1 31-4 31"/>
<path d="M19661 409475l-3 2-14 27"/>
<path d="M19718 409650l 0 1 6 31 15 28 18 25 19 30 16 29 18 29 14 32 8 33 3 30-3 30-11 29-22 24-30 13-33-2-30-14-16-30-5-32"/>
<path d="M19962 409251l-2-2 11 28 10 31 9 31 8 29 6 35 5 41 5 44 6 44 5 42 4 35 3 37 2 31"/>
<path d="M19966 409233l-1-5 4-33 18-26 29-13 30-3 34 3 36 3 30 5 30 11 21 21-3 31-17 30-22 28-21 22-28 27-27 25-24 22-26 22 32-9 33-6 35-5 30 0 31 3 29 7 35 13 25 18 25 27 16 29 10 31-2 35-6 31-11 32-18 28-25 24-30 23-32 15-36 7-38 1-37-6-31-12-25-20-15-30 3-31"/>
<path d="M20471 409429l-1-1"/>
<path d="M20483 409598l-1 1 14 28 19 28 15 27 15 26 15 32 14 32 12 34 7 33 2 30-5 33-13 28-26 23-30 5-32-3-31-11-25-19-19-27-13-29-3-33"/>
<path d="M20651 409418l 0-1 2 30 3 30 4 36 4 32 4 36 2 37 2 33 6 33-10-30-3-31-1-32 4-34 5-32 17-26 29-7 28 11 22 25-7 30-11 30-15 27-14 27 28 12 31 8 31 3 30-4"/>
<path d="M20585 409638l-1 0 23 20 6 33-5 33-10 33"/>
<path d="M21966 409084l 0-1 18 25 11 34 6 30 5 34 5 39 5 43 4 31 4 32 3 30 3 32 3 30 2 40 3 37 1 37 0 30"/>
<path d="M21974 409088l 0-2 11-30 25-22 33-9 38 0 34 5 37 8 37 12 33 15 26 17 23 20 13 29-13 32-22 23-30 24-26 18-26 19-27 17-28 15-28 13 29-15 35-11 30-4 35 0 36 0 36 6 35 11 31 13 29 17 27 25 15 26 7 30-1 36-11 37-16 34-18 27-21 23-24 23-28 19-29 15-30 9-31 1-31 3-32-1-36-10-29-15-27-19-22-26"/>
<path d="M22592 409348l-2-2"/>
<path d="M22606 409550l 0-2 19 25 14 27 15 30 13 35 10 35 6 37 3 33 0 33-5 31-10 31-21 23-29 13-31 4-31-9-33-11-27-17-9-32"/>
<path d="M22819 409529l-1-2-4 32-5 34-9 29-8 29"/>
<path d="M22853 409205l-2 0 0 32 9 32 12 33 16 36 12 32 12 36 12 39 10 40 9 37 6 33 6 37 3 34-16-27-8-30-5-34-2-36 2-34 4-34 10-32 20-23 34-2 26 14 21 22 0 32-27 21-24 19-29 16-23 20 24 19 33 3 33 2 35 0 31 5 28 12 21 23"/>
<path d="M23541 409199l-1 0-8 32-5 31-3 36-1 30 1 30 4 36 6 30 16 26 32-7 21-25 20-30 12-30 9-32 4-31 1-31 2-32-16 31-3 32-1 35 2 35 7 30 12 29 22 20 30-17"/>
<path d="M23729 409244l 0-1 8 32 5 34 3 34 2 33 0 36-2 32 2-34 5-34 5-30 9-33 12-30 14-30 19-26 28-15 21 23 4 31 0 33 1 33 6 33 13 28"/>
<path d="M24049 409202l-2 0-27 17-22 20-21 26-17 32-12 31-8 29 3 30 24 22 37-1 31-6"/>
<path d="M24255 409246l-3 0-31 2-28 12-22 20-19 27-9 29 6 32 29 15 32-2 28-16 25-18 19-25-5-32-24-20-31-15"/>
<path d="M24356 409224l 1-2 22-22 30 7 11 30 1 34 0 31 0 32-4 35-6 37-5 31 2-33 6-31 8-31 10-29 9-29 14-36 15-32 15-27 16-26 23-21 29 16 4 34 2 38 1 36 3 33 7 31 14 27"/>
<path d="M24764 409069l-4 2-28 11-25 19-24 20-23 24-17 25 3 30 34-3 33-9 30-7 35-3 32 3 27 13 4 34-17 30-21 23-23 20-29 13-34 7-34-6-22-20"/>
<path d="M24887 408820l 0 1 18 27 17 32 12 29 12 39 7 32 7 33 4 34 0 37 0 37-4 37-3 39-5 32-7 32-6 33 33 7 25-22 21-23"/>
<path d="M24864 409093l-3-1 16-27 34-10 30-5 33-5"/>
<path d="M25064 409117l-2 0 16 30 10 33 8 32 2 30-19-28 2-35 7-30 12-29 12-27 19-31 23-20 32-9 31 7"/>
<path d="M25439 409073l-3-2-23-20-30-12-32 6-25 24-21 28-16 32-5 32 11 30 34-2 30-19 29-21 23-23 8-30-16 26 4 31 17 27 34 3 30-13"/>
<path d="M25584 409071l-2 1-29 9-15 26-7 30 7 30 15 27"/>
<path d="M25570 408926l-2-1-18 25 13 30"/>
<path d="M25638 409087l 0 2-2 30-3 31 0 34 18-29 15-33 16-30 18-26 29 11-1 33 2 35 4 32 10 31 30 5"/>
<path d="M25845 409106l-1 1 30 7 33-8 30-14 23-19-12-30-31-9-33 6-28 16-24 21-15 29-8 32 3 33 13 27 30 17 33 1 34-11"/>
<path d="M26121 409038l-2-2-27-11-28 19-20 23-14 29-10 31-6 31 11 30 31 6 26-14 26-20 21-26 17-26 14-29 12-32 7-33 0-39-4-34-7-36-10-37-11-37-11-35-10-29-14-30-30 8-10 32-4 32 1 38 4 32 7 36 9 37 11 38 12 36 13 36 14 34 14 31 13 28 17 34 18 25"/>
<path d="M26682 408654l-2-2-27-11-21 25-5 31 2 33 4 34 3 32 6 32 4 32 7 33 7 34 7 33 6 32 2 31-2 40-7 38-10 31-17 28"/>
<path d="M26573 408907l 1-2 30-13 35-7 35-5 35-5 34-9"/>
<path d="M26845 408879l-2 3-13 31-9 30-4 31-1 31 6 31 14 28 30 8 27-18 22-27 10-29 0-35-13-32-22-28-27-17-34-4"/>
<path d="M26977 408882l 1 0 20 24 12 32 10 32 0 34-6 31-21-21 1-37 10-34 13-28 21-31 20-22 26-20 30-14 30-5-5 32"/>
<path d="M18263 409396l-1 0-23-19-30-14-22-25-15-28 29-13 33-4 33-11 35-11 34-11 29-13 29-14 28-14 30-14 33-11 31-9 30-8 29-8 30-7 8 32-11 28-12 28"/>
<path d="M18630 410018l 1 1 5 32 6 33 9 33 15 28 24 19 29-9 21-30 11-29"/>
<path d="M18608 409863l-2 2"/>
<path d="M18280 408999l-1-1 6 31 10 32 7 31 5 30-4-30 1-37 5-37 5-36 6-33 10-30 12-27 24-18 16 26 10 30 9 30 12 30 18 29 20 23"/>
<path d="M22630 410237l-1 0-10 30"/>
<path d="M22631 410498l-2 2 13 28 17 25 20 29 19 31 14 29 12 34 8 30 6 30 5 39 2 34-1 31-8 33-20 23-29-7-27-19-22-21-20-23-23-29-18-30-9-30"/>
<path d="M22970 410332l 0 1-26 16-25 23-22 25-25 27-20 26-16 27 33 5 35 1 33 5 33 4 31 6 31 4"/>
<path d="M23163 410397l-1 0-8 34-2 33-1 35 3 34 9 31 12 29 19 24 31-5 19-29"/>
<path d="M23141 410185l-2 2 4 30"/>
<path d="M21929 411559l 0-2 31-12 34-8 32-5 34-3 33-3 32-4 30-3 33-4"/>
<path d="M22000 411635l-3 1 31-2 32-14 27-14 28-14 27-15"/>
<path d="M22090 411432l-3-1 31 0 34 7 31 12 34 14 32 9 29 10 30 14 10 30-21 30-19 28-22 28-22 24-22 23-26 24"/>
<path d="M22482 411532l 0 0 13 32 8 33 3 31 3 33 1 34-6 30-5-35 4-35 7-31 7-30 9-30 13-35 14-33 15-27 21-28 26-15 20 26 3 35-1 36-1 31-3 31-3 33 2 32 30-9"/>
<path d="M22765 411475l-2 2-16 25-10 31-3 33 4 30 20 26 29 14 33-9 27-14 26-22 19-31 12-34 1-34-11-34-23-23-33-14-32-3-29 12-20 24"/>
<path d="M23031 411626l-1 1"/>
<path d="M23084 411634l-2 2"/>
<path d="M23196 411650l 0 1 31 5"/>
<path d="M15888 412734l-2-2 31 9 33-9 30-11 28-11 12-29-20-24-31 0-32 7-26 19-21 23-11 30-4 32-2 30 2 31 8 31 18 29 25 19 28 11 31-4 29-8"/>
<path d="M16168 412834l-2 1"/>
<path d="M16351 412655l-4-2-31-13-31-5-34 3-29 15-25 22-20 27-12 33-2 34 22 27 33 10 35-8 31-14 25-20 23-26 14-29-22 23 15 27 17 25 19 24 19 25 19 26 18 30 14 37 9 36 6 34-1 31-9 36-18 27-25 21-35 9-30 1-30-9-30-18-24-22-15-27-4-34"/>
<path d="M16491 412797l 0 1"/>
<path d="M16621 412549l-1 0"/>
<path d="M16637 412634l-1 0"/>
<path d="M17286 412350l-2-1-31-8-30 3-33 8-33 10-30 7-6 30 12 28 6 33 7 32 5 37 5 40 4 32 3 35 2 37 3 41 1 42 3 44 2 44 2 31 0 45 0 31 0 30 0 46 0 43 0 44-1 43-3 43-2 42-2 40 0 40-1 39-1 34-1 31-1 30-2 35-2 35-2 34 0 31 1 31 31-10 31-12 29-12 30-7 30-5"/>
<path d="M17484 412563l-1-1 5 33 7 34 10 36 7 31 6 34 3 31 2 35 1 34"/>
<path d="M18112 412520l-1 0-1 35 3 35 2 32 3 34 1 38 4 36 3 35 3 36 0 35 0 31"/>
<path d="M18157 413197l 0-1 1 32 5 32 3 32 4 33 2 35 2 36 3 31"/>
<path d="M18340 412348l 0-1 30-10 30-2 33 0 32 0 30 4 21 23 3 36 3 30 4 36 3 31 4 30 3 32 4 32 4 34 5 36 5 36 4 40 4 42 4 44 4 30 2 30 6 42 4 43 3 42 4 39 3 39 4 31 4 30 6 32 7 31 3 30 5 30 3 33 4 30 5 30-6 30-29 9-28 13-30 9"/>
<path d="M19035 412328l 0-1-32 1-30 11-30 7-13 27 5 35 6 34 6 31 6 30 9 40 6 32 6 33 6 36 4 36 3 39 2 42 2 44 1 45 0 32 1 31-1 33 1 32 1 32 1 32 0 31 1 42 0 40 1 38 2 40 0 35 1 33 0 32 0 33-1 36 0 30-1 36-2 35 1 36-1 32-4 30 30-10 30-5 31-1 31-1 30 4"/>
<path d="M19389 412473l-2-2-13 30 0 31 4 34 3 32 3 30 3 33 2 30 0 31 2 31"/>
<path d="M19480 413099l-1-2-11-29-15-26-29-12-26 16-19 25-14 30-15 38-9 32-5 32-1 33 4 37 12 34 21 27 29 13 33 4 33-7 35-7 34-10 33-15 28-18 26-23 21-28 17-26 9-30 3-35-14-34-21-28-27-25-33-21-36-17-32-8-31 1-34 9-30 15"/>
<path d="M20049 412658l 0 1 29-17 32-15 30-9 33-7 30-5"/>
<path d="M20356 412445l 0-2-15 26-2 34 2 34 3 33 6 32 7 36 6 31 6 33 7 35 4 30"/>
<path d="M20265 413052l 0 1 1 33 2 33 3 31 3 31 4 34 0 30 5 33-1 30"/>
<path d="M20557 412291l-2 0 33 6 34 0 34-5 34-4 30-6 31-1 2 32 4 34 3 36 5 33 5 37 5 42 5 45 4 33 4 32 3 35 3 34 3 33 1 34 4 32 4 31 3 30 7 42 5 44 6 44 5 44 3 30 1 31 4 43 4 42 3 31 3 42 3 39 1 32 1 30 2 32 0 34-2 31-4 30-10 28-30 9-31-3-33 7-31 3-34 1"/>
<path d="M21214 412781l 0 1 33 1 34-2"/>
<path d="M21182 412871l-1 0 29-10 33-8 31-9 32-8"/>
<path d="M21544 412617l 1-1 34-5 34-3 32-3 31-6 32-6 34-7 30-5"/>
<path d="M21653 412679l-2 2-5 30 10 32 5 30 5 35 3 32 0 36 1 35-1 34-3 32-7 32"/>
<path d="M21533 413051l-2 5 31 0 33-6 32-7 35-4 30-2 33-3 33 1 35 3 34 7 32 10"/>
<path d="M21090 409342l-3-1 24-19 29-6 35-11 32-11 32-11 31-11 30-11 29-10"/>
<path d="M21124 409376l-2 1 30-8 33-10 30-12 34-6 32-7 33-7"/>
<path d="M21317 409166l-2-1 33-7 31 0 34 4 31 3 31 5 32 7 29 11 22 21-6 33-19 26-19 23-19 25-22 28-20 26-20 25"/>
<path d="M23329 411140l 0-2 21-22 29-10 31-9 31-6 30-5 31-1 31 8 11 31-8 31-14 28-15 34-16 33-18 37-14 37-15 37-9 34-5 31"/>
<path d="M23515 411613l-3 2-17 26"/>
</svg>
