<svg xmlns="http://www.w3.org/2000/svg" viewBox="1728 263349 12416 824" stroke="black" stroke-width="20" stroke-linecap="round" stroke-linejoin="round" fill="none" data-xena="0 -146 0"><style>@media(prefers-color-scheme:dark){svg{background-color:black;stroke:white;}}</style>
<path d="M1910 263985l-1 0-21 12 22 10 26-3 26-2 25-1 25-3 26-4 27-1 24-4 25-3 25-4 25-3 26-2 24-2 28-4 27-4 29-5 25 0 27-4 27-7 24-5 29-5 25-3 28-5 28-4 28 3 28 1 25 0 26 4 26 4 24 4 26 1 24-2 24-1 25-1 26 2 25 1 27-2 24 2 25 3 26 0 26 5 27 2 25 4 26 3 26 2 25 1 26 2 27 1 28 3 26-3 27 3 27 1 28-1 28 0 27 1 26 1 27 0 27 1 26 0 24 1 25-1 26 1 25 0 25 2 26 0 25-3 26 0 26 2 26-2 25-2 25 1 25-2 27 0 26-2 27-2 26-1 25-2 25-2 28-3 26-3 27-2 25-2 26-1 29-3 24-3 27-3 26-2 27-7 27-6 29-5 28-5 25-5 29-7 26-3 30-2 27-4 26-3 25 0 29-6 26-3 26 1 25-1 28 1 26 1 27-2 28 0 24 0 25 0 25 0 28 1 26 3 25-1 29 0 27 1 25 4 28 1 26 1 29 3 28-1 29 1 29 5 26 3 30 5 31 1 28 2 27 2 27 5 26 2 26 2 26 2 27 0 27 1 28 0 30-1 28-2 28 0 27 0 29-1 30-1 28-1 29 0 27 1 30-1 24 1 32 2 30-1 24 1 30 0 28 1 31 0 24 1 32 1 32 0 31-3 31 0 24 0 29 0 28 1 29-1 30 1 30-1 30-4 31-2 29 2 25-3 25-5 28-2 27 0 26 1 26-1 26-1 30 0 25 0 24 0 29 1 26 1 28 2 26 0 28-1 25 1 24 1 29 0 27 3 25 1 26 6 25 2 28 1 25 0 27-3 26 2 25-2 25 0 24-5 24-3 27 0 28-3 25-2 26-2 25-1 30-4 30-4 29-1 24-3 25-1 24-2 25-2 26-2 27 0 29-3 28-3 27-2 28 0 25-4 25 0 25 0 26 0 27-1 25 0 28-4 28-2 27 1 26-3 28-3 28-2 29-1 29-2 28 0 27 1 28-2 26 0 27 2 26 3 28 0 27 0 25 1 28 2 25 3 25 1 27 3 25 0 26 1 28 3 25 1 28 0 28 1 29 0 30 1 24 3 24-1 26 0 27 0 28-2 30-1 29 0 28 0 28-1 28 1 28 0 28-6 27 1 28 4 28 0 28-3 27 0 27-1 26 1 25 1 25-1 28 1 25 3 25 1 25 3 29 2 29 3 27 1 28 2 29 1 27 0 26 1 27 4 28 1 27 0 26 2 29 4 25 1 24 3 25 5 25 1 25 3 24-1 24 4 26-1 25-2 27 2 27 1 27 2 28 0 27 1 27 0 29 0 29 0 29 0 29-1 28 1 25 0 25 0 24 0 24-1 29-2 29 0 27 3 27 0 27-2 28-1 24 3 27 0 24 0 27 0 26 0 27 2 28 1 24 0 27 1 28 0 26 1 27 1 25 0 25 2 29 1 24 5 26 3 26 5 26 2 25 4 25 4 25 5 24 1 25-1 24 4 24 0 27 0 28 3 25-1 24 1 26-1 26-1 27 2 26 0 26-5 30-1 29 1 31-1 29-4 30-3 31-1 29-4 28-3 28-2 30-4 29-4 29-4 27-2 25-2 25-2 28 3 25 1 25 1 27 1 24 0 25 2 27-4 25 4 25-1 25 4 25-1 26 0 24-7 25 0 25-3 28-1 27-3 26-4 28-2 24-1 26-1 26 1 28-1 24 0 27 3 25-3 26 1 28 1 29-2 25-3 27 2 27-5 25 0 24 3 26 0 24-1 25-1 25 1 27 0 26-2 24-2 26 1 24 4 26 2 24-1 26-1 24 2 25-3"/>
<path d="M13080 263510l-1-1 24 8 25 8 27 5 27 0 26 3 28 1 24 1 25 5 27 1 27 3 25 3 29 2 24-2 25-1 25 1 30-2 24-3 26 0 25 1 25 0 26 2 27 2 26 2 27 2 25 1 26 3 27-2 25-1 26-6 25-6 24-5 26-1 24-3 26-1 24 0"/>
</svg>
