<svg xmlns="http://www.w3.org/2000/svg" viewBox="-2580 424462 25222 11151859" stroke="black" stroke-width="16" stroke-linecap="round" stroke-linejoin="round" fill="none" data-xena="2 -6023 1"><style>@media(prefers-color-scheme:dark){svg{background-color:black;stroke:white;}}</style>
<path d="M10100 424746l 0-1 24-4 25 1 26-3 25-2 25-2 30 0 26 1 27 0 30 2 30 2 25 3 26 1 26 1 28-1 27 0 25 0 27-2 28-3 29-3 27-3 26-4 26-3 25-1 30-1 29 1 27 2 27 1 26 2 25 1 25 2 26 0 26 1 26-2 26 0 25 2 25 2 26 0 25 0 25 1 28 0 28-2 27 0 28-1 29-2 25-1 30 0 24 1 24 2 30 1 26 1 25-2 25 0 27 1 27-1 27 0 29 0 27-1 25 1 25 2 26 0 26-3 27 0 28-2 27-1 25-2 28-3 29-2 25-1 29-1 28-2 28 3 28 1 25 0 28 2 28 2 28 4 27 3 25 2 27 2 31 1 25 1 26 2 26 1 29-1 29 0 29 0 29-1 28-1 27-1 24 0 25 0 27 0 26-1 27 1 26 0 25 2 26 3 26 0 24 3 25 2 28 2 28 1 27 2 29 1 29 1 29 0 27-1 26 0 25-2 29-4 27-1 25-1"/>
<path d="M3639 425077l 0-1 24 0 24 11 28 5 26 0 24 0 28 0 27-1 27-2 29 1 26-3 24-2 25-1 28-2 25-2 27-1 26 0 25 1 28 0 28-1 29 0 24 2 28 0 28 0 27-1 27-1 28-1 28 1 28-1 27 0 28 0 30-2 31-2 32-3 29-7 31-6 24-5 24-4 29-5 29-5 28-1 28-3 27-2 29-1 29 2 28 1 28 0 28 1 26 2 27 1 28 4 28 4 27 5 27 4 26 4 27 2 30 2 28 1 26-1 30-2 26-2 26-1 29 0 29 0 26 0 26 0 26 2 26 3 25-1 24-1 25-1 26 2 24 0 24 0 26 1 24 3 25 3 29 4 25 1 26 1 27 5 28 1 29-1 28 3 29 2 31 2 29 2 31 3 24 0 31 2 31 3 31 2 26 0 25 2 26 4 25 3 26 2 26 1 31 3 25 1 26 2 25 0 25 1 26 0 26 2 27 0 28-3 29-2 30-2 32-2 29-3 29-2 28-3 29-2 28-1 28-2 29-3 29-3 29-2 30-3 30-4 31-2 31-5 30-4 29-3 29-4 27-5 28-3 28-3 26-2 27-2 27-2 26 0 24-2 25-4 26-1 27-1 25 0 25-1 26-2 26 0 28-1 27-1 27 0 27-1 27-1 27-1 26-1 25 0 27-2 27 0 27 0 27 0 27-1 26-1 27 0 28-1 28 1 28-1 28 0 28-2 27-1 27 1 28 0 28 1 28 1 27 2 28 1 28 0 29 0 29 2 30 1 30 1 32-1 31 0 31-2 31-1 33-3 34-1 33-2 33-1 35-2 35-5 35-2 34-2 25-2 24-2 25-2 24-3 26-2 26-3 26-2 27-2 25-2 26-2 26-3 27-4 27-3 26-2 26-2 25 0 25-1 25-2 35 0 25 0 35 2 35 2 33 2 33 2 34 3 33 2 33 2 32 1 32 1 29 1 31 1 32 1 31 3 31 0 29 0 29 1 29 1 28 0 28 1 27 2 28 1 26 1 26 0 25 0 26 1 26-1 26 0 26 0 24 1 31 0 31 0 31 2 31 0 31 1 32 0 25-3 30 0 30 0 32 1 25 2 24 0 31 1 32 1 25 0 26-1 26 0 27 1 27 0 31-2 29-3 27-1 28-2 30 0 30-2 31 0 28-1 28-2 27-1 29 0 28 2 27 0 27-1 27 0 26-1 27 0 25-1 26-2 26-1 27-1 26 0 24 0 32 0 24 0 25-2 24-1 31 0 26-1 26-2 25 1 26-1 25-1 27 1 27 0 27-3 28 0 26-1 26-1 28 0 26 0 26-1 27-1 26 2 27 1 26-1 25 1 25 1 26 2 27 1 26-1 31 1 29 3 29 2 29 3 28 1 26 0 25 2 25 2 28 2 26 2 29 2 24 5 25 4 25 1 25 5 25 3 28 2 28-1 26 0 26 1 28 0 27 1 30-1 27-2 28 3 28 2 27 0 26 2 27-1 25 0 25 3 24-6 25-1 25-4 24 4 25 3 25 2"/>
<path d="M3584 425390l-1 0 24-10 24 1 26 4 23 11 28 4 27 3 26 3 25 2 25-1 26-2 26-1 25-3 26-2 26-1 30 0 27 1 31 0 29 0 31 0 32 0 31-2 29-2 32-2 25-1 26-1 24-1 32 0 24-1 24 0 25 0 33-1 31 0 25 0 25-1 25-1 25-1 27-1 29-1 28 0 28 0 30 0 28 0 26-1 27-1 27 0 28 0 27-1 28 0 29-1 29-2 30-1 31 0 32-3 31-2 30 0 32 0 31-2 29-1 31-2 28 0 29-1 27-1 28-1 26-1 28-3 27-2 26-1 26 0 26-2 25-1 25-2 27-2 25-1 26-2 26-2 27-1 24-1 25-3 24-2 25-2 24 0 24-1 31 0 29 0 28 0 27 0 28 0 24 0 25 2 29 3 28 2 28 3 27 1 25 1 27 2 25 1 25 2 25-1 26-2 26-2 29 0 28-1 26-2 26-2 26-1 26-1 29-2 24 0 26 1 27 1 27 0 26-2 27 0 27 0 27 0 26 2 26 1 26 3 26 2 25 1 26 2 26 1 26 4 28 1 29-2 29 1 30 6 28 2 29 1 29 3 29 2 31 1 31 1 24 2 25 0 24 1 27-1 28 0 29 0 30-1 29-1 31 0 31 0 32 0 32 0 32-1 32-2 32-1 31-1 32-1 34-1 33 0 32-2 33-1 33-1 33-1 33-1 32 0 32 0 30 0 30 0 30-2 30 1 31 1 29 0 29 0 29 1 30 2 29 1 30 2 30 1 29 3 30 2 30 1 30 2 32 0 31 0 31 0 31 1 31 2 31 1 29 1 31-2 31 0 30 1 29 0 30 0 30-3 32-1 32-2 31-2 31-3 31-4 33-3 32-1 31-4 32-3 32-4 32-2 34-4 34-3 33-2 32-5 31-1 32-3 32 0 31-2 32-2 31-2 34-3 33 0 34-1 34-1 35-2 34-1 34-1 34-1 34 0 34-2 34-1 34-1 32-1 34-2 34-2 33-1 34 0 33-1 33-1 33 2 33-1 33-1 33-1 32 0 31 0 33 0 32-2 33 1 32 2 30 0 31 2 31 0 30 1 31 2 31-2 31 1 31 0 31 3 31 0 33-1 32 0 35 0 31-3 32-1 32 3 31-1 33 0 32-2 29-1 31 1 31-1 32-1 34-2 31-1 32 1 32-1 32 0 32 0 31 0 31 0 31-1 29 1 29 0 29 1 29 1 29 1 28 2 27 1 28 0 27 2 26-2 27 1 26 2 25 0 30 0 31 0 31-1 24 0 26 0 26 0 24-1 32 1 25 0 26 0 24-2 25-1 30-3 28-2 27 1 27 0 25-1 30-2 28 0 30 0 30 0 28 0 26 2 28-2 31 2 29 3 29 4 27 1 26 4 27 5 27 2 26 3 26 3 28 3 27 2 27 4 26 4 28 2 26 1 25 3 26 2 26 2 24 3 27 4 29 2 29 1 26-1 25-1 29-4 28-3 26-3"/>
<path d="M3603 425714l 0 1 25 3 25 0 26 3 24 3 26 5 24 3 28 2 32 4 28 1 28 1 30-1 28 0 27-1 27-3 29 0 28-3 30-3 31-5 30-3 28-2 27-1 28-2 28-2 27-1 26-1 26 0 24-1 30-2 31 0 28 1 27-1 27 0 29 2 30 1 27 1 26 2 27 3 27 2 25-1 30 1 25 0 26 1 27 1 25 2 27 0 27-2 25 1 26-1 26 2 27 2 27 0 26-1 25-2 27 0 27-2 26 2 28 1 25 3 28 0 28-1 27 0 26 1 25-1 27 0 24-1 25 1"/>
<path d="M1986 425341l 0-2-7-24-11-22-23-10-18 20-7 27-5 32-1 27 1 30 4 30 5 28 7 24 11 25 20 16 25-8 14-22 9-31 3-29 2-26-2-30-6-24-13-26-19-15-23-9 17-20 11-23 7-25 3-27 15 25 12 24 14 26 14 27 16 25 13 25 13 21 18 17 22-9 0-31-5-23-4-26-8-26-8-27-11-24-9-23-13-21-16-21-16-18"/>
<path d="M2130 425202l-1 0 17-20 9-23 2-25-21-12-19 15-7 24-2 25 1 25 5 28 10 25 17 20 23 9 25-4 23-16 14-21 9-26 6-31 2-30-2-30-6-23-11-23-17-18-24-7 12-22 17-21 19-20 17 20 0 28 1 26 5 28 12 23 16 18"/>
<path d="M2323 425086l-1 0-1-24 6-27 8-23 7-27 6-30 7-32 3-27 1-27-1-25-4-31-10-26-11-23-12-22-16-24-15-19-15-20-17-18-24-5-8 26-1 27 1 24 3 27 5 27 10 30 14 28 17 31 16 29 19 27 18 23 18 21 22 20 22 12 24 6 25-6 15-18"/>
<path d="M2473 424828l-2 0-26-1-22 11-13 20-6 26-2 28 3 25 16 18 24-9 17-21 15-24 4-26-14-20 14 21 23 10 22 10"/>
<path d="M2519 424810l-1-1-1 25 13 20 16 20 15 20 13 21 11 23 15 25 14 28 14 27 13 30 11 26 12 27 7 25-24-17-19-27-16-25-18-29-18-31-16-31-14-30-14-30-15-27-13-28-7-26-6-23 3-26 9-22 21-11 27-4 27 5 14 20 5 24 0 27-5 24-9 23-11 27-12 22"/>
<path d="M2036 426146l 1-1 22-12 7-27 3-28 3-32-1-31-2-29-3-27-6-24-10-22-18-16 25-10 20-14 20-15 25-3 7 25-2 28 0 26-1 28-2 26-2 26 1 24 26-2 11-26"/>
<path d="M2182 425930l 1 0 12-21 10-22 5-28 3-25 1-25-7-24-25 1-14 22-5 23-5 28 0 27 3 27 6 25 13 24 17 17 23 6 26-9 18-19 11-23 10-28 5-24 2-26 3-30 0-31-2-32-5-32-7-34-12-34-11-23-11-22-13-21-17-29-17-25-14-20-19-19-25 6-2 28 9 29 12 26 12 23 14 23 20 26 19 28 17 29 15 19 21 27 16 19 20 25 17 27 15 22 19 23 20 16 21-10"/>
<path d="M2424 425642l-2-1-23-10-26 0-10 24-1 25 3 29 7 25 12 22 25-1 16-20 9-23 0-26 25 9 24 9 20-14 9-24 2-25-3-28-3-27-3-25-10-25-12-25-16-28-13-23-14-22-13-22-14-23-4 25 10 23 11 27 13 30 13 24 14 25 13 26 12 24 13 23 13 21 18 22 20 20 24 4 17-20-1-24-2-26-5-25-11-27"/>
<path d="M2440 425552l-3 2-19 19 20-15 15-24 15-19 15-22 15-23 12-22 17-24 16-20 19 14 5 27 4 26 7 26 12 25 10 22 13 22"/>
<path d="M2511 425313l-1 1-6 23 23 13 25 12 42 41 15 22 12 24 13 21 16 18 18 17 24 6 15-22 0-26-4-24-7-24-15-20-26-4-26 5-19 16 11-24 11-22 16-23 17-18 24-4 16 19 10 24 9 24 8 25 7-27 0-25 0-24 1-27 2-27 6-24 17 18 11 25 11 24 12 26 12 23"/>
<path d="M2833 425283l 0 0 13-25 8-26 4-28 8-29 3-27-3-26-8-23-12 21 15 19 25 14 25 8 23 7 3 25-10 25-15 20 6-25 13-27 7-27 8-28 7-30 4-26 2-26 0-24-2-30-7-29-12-22-13-21-14-23-14-21-19-23-19-18-7 24 17 25 15 27 15 24 15 28 17 30 14 31 14 31 12 27 11 23 12 28 13 22 5-28 0-24-3-27-1-27 0-25 0-28 3-25 17 18 12 24 19 16 22-14 12-22"/>
<path d="M3089 424965l-1-1 20 16 17 18"/>
<path d="M3064 424791l-1 1-20 15"/>
<path d="M3145 424870l 0 0 12 22 16 19 20 20 17 21 13 23 13 28 10 30 9 23 10 28 8 25-10-26-9-25-11-30-13-28-15-31-17-27-15-27-14-23-15-24-16-20-12-22 17-18 22-13 25-9 25 0 16 22 1 27-3 27-9 28-13 21-15 20"/>
<path d="M3171 424615l-1-1 14-21 19-19 22-9 24 7 11 24 4 28 3 29 0 26 0 26-1 28"/>
<path d="M3320 424790l 1 1"/>
<path d="M13232 465434l 0 0 16-22 15-20 14-19 17-23 19-26 19-29 21-29 21-28 21-23 19-22 19-20 17-21 20-22 20-18 20-15 19-16 19-17 18-17"/>
<path d="M13678 464967l 0-2-2-24 26-2 22 10 21 17 15 23 9 24 6 27 2 26-1 29-5 25-12 22-13-20-7-27-3-32-2-28 1-27 3-28 6-31 9-24 11-26 13-23 21-14 21 14 14 24 11 25 8 24 5 25 5 25 3 26 2 27 5 25"/>
<path d="M13957 464836l-1 1-17 18 0 25 5 27 9 26 11 22 18 19 28-3 21-14 19-24 9-24 2-24-12-23-22-16-25-3-20 14-9 25"/>
<path d="M14086 464589l-1-1 5 25 4 25 4 30 3 25 3 26 4 26 5 25 6 25 9 30 9 27 11 22 14 20 22 13 26-10 15-18 12-24 10-26"/>
<path d="M14070 464806l-1 1 17-19 20-22 20-19 23-22 20-17 20-15"/>
<path d="M14500 464645l 0-1 2-26 1-26-8-24-24-4-19 20-13 24-10 27-7 25-6 31-1 27 6 26 20 14 24-11 19-17 18-21 13-22 8-23 3-24-11-22 4 26 8 25 18 18 22-12 14-23 12-27 10-25 8-32 7-25 5-28 4-28 1-29-2-26-5-26-7-24-9-24-13-27-13-21-19-18-24 11-10 25-5 30-1 32 2 27 6 30 8 33 11 33 12 30 16 27 16 22 16 18 20 13 25 8 24-4 20-15 16-25 9-24 6-23 4-28 2-29-2-30-5-32-8-34-7-24-7-25-9-23-13-30-11-27-14-24-17-20-24 8-8 26 0 25 2 25 6 29 8 31 11 34 9 24 9 22 17 31 16 26 16 23 19 25 18 17 21 12 26 7"/>
<path d="M14971 464323l-1-1 22 18 13 21 12 21 15 22 9 25 6-26-2-24-1-27-1-31-1-29 0-26 1-25 4-26 14-21 23 6 15 20 11 25 8 27 8 26 7 24 8 23 12 22 22-11"/>
<path d="M15202 464188l-1 1 26-5 22-15 18-17 16-20 11-22-25-6-20 13-20 18-17 24-9 24-8 29-2 28 5 26 16 18 24 5 25-7 21-14 25-19 17-16 18-19 16-18"/>
<path d="M15403 464030l-1 1-21 15-13 22-12 24-7 27-3 27 2 27 14 20 26 4 24-12 19-16 20-20"/>
<path d="M15547 463999l-1 0 25-4 18-18 19-22 14-22 9-22-24-3-23 13-19 17-15 23-10 25-5 26 2 28 14 20 23 4 25-1 28-14 24-16 23-21 22-22 18-25 15-23 9-22 6-26 1-27-5-24-14 20 18 17 22 17 22 15 19 16 9 24-15 22-18 16-25 6 8-23 19-16 19-20 16-18 18-19 17-21 12-21 10-26 5-24-4-27-10-25-20-16-16 19 11 24 21 16 25 10 24 8 24 8 23 12 0 28-19 19-23 16-21 14-22 13-20 13 22-12 22-18 22-19"/>
<path d="M16075 463686l-4-2-22-10-22 13-16 20-10 27-7 25-4 23 6 24 27 1 20-14 16-18 14-20"/>
<path d="M16071 463727l-1-1 6 25 23 14 28-5 25-13 18-22"/>
<path d="M16187 463626l-1-2-11-24-9-22 16-19 24-9 25-2 21 13-5 26-10 24-9 25-5 25-1 25 20 15 22-15 17-17 19-22 15-19 12-23 10-23 3-24-5-25-12 23 2 25 9 22 23 11 18-20 14-23 10-26 6-24 4-28 1-25 7 26 9 24 9 26 10 28 9 24 7 25 8 26 8 27 8 31 7 32 9 33 7 32 4 33 2 33-1 36-3 25-4 24-8 33-10 28-13 25-20 16-23-15-9-25-8-28-8-33-3-24-3-28-2-29-2-31 0-31 0-31 1-32 2-29 4-28 5-25 8-29 6-27 9-23 9-25 14-27 17-23 19-19 18-15"/>
<path d="M13884 465737l-1-2-10-23-7-25-12-22-25 0-16 24-11 28-8 25-5 28-3 25 0 28 5 24 14 22 24 1 21-15 18-22 18-23 13-23 8-23-8-24-18 17 21 18 24 3 22-14 17-19 13-22 13-24 11-27 7-27 4-30-1-26-7-25-8 24 20 16 22 17 18 15 14 22-7 26-15 19 9-25 16-22 15-21 15-23 15-23 15-26 12-27 8-23 3-24-15-20-18 17 12 21 27 7 25 6 26 3 21 11-6 24-18 20-23 12 14-23 18-18 16-19 21-21"/>
<path d="M14299 465347l-1-1 9 27 5 30 5 25 10 25 18 17 25-5 15-20 12-25 9-29 5-24-2-26-11-21-8 23 2 27 11 21 20 17 25-5 19-15 16-21 9-22 5-26-2-26-9-24-11-22-9 23 11 24 12 25 12 24 17 17 22-14 7-27 5-28 1-26 1-25 7 23 9 25 20-15 10-25 7-25 7-25 5-24 16 23 15 22 18 20 22 12"/>
<path d="M14726 465137l-2 1 18 20 17 24 12 21 11 27 7 24 5 25 2 28 2 26 1 31 0 27 0-26-2-30-4-28-4-31-7-32-6-34-7-32-6-30-7-26-7-26-5-23 4-26 16-18 20-15 26-7 26 6 11 22-1 27-8 25-12 26-14 23-16 22"/>
<path d="M14873 464742l 0 0 4 27 4 25 4 27 6 26 7 31 7 25 6 26 6 25 6 24 8 28 9 25 14 21 21 14 27-10 19-21 13-22 9-23"/>
<path d="M14862 464947l-2 1 15-22 19-17 21-19 22-20 24-18 22-14 23-12 24-4 16 19 6 24 6 23 7 26 10 23 10 23"/>
<path d="M15029 464723l-2 0"/>
<path d="M15131 464819l-2 2-5 24 6 25 16 19 25 6 25-6 15-21-7-25-17-20-20-14-20-14 10-22 16-21 17-18 21-15 24-5 21 17 13 23 13 21 25-1 10-26 6-25 4-24 20 15 23-13 17-20 14-24 4-25-5-24 4 26 21 16 24 13 22 12 19 17 6 25-20 14-25 7 5-24 20-13 23-12 23-8"/>
<path d="M15588 464692l 1 0"/>
<path d="M14001 466120l-1-1 22-13 22-16 21-13 23-18 19-16 19-15 19-15 22-18 19-17"/>
<path d="M14040 466103l-1 0 5 25 9 26 9 27 10 28 9 29 8 29 7 31 7 27 5 26 7 25 8 24 8 23"/>
<path d="M14066 466243l-1 0 25 5 25-15 24-17 20-17 21-14 20-13 23-18 21-15"/>
<path d="M14117 466417l 0 0 20-17 23-18 23-17 21-18 21-18 24-20 19-17 20-16 19-15"/>
<path d="M14400 465771l-1-1-24-6-23 13-22 16-20 15-20 16 8 24 12 22 12 22 13 22 12 26 10 24 9 28 9 34 7 34 5 24 6 34 7 34 7 32 8 32 8 28 7 27 8 23 9 28 11 26 11 23 16 20 22 11 22-11 21-14 23-15 22-14 22-17"/>
<path d="M14578 465866l-1-2-23 6-19 15-17 23-13 22-9 25 20 13 25-11 25-9 24-6-10 22-15 24-15 24-10 22-8 28-4 27 2 25 15 21 24 8 25-1 26-9 23-17 21-15 22-17 14-19"/>
<path d="M14752 465998l 0 1-1 24 3 25 8 25 14 21 24 0"/>
<path d="M14728 465929l-1 1"/>
<path d="M14714 465688l-1 0 19-18 20-17 20-18 18-18 19 17 10 23 15 26 13 24 14 28 11 23 13 26 13 26 12 26 13 28 14 27 13 28 13 27 13 24 14 26 12 25 13 22 13 26 13 23 3 24-24 13-24 7-24 6-27 7-25 6-27 3"/>
<path d="M15019 465766l-1 0 17-18 24-13 24-12 25-12"/>
<path d="M15062 465797l-1 0 24-10 21-14 21-18 22-20"/>
<path d="M15235 465527l-1 0-20 15-12 24-5 28 2 27 5 24 9 25 11 26 13 24 16 21 22 19 24 12 24 6 25 2 26-9 23-12 21-17 19-22 16-26 9-30 4-24-1-31-6-24-12-26-17-28-20-28-21-22-22-14-28-10-28-2-26 5-24 10-21 12-21 19"/>
<path d="M15867 465399l-1 1 14-24 15-25 11-25 12-25 9-26 9-25 8-29 4-24-2-26-12-24-20-15-19 16 2 24 18 19 21 16 19 16 18 17 12 23 0 24 13-23 14-22 17-22"/>
<path d="M16082 465145l-1-2 11-25 9-22-11-22-24 4-13 21-9 27-4 27 0 28 9 22 24 7 27-12 21-15 20-18 20-22"/>
<path d="M16172 465041l-1 0 19-21 18-19 20-19 17-18 14-21 2-24-27 1-24 13-18 22-12 24-7 28-3 27 3 25 12 20 25 7 30-4 24-11 23-18 23-23 20-22 17-21"/>
<path d="M16337 464888l-1 1-8 23 9 25 7 24 18-18 7-25 7-25 23 11 24-7 13-22 11-21 21 14 25 2 25-4 20-13 17-21 10-26 4-26-5-25-8-23 21 12 25 8 25 11 24 11 5 23-19 19-22 14-22 13 20-16 23-17 20-16 21-13 24-10"/>
<path d="M14401 466862l-1 1 0 26 3 25 6 23 8 25 9 23 17 21 18-17"/>
<path d="M14366 466729l-1 0 13 21"/>
<path d="M14503 466848l 0 1 7 23 9 25 9-29 0-25 0-26 3-28 4-24 24-1 11 22 9 26 6 24 6 24 9-28 4-28 3-29 3-26 6-25 23-7 12 21 12 22 11 21 24 5 14-24"/>
<path d="M14733 466666l-1-1 20 19 13 21 12 29 10 25 11 27 10 28 7 28 7 25 7 25-9-29-6-28-5-24-5-26-4-26-5-26-3-25-4-30-3-27-3-26 0-25 5-24 22-13 25-1 23 14 9 22 1 26-3 30-7 27-8 23-14 22"/>
<path d="M14903 466543l-1 1-7 24-3 27 2 25 14 19 27-3 18-17 15-20 8-24 2-27-13-21-24-6-22 14"/>
<path d="M14978 466451l 1-1 13-21 22-11 24-2 21 13-5 26-8 27-6 24 12 23 26 0 20-17 16-23 12-23"/>
<path d="M15111 466216l 0 0 9 25 10 24 8 25 6 29 6 24 6 24 8 27 13 23 15 20 20 14 26-9 18-24"/>
<path d="M15138 466304l-1-1 6-24 20-19 24-17 21-13"/>
<path d="M15384 466239l-2-1-25-9-26-3-26 9-18 17-12 22-1 24 14 20 25-3 23-13 18-17-2-24 24 11 24-5 22-13 17-22 10-24 5-26-12-21-13 22 4 25 12 21 22-14 10-24 9-26 9-24 12-21 21 12 15 20 17 17 25-6 17-23"/>
<path d="M15573 465935l-1 1-4 23 15 22 12 26 10 29 10 27 7 29 7 26 9 27 14 19 23 12 21-16 4-24-6-26-13-20-18-19-18-16-19-16 14-22 20-16 22-13 22-15 21-17 19-16"/>
<path d="M15819 466081l-1 0"/>
<path d="M13805 466507l-1 0 5-25-14-22-21 12"/>
<path d="M14254 467634l 0 1-5-24"/>
<path d="M14380 467482l-1-1-3-25 12-22 24 6 7 24 5 31 4 27 4 28 3 27 4 29 5 30 6 25 11 24 14 22 25 11 22-14 14-20 11-24 9-26 9-31 6-31 6-32 3-31 1-31-2-29-5-28-6-25-9-25-9-25-9-23-11-22-14-20-6 30 5 26 9 29 9 23 9 26 11 26 10 25 11 25 14 22 14 21 17 19 17 18 26 9 20-13"/>
<path d="M14663 467408l-1 0 9 23 13 23 12 21 3-29 3-26 5-30 5-27 5-25 8-24 18 21 11 24 7 24 9 23 20 13"/>
<path d="M14898 467259l-1 0-23 11-7 24-4 27-1 25 0 26 18 16 25-10 21-17"/>
<path d="M14967 467223l-1 1-12 23-7 24-2 26 21 13 23-8 21-19 16-21 9-24-16-19-25-6"/>
<path d="M15037 467111l 0 0 18-17 21-13 23-12 23 10-1 27-6 26-8 25-4 24 8 23 24-12 16-21 16-24"/>
<path d="M15212 467008l-1 0 20-18 22-13 24-7 0 26-9 25-8 23-6 28-5 26 3 25 22-14"/>
<path d="M15343 466981l 0 1 22-11 14-20 12-22 5-24-26-6-20 15-12 21-9 24-6 24-1 27 4 27 17 23 26 6 26-7 21-18 17-19 15-27 11-22 10-30 5-29 1-31-2-26-6-30-11-31-10-24-12-27-12-27-14-27-13-25-15-23-24-4-6 25 1 29 6 26 11 30 13 27 12 28 14 28 9 22 9 23 14 33 14 27 15 22 16 19 24 14 28 5 26-9 15-19"/>
<path d="M15628 466802l 0-2 8-25 13-21-14-20-23 7-17 23-12 26-6 24-4 27 3 26 21 13 23-10 18-18 15-19 11-23-3-25 23 10 22-17 10-26 8-28 6-29 3-31 2-31-3-25-5-27-9-26-9-27-13-30-13-30-13-26-12-25-14 21 3 27 5 23 8 24 9 27 12 29 11 28 12 29 12 29 12 27 12 23 16 25 19 18 23 10 26-7 21-18 13-26 6-27-6-27"/>
<path d="M15682 466629l-3 2-22 14 12-23 17-20 20-21 17-19 17-19 18-18"/>
<path d="M15884 466563l-1 1 22-15 17-17 16-22 11-23-18-16-25 11-15 19-12 23-7 25-1 27 6 26 17 19 24 8 25-5 22-11 23-18 17-19"/>
<path d="M16068 466412l-2 1-24 13-20 20-16 22-9 24-5 24 0 24 6 24 22 10 23-13 17-21 13-21 9-28 4-26 1-27-1-27-7-24-13-24-15-24-17-28-14-20-14-20-17-23-19-18-12 23 6 26 9 29 10 27 12 29 12 30 15 28 16 31 18 29 19 26 17 19 22 18 22 12 25 3 23-8 21-16"/>
<path d="M16261 466275l-1 1 20-17 23-16 21-13 22-17 22-16 22-12"/>
<path d="M16282 466321l-1 1 25-5 21-19 19-20 21-21 16-18 20-23 18-26"/>
<path d="M16364 466090l-1 1 25 4 26-6 26-6 26-5 23-5 16 19-6 26-10 27-12 25-14 21-14 26-12 21"/>
<path d="M16660 466046l 0-1 1-24-20 17-11 24-8 26-4 25-2 28-1 24 4 26 22 13 21-14 17-20 19-25"/>
<path d="M16816 465943l-1 1-18 15-15 20-15 23-12 22-9 26 0 25 22 10 24-11 21-15 16-20 14-21 5-26-17-19-23-5 6-26 15-19 18-18 21 16 11 21 16 19 20 13 23 10 21-14 4-25-2-28-6-28-10-22-13-22-14-21"/>
<path d="M17061 465775l-1-1-26-3-21 12-16 23-2 24 5 24 16 19 25-1 20-13 17-20 5-25-10-23 24 1"/>
<path d="M17121 465692l-1-1 0-25 16-18 22-15 24-6 3 25-3 25-6 25-3 24 7 24 23 9 25-12 19-19 17-23"/>
<path d="M17261 465569l-1 1-12 21-3 24 5 25 17 17"/>
<path d="M17225 465465l-2 1"/>
<path d="M17380 465526l-1-1-9-22-22 12-10 23-6 24-2 26 22 13 24-16 16-21 12-22 3-24-9 23 22 10 22-13 17-23 8-24-1-24-16-19-8 24 6 23 10 23 23-8 9-26 7-25 5-24 9-22 19 19 17 19 26 2"/>
<path d="M17665 465300l-1-1-20 14-13 20-11 25-10 26-1 26 14 22 25 6 28-8 23-15 21-20"/>
<path d="M17715 465316l-1 1 26-5 16-21 8-23-24-4-23 13-15 22-6 25-2 25 13 20 19 18 24 4 24-1 25-11 23-16 18-18"/>
<path d="M17869 465083l 1 0 24-10 27-15 20-16 21-14"/>
<path d="M17904 465137l-1 2 23-4 22-17 21-16 25-20 19-16 19-17"/>
<path d="M18121 464879l-1 1-18 18-10 25-6 25 0 30 6 28 10 23 12 21 20 19 27 12 24 5 26-3 26-8 23-9 23-16 22-18 18-24 9-22 8-26 3-25-2-24-11-26-15-22-21-19-26-12-27-4-25 1-26 9-23 15-19 22-11 22-4 25"/>
<path d="M18403 464654l-1-1-12-21 17-18 23-12 26-4 26 0 25 6 21 12 6 26-6 25-8 26-8 26"/>
<path d="M18583 464841l 0 0"/>
<path d="M11279 469558l-1 1-14 22-9 26-9 28-6 25-5 27-3 29-1 30 0 25 2 31 2 30 7 28 5 28 7 23 13 23 20 13"/>
<path d="M11378 469828l-1 1 27-8 16-19 16-26 13-28 13-30 12-29 9-29 5-28 0-27-5-25-9-25-11-24-22 11-8 29-7 31-4 25-3 33 0 24 4 32 5 30 6 30 11 26 18 18 23 13 28-5"/>
<path d="M11562 469698l-1 1-7 24 7 25 9 24 21 11"/>
<path d="M11587 469578l-1-1-22 11"/>
<path d="M11661 469689l 0 1-2 26 2 24 10 24 9-23 7-24 6-25 9-25 12-22 12-23 16-20 22 12 8 24 7 27 6 26 14 22 23 9"/>
<path d="M11867 469632l-1-1 23-12 21-14 18-18 9-23-23-12-26 6-19 19-10 24-5 26 3 26 20 18 24 5 24-5 26-11 21-13"/>
<path d="M12073 469555l 1-4-5-24-20-13-24 2-14 21-9 23-4 25 10 22 24 8 25-10 14-21 8-24 22 13 24-11 21-14 20-18 15-23 7-26-11-22-4-24 23-15 25-2 1 24-11 23-9 25-1 26 19 17 26-4"/>
<path d="M12304 469232l 0-1 15 19 4 24 6 27 2 29-2 27 0 27 1 24 2 24 4 26 5 25 18 18 21-11 19-17"/>
<path d="M12282 469395l-1 0 23-9 22-11 21-13 21-11 25-14 21-15 23-12 3 24-3 26-2 27 0 27 5 25 24 4 16-20 10-23 11-24 8-23-12 22 6 27 10 26 12 26 11 23 10 23 13 26 8 26 3 27-1 24-9 25-15 23-21 17-21 11-26 2-27-5-20-15-16-22-8-26-5-25"/>
<path d="M12292 469407l 0 1-3 24 7 25 14 21"/>
<path d="M12244 469318l-1-1"/>
<path d="M12573 469179l-1 1 27 4 23 8 21 15 18 20 16 24 10 23 8 24 4 26-1 24-4 25-8 24-9 28-9 25-9 24-11 25-11 22"/>
<path d="M4793 11517615l-1 0-24 10-8 23-7 23-6 24-6 28-4 25-3 27-3 30-3 30-2 31 0 30 1 29 7 29 10 25 11 27 13 21 18 16 22 16 26 8"/>
<path d="M4913 11517713l-1 0 9 24 11 26 9 28 9 24 10 30 6 25 8 25 6 24 6 24 5 28 4 25"/>
<path d="M4885 11517713l 0 0 19-22 20-15 23-15 23-17 24-9 23-7 13 23-6 23-11 29-9 24-12 23-12 21-14 27-14 25 20-20 20-19 21-17 24-14 25-11 24-7 29 0 24 4 21 12 10 22 3 25-2 29-4 24-6 31-8 23-12 27-12 22-19 28-20 19-18 17-24 10"/>
<path d="M5323 11517822l-2-2-22-13-22-14-23 10-12 24-7 25-2 26 2 24 17 17 26-8 22-16 15-20 6-24 6 24 17 19 26-4"/>
<path d="M5400 11517835l 1 1 11 23 24 0 16-18 9-23-3-24-3 25 16 21 18 20 21 18 18 17 14 25 14 25 12 27 8 27 3 29-4 24-20 16-25 5-26-2-26-7-25-13-17-19-15-24"/>
<path d="M5539 11517784l 0 1 25-5 16-17 12-23-17-17-23 8-17 20-8 25 2 26 6 25 18 18 26 9 25 1 25-10 17-18"/>
<path d="M5673 11517711l-1 0-15 20-8 24 19 18 26-7 23-7 23-7 23 9 4 26-6 25-10 23-22 13"/>
<path d="M5686 11517574l 0 0 25 3 23 8 22 14 20 16 21 18 20 22 16 20 14 20 10 23 11 24 8 29 5 29 3 29 0 25-5 29-6 28-9 27"/>
<path d="M9776 11531727l-1 0-18 18-9 25-7 24-6 28-6 25-4 27-4 30-3 28-1 27 0 25 0 25 1 24 5 26 6 24 14 24 18 16 27 8"/>
<path d="M9908 11532061l-1 1 26-3 15-24 15-28 10-23 10-23 9-25 9-25 6-26 3-30-3-26-8-28-12-26-17-18-18 22-9 28-5 27-3 28 0 29 1 26 5 25 7 24 12 25 15 20 23 12 25 3"/>
<path d="M10094 11531903l-1 0-15 20-1 28 12 23"/>
<path d="M10068 11531802l-1 1 9 23"/>
<path d="M10157 11531852l 0 1 11 23 5 26 6 27 3 24 19-20 8-24 9-24 24-1 11 22 12 23 26 1"/>
<path d="M10342 11531836l-1 0 25 0 19-17 13-21-20-15-20 16-12 20-8 26-1 24 4 25 22 13 24-5 25-15"/>
<path d="M10543 11531754l-1 0-26 3-17 19-12 24-6 25 23 12 21-14 24 0 17 18 23-10"/>
<path d="M10608 11531735l-1 0 22-14 23-10 2 24-7 24-9 23-1 25 25 4 22-9"/>
<path d="M10772 11531533l 0 0 12 24 1 24-1 29 2 24-1 29 0 24 5 24 10 23 15 20 25 10 25 2 23-12 18-18"/>
<path d="M10759 11531664l 0 0 23-11 22-13 24-9 24-9 23-9 25 3 1 27 1 24 3 24 23 9 19-18 12-23 4-25-13-20-1 25 10 23 11 22 13 23 13 24 11 22 12 26 7 24 4 26-1 26-4 24-8 25-13 23-18 22-21 12-25 6-26-8-15-20-7-25-2-27 0-28"/>
<path d="M10891 11531467l-1 0 25-4 28 10 24 13 23 18 19 17 17 18 19 20 13 20 12 26 8 24 7 28 2 29 0 27-2 24-6 30-5 26-7 26-13 20"/>
<path d="M6713 11531039l-1 0 5-28 3-26 3-25 2-29 2-30 1-31 0-31 0-30 0-29-3-30-5-27 14 28 10 27 11 25 12 21 12 21 14 20 18 25 16 24 16 23 10 23 0 24-19 16-25 11-24 5-27-1-27-4-25-8-26-11-23-10 1-26 10-26 13-23 17-24 16-23 16-22 18-19 23-21 20-17 22-11 22-12-1 27-8 26-10 24-12 25-16 27-16 30-12 22-12 22-13 22-18 29-17 31-14 29-12 29-9 24-10 22"/>
<path d="M13556 11539408l-1 1-24 10-18 21-14 25-10 24-8 26-4 26 2 28 11 22 22 12 26 1 25-12 25-14 21-21 15-23 10-27 1-25-7-28-11-23-18-20-21-15-24-5-24 0 26-2 26-8 28-7 23-9 25-10 25-12 23-9 22-9 24-7"/>
<path d="M13808 11539197l 0 0 26-5 27-1 24 2 14 20-10 24-17 22-19 21-17 19 25 2 25-7 24-7"/>
<path d="M14285 11539121l-1 0 9 23 7 24 4 27 3 30 2 25-1 27-2 30-3 30-3 32-5 33-3 29-3 27-3 29 2 24 14 23 27 1 28-11 23-15 22-20 18-20"/>
<path d="M14267 11539395l 0 0 24-12 21-12 21-13 24-14 25-13 26-11 24-10"/>
<path d="M14518 11539383l-1 1-24 7-20 15-13 21 4 24 24 5 25-9 19-16 1-25-2 25 13 21 25-6 17-19 16-24 42-204-3-27-3-28-2-25-5 28-2 27 0 29 1 29 1 32 0 24 0 25 0 25 0 24 2 29 4 28 6 23 11-24 2-26 1-28 5-27 7-23 13-23 20-13 17 17 5 25-5 25-11 22-14 21 20 14"/>
<path d="M14790 11539359l 0 0 23 10 23-7 19-15-8-24-24 7-16 21-10 22-6 26 9 24 25 6 25-7 22-13 19-16 21-20 16-18 14-21 12-25 7-25-21 13 12 23 17 19 22 18 16 18 19 18 1 25-24 11-25 2 20-14 25 1"/>
<path d="M15396 11539298l-1 0 25 1 24-12 22-12 19-16 15-20 4-24-24-13-24-1-22 10-18 17-16 24-14 27-7 28 0 24 14 23 22 12 25 2 24-3 27-10 23-11 21-12"/>
<path d="M15574 11539211l 0 0 24-2 20 14 14 20 11 21 11 23 15 22 24 6 25-9"/>
<path d="M15707 11539170l-2 1-20 16-16 19-18 23-14 23-15 23-14 24-12 24-5 24"/>
<path d="M15773 11539172l 0 0 4 27 6 25 5 25 2 24 2 26 2 30 1 24-3 31-1 30-2 27-1 24"/>
<path d="M15786 11539291l 0-3-2-24 1-26 8-24 18-19 23-6 27 6 24 12 18 17 5 27-13 24-19 21-20 18-20 14-22 11"/>
<path d="M15983 11539215l 0 0 22-16 22-16 19-14 20-17 16-20-18-17-26 4-26 14-19 20-14 24-7 25-1 25 15 22 27 2 24-6 23-9 25-13"/>
<path d="M16216 11539077l-1 0-24 0-21 18-15 20-14 20-13 24-9 25-4 25 13 22 25 5 28-4 27-7 25-10 24-12"/>
<path d="M16314 11538897l-1-1 19 15 9 24 6 26 1 25-4 29-6 26-6 27-8 27-9 26-7 24-7 30 0 27 16 18 26 3 23-10 22-14 22-15 17-17 18-21"/>
<path d="M16295 11539067l-2 1 24-14 30-11 26-6 28-6 30-4"/>
<path d="M16603 11539076l-2 0-26 5-27 6-26 8-23 8-18 16-8 24 22 12 25-6 23-9 21-13 4 25 19 16 26-1 24-10 21-14"/>
<path d="M16758 11538847l-1-2-24 12-8 27-3 28 0 27-2 28-4 32-4 28-4 27-3 31 0 26 2 25 9 23 27 1 20-16"/>
<path d="M16673 11539005l-2 0-26 3 28-9 26-8 30-9 30-9 29-9 24-6 26-1 16 22 0 25 0 24 1 24 4 27 7 25"/>
<path d="M16867 11538910l-1-3"/>
<path d="M16956 11539047l-1 1-21 16-8 23 11 22 23 8 26-1 21-14 1-25-17-20-22-12-23-8 20 15 26 2 24-7 23 11 16 20 24-1 13-25 12-21 19 16 11 23 18 17 26 8"/>
<path d="M17645 11538955l-1 0-20 12-17 22-11 26-4 25 12 23 26 8 27-5 21-13 13-21-4-26-15-22 21-17 26-11 25-12 25-14 20-15 20-18 20-21 17-23 14-28 9-23 6-26 4-24 2-25-3-26-25-4-21 21-16 25-12 25-9 29-7 35-4 26-3 28-3 30-2 32-2 34 0 33 1 32 3 32 3 28 4 28 4 27 6 25 10 32 13 28 12 24 16 20 21 13 24-14 10-25 1-27-3-32-6-29-9-30-11-32-12-30-14-26-16-24-18-17 28 6 28 5"/>
<path d="M14030 11540235l 1-1 5-24-11-23-25-8-27 1-22 11-17 17-12 23-11 26-7 26-5 24 1 26 20 17 23-9 22-18 18-20 17-22 16-25 15-28 12-32 8-29 6-28 1-28 0-28-3-29-4-31-5-32-6-31-6-26-8-25-13-22-19 16-7 30-2 26 0 31 2 34 5 35 8 32 10 32 12 30 12 26 12 22 17 25 17 23 15 21 21 16 25 3"/>
<path d="M14166 11540126l-1 1-10 23-4 27 1 24 4 25 11 22"/>
<path d="M14201 11539994l-1 0-16 21"/>
<path d="M14292 11540051l 0 0-13 23-16 21-7 24 21 14 27 5 23 9 20 16-5 25-17 19-21 12-24 8"/>
<path d="M14406 11539808l 0 1 4 25 12 25 8 24 6 28 3 24 2 31 1 29 0 31-1 30 0 30 0 30 0 24 9 24 27 3 22-14 20-20 20-22"/>
<path d="M14449 11539994l-2 0-24 13 25-6 24-10 27-8 29-9 30-8"/>
<path d="M14692 11539991l-2 0-24 5-24 5-28 5-25 8-20 15-9 23 2 24 23 9 25-4 23-9 23-13 13-21 12 22 23 8 26-6 24-13 16-18 3-25-14 20 8 24 24-8 13-22 12-21 11-23 24 5 10 22 13 21 18 17"/>
<path d="M15055 11539861l-3 0-25 6-20 14-18 21-15 19-14 25-10 26-5 24 4 25 17 20 28 5 25-5"/>
<path d="M15117 11539921l-2 2 24 0 25-12 22-12-10-23-26-3-25 6-19 18-14 25-8 28-6 25-1 28 5 24 24 14 31-2 23-8 26-15 29-17"/>
<path d="M15448 11539992l-1 1 25 6 26 2 22-12 17-22 12-23 14-28 12-25 14-27 14-31 12-34 9-34 6-24 3-25 3-24 3-31 0-26-2-25-12-21-22 12-11 23-7 25-6 34-3 28-3 32-3 36-3 40-3 44-1 44-1 46 1 46 2 42 4 38 6 35 8 30 7 27 9 25 14 30 13 24 17 23 25 2 14-20 8-32 4-30-1-27-4-29-10-26-11-32-14-32-10-23-14-31-15-25-15-20-19-18-25-4 22 12"/>
<path d="M15703 11539836l-1 0 16-19 24-2 25 7 0 24-16 19-17 21-15 20-8 23 26 10"/>
<path d="M15868 11539839l-1 0-20 13-15 23-9 25 1 25 25 7 26-3 21-14 14-21-3-26-9-25-11-21 20-14 23-9 26 4 16 20 11 23 7 24 2 24 17-19 13-24 14-20 12-21 4 24 17 17 16-21 12-21 13-20 19-16 10 22 9 24 13 22"/>
<path d="M16520 11539726l-2 0-25-3 15 21 7 27 4 28 0 26-1 25 14-27 12-27 11-25 12-26 12-24 13-21 16 19 0 24-3 28-1 25 26-9 18-22 17-22 16-20 16-24 10-23 0 27-1 24 1 28 6 24 14 20 23 8"/>
<path d="M16821 11539685l-1 1 24-5 25-5 23-12 14-21-17-20-26 4-19 14-17 22-11 22-7 26 12 23 25 13 27 0 26-6"/>
<path d="M17075 11539631l-1 0-21-12-25 3-23 12-20 17-16 23-9 23 17 20 26-1 25-9 20-16 9-22 12 22 24 8 25-6"/>
<path d="M17167 11539591l-1 0-14 20-1 26 1 26 2 24 15-20 7-26 9-25 12-23 23 9 10 24 9 22"/>
<path d="M17341 11539683l 0 0"/>
<path d="M13553 11540803l-1 0 23-12 23-5 25-7 28-6 26-7 23-10 23-9"/>
<path d="M13575 11540819l 0 0 5 24 4 28 3 24 2 30 1 31 1 24 0 24 1 31-1 24-1 28-1 29 2 26 1 25"/>
<path d="M13596 11540960l-1 0 17 18 24-3 24-3 27-6 28-7 25-4 24 8"/>
<path d="M13595 11541177l-1 0 25-2 28-4 29-6 26-5 28-7 27-7 26-9 25-10"/>
<path d="M13970 11540658l-1 0-23-5-23 7-17 18-15 21 1 24 17 19 20 16 22 9 20 14 17 18-5 24-18 20-17 20-14 21 14 21 23 10 20 14 18 20 11 24 1 25-4 27-6 30-8 24-8 26-7 30-8 26-8 26-5 26-2 26 6 24 17 18 25 5 26-3"/>
<path d="M14285 11540747l 0-2-21 13-12 25-11 25-9 25-8 26-7 27-8 30-7 29-4 27-1 27 2 25 6 26 10 24 15 21 16 22 20 13"/>
<path d="M14347 11540818l 0-1 7-24 15-19 20 13 11 24 6 27 9 24 11 23 14 20 14 20 21 12"/>
<path d="M14519 11540752l-1 0-14 22-9 28-5 26-6 30-3 29 0 24-1 25-2 24 0 27 2 27-1 25-1 25-1 26"/>
<path d="M14632 11540924l-1 1 25-7 26-6 26-1 25-2 25-4 24-5"/>
<path d="M15293 11539681l-1 0 24-7 25 0 21 13-7 24-14 22-16 21-14 20 20 15 24-5 25-1"/>
<path d="M14994 11540685l-1 0 24-8 25-6 28-7 25-6 24-7 26-4"/>
<path d="M14988 11540715l 0-1 8 25 5 25 3 26 3 25 2 28 0 30 0 29 0 28 0 25 0 24"/>
<path d="M15016 11540836l-1 0 28 0 25-1 27-2 28-4 28-3 26-2"/>
<path d="M15035 11541000l 0 1 25-1 28-8 27-6 24-7 23-7 24-9"/>
<path d="M15403 11540616l-1-1-23-9-23 14-18 21-15 23-5 24 7 25 18 20 22 11 27 7 23 11 15 19-12 22-10 22 22 10 15 22-3 26-6 23-7 24-1 25 8 24 25 4"/>
<path d="M15548 11540664l-1-1 20 18 18 19 19 20 15 19 17 19 20 17"/>
<path d="M15705 11540628l-1 0 0 27 3 27-2 24-4 28-4 31-5 30-3 29-4 26-3 26-4 25"/>
<path d="M15754 11540517l-1-1 25-5 24 0 25 2 21 13-3 25-17 21-17 20-13 21 2 24 22 12 23 8 14 19 18 18 19 16 20 17 11 23 3 25-2 27-7 23-11 22-13 20-15 20-18 16-25 2"/>
<path d="M15970 11540443l-1 0 19 21 20 22 18 20 19 23 19 24 20 24 14 21 17 26 14 27 12 28 8 26 4 26 1 26-7 29-10 24-13 25-12 24"/>
<path d="M16183 11540399l 0-1 23-12 25 7 21 13 1 25-11 22-16 21-18 21-12 21 20 17 25-3"/>
<path d="M16372 11540290l 0-1 26 2 25 3 22 10 18 15 7 27-7 24-14 21-18 19-17 18 1 24 23 8 24 6 9 22 6 24 9 23 10 23 13 21 13 21 16 19 15 19 14 20 12 23 5 25-4 25-15 24-16 20-21 16-21 17-24 7-24-1-18-17"/>
<path d="M16792 11540458l 0-1 23-9 24-5 23-8 23-7"/>
<path d="M16807 11540509l-1 2 25 4 28-7"/>
<path d="M17159 11540506l 0-2-24 13-17 23-14 23-13 25-9 28-2 29 4 26 11 24 19 18 28 8 26 8 25-2 26-7 26-11 25-15 19-16 17-21 7-23-6-27-12-22-17-19-19-18-22-12-25-6-26-6-25-2 26-4 27-7 27-5 27-7 26-6 27-6 28-5 25-3"/>
<path d="M17530 11540392l 0 0 27-3 24-2 2 26-20 17-20 15-17 18 22 11 26 0 24-2"/>
<path d="M17890 11540188l-1-1-24-4-26 10-21 14-19 18-8 23 20 13 26 4 25 10 18 16 1 24-15 21-17 19-4 24 13 20 22 12 20 16 19 16 17 21 10 24 0 24-12 25-13 25-10 24-9 24 0 25 11 21 19 17 25 9 28-2"/>
<path d="M18060 11540301l 1-2 24 0 19 20 14 22 17 22 16 22 17 20 16 18 15 20"/>
<path d="M18256 11540284l-1-2-9 26-2 28-3 27-5 28-7 29-6 23-9 30-8 27-8 28-6 25"/>
<path d="M18294 11540183l 0-2 22-13 26 3 25 5 22 11 19 19-6 25-17 19-19 14-20 19-9 23 21 15 22 10 15 20-10 22 0 25 11 22 4 26 3 25 4 24 9 23 15 20 11 21-10 24-20 17-22 15-23 12-25 5-25 2"/>
<path d="M13728 11541795l-1-1 24-6 27-1 25-3"/>
<path d="M13737 11541864l-1 1 24 2 26-1 28-4 25-3"/>
<path d="M14038 11541624l-1 0 23-9 23-8 27-8 27-7 26-7 26-7 25-5 23-5"/>
<path d="M14049 11541642l 0 0 9 22 3 24 1 26 0 29 0 24 0 24 0 27-1 27-2 30-1 28-1 26-1 31 0 28 1 24 3 25 5 25"/>
<path d="M14076 11541867l-1 0 26-9 28-4 25-5 27-5 29-5 27-10 27-6 24-3"/>
<path d="M14069 11542048l 0 0 25 1 28 2 24 0 26 0 25-2 28-3 25-7"/>
<path d="M14508 11541543l-1 0-22 9-21 12-23 18-20 17-15 20 4 25 23 15 25 4 26 4 21 12-12 23-13 21-9 24 19 15 23 13 19 18 4 26-7 28-11 28-9 26-9 26-10 25-10 27-6 28-2 25 1 27 10 24 14 20 23 13 25 5"/>
<path d="M14676 11541612l 0 0 16 23 9 22 11 27 13 25 13 21 15 22 17 19 18 16"/>
<path d="M14827 11541595l 0 0-2 27-5 25-5 25-3 29-3 30-1 24-2 24-3 30-1 27-2 27-1 28-2 28 0 26"/>
<path d="M14905 11541547l 0 0 22-12 23 8 8 24-13 21-18 19-17 17 26 3 27-1 24-3"/>
<path d="M15164 11541749l 0 0 22 10 25 3 26 2 25-5 25-8 23-10"/>
<path d="M15475 11541599l-1 0 19-17 24-5 27 0 27 5 25 7 24 12 20 14 10 24-5 24-13 26-18 21-21 24-17 17-23 21-19 15-24 20-22 17-23 13-21 13 26 0 24-6 27-3 26-2 25 0 24 0 27 5 24 4"/>
<path d="M15798 11541479l-1 0 19 16 17 22 17 18 19 19 20 15 21 16 22 12"/>
<path d="M16009 11541417l-1 1-13 20-7 27-7 26-7 24-6 24-6 31-6 30-5 24-4 31-5 24-4 30-3 26-4 24-4 24"/>
<path d="M16149 11541395l-1 0 25-10 24-1 26-3 24-4 25-4 27-6 25-8"/>
<path d="M16173 11541399l 0-1-4 24-1 25 2 28 1 27 1 28 2 28 0 26 2 24 4 25 3 26"/>
<path d="M16178 11541525l 0-1 27-6 28-3 25 1 29-2 27-2 25-1 24 8"/>
<path d="M16205 11541677l 0 0 27 0 26-2 27-5 27-3 26-3 24-7"/>
<path d="M16549 11541319l 1 0-24-9-22 15-17 19-14 21 10 23 21 14 23 13 21 13 16 19-12 20-14 21-7 23 17 17 17 18-6 24-11 22-7 25-8 25-2 25 6 24 17 18 22 13"/>
<path d="M16682 11541367l-1-1 20 15 14 20 15 18 19 19 17 21 17 19"/>
<path d="M16864 11541345l 0 0-6 25-4 27-4 25-4 25-4 25-6 27-7 28-6 28-7 28-5 24-5 26"/>
<path d="M16956 11541251l-1 0 17-19 26 3 24 8 12 20-19 20-17 19-20 17-15 19 22 12 23 9 15 20-5 24 0 24 17 19 20 13 20 16 20 15 16 18 16 19 6 24-7 24-15 19-19 19-21 15-24 8-26 3"/>
<path d="M17319 11541492l 0 1 24-5 28-5 27-4 23-4"/>
<path d="M17367 11541414l-1 0 0 27 6 24 8 26 8 24 9 24 10 23"/>
<path d="M17650 11541328l 0-1 21-16 24-7 27-5 26-8 24-5 26-7"/>
<path d="M17644 11541319l-1 0 2 27 9 26 3 27 3 29 2 24 0 26 1 27 0 25 0 25 0 26"/>
<path d="M17669 11541457l 0 0 24-7 24-3 26 0 29-1 27 1 25 1 24 9"/>
<path d="M17653 11541599l 0 0 27 4 26-1 25-2 26-3 27-6 25-4 28-4"/>
<path d="M18065 11541245l 0-1-22 9-19 16-19 17-7 24 15 18 24 7 24 6 17 18-9 23-12 21-14 21-10 23 19 18 24 7 21 13 9 22-6 27-10 24-12 21-12 20-11 22-11 24 10 22"/>
<path d="M18176 11541328l 0 1 25 1 20 16 20 18 14 21 17 22 14 23 17 20 22 9 21-12"/>
<path d="M18387 11541283l-1 0-12 21-6 24-5 29-6 27-6 29-6 24-8 31-5 24-3 24-4 26 3 24 23-11"/>
<path d="M18448 11541192l 0-1 25-6 25 8 20 14 8 24-17 19-20 16-17 18-6 25 20 16 22 12 21 13 15 21 11 24 11 21 7 23 8 24 7 26 6 26 1 26-8 23-12 22-16 18-20 15-25 11-27-3"/>
<path d="M18621 11541138l-1-1 26-2 20 15 4 25-17 18-16 18 19 16 26 6 26-3"/>
<path d="M18828 11541105l 1-1 24-6 22 14 9 23-12 21-19 18-20 17-17 18-11 23 14 22 22 10 23 8 22 12 14 21 7 26-1 24-2 24-1 24 1 27 8 25 13 20 11 23-9 25-20 17-19 16-16 20"/>
<path d="M13819 11542715l 0 0 25-6 25-2 24-4 25-1"/>
<path d="M13816 11542780l-1 0 24 1 26-4 25-4 27-4 27-4"/>
<path d="M14150 11542578l-1 0 22-10 28-5 25-6 23-9 24-10 23-10"/>
<path d="M14159 11542588l-2 1-13 21 4 25 2 27 0 28 0 25-1 27 1 24 0 25 0 28 0 24 1 26 6 24"/>
<path d="M14148 11542745l-1 1 25-9 28-5 23-5 28-6 27-1 26 3"/>
<path d="M14176 11542912l 1 0 23-9 24-3 30-1 27-4 27-3 26-3 24-5"/>
<path d="M14563 11542453l-1-2-25-1-21 16-20 18-14 22-9 25 21 16 25 1 26 5 23 9 11 21-6 25-6 23 7 24 17 18 14 19 5 26-5 27-8 23-7 23-7 27-5 25-5 24 0 26 8 24 14 21 21 15 23 11"/>
<path d="M14740 11542501l-1-1 24 7 18 16 18 23 18 25 16 19 17 20 15 21 16 19 17 18 14 22"/>
<path d="M14951 11542475l-1 0-6 27 0 24-1 25-3 24-2 24-3 28-3 26-3 27-2 29-3 28-2 25-3 31 0 24-1 27 0 25"/>
<path d="M15026 11542433l-1 0 25-7 27 0 24 5 15 19-14 22-20 19-17 17 24 8 26-6"/>
<path d="M15178 11542339l 0 0 25-4 25 8 21 17 21 14 1 24-14 20-15 20-14 21-12 21-6 26 15 19 24 8 24 9 20 13 9 25 2 25 0 26 0 24-2 25 0 26 13 21 13 20 14 21 13 22 10 23-1 25-10 22-15 20-19 19-20 18-23 8"/>
<path d="M15507 11542611l-1 0 24-10 24-3 26-4 25-3 24 0"/>
<path d="M16030 11542426l 0 0 24-9 26-8 25-8 24-7 24-7 28-7 25-7"/>
<path d="M16027 11542442l 0-1 12 24 6 26 5 24 5 28 4 25 4 25 3 25 3 27 3 26 3 27 4 25"/>
<path d="M16078 11542578l 0 0 25-7 28-6 25-1 26-2 26-3 26 4"/>
<path d="M16112 11542734l-1 0 25-3 26-7 28-4 27-6 30-10"/>
<path d="M16493 11542404l-1-1-26-3-18 16-16 19-14 23 9 23 24 6 23 9 17 19 0 26-10 24-6 25 16 18 10 23 4 25-7 24-10 24-12 27-10 24-5 25 10 23 25 4"/>
<path d="M16642 11542469l 0-1 22-10 17 22 13 20 15 22 15 19 16 20 16 18 19 17"/>
<path d="M16851 11542399l-1 0-6 24-2 27-1 28-2 29-1 31-2 25-3 25-3 27-3 25-3 24-3 29-4 27-1 26"/>
<path d="M16949 11542348l-1-1 22-14 24 4 11 22-15 20-17 20-16 20 9 24 21 12 21 13 15 20 1 24 3 24 18 17 19 17 16 18 20 19 18 19 15 23-2 24-14 22-20 20-20 16-21 16-23 12-23 7"/>
<path d="M15960 11542336l-1 0-18 21-10 26-8 23-8 26-8 30-5 26-5 27-5 28-5 30-3 30-2 29 0 30 2 27 5 27 9 28 10 23 13 23 16 17 19 17 23 15"/>
<path d="M17040 11542262l 0 0 24 13 23 16 21 17 20 17 19 18 19 21 18 24 17 24 13 27 8 24 8 24 5 25 3 31 0 24-2 31-7 29-9 29-9 27-10 27-10 25"/>
<path d="M17265 11542175l-1 0 22-14 24 0 25 7 17 18-7 24-19 20-19 16 16 20 26-3 24-2"/>
<path d="M17683 11542449l 0-1 14 23 14 25 13 27 12 25 17 20 20 15 19-18 17-22 13-24 14-27 14-29 15-32 9-24 10-24 10-27 9-25 8-26 9-26 10-34 7-30 5-25 4-27"/>
<path d="M4722 11540724l-1-1-24-8-27-7-24-6-29-3-32 0-28 4-36 6-26 5-29 7-31 10-35 11-40 14-44 15-22 9-23 8-25 9-24 10-25 9-25 10-24 11-26 10-26 11-27 10-26 11-26 12-26 11-28 12-27 12-26 12-28 12-28 13-26 13-28 12-26 15-26 13-26 13-26 14-25 14-23 14-25 13-25 15-24 13-25 14-24 15-23 14-23 13-26 15-23 12-22 14-22 13-21 13-21 13-20 13-39 25-35 23-33 22-29 21-24 17-22 14-27 16-22 16-18 16 16 19"/>
<path d="M1952 11541947l-1 0 8 28 8 24 7 28 6 26 8 24 10 25 15 20 24-7 8-25 6-25 4-28 2-30 0-26-3-26-3-26-8-23"/>
<path d="M2216 11541983l-2-2-13-21-18-16-24-3-20 14-9 28-6 26 0 26 11 24 20 13 23-13 13-21 9-24 24 3"/>
<path d="M2253 11541927l-1 0 24-9 13 21-1 25-4 27-6 26 3 24 20 16 22-18"/>
<path d="M2375 11541943l 0 0 5 24 2 25 1 25"/>
<path d="M2346 11541839l-1 2"/>
<path d="M2511 11541870l 0 1-24 6-15 19-11 23-7 24 2 24 26-7 16-20 10-22 22 12 23 9 13-20 11-22 25 0 14-21 12-22 24 5 23 8"/>
<path d="M2768 11541710l-1 0-18 18-9 26-8 26-3 27 14 20 26 4 25-11 19-16 19-21"/>
<path d="M2852 11541719l 0 1 24-5 21-13 16-19-2-24-26 0-21 11-13 24-1 26 12 21 18 19 24 12 24 3 26-8"/>
<path d="M1607 11542783l-1 0 9 25 9 23 7 26 7 26 8 24 7 25"/>
<path d="M1599 11542670l-2 1-14 20"/>
<path d="M1677 11542694l-1 1-16 20-9 23 5 24 27-2 23-9 24-13 22-9 25 2 10 24 1 25-3 27-11 24-18 17"/>
<path d="M2019 11542540l-1 0 0 27 6 24 6 28 9 27 11 21"/>
<path d="M1981 11542419l-2 0 10 24"/>
<path d="M2084 11542517l 1 2 9 23 15 21 15 21 16 19 8-26 1-29 5-28 2-25 24 11 12 21 16 25 17 23 17 20 25 12"/>
<path d="M2513 11542365l 1-1 1-25-23-12-23 12-19 23-17 21-15 24-7 24 20 18 25-2 23-8 24-5 25-2 23 11 10 22-3 24-7 26-11 24-19 21-22 15-24 8-25-2"/>
<path d="M2677 11542337l-1 0-12-22-15-20-26 0-17 18-8 24-8 23-5 27 8 24 24-8 18-16 19-23 16-21 14-22 8-23-15 22-7 25-2 27-1 32 1 28 1 32 2 35 3 25 5 25 5 24 9 33 9 31 11 25 16 21 23 14 23-9 8-24 2-26-3-31-7-28-14-28-11-24-17-25-19-23-16-22-16-20-19-16 26-2 18-21 16-21 16-20 14-20 14-25 8-24 5-24-4 27 0 26 6 26 13 21 23-8 16-19 13-24 6-27-2-27-6-25 8 23 12 25 16 20"/>
<path d="M3025 11542170l-2 0-23-7-24 7-10 26-6 25-1 24 19 16 24-11 15-20 3-25 10 24 25 3 19-16 13-21 8-24 1-24-8-24 1-25 23-9 17 18-2 28-1 24-6 24 23 8"/>
<path d="M3188 11542135l 1-1 21-11 19-18 15-19 5-24-22-10-23 11-14 20-10 24 1 27 13 25 22 16 25 7 24-3"/>
<path d="M3432 11542029l-1 1 16-23 13-27 10-23 8-26 2-27-6-24 12 23 21 16 20 13 18 19 3 24-8 25-14 21-21 12 5-25 18-19 20-21 20-17"/>
<path d="M3593 11541844l-2 0-17 19 3 25 8 23 9 25 6 31 5 27 5 29 6 27 5 27 6 25 8 27 9 25 0-28-8-27-8-24-8-25-9-29-10-31-10-32-8-31-6-28-5-29-2-26 3-24 19-15 26-2 24 2 21 13 10 22-5 27-11 28-12 20-15 23"/>
<path d="M3794 11541759l-1 0-24-8-22 12-17 22-12 26-3 26 8 23 24 9 27-2 21-12 12-24-1-25-3 25 15 19 24 5"/>
<path d="M3936 11541653l-2 0-25 6-14 24-8 23-4 27 2 27 13 20 24 12 24-1 23-13"/>
<path d="M4016 11541665l-1 1 25-12 20-15 15-20 2-24-24-11-23 11-17 18-10 23-6 26 7 27 15 21 22 15 27 8 27-3 23-7 23-10"/>
<path d="M4221 11541665l 1 1"/>
<path d="M12590 11548754l 1 0 21-18 22-15 21-14 24-16 27-22 20-16 22-18 22-19 24-20 23-17 24-18 23-17 22-15 22-17 20-14 29-19 26-18 26-16 22-14 21-15 20-15"/>
<path d="M13393 11548205l 1-2 9-24 11-22 12-26 6-24 1-24-9-24-26-5-23 12-22 19-18 20-18 23-16 25-14 27-12 30-7 30-5 31-3 32 0 31 3 31 3 30 5 30 4 29 6 25 5 24 7 32 5 26 0 25-7 28"/>
<path d="M13164 11548452l 2-2 19-22 20-17 24-18 20-14 23-10 23-9 25-10 24-8 24-8"/>
<path d="M13430 11548369l-2 1-22 11-18 19-13 20-9 25-2 26 10 25 23 9 25 0 26-13 20-19 10-22-3-28-12-21-20-15"/>
<path d="M13541 11548312l 0 0 26 3 24 2 2 25-18 17-18 17-16 20-8 23 6 24 26 7 24-6 27-9 29-12"/>
<path d="M14093 11548314l-1-2-17-21-20-16-24-6-22 12-19 18-17 17-18 23-17 23-16 24-12 23-8 26 6 26 23 6 29-9 27-17 23-20 23-27 22-27 19-26 15-28 9-29 6-29 1-31 0-31-4-32-2-33-3-29-2-28-3-24-5 24-3 31-3 26-3 29-3 32-2 31 0 31 1 28 1 27 3 31 5 26 8 25"/>
<path d="M14185 11548282l-1 1-15 19-12 22-5 26-2 26"/>
<path d="M14217 11548131l-1 0"/>
<path d="M14332 11548190l-2 1-24 8-23 12-24 13-20 15-14 20 23 12 31-4 28-8 26-6 29-6 24 4-7 24-22 21-23 19-24 18-25 15-23 11-25 9-8-25"/>
<path d="M14523 11548141l-1-1-24 5-19 17-16 21-11 23-8 26-1 27 9 23 24 11 28-4 25-13"/>
<path d="M14628 11548124l-1 0 21 16 10 24 6 27 3 27-1 24-15-23 5-28 7-28 10-29 13-27 13-20 17-19 23-10"/>
<path d="M14806 11548115l 0 0 25-8 25-8 23-12 19-16 8-24-20-16-25 4-25 16-20 18-17 20-13 22-5 25 14 21 27 9 29 1 26-4"/>
<path d="M15038 11547871l 0-1 2 27-2 25-4 24-6 25-8 32-7 25-9 26-9 24-9 23-6 24 4 24 21 17 25-3 25-12 27-16 25-18"/>
<path d="M14998 11547993l-1-1 23-10 24-9 30-9 26-7 28-6"/>
<path d="M15165 11548027l-2 0 12 21 28-6 24-9 22-14 15-20-9-23-26-9-24 4-24 13-20 18-17 22-16 25-10 23-4 28 12 22 28 10 25 2 31-3 34-8 25-7"/>
<path d="M15788 11547707l 0-1 13 21 3 30-2 25-4 30-8 33-7 23-7 24-10 24-10 24-11 25-11 22-10 23-14 30-10 23-11 23 3-29 8-31 7-35 6-25 5-25 6-24 3-25 4-24 2-24 3-24 4-31 5-27 6-28 10-27 15-22 22-10 26-6 28-2 25 2 26 2 24 6 23 16 12 22 1 26-10 22-20 24-18 19-20 16-22 15-22 14-26 16-23 14 28-7 26 0 28 3 23 11 17 18 12 25 0 27-5 25-9 25-9 26"/>
<path d="M16071 11547692l 0 0 0 26 1 29 3 32 2 26 3 30 3 28 4 30 3 29 4 29 4 24 8 24 10 23 24 8 22-24 17-23 19-27 18-31 15-32 10-24 8-25 10-25 7-25 7-25 7-33 6-24 4-25"/>
<path d="M16395 11547919l-1-2-25-1-23 10-21 13 23 13 26 2 23 7 17 18-19 20-21 16-23 10-23 9"/>
<path d="M12642 11550144l-1 0 22-16 20-14 25-16 25-17 24-17 24-13 24-15 24-13 24-14 24-10 23-11 26-12 23-8 23-5 25-9 20-15"/>
<path d="M13208 11549951l-1-2-8-23 5-26 14-21 17-20 24-11 16 21-2 29-6 30-6 23-9 30-9 24-7 26 8-24 7-24 8-27 8-27 9-26 13-26 14-23 19-15 17 20 5 28 1 27-1 26-3 24 19-17 11-24 12-25 12-27 12-23 15-26 13-21 12 22-4 27-3 29-2 28 1 24 3 25"/>
<path d="M13597 11549779l-1-1-18-16-26 8-19 19-18 22-14 25-8 23-1 25 20 15 28-8 23-20 18-19 18-18-21 10 0 25 12 21 26-6 20-14"/>
<path d="M13699 11549725l-1-2-14-22 14-22 25-8 24 1 11 23-8 24-12 27-13 24-11 24-3 25 16 18 28-2"/>
<path d="M13940 11549662l-1 0-26-4-25 9-19 15-17 17-16 23-14 25-10 25-3 24 15 19 28-4 24-12 24-17 21-22 15-21 12-22-1-25-16 19-7 27-3 28-1 29 1 24 1 28 2 30 2 30-1 31-1 31-3 34-5 28-5 29-6 27-8 27-11 24-16 25-17 18-23 13-26-1-19-18-13-26-7-26-5-35-1-28 1-26 4-27 5-24 11-33 15-31 15-25 17-27 19-24 19-24"/>
<path d="M14016 11549633l-1 0-18 19-10 26-6 26-5 29-4 27-1 27 17 19"/>
<path d="M14025 11549542l-1 0-9 24"/>
<path d="M14077 11549660l 0 2 2 27-2 26-5 24-7 24-6 24 10-23 9-22 10-25 10-23 13-29 13-22 14-21 22-10 12 25 2 26 1 27 1 26 0 26 2 25"/>
<path d="M14351 11549646l-1-3-8-24-19-18-24 3-21 18-19 22-14 23-9 24 14 20 26-8 22-16 19-18 17 18 13 21 25 7 23-7 23-18 21-22 17-18 17-22 16-23 13-24 11-25 7-26 3-31 1-29-3-32-5-32-6-33-8-30-7-24-9-25-20-16-20 15-13 24-11 28-6 27-4 29-3 30-3 24-2 25-1 26-2 26 0 25 2 35 3 32 6 28 6 25 11 28 14 22 21 20 21 12 24 11 25-4"/>
<path d="M14649 11549460l-1 0 18-17 24-12 21-13 22-14 22-12 24-11"/>
<path d="M14678 11549560l-1 0 14-22 20-18 19-15 21-12 24-12 25-11"/>
<path d="M15115 11549395l 1-2 5-25-1-24-26 9-19 15-21 19-20 20-17 18-9 22 25 0 26-8 24-9 25-11 25-4 9 24-6 28-9 23-10 23-12 22-15 23-20 20-23 9-23-11-7-23"/>
<path d="M15216 11549106l-1 0-15 22-2 25 0 25 0 29 0 24 2 26 0 29 1 27 0 27 0 27 0 28 2 25 2 24 6 25 10 25 14 21 25 9 27-9 19-16"/>
<path d="M15346 11549348l-1 2-13 21-3 24 1 28 8 24 14 22"/>
<path d="M15363 11549248l-2-1"/>
<path d="M15506 11549334l 0 0-18 17-15 20-14 21-12 24-8 27-4 24 15 20 27-7 24-12 24-16 21-13 21-16"/>
<path d="M15614 11549373l-1 1 25-9 21-16 20-18 13-20-19-17-27-3-24 11-21 17-13 20-10 24-2 26 7 27 15 20 23 13 28 0 24-3 25-7 27-9"/>
<path d="M16560 11548730l 0 0-1 25 4 24 4 31 5 32 5 24 4 27 4 26 4 28 3 30 3 32 2 35 2 25 1 26 1 28 1 28 2 28 1 30 2 29 2 31 2 31 2 35 0 33 1 34-1 35 0 34-1 38-2 37-2 34-1 36-1 35-1 34-1 35-1 34-1 34-1 36-2 36-1 36-2 37 0 35-1 38 0 37-2 40 0 40-1 40-1 40-1 40 0 40 0 41 0 39-1 42-1 38 0 40 0 37-1 35 0 37 0 36 0 36 0 36-1 35-1 36-1 35-1 34-1 35-1 32-1 33-1 32-1 32-1 31-1 28 0 29 1 36 0 24 0 31 2 32 2 28 3 24"/>
<path d="M16443 11551060l-1 0 25 1 25-3 24-6 25-2 27 0 25 0 29 4 28-4 29 0 24 1 25-2 25-4 26-4 27-3 31-3 34-5 35-6 24-2 26-3 25-1 26-3 27-2 28-1 29-1 29-1 29-1 29-2 30-2 31-2 30-2 32-3 32-1 32-2 33-3 34-2 34-3 34-2 34-2 32-1 32-2 33-1 32 0 32-3 33-1 32 0 32 0 33-1 33 0 32-1 31 0 32 0 31 0 31 0 31 1 31-1 30-1 30-1 29-3 29-2 29-1 29-2 29-3 27-1 25-1 25 0 25 0 36-3 33-1 30-1 29 0 28 0 24-2 29-1 25 1 24-1"/>
<path d="M17386 11548724l 0-1-2 25 3 27 3 28 3 24 3 30 3 28 2 27 1 31 2 32 2 32 1 32 3 35 1 33 3 32 4 30 4 30 3 28 3 28 3 29 2 31 2 26 3 25 1 25 3 29 0 24 2 35 1 25 0 25 1 26 1 24 1 24 2 31 2 29 2 28 4 29 3 28 4 25 4 30 3 24 4 24 3 24 4 26 4 26 3 28 5 29 4 30 4 28 4 29 3 29 3 27 3 27 3 25 3 26 3 27 2 29 3 30 2 31 2 29 2 25 3 27 2 26 3 29 2 25 2 25 2 24 1 27 2 27 1 27 1 30 1 30 0 30 1 30 1 32 1 24 1 34 1 32 0 28 1 30 3 33 3 31 1 30 2 32 3 32 3 31 3 27 3 26 4 24 4 28 5 24 6 24 6 24 4 26-10-31"/>
<path d="M17572 11548664l 0-1 1-25-2 25 0 25 0 28-1 24 0 27 0 28 1 31 2 29 1 24 3 29 3 27 2 24 3 28 3 27 2 26 2 27 2 28 1 30 1 26 3 29 3 30 4 31 4 30 4 31 3 27 2 25 3 24 2 26 2 25 1 27 1 29 1 29 2 27 2 26 1 24 2 26 1 25 2 25 3 26 1 26 2 25 3 31 2 30 2 25 2 24 2 25 3 31 4 27 4 29 4 30 3 30 3 29 4 31 4 25 3 25 4 24 4 28 7 28 6 27 6 26 6 26 6 27 3 26 2 31 1 29-2 24 1 26 2 29 2 24 1 24 3 28 3 28 2 25 0 31 0 31 2 24 3 27 3 24 4 27 5 27 5 26 5 27 5 27 6 26 4 25 4 27 6 26 7 25 7 29 6 28 6 28 5 28 5 30 3 24 3 28 4 29 6 27 5 26 3 27 3 25 5 26 3 26 1 24-23-18-13-23"/>
<path d="M17466 11548837l 0 0 5-24 14-24 14-19 20-15-1 28-15 24-15 22-15 22-17 24-17 21-14 21-15 26-10 24 25-4 22-17 22-16 20-15-1 25-12 23-12 24-13 23-9 23 1 24 25-4 20-14 21-15-8 27-13 22-12 24-9 22 1 25 24-1 19-16-4 27-9 27-8 23-5 24-4 30-2 26 7 25 22 13 21-17 19-18 13-20-10 24-12 24-13 27-10 26-9 23-9 29-8 27-1 25 24-12 16-20 15-19 17-19-10 25-10 24-10 26-8 26-8 28-5 24-3 26 15 19 22-13 21-17 19-19-5 25-11 26-8 24-9 23-10 25-11 27-12 27-11 25 24 9 17-19 17-20 15-21 21-15-2 26-11 28-7 23-7 25-9 30-9 28-5 24 3 25 23 5 19-18 16-22 0 26-5 24-6 25-7 30-4 25-3 25-3 25-3 24-2 28 1 26 26 2 16-18 19-21 16-19 2 28-7 26-8 28-7 26-7 25-6 23-7 26-6 26-1 24 23 8 18-16 14-20 1 27-6 25-7 23-6 24-8 27-9 28-10 29-10 28-8 25-6 24 3 25 24-6 18-18 15-23 15-19-8 27-11 27-10 26-11 26-10 26-8 28-6 29-5 27-4 29 2 24 26 1 18-17 16-19 17-17 2 28-6 25-6 24-5 25-5 26-4 24-5 27-6 25-3 27 0 25 13 20 27-4 20-16 15-19 6 24-8 26-8 26-6 27-7 27-8 23-8 27-5 25 23 10 20-14 12 22 0 24-3 26-1 29 0 25"/>
<path d="M15811 11549407l-1 0 6 28 1 24-3 24-7 29-8 23-8 26"/>
<path d="M13306 11550355l-1-1-3-24 19 20 7 24 3 32 0 28 0 30-1 31 0 30 0 31-3 28-2 27 1 28 7 27 10 24 16 21 25 10 22-10 22-20 15-21 14-23"/>
<path d="M13242 11550608l-2 2 14-26 16-20 18-22 22-20 25-20 28-20 29-18 29-14"/>
<path d="M13528 11550531l-2 0-23 6-20 16-8 24-5 26 4 25 25 4 19-15 15-21 13-21-13 22 5 24 22 13 22-16 14-24"/>
<path d="M13547 11550308l-1-1-2 27 8 29 7 26 5 26 5 29 5 30 5 32 3 30 3 29 4 26 5 24 9 23-3-30-6-29-6-32-6-28-2-29 3-28 11-26 20-14 20-13 24-9 21 14-9 28-15 22-13 23-17 22-16 19-9 23 4 24 24 8 27-3 26-8 23-11 22-14"/>
<path d="M13736 11550485l-1 2 25 6 21-16 17-18 5-24-24 0-19 16-13 20-11 27-6 26 2 24 11 25 22 10 27-3 23-9 24-20"/>
<path d="M13919 11550411l-2 0-23 12-20 16 19 14 27-6 24 0 24 9 9 23-8 26-17 20-19 16-21 12-26 7-23-6"/>
<path d="M14204 11550191l-1 0"/>
<path d="M14228 11550307l-1 0 12 24 20 16 17 17 16 20 14 20 11 23 9 27 6 26 4 24 3 25 2 28-1 25-4 29-12 23-23 5-23-9-18-18-17-21-12-27-7-25-4-25 1-29 4-31"/>
<path d="M14345 11550207l 0 0-7 26-7 24-4 25-1 25 1 24 8 24 20 16 25-2 21-15 15-20 12-24 4-27-12-23-24-12-24-1"/>
<path d="M14467 11550195l 1 0 1 26 5 26 6 25 11 22"/>
<path d="M14474 11550099l-1 0-15 20 2 24"/>
<path d="M14544 11550197l 0 2 1 24 7 24 8 24 10-24 9-24 8-27 9-24 12-21 22-10 9 24 5 24 5 26 5 26 12 22 24-10"/>
<path d="M14700 11549962l-1 0-4 24 3 24 4 25 5 24 6 28 7 28 6 29 6 30 5 25 7 25 12 22 26-4 16-21"/>
<path d="M14674 11550088l-2 1 24-10 23-15 22-13"/>
<path d="M15028 11549837l 0 0 4 26 1 28 2 29 1 24 1 27 2 26 3 26 4 24 7 30 7 26 11 27 12 26 15 19 25-13 11-22"/>
<path d="M15004 11550022l-2 0-23 8 18-19 23-19 22-12"/>
<path d="M15169 11549982l-1 1-9 26-2 26 3 24 10 23 20 17 24 5 25-9 16-20 6-25-5-25-13-22-18-18-25-6-26 6-18 16"/>
<path d="M13747 11550989l 1-1-25-2-19 17-18 20-14 20 21 12 24-4 25-4 24-1 25 2 3 26-8 27-11 27-14 23-16 20-20 20-25 8-16-20"/>
<path d="M13856 11550983l-1 0-5 25 5 26 9 22 11 24 19 16"/>
<path d="M13828 11550902l-1 1 17 18"/>
<path d="M13915 11550961l 0 2 6 27 7 23 4 27 3 27 1-24 3-26 6-29 8-25 24-2 9 25 10 24 18 18"/>
<path d="M14112 11550881l-1-2-25 0-19 20-13 24-8 26-6 27-2 25 5 24 23 12 21-13 17-21 13-22 10-23 6 24 6 24 10 22 11 27 9 24 7 30 4 24 2 26-1 24-2 26-5 24-7 27-10 23-14 19-24-11-14-28-9-28-6-24-4-24"/>
<path d="M14086 11551105l 1-2 10-26 16-21 18-17 19-16 21-17 17-18 17-23 14-26 12-28 10-28 8-30 4-30-3-29-6-28-9-27-11-28-13-23-16-18-25 8-11 25-5 29-1 24 0 29 3 29 6 32 7 30 10 30 11 25 12 24 17 25 19 19 26 9 26-12 17-19"/>
<path d="M14356 11550868l-1 1 25 0 23-13 18-19 10-23-19-18-24 3-21 15-18 21-10 25-5 26 2 25 12 23 21 17 25 5 28-1 25-8 25-12 23-16"/>
<path d="M16053 11552611l-1-1-3 28 2 24 3 24 3 29 3 32 3 28 2 28 3 30 2 34 2 24 2 24 1 26 2 27 1 27 3 28 3 24 3 28 4 27 3 29 3 31 4 28 5 27 5 24 5 29 4 28 3 29 3 29 3 29 4 27 3 24 2 28 3 28 0 31 2 36 1 33 1 33 1 32 1 33 0 32-1 34-1 35-1 36-3 35-2 40-1 35-3 36-1 36-2 32-2 36-2 34-2 36-2 36-2 33-1 34-1 33-2 32-1 33 0 31-2 31-1 31-1 30-1 32-1 28-1 28 0 29 0 27 1 28 1 27 2 25 1 24 3 25 2 24 4 35 5 32 6 29 7 27 6 26 9 27 12 27 11 21 11 22-6-24"/>
<path d="M15981 11554688l-1-1 26 4 24 0 25 5 25 0 29 2 27 1 30-2 26-3 28-3 28-2 30-2 31-1 34-4 25-2 25 0 27-1 27-2 29-2 30-6 32-3 33-4 33-3 35-4 35-4 35-3 35-3 36-2 37-4 37-2 36-3 37-4 37-3 37-3 37-2 37-3 37-3 37-3 37-2 38-4 39-4 38-4 41-4 40-4 40-4 40-5 39-2 40-4 40-4 39-4 39-5 40-4 39-3 40-3 38-2 38-4 37-3 37-3 36-5 35-4 35-4 34-4 34-4 34-5 33-4 32-4 30-6 29-5 28-5 26-6 25-6 33-8 28-7 29-7"/>
<path d="M17072 11553302l-1-1 5 24 3 24 3 26 1 28 2 26 3 25 3 27 3 26 5 25 6 24 25 7 24-3 25-2 27-1 24 0 23-9 25 1 25-3 24-3 25-4 16-20-5-26-5-26-3-27-2-25-3-28-2-25-3-27-1-24-4-26-11-22-26 1-27 3-28 3-25 2-26 0-26 2-26-1-24-3-25 2"/>
<path d="M16981 11552469l-1 0 6 24 5 26 6 28 3 27 2 24 3 28 2 25 3 29 1 28 2 28 1 30 2 29 2 26 2 29 5 25 5 24 5 24 5 28 6 27 5 24 5 25 5 28 5 28 2 26 3 26 4 26 4 25 6 28 6 26 5 26 4 26 4 27 5 28 4 26 4 26 2 24 6 24 6 27 3 25 3 24 2 27 1 25 0 25 3 24 5 25 2 26 3 26 1 26 1 24 2 24 2 24 3 25 1 28 3 24 3 27 3 26 2 26 3 27 3 29 2 26 3 29 4 31 2 24 2 27 3 27 3 24 3 24 3 31 4 24 4 26 4 24 4 26 3 25 4 24 4 26 5 25 4 26 4 27 3 27 4 28 3 29 4 30 4 30 5 30 3 30 5 30 5 30 5 28 4 29 4 31 5 29 4 28 5 31 4 28 4 26 3 30 4 25 4 25-14-22"/>
<path d="M17242 11552586l-1 0 1 25 9 24 6 25 6 26 3 30 2 24 2 26 2 27 1 26 2 24 2 26 4 26 4 28 4 28 2 29 3 32 3 33 3 33 2 32 1 34 1 31 1 30 2 27 1 27 2 31 2 25 1 27 2 25 3 32 2 24 4 32 4 31 5 30 6 29 6 30 6 26 5 26 4 26 5 26 6 24 8 28 5 28 6 24 6 29 5 30 5 25 4 28 4 29 4 30 3 28 4 25 7 28 6 27 4 25 6 30 5 27 6 27 5 31 6 29 5 28 5 28 7 29 6 27 3 26 5 25 5 25 4 28 5 27 2 29 3 29 5 28 4 27 4 27 5 27 6 30 6 30 6 29 4 24 4 31 6 31 5 31 4 28 7 31 6 29 6 30 8 26 6 28 7 26 8 26 7 23 7 23-11-22-16-32"/>
<path d="M17161 11553320l 0-1 8-23-2 27-10 24-12 28-12 25-11 26-8 23 20-18 14-24 16-24 15-23 14-20 16-23 4 24-9 22-11 25-10 26-12 26-8 25 24-15 14-23 14-22 16-23 12-21-1 26-10 24-10 26-14 26-11 27 22-13 17-25 14-21 13-21-11 23-9 26-6 26-6 24 21-15 14-22 19 15 7 25"/>
<path d="M12947 11553515l-1 0 26-10 25-15 26-19 23-19 26-18 20-15 19-16 20-15 20-17 20-16 21-12 20-15 22-12 30-16 29-13 27-13 26-11 27-8 29-8 23-8 24-5"/>
<path d="M13677 11553110l-1-2-24-5-24 9-16 23-13 23 22 9 27 0 24 8 24 2 19 18-8 25-14 23-19 20-21 15-24 2-25-4-15-22"/>
<path d="M13828 11553038l-1 0-25 1-25 5-16 23-11 26-7 26-4 24 5 24 25 0 20-16 14-20 13-20 14-26 9-26 4-24-16 22-3 27 0 29 0 25 2 25 3 27 3 29 4 31 8 28 9 25 13 27 15 21 20-14-8-24-13-26-13-22-13-22-17-20-10-23 14-22 14-21 17-25 15-22 17-27 15-27 13-26 9-27 5-25-19 18-3 24-1 24 7 23 19 16 18-17 11-23 9-24 8-26 6-26 2-24 3 24 6 26 11 25 16 17 25 3"/>
<path d="M14137 11552879l-2 0-24 4-18 17-9 25-4 26 7 24 25 5 21-15 19-17 7-23-7-24-3 24 18 17 21-14"/>
<path d="M14214 11552812l 0 0 15-19 19-16 23-9 16 18-9 25-12 24-10 24-7 24 4 24 26-4 20-15 18-20 16-20 9-25 16-18 21-13 16-21 13-20-21-13-24 13-19 19-7 23-1 24 7 28 15 26 17 20 25 7 28-3 22-12 17-20"/>
<path d="M13534 11553486l 2-3 20-20 24-16 23-12 29-17 32-19 22-14 25-14 28-16 31-19 32-21 36-23 39-22 41-26 23-12 21-12 23-13 22-12 23-12 23-13 22-12 23-14 22-13 23-12 22-12 22-12 21-12 42-22 38-18 36-18 32-14 29-15 26-11 24-10 27-11 26-9 23-7"/>
<path d="M13735 11553780l 0 0 25-11 17-24 16-24 13-26 11-27 6-26-15-20-15 19 18 18 20 13 15 20 10 23 5 24-14 21-25 7 18-23 22-20 20-21 17-26 12-22 11-23 11-23 9-25 7-25 6-25 3-30 0-24-2-24-7-28-9-26-11-22-19-15-13 22-3 28 0 26 0 25 2 25 1 28 4 27 5 27 7 27 8 24 15 23 18 19 25 1 23-15 14-22"/>
<path d="M14028 11553516l 0-1-5 27 0 25 8 24 18 18"/>
<path d="M14031 11553421l-1 0"/>
<path d="M14169 11553432l 0 0-15 19-12 24-12 25-7 24-1 25 20 18 28-4 23-10 23-18 18-20"/>
<path d="M14273 11553421l-1 1 23-14 17-17 10-24-13-20-24 5-21 16-16 23-7 26 0 26 14 22 23 13 25 2 26-5 22-12"/>
<path d="M12926 11555968l 1-4 2-25 2-27 2-24 7 28 1 28 0 35 0 28 0 28 0 28 2 29 1 29 3 29 4 28 3 26 5 25 9 33 10 29 12 22 17 22 23 10 23-14 12-21 13-30 8-25 9-27 7-30 5-31 3-32 3-32 0-31-1-29-2-28-3-28-5-25-6-34-6-29-5-24-11-24"/>
<path d="M13257 11556198l 1-2-1-25-10-24-26-4-22 14-17 19-12 21-11 22-5 27 1 25 17 18 25-1 23-9 23-17 19-17 16-22-15 20 24 1 19-17"/>
<path d="M13336 11556157l 0-2 7-24 22-12 24-8 25-9 3 25-17 17-20 22-19 25-17 24-11 22-6 27 11 22 26 1 22-10 25-17 19-15"/>
<path d="M13518 11556107l-1 0-20 17-7 28-1 25 5 27 14 20 26 1"/>
<path d="M13530 11555997l-1 0-15 20"/>
<path d="M13671 11556157l-1 0-20-15-17-17-23 14-13 25-5 25 4 26 22 12 26-2 23-10 20-20 9-23-7-24-16 19 3 25 12 21 24-9 15-22 14-23 6-24-2 24 24 7 18-19 14-20 15-20 10 24 4 24 12 22"/>
<path d="M13970 11556067l-1-1-24 9-17 20-13 22-10 23-5 27 10 24 24 5 23-9"/>
<path d="M14055 11556095l-1 0 25-12 21-11 22-13-13-20-27 0-25 8-20 15-16 22-10 23-4 24 7 25 20 16 25 4 29-5 26-7"/>
<path d="M14485 11556076l 0 1 12 22 26 1 25-8 21-13 25-18 21-19 22-24 23-27 13-20 14-21 12-21 16-30 12-28 6-26 2-26 0-24-5-25-12-23-24 13-16 25-13 26-12 28-9 33-7 35-5 33 1 32 3 27 11 27 19 21 22 10 25 4 23-5 22-17 14-22 2-25-11-27-14-22-20-16-24 0-25 8-13 22 21 13"/>
<path d="M14848 11555972l 0-1-14 20-7 28-4 25 3 24 26 4 21-17 20-20 19-22 12-23 7-24-16 19-8 24-1 25 21 14 26-7 25-14"/>
<path d="M15054 11555738l-1-1 2 26 4 29-1 29-2 31-2 27-2 26-1 26-1 24-1 24 0 25 1 26 7 25 22 11 20-17 17-19"/>
<path d="M15018 11555913l-1 0 22-16 23-12 21-10 29-10"/>
<path d="M15446 11555891l-1-1 1 27 21 13 25-15 21-17 18-19-11 23 17 17 28-7 22-15 18-20 13-23 4-26-5-25-16-17"/>
<path d="M15772 11555565l-2-2-13 22-5 29-4 24-6 29-6 31-5 34-3 24-4 24-5 24-8 35-7 34-7 31-9 31-7 28-9 27-8 25"/>
<path d="M16082 11555692l-1-1 1-26 15-19 21-15 22-11 23-7 30 0 27 10 23 16 20 16 13 23 5 28-5 25-11 24-19 26-19 19-23 21-24 22-27 19-28 17-26 16-23 16-25 16-21 15 25-15 25-6 29-6 26-2 27 0 27 1 28 3 27 6 26 7"/>
<path d="M16482 11555644l 1-1 13 21-1 30-2 26-6 31-7 34-9 34-9 32-10 32-9 24-9 25 7-25 11-28 13-29 12-33 41-187 12-23 23-12 25 0 26 9 26 8 24 15 15 20-2 27-14 23-20 18-18 15-26 17-23 13-26 12-23 10 26 3 26-4 26-2 26 1 23 9 17 20 9 28 1 26-2 25-3 24-6 25"/>
<path d="M16757 11555587l 0-1 10 25 5 27 4 27 5 32 2 26 3 28 2 27 2 25 5 28 9 24 21 12 22-12 17-23 14-22 11-27 10-28 10-31 8-33 5-32 4-29 2-29-7-23-25 2"/>
<path d="M17032 11555764l 1-1-9-23-25 5-18 17-7 23 19 16 24 8 23 8 9 22-15 20-23 11-26 2-10-22"/>
<path d="M17113 11555817l 1 0"/>
<path d="M13398 11566406l-1 0-21 14-14 22-10 27-3 26 2 27 10 22 20 20 23 13 27 5 24-8 21-15 21-20 14-20 12-25 0-27-12-25-15-20-20-17-23-17-22-11-25-2 27 2 27-9 27-9 26-8 23-6 26-6 24-3 25-2"/>
<path d="M13801 11566315l-1 0 17-18 28-5"/>
<path d="M13804 11566389l-1 0 21-18 25-9 28-9 25-4"/>
<path d="M14140 11566312l 1-1-22-12-21 12-25 13-21 16-20 18-5 24 27 4 25-3 26 0 28 1 23 11 8 25-16 20-19 15-23 16-25 12-26 1"/>
<path d="M14274 11566138l-1 0-15 20-11 26-11 27-7 24-7 29-6 24-6 24-6 27 0 26 3 26 9 24 22 12 29-5 24-13 24-18"/>
<path d="M14145 11566291l-1 0 22-16 29-12 23-8 27-8 29-7 31-7 31-6"/>
<path d="M14423 11566314l-1-1-24-4-24 10-19 16-14 24-3 28 12 21 24 11 27-4 23-13 21-18 16-20 17-25 9-22 5-26 4-27 2-29 1-31 0-27-2-26-3-29-8-27-24 8-10 25-5 27-3 25-3 27-2 29 1 29 2 27 3 27 5 31 8 26 13 26 19 21"/>
<path d="M14625 11566389l-1-2"/>
<path d="M14986 11566295l 0-2-11-22-24-9-27 5-23 14-16 18-17 23-9 25 4 24 13 22 25 4 28-8 25-14 21-20 18-24 12-27 8-29 3-26 2-30 1-31 0-33-1-24-2-35-3-29-5-26-15-22-22 13-8 24-4 32-1 27 0 28 0 29 2 28 2 30 3 27 6 26 7 24 9 24 9 28 11 24 14 20 24 11"/>
<path d="M15101 11566279l-1 0 26 4 27 0 23-9 19-17-7-25-24-10-27 1-23 13-18 23-14 23-8 23 2 26 9 22 18 17 25 7 26-2 28-8"/>
<path d="M15259 11566208l-1 0 6 27 2 26 5 26 8 24 11 22 25 1 17-19 13-24 10-27 7-25 4-25 1-24"/>
<path d="M15401 11566327l 0 0"/>
<path d="M13438 11569215l-1 0 22 12 24-4 23-11 19-14 20-20 18-23 16-20 19-16 24 10 23 14 24 9 27 3 26-2"/>
<path d="M13521 11569332l-1 0 26-5 25-6 22-14 18-16 16-20 12-24 23 8 24 3 23-7 25-4"/>
<path d="M14165 11568927l-1 0-24-2-20 14-20 21-14 22-14 21-11 27-8 27-3 26 2 24 12 24 22 10 24-6 25-12 21-12 23-14 21-14"/>
<path d="M14314 11568941l-1 0-25 5-17 21-14 24-10 26-3 26 8 24 24 8 23-10 23-18 16-17 16-20 8-23-4-24-16-20 15-20 19-17 22-17 20-15 20-14 5 28-1 26 0 26 6 27 13 23 26 0 19-21 15-22 15-26 14-27 8-26 4-25 2-29-5-25"/>
<path d="M14711 11568823l 0 0 2-24-17-19-25 18-19 20-19 23-10 22-7 27 4 25 20 16 24-1 25-12 21-15 14-20 1-25-8 25 20 16"/>
<path d="M14838 11568720l-1 0 22-12 27-5 26-3 24 3-3 24-14 20-20 21-16 19-17 20-12 24-5 27 18 19 27-3 23-12"/>
<path d="M15031 11568705l-1 0-17 21-10 26-1 26 11 22"/>
<path d="M15072 11568560l-2 0-22 9"/>
<path d="M15205 11568680l-1-1-20-17-23-10-25 15-17 18-15 23-10 24 2 26 22 14 27-6 25-14 23-14 16-18-21 13 1 25 24 5 20-15 20-21 17-20 10-23-5 25 25-2 16-20 17-23 17-20 16-19 4 25 5 25 14 20"/>
<path d="M15519 11568555l 0-1-21 17-17 19-18 23-14 25-9 25 0 25 14 21 29 2 28-6 29-12 27-15"/>
<path d="M15635 11568598l-1-1 20-14 24-15 20-17 10-23-20-13-26 0-25 13-18 23-14 21-11 26 1 24 15 21 23 10 28 4 26-3"/>
<path d="M15797 11568639l 0 0-5 24-2 25-9 27-16 28"/>
<path d="M16209 11568451l 0-1-5-25-16-19-27 0-22 12-20 15-21 22-19 23-17 27-14 26-7 27 6 25 28 2 26-10 27-16 26-16 20-17 16-19-8-23-14 21 6 26 17 20 27 3"/>
<path d="M16373 11568423l-2-1-22-11-26 0-24 17-15 21-16 27-11 22-10 27-4 24 2 26 21 16 25-8 23-19 21-21 23-25 22-26 20-29 17-30 12-30 9-30 4-30 2-32 2-24-1-34-1-30-2-25-5-24-14-21-25 8-10 27-9 29-6 24-6 30-5 32-5 34-5 34-2 33 1 29 4 25 9 23 12 22 16 20 24 11 27-3"/>
<path d="M16558 11568333l 0-1-7 25"/>
<path d="M16548 11568440l-1 3-7 26 10 23 15 23 11 22 6 29 1 26-3 27-7 26-9 29-11 29-12 21-17 18-23 9-23-15-12-21-9-28-5-26 0-26 5-29 8-24 12-22 14-21"/>
<path d="M16659 11568336l-1 0-15 19-8 24-3 24-1 24 2 27 11 23 23 8 22-12 17-18 16-19 11-21 7-24 1-27-14 21 4 26 10 22 19 18 27 4"/>
<path d="M16903 11568288l-1 0-24-6-16 20-12 21-4 24 18 20 24 4 25-3 27 0 25 3-12 23-18 19-19 17-22 14-23 11-26 0-13-25"/>
<path d="M17031 11568078l 0-1 4 24 8 26 4 26 4 30 2 32 1 31-1 25-1 30-4 26-3 26 4 24 22 9 24-12 24-17"/>
<path d="M17018 11568226l-5 0-25 4 24-6 26-7 31-8 25-5 26-4 28-5 29-3"/>
<path d="M17203 11568276l-3 2 27 5 26-10 25-11 10-23-23-10-27-2-27 7-23 14-18 23-12 24-3 25 9 25 23 19 24 10 25 1 28-3"/>
<path d="M17452 11568251l-4-1-23-8-25-4-24 9-19 20-15 21-11 22-7 26 7 24 22 10 25-7 21-15 24-20 18-20 15-20 14-22 10-26 8-26 3-29 1-32-1-35-1-25-2-25-3-33-5-27-9-25-16-20-24-1-14 24-10 27-10 30-5 27-4 30 0 28 2 33 4 32 6 32 8 26 11 24 11 23 20 22 21 16 21 13 25 7"/>
<path d="M17877 11568265l-1 0 25-2 21-12 19-16 21-20 22-26 15-18 24-28 16-19 16-21 15-22 14-22 12-24 10-22 9-24 6-25 7-35 4-31 1-25-5-25-25-2-19 15-18 22-19 29-12 23-11 24-11 25-11 28-9 31-9 31-8 33-5 34-5 32-2 34-2 31 1 29 2 28 3 28 5 24 9 31 10 25 16 24 22 16 28 0 20-14 14-22 10-28 3-30-3-31-7-31-8-23-12-25-17-20-19-16"/>
<path d="M18205 11568102l-1-1-24 2-22 16-18 20-13 26-5 26 7 24 24 9 28-1 23-11 19-16 17-20 7-25-8-26-22-14"/>
<path d="M18321 11568074l 0 1 25-4 26 0 20 12-12 21-18 16-19 15-21 18-17 18-14 21 9 24 28 2 23-7 28-9"/>
<path d="M18783 11567975l-1-2-24-7-24 13-20 14-17 18 4 24 27 7 28 3 28 2 27 4 22 12-9 24-19 15-22 13-24 14-23 9-24 0-25-7-14-20"/>
<path d="M18996 11568006l-2 0-23-10-24 7-17 20-14 23-3 25 18 18 29 4 26-5 29-8"/>
<path d="M19163 11567987l-1-1-23-10-26 0-23 8-18 19-5 25 21 13 24-3 25-7 23 12 27 1 24-10 22-15 18-19 17-23 10-22 7-28 4-24 2-28 3-28 2-29 2-27-1-28-10-24-25-2-20 21-17 25-10 28-8 25-3 26-5 29-1 30 1 29 9 29 11 25 19 22 23 13 24 6 26-4 25-10"/>
<path d="M19397 11567953l-1 0 23-10 23-11 18-19-9-23-24-10-25 11-18 16-15 20-10 24 5 24 14 24 20 13 24 9 25 3"/>
<path d="M14362 11569642l-1 1 27-4 21-15 19-17 22-20 23-25 17-19 18-21 18-23 17-23 15-24 15-22 11-23 12-32 5-30 0-28-3-26-8-32-12-25-23-12-25 13-15 20-10 22-10 26-8 30-5 24-4 25-3 28-3 29-1 29 0 30 2 29 3 25 8 33 11 28 14 20 20 21 24 13 27 2 16-22 3-25-3-24-7-23-12-22-13-21 24-10"/>
<path d="M14681 11569460l 0 0-3 26-2 26-3 25-2 25 0 25 9 24 26 0 19-17 17-23 17-27 14-27 10-28 5-26 1-26-20 14-4 28-3 28 0 25 1 24 2 26 2 28 2 32 3 34 4 32 1 31 0 32-2 31-4 31-6 28-6 26-10 24-14 22-16-18-9-26-4-28-3-34 0-24 0-24 0-25 0-25 2-25 6-32 6-28 8-25 13-28 17-24 20-23 22-17"/>
<path d="M15209 11569443l 0 0 18 16 24-9 21-17 18-18 20-21 22-27 22-28 15-22 13-21 12-21 11-23 14-32 8-30 3-31 1-31-1-29-3-24-7-24-24 4-14 20-12 24-13 26-11 30-9 32-5 24-4 25-3 25-1 26 0 24 2 36 7 33 10 27 17 26 21 23 20 18 25 5 27-8 17-18 9-25 3-24-8-24-13-20-21-16-24-1"/>
<path d="M15573 11569270l-1 0-23 11-16 21-11 23-4 27 2 25 14 19 25 1 22-14 17-21 5-26-4-24-13-21 23-12"/>
<path d="M15716 11569111l 0-4-1-24 0 24 0 29-3 29-4 29-7 29-4 24-5 25-5 28 0 27 8 24 23 8 21-15 13-20 5-27-7-25-16-20-23-17-25-13-26-5-24 0 22 10 25-10 23-13 27-17 21-17 18-18 23-22 16-23 12-28 5-29 1-26-13 21-4 26-3 31-1 25-1 24-1 26-1 25 0 24 0 30 0 27 2 24 25-10 17-25 13-21 14-24 15-22 21 13 6 24 12 25 14 20"/>
<path d="M16508 11568863l 1-3 0 28-5 30-4 28-5 29-5 31-4 30-5 29-3 25-3 26 0 26 11-25 7-28 7-32 6-32 7-33 3-32 4-33 0-28 0-24-1-28-1-24 3-25 18-18 25-10 28-4 25 1 25 11 22 13 16 19 6 25-4 25-11 26-15 20-17 21-18 16-23 19-24 13 22-11 29-5 24 2 23 7 22 11 19 16 16 24 12 24 7 25-6 24"/>
<path d="M16790 11568758l 0-1 7 28 8 26 6 24 5 26 6 25 6 28 7 25 7 27 9 28 11 25 25 4 18-23 15-21 14-27 12-26 9-29 6-31 5-34 3-33 2-29-2-25-4-26-25-4"/>
<path d="M17121 11568873l-1 0-25 0-24 11-18 16 20 15 26 4 24 6 22 13 18 17 2 25-16 20-22 14-25 5-25 0-21-12"/>
<path d="M17317 11568966l-1 0"/>
<path d="M13961 11570969l-1-1-24-5-12 24-7 28-3 28-4 32-2 25-2 26 0 27 0 28 0 28 0 29 1 27 2 26 3 24 5 34 7 27 12 29 18 18 27 0 20-15 16-21 15-29 10-25 10-28 10-31 9-31 9-33 8-35 6-33 6-34 4-33 2-33 2-31 0-32-1-28-2-28-2-24-4-36-5-28-3-24-6-28 0 28 3 28 4 31 4 24 3 27 4 26 3 31 5 30 4 31 5 30 5 28 7 26 7 24 7 24 12 32 13 28 12 23 18 23 19 17 24 5"/>
<path d="M14254 11571095l 0 1 13 22 5 24 3 29 0 25-2 25-2 29-1 25 3-26 4-24 5-29 7-31 8-32 10-30 9-28 12-29 10-26 12-23 16 18 4 30 2 27 0 29 1 27 2 26 2 27 4 26 17 18"/>
<path d="M14510 11571003l-1 0-23 8-12 23-10 26-7 25-5 30-1 26 7 26 19 17 27-5 24-16"/>
<path d="M14633 11571044l-1 0-24 7-11 27-3 25 7 23 22 10 26-10 19-18 13-22 2-26-11-22-21-13-12 22 24 4 21-14 20-18 18-21 13-21 11-26 6-25 25-8 26-5 24 2 11 21-13 26-13 24-12 21-14 24-8 24 11 23 28-7 25-14 24-18"/>
<path d="M14946 11570935l 0 0 24-4 14-24 11-24 9-24 9-22 9-22 25-4 23 8 21 14 0 26-17 20-18 21-18 21-12 22-8 25 25 9 23-15"/>
<path d="M15156 11570859l-1 0 25 0 21-16 17-18 9-23-14-21-25 2-22 12-17 19-17 21-14 23-9 23-4 25 7 25 20 14 26-2 26-10 26-14"/>
<path d="M15293 11570505l 1-1 15 21 6 26 3 28 2 26 1 27 2 27 1 26-1 28-3 29-5 29-4 27-6 29-7 25-2 26 18 18 25-4 22-11 24-14"/>
<path d="M15519 11570723l-1 0-20-15-24-8-22 13-16 20-11 25-5 24 5 24 23 9 26-3 23-7 12-21 8 24 24 8 24-14 22-20 19-23 14-20 15-20 14-22 11-24"/>
<path d="M15688 11570429l-1-2-26-1-17 22-9 24-2 27-1 27-1 24 0 30-2 33 0 26 0 24 0 33 2 31 2 28 5 26 10 24 21 18 26 8 25-15 20-20 13-25"/>
<path d="M15587 11570663l-2 0 24-11 22-9 27-11 28-9 24-8 27-9 26-7"/>
<path d="M15810 11570656l 0 0 24-10 25-11 26-12 21-15 11-22-26-9-29 5-27 9-22 18-18 22-15 23-8 25-1 24 12 23 22 11 27 6 28-4 29-8"/>
<path d="M16076 11570567l-2-1-23-8-26 5-17 20-15 24-11 26-3 28 8 25 25 9 23-12 22-20 16-21 14-27 10-25 8-27 6-28 2-28 0-31-1-30-3-31-3-28-7-26-9-25-16-18-25 0-7 26-5 30 1 29 2 24 4 27 4 29 7 28 7 25 9 24 11 24 13 22 12 21 16 20 19 19"/>
<path d="M16376 11570410l-1-1 23-10 23-11 26-12 28-10 26-12 23-10 23-10"/>
<path d="M16365 11570476l-1 1 25-8 23-10 23-10 23-8 28-13 27-13 23-12"/>
<path d="M16514 11570280l-1-1 26 5 25 2 28-3 28 0 27 2 24 9 2 25-14 21-18 19-20 19-18 19-16 18-18 16-19 20"/>
<path d="M17090 11570216l 1-2 4-24-27 8-23 18-22 23-17 19-16 18-17 26-14 22-9 25 1 25 18 18 28 3 29-6 23-10 26-12"/>
<path d="M17223 11570227l-1 2-22 10-20 18-15 21-9 24 12 21 25 0 25-9 23-12 24-15 20-18 11-22-14-20-21-18-24-9 25-3"/>
<path d="M17355 11570139l 1 0 21-15 24-2 22 12 2 26-10 23-12 22-12 22-4 24 23 9 24-9 26-16 23-16 22-20"/>
<path d="M17542 11570080l-1-1-24 4 26-6 27-8 28-3 16 20-16 23-13 22-16 20-16 21-7 25 12 21 25 1 26-10 24-14"/>
<path d="M17715 11570069l-1 0 25-8 23-8 23-9 23-12-19-17-25 9-22 15-19 20-16 22-13 23-5 25 12 21 26 7 25-7 23-11 27-18 20-19 21-19 19-20 19-21 16-23 14-24 10-25 7-26 6-28 4-32 1-33 0-32-3-28-7-26-14-24-18-18-25 6-8 26-8 29-5 30-3 33-3 25-2 24-3 35 1 34 4 32 8 27 12 26 14 19 22 18 24 11 24 2"/>
<path d="M18121 11569975l 0-1-2-25-23-8-22 16-22 20-18 22-11 21-5 26 14 21 25 7 26-7 23-11 15-19 5-25 0-24-9 23 16 20 24 2 26-10 23-16 18-17 18-21 19-26 13-21 12-25 8-26 5-27 3-31 0-34-1-32-2-30-4-24-9-23-16-18-24 10-10 24-4 29-1 30 0 27-1 30 1 33 0 34 2 32 3 28 7 28 15 24 20 19 26 6 24-13"/>
<path d="M18174 11569897l-1 0 9-23 20-15 28-16 23-14 25-14 25-11 23-8 29-7 27-3 25 2-6 23-8 26-5 24-4 29 1 24 6 25 13 21"/>
<path d="M18439 11569709l-3 0-22 10"/>
<path d="M18566 11569842l-1 0-25 6-24 13-3 25 11 24 21 12 24 5 24-3 23-11 15-22 6-25-6-25-16-23-22-11-25-3-24 1 24-7 23-9 28-8 25-6 24-5 25 6 12 22 0 25 6 24 18-20 13-25 15-26 16-21 17-20 10 24 1 25 3 26 13 22 25 5"/>
<path d="M18976 11569627l-3 0 24-16 25-4 26-5 24-3 25-1"/>
<path d="M19021 11569678l-1 0 22-17 24-13 28-8 23-7 30-9 23-8"/>
<path d="M19361 11569438l-4-2-25-5-15 21-4 25-1 30 0 30 2 30 2 25 6 24 8 28 15 22 20 17 22 12 25 8 28-1 28-9 26-14 24-20 19-24 13-26 7-27 4-31 2-33-2-29-6-25-11-23-21-22-28-14-31-8-31 0-26 7-24 13-21 18"/>
<path d="M16529 11571055l-1 0 25-10 22-11 24-9 24-12 27-12 25-10 26-9"/>
<path d="M16572 11571100l-1 0 23-9 25-16 28-16 21-12 25-16"/>
<path d="M16672 11570932l 0 0 24-9 26 0 28-2 27-1 25 6 12 21-10 26-14 26-18 21-15 20-15 20-14 20-15 23-10 24"/>
<path d="M17103 11570931l-2 0-26 4-25 12-22 16-17 20-13 24-10 26-6 24 0 24 14 20 25 6 30-7 28-12 21-13 22-16 21-16 18-16"/>
<path d="M17210 11570946l-1-1-24 2-22 10-10 23 11 23 18 17 24 6 23-8 20-15 14-20 12-24 2-25-12-22-20-14 25-13 23-10 23-11 7 25 5 25 7 25 14 20 26 2 19-16 16-19 15-26 7-27 0-25-4-24-8-23"/>
<path d="M17557 11570843l-2 0-14-20-26-2-19 22-14 22-6 26 11 22 27 0 25-9 21-13 16-18 9 22 24-9"/>
<path d="M17666 11570754l-1 0 26-8 25-5 14 20-9 22-13 23-6 25 11 21 26 7"/>
<path d="M17847 11570736l-2 0-19 17-7 23 6 23 19 16"/>
<path d="M17849 11570631l-1 0"/>
<path d="M18042 11570715l-2-2-19-17-19-15-23 14-21 19-15 23-6 24 19 18 27-5 25-8 25-11 22-13 13-20-7 23 23 10 22-12 20-16"/>
<path d="M18152 11570671l 0-2-10 22 26 1 16-20 18-21 14-20 15-20 9 24 8 24 23 11"/>
<path d="M18409 11570523l-1 0-25 0-22 16-19 21-14 20-11 22-6 28 3 24 16 20 26 5 29-8 28-10 21-12"/>
<path d="M18480 11570554l-2 1 25 4 25-8 22-10 17-18-23-8-25 4-24 9-20 18-16 20-5 25 7 26 24 12 27-2 27-6 27-11 27-11"/>
<path d="M18734 11570399l 1 0 24-14 27-9 24-5 26-4"/>
<path d="M18743 11570471l 0 0 22-8 26-12 25-8 28-8 29-11"/>
<path d="M19102 11570256l-1 0-26 1-18 22-15 24-10 26-7 26-1 25 3 26 10 23 13 22 23 20 22 10 23 6 25 0 26-4 26-8 25-13 26-18 20-18 18-25 13-22 10-24 6-24 4-28-2-31-10-23-19-22-25-16-28-10-30-3-29 1-27 6-22 11-20 15"/>
<path d="M17061 11571631l 0 0 25-4 24-10 24-10 27-8 25-7"/>
<path d="M17085 11571729l-1 0 23-15 23-14 26-9 23-9 26-7"/>
<path d="M17377 11571394l-1 0 23-11 23-12 24-13 26-13 21-13 26-13 25-11"/>
<path d="M17401 11571406l-1-1 22 14 4 25 1 30-1 25 0 26-1 28-2 26-1 28-1 29-1 26 0 27 0 25-1 25"/>
<path d="M17426 11571560l 0-1 22-10 25-9 26-8 25-10 26-13 23-9 26-9 25-1"/>
<path d="M17421 11571738l 0-1 22-15 22-11 24-13 22-13 21-12 27-14 26-11"/>
<path d="M17795 11571231l 0-1-25 2-16 19-13 24-8 24 0 25 14 21 21 12 22 10 11 23-8 23-15 19-18 19-18 20 23 8 26 0 19 16 9 24-3 26-7 24-9 23-8 24-9 26-7 25 5 24 26 4 24-8"/>
<path d="M17912 11571329l 0 0 15 22 11 24 10 23 13 21 15 23 19 15"/>
<path d="M18033 11571262l-1 0-6 25 2 28 1 27 1 30 1 26 1 26 2 25 1 26 2 27 1 25 2 26 2 26 4 25"/>
<path d="M18124 11571191l 1-2 21-14 26-3 25 6 16 19-10 22-18 20-20 19-16 20-9 23 18 18 25 8 22 10 23 9 24 9 17 16 16 19 2 26-11 24-14 23-13 21-14 24-14 24-12 22-20 17"/>
<path d="M18402 11571111l 0-1 22-12 25-8 25-11 25-12 25-10"/>
<path d="M18415 11571116l-1 1-10 22-2 28 1 28 0 24 0 28 1 28 1 31 2 25 1 26 0 27"/>
<path d="M18406 11571235l-1 0 20-16 24-7 24-6 24-7 24-3 24-2 28-2 26 5"/>
<path d="M18417 11571391l-1 0 28 0 25-6 23-7 23-10 23-10 24-11"/>
<path d="M18760 11570984l-1-1-24-1-20 13-18 16-17 19-10 23 20 14 24 8 23 8 21 14-15 22-19 19-6 23 24 3 25 2 23 10 17 20-2 25-9 25-14 21-15 23-14 24-12 27-5 24 12 23 23 9 27-3 26-7"/>
<path d="M17156 11571535l-1-1 25 0 23 5 24 4 28 4 25 5 24 7 1 25-16 22-18 21-16 22-14 25-12 26-12 22-11 22"/>
<path d="M18936 11571046l-1-1 20-18 26-12 26-10 27-8 28-7 27-7 25-5 24-1 6 26-17 20-16 18-17 19-16 19-18 18-17 22-18 21-15 20-15 19-14 23-13 22-8 24 27 2 25-11 26-9 22-12 24-11 24-10 23-12 24-13"/>
<path d="M18966 11571159l-1 0 16-20 22-15 23-9 24-8 24-8 24-8"/>
<path d="M19238 11570870l 0-1 25 0 24 7 7 23-16 23-16 21-12 22 5 24 22 10 25 7 24 1-18 18-15 21-6 24 19 17 24 8 22 12 21 14 17 19 15 19-11 23-20 17-21 13-25 8-25 2"/>
<path d="M19540 11570911l 0 0 19-19 23-9 26-8"/>
<path d="M19547 11570954l 0 0 24-12 23-8 26-7 25-8"/>
<path d="M19849 11570695l-1 0 18-20 25-15 22-12 26-16 22-11 23-11 26-14 22-11"/>
<path d="M19874 11570686l-1-1 2 25 1 29 0 24-1 28 0 29 0 27-2 27-1 28-1 25 1 26"/>
<path d="M19904 11570807l-1 0 25-7 26-3 23-5 25-2 26 1 24 6"/>
<path d="M19884 11570955l-1 0 25-8 24-4 26-8 25-8 23-11"/>
<path d="M20250 11570535l 0 0-25 5-20 17-19 16-20 18-12 21 14 23 23 9 24 7 12 22-10 23-14 21-15 19 17 18 23 11 13 22 1 26-6 26-10 24-8 24 2 24 20 15"/>
<path d="M20374 11570595l-2 0 1 27 19 21 17 19 15 22 16 18 20 13"/>
<path d="M20498 11570573l-1-2-3 25-4 30-5 28-2 24-3 29-3 24-4 30-2 29 0 27-3 27"/>
<path d="M20652 11570541l-1 0 23-11 22-12 25-13 22-9 25-7 25-9 24-6 25-7 17 18-12 22-18 24-20 23-18 19-20 21-19 23-18 22-17 24-15 21-11 23-12 22-12 24-11 25 4 24 27 1 25-8 23-10 27-11 28-9 24-10 24-11 22-11 24-10 22-10"/>
<path d="M20655 11570652l 0-1 24-7 27-7 25-12 25-12 26-10 26-10 23-8"/>
<path d="M20949 11570407l 1 0 21-12 25 0 22 10 3 25-16 18-19 19-19 20-8 24 19 16 25 4 18 16-15 20 7 23 15 19 22 16 23 9 23 7 22 13 8 23-7 23-11 23-15 20-17 18-21 16-22 10-24-4"/>
<path d="M16737 11572506l-1 0 23-15 23-10 25-10 27-12 26-8"/>
<path d="M16755 11572588l-1 0 22-15 21-13 24-13 24-15 25-16"/>
<path d="M16859 11572378l 0-2 20-13 24 4 27 3 28 4 25 7 19 18-2 24-12 24-14 26-15 28-15 25-14 25-11 24"/>
<path d="M17267 11572211l 0-2-14-22-26-1-22 13-22 17-18 19-19 21-18 25-14 23-10 24 10 23 25 4 27-4 26-7 29-5 29-8 30-8 25-4 24 2 22 14 4 24-8 28-13 28-12 24-15 24-16 23-17 22-19 19-18 19-23 20-25 15-27 6-23-8"/>
<path d="M17418 11572348l-2 1-16 22-1 27 12 23 21 15 24 5 24-5 23-14 21-20 15-21 6-27-12-23-20-16-24-1-27 9-23 16-18 16"/>
<path d="M17986 11572208l-1-2-7-26 0-25 24 6 10 22 7 26 5 25 3 24 1 24 0 29-4 27-3-27 4-32 3-28 6-25 7-24 7-23 11-31 11-25 11-24 16-19 7 24-2 29 0 25-1 25 1 25 3 29 6 26 16 20"/>
<path d="M18216 11572116l-1 1-17 19-9 23-5 27 2 24 18 16 24-5 20-20 10-25 2-25-12-20-24-12"/>
<path d="M18362 11572059l-1 0-23 8-1 27-2 25 1 28 4 24 21 15 23-15 17-21 13-20 15-25 13-24 9-24-12 22 5 24 17 18 26 4 26-6 23-16 17-18 13-24-2-25-15-24-17-21-18-20"/>
<path d="M18879 11571655l 0 0 23-12 24-12 21-13 23-14 23-15 22-15 25-15"/>
<path d="M18912 11571687l-2 0-16 21-6 28 3 25 6 30 7 28 6 30 9 29 8 23 9 25"/>
<path d="M18916 11571767l-2 0 23-9 24-7 29-10 23-7 24-7 27-9 24-6"/>
<path d="M18942 11571909l-2 0-14 21 24-9 27-17 23-13 26-15 21-13 23-12 23-11 24-12"/>
<path d="M19384 11571667l-1 0-2 28-1 28 1 26 2 27 5 25"/>
<path d="M19404 11571524l-2 0-25 5 3 24"/>
<path d="M19532 11571641l 0-1-25 8-13 20-12 21 24 4 24-8 26-7 28-3 26 4 9 23-12 22-18 23-16 17-19 18-22 13-25 4"/>
<path d="M19769 11571578l-1 0 6 24 5 27 3 27 3 26-2 25 4-27 7-28 9-25 9-24 11-27 13-27 11-22 13-21 19 19 1 25 3 25 2 25 1 26 1 25 26-2"/>
<path d="M20001 11571527l-2 1-19 15-15 21-7 24 19 15 26 4 25-8 22-12 14-24-2-24-17-18-25-6-23 12"/>
<path d="M20137 11571303l-1-1-7 25 0 28-2 30-3 31-2 24-3 24-1 29-2 28 1 28 10 22 25 10 23-8 22-16 21-18"/>
<path d="M20085 11571449l-2 0 12-25 22-15 21-12 25-13 29-13"/>
<path d="M20545 11571368l-1 0-22 15-14 21-7 25 10 22 21 16 26 0 26-11 20-15 14-20-1-24-17-18-22-14-22-10 18-16 23-14 23-15 26-15 25-13 23-7 16 18-8 26-7 24-2 26 1 24 22 11 19-20 17-25 14-22 14-22 14-25 10-24 1 24 2 25 6 24 21 12 24-16 20-16 18-22 14-21 12-21 10-23 7-24 3-24 1-25-1-29 0-31-2-28-2-29-3-27-3-24-22-13-15 25-9 27-5 29-2 32 2 28 3 30 3 29 4 29 5 26 8 30 11 23 15 21 21 16 26-6 19-16 18-22"/>
<path d="M21045 11571196l-1-1-21 11-10 22-1 25 13 21 26-12 21-19 13-20 16-21 11-25 6-24-6 25 0 27 3 28 5 27 4 24 6 25 4 28 4 27 2 30 1 29 0 30-1 31-3 31-6 31-6 29-10 27-9 24-14 27-19 18-20-17-5-30-2-29-1-34 1-26 2-28 3-27 9-36 9-34 11-31 12-33 12-25 14-22 17-25 18-25 18-19 22-18 22-15"/>
<path d="M21441 11571199l-1 0 22-12 20-20 18-20 17-20 19-23 22-24 21-25 17-25 15-28 11-28 7-27 2-28-2-27-5-29-7-27-9-25-12-27-16-19-22-10-22 12-14 28-7 24-2 32 0 24 1 26 4 26 4 24 4 26 6 25 9 35 11 33 13 27 12 27 14 20 18 21 27 10 28-5 23-11"/>
<path d="M21722 11570987l-1 0-15 20 4 27 11 22 15 21 25 3"/>
<path d="M21767 11570860l-1-1-21 16 1 24 13 21"/>
<path d="M21789 11571014l-1 1 3 24 19 17 11-25 9-27 9-25 9-24 13-22 18 16 3 26 4 24 7 26 17 18"/>
<path d="M21976 11570975l 1-2 17-18 22-13 21-15 16-19-13-22-25-3-21 12-18 20-12 24-6 28 10 25 18 18 25 7 27-3 27-13 24-15 24-15"/>
<path d="M22216 11570856l-1-1-23-8-26-1-18 15-13 21-6 25 5 25 26 5 25-7 21-15 7 24 27 0 21-12"/>
<path d="M22298 11570807l-1-1 23-11 26 0 17 20-15 20-15 22-2 26 22 14 27 8 25 4 24-2"/>
<path d="M22535 11570911l-1 0-6 26-4 29-5 26-6 31"/>
<path d="M17435 11573263l 1 0 24-11 17-25 15-27 10-22 9-23 7-25 4-25 4-30-1-26-4-25-7 27 3 25 3 24 8 27 10 24 19 16 19-17 11-23 10-24 9-31 7-24 7-29 5-25 1-27 0-24-1-25-3-25-3-28-3-27-4-27-6-24-1 24 1 29 1 31 3 31 4 24 4 26 4 26 5 27 4 25 5 25 5 25 7 28 11 27 16 20 24 0 17-19 15-25 11-25 10-27 8-28"/>
<path d="M17577 11573010l-1-3 14-23 17-18 20-16 22-15 25-15 20-13 27-16 25-13"/>
<path d="M17501 11572911l-1 0"/>
<path d="M18009 11573043l-1 1 23-10 19-19 19-18 18-26 12-24 12-22 11-22 11-25 5-25-1-24-13-21-19 15-4 24-1 28 7 30 15 19 25 3 24-15 19-18 20-24 14-23 13-22 13-25 7-23 2-26-7-24-9 25 10 24 16 18 19 16 19 17 13 20-4 24-19 16-24 13-22 9 24 0 22-10 25-14 20-16 19-18"/>
<path d="M18067 11572704l-2-1 24-12 29-4"/>
<path d="M18723 11572658l 1-3 1-24-13-20-24-7-20 18-12 21-12 28-9 29-5 27-3 28 8 25 26-2 20-14 17-21 13-22 11-23 9-23 12 23 17 19 22-16 12-26 13-29 12-27 13-28 12-29 11-31 7-32 3-32-1-31-5-30-9-27-12-27-13-21-15-22-17-18-23 12-5 25-1 29-1 27 1 31 2 36 3 24 3 26 4 29 5 25 6 27 6 24 11 32 12 28 14 22 19 18 26 5 26-11"/>
<path d="M19004 11572508l-3 0-24 2-20 17-14 22-9 22 25-3 22-13 24-10 26-7 23 9-2 24-10 25-16 22-18 21-21 15-17-18"/>
<path d="M19122 11572479l 0 1-5 24-8 24-3 24 8 23 23 12 21-10 15-19 16-20 8-23 1-24-15-20-23-9-25 11"/>
<path d="M19430 11572391l-1-2 2-24 11-23 13-21 19-18 24-3 11 25 0 28-3 26-5 24-6 24-7 24-9 24-4-29 8-27 7-24 9-22 10-22 11-23 14-26 17-21 18-20 19 15 6 27 1 28-2 26-4 25-3 28-3 25 9-24 13-28 10-24 11-24 12-27 11-24 14-27 14-22 18 19-3 29-1 26 0 24-2 24 10 22 22-19"/>
<path d="M19794 11572201l-1 0-12 21-2 27-1 26 1 28 11 22 27-2 18-16 15-20 13-20 13-23 6-24-16 22 1 28 5 25 25 6 18-18 18-20 17-24 17-27 14-28 10-26 5-26 0-25-3-29-5-24-6-27-6-24-7-24-11-25-23 9-5 29 0 30 0 26 2 31 3 29 3 31 5 28 6 26 11 27 15 20 20 15 26 1"/>
<path d="M20077 11571918l-1 0-1 28 6 27 7 23 7 23 6 26 6 29 5 29 3 31 2 32 2 25 3 25 13 20 23-15 20-22 14-20 13-20"/>
<path d="M20085 11572083l-2 1-22 12 24-8 26-11 29-14 24-11"/>
<path d="M20292 11572043l 0 2-2 27 0 26 3 25 4 25"/>
<path d="M20276 11571905l-1 0"/>
<path d="M20375 11572056l-1 0 17 18 19 16 15 21 9 27 2 28 1 32-1 25-2 28 0 27 0 24-1 28-4 24-12-22-4-30-2-29 0-34 1-35 1-35 3-30 3-28 4-25 7-23 9-24 20-16 26-13 23-7 25 3 4 27-12 24-14 22-15 20-15 21-12 23"/>
<path d="M20650 11571750l-1-6-7-28-16-20-25 7-10 26-8 25-5 32-3 28-2 28 0 31 3 30 3 30 5 26 6 25 10 27 11 23 15 20 25 12 26-7 20-20"/>
<path d="M20713 11571889l-2 0-11 22 1 28 5 28 7 24 11 25 17 20"/>
<path d="M20736 11571772l-2 1-21 14"/>
<path d="M20935 11571869l-1-1-24 9-18 19-13 25-13 22-5 24 10 24 25 1 29-9 29-8"/>
<path d="M21101 11571851l-1-1-20-14-23 11-21 16-14 23 1 25 22 13 25-5 21-14 20-18 22 9 24-2 23-18 23-20"/>
<path d="M21285 11571583l-1-3-11-24-15 21 3 29 5 27 2 30 2 28 0 30 2 26 1 24 4 30 9 26 22 14 22-10 22-17 18-18"/>
<path d="M21215 11571736l-4 0-26 5 19-15 25-15 24-12 22-12 22-11 25-7 24-10"/>
<path d="M21441 11571653l-4 2-15 21 3 25 10 23 13 22"/>
<path d="M21430 11571519l-3 1-16 19"/>
<path d="M21516 11571627l-2 2-8 24 9 24 15 20 18 17 24 6 24-9 18-20 12-23 10-24 8-26 5-27 3-27-1-28-25-4-2 25"/>
<path d="M21674 11571591l-1 0 26-7 22-12 23-12 20-16 15-20-3-24-24-8-24 10-19 17-15 22-10 26-1 24 5 25 13 23 20 15 24 10 28 6 25-3 27-8"/>
<path d="M21905 11571621l-1-1"/>
<path d="M22123 11571215l 0 0 4 26 0 24 0 26 3 28 5 26 1 24 3 25 2 24"/>
<path d="M22153 11571491l-1 0"/>
<path d="M14092 11574731l-1-1 23-12 23-8 23-11 27-13 20-13 22-14 24-13 25-15 24-12 23-14 25-14 23-14"/>
<path d="M14243 11574694l 0-3-1-24 14 23 5 29 3 28 2 26-1 28-1 29-2 29-1 28 0 28-1 26-2 30-2 24-1 26"/>
<path d="M14098 11575115l-1 0 25-12 22-11 27-10 24-9 26-7 28-11 22-11 22-10 29-12 26-14 23-13"/>
<path d="M14404 11574880l 1-1 18 19 8 27 3 28-1 24-2 26-3 26 2-30 7-24 8-25 10-25 10-24 12-23 11-22 20-14 23 12 5 25 1 28-2 24-1 25 1 25 20 14"/>
<path d="M14693 11574828l-1-1-25 7-23 12-18 18-12 22-6 24 0 25 4 30 11 24 19 17 23-10 20-18 20-26 15-27 14-29 14-30 12-30 9-31 6-32 2-32-3-33-5-31-8-34-7-31-9-29-7-24-13-20-20 16-9 24-6 24-4 25 0 26 0 26 3 28 4 31 5 31 8 31 8 31 9 29 9 24 13 25 18 21 27 8"/>
<path d="M14837 11574851l-1 0 19 19 26 1 25-15 22-19 17-21 10-24-16-18-27 2-26 11-20 18-16 18-12 21-9 24-6 27 6 26 16 20 23 10 27 2 27-10 27-16 19-16 19-16"/>
<path d="M15019 11574791l-1 0-11 23 5 27 5 26 3 24 3 29 3 32 1 26 2 29 2 28 1 25-5-25-6-29-4-27-4-26-4-26-5-26-3-30-1-27 0-24 3-24 12-21 22-14 29-7 26-4 26-2 25 2 17 18 0 27-11 24-15 27-19 25-20 23-18 18-20 18"/>
<path d="M15195 11574799l-1 0 27-3 27-8 25-10 24-12 22-14 15-18-3-25-26-9-25 1-26 10-22 18-15 20-9 22-5 28 0 27 9 23 21 16 24-2 23-9 24-18 18-17 21-20 16-24 10-24-3 25 3 24 25-1 14-25 14-26 10-22 11-25 12-22 15 21 4 26 8 25 15 20 25 5"/>
<path d="M15709 11574679l 1 0 3-25-21-12-24-1-23 8-24 12-19 16-17 22-14 25-10 26-3 24 6 25 20 18 24-3 25-12 18-17 19-22 18-27 17-29 14-31 11-31 7-33 4-32 1-33-3-36-5-32-7-32-11-33-10-26-14-21-19-15-18 20-4 26 0 27 2 25 3 29 3 30 5 34 3 24 4 35 6 32 7 27 8 24 16 24 27 12 26-5 26-15"/>
<path d="M15845 11574615l-1 0-18 17 21 12 24-10 19-16 14-20-19-15-25-5-24 7-16 23-8 23-7 24-2 26 3 26 9 22 26 8 25-7 23-16 24-21 21-22 18-21 15-24 7-25-18 18-4 24-3 24 20-19 12-22 11-23 14-25 14-20 15 18 5 24 4 26 7 24 22 11 22-13"/>
<path d="M16190 11574511l-1 0-23 10-19 20-19 20-15 20-12 22-1 26 22 17 29-5 22-9 22-13"/>
<path d="M16256 11574547l-1 0 24 7 21-15 20-16-11-22-26-1-24 10-18 16-17 21-10 22-5 26 0 26 16 18 23 12 26 0 27-4 25-9"/>
<path d="M16717 11574571l-1 0-23 8 24 7 24-10 18-17 21-21 21-23 17-24 13-25 8-25-1-25-8 25 12 23 25 9 25-2 24-12 16-20 14-23 12-23 10-26 10-25-14 21 2 26 11 29 15 21 18 17 18 19 17 16-20 16-24 9-26 3-27 1 28-1 23-10 24-10 27-11"/>
<path d="M16789 11574284l-1-1 25-9"/>
<path d="M17441 11574267l-1 0-27 0-24 7-22 13-25 19-24 17-21 19-17 18 27 7 25-5 29-6 26-1 27 2 29 2 23 8-4 26-17 20-25 18-22 12-24 9-28 7-26 0-21-11"/>
<path d="M17556 11574055l 0 0-2 24 0 27 0 28 0 30-3 27-5 27-6 26-6 25-8 26-6 24-5 28 0 24 14 20 26-4 22-13 23-19 20-20"/>
<path d="M17465 11574254l-1 1 23-13 24-11 28-9 25-8 26-8 27-7 24-8"/>
<path d="M17682 11574194l-1 1 13 22 25 3 26-2 24 4-11 21-18 19-18 22-16 21-12 22-7 24 20 15"/>
<path d="M17904 11574236l-2 0-22 11-19 16 5 25 18 19 25 4 27-4 23-10 16-18-16-22-25-6-25-4 19-16 21-15 23-13 26-12 23-7 25-1 11 24-6 26-7 25-4 26 25-16 14-22 15-22 14-21 14-21 9 22 2 24 6 24 17 19 25-1"/>
<path d="M18360 11574157l-2-2-24-13-26-8-26 5-21 18-15 20-11 22-7 26 5 24 23 12 28-5 24-9 21-15 17-20-6 25-1 27 2 26 4 24 3 25 4 28 1 31-1 25-2 28-5 29-7 28-11 27-11 27-14 21-17 24-20 16-23-8-13-26-7-31-3-31-2-25 0-35 2-25 2-24 8-33 9-29"/>
<path d="M18396 11574191l 0 0 26 6 26 6 24 1 26-7 19-18 5-28-15-20-23-12-25 0-23 16-17 23-11 22-5 24 0 29 8 25 12 21 22 15 26 4 26-4 25-11 25-15"/>
<path d="M18607 11574131l-1 0 1 25 5 26 4 24 1 28-3 27-8 23-17-21 2-25 5-26 10-29 14-26 15-26 17-23 19-17 24-13 25-7 25 2"/>
<path d="M18779 11574229l 0 1 10 25-2 25-10 28-13 23"/>
<path d="M19001 11574056l 0-1 25-6 28-6 27-4 30-8 24-7 25-7 27-8 26-7 24-9 24-6"/>
<path d="M18977 11574123l-1 0 26 2 30-8 27-7 30-8 33-11 34-9 23-8 32-12 30-13"/>
<path d="M19177 11573947l 0 0 24-8 25 4 27 4 24 6 26 8 25 10 22 15-3 24-17 21-23 21-20 19-19 16-22 20-19 17-18 17"/>
<path d="M19592 11574027l 0 0 4-24-4 24-7 25-9 30-8 29-4 25-2 26 8 25 25 2 22-17 17-18 16-20 14-21 15-26 14-24 11-21 10-26 7-23-11 22-8 24-4 28 1 24 1 28 6 24 21 14 20-20 17-23 12-23 10-23 8-23 6-27 5-27-4 24-4 26-3 27-3 25 22-14 15-24 16-26 15-20 16-22 17-18 22 13-4 26-2 24 6 25 18 18"/>
<path d="M20105 11573929l-2-1-25 4-22 12-16 21-16 22-11 24-10 22-2 26 16 20 29-2 29-9 22-9 24-10 22-10"/>
<path d="M20218 11573975l 0-3-19-16-24 12-20 19-12 21 17 18 26 4 27-2 25-9 23-15 11-21-15-21-23-10-26-5"/>
<path d="M20383 11573886l-1 0 24-4 24 8 1 25-19 17-22 19-18 16-17 18-14 22 6 24 28 4 28-5 25-8 28-12 28-13"/>
<path d="M20525 11573869l-1 0 25-9 26-3 25-1 25-1-15 20-18 17-17 20-18 20-16 20-9 23 15 22 27-2 24-6"/>
<path d="M20782 11573891l-2 0 17-19 25-7 25-12 20-14-23-12-24 8-24 13-18 16-17 19-13 21-7 26 5 24 21 17 25 6 30-4 28-9 30-13 24-12 21-15 19-15 20-22 16-25 12-28 6-25 6-28 5-31 4-30 3-28 4-26 2-28-5-26-25 7-13 22-13 26-9 29-6 27-5 29-6 33-5 31-3 30 0 25 7 28 13 25 21 16 24 4"/>
<path d="M21165 11573853l-1-1-13-20-25 11-19 15-18 19-14 20-3 25 24 8 25-7 23-11 22 12 24 11 25-7 27-15 22-17 23-20 20-21 18-23 13-28 7-23 5-26 5-26 4-29 4-28 3-25 1-24-24-2-13 25-6 24-3 27-3 27-2 26-3 27-3 27-4 27-2 28 1 25 6 26 16 21 26 3 23-11 22-16"/>
<path d="M21285 11573790l-4 0-25 0 25-4 25-2 26 0 28-1"/>
<path d="M21469 11573839l-1 0 25-11 25-9 28-8 23-14 5-24-23-11-26 1-24 9-19 15-20 20-14 23-2 28 12 21 19 18 24 7 30 2 27-5 29-8"/>
<path d="M21752 11573822l-2-2-19-14-23-11-25 2-23 10-23 15-18 18-7 23 9 27 25 11 25-3 23-11 26-15 18-18 18-23 14-23 9-25 5-24 2-24 2-29 0-31-1-33-1-25-2-29-6-29-14-21-24 7-7 25-3 27-1 25 1 27 2 28 1 27 3 28 2 27 3 28 6 28 8 25 9 23 16 17"/>
<path d="M21898 11573907l-1 0"/>
<path d="M3341 11573421l-1-2-20-13-26 3-23 7-30 10-24 6-26 7-29 8-32 9-35 10-36 12-39 10-38 11-39 12-39 10-40 11-40 11-42 12-42 13-42 14-43 13-42 16-39 12-36 12-36 12-31 10-29 11-26 9-23 9-28 13-20 14-21 14 14 19"/>
<path d="M1110 11574356l 0 0 24-3 19-15 16-18 16-27 13-27 10-25 10-26 8-25 6-24 4-27-4-30-7-24-12-24-17-20 10 24 17 22 17 20 20 16 19 14 16 20 5 26-4 24-7 24-9 24-14 20-16 20 25 2 18-17 18-20 15-20 14-21 12-24 8-25 8-25"/>
<path d="M1372 11573859l-1-2-4-24-5 29-5 26-4 27-3 28 0 26-1 28 1 28 3 30 3 29 6 27 6 24 11 25 11 23 12 20 20 15 26-8 20-17"/>
<path d="M1502 11574028l-1 1-9 24-2 25 2 27 5 25 10 24"/>
<path d="M1495 11573907l-1 1-3 25"/>
<path d="M1660 11574015l 0-1-25 1-20 20-17 24-12 21-8 26-1 25 19 17 26 0 23-9 24-12 27-12 21-12"/>
<path d="M1741 11574046l-1 1 23 8 23-16 21-19 16-17 11-22-12-23-26 5-18 21-14 25-11 23-8 26-2 24 16 21 26 0 21-14 22-18 17-19 18-21 17-20 14-20 11-26 4-26-7-23-4 25 10 22 14 22 17 18 14 22-19 15-23 9 26-6 21-13 24-10 23-7"/>
<path d="M920 11574837l-1-2-9-25-20-14-25-1-21 14-17 21-13 27-10 28-4 25 2 24 21 14 23-10 19-19 14-20 11-22 10 25 21 13 23-11"/>
<path d="M990 11574776l-1-1-8-24 23-8 24-8 25 2-4 25-12 25-12 22-11 26-6 27 10 22 25-7 22-14 19-19 60-74 24 5 24-12 16-18 13-21-17-20-24 4-20 20-13 21-12 26-7 25-3 25 5 25 15 21 26 6 26-6 27-14 21-15"/>
<path d="M1411 11574790l 0 0 25 2 22-13 18-16 19-24 14-23 7-24 3-24-3-25-7-25 12 24 20 17 20 16 13 22-10 24-16 18-22 14 24-6 21-15 18-17 20-16"/>
<path d="M1669 11574564l-1 1-11 25-3 25 0 24 7 26"/>
<path d="M1663 11574491l-1 0-11 21"/>
<path d="M1721 11574568l 0 1 12 23 3 24-1 25 14-20 9-26 8-24 9-22 13-22 20 16 3 26 4 24 18-16 10-25 10-24 10-24 14 21 2 24 10 24 25 4"/>
<path d="M1964 11574485l-1 0-2 26 2 25 8 24"/>
<path d="M1940 11574375l-1 0"/>
<path d="M1988 11574527l-1 1 21 13 25-6 23-15 17-21 14-23 13-26 10-27 8-28 4-28-2-29-5-31-5-24-6-30-10-25-14-21-16 20-8 24-6 24-1 28 1 28 6 32 8 23 8 25 9 23 13 25 21 20 26 11 26 0 25-9"/>
<path d="M2252 11574370l-1 0-21-14-25 7-17 20-8 25 8 23 26 4 23-10 10-22 24 0 22-14 18-16"/>
<path d="M2324 11574300l 0 0 24-5 20 15-6 25-11 24 3 25 20 15 27-2 22-14"/>
<path d="M-2395 11572545l-1-1 0 24 5 27 3 27 1 25 2 31 2 33 1 33 1 35 2 25 2 36 0 24 2 24 1 24 2 25 2 26 2 26 1 26 1 30 1 30 3 31 1 33 2 32 2 32 0 34 0 34 1 35 1 33 1 32 1 34 1 34 2 32 1 35 0 34 1 35 1 37 4 38 3 37 3 38 2 38 2 38 3 38 3 39 2 39 0 38 3 40 3 39 4 40 4 40 3 41 1 41 2 43 1 44 3 44 3 44 2 43 1 24 2 41 3 44 2 42 2 42 2 40 0 38 2 37 3 35 5 34 5 34 2 34 2 30-1 27 1 26 1 24 1 24 2 33 2 28-1 26 0 28-4 27"/>
<path d="M-2476 11574854l-1 0 22-10 27-5 28-2 26-3 31-3 25-1 27-2 29-2 34-2 25-1 27-1 28-1 29-3 29-3 33-4 33-7 35-4 37-4 36-5 37-6 39-5 39-5 39-5 40-3 40-4 41-3 42-4 42-3 43-1 44-2 43 1 45-1 45-1 44-1 46-3 45-1 44 0 47-1 46 1 47-1 48-1 48 0 24 0 48-1 24-1 24-1 48 0 24 0 24-2 48-2 25-1 49-2 48-3 24-2 25 0 24-2 48-3 48-3 46-2 45-2 45-3 44-1 43-2 43-4 41-2 40-1 39-2 37 2 32-1 34-1 32 1 29 0 31 0 26 1 24 0 32 0 27 1 28 0 24 5"/>
<path d="M-685 11572643l 0-1-6-24 5 25 1 26 0 28 1 30 1 25 0 30 2 25 0 25 1 27 3 26 2 26 3 28 2 28 3 25 1 28 4 30 2 30 3 30 4 29 4 28 4 28 0 28 2 29 4 31 4 33 4 32 2 31 5 33 4 33 5 34 4 32 4 29 4 29 5 30 4 30 4 30 2 28 2 26 3 26 5 24 4 24 4 25 2 26 1 25 2 25 4 29 4 29 3 29 2 30 5 30 8 29 4 32 3 31 4 26 4 27 4 27 6 31 5 25 5 32 3 30 4 25 4 27 1 28 5 29 3 26 4 27 5 28 4 28 2 24 2 26 2 25 2 25 4 26 5 28 4 25 4 30 3 26 2 27 3 25 3 24 1 25 0 28 3 25-1 24"/>
<path d="M-479 11572605l 0-1 4 28 0 24 0 30 0 24 0 24 1 24 2 25 3 24 4 24 5 31 6 25 6 25 5 27 4 27 2 28 4 26 2 29 3 26 2 27 4 26 2 27 3 26 3 28 5 27 7 30 4 29 1 25 3 26 2 28 3 28 1 29 2 29 1 28 1 31 4 27 5 27 3 25 3 29 5 29 1 29 0 26 1 27 0 26-1 27 1 26 1 26 1 28 6 28 4 28 4 26 2 25 3 25 4 25 2 25 0 26 3 30 2 24 2 27 3 28 5 26 6 25 5 26 2 25 1 25 3 28 4 27 5 26 3 28 6 27 0 29 5 27 5 27 4 25 5 25 1 26 6 27 3 25 7 30 4 26 5 26 8 28 6 27 5 24 5 27 1 25 3 24"/>
<path d="M-1996 11572634l-1 0-6 23 2 28 4 30 3 25 3 24 3 30 3 29 5 32 3 24 5 28 4 30 3 30 2 31 5 31 6 34 4 36 3 24 2 24 3 24 3 25 0 35 5 35 12 34 5 31 4 32 1 32 4 32 4 32 2 33 4 31 2 32 2 32 0 32 3 29 4 31 4 29 4 29 3 26 5 27 4 28 4 28 3 29 1 29 3 28 2 29 3 30 1 29 3 30 4 28 5 25 4 32 3 32 3 26 6 32 6 30 3 29 3 28 2 28 2 27 2 30 2 24 3 28 4 27 6 29 5 30 5 28 3 29 5 31 3 28 2 29 2 25 1 29 6 28 5 25 7 31 2 24 4 25 5 27 3 25 4 28 0 24 2 24"/>
<path d="M-1791 11572602l-1-1 2 26 7 23 4 27 1 27 3 29 0 29 2 25 3 28-1 24 1 25 0 25 2 30 2 25 2 27 0 30 3 30 6 25 3 26 5 30 4 28 4 31 4 31 4 25 3 24 4 26 4 28 4 24 6 29 7 29 8 27 5 25 6 28 4 29 5 27 3 30 2 26 3 26 0 27 0 28 4 28 3 27 4 28 6 27 3 25 1 26 1 26 1 24 0 27 3 29 3 26 7 25 4 25 4 28 7 30 3 30 1 27 2 27 1 24 3 25 3 30 4 27 5 26 3 26 3 24 3 28 2 25 3 30 5 25 2 26 5 26 11 23 5 24 3 25 5 30 5 26 4 25 2 24 4 28 7 25 5 29 1 24 3 26 1 26 2 25 4 27 2 25 4 26 0 28 5 26 4 27 2 26"/>
<path d="M-1906 11572684l 0 0-7 27-12 23-13 25-9 24 2 24 24-15 20-17 18-16-4 27-7 24-2 25 14 19 16 20-9 25-7 23-4 25 12 21 24-1 22-10-8 25-10 25-11 24-8 25 12 22 24-1-1 26-6 26-6 26-5 24 9 24 25-4 9 24-10 26-8 26-4 26 7 24 26 2 25-8-3 24-11 21-11 27-12 28-8 24-8 28-7 25 10 23 23-6 8 26-5 25-2 24 7 25 23 12 25-2 5 24-10 26-9 25-5 25-4 27 6 23 24-6 18-17-10 23-4 26-4 26-4 26-2 24"/>
<path d="M-1721 11573957l 1 0 9 24 3 24 2 26 0 24-2 25-6 25-2 24 9 24 9 22 1 24 1 26 5 26 0 24 3 25 3 25 5 26 4 25 1 24 0 25 1 25-1 26 4 24 3 25 2 25 3 25 0 25 0 27 2 26 2 26 5 28 4 25 3 26 4 25 3 26 3 26 1 26 4 26 1 24 4 25 2 26 1 25 5 25 6 27 4 26"/>
<path d="M-588 11572677l 0 0 12-22 22-11-11 23-14 24-13 24-10 24-4 24 22-8 20-16 17-17-9 25-16 21-17 23-15 20-15 20-13 21-9 23 25-11 19-17 17-21 20-19 19-16 20-16 14 20-12 23-13 25-15 25-14 26-12 21-10 24-8 24 20-17 21-16 17-19 16-18-7 24-14 24-16 23-16 25-13 22-13 22-13 22-12 24-13 24-9 24 27-13 19-21 17-19 20-24 19-24 19-23 20-20 19-15-8 26-12 25-14 28-16 25-11 22-11 22-9 25-12 26-4 24 28-6 21-16 21-18 23-19 20-15 21-15 23-16 20-15-12 25-14 20-18 25-14 22-16 23-16 23-15 24-16 27-13 26-14 25-14 25-13 27-10 25 27-7 18-20 20-26 14-20 20-24 20-23 20-20 18-16-15 27-12 20-13 20-15 27-11 22-13 28-11 27-9 24-10 26-6 26 25-4 18-20 16-21 14-20 18-18-8 26-14 25-13 27-14 28-13 29-10 24-9 23-12 29-10 25-8 26 2 24 25-13 19-22 14-24 17-24 18-23 20-23 19-18 18-17-9 25-15 26-13 22-18 21-14 23-13 22-13 28-11 26-7 25-5 26 8 23 20-14 18-16 20-23 18-26 18-23 16-19 18-16-14 25-11 22-11 24-11 24-11 24-11 24-8 24-8 24-4 29 1 25 10 24 24 1 21-13 3 25-6 24-7 24-6 25-7 26 12 22 14-22 13-22 13-21-7 27-9 25-5 25-5 24-1 28-3 25 3 24 17 19 19-17 13-21-2 24 1 24-4 26-2 28-1 29 2 27 2 26 4 24 11 22 6 24-1 26 3 24 5 25 4 25 6 25-5 27-3 24-2 24-3 25-2 25 7 25 2 24 1 25 0 25 0 27 3 24 5 26 6 24 7 26 10 24"/>
<path d="M433 11575704l-1 0-18 17-6 25 0 25 9 24 15 19 25 4 20-18 16-21 9-23 5-26-7-23 4 25 14 20 23 12 27 3 22-11 18-16 14-21 9-27-3-25-14-22-22-14-24 2"/>
<path d="M615 11575359l-1 0 15 20 10 27 6 25 5 28 6 31 2 28 2 29 2 28 1 26 2 27 2 27 3 28 4 26 12-22 6-26 7-26 8-26 10-27 8-24 8-24 9 26 0 27 2 29 3 27 11 24 26 1"/>
<path d="M833 11575558l-1 0-8 23-1 26 3 24 19 15 24-10 20-20 12-21 8-25 5-27-10-22-1 24 1 24 4 26 7 24 11 25 12 23 13 24 15 23 12 21 8 24 7 25 4 30 0 28-3 26-6 26-11 24-24 10-24-11-18-18-12-23-10-24-4-24-2-28 3-26 6-26"/>
<path d="M1189 11575429l-1 0-7 26 4 26 6 27 9 26 10 27 14 20"/>
<path d="M1203 11575342l-1 0 0 25 17 20"/>
<path d="M1266 11575429l 0 2 8 23 9 25 5 25 5 24 11-24 9-28 8-23 10-25 11-21 4 25-1 27 2 25 24 0 14-24 14-24 11-24 18 17 5 26 12 21 25-2 17-20"/>
<path d="M1522 11575334l 0 0-7 25 1 27 3 25 5 29 4 29 2 25 2 28 1 29 1 28-1 25-3 25-5-26 2-27 2-29"/>
<path d="M1542 11575407l 1-10 5-30 6-27 10-24 19-15 25-6 22 9-1 25-12 24-17 23-14 20-16 24-12 24-1 25 23 7 21-13 19-20 20-27 17-24 16-25 14-28 13-26 11-30 10-29 9-31 8-32 5-34 4-35 3-33 2-27 0-28-5-24-24-6-15 24-9 23-7 30-5 24-3 28-1 31-2 31 0 29 3 30 3 32 5 26 7 30 10 22 19 19 27-6 20-18"/>
<path d="M1815 11575242l 0 0-2 24-2 25-1 27 1 25 17 20 25-7 18-22 15-20 12-25 9-25 9-27 7-27-9 23-1 26 2 26 5 29 7 29 8 33 5 26 6 28 4 28 2 31-1 33-2 33-2 25-2 24-4 24-4 26-8 31-9 26-12 22-18 16-20-15-10-27-6-29-3-35-1-27 0-27 1-30 2-28 4-29 4-28 8-33 9-28 10-24 9-22 13-24 16-20 20-17 24-15 26-9"/>
<path d="M963 11576056l 0-3 2 26-3 25-5 27-4 28-3 24-1 28 24 7 15-19 14-26 11-25 10-22 7-27 3-26 1 27 4 25 7 25 23 10 19-17 17-24 14-24 9-25 4-27-1-24-9 25-2 27 1 24 3 25 18-17 11-26 12-28 10-24 11-25 14 23 3 26 10 24 24-2"/>
<path d="M1337 11575948l-1 0-21 13-17 18-15 21-12 21-9 26 0 26 22 15 25 0 25-9 22-12 21-13"/>
<path d="M1443 11575955l-1 0-19 16-15 20-12 22-3 26 18 17 25-5 24-12 19-16 15-20-9-24-23-8-24-4"/>
<path d="M1584 11575871l-1 0 25-7 24-3 24-2 17 19-11 23-16 20-15 20-17 21-15 20-10 23 25 2 24-16 22-16"/>
<path d="M1729 11575900l-1 1 23 10 21-15 16-19 3-25-23-6-25 10-17 19-13 24-9 24-2 25 11 25 20 14 24 2 27-7 24-14"/>
<path d="M1485 11575903l-1 0 22-12 20-15 24 5 11 22-6 26-9 24-10 23-9 24-7 25 24 8 23-10 21-16"/>
<path d="M1880 11575816l 1 0 11-22 10-25 9-26 7-23 2-24 2-24-1-25-22 15-9 28-8 25-5 25-6 31-4 26-3 26-2 26 0 30 5 26 10 25 15 19 23 11 25 1 24-13 19-16"/>
<path d="M2043 11575852l 0-1-2-25-25 6-15 19-13 21-11 25 20 14 20-15 23-13 20-14 13 22 26-3 22-10 19-18 18-17 18-20 16-22 14-25 11-27 8-28 5-27 1-29-1-31-3-24-12-21-17 20-10 27-3 29-3 28-1 30-1 25 0 24 0 25 2 29 4 24 10 22 21 16 25-7 17-18 14-22 8-26"/>
<path d="M2150 11575763l-2 1 24-9 22-11 24-8 28-10"/>
<path d="M2367 11575772l-1 0 26-8 25-13 20-15 14-20-20-15-26 5-25 13-18 20-14 23-10 23-3 26 21 17 25 5 25-7 28-11 21-11"/>
<path d="M2595 11575743l-1 0-3-24-14-20-27 2-22 14-18 21-13 22-12 25-3 25 8 24 23 12 26-1 25-15 21-20 20-22 17-27 14-28 11-30 9-30 6-28 1-31 0-25 0-28-2-30-5-28-18-16-20 19-7 25-4 27-1 24 0 28 1 30 3 31 3 26 5 28 7 27 9 22 13 22 16 21 19 16 24-4"/>
<path d="M2728 11575567l-1-1 22-12 24 2 24 11 15 20 2 26-7 28-11 25-13 24-13 26"/>
<path d="M2796 11575836l-1 3 20 18 27-5"/>
</svg>
