<svg xmlns="http://www.w3.org/2000/svg" viewBox="1216 35011 27846 127731" stroke="black" stroke-width="16" stroke-linecap="round" stroke-linejoin="round" fill="none" data-xena="0 -147 1"><style>@media(prefers-color-scheme:dark){svg{background-color:black;stroke:white;}}</style>
<path d="M16545 35254l 4 27-3 24-6 31-6 27-7 29-9 32-7 32-7 32-4 30 1 29 0 26 4 27 8 27 16 18 24-3 17-18 17-25 13-23 11-27"/>
<path d="M16438 35502l 23-13 22-15"/>
<path d="M16632 35462l 24-9 24 1 15 20-15 23-14 22-15 25-11 23 13 22 25 0 22-10 23-12"/>
<path d="M16778 35514l 25-7 17-17 11-23-23-11-20 16-17 19-12 22-6 26 6 24 20 17 26-2 27-8 24-10"/>
<path d="M16902 35491l 25-3 23-10 23-12-1-24-26 0-22 11-17 19-13 20-7 24 4 26 18 19 25 3 24-3 26-7"/>
<path d="M17172 35370l 27-2 24 0 27-3"/>
<path d="M17162 35415l 26-2 26-7 23-9"/>
<path d="M17256 35301l 24 6 25 9 23 12 15 20-14 23-17 21-18 19-16 22"/>
<path d="M17538 35554l 24 5 23-18 17-17 19-21 21-24 23-27 17-19 17-18 14-20 19-26 14-28 14-28 8-28 6-27 2-31-4-28-18-16-21 13-16 19-15 23-16 31-11 23-11 24-8 25-7 25-5 24-4 35 0 32 2 28 4 24 8 25 14 21 23 6 20-18 12-22-3-25 4-25 110-37-3 25-6 26-2 26"/>
<path d="M17862 35364l"/>
<path d="M17902 35464l-3 27-2 28-7 28-5 29-4 25-6 24-8 29-7 23"/>
<path d="M17903 35450l 15-19 26 4 21 10 16 21-7 24-17 23-16 18-17 18-22 12"/>
<path d="M18093 35463l-22-13-26 0-20 17-17 18-6 24 21 13 24-2 24-9 21 13"/>
<path d="M18177 35428l 25-2 21 14-8 24-18 17-15 21 19 17"/>
<path d="M18377 35256l-4 24 1 26-5 24-8 26-7 24-8 27-12 28-13 25-11 22-3 27 19 17 24-6 20-14 19-16 17-20"/>
<path d="M18290 35397l 22-12 25-9 27-7 29-5"/>
<path d="M18469 35407l-11 22-7 25"/>
<path d="M18504 35279l"/>
<path d="M18614 35237l-5 24-1 24 1 26-7 25-12 28-10 24-11 24-14 21-9 26-5 23 25 0 27-9 25-13"/>
<path d="M18564 35359l 25-6 26-2 24 0"/>
<path d="M18749 35352l 25 2 24-8-5-24-26-2-25 10-20 17-7 24 1 26 12 22 19 18 25 6 24 0 27-7"/>
<path d="M19036 35450l-13 22-14 23"/>
<path d="M19281 35416l 24 2 24-9 24-13 26-18 24-17 26-20 20-15 26-24 24-25 20-26 17-23 14-20 10-25 6-23-14-22-22 17-18 19-23 22-17 21-16 23-14 26-13 28-9 27-4 26 0 31 5 28 11 24 19 20 27 11 27 2 25-8 20-15 9-23-4-24-13-21-22-13"/>
<path d="M19661 35340l-8 24-2 24"/>
<path d="M19695 35250l"/>
<path d="M19744 35325l-3 25-4 27-5 25-7 27-9 29-9 23-10 28-9 23"/>
<path d="M19751 35310l 22-13 23 10 19 16 4 25-18 21-22 17-24 14"/>
<path d="M19896 35341l-23-13-24 3-20 14-17 20 2 24 24 4 23-8 24-5 9 23 24 8"/>
<path d="M19967 35335l 24 4 9 23-18 17-17 18-1 25 25 1"/>
<path d="M20176 35162l-4 26-5 27-6 25-9 23-11 25-13 23-11 23-9 27-6 23 1 26 21 14 26-13 23-17 21-18"/>
<path d="M20091 35296l 24-7 29-7"/>
<path d="M20266 35321l-12 22-12 23"/>
<path d="M20300 35194l"/>
<path d="M20413 35171l-11 22-7 25-6 24-9 24-10 23-10 22-11 27-10 23-5 24 1 27 19 16 27-6 26-13"/>
<path d="M20330 35291l 27-2 28-5 26-5"/>
<path d="M20485 35339l 24 1 23-8 23-11 14-20-18-17-25 4-23 12-18 16-16 20-12 24 7 24 19 16 27 6 25-1 28-4 24-5"/>
<path d="M20834 35259l 25-2 25-4 28-4 26-4"/>
<path d="M20818 35312l 25-3 25-6 27-4 30-5 24-6"/>
<path d="M20954 35205l 26 7 24 7 23 9 24 7 16 18-19 18-22 11-25 13-23 13-23 15-22 14"/>
<path d="M21117 35114l-23 14-21 18-24 22-19 17-19 19-22 24-21 20-20 21-19 21-17 20-18 20-20 20-19 20-16 17"/>
<path d="M21463 35128l-8 26-11 22-14 25-12 26-11 22-11 23-14 23-12 24-12 24-10 25-5 24-2 26 6 27 25 11 29-4 27-11 23-15"/>
<path d="M21346 35312l-27 6 28-4 27-7 25-5 24-5"/>
<path d="M21543 35311l 24 5 14 20-20 17-20 17-17 20 18 17 24-5"/>
<path d="M21662 35360l 27-8 22-9 21-12-5-26-25-7-21 11-18 18-14 21-8 23 8 23 20 16 26 3 29-4 28-8"/>
<path d="M21830 35354l 24-4 23-11 17-18-8-23-26-3-23 9-19 18-15 21-9 23 2 26 19 20 23 7 27 0"/>
<path d="M16523 36878l"/>
<path d="M16593 36861l 24-10 23-11 24-12 25-12 22-12 27-12 22-11 22-11 25-14 28-14 30-16 30-16 31-17 29-17 28-15 29-14 25-13 25-11 22-10 22-10 26-13 25-13 20-14 22-13 20-15"/>
<path d="M16624 36909l 24 10 22 9 25 6 24 7 26 12 24 13 22 13 21 11 24 14 22 9 25 6 26 6 26 8 27 8 25 10 27 9 25 10 22 9 26 10 22 9 22 11 22 10"/>
<path d="M17306 36505l"/>
<path d="M17276 37172l-8-23-24 5"/>
<path d="M17249 36604l-20 14-18 20-18 22-14 20-15 23-16 23-14 23-17 25-18 26-14 22-14 22-15 24-17 25-17 26-19 28-20 28-21 28-20 27-14 20-21 30-14 20-21 28-21 27-21 30-15 20-14 21-17 21-14 20-15 20-16 20-14 20-15 20-20 28-17 26-17 25-18 26-17 25-14 23-13 21-14 20-18 24-15 21-15 24-15 21-17 21"/>
<path d="M17183 37224l-20 16-18 16-18 18-22 16-18 18-19 16-17 17-19 17-20 17-21 17-22 16-19 16-20 14-19 17-19 17-17 19-20 16-19 16-22 15-19 14-20 17-19 17-20 15-17 17-17 19-18 17-20 15-20 15-20 16-18 16-22 12-18 16-20 13-22 12"/>
<path d="M16433 37761l-5 24 21-12"/>
<path d="M14363 39741l 23-10 25-12 23-10 26-10 26-12 26-11 25-14 22-13 24-14 23-14 21-13"/>
<path d="M14790 39696l 24-9 21-13 20-21 17-19 17-21 16-22 13-23 11-22 19 19 21 15 11 23 0 24-16 21-22 16-24 10-23 8 22-13 22-11 22-12 25-13"/>
<path d="M15089 39558l-13 22-4 23 2 25"/>
<path d="M15116 39476l"/>
<path d="M15139 39533l-2 25-6 23-10 23 19-19 18-19 19-19 23-10 17 17 4 24 20 15 26 1"/>
<path d="M15361 39516l-23-8-24 6-18 17-16 20-12 22 18 18 27-6 24-13 23-13-11 25-2 26-1 27 0 27 0 31-3 26-6 29-7 30-10 27-12 21-18 20-22 9-19-17-3-28 5-29 5-26"/>
<path d="M15400 39562l 19 16 25-10 20-17 15-19 18-23 18-23 12-26 8-27 4-28 0-28-4-25-24-7-19 17-14 21-15 25-11 22-10 24-10 24-8 24-3 30 1 28 11 23 19 17 24 4 27-4 24-10"/>
<path d="M15578 39518l 24-7 21-17 0-24-24 1-22 18-14 19-9 25-2 25 8 23 19 15 24 1 25-7"/>
<path d="M15738 39467l 24-8 28-9 24-9"/>
<path d="M15909 39469l 25-5 22-12 20-15 14-20-18-18-25 2-22 15-17 21-14 23-12 23-2 27 11 22 25 7 27-2 28-9"/>
<path d="M16122 39406l-25-2-26 6-20 16-17 22-13 24-3 25 18 16 26-6 22-15 19-17 18-20 17-22 14-25 12-28 5-24 6-25 3-26 3-27 2-28 0-26 1-27-4-26-20 14-12 26-9 28-9 23-7 26-4 27-4 27-3 27-2 25 4 27 9 26 15 21 23 12"/>
<path d="M16305 39382l-2-25-20-13-24 11-22 19-17 20-8 26 6 24 27 4 21-11 18-17 11 22 3 24-1 26-3 27-3 25-4 27-6 29-8 28-9 28-9 26-18 25-16 19-24 3-17-17-8-27-2-29 4-25 9-27 10-29 15-30"/>
<path d="M16382 39362l 24-13 24-13 20-16 7-25-20-15-25 7-20 16-21 18-17 20-12 23-8 24 0 26 16 19 26 11 27 0 25-4"/>
<path d="M16901 39281l 3-26-13-22-26-5-25 10-23 14-23 17-19 19-12 23 25 9 25-6 23-9 22-11 3 24 26 3 23-12"/>
<path d="M16963 39233l-19 15 6 24 25 1 20-14 16-19 11 23 22 12"/>
<path d="M17201 39201l-19-15-24-9-25 1-25 13-20 18-15 21-7 26 19 17 27-7 24-12 22-11 20-14 16-20-17 20-12 24-6 24-6 28-4 26-6 29-7 31-7 30-9 29-9 28-10 24-12 24-15 19-20-19 0-30 5-24 7-26 10-29 9-31 14-28"/>
<path d="M17235 39240l 25-3 20-19 17-18 17-21 10-22 5-24-12 22 13 21 20 17 16 18 7 24-23 14-27 2-24-4 24-5 26-6"/>
<path d="M17615 39161l 20-14 24-18 23-17 23-17 24-18 24-20 24-20 22-20 17-20 14-20 13-21 10-28 3-25-1-27-21-13-22 13-21 17-22 23-17 24-15 30-16 32-10 24-9 24-8 24-7 26-7 25-4 25-4 24-3 32 1 29 3 24 6 28 8 24 13 25 16 20 26 1 17-21 9-26 4-28-4-26-5-30-6-29-6-27-7-25-7-28-5-25 22-14"/>
<path d="M17886 39038l 21-13-11 24-22 12-14 20 13 22 26 0 25-6 23-10 21-13 16-19 25 2 24-1 16-18-21-13-23-9 23-13 26-3 27-3 24 0 23 9-7 24 16-20 19-19 23 4 0 24 27-3 21-17 22-11 24 8 23 11 24 9"/>
<path d="M14886 40023l 20-13 16 18 0 27-4 26-4 30-6 27-10 27-8 26-9 28-10 23 8-28 9-24 12-26 12-28 14-29 14-29 13-28 14-25 13-21 16-20 17-18 23 10 8 28-3 29-4 26-4 26-7 28-7 29-6 24-9 23 15-19 14-24 13-26 15-27 15-27 15-27 16-24 15-21 18-24 17-20 18-18 19-16 16 20-9 28-10 28-10 29-10 29-9 27-5 30 0 24 5 24"/>
<path d="M15307 40133l 26 1 24 7-9 25-17 17-20 19-18 16-14 20 27 4 24-6"/>
<path d="M15687 40065l-4-26-17-18-27 5-24 15-19 19-14 20 7 23 25-1 25-9 21 11"/>
<path d="M15756 40009l 26 1 1 24-20 18-20 18-13 21 24 5 26-6 24-10 23-11 20-13 20-14 22-14 18-15 11-22-20-13-26 7-17 18-14 24-9 24 5 26 18 19 24 6 28-5 32-10"/>
<path d="M16267 40007l 25 6 26-11 20-14 26-20 23-19 24-21 22-23 19-22 14-21 14-23 14-23 9-23 6-25 3-25 3-29-2-26-22-11-17 22-14 21-17 28-11 21-11 25-13 27-13 29-13 31-13 33-11 33-10 34-9 33-7 32-6 32-3 30-2 27 1 24 2 30 7 23 12 23 17 19 25 1 21-18 17-25 12-28 5-30 0-25-4-31-5-30-6-28-7-28-10-22 2-25 21-13"/>
<path d="M16569 39871l-16 19-3 25"/>
<path d="M16618 39765l-13 20"/>
<path d="M16646 39853l 10 22-3 25 11-23 18-20 17-20 18 15-5 25 5 24 26-1"/>
<path d="M16837 39853l 21-17 21-15 16-20-10-22-25-2-20 16-18 20-13 23-1 27 13 23 24 11 25 1 28-3 24-6"/>
<path d="M16997 39871l"/>
<path d="M3717 68457l 22-10 25-5 24-1 25 0 28-3 28-5 27-6 24-4 24-4 25-5 26-2 26-3 23-5 28-3 29-5 27-3 28-3 28-3 29-3 32-3 32-3 35-3 33-3 33-2 32-2 32-1 32-1 31-2 32-1 30-2 32-1 30-2 31-2 28-2 28-2 27-3 27-3 25-2 25-1 26-1 27-1 32-1 24-1 33 0 29 0 31 1 29 1 30 0 30 1 32 0 31 0 31 0 26 1 26 1 26 1 24 0 25 2 26 1 26 2 27 2 27 0 27 1 27 0 28 2 28 0 27 1 30 0 33 0 32 1 30 1 29 0 29 0 30 0 30 0 32 0 31 0 31 0 32 0 31 0 33 0 35 0 35 0 35 1 34 0 34 0 25 0 24 1 35 1 36 2 26 2 25 1 36 2 25 1 35 3 25 1 24 1 24 1 26 0 26 1 28 0 27 0 28 0 28 0 27 0 28 0 29 0 29 1 29 1 29 0 27 0 28 1 29 0 28 1 31 1 29 0 29 1 29 0 28 0 30 0 30-1 30 0 31 0 29 0 30-1 32 0 29 0 30 1 30 0 28 1 29 0 29 1 28 1 29 0 30 1 30 1 28 0 29 0 28 1 28 0 28 0 28 1 28 0 27 0 27 1 26 0 27 0 27 1 26 1 26 1 25 1 24 2 36 1 36 2 24 1 24 1 25 1 24 0 25 1 34 0 25 1 25 0 27-1 27 0 26 0 25 0 34-1 26 0 24 0 25 0 26 0 26 0 24-1 27 0 25-1 26 0 28 0 26-1 26 0 27 0 36 0 26 0 26 0 25 0 26 0 25 0 25 0 24 1 24 0 25 1 24 1 25 1 25 1 26 1 25 1 25 1 24 1 35 1 25 1 26 1 27 0 25 1 26 1 26 1 25 2 26 2 26 2 26 2 26 1 25 3 25 2 26 3 25 2 25 3 26 1 36 3 25 2 25 1 36 2 25 1 25 2 25 0 26 1 26 1 24 0 36 1 35 2 25 0 36 2 34 1 33 2 33 2 34 2 34 2 33 1 34 1 35 0 34 1 35 1 35-1 24 0 36-1 36 0 24 0 36-1 25 0 26 0 25 0 26 0 25 0 26-1 27 0 26-1 27 0 27 0 27-1 26 0 28-1 27-1 29-1 30-1 30-1 29-1 30-2 30-1 31-1 32-1 31-1 30 0 30 0 31 0 32 0 34 0 34 0 36 0 36 0 34 0 38-1 37 0 40-1 38 0 38 0 38 1 36 0 38 1 38 0 36 0 36 0 36 0 36 0 36 0 36 0 36 0 36 1 36 0 37 0 36-1 36 0 37 0 37 0 36-1 38-1 36 0 37-1 35-1 37-1 35 0 36-1 35-1 35-1 34-1 34-2 34-2 33-1 34-3 34-3 35-3 34-3 36-3 35-3 35-3 35-3 34-2 34-3 34-2 36-2 37-3 38-1 39-2 38-2 39-2 39-2 39-1 39-3 37-2 38-1 38-2 36-1 36-1 36-1 32-1 33-1 32 0 31-1 31 0 29 0 28 0 26 0 26 0 26-1 26 0 26 0 25 0 35 1 34 0 34 0 33 0 32 0 29 1 28 1 26 1 27 1 26 1 26 1 25 1 28 2 25 2 26 1"/>
<path d="M1319 69114l 25-1 27 3 24 5 24 5 24 2 24-1 28-3 32-1 25-2 28-3 30-4 34-6 24-4 24-5 26-3 28-3 27-4 29-3 28-3 28-3 28-2 29-3 30-2 29-3 30-1 30-3 30-2 31-3 32-2 31-1 32-3 31-2 31-1 32-3 32-2 32-1 33-2 31-1 32 0 30 0 32 0 31 1 32 2 32 1 30 1 32 2 31 1 31 2 32 1 31 1 32 1 31 1 32 1 33 0 32 0 34 1 32 0 32 1 33 0 32 1 32 1 32 1 31 1 30 1 32 1 32 0 32 1 32 0 31 1 33 0 32 1 31 0 32 0 31 0 31 0 31 1 30 0 32 2 31 0 31 1 31 1 30 1 30 2 30 1 30 1 30 2 31 1 31 1 31 2 29 2 30 2 30 1 31 2 30 1 30 1 30 1 30 1 30 1 31 1 30 1 30 0 31 0 29 1 31 0 31-1 30 0 32 0 30 0 30-1 31-1 31-1 31-1 29-1 30-1 28-1 30 0 29-1 30 0 29-1 29 0 28 0 29 0 28 0 28-1 27 0 27 0 25 1 26 0 25 0 26 0 25 0 26 1 26 0 25 1 25 1 25 0 24 0 26 0 25 1 24 0 24 0 24-1 36 0 34 0 35 1 24-1 26 0 25 0 25-1 24 0 37-1 25-1 25-1 27-2 25-1 26 0 27-2 25-1 26 0 26-2 26 0 28-1 27-1 27-1 26-1 26-1 27-1 26-2 27 0 26-1 26-1 27-1 25-1 26-2 28-1 26 0 26-2 25 0 36-1 24-2 36 0 35 0 34 0 32 1 31 1 26 1 29 2 28 2 28 2 25 2 29 1 25 3 28 3"/>
<path d="M15744 92545l-22 17-14 21-12 23-14 28-16 33-12 22-11 23-10 24-10 25-9 25-8 25-7 25-6 25-5 24-4 35-1 33 3 30 5 29 6 28 5 27 5 31 11 22"/>
<path d="M15784 93023l 24 4 21-16 22-19 20-20 20-24 21-27 14-20 14-20 21-29 13-20 18-31 14-31 9-31 8-32 6-31 5-29 2-30-25 12-16 29-10 23-12 26-11 26-11 28-10 29-9 30-8 32-7 31-5 33-4 34-3 34-3 34 0 30 1 28 2 24 7 30 10 23 13 22 18 16 24-10 9-26 6-27 2-28 0-32 0-24-4-32-7-27-11-26-14-22"/>
<path d="M16084 92888l-24-6-16 18-12 24 2 25 13 23 26 1 22-11 16-19 8-24-17-18-23-6"/>
<path d="M16180 92849l 23-8 24 1-6 25-16 21-15 20-8 24 24 7"/>
<path d="M16312 92880l 23-10 19-14-13-21-23 12-16 18-12 24-6 26 13 21 26 6 26-5 22-12 20-13 22-19 15-20 14-21-2-25-18 18 1 25 19 19 18 16-10 22-27 5-23 10 24-5 24-12"/>
<path d="M16542 92704l 8 23 2 26-4 25-5 25-8 24-9 25-9 23-10 28-4 24 11 22 28-2 24-10 25-12 23-14"/>
<path d="M16485 92826l 21-13 23-9 24-8 27-8 24-7"/>
<path d="M16993 92687l-13 27-9 26-8 28-7 23-8 24-8 25-9 29-9 26-10 25 4-26 6-23 7-26 6-25 5-26 5-25 4-24 7-30 5-25 10-26 14-21 28-3 29 2 29 5 26 8 19 16-6 23-21 20-26 15-25 12-26 10-23 9-23 8 23-9 24-7 25-4 29 0 27 3 25 6 23 9 18 18 2 24-9 24-18 22-19 17-21 15-21 15-28 16-21 11-29 10-25 7-27 0-19-15"/>
<path d="M17244 92629l 26-2 24-5 25-6 26-6 28-5 26-6"/>
<path d="M17294 92630l-13 22-10 25-5 24-4 25-4 25-5 27-3 29-4 26"/>
<path d="M17264 92733l 24-7 26-3 29-6 25-6 24-5"/>
<path d="M17573 92636l-24-11-26 5-22 11-19 19-14 22 7 24 20 14 22 9 24 8 24 9 23 11 17 17-4 26-16 20-23 15-25 8-25 2-24-4-24-11-18-18-6-28"/>
<path d="M17670 92534l 20 13 19 17 18 18 18 16 20 18 16 20 14 22 11 22 9 22 8 25 1 26-5 28-7 30-11 29-14 28-16 26-22 21-20 18-24 17"/>
<path d="M15290 95353l 7-24-26 6-18 18-16 19-16 23-13 25-8 26-5 28 4 28 13 21 23 5 27-6 26-11"/>
<path d="M15399 95378l 18-18 23-7 4 25-6 24-9 23-11 23-6 26 27-2 16-23 15-27 16-28 15-26 13-23 11-22 12-24 13-20-5 24-5 25-5 24-6 27-3 24-5 27-5 30-6 33-5 34-5 24-4 25-6 24-4 25-5 24-5 33-6 29-6 26-10 28-9 23-24-4-6-26-1-29 3-24 7-26 8-27 8-27 10-27 11-27 13-26 12-25 12-23 13-21 15-20 14-20"/>
<path d="M15690 95291l-24 5-20 20-17 17-15 20-14 26-8 26-1 25 18 17 29-3 23-9"/>
<path d="M15725 95370l 25-7 20-17 19-18 19-21 15-20 12-22 9-24 5-25 3-28 3-29 1-29-3-27-24-6-16 23-16 22-16 27-9 23-9 25-6 27-4 27-3 26 0 26 3 29 8 25 14 25 19 17 21 14 27 2"/>
<path d="M15911 95335l 25-2 24-8 23-10 19-17-8-24-24-6-25 3-22 15-16 23-9 24 0 26 7 24 18 17 27 8 30-2 28-6"/>
<path d="M16382 95225l-19 18-11 23-8 23-6 24"/>
<path d="M16402 95107l"/>
<path d="M16431 95260l-8 23 26 1 25-15 19-16 22-20 20-23 19-24 15-25 10-25 9-26 4-28 4-29-6-23-23 9-18 25-15 28-10 24-9 28-7 31-10 34-6 24-6 25-7 24-5 26-5 24-4 24-4 34-1 30 1 24 3 26 10 25 25-1 13-22 7-26 1-30-1-26-3-25-4-24-7-26-10-23-16-19 22-13 25-12 24-13 24-14 25-17 20-19 21-20 21-23 14-23 10-24 9-27 5-29 5-27-2-27-24-11-16 18-11 24-10 23-9 26-9 29-7 33-6 23-6 25-5 26-7 25-5 26-5 24-4 34 0 31 2 26 4 24 10 27 15 23 20 15 26-6 16-19 10-26 2-29-1-25-4-28-8-28-9-23-15-24-17-18-20-14"/>
<path d="M16999 95226l 26-1 23-17 18-16 18-17 20-20 21-22 20-21 17-23 13-23 11-25 9-26 4-25 1-29 1-26-3-24-25 11-16 22-13 23-12 29-8 23-9 25-9 28-10 29-9 29-9 31-7 30-4 30-4 29-3 26-1 25 1 34 3 30 4 25 8 29 11 24 23 13 16-18 14-27 5-26-1-26-3-27-7-30-9-28-7-23-11-23-5-24"/>
<path d="M17232 95135l 21-13 21 12-1 25-15 21-13 21 14 20 25-4 23-8 25-9 22-9 22-11-25 4 20 16 26-3 22-12 10-23-13-22-16-18 25-9 24-2 18 17 7 23 2 25 14-22 18-17 24 5 23 11 22-12 23-13 21-13 24-8 17 16 12 24"/>
<path d="M15155 96139l 24-4 21-17 19-18 17-20 13-20 11-23 4-24 4 25 9 23 11 25 14 23 8 23-22 14-25 2 22-16 26-6"/>
<path d="M15458 96052l-24-10-24 0-20 14-19 20-11 22 4 24 27-4 24-11 21-13 21-18 19 17 24 0"/>
<path d="M15547 96014l-16 20-5 25-3 25 21-13 16-21 16-20 19-15 7 24-3 25 24 3 17-18 15-19 18 18 21 13"/>
<path d="M15743 96026l 22-13 24-12 19-16 12-21-22-13-25 6-18 20-11 22-6 25 4 25 19 16 24 7"/>
<path d="M16055 96035l 24-13 28-12 25-14 21-16 21-16 19-18 20-21 9-22-2-24-2 26 7 26 5 25-4 26-15 19 6-25"/>
<path d="M16269 95950l 26-3 24-5 23-7 22-11 23-14 16-18-4-24-25 2-21 15-17 21-14 22-5 24 15 20 25 4 26-4 24-6 28-9"/>
<path d="M16560 95856l-21-13-23 5-24 15-17 16-15 21 13 20 26-3 25-9 22-11 15 20"/>
<path d="M16678 95824l 24-4 25 1 26 1-10 23-23 15-17 17-10 22 24 7 23-7 24-9"/>
<path d="M16929 95774l-25 7-21 14-18 18-13 20-5 26 7 23 26 5 26-6 26-10"/>
<path d="M17076 95578l-2 25-1 26-1 28-2 26-3 28-4 31-5 25-4 25-5 24-6 26-5 24 18-22 15-25 13-26 13-23 16-22 18-17 9 25-5 24-4 26-2 25 5 23"/>
<path d="M17486 95553l 18 18 3 26-5 26-6 25-9 29-9 24-10 25-6 28-5 27 4 26 26-1 21-14 22-17 21-17"/>
<path d="M17446 95678l-25 1 23-8 29-7 25-4"/>
<path d="M17619 95660l 25-1 10 22-15 20-16 21-9 23 23 8"/>
<path d="M17728 95691l 24-6 24-6 23-11 20-15-8-23-24-3-26 9-21 17-19 16-10 21 2 25 22 14 29 0 25-3 24-5"/>
<path d="M17911 95676l 23-16 19-15 20-14 12-22-19-16-24 4-23 16-16 18-14 20-5 26 7 23 21 15 24 5 25 0 29-2"/>
<path d="M3093 99920l-17 22-10 26-7 25-7 26-4 23-5 25 10 23 22-14 19-22 14-22 12-22 13-23 6 24 6 26 16 19 22 11 26-5 18-17 15-25 9-24 5-27-8-25-16-20-21-11"/>
<path d="M3338 99705l 9 26 3 28 0 27-2 31-3 24-4 26-4 29-5 29-6 28-4 25-5 29-3 25 8-26 8-28 9-28 11-22 12-22 18-16 16 21 3 26 1 25-1 25 0 28 1 24 24 7"/>
<path d="M3496 99911l 9 23 25 6 24-6 20-15-10-21-26 0-21 10-18 18-13 24-8 25-3 25 4 26 18 16 23 5 24-5 26-10"/>
<path d="M3663 99914l-19 18-11 24-5 25-1 25 23-11 14-24 13-24 14-25 14-22 17-18 16 20 3 25 2 27 1 26 6 24 21 13"/>
<path d="M4429 99904l-1-24-14-21-25-1-24 13-17 18-16 24-11 24-10 26-5 26-1 26 14 22 26-1 25-17 18-17 18-19 17-22 15-22 13-24 11-24 8-23 8-30 4-30-1-31-2-32-5-31-3-28-3-27-9 29-5 31-3 26-3 29-3 29-1 32-2 31-1 31 0 28 1 26 5 29 6 28 14 22"/>
<path d="M4586 99886l-24 4-15 23-8 25-6 26-1 26 12 22 27-2 22-13 17-17 16-23 10-24-2-26-16-22-20-14"/>
<path d="M4691 99912l 25-1 22-11 12-21-23-9-26 7-20 16-12 25-10 25-5 25 5 26 23 12 27-2 25-11 22-13 23-13 22-16 19-15 19-18 13-21 4-24-7-24-16 19 5 24 15 19 18 17 6 24-23 14-24 5-25 1 23 12 27 0 26-4 28-6"/>
<path d="M5429 99667l-4 24-5 26-7 31-5 24-7 25-9 26-9 28-9 29-8 28-5 27-2 29 9 25 25 3 21-14 20-18 20-22"/>
<path d="M5404 99805l-27-1-26 5-23 8-13 21 23 8 27-8 23-12 24-16 20-14 20-17 21-18 18-18 15-19 14-23 12-22 9-22 1 24-2 31-1 31-2 24-2 26-3 27-3 28-4 29-4 29-4 24-3 26 0 28 19-23 13-24 14-24 12-23 14-23 17-18 19 15 5 25 5 27 3 26 10 22"/>
<path d="M5730 99849l-8 26-5 26-3 24 2 26"/>
<path d="M5769 99758l-4 24"/>
<path d="M5815 99920l 24-13 18-18 18-22 15-21 12-21 4-25-6 25 3 27 10 23 12 24 10 23-2 25-23 13-25 1-25-6 25-10 28-2 27-3"/>
<path d="M6527 99682l 17-18 21 13 7 26 1 29-3 26-7 28-7 29-10 31-11 31-15 31-12 30-13 26-10 23-9 22 13-23 11-22 13-20 14-21 15-19 18-21 19-21 19-15 25-3 10 26-2 28-5 26-6 25-6 25-3 24 0 26"/>
<path d="M6766 99912l-22-9-23 8-22 17-17 18-12 21-9 22 8 23 24-2 25-13 18-15 17-18 12 20 5 25 23 7"/>
<path d="M6863 99923l-8 24-1 27-3 25-4 25-6 28-8 31-6 27-6 26-6 27-8 24-8 27-5 27 4-26 4-27 6-32 3-25 3-27 2-28 3-26 3-26 5-25 5-28 10-27 14-24 15-19 25 4 23 11 20 17 14 21-1 27-14 20-17 18-20 15-22 16-24 12"/>
<path d="M7045 99909l-1 27 0 25-4 26-7 29-8 30-6 24-7 26-11 25-8 24-10 26-8 24"/>
<path d="M7054 99939l 15-22 13-22 24 8 18 16 20 17 8 23-4 25-16 22-19 17-23 10-25 8"/>
<path d="M7218 99936l 25 4 24-11 19-16-4-25-26-3-23 14-15 22-9 25-1 27 9 23 26 9 26-3 24-10 24-13 25-15"/>
<path d="M7386 99905l-13 22-3 26 26-4 16-20 16-21 20 13 3 25"/>
<path d="M7623 99690l 25 2 24 6 16 19-4 25-12 24-14 25-12 21-11 23-13 25-8 25-4 26"/>
<path d="M7644 99996l"/>
<path d="M8105 99872l 23-8 13 22 5 26 0 27-5 24-6 25-9 23 8-24 10-26 11-25 12-23 13-20 15-23 18-16 19 17 3 25-2 26-4 26-5 24-6 24 26 0 13-24 12-21 15-24 14-22 15-19 10 22 3 26 0 29 0 25 5 25"/>
<path d="M8487 99899l-22-11-22 18-13 21-13 22-8 25 9 23 26-5 22-16 16-18 16 19 17 17"/>
<path d="M8576 99918l-12 21-3 26 5 24 26-3 20-16 15-19 14-23 11-24-7 27 1 26 1 29 2 25 0 24 0 27-3 31-3 24-5 27-4 26-6 24-9 29-8 26-10 24-20 15-18-22-8-23-4-26-3-28 1-29 6-30 7-25 9-23 13-28"/>
<path d="M8694 99961l 23-12 20-13 19-17 19-20 16-22 14-24 10-27 6-24 6-25 2-26-3-26-22-10-18 24-15 27-10 24-9 25-6 26-6 25-3 25-1 31 5 26 11 25 15 20 23 9 25 0 24-10 20-16 11-23 0-25-7-25-12-24"/>
<path d="M8973 99892l 24-8 22-10 9-23-23-9-28 3-23 11-18 20-11 24 6 25 20 18 23 10 27 4 28-1 27-5"/>
<path d="M9575 99872l 8 24 19 17 24 4 24-5 9-24-8-24-20-17-24 0 21-13 22-12 22-14 24-6 18 17 7 25-1 24-8 23 16-21 14-20 17-19 21-12 20 15 8 24-2 25-7 25-4 25"/>
<path d="M10100 99875l 24-5 25-7 22-9 23-13 18-16-23-13-25 2-23 10-21 19-17 22-15 23-7 24 9 22 25 8 26-3 26-8 26-11 24-14 21-16 6 23 12 22 25 1 20-14 16-21 11-22 8-23-2-25"/>
<path d="M10363 99880l 25-5 24-9 21-15 8-23-19-17-26-2-21 15-13 21-9 23-6 25 6 25 16 20 24 6 28-3 23-9 24-16 20-20 14-22-10 22 25-2 17-21 15-21 24 7 3 26 0 25 4 25"/>
<path d="M11068 99782l-24 1-25 11-21 15-20 17-17 18-15 25-11 23 6 26 24 9 27-4 24-6 26-11"/>
<path d="M11134 99823l 9 23-2 26-3 26 26 0 18-22 17-23 16-23 13-21-12 27-9 25-10 28-11 24-14 26-13 28-12 29-14 31-13 30-14 32-10 30-6 30-8 24-8 27-7 24-1-28 4-25 2-27 7-30 10-31 10-30 13-31 15-31 15-29 13-25 16-21 19-22 18-18 22-17 26-16"/>
<path d="M11389 99815l-23-7-21 13-23 18-18 18-16 19-9 24 4 25 26 6 25-3 23-8 26-11"/>
<path d="M11377 99902l 24-5 23-14 20-17 21-21 19-19 18-22 17-26 13-29 9-25 7-26 6-25 6-29 3-25-21-14-17 20-15 23-12 21-13 25-10 27-11 28-9 28-9 26-5 23 1 28 5 27 13 24 21 17 24 3 23-8"/>
<path d="M11600 99833l 25-2 23-9 16-17 0-25-23-13-25 7-18 17-13 21-9 23 2 27 13 22 18 19 24 8 29 0 29-6"/>
<path d="M16379 98024l-7 24-12 21-10 24-9 24-10 24-11 25-11 26-11 28-10 22-11 23-8 23-10 23-11 25-11 25-11 26-11 26-9 25-11 25-11 26-11 23-12 28-8 26-10 26-11 26-13 27-10 22-12 28-11 27-11 25-10 27-8 23-7 25-7 25-6 23-3 25"/>
<path d="M16053 98933l 18 18 17 19 16 22 14 20 14 22 14 26 13 21 16 23 14 25 14 20 13 21 14 21 13 21 15 25 14 22 16 23 14 23 13 22 14 22 15 21 17 20 16 21 15 20 14 22 14 21 14 21 15 22 15 20 17 23 16 20 18 23 14 20 18 23 15 21 16 22 17 21 15 21"/>
<path d="M16085 98893l 15 20 17 18 15 20 15 20 17 20 15 21 14 22 16 18 14 22 18 19 17 20 17 21 16 21 15 21 15 21 17 18 14 21 14 21 16 20 15 18 15 22 16 20 14 19 14 20 16 19 14 20 13 20 13 20 14 22 13 20 16 20 13 20 14 19 16 21 14 21 15 20 13 20 15 19 12 21"/>
<path d="M16679 99736l 24 8 24 6 23 7 24 10 22 10 24 14 23 11 22 16 22 16 22 13 26 11 25 13 24 12 26 11 25 9 28 11 28 11 29 9 23 8 24 9 25 9 25 9 26 9 26 10 27 9 27 10 29 9 30 10 30 9 31 10 32 10 33 9 34 6 35 9 33 8 29 10 29 9 30 11 31 9 28 7 27 8 27 8 27 6 26 8 24 7 29 8 28 8 26 7 25 5 26 6"/>
<path d="M18192 99221l-3 24-4 24-5 25-1 25-5 24-2 26-3 24-7 25-4 25-5 26-2 25-2 26-4 26-1 25-2 26-4 25-4 25-3 24-3 26-6 24-3 25-4 25-4 24-4 26-6 26-4 25-3 25-7 24-6 24-4 26-3 24-6 26-3 24-3 24-3 25-5 24"/>
<path d="M18272 99220l-8 24-5 23-3 24-5 24-4 24-4 28-6 24-3 24-3 26-3 26-2 26-2 26-3 26-1 25-2 25-2 25-5 25-2 25-3 26-4 26 0 25-5 24-4 26-3 26 0 24-3 24-1 25-2 26-2 26-1 26-5 23-2 25-6 23-3 25-7 24-5 24-8 23-3 25"/>
<path d="M16115 98878l 24 4 26 1 24 4 24 5 24 8 24 5 26 1 27 2 26 2 25 4 24 8 26 5 24 5 24 4 24 3 24 3 26 3 26 4 26 4 25 6 25 3 25 3 26 4 27 3 26 2 28 2 24 4 26 7 28 6 26 4 26 5 26 5 24 4 26 8 23 7 24 10 22 10 23 10 25 7 26 8 27 5 25 4 26 3 26 5 27 4 27 2 25 2 26 3 26 2 24 3 25 3 27 0 24 2 26 3 26 2 26-1 27 0 26 2 27 2 26 4 25 6 26 3 28 2 24 4 26 3 26 5 25 1 25 2 26 4 25 3 24 2 25 3 25 4 23 8 23 8 24 4 25 4 24 4 23 8 25 3"/>
<path d="M17505 98568l-19 18-16 22-13 22-16 25-18 26-14 22-12 22-11 22-13 28-8 24-4 24-1 26 1 25"/>
<path d="M17314 98828l-4 24 3 25 1 27 10 23 22 12 24-10 19-20 16-20 13-20 14-21 12-23 12-22"/>
<path d="M17644 98414l 18 18 1 27 0 28-1 25-5 24 6-29 7-27 7-27 9-23 12-24 13-24 20-13 10 23 4 25-3 27-5 25-1 25 12 22"/>
<path d="M17856 98397l-13 21-3 24 7 24 22 12 23-8 19-15 17-20 2-25-15-20-21-11-25-3"/>
<path d="M18044 98168l-4 26-3 29-3 27-3 24-5 26-6 27-4 26-4 24 0 27 5 25 17 18 23-7 22-14 18-17 19-22"/>
<path d="M18018 98302l 19-16 25-12 22-10"/>
<path d="M18449 98276l-12-22-24 1-22 14-23 18-19 19-16 20 8 23 26 2 24-10 20-13 23 7 24 8"/>
<path d="M18614 98229l-24 5-21 13-22 17-15 21-15 20-4 25 23 9 22-14 22-18 18-17 17-20 15-23 15-23 11-24 8-26 4-26-2-27-3-30-2-26-5-24-21 17-8 23-8 24-7 26-6 28-5 28 1 26 6 24 8 26 15 24 22 13 25 3"/>
<path d="M18807 98205l-20-15-25 9-19 19-17 20-9 24-3 25 26 1 22-16 16-22 13-20 11-23 8-23 5-25 3-27 1-28-1-27-4-28-8-26-25 4-9 25-4 24-3 27-2 29 1 28 5 27 7 25 13 25 16 19 22 14 25 0"/>
<path d="M18924 98188l 25 0 22-13 4-24-25-5-24 7-18 19-12 23-6 26 6 25 16 21 27 9 24-3 25-9"/>
<path d="M19102 98192l-5-24-23-4-23 9-19 19-15 19-8 23 26 3 23-8 21-12 19-17 17-21 15-19 14-22 8-23 7-24 4-29-2-27-1-24-1-26-9-23-12 23-7 25-5 24-7 28-5 23-2 25 0 30 2 27 7 28 12 25 17 20 27 5 24-8"/>
<path d="M19536 97929l-10 27-8 28-9 25-10 25-11 28-11 28-9 29-6 27-5 24 4 26 11 21 26 8 26-7 22-13 19-16 16-20 7-24-8-26-19-22-21-17-23-7-26-3"/>
<path d="M19638 98071l-5 24-10 24 0 24 19 17 24-1 25-11 22-14 13-21-4-24-19-16-24-6"/>
<path d="M20012 98140l 25-12 24-16 20-16 23-18 23-19 22-20 20-18 18-20 15-20 12-21 11-28 8-30 3-30 1-27-3-24-24 5-14 20-16 23-14 29-11 24-10 25-10 28-10 30-10 31-10 33-10 32-9 33-7 31-6 29-3 27-3 24 0 33 3 27 5 31 7 27 20 18 26-8 17-22 9-23 7-24 2-28-1-31-5-24-6-24-9-29-9-26-11-21 18-19 28-7 25-8"/>
<path d="M20289 98042l-24-7-20 14-9 24 5 24 25 7 27-4 23-11 15-19-6-23-18-16-22-11"/>
<path d="M20394 97999l 23-8 24-5 3 25-21 15-19 15-9 23 24 8 25-8 25-10 24-11 25-11 21-12 21-13 17-17 15-21-5-23-25 8-20 17-17 22-11 24 1 26 17 18 25 8 26-8 25-10 20-14 20-16 18-18 18-22 15-21 7-23-13 21 14 22 20 17 20 15-13 21-24 5 21-12 22-12 23-13 22-12 20-15"/>
<path d="M20874 97772l-1 24-6 24-11 28-10 25-11 27-9 23-8 27-4 27 3 25 16 18 24-5 22-16 19-16"/>
<path d="M20797 97894l 24-8 23-8 23-8 26-3 26 0 26 0"/>
<path d="M21008 98005l"/>
<path d="M15971 100946l 18 16 26-2 21-15 17-18 20-24 16-22 19-25 19-30 14-22 14-20 14-20 18-30 15-30 11-29 8-28 5-26 4-31 0-26-25-6-15 23-17 31-12 24-12 28-12 28-11 29-10 29-10 31-9 32-8 32-7 33-6 33-5 32-4 32-2 32-1 31 0 31 0 28 2 27 6 34 7 27 11 25 17 19 22-10 10-22 10-30 6-23 2-31-2-30-7-29-9-27-9-25-11-23-14-20"/>
<path d="M16245 100868l-22 13-19 18-12 24-7 24 12 22 25 1 24-9 19-20-1-24-17-16"/>
<path d="M16328 100863l 24 1 24 3-7 25-17 19-17 20-10 23 22 13 25-5"/>
<path d="M15770 100774l"/>
<path d="M16785 100895l 25-8 22-13 20-15 17-19-2-24-25-6-24 11-22 16-18 23-11 22-10 27-3 27 5 25 21 12 26-2 27-10 27-11 27-13"/>
<path d="M17005 100861l-16-18-25 3-21 13-20 17-19 18-12 22 16 19 25-4 24-14 24 4 26 8"/>
<path d="M17182 100835l-24-4-24 9-20 19-16 18-14 21 2 25 23 14 23 9 27 0 27-7 24-11"/>
<path d="M17302 100647l-7 25-2 27-3 24-4 25-4 29-5 29-6 25-7 24-6 25-8 30-9 27 24-14 13-22 16-23 16-22 18-17 6 25-5 25-2 25"/>
<path d="M17714 100819l 5-25 13-22 7 25-6 27-8 29-4 25-2 26 16 20 20-20 18-24 18-25 16-25 12-26 8-25 4-24-1-25"/>
<path d="M17912 100763l-17 20-10 22-9 26-6 25-6 28"/>
<path d="M17929 100711l"/>
<path d="M18013 100760l-24 8-23 14-18 18 15 19 26 2 24 3 22 11-10 24-20 14-22 14-23 9-25 2"/>
<path d="M18122 100729l 1 24 1 26-2 26-4 26-10 25"/>
<path d="M18179 100616l"/>
<path d="M18301 100571l-10 23-4 24-11 26-4 28-7 26-11 28-9 24-8 26-9 29-6 25-6 27 0 25 15 19 28 1 26-9 20-13 20-16"/>
<path d="M18201 100725l 24-5 27-7 29-5 27-2 26-4 31-5"/>
<path d="M18381 100903l 22 13-10 22-17 25"/>
<path d="M18811 100557l-8 26-6 26-6 24-9 29-9 28-9 30-8 24-11 24-12 28-13 27-10 25-9 27 0 24 20 17 25-3 24-11 23-15 22-19"/>
<path d="M18694 100744l 25-7 23-5 28-6 29-6 30-5"/>
<path d="M18885 100747l 25-5 25-7 25-1 24 2-3 24-18 19-19 19-16 23-5 24 20 15 26-4 24-7"/>
<path d="M19180 100761l-21-13-24 1-25 8-22 11-16 19 19 17 24-3 25-10 22-11 6 25"/>
<path d="M19350 100724l-25-6-21 15-20 16-16 19-11 22 9 22 25 8 26-4 25-7"/>
<path d="M19470 100559l-12 22-7 24-6 26-4 25-6 27-7 26-7 26-4 25-3 24-5 25 8-25 12-23 8-26 14-21 11-23 15-20 24 7 20 13-9 23-23 13-23 14-4 23 24 10 25 7 27 1 28-2"/>
<path d="M20023 100724l-2-24-25-10-24 7-22 17-18 20-13 20-16 25-7 23 10 23 29 6 27-4 27-9 24-11 18-16 5-24-16-18-22-12"/>
<path d="M20091 100697l 24-4 23 8 1 26-16 20-17 19-15 20 1 24 27 2 23-9"/>
<path d="M20231 100733l-19 15-5 25"/>
<path d="M20261 100671l-22-10-3 25 23 15 22 11 58 12 26-5 11-22-22-12-24 9-16 18-7 25 11 22 26 4 24-7 0 28-1 27 2 25 0 26-1 29-4 24-7 29-9 28-12 26-14 27-16 22-19 15-24 0-12-26-2-24 3-28 6-29 10-30 13-29 13-20 19-23"/>
<path d="M20481 100707l-12 22-7 25 4 24"/>
<path d="M20494 100641l"/>
<path d="M20537 100734l-2 25 18-16 16-18 18-18 18-17 3 27-2 25 2 26 14 20"/>
<path d="M16203 101701l 13 23 25 4 24-12 22-16 19-20 15-23 7-23-1-26 2-25 25 2 22 14 21 14 1 24-16 22-20 20-19 18-13 22 23 12"/>
<path d="M16490 101656l-19 15-11 21 16 20 26 1 24-12 19-16-16-19-25-5"/>
<path d="M16636 101650l-24 7-16 19-4 24 16 20 24-6 20-16 15-20-12-22-22-10"/>
<path d="M16822 101448l-13 25-9 27-11 25-9 24-9 29-10 22-12 29-8 29-7 28-3 26 12 22 23 4 28-9 22-12 24-17 18-15"/>
<path d="M16716 101603l 27-3 28-2"/>
<path d="M17132 101613l 24-8 28-4 23-6 25-9"/>
<path d="M17185 101516l-5 24-3 24-2 25-2 28-3 27"/>
<path d="M17604 101615l-25-8-27 4-23 12-24 20-19 19-17 21-13 21-11 27 0 26 18 16 25-5 28-15 21-18 26-22 28-25 21-26 19-26 14-27 12-29 8-25 3-24-3-31-3-24-3-26-2-25-3-29-4-25-17 19-7 24-7 30-8 28-7 31-9 33-6 33-6 34-4 33-3 30 1 25 7 27 15 22"/>
<path d="M17711 101658l 25-4 25-11 23-12 15-18-19-14-27 1-24 7-22 12-13 20-10 24-6 25 5 26 14 22 26 7 28-4 28-9 22-11"/>
<path d="M17869 101629l-16 18-5 27-3 27-5 25-3 29-3 28-5 28-8 25"/>
<path d="M17869 101618l 10-24 15-20 25 8 20 14 12 21-3 24-17 21-22 17-21 17-23 9"/>
<path d="M18103 101403l-2 25 0 28-4 26-6 26-8 28-7 24-8 24-6 27-4 27 4 26 17 19 27 2 21-14 20-18 12-23"/>
<path d="M18063 101532l-25-1-25 5 25 6 26-7 26-10 23-12 23-16 23-17 17-17 16-24 12-25 4-26-7 27-6 27-6 25-7 24-6 26-6 27-6 27-4 26-2 25-2 25 2 25 15-20 16-23 18-21 18-20 23-6 3 26 2 25 4 25 6 25"/>
<path d="M18338 101653l"/>
<path d="M15924 102331l"/>
<path d="M16105 102354l 8 24 2 28-1 30-4 29-4 25-8 28-6 27-6 28-6 25-5 28-3 25"/>
<path d="M16133 102357l 9-23 25-5 25-9 26-7 25 7 14 24 0 24-8 27-15 21-19 20-23 17-23 15-24 8"/>
<path d="M16323 102306l 26 1 26 4 24 5-2 27-21 18-20 20-20 20-17 21-3 25 28 1 27-7"/>
<path d="M16506 102355l 26 2 22-12 20-14 4-24-24-8-26 5-23 15-18 18-16 24-10 26-5 23 5 26 22 17 25 3 24-5 27-11 28-15 26-17"/>
<path d="M16736 102135l-12 24-6 25-6 25-6 26-6 28-6 31-4 25-6 26-6 27-4 25-5 23-4 25 8 23 24 1 21-12 22-23 21-21 22-23 20-23"/>
<path d="M16912 102097l-17 18-11 22-11 28-8 28-4 23-5 25-5 26-6 27-3 26-3 27-2 26 0 24 2 27 3 24 14 20 26 0 23-17 17-17 18-24"/>
<path d="M16671 102332l 16-22 22-11 25-8 28-8 25-6 28-4 31-7 32-6"/>
<path d="M17025 102298l 22-10 0 27-11 27-11 25-9 26-7 26 24-2 18-17 18-22 17-24 14-21 13-26 11-25-9 26-8 27-7 24-10 27-5 29-4 31-3 36-1 24-3 27-2 27-3 28-4 28-5 26-4 26-5 24-7 34-7 29-11 29-15 22-24-8-6-25 2-27 3-34 4-25 5-27 3-28 7-28 7-27 6-23 12-31 12-25 12-22 16-27 18-23 24-21 22-16 25-15 26-13 23-10"/>
<path d="M17536 102389l 16-22 18-17 17-20 18-22 19-22 19-21 15-22 9-24-18 20-5 26 1 26 2 25 0 26-4 26-17 18-15-20 23-12 24-6 26-7 25-8"/>
<path d="M17863 102063l-8 23-5 24-3 29-6 28-8 25-8 27-7 28-10 28-12 26-9 24-10 28-5 26 13 20 26-11 26-17 21-17 20-17"/>
<path d="M17786 102239l 23-9 29-8 28-5 27-3"/>
<path d="M18012 102240l-25 3-23 13-20 19-18 17-16 20 20 15 23-9 23-13 21-13 22-15-12 23 10 22 14 20 24-2"/>
<path d="M18100 102264l-16 19-11 22 25-5 17-16 17-19 19-15 9 23-2 27 4 24"/>
<path d="M18333 102229l-23-10-25 3-22 16-20 16-16 24-9 24 11 22 25-3 22-13 18-17 18-18 17-22 13-23 13-23 13-24 6-24 4-25 1-28 0-28-1-26-5-26-24 9-12 24-10 25-10 30-6 25-5 25-3 25-1 25 3 28 10 23 19 21 21 15"/>
<path d="M18514 102212l-27 1-27 10-22 16-19 20-15 18-6 24 19 16 26-4 23-9 21-13 11-21 18 17 24 6"/>
<path d="M18594 102217l 24-9 14 20-13 24-15 18-12 22 15 20"/>
<path d="M18776 102221l-21-12-24 3-24 12-18 18-16 18-12 22 17 20 25-3 26-12 22-17 21-19 19-24 10-22 7-25 3-24 2-27 0-30 0-25-1-24 0-31-1-24-8-23-17 19-14 26-9 29-5 24-6 26-4 27-3 29-1 30 1 28 4 26 5 24 9 26 15 23 20 19"/>
<path d="M18901 102313l-7 23-12 26-14 24"/>
<path d="M19208 102212l 27-4 25-11 19-16 7-24-25-10-28 3-23 11-23 18-18 22-13 23-3 26 18 21 22 14 24 8 29 1"/>
<path d="M19358 102148l 25 6 22 15 15 20 8 23 10 23 18 18 27 2"/>
<path d="M19497 102134l-23 10-21 11-22 15-22 19-23 21-17 18-22 22-15 19"/>
<path d="M19655 102139l-25-4-23 13-20 16-19 19-11 23 13 21 26 8 27 0 26-2"/>
<path d="M19745 102153l 28-4 22-10 8-24-22-11-26-2-23 11-20 18-17 22-9 25 5 27 16 17 25 10 29 0 24-5 24-9"/>
<path d="M19883 102131l-14 22-2 28-1 28-4 27-9 30-7 24-8 23-8 25-10 22"/>
<path d="M19880 102124l 9-24 26 2 24 10 21 15 3 24-16 23-22 18-21 19-23 13"/>
<path d="M20103 101916l-5 25-2 28-3 25-1 24-1 27-4 27-7 28-5 26-1 24 8 25 19 16 24-4"/>
<path d="M20025 102033l 28-2 30-5 30-5"/>
<path d="M20573 102092l-25-4-22 14-18 17-19 21-14 24-2 24 22 16 26-1"/>
<path d="M20719 102112l-25 3-27 9-21 13-8 23 6 24 22 15 25 5 24-7 22-14 19-18 6-25-13-21-17-20 22-12 26 3 20 15 8 25-4 26 23-12 19-20 21-19 20-15 4 24-2 25-3 26"/>
<path d="M21073 101906l-12 21-9 26-4 25-3 27-7 23-7 27-9 27-10 26-10 23-7 26 3 25 25 8 24-6 22-11 26-16"/>
<path d="M20970 102057l 27-7 26-3 25-2 26 0"/>
<path d="M21121 102065l 27 1 25 3 2 24-20 19-22 16-19 16-12 23 17 18 28 3"/>
<path d="M21380 102086l-27-7-26-1-24 7-21 16-17 18-9 24 19 16 26 1 24-7 22-12 21 12"/>
<path d="M21567 102068l-26 1-22 13-19 16-18 20-13 22 9 24 28 8 24 0 29-4"/>
<path d="M21746 101897l-18 16-6 26-5 28-7 28-8 23-7 24-5 30-8 27-8 25 0 26 10 22 24-2 26-12"/>
<path d="M21625 102005l 25 0 27-1 27-2 26-2"/>
<path d="M21824 102017l-13 23-11 25-6 25-7 26"/>
<path d="M21863 101923l"/>
<path d="M21906 102083l-12 22-4 23 17 18 23 5 24-10 16-20 0-26-11-25-18-16 3-24 25-2 25 5 17 19 11 22 4 25 21 12 21-16 19-17 17-17 16-18 17 20 23 13 24-3 22-15 18-16 9-23 10 23 7 24 7 27 10 22-14 20-25-7"/>
<path d="M22396 102147l"/>
<path d="M18343 101648l-2 25-8 25"/>
<path d="M18601 101513l 24-5 24-6 27-5 24-9 25-13"/>
<path d="M18681 101404l-1 25 3 25 2 24 2 26 1 25"/>
<path d="M19049 101336l-1-24 5-26 12-25 17-21"/>
<path d="M19121 101312l 2-26 14-20 21-18 21-17"/>
<path d="M19236 101500l 10 25-1 27-5 28-4 24-6 26-7 27-6 27-7 26-8 29-8 26"/>
<path d="M19258 101462l 25-1 24-3 26 0 23 11 0 26-9 26-14 25-13 23-14 23-16 20-17 20-19 17"/>
<path d="M19494 101499l-23-10-25 6-17 17-19 20-10 25 13 20 23-10 19-16 15-20 11 23 16 20"/>
<path d="M19598 101474l 24 4 25 2-13 21-17 20-12 21-4 25 22 11 26-2 25-6 24-8 22-10"/>
<path d="M19753 101502l 25 1 22-13 15-18-21-14-24 5-16 20-13 23-9 23 5 24 23 9 27-8 22-13 24-14 19-15 24 6 18-18 20-16 24 2 16 20"/>
<path d="M20077 101307l 5 26 0 26-4 26-6 27-8 28-7 28-4 26-2 26 5 25 25 1 23-15 21-20"/>
<path d="M19990 101438l 24-10 22-12 22-11"/>
<path d="M20187 101277l-8 24-7 24"/>
<path d="M20248 101275l-7 25-6 23"/>
<path d="M21285 101016l 24-7 24-1 27-4 26-1 26-2 24 0"/>
<path d="M21309 101083l 25-1 28-1 25-2 26-7"/>
<path d="M21426 100947l 26 0 24 5 25 8 23 12 17 19 4 23-15 23-18 22-19 18-20 17-19 16-18 18"/>
<path d="M21981 100653l"/>
<path d="M22260 100636l-24 1-23 15-17 19-16 18-19 23-15 22-9 22 17 20 27 0 29-6 25-7 24-7"/>
<path d="M22405 100665l-24 5-18 16-10 23 19 15 27 5 25 2 25-5 4-25-13-20 16-20 24-6 24 8 5 26-8 26-11 22 24-14 19-22 18-20 16-17 18-18 16 19-1 26 0 24 2 26"/>
<path d="M22731 100501l 17 21 0 26-7 23-9 23-11 26-12 27-13 24-11 21-10 25-1 25 18 17 24-7 22-10 24-14 26-16"/>
<path d="M22691 100612l 27 1 28 0 27-3 28-1 25-1"/>
<path d="M22863 100612l 24 4 24 1 20 13-19 20-20 15-21 16-15 19-12 22 18 17 28 0"/>
<path d="M23114 100641l-21-16-25-3-22 11-20 16-19 18 3 25 24 5 27-3 26-6 24-9 14-20-9 22 20 14"/>
<path d="M23314 100602l-23 7-22 18-20 17-21 20-14 20 9 25 26 9 27 1 24-4"/>
<path d="M23478 100467l-16 18-9 26-7 24-10 29-8 25-12 29-11 24-13 29-8 25-5 24 0 28 17 18 25-5 24-14 20-13 20-19"/>
<path d="M23328 100604l 25-9 27-5 30-5 26-3 30-2 26-1"/>
<path d="M23581 100597l-25 10-20 13-21 16 21 16 24 0 26 7 21 14 2 26-23 16-20 13-25 7-26 0"/>
<path d="M23981 100639l 15-19 22 14-2 28-8 24-12 27-12 24-11 24 7-27 12-23 12-23 16-23 19-18 23-12 26-9 26-4 7 24-12 27-14 21-15 22-14 20-15 20 28 5 26-13"/>
<path d="M24212 100642l 22 11 25-6 23-10 22-13 6-24-23-10-23 7-22 17-22 20-18 20-14 24 3 26 16 19 26 8 29 1 28-3 24-5 23-7"/>
<path d="M24385 100630l 24 5 24-9-6-23-26 0-23 9-17 18-14 20-9 25 5 24 23 13 27 5 27-2"/>
<path d="M24622 100615l-25-7-26 4-22 15-21 18-18 20-17 22-10 23 23 9 25-8 24-14 20-14 20-14 19-16 21-22 17-18 14-24 8-25 7-25 3-27 1-30 0-28-4-26-9-26-25-3-13 23-8 29-7 29-7 25-9 28-8 29-5 28-3 29-1 29 1 25 10 27 19 21 25 15 23 8 24 4"/>
<path d="M25169 100556l 16-18-27 2-26 10-22 10-23 10-22 11 19 17 29 4 28 7 21 11 20 16-6 25-24 15-26 11-25 8-27 1-15-21"/>
<path d="M25284 100541l-4 24-5 26-6 25-6 26-10 26-10 29-8 23-9 22-10 23-9 23-8 28-10 23-12 21 5-26 9-24 8-27 7-31 7-23 6-26 6-27 6-30 9-28 11-24 14-25 16-21 19-17 22-12 24 3 22 14 16 18-2 28-14 21-18 20-23 19-26 15-23 11-23 8"/>
<path d="M25413 100563l 25 1 28-3 25-7 21-13-10-23-25-8-26 6-24 15-19 16-17 18-9 23 16 22 22 14 23 8 26 3 26-1 25-2 24-5"/>
<path d="M25652 100490l-25 5-23 14-20 14-19 17-17 20 0 26 26 9 29-2 29-7 23-11"/>
<path d="M25783 100487l-17 18-8 25-7 24 2 24"/>
<path d="M25839 100380l"/>
<path d="M25949 100504l-17-19-22-12-26 6-23 15-19 20-15 22 5 25 26 8 25-6 23-12 18-19 15-19-9 23 9 24 24 8 28-4 26-10 24-14 21-18 15-19 16-22 10-27 6-29 5-25 6-27 5-29 5-29 4-29 4-27 4-28 0-24-25 4-10 25-8 24-10 30-9 25-8 27-5 29-8 31-8 29-7 27-3 25 0 30 5 29 10 23 15 21 25 10"/>
<path d="M26546 100254l 21-15 13 22-2 25-6 25-10 27-12 26-14 28-12 21-11 21-15 27-13 24-9 24 6 25 25 7 26-5 25-9 23-9 24-14"/>
<path d="M26497 100386l-24 1-23 7 27 3 26-5 27-5"/>
<path d="M26711 100386l 26 5 23 8-14 19-25 14-22 12-21 17-19 16-5 24 25 10 28-2 27-4"/>
<path d="M26931 100423l-19-15-25-1-23 11-23 15-17 18 14 20 25-1 25-6 22-10 7-23-14 20 1 25 27 9"/>
<path d="M27096 100374l-25 1-24 9-22 14-18 16-17 18-12 21 12 21 26 7 29-3 24-3 23-5"/>
<path d="M27201 100201l-5 24-5 23-2 27-1 24-2 25-2 25-4 26-4 24-12 28-12 22-15 20 6-24 16-23 17-20 18-20 20-17 22-13 25-2-14 21-24 10-23 11-7 24 19 16 28 2 29-2 25-4"/>
<path d="M27355 100373l-19 15 0 24 3 25"/>
<path d="M27389 100281l"/>
<path d="M27421 100384l 0 24 25-9 20-17 24-11 9 24 10 22 22 13"/>
<path d="M27632 100368l-18-18-26 3-24 11-22 16-14 20-1 26 24 9 25 0 21-11-3 26-2 26-2 24-5 24-1 26-5 25-10 28-11 23-11 23-14 20-20 19-20 18-19 15-24 8-20-16 0-27 6-24 10-29 10-26 15-26 16-24 19-20 21-23 20-19 19-16"/>
<path d="M27715 100461l"/>
<path d="M15683 103145l 1 25-1 27-2 25-5 27-5 29-7 30-6 24-7 24-8 30-8 27"/>
<path d="M15684 103121l 14-21 19-17 22-12 25-5 27 0 24 10 17 19 0 26-9 24-15 23-18 22-20 22-19 21-20 18-22 17-22 13 25-6 27 2 24 9 20 15 17 20 12 22 10 26 1 29-1 24"/>
<path d="M15937 103262l-11 22-7 26-6 25 0 26 24 4 22-18 20-22 15-22 14-22 7-23-16 20-3 26 9 25 19 16 23-13"/>
<path d="M16091 103253l-12 22-7 23-5 25 20-19 16-20 16-21 16-18 12 22-1 25-2 25 17 17"/>
<path d="M16284 103096l-13 22-5 26-4 25-8 24-11 27-9 23-10 23-8 27-2 27 12 21 26-3 22-14 22-19 20-21"/>
<path d="M16201 103213l 22-14 23-7 28-7 23-5"/>
<path d="M16370 103204l-7 25-8 24-3 26"/>
<path d="M16411 103118l-10 24"/>
<path d="M16407 103267l 25-6 16-19 14-20 15-19 14 21-10 25-9 25 24-5 18-20 17-17 16 20 0 25 6 24"/>
<path d="M16627 103246l 25-8 23-10 16-19-20-14-26 4-20 15-13 23-4 25 7 23 16 20 23 13 26 4"/>
<path d="M16847 103123l"/>
<path d="M16858 103179l"/>
<path d="M15900 103862l"/>
<path d="M16184 103725l-24-7-18 18-17 21-15 24-11 22-10 23-8 25-7 26-3 26 2 24 6 29 12 25 17 18 22 10 26 6 27 0 28-2 25-7 24-15 25-19 21-23 18-26 11-28 3-27-3-25-9-25-12-25-15-26-19-21-18-19-21-16-25-13-27-7-24 7"/>
<path d="M16515 103678l-22 12-15 23-16 26-14 21-14 25-14 27-12 29-11 30-7 29-5 27-2 24 4 28 9 23 14 22 20 18 23 9"/>
<path d="M16543 103848l 8 24-1 27-5 25-8 23-10 23 10-23 11-27 11-27 11-26 15-21 18-19 24-6 6 27-5 25-6 28-5 25-1 26"/>
<path d="M16696 103670l 21 16 18 20 14 22 14 22 12 22 11 24 5 29-2 26-3 30-6 24-8 26-9 25-12 25-12 24-13 22-15 27-13 21"/>
<path d="M17276 103895l-5-24-12-21-25-8-22 11-19 17-18 21-14 21-13 23 19 18 25-6 23-9 23-8 12 23 25 6"/>
<path d="M17354 103865l-11 24-4 24 24 7 21-17 18-16 17-18-7 24 12 21"/>
<path d="M17587 103839l-23-10-25 11-17 18-16 18-16 18-11 24 21 13 25-8 24-12 20-17 17-18-12 22-6 24-5 27-4 26-6 29-6 27-7 27-6 28-9 28-8 24-14 22-18 17-24 4-24-12-11-22-6-26 0-29 5-32 6-26 9-25 9-24 11-22"/>
<path d="M17619 103852l 14 21-2 25-5 24-9 23 9-27 11-26 12-22 14-21 9 23-6 26-6 24 20-14 17-18 14-22 16-20 14 21 2 25"/>
<path d="M17795 103885l 25-4 23-10 16-19-11-22-25-6-21 16-15 21-8 25 8 24 20 15 26 0 25-8"/>
<path d="M17927 103857l-17 18-1 24 26-2 17-17 15-19 15 20 0 26"/>
<path d="M18130 103701l-12 25-6 25-4 24-5 27-3 28-5 24-6 26 3 24 11 23 26-1 22-15"/>
<path d="M18062 103803l 24 5 24-2"/>
<path d="M18227 103806l-22 12-18 18 14 20 25 6 24 9-1 24-20 18-23 11-26 5-26-4"/>
<path d="M15932 104565l"/>
<path d="M16193 104487l-10-23-24 7-19 22-17 22-15 28-10 28-9 27-5 30-2 27 3 26 7 27 15 21 21 13 27 7 27-1 27-4 26-10 23-17 19-15 18-19 16-19 13-20 14-27 8-25 2-27-2-28-11-29-13-23-16-22-18-20-24-20-25-12-25-5-28 4-23 11"/>
<path d="M16527 104316l-23 9-17 19-11 22-12 28-10 23-10 26-7 26-8 29-7 29-5 29-3 28 0 27 3 24 8 29 12 25 15 23 20 18 23 10"/>
<path d="M16842 104336l 16 18 13 21 12 22 12 27 11 22 10 26 8 28 3 28-3 26-10 29-14 27-15 28-16 26-19 24-18 20-23 19"/>
<path d="M17231 104685l 16 20 26-5 22-13 21-15 25-20 26-23 19-17 17-17 18-18 17-19 22-27 18-27 12-26 8-25 3-26 0-25-2-28-9-24-23 8-16 20-13 24-14 29-14 32-10 23-9 25-10 26-9 27-8 28-8 29-6 29-4 29-5 28-2 26-1 25 1 34 9 27 13 25 19 20 24 9 23-10 12-24 6-28 0-27-2-28-5-27-8-28-8-26-12-23-18-15"/>
<path d="M17564 104593l-24 7-21 12-16 20 0 24 23 4 26-5 23-8-2-25"/>
<path d="M17666 104580l 25 2 25-3-14 24-20 13-20 18 17 18 24-14 23-15 21-15 23-12 22-13 25-1 24-7 22-17 15-20-12-22-24 7-15 18-7 24 11 23 25 6 27-4 25-8 23-11 22-15"/>
<path d="M17970 104495l-10 23 12 23 16 19 18 19-18 17-25 3-25 0 22-14 28-9 27-9"/>
<path d="M18152 104344l-4 27-6 26-8 28-7 24-7 25-7 25-8 23-5 27-3 26 8 24 25-2 24-14 20-17"/>
<path d="M18051 104448l 25-7 26-8 29-6 24-4"/>
<path d="M18692 104309l-3 24-2 28-4 30-5 26-6 27-7 27-8 29-9 27-10 27-10 23-11 22"/>
<path d="M18698 104295l 25-10 24 0 27 3 26 6 25 8 20 15 6 25-16 18-21 15-25 15-22 12-23 11-26 10-24 7 20-14 28-6 25-2 26 5 24 9 21 12 17 17 7 27-8 25-18 22-20 18-23 18-24 15-26 12-25 8-30 5-26-3-22-15"/>
<path d="M18972 104329l 27-3 27-3 24-2 26-1 25-1"/>
<path d="M19001 104322l-24 12-13 20-5 25-1 25-4 25-5 25-5 27-6 28-5 27"/>
<path d="M18967 104411l 24-6 27-4 28-4 31-3 28-4"/>
<path d="M19276 104313l-25-3-23 11-19 15-14 21-1 26 23 14 26 8 25 5 23 5 27 9 22 10 20 15 3 25-17 23-20 18-23 16-27 13-28 10-28 4-28 0-26-3-23-8-21-14"/>
<path d="M23012 103005l 21 15 4 27 2 26-2 29-6 30-7 24-7 24-7 23-10 30-10 25-8 23"/>
<path d="M23027 102985l 22-10 25-8 25-4 25-3 24 0 28 4 26 9 18 18-5 26-18 23-21 19-24 19-21 13-22 12-27 13-23 11-24 9 25-15 25-11 25-7 24-5 24-1 27 3 27 6 22 14 13 23-3 27-11 22-18 24-17 19-18 16-20 14-29 16-29 11-28 6-29 1-22-10-12-21"/>
<path d="M23287 103003l 22-10 24-8 26-8 29-6 25-2"/>
<path d="M23324 103015l-15 22-6 26-3 28-1 26-4 28-5 29 1 29-4 25"/>
<path d="M23293 103114l 25-13 25-6 26-6 26-6 26-5"/>
<path d="M23531 103000l-25-5-23 11-19 18-11 23 6 24 23 13 28 4 28 2 25 4 26 5 24 8 17 20-4 24-16 20-23 19-23 14-23 12-24 8-25 4-28 0-27-7-21-16"/>
<path d="M23862 103117l-5 25 2 27 6 24 4 25 25 8 18-21 20-22 20-23 14-24 11-26 0-26"/>
<path d="M24079 103073l-24-4-24 13-22 15-16 18 25 11 25 6 23 9 23 13-3 25-21 13-25 11-26 8"/>
<path d="M24138 103172l"/>
<path d="M24460 102914l-2 28-5 25-7 29-10 30-11 31-9 24-10 23-11 23-14 27-12 24"/>
<path d="M24444 102911l 23-15 24-1 27 4 28 8 26 12 22 12 20 14 21 19 14 22 4 25-5 28-13 23-16 19-20 18-22 17-26 16-26 14-26 12-23 8-27 9-26 5-24-2"/>
<path d="M24746 102894l 26-8 26-4 25-1 25-1 25-2 25-1"/>
<path d="M24767 102898l-14 20-8 27-6 28-2 24-2 28-1 28-3 26-3 25"/>
<path d="M24742 103004l 19-15 26-8 27-5 24-3 26-2"/>
<path d="M25032 102909l-26-6-28 7-25 9-24 15-4 23 20 16 24 8 26 9 25 8 27 10 23 12 22 16 7 24-14 23-23 16-25 15-23 11-24 8-29 7-28 5-25 0-23-10"/>
<path d="M25376 103008l 24 11 27-8 23-12 19-15 20 14 14 20 24 10 26-1"/>
<path d="M25372 103097l 24 6 26 4 25-3 23-6 26 0 19 16 19 19"/>
<path d="M25786 102887l 24-7 25-7 27-8 25-9 26-8 26-9"/>
<path d="M25776 102935l-10 22 5 25 4 26 0 29-3 26-7 25-7 26"/>
<path d="M25771 103014l 23-9 28-8 29-5 28-6"/>
<path d="M26070 102846l 24-4 29-1 28 0 27-1"/>
<path d="M26047 102883l-12 22-10 22-11 25-9 28-5 24-5 27-4 26-6 24-5 25"/>
<path d="M26002 102989l 25-5 27-2 28-2 27-3 29-4 24-5"/>
<path d="M26434 102962l-1 24 10 22 15 20 23 10 23-15 15-19 9-24 5-24 1-24-1-25"/>
<path d="M26670 102889l-25-1-19 16 11 23 27 3 27 3 24 6-3 26-21 16-23 13-22 11-24 7"/>
<path d="M26754 102980l"/>
<path d="M27150 102753l 24-12 28-5 27-7 31-6 24-5 26-5 26-4"/>
<path d="M27175 102744l-10 22-8 25-7 25-8 28-8 28-7 28-11 27-12 23-8 25"/>
<path d="M27143 102857l 19-17 27-8 25-6 26-1"/>
<path d="M27097 102967l 24 3 29-6 23-5 27-7 28-7 27-9"/>
<path d="M27421 102714l-12 23-4 29-3 26-5 27-4 29-4 30-6 28-3 24-1 25"/>
<path d="M27569 102732l-13 20-19 20-19 16-24 18-19 14-20 16-22 18-22 17-17 19 7 25 24 8 28 5 28 3 26 2 28 0 26 0 26-1"/>
<path d="M27724 102708l 19-15 26 2 26 6 23 12 5 25-12 25-22 21-17 18-20 20-15 21-9 25"/>
<path d="M27756 102992l"/>
<path d="M22500 103881l"/>
<path d="M16567 104411l-1 24-3 24-2 25-3 28-3 26-3 28-4 29-4 26-2 25-1 24"/>
<path d="M16764 104418l 5 24 7 25 4 24-1 28-1 26-6 27-4 26-5 25-3 24"/>
<path d="M16633 104475l 21-14 21-13 22-11"/>
<path d="M16627 104476l 0 25 3 25 1 25 1 24 2 25"/>
<path d="M16647 104522l 24-5 24 1"/>
<path d="M16641 104604l 24-4 26 0"/>
<path d="M15968 105376l"/>
<path d="M16345 105153l-1-24-26 5-20 16-18 19-19 25-20 28-14 21-14 23-15 24-14 25-13 25-11 25-8 24-9 34-2 29 3 30 10 23 16 20 25 12 30 1 29-6 24-8 24-10 23-13 22-12"/>
<path d="M16468 105424l-24 8-16 20-8 24 7 23 23 8 25-8 15-20-21-13-4-25 18-16 21-14 24-6 21 16 0 27-6 24-8 26 23-8 17-23 16-24 16-21 14-19 18 16-2 26-2 25 3 25"/>
<path d="M16791 105196l-2 24 1 28 2 26-2 24-4 25-8 28-8 28-10 28-8 26-8 28-2 25 21 15 23-10 25-16 23-19"/>
<path d="M16727 105396l 20-15 27-8 28-7"/>
<path d="M16888 105376l 24 1 8 24-16 17-18 21-16 22-12 23 3 25 26 3"/>
<path d="M17077 105421l-23-10-25-1-23 15-19 18-15 20-12 22 6 24 25 2 24-9 22-11 20-14 7 24"/>
<path d="M17244 105422l-24-2-18 16-20 20-15 21-9 22 15 20 28-5 26-12"/>
<path d="M17432 105180l-11 25-5 25-7 29-8 26-8 29-10 30-8 24-6 23-8 30-8 27-1 26 9 23 24 6 24-14 20-19"/>
<path d="M17363 105342l 26-7 24-8 26-6 27-4 27-5"/>
<path d="M17527 105334l-12 22-11 23-7 23"/>
<path d="M17561 105245l"/>
<path d="M17603 105386l-10 25 15 20 25 3 24-9 14-21-12-24-23-13 12-23 24-14 26-3 21 14 8 24-1 26-2 24 18-21 19-20 16-18 15-20 5 23 19 17 26-3 22-12 20-16 15-19 12-23 2-24 2 25 8 23 12 22 10 22-8 25-22 11-27 2 25-1 24 0"/>
<path d="M18358 105247l-2 26-8 23-10 27-15 25-13 20 6-26 12-21 14-21 17-19 20-21 20-17 20-13 24 5-4 27-9 23-8 26-6 26-3 26 16 19"/>
<path d="M18539 105264l 21-13 22-11 21-14 20-15-16-18-24 1-22 11-21 15-17 21-11 24-4 28 5 25 19 18 29 6 27-4 24-6"/>
<path d="M18717 105239l-20 13 27-5 24-11 24-12 20-15-13-22-27 2-25 14-20 19-20 21-13 21-4 26 14 20 25 5 26-1 29-5 28-8 28-7 27-7"/>
<path d="M18945 105238l-2-24-22-12-26 2-24 13-19 17-15 22-5 24 25 10 23-10 25-11 25-16 22-19 20-21 17-24 15-24 11-26 6-27 3-28 3-31 0-31-1-26-2-26-23 12-9 28-8 29-5 26-5 26-4 28-5 29-2 27-1 25 3 30 5 25 12 24"/>
<path d="M19449 104979l-7 24-9 25-11 29-9 30-8 23-8 24-7 29-8 27-6 27-2 25 1 25 25 3 19-17"/>
<path d="M19326 105122l-24 5 28-1 25-7 30-9 25-6 24-4 31-3 26 0 27 3 7 47-15 19-16 20-13 22 4 24 25-4 24-10 21-14 18-17 10-22-12-24-25-12-23-7"/>
<path d="M19971 105234l 26-5 21-13 19-14 21-18 23-21 25-24 24-23 20-24 18-22 14-21 10-26 1-24-3-27-11-25-24 8-16 22-12 25-9 22-8 24-7 26-5 25-3 25-3 32 2 30 5 24 11 23 16 21 23 11 26-8 15-20 4-24-12-24-15-22"/>
<path d="M20248 105169l 26-4 26-7 22-11-3-26-24-5-24 11-18 20-10 24 0 25 10 23 22 15 25 3 25 2 24-2 24-4"/>
<path d="M23062 103700l 0-25-27-2-22 9-26 13-24 13-23 15-21 13-20 15-9 22 23 8 28 5 25 5 29 7 28 4 27 4 24 7 25 12 15 21 1 24-6 24-15 25-15 20-19 19-22 20-24 20-27 19-26 18-24 15-25 12-30 9-25 3-28-3-21-13-7-24 11-26"/>
<path d="M23186 103933l 25-2 25-9 24-11 21-13-13-21-27 1-28 7-25 10-20 15-15 21-6 24 14 22 27 9 25 2 28-1"/>
<path d="M23349 103911l 25 7 27-8 23-10 16-18-23-10-27 3-25 11-19 15-13 21-7 26 7 25 23 14 26 5 26-3 26-6"/>
<path d="M23515 103892l-13 20-9 22-14 22 22-11 19-16 19-19 17-19 6 26 20 14 18-16 17-18 20 13 19 16"/>
<path d="M23750 103865l-25-4-22 12 15 20 25 7 23 9 11 22-16 21-22 16-22 14-27 7-24-1"/>
<path d="M24128 103843l 10 24-7 28-11 24-12 21-15 21 20-22 20-24 16-20 18-25 18-23 16-18 16-19 0 27-7 26-9 24-13 23-5 23 27-1"/>
<path d="M24315 103856l-18 17-4 24 13 20 25 1 23-8 19-17-8-24-21-14-22-12"/>
<path d="M24693 103844l 27 1 25-7 24-9 23-12 16-18-13-23-25-3-24 5-23 16-16 18-15 21-12 24 0 27 21 18 28 1 28-3"/>
<path d="M24916 103801l-25-5-25 4-21 11-19 16-1 26 22 12 25-2 23-9 3 24 20 16 26-5"/>
<path d="M25021 103804l 19-18 13-20-14 20 3 26 13 22 14 20 11 24-18 17-24 4-18-16 16-18 24-9"/>
<path d="M25194 103772l 0 26-10 22-13 20-14 24 24 5 21-19 24-19 18-21 18-20 17-23 14-22-4 24-7 24-6 27-7 31-8 28-6 29-8 29-8 30-8 32-10 31-10 30-11 30-11 26-14 22-16 24-17 18-22 12-14-23-3-26 3-24 6-28 9-31 11-35 9-23 16-31 20-28 19-23 19-20 17-18 21-22 23-20 26-16 25-12"/>
<path d="M25786 103698l-25-2-23 11-23 16-20 20-10 22-5 24 16 20 30 5 30-6 25-8"/>
<path d="M25899 103712l-25 6-21 13-16 19 8 24 24 5 25-3 24-8 17-18-10-23"/>
<path d="M26012 103680l 24-4 24-3 25 2-16 20-23 16-19 17-16 19 22 16 27-5 27-8"/>
<path d="M26160 103714l 24-7 24-10 19-16-6-23-24 8-21 17-17 20-12 21-5 24 18 21 25 2 23-7 23-11 26-14 24-15 23-18 21-22 20-23 13-21 12-23 9-25 9-28 7-28 9-29 6-26 8-26-2-25-23 12-15 19-14 20-13 25-16 27-13 28-11 30-9 30-6 29-1 27 3 29 10 25 20 16 27 2 24-10 22-16 21-21 19-25 13-22 10-25 9-28 9-29 8-32 7-32 6-32 4-27-1-26-25-1-12 22-11 25-10 32-6 25-6 26-5 26-4 28-2 26 0 25 3 28 6 24 11 24 19 18 22 12 25 4"/>
<path d="M26648 103678l 15-21-5-23-26-1-26 9-25 13-22 16-12 22 25 6 24-2 24-4 24-2 24 8 27-9 26-14 22-13 23-15 21-17 21-18 21-21 17-19 16-21 13-29 7-23 7-24 5-24 5-31 3-26-21 17-14 26-13 30-9 25-12 28-11 29-10 29-9 31-8 30-5 28-2 31 1 24 9 25 21 12 26-9 19-21 3-27"/>
<path d="M26801 103584l-22-14 29 2 26-2 26-2 26-2 25 0 27 2 24 8 1 26-9 24-8 25-7 26 5 23"/>
<path d="M27021 103508l-3 25 14 103 2 25 5 23 26 5 24-10 16-21-5-26-17-20 24 5 9 22 3 26 23-11 14-21 16-20 20-13 11 23 1 26 1 26"/>
<path d="M27479 103632l-14 20 21 15 28-3 26-11 19-14 5-24-15 19 11 22 24-2 24-9 15-20-3-26-14-20-8-23"/>
<path d="M27838 103358l-12 22-10 28-10 29-9 26-10 29-11 31-14 32-16 32-11 22-16 31-16 30-16 25-14 21-13 21-9 25"/>
<path d="M28069 103421l 5 27-7 25-12 25-13 26-11 24-12 24 12-23 13-22 16-24 15-27 14-25 13-24 12-21 14-21 0 28-8 24-8 26-8 28-8 26-6 28-3 26 20-14 16-22 16-24 16-25 18-24 15-22 15-20 17-21 20-14 7 26-2 24-5 25-7 25-7 26-10 28-10 25-8 24-6 26 4 25"/>
<path d="M28356 103412l 18-16 24-6 24-3 27-2 27 2"/>
<path d="M28371 103421l-16 21-11 22-8 25-5 23-2 25-3 26-8 25"/>
<path d="M28329 103517l 25-5 25-3 27-2 24 0"/>
<path d="M28552 103428l-12 21-5 25-5 27-10 23-10 23-14 24-15 19 9-24 12-22 14-25 12-22 11-22 14-23 17-21 21-11 2 25 0 25-3 26-4 26-2 25 18-18 17-21 15-19 16-18 19-21 17-19 19-18 21-11 3 27-4 24-6 27-9 27-8 25-5 23-3 25"/>
<path d="M28937 103417l-25-8-25 12-25 14-22 14-19 15-17 19-11 23-10 22 2 27 13 20 21 17 27 6 27-1 27-7"/>
<path d="M28957 103591l"/>
<path d="M20730 105185l 13-22-1-24-25-4-19 17-18 24-14 24-11 26-5 24 21 14 27-14 21-18 20-22 17-18 15-22 15-20 16-24 11-25 9-23 6-29 2-24-1-28-4-26-6-24-18 19-9 25-6 29-6 26-7 28-5 27-3 25-2 24-1 25 1 29 6 26 14 22"/>
<path d="M20883 105182l-14 21 2 26 20 15 22-10-1-26 1-24 14-21 17-16 24-6 19 16 3 24-1 25 23-12 13-22 19-18 17 19-1 24"/>
<path d="M21135 105168l 25-2 22-11-12-22-24-4-18 17-11 24-5 24 2 24 16 18 27 5 25-3"/>
<path d="M21487 105139l-15 19-11 26-5 24 5 24"/>
<path d="M21536 105068l"/>
<path d="M21556 105170l 22-11 19-16 19-17 24 7-1 25-1 27 8 24"/>
<path d="M22069 105100l 6 25-3 26-4 28-6 25 27-2 20-23 19-21 15-19 14-20-12 23-2 26 8 25 25 9"/>
<path d="M22236 105113l-15 21-4 28-3 25-5 28-8 29-7 30-5 24-5 25-4 23-6 28-2 25 16-24 23-171 2-25 4-28 11-23 18-20 20-14 25-10 26-2 26 5 14 21-11 26-18 21-17 18-23 18-21 12"/>
<path d="M22679 104916l 13-21 12 23-4 26-6 28-7 23-12 26-10 22-14 29-16 28-14 24-7 24 1 27 25 10 24-8 23-12 22-13 18-16 15-20"/>
<path d="M22614 105079l 16-19 26-9 25-6 28-3 25 0 21 13-2 25-9 26-9 25 4 25 23 12 27-4 24-10 19-18 9-22-18-19-20-13-24-8"/>
<path d="M23343 104955l-24-4-15 23-13 23-10 27-9 27-1 25 5 25 15 19 22 11 28 3 27-6 27-11 23-13 23-19 17-23 12-24 4-27-7-28-13-27-18-22-23-13-26-5-25 1-26 6"/>
<path d="M23737 104821l-24 10-21 20-17 18-16 22-16 25-16 27-17 28-17 30-15 28-14 30-11 27-8 26-5 25-4 25-3 32 0 27 6 28 12 23 20 18 25 9 25 1"/>
<path d="M23739 105044l 7 25-3 27-7 28-5 24-7 26-9 23 5-24 11-28 12-21 14-21 16-23 18-17 19-17 21-14 25-1 7 25-12 26-14 25-10 24-8 24 8 24"/>
<path d="M23987 104976l 24-5-3 26-20 13-19 16-10 22 20 13 26 0 26-5"/>
<path d="M24096 104833l 11 26 11 22 13 25 13 22 15 22 15 22 12 22 10 24 10 23 7 29 1 24-5 24-9 24-11 25-17 23-19 20-18 16-20 14-20 14"/>
<path d="M24627 104896l-5 24-10 26-13 29-13 25-14 26-13 28-14 26-11 24-11 23-6 24-1 27 22 12 24-12 21-15 22-18"/>
<path d="M24505 105071l-26-1 23-12 27-5 28-5 24-3"/>
<path d="M24676 105087l-13 22-6 25-2 25"/>
<path d="M24728 104957l-18 16 6 25"/>
<path d="M24753 105091l-7 23-14 21 15-20 15-19 19-21 20-14 16 18-9 24 26 1 24-17 19-17 19-15 8 23 10 23"/>
<path d="M25020 105064l 25-5 22-11 9-23-22-13-25 5-19 16-18 19-5 25 8 24 20 18 24 7 29 0 30-4"/>
<path d="M16336 105784l-22 12-16 25-12 25-11 23-11 28-12 31-7 23-7 23-6 24-5 24-6 32-3 32 0 31 3 27 5 24 9 27 11 22 16 22 16 21 17 21 22 14"/>
<path d="M16510 106155l 0-26-3-25-15-21-24 12-19 20-14 21-12 21-12 26-7 25 19 15 24-8 23-13 19-17 17-18-1 25 11 21 25 7"/>
<path d="M16622 106118l-8 27-2 29-1 28-4 26-4 31-3 24-5 25-5 24-4 30-2 24-1 25"/>
<path d="M16593 106226l 2-26 7-24 14-23 19-19 24-11 24 5 21 12 8 24-10 26-14 20-17 20-20 19-21 13"/>
<path d="M16754 106168l 2 24 0 25-4 24-5 29-5 25-5 25-7 26-8 24-6 24"/>
<path d="M16764 106154l 14-22 18-16 20-14 22-10 24 2 7 24-7 24-11 22-15 20-16 19-17 17"/>
<path d="M17011 106091l-24 1-24 10-18 19-18 21-9 23 26 3 25-8 23-14 20-15 20-16-11 23 4 25 19 15"/>
<path d="M17129 106067l 23-11 25 0 23 9-11 22-18 17-18 16-16 22-7 24 24 8 27-9"/>
<path d="M17278 106107l 24-10 23-11 20-14-22-12-23 15-20 19-12 21 0 26 17 21 23 10 25 8 24-2 25-9 22-15 15-19 16-21 16-20-6 24 24-1 19-17 24-1 7 24 7 24"/>
<path d="M17674 105925l 18 16-6 29-8 25-9 26-8 26-9 25-8 24-7 25-7 28 0 25 15 21 25-8 25-17 20-20"/>
<path d="M17568 106061l 24 4 29-7 29-7 25-9 24-9 27-11"/>
<path d="M17808 105903l 2 28 2 26-2 24-4 25-6 28-7 30-9 31-5 24-7 29-4 23 0 25"/>
<path d="M17883 106073l 7 24-5 24-8 26-7 25 0 25 28-5 18-19 20-24 15-19 16-21 14-21 13-25 10-22 7-26-13 25-8 27-5 24-6 26-8 27-7 27-6 29-6 32-6 33-6 35-4 23-7 35-8 33-7 29-7 24-9 23-18-23 1-26 3-29 6-33 6-32 7-29 8-24 10-22 15-25 18-21 22-17"/>
<path d="M18126 106164l-13 22-12 26"/>
<path d="M18779 105848l-27-2-24 16-16 18-17 24-12 23-11 25-9 26-6 26-2 25 4 28 11 23 18 16 26 8 32 0 31-6 29-11 27-14 24-13 23-17 19-21 13-23 6-26-3-25-8-25-13-24-20-24-20-23-22-16-27-9-26 2-25 9"/>
<path d="M18695 105972l 27-2 28-5 27-4 27-1 26-1 25 3"/>
<path d="M19130 105782l-18 16-12 23-12 26-10 23-9 25-10 29-10 29-9 31-9 29-5 28-3 26-3 27 1 31 5 27 8 27 9 22 14 20 21 14"/>
<path d="M19144 106121l 23-12 18-16 9-23 15-20 17-20 17-19 20-15 12 22-6 27-9 23-12 25-10 23-9 23 19-21 18-22 15-19 16-19 19-22 18-19 18-19 22-12 7 26-6 25-8 25-11 27-7 24 10 24 25 0"/>
<path d="M19452 106103l 25 2 22-15 25-17 21-16 18-18 17-18 19-25 13-24 11-24 10-25 5-25 4-25 1-26-21 13-20 22-15 22-13 21-14 24-15 27-13 26-9 25-7 25-2 27 7 25 18 20 26 11 24-1"/>
<path d="M19732 106080l-11-22-25-1-22 18-16 21-3 25 25-2 24-11 20-15 16-18-10 24-3 26 0 27 1 25 0 27-4 24-8 27-11 22-14 24-17 22-17 19-21 18-26 5-25-12-10-24-2-25 3-27 7-29 11-28"/>
<path d="M19881 106024l 5 24-3 24-11 25 22-17 17-20 18-19 20-19 21-13 7 23-5 25-4 26-1 25 22 10"/>
<path d="M20075 105802l 13 20 15 24 11 24 10 23 10 26 9 27 8 29 6 30 3 28 0 28-4 29-11 27-12 28-13 24-13 21-19 21"/>
<path d="M20269 105736l 21 19 16 18 18 21 18 24 13 29 10 24 8 23 7 26 5 26 3 29 0 28-3 28-5 28-8 28-12 26-13 27-11 25-14 22-19 24-20 21"/>
<path d="M20467 106190l"/>
<path d="M20914 105694l-22 13-14 20-13 22-15 26-12 22-12 25-11 28-11 30-9 30-6 28-5 27-3 25 1 28 4 26 10 24 14 23 19 19 21 15 24 8"/>
<path d="M20979 106001l 16 18-2 24-4 25-5 26-4 27-4 27-5 28-7 27-6 25-9 24"/>
<path d="M21000 105949l 16-21 24 0 25 9 23 10 17 18-3 25-14 24-17 20-19 19-22 12"/>
<path d="M21185 105928l-10 22-5 26 3 25 3 25-9 23-8-26 4-26 8-27 9-24 13-23 19-20 24-13 24-6"/>
<path d="M21318 105947l-17 21-16 19-7 24 19 14 26-3 25-12 18-19-3-25-15-20 20 14 23-9 22-10 22-16 19-17 21-21 16-18 16-19 18-25 14-22 9-23 6-25 3-27 2-25-24 6-15 21-14 21-14 25-14 28-13 31-12 33-10 34-6 31-3 29 1 26 5 26 11 25 20 15 23-9 14-23 8-25 0-25-6-26-10-23"/>
<path d="M21681 105932l-24-11-23-4-20 16-14 20-3 24 22 10 21-11 17-18 17 18 22-12 22-16 22-15 22-18 20-21 18-22 14-24 12-23 7-27 3-28-1-24 0-25-24-7-15 20-15 26-13 24-14 26-15 29-13 31-9 30-6 28-2 26 4 30 10 27 19 20 24 6 25-10 9-25-4-25-17-19-20-15 23-10 24-5 25 4 20 13 24 6"/>
<path d="M21975 105759l 5-25 0-24-21 13-10 23-9 25-7 26-7 24-9 26-7 24-6 25-8 31-7 30-3 25 1 27 17 18 23-10 18-19 18-22 17-22 14-22 14-21 0 25-9 23-6 24 26 3 15-19 16-20 13-23 13-22 13 22-4 28-3 25-3 30-6 31-5 26-4 26-6 27-8 26-10 29-10 28-12 29-12 27-13 24-15 27-15 19-14-20 0-27 2-26 6-27 7-30 8-29 8-31 13-30 14-28 17-26 16-25 16-25 16-20 22-21 23-18 25-14 22-10"/>
<path d="M22580 105780l-2 24-3 25-6 32-5 24-6 25-6 24-7 24-7 29-7 26-7 23"/>
<path d="M22564 105768l 18-17 24-11 25-6 24-3 28 2 27 6 25 11 11 23-14 26-20 20-19 16-22 15-23 15-22 12-27 12-25 9-23 5 20-13 26-13 25-6 25-3 30-1 29 2 26 7 18 19-5 28-18 23-23 20-26 20-19 14-27 17-25 16-24 10-27 7-26 0"/>
<path d="M22957 105760l-22-12-24 5-25 8-21 14-18 18 23 14 24 5 25 4 25 5 28 7 27 8 23 9 22 13 14 22-13 24-21 20-24 18-25 18-22 12-30 13-23 8-30 8-27 3-24 0-26-8-18-15-5-24"/>
<path d="M23594 105825l-26-4-23 11-24 14-24 14-24 15 29-3 27-9 24-5 25 4 24 11 11 22-10 22-20 15-21 11-23 11-23 9-26 6-26 1"/>
<path d="M23705 105867l-24 7-11 22-1 24 23 8 26-5 26-9 21-13 2-24-22-13-24-4-25 0 22-11 23-10 26-11 25-7 24 3 7 24-10 25-13 23 25-15 18-17 19-18 21-13 9 24-14 23 25-6 22-14 20-14 14 20 17 18 27-2 20-13 18-17 21-13 21-13 3-25-25-4-23 11-19 18-11 22-9 27 2 27 17 17 25 9 28-2 29-4"/>
<path d="M24209 105802l-18 17 2 25 27 0 24-7 24-12 16 18 24 9 25-6 21-14-6-24-16-19-12-21"/>
<path d="M24446 105591l-4 24-3 24-5 24-5 26-6 27-8 29-11 27-12 25-10 22-6 24 25-1 19-21 18-22 16-17 18-16 3 25-7 24 13 21 26 5"/>
<path d="M24550 105800l 22-10 23-11 20-14-13-20-25 1-24 13-18 16-10 24 1 26 16 19 20 15 27 2 28-7"/>
<path d="M24713 105769l 25-3-12 22-21 17-15 19-7 23 22 13 27-4 25-7"/>
<path d="M24812 105820l 25-1 24-6 22-9 17-18-14-20-24-2-26 8-20 13-14 21-8 24 6 23 21 17 25 7 24-1 26-4 24-8"/>
<path d="M24988 105605l-4 26 11 24 14 24 17 19 16 22 14 24 16 22 15 19 11 22 10 25 6 27-2 27-10 23-15 23-21 22-21 21-19 17-27 20"/>
<path d="M25210 105927l"/>
<path d="M15573 117514l-14 20-13 24-12 27-13 29-10 30-13 31-8 29-8 27-4 26 1 24 4 31 6 24 10 25 10 22 18 19"/>
<path d="M15709 117715l 24 6 1 24-5 25-8 26-10 24-6 25 26-9 20-19 16-20 15-21 14-22 15-26 13-21 15-20-1 24-1 27 0 27 16 20 23-11 19-19"/>
<path d="M15942 117662l-5 25 0 25-5 26 22-12 16-23 17-21 17-20 23 10-2 25-6 26-2 24 4 25"/>
<path d="M16205 117669l-25-2-17 18-18 19-15 21-12 22-5 23 16 20 28 3 24-5 26-8"/>
<path d="M16312 117692l-24 4-20 16-12 22-7 25 14 20 26-3 21-16 15-22 2-24-5-24 20-15 23 5 7 25-5 25-5 26 23-11 15-20 17-21 16-19 10 23-2 24 2 26"/>
<path d="M16564 117548l 6 26-4 26-4 27-8 28-7 25-8 23-10 23-10 26-7 24 25 0 25-14 21-18 18-17"/>
<path d="M16525 117637l 25-5 27-8 24-4"/>
<path d="M16671 117636l 24 3 0 25-18 17-19 20-14 21-1 24 19 15 24-1 25-2 25-3"/>
<path d="M16874 117726l 5-24-15-19-25 6-23 16-17 19-13 24 9 22 27-4 22-11 24-13 20-14-12 22 11 22 26 7 25-3"/>
<path d="M17037 117703l-25-1-21 14-18 16-15 21-12 22 9 23 24 5 29-5 25-7 27-10 23-12"/>
<path d="M17180 117522l-8 23-1 27-1 25-5 29-4 24-5 25-4 24-7 28-3 27-3 26 4 25 27 3 24-15 19-17 19-22 14-21 6-25-11-22-19-16-23-10-26 0-26 8-23 11 24 1 23-11 24-11 23-8 23-7 24-6 25 0 14 22-4 24-8 25-7 24-6 25"/>
<path d="M17365 117558l-18 18"/>
<path d="M17395 117685l-15 22-4 25 15 22 25 7 25-5 21-13 1-25-15-18-20-16 12-21 24-8 24 11 12 21 3 26 5 24 18-20 17-20 16-20 18-20 19-17 10 22-1 27-3 24 4 25 22 14 29 3"/>
<path d="M18098 117650l-17 22-13 22-11 23-6 26-3 26 14 20"/>
<path d="M18110 117585l-4 24"/>
<path d="M18155 117669l 7 25-8 23-10 24 19-21 17-19 19-19 21-14 2 26-10 24-5 24"/>
<path d="M18295 117703l 23 8 23-10 24-16 23-17 22-20 16-21 17-22 13-24 8-26 7-30 3-30 1-28-2-24-23 18-16 24-14 22-14 27-15 29-10 22-10 23-12 25-9 25-9 26-8 25-5 25-4 25-2 34 1 32 7 27 9 24 14 25 18 21 23 8 23-13 14-21 5-23 2-25 1-26-5-28-7-26-5-24-11-22"/>
<path d="M18545 117669l-25 1-23 9-14 20 0 25 24 9 25-2 26-6 22-9 11-22-22-10-25-5"/>
<path d="M18630 117633l 25 6 8 24-13 22-19 17 0 24 27 1 26-7"/>
<path d="M18733 117656l-4 25 6 25 24-14 16-18 16-19 2 25-7 24 26 4 19-15 18-16 18-17 5 24 8 23 24 11 25-1"/>
<path d="M18996 117638l-24-8-22 12-21 18-15 20-7 25 19 17 28-3 23-11 18-17 27 4 26-10 28-14 21-15 20-17 17-19 14-19 12-22 9-27 10-29 5-25 5-25 3-28 3-25-23 12-11 22-6 29-6 24-5 24-3 25-4 26-1 26 0 24 1 28 5 25 9 23 15 20 27 0 21-15 9-27"/>
<path d="M19099 117565l-25 0 23-8"/>
<path d="M19269 117549l 5 26-1 24-4 27-4 25"/>
<path d="M19328 117485l-3 26"/>
<path d="M19355 117651l 4 24 24 7 25-3 18-19-2-25-18-17-22-12 13-22 24-4 24 5 18 17 8 24 3 24 25-1 21-15 20-15 22 11 12 21 17 18"/>
<path d="M19665 117417l 13 21 14 20 11 21 14 24 13 25 15 26 15 28 14 28 10 28 6 30 2 28 1 27-2 28-8 25-13 23-17 20-20 20-24 18"/>
<path d="M16068 106880l"/>
<path d="M16382 106723l-10-23-23-11-24 9-22 13-21 14-21 15-23 18-16 17 18 20 25 3 28 1 24 0 25 1 25 2 27 2 24 3 29 6 25 11 22 16 13 22-1 29-17 27-15 23-18 24-20 23-20 18-22 16-22 14-23 9-26 8-25 1-25-3-26-12-16-18-8-25 3-24"/>
<path d="M16582 106899l-1 25-3 27-2 25 7 24 25 0 20-17 20-22 16-22 14-23-12 21 10 24 25 8"/>
<path d="M16778 106876l-3 28 1 24-1 27-2 26-6 28-7 32-5 24-7 25-8 28-7 24 32-202 11-24 13-22 21-14 24 5 24 10 15 20-2 25-13 21-19 21-21 19-21 13-23 8"/>
<path d="M16957 106873l 2 26 9 27 1 29-2 25-5 29-6 25-7 26-8 26-6 25-8 27-8 25"/>
<path d="M16976 106877l 18-16 26 0 26 6 24 12 8 23-4 25-16 23-17 22-20 18-20 16"/>
<path d="M17174 106900l-18 17-11 23 5 25 26 9 25-9 17-18 4-25-16-18 18-21 23-15 22-15 19-15 3 25 16 21 15 18 8 24-10 23-21 13-24-3 10-23"/>
<path d="M17474 106911l 19-17 20-14 6-24-23-7-26 6-19 16-14 21-12 24-3 25 19 18 26 4 26-4"/>
<path d="M17727 106876l-9-22-25-5-23 14-18 19-14 22-4 25 25 7 24-14 23-19 18-20 18-23 15-23 12-25 11-26 7-25 2-26-1-27-5-28-6-23-12-22-23 14-8 25-7 27-7 25-3 25-1 25-1 26 3 26 4 30 6 25 13 23 22 14 26-1 25-15"/>
<path d="M17910 106665l-8 25-7 28-4 24-5 27-4 29-5 31-2 29-4 27-3 28 1 25 24-9 17-20 18-22 14-22 17-21 19-17 0 27-8 27-5 24-3 25 24 4 21-18 17-20 16-20 14-20 11-24 4 24-3 30-1 24-4 26-1 30-3 24-4 25-5 26-5 30-6 31-8 31-9 31-10 32-11 29-10 24-14 24-17 20-24-8-11-25-4-29 0-26 3-27 6-28 10-28 13-29 14-27 15-25 18-22 14-21 14-20 20-22 22-21 22-18 23-14 23-10"/>
<path d="M18698 106774l-22 12-17 18-14 21-14 26-9 22-7 24-4 24-1 25 3 24 8 29 15 22 21 14 26 7 25 0 25-3 26-6 24-8 23-10 22-12 20-14 20-18 12-23 5-26-5-29-12-27-12-22-17-23-17-22-19-19-20-18-23-11-24-1"/>
<path d="M19129 106654l-22 13-18 20-18 22-16 27-14 28-11 24-8 27-9 27-6 28-5 28-2 28-1 27 1 26 2 30 8 25 14 21 19 21 21 16 23 14 21 12"/>
<path d="M19242 106764l 22-11 25-9 26-5 25-3 24-4 24-5"/>
<path d="M19263 106753l 2 26-3 27-5 25-6 25-5 26-7 26-3 24-4 24-5 24"/>
<path d="M19268 106860l 26-8 25-4 29-1 24-1 26 1"/>
<path d="M19242 106957l 27-2 26-2 28-4 25-4"/>
<path d="M19592 106716l-8 26-3 27 1 24 5 27 5 26 8 25 11 26 14 20 23 7 21-15 17-19 17-26 12-21 10-23 8-24 7-24 5-30 3-25"/>
<path d="M19916 106802l 24-7 27-6 26-6 25-7"/>
<path d="M19961 106742l-10 25 3 28 2 25 3 28"/>
<path d="M20229 106696l-2 28 1 29 2 28 1 26 0 27-1 29 0 26-1 26 2 30 4 24 13 20 24 0 18-17 15-20 15-24 14-26 12-27 9-30 9-33 8-34 7-30 4-25 4-24"/>
<path d="M20513 106642l 25-5 22 12 1 25-18 18-22 15-22 17 12 21 25 1 27 0"/>
<path d="M20632 106959l 21-13 24-15 21-15 23-17 24-19 18-16 20-17 20-18 19-20 17-20 16-19 13-25 5-25 1-25-5-27-21-13-23 16-14 21-12 23-11 28-11 30-6 24-6 25-4 24-4 28 5 24 12 25 19 17 22 9 28 5"/>
<path d="M20991 106879l-24-6-24 6-20 16-3 25 25 3 25-9 11 23 7 26 10 27 6 24 6 28 0 28-2 30-6 27-12 23-17 17-21 14-28 7-24-1-24-6-23-12-20-16-16-24-7-27-1-24"/>
<path d="M21351 106691l-5 24-2 27-2 28-3 25-2 25-1 27 5 23 26-6 20-20 16-18 13-22 13-26 11-22 9-24 6-25 5-24 1-25 1-25"/>
<path d="M21536 106533l 18 19 18 22 16 24 15 22 17 24 15 25 11 27 11 28 7 28 4 31-1 24-3 25-10 30-11 29-13 27-17 25-16 23-15 20-17 17-21 17"/>
<path d="M22150 106777l-2 25-2 27 2 27 8 23 24-7 23-20 19-21 18-26 15-25 13-23 3-25-2-24"/>
<path d="M22366 106727l-25 4-20 15 0 25 24 6 26 3 27 2 16 19-16 22-19 15-23 12"/>
<path d="M22503 106814l"/>
<path d="M23275 106498l-27-7-28 1-28 8-27 13-28 17-19 14-19 17-22 19-20 23-18 25-17 26-15 28-12 27-8 28-3 25 4 24 11 28 15 22 22 13 26 8 27 0 28-3 26-6 27-11 22-12"/>
<path d="M23136 106784l 22-14 25-11 26-11 25-8 25-5 24 5 3 25-5 25-2 27 6 24"/>
<path d="M23467 106746l-23-9-25 7-20 15-20 17 5 23 24-2 23-9 22-12 5 24 24 1 27-11 23-17 25-19 18-15 19-17 18-18 16-19 17-26 11-24 9-27 5-29 5-30 3-28 2-28-26 4-19 21-17 26-13 23-13 25-10 26-10 27-8 28-4 26 0 30 6 24 14 23 19 20 22 13 23 7 24-2 20-15 8-23-4-25-11-24 24-3 95 6-22 10-11 23 9 24 24 7 24-6 22-15 7-25-17-18"/>
<path d="M23941 106728l-5 25 24 10 22-10 22 13 25 6 25 2 25-2 24-9 14-22-3-25-13-23-15-21"/>
<path d="M24602 106477l-21-12-24 16-18 18-17 22-17 25-12 28-7 29-3 28 0 25 9 26 18 20 26 14 27 5 31 1 26-3 24-4 25-8 23-11 25-15 22-20 14-22 6-25-2-27-12-28-15-29-15-19-18-21-20-14-25-7"/>
<path d="M25009 106363l-24 5-23 17-24 21-19 21-20 24-17 28-15 32-11 22-9 23-9 22-8 24-9 34-7 34-4 33 0 30 3 29 3 28 5 26 9 28 14 20 18 19 26 11 25 0"/>
<path d="M24989 106525l 5 25 3 27 2 29 4 24 5 25 8 25 7 24 12 27 13 22 19 16 25 6 22-15 20-20 17-19 16-22 13-24 10-26 8-28 8-29 6-29 4-25 1-24-4-24"/>
<path d="M25360 106449l 24-4 26 6 20 14-19 16 7 23 22 11-5 24-21 16-26 1"/>
<path d="M25486 106344l 20 16 21 20 20 20 18 20 15 24 14 24 15 27 14 28 13 29 8 23 7 25 5 26 3 28 0 27-3 27-6 27-9 26-13 27-15 27-18 28-18 25-19 22-18 20-17 18-21 20-21 15"/>
<path d="M16062 107584l"/>
<path d="M16287 107474l 1 25-2 30-3 29-3 24-5 28-6 28-5 28-4 27-6 28-4 26-4 31-4 24"/>
<path d="M16263 107515l 15-21 21-13 22-11 23-10 24-4 28-1 26 5 24 12 17 19-3 25-16 23-22 23-21 17-23 17-22 14-22 12-23 11-24 7 11-21 21-12 23-10 25-6 28 0 25 5 25 12 19 16 10 26-6 27-14 22-20 23-22 23-19 17-20 14-26 16-25 11-23 7-27 1-24-6-18-16"/>
<path d="M16513 107763l 24-10 22-12 24-19 21-20 19-17 17-18 15-19 17-26 14-27 7-30 4-28 1-28-3-27-4-26-27 3-16 23-12 22-11 27-8 24-7 28-4 29-4 30-4 28-1 28 0 26 4 31 8 24 19 20 21 11 25 1"/>
<path d="M16788 107705l-23 12-14 20-11 24 3 25 23 12 26-1 23-9 6-24-13-20 25-9 23-9 22-11 21-16 19-19 7-23-7 24 6 25 12 23 9 23 0 25-18 18-24 4 20-18 22-15 21-16 20-16 20-16 16-21-2-25-11 23 18 18 18 18 17 19 5 23-25 12-24 5-25 5 23-9 28-11"/>
<path d="M17196 107698l-20 14-11 22 3 26 16 17 25 6 24-12 14-20 2-25-11-21 22-12 25 6 15 20-3 25 21-18 16-19 15-19 15 19 19 16 20-13 19 15 1 24-2 25"/>
<path d="M17986 107802l 19 15 28-11 26-17 22-18 23-22 17-16 24-26 17-18 21-26 17-27 10-27 5-28 0-26-5-29-10-23-16-19-25 5-16 18-13 28-9 23-8 31-6 24-6 27-7 29-7 31-8 32-7 34-5 32-6 33-4 32-2 30-1 29 2 27 3 24 6 32 10 24 16 23 22 15 23-7 13-22 14-27 6-24 2-26-3-26-5-26-8-26-9-26-12-28-14-23-13-20"/>
<path d="M18277 107758l-25 2-19 16-12 21-4 25 15 20 23 4 24-9 13-22-7-24-14-19"/>
<path d="M18363 107748l 24 7 8 23-18 17-15 18 5 25 26 3 26-5"/>
<path d="M18887 107684l-19 18-8 26-5 24 21 14 22-13 23-17 23-18 18-18-11 24 15 20 26-2 23-14 17-17 13-22 2-24-4-26"/>
<path d="M19140 107660l 25-6 23-13 4-24-22-9-28 5-22 15-18 21-14 23-6 24 11 25 23 15 28 3 29-6 26-8"/>
<path d="M19286 107633l-16 20-14 21-1 24"/>
<path d="M19331 107533l-17-18-8 25"/>
<path d="M19440 107663l-16-19-22-14-26-2-23 8-24 14-16 21 16 20 27 0 25-4 24-5 24-6-10 25-4 24 3 26 4 24 3 24-3 25-5 25-10 29-11 22-16 27-15 18-18 17-23 20-25 13-26 6-23-11-18-23-8-25-3-31 2-26 5-31 8-35"/>
<path d="M19534 107448l-16 18-6 25 0 25 3 28 2 29-2 28-6 28-10 24-5 26 24-11 18-22 18-23 15-22 15-23 4 25-2 25 0 25 25 2"/>
<path d="M19720 107409l-16 19-10 25-5 27-4 28-4 26-6 29-5 30-1 28-1 24 0 28 20 17 26-14 23-19 19-21 14-20"/>
<path d="M19677 107529l-24 8 22 13 27 1 26 1 25 1 26 3"/>
<path d="M19806 107560l 10-22-20-14-26 5-19 18-15 18-13 24-3 27 9 23 21 12 28 4 26-1 27-4"/>
<path d="M19950 107572l-25-2-25 6-18 18-15 20-10 22 11 23 25-3 24-12 23-19 16-19 14-21 12-24 9-28 4-25 2-29 1-26 4-28 1-27 2-30-3-26-25-2-14 21-10 27-7 29-3 24-2 26-1 26 0 26 1 25 2 26 5 24 9 29 14 24 18 18"/>
<path d="M20399 107283l-24 12-18 16-18 18-17 26-13 24-12 28-10 29-9 31-6 29-3 26-1 26 2 25 4 31 6 30 7 28 8 25 9 24 7 29 13 22"/>
<path d="M20423 107408l-2 25 6 25 3 25 0 29-4 30-4 25-6 26-7 23-9 25-10 25 12-26 13-22 12-21 15-20 20-14 11 21 2 25-4 26 13 20"/>
<path d="M20579 107597l-19 18-2 26 22 12 26-1 19-16 0-24-21-16"/>
<path d="M20710 107591l-21 16 11 22 25-1 22-11 19 15 23 7 25-1 26-10 15-19-4-25-13-20-17-18"/>
<path d="M21002 107408l 25-3 23 11 15 20 1 25-12 25-13 21-16 20-15 20-9 23"/>
<path d="M21021 107659l"/>
<path d="M21173 107273l 13 22 12 25 14 24 16 24 15 25 16 26 13 29 10 30 9 31 4 31 0 24-1 24-5 30-11 29-12 22-13 20-16 26-13 22-15 24"/>
<path d="M21526 107691l-9 24-15 23"/>
<path d="M21929 107345l 0 28-4 31-3 26-6 30-8 29-8 27-6 28-9 31-12 28-12 26"/>
<path d="M22061 107313l-10 23-6 27-1 26 1 28 2 24-1 28-4 29-5 26-5 24-8 27"/>
<path d="M21917 107500l 20-14 24-8 24-8 29-9 30-8 24-5 29-4"/>
<path d="M22250 107318l 1 26-5 26-8 29-4 24-5 26-6 27-8 26-6 24-8 25-8 24"/>
<path d="M22421 107293l-16 22-19 22-21 22-19 19-22 17-21 16-20 15-15 18 24 4 24 1 25 6 24 6 24 10 22 15"/>
<path d="M22755 107525l 24-12 20-15 21-15 23-19 23-21 22-20 18-21 16-19 15-27 12-24 8-26 3-25-28 9-16 27-12 24-10 28-11 30-10 33-7 23-6 24-6 24-5 24-4 24-3 34-2 30 1 26 2 27 7 26 23-13 8-24 4-24-3-26-4-27-5-27-8-24"/>
<path d="M23006 107470l-24 10-12 22 4 24 24 9 24-9 16-18-19-16"/>
<path d="M23110 107452l 27 4 17 18-14 20-21 15-8 23 21 14"/>
<path d="M23565 107457l 3 25-5 26 14 20 23-6 22-12 24-17 20-16 18-18 13-20-15 20-5 23 6 24 24 6 23-10 19-17 21-15"/>
<path d="M23797 107406l-1 25-3 25-9 23-11 23 15-20 14-22 14-19 18-20 18 18-8 25-8 26 13 21"/>
<path d="M23914 107411l-2 26-5 24 9 22 25-12 20-16 18-19 13-21-19 17 0 25 20 14 23-8 22-17 16-21-1-26-10-23"/>
<path d="M24149 107402l 24-5 20-14-9-24-25-8-25 3-26 11-20 15-14 21-9 25 9 23 23 15 27 3 24-3 29-4"/>
<path d="M24263 107380l-18 18-10 21-4 24"/>
<path d="M24317 107266l-21 13"/>
<path d="M24425 107394l-20-15-19-15-25-6-23 14-16 20-11 22 16 19 25 2 25-4 23-7-13 23-7 26 0 28 0 25 1 27-1 26-3 28-6 28-10 27-15 28-19 24-22 21-20 14-28 12-25 3-24-5-21-15-15-23-9-31-3-27 3-31"/>
<path d="M24468 107186l 6 26 7 26 5 23 4 29 3 32-3 28-6 28-7 29-9 27-12 24-12 21-14 24 18-24 13-21 14-21 14-20 18-24 14-19 16-21 10 25-4 28-5 26-5 25-4 25"/>
<path d="M24703 107218l-16 23-11 25-7 28-6 25-5 27-7 30-6 26-3 27 0 25 14 20 23-5 26-15"/>
<path d="M24652 107329l-24 5 26 0 28-1 28 1"/>
<path d="M24798 107370l 24 2 24-9 17-16-15-21-27-3-24 8-20 16-17 18-14 23-3 24 9 25 22 13 27 6"/>
<path d="M25004 107363l-25-5-25 4-23 14-17 18-10 22-2 25 21 13 23-9 22-12 19-17 21-19 16-22 12-25 10-24 5-28 2-25 1-26 1-29 0-29-2-27-5-27-9-24-23 11-12 24-8 28-3 25-4 26-4 28-4 28-2 27-1 28 1 26 5 25 11 27 14 23 17 17"/>
<path d="M25416 107366l 16 19 28-3 23-11 20-13 24-17 27-21 18-16 18-17 17-17 18-18 17-18 21-27 17-28 10-25 9-24 6-28 1-28-12-22-24 15-18 21-15 20-14 23-15 26-14 29-14 31-11 31-6 28-2 27 2 31 6 25 14 23 20 14 25 3 25-8 14-20-3-25-10-24-15-18-19-16 27 5"/>
<path d="M25792 107297l-16 21-11 23-5 25"/>
<path d="M25838 107226l-8 23"/>
<path d="M25868 107326l-10 26-8 27-7 29-7 26-6 28-6 26-8 24-9 25-6-27 9-27 10-23 9-25 9-25 10-25 10-22 11-26 16-24 16-19 21-12 25 3 23 9 16 19-6 26-20 20-24 18-21 13-22 11-23 9"/>
<path d="M26114 107300l-24-10-24 0-22 14-15 19-2 25 22 15 24-1 24-6 21-12 23 11"/>
<path d="M26213 107276l 25 1 25 3 0 24-22 15-18 16-14 20 11 23 25 2"/>
<path d="M26436 107137l 1 24-5 24-3 25-5 24-7 27-8 27-8 26-7 24-6 24-9 23 21 12 24-10"/>
<path d="M26376 107251l 25-1 25-2"/>
<path d="M26523 107322l-9 23"/>
<path d="M26591 107166l"/>
<path d="M26733 107113l-13 21-9 27-7 25-12 27-12 22-12 23-11 21-9 25-8 24 20 16 29-4 23-10 23-12"/>
<path d="M26643 107213l 25-1 31-1 26 1"/>
<path d="M26801 107253l 25 2 25-7 23-14 10-22-21-14-26 3-19 14-18 19-11 21-4 25 14 23 23 15 24 7 29 1"/>
<path d="M26988 107317l"/>
<path d="M16880 108420l"/>
<path d="M17046 108317l 16-19 19 18 3 25-1 24-4 30-5 24-4 24-6 26-5 25-4 24-4 27 3 26 25 2 18-23 16-26 11-23 10-26 12-27 10-27 9-27 8-27 8-26 7-23 9-29 7-24 7-25-7 27-6 24-6 27-6 29-8 32-7 33-6 31-3 32-1 28 0 26 4 29 8 26 18 20 26-8"/>
<path d="M17277 108455l-7 24-4 25 1 26 23-6 13-22 12-25 12-23 14-19 4 26-2 25-2 25-2 24-1 27 13 20 22-17"/>
<path d="M17437 108445l-11 22-7 24 0 24 19 15 20-16 16-19 13-22-4 24 7 25 18 18 25-11 14-23 6-23 0-25-11-23"/>
<path d="M17614 108474l 24-7 18-15 14-20-21-14-25 9-19 20-9 23-4 26 12 22 26 6 25-8 24-12"/>
<path d="M17736 108431l-14 20-4 26 2 26 13 20"/>
<path d="M17781 108329l-18 16"/>
<path d="M17855 108446l-16-18-26 2-17 20-11 24 17 17 27-4 21-15 16-19-5 25 4 26 4 26 6 24 7 27 6 26 4 29 1 31 1 24-3 25-3 24-7 29-10 27-15 23-16 20-20 17-26-2-17-19-9-24-4-25-2-30 0-35 4-25 2-28 3-27 3-27 4-27 5-24 7-35 7-32"/>
<path d="M17971 108254l 4 25 4 28 2 27 0 25-2 30-3 31-4 24-8 30-6 25-8 25 13-25 13-27 14-28 13-23 15-23 14-21 15 19-1 26-2 25 5 25 16 20"/>
<path d="M18133 108253l-4 24-1 29 0 27 0 26-3 28-4 28-5 31-5 30-5 27 3 27 16 19 25-5 19-14 20-19"/>
<path d="M18122 108375l-24 5 28 2 28-3"/>
<path d="M18260 108427l 25 1 23-13 18-16-15-20-24-5-26 6-22 15-18 19-9 23 1 26 15 19"/>
<path d="M18401 108417l-25-4-26 9-22 18-17 21-12 26-5 25 8 23 25 7 22-10 22-20 17-22 12-21 16-28 12-29 9-28 5-29 4-29 0-30-3-30-4-30-6-23-13-23-21 14-12 28-7 29-4 24-3 25-1 28 2 29 3 27 5 25 7 28 11 26 16 22 22 15"/>
<path d="M19056 108483l 5-24-4-26-20-17-25 8-23 18-20 23-15 26-12 25-7 27 12 24 27 9 26-6 23-12 21-14 19-19 11-23-24 8-4 26 0 26 3 25 1 24-1 28-2 29-1 25-5 28-6 30-8 31-8 31-10 29-10 29-10 25-15 24-17 19-25-6-8-28-2-26-1-29 3-33 4-32 6-31 7-27 10-25 11-28 13-24 19-25 19-23"/>
<path d="M19135 108523l 26 6 26-10 21-15 12-21-17-19-24 4-17 17-17 21-12 21-5 25 5 26 22 12 25 2 24-5 24-9 22-11 20-17 13-20-2 25 20 13 19-18 16-21 17-19 1 27 0 26 17 17 27-9"/>
<path d="M19456 108518l 24 5 22-10 20-17-2-25-23-9-25 2-22 15-16 20-10 25 4 24 22 15 26 2 28-6 26-11 25-12"/>
<path d="M19613 108453l 21-14 23 7-4 25-15 21-4 25 18 17"/>
<path d="M19811 108467l-22-13-25-1-19 15-13 23 9 24 25 1 24-6 18 16 24 0 21-14 19-19 19-22 16-24 12-25 9-23 8-24 8-29 6-24 6-26 5-27 6-27 6-25 5-26-2-27-23 7-9 28-9 29-5 28-7 30-7 33-5 35-6 35-3 33-2 31 1 28 3 31 9 27 16 18 24 6"/>
<path d="M20618 108563l 27 1 22-15 22-17 20-19 19-18 17-22 14-23 9-23-7 26-4 24 2 27 15 18 28-3 21-16 16-19 16-22 15-23 11-24 5 26 10 24 18 17 20 17 7 23-21 12-25 5-24 0 26-1 25-5"/>
<path d="M20848 108294l"/>
<path d="M21469 108493l-3 25-7 24-9 27-10 27-11 27-10 26-12 23-12 26"/>
<path d="M21473 108485l 7-27 9-23 16-19 25-8 24 4 24 10 22 13 14 20 3 28-14 21-23 19-23 15-26 12-26 9-25 7"/>
<path d="M21708 108406l 25-2 25 1 16 19-17 19-18 19-18 22-17 17-14 20"/>
<path d="M21889 108408l-25 9-17 18-13 23 7 25 22 13 25 0 25-11 13-22-13-22-23-9 24 2 22-9 25-15 21-14 22-20 24-21 17-18 20-24 14-24 9-23 9-28 6-26 2-24-24 16-14 29-13 25-13 28-11 28-10 29-7 28-3 26 2 24 7 28 12 24 21 14 27-3 15-23 7-23-4-28-12-21-15-20"/>
<path d="M22239 108399l-24-7-23-6-24 11-11 22 26 6 25-7 23-14 6 25 24 4 22-10 20-15 22-18 21-21 19-24 18-24 17-25 14-23 8-23 7-24 5-28 2-24-27 7-16 19-15 26-12 22-12 23-13 26-8 26-5 25-1 29 8 23 11 22 19 15 20-14-7-24-18-21-19-16 24-14 22-14 26-17 21-18 18-18 18-18 16-19 18-22 16-18 1 27-12 26-14 28-11 23-10 23-11 23-11 29-8 23 1 26 24-8 18-17 22-23 19-24 15-21 17-24 16-23 16-20 2 26-9 28-6 25-5 24-2 25 1 24 28-4 20-20 20-20 19-22 16-21 15-20 13-20-3 24-7 27-5 27-8 25-8 26-7 31-6 24-10 28-8 28-10 28-11 30-15 32-10 22-12 22-16 32-13 21-17 29-20 26-19 22-20 20-21-12 5-27 9-26 12-31 13-24 11-26 13-28 16-28 15-29 17-27 18-26 14-25 17-22 17-21 15-20 17-17 22-22 20-17 24-19 22-14 24-12 25-2"/>
<path d="M23346 108128l 16-19 23 12 9 26 0 25-4 23-7 26-12 28-13 21-11 22-14 21-20 26-16 20-13 21 15-26 12-24 14-27 16-31 12-22 12-21 14-22 19-29 18-28 17-23 15-21 20-22 17-18 16 23-6 26-10 29-9 25-10 25-12 25-12 24-12 29-11 23-6 24 21-20 14-20 16-24 17-27 18-27 16-26 16-24 16-22 19-24 16-19 18-17 23 8-1 29-8 27-9 30-7 24-8 23-9 29-8 25-8 25 5 23 24-16 19-18"/>
<path d="M23725 108059l-5 24-2 29-2 27-1 28 2 32 0 25-2 24 2 32 1 29 5 25 14 22 26 1 21-21 14-20 12-24 14-26 14-28 11-27 7-27 8-27 5-27 7-28 4-27 4-24 4-25"/>
<path d="M23884 108399l"/>
<path d="M17542 109192l"/>
<path d="M17764 108992l 17 20 3 25-3 25-7 27-6 24-10 25-10 27-11 28-13 29-13 30-13 28-13 26-11 22-8 24 1 25 22 9 29-7 24-8 24-7 25-7 28-8 25-7 27-5"/>
<path d="M17960 109271l-24 4-17 20-4 24 7 25 24 9 25-4 24-14 20-20 12-23 0-25-21-15-24-2-23 7"/>
<path d="M18123 109259l-22 10-21 15-6 24 16 21 26 6 24-4 28-7 23-12 16-20-8-25-20-13-25-4-24 5"/>
<path d="M18352 109019l-3 24-2 28-3 24-5 28-7 23-10 31-9 24-10 28-12 26-11 26-12 22-10 23 7-25 11-23 14-23 14-23 14-20 19-20 19-18 23-9 11 23-12 21-21 19-18 16-20 16-18 17-5 24 23 12 25 2 26-3 26-3 27-3"/>
<path d="M18931 109279l 26 7 28-12 24-14 24-17 20-19 18-22 12-22-16 20-8 23-4 23-2 25 25 9 21-15 20-17 19-20 16-20 16-20 19-17-3 26-4 24 26-2 22-16 19-17 18-19 20 14 12 21 23-13 20-14 117-177 8-26 8-23 8-23-5 25-7 26-7 24-9 28-9 30-8 23-10 24-8 26-10 25-10 23-11 29-4 25 2 27 24 5 21-15 18-21 15-22 12-22 5-25-4-26-13-25-15-20-20-15-24-5 16 18 23-4 25-2 28 0 26 3 24 6 21 14-11 24-16 19-14 23-7 24 13 20 25 2 26-3 23-10 13-21-14-23-17-16 24-9 27-4 24-7"/>
<path d="M19019 109063l"/>
<path d="M20180 109117l 16-18 25 2 1 27-7 24-9 23-11 24-14 22 21-15 16-25 17-23 15-21 17-19 21 13-6 25-7 25-7 24 24-7 21-17 19-16 19-15 22-18 20-14 9 23-10 24-4 25 4 23"/>
<path d="M20512 109138l-22 11-19 19-7 25 13 20 25 4 24-6 10-22 15-19 9-22-1-25-23-9"/>
<path d="M20647 109120l-9 25-7 25-10 22-10 23 14-21 14-24 12-22 12-21 12-24 22-12"/>
<path d="M20753 109128l 26-1 26-6 23-9 20-14 0-25-24-7-26 12-18 20-15 20-13 21-5 24 3 25 22 18 27 3"/>
<path d="M21457 109112l-24 5-24 9-22 13-19 19-14 20-10 26 6 23 25 12 28-3 26-8"/>
<path d="M21558 109179l-24 10-16 18 8 23 28 4 26-5 23-11 13-20-13-20 5-25 23-10 26-7 23 10 7 24-1 25 22-12 17-23 18-20 20-14 5 24-2 24 25 4 23-11 22-16 18-18 19-17 3 25 5 23 16 20"/>
<path d="M21946 109161l 25-12 22-13 20-14 23-17 25-20 19-15 21-20 15-20 12-21 9-27 6-26 2-25-9-23-22 15-16 18-19 23-15 21-16 23-15 24-11 25-8 25-6 24-4 29 5 24 12 21 20 17 25 5 22-11 14-22 2-24-8-25-11-21"/>
<path d="M22203 109103l-9 24-4 27"/>
<path d="M22263 109013l"/>
<path d="M22262 109109l-5 24-8 23 20-17 15-18 19-19 18-17 14 20-2 25-3 25"/>
<path d="M22482 109106l-21-15-26-3-21 12-20 14-16 20 18 17 25-9 24-9 19 15 22 13 22-11 21-14"/>
<path d="M22649 108942l 10-24 8-24-16 20-11 24-9 25-10 27-9 22-10 25-9 23-9 29-6 29-3 25 1 27 15 20 25-6 20-18"/>
<path d="M22559 109021l 28-7 28-4 27-4 26-3 30-2"/>
<path d="M22738 109040l-24 8-20 15-14 20 5 24 23 12 25-1 23-12 10-23-8-24-21-14"/>
<path d="M22832 109026l 24 7 23 8-1 25-19 15-19 17-18 18-11 23 13 22 24 2 27-10"/>
<path d="M22983 109064l-18 19-10 23-12 23 0 25"/>
<path d="M23009 109023l 22 16"/>
<path d="M23115 109103l-24-9-24-1-23 8-20 15 0 25 23 9 26 2 24-3 24 9 26-1 21-12 22-17 20-17 18-19 17-24 12-24 14-29 9-26 10-27 9-27 9-25 7-25 7-29 6-27-6-25-26 6-16 26-12 26-9 23-8 25-8 26-6 28-7 29-9 30-8 30-2 27 0 25 5 30 4 24 9 23 14 24"/>
<path d="M23778 109151l-19-16-21 18-13 22-6 25 16 20 27 1 27-9 20-13 14-20-14-23-23-14 22-12 26-7 26-8 25-5 21 14 3 26-4 27-6 29-10 30-10 30-11 21-12 24-13 23-14 22-14 21-15 24-15 20 108-225 6-23 7-26 7-27 12-25 20-14 26-3 25 4 24 6 19 18-2 26-17 18-22 16-21 13-23 13-23 11-23 10"/>
<path d="M24184 108920l-5 24-8 24-6 25-11 23-13 25-13 26-15 27-12 22-14 20-13 26-8 26 22 15 28-12 26-14 23-17"/>
<path d="M24124 109041l 29 5 26-5 27-5 25-3 24 1 24 9-6 25-7 24-11 23-12 21"/>
<path d="M24320 108973l"/>
<path d="M24333 109109l-12 21-8 24 20-21 19-19 20-19 17-17 17-18 6 25-9 25-8 25 26-10 22-19 18-18 21-20 16-18 11 21-5 24 10 22 24-12"/>
<path d="M24641 109010l-22 13-13 22-9 26 0 24"/>
<path d="M24704 108918l"/>
<path d="M24752 109003l 21-12 24 5-10 23-24 14-23 11-1 24 24 8 20 15 15 21 12 21 7 27 5 24-2 27-6 25-8 24-15 24-20 24-17 17-21 17-25 16-27 15-24 9-25 1-21-13-9-25 2-24 7-24 13-27 16-28 20-30 14-20 21-28 22-26 23-23 25-20"/>
<path d="M25001 109048l-21-16-23-8-25 6-18 18 17 18 28 0 25-5 22 11 27-5 25-10 26-14 24-16 24-15 22-18 17-19 16-25 12-27 6-25 6-25 6-25 8-24 7-23-26 8-12 28-11 29-7 24-10 27-9 26-9 27-8 27-6 24-5 25 0 26 3 25 14 20 25 2 17-20 11-24 0-25-5-26"/>
<path d="M25140 108945l-25-5 23 11 24-1 26-3 25-2 26-2 26-2 24 2-1 25-7 24-10 25-10 21"/>
<path d="M25342 108876l-21 13-3 25"/>
<path d="M25340 109019l 12 22 23 9 25-4 20-15 11-22-15-21-23-6 24-2 22-9 26-3 21 13 2 25 25 1 23-15 24-15 19-17 8 24-6 24"/>
<path d="M25679 108978l"/>
<path d="M26096 109008l 20-16 12 24-11 28-13 26-15 27-13 22-15 23-12 22-14 21-14 20-15 23-14 23"/>
<path d="M26155 108966l 18-21 21-15 26-2 26 8 24 10 23 15 11 21-6 26-18 21-22 15-25 12-27 10-25 7-24 5"/>
<path d="M26391 108943l-17 20-13 22-9 26-8 24 14-23 16-18 19-16 20-17 22-16 24-9"/>
<path d="M26508 108969l-22 16-16 20 13 22 24 7 25 0 23-5 15-21-6-23 20-16 25-10 23-12 23-12 24-16 26-18 24-19 23-22 17-19 15-26 12-26 11-24 6-23-27 3-19 16-18 21-16 20-15 24-11 28-11 30-9 29-8 28-3 25 5 25 13 22 20 14 25-3 20-15 9-24-2-26-8-25 26 4 26 2 26-2 22-13 14-20 10 22 8 25 12 21 6 25-14 21-24 7-25-1 24-5 24 0 26 4"/>
<path d="M26988 109044l"/>
<path d="M16564 162076l 21 16 3 25-3 28-9 29-10 24-13 28-16 29-19 29-14 21-13 21-21 28-16 25-14 21-12 22-11 24 16 19 26-3 26-8 26-9 27-10 26-11 24-8 24-7 24-8 29-7 25-4"/>
<path d="M16881 162144l 14-23 7-24-26 6-20 19-22 23-18 21-18 25-18 26-16 26-11 25-9 29-1 24 10 23 19 16 25 9 26 0 30-3 24-5 23-7 24-7 28-10"/>
<path d="M16959 162339l-16 20 18-20 21-24 18-21 18-23 19-25 17-25 18-27 14-27 13-27 10-27 8-27 8-26 10-27 12-21 5 26 1 29 4 28 2 30 1 30 4 33 3 24 5 30 7 28 7 25 10 25 14 22"/>
<path d="M17053 162262l 24-14 26-9 25-6 26-6 29-6 26-4"/>
<path d="M17804 162274l 1-26-9-22-25-6-20 15-17 20-13 24-8 24 15 20 25-4 24-15 20-17 16-20-18 19 0 29 2 29 1 25 2 29 3 29-1 25-6 26-7 27-7 25-10 24-10 22-15 26-14 20-20 16-24-9-8-27-2-30 1-28 4-32 6-33 9-32 13-31 14-26 17-23 16-20 18-19 19-19"/>
<path d="M17928 162220l-13 21-2 25-1 27"/>
<path d="M17966 162146l-13 20"/>
<path d="M18004 162242l 4 25 4 26 10 24 20-14 15-25 11-26 5-26"/>
<path d="M18112 162251l 25-4 23-9 16-20-12-22-27 0-22 16-14 20-17 21-7 26 14 23 25 5 29-3 25-7 24-8"/>
<path d="M18243 162242l 7-24 20-15-20 17-11 21 9 23 16 19 17 18-20 17-25 6-25 2 22-11 24-5"/>
<path d="M18575 162319l 24-7 20-14 26-20 20-16 20-18 18-20 17-20 16-21 13-20 14-28 12-29 5-25 5-26 2-26 1-31-2-24-26-2-18 23-17 27-12 25-14 29-14 31-14 33-11 32-7 32-4 30-1 26 13 29 23 20 30 12"/>
<path d="M18881 162202l-26 8-22 11-18 17-15 23-3 25 20 15 27 2 24-6 21-12 11-22-11-23-16-19"/>
<path d="M18992 162219l-24-8-19 18-15 20-9 23 22 14 23-9 23-15 17-19-11 27-3 28 0 28 0 28 1 25 2 27-3 26-8 26-8 25-12 23-15 19-20 17-22 10-26-3-15-25-5-29 2-29 6-28 12-24 16-22 17-23"/>
<path d="M19129 162274l"/>
</svg>
