<svg xmlns="http://www.w3.org/2000/svg" viewBox="801 2185 15648 16768" stroke="black" stroke-width="20" stroke-linecap="round" stroke-linejoin="round" fill="none" data-xena="0 0 0"><style>@media(prefers-color-scheme:dark){svg{background-color:black;stroke:white;}}</style>
<path d="M8750 6021l 8-4 8-3 10-3 9-1 12-2 13-1 16-2 19-2 22-3 24-2 26-3 27-3-9 1 28-4 8-1 30-5 32-4 34-3 38-3 40-3 42-6 44-7 45-8 47-7 51-6 53-6 54-5 55-5 56-5 57-6 58-5 58-6 56-5 52-6 49-5 45-6 42-5 39-5 36-4 33-3 30-3 26-4-5 1 24-6 20-7-6 3 16-7 12-6 10-5 7-4-29 34 1-4 3 17-4-2-4-8 1-9"/>
<path d="M8946 6249l 2 7 1 8 1 9 2 10 2 11 2 13 1 14 1 14 0 16 0 19-1 20-1 22 0 22-1 21-1 21-2 20-2 20-2 20-1 19 0 17 0 16 1 15 2 13-2-9 3 12 3 8"/>
<path d="M9241 6341l-4-8 0-1 1-9 3-8 5-8 6-6 7-6 7-5 9-3 9-2 6-1 9-1-9 1 8-2 8-2 10-2 11-3 11-4 11-4 12-4 13-4 14-4 15-3 9-1 16-3 15-2 15-1 16-1"/>
<path d="M9630 6231l 1-5 3-8 3-5 5-8 3-5 4-4 4-6 6-6 4-5 5-5 7-6 6-3 7-5 7-3 9-3 7-2 7-2 7-1 9-2 8-1 8 0 8 2 8 1 9 2 8 3 8 3 9 4 8 4 9 6 8 6 8 7 7 8 7 9 7 11 7 10 5 10 5 12 4 13 5 13 4 14 5 13 5 13 5 12 6 12 6 13 8 13 8 14 10 13 11 12 11 11 11 11 11 8 12 7 13 6-8-3 14 3 15 2 16 0 18-2-9 2 19-5 20-6-9 3 20-8 20-10 9-3"/>
<path d="M10209 6139l-10 3-12 5-12 6-14 6-16 7-16 8 8-4-17 10-19 12-20 13-21 14-22 14-22 15 7-6-22 17-22 18-24 17-25 17-6 5-25 17-25 16-25 18 5-4-25 18-25 19-24 19-22 20-20 18-18 19"/>
<path d="M11052 5363l-8 9-10 12-10 14 5-7-10 14-10 17-11 21-14 25-16 28-19 32-20 33 3-5-19 36-17 39-16 40-16 43-15 44-14 44-12 44-11 44 2-5-10 43-9 42-6 42-4 42-2 40-1 39 1 42 3 46 5 46 7 40 9 35-1-4 10 33 11 29 12 21 13 18 13 18 14 17 14 17 16 16 19 17 19 14 18 11 18 8 2 7-2 8-4 7-4 6-8 8-6 5-7 3-8 2-8-1-17-9-18-11"/>
<path d="M11491 5485l 4-3 8-5 6-3 9-3 7-3 9-1 6-1 6 1 8 1 9 2 12 4 7 3 12 5 10 5 9 6 9 7 10 9 12 12 13 13 11 13 11 13 11 11 10 11 9 11 8 10 9 11 9 10 11 8 10 8 11 7 11 6-8-3 13 5 13 3 15 2 16 0 17-1 17-2-9 2 18-5-9 3 18-7 17-9"/>
<path d="M11882 5426l 8-4-12 6-12 6-15 8-18 11-22 15-30 18 7-4-33 19-5 4-30 21 4-3-30 26-29 26-29 26-4 2-4 2-4 1-5-1-2-4 1-4 2-4 2-4 3-3 3-3"/>
<path d="M11070 5968l 8-4 11-6 13-7 9-3 15-5 15-5 19-4 22-4 27-5 9-2 32-4 31-2 27-2 29-2 32-4 35-4 37-4 39-4 42-5 47-7 57-8 54-7 46-5 47-6 55-8 57-10-4 1 55-10 54-10 4-1 52-8 50-8 47-8 46-7 41-7 38-6 35-5 31-3 29-3 26-2 24-2 21-1 18 0 14 0 8 4 8 3 6 5"/>
<path d="M11315 6146l 2-9-1 6 0 7-1 9 0 9-1 9 0 11 1 14 2 15 1 13 1 11 1 12 1 16 1 15 0 12 1 13 1 17 1 17 1 19 0 17 1 15 1 15 2 18 3 16 2 12 3 10-2-8 3 11"/>
<path d="M11591 6234l 7 0 8 0 9-1 10-1 11-2 13-2-9 1 14-2 15-3 17-3 9-2 18-3 19-4-9 2 20-4 21-4 9-1 23-4 27-3 24-2"/>
<path d="M12006 6081l 5-4 7-4 7-3 8-4 7-1 9-2 7-1 7-1 7 0 9 0 8 0 9 1 9 2 8 3 9 4 8 5 8 6 8 7 8 10 9 12 8 13 8 13 8 13 6 14 6 13 4 12 5 11 5 13 6 14 6 11 6 11 8 13 9 13 8 10 9 8 7 7 9 5 11 6-8-3 12 4 12 4 13 2 12 0 11 0 10-1 8 3"/>
<path d="M12288 6097l 8-4-7 4-8 5-10 7 7-5-11 8-12 10-10 9-11 9-12 10-12 12-14 13-14 15-15 14-16 15-21 17-18 15-14 12-13 13-16 16-17 15-7 5-8 4"/>
<path d="M11666 5566l-5 5-4 5-6 5 9-10-6 7-6 7-6 8-7 8-9 9-8 8-9 9-11 10-12 12-12 12-13 12-14 12-14 11-14 11-15 13-14 13-12 13-10 10 9-9-8 8-7 9 5-7-6 10-6 7"/>
<path d="M2947 7649l-17 5 6-4-14 11 4-5 7-6 6-4 8-5 7-4 8-4 9-5 9-5 10-5 10-6 11-5 12-6 13-6 16-8 15-7 8-4 14-5 12-3 9-1 7-3 9-1 8 3"/>
<path d="M2905 7701l 4 7 2 8 2 7 2 7 0 8 1 10 0 11 1 12 1 14 1 15 1 15 1 14 1 13 0 16 1 17 1 19 0 21 0 21 0 23 0 24 0 26 0 27 0 27-1 27 0 26 1 26 0 25 1 24 2 23 1 23 2 21 1 22 3 20 2 20 3 19 4 17 4 16 4 15-2-8 4 13 4 12 5 11 4 10 4 9 4 8 5 8 4 6 4 6 4 5 4 4 5 3 5 3 5 2-8-3 5 2 4 1 5 0-9 1 6-1 6-2 7-2-9 3 7-3 9-4 10-5 10-4 11-6 11-6 11-7 12-5 12-6 8-3 12-5 12-4 11-4"/>
<path d="M3222 8025l-3-3-2-3-1-3-2-3-4-8-1-4-1-5 0-5 1-9 0-4 2-4 3-9 5-7 3-4 6-7 4-3 6-6 5-3 7-5 5-2 9-4 6-1 9-1 6-1 6 0 7 1 7 2 7 2 8 3 7 4 6 4 7 6 6 6 6 8 6 10 5 11 5 13 6 13 5 13 7 13 6 14 7 14 7 13 8 13 7 12 8 11 9 11 9 11 10 9 10 8 11 7 11 6 11 6 11 5-7-3 11 4 11 1 11 0 12-2-9 2 11-4-9 3 12-5-8 4 10-7 11-9 8-5"/>
<path d="M3505 7974l-6 2-8 3 8-4-8 5-9 5-10 6-12 8 7-5-12 9-12 10-12 12-13 12 9-9-13 15-14 16 6-7-13 19-12 20-12 21-12 22-12 21-11 20 4-8-8 19-7 19-5 16-4 15-4 8"/>
<path d="M3658 7755l 4-8-2 6-2 7 2-9-1 9-1 8-1 8 0 8 0 8 0 9 2 10 2 10-2-9 3 10 3 7 3 6 3 6 4 8 4 6 4 5 5 5 5 4 6 2-8-3 8 1 8-1"/>
<path d="M3597 7627l-9-1-8-3 9 2-8-1-7 1-5 1-5-1-9-1-3-1"/>
<path d="M3765 7534l 5-7 2-5 6-6 7-6 5-4 8-5 6-3 8-4 7-3 8-4 9-3 8-3 9-2 10-2 9-2 10-1 9-2-9 2 9-2 7-2 7-2 6-2 6-1 9-1 6 1 8 3 5 4 3 7 3 9 2 10 1 11-1 11-1 13-1 15-3 16-2 17-2 17-1 18 0 20 1 22 2 23 3 24 3 25 4 23 4 22 5 22 5 22 6 22 6 23 6 23 6 23 5 24 6 25 5 26 5 26 5 25 5 25 6 24 5 22 5 21 5 20 5 17 4 16 4 16 2 15 0 14 0 12-2 12-2 9-3 9-3 9-4 8-4 8-5 7-5 8-5 6-9 10-5 5-8 6-7 4-8 4-8 4-11 3-8 2-11 2-12 2-13 0-13 0-13-1-13-2-9-1-13-3-13-3-13-3-12-4-12-5-11-5-10-6-9-7-8-7-8-7-4-8"/>
<path d="M4255 7528l 3-8 5-7 2-4 6-7 7-5 7-5 7-3 8-3 8-3 8-2 8-2 8-3 9-2 11-2 13-3 15-5 15-5 15-5 15-5 15-4 14-4 12-4 11-3"/>
<path d="M4250 7554l-8 4-8 4 8-4-8 5 7-6-7 6 9-9-7 7 6-7-6 8-6 9 5-8-5 10-3 10 2-9-2 13-2 15-1 16-1 19 0 21 0 23 2 24 1 25 1 24 1 21 0 21 1 22 1 24 0 25 0 25-1 27 0 28-2 29-1 30-1 31-1 31-2 30 0 29 1 26 1 25 3 23 4 20 5 19-2-7 6 16 6 14 6 13 5 12 5 10 6 9 5 7 7 6 7 4 8 4-8-3 8 2 9 2 10 2 10 0 11-1 10-1 12-2-9 2 12-3 13-3 14-3 14-3 14-4 15-3 15-4 15-3 14-3 9-2 14-2 13-2 12-1 14-2"/>
<path d="M4594 7909l 0 5 1 6 0 7 0 8 1 9 1 11 2 13 1 15 3 16 2 16 3 15 3 13-2-9 3 12 5 12 5 12 8 13 8 13 9 10 9 7 10 5-8-3 10 3 10 0-9 2 10-2 11-5-9 4 12-7-8 5 12-9 13-10-7 6 13-13 12-14-6 7 12-14 10-13 9-12 8-11-5 8 6-11 6-10 5-9 4-8-4 8 3-7 1-5-1 9 0-3 4 8-3-1 17 0-3 1 15-9-4 4 14-17-3 5-4 6 5-8-3 7-2 8 2-9-2 10-1 12-1 13 0 13 1 14 2 16 2 18 3 17 3 17 4 15 3 15 4 15 4 17 4 19 3 19 3 22 3 23 3 25 3 26 1 27 2 28 0 27 1 27-1 27-1 26-2 25-3 24-3 24-4 22-5 21-1 7-5 19-6 18-6 16-4 7-7 15-7 13-8 11-5 7-8 10-9 9-10 9-7 5-10 6-8 4-11 4-12 3-8 2-12 1-11-1-9-1-12-4-11-6-12-8-13-11-12-13-11-16-9-18-4-8-8-21-7-23-6-25 1-9 4-8 5-7"/>
<path d="M5033 7599l"/>
<path d="M5024 7767l 1 7 1 7-2-9 3 9 4 9 4 10 4 9 5 8 4 9 5 8 4 8 4 7 5 6 4 7 4 6 4 6 3 7 4 7 3 8 2 8 2 9 2 8 1 8 0 8 0 8-1 8-2 9-2 9-2 9-4 8-4 8-4 8-5 7-5 7-5 7-9 9-5 5-7 5-6 4-8 4-6 3-6 1-8 2-7 0-9-2-7-2-6-4-7-5-6-6-7-6-7-7-6-9-4-7-4-11-2-14-2-20-1-22 1-9"/>
<path d="M5097 7459l 5-7 3-5 6-7 7-6 5-4 8-5 7-3 9-3 8-3 9-2 9-1 10-1 11-1 11-1 12 0 11 0 10 0 10 0 10 0 9 0 10 0 8 1 8 0 8 2 9 2 7 3 8 3 7 3 6 2 5 4 5 3 4 5 4 5 4 5 3 6 2 8 2 6 1 7 0 7 0 8 0 8 1 9 0 9 0 9-1 8 0 10 0 14 0 15 0 17-1 18 1 20 0 20 1 23 1 23 2 24 2 24 4 25 3 26 5 26 4 25 5 25 6 24 6 23-2-7 6 23 2 7 7 23 6 23 5 23 5 24 6 22 6 22 6 20 5 18 5 15 5 14 3 13 3 13 2 13 0 13 0 13-2 12-2 11-3 9-3 12-4 11-5 10-5 8-6 11-5 7-8 10-9 10-9 9-10 8-7 6-12 7-12 6-8 4-14 5-14 5-8 2-16 3-17 2-18 1-18 0-18-2-8-2-18-2-17-4-17-5-18-6-18-9"/>
<path d="M5719 8151l 0 7-1 7 0 8-1 9 0 10 1 12 0 14 2 16 1 17 2 19 2 20 3 21 3 23 3 23 2 23 3 24 2 22 2 21 2 18 2 17 2 15 1 13 1 13 1 10 1 8 0 3-2 9-5 8-5 7-9 10-7 5-8 4-9 2-9-2-4-8 0-3 1-9-1-13 0-17-2-20-2-25-3-31-2-34-1-34-1-29-3-23-5-20-5-20-5-23-3-26-2-27 0-25-1-22 0-19 1-16 0-8 2-14 4-14 4-8 6-12 5-8 8-11 7-10 7-9 6-7 6-8 7-6 7-6 6-5 8-5 8-5 7-4 9-3 8-3 8-3 8-2 8-2 9-1 8-2 8 0 8 0 7 2 8 3 7 3 7 4 7 5 5 6 4 7 3 10 2 8 2 10-1 12-2 12-3 9-4 12-7 13-4 8-7 14-9 14-10 14-5 7-10 12-9 9-10 10-11 11-12 11-13 11-12 11-10 8-7 5-7 5-5 3"/>
<path d="M6097 7680l-6 1 16-5-7 4 7-5-8 7 9-9-8 10 5-7-9 12-9 13-9 15-11 18-11 18 5-8-10 20-10 22-9 24-8 25-8 25-7 25 2-9-6 26-2 8-7 26-8 28 2-8-8 28-6 29-5 28-3 27 0 27 2 23-2-6 5 17 7 13 8 12 7 13 8 13 8 12 9 11 12 9 15 8-8-3 17 6 18 3 19-1-9 1 19-4 20-7 9-1"/>
<path d="M6274 7890l-1-5 1-9 2-5 4-8 5-8 5-7 5-3 6-6 8-5 9-3 6-2 9-1 6 0 8 3 7 3 6 4 7 6 6 6 6 7 6 6 5 8 4 10 6 10 6 9 5 9 5 9 4 9 5 11 6 10 7 10 7 10 7 10 8 9 8 9 9 8 9 8 11 6 11 4-8-3 12 3 12 2 12-1 12-1"/>
<path d="M6473 7806l 8-2-8 3-8 3-10 4-10 4 8-4-12 7 7-5-12 10-14 14-14 14-15 16-15 16 9-9-16 18-16 21-17 22-16 21-17 21-17 20 5-7-14 21-12 21 4-7-10 20-8 20"/>
<path d="M6710 8043l 5-7-4 6-4 8 4-8-4 10-5 11-4 12-5 12-5 13-4 13-4 14-4 14 2-9-3 13-2 9-3 12-4 12-5 13"/>
<path d="M7052 7854l 4-8-3 7-2 9-3 9 3-8-3 10-2 12-2 13-1 13 1 12 1 13 3 11-2-9 5 11 7 10 8 9 9 7 10 6-8-3 12 3 13 1 14-2-9 2 15-3 16-5-8 3 15-7 15-7-8 4 15-9 14-9 12-10 12-10-7 6 11-10 9-11-6 7 7-10 7-9-5 8 5-9 4-9-3 9 2-9 1-7-1 9 0-7 4 8-3-5-5-1 9 1-6 2 17-6-6 3 8-5-6 5 15-17-5 7 5-8-4 8-4 8-3 10-3 10 3-9-3 11-2 13-1 12 0 14 2 14 2 16 2 16 2 19 2 19 3 19 3 19 3 20 4 20 4 19 3 17 4 16 3 16 2 17 3 17 1 17 2 17 1 16 0 17-1 16-1 16-2 16-3 14-3 9-4 14-5 12-4 8-7 12-6 7-8 10-9 9-10 8-8 6-12 6-8 4-14 6-15 5-8 2-16 4-18 2-17 0-18-1-17-2-9-1-16-4-16-6-14-8-13-11-12-14-10-18-4-8-10-23-8-25 0-8 4-8"/>
<path d="M7337 7504l 4 5 4 6 5 7 5 6 6 9 8 9 9 11 9 12 10 12 12 12 12 14 12 15 12 15 13 16 11 15 12 17 10 18 10 20 8 21 3 8 6 22 4 23 2 25 1 26-1 28-5 28-2 9-8 29-11 31-14 34-15 34-15 35-16 33-15 31-15 30-2 4-15 28-13 26-12 23-11 20-3 4"/>
<path d="M7936 7810l 11-2 12-2-9 2 13-3 13-4 13-4 16-3 17-3 17-3 9-2"/>
<path d="M7939 7923l 7-2 8-2 8-1-9 1 9-1 10-2 13-3 9-1 15-3 17-2 19-3"/>
<path d="M8509 7599l 8-2-9 2 10-3 12-3 11-3 12-3 12-3 13-5-9 4 12-5 12-6 12-5 8-3 11-4 9-3 8-3 8-4 9-3 9-3 9-2 8-2"/>
<path d="M8451 7676l 7-5-6 5-5 5 9-9-5 6 5-7-4 7 5-8-4 7-2 7-3 7 3-9-2 7-1 8 0 12-1 13 0 15 0 15 0 17 1 19 0 20 0 21 1 23 0 25 0 26-1 28-1 29-2 32-3 34-4 33-3 30-1 29-1 29-2 31-3 33-3 37-4 42-3 43-3 38-1 33 0 25 1 22 1 21 1 21 0 20 2 19 3 17 4 16 3 15 4 13-2-8 4 12 5 11 5 10 6 8 7 8 7 6 7 5 8 4-8-3 9 3 9 3 11 2 11 1 11 0 12 0 13-1 13-1 13-2 15-1 15-2 15-1 15-2 16-2 17-1 17-1 17-1 16 0 15 0 15 0 15 1 13 1 12 3 11 3 8 3 2 9"/>
<path d="M8839 8041l 4-5 7-6 5-4 5-3 8-5 6-3 6-3 8-3 7-2 6-2 7-1 9-2 6-1 6 1 6 1 6 1 6 2 8 3 6 3 6 4 5 6 6 9 5 10 6 13 6 13 5 15 6 15 7 16 5 15 5 14 6 15 7 14 8 15 8 16 9 16 9 15 11 16 11 14 11 14 11 13 12 11 13 10 14 8 13 6-7-3 14 5 14 2 15 1 15-3-9 2 15-4 17-7 9-1"/>
<path d="M9235 8083l 7-5-11 8-12 10-15 12-17 14-17 15-16 14-16 16-18 16-18 19-19 19-20 20-22 22-21 22-22 23 7-6-25 27-28 32-27 31-24 27-21 25-4 5-4 2"/>
<path d="M9443 7913l-2 6-1 6 2-9-1 7 0 10 1 10 1 10 3 10-3-9 3 10 4 9 4 9 4 9 4 8 4 7 5 6 6 5 6 5 7 4-7-4 8 2 9 1-9 1 11-2 13-4"/>
<path d="M9470 7723l 8 1-6 1 8-2-5 3 8-4-5 3"/>
<path d="M9644 7954l-3 0-4-8 1-9 3-8 5-7 6-7 6-6 8-5 8-3 7-1 9-2 9-1 10-2-9 2 12-3 12-2"/>
<path d="M10017 7672l 2 3 4 5 4 5 4 5 2 8-2 9-4 8-5 7-9 10"/>
<path d="M9987 7947l 15-9-4 4 14-16-3 6 6-17-1 8 0 9 1 9 2 9-2-8 3 9 3 9 5 10 4 11 6 11 6 11 7 10 8 11 7 12 7 12 6 11 5 12 5 11 6 12 5 13 5 12 4 12 2 8 3 12 3 11 1 11 2 11 0 12-2 12-2 11-2 9-4 12-4 11-5 11-4 8-6 10-6 7-6 9-7 8-9 9-7 8-8 6-7 5-9 5-8 4-8 4-9 3-9 2-9 2-9 0-9 0-9-1-9-2-9-2-10-4-9-5-9-5-8-6-9-7-8-7-8-9-8-9-6-9-5-10-4-8 1-9 3-8"/>
<path d="M10306 7486l-9 1 8-2 7-3 7-3 10-3 13-4 15-6 16-5 14-6 14-6 15-5 14-5 15-5 15-5 14-4 12-4 12-3 9-2 9-3 7-2 9-1 6-1 5 1 8 3 3 5 2 8 1 6 1 7 0 7 1 10 0 11 2 12 2 13 2 15 2 17 3 18 2 19 2 20 2 21 1 22 2 25 2 27 1 27 2 28 2 25 2 25 2 27 2 32 2 34 1 34 2 31 3 32 3 33 4 33 5 33 4 32 4 31 4 29 5 29 4 27 5 25 5 25 5 24 4 23 5 22 4 22 4 21 3 19 4 19 3 18 2 14 2 13 1 11 0 12-1 11-1 12-2 11-2 12-2 11-3 9-3 11-4 11-5 10-5 8-5 9-6 7-6 8-9 10-8 6-7 5-8 6-10 5-8 4-9 5-11 3-9 2-11 2-13 1-13-1-15-1-8-2-15-2-15-4-15-3-15-5-16-4-16-5-15-5-14-5-14-6-13-5-12-5-13-4-11-5-11-4-8-3-8-3-3-8"/>
<path d="M11589 7491l 4 3 4 5 4 6 3 7 3 7 3 8 3 9 2 9 3 10 3 12 2 12 2 12 2 13 3 11 2 12 1 12 1 14 1 14 0 13 2 13 0 14 1 13 0 13 2 11 1 11"/>
<path d="M11217 8031l 11-1 13-3 16-2 19-4 23-4-9 2 25-5 28-5 31-6 33-6 35-6 36-7 38-7 39-10 39-11 40-10 39-10 39-8 40-9 39-8 38-7 37-6 35-7 34-8 33-8 32-7 31-6 4 0 30-5 28-4 28-4 26-4 25-2 23-3 20-3-6 1 18-3 16-4 13-2 9-2 10 0 7 2 8 4 3 4 3 8 0 6-2 9-5 8-5 7-9 10-7 5-8 4-9 2-9-2-4-8 0-6"/>
<path d="M11311 8283l 7-5-5 5 14-16-3 5 4-8-3 7-2 7 2-9-1 8-1 9 0 10 1 10 2 12 2 12 2 13 3 13 3 13 2 13 3 13 3 12-3-8 4 11 3 11 4 11 5 11 4 10 6 8 5 8 6 7 2 9"/>
<path d="M11557 8354l 3-8 3-5 5-7 5-7 4-4 7-6 5-4 8-5 6-3 9-3 7-3 7-3 9-2 10-3 11-2 11-3 12-2 9-2 13-2 14-2 14-2 15-2 16-1 16-2 16-1"/>
<path d="M12084 8152l 7 2 8 3 7 3 8 4 7 6 8 6 8 7 8 8 7 9 8 10 8 10 9 10 9 9 9 10 9 10 10 8 9 8 9 8 9 7 10 8 9 8 11 9 9 8 10 7 9 5 9 5"/>
<path d="M12255 8237l 8-2-9 3-9 4-11 5-10 5 8-4-11 6-12 7-13 8 8-6-13 10-13 10-7 5-14 10 7-6-15 11-15 13-15 15-16 16-16 17-17 17-16 17-16 17-16 16"/>
<path d="M11095 7590l-6 3-7 4 8-4-8 4-10 6-10 7 7-5-11 8-11 10-10 10 9-10-11 13-14 17 6-7-15 21-15 23-15 26-16 28-17 30-17 33 2-6-15 32-11 29-11 33-12 43 1-5-12 50-10 51-6 50-4 48-1 46 1 44 4 43 6 42 8 41 10 39-1-4 10 35 10 29 11 25 12 25 14 25 16 24 17 24 20 23 20 21"/>
<path d="M12486 7532l-2-8 4 9 7 11 9 12 12 14 13 15 15 16 17 17 17 18 18 19 18 22 17 24 16 25 17 26 18 25 19 25 20 24 20 25 19 25 18 24 16 25 16 25 13 27 12 28 9 29 1 5 7 29 3 29 1 30-2 30-4 30-2 5-7 29-10 29-13 29-3 4-15 30-19 30-20 30-3 4-22 29-22 28-22 28-22 27-22 23-4 5-22 21-20 18-18 15-15 12-4 3-5 2"/>
<path d="M12916 7201l"/>
<path d="M12916 7371l 1 6 1 7 1 9 2 9 3 10-3-9 4 11 4 10 6 11 6 11 6 13 5 11 6 12 5 11 5 11 5 12 5 11 4 11 4 10 2 9 3 11 2 11 2 10 1 10 0 9 0 10 0 10-2 11-3 9-3 11-3 10-5 10-4 8-5 8-6 7-6 9-7 9-9 9-8 8-9 8-7 5-9 6-9 5-8 4-10 4-9 2-9 2-9 1-10-2-9-1-10-3-9-4-8-6-7-8-6-9-4-8-5-10-3-11-1-12 1-9"/>
<path d="M13142 7342l 8-2 8-2 10-2 10-1 10 0 10-1 13-1 13-2 15-1 16-3 14-2 14-3 14-2-9 2 14-3 12-2 11-3 9-3"/>
<path d="M13233 7312l 14-16-3 6-3 6-3 5 4-8-2 4 3-8-1 5-1 7-1 7-1 7 0 9 1 9 2 8 1 8 2 8 0 8 1 9 1 8-2-9 3 8 3 7 3 9"/>
<path d="M13491 7195l 1 9 2 10 2 11 3 11 3 12 3 12-3-8 4 11 4 12 4 12 4 13 5 13 4 14 4 13 3 9 4 15 3 16 2 17 2 17 1 18 0 18 1 18 1 17"/>
<path d="M1958 10889l 4 2-8-3 5 1-9 2 6-2-17 8 7-4 6-5-7 5 6-6 7-8-6 7 6-8 7-9 8-10 7-10 7-11 7-11-5 8 7-11 6-13-3 8 5-14 5-14 3-15 3-14-1 8 1-15 0-15-2-14-3-13-3-11 4 8-5-10-6-8-8-6-8-4-11-2 9 1-12 1 9-2-13 4-14 6 9-4-15 8-15 10 7-5-15 12-15 15 9-10-15 16-13 17-13 17 5-7-11 17-10 18 4-9-8 18-7 18-5 16 2-8-4 16-2 16 0 14 1 14 3 12-2-9 5 10 5 8 8 5 8 4-7-4 9 2 11 1 10-1-9 2 11-3-9 3 11-4 11-6-8 4 11-6 10-7 11-9 10-8-6 5 10-9 9-9 9-10-6 7 8-10 6-10 7-9 5-8 6-8-5 7 4-7 4-7 5-7 3-6 6-6 4-4 6-6 8-5 9-3 3-1 9-2 8 4 3 2 2 5 3 7 2 8 2 9 2 9 1 11 2 12 2 13 2 13 1 14 1 15 2 15 1 16 2 17 2 18 1 20 3 20 2 21 2 22 2 22 3 24 1 25 1 26 0 28 0 27-1 26-2 25-1 24-3 23-2 23-3 21-3 21-4 19-2 8-5 18-5 17-7 16-4 8-8 15-5 7-9 12-9 10-9 9-8 5-9 7-8 4-10 4-11 3-9 2-11 0-12-1-9-1-11-3-13-6-12-8-12-10-11-14-11-16-4-8-10-20-8-25-6-30-5-33"/>
<path d="M2361 10254l-2 9-2 6-1 8 2-9-2 9-1 9-2 9-2 9-3 12-5 15-6 15-4 16-5 16-5 19-6 21-7 22-8 23-10 26-11 28-12 32-14 33-12 34-10 35 2-5-9 36-6 36-5 34-3 33-1 32 1 32 3 31 4 30 5 28 6 26-1-5 7 23 9 19 12 14 13 10 13 7 13 7 11 5-7-3 12 2 12-1-9 2"/>
<path d="M2503 10602l 8 3 8 3 8 5 8 6 9 8 9 9 8 9 8 11 7 11 8 12 9 14 9 17 9 18 8 18 7 16 6 14 7 12 7 14 7 15 8 14 9 15 8 13 7 12 8 11 9 10 9 7 10 7 13 5-8-4 13 3 12-2-9 2 11-4-16 8 9-5 8-8 8-4 9-3"/>
<path d="M2770 10613l-7 3-7 3 8-4-8 4-9 6-11 7 8-5-13 9-14 14 9-9-14 15-12 13-13 16-16 20-19 22-17 20-15 20-12 17-13 17-15 21 5-7-14 20-11 18-8 15-5 7"/>
<path d="M2976 10903l 1 6 0 8 0 7-1 9-2 9-2 9-4 10-4 12-5 14-6 15-7 16-8 17-5 8-11 18-11 17-11 17-12 16-5 8"/>
<path d="M3127 10630l 5 6 3 7 2 8 2 8 2 10 1 11 1 11 1 11 0 11 1 12 0 12 1 13 0 13 1 12 1 10 2 11 1 10 3 10-3-9 4 10 4 8 5 7 5 6 6 4-8-3 8 2 9 1 10-1-9 1 12-4-9 4 14-8-8 4 16-11 16-15-6 6 16-16 15-18-6 7 14-18 12-18-5 7 11-17 8-18-4 8 7-16 5-16 4-14 3-13 1-12-1 9 1-11-1-8-2-5 3 8-4-2 18 0-5 2 15-9-5 4 14-17-4 7 5-8-4 8-3 10 2-9-3 11-2 12-1 14 1 14 1 16 3 16 3 16 3 14-2-8 4 12 4 12 4 11 5 12 6 13 6 13 8 15 8 16 8 18 9 18 9 19 9 20 8 21 8 22 6 22 2 9 5 22 4 22 3 23 2 23 0 24 0 24-1 24-2 23-2 22-3 22-5 20-2 8-5 19-6 18-7 16-5 7-7 15-9 12-5 7-9 10-9 9-7 5-10 7-8 4-10 4-8 2-12 2-12-1-9-2-13-3-13-5-14-8-14-10-15-12-15-14-15-15-14-18-14-20-14-21-14-24-3-7 1-9"/>
<path d="M3365 10306l 7 2 8 3 7 4 9 4 9 5 9 5 10 7 14 10 16 12 16 13 17 12 16 14 16 14 15 15 14 14 13 15 12 17 11 18 11 19 9 21 8 22 2 8 6 24 5 24 3 25 0 26 0 26-1 23-2 19-2 19-3 20-2 9-6 22-7 22-9 23-9 23-10 22-11 20-4 8-11 19-11 18-10 16-5 7-10 13-8 10-9 10-7 7-7 6-7 5"/>
<path d="M3957 10587l 9-3 10-3 11-2 10-4 11-3 13-2 14-3 15-4 16-4 16-4 17-5 17-5 13-3 9-2 8 3"/>
<path d="M4039 10694l 9-2-9 2 9-2 9-2 10-2 12-1 11-2 13-2 20-3-9 2 21-4 23-4 9-2 24-4 25-4 25-4"/>
<path d="M5509 10011l 3-7 4-7-4 9 2-6 2-4 3-8 5-7 6-7 2-3 7-6 8-4 8-3 9-2 4 0 8 3 4 4 5 6 5 9 3 11 2 8 2 11 2 15 1 18 0 18 1 16 1 15 1 18 0 19 1 19-1 19 0 20 0 20 0 22-1 26-1 28-1 27 1 20 2 19 4 21 2 19 2 14 1 12"/>
<path d="M4955 11050l 0 6 1 7 1 9 1 10 2 11 2 12 1 13 1 15 1 16 1 17 1 18 1 19 0 21-1 22 0 23 0 21 0 21 1 20 1 21 2 19 2 17 3 15-3 9"/>
<path d="M5252 11176l 8-3 4-2 6-3 8-2 11-3 9-1 12-2 10-1-9 1 11-2 12-3 9-1 15-3 21-3 23-4-9 1 23-5 24-5 23-4 9-1 21-3 18-1 18-2 22-2 22-3 20-3 23-2"/>
<path d="M5871 11037l 1-9 1-4 3-8 5-7 2-4 6-7 7-6 5-4 7-4 6-3 9-3 7-3 10-2 11-2 9-2 12-2 11-1 11-1 12-1 12-1 13 0 14 1 13 0 13 1 11 2 10 1 8 2 8 3 7 3 6 3 3 4 3 8 1 6-2 7-2 9-4 8-4 8-5 7-6 8-6 7-9 9-8 7-9 8-9 7-10 8-11 8-12 9-13 10-12 9-10 8-9 7-9 6-7 6-5 4 14-17-2 4 7-17 0 4-2-8 3 4 5 4 6 4-8-4 7 3 9 2 9 1 10 2 11 2 10 2 12 2 10 2 11 2 9 3 10 3 8 4 9 3 8 3 8 3 8 5 7 5 5 5 3 4 3 6 2 8 2 6 0 7-1 7-2 9-2 8-3 8-5 8-5 10-7 11-9 14-6 8-10 13-9 12-9 9-10 11-10 10-11 11-11 12-11 11-12 10-11 10-11 8-7 6-11 7-10 6-8 4-11 5-12 3-9 2-12 3-9-2"/>
<path d="M6225 10966l 6 0 6 1 6 1 8 2 9 3 8 3 9 4 8 3 7 4 8 5 8 7 8 7 7 8 7 9 7 9 6 10 6 12 6 13 7 12 5 11 4 10 4 11 4 11 4 12 5 12 6 13 7 14 9 15 9 15 8 11 9 10 10 8 10 6 10 5-8-3 11 2 9 1 8-1-9 2 10-2 10-3 9-1"/>
<path d="M6549 11022l-9 3 8-2-10 2-11 4-14 5-19 7-20 9 8-4-19 10-18 10-16 9-15 9-15 11 7-6-16 12-15 13-16 13-16 14-16 15-17 15-16 15-16 14-16 14-15 15-7 5"/>
<path d="M14429 7915l 9-4 10-3 12-4 13-4 14-4 17-5 19-5 19-7 19-7-9 3 19-7 18-8 19-8 19-8 18-8"/>
<path d="M15360 7283l-2 9-4 7-4 8-6 8-8 11 5-7-10 15-12 20-13 23-15 26-17 29-19 31-20 33-20 34-20 37 2-4-19 39-18 42-17 43-15 44-13 44-12 44 1-4-10 45-9 45-6 46-4 46-3 45-1 43 1 42 1 37 2 32 3 30 4 32 5 34 5 33 7 32 7 30 8 30-1-4 9 28 11 25 13 23 14 20 16 17 15 15 16 12 16 10 16 6-7-3 15 5"/>
<path d="M15680 7321l 6 4 5 5 5 5 6 4 7 4 6 5 6 5 5 5 6 5 6 7 5 7"/>
<path d="M15676 7606l 1 7 0 7-1 8 0 8 0 9-1 9 0 8-1 9 0 8 0 8 0 8 0 8 2 9-2-9 3 9 4 9 5 8 5 6 6 5 7 3-8-3 7 2 9 2 11-1-9 2 12-3 13-4"/>
<path d="M15697 8073l"/>
<path d="M15675 8256l 1 5 1 4 0 5 1 5 2 5 1 7-2-8 3 7 3 8 3 9 3 9 3 9 3 11 4 10 3 10 5 11 4 12 6 14 5 13 4 11 4 10 4 11 2 8 3 12 4 12 3 12 3 12 3 12 3 13 2 13 2 13 1 14 1 13 1 13 1 13 0 13 0 13-1 12-3 13-2 9-3 11-3 9-4 8-5 7-5 7-5 6-9 10-6 5-7 5-6 4-6 3-8 4-8 3-8 2-8 1-8-1-9-2-8-2-8-5-8-7-7-8-6-12-4-8-6-14-4-18-4-20-2-21"/>
<path d="M16076 7444l 3 9-2-9 3 9 3 11 5 13 5 13 6 16 7 15 7 16 9 18 10 19 12 20 12 20 13 21 13 21 12 22 12 23 11 24 12 23 11 23 9 22 9 22 8 24 2 7 6 25 5 25 3 27 0 29-1 30-4 32-4 31-5 31-6 30-1 6-8 30-9 28-11 27-9 22-10 23-12 25-3 6-15 26-17 28-20 28-3 4-20 27-20 27-19 26-19 25-18 24-16 22 3-4-15 22-14 22-12 21-12 20-3 5"/>
<path d="M8160 10084l 2 8 3 9-1 9-2 8-2 9-2 9-2 7-2 6-2 5-2 7-3 8-3 8-2 9 2-8-2 10-2 14-2 19-3 20-2 20-2 18-1 19-2 18-2 18-1 17-2 16-1 17-2 14-1 13-1 11 0 10 0 9 3 8-3-9 5 6 7 3 2 9"/>
<path d="M8400 10178l 6-2-9 2 7-2 9-1 8-2 10 0 11 0 12 0 14-1 14-1 16-1 17-1 17-1 16-2 16-2"/>
<path d="M8945 9990l 7-6 6-5 6-4 8-5 6-4 7-3 7-4 9-3 8-3 8-3 11-2 9-1 11-1 12-1 12-1 13 1 13 1 14 2 14 3 13 4 13 4 8 3 12 6 11 6 11 7 9 8 8 7 6 9 3 9 3 8 1 11-1 12-3 13-2 8-6 14-4 8-9 15-11 15-5 7-12 16-13 15-15 16-15 16-15 17-15 18-16 17-15 18-14 16-14 16-14 15-12 15-11 13-9 12-8 11-8 8-9 10-8 8-6 6 14-16-3 5 6-17 1 4-10-11 5 1 8 0 9 0 9-2-9 1 11-2 11-3 14-4 15-5 17-4 17-4 19-5 19-6 19-6 9-1 8 3 2 8"/>
<path d="M9311 10206l-3-4-4-8 0-4 1-9 3-8 5-8 6-7 7-6 4-2 8-5 8-3 9-2 7 0 7 2 6 2 8 3 7 3 7 5 7 6 7 6 7 8 7 10 6 10 6 10 6 8 6 8 7 9 6 9 7 8 6 8 7 6 7 6 8 4 8 5 8 4 9 4-8-3 9 3 11 1 10 0 10-1-9 1 10-2 9-4-8 4 9-5-8 4 9-5"/>
<path d="M9511 10196l 9 1-8 1-7 2 8-2-8 2-9 2-9 2-10 2 8-2-11 3-12 4-13 5 8-4-13 7-8 4-15 7 8-4-14 7-15 8-15 9-14 10 7-6-14 12-13 11-11 10-9 9 9-10-7 9 5-7-5 9 4-8-2 8"/>
<path d="M9660 10194l-2 7-2 6-3 7-3 7-2 7 2-9 0 7 1 8 2 8-2-9 2 8 3 7 5 7 5 6 6 4 6 4 7 3-8-4 7 2 6 1 8-1 8-1-9 2 8-2 9-3-9 3 9-5-8 5 8-6 8-6 7-6 7-6-7 6 6-6 5-5 5-5-6 7 4-6-5 8 4-6 2-5 5-7 6-7 2-2 7-6 7-5 9-3 9-2 8 3 1 4 2 6 3 8 3 7 3 7 4 8 4 7 3 8 3 6 3 8 2 8 3 8 2 8 2 8 1 8 1 7 1 7 0 7 0 7-1 7-1 7-1 7-1 8-2 8-2 9-2 7-3 6-3 7-4 8-4 7-4 6-5 8-5 6-10 9-6 5-7 6-7 4-7 4-8 4-8 4-8 3-9 2-9 2-10 2-9 1-10 2-10 2-9 0-9 0-9-2-9-1-10-3"/>
<path d="M7911 11310l 7-2 8-2 8-1 6-1 7 0 7 0 7 0 8 1 7 0 8 0 8 0 8 0 9 0 10 1 10 0 11-2-9 2 11-2 9-2 12-2 13-2 13-2-9 2 13-3 14-3"/>
<path d="M8372 10945l 2-5 2-5 5-7 3-5 6-7 4-4 7-6 5-4 8-4 6-4 8-4 9-4 8-3 10-4 11-2 11-3 12-3 9-1 13-3 14-1 14-1 14-1 13 0 12 0 12 1 11 1 10 1 9 2 7 3 8 3 5 4 3 7 2 8 0 7-2 9-2 8-5 8-5 8-5 7-7 9-9 10-8 10-10 11-9 9-10 10-11 9-11 9-7 5-11 8-11 7-11 7-11 6-9 6-8 5-8 5-7 4 8-5-5 3 18-24-1 2-8-20 4 1 8 0 10 0 10 0 10 0 11 0 11 0 11-1 11 1 11 1 11 1 10 2 10 1 10 3 8 3 8 3 7 4 6 4 5 4 4 4 4 5 2 5 3 9 0 6-1 7-2 8-3 9-4 8-4 8-5 9-5 8-6 7-6 9-7 8-9 10-10 9-12 11-12 10-7 5-13 9-12 7-13 6-8 4-13 6-12 5-13 4-8 2-12 2-11 1-11 0-10-1-9-2-10-2-8-4-6-5-5-6-3-5-4-8-1-7 0-9 1-9 1-10 3-10 3-11 4-8 5-8 6-6"/>
<path d="M8756 10925l 5 5 6 6 5 6 5 7 5 7 6 7 6 8 6 7 6 7 6 7 5 7 5 6 5 7 7 10 7 11 7 10 6 9 7 9 6 8 7 9 6 9 7 8 6 7 6 6 7 7 6 6 7 5 7 4 6 3-8-3 7 2 8 2 11 1 11 0 11-2-9 2 12-2"/>
<path d="M8950 11043l-8 4-10 5 8-4-11 6-12 7-13 8-14 7-15 10 7-6-15 11-13 12-14 10-13 10-12 9-11 9-11 10-9 9-7 8 9-10-6 7-5 5-9 10"/>
<path d="M9040 11033l 9-2-9 1 8-1 9-2 8-1-9 1 7-1 7-2 8-2 9-1 8-1 8-1 8 0 8-1-9 1"/>
<path d="M9334 11000l 3-5 3-4-5 8 2-5 3-5 3-6 4-7 3-7 3-6-4 8 2-6 2-7 2-7 1-6 0-4-1 9 0-4 0-3 0-4-1-3 4 8-2-3-4-3-4-4-5-3-6-2-7-2-7-2 9 2-7-1-7 0-8 0-8 1 9-2-8 2-9 3-9 3-9 3-8 4-8 3 8-4-7 5 7-6-6 5-7 7 9-9-7 7 6-7-5 9 4-8-4 8-1 7 2-9-1 6 1 5-2-8 1 4 3 5 5 6 7 5 8 5 9 5 7 4 8 4 7 4 8 3 9 4 8 4 7 4 8 3 7 3 7 4 8 3 7 4 6 4 6 4 4 5 4 5 3 5 2 7 2 8 2 8 0 9 0 11 0 11-2 11-2 9-3 9-4 10-4 8-5 9-6 10-6 10-7 11-7 9-5 8-8 9-7 7-9 10-7 6-7 6-8 5-7 3-8 4-7 3-9 2-6 1-6 0-9-2-6-1-6-2-5-4-4-6-3-8-4-7-2-9-1-10 1-11 1-8 1-10 4-10 3-8 5-11 6-12 7-12 7-13 8-13 8-13 5-8 9-14 9-13 9-12 10-12 9-11 8-10 6-7 7-6"/>
<path d="M9508 10980l 1 4-2-8 2 3 3 4 4 4 4 4 5 5 5 4 5 5 5 6 6 7 6 7 6 6 6 7 5 6 6 6 5 7 5 6 5 5 5 5 6 7 5 6 6 7 6 7 7 6 6 6 7 4 8 5 8 3-8-3 7 2 8 2 8 1 8 0 9-1-17 5 11-5-8 5 13-10 13-10 8-5"/>
<path d="M9680 10988l-5 4-5 6-7 7-9 8-11 11 9-9-12 12-8 12-9 11-10 11-11 12-12 15-11 13-9 11-7 10-9 12 5-8-7 11-6 8-4 7 4-8-3 7-2 6-2 6-4 8-5 7"/>
<path d="M9815 10828l 5 0 5 0 6 0 5 2 4 1 5 2 6 2 6 2 6 1 5 2 5 1 5 2 8 3 4 2 3 4 2 5 3 8 1 6 0 6-2 6-2 9-3 5-4 8-4 6-5 7-4 6 5-8-4 6-4 6-4 6-4 6-4 5-5 8-3 4 5-7-3 4 7-16-1 4-3-8 2 4 4 4 4 2-7-3 4 1 5 2 5 1 6 1 5 1 6 1 6 1 7 0 8 2 7 2 7 2 6 1 6 2 7 1 6 2 8 3"/>
<path d="M8565 11301l 285 4 308 0 310 0 289 0 208 0"/>
<path d="M8705 11517l-1 6 2-9-1 6-1 7-1 8-2 9-1 11 0 11 0 11 0 12-1 12 0 13-1 14-1 13-1 14 0 13-1 14-1 13-2 13-1 12-1 12-1 10 1 10 0 9 1 8-3 8"/>
<path d="M8843 11568l 7-1 8-1 9-1 11-2-9 2 11-2 13-3 13-2 15-3 13-4 14-3 14-2 9-2 13-2 13-1 13-2 11-1 8 3"/>
<path d="M9246 11451l 4-3 8-5 6-3 8-3 6-2 7-1 7-2 7-2 7-1 9-2 7 0 7 0 6 0 6 0 5 0 8 3 3 2 2 9 1 4-1 5-2 9-2 6-4 8-4 6-4 6-5 7-5 6-5 6-4 5-6 6-9 9-6 6-6 6-6 6 9-9-5 6-5 7 5-7-4 6-4 6 5-8-2 5 2-9 1 5-3-9 3 4 4 4 6 3-8-3 7 2 7 2 8 2 8 2 7 1 7 2 6 1 7 1 7 1 8 2 7 1 7 2 7 3 7 2 5 2 8 3 5 3 5 3 4 4 4 5 2 5 2 6 2 8 2 6 1 6 0 7-1 7-2 8-2 9-3 8-3 8-4 8-4 8-5 8-5 8-6 8-5 8-7 7-9 9-6 7-7 5-6 5-6 5-8 5-6 4-6 3-8 4-5 2-9 2-5 0-9-1-4-1-3-2-3-3-3-3-4-8 1-9 4-8"/>
<path d="M9591 11456l-8 4 4-2 8-5 4-2 8-3 6-2 9-1 5-1 5-1 6 0 5-1 5 1 4 1 5 2 6 2 7 3 7 2 5 4 5 5 5 4 3 5 3 6 3 7 2 7 3 9 4 10 3 9 2 7 4 6 4 5 4 6 6 5 5 5 6 4 6 4 7 3-8-3 7 3 9 1 8 1 9-1-9 2 8-2 8-2 7-3"/>
<path d="M9757 11477l-5 3-5 4-6 3-7 4-7 5-9 5 7-5-10 7-9 8-10 9-10 9-11 10-10 12 9-10-11 12-10 12-10 14-9 13 5-8-9 13-7 12-6 11-6 10 4-8-4 9-4 8-5 7"/>
<path d="M10191 11226l 8-2-3 2 8-4-3 2 16-14-3 4 5-8-4 5-3 7 4-8-3 7-3 9 2-9-2 10-2 11 0 11 0 11 2 10 2 11-2-8 3 10 4 9 5 9 6 9 7 7 9 7 11 6 10 5-7-3 10 3 9 0-9 2 10-2 10-4-9 4 10-5 11-6-8 4 10-6 10-8 10-8 9-8-6 6 8-9-6 7 8-9 7-10-5 8 6-10 4-9 5-8 3-8-3 8 3-8 2-9 2-8 0-5-1 8-1-2 13 9-2 1 24-12-3 3 9-10-3 4 10-16-2 5 2-9-1 4 0 5 0 6 1 6 2 8 2 7-3-8 3 7 3 8 4 8 4 8 5 8 4 9 5 9 4 9 5 10 5 9 5 9 5 10 5 10 4 10 4 11 3 11 4 11 2 9 3 12 3 12 3 12 2 13 2 13 1 13 0 14 0 14 0 14-1 13-3 13-3 12-2 9-4 13-4 11-5 10-4 8-6 9-5 7-7 8-9 10-8 7-8 7-8 6-8 5-8 5-8 4-10 4-10 3-8 2-11 2-10 1-11-1-9-1-10-2-10-2-9-3-10-3-9-4-10-5-11-7-11-7-10-8-9-8-8-8-4-8 1-9 3-8 5-7 6-7"/>
<path d="M15099 10282l 5 4 6 4 6 4 7 4-8-3 7 2 7 2 6-1-8 2 6-2-9 3 7-3-8 5 5-3-7 6 5-5-11 15 3-6-4 8 1-5-1 9-1-6 3 8-2-4-4-4-4-2-5-2-6-1 9 1-6 0-6 0-6 1 9-2-6 2-6 3 8-4-6 4-6 4 7-6-6 5-5 4 9-9-4 5 5-7-4 5-3 5 5-8-3 6-2 6 3-8-1 6-2-9 2 7 4 6 5 3-8-3 7 1 8 0 7-1-9 1 7-1 6-2 6-2 6-1 6-1 6-2-8 3 6-3 6-3-8 4 6-3-7 6 5-5-11 15 2-5-3 8 1-5-1 9-1-5 4 8-3-4-5-4-5-3-5-4-4-3-5-2-6-1 9 1-6 0-6 0-5 1 8-2-5 1-6 2 8-3-5 3 7-5-4 4 14-17-3 5 6-16-1 6 1 6-3-8 3 6 4 5 4 4 6 4 6 4 7 3 2 9-2 8-4 8"/>
<path d="M15009 11171l 3-3 3-3-6 6 3-4 3-3-6 7 3-4-4 8 2-4-4 8 1-3 12 19-2 0 24-11-3 2 9-9-4 4 5-7-3 5 5-8-3 6-2 7-2 7 2-9-1 6-1 7 0 7 1 7-2-9 2 6 2 6 2 5 4 4 4 5 6 4 6 3 5 3-8-3 5 1 5 1 6 1 5 0-9 1 6-1 6-2-8 3 6-2 5-3 4-2-8 5 3-3 4-3-13 13 3-3-5 7 2-4-3 8 2-5 1-5-1 9 0-5-1-4 4 8-2-3-3-3-3-3-3-2-4-2-4-2-5-2 9 2-6-1-5 0 9-1-4 1-5 2 8-4-5 3-5 3 8-5-4 4 9-10-4 4-3 4 6-7-3 3-3 4 5-8-3 5-1 6 2-9-1 5-1 5 0 6 0 4 1 5-3-8 2 4 2 5 3 6 3 7 4 6 2 9-2 9-4 8"/>
<path d="M13887 12086l 9 0 12 2 8 3 14 6 16 9 18 11 21 15 22 22 24 28 25 31 29 33 32 34 34 36 34 37 32 38 29 39 26 43 22 47 19 51 1 4 14 52 9 57 4 60-3 65-10 69-17 70-1 4-20 70"/>
<path d="M10018 12707l 7-6 3-3 8-5 6-3 8-3 8-3 8-2 9-2 9-1 11-1 12-2-9 2 13-3 14-3 15-4 17-3 17-3 18-4 18-5 18-7-8 4 17-8 16-6 9-4 15-6 14-5-8 3 13-6 12-7"/>
<path d="M10189 12520l-3 4 6-7-3 4 5-8-3 5-2 6-3 8 2-9-2 10-1 11 0 14 0 16 0 18 0 18 1 19 1 20 2 21 2 21 3 22 5 22 6 22"/>
<path d="M7715 13888l 3-8 4-8 3-8 4-7 3-7-4 8 3-7 3-8 3-8 2-9 1-8-1 9 1-8-1-8-1-9-3-8 4 8-3-6-5-6-6-4-7-3-7-1 9 1-9 1 9-2-9 3 8-3-10 5-12 7-12 9 7-5-12 10-13 12 9-10-12 14-12 16 6-7-12 16-10 18-10 17 4-8-8 17-7 16-6 16 3-9-4 15-1 13 0 11 2 11-3-8 4 9 5 7 6 5 8 3-8-3 9 1 10-1-9 2 11-4-8 3 11-6-7 4 12-8 13-11 14-11 14-12 13-12 13-11 12-9 11-9 10-7 8-4 8-5 7-3 8-3 9-2 6 0 8 3 3 3 1 6 3 8 0 7-1 8-1 10-2 10-2 10-3 12-1 11-2 12-1 12-1 12 1 11 0 11 2 12 1 11 2 11 2 11 3 12 2 12 1 12 2 13 1 13 1 13 0 14-1 13-2 13-2 9-4 12-4 11-5 11-4 8-5 10-6 8-5 7-6 7-9 9-6 5-7 6-6 4-6 3-8 4-7 3-9 2-7 1-8 0-9-1-8-2-8-4-7-6-7-8-6-10-4-8-4-12-3-13-2-15-1-16 1-9 4-8"/>
<path d="M7950 13795l 5 2-8-3 6 2 6 1 6 1 6 2 7 0 8-1-9 2 8-3-9 4 9-4 8-4 10-4 10-4 10-5 9-6-7 5 9-6 9-6 8-6 8-5 7-6 7-5 5-4-7 6 3-4-14 23 1-4-1 9-1-4 4 8-3-3-5-2-6-2 9 2-7-1-8 0-9 0-9 1-9 1-10 2-9 2 9-2-10 3-9 3-9 5 8-4-9 4-9 5-8 5-8 5-8 6 7-6-7 7 9-10-6 8 5-8-6 8-4 8 4-8-3 9 2-9-2 10-1 10 1 9 2 9-3-9 4 8 5 7 7 6 8 4-7-3 9 3 10 1 11 1 12-1 14-3 8 4"/>
<path d="M8255 13774l-5 5-5 5-6 6-6 6-7 7 9-9-7 8-8 8 6-7-7 10-5 9 4-8-5 10-4 10-2 10 2-9-2 9 0 8 1 7-2-8 2 6 5 6 5 5 7 4-8-3 7 3 9 1 9 1 10-1 12-1-9 1 12-2 12-4-9 3 12-5 12-6-8 4 12-7 12-8 11-8 10-8 10-9-7 6 9-8 6-7-5 6 5-7-5 7 4-7-3 8 2-7 1-7-1 9-1-6-2-6 4 8-5-6-5-5-7-4-7-4-8-3-8-3-9-2-9-2 9 1-9-1-8 0-8 0-7 0-6 1"/>
<path d="M9039 13645l 2 5 2 6 1 8-1 8-1 10 0 11-1 12-1 11-1 12-1 10-1 11-1 11-1 10-1 9 1 8 1 6-2-8 2 4 2 9-2 9"/>
<path d="M9070 13488l-5 2 8-4-5 3 8-5-4 3 9-9-4 4-3 4 5-7-3 4 5-8-2 5-2 5-4 8"/>
<path d="M9100 13733l 8-2-3 2 15-9-3 3 14-17-2 4 4-8-2 5-1 5 2-9-1 5 0 5 0 5 1 6 1 6 1 5-2-8 2 5 3 4 4 2-8-3 4 2 5 0-9 1 5-1 5-2-9 4 6-4-8 5 5-4 6-5 7-5 8-7-7 6 8-7 7-9 8-8 7-8 7-7 7-6 6-6 7-6-7 6 6-6 5-5 5-5 7-6 5-4 8-5 8-3 4-2 9-1 8 3 2 3 2 8 1 6 0 8-1 8 0 8 0 8 0 8 0 7 1 7 2 7-2-9 2 6 4 5 4 4 5 4 6 2-8-3 6 2"/>
<path d="M9559 13657l-3 5-3 6 5-8-3 7-3 8-3 9-2 8 2-9-2 9-1 9 0 9 0 8 2 7-2-8 2 7 3 5 4 6 6 5 7 4-8-4 8 3 8 2 9 1 10 0 10-1-9 1 10-3-8 4 10-5 9-5 10-5-8 5 9-6 8-5 8-6 7-6 7-6 7-5 5-4 5-4 4-3 8-5 9-3 3-1 9-1 7 3 3 3 2 9 2 6 1 7 1 8 2 9 1 9 1 11 2 11 2 12 3 13 3 13 4 14-2-8 4 15 5 15 5 15 6 16 5 16 6 18 6 18 7 18 5 19 3 9 5 19 4 20 4 20 3 21 2 22 1 24 1 23 0 23-1 21-2 20-3 19-4 17-2 9-5 16-6 15-5 8-7 13-6 8-9 12-9 9-10 10-11 9-8 5-12 8-12 7-13 7-8 4-12 5-13 4-13 3-9 2-13 3-11 1-11 0-9-1-11-3-9-6-8-7"/>
<path d="M4475 16005l-8 15 3-11-1 9-2-10-3-10-3-12-3-12-3-14-4-14-3-14-4-12-5-11 4 8-5-9-6-8-6-5-7-3 9 1-8-1-9 2 9-2-10 4 8-4-11 7 8-6-12 9-12 11 9-9-13 14-12 17-14 18-14 19-15 19 6-7-15 20-12 21-12 21 4-7-10 21-10 21-7 20-5 18 2-8-3 18-1 15 1 15 2 12-2-9 5 10 6 8 8 6-8-3 11 2 11 0-9 1 12-4-9 3 13-6-8 5 14-9 15-11 15-13-7 6 15-14 15-16 15-16 15-16 15-15 15-15 13-14 12-12 11-11 9-9 8-9 7-6 5-5 7-6 7-5 9-3 4-1 9-1 7 3 3 3 2 8 1 6 0 7-1 9-1 10-2 11-2 12-1 12-1 12-1 12 0 13 1 12 2 13 2 11 3 10-3-8 4 9 4 10 5 8 6 8 7 7 8 5 9 4-8-3 10 4 8 3 2 8"/>
<path d="M4764 15949l 9 1-5 1 8-2-4 1-4 2-1 0 26-54 3-1 7 0 9-2-9 2 12-2 14-4 15-4 16-5 17-6 16-5 16-7-9 3 16-7 16-8 15-8 15-8-8 5 13-9 14-9 16-11 15-11 14-10 11-7 9-7-7 6 6-7 7-6 8-4 8-3 9-2"/>
<path d="M4963 15703l 8-4-5 3-5 4 7-5-6 4-7 5-7 6-7 5 7-6-7 7 9-10-6 7 5-7-5 8-5 9 4-9-5 10-5 12-3 13 2-9-3 15-1 17-1 17 0 19 1 18 2 19 2 19 2 18 3 17 4 16"/>
<path d="M5103 16152l 1-4 3-8 3-6 3-7 5-8 6-11 5-7 8-12 9-12 11-13 6-7 12-14 16-15 18-18 22-21 23-23 22-22 18-21-4 4 15-20 15-22 17-25 20-27 20-28 19-26 18-26 16-25-3 4 14-24 11-23-2 4 9-22 6-23 5-22 2-24-1 6 1-23 0-25-2-24-3-25-5-25-6-22-7-19 3 6-9-14-10-11-10-8-12-5 9 2-11-2-12 2 8-2-12 6 15-9-14 10 9-9-13 15 5-7-14 19-13 23 4-8-11 26-10 25-9 26-8 25 2-8-7 28-7 29-6 30-5 32-4 35-3 39-1 42 1 40 4 33 5 28 6 26-1-4 8 23 9 22 10 19 12 17 14 14 14 11 16 9 15 7 16 5-8-4 15 3 14 1 13-1-9 1 13-3-9 3 12-5-8 4 10-6-7 5 9-8-6 7 8-11-5 8 6-13-3 8 4-14 2-13-1 9 0-12-2-10-4-12-5-14-7-15 4 8-8-14-9-12-10-11-9-7-10-5-9-3 9 1-8-1-8 0-7 1 16-6-4 3 28-39-1 5-3-9 4 5 6 4-8-3 8 2 11-1-9 1 13-2 15-5 17-5 19-7-8 3 20-9 20-9 8-4 9-1 8 3 2 8-2 9"/>
<path d="M5871 15328l 11-1 11-1 12-2-9 1 12-2 9-2 12-2 13-2 12-1-9 1 14-3 16-5 17-5 17-4 17-5 17-5 19-5 19-4 9-1 20-4 20-3-9 2 20-4 20-5 20-4 19-3 9-2 19-3-10 1 17-3 15-3 14-3 12-5 12-3 9-3 7-2-17 8"/>
<path d="M5893 15409l-7 5 7-5-6 5-5 6 14-17-6 8-6 10-6 12 4-8-6 13-5 12-4 14 3-9-3 15-2 17-1 18-1 19 0 18 0 17 0 17-2 20-2 26-5 34-7 39-6 40-5 38-2 32-1 26 0 23 1 22 1 24 0 24-1 25-2 24-1 24-1 24-2 24-2 24-2 21-1 17-2 13-1 10-2 9-3 9-4 8-4 6-5 8-9 9-5 4-7 5-8 4-5 2-9 2-6-1-9-1-6-3-8-4-7-6-8-7-9-8-9-8-8-7-9-8-8-7-8-6-7-6-8-4-7-3-6-2 8 2-6-1-7 1 9-2-7 2 8-4-6 4-7 5 8-6-6 6 9-10-6 7 6-7-5 7 4-8-4 8-3 9-3 8-3 8-2 7 2-8-1 6-1 6 0 5-2 9"/>
<path d="M6033 15880l 9 1-7 1-6 0-7 1 9-2-7 2-8 3-7 3 8-4-8 5 7-5-7 5-7 6-7 6-7 8-7 7-6 6-6 6 9-9-6 7 5-7-6 8-5 9 4-8-5 10-4 11-4 12-4 13 2-8-2 12-1 12 1 11 2 10-2-8 3 9 6 9 7 8 8 8 10 6 11 6-8-3 12 4 14 2 15 2 17 0 18-1 20-2 20-3 21-4-9 2 21-4 9-2"/>
<path d="M6765 15158l-9 1 6-2 6-2 9-1 8-1 9-1 10-1 11-1 12-2 14-2 15-3 17-3-10 2 17-4 18-4 18-5 18-5 19-5 19-5 20-5 19-5 18-5 17-5 17-4 9-1 14-3 13-1 10 0 9 0"/>
<path d="M6771 15293l 8-4-4 3 7-5-4 3-4 4-4 3-4 4 9-9-4 4 5-7-3 6 4-8-3 7-2 9 2-9-2 11-2 11-1 13-1 15 0 17 0 18 1 19 0 21 1 22 1 23 0 24 1 24 0 24 0 26 1 26-1 28-1 27-2 29-2 29-2 30-3 31-3 31-3 31-2 29-2 26-1 25 0 23 2 21 3 18 3 16 4 16 3 14 4 12-2-8 4 12 5 10 4 9 4 8 5 7 5 5 4 4 5 3 6 4 7 2-8-3 7 2 8 2 7 1 7 1 8 1 9 1 9-1 10 0 10-1 11-1 11-2 11-1 12-1 12-1 12 0 12-2-9 2 13-2 13-3 14-4 14-3 15-2 9-2"/>
<path d="M7163 15745l 4-8-1 5 2-8-1 6 0 7 0 10 1 13 0 15 1 15 0 18 2 19 2 21 1 20 2 20 1 20 1 20 1 20 1 21 1 22 0 22 1 22 1 22 1 23 1 22 2 21 2 19 2 16 2 15 2 13 2 12 3 11 3 9"/>
<path d="M7113 15726l 5-7 5-7 7-6 3-2 7-5 9-3 4-2 6-2 9-1 8-1 8-1 10 0 10 0 12 0 11 0 13-1 12 0 12 0 12 1 12 1 12 1 10 2 11 3 9 3 8 3 8 4 7 5 7 6 4 7 4 8 2 9 2 10-1 11-2 14-2 9-4 15-6 17-8 18-4 8-10 18-11 18-12 18-6 7-14 17-9 10-16 15-16 13-7 5-17 11-16 10-15 8-15 8-8 3-13 6-12 5-10 3-9 2-9 1-8-1-7-2-5-3"/>
<path d="M7396 15253l-4-3-4-4-2-3-4-8-1-3 0-4 1-8 1-4 3-8 5-8 3-3 6-7 7-6 4-3 7-4 6-4 6-3 8-3 9-3 9-4 10-3 11-5 12-4-9 3 13-5 12-6 14-6 14-7 16-7 16-8 15-7 13-7 12-7 10-5 9-5 8-4 8-4 7-3 8-3 6-2 9-2 5 0 6 0 7 4 5 3 5 5 2 8 3 8 2 8 0 8 0 9-1 11-1 13-1 16 0 17-1 19 0 19 0 20 1 21 1 22 2 23 2 24 2 25 3 27 2 28 3 28 3 29 4 29 2 29 3 28 1 26 3 27 2 27 2 27 2 27 2 27 1 26 1 27 2 26 2 24 2 20 3 17 3 17 3 16 1 17 0 16 0 15-2 14-2 15-3 14-3 9-4 12-6 12-4 8-7 10-6 7-9 10-8 9-10 7-8 5-11 7-13 7-8 4-13 5-15 5-15 5-9 2-17 3-17 2-18 1-19 1-19 1-20 0-19 0-18 0-18 0-16-1-15 0-14 0-13 0-13 1-9-2"/>
<path d="M11235 13748l-1-6 0-6-1-6-1-6-2-6 4 8-3-6-5-6-5-5-7-3-8-2 9 1-9 0-10 1 8-2-12 3-12 5 8-4-13 8 7-5-13 10-13 11-13 12-13 14 9-9-12 15 5-8-11 16-9 16-9 16 4-8-6 15-6 14-4 14 2-9-2 12-1 10 0 10 2 8-2-8 4 6 6 5-7-3 7 3 9 1 9-1 10-2-9 2 10-3 11-3-8 3 11-5 11-5 10-5-8 4 9-5 7-6-7 6 6-5-6 6 5-6 4-6-5 8 3-4 4-8 6-7 7-6 8-4 1-1 9-4 9-1 8 3 2 9 0 3 1 8 0 8 1 9 1 10 1 11 2 11 2 12 2 12 3 12 4 13 3 12 3 13 4 14 3 13 3 14 2 13 3 14 2 13 1 14 2 13 1 13 0 13 0 13-1 13-1 13-3 9-3 13-4 12-6 10-4 9-6 9-5 7-7 8-9 10-7 6-7 5-8 5-8 4-9 3-9 2-9 2-11 0-8-2-11-2-10-4-11-7-10-8-10-12-8-13-4-8-6-15"/>
<path d="M11304 13745l 6-2 6-2 8-2 6 0 5-1 5 0 5 0 5 1 5 0 6 1 5 1 5 1 5 1 6 0 7 0 7 1 7-1 8-1-9 2 9-2 9-3 9-3 10-3 10-3 10-4-8 3 10-5 10-5 9-5-8 5 8-6 6-5-6 6 4-6-5 7 3-5-8 16 2-5-1 9 0-5-1-4 3 8-3-4-6-3-7-3-7-3-9-3-9-2-9-1 9 1-10-1-11-1-10-1-11 1 9-2-10 3-9 3 8-4-9 5-8 6 7-5-8 6-8 8 9-9-7 9 5-8-6 10-6 10 4-8-4 11-4 11 2-9-3 11-1 11 0 11 2 10-2-9 4 9 5 8 6 7 8 5 10 5-8-3 12 3 14 2 16 1 18-1 19-2-9 1 21-3 21-5 22-6 23-7 21-7 20-8 19-7-8 3 17-8 17-7 16-8 14-7 12-6-7 4 10-6 8-6 7-4 4-4-17 20 1-2-1 25-2-2 9 2-5 0 8-2-6 2-7 3 8-4-6 5 7-6-6 5-6 5-6 6-6 6 8-9-5 6-6 7 6-7-5 7 5-8-4 7-2 8 2-9-1 7 0 6-2-9 2 5 3 4 5 3-8-3 7 3 8 1 10 0 9-1-9 2 11-2 10-4-8 4 11-5 12-6 11-6-8 4 10-6 10-7 8-7 8-6-7 6 6-6-6 7 4-6-4 7 3-5-4 8 2-6 1-5-1 9 0-5-2-5-2-5 4 8-4-5-4-4-5-3-7-3-6-3-7-3-7-2-6-2-6-3-6-2-5-2-4-8 1-9 3-8 5-8 6-7"/>
<path d="M12279 13694l 6-16 0 4 0 4 0 5 1 5 0 5 1 6 2 7 1 6 1 6-2-9 2 6 2 8 1 6 1 6 1 5 1 6-3-8 3 6 3 6 2 5 3 5 3 4 3 8"/>
<path d="M12311 13571l-5 2 9-2-5 2 8-4-4 2 8-5-5 3-4 4 14-16-3 5-5 7"/>
<path d="M12404 13672l-1 6-2 5-2 6-3 5-2 7-2 6-2 7 2-9-1 6-1 6-1 6 0 6 1 6-3-9 3 6 3 4 4 4 6 2-8-3 5 0-9 2 6-2-9 3 6-2 6-4-7 5 6-5-7 6 5-5 6-6-6 6 5-6 4-6-5 7 5-6 3-7 5-7 4-6-5 8 3-5 2-5 1-2 5-7 6-7 7-6 8-5 8-3 9-1 8 3 2 8-2 9-1 3-1 5 2-9-1 7-1 6-1 6-1 7 0 6 0 6 2 6-3-9 2 5 4 6 4 6 5 4 6 4"/>
<path d="M12735 13655l-4 4 9-9-4 5-4 5 6-8-4 6-3 6 4-8-3 7-2 6 2-9-1 7-1 6 1 7 2 7-3-9 4 7 5 6 6 6 8 6 8 4-8-3 9 3 9 2 11 2 12 0 13-1-9 2 14-3 14-5 15-5 14-6-8 4 14-6 13-7 13-7-8 4 11-7 11-7 8-8-6 6 7-6 6-7-5 6 6-7 5-7 5-7-5 7 4-6 3-7-4 9 3-6 1-5 1-2 3-8 5-7 6-7 7-6 8-5 8-3 9-2 8 4 2 8 0 2-1 5-2 6 0 7-1 7 0 8 0 9 1 8 1 9 2 10 2 9 3 11-2-9 3 11 4 10 4 10 4 10 4 11 4 11 4 12 5 12 5 12 5 13 5 13 4 14 3 8 3 14 3 14 2 15 2 14 1 15 1 14 1 13-1 12-1 12-2 11-2 9-4 11-5 11-4 8-5 10-7 9-5 7-7 10-8 9-9 9-8 8-8 6-9 6-11 6-8 3-12 5-13 3-9 2-14 2-15 0-15-2-9-1-16-4-16-5-16-6-16-8-15-9-15-11-16-13"/>
<path d="M2885 17310l-8 2-7 2-7 2-8 1-6 1 24-11-4 3 19-25-3 6-3 7-4 8-5 7-9 9"/>
<path d="M2903 18003l 57-35 0 5 1 5 0 5 0 4-2 9-4 8-5 8-9 9-8 5"/>
<path d="M2944 18235l 1 4 2 4 1 5-2-9 2 5 1 5 2 5 3 6 2 5 2 6 3 6 3 6 3 6 3 8 3 8 3 8 3 8 2 8 2 8 2 10 1 10 2 11 2 12 1 12 1 14 0 14 2 15 1 14 1 14 0 13 1 12 0 12-1 12 0 11-1 10-1 11-1 9-1 10-2 10-3 9-2 10-4 10-5 9-4 8-5 8-6 7-6 8-8 9-7 6-6 6-8 5-7 4-8 4-8 3-9 2-9 1-10 0-10-1-9-2-10-3-11-4-10-6-11-7-11-7-10-8-10-8-10-9-9-9-9-8-8-9-8-11-8-12"/>
<path d="M3110 17321l 2-8-1 7-1 10 0 13 2 14 2 14 3 15 4 16-2-8 6 19 9 21 9 19 11 19 12 18 11 17 11 15 11 17 14 19 13 20 12 18 12 22 12 29 11 34 2 7 9 33 8 30-2-5 9 25 9 21 8 21 8 22 2 6 7 25 5 28 5 30 4 32 1 35 1 35 0 33 1 30 0 28-1 28-2 27-3 28-5 28-5 29-7 29-2 5-7 28-9 28-8 27-9 26-9 24-10 21-10 19-2 5-10 18-8 15-10 15-4 6-11 14-12 13-9 9-11 12-12 11-12 9-7 6-11 8-11 6-9 6-8 3-10 5-10 2-9 2-11 2-12 0-9-1-4-8 1-9 4-8 5-8 6-7 6-6 8-4 9-4"/>
<path d="M997 18450l-1-4 4 8-3-3-3-3-4 0 17-1-5 1 8-4-5 3 8-5-5 4 9-9-5 5-4 6 5-7-5 7-5 8-5 9-6 10 5-8-5 11-5 11-5 12-5 13-5 14-4 13-3 13 2-9-3 13-2 13 0 13 0 12 1 12 3 10-3-8 5 9 7 9 9 7 10 5-8-3 10 2 11 0 15-2-9 2 17-4 17-5 17-6-8 3 15-6 9-3 9-2"/>
<path d="M1211 18495l-6 0 9 1-6 0-5 1 8-2-6 2-5 2 8-4-7 3-6 4 8-5-6 4-6 5-5 5-5 6 9-10-5 5-3 5 5-7-3 5 4-8-3 6-1 5 2-8-1 6 0 6 0 5 1 5-2-8 2 5 2 4 4 4 4 4 4 4 4 3 5 2 4 3 5 2-8-3 6 1 6 1 6 0 6-1 5 0-9 1 6-1 5-2-9 3 5-2 5-3-8 5 5-3 4-4-7 6 3-3 4-4-6 7 2-4-4 8 2-5-4 8 2-5 0-5-1 9 0-5 0-5 0-5-1-4-1-5-1-5-2-5-1-5-2-4-2-5-1-4 1-5 1-9 1-5 2-6 4-8 3-6 5-7 3-5 4-4 3-4 6-7 3-4 4-4 7-6 5-4 4-4 5-3 4-3 5-3 5-3 7-5 5-3 6-2 8-3 6-1 9-2 6 1 7 3 6 3 5 5 4 6 2 5 2 5 1 5 3 9 1 5 1 6 1 6 1 7 1 6-2-8 2 3-7-3 3 0-17 5 4-2-8 5 4-4-13 13 4-4 3-5 4-6 4-6 5-6 4-6 3-4 6-7 4-4 3-3 6-6 8-5 9-3 3-1 9-1 8 3 3 2 3 4 4 5 3 5 5 4 5 3 5 2-8-3 5 1 6-1-9 2 7-2 8-2-9 3 7-3 6-3-8 4 6-3 4-5-6 6 5-4 4-5 4-4-5 7 3-5-5 8 3-5 5-8 3-4 6-7 7-6 3-2 7-5 9-3 9-2 4 1 8 4 5 3 5 5 4 5 4 6 4 6 5 7 5 7 4 6 5 5 4 4 5 3 5 4"/>
<path d="M1648 18402l-2 4-3 6 5-8-3 7-2 7 2-8-2 8 0 9-1 12 0 12 0 11 0 11 1 11 1 12 2 13 2 13 3 13 2 13 3 13 2 13 2 13 3 14 2 13 3 13 3 14 3 14 3 13 3 13 3 12 3 11 2 11 2 10 2 9 1 6 1 3-3 8-4 8-5 8-9 9-7 5-8 4-9 2-9-1-4-8-1-3-2-8-3-10-3-12-4-13-4-16-4-16-4-17-3-18-4-17-4-17-4-18-4-19-5-21-5-20-3-17-2-17-2-18-2-17 0-15 1-13 1-9 2-12 3-13 4-14 4-13 4-10 4-8 4-8 5-8 5-7 6-7 6-6 6-6 5-4 8-5 5-3 6-2 9-4 6-2 7-1 9-2 7 1 8 1 8 3 7 4 6 5 5 6 4 6 2 9 2 5 0 7 0 8-1 9-1 9-3 9-2 9-3 9-2 9-3 9-4 10-3 9-3 10-2 8 2-9"/>
<path d="M1826 18287l 1 7 1 8 2 7-2-8 2 7 3 6 3 8 3 7 4 6 4 5 5 4 5 5 5 3 4 2-8-3 4 1-9 1 6-1-8 3 6-2-8 4 5-3-7 5 4-4-11 15 3-4 2-5-3 8 2-6 1-5 1-6-1 9-1-6-1-5 1-9 1-3 3-8 5-8 6-6 7-6 8-5 8-3 9-2 8 3 4 3 5 5 5 5 4 4 5 2 4 2-8-3 5 1 5 0-9 2 5-2-9 4 6-3-8 5 5-3 4-4"/>
<path d="M1987 17957l 14-16-2 3 4-8-2 5-1 4 2-8-1 5 0 6-1 6 0 7 0 9-1 10 1 11 1 12 1 14 1 18 2 16 0 14 1 12 2 13 1 13 2 13 2 13 2 12 3 12 2 12 3 12 3 11-3-8 4 9 4 8 4 7 6 8 6 6 5 4 6 2-8-3 7 1 8 1 8-1-9 2 7-2-9 4 6-3 7-4 8-5 9-3 9-1"/>
<path d="M1966 18180l 8-4-4 3-8 3-4 2-5 2-9 1-3 0-9-1-4-8 1-9 4-8 5-8 6-7 3-3 7-6 7-5 8-4 7-4 7-4 8-4 11-6 11-6 12-7 12-6 9-4 9-5 12-4"/>
<path d="M2226 18096l 7-1 7-1-9 2 7-2-8 3 6-2 5-3-7 4 5-3 5-4-7 6 4-4 5-5 4-4 3-4-6 7 3-4 3-4-5 8 2-4-4 8 1-4-1 9 0-5-1-5-3-6 4 8-4-5-4-4-5-3-5-2-6-3-6-2-6-1 9 2-6-1-7-1-8 0-7 0-7 1 9-2-7 2-5 2-6 2 8-4-5 3-6 4 7-5-6 5-5 4-5 6 9-10-6 8 5-8-5 9 5-8-4 9-4 10-2 9 2-9-2 8-1 8 0 8 2 8-2-8 4 8 5 7 5 7 7 6 6 5 7 4 8 4-8-3 11 3 12 4 13 3 13 3 12 2 11 0 10 0 12-1 12-2 13-2"/>
<path d="M5581 3205l 5-7 5-7 4-4-10 14 2-5-4 8 1-5 1-5 3-8 5-7 6-7 7-6 1-1 8-5 9-3 9-2 7 4 3 5 3 8 2 10 2 13 1 15 1 18 0 21 0 21 0 21-2 22-1 23-3 25-3 26-3 29-4 32-4 31-3 30-3 29-1 28-2 28-2 26-1 24 0 21 0 20 0 16 1 13 0 11-1 9 0 6"/>
<path d="M5595 3084l 3-3 7-6 4-4 5-3 7-5 6-3 6-3 8-3 8-3 9-4 10-3 11-2 13-3 9-1 12-2 13-1 13-1 14 0 13 1 15 1 13 1 14 2 13 2 12 3 11 3 8 3 9 4 8 4 7 6 5 6 3 7 2 9 1 8 0 11-3 11-2 9-5 14-8 15-4 8-9 16-11 17-13 17-5 8-14 17-14 16-9 10-16 16-15 16-16 16-16 15-15 13-14 11-12 10-10 9-10 7-7 5-8 4"/>
<path d="M6265 2676l-6 9-7 9-9 12-11 13-12 15-13 16-14 19 5-7-14 22-15 25-16 26-17 28-17 30 3-7-15 31-14 31-11 31-9 31-8 31 2-5-6 31-5 31-4 31 0 29 4 27 6 26 6 24-2-6 8 22 10 20 15 19 16 18 16 13 17 10 17 8-8-3 17 4 17 4 17 2"/>
<path d="M6301 2982l 3-8 2-4 4-7 6-7 3-4 4-3 7-6 4-4 8-4 6-3 8-3 6-2 9-1 7-1 7 1 6 1 7 2 8 3 7 3 7 5 7 5 7 6 7 6 6 6 6 8 5 9 6 11 5 10 5 10 4 11 5 13 5 13 5 15 5 15 5 16 6 15 6 15 7 14 8 14 7 13 7 11 8 10 9 8 9 7 10 3-8-3 9 1 10-1-18 5 10-4-8 4 10-6 8-5"/>
<path d="M6630 2912l-6 8-7 10 5-7-8 11-5 7-10 13-12 14-13 17-14 19-16 20-18 23-18 24-20 26 5-6-21 28-19 30-17 29-15 27 3-5-12 26-10 24"/>
<path d="M6863 3206l 8-4-4 4 7-5-4 4 9-9-4 5 5-7-4 6-5 8 5-8-5 10-4 11-5 12-6 14-5 14-6 16-6 14-7 14-6 14-4 8-7 14"/>
<path d="M7020 3032l 4-8-2 6-3 8-4 9-4 11-4 13-5 13-5 15-6 17-6 17-5 19-6 19-4 18 2-9-3 17-3 15-1 14 1 13 2 12-3-9 4 10 4 8 7 5-8-3 8 2 10-1-9 1 11-3-8 3 13-7-8 4 16-11 17-15-7 6 17-17 17-18 18-19 19-21 21-23 23-25 21-26-3 5 18-25-3 4 12-21 7-16-3 6 3-8 4-8 1-3 5-8 6-7 7-6 8-4 8-4 9-1 8 3 3 9 0 2-1 7-1 9-2 10-1 11-1 13 0 15 0 16 1 18 1 19 2 21 2 23 2 23 3 23 2 23 2 24 2 24 1 25 0 24 1 25-1 24-1 26-3 27-3 28-6 30-7 30-2 8-10 31-12 30-12 27-11 23-3 5-11 20-11 17-4 6-11 14-11 12-8 8-11 9-7 5-8 4-11 6-8 2-10 1-9-1-8-2-6-5-6-8-4-7-4-11-4-14-3-17 0-20 1-23 1-9 3-26 6-28 8-30 10-29 12-29 3-6 12-28 12-25 12-24 13-22 4-5 13-21 14-20 14-19 15-20 14-20 14-20 5-6 5-4 6-4 7-2 7-2 6 3 2 6-2 7-3 7-15 20-14 20-5 5-14 20-15 20 4-6"/>
<path d="M7419 2716l 6 5 7 5 7 7 7 9 9 10 10 12 10 13 11 13 11 16 11 16 11 17 12 18 11 17 12 19 11 20 10 20 9 22 10 21 8 22 6 23 2 8 5 23 4 25 3 28 0 29-1 30-3 30-4 31-5 30-7 30-2 6-7 28-9 28-11 29-11 29-11 28-12 27-12 26-3 5-16 28-20 31-22 32"/>
<path d="M7987 3081l-7-3 7 1 6-2-9 2 6-2 7-2 7-3 8-3 8-3 11-3 10-3-8 3 9-5 10-4 9-3 12-5 15-5 14-5 11-3-8 3 9-4 8-4"/>
<path d="M7947 3230l-8 2-3 1-9-1-4-8 1-9 4-8 4-7 2-3 6-7 5-4 7-6 5-5 7-6 8-5 8-4 9-5 11-6-8 5 11-7 12-8 8-5 16-8 20-10 19-9 16-8 16-7"/>
<path d="M9672 2416l 0 8-1 10-1 11 0 14-1 14 0 16 0 17 0 16 0 17 0 16 2 16 2 15 1 15 2 16 1 13 1 13 2 11 2 11-3 9"/>
<path d="M8708 3091l 4 1 11 0 16-1 20-3 25-4 28-3 30-3 34-3-7 1 37-4 40-7 44-9 47-10 49-10 51-11 54-11 63-14 76-16 80-15 74-13 69-12 5-1 67-11 66-10 65-8 64-7 63-7 59-8 59-6 56-4 54-4 51-2 47-3 43-3 40-3 37-1 34 0 31 1 28 2 25 2 22 1 19 1 16 2 12 4 7 2 6 6 2 8 1 7-2 9-4 8-5 8-9 9-8 5-8 4-8 2-9-1-4-8 0-8 4 7-4-7-9-7"/>
<path d="M9018 3328l 3 6 2 9 2 9 1 13-1 16-1 18-2 18-1 19-3 21-2 23-2 22-3 22-2 20-3 20-1 22-1 22 1 18 1 15 1 13-2 9"/>
<path d="M9314 3419l 6-3 7-3 10-2 11-2 13-4 14-4 16-4 18-4 9-2 19-3 20-2 21-2 21-2 21-2 21-3 8 3"/>
<path d="M9890 3305l 3-4 3-5 4-5 6-7 6-6 6-4 7-5 8-5 8-4 9-5 10-4 8-3 10-4 11-3 11-2 9-2 11-1 12-2 11-1 12 0 12 1 11 2 10 2 11 3 9 3 8 3 9 6 8 6 7 7 7 9 7 10 6 12 4 12 2 8 3 12 3 12 3 12 2 14 3 14 3 16 3 17 4 17-2-9 5 16 7 17 7 16 8 16 8 15 8 13 9 12 10 9 11 9 11 7-8-4 12 4 11 1 11 0 8 3"/>
<path d="M10276 3315l 8-2-9 3-10 4-13 4-14 6-17 6-20 6-22 8-22 8-22 9-23 11 8-4-23 12-23 13-23 13-22 14-22 15-22 15-20 14-17 12 7-5-14 12-11 10-8 8"/>
<path d="M11013 2975l"/>
<path d="M12664 2354l 2-8-1 9-1 9-1 11-1 12-1 12-1 14 0 13 0 13 1 14 1 14 1 13 2 13 1 14 3 14 2 14 2 14 0 12 1 13 0 13 0 13-1 13-1 13-1 12"/>
<path d="M11453 2957l 13 1 14 0 17 0 23-1 31-2 35-2-7 1 39-4 43-6 5-1 47-7 52-8 52-8 53-9 55-8 59-8 63-8 69-7 74-8 78-8 81-8 78-6 72-4 72-3 77-2 83-1 87-1 88 0 89 0 90 1 89 3 89 4 87 3 83 5 81 4 78 6 75 5 71 5 66 4 63 3 62 2 64 2 67 2 62 3 51 3 42 2 33 2 29 2 30 0 37 0 7 3 2 7-2 8-4 8-5 6-8 9-6 5-8 3-8 2-8-1-24-15"/>
<path d="M11609 3420l 1 8 1 8 0 10 1 10 0 12-1 13-1 14-1 14 0 15-1 16-2 16-1 16-2 15-2 17-1 16-2 17-2 17-3 17-2 15-2 15-2 16-2 14-1 15-1 14 0 14-2 8"/>
<path d="M11860 3675l 5-2 5-3 6-2 7-2 7-2 9-3 10-2 9-1 13-2 13-2-9 1 10-2 11-4 12-2 9-2 13-1 14-1 15-2 17-2 17-2 19-1 20-1"/>
<path d="M12506 5341l 10 6 9 8 8 9 7 12 8 14 8 16 9 19 9 20 11 21 11 23 13 23 14 24 15 23 16 25 16 25 15 28 15 30 14 30 15 27 12 24 13 27 14 35 11 38 2 5 8 38 6 36 4 36 0 38-2 39-5 40-7 41-10 40-1 5-12 38-13 33-11 29-12 27-14 31-18 36-21 42-3 4-22 41-22 39-22 34-2 4-22 29-4 4-22 24-23 20-26 19-4 2-23 18-5 2"/>
<path d="M10786 6885l 4-7 4-7 6-7 7-6 6-5 8-5 8-5 10-5 9-3 12-5 15-5 18-6 19-6 24-8 29-8 33-7 8-2 32-5 28-5-5 1 30-5 5-1 35-6 38-6 43-5 46-6 54-7 73-10 96-12 102-13 97-12 90-10 86-8 84-7 83-5 84-5 84-4 84-3 84-3 83-1 81-1 77 0 74 1 71 3 67 2 64 2 59 2 56 3 52 4 49 5 44 5 39 5 35 6 30 7 27 7 22 4 19 3 15 2 11 3 7 3 8 3 4 5 2 8 1 6-2 9-4 8-5 7-10 10-7 5-8 4-9 2"/>
<path d="M10931 9062l 11 4 7 7 6 7 4 7 4 7 5 7 6 6 8 6 9 6 11 5-8-3 13 4 13 3 13 4 12 2 12 3 12 2 13 3 14 1 15 2 16 0 20-1 23-2 24-3-9 2 24-4 21-5 20-6-8 2 18-8 17-9 17-10 17-10-7 5 16-11 17-13 18-14 18-14 19-16 21-15 21-17 22-17 24-18 25-18 26-17 27-17 5-3 27-15 26-16 26-14 27-13 27-12 5-1 28-11 28-9 30-7 30-5 5-1 30-4 30-2 30-1 29 1 28 2 28 4 29 6 29 8 28 9 28 10 5 2 27 11 27 13 25 14 24 15 22 16 21 16 19 16 18 15 16 16 16 16 15 16 14 15 15 15 13 14 14 13 12 10 13 8 12 7 11 7 12 5-8-3 13 5 13 2 13 2 15 0 14-2-9 2 15-4 16-5-8 3 16-8 18-11-8 5 18-12 19-14 20-15 20-15 22-15 24-15 7-4 25-14 26-12 28-11 6-3 28-9 28-8 29-8 29-6 30-6 5-1 30-4 30-4 32-3 32-2 33-2 33-1 35-1 34 0 35 1 36 1 35 1 36 0 38 0 40-2 40-2 40-2 40-3 39-4 37-4 36-6-4 1 35-7 35-8 33-9 33-10 31-10 29-11-4 1 26-12 25-15-4 3 22-17 21-18-4 3 18-19-4 4 16-20 14-20-3 5 12-20 11-20 9-18-3 6 7-17 5-15 3-14 2-12 2-11 1-9 2-9"/>
<path d="M8884 9119l 25-4 23-4-7 1 22-5 22-6 22-6 24-6 6-1 25-4 26-4 27-2 28-2 29-1 31 0 32-1 33-2 33-3 34-5 35-4 38-4 39-5 41-4 41-4 41-3 39-3 37-3 36-4 35-4 33-4 32-3 32-2 30-2 29-2 28-2 26-1 24-2 23-1 21-2 19-3 16-2 15-1 12 0 11 1 8 1 8 3 3 2 3 9-3 8-4 8-2 3-5 8-9 9-7 5-7 4-10 5-8 4-12 5-14 5-17 4-20 5-22 5-9 2-24 4-27 3-28 1-30 1-30 1-32 2-33 2-35 3-37 5-41 5-43 5-44 4-46 4-47 3-47 4-49 3-50 3-51 2-52 1-52 1-51 0-50 2-50 1-50 0-48-1-45-2-42-2-38-2-34-1-31-1-28-1-27 0-27 1-25 3-19 1-11 0-9-1-4 0-4-8 1-9 4-9 5-7 6-7 6-6 8-5 9-3 9-2 4 0 8 0 13 0 15-2 18-3 19-2 23-3 25-2 29-2 32 0 35-1 39 0 43-2 46-6 48-7 51-9 53-8 55-7 56-6 58-6 57-7 58-7 59-5 59-4 60-3 60-4 59-3 59-2 59-1 57 0 57 0 55-1 53 1 53 0 51 2 48 2 46 2 43 2 39 2 34 2 31 1 28 2 25 1 22-1 20-2 17-1 12-1 4-1-43 54-5-1 9 2-11-2-15-1-18 0-19 1-9-2-4-8"/>
<path d="M14287 7857l 1-8 0-5 4-8 4-7 6-7 7-6 5-4 7-5 9-3 8-3 13-2 9-2 17-2 19-3 22-3 24-2 27-1 27-2 27-2 25-3 24-3 22-4"/>
<path d="M4808 10686l 6-1 7 0 8 0 9 0 13 0 17 0 23-1 27-2 28-2 29-3 29-3 32-3 35-3 37-3 40-2 42-5 45-6-5 0 46-8 5-1 48-8 51-8 52-7 55-7 55-7 57-6 60-6 62-6 63-7 64-6 62-4 60-3 57-2 57-3 56-1 53-1 49-1 47-1 43-1 40-2 37 0 34 1 30 2 26 0 23 0 19-2 15-1 11 0"/>
<path d="M7133 10712l-4-1-3-2-4-8"/>
<path d="M7630 10753l 1-4 3-8 5-7 6-7 2-4 7-5 8-5 5-3 8-3 7-2 8-2 9-1 10-2 12-1 14-1 16-1 19-1 22-1 24-1 27-1 30 0 30 0 32 0 37-2 43-5 51-6 58-7 61-8 65-8 66-8 70-8 71-8 72-6 73-7 73-6 76-6 75-5 77-5 79-5 81-5 80-5 81-4 81-2 82-2 80-1 79 0 78 0 76 0 75 0 73 0 70 1 67 2 65 1 63 1 59 1 54 1 49 2 45 1 40 1 36 0 32 1 28 0 26-1 26-3-6 1 23-6 16-5 10-3 9-2 8 3 2 9-2 9-4 8-6 8-9 10-8 5-8 4"/>
<path d="M7687 11045l 2 8 2 7 1 7 1 8 0 9 0 10-1 12-1 14-2 17-1 18-1 19-2 20-3 21-3 23-3 24-1 23-2 22-1 19 0 18-1 18 0 18 0 19 1 19 1 19 1 17 1 17 1 16 0 15 1 13 0 13 0 12 0 11 0 9 0 9-1 7 0 7-1 5-1 5-2 9-5 8-5 7"/>
<path d="M8738 9655l-11-5-11-5-11-4-11-5-12-4-12-3-12-3-13-3-13-3 9 2-13-2-14-1-16-1-16 0-17 1-19 2-21 3-23 3-24 4-24 5-26 5 8-2-27 7-28 7-29 9-30 9-32 11-34 12-36 14-38 16-39 18 4-2-38 19-38 20-38 20-37 22-37 22-38 22-38 24-38 24-36 25 4-3-35 26-32 26-31 27-29 27-27 26-25 26 4-4-23 26-23 25-21 27 3-4-20 27-18 29-15 29 2-4-14 30-11 31-8 29 1-4-6 29-3 28-1 25 2 24 5 21-2-5 7 18 10 16 12 15 13 14 16 13 17 12 18 11 19 12 21 11 21 10 22 9-7-3 23 9 23 7 24 7 24 8 25 7 25 7 26 8 27 7 26 6 26 6 27 4 27 4 28 2 29 2 29 2 31 1 31 1 32-1 32-1 32-2 32-3 32-4 31-5 31-4 32-4 31-4 31-4 31-2 32-2 31-1 30-2 29-1 29-2 28-2 28-2 29-2 29-3 30-3 31-3 30-4 31-4 31-4 31-4 30-5 31-4 30-3 29-3 30-3 30-2 30-1 30-2 30-1 28-1 28-1 27-2 26-2 26-2 26-2 27-3 27-2 28-3 28-3 28-2 28-1 28-2 27-1 27 0 27-1 26 1 27 0 26 0 25 0 25 1 26 0 25 1 26 1 25 2 25 1 24 1 24 0 22 0 23-2 22-1 22-2 22-1 23-2 22-2 22-2 23-3 22-4-8 1 22-4 22-5 21-5 20-7 20-7-8 3 19-10-7 5 16-11 16-12 14-13-7 6 13-13 12-14-6 6 11-14 10-15-5 8 8-16 8-18-3 9 6-20 6-21 4-22 3-23-1 9 2-23 1-23 0-22-2-23-2-22-4-21-5-21-6-20-7-20-8-20-10-21 4 8-10-21-12-22-13-22-14-23-17-24-17-24-20-24-21-25-24-24-26-23-27-21-28-20-29-19-30-18-30-16-32-16-33-16-34-14-35-14-37-14-37-12-37-12-38-11-37-10-39-8-40-7 5 0-42-6-44-6-45-5-46-5-46-3-47-4-47-3-48-2-49-1-49-1-49 0-49-1-50 0-49 0-49 1-47 3-46 3-44 4-42 4-41 5-39 4-37 6-35 6-34 6-32 7-31 6-5 0"/>
<path d="M7582 12109l-5-1-5 0-6-1-5-2-6-1-5-1-4-1-2-1-4-8 1-9 3-8 5-7 6-7 2-2 7-6 8-5 8-3 5-1 9-2 7-1 7-1 9-1 10-1 10-1 12 0 14 0 15 1 16 0 18 1 19 1 21 2 22 2 23 1 24 2 25 1 25 1 25 1 26-1 25-1 27-1 26-1 28-1 29 0 30 1 31 1 32 2 33 2 33 2 34 1 36-1 37 0 39 0 40 1 41 1 40 0 41-1 40-2 40-3 41-4 42-3 42-4 43-3 43-4 43-3 42-4 42-3 42-4 42-3 42-2 42-2 42-3 41-2 40-2 40-2 40-2 40-1 40 0 38-1 38-1 36 0 36 0 35 0 34 0 33 0 33 0 33 2 33 1 32 2 31 1 33 1 35 1 33 1 30 1 28 0 27 1 26 0 25 0 25 1 24 0 23 0 22-2 22-1 21-2 19-1 17-2 17-2 16-2 15-2 14 0 13-1 12-2 12-1 12-2 12-1 12-2 11-2-9 1 11-2 9-1 11-2 10-1 10-2 9-1 9-1 8-1 7-1 8-1-9 1 8-1 8-2 7-1 9-2 7-1 7-1 7 0 6 0 5 1 8 3"/>
<path d="M10409 10556l 7 0 6 0 6 0 7 1 8 0 10 1 11 0 13 0 17-1 21-1 22 0 24 0 24 0 24 0 24-2 24-2 26-2 28-2 29-2 32-2 33 0 34 0 35-2 36-2 38-4 40-4 43-3 45-4 48-3 49-4 49-4 49-5 49-4 50-3 51-3 50-2 47-3 41-2 40-3 43-3 51-3 60-4 61-3 57-3 49-5 41-3 38 0 41 1 47 1 52 2 52 0 49 1 42 2 36 2 33 1 36 1 42 2 47 2 47 1 44 1 40 0 37 0 36 1 35 1 34 1 33 0 33 1 30-1 28-1 26-3 24-4-5 1 22-5 21-5 19-4 18-5 17-5 16-6 13-5 9-1"/>
<path d="M15741 11241l 7-5-4 3-4 5 9-10-4 5 6-7-3 4 4-8-1 5 2-9 0 5 1 5-3-8 2 5 2 5 4 4 4 4 6 3 6 3 6 2-8-3 6 1 6 1 8-1 9-1-9 2 9-2 9-3 9-2 8-3-9 3 8-3 6-4-8 5 5-3 5-3 4-4-7 6 3-4-5 7 3-4 3-4-5 7 2-4-4 9 1-4-1 9 0-4-1-3 4 8-3-4-4-4-5-2-6-1 9 2-5 0-6 1 9-2-7 2-7 4-8 3 8-3-7 3-6 4 7-5-5 4-5 5 9-9-5 5-4 6 5-7-4 6-3 5 4-8-2 6-2 6 2-9-1 5 0 5 1 5-2-8 2 4 4 3 5 2-8-3 6 2 6 0 6-1-9 2 6-2-8 3 6-3 7-4-8 5 7-5 8-6 7-5-7 6 6-6-5 7 4-5 4-6 3-5 4-4 2-5-4 8 2-5-4 8 2-5-1 9 0-4-2-4 4 8-3-4-4-2-4-2-4 0 9 1-5 0-4 1 9-2-5 1 8-3-4 2-4 3 7-6-4 4 15-17-3 4 4-8-2 5 3-9 0 5-3-9 2 5 3 3 5 3-8-3 5 2 4 1 5-1-9 2 4-1 4-1-9 3 4-2-8 5 4-3 3-3-6 6 3-4-11 15 3-5-4 8 2-5-1 9 0-5-1-5 4 8-3-4-2-3-4-1-3-1 9 1-4 0-4 1 9-2-5 1-5 2-6 2-6 3-9 2-9-2"/>
<path d="M15057 11203l-2-8 2 2-53 35 0-2 3 17-3-4-4-4-4-3 9 2-4 0 17-6-5 3 8-6-4 4 14-17-2 4 7-17-2 5 0 9 1 9-2 9-4 8-6 7-9 10-7 5-8 4"/>
<path d="M15212 10665l 2 9 2 14 2 16 2 17 1 17 2 18 2 19 4 21 4 21 5 21 4 20 5 25 5 32 4 33 5 29 6 27 8 27 8 29 8 33 9 37 9 40 11 43 11 45 11 45 13 46 13 48-1-5 14 48 14 48 15 48 15 47 15 46 15 44 16 43 15 41 14 39 14 36 12 36 12 33 10 30 11 27 9 23 10 20 9 17 9 13 8 11 5 10 2 8 3 10 2 8 2 7"/>
<path d="M15083 11587l 7 2 7 4 6 5 8 6 7 7 9 10 11 10 12 12 14 13 14 13 15 14 15 14 14 15 15 15 16 15 15 16 16 16 15 17 15 17 15 17 14 17 15 18 15 18 15 17 15 15 15 15 14 14 13 13 11 12 11 11 9 10 8 9 8 8 6 8 6 7 4 5 4 4 3 3 2 4 2 4 1 3 3 9"/>
<path d="M15418 11853l-2-8 2 4 2 4 2 5 4 5 3 7 5 7 5 8 6 9 7 10 8 11 7 9 7 9 7 10 7 10 8 11 8 10 9 11 8 9 8 9 7 9 7 10 7 10 6 9 6 9 6 9 5 8 5 8 5 7 5 7 4 6 4 6 4 5 3 5 3 5 2 3 3 9 1 3-3 8-4 8-5 8-9 9-3 2-7 5-8 4-4 1-9 2-5 1-7 0-6-1-9-2-8-1-8-2-8-2-9-3-10-3-9-4-11-5-11-5-11-5-12-5-11-4-12-5-11-6-11-5-11-6-11-5-10-5-8-4-8-4-6-3-6-3-5-2-4-3"/>
<path d="M15459 11988l 6 5 5 6 5 5 6 6 5 5 6 6 7 6 7 6 6 5 7 4 6 6 6 6 5 7 6 6 6 4 5 4 6 4 5 5 6 4 6 3-8-3 6 1 6 1 5 1 5 1 5-1-9 2 4-2-8 3 4-2-8 5 5-4-7 6 4-4-5 7 4-6-5 8 5-7 4-8 4-8 3-9-3 8 3-8 3-10 1-10 2-11 1-10-1 9 0-10 0-10-1-10-2-10-2-11-2-11-1-10"/>
<path d="M15751 11570l 14-16-3 4 5-8-3 6 3-9-2 7-1 7-1 8 0 9 1 10 0 14 0 13 0 13 0 13 0 14 1 15 0 16-1 16 0 17 0 17 1 18 0 19 0 19 0 20 1 20 0 21 1 20 0 20 1 19 0 20 0 18 0 18 1 16 0 14 0 14 1 14 0 12 1 10 1 10 0 9 1 7 1 7 0 6-2 9-4 8"/>
<path d="M15659 12011l 1 4 1 5 1 5-2-9 1 6 3 5 5 6 4 7 5 6 6 6 6 7 6 6 5 8 6 7 6 7 7 7 8 6 7 6 7 5 8 4 7 4 6 3-8-3 7 2 5 2 7 0 6 0-9 2 7-2-9 3 7-4-8 5 8-4 7-6 7-5-7 5 7-7-6 7 7-8 7-10 7-9-5 7 6-10 6-13-3 8 6-15 5-14 4-12 2-10 2-9 2-8 1-9-1 9 1-10"/>
<path d="M15685 12392l 7-5-4 3-3 3-3 4 9-10-3 4 5-7-2 4 4-8-2 4-2 5-1 5 2-9-1 4 0 4 0 5 1 4 1 5-2-9 1 4 2 5 3 5 3 4 3 3-7-3 4 1 6 1 5-1-9 1 5-1-8 3 5-2 5-3-8 5 5-3 5-4-7 6 4-4 4-4-6 7 4-5-5 8 2-4 2-4-4 8 2-4 1-4 0-4-1 9 0-4-2-3 4 8-2-3-3-3-4-2-5-1 9 2-5-1-4-1-5 0-5 0-5 0 9-2-5 1-4 2 15-9-4 3-4 4 9-10-3 4 6-7-3 4 4-8-2 5-1 4 2-8 0 4 0 5-2-8 1 4 2 5 2 5 3 4 3 4 4 2 4 3-8-3 5 1 5 0-9 1 4-1-8 3 4-2-8 5 4-3-7 6 4-3-6 7 2-3-5 7 2-3-3 8 1-4 1-5-1 9 0-5-1-6-1-6-1-5 4 8-3-5-3-5-4-4-5-3-4-2-4-2-4 0 9 1-4 1 9-2-4 1 8-4-4 2 7-5-3 3 9-9-3 3-4 4-3 4-9 9"/>
<path d="M15138 9691l 5 5 3 6 3 9 2 8 3 10 1 9 1 8 0 10 0 10-1 11-1 12-1 11-1 13-2 16-2 16-2 17-1 17-1 17-1 18-1 21 0 19 0 17 0 12 1 9 1 8 2 8-2 9-5 8"/>
<path d="M15132 9926l-4 4 21-33 0 4-3-8 3 4 5 3 6 3-8-3 7 2 7 2 8 1 10 0 12 0 11 0 9-1 9-1 10-1 11-2 12-2-9 2 12-3 9-1 10-2 11-1 15-1 15-1 15-3-9 2 15-3 15-4 17-4 19-4 19-4 10-1 20-3 20-3 20-4 20-3 19-3-9 1 19-3 18-3 17-4 15-3 13-3 12-2 12-2 10-2 9-2 8-1 6 0 5 2 6 1 7 3 3 9"/>
<path d="M15756 9678l 5 6 5 7 4 8 4 7 4 8 3 9 3 9 4 11 2 8 3 11 2 10 2 11 3 11 3 12 2 12 2 12 2 11 1 12 3 12 3 12 2 13 3 12 3 12 1 11 2 11 2 11 1 11 2 12 1 13 1 15 1 14 2 11 1 8 0 7 0 6 0 6 0 6"/>
<path d="M15424 9344l 6 4 5 6 2 7 3 9 2 8 2 10 3 11 2 11 2 11 1 10 0 10 2 12 1 12 2 11 2 12 1 10 2 10"/>
<path d="M7332 12740l 2 8 2 7 1 8 1 8 0 8-1 10 0 11-1 13-2 16-1 18-2 19-2 22-3 22-3 24-4 26-5 26-5 26-6 26-5 25-5 25-3 25-2 23 0 23 0 21 3 19 3 18 5 15-2-8 6 14 6 12 7 10 9 10 10 8 13 7-7-3 15 5 18 3 20 2 22 1 24 0 26-2 27-3 29-4 30-4 31-5 32-6-5 1 34-6 36-7 38-8 42-7 4-1 44-7 44-8 46-7 47-8 48-7 50-7 52-7 53-5 53-5 54-4 55-3 57-3 58-2 60-2 60-2 61-1 63-1 64 0 67 1 67 2 68 2 69 1 68 2 69 2 68 1 67 1 66 2 65 2 63 2 61 1 57 2 54 1 53 0 50-1 47-1 44-1 40-1 36-2 32-2 28-3 25-3 22-4-6 1 18-4 15-6-6 3 11-7-7 4 8-7-7 6 5-6-14 22 1-6-1 9 0-7-3-9-4-8 4 7-6-9-8-11-9-11-11-12-10-13-11-14-11-15-12-15-12-17-12-19-12-21-12-24-4-8-11-25-10-27-10-27-10-27-10-25-11-26-11-25-10-24-9-24-9-24-7-24-7-25-6-25-5-25-4-24-3-22-3-21-2-18-2-15-3-13-1-10-1-8 0-8 1-9 3-8"/>
<path d="M10531 12721l 25-29-2 5 3-9-1 8-2 12-2 15-2 17-2 17-2 16-2 15-1 15 0 17 0 18 1 19 2 19 2 20 3 19 4 20 5 18-2-8 5 17 6 17 7 15 8 13 9 13 9 11 10 11 11 8 11 8 12 6-8-4 14 5 16 3 16 2 19 1 20-1 23-1 27-3 31-4 35-4 37-4 35-3 35-4 34-6 36-5 36-4 37-3 38-2 39-2 39-2 40-3 41-2 42-2 43-1 44-1 46 0 48-1 49-1 49-1 51-1 52 0 52 1 52 2 51 1 51 1 51 1 51 1 52 3 51 4 50 3 49 3 48 3 49 5 49 5 49 6 48 6 46 5 45 3 44 3 43 3 42 2 42 3 41 3 40 2 38 2 37 1 34 1 33 0 32 0 29-1 28-2 25-1 23-2 22-2-6 1 20-4 17-5 15-6-8 3 12-6-8 5 9-7-7 6 7-7-6 7 5-7-5 8 4-8-4 8 2-9-1 9 1-12-1-13-3-16-4-17-5-20-6-21-8-23-9-24-9-26-9-26-9-26-9-27-9-27-9-26-10-26-10-27-11-28-9-30-9-30 0-6 3-5 3-5"/>
<path d="M7068 11843l 8-4-18 9-19 13 8-5-20 18 9-9-20 24 5-7-19 30-19 35 3-6-19 38-17 39-16 42-18 46-20 53-21 58-20 55-16 44-15 42-17 48-17 55-18 60-17 62 1-5-16 68-18 86-21 112-16 112-9 98-2 85 4 77 11 71 19 67-2-4 27 65 37 62 46 58 55 52 60 46 1 5"/>
<path d="M2661 17320l-5 1 16-5-4 2 16-14-5 6 6-8-6 11-7 13 4-8-8 16-8 20-8 22-9 25-9 25-9 26-10 26-9 27-10 30-11 32-11 35-10 38 1-5-9 41-8 41-8 42-7 42-7 45-6 46-5 48-3 49-2 47-1 45 1 43 2 42 4 40 5 37 5 35 7 33 8 32-1-4 9 29 10 26 11 23 12 21 14 20 13 18 14 16 13 12 13 8 13 6-7-3 12 4 12 2 11 1 11 0-9 1 10-1 10-3 9-2 8 3"/>
<path d="M2940 17483l 0 5-1 6-1 8 0 9-1 8 0 8-1 9 0 9 0 9 0 9 0 11 0 10 1 8 1 7 1 9 2 9-2-8 2 8 3 6 2 6 3 5 3 4 4 4 2 8"/>
<path d="M13022 3307l 8-5 6-3 8-3 6-2 7-1 6-2 7-2 9-1 6-1 6 1 7 1 7 2 8 3 8 4 8 5 8 7 7 7 6 7 7 9 6 9 6 10 5 10 5 10 4 9 5 8 5 9 5 8 6 7 6 6 8 7 8 6 8 5-8-4 9 3 11 1 12-1-9 1 13-2 13-4-9 3 14-6"/>
<path d="M13311 3315l 7-5-7 7-9 7-7 5-10 6-12 7-14 8-14 10 7-5-14 10-15 12-17 12-7 5-18 13-19 13 8-5-20 15-20 17-21 17-20 17-18 14-16 15-17 15-17 15"/>
<path d="M12685 3663l 6-1 7-1-9 1 8-2 10-3 12-3 15-3 9-1 18-3 20-2 22-3 23-3 25-3 25-3 26-3 27-4 29-4 30-4 31-4 33-3 33-4 33-4 33-5 31-6 31-4 30-5 30-4 29-4 29-3 29-3 27-2 26-3 25-2 23-2 21-2 19-1 17-1 14-1 12 0 9 1 8 3 6 4 4 5 2 6 3 8-3 9"/>
<path d="M12799 3918l-1 5-1 5 2-9 0 6-1 7 0 8-1 7-1 8-1 8-1 9-1 9-2 9-3 9-2 10-3 9 3-9-3 10-1 10-2 9-1 8"/>
<path d="M12932 3918l 4-3 8-3 5-2 6-2 6-1 8-3 9-4 11-3 11-4 12-3 13-4 13-3 13-2 9-2 14-2 13-2 16-3 22-2 23-2"/>
<path d="M13315 3781l 5 1 5 2 5 2 5 1 8 3 4 2 5 3 5 3 5 4 4 4 5 4 4 5 5 5 4 7 4 7 3 7 3 7 3 7 3 8 3 8 4 7 3 7 3 8 3 8 4 8 4 8 4 8 4 7 5 6 5 5 5 5 5 5 5 6 6 5 8 4-8-4 7 3 8 2 8 1 8 3"/>
<path d="M13473 3873l-7 4-9 5 8-4-10 5-10 5-11 6-13 7-12 7-13 8-13 9-13 9 7-6-12 11-13 10-12 10-11 10-10 10 9-9-9 9"/>
<path d="M13972 3543l-3 6 4-8-3 6-2 7 2-9-1 7-1 8 0 8 0 8 0 9 1 10 3 9-3-9 3 9 4 8 5 8 6 7 8 7 7 5 8 4-8-3 8 3 8 2 9 2 11 0 11-1-9 1 11-2 12-3 12-4 12-4-8 3 11-5 10-6-8 5 10-7 10-8-7 6 8-8 8-8-6 7 6-7 5-8-5 8 4-8-4 8 3-7 2-6-1 9 0-7-1-6-2-6 4 8-2-4-2 0 54-43-1 4 2 7-2-8 2 8 3 9 3 9 4 9 4 10 5 9 5 9 4 9 4 9 4 9 4 10 5 10 5 10 5 12 5 11 5 11 5 11 5 12 5 12 4 12 4 13 2 8 4 13 3 15 2 16 2 16 2 17 2 17 1 16 1 15 0 16-1 15-2 15-3 13-2 9-4 13-5 11-4 12-6 10-4 8-6 10-6 9-6 7-9 9-7 8-9 7-7 6-9 6-11 5-8 4-11 4-11 4-9 2-12 2-12 2-11 2-12 1-12-1-11-1-9-1-12-2-12-3-12-2-11-3-11-4-11-4-11-4-10-5-10-5-9-6-9-7-9-6-9-6-9-6-4-8 1-9 4-8 5-8 6-7"/>
<path d="M12932 5039l"/>
<path d="M12950 5253l 1 8 2 7 2 8-2-8 2 8 3 9 4 9 3 8 4 9 4 8 5 9 4 8 4 9 4 9 5 9 5 9 5 9 4 10 4 10 4 10 4 10 3 11 2 9 3 11 2 11 2 11 1 10 0 11-1 10-2 10-2 10-2 9-3 8-4 8-4 8-4 8-6 9-5 7-7 8-9 9-7 7-7 6-8 5-7 5-7 3-8 4-7 3-8 3-8 2-8 1-8-1-9-2-8-1-8-2-8-3-9-4-8-5-9-6-9-7-9-7-3-8 0-8"/>
<path d="M3925 5632l 6-3-7 4 4-3 6-4 6-4 7-5 8-4 6-4 7-3 7-3 9-5 9-5 10-6 11-5 12-7 14-8 14-8 15-7 16-6 8-4 18-7-9 4 18-8 20-8 8-4"/>
<path d="M3957 5672l 9-9-5 6-5 7 5-7-5 7-4 7-4 6 5-8-4 9-5 11-3 13 2-9-3 12-3 13-3 16-3 18-3 21-3 22-3 24-3 26-4 26-5 28-4 28-3 28-4 30-4 31-4 34-5 37-4 38-3 34 0 26 1 21 3 20 5 18 4 19 4 17 4 17 5 16 5 15-2-8 6 14 5 13 5 12 6 11 5 10 6 9 6 8 6 7 6 6 7 4 6 3-8-3 7 3 7 1 7 1 8 0 7 0 9-1-9 1 8-1 8-2 9-3 10-2 10-3 9-2 9-3 8-2 7-2 7-2 6-2 6-1 9-2"/>
<path d="M4169 6007l 7-6 7-4 4-3 8-3 9-2 4 1 8 3 3 4 3 6 2 9 2 8 1 11 0 13-1 12-1 12-1 13-1 14 0 14 0 15 0 15 2 13 2 13 2 11 3 10-2-8 3 9 4 8 4 6 5 4-8-4 5 2 6-1-17 5 8-3-8 4 9-6-6 6 10-10 10-11-6 7 10-12 9-12 9-15-5 8 11-17 9-18 7-15 6-14-3 8 5-14 6-16 6-17 5-15 4-12 3-11 2-10 1-9 1-6-1 9 0-2 51-19-2 3 4-8-2 7 2-9-1 8-2 10 0 11-1 13 1 15 0 15 1 15 2 16 2 17 3 19 4 18 3 16 3 14 3 13 4 14 3 15 3 17 3 18 3 19 3 20 3 21 3 22 2 23 2 23 0 24 1 24-1 25 0 24-1 22-2 20-2 18-3 18-4 17-2 9-6 16-6 15-4 8-7 13-7 12-5 7-7 10-8 9-9 9-9 7-7 5-9 6-8 3-9 4-9 2-9 1-10-1-9-1-10-2-9-4-10-5-9-6-9-9-8-11-8-13-4-8-7-16-7-20-5-23-3-29-1-31 0-30 1-27 1-24 1-7 3-7 3-5"/>
<path d="M4533 5677l"/>
<path d="M4565 5851l 0 4 1 6 1 6 2 7-3-8 3 6 4 7 5 8 5 8 5 8 5 10 6 9 5 10 5 8 4 8 5 8 4 8 5 7 5 9 4 8 3 11 4 12 2 8 4 12 3 12 2 11 1 11 1 10 0 9-1 10-1 11-3 9-2 10-3 8-4 7-4 8-4 6-5 8-5 6-5 5-9 9-5 5-5 4-6 5-8 6-7 5-7 3-8 4-9 2-6 1-7 0-9-2-8-2-8-3-8-5-7-7-5-8-4-8-5-10-3-12-2-14-1-15 0-17 1-9 3-8"/>
<path d="M4674 5489l 8-3 8-4 8-2 9-3 11-3 11-3 10-3 12-4 14-3 14-4 13-3 12-3 11-3 9-3 8-2 6-1 6-1 6-1 6-1 9-2 5-1 6 0 6 2 8 3 5 3 5 6 4 6 3 8 2 9 3 8 2 10 1 10 1 10 1 11 1 12 2 14 2 15 2 17 3 19 3 22 4 26 3 29 4 28 3 28 3 26 4 29 3 32 3 32 4 27 4 27 6 28 4 28 4 24 3 22 2 23 3 25 1 27 2 30 1 33 0 31 1 25 3 20 4 17 4 16 2 17 2 17 1 16 0 15-1 14-1 13-2 13-2 11-2 9-3 10-4 8-4 8-5 7-6 8-5 6-9 9-7 6-7 5-7 4-8 4-8 3-8 2-9 2-10 0-10 0-11-1-11-2-9-1-12-3-13-3-12-3-11-3-12-4-11-4-12-4-11-3-10-4-9-3-4-8"/>
<path d="M5405 6132l 2-9-1 9-1 10-1 12-1 16 0 19 0 20 1 21 2 21 1 22 1 24 0 25 1 26 0 27 1 26 2 25 1 25 2 24 1 20 2 16 1 15 1 14 1 12 0 11 0 10-1 8 0 3-2 9-4 8-6 7-9 10-7 5-8 4-9 2-9-2-3-8"/>
<path d="M5311 6166l-2-7-3-9-2-8-1-8 1-7 1-9 1-7 2-6 3-8 3-7 4-7 5-7 5-7 6-7 6-6 7-6 9-7 10-6 8-5 11-7 12-6 14-6 8-3 15-6 15-4 14-3 9-2 13-2 14-1 15-1 14 0 12 1 12 2 12 4 12 4 7 3 10 4 8 5 6 6 4 8 3 8 2 8 0 10-2 11-2 9-3 12-5 14-6 13-4 8-7 12-9 13-5 8-12 15-12 15-12 13-9 9-10 11-11 10-13 10-7 6-14 10-13 8-11 6-8 3-9 4-9 2-9 2-10 1-8-1-9-2"/>
<path d="M5959 5536l 7-5-5 4-8 7 9-9-8 10-9 11-10 12 6-7-10 14-11 15-11 17-11 17-11 19-11 20 5-8-10 22-11 25-9 26-9 29-8 29 1-7-6 30-5 30-4 31-3 32-3 34-2 34-3 34-1 35 1 34 3 34 4 33 5 30 6 27-2-4 8 24 9 21 12 18 12 13 12 9 13 7 16 8 15 6-8-3 14 3 13 0 8 3"/>
<path d="M6062 5942l 2-6 3-5 5-8 4-7 5-7 6-8 6-8 6-7 6-7 6-7 8-8 7-6 8-7 8-7 8-5 8-5 7-3 8-4 7-2 6-2 9-1 6 0 6 1 8 3 6 4 6 5 5 8 4 8 4 9 4 10 2 8 3 10 2 12 3 15 3 16 4 16 4 15 4 15-3-8 5 15 6 14 7 13 6 14 7 14 8 14 9 12 8 11 9 9 8 7 9 5-8-3 10 3 11 1-9 1 13-2-9 3 14-6 15-8-8 5 15-10"/>
<path d="M6327 5844l 8-4-6 5-7 5 7-6-7 6-9 8-8 9 9-9-10 10-9 11-9 12 5-7-9 13-10 14-10 16-11 17-11 15-9 13-11 16-14 20-15 23-16 24-15 23-16 23-14 24-14 23-5 6"/>
<path d="M6611 6148l 0 9-1 10-2 11-3 12-3 13-2 8-4 13-5 13-5 13-7 15-8 20-5 8-9 18-9 18 4-8-9 18-5 18"/>
<path d="M6792 5901l 4 8 2 9 3 10 0 11 0 12-1 13-2 13-2 13-2 14-2 14-2 17-2 17-1 16 0 15 1 13 2 10-3-8 4 9 4 7 5 5-8-3 6 2 7-1-17 5 8-4-8 5 10-7 11-10-6 6 12-13 13-15-6 7 13-16 14-18 14-18 13-18 12-17 12-16 10-15-5 8 9-15 9-17 9-16 8-15 6-15-3 8 6-16 6-15 4-12 3-11 2-7 0-3 51-9-2 2 4-8-2 7-3 9 2-9-2 11-2 12-1 14 0 14-1 15 0 15 0 17 1 17 1 18 1 19 1 19 1 21 1 21 1 24 1 24 2 24 2 23 2 20 2 18 3 20 2 21 3 22 1 22 1 23 0 24-1 25-2 26-2 26-3 24-4 22-5 22-2 8-6 21-7 19-8 18-4 8-10 16-10 15-5 7-10 13-9 10-11 11-11 9-7 5-11 7-8 4-12 5-9 2-12 2-11 0-9-2-10-2-8-5-8-7-8-9-7-10-4-8-6-13-5-15-4-18-4-20-3-21 1-9 3-8 5-8 6-7 7-6 8-4"/>
<path d="M7160 5512l 4 10 5 11 5 11 5 12 7 12 7 12 9 13 10 14 11 16 11 17 11 17 11 18 11 19 10 17 8 16 8 20 10 25 9 27 9 27 7 24 2 7 6 19-2-7 5 16 2 8 5 18 3 24 1 28-2 31-5 31-5 32-6 31-8 30-1 6-8 28-8 25-7 19-8 18-4 7-11 22-4 6"/>
<path d="M7821 5988l 25-53 7 0 12 0 13-1 12-1 12-1 14-2 18-1 22-4-9 1 23-5 21-5 9-1 19-3 19-3 16-2 15-1 12-1 9 2 8 3 2 8-2 9-4 8-5 8"/>
<path d="M7916 6059l 8-2 9-1 10-1 12-1 12-2 11-2 14-2 20-3 23-3"/>
<path d="M9458 5286l 7 3 7 5 5 7 4 10 5 11 3 9 2 9 3 9 2 11 2 10 3 12 2 13 2 13 2 14 2 15 1 17 2 18 1 18 0 19 0 20-1 20-2 21-2 20-3 20-3 20-4 19-3 19-2 19-3 18-2 9"/>
</svg>
