<svg xmlns="http://www.w3.org/2000/svg" viewBox="2990 2912 8200 6160" stroke="black" stroke-width="20" stroke-linecap="round" stroke-linejoin="round" fill="none" data-xena="0 0 0"><style>@media(prefers-color-scheme:dark){svg{background-color:black;stroke:white;}}</style>
<path d="M4430 5619l 2 4-3-6 3 4-5-5 4 2-7-3 5 1-7-1 4 0-7 1 4-1-6 3 3-2 3-3-5 5 3-3 2-4-3 6 1-3-1 7 0-3 1 7-1-3 8 11-3-2 7 3-4-1 7 1-3 0 7-1-4 2 6-3-4 3-3 3-4 3 5-5-3 4-2 3-2 5 3-7-2 5-1 5-1 4 1-7-1 5 1 4-5-13 3 3-6-5 5 3-7-3 5 1 5 1-7-1 5 0-8 1 5-1 4-2-7 4 4-3 4-3 4-4-5 5 3-3 3-4-3 6 1-4 2-4-2 8 0-4 2 7-2-3 8 11-2-2-4-2 7 3-4-1-4-2-4-1 8 2-5 0-4 0 8-1-5 1-3 1-4 1 7-3-4 2-3 2-3 3-3 3 5-5-3 3-3 4-2 4-2 4 3-7-2 5-1 5 1-7 0 5-1 5 0 5-1-6 1 5 2 5-2-5 3 4 3 4-3-3 4 3 4 4 3 3 2 3"/>
<path d="M5530 6149l-4-2-3-1-4-2 6 3-3-1-4-2-3-1-4-1-4-1-4 0 8 1-4 0-3 0 7-1-4 1-5 2-5 2-5 3-6 3 6-4-6 4-6 4-7 4-6 5-7 6-7 6-7 7 5-5-7 8-6 9-7 10-6 10-6 10-6 10-5 11-6 11 4-7-5 11-4 9-3 9-3 8-1 9 1-7 0 8-1-7 1 8 2 6 2 6-3-6 4 5-5-5 4 4-6-3 6 3 7 2-6-1 8 1 10 0 10 0 11-1-5 1 12-2 12-3 13-4 3 0"/>
<path d="M4410 3095l 4-1 4-1 5 0 4 0 5 0 5 0 5 0 5 0 5 0 5 1 5 0 5 1 5 0 5 0 5 0 5 0 4 0 5 0 6 0 5 0 6 0 6 0 6-1 6 0 5 0 5 0 5 0 5 0 5 0 5 0 5 0 5 0 6 1 5 0 5 0 6 1 5 0 5 0 5 0 5 0 4 0 5 1 5 0 4 1 8 1 4 0 5 2 5 1 5 0-7-1 5 1 5 0 5 0 6 1 5 0 6 0 6 0 5 0 6 1 6 0 7 0 6 0 7 0 7 1 8 1 7 1 7 2 7 1 7 1 8 2 7 1-7-1 7 1 7 1 7 1 7 1 7 1-8-1 6 0 6 1 5 0 6 0 5 1 6 0 6 0 6 1 6 0 6 1 6 1 7 1 6 1 5 1 5 1 5 1 5 2 5 1 4 2 5 1 5 1-8-1 5 1 5 0 5 0 6 0 5 1 5 0 5 0 5 1 7 1 6 1 5 1 5 1 5 1 6 1 5 2 5 1 5 2 5 2 5 1 6 2 5 2 5 1 6 2 7 2 6 3 7 3 7 3 7 3 7 3 7 2 7 3 7 3 8 2 8 3 7 3 7 2 7 3 7 3 7 2 7 3 7 3 7 3 7 3 7 3 7 4 6 3 7 3 6 4 6 3-7-4 6 3 6 2 5 2 5 2 6 1 6 2 6 2 7 1 6 3 7 2 6 3 6 3 6 2 6 3 6 2 6 2 6 2 5 2 5 2 5 2 5 2 5 2 5 2 5 2 5 3 6 2 5 3 6 2 7 3 7 2 7 2 7 2 7 3 8 2 7 2 8 3 7 3 7 4 6 3 7 3-7-3 7 3 7 3 7 3 7 3 8 2 8 3 7 3 8 3 8 3 8 3 7 3 7 3 7 3 6 2 7 3 7 2 6 2 7 2 7 2 6 2 7 2 6 2 6 2 6 3 6 2 6 2 6 2 5 2 6 1 6 2 5 2 5 2 5 2 5 2 5 3 5 2 5 3 6 2 7 3 6 3 7 3 7 3 6 3 7 4 7 4 7 4 8 4 7 3 7 4 7 4 7 4 7 4 7 4 7 4 8 4 7 4 7 5 7 4 6 5 6 5 6 5 6 5 6 5 6 5 5 4 6 5 6 4 6 5 6 5 6 4 6 5 6 5 6 5 6 4 5 5 6 4 6 4 5 4 6 4 5 4 6 5 5 5 5 5 5 6 5 5 4 5 5 5 4 4 4 5 4 4 5 5 4 4 5 5 4 4 5 5 4 4 5 4 4 5 5 4 5 6 5 5 5 6 6 6 6 6 6 7 6 6 6 7 5 6 6 6 4 5 5 5 4 5 4 6 5 5 5 6 4 6 5 6 6 5 5 6 5 5 5 5 5 5 5 5 5 6 6 6 6 6-5-5 6 6 7 5 6 5 6 4 5 5 5 4 6 5 4 5 5 5 5 5 5 5 4 5-5-6 5 5 6 5 5 5 5 5 5 5 4 5 5 5 4 5 5 5 4 5 4 5 5 5 4 5 4 5 4 5 4 6 4 6 4 6 4 6 4 6 4 7 4 6 3 7 4 7 4 7 3 6 3 6 3 5 4 4 3 5 3 5 3 5 3 4 3 5 4 5 3 5 4 6 3 5 5 6 4 7 5 6 4 6 6 7 5 6 5 7 5 7 5 6 5 7 5 6 5 7 5 6 5 7 5 6 5 7 4 6 4 7 4 6 4 6 4 6 4 6 4 6 4 5 3 6 3 6 4 6 3 6 4 6 4 6 4 5 4 6 5 7 4 6 4 7 3 6 4 6 3 6 3 6 3 6 2 5 3 6 2 5 3 6 3 6 3 6 3 6-4-6 4 5 3 6 3 5 4 6 3 6 3 6 4 7 3 6 3 6-3-6 3 6 3 6 4 6 3 6 3 6 3 6 2 6 3 7 2 6 2 7 3 7 2 6 3 7 3 6 3 7 4 7 3 7 3 7 3 6 3 7 3 7 3 7 3 7 3 7 3 7 3 7 3 6 3 7 3 6 3 6 3 7 3 6 3 6 2 7 3 6 3 6 3 6-3-6 3 5 3 6 4 6 3 7 3 6 3 6 3 6 3 6 3 7 2 6 3 7 3 6 3 7-3-7 3 7 4 6 4 6 3 6 4 7 4 6 4 6 3 6 4 6 3 6 4 6 3 7 4 6 4 7 4 7 3 6 4 7 4 7 4 6 3 7 4 6 3 7 3 6 3 6 3 6 3 6 3 5 3 6 3 6 3 7 3 6 3 7 3 6-4-7 4 6 3 6 4 5 4 5 3 5 3 6 4 6 3 6 3 6 3 6 3 6 2 6 3 6 2 5 3 5 3 6 3 5 3 6 3 6 3 6 3 7 3 6 3 7 2 6 3 6 3 6 3 5-4-6 3 5 3 6 3 5 4 7 2 6 3 6 3 6 3 6 2 7 3 6 3 6 3 6 2 6 3 6 3 7 3 7 2 6 3 7 3 7 2 7 2 7 3 6 3 7 2 7 3 7 2 7 3 7 3 7 2 7 2 7 2 7 2 7 1 7 2 6 1 7 2 7 1 7 2 7 2 7 1 7 2 7 2 7 1 6 2 7 1 6 2 7 1 6 1 7 2 7 1 6 1 7 1 6 1 7 0 7 1 7 1 6 1 7 0 7 1 7 1 6 0 7 1 7 1 7 1 6 0 7 1 7 0 7 1 6 1 7 1 7 0 7 1 6 0 7 1 6 0 6 0 6 1 6 0 7 1 6 0 6 0 6 0 6 1 7 0 6 0 6 0 6 0 5 0 5 0 5 1 5 0 4 0 5 0 4 1 5 0 4 0 5 0 4 0 5 0 5 0 4 0 4 0 5 0 4 0 4 0 5 0 4"/>
<path d="M6208 3946l-4 3-7 4-3 2-7 1-2 0-7-1-7-4-5-5-3-6-1-7 1-8 0-2 3-6 3-4 4-5 4-5 3-4-3 6 0-2 30 29-2 1 6-4-3 3-4 3-5 4-4 5-5 4-4 4-5 5-5 4-4 4-4 4-5 3-4 4-4 3-5 4-4 5-5 4 5-5-4 5-5 5-4 6-5 5-5 5-5 5-5 4-5 4-4 4-5 4-5 5-5 4-4 5 5-5-4 5-5 5-4 6-5 5-4 5-5 5-5 6-5 4-5 4-4 4-5 3-4 4-4 3-4 4 5-5-4 5-4 5-4 6-4 5-4 5-5 5-4 5-5 4 5-5-4 5-5 5-4 5-4 5-4 5-5 5-5 5-5 5-5 4-5 5-6 4-5 5-5 5-5 5-5 4 5-5-4 5-4 5-4 6-5 5-4 5-5 5-5 5-5 5-5 5-5 4-4 5-5 4-5 4-4 4-5 4-4 4-5 3-4 4 5-5-4 4-4 5-4 4-4 4-4 5-4 4-4 5-4 5-5 4-5 5-4 4-4 5-4 4-5 4-4 5-5 4-5 4-4 5 5-5-5 5-4 5-4 4-4 5-5 5-5 5-4 4-5 5 5-5-4 5-4 5-4 5-5 5-5 5-5 6-5 5-6 5-6 5 6-5-6 6-5 6-5 6-5 5-4 6-5 5-5 6-5 6-5 6-4 6-5 6-5 6-5 7-6 6-5 6-6 7-6 5-6 6-6 7-7 7-7 7-7 6-7 7-8 7-8 7-8 7-8 7-8 7-9 8-8 7-8 7-8 7-7 6-7 6-7 6-7 6-7 6-7 6-7 6-6 7-7 6-7 7-7 6-7 7-7 6-6 6-5 5 5-5-5 5-5 6-6 6-5 5-6 6-7 7-8 7-8 8-9 7-7 8 5-5-7 7-7 8-7 9-6 9-8 8-7 9-5 5-8 8-9 9-10 8-9 9-10 9-9 8-10 8-9 9-10 8-9 9-8 7-8 7-8 7-9 7-9 8-9 8-9 8-9 8-8 8 5-5-8 8-8 9-7 8-8 8-7 8-7 8-7 7-6 7-5 5-6 6-6 6-7 6-7 6-7 7-7 6-7 7-6 6-7 7-6 6-6 7 5-5-7 6-7 7-5 5-7 7-7 7-8 7-8 7-8 7-9 7-8 8-9 8-9 9-10 9-11 10-11 10-11 9-10 9-10 9-9 7-8 8-8 6-7 7-6 6-6 5-5 5-6 5-6 6-6 6-7 6-6 7-7 7-7 6-6 7-7 6-7 6-6 6-7 6-7 6-7 5-6 6-6 5-6 6-6 5 5-5-5 6-6 6-5 7-6 6-5 5-5 6-5 5-5 6-5 5-6 5-5 6 5-5-6 6-6 6-5 6-5 5-6 6-6 5-6 6-5 6 5-5-6 6-5 6-5 6-6 5-5 6-4 5-5 4-4 5-5 5-4 5-5 4-5 4-6 5-5 5-5 5-5 4-5 4-4 4-5 4-4 4-4 4-4 4-4 3 5-5-3 4-3 3-3 3-5 6-4 3-3 3-3 3-3 3-3 2-3 3 5-5-3 3-2 3-3 3-5 5-3 2-3 3-5 2-6 3-4 2-5 2"/>
<path d="M4818 5280l 7 1 5 1 6 1 5 2 5 1 6 2 6 4 6 3 5 3-6-3 6 2 6 3 5 2 7 4 4 2 5 3 5 3 6 4 5 4 5 4 5 4 5 4 5 5 4 4 3 4 3 4 4 4 3 4 4 5 3 4 3 7 2 4 1 5 2 5 1 7 1 6 1 6 0 6 0 6 0 5 0 6 0 5 0 6 0 6-2 7-1 7-1 5-1 6-1 6-2 5-2 5-3 5-2 5-3 6-3 5-2 5-3 5-3 4-2 4-3 4"/>
<path d="M5175 5356l-2-4-1-4-1-4-1-4-2-4-2-5 3 6-3-5-4-5-4-4 6 5-5-4-4-4-5-3-5-4-5-4-5-5-5-5-5-4-5-4-6-4-5-3 6 3-6-2-6-3-7-1-6-2 7 2-7-1-8 0-7 1 7-1-7 1-6 3 7-4-6 3-5 4-5 3-6 3-5 4-5 4 5-5-5 5-4 5-4 6-4 5-3 6-4 5-2 6-3 4-2 5-3 4 4-7-2 5 1-7 1 4-10-19 3 3-6-4 5 1-7-1 6 0 6-1-7 1 6-1 7-3-7 3 7-4 7-6 8-7 9-8-5 5 8-10 9-10 8-9 8-9 6-5 8-8-6 5 8-9 7-9 7-11 6-10 7-10 6-10 7-10 6-9 6-9 6-8 6-8 5-7 4-6 5-6 5-5 5-4 4-5 5-3 5-3 5-3 6-1"/>
<path d="M6191 4018l"/>
<path d="M6201 4134l-3 5"/>
<path d="M6190 4289l-3 5"/>
<path d="M6193 4433l-1 6-2 6-3 6-3 6-3 5"/>
<path d="M6160 4641l-3 5"/>
<path d="M6172 4806l 0 5-1 7-2 6-2 6-2 5-2 6 1-5 0 6-1 4-2 4"/>
<path d="M6171 4970l 0 4-1 4-1 6-1 5-1 6-1 5-1 5-2 5-2 5-2 5-3 6-4 8"/>
<path d="M6164 5162l-1 6-3 6"/>
<path d="M6146 5379l-3 5"/>
<path d="M6170 5547l 3 6"/>
<path d="M6170 5706l-2 4-2 4-4 4"/>
<path d="M9749 5727l 0 5 1-7-1 5 0 4 0 5-1 5 0 6 0 5 0 6 0 6 0 5 0 6 0 6 0 7 0 6 0 6 0 6 0 6 0 6 0 5 0 3-41-13 0-2-3 7 1-5 1-6-1 7 1-6 0-8 0-7 0-8 0-9 0-8-1-9 0-8-1-7-1-7-1-6-1-7-1-5 0-6-1-5-1-4-1-5 2 7-1-4 3 7-1-2 41-6-1 2-1 5-1 5-1 5-1 5-1 5-1 5 0 5-1 6 1-7-1 5 0 6-1 5 0 6 0 4 0 5 0 4 0 4 0 4-2 7-3 6-5 5-6 4-7 1-8-1-6-4"/>
<path d="M4506 3122l 7-1 6-1 7 1 6 1 5 1 4 1 5 2 5 2 4 1 5 2 5 1 5 1-7-1 4 1 5 0 5 0 5-1 4 0 5-1 5 0 4-1 5-1 5-1 5 0 4-1 5 0 5 0 5 0 6-1 5 0 5 0 6 0 6-1 5-1 6-1 6 0 6-1 6-1 6-1-7 1 5-1 5-1 5-1 5-1 6-1 5-1 5-1 6-1 5-1 6-1 6-2 5-1 5-1 5-1 5-1 6-2 5-1 5-1 5-1 5-1 5-1 5-1 5-1 5-2 6-1 7-1 6-1 5-1 6 0 5-1 6 0 5-1 5-1 6 0 5-1 5 0 5 0 5 0 5 0 5 0 5-1 5 0 6-1 5-1-7 1 6-1 5-1 5-2 5-1 4-1 5-1 5-1 7-2 5 0 5-1 6 0 5 0 6 0 5 1 6 0 5 1 6 1 6 1 5 0 6 0 5 1 6 0 5 0 6 0 5 1 6 1 5 0 7 1 6 1 5 1 4 1 5 2 5 1 5 1 5 2 5 2 5 1 5 2 6 1 5 1 5 1-7-1 5 0 5 1 5 0 6 1 6 0 6 0 7 0 6 0 7 0 7 1 7 0 6 1 7 0 7 1 6 1 8 0 7 1 7 1 7 0 7 1 7 1 6 1 7 1 6 1 6 1 6 1 6 1 6 1 6 1 6 1 5 1-7-1 6 0 6 1 6 0 7 1 7 1 8 1 7 1 8 1 7 1 8 1 9 1-7-1 8 1 9 1 8 1 9 2 7 1 9 1 8 1 10 2 9 2 10 1 10 2 10 1-7-1 11 2 10 1 11 1 11 1 10 1 11 1 11 1 11 0 10 1 10 1 9 1 9 0 9 1 9 1 8 0 9 1 8 0 9 1 8 1 9 0 8 1 9 1 9 2 10 1 9 1 10 0 9 1 9 0 9 0 9 0 9 1 10 0 10 0 10 0 11 0 11 0 11 0 11 0 11 0 11 0 11 1 11 0 10 0 10 1 9 1 9 0 8 1 8 1 8 1 7 1 8 1 8 2 8 1 8 2 8 1 9 2 8 1 9 2 9 1 9 2-7-1 9 1 9 1 10 1 7 1 9 2 8 1 9 1 9 2 8 2 9 2 9 1 9 2 9 3 10 2 10 2 9 2 10 1 10 2 9 2 10 2 10 2 10 2 9 3 9 2 9 2 9 2 8 2 7 3 7 2 7 2 7 2 8 3 7 2 7 3 8 2 8 2 8 3 8 2 8 3 9 2 8 2 9 2 8 1 8 2 8 3 8 2 7 2 8 2 8 2 8 2 9 2 9 2 9 2 9 2 10 1 9 2 9 2 10 1 9 2 8 2 9 3 8 2 8 2 8 3 8 2 7 3 7 2 6 3 7 3 6 3 7 3 7 3 7 3 7 3 7 3 8 2 7 3 8 3 8 2 9 3 9 2 8 3 9 2 9 3 8 3 9 3 8 3 9 4 8 3 9 3 10 3 9 4 10 3 10 3 10 3 10 3 9 3 10 3 9 3 10 3 9 4 10 3 8 3 9 3 8 3 8 4 7 3 7 3 7 3 7 4 7 3 7 3 7 3 8 3 7 4 8 3 8 4 8 3 8 4 8 4 8 4 8 4 8 4 8 4 9 3 8 4 9 4 8 3 9 4 9 4 9 4 10 4 10 4 10 4 10 4 10 3 10 4 10 4 9 4 10 4 10 3 9 5 9 4 9 4 6 3 9 5 8 4 7 4 8 4 7 5 7 5 8 4 8 5 7 4 8 4-6-3 8 4 8 3 8 3 8 4 9 3 9 3 9 3 9 4 9 4 8 3 9 4 9 4 9 3 9 4 10 4 10 4 10 3 10 4 11 4 10 4 10 4 10 4 10 4 10 4 10 4 9 4 9 4 8 4 8 4 8 4 8 3 7 4 7 3 8 4 8 4 8 3 7 4 8 4 8 4 8 4 8 3 9 4 9 5 6 3 9 4 9 4 8 5-6-4 8 5 9 3 8 4 9 3 9 4 9 3 9 3 10 4 9 3 10 4 9 3 9 4 10 3 9 4 9 3 9 4 9 3 8 3 9 4 7 4 7 3 7 4 8 4 6 4 7 4 6 4 6 4 6 4 6 4 7 4 6 4 7 4 6 4 7 5 7 4 7 4 7 4 7 5 7 4 7 4 8 4 8 4 7 4 8 4 7 4 8 4 7 5 7 4 8 4 7 5 8 5 9 5 9 5 8 6 9 5 9 6 9 5 9 5 8 6 9 5 9 5 8 5 9 5 8 5 8 5 8 5 7 5 7 5 6 5 6 5 7 6 6 5 6 5 6 6 7 5 6 5 7 6 7 5 7 6 7 5 7 5 8 5 7 5 8 5 8 4 8 5 8 5 7 6 7 5 7 6 7 5 8 6 8 5 8 6 8 6 8 5 9 6 9 6 9 5 9 6 9 6 9 5 9 6 9 5 9 6 9 6 8 5 8 6 7 5 7 6 7 5 7 5 6 6 6 5 7 5 6 6 6 5 7 6 7 6 6 5 7 6 7 6 7 6 7 6 7 6 8 6 7 6 8 6 7 5 7 6 7 5 8 6 7 5 7 5 7 6 7 5 8 5 7 5 8 5 8 5 9 6 8 5 9 6 9 5 8 6 9 7 9 6 8 6 9 7 8 6 9 7 8 6 7 7 8 6 7 6 6 7 5 5 7 6 6 6 6 7 6 6 6 6-5-5 7 6 7 6 6 6 7 6 6 5 7 6 6 5 7 6 6 6 7 6 7 6 7 6 7 6 7 6 7 6 7 6 7 6 7 6 5 5 6 6 7 7 6 6-5-5 7 7 7 6 7 6 7 6 7 6 8 6 7 6 7 6 8 6 7 6 7 5 7 6 8 6 7 5 7 6 7 6 7 6 7 6 6 7 5 5 7 6 5 6 6 7 5 7 5 7 5 7 4 7 4 7 4 7 4 6 4 7 4 7 4 6 4 7 4 6 5 6 4 6 5 7 5 6 5 6 5 6 5 6 5 7 5 6 4 6 5 7 5 6 5 6 5 7 5 6 5 6 5 7 5 6 5 6 5 6 4 6 4 6 5 6 4 6 5 6 4 5 5 6 4 6 5 6 4 6 4 5 5 6 5 6 5 6 4 7 5 6 5 5 5 6 5 6 5 6 5 6 4 5 5 6 4 6 4 6 4 6 4 6 4 6 4 6 4 6 4 6 4 6 4 6 4 7 4 6 4 6 4 6 4 7 4 6 3 6 4 6 3 6 3 7 3 6 3 6 3 6 3 5 2 6 3 6 2 5 3 6 2 5 2 6 2 5 3 6 2 5 3 6 2 5 2 5 2 6 3 5 2 5 3 5 2 5 3 5 2 5-3-6 3 5 2 4 3 5 3 5 3 5 3 5 3 5 3 6 3 5 2 5 3 5 2 5 2 5 2 4 3 5 2 5 2 5 2 5 2 5 3 5 2 5 2 4 2 5 3 5 2 4 2 5 3 5 1 4 2 5 2 5 2 5 3 5 2 6 2 5 2 5 2 5 2 5 2 4 2 5 2 5 1 5 2 5 2 5 2 4 1 5 1 5 1 5 1 5 1 4 1 5 1 5 1 7 1 5 1 5 0 4 1 5 0 5-1-7 1 4 0 5"/>
<path d="M7939 3916l"/>
<path d="M7960 4030l-1 6"/>
<path d="M7964 4170l-1 6"/>
<path d="M7975 4310l-1 5-3 6"/>
<path d="M7965 4442l-1 6"/>
<path d="M7979 4523l-1 6"/>
<path d="M7977 4658l-1 6"/>
<path d="M7984 4769l-1 7"/>
<path d="M7987 4908l-1 7-3 6"/>
<path d="M7976 5059l 1-7 0 5-1 7-2 4-1 4-2 3-1 4-3 4-3 4"/>
<path d="M7984 5254l 0 4-1 7-2 5-3 8-1 6-3 4"/>
<path d="M7974 5387l-1 6-2 4-1 5-3 5-3 3"/>
<path d="M7981 5554l 0 4-1 7-1 5-4 9-1 4"/>
<path d="M7982 5688l-1 6"/>
<path d="M4419 3954l 3 6"/>
<path d="M4642 3976l 7 0 7 1 6 3 7 3 5 4-5-2 7 2-5-1 7 0 7 0 6 1 4 0"/>
<path d="M4842 3979l 7 1 9 4 18 9 10 3 3 2"/>
<path d="M5048 3964l 7-1 8 1 9 2 15 8 9 4"/>
<path d="M5287 3999l 8 1 7 0 7 1 7 1 7 1 7 1 8 0 7 0 7 0 6 2 6 1 7 1 6 1 5 0 6 1 6 3 7 2 3 2"/>
<path d="M5483 3997l 6-2 6-2 7-2 7-1 7 0 7-1 8 0 8 0 9-1 10 1 9 0 10 0 10-2 10-1 10-1 11-1 10-2 10-1 9-2 9-1 8-1 7-1 7-1 7 0-8 1 7-1 5-2 6-2 6-3 6-2 5-2 6-2 7-2 7-1 7 0 7 0 7 0 6 1 7 0 6-1-7 2 6-2 7-1 7-1 7 1 7 0 7 0 7 0 8 1 6 1 8 1 6 1 7 1-7-1 6 0 7 0 7 1 7 1 7 0 7 1 7 0 6 1 7 1 7 1 6 1 7 1 7 2 6 1-7-1 6 0 6 0 6 0 6-1 8 0 7-1 7 0 7-1 8 0 6-1 6 1 6 0 5 0 7-1 7-1-7 1 7-1 7-2 6-1 7-1 7-1 6-1 6-1-7 1 6-1 7-2 6-2 6-2 6-2 5-2 5-1 6-2 5-2 6-2 7-1 5 0 7 1 6 1 7 3 8 3 9 2 3 2 3 3"/>
<path d="M6273 3941l 7-1 6 1 7 1 7 1-7-1 6-1-7 1 7-1 7-1 7 2 6 1 6 3 6 2 6 1 6 1 6 2 4 2"/>
<path d="M6460 3940l 6 3 6 4 5 4"/>
<path d="M6599 3949l 5-2 7-1 5-1 7 1 4 2 7 3 4 3-6-3 6 1 6 1-5 0 7 0 6 1 5 1 4 2"/>
<path d="M6781 3945l 5-1 5 0 5 0 5 1 5 1 5 1 7 1 5 1 6 3 6 3-6-3 6 3 7 2 6 2 8 2 9 5 11 4 3 2"/>
<path d="M7060 3937l 5 1 6 1-7-2 5 1 6 1 8 1 5 1 7 3 6 3 7 2-7-1 7 1 7 0 7 1 7 1 6 1 7 1 6 2 7 1 6 2 7 3"/>
<path d="M7359 3959l 5 5"/>
<path d="M7527 3947l 6-1 6 0 6-1 7 0 7-1 7 1 7 1 7 2 7 3-7-1 8 2 7 0 8 0 7 0 7 1 8 1 7 0 7-1 7 1 4 0 7 2 3 1"/>
<path d="M7800 3928l 6 1 6 3 3 2"/>
<path d="M4391 5682l 7 0 7 0 7 1 7 0 6 1 7 1 6 1 6 0 6 0 7 0 6 0 7 1 6 0 7 0 6 1 7 1 6 1 7 0 6 1 7 0 6 0 7 0 7 0 7 0 7-1 7 0 6-1 7 0 6-1 6-1 6-1 6-1 6-1 7-1 6 0 7 0 7 0 7 0 7 0 7 0 7 1 7 1 7 0 7 1 7 1 7 0 7 1 7 0 7 1 7 1 7 0 7-1 7 0 8-1 7-1 8 0 8-1 8-1 8-1 8-1 7 0 7-1 6-1 7-1 6 0 7 0 7 0 7 0 8 0 7 0 8 0 6 0 7 0 6 1 6 0 6 1 6 0 6 1 6 0 7 1 7 0 7 0 7 0 7 0 7 0 7 0 7 1 6 0 7 0 7 0 6 0 7 0 6 0 7 1 6 0 7 1 7 1 7 1 7 1 7 1-7-1 7 1 8 0 8 0 8 1 7 0 8 0 7 1 7 0 7 1 7 1 7 1 7 1 7 1-7-1 7 1 6 1 7 1 7 1 7 1-7-1 6 1 7 1 7 0 7 2 7 1 7 1 8 1 7 1 6 1 7 1 6 2 6 1 7 1-7-1 7 1 8 1 8 0 8 1 7 0 8 0 7 1 7 0 7 1 7 1 7 1 7 1 7 1 7 1 7 2 7 1-7-1 7 1 7 1 7 0 7 1 7 0 7 1 7 0 7 0 8-1 9 0 8 0 9 0 8 0 9 1 8 0 9 0 8 1 8 0 8 0 8 1 7 1 7 1 7 1 7 1 6 2 7 1 6 1 7 1 7 2 6 1 7 1 6 2 7 1-7-1 6 1 7 0 8 0 8 1 7 0 8-1 7 0 7 0 6-1 7 0 7-1 8 0 7-1 8 0 8 0 7 0 7 0 8 0 7-1 7 0 7-1 7-1 8-1 8-1 8-1 9-1 8-1 8-1 8-1 8 0 8-1 9 0 8-1 8-1 8 0 8-1 8 0 7 0 7 0 7 0 6 1 6 0 7 0 6-1 7 0 7-1 9 0 8 0 9 0 8-1 8 0 7-1 8 0 7-1 8-1 8 0 7-1 8-1 8-1 8-1 8 0 8-1 8 0 9 0 9 1 8 0 9 1 9 1 8 1 9 0 9 1 8 0 9 1 9 0 9 0 9 0 8-1 9 0 8 0 8 0 7 0 7 0 7 0 7-1 7 0 7 0 7 0 8 1 7 1 8 1 7 1 8 0 8 0 8-1 8 0 9-1 8 0 9 0 9 0 9 0 9 0 10 1 10 1 10 1 11 1 11 0 11 0 10 0 11 1 10 1 11 1 10 1 7 1 11 2 10 1-7-1 10 1 10 1 9 1 9 1 8 1 9 0 9 1 9 0 9 1 10 0 9 1 9 0 9 0 10 1 9 0 10 1 10 0 10 0 10 0 10 0 9 0 10 0 11 0 10 0 11 0 11 0 11 0 10 0 11-1 10 0 10 0 10 0 11 0 10 0 11 0 10-1 10 0 10-1 9 0 9-1 9-1 8-1 9-1 9-1 8-1 9-1 9-1 9-1 9-1 9-1 10-1 9-1 9-2 10 0 9-1 10 0 9-1 10-1 11-2 10-1 11-1 10 0 10 0 10 0 10-1 10 0 10 0 10-1 9-1 9 0 9-1 8 0 9 0 7-1 8 0 7-1 8 0 7 0 8-1 7 0 7 0 7-1 7 0 7-1 7 0 7 0 7 0 7 0 7 0 7 0 8-1 7-1 7 0 8-1 7-1 7 0 8-1 8 0 7-1 9 0 8 0 8-1 7 0 8 0 8 0 7 0 7 0 7-1 7 0 7 0 8 0 7 0 7 1 6 0 7 1 6 0 7 0 6 0 7 1 6 0 7 0 7 1 7 0 7 1 7 1 7 1 6 1 7 1 6 1-7-1 7 1 6 1 7 0 7 1 6 0 7-1 7 0 6-1 7 0 7-1 6 0 7 1 6 0 6 1 7 0 6 0 7-1 6 0 7 0 7 0 7 0 7 1 7 0 6 0 7 0 7 0 7 1 7 0 7 0 6 0 6 1 7 0 6 1 6 0 7 1 6 0 7 1 7 2 7 1 6 1 6 1-7-1 6 1 5 0 6 1 6 0 7 1 6 1 7 0 6 2 7 1 6 1 6 2"/>
<path d="M4959 5468l 2-4"/>
<path d="M4919 5371l-3-6 2 4 2 4 3 4 2 5 3 4 3 4 3 4 3 5 3 5 4 6 2 6 3 6 2 6 2 5 2 5 2 5 3 5 2 5 2 5 2 6 3 5 2 6 2 5 3 6 1 5 2 6 2 5 1 5 1 7 1 5 0 5 0 6 0 5 0 6 1 6 1 6-1 7-1 7-2 6-1 6-1 6-1 5-1 6-1 5-2 5-2 6-1 6-3 5-2 6-2 5-2 6-3 5-2 5-2 5"/>
<path d="M4408 5626l 7-1"/>
<path d="M4954 5398l 7 0"/>
<path d="M5082 5363l 5 1"/>
<path d="M4442 5694l-5 1"/>
<path d="M4417 5651l 6-1 7-1"/>
<path d="M4589 5558l 4-4 5-4 6-3 5-3 5-3 6-2 6-1 6-2 7-2 5-3 6-2 6-2 6-3 5-2 6-3 6-2 7 0 7-1 6 1 6 1"/>
<path d="M4490 5605l 6-3 6-2 7-3 6-3 6-3 7-2 6-3 6-3 5-2 6-3 6-3 6-3-6 3 6-3 6-4 7-4 7-4 7-4 8-5 7-5 9-4 8-5 9-4 8-5 8-5 9-5 9-5 8-5 9-5 7-4 9-4 9-4 10-5 9-4 10-5 9-5 10-4 10-5 10-4 10-5 10-4 10-5 10-4 9-4 10-4 10-4 9-4 9-4 9-4 9-4 9-5 8-4 8-4 9-5 9-4 9-4 9-4 9-3 9-4 9-3 8-4 8-4 8-4 8-3 9-4 8-3 8-4 9-3 8-3 9-4 9-3 8-3 9-3 8-3 9-3 8-3 9-3 10-3 9-3 8-3 9-4 8-3 8-3 8-3 8-3 8-4-7 3 8-4 7-5 7-5 7-5 6-4 7-4 6-4 6-4 6-4 6-3 6-4 6-4 7-3 6-4 7-4 6-4 7-4 6-3 6-4 6-4 6-3 6-3 7-3 6-4 7-3 7-3 7-4 7-3 7-3 7-3 7-3 7-3 7-3 7-3 6-3 7-3 6-2 7-3 7-3 7-2 7-3 7-4 7-3 7-3 7-4 7-3 8-3 7-4 7-3 7-3 7-3 7-3 7-3 6-3 7-3-7 3 6-3 6-3 6-4 5-3 6-3 5-4 6-3 5-4 6-3 5-3 7-4 6-3 6-3 6-3 5-2-6 3 5-3 6-4 5-3 5-3 6-3 6-4 6-3 6-3 6-3 6-3 6-3 6-3 6-2 5-2 6-2 6-2 6-2 5-3 6-3 6-3 5-2 6-3 7-3 7-3 6-3 7-2 7-3 7-2 7-2 6-3 7-2 6-2 7-2 6-3 7-3 7-3 7-3 7-3 6-3 7-3 6-2 6-3 6-2 5-3-6 3 5-3 5-4 5-4 5-4 5-4 5-4 6-4 5-4 5-3 6-4 5-3 7-3 6-3 6-3-7 3 6-3 5-3 6-4 5-4 6-4 6-3 7-4 6-3 7-4 6-2 6-3 7-2 6-3 7-4 6-3-6 3 6-3 7-4 7-4 6-4 7-4 7-4 7-4 8-4 7-4 7-3 7-4 8-4 8-3 7-3 8-3 7-3 8-4 7-3 7-3 7-4-6 3 7-3 6-4 7-3 6-4 6-3 6-3 7-4 6-3 6-3 6-3 6-3 6-3-7 3 6-3 6-4 6-3 6-4 7-4 6-4 6-3 6-4 6-3 6-4 6-3 6-3 6-4 7-3 7-4 6-4 7-5 7-4 7-4 6-4 7-3 6-3 7-3 7-3 6-2 7-2 7-2 8-2 7-3 8-3 8-3 8-4 8-3 7-4 7-4-6 4 7-4 8-5 6-3 8-4 8-3 7-4 8-4-7 3 8-4 7-4 6-4 7-5 6-5 6-5 6-5 6-5 6-4 6-4 6-5 6-4 7-3 7-4 7-4 7-4 7-4 6-3 7-4 6-4 7-4 7-4 7-4 8-5 7-4 8-5 7-4 8-5 8-4 7-5 8-4 6-3 8-4 8-4 7-3 8-3 8-3 7-4 8-4-6 4 7-4 7-4 8-4 6-4 7-3 8-4 7-4 8-3 7-3 8-4 7-3 7-3 7-3 6-3-6 3 5-3 6-4 6-3 5-4 5-3 6-3 5-3 6-4 6-3 6-4 6-4 7-4 6-4 6-3 6-3 6-3 7-3-7 3 6-4 6-3 7-4 6-4 6-3 7-4 6-3 7-4 6-3 6-4 6-3 6-3 6-2 5-3 6-2 7-1 7-2 6-2 8-3 6-3 7-2 7-3 6-2 7-3 6-3 7-2 7-4 7-3 8-3 7-4 7-3 8-3 7-4 7-3 6-3-6 3 6-4 6-3 6-4 5-3 7-3 5-3 6-3 5-3-7 4 6-3 5-3 5-3 5-3 5-3 6-3 6-3 6-3 6-3-7 3 6-3 5-3 5-3 5-3 5-3 5-3 5-3 5-3 5-3 6-4 5-3 6-3 5-4 6-3 7-3 5-3 6-3 6-3 6-2 5-2 6-2 6-2 7-2 6-2 7-3 6-3 7-3 6-2 7-3 7-3 7-3 6-2 7-3 7-2 8-3 7-3 7-2 8-3 7-3 7-2 7-2 6-2 6-3 6-3 6-2 5-3 6-2 5-3 5-3 6-2 5-2 5-3 5-2 5-2 5-3 5-2 5-3-6 3 5-2 5-3 5-3 5-3 7-4 5-2 5-2 5-3 5-2 5-3 5-2 6-2 5-3 5-3-6 4 5-3 6-3 5-3 6-4 6-2 5-3 5-2 5-2 6-2 5-1 5-2 6-1 5-2 4-1 5-2 5-2 4-1 5-2 4-2 5-2 4-1 7-1 5 0 4-1-7 1 4-1 4-1 5-1 4-2 5-1 5-2 4-1 4-2-6 3 5-2 5-3 5-2 6-3 6-1 5-2 6-1 6 0 6-1 5 1"/>
<path d="M6609 8171l 9-4 12-4 14-3 17-4 18-5 21-6 24-5 26-5 29-6 30-7 31-8 32-8 33-9 37-10 40-10 45-11 47-11 47-10 48-9 47-9 46-9 47-8 7-2 49-8 49-7 48-6 46-6 43-5 42-6 42-4 41-3 41-2 40-2 38-3 34-2 31-1 28-1 27-1 24-1 23-1 22 2 21 2 19 3 17 3 6 1 15 3 13 4 13 4 11 4 4 2 8 5 6 5 2 2"/>
<path d="M5650 6207l-3 5-2 6-3 6-3 6-4 6-3 7-3 7-3 7 3-7-2 7-3 6-2 6-1 7 1-7-1 6 0 6 0 5 1 5-1-7 2 4-9-12 4 4 5 2-7-3 6 1 5 1-7-1 5 0-7 1 4-2-6 3 4-2 4-3 4-3 5-5-5 5 4-5 5-6 4-6 4-7 4-6-3 6 3-7 3-7 2-7 2-5 1-5-1 7 0-5 0-5 0-5 0-5 1 7 0-4-2-4 3 6-2-3-2-3 5 5-3-2 6 3-3-2-4-2-4-2-6-3"/>
<path d="M5781 6254l-3 4-2 4 4-13 0 3-15-21 3 0-14 0 4-1-6 3 4-3 5-3 5-4 5-5-5 5 5-5 4-7 5-6 4-7 5-8 4-8-3 7 3-8 3-8 3-8 3-8 2-7 3-6 2-7 2-6 1-6 1-6-1 7 1-5 0-4 1 7-1-1 44 0-1 2-1 5 1-7 0 6 0 5 0 5-1-7 2 4-4-7 3 4 2 5 4 4 3 4 5 4-6-5 5 4 5 5 4 5 4 4 4 5 3 5 3 4 3 5 3 4 3 5 3 4 3 7 2 5 1 7 0 5-1 7-1 5-2 5-3 6-3 4-5 5-4 3-7 4-4 2-6 2-6 2-6 1-6 1-7 2-5 1-6 0-6 0-5 0-6 1-5 0-6 1-5 0-5 1-4 0 23-16-1 0-15-28 6 2 11 3-4-1 14 2 4 1 3 1 2 3 2 3 1 4-1 4-2 3-2 3-3 1-13 6-12 5"/>
<path d="M6184 6161l-3-4-3-3-4-5-3-4-4-5-4-4-3-5-4-4-4-4 6 5-4-4-5-3-4-3-5-3-5-3 7 3-6-2-5-2-6-1 7 1-6 0 7-1-6 2-7 3 6-3-8 4-8 5-8 7-9 8 6-5-9 10-8 10-8 12-8 13-8 15-8 15 4-6-8 15-6 16-6 15-5 15-4 15-3 14-2 13 1-7-2 12-1 11 0 10 0 9 0 8-1-7 2 6-3-6 3 4-12-8 5 2-7-1 7-1-7 2 7-3 8-4-7 3 8-5 8-7 9-8-5 5 9-10 9-12 9-14 10-15 10-16 9-16 10-18 9-17 9-17 9-17 10-17 9-16 10-16 9-15 9-14 9-14 8-12 9-11 7-10 7-9 7-8 6-8 5-5 6-6 6-4 5-4 5-4 4-2 6-3 5-2 7-1 4 0 7 1 5 1 6 3 5 3 3 3 5 5 3 4 3 4 3 6 2 5 1 6"/>
<path d="M6185 6132l 5 4 5 3 5 4 6 4 5 4 5 6 5 4 4 5 5 5 5 5-5-5 5 5 7 4 5 5 5 5 5 5 5 5-5-5 5 5 6 5 6 5 5 5 6 5 5 5 4 5 5 4 4 5 4 6 4 5 3 6 4 5 2 5 4 5 2 5 3 5 2 5 4 6 1 6 2 5 2 5 1 5 2 5 2 5 1 5-1 5"/>
<path d="M7974 5769l-1 7 0 7 0 7 1 7-1-7 2 6-4-6 5 4-19-9 5 0-13 5 5-3 5-5-5 5 3-5-3 6 2-5 2-5 1-6-1 7 0-5-1-6 1 8-2-5 8 11-4-3 7 3-5-1 21-3-5 3 5-5-4 6 3-7-3 7-2 6 1-7-1 7-1-6 1 6 1 6 2 6 2 6 3 6 1 4-1 4-2 3-3 3-4 2"/>
<path d="M7643 6205l-4 4-4 4 5-5-4 5-5 6-4 8-5 8-5 9-4 8-4 8-4 7-4 6-3 8 3-7-3 8-3 8-3 8-3 7-2 7-1 8 1-8-1 7 0 6 1 5-1-7 1 4-3-6 2 4 3 4-5-5 5 4-6-3 7 3-7-1 9 2 10 1 10 0 10 0 10 0 9-2 10-1 4 0"/>
<path d="M7778 6244l-3 5-3 5-2 4-3 5-2 5-2 4 3-6-1 5-1 5 1-7-1 5 1 6-2-8 2 5 1 5-3-7 3 4-5-5 3 4 5 2-7-3 5 1-7-1 5 1 6 0 6-1-7 1 6-1 6-2 7-2 6-2 7-4-6 4 8-5 7-5 7-6-5 5 5-6 5-6 4-7 4-7-3 6 2-7 2-6-1 7 0-7-1-6 1 7-2-6 3 7-3-5-4-5 5 6-5-4 6 3-5-2-6-3-7-2-7-1 7 1-6-1-7 0-6 1-6 0 7-1-5 2 6-3-4 3 5-5-3 5 3-21 1 6-3-7 5 5-5-5 7 4-7-4 7 3-7-2 7 1 7-1-7 1 7-1 8-3 8-3 9-4-6 3 9-5 10-6 9-5 9-6 8-6 8-6 8-7 7-7 8-8 7-6 7-7 7-6 5-6-5 5 5-5 5-5 3-5 2-3 5-5 6-3 1-1 7-1 8 1 6 4 5 5 3 6 2 7 0 4 0 6 1 7-1-7 2 8 3 8 4 8-4-6 5 7 5 7-6-5 6 5 6 5 6 5 6 4 5 5 5 6 5 5 4 6 3 7 3 6 2 7 1 7 0 7-1 8-1 7-2 7-3 6-4 7-4 6-5 6-6 6-4 5-5 5-5 4-4 2-4 3-6 3-5 3-4 1-6 2-7 1-5 0-5-1-6 0-4-1-6 0-7-2-5-1-5-3-7-3-4-4-5-5-3-5-3-6-1-5-2-7 2-8 1-5 3-6 3-5 5-5 5-4 6-3 6-2 7-1 8-2 8-1 5-1 8-1 8-1-5 0 8-1 9-2"/>
<path d="M8320 6145l-1-7-2-6-2-6 1 7-1-7-2-7-2-7-2-7-3-7-3-7-3-7-3-8-4-7-3-7 3 6-4-7-5-8-6-7-7-7 5 5-8-8-9-7-10-8-10-7-11-6-11-6 7 3-12-4-11-4-11-3-11-1 7 1-9-1-10 0-9 2 7-2-8 3-9 4 7-3-8 5-8 6-8 7-7 8 5-5-7 8-5 8 4-6-4 9-4 9-3 9-1 10 1-7-1 8 0 8-1-7 3 8-3-7 4 7-5-5 7 6-7-3 8 3 8 2-7-1 8 0 9-2-7 2 9-3 10-5 12-5-7 3 13-7 13-9 13-9 14-10 13-11 14-10 13-10 13-10 11-11 11-11-5 5 10-11 9-12 9-12 9-12 8-10 8-10 8-10 6-10 7-9 6-8 6-8 5-6 5-5 4-5 2-2"/>
<path d="M3281 4228l-3 5-5 9-4 5-8 7-9 6-10 7-10 8-9 9-9 8-10 8-9 9-9 8-7 7-7 6-6 6-5 4 5-5-4 5 4-6-2 5 0-14 2 5-15-15 6 3-7-1 9 0 11-1-7 1 11-3 13-3 15-4 16-4 15-5 15-5 16-5 14-4 14-5 13-4 11-3 11-4 9-2 8-3 8-2 7-2 7-2 7-1 7 0 7 1 7 3 6 3 5 5 4 5 3 6 1 8 1 7-1 7-2 8-3 9-4 6-5 10-7 11-7 11-8 9-6 5-9 10-10 8-10 9-12 9-12 8-12 7-7 3-12 7-12 5-12 5-10 3-9 2-7 1-8 0-6-2-7-1-5-3-6-3-4-4-3-4-3-6-1-6 0-5 1-5 3-6 2-5 5-6 7-8 3-3 8-7"/>
<path d="M3481 4207l 2 6 3 7 3 9 2 8 3 9 2 9 3 8 2 9 3 7 2 7 2 7-2-6 3 7 2 5 3 7-2-5 3 5-3-4 4 4 3 3 2 3"/>
<path d="M3440 4027l-6 4 4-4-4 5-4 5-5 4-4 4 5-5-4 5-4 4"/>
<path d="M3620 4173l 1 6 1 7 1 8 2 9 0 8 0 7 0 7 0 8 0 9 0 9 1 7-2-7 1 6-3-7 2 3-37 0 2-3-4 6 3-6 2-7 3-9 2-8 3-10 3-10 3-11 3-10 3-11 2-11 3-11 3-10 3-10 3-9 3-9 3-9 3-8 3-6 3-6 3-6 5-5 4-3 6-3 7-2 7 1 5 2 7 4 5 5 5 6 4 7 3 6 3 8 4 7 3 8 3 7-3-6 4 7 4 7 4 7 4 7 5 6-4-4 6 5 7 6 6 4 3 4 2 4 1 4-1 5"/>
<path d="M4043 4070l-1-6 0-6-1-7-1-6 2 7-2-6-2-7-3-7-4-7-3-7-4-8 3 6-5-8-4-7-5-7-5-8-6-8-6-8-6-8-6-7-6-8-7-7 5 5-8-7-9-6 7 3-9-4-10-4-9-3-10-1 7 1-11 0-11 1 7-2-11 3-13 3-13 4-13 6 7-3-12 7-12 8-11 9-10 9-11 9-9 9 5-6-9 10-7 11-6 10-5 9 3-6-3 8-2 8 1-7 0 6-4-13 4 5-11-8 8 3-7-1 9 1 10-1-7 1 11-4 12-6-6 3 13-8 14-8 14-11 15-13 15-13 15-15 14-14-5 5 14-15 13-16 12-15 10-15 10-15 8-14 8-14 7-14 7-13 6-13 7-13 7-12 6-11-3 6 5-11 3-11 3-10 3-8 2-8-1 6 0-7 1-7 1-6 3-6 4-4 5-2"/>
<path d="M5232 5613l 5-8 5-8 5-9 5-9 6-9 7-10 7-10 7-10 6-10 6-10 6-11 7-11 6-10 6-8 5-8 5-7-2 5 5-9 5-11 5-11 3-4 5-9 4-8 4-5"/>
<path d="M5352 5320l 4-2 5-2 5-2 4-2 5-2 6-1 6-2 6-3 7-2 7-3 7-2 7-3 8-2 8-3 7-2 7-1 5-2 7-1 6 0 5 0 7 1 6 4 4 2 5 5 3 3 3 7 2 7 0 5-1 7-1 5-3 6-3 7-4 6-4 6-5 5-5 6-5 5-5 6-6 4-6 5-6 3-6 4-6 4-6 4-6 4-6 3-6 3-6 3-6 3-5 2-5 2-4 3 6-4-3 2 5-5-1 2-19-37 3 0-7 1 6-1 6-2 8-2 8-2 9-2 12-3 13-2 7-2 13-2 12-1 10-1 10 0 9-1 9 0 9 1 8 0 7 1 7 2 7 1 6 2 5 2 6 3 5 3 3 3 5 5 3 4 3 7 2 4 1 7 1 6 0 6-1 6-1 8-3 7-3 6-4 8-6 7-5 5-7 7-6 5-7 5-7 5-8 5-8 5-6 3-9 4-9 4-9 3-9 3-10 3-9 2-10 1-9 2-8 1-7 1-7 0-6 1-7 0-6 0-5-1-5-1-4-1-4-1-4-2-3-1-3-3"/>
<path d="M4508 8065l 3 9 2 8 1 9 1 7 2 10 2 13 2 17 1 19 0 18 0 18 0 15 0 16-1 15-1 17-3 17-1 8-3 17-3 19-4 20-5 22-4 23-5 23-5 24-5 25-5 25-4 24-4 24-4 22-3 21 2-7-3 20-1 18-1 16 0 15 1 14 2 12-2-7 3 10 4 9-3-6 5 7 5 6-5-5 6 4-6-3 6 2 7 2-7-1 8 0 10-1-8 1 11-2 10-3 12-4 11-5-6 3 12-6 13-8 13-9 12-10 12-11 12-11 12-11-3 3 12-12 2-2"/>
<path d="M4336 8447l 3-6 3-6 5-7 8-9 8-9 6-5 10-10 13-10 14-10 14-9 16-9 17-9 6-3 19-9 18-8 20-8 22-9 22-7 20-6 17-3 4 0 13-2 4 1"/>
<path d="M4753 8435l-8 4-8 3-8 4-9 3-9 3-9 3-8 4-9 4 7-3-8 5-8 6-8 7 5-5-7 8-6 7-6 8-6 7-5 8 3-6-4 9-4 10-3 9-4 7-2 6-2 5 1-7-1 6 1 7-4-14 2 4-11-8 5 2-8-1 7 0-7 1 8-1 9-3 9-4 9-4-7 3 9-5 8-5 7-6 8-6 9-8 10-9 9-8 8-8 7-7 8-6 6-5 6-5 5-4 5-4 7-3 7-1 4-1 7 1 7 4 5 5 3 4 3 7 2 7 2 7 1 8 1 8 1 8 0 9 0 8 0 7 1 6-1-7 1 6 2 7 2 7 2 5-3-6 4 5-5-5 4 4 5 2-6-3 5 2 5 2 6 1-7-1 5 1 5 1 5 0-6 0 6 0 6-2 6-2-5 2 6-2 7-5 7-4 7-4 4-2 8-4 7-3"/>
<path d="M4936 8466l 0 8-1 10-1 9-1 11 0 10-1 11-1 11-1 10-1 8-1 7-1 7-1 6-1 8 1-8 0 8-1-7 1 3-36-11 3-2-5 5 5-5 6-8 5-10 6-11-3 6 5-12 6-12 6-13 4-7 6-13 7-12 7-12 7-11 6-10 6-11 6-9 6-8 6-7 5-5 6-6 6-6 6-4 6-3 6-3 7-1 7 0 7 1 7 2 6 3 5 5 5 5 4 7 4 6 3 8 2 8 1 7 1 9 1 7 1 7 0 8 1 8 0 9 1 8-1-6 1 7 0 6 1 7 1 6 0 7-1-5 2 8 2 7 3 7-2-5 3 7 4 5 2 3 0 3"/>
<path d="M5235 8753l 4-10 4-12 5-14 7-15 7-18 9-20 10-24 11-28 11-30 12-29 10-28 11-28 10-28 10-27 10-27 10-27 10-27 8-27 7-27 7-27 7-27 6-26 5-25 5-24 4-22 3-20 2-17 3-15 2-12 2-10-1 7 1-8 1 8-1-4 29 14-4 1 6-3-5 3-7 5 5-4-7 7-7 7-6 9-6 8-5 9-5 9-4 7-3 6-3 2-3 2-3 0"/>
<path d="M5409 8144l 4-4 5-5 6-3 6-4 8-4 10-4 11-3 11-4 12-3 12-3 13-3 13-2 13-2 11-2 7-2 11-1 9-1 10-1 9-1 8 0 9 0 7 1 8 1 7 1 7 2 6 3 6 3 5 5 4 6 3 6 1 7 1 7-2 7-2 9-3 6-5 9-6 9-6 9-7 9-9 10-9 10-5 5-10 10-10 10-11 9-11 8-12 8-13 8-12 7-12 6-6 4-11 5-11 5-9 5 6-4-6 4 5-5-1 2-12-35 4 1-7-1 8-1 11-1 11-2-7 1 12-2 13-3 13-3 14-4 13-3 12-4 12-3 12-3 13-4 12-3 11-2 7-1 12-2 11-1 10 0 10 1 9 1 7 1 9 2 7 4 7 4 7 5 5 5 5 7 3 6 4 8 2 9 1 7 0 9-1 10-1 7-3 11-4 11-4 6-6 12-8 12-9 12-11 13-11 13-5 5-13 13-13 12-15 12-15 12-15 12-16 12-16 11-16 10-17 9-6 3-17 7-17 5-16 3-7 1-15 2-12 0-12 0-6-1-9-3-7-3-5-3-5-5-4-4-4-5-2-5-2-7-1-4 0-8 1-9 1-4 2-10 2-3 2-2"/>
<path d="M5956 8165l 7-2 8 0 7-1 9-2-8 1 9-2 9-1 7-1 11-1 12-1 11 0 12-1 11-2 11-1 11-1 10-1 10-1 3 0"/>
<path d="M5984 8277l 9-4 10-3 11-2 7-1 11-1 12-1 12-2 14 0 14 0 15-1 3 1 3 1"/>
<path d="M6820 7729l 6 1-6 0-7 1 6-1-7 3-10 3-11 3-12 5-12 5-12 5 6-3-11 6-13 7-15 9-17 10-15 10-15 10-14 10-13 9-12 8-11 8-9 8-8 6-6 6 9-12-2 4-14-29 4 1-7-1 9 1 11-1 12 0 13-1 15-1 15-3 16-2 17-2 16-1 17-1 17-1 17-1 16 0 15 2 7 1 14 3 13 3 12 3 9 4 7 3 7 6 5 5 5 6 3 7 4 7 2 8 1 7 0 9-1 7-2 10-5 11-3 6-6 12-8 11-10 11-5 5-12 11-14 11-14 10-16 9-15 8-6 4-15 7-15 7-14 6-12 4-13 3-15 2-7 1-14 2-14 0-13-1-11-2-7-1-9-2-7-4-5-3-5-4-4-6-3-5-2-7-1-6 1-5 1-8 4-10 2-3 5-10 3-3 3-1 4-1"/>
<path d="M6996 7790l 0 10 0 11-1 11-1 12-1 13-1 13-1 14-1 7-3 13-3 13-2 13-3 13 1-7-2 12-2 13-1 6-2 11 1-6-1 10 0 9 0 7 1 7-1-5 2 6 1 4"/>
<path d="M6982 7650l-3 5-3 6 2-4-3 7-2 7-1 3-3 3"/>
<path d="M7101 7916l-1 7-2 7-2 8-2 7-2 7 1-7 0 3-30-22 5-2-6 3 8-6 8-8 10-9 11-11-5 5 11-12 11-14 10-14 10-15 11-14 10-14 10-13 10-11 8-11 7-10 7-9 6-8 6-8 5-5 5-6 6-3 6-4 7-1 6-1 7 1 7 3 6 3 6 5 5 5 4 6 3 7 4 8 2 9 1 7 2 11 1 11 2 11 1 11 1 11 1 11-1-7 2 12 2 10 1 10 2 8 3 7 4 8 4 8-2-5 4 8 6 7 6 6 1 3 1 3-1 4-1 3"/>
<path d="M7831 7826l 1-6 0-6-1 6 0-6 0-6-1-7-1-7-1-7 1 7-1-8-3-8-4-9-5-10 4 7-7-11-8-10-10-11-11-11 5 5-11-10-13-10-13-8-14-8 7 3-15-7-16-6-16-6-16-4-17-3 7 2-16-1-17 2 7-1-17 4-16 5-14 7 6-3-14 8-13 11-12 12 5-5-12 12-11 14-9 13-7 14 3-7-5 13-2 13 1-8 1 11-2-7 4 9-4-6 6 8-5-5 7 7 10 5-7-3 11 2-7-1 11-1-7 2 12-3 12-4 14-7-7 3 18-11 19-13 21-16 22-17 22-18 21-18 22-19 22-19 21-19 20-19 19-19-5 5 17-19 17-19 14-18 13-18 12-17 10-16 10-16 10-14 9-14 8-14 9-13 7-11 8-10 5-8-3 5 4-5 1-2 22 22-6 2-9 3-4 1-3-1"/>
<path d="M6899 8594l 6-1-6 2-6 3 6-3-6 5-6 5-6 4-6 5-8 6-7 6-8 6-7 7-7 7-8 8 5-5-8 9-8 9-7 9-7 10-5 9-5 10 3-7-4 10-2 9-2 9 1-8-1 8 1 6-1-7 2 7 3 7-3-7 4 7-5-5 7 5-7-3 8 4 10 4 10 3-6-1 11 2 12 1 13 1 14 0 13 0 13 0 4 0 3 2"/>
<path d="M7100 8649l 5-2-6 3-6 4-6 5-6 4-6 5-6 5-5 5-4 5 5-5-4 5-4 6-4 6 4-6-3 6-1 7 1-7 1 7-1-7 2 7-3-6 5 6-5-5 6 5-6-3 8 4 10 2-7-1 10 1 10-1 10-1-7 1 11-3 11-3 10-4 10-5-6 4 9-6 9-5 9-6 7-7-5 5 6-6 5-7 5-6 3-6-3 6 2-6-1 7 1-7 1 8-1-7-3-6 3 6-5-5 5 5-5-5-6-4 6 4-6-3-7-3-6-1 7 1-6 0-5 0 13-4-2 2 8-26 2 4-9-12 5 4-6-3 6 2 8 2-7-1 9 0 10 0 11-1 11 0 11-2 11-1-7 1 10-3 11-4 10-4 11-5-6 3 11-6 11-7 10-8 10-8 9-8 9-7 9-8 9-6 8-6 7-6 6-6-5 5 5-6 4-5 3-6-4 7 2-5 2-5-1 7 0-4 1 7-1-4 15 15-3-2 21-3-4 2 5-5-3 4-3 6 3-6-2 7 1-7 0 7 0 8-1-7 2 7 2 7 2 7 4 7-4-7 4 7 4 6 4 6 5 6 5 6 5 6 5 6 5 6 5 5-5-5 5 5 5 5 5 5 5 6 3 6 4 7 2 7 1 7 2 8-1 7-1 7-2 7-3 6-3 7-5 6-5 5-6 6-7 6-8 5-6 3-8 4-8 3-8 3-8 3-10 2-10 3-9 2-7 1-8 1-8 1-8 1-6 0-8-1-5-2-7-3-3-3-5-5-3-7-1-7-1-4 2-7 2-6 3-6 4-5 5-5 4-4 6-3 6-3 7-3 7-2 8-2 7-1 8 0 9 0 10 0 11 1 11 1 12 1 13 2 14 2 3 0 3 2 2 2 2 3"/>
<path d="M7878 8676l 2-6 1-6 3-6 2-6 2-7 2-7 2-7 1-8-1 7 1-8 0-9 1-10-1-11 0-11-2-11-1-12-2-11 1 7-3-12-3-13-4-12-5-13-5-13-5-14-7-14 3 7-8-14-8-13-9-13-11-13-11-12 5 5-12-11-13-10-13-8 7 3-14-6-14-5-14-2 7 1-15 0 7-1-14 3-14 6-14 7 6-3-14 9-14 11-14 12 5-5-12 14-12 14-10 14-10 13-9 13-6 14 3-7-5 13-4 12-3 11-2 10 1-7 0 8 0 8-1-7 2 7-3-7 3 6 4 5-5-5 6 2-14-4 7 1 8-1-7 1 9-3 10-4 11-5-6 3 12-6 13-8 14-10 15-10 16-11 16-12 17-13 18-13 17-13 17-13 17-13 16-14 16-14 15-14 14-13-5 5 12-13 12-12 5-5 10-11 10-9 10-9-5 5 9-8 8-8 7-6 7-6 4-4 6-5-4 4 5-5 4-4 4-4"/>
<path d="M8365 7964l 8-3 9-3 11-3 7-1 13-2 14-1 14-1 17-2 17-1 18-1 18-2 17-2 16-2 15-2 14-1 13 1 4 0 3 2"/>
<path d="M8511 8079l-5 2 12-12-1 2-25-26 7-1 7-1 11-1 12 1 12 0 12-1 13-1 16 0 16-2 3 1 3 1 2 3 1 3 1 3"/>
<path d="M6381 8223l 6-3 6-3 6-2 8-1 6-1-7 1 7-1 7-1 7-1 8-2 8-1 9-1 10-2-7 1 10-2 10-4 10-3 11-4 12-4 11-5 11-5 10-5-6 3 9-5 9-5 7-4 9-5 10-4 8-5 9-4 9-4 9-3 8-4 7-3 6-2 7-2 6-1 7-1 7-1 8-1 8-1 8-1 7 0 8 0 7 1 6 1 7 1-6-1 7 1 6 1 6 1 6 2 4 2 6 4 3 3 2 3 0 4 0 4-2 4-3 3-4 2-4 1"/>
<path d="M6220 8611l 3-5 2-6 3-7 3-6 3-8 4-7 4-7 4-6 5-7 4-6 4-6 4-4 5-5 5-4 6-4 6-3 6-3 7-4 5-3 7-1 7-1 7 0 7 1 7 1 7 3 7 3 7 4 6 7 5 5 7 7 6 7 6 9 3 6 5 11 5 12 5 13 4 13 4 12 4 13 4 13 4 14 6 15 5 15 5 15 5 13 7 13-4-6 7 12 8 11 8 10 8 11 8 9 8 9-5-5 8 8 8 6 8 5-6-3 8 4 9 4 9 3-7-1 9 1 8 0 7 1 6 0 6 0-5 1 7-3-4 3 8-5 8-5 8-7 3-1"/>
<path d="M6581 8526l-5 8-5 7-5 9-6 10-6 12-8 11-8 12-10 12-11 13-12 15-14 16-15 17-15 18-15 19-16 19-15 20-15 20-16 21-15 21-15 21-15 20-14 20-13 19-13 18-2 2-3 2"/>
<path d="M9223 7551l-1 9-1 11-1 11 0 11 0 13-1 14-1 15 0 14-1 13 0 14-1 15-1 16 0 16 0 17 0 15 0 15 0 15 1 16 0 15 1 13 0 12 0 11-1 11-1 10-1 9 0 9-1 7-1 5-1 6-2 6-2 3"/>
<path d="M8939 8096l 10-2-8 1 10-1 10-3 11-3 14-3 15-4 16-5 17-5 19-5 20-6 21-6 22-5 21-6 21-6 21-6 19-5 19-5 18-5 18-3 16-3 7-1 17-2 19-2 18-1 15 0 13 2 5 0 8 4 4 2 6 4"/>
<path d="M8993 8385l-1-6-1-7 0-7 1-6 1-8 1-8 2-9 3-8 3-8 3-6 4-9 5-7 5-8 5-6 6-6 5-6 6-7 5-5 6-5 6-5 7-4 6-3 7-3 6-2 7-2 7-1 7-1 7 2 7 1 6 2 7 3 6 3 6 4 6 5 7 6 5 5 6 7 7 8 7 9 6 10 3 7 6 11 5 14 6 16 5 17 6 18 5 17 4 18 5 18 5 18 5 16 5 15 6 15 5 14 6 12-3-6 6 11 7 9 7 8-4-4 7 7 9 6-5-3 10 5-6-1 13 2 13-2-5 1 14-3 13-5 14-4 3-1 3 1"/>
<path d="M9345 8264l-6-1-6 0-5 0 7 1-5 1 7-1-6 2-5 3 6-3-5 4-6 5-6 6 5-5-7 7-8 9-8 10-9 11-10 11-11 13-12 14-12 15-14 17-15 16-15 18-16 17-16 17-18 18-21 22-20 22-18 21-17 20-2 2-3 2"/>
<path d="M9838 7714l-3 8-4 8 3-6-3 9-4 9-3 10-3 10-3 10-3 11-4 10-3 10-3 12-3 13-2 14-3 15-3 15-5 16-5 18-4 19-6 19-5 21-6 21-5 22-6 23-6 24-6 23-4 24-3 22 1-7-3 22-2 22 0 20 0 19 2 17 2 15 2 15-1-7 3 13 3 12 4 11 4 9-3-7 4 8 5 7-5-6 6 6-7-4 8 4 9 2-7-1 10 1 10 0-7 1 11-1 12-3 12-5 13-7-5 3 13-7 14-7 13-8 12-9 3-2 3 0"/>
<path d="M9605 8088l-3-4-3-5 0-7 0-6 3-6 3-7 5-4 6-7 9-5 6-3 12-6 12-6 15-7 16-6 18-6 21-4 7-1 22-3 23-3 23-3 23-2 20-1 19-1 18-1 17 0 16 1 4 1 15 2"/>
<path d="M10024 8054l-6 5-6 5-7 5-8 5-8 5-9 6-10 6-10 6-10 6-10 7-10 6-10 6-8 6-9 7-7 6-8 8-8 7 5-5-7 8-7 8-7 8-7 8-5 7-4 6-4 6-3 5 4-6-2 6 1-7 0 5-2-7 2 5-8-11 4 4-7-4 7 3 7 1-8-1 8 0-7 1 7-1 8-2 7-3 7-3-7 3 8-5 9-6 9-7 10-8 10-8 10-7 9-8 8-7 8-8 7-7-5 5 7-7 5-6 5-5 3-4 5-5 7-3 1 0 7-2 7 2 6 3 5 5 4 6 1 7-1 8-4 6-1 3-4 6-3 8 3-7-3 7-3 8-2 7-2 8 1-7-1 8-1 7 0 8-1 7 1 7-1-7 2 6-4-6 4 4-5-5 6 3-14-4 7 0 7 0-7 1 7-3 8-3 7-4-6 3 8-4 7-6 7-5 6-5 7-6-5 5 5-6 5-6 5-6 5-5 4-5 4-5 3-5 3-5 3-3 5-6 7-3 2-1 7-1 7 1 6 4 5 5 4 6 0 4 2 7 0 8-1 9-1 9-1 10 0 10 0 10 0 8 1 7-1-7 2 6-4-6 4 4-5-5 5 3-6-3 6 1-7-2 7 0-8 1 7-3-6 3 7-5 7-7-5 5 7-8 9-8 8-10 9-11 9-11 8-12 8-10 8-10 7-9 7-8 7-8 7-7 5-7 6-5 5-5 5-4 7-3 7-1 5-1 7 1 7 4 5 3 5 5 4 6 3 7 2 8 1 7 1 8-1 8-1 8-1 8-1 8-2 8-1 9-2 9 2-8-2 9 0 9-1 7 0 7 0 7 0 7-1-6 1 7 1 6 1 6-1-5"/>
<path d="M10762 8144l 5-3-6 3 4-3-5 5 4-5 4-5 3-7-3 7 2-7 3-6 2-7 2-7 2-8 2-10-1 8 1-11 0-10 0-11-1-11-1-11 1 7-3-11-4-11-4-10-6-10 4 6-7-10-7-10-8-9-9-10 5 6-10-9-11-9-11-8-11-6 7 3-12-5-11-3-12-3 7 1-13-1-13 0 7-1-13 3-13 5 7-4-13 7-12 9-12 9-11 10-12 11 5-5-11 11-11 13-10 12-9 13-7 12 3-7-6 12-4 11-3 10 2-8-1 9-2-7 2 7-4-7 5 6-6-5 6 4-6-3 7 2-7-1 8 0-7 1 9-3-7 3 9-5 11-7 12-9 13-11 14-11 16-13 17-15 18-15 19-15 20-16 22-16 22-16 23-15 23-17 23-19 23-20 21-21 20-19 19-18 19-19-5 5 18-19 18-19 16-19 15-17 13-15 13-12 10-12 10-10 8-8 7-7 4-5-4 13 1-4 9 16-3-2 11 3-6 0 5-1-7 2-8 3-4 0-4 0-3-2"/>
</svg>
