<svg xmlns="http://www.w3.org/2000/svg" viewBox="-5256 -1432 16920 7824" stroke="black" stroke-width="20" stroke-linecap="round" stroke-linejoin="round" fill="none" data-xena="0 0 0"><style>@media(prefers-color-scheme:dark){svg{background-color:black;stroke:white;}}</style>
<path d="M-5095 103l 5-3-6 3 6-4 8-5 8-7-5 5 8-10 9-13 10-15 13-19 14-20 16-22 16-24 17-26 17-28 16-30-3 6 15-32 15-33 13-34 13-35 12-35 12-35 11-35 9-34 9-33 7-31 8-31 6-28 6-28 6-26 4-24 4-22 4-19 3-17 3-14 1-11 2-8 0-2 3-6 5-5 7-3 7-1 7 1 7 3 5 5 3 6 1 8 0 6-1 14 0 17 0 20 1 23 1 26 2 28 2 32 3 34 3 37 4 39 5 41 6 42 7 42 7 40-1-7 7 40 8 40 9 38 9 38 9 36 10 33 10 31 9 28 9 26 9 23 8 19 8 17-3-6 7 14 7 12 5 10-4-5 5 6-11-3 5 0-10 4 6-6-3 3"/>
<path d="M-4956 -48l 7-5 6-3 8-4 10-5 11-5 11-5 12-5 13-5 15-5 15-6-5 3 15-8 5-2 16-8 18-5 19-4 20-3 20-4 3-1 4 1"/>
<path d="M-4379 150l 4 4 3 4 3 6 3 6 3 6 2 8 2 9 1 7 1 9 0 11-1 13-1 11-2 9-1 6-1 7-4 8-2 4-4 7"/>
<path d="M-3899 -385l-1 6-2 7-1 10 1-7-1 13-1 15-2 18-2 20-1 21-1 24-1 24 0 25 1 26 2 26 2 27 3 26-1-7 5 25 6 25 7 23 8 23 10 19-3-6 10 17 11 14 12 13-5-5 13 10 14 8-6-3 15 6 15 3-7-1 16 1 17-2-8 1 18-4 18-7 19-10-7 4 20-13 20-16 20-17 20-19 19-19-5 5 17-21 16-21 14-23 12-23-4 6 11-24 8-24 6-25 6-26 4-28-1 7 2-27 1-27 0-26-1-26-2-24-2-22-3-20 1 7-4-20-4-20-6-18-6-17-6-15 3 6-7-12-7-10-6-9-6-8-5-5-3-5-3-4-3-3-1-4-1-4"/>
<path d="M-3304 61l 5-8 6-11 7-11 9-14 9-15 10-17 11-19 11-21 12-23 12-25 13-26-3 6 13-28 14-29 13-30 12-32 11-33 11-34 9-33 7-33 5-33-1 7 4-32 2-30 1-28 0-27-1-28-1-29-2-27-2-21-1-15-1-11-1-8 0-6 0-2 1-7 3-6 5-6 7-3 7-1 7 1 6 3 6 5 3 7 1 7 1 4 1 7 1 10 2 12 2 15 3 18 3 20 3 22 3 25 4 27 5 28-1-7 5 28 6 30 7 32 8 31 9 32 10 31 10 31 10 30 11 30 11 29 10 28 11 25 9 23 10 23 9 20 8 20 7 18 7 15 5 14 4 12"/>
<path d="M-3258 -108l 7-5 6-4 8-4 10-5 11-5 13-4 15-4 17-3 6-1 19-3 20-3 21-4 24-2 27 0 28 0 29 0 3 1"/>
<path d="M-2718 63l 5-3 6-3 6-2 7-1 7-2 8-1 8-1 9 0 7 1 8 1 7 2 6 2 7 4 5 3 5 4 5 5 4 5 4 5 3 7 2 6 1 7 0 6-1 7-1 6-4 7-3 6-5 6-5 6-6 6-7 7-8 8-10 7-11 7-11 7-11 7-11 7-11 7-11 6-10 7-8 6-7 6-6 5-4 5 5-5-3 4 3-7-1 4 0-14 2 4-9-12 4 3-6-3 5 3 7 2 8 2-7-1 9 2 10 1 12 1 12 0 14 1 15 0 16-1 17-1 18-1 19-2 4 1 2 1 3 2"/>
<path d="M-2097 -451l 1 10 1 12 0 15 0 16 0 18-1 20 0 21 0 23 0 25 1 26 2 26 2 27 3 27 5 26-1-7 5 25 7 24 7 22 7 20 9 18-3-6 10 17 11 15 12 13-5-5 13 10 15 8-6-3 16 6 17 3-7-1 17 1 18-3-7 2 17-6 18-8-6 3 18-11 19-12 19-15 19-16 18-18-5 5 18-19 18-22 16-22 15-24 14-25-4 6 13-27 12-28 10-29 9-30 8-29 7-29 4-27-1 7 3-27 0-25-2-24-2-22-3-20 1 7-4-18-5-15-6-14 3 7-7-13-7-10-7-9-7-9-7-7-6-8 5 5-6-6-5-6-4-4-4-4-4-5-2-5"/>
<path d="M-1233 38l 6 1"/>
<path d="M-1069 26l 5 1"/>
<path d="M-840 17l 6 1"/>
<path d="M-376 -449l 1 9 1 10 1 12 0 13 1 15 0 16 1 19 1 20 1 21 1 21 2 22 4 22 3 22-1-7 5 23 6 22 6 21 7 20 9 18-4-6 10 17 10 15 10 14 11 12-5-5 11 10 12 9 13 7-6-3 13 6 14 3-7-1 14 1 15 0-7 1 15-4 15-5 16-7-6 3 16-10 18-12 18-13 18-14 18-16 18-17 19-19-5 5 17-19 17-20 15-21 14-22 12-23-3 7 10-24 9-24 8-24 7-25 5-25-1 8 3-25 1-25 1-23-1-23-2-21 1 7-3-19-4-17-5-15-5-13 3 6-6-12-6-10-6-9-6-8 4 4-6-7-4-4-5-6-4-5-4-4-3-4-2-4"/>
<path d="M288 103l-2 4 3-4-2 4-1 6 0 5 1-6 1 4-4-12 3 3-17-9 4 0-7 1 6-4-7 4 8-7 9-9-5 5 11-12 14-16 15-19 17-22 18-25 17-27 16-30 17-32-4 6 16-35 16-37 16-39 16-40 16-43 15-42 14-43 12-41 12-41 12-40 10-38 9-36 8-34 8-32 7-28 7-25 6-22 6-19 5-16 4-13 3-11 3-8 3-7 3-6 3-5 5-5 7-3 3-1 7-2 7 1 7 4 4 3 5 5 5 7 6 10 3 6 5 13 6 15 5 17 6 21 6 23 6 27 7 29 8 30 7 31 8 32 7 31 7 31 6 32 7 32 7 32 7 31 8 30 8 29 9 28 8 27 10 24 9 23 10 22 9 20 9 19-3-6 9 17 3 6 8 15-3-6 7 14 7 10 5 9 5 8 2 4"/>
<path d="M491 -203l 7-2 8-3 11-3 12-2 7-1 15-2 16 0 19-1 21-1 23-3 25-2 28-2 28 0 28-1 3 1 3 1 2 3"/>
<path d="M1148 3l-1 7 1-7-1 9-1 9-1 10-1 10-1 11 0 10 0 11 0 12 0 12 0 12 1 12 0 10 1 10 1 9 1 9-1-7 2 8 2 8 3 7-3-6 3 6 3 5-5-5 4 5-5-3 4 2-5-1 6 2 7 0 8-1-5 0 9-3 9-4 4 0 4 0"/>
<path d="M1124 -217l-1 5"/>
<path d="M1571 -453l 3-4 6-3 3-2 5-2 5-2 6-2 7-2 8-1 7-2 10 0 11 0 12-1 13-1 13-1 15-1 14 0 15-1 13 0 13-1 3 1"/>
<path d="M1580 -364l 7 1 8 1 8 0 9 0 11 1 11 0 12 1 13-1 15-1 16-1 15-1 15-2 15-1 3 0 3 2 2 2"/>
<path d="M2217 -69l 1 5 2 5-1-6 2 5 3 4-3-6 3 4 3 3-5-5 3 2-14-5 4 1-7 1 5-2 6-2-7 3 6-4 8-7-5 5 8-9 9-10 11-14 13-17 15-22 15-23 15-22 14-24 15-28 15-28 13-26-4 7 12-27 12-30 11-30 10-27 8-29 9-32 7-31 7-27 6-26 8-28 8-27 7-23 6-18 4-13 3-9 4-7 2-5 5-5 7-3 3-1 7-1 7 1 6 3 5 5 3 5 4 6 2 10 3 11 1 7 2 12 1 12 2 13 1 15 2 17 2 21 2 24 3 23 3 22 3 23 3 26 4 26 4 25 4 26 5 28-1-7 5 28 5 24 4 21 5 22 5 21 5 20 6 19 6 19 6 18 6 16 6 14-3-5 6 12 3 6 5 10-2-5 5 8 5 7 5 6"/>
<path d="M2293 -287l 5-3 8-3 10-3 10-3 12-2 7-1 12-3 14-2 15-2 15-2-7 1 15-2 15-3 6-1 16-1 16-1 16-1 15 0 12-1 12 0 12 0 3 1"/>
<path d="M2842 -74l 0 6 1-7 0 7 0 9 0 8 0 7-1 7 0 10-1 11-1 10-1 9 0 7-1 7-1 7-1 8-1 5-1 8-2 7-1 5"/>
<path d="M2145 -885l 11-1 14-2 18-1 19-1 17 0 17-2 19-1 22-2 24-2 24-2 26-3 28-4 33-4 31-5 25-2 22-3 22-1 24-2 25-1 26-2 25-1 25-1 24 0 25-1 27 0 23 0 17 1 14 0 12 1 13 1 5 1 11 2 9 3 9 3 7 2 7 1"/>
<path d="M3252 -189l-2-7 1 6-2-9-3-8-1-6-2-9-2-8-1-10-2-11 0-13 0-16 2-19 2-21 1-7 3-21 4-19 3-17 5-17 5-18 6-20 8-21 7-21 9-20 8-19 9-18 3-7 10-19 11-20 11-20 10-17 10-16 9-13 7-11 7-10 6-8 6-6 6-5 6-5 6-4 6-4 7-3 6-2 7-1 7 0 7 1 6 1 6 2 6 2 7 3 6 3 6 3 7 4 5 5 6 6 5 7 4 7 4 8 4 6 4 10 6 11 6 13 5 13 5 12 4 12 4 13 4 16 5 19 4 20 1 7 4 19 2 18 2 16 2 16 0 16 0 17 0 17-1 19 0 19 1 21 0 22 0 19 0 16 1 13 0 13 0 12 0 12 0 13 0 13 1 12-1 10-1 8 0 9-1 8 0 8 0 7-1 5"/>
<path d="M3889 -138l 2-6 3-8 4-10 5-12 5-12 6-12 5-12 7-15 8-16 9-18 3-6 10-20 10-21 12-24-3 6 13-28 14-29 13-29 11-28 10-29 7-29 7-30 6-29 5-29 4-27 4-24 4-21 3-17 3-15 3-12 2-11 2-9 3-6 2-4 5-5 7-3 7-1 7 1 6 3 6 5 2 5 4 7 2 11 2 7 2 15 2 16 1 15 2 17 2 18 1 19 3 22 4 25 4 28 5 29-1-7 4 27 5 24 4 21 1 7 3 20-1-7 4 21 5 25 5 27 5 27 4 22 4 18 5 19 5 20 6 22 7 22 6 20 5 16 5 13 4 13 4 11 2 10 1 4"/>
<path d="M3934 -230l 9-3 10-4 12-6 14-5 15-4 7-1 18-3 17-2 14-1 15-2 19-3 22-3 21-2 21-2 22-1 3 0 3 2"/>
<path d="M4490 -37l 3-4 6-3 4-2 5-2 5-2 5-2 5-1 7-1 5-1 5 0 7 2 4 1 7 3 4 2 5 5 3 5 4 6 2 6 1 7 0 8-1 7-2 7-2 7-3 6-3 7-4 6-4 6-6 8-7 8-6 9-6 8-6 7-5 7-5 6-5 6-4 5-3 4-3 3-4 5-3 4-3 5 4-6-2 6 1-7 0 6-1-7 2 6-4-6 4 4-11-8 5 3 6 1 6 1-8-1 6 1 8 1 9 0 10 1 9-1 11 0 10 1 11 0 12-1 11-1 12-1 12-1 12 0 12-2-5 1 11-2 9-2 4 0"/>
<path d="M-3555 718l-5-1 7 1-6 1 7-1-7 2-7 3-10 3-11 5 7-3-13 6-13 9-13 12-15 14 5-6-15 16-15 18-15 20-16 23-15 24-16 25-14 27-15 28 4-6-14 28-14 30-13 33-14 37-12 34-8 28-6 24-5 25-4 26 1-7-3 26-3 27-1 26 0 26 1 24 2 24 3 23-1-7 3 21 6 21 6 18 8 17-3-6 10 17 11 15 12 14-4-4 13 13 14 11 15 10 16 9 16 8 3 2 1 3"/>
<path d="M-3371 1329l-5-5-6-5 4 4-6-5-6-4-7-5-7-4-7-4 7 3-8-3-7-2-7-2 7 1-7 0-7 0-7 1 7-1-7 1-8 3 7-3-8 4-8 7-9 8 5-5-9 10-8 11-8 12-8 15-8 15 4-6-7 14-6 15-6 14-5 15-5 15-4 14-3 14 1-7-1 13 0 12 1 10-1-7 2 9 3 8-3-7 4 7-5-5 5 5-6-3 7 3-7-1 8 0-7 2 9-2 11-5-6 3 12-7 13-9 15-12 14-13 16-14 15-15-5 5 14-16 15-18 13-18 13-19 13-20 11-20 11-21-3 6 10-20 8-22 8-21 7-22 6-24 6-24 4-26 4-29-1 7 4-32 4-36 3-37 2-34 3-30 2-26 2-24 2-21 1-17 1-16 0-13-1-10 1 7-1-8 3 6-2-3 32 5-4 2 5-5-4 8 3-7-3 12-4 14-3 15-2 15-3 15-3 15-2 16 1-7-3 18-2 21-3 23-2 25-3 25-3 26-4 27-3 27-3 27-4 26-3 26-3 26-1 26-1 25 0 23 0 22 1 21 2 19 2 18-1-7 3 16 3 15 4 13-3-6 5 11 6 9-4-4 7 6 7 5-5-2 8 3 8 3 9 1-4 0 10 1 3 0 3 2 3 2 1 3"/>
<path d="M-3118 1305l 4 3 5 2-7-3 6 2 6 1-7-1 7 1 6 0 7-1 7-1 7-1-7 1 7-1 7-3 8-3-7 4 7-4 7-4 6-4 6-5 5-4 5-5-5 5 4-5 3-4 3-5-3 6 2-5 1-4-1 7-1-5 1 7-1-5 3 7-2-5-4-4-5-5 5 5-5-4-5-4-6-3 6 3-6-3-6-2-6-2-6-2 7 1-6 0-6 1 8-1-7 1-6 2-6 4 6-4-6 5 5-5-5 6-6 7-5 8-5 9 3-7-5 10-4 11-4 12-4 12-3 12-2 12 2-7-1 12-1 13 1 11 1 11 1 11 2 10-1-7 2 11 3 11 4 9-3-7 4 8 6 7 6 6-5-5 6 7 7 6 8 5-6-3 8 4 9 4 10 4 12 2-5-1 15 1 17 0 19-1 19-1 19-2 3 1 3 1 2 2"/>
<path d="M-2224 1063l 1-6 2-7 3-7 3-7 3-6 4-8 4-9 6-9 7-10 6-10 7-9 7-9 7-8 6-7 5-5 6-6 6-4 7-4 6-3 7-2 7-1 7 1 7 1 7 2 6 4 7 4 5 5 5 5 4 7 3 7 4 8 2 10 1 7 2 13 0 15-1 17-2 19-1 7-3 17-3 17-5 16-6 18-6 19-6 20-7 21-7 21-8 21-7 21-8 20-8 19-7 19-7 18-7 18-7 17-6 17-5 15-4 11-2 8-2 6-1 2-3 7-5 5-7 3-7 1-7-1-6-3-5-5-4-7-1-7 1-7 1-2 3-6 4-10 6-13 7-16 9-18 10-21 4-7 11-22 12-24 14-25 14-24 15-24 14-24 15-23 14-22 15-22 16-21 17-23 18-23 17-23 16-21 14-18 13-15 5-5 13-12 10-10 9-7 7-5 6-3 6-3 6-2 7-1 5-1 5 0 7 1 5 2 7 4 4 4 5 5 4 6 3 6 3 8 1 10 2 7 1 12 0 13-1 16-2 17-2 18-1 7-3 20-4 20-4 22-5 21-6 22-6 22-6 21-7 21-8 21-7 20-8 19-7 18-7 17-7 16-6 15-6 14-5 12-5 11-3 6-5 8-3 6-1 2-5 5-6 4-7 1-7-1-7-4-5-5-3-6-1-7 1-7 3-7 2-2 4-7 6-11 8-14 9-17 10-20 12-21 12-24 13-25 14-28 14-28 15-30 17-31 18-34 20-35 20-34 20-31 19-27 18-23 17-20 16-17 5-5 15-14 14-13 11-9 10-8 8-7 7-5 6-4 6-4 6-3 5-1 8-2 4 1 7 1 7 3 3 2 6 5 2 4 4 6 1 5 2 8 0 8 0 11-2 7-2 13-3 15-4 16-5 15-6 17-6 18-8 19-9 22-10 23-10 25-10 25-11 26-10 26-10 26-9 25-8 25-8 24-7 24-7 23-5 22-4 20-3 19 1-7-2 18-1 18 1 17-1-7 2 16 4 14-3-5 5 9-4-4 7 6"/>
<path d="M-1402 1207l-6 5-8 7-7 7-7 7-7 7 5-5-6 8-6 9-5 9-6 10-7 10-6 11-5 10 3-6-5 11-3 11-4 12-2 11-2 10 2-7-1 10 0 8 1 8-1-7 2 6 3 6-3-7 4 6 5 5-5-5 6 5 6 3-6-3 6 3 6 1-7-1 7 1 7 0-7 1 7-2 8-2 8-3 8-3 7-3-6 3 7-4 7-5 7-6 6-6-5 5 6-7 5-8 4-8-3 7 3-8 2-8 2-8-1 7 0-8 0-8-1-8 1 7-2-8-2-7-2-7-4-7 4 7-5-6-5-5 5 5-5-5-5-4-5-3 6 3-5-2-6-1-5-1 7 1-4 0-5 0-4 0 7-1-3 0-4 1-7 1-7-1-6-3"/>
<path d="M-1259 1217l 6-3 4-3-6 3 5-3 4-3 5-4 5-5 7-3 6-4 7-4 7-3 7-4 7-3 8-3 8-2 8-2 7-1 8-1 7-1 6 0 7 1 6 1 5 2 7 3 5 3 4 3 5 5 4 5 3 6 2 5 2 7 0 6-1 7-1 7-2 7-2 7-4 7-3 7-4 7-6 7-6 9-6 8-7 9-8 8-8 9-7 9-7 9-7 9-7 9-6 9-6 8-6 10-5 9 3-6-4 9-2 8-2 6 2-7-1 5 1 6-1-7 2 5 2 4-4-6 3 4-5-4 4 3-6-3 5 3 6 2-6-1 7 2 7 0 9 0-5 0 9-2 10-2 5 0 10-2-4 1 11-3 12-3 3 0"/>
<path d="M-854 1225l-2-4 1 6-1-5-2-4-2-5-3-5 3 6-3-4-3-4-4-4 5 5-4-3-4-3 7 3-4-1-5-1 8 1-6 0 7-1-8 2-10 3-10 3-11 4-11 5 7-3-12 7-12 7-13 9-15 8-14 10-15 10-13 11-12 12 5-5-11 13-11 13-8 13-7 12 4-6-5 12-3 12 1-7-1 11 1 9-2-7 3 8-3-6 4 6-5-5 6 5 7 4-6-3 9 2-7-1 10 1 12 0 13-1 14-1 13-2-7 1 13-2 13-3 13-4 12-4 11-4 9-5-6 3 9-5 8-5 7-5 5-5-5 5 5-5 4-5 4-5 3-4 2-3 5-5 1-1 6-3 7-1 7 1 7 3 5 5 3 6 1 8-1 7 0 3-2 5-2 8-3 8-3 9-3 11-3 12-4 13-3 14-3 15-4 15-4 17-4 17-5 18-5 18-5 19-6 20-5 21-7 22-6 22-6 23-7 25-8 25-8 24-9 24-10 23-10 22-3 6-10 20-10 19-10 18-9 16-10 14-9 13-10 11-5 5-9 10-8 7-9 5-6 3-8 3-7 1-7 1-7-2-6-1-7-3-5-4-5-5-5-6-3-6-5-9-3-10-1-7-2-13-2-16 0-17 1-21 2-23 1-7 4-26 7-29 9-28 11-29 14-27 3-6 15-26 16-25 19-24 20-24 22-24"/>
<path d="M-626 1269l-4-3-3-4-3-3-4-3-3-3 5 5-3-3-4-3 6 3-5-1-5-1 7 1-7 0-7 0-8 1 7-2-9 3-9 4 6-3-9 5-10 7-11 8-11 9-11 10-11 10-11 11 6-5-10 11-8 11-6 11 3-6-5 10-4 10-2 9-2 8 1-7-1 7 0 7-1-7 2 6-3-6 3 5-5-5 5 3-7-3 7 2-7-1 8 1 10-1-7 1 11-3 12-4 12-5 12-6 13-6-7 3 13-7 12-7 11-7 11-7 9-6 8-6 6-5 6-5-5 5 4-5 2-3-3 6 0-1 41 21-1 1-1 3 3-7-2 4-1 5-1 5-1 5 1-7 0 5 0 5 0 5 1 4-1-7 1 4 0 4 1 5 1 4 2 4-3-6 2 3-5-5 4 3 4 2-7-3 5 2 6 1-7-1 6 0 7-1-7 1 7-1 7-3 7-3-6 3 7-4 7-4 7-5 8-6 7-6 8-8-5 5 8-9 9-9 5-5 10-10-5 5 9-10 8-9 6-9 5-7 5-7 4-6 3-5 3-4 0-1 5-5 7-4 7-1 7 1 7 4 5 5 3 6 1 7-1 7-1 3-2 6-2 7-2 7-1 7-2 7-1 7-2 8-1 7 1-7 0 8-1 7 0 7 1 6 0 5-1-7 2 4-9-12 4 2-14-5 5 0-7 1 6-3-6 4 7-4 7-5 6-6 7-7-5 5 8-8 5-6 10-10 11-10 10-10 9-9 9-9 9-7 9-6 9-6 9-6 8-4 6-3 8-4 7-2 8-2 7-1 7-2 7 0 7 1 6 1 7 4 5 3 5 5 5 5 3 6 3 7 3 7 1 8 1 7 1 6 1 6 1 6 1 7-2-7 1 7 1 6 1 7 2 7 2 6-3-5 3 6 3 5 4 5-3-4 6 6 2 2 2 3 1 4"/>
<path d="M-50 1115l-1 7-3 7-3 8-3 6-5 8-6 7-6 6-7 9-7 10-7 10-7 8-2 3"/>
<path d="M-34 1277l 7-3 9-4 9-5-6 4 10-6 11-6 12-7 11-7 12-8 12-8 11-8 11-9 9-9-5 5 9-10 8-10 7-10 7-9 7-10 6-10 4-9 4-7 3-7-3 7 3-7 3-7 3-6 1-6 1-6-1 7 0-6 0-5 1 8-1-4 9 11-2-1 27 0-2 2 5-5-3 4 3-6-2 6-2 6-1 6 1-7-1 6 1 7 0 7 2 9-1-8 2 9 2 9 3 8 3 7 3 7 4 8 3 8 5 10 4 9 4 9 4 8 3 9 3 8 1 7 1 8 0 8-1 7-2 8-2 8-3 6-4 6-3 5-5 5-5 4-4 3-6 4-5 2-6 2-6 1-6 2-7 2-8 1-7 1-8 1-9 1-8 1-9 0-9 1-8 1-8 0-6 0-7 0-4 0-7-1-7-3-1-1-5-5-4-7-1-7 1-7 4-6 5-5 2-2 7-4 5-2 7-2 8-2 7-1 8-1 10 0 11-2-7 1 12-2 12-3 12-3 12-4 12-4 12-5 11-4 13-5 12-4 13-5 13-5 13-5 12-5 12-4 12-5 12-5 11-5 4-1 3 1"/>
<path d="M309 852l 11 9 11 10 5 5 12 11 11 12 10 12 10 13 9 14 8 15 8 15 4 6 6 13 7 13 6 13 6 14 6 14 6 15 5 15 5 15 4 16 4 15 3 15 3 15 1 7 3 15 2 16 1 20 0 21-2 20-1 8-4 17-4 15-6 14-8 15-3 6-9 16-11 18-12 18-13 18-16 18-3 4-17 17-19 17-19 17-20 17-2 2-4 0"/>
<path d="M3775 -938l 7-1 12-2 14-2 15-1 17-1 17-1 16-1 19-1 24-2 28-1 27-2 28-1 26-1 27-2 24-1 22 0 20 0 21-1 25 0 25 0 21 1 19 1 20 2 23 1 27 1 27 0 24 1 22 0 19 2 17 2 15 2 15 2 14 2 14 3 13 2 11 2 8 1 7 2 6 0 7 2 7 2 9 3 7 1 7 2 3 2 3 2"/>
<path d="M1986 -1127l 11 2-6-1 11 1 11-1 12-2 13-2 13-2 14-1 15-1 14-1 17-2 18-3 20-2 22-2 25-3 28-2 31-2 34-2 36-3 38-4 40-4 44-4 48-2 52-3 55-4 57-4 59-3 61-3 64-2 68-3 71-3 73-4 76-4 79-3 83-3 85-4 89-4 91-4 94-4 98-5 100-4 103-4 105-4 106-3 108-4 111-3 113-4 113-4 114-4 115-3 116-3 118-1 121-1 120 0 118 1 117 1 114 2 115 3 115 4 115 3 113 4 111 4 108 4 107 4 106 4 103 5 100 4 95 5 90 5 87 6 83 6 78 5 74 7 68 5 61 5 55 4 52 5 48 6 44 7 37 6 32 5 26 4 5 1 20 4 14 4 11 5 4 2 8 4"/>
<path d="M4956 -329l-1-9 0-8 1-6 1-9 2-9 3-11 4-13 4-16 7-19 8-19 8-18 10-20 3-7 12-23 12-23 12-22 11-21 11-19 12-18 11-17 10-15 10-14 9-12 9-10 8-9 5-5 8-8 8-6 8-5 7-4 6-3 7-4 8-2 7-2 7 0 7 1 7 1 6 3 7 4 5 5 7 7 6 9 6 11 4 6 5 12 4 12 3 12 3 13 3 15 4 17 4 19 4 21 1 7 4 21 2 18 3 18 3 19 3 19 2 16 1 16 2 18 2 18 2 17 2 16 1 15 1 15 0 14 0 14 1 13-1 11 0 10 0 9 0 7 1 7 0 6 1 6-1-5 2 6 3 6 0 4 0 4"/>
<path d="M5508 -1007l 10-1 12-1 14 1 17 0 19 2 22 2 23 1 24 1 25-1 24 0 24 0 26 0 27-2 27-2 26-2 27-1 28 0 31 1 31 0 31 1 30 1 29 1 27 2 25 1 24 0 23 0 23 0 23 2 21 1 18 2 6 1 16 3 15 3 13 4 12 5"/>
<path d="M8374 -1023l 9 0 7 1 9 1 10 2 11 1-7-1 13 2 7 1 15 2 16 4 18 3 20 4-8-1 22 2 24 3 25 2 26 3 27 3 27 2 27 2 25 1 24 1 25 2 24 1 24 2 24 0 24 0 24 0 24-1 24 0 24-1 22 0 22 0 20 1 17 0 16 0 14 0 12 0 11 1 10 0 8 1 3 0 4 2"/>
<path d="M7504 -1131l 7-3 7-1 8-2 8-2-7 1 9-2 9-3 8-1 11-1 13 0 14 1 16 0 16 0 18 0 19 0 19 0 19-1 18-2 18-2 20-2 21-2 23-1 26-1 27-2 30 0 32 1 33 1 32 0 32-1 30-2 29-1 29-1 30 0 33-2 34-1 37-1 38 0 37 1 37 0 36-2 37-2 39-1 42 0 43 1 43 0 44-2 42-2 40-3 39-3 41-3 40-3 40-1 41 0 39 0 38 1 37 0 34 0 33-1 32 0 31 0 31-1 31 0 29 0 28-1 26-1 25 0 22 0 21 1 18 0 17 2 16 1 15 2 14 1 13 1 12 1 5 1 10 1 10 3 8 3"/>
<path d="M10246 -475l 3 6 6 10-3-6 6 10 7 9 8 10 8 9 8 10 9 9-5-5 9 8 9 7 9 6 8 5-6-3 6 3 6 2-7-1 7 0 8 0 8-1-7 1 9-3-6 3 11-6 14-11 19-19-5 6 20-23 21-25 19-26 19-27 19-30 19-31 20-33 20-35 21-36 23-38 24-40 25-43 23-44-3 6 23-45 21-46 21-44 20-43 21-40 20-39 2-4 20-36 19-32 18-31 2-3"/>
<path d="M10908 4207l 0 9-1 9 0 11 0 13-1 15-1 16 0 17-1 20-1 20-1 20-1 21 0 22-1 22 0 21 0 22 0 21 0 22 0 21 0 20 0 19 0 18 1 18 0 21 0 19 0 17 0 13-1 10 0 8 0 7-1 6-1 7-1 1-3 6-5 5-6 3-7 2-7-1-7-4-5-5-3-6-1-7 1-5 1-7 1-8 2-10-1 5"/>
<path d="M10858 4289l-6 3-6 3 7-3-6 3-5 3-5 4-4 3-5 4-5 4-4 4-5 4-5 4 5-5-3 4 3-6 0 1-36-26 3-2 5-4 6-5 6-5 5-3 5-4 5-2 7-4 5-2 6-3 5-2 6-2 5-1 6-1 7-2 5 0 6-1 6 0 5-1 5 0 5-1 6 0 6 0 6 0 6 1 8 1 6 1 5 2 6 1 5 2 5 2 5 1 6 2-7-1 5 0-7 1 4-1-11 9 2-3-4 14 0-4 1 7-2-4 3 7-3-5-5-4-4-5-4-3-3-4-4-4-4-5-5-5-5-5 5 5-5-4-4-5-5-5-5-5-5-5 5 6-4-4-4-4-5-5-4-4-3-3-4-4 5 5-3-3 6 3-3-1 26-8-1 2 4-14 1 4-2-7 2 5-3-6 3 5 3 5 3 5 5 5 4 5 5 5-6-5 5 5 5 4 5 5 4 4 4 4 3 4 3 4 3 3 4 5 3 4 3 4 4 5 3 4 3 5 3 6 1 7-1 7-3 7-5 5-7 3-7 1"/>
<path d="M-968 5568l 0 4-1 6 1 2-3 6-5 5-6 3-7 2-7-1-6-4-5-4-3-7-1-1-1-7-1-5 0-6 0-7 1-7 0-9 1-9-1-11 0-12-1-12 0-13-1-13-1-14 0-14-2-15-1-15-2-17-2-17-2-18-3-18-2-19-2-18-2-19-1-18-1-19-1-18-1-17-1-17-1-14-2-14-1-12-1-10 0-10-1-8-1-7-1-7 0-5 0-4 0-2 1-7 3-7 5-5 7-3 7-1 7 1 7 3 5 5 3 7 1 7 0 2 0 4-1 6 0 8 0 8 0 9 0 10 0 12 0 13-1 14 0 15-1 17-1 17-1 19 0 19-1 19-2 19-1 20-1 19-1 19-1 19-1 19 0 18-1 18-1 17 0 16 0 14 0 14 1 12 0 12 0 12 1 9 0 9 1 6 0 6-1-7 0 2-44 0 1-3-1 8 0-6 0-6 0-7 0-7 0-7-1-8 1 6-1-8-1-9-1-9-1-9"/>
<path d="M-1048 5114l 2-4-3 7 0-2 35 26-1 2 5-5-4 4-5 6-6 6-6 7-7 7-8 8-7 8-8 9-6 9-7 9-7 9-7 8-6 7-5 7-4 6-4 4-1 3-33-32 2-2 4-4-5 5 5-5 6-7 5-7 7-7 6-7 5-5 6-6 7-7 6-6 6-7 6-5 6-6 5-5 5-4 5-3 6-3 4-2 4-2 8-1 4 0 4 0 8 1 4 1 7 3 4 2 5 4 5 5 4 4 4 4 4 4 4 4 4 4 4 5-5-5 4 4 5 4 5 3 5 4 5 3 4 3 4 3 5 3 4 4 4 3 5 3 4 3 4 3 4 3 4 2 4 3 3 2 3 2 5 5 3 6 1 7-1 6-3 6-5 5-6 3-7 2"/>
<path d="M375 5185l 0-4 1-6 0-2 3-6 5-5 6-3 7-1 7 1 6 3 5 5 3 6 2 4 1 7 1 7 1 9-1 10 1 11 0 13 0 14 1 16 0 17-1 19 0 19-2 20-1 21 0 22-1 22-1 22-2 24-2 24-1 24-1 24-1 25-1 24 0 24 0 24 1 22 1 21 1 19 2 18 2 16 1 15 2 13 2 11 1 10 1 8 0 7 0 5"/>
<path d="M401 5251l 6-3-4 3-5 3-6 4-5 4-6 4-6 5-5 5-6 6-5 5-6 5 5-5-5 6-5 6-5 7-4 5-4 5-4 4-3 3-1 2-5 5-7 3-7 1-7-1-6-3-5-5-4-7-1-7 1-7 4-6 1-3 3-4 4-6 5-7 6-7 5-8 6-8 6-8 6-8 6-8 6-7 5-8 5-7 4-6 4-7 3-5 3-5 5-5 3-3 6-3 8-1 3 0 7 1 7 4 4 2 5 6 4 4 3 5 4 4 3 5 4 4 3 4 4 4 3 3 3 5 4 4 4 4 3 4 4 3 3 4 3 3"/>
<path d="M1534 5331l 0 9-1 9-1 11-1 13-1 13 0 15 0 16-1 17-1 18 0 19-1 20 0 20-1 20 0 20-1 21-1 20 0 21-1 20-1 19 0 18-1 18 0 17 0 15-1 14 0 13 0 12 0 10 0 10-1 10-1 7-37-19 3-1-5 4 10-15 3-3 3-1 4-1 4 1"/>
<path d="M1496 5392l 1-5-3 6 2-5 0-5-1 7 0-4 9 19-2-2 7 3-4-1 14 0-4 1 7-3-5 2-4 4-4 4-5 5-6 5-6 6-6 7-7 7-7 7-8 7-7 7-6 6-7 6-7 6-6 5-5 4 5-5-3 4-1 2-6 5-6 3-7 2-7-2-7-3-5-5-3-6-1-7 1-8 3-6 2-2 4-5 5-5 5-6 6-6 6-6 7-6 7-6 7-6 6-7-5 5 6-6 5-5 6-5 4-5 4-4 4-4 4-3 3-3 7-3 4-2 7-1 4-1 5 1 7 1 6 1 5 1 6 2 6 2 6 2 6 2 7 3 6 3 6 3 6 4 7 3 6 5 7 5 6 5 6 5 5 5 5 5 5 6 5 5 4 5 4 5 3 5 4 5 3 6 4 6 3 5"/>
<path d="M5541 -204l 3-9 3-6 5-11 9-14 11-19 12-20 12-19 12-19 12-20 14-23 15-28 14-30-3 6 13-30 12-30 10-31 9-32 7-31 7-32 8-29 6-28 7-25 6-22 6-19 6-16 5-15 4-13 4-11 4-9 3-6 5-5 4-3 6-4 7-1 7 1 7 4 5 5 4 4 3 6 3 9 3 11 3 13 1 7 3 16 2 17 3 17 1 17 2 20 2 24 3 26 4 25-2-7 5 24 4 20 6 22 6 25 7 28 7 26 8 26 7 24 8 23 7 23 7 22 7 21 8 20 6 18 7 16 7 16 7 15 6 15 6 13 5 11-3-4"/>
<path d="M5702 -358l 9-5 10-4 12-4 13-4 13-3 6-1 12-1 15-1 22-2 25-4 26-2 26-1 27 0 28-1 3 1 3 1"/>
<path d="M6157 -279l 8-1 8 0 7 0 7 1 8 1 8 1 9 1 8 1 8 1 7 2 7 2 7 3 6 3 5 5 5 5 4 6 3 7 2 6 1 7 0 6-1 7-2 5-3 6-3 5-4 5-3 5-4 4-4 5-6 7-5 7-4 6-4 5 3-6-2 5 1-7 1 6-1-7 2 6-3-6 4 5-5-5 6 5 7 5 7 5 7 5 7 4 6 4 6 4 6 5 5 5 6 5 6 5 5 5 5 5 4 6 3 6 2 6 2 7 0 6-2 7-1 6-4 7-3 5-5 5-6 5-7 3-6 4-8 3-10 3-10 1-7 2-11 1-13 0-15-1-15-2-16-1-15-2-5-1-13-3-14-5-17-7-4-2-3-3"/>
<path d="M6541 -341l-1-6-1-7 0-8 1-7 2-9 2-8 2-9 4-10 3-6 6-12 8-15 10-17 11-18 11-18 12-18 12-18 11-18 12-17 11-16 10-14 10-12 9-12 10-14 10-13 9-12 8-10 8-9 7-7 5-5 7-6 7-5 7-4 6-3 7-4 6-2 7-1 7-1 7 1 7 1 7 3 7 4 7 4 7 7 5 5 6 7 6 8 4 8 4 6 4 10 4 11 5 12 6 14 5 16 5 15 4 15 3 15 4 19 1 7 3 19 2 17 2 14 1 13 1 14 1 16 1 16 0 15 0 14-1 16-1 16-1 13-1 11 0 11-1 12-1 14 0 12-1 10 0 8-1 8 0 5-3 4"/>
<path d="M7183 -219l 6-1"/>
<path d="M7374 -231l 7 1"/>
<path d="M7529 -233l 6 3 9 5 16 9-4-2 12 4 2 1"/>
<path d="M7784 -277l-2-4-1-6-1-5-2-7-1-7 0-9-1-9-1-10-1-10 0-9 0-10 1-7 2-9 2-10 2-11 2-14 3-14 3-12 3-14 4-16 5-16 5-17 7-17 9-20 3-6 11-21 10-20 11-21 11-22 11-20 11-19 11-17 11-16 13-14 5-5 13-13 12-10 11-9 10-9 10-8 9-6 8-5 7-3 9-3 8-3 8-2 7-2 7-1 7-1 6 0 7 1 7 2 6 3 7 3 5 5 6 7 6 8 6 11 3 7 6 12 6 13 5 14 6 14 6 15 6 17 5 17 6 18 4 17 4 18 3 17 3 18 3 17 3 17 3 17 2 7 3 17 2 17 2 18 2 17 2 18 1 17 1 16 1 17 0 16 0 16-1 16 0 15-1 15-1 14 0 12-1 11 0 10-1 8-1 8-1 9-1 7 0 7 0 5 0 6 0 5 0-4 1 6 1 4"/>
<path d="M8494 -188l 1-7 2-8 4-10 4-10 4-7 6-12 8-15 10-20-3 6 11-22 3-7 11-22 11-22 12-22 11-23 12-23-3 6 11-24 12-27 10-29 11-29 10-31 11-31 10-31 9-29 9-26 8-24 7-21 6-19 6-17 5-14 4-12 4-11 3-9 4-7 5-5 3-3 7-3 7-1 7 1 6 3 5 5 4 6 3 6 3 12 3 14 1 7 3 16 2 19 4 19-2-7 5 21 5 24 5 24 6 25 4 25 5 25 6 26 6 24 6 24 7 24 5 24 6 23 6 24 6 22 5 22 5 20 5 18 3 15 3 15 3 16 3 16 2 14 1 6 2 12 2 10"/>
<path d="M8562 -372l 6-3 9-3 12-3 6-1 13-3-7 1 15-3 7-1 17-3 18-2 19-1 19-1 20-1 20 0 19-1 19-1 22 2 21 2 5 1 21 3 21 4"/>
<path d="M9152 -111l-1 6-2 5-2 8-2 8-3 7-2 8-4 8-2 10-2 9-2 8-2 7 2-7-2 8 0 7 0 9 0 8 0 7-1-7 1 6-3-7 3 5-5-5 6 5-6-3 7 3 8 1-5-1 7 0-5 0 9-1 9-4 9-4 4-1 5 1"/>
<path d="M9164 -303l"/>
<path d="M-4102 3941l 3-5 3-7-3 6 4-8 3-10 4-11 3-11 3-11 3-12 3-11 1-11-1 7 1-11 0-10-1-10-1-10 1 7-2-9-3-9-4-8 4 6-5-8-5-7-5-6 5 5-7-5 6 4-8-3 7 1-9 0 7-1-11 2-10 4 7-3-10 5-10 8-11 9-13 10-13 12 5-6-13 14-14 17-14 19-15 22-15 24-16 25-17 25-15 24-14 25-13 25 3-7-11 23-9 22-7 20-5 19 1-7-2 17 0 16 2 12-1-7 3 11-3-7 5 9 6 7-5-5 8 4-7-3 10 2-7-1 13-1-7 1 16-5 19-7 20-10-6 3 21-12 20-15 18-16 17-17 16-16-5 5 16-17 14-18 13-16 12-17 10-14 9-13 8-12 7-10 5-9 5-8 3-6 1-2 5-5 7-4 7-1 7 1 7 4 5 5 3 6 1 7-1 7-1 2-1 6-2 7-2 8-1 8 1-7-1 9-1 9 0 10 0 10 1 9 1 10 1 9-1-7 2 9 2 10 2 10 3 10 4 10 4 9-3-6 5 9 5 8 6 8-5-4 7 7 6 6 8 6-5-3 9 4 9 4 10 4 11 3"/>
<path d="M-3601 4074l 5 0 5-1-7 1 5-1 5-3-7 4 5-5-5 5 4-6 4-8-3 7 4-9 5-10 4-11 5-13 5-15 5-16 5-17 4-18 5-19 3-20 4-20 3-21-1 8 2-22 3-22 1-24 1-24 0-26 0-26 0-26 0-26 0-26 0-24 1-23 1-21 1-18 0-15 1-12 0-9-1-8 0-6 4 14-1-2 32 5-2 1 5-5-3 4 3-6-2 6-3 7-2 8-2 9-1 9-2 11-2 11-2 11-2 11 1-7-1 12-2 12-1 13-2 13-2 12-1 12-1 7-2 11-2 9-2 9-1 8-2 7-2 6-2 5-4 7-2 3-5 5-3 2-6 3-7 2-7-2-4 0-6-4-4-3-5-5-4-4-4-5-4-6-4-6-4-7-5-8-3-6-4-8-3-9-2-7-3-8-1-9-2-8-1-8-2-8 0-9 0-7 0-8 1-7 1-7 2-7 2-8 2-7 3-6 3-6 4-7 3-5 4-5 4-5 4-5 5-5 5-5 4-4 4-4 5-4 5-4 6-3 6-3 6-2 5-2 5-2 5-2 5-1 4-1 5-1 7-1 4-1 5 0 4-1 6 0 7 1 5 1 6 2 6 4 6 2 5 4 6 3 4 3 4 4 5 3 4 4 4 3 4 5 5 5 5 5 4 5 3 5 2 5 2 6 3 5 2 5-3-5 2 4 2 5 2 4 3 4 2 5 1 5"/>
<path d="M-3223 3932l 3-6 4-7 5-7 4-8 4-8 4-8 4-8 4-8 4-7 4-8 4-7 4-6 4-6 4-6 4-5 4-4 5-5 4-3 6-4 5-2 7-1 4 0 8 1 6 4 5 2 4 4 5 5 4 6 3 7 3 7 3 8 1 7 1 11 1 12 1 12 0 13 0 14-1 14-1 13-1 14-2 13-1 14-2 13-2 11-1 7-1 11-2 10 1-8-1 9-1 8 0 5-2-7 1 3-29-15 3 0-6 3 4-4-5 5 6-7 6-10 6-12-3 7 6-13 7-14 3-6 7-15 8-15 8-16 8-16 8-16 8-15 8-14 8-14 8-12 8-10 7-8 6-8 6-6 5-5 5-5 4-4 5-3 6-3 5-2 7-1 4 0 7 1 4 1 7 3 4 3 3 3 5 5 3 4 3 5 4 7 2 6 2 7 1 7 1 8 1 9 0 9 1 10 0 11 1 12 1 13 1 12 0 13 1 13 1 13 1 13 1 13 0 13 1 12 1 12-1-6 2 12 2 12 2 12 3 10 3 10-2-4 5 9 5 8 2 2 0 4 0 3"/>
<path d="M-812 3902l 6-1-7 1 6-2 6-2 6-3 6-3-6 3 7-4 8-5 9-5 8-7 10-7 10-8 10-9 10-9 10-10 9-8 8-9-5 5 8-9 7-9 6-9 4-8-3 7 3-8 2-7-1 7 0-7 1 8-2-7 3 6-3-6-5-6 5 5-6-5-7-4 6 3-9-3-11-2 7 1-11 0-12 1 7-1-11 3-12 4-13 6 7-3-13 8-13 9-12 11-11 11 5-5-11 13-10 14-10 15-9 16 4-7-8 17-7 16-5 17-3 16 1-7-1 16 0 16 1 15-1-7 3 13 5 12 5 12-3-6 7 11 9 10-5-6 10 9 11 7-6-4 12 6 14 5 15 4 16 3-7-1 18 3 19 2 19 1 20 0 21 0 22-1 23-2-6 1 23-4 22-5 20-5 18-5 4 0 4 0"/>
<path d="M-166 3525l 0 10-1 10-1 11-1 13 0 14-1 15-1 17-1 17-1 18-1 19-1 20-1 20-1 20-1 21-1 20-2 20-1 20-2 20-2 20-2 19-1 19-2 18-1 17-1 17-1 16 0 14-1 13 0 10 1 10 0 8 1 7-2-7 1 3-35-12 2-1-9 11 2-5 2-7-1 7 1-8 1-9 0-10 0-11 0-12-1-13 0-14-1-15-2-16-2-18-2-18-1-18-2-20-2-20-1-23-2-23-2-23-1-23-2-21-1-20-2-18-1-18-1-15-1-14-1-12-1-11-2-9 1 7-1-8-1-7-2-7-1-5-1-5-1-7-1-4 0-3 1-8 4-6 2-3 5-5 6-3 4-1 7-1 4 0 7 1 5 2 6 3 4 3 5 5 3 5 3 6 1 7 1 5-1 7-1 5-2 6-3 6-3 6-4 5-5 6-6 6-5 6-6 6-8 7-8 8-10 7-10 9-10 8-11 9-11 9-10 9-10 9-10 9-9 9 5-5-8 8-7 8-6 7-4 4-6 6-1 1-7 3-7 1-7-1-6-3-5-5-4-7-1-7 1-7 4-6 1-3 5-5 8-8 8-9 10-10 5-5 11-11 11-11 12-12 12-12 12-11 11-12 11-11 11-10 10-10 11-9 11-10 10-8 8-6 7-5 5-3 7-4 5-2 6-2 7-1 5-1 6 1 7 1 5 1 6 3 5 3 5 3 5 5 4 5 5 6 4 6 4 8 3 6 4 8 4 9 4 8 4 10 4 9-3-7 5 9 4 8 5 9 5 8 4 9 5 8 5 7 5 7 5 7 4 7 4 7 4 6 3 7 4 5 2 5 3 4-4-4 3 4"/>
<path d="M1399 4091l-6 3 3-3 4-4-5 5 4-6 4-7 5-9 6-11-3 7 6-14 7-17 7-19 8-22 8-24 9-27 9-28 10-29 10-31 10-31 9-31 7-33 7-34 5-35 5-34-1 7 4-34 4-33 4-32 2-29 2-27 2-23 2-20 1-17 0-14 0-12 0-10 0-7 1 7-1-5 3 7-1-2 32 5-2 2 5-5-2 4 3-7-2 6-3 7-2 8-3 7-2 8-3 8-3 9-3 10-4 10-5 11-3 6-5 11-6 11-6 11-7 11-6 11-7 11-6 10-7 10-6 9-6 8-6 8-6 5-5 6-4 4-7 3-3 1-8 1-7-1-6-3-5-5-2-3-3-6-1-7-1-5 2-7 1-7 2-8 4-10 4-10 5-11 5-11 3-6 6-12 6-11 6-10 6-10 6-10 7-9 6-9 7-9 6-8 6-7 5-7 6-6 4-6 5-5 5-6 5-4 5-4 4-3 4-2 6-3 5-1 7-1 4-1 4 1 8 1 4 1 4 1 6 4 4 2 4 3 5 4 5 4 5 4 5 5 5 4 5 4 5 4 6 3 6 4 6 4 6 3 6 4 6 4 7 4 7 4 7 4 7 4 7 4 7 4 6 4 6 4 6 4 5 3 5 4 4 4 4 4 3 4 4 5 4 4 3 5 2 5 3 4"/>
<path d="M2859 4352l 2-3 1-4 2-4-3 6 1-4 2-5 1-6 2-6 2-6 3-7 3-7 3-8 3-9 4-10 4-11 5-13 4-14 5-15 5-16 5-18 4-19 5-21 4-22 4-24 4-27-1 7 3-28 3-31 3-32 3-33 2-34 3-33 2-34 3-33 2-33 2-31 2-29 1-26 1-25 0-24 1-22-1-22-1-19-1-15-2-11 1 7-2-9-2-7-3-5 4 7-3-4 11 9-3-2 14 0-4 1 6-3-4 3 5-5-3 4-3 5-3 5-3 6 3-6-3 8-4 9-4 10-5 10-5 11-5 13-5 13-6 14-6 14-6 13-7 14-6 15-7 14-6 15-6 13-7 13-6 13-5 13-5 12-4 11-4 10-4 9-2 7-2 6 1-8 0 3-37-19 2-1-5 5 4-4 5-7 6-9 6-9 6-12 6-12-3 6 6-13 5-13 6-12 5-12 5-12 5-11 4-12 4-11 4-10 3-10 2-9 2-8 2-6 2-5 3-6 5-5 2-2 7-4 7-1 7 1 3 1 4 2 5 2 5 2 7 4 5 3 5 2 5 3 4 3 5 3 4 3 5 4 5 3 6 3-6-3 6 4 7 3 7 4 7 4 8 4 8 3 9 4 9 4 10 3 11 4 10 4 11 3 3 2 2 2 1 3 1 3"/>
<path d="M4092 4320l 2-5-3 6 2-5 2-6 2-6 1-7 2-7-1 7 0-8 0-8 0-9 0-11-1-12 0-12-1-14 0-14-1-16-1-16-1-18-2-20-1-21-3-22-2-24-2-25-3-25-2-24-2-23-1-23-2-21-2-18-1-17-2-15-1-12-2-11-1-9-1-7-1-7 1 7-1-5-1-4 3 6-2-2 32 5-2 2 5-5-2 3-3 5 3-6-2 5-2 6-1 6-1 7 1-7-1 8-1 7-1 8-2 8-1 8-2 9-2 8-2 8-3 8-3 7-3 7-4 7-4 7-4 6-4 6-3 5-4 6-5 5-4 5-5 5-4 4-5 4-5 3-6 3-5 3-5 1-7 1-5 0-8-1-4-1-6-4-3-2-6-5-2-3-2-4-4-6-1-5-2-6-1-6-1-7-1-7 0-7 1-8 1-7 1-8 1-9 2-8 1-8 2-8 3-7 2-7 3-6 3-6 3-7 3-5 4-5 3-4 3-4 5-5 4-3 3-2 7-4 4-1 7-1 4-1 5 0 5-1 5 0 5-1 5-1 5-1 4 0 5 0 5 0 5 0 6 0 6 1 5 0 6 1 6 1 7 1 6 0 6 1 5 2 6 2 5 2 6 4 5 3 5 3 4 5 4 4 5 5 3 4 3 4 2 5 3 5 1 4 1 6 1 4 0 5 0 6 0 5 0 3"/>
<path d="M5135 4265l 4 2 4 0-7-1 5 0-7 1 5-2-7 4 5-3 4-5-5 6 4-6 3-6-3 6 3-7 4-9 3-10 2-10 3-12 2-12 2-14 3-14-2 7 2-15 1-16 0-16 0-16-1-18-1-18-1-20-2-21-1-22-2-23-2-24-1-23-2-24-1-23-1-22-1-20-1-19 0-19 0-16-1-16 0-13 0-12 0-11 0-9 0-8 0-7 0-5-1-4 5 13-1-1 37 0-1 3 3-7-1 5-2 6-2 6-2 7-2 7-2 8-2 8-2 8-3 8-3 8-3 9-4 6-4 9-5 8-5 8-6 8-6 9-7 8-5 8-6 7-5 6-5 5-5 5-4 5-4 3-7 3-3 1-8 2-3-1-7-1-7-3-2-2-6-5-2-4-3-6-2-5-1-7-1-5 0-6 0-7 1-6 1-7 1-6 2-7 1-6 3-7 2-7 3-7 3-7 4-6 3-7 4-6 5-6 4-7 3-6 3-6 4-5 3-4 3-4 3-3 5-5 6-3 3-2 7-1 7 1 4 1 6 4 5 2 4 4 5 3 6 3-7-4 6 3 5 1 5 2 5 1-7-1 5 0 5 0 6 0 6 0 7 1 6 0 6 1 7 1 6 1 6 1 7 1-7-1 6 1 7 1 7 2 7 1 7 2 8 3 7 2 7 3 5 3 5 3 6 4 5 4 4 5 5 4 3 3 2 3"/>
<path d="M6113 4326l 2-6 2-6 3-7 3-7 3-8 3-9 3-11 3-12 3-13 2-14 3-15 3-15 2-16-1 7 2-17 2-17 2-18 1-18 2-19 1-19 1-20 1-21 1-21 1-21 1-20 1-20 1-20 1-21 2-19 1-15 1-12 1-9 1-8 0-7-1-5 4 13-1-2 32 6-3 1 5-5-4 5-5 6-4 8-4 6-4 5-4 5-4 6-5 6-6 7-6 8-6 8-7 9-7 9-8 10-9 9-9 10-9 10-9 9-9 10-8 9-8 9-6 5-7 8-7 6-6 7 5-6-5 6-5 5-4 4-4 2-6 3-1 1-8 1-7-1-6-3-5-5-3-7-2-7 2-7 1-2 3-7 3-4 4-6 4-8 4-8 5-7 6-8 6-7 6-8 6-8 6-8 6-8 7-8 7-9 6-9 6-9 6-8 6-9 6-9 6-9 5-8 4-7 4-6 3-5 4-5 5-5 6-3"/>
<path d="M6829 4420l 0-6 0-6 1-6 0-7 1-9 0-9 1-9 1-11 1-13 1-13 2-14 1-16 1-17 1-19 1-20 1-20 2-22 1-21 3-23 2-23 2-24 3-24 2-24 2-22 2-21 2-20 2-17 1-16 1-15 0-13 0-13-1-12-1-10-1-7 1 7-2-5 9 11-3-2 13 4-3 0 7-1-4 2 6-3-5 3-5 5-6 5 5-5-5 7-6 8-6 8-6 10-6 9-6 10-6 11 4-7-6 11-5 12-5 10-4 11-5 10-5 9-4 9-3 6-4 9-4 7-5 6-3 7-3 6-3 6-3 4-2 4 3-7-1 2-29-29 2-1-6 3 3-2 5-4-6 5 4-4 4-5 4-6 4-5 5-5 5-5 6-5 5-6 5-5 5-5 5-5 4-4 5-5 6-3 4-3 6-2 5-2 5-2 5-1 4-1 3 1 3 1 2 2"/>
<path d="M7490 4462l 1-6 1-7 2-6-1 7 1-8 0-10 1-11 1-12 1-12 1-13 1-15 1-17 2-17 1-18 2-20 2-23 2-27 2-28 2-26 2-25 3-23 3-20 1-8 2-18 3-17 2-15-1 7 2-14 1-11 1-10 1-9 0-7-1-6 4 13-2-3 12 8-5-1 15 0-5 2 6-3-4 4 5-6-4 5-5 5-5 5-5 5-6 6 6-5-6 6-6 7-5 7-6 8-5 8-7 9-6 9-7 7-6 8-6 7-6 8-6 7-5 5-7 6-6 5-6 5-6 4 5-5-3 4 4-14-1 4-9-19 4 3-7-3 6 1-7-1 7-1-7 1 7-1 6-2 8-2 7-1 9-2 8-2 9-3 8-3 9-2 9-2 9-3 8-2 9-3 8-2 9-3 10-2 9-3 9-3 8-3 8-3 8-3 7-2 6-2 6-2 6-3-6 4 5-4 5-3-5 5 3-5-3 6 1-6-1 7-1-6 2 8-3-7 3 7-4-6-5-6 5 5-5-5-6-5-5-5-6-6-6-6-6-7 5 6-7-7-7-6-7-6-8-5-6-5 6 3-7-4-6-4-6-3-5-3-4-2-5-3-5-2-5-2-4-4-2-4-1-5 1-5"/>
<path d="M8766 4548l-2-5-1-7-1-5 0-6-1-6 0-8 0-7 0-8 0-10 1-10 0-12 0-13 0-14 0-16 0-18 0-19 0-21-1-23 0-27-1-31-1-32-1-31-1-28-1-25-1-25-1-23 0-21-1-19 0-19-1-17-1-16-1-15-1-12-1-11 0-8-1-7 1 7-1-5 3 6-2-2 26 8-4 1 6-3-6 3-7 5-7 6-8 8 5-5-9 10-10 11-9 11-10 11-9 10-8 10-9 10-8 9-7 10-8 10-7 10-6 9-5 9-4 8-4 7-4 7 3-6-3 6 2-7-1 6-1-7 2 6-8-12 6 5-6-4 9 3-7-1 10 1 12-1-7 1 12-2 12-3 11-4 12-3 11-4 12-4 12-3 11-3 11-4 11-3 11-4 11-5 10-4 10-5 9-4 10-4 9-5 8-3 8-4 6-3-6 3 5-3 5-4-5 5 4-5-3 7 2-5-1 7 0-5 4 13-3-5-4-4 5 5-4-3-5-3 6 3-5-3-6-2-5-2-6-3-6-3-6-4-5-4-5-3-5-3 6 3-5-2-6-3-6-2-5-1-6-2-5-2-6-2-6-3-7-2-7-2-7-3-7-2-6-3-6-2-6-2-5-2-5-3-4-2-4-4-2-5-1-5"/>
<path d="M9771 4580l 2-4 2-5 2-6 2-6 2-7 3-10 3-10 2-11 3-11 2-12 2-12 3-12 2-13 2-14-1 7 2-15 2-17 1-19 2-21 1-22 2-22 2-23 1-24 2-24 2-25 3-23 2-23 2-20 2-19 1-16 1-16 0-13 0-12-1-11-1-9 1 7-1-7-2-6 3 7-2-4 5 5-3-2 21 4-3 1 11-8-4 5-3 6 3-7-3 7-2 7-2 8-1 7-3 6-2 7-3 6-3 6-3 6-4 7-3 7-4 7-5 8-6 9-6 9-6 10-7 9-8 9-8 10-9 10-9 9-5 5-9 9-9 9 5-5-8 9-7 8-5 5-8 7-6 6 5-5-6 6-3 5 4-14 0 4-16-22 4 1-14 0 7-1 8-3 8-4 8-4 8-4 9-4 9-4 9-5-7 3 9-4 8-5 8-5 8-4 7-3 8-5 10-4 9-4 10-4 11-4 10-3 11-4 10-2 10-3 11-3 12-2 11-2 11-3 11-2 10-3 10-2 9-2 9-1 8-2 7-1 7-2 5-1 4-2-7 3 3-2-9 19 0-4 1 7-2-3 4 6-3-3 5 5-4-3-4-3-4-3-5-3-5-3-5-4-6-4-6-4-6-4-6-3-6-4-8-4-7-4-7-4-7-4-7-5-6-4-7-5-8-5-7-5 6 3-7-4-6-3-6-4-5-5-5-4-4-4-4-5-4-5-2-4-1-5 1-5 2-4"/>
<path d="M8229 5694l 3 9 1 7 2 9 0 11 0 11-2 11-1 8-2 12-3 13-2 13-2 11-1 11-2 12-3 12-4 13-4 12-4 12-4 11-5 10-4 9-4 9-3 6-4 8-3 6-3 6 3-6-2 5-1 2-4 6-5 6-6 3-7 1-7-1-7-3-5-6-3-6-1-7 1-7 0-2 1-4 2-7 3-7 3-9 4-11 6-13 7-15 7-17 7-16 8-17 8-16 3-7 9-17 9-16 10-17 9-16 10-17 10-16 10-16 10-16 11-14 11-13 5-5 12-11 11-10 11-10 9-8 9-7 9-6 7-5 7-4 7-4 6-3 7-1 7-1 7 0 7 1 6 2 7 3 5 3 5 4 5 5 4 4 4 6 3 7 3 7 3 9 1 8 1 9 2 10 0 9 0 10 0 10-1 11 0 12-1 13-1 12-1 12-1 12-2 12-2 12-1 7-2 12-1 12-2 11 1-7-1 10-1 9-1 9-1 9-1 10-1 9 0 9 0 8 0 7-1-6 1 7 2 6 1 6-2-5 2 6 2 4-4-4 4 3 5 3"/>
<path d="M8904 5426l-1 9-2 10-2 14 1-7-1 16-2 18-1 17-1 18-2 18-1 19-1 19-1 20-1 19-1 19-1 18-1 17-2 17-1 17-2 16-1 16-2 15-2 15-1 13-2 12-1 11-1 8-1 8-1 6 0 4-10-18 1 0-32 5 3-5-3 7 4-10 3-12 4-13 2-15 3-15-2 7 3-16 1-17 2-18 1-19 0-20 1-21 0-21 1-21 0-21 0-22 0-22 0-20 1-20 0-18 0-15-1-13 0-11 0-9 0-8-1-8 0-7-1-7-1-7 1 7-1-6-2-6-2-6 3 7-2-4 11 8-3-1 21-3-4 3 5-5-4 6-3 8 3-7-4 8-3 8-4 9-4 8-4 10-3 6-5 10-6 10-7 12-7 12-8 11-8 11-7 10-7 10-7 10-7 9-6 7-4 6-1 2-32-32 3-3-5 5 6-6 7-9 7-9 8-11 8-11 9-12 8-12 8-12 8-12 8-11 8-11 8-9 6-7 6-7 7-7 6-7 5-5 6-5 4-5 4-3 5-4 4-3 6-4 4-2 5 0 7-2 4 0 5 1 4 0 7 1 5 2 4 1 6 3 4 2 4 3 4 3 4 4 5 5 4 5 4 5 3 5 4 7 4 6 4 7 5 7 6 8 6 8 7 9 6 8 5 8 6 8 5 7 6 7 5 6-4-4 6 6 4 4 5 5 5 6 5 5 5 5 2 3 1 4-1 4-2 3-2 3-4 2-4 1-4-1-6-3"/>
<path d="M9301 5403l 8-3 9-2 10-3 12-2 7-2 12-2 13-2 13-2 13-2 13-1 13-1 13-1 13 0 13 0 14 1 14 1 14 2 7 1 13 2 14 3 13 4 13 4 12 6 6 3 12 6 11 6 11 7 9 7 5 5 9 8 7 9 5 10 4 6 4 10 4 11 2 11 1 7 1 11 0 12-1 7-3 12-3 11-6 12-3 7-8 13-11 14-13 16-5 5-18 18-20 18-21 17-22 18-23 17-22 17-23 16-24 14-24 13-6 3-23 12-22 11 6-3-19 10-18 10-15 10-12 8-9 9-7 7 5-5-5 6 4-14 0 5-10-19 6 3-14-4 10 1 13 0 15 0 16-2 17-2 17-3 18-3 19-2 20-3 19-2 20-2 18 0 17-1 16 0 17-1 19 0 19-1 20 0 19 0 18 1 17 1 16 1 15 2 14 3 6 1 13 3 11 3 10 4 5 3 9 4 8 6 3 4 6 7 5 8 1 3 1 3-1 3-1 3"/>
<path d="M7428 1889l-6 3 3-3-5 6 2-4-3 7 2-5 1-4 1-5 1-5 1-5 0-5 1-6 1-5-1 7 1-6 0-6 0-7-1-8-1-7-1-7 1 7-1-7-3-8-2-7-2-7-3-6 3 7-3-6-4-6-4-5 5 5-5-5-6-4-5-3 6 4-7-3-7-2-7-2 7 1-8-1-9 0-9 0-9 0-10 1 7-1-10 2-10 4-9 3-11 4-10 4 7-3-10 5-9 7-9 8-9 8 5-5-8 10-8 10-8 12-6 12 3-6-6 14-5 15-4 17-4 18 1-7-2 20-2 21 0 22 1 22 2 21 3 21-2-7 5 20 5 19 6 17 8 15-4-7 8 13 9 11-5-5 11 8-7-4 12 6 12 2-7-1 13 0 14-1-7 1 14-4 14-5-6 3 14-8 14-11 13-13-5 5 12-15 10-15 10-16 8-17-4 7 8-17 6-17 6-18 5-17 5-18 5-17 4-16 4-16 3-15 3-14 3-13 2-14 3-14-1 7 1-13 1-12 1-9 0-8 0-7 0-5 2-7 0-1 3-6 5-6 7-3 7-1 7 1 6 3 6 6 3 6 1 7 0 3 1 7 0 9 0 10 0 10-1 10 0 11 0 12 0 12 0 13 0 13 1 12 0 12 2 12 1 13-1-7 2 12 3 12 2 11 3 12 3 10 4 10 3 9-3-6 4 8 4 7 4 5-4-5 4 4 5 4 5 3-5-2 6 2 7 2-4-1 7 0"/>
<path d="M7911 2034l 1-6 2-6 1-7 2-8 2-9 2-10 2-11 2-11 2-11 3-12 2-13 2-14 3-14 2-14-1 7 2-16 1-17 1-18 0-20 0-22-1-23-1-25-1-25-1-27 0-27-1-28-1-27 0-26-1-26 0-25-1-24 0-24-1-22-1-22 0-20-1-19 0-17 0-16-1-14 0-12 0-12 0-11 1-9 0-8 0-7 0-5 0-4 10 19-2-1 27-1-2 3 5-5-4 5-4 8-5 10-5 10-6 12-7 13-7 14-7 15-8 15-8 17 3-7-8 17-7 16-7 16-6 15-4 14-5 13-4 12-4 11-3 9-3 8-2 5 0 3-41-21 1-2-3 7 2-6 4-8 5-10 5-12 7-13 7-15 7-16 8-16 8-17 3-6 8-16 8-15 8-14 7-13 7-13 7-11 6-11 6-10 5-9 6-8 5-7 5-7 5-5 5-5 4-4 5-2 6-3 7-1 4-1 7 1 5 1 6 3 4 3 5 5 4 4 3 5 4 6 3 6 3 7 3 7 3 7 3 7 4 8 3 7 3 7 4 7 3 7-3-6 4 8 5 7 4 8 5 6 4 7 5 7 4 6 5 6 4 6 4 5 4 4 3 4 3 4 2 4 3 4 3 4 2 4 3 5 0 5 0 5-3 4-3 4-5 2-5 1"/>
<path d="M8194 1219l-2 6-3 7-2 8-3 8-4 9-2 9-2 10 1-7-1 11 0 11 1 10-2-8 2 10 3 9 4 8-3-7 4 8 5 6 6 6-5-5 6 5 6 3-7-3 7 2 7 2-7-1 7 0 7-1-7 1 6-1 6-2 6-1 6-3-6 3 6-4 6-4 6-6-6 5 6-5 5-7 4-7 4-7-3 6 3-8 3-8 3-8 3-8 2-8 1-8-1 7 1-8-1-7 0-7 1 7-1-7-3-7-4-7 4 7-4-7-5-7-4-6-5-7-5-6 5 5-5-5-5-4-6-4 6 3-5-3-6-3-5-2 5 2-5-2-5-1 4 1-5 0-6 1-4-1"/>
<path d="M8372 1923l 5-5 5-6-5 4 6-7 6-8 7-10 7-11 8-13 7-14-3 6 7-15 8-18 8-20 9-22 9-22 8-24 9-23 7-23 8-23 7-23 6-23 6-23 5-23 3-22-1 7 2-23 2-22 0-21-1-22-2-23-3-26-3-23-3-18 1 7-3-15-3-13-3-13-3-11-4-10-4-8 3 7-4-7-5-5 5 5-6-3 7 3-6-1 7 1-5 0 7-2-6 2 7-3-5 4 5-5-5 6-5 8-6 10 3-6-5 11-6 14-5 16-6 18-6 20-6 23-5 25-6 26-4 27 1-7-4 30-4 32-2 33-1 33 0 33 0 32 2 30 3 29 5 28-1-7 5 25 5 24 6 22 6 20 7 18 7 16 8 15-3-7 8 14 8 11 10 11 9 9-5-5 10 9 8 7 9 7 8 5-6-3 8 3 9 2-7-1 8 1 8 1 8-1-7 1 7-2 7-3-6 3 6-4 5-5-5 5 5-7 4-6 4-7-4 6 3-7 3-8 1-9-1 7 1-9-1-9-1-10 1 7-3-9-3-10-3-9-5-9 3 7-5-9-5-9-6-9-6-8-7-7-6-6 5 5-6-6-5-4-5-4-4-4-5-6-4-3-3-3-1-1-3-6-1-8 1-7 3-6 5-5 7-4 7-1 7 1 2 1 4 1 6 2 7 1-7-1 7 1 8 1 8 1 9 0 10 1 6 1 10 1"/>
<path d="M10125 1783l-2 5 3-9 1-8 0-8 0 6 0-8 0-7-1-8-1-9 1 7-2-9-3-7-3-7-3-6 3 6-4-7-5-7-5-5 6 5-6-5 7 4-5-3-6-1 7 1-6 0-6 1 7-1-7 2-7 3-7 3 6-3-8 5-10 7-11 10-13 12 5-5-12 13-13 14-14 16-12 16-12 16-11 16-9 15-6 14 3-7-6 14-4 15-4 16-2 15 1-7-1 12 1 9-1-7 2 6-3-7 5 5-6-5 7 4-6-4 10 3-7-1 12 2 13-1 14-2-7 1 13-3 14-4 13-5 12-6-6 4 12-7 10-7 9-6 9-7 7-6 6-6-5 5 5-5 4-5 4-5 3-6-3 7 2-7 2-5 2-5 3-6 5-5 2-2 6-3 7-1 8 1 6 3 5 5 3 4 3 6 3 6 3 8 2 7 1 7 1 7 1 8-1-7 1 7 2 7-3-6 2 8 5 6-4-4 6 6 7 5-5-3 8 3-5-1"/>
<path d="M10455 1897l 4-9-4 7 4-10 4-10 3-10 4-11 3-10 2-13 3-16 3-17 3-18-1 7 2-19 2-21 2-23 1-25 0-26 0-28 0-28 0-29-1-29 0-29-1-29-1-28-2-29-1-28-2-28-1-26-2-24-1-22-1-21 0-19-1-16 0-14 0-11 0-10 0-7 1 7-1-4 35 12-2 1 5-5-3 5 3-7-3 7-3 9-4 9-3 11-5 12-5 13-5 15-6 16-6 16-6 17-7 17-7 18-7 18-7 18-7 17-7 16-6 14-6 13-4 12-2 8 1-7 0 4-37-19 4-2-5 5 6-7 7-8 6-11 6-12-3 7 6-14 6-15 5-15 7-15 6-15 6-14 6-14 6-14 5-14 5-12 5-11 4-10 4-7 4-9-3 6 4-8 3-8 2-6 2-5 2-4 3-7 3-4 5-5 6-3 5-2 7-1 7 1 6 1 7 3 7 3 7 5 8 5 7 5 7 4 8 4 8 4 7 4 8 4 7 4 8 4 6 4 7 5 7 5 5 5 5 4 5 5 5 5 4 4 4 5 4 4-3-3 4 4 5 3 4 3 3 3 2 3 0 4 0 4-2 3"/>
<path d="M10722 1012l 1 8 1 6 1 7-1-7 1 7 3 8 1 9 1 7 1 9 0 8 0 10 1 10 0 12 0 12-1 12 0 11 0 11 0 3"/>
<path d="M10929 1860l-6 3 8-5 9-8 10-11-5 5 11-13 12-14 12-16 13-17 14-21 13-23 14-24 13-25-3 6 11-25 12-24 10-25 9-24 9-24 8-25 8-26 8-27 6-26 5-27-1 7 3-26 3-26 2-27 1-26 1-27 0-26-1-24-1-22-3-19-2-16-2-14 1 7-3-12-3-9 4 7-4-6 5 5-4-3 13 4-5 1 13-5-6 4 5-5-5 6-6 8-5 11 3-6-6 13-5 16-6 18-6 21-5 23-6 25-4 27-5 29 1-7-3 30-2 31-2 31-3 30-1 7-4 28-5 27 2-7-4 28-2 29 1 28 2 26 3 26-1-7 6 24 6 22 7 19 8 18 8 16-3-7 8 15 9 13 9 10-5-5 10 8 10 8 11 7 11 6-7-3 12 5 11 4 12 2 12 2-7-1 12 1 12 1 11 0 11-1 10-2-7 2 9-3 9-4-7 4 9-5 7-6-5 5 6-7 4-7-4 7 4-8 2-9-1 7 1-10 0-10-1-10 1 7-2-10-4-10-6-11 3 6-7-11-8-13-9-12-10-13-10-13-10-13-11-11-10-10 5 5-9-9-10-7-8-5-7-4 6 3-6-3-6-2 7 1-6-1 7-1-3 2 16-22 0 3-9-18 5 4-7-3 8 3 9 2-7-1 10 1 10 1 10 1 11-1 12-1-6 1 13-1 6-1 13-2 16-1 16-1 17-1 17 0 3 0 3 1 2 3"/>
<path d="M10103 3137l 1-10 1-6 2-12 1-13-1 7 1-14 1-13 1-14 1-14 0-14-1-14 0-14-2-14 1 7-2-12-4-12-5-12-5-10 3 6-6-9-7-9-7-8-7-7 5 5-9-6 7 3-10-4-10-2 7 1-11 0-12 2 7-1-13 4-13 7 6-4-15 9-15 11-15 13-15 15 5-5-15 16-16 17-14 19-13 19-11 19-9 17 4-6-8 16-7 17-6 17-5 18-5 18-4 17-2 15 1-7-1 14 1 12-1-7 2 11 2 8 4 6-9-11 5 4-6-3 7 2-7-1 8 1 10-1-7 2 11-3 12-3 13-6 13-7-7 4 13-8 13-7 13-8 13-9 12-8 11-8 11-7 10-8 9-7 9-7 8-5 7-5 5-3 5-3 3-3 4-2 4-2 6-4 4-1 7-1 5 0 7 1 6 3 4 3 4 3 6 5 3 5 4 5 3 5 3 6 3 6 3 6 3 5 2 6 2 7 3 6 2 7 3 7 2 8 3 8 3 8 3 7-3-6 4 6 4 6 4 5-5-5 5 5 5 4 5 4-6-3 5 3 6 3-6-1 7 1 8-1-5 1 10-2 10-2 9-3 9-3 3 0"/>
<path d="M10403 3190l 3 5 3 6 4 6 4 7 4 6-3-6 3 5 5 5-5-5 5 3-6-3 5 2 6 1-7-1 6 0-7 1 6-3-7 4 6-5-5 5 5-6 6-8 5-9-3 6 6-12 6-13 6-14 6-17 7-20 6-22 7-23 5-23 5-23 4-23-1 8 3-23 2-24 2-24 0-25 0-26 0-26 0-27 0-27 0-27 0-28 0-27 0-26 1-25 1-24 2-23 2-21 1-19 1-17 1-14 1-12 1-11 0-8 0-6 9 19-1-1 32-5-3 4 3-6-3 9-4 11-5 13-3 14-4 15-3 15 1-7-2 14-2 15-1 7-2 14-2 15-3 15-3 14-3 16-3 15-3 17-4 18-4 20-3 23-4 23 1-8-2 21-2 16-2 14-1 11-1 7 1 3-45-8 1-3 2-8 2-11 3-12 4-13 4-13 4-15 4-15 4-16 3-16 4-15 3-16 3-16 4-16 3-16 4-16 3-16 2-15 2-14 2-14 2-12 2-12-1 7 2-11 1-10 0-9-1-6 5 13-3-3 19 9-4 1 13-5-5 4-6 5 5-5-6 7-4 8-5 8 3-6-4 10-5 10-4 10-5 10-4 10-3 10-3 8-2 8-2 8 2-7-1 7 1 6-1-7 2 5-3-6 4 4-12-8 6 2 7 1-7-1 8 0 8 0 9 1 8 0 8 1 8 2 8 1-7-1 9 1 9 1 7 1 9 1 9 2 9 3 9 2 10 2 9 2 10 2 9 3 9 3 9 3 8 2 7 2 6 3 6 3 6 4 5 5 5 4 4 4 4 4 3 5 2 5 2 5 1 4-1 4-2 4-2 3-4 2-4 0-4 0-4-2-5-3"/>
<path d="M10742 3219l 3-7-3 6 2-7 3-8 3-9 3-11 4-13 5-16 5-18 4-19 5-20 4-20 5-21 4-22 4-24 4-25 4-25-1 7 3-26 3-27 2-29 2-29 2-28 0-29-1-27 0-27-1-25 0-25 0-22 0-21-1-17-1-16-1-13-1-12-1-11-1-10-1-10 0-8-1-6 4 13-2-3 26 9-3 1 6-3-5 4 5-5-5 7-5 9-5 9-5 11-6 12 3-6-6 13-6 13-6 14-6 14-7 14-6 14-7 15-6 14-6 14-6 12-4 7-5 11 3-7-5 11-4 9-3 6-3 7-1 2-6 5-6 3-7 1-7-1-7-3-5-5-3-6-1-8 1-7 2-3 3-6 3-7-3 6 4-9 5-12 5-12 5-13 5-13 4-13 5-13 3-13 4-12 3-11 4-11 3-10 3-10 3-10 2-8 3-9 2-7 3-7 3-6 3-6 3-5 3-3 5-6 7-3 3-1 7-1 8 1 6 4 4 3 5 5 3 6 4 7 3 7 4 8-3-7 4 8 5 8 5 6 5 6 5 5-5-5 5 5 7 4 6 5 7 4 6 5 7 4 6 6 6 5 5 4 4 5 5 7"/>
<path d="M11119 3219l-1-6 2 6-3-6 4 4-5-5 5 2-13-4 6 0-7 1 6-1-7 3 7-4 6-5 8-8-6 5 8-9 9-11 9-12 11-15 12-15 13-17 14-19 14-21 13-21 14-22 13-23 14-23 14-23 12-24-3 7 11-24 11-23 9-23 10-23 8-23 7-23 6-24 5-24-1 7 3-25 2-25 1-24-1-24 0-21-2-20-2-17 1 8-3-14-3-10-4-8 3 6-4-5 11 8-5-2 7 1-6 0 7-1-6 3 6-3-6 6 5-6-7 8-6 10-7 13 4-6-7 15-7 18-7 20-6 23-7 25-6 26-6 28-6 29-5 31-6 32 1-7-4 33-2 35 1 36 3 36 5 35 6 30-2-7 5 24 5 18 5 15 7 14-3-7 8 14 7 14 4 6 7 13 5 12 5 10-3-6 6 9 7 7-5-5 8 6 9 4-6-3 11 4 12 2-7-1 13 0-7 1 12-2 9-4-6 3 7-5-5 5 6-6 4-6 4-7-4 7 3-7 2-7 1-8-1 7 1-8 1-8 0-9-1-10-1-9 1 7-2-10-3-11-4-12-5-13-5-12-5-11 3 6-6-9-5-9-5-7-5-6-3-5-3-4-3-6-2-7 1-1 1-8 3-6 5-5 7-3 7-2 4 1 7 1 6 2-7-2 8 2 8 0 8 0 8 1 8 0 8 1 9 1 5 1 9 2 10 3 9 2 10 3 10 2"/>
<path d="M7453 2828l-1-9 0-10-1-10-1-10 0-9 0-8 0-9 0-8 0-9 1-7 2-8 2-8 2-7 3-7 3-7 3-6 4-5 5-5 4-4 4-3 6-3 4-2 7-1 4 0 7 1 4 1 7 3 4 3 5 4 5 5 6 6 6 7 6 8 7 11 3 7 7 13 6 14 5 16 4 17 4 18 1 7 3 18 2 19 1 19 1 18 0 18 0 16 0 15-1 12 0 10-1 9-1 9-1 7 0 5 0 2-1 7-4 7-5 5-6 3-7 1-7-1-7-3-5-5-3-7-1-7 0-2 0-7 1-9 1-11 1-15 1-17 2-18 3-20 2-19 1-7 3-19 3-18 4-17 4-16 4-15 4-14 4-12 4-11 4-8 3-7 4-6 3-5 3-4 5-5 4-2 6-3 5-1 7-1 4-1 5 0 7 1 6 1 6 2 6 4 6 4 5 5 5 5 4 5 3 6 3 6 3 6 3 6 1 7 2 8 1 7 1 8 1 8 0 8 0 8 0 7-1 7 0 6 0 5-4-14 2 2-19-9 4 0-14 4 5-3 5-4-5 5 5-7 6-7 5-8 6-8 5-10 6-10-3 7 5-11 4-11 4-11 5-10 3-9 3-8 3-8 2-8 3-6 2-6 2-4 3-7 5-5 3-2 6-3 7-1 8 1 6 3 4 2 5 5 4 5 3 6 4 6 3 7 3 7 2 9 3 9 2 10 2 10 2 11 3 10 2 10 2 10 2 10 2 10 2 9 3 8 2 8 3 7-3-6 3 5-5-5 5 5-6-3 6 2-6-1 8 1-6 1 9-2 10-5-5 3"/>
<path d="M7966 2718l-2 5 3-6-2 5-2 7-1 8-2 9-1 9 1-8-1 10-1 9 0 8 1 9 1 9 1 8-1-7 1 7 2 5 2 5-4-6 3 4 2 3 4 4-6-5 5 2-7-4 5 1-7-1 5 0-7 1 6-1 7-2 7-4-7 3 8-4 7-6 8-6 8-8-5 6 7-9 7-8 6-9 6-9 5-9 6-9 5-8 4-7 4-7 3-6 3-5-3 6 2-5 2-5 2-4 1-4 1-3 3-6 1-1 5-5 6-4 7-1 8 1 6 4 5 5 3 6 2 7 0 2 0 4-1-7 1 5 2 6 2 7 2 8 3 7 3 7-4-7 4 6 5 5-5-5 5 5 5 4-7-3 6 2 6 2-7-1 6 0 6 0-7 1 7-1 8-3-7 4 7-4 8-5 7-6 8-6 9-7 9-9 10-9-5 5 9-10 10-11 9-12 9-12 9-13 8-12 8-13 7-13-3 6 6-13 5-13 4-13 4-13 2-13-1 8 2-13 0-14-1-14-1-15 1 7-3-16-4-17-4-18-5-18-4-19-5-18-5-18-5-17-4-15-5-14-4-13-5-11-5-9 4 6-5-7-4-7-5-5 5 5-4-4-4-2 14 4-4 0 7-1-3 1 6-3-3 3 5-5-4 5 3-6-3 7-3 10-3 11-2 14 1-7-2 15-2 16-1 18-1 18 0 20 0 19 0 21 0 20 1 22 2 21 2 22 4 21-2-7 4 20 5 20 6 18 6 18 8 16 7 16-3-6 8 15 8 13 9 11 9 10-5-5 10 8 10 8 10 7 12 5-7-3 12 4 12 3-7-1 12 2 12 0 12 0-7 1 11-2 10-4-5 3 10-4 10-6 9-6 9-7 8-8-3 3 8-9"/>
<path d="M8506 2261l-1 5-1 6-1 7 1-7-1 8 0 9-1 10 0 12 1 12 0 13 1 14 2 15 2 14 3 14-1-7 3 15 3 16 4 16 3 16 1 7 3 17 2 16 3 16 3 16 2 16 3 15-2-7 3 15 4 15 4 14 4 13 5 13 5 11-3-7 6 11 6 10 6 9 7 9 8 8-5-5 8 5 7 5-6-4 8 4 8 2-7-1 9 1-7 1 9-1 9-3 9-4-5 3 9-5 9-5 8-7-4 4 8-8 7-8 6-9 6-8 2-2 3-2"/>
<path d="M8443 2548l-4 1-2 1-6-1-6-3-4-4-3-6-1-6 1-7 3-5 4-5 3-2 6-3 7-3 7-5 9-4 10-5-6 3 12-5 12-6 6-3 14-5 16-6 17-7 17-7"/>
<path d="M10164 2400l 0-6 0-6 1-7 1-5 0-6 0-5-1 7 1-4 0-5 1-7 1-4 1-4 4-6 2-4 2-3 3-3 5-6 3-3 3-2 4-3 4-2 4-2 4-3 3-2 4-3 5-2 4-3 5-4 5-3 5-5 6-4 6-6 6-5 6-6 6-5 6-5 6-5 7-5 6-6 6-5 5-6 5-5-5 5 5-5 3-4 3-4 2-4-3 7 1-4 0 14-1-4 3 7-2-4 5 5-4-3-4-2 6 3-4-1 7 1-5 0-5 0-6 1 7-2-5 2-6 1-6 2-6 2-6 1-6 3 6-3-5 3-6 4-6 4-5 5-6 5 5-5-5 5-4 6-5 6-4 5-5 5-3 5-3 6 3-6-2 6-2 7-2 6 2-7-1 6-1 6 1 6-1-8 1 6-3-7 2 5 4 5 4 4-5-5 5 4 6 4-7-4 7 3 7 3 8 2 8 2 9 1 9 2-7-1 10 0 10 0 10 0 11-1 10-1-7 1 11-2 11-2 10-3 10-3 10-3 10-3-6 2 10-4 8-4 8-5 8-5 8-5 7-6 3-1 3-1"/>
<path d="M10512 2205l 4 4 4 5 4 4 5 5 5 5-5-5 5 4 5 4 5 4 6 3 5 4-6-4 5 3 6 2 5 2 6 2-7-1 7 2 7 1 7 1 5 1 7 1"/>
<path d="M10591 2209l-3 2-4 3-4 3-4 3-4 2 6-3-4 3-4 4-5 3-5 4-5 4-4 4-5 5-5 5 5-6-5 6-5 6-5 6-4 6-5 6-5 6-4 6-4 5-4 5-3 4-4 4"/>
<path d="M10735 2195l 2 5 1 7 2 6 1 7 0 7 1 8 1 8 1 8-1-7 1 8 2 9 2 9 1 7 2 9 1 9-1-7 2 8 1 8 1 7 2 7 1 7 1 8 0 7 1 7 1 7 0 6 0 6 0 5-1 5-1 7-1 2-3 6-5 5-7 4-7 1-7-1-6-4-5-5-4-6-1-3-1-5-1-8-2-7-2-7-2-8-3-7-3-8-3-9-3-9-2-9-3-9-2-8-2-8-2-9-2-8-2-8-2-7-1-8-1-7-1-7 0-7-1-7 0-7 0-7 0-8 1-8 1-7 1-8 3-9 2-8 4-6 3-6 3-5 4-5 5-5 4-3 4-3 7-3 4-2 5-2 6-1 7-1 6-1 7 1 7 0 5 0 6 1 7 1 5 1 6 1 6 2 5 2 7 3 5 3 4 3 5 5 3 5 3 6 3 5 1 6 1 7 1 5-1 5-1 8-1 4-3 5-3 6-2 5-3 4-4 4-3 4-4 4-5 4-5 5-4 4-5 2-5 3-5 3-5 3-6 3-5 3"/>
<path d="M10308 3394l 5 5 4 3 3 4 3 5 3 7 3 6 3 7 2 9 3 9 2 10 2 11 1 7 2 11 2 12 1 12 2 13 1 12 1 12 1 12 1 12 1 13 1 13 2 12 1 13 2 12 1 13 3 12-2-7 2 11 3 10 2 11 2 9 3 9 4 8 3 7-3-6 4 6 4 6 4 4-5-5 4 3-6-3 5 3 6 2 6 2-6-2 6 1 7 0-6 1 7-1 8-2-6 2 9-4 9-6 10-7 10-8 10-9-4 4 10-10 10-10 2-2"/>
<path d="M10280 3538l-6-3 6 2 7 1-7-1 8 1 11 0 11-1 12-1 14-1 14-2-7 1 14-2 14-2 13-3 14-3 13-3 12-3 13-2 4-1 12-2 12 0"/>
<path d="M10523 3628l-1 4 1 5-1-6 1 4-2-5 2 3 4 3-5-5 3 2 5 3-7-3 4 1 4 2 4 1 5 1-7-1 4 0 5 0 4 0-7 1 5-1 6-2 5-3 5-2 5-2-6 3 5-3 5-4 5-5-5 5 4-5 4-5 4-6 4-5 3-6 3-5 3-5 2-5-3 6 1-4-1 7 0-4 0-4 1 8-1-4 3 7-2-3 5 5-3-3 6 3-4-1-4-2 7 2-5-1-5 1 7-1-5 1-6 2-6 2-6 2-7 3-7 4 6-3-7 4-7 5-7 6-6 6 5-5-6 6-5 6-5 7-4 8 3-6-4 8-4 9-4 10-4 10-3 10-2 10-2 10 1-7-1 10 0 10 1 9 2 9-1-7 1 8 1 8 2 7-4-6 3 5 4 5-5-5 5 4-6-3 6 4 6 3 8 1-5-1 8 0 9 0-5 0 11-2 11-3 11-3 4 0"/>
<path d="M10781 3499l 1 6 0 6 1 6 0 6 0 7 0 6 1 7 0 7 0 8 1 7 0 7 1 7 1 9 0 9 1 9 1 9 1 10 1 9 1 10 2 10 1 10 2 10-1-7 2 8 2 9 2 8 3 8 2 7 3 8 3 6 3 7-4-7 4 6 3 5 4 4-5-5 4 3-7-3 5 3-7-2 5 1 5 0-6 1 6-1-6 3 6-3 5-3 5-4-4 4 5-6 5-8 5-7 6-6 2-3 3-1"/>
<path d="M10734 3616l 0-13 2 4-8-11 4 3 5 3-6-3 5 2-7-1 5 0 5 0 6 0 6 0-7 1 7-1 7-1 7-2 7-2 8-2 8-2 9-2 9-2 8-1 8-2 4-1 4 1 3 2"/>
<path d="M1038 5803l 5-3-6 3 5-4 6-3 6-4 7-5 7-4 7-5 7-5 7-5 7-5 7-5 7-6 6-6 6-5-5 5 5-6 5-5 4-5 4-5 4-5 2-4-3 6 2-4 1-5-1 7 1-5 0-5 1 7-2-4 4 6-3-4-3-4-3-3 5 5-4-2 6 3-4-1 7 1-5 0-5 1 7-1-6 2-7 2-7 3 7-3-7 4-7 4-7 4-7 5-8 5-7 7-7 7 5-5-7 8-7 8-6 8-5 9-5 9 4-7-5 10-3 10-4 10-2 11 1-7-2 11 0 12 0 12 0 11 1 11-1-7 2 9 4 10 4 11 4 9-3-6 6 9 6 8 6 7 7 7-5-6 7 6 7 5-6-3 8 4 9 3 9 3-7-2 10 3 11 0 10 0 10 0 11-1 11 0 12-1 12-2-4 0 12-3 13-3 3-1"/>
<path d="M1966 5678l 5 5 3 6 4 7 3 7 2 7 2 8 1 7 1 9 1 10 0 11 1 11 0 11 0 12 0 12-1 12 0 12-1 12-2 12-1 7-2 11-2 11-3 10-3 9-3 8-2 8-3 7-2 6-2 4-4 6-1 2-5 5-6 4-7 1-7-1-7-4-5-5-3-6-1-7 0-2 1-7 1-4 1-6 3-7 2-8 4-10 3-11 5-12 4-12 4-13 5-13 5-13 4-13 5-13 5-13 5-12 6-13 5-12 3-6 6-12 6-10 6-10 6-9 6-9 7-7 5-5 6-7 6-5 6-5 5-4 5-4 4-3 7-3 4-2 4-1 7-1 5 0 7 1 5 1 4 2 7 4 4 2 4 4 5 5 4 3 3 5 4 4 3 5 4 7 2 5 3 7 3 7 3 8 2 9 2 10 1 7 2 10 1 11 2 11 1 11 1 11 0 11 1 12 1 11 1 12 1 11 0 11 1 10 2 10 1 9-1-7 1 9 2 8 1 7 0 7 2 6 1 6 2 5 2 5-3-5 3 4"/>
<path d="M4813 5814l 5-2 6-3 7-3-6 3 7-4 8-5 8-5 9-6 10-7 9-7 10-7 10-7 9-8 9-7 8-7 7-7-5 5 7-7 5-6 4-6 4-5 2-6-3 7 2-6 1-5-1 7-1-4 1 7-2-4 3 6-2-4 5 5-4-3-5-4-6-3 6 3-6-2-8-2 7 1-7-1-9 0-8 1 7-1-9 2-9 4-9 4 7-4-9 6-9 6-9 6-8 7-9 8-7 8 5-6-8 9-7 9-7 9-7 9-6 11-6 11 4-7-5 12-4 12-3 13-3 14 2-7-1 13 0 12 2 13-1-7 3 12 5 12 6 12-4-7 7 11 8 10 9 8-6-5 10 8 10 8 12 7-7-3 12 5 13 4 14 2-8-1 15 2 15 1 15-1 17-2-7 2 18-4 18-5 19-6 20-6 20-7 21-7 20-8 20-8 3-1 3 1"/>
<path d="M5350 5476l 1 7 0 9 0 10 0 12 0 13-1 14-2 15-1 17-2 19-2 18-2 19-1 19-2 20-1 20-2 20-3 20-2 19-2 18-1 17-1 17-1 16-1 15 0 14 0 13 1 11 0 9 1 9 1 6 1 6-1-7 1 3-36-12 2-1-8 11 2-4 3-7 4-7 3-9 2-10 3-11 2-12 3-14 2-14 3-14-1 4 2-14 0-3 1-3 2-2 3-1"/>
<path d="M5295 5544l-1-5-1-5-1-5-1-6 0-7 0-7 0-7 0-6 1-7 1-6 1-5 2-5 2-6 1-4-1 7 0-3 30 22-3 1 7-4-5 4-4 4 5-5-4 4-4 5-3 5-3 4-3 5-3 5-4 5-5 7-5 6-5 7-5 7-6 7-5 6-5 6-4 5-3 4-2 1-32-32 2-1 4-4-5 5 6-6 6-8 8-10 9-11 9-12 9-12 8-10 8-10 8-9 7-8 5-5 6-6 5-5 4-4 4-4 3-3 4-2 6-3 4-2 7-1 4 0 7 1 4 1 7 3 4 2 3 3 4 4 5 5 5 5 4 5 5 7 5 6 5 7 4 6 4 6 4 5 4 6 4 6 4 5 5 6 4 5 5 6 4 6 4 5 4 5 3 5 3 4 2 4 2 4 2 4 2 4 2 3 3 5 0 5 0 5-3 4-3 4-5 2-5 1-5-1"/>
<path d="M5866 5477l-6 9-7 10-6 10-7 11-7 13-9 16-11 18-11 20-12 21-12 22-12 24-13 25-13 25 4-7-12 26-12 26-10 27-9 27-7 28-6 26-5 25-4 24 2-7-2 24 0 23 3 20-1-7 3 19 5 16 6 16 7 14-3-7 8 13 10 9-5-4 9 7 11 7-6-3 11 6 12 4-7-1 13 2 11 0 12 0 11-1 11-2-4 1 11-3 12-3 3 0 3 0"/>
<path d="M5898 5791l 1 6 0 7 0 7 0 8 0 9 0 9 0 9-1 10-1 11-1 10-1 11-1 10-1 11-1 9-2 10-1 7-1 8-2 8-1 6 1-7 0 4-4-13 1 2-25-9 3-1-12 9 4-4 4-6 5-7 5-9 7-10 6-11 7-12 8-13 9-15 9-17 9-16 7-13 7-10 6-8 6-8 6-7 5-6 5-5 5-5 5-4 5-4 5-2 6-3 5-2 7-1 7 1 4 1 6 3 4 3 5 5 3 4 3 7 2 5 2 7 1 7 1 8 0 9 1 9 0 11 0 11-1 11 0 11-1 11 0 11 0 10 0 9 0 10 1 9 0 8-1-8 2 8 2 7 3 6-4-6 3 6 3 4-5-4 4 3-6-3 5 2-6-1 5 1 6 0-5 1 7-2 8-3 10-4 9-5 4 0 3 0 3 2"/>
<path d="M6228 5603l 6 2 6 2 6 2 6 4 6 3 5 3 5 3 5 4 5 4 4 3 5 6 4 4 3 4 3 5 3 6 2 5 2 5 1 5 2 7 0 5 0 6-1 5-1 7-1 6-4 6-2 5-3 4-3 5-4 4-5 5-5 5-5 5-5 4-6 5-5 5-5 5-5 4-5 4-4 4-3 3 5-5-2 3 3-6-1 4 0-15 2 5-8-12 5 4-6-3 6 3 6 1-7-1 5 0 5-1 7 0-7 1 7-1 8-1 9-1 10-2 9-3 10-2 11-3 11-2 5 0 11-2 11-2 10-2 4 1"/>
<path d="M6427 5470l 5 6 5 7 6 7 6 8 7 9 6 9 7 11 6 11 7 12 3 6 7 13 6 12 6 14 7 13 6 14 5 14 6 14 4 16 5 18 5 22 5 23 4 22 4 19 1 8 3 17 2 16 2 17 1 19 2 20 0 19 0 21 0 20-2 20-2 20-2 7-3 20-3 21-3 19-4 19-5 19-6 18-6 17-7 17-8 16-3 5-8 15-8 14-8 13-9 11-4 4-10 9-11 7-4 3-11 5-11 4-3 0"/>
</svg>
