<svg xmlns="http://www.w3.org/2000/svg" viewBox="1808 1011 17696 14496" stroke="black" stroke-width="20" stroke-linecap="round" stroke-linejoin="round" fill="none" data-xena="0 0 0"><style>@media(prefers-color-scheme:dark){svg{background-color:black;stroke:white;}}</style>
<path d="M2126 2031l 4-5-9 15 2-6 1-8 1-8 2-9 1-10-1 9 0-9 1-9-1-8 0-7-1-7-2-6-2-6 4 7-3-5-4-5-4-5-5-3-6-3 9 2-7-1-6 1 8-2-7 3 8-4-8 4-8 5 8-5-9 6-9 8-9 9 9-9-9 11 6-7-10 13-9 15-9 16-9 17 5-8-10 19-10 19-4 8-10 20 4-8-10 20-9 21-9 20-8 19-6 18-4 16 2-9-2 15-2 12 1 10-2-9 2 8 4 5 6 2-8-3 8 0-9 1 8-2-8 3 10-5-8 5 10-8-7 6 12-11 12-12 14-13 13-14 14-15 13-14-6 6 13-14 12-15 11-15 12-14 10-13 9-11 9-10 7-8 6-8 6-7 4-5 7-6 3-2 8-5 8-3 9-2 8 3 2 9 0 2-2 8-2 5-2 6-2 7 2-9-2 9-2 8-2 9-2 9-3 8 3-9-2 8-1 9-1 8 0 9 1 8 1 7 1 7-2-8 2 6 2 6 3 5 4 5 3 4 5 4 5 2-8-3 6 2 6 1"/>
<path d="M2370 1763l 1-6 0-5 0-6-1 9 1-4-1-4-1-4-1-4 3 8-2-4-2-3-4-3-3-1 9 1-4 0 9-2-5 1-4 2-5 2 8-4-6 3 8-5-5 4-6 6 9-9-5 6-6 8 5-8-5 9-6 9-7 10-7 10-6 10-7 12-7 12 5-9-6 12-4 9-3 9 3-9-2 7 0 5-2-8 2 4 4 2-8-3 6 0-9 2 7-3-8 4 8-5-8 5 8-5 8-6-7 6 8-7 8-8 8-9 9-9-6 6 8-11 8-12-4 8 8-14 8-15 8-17 7-16-3 8 6-16 6-14 5-13 4-13 3-13 2-13 2-11-1 9 1-12 0-10-1-10-2-9-3-8-2-8-3-8-3-8 4 8-4-8-4-5-3-3-4-2 9 1-4 1 8-2-3 1 15-9-4 3-4 4 9-9-3 5 5-8-3 6 4-8-3 7-4 9-3 10-3 10 2-9-2 11-2 12-2 14-2 15-2 16-1 16-1 16-1 14-1 15 0 16 1 17 2 18 2 17 4 16 3 14-2-8 4 14 4 13 5 11 6 10 6 9 6 9 3 8"/>
<path d="M2615 1921l 5 2 6 3 4 3"/>
<path d="M3000 2030l 2-5 2-6-3 9 3-7 3-7 3-9 3-8 2-9 3-8 2-8 3-8 2-8 2-8 1-9 1-8-1 9 0-8 0-7-1-6-2-6 4 8-3-4-4-4-5-3 9 1-6 0-7 1 17-6-8 4-8 6 7-6-9 8-11 9-12 10-12 12-13 13-14 14 9-9-14 15-14 17-14 18 6-7-13 19-12 18-11 18-9 18 4-8-8 17-6 16-5 16-4 14 2-9-2 12-1 11 2 9-2-9 3 7 6 5-8-3 7 2 8 1 10-1-9 2 10-3 11-4-8 3 12-6 13-6 13-8 13-7-8 4 13-8 12-8 11-9 11-8-7 6 9-8 8-9 7-8 7-6 5-6 7-6 4-3 8-5 8-3 9-2 2 0 8 3 3 9-1 4-1 6-2 9-3 7-2 8-2 8-2 8 2-9-2 9-1 8-1 9-1 9 0 10-1 9 0 9 1 8 2 8-2-8 2 7 3 5 4 5 5 4-8-3 8 2 10 0-9 1 11-2 13-4"/>
<path d="M3348 1845l-2-5-1-6-1-5-1-4-2-5-2-4 4 8-2-5-3-4-4-2-4-2-5-1 9 1-5 0-5 0-6 2 9-2-6 2-7 2-6 3-7 3 8-4-8 5-8 5 7-5-8 6-9 6-8 7-9 9 9-10-8 10-7 10 5-7-7 10-6 9-6 10 5-8-5 9-3 9 2-9-2 9 0 7-2-9 2 5 6 3-7-3 9 1-9 1 12-3-8 3 14-7-7 5 15-11 16-11 15-14-7 6 14-14 13-15-6 7 13-16 13-16 13-17 12-17 11-18-5 7 12-19 10-20 10-18 8-18 8-17-4 8 6-15 5-15 4-14 3-14 2-14 2-13-1 9 0-13 0-12-1-12-3-11-2-10-4-8-3-7 4 8-3-5-4-3-4-1 18-1-5 2 16-9-5 4 14-17-4 7-4 7 4-8-4 8-4 11-4 12-4 13 2-9-4 14-3 17-3 18-3 21-3 22-1 21-1 21 0 21 0 20 1 19 1 18 3 18 3 16 4 16 4 16-2-8 5 15 6 13 7 12 7 10 8 8 9 7 9 5 10 5 11 4 2 8-2 9-5 8"/>
<path d="M3730 1942l 4-2 8-4 5-1 5-1 6-2 6-2 6-2 8-2 7-1 8-2 9-2 9-1 9-2 8-1 8-1 7 0 8 3"/>
<path d="M3739 2039l 7 2 8 1 8 0 9-1 10 1 10 1 11 1 12-1 13 0 7 3"/>
<path d="M4299 2098l 2-11 2-11 2-11 1-11 2-11-1 9 1-11 0-10 0-9-1-9-1-8-1-8-2-7-2-6 4 8-3-4-4-4-4-4-5-2-6-2 9 2-7 0-8 1 8-1-8 3-9 4 8-4-10 6 7-5-10 8-12 10-12 12-12 13 9-10-12 13-12 14-12 15 5-7-10 16-11 17-10 18 5-8-10 18-8 19-6 17-5 17 2-8-3 16-2 15 0 14 1 12-2-9 3 10 5 9 5 5 7 4-8-3 9 3 10 1 12-1-9 2 14-3 18-6-8 3 23-10 24-13-7 5 22-13 19-13 14-10 12-10 10-8 8-7 6-5 5-4 8-5 9-3 3-1 9-2 7 4 3 8 0 3-1 6-1 7-2 8-1 8-1 7 0 8-1 7 0 7 0 7 1 7 2 6-2-9 2 6 3 6 4 6 4 5 5 4 7 3-8-3 7 1 8 1 9-1 9-1 8 3"/>
<path d="M4524 1774l-2-4 1-9 4-8 1-3 5-8 6-7 7-5 8-5 4-2 8-4 6-1 6-2 5-1 9-2 5 0 5 0 6 1 6 0 6-1 6 0 6 1 6 1 5 2 8 3 5 3 4 3 4 4 2 5 2 9 2 6 1 6 0 5-1 5-2 9-3 5-4 8-3 5-5 7-4 6-9 9-5 6-6 5-6 5-6 5-6 6-7 6-7 6-8 6-7 6-7 6-6 6-6 5-8 5-6 4 8-5-5 3 21-34-1 3-10-12 7 2 12 0 14-2 16-2-9 1 14-3 15-4 9-1 8 3"/>
<path d="M4910 1821l-4 0-5-1-5-1-6-1-6-1 8 2-6-1-7-1-7-1-8 0-9 0-9 0-8 2 9-2-7 2-7 3 8-4-6 3-6 5-7 4-7 5 8-5-7 5 9-9-6 6-5 7 5-7-5 8-5 7-4 8 4-8-3 8-3 8 2-9-1 8 0 7 0 6 2 6-2-8 3 5 4 3-8-3 6 2 7-1-9 2 8-2 8-3-9 4 9-5 9-5-8 4 11-8 13-11-7 6 14-13 13-14 11-12-5 7 9-12 9-13 10-15-5 8 10-18 10-19 9-20-4 8 7-18 6-17 5-16 3-16 2-17 2-18-1 9 2-21 0-21 1-20-1-18-1-17-2-15-2-12-2-11-2-9-2-7 3 8-3-5 9 2-5 0 17-6-6 4 8-6-6 6 14-17-5 8 5-9-5 9-3 10-3 10 2-9-2 11-3 12-2 15-1 16-1 17-1 19-1 19 0 21 1 20 1 21 2 21 2 21 2 20 3 20 4 19 4 20 6 19-3-9 6 19 7 18 7 18 8 17 8 15 9 14 10 14 11 12 12 12 2 9"/>
<path d="M2233 3643l 1-7 1-6 1-6 2-8 2-9 2-10 2-10 3-11 1-11 2-11-1 9 0-11-1-10-2-9-3-9 4 8-4-7-4-7-6-5-7-3-8-3 9 2-10-1-11 1 9-2-12 3-12 5 8-4-13 7-14 9-14 10 7-5-14 11-14 13-13 13 9-9-12 15-13 16-12 17 5-7-12 17-10 18-10 18 4-8-8 18-7 18-7 18-5 17-4 16 2-9-3 14-2 12 0 11 1 10 2 8-2-8 3 5 5 4-8-3 7 2 8-1-9 1 10-2 11-4-9 3 11-5 11-7-7 5 12-8 12-10 14-10 13-10 13-11 13-11 13-10 12-11 12-9 11-9 10-9-6 6 8-8 7-7 6-6 5-4 7-6 4-3 8-5 8-3 4-1 9-1 7 3 3 2 2 5 3 5 2 7 3 6 3 8 2 7 2 7 3 7 3 8 4 7 3 7 3 7 3 6 3 6 4 6 4 6 4 6 4 4 5 5 5 4 6 3-8-3 5 1 6 1-9 1 6-1 6-2 9-1"/>
<path d="M2489 3188l 6 1 5 2 8 3 5 2 4 3 4 4 3 4 3 4 2 5 3 8-1 6-1 6-2 9-3 7-2 6-5 8-3 6-4 7-4 7-5 8-5 8-6 7-5 8-6 7 6-7-6 8-5 8-4 8-4 6-3 5 4-8-2 5-2 6 2-8-1 6-1 5 0 4-2-9 2 3 5 2-8-3 5 1 6 0 7-1-9 1 7-2 7-3 8-2 9-2 9-2 10 0 10-1 12 0 7 3"/>
<path d="M2692 3344l-4-3-4-2-4-2-5-2-4-1 9 1-5 0-5 0-5 0-4 0-5 0-6 0-5 1 9-2-5 2-5 1-5 2-6 2 8-4-6 3 7-5-6 5-7 7 9-10-6 7-5 7 6-7-5 7-4 7 4-8-4 8-3 8-3 8-2 7 2-9 0 6 0 7 2 6-3-8 3 4 5 4-8-3 6 2 8 0 8-1-9 2 8-3-8 3 9-4-8 5 9-6 9-8-7 6 9-9-6 7 9-11 9-12 9-13 9-14-5 8 8-14 8-14 7-14-4 8 6-14 5-14 4-14 3-14 3-13 3-13 2-14 1-13-1 9 1-13 0-13 0-12-1-11-1-11-1-9 0-9-1-8-1-6-1-6 4 8-2-4-3-2 18 0-4 1 15-9-3 3 9-10-4 5 5-7-3 6 4-8-4 7-3 9-4 10-3 12 2-9-3 14-3 14-2 15-2 16-2 17-1 17-1 18 0 19 0 21 0 21 1 21 1 22 2 23 2 22 2 22 4 21 4 21-2-9 6 20 6 19 6 17 6 16 7 14 7 13 8 12 8 11 9 10 2 8-2 9"/>
<path d="M2920 3584l 7-5-3 3-3 3 15-16-2 3 6-17 1 5-2 9"/>
<path d="M3399 3603l 0-6 1-5 0-6 1-6-1 9 0-7 0-7 0-7-1-8-1-7-3-7 4 8-4-6-4-4-5-5-6-3-6-2-8-1 9 1-8 1 9-2-9 2-9 4 8-4-10 6-11 7 8-5-11 8-11 9-12 11-12 12 9-10-11 13-12 15 6-8-11 16-10 15-9 15-8 15 4-8-7 15-4 14-4 13 2-9-1 12-1 11 2 11-2-9 3 9 6 7 7 6 9 4-8-3 11 3 11 2 13 0 12-1-9 1 13-2 13-6-8 4 15-9-8 4 18-13 19-15 16-14-6 6 13-12 10-11 8-10-6 7 7-8 5-6-5 7 4-6 3-7-4 8 2-6 1-6-1 9 0-6-1-4 0-4 3 8 0 0 51-35-1 3 2-9-1 6 0 6-1 7 1 6 0 6 2 5-3-8 2 6 3 6 3 6 5 6 5 5 6 5 6 5 7 4 7 3-8-3 8 1 9 2 8 3 2 8-2 9"/>
<path d="M3604 3252l-4-1-3-1-4-8 0-1 1-9 3-8 5-8 6-7 7-6 8-4 8-3 9-2 3 0 6 0 7 1 6 0 6 0 5 1 5 0 5 1 4 1 8 3 4 2 4 3 2 4 3 9 1 4 0 5-3 9-2 6-4 8-4 8-5 8-6 9-6 8-5 7-8 10-8 9-9 10-10 10-10 10-10 10-10 9-11 8-10 8-9 8-8 8 9-9-6 7 5-8-4 7 4-8-2 7 2-9 0 5-2-8 4 3-8-3 6 1 7 0 10-2-9 2 11-3 12-6-8 4 13-7 14-7"/>
<path d="M3857 3317l-5 2-6 2-7 1-6 2-7 2-6 2-7 2-8 2-7 1 9-2-6 2 8-4-7 4-6 4-7 4 7-5-7 5-6 6-7 6 9-9-5 6-4 5-9 9-5 5-5 5 9-9-5 6 5-7-4 7 4-8-3 7-2 6 2-9-1 6 0 6 1 4-2-8 2 3-7-3 4 1 5-1-9 2 7-2-17 8 8-5 8-7 11-8 13-11-7 6 11-10 10-11-6 7 8-11-5 8 7-12 6-13 7-13 6-15-4 8 6-14 5-15 4-15 3-15 3-16 1-15 2-15-1 9 1-14 0-14 0-12-1-13-1-13-1-12-2-12-3-12-3-11-2-10-3-8-3-8-2-5 4 8-3-5-3-2 9 1-3 0 8-2-4 2 15-9-4 4 9-10-5 6 6-8-5 7-4 7 5-8-4 9-2 9 2-9-2 10-2 11-1 12-1 14 0 16 0 18 0 21 0 20 1 20 1 19 2 19 1 20 2 19 2 19 2 19 2 19 3 19 4 20 5 21 5 20-2-9 4 16 5 14 5 12 5 12 6 12 7 11 7 9 8 8 7 8 8 6"/>
<path d="M4184 3515l 5 3 7 6 5 5 4 4 4 4 6 3-8-4 8 3 8 1 9 1 9 1 9 0 9 1 10-1 10-1 11-1 11-2 12-2 11-1"/>
<path d="M4151 3676l 5 1 6 0 8 0 8-1 8-2 11 0 13 0 13 0 15-1 16-3-9 2 16-3 9-2"/>
<path d="M4632 3572l-2-7-2-7-2-9-3-7-2-7 3 8-3-5-3-5-3-5-4-5-6-5-6-4-8-4-7-2 9 2-9-1-9 0-10 2-10 2 9-2-12 4-11 4-12 5 8-4-11 6-12 7-11 7 7-5-12 9-13 11-12 11-11 12 9-10-10 12 5-7-8 12-9 13-7 13-8 13-6 11 4-8-5 12-5 12-3 14 2-9-2 12 0 9 1 8-2-8 2 7 4 6 5 5 5 4 7 3-8-3 7 2 8 1 10 0-9 1 10-2 11-3-9 3 12-5 12-5 12-6 13-6 13-7 13-7 13-7 12-6 11-7-8 5 12-7 10-8 10-8 8-8-7 6 8-7 7-6 6-7-6 7 6-7 5-6 4-6 4-5 3-4 3-4 5-7 7-6 8-4 9-3 9-2 2 0 8 3 1 4 3 9 1 7 1 9 2 8 1 8 2 9 2 8-2-9 2 8 3 7 4 6 4 5 5 5 6 5 7 3 7 3-7-3 7 2 8 2"/>
<path d="M4870 3257l 2-4 5-7 5-7 7-6 4-3 4-3 8-5 5-3 6-3 8-3 7-2 9-1 7-1 7-1 7 0 7 0 6 0 7 1 6 1 5 2 8 3 4 2 4 2 3 3 2 4 2 8 1 5 0 5-1 5-2 9-2 6-2 6-2 6-4 8-2 5-3 4-3 4-3 5-3 5-2 5 4-8-2 4 2-9 0 4 0 5 1 4-2-9 2 4 2 4 3 2 4 2-8-3 5 1 6 2 5 1 8 4 4 2 4 2 3 2 3 3 3 3 2 4 3 9 0 4-2 8-1 5-2 4-2 5-5 8-2 4-2 4-6 7-3 4-9 9-4 4-4 4-4 4-4 3-7 6"/>
<path d="M5053 3069l 15-9-3 3 9-9-3 3 10-15-2 5-2 6 2-9-1 8-2 10-1 10-2 9-2 11-2 11-3 12-2 9-3 13-4 13-4 12-5 14-5 13-5 15-6 14-5 14-6 14-5 14-6 14-5 14-5 12-5 11-4 9-3 8-2 6-2 6 2-9-1 5 0 5-2-9 2 4 3 2-8-3 4 1 4-1-9 2 6-1 6-2 7-2-8 3 8-4 8-5 9-5 9-5 9-3 10-4 11-4-8 3 10-4 11-5 11-4 8-4 11-4 10-3 11-3 9-4 10-3 9-4 8-3 9-3 7-3 8-3 8-2 10-1 8-1 7-1 7 0-9 1 5-1-9 3 4-2-7 5 3-3"/>
<path d="M5138 3135l-1 6 2-9-1 6-2 9-1 5-2 6-2 6 2-8-2 7-1 8-2 9-1 9-2 10-2 10-2 10-2 11-3 12-2 13-2 13-2 13-2 13-3 14-3 14-3 13-3 12-2 11-2 10-2 10-1 9 0 8 1 6-2-8 2 5 4 5 6 3-8-3"/>
<path d="M5341 3256l-5-2-5-2-5-2-5-1-5-1 9 1-5 0-6 0-6 1 8-2-7 2-8 3-8 3 8-4-9 5-9 5-10 7-11 7 7-5-11 9-12 9-11 10-11 10 9-10-9 11-9 11 5-7-7 11-7 12 5-8-5 10-4 9 2-9-1 9 0 8 1 6-3-8 3 5 4 2-8-3 6 0 9-1-9 1 11-2 13-5-9 3 14-6 15-8-8 4 15-9 14-11-7 6 14-12 13-15-6 7 13-15 12-15 10-15 10-15-5 7 9-15 9-15 9-15 8-15 7-14 6-15-3 8 5-14 5-14 4-14 3-13 3-14 2-15 2-14 2-13 1-11 1-9 1-7-1 9 0-5 4 8-2-1 42-19-3 3 6-7-5 7-4 9 4-8-5 11-4 11-4 13-4 14 3-9-4 15-3 16-3 17-2 18-1 18-1 19 0 19 0 20 1 20 1 20 1 19 2 18 2 19 3 19 3 18 4 17 4 17-3 9-4 8-5 7"/>
<path d="M8291 2207l 3 5 4 4 5 3 5 3-8-4 5 2 5 0 5-1-9 2 5-2-8 3 6-3-8 5 6-5-6 6 6-6 8-8-6 7 7-9 8-10 8-11 9-12 10-16 12-18-5 7 12-19 12-20 12-20 10-19 11-19 9-17 10-17 8-16 8-15 8-14 7-13 7-13 7-12 5-11 4-10 4-8 3-5 5-8 6-7 7-5 7-5 3-2 8-3 10-1 7 3 2 4 3 8 1 8 0 9 0 11 0 13-1 17 0 19-1 23-1 25-2 26-2 26-4 26-4 26-4 28-7 31-7 33-2 7-10 36-10 37-10 35 1-4-8 33-7 30-2 5-7 29-7 26-6 25 1-5-5 23-4 20-3 16-3 14-2 7-3 12-3 10-3 7-4 8-5 8-9 9-7 5-3 2-8 4-9 2-9-2-4-8"/>
<path d="M8564 1879l 6 0 6 1 6 1 7 2 8 4 6 2 6 3 7 3 7 4 8 3 6 3 6 4 5 5 5 5 5 4 5 5 4 5 4 6 4 7 3 6 2 6 2 9 2 6 0 7-1 9-1 10-2 10-3 9-3 10-4 11-5 13-6 14-4 8-9 14-5 7-11 13-11 13-12 13-9 9-13 14-14 14-15 13-15 13-14 12-13 11-12 9-11 8-7 5-9 7-7 5-6 4-8 4-5 2-9 2-3-1-9-1-3-3-4-8"/>
<path d="M8750 2001l-2 9-2 6-2 6-1 7 2-8-2 7-2 7-1 8-2 9-1 8 0 9 0 8-1 8 0 8 1 7 1 7-3-9 2 5 3 5 5 3 5 3-8-3 6 2 6 1 7 0-9 1 8-2 8-3-8 3 8-4-8 5 8-6 8-6 8-7-6 6 7-7 7-6 6-7-5 7 5-8 5-7-5 7 4-7-4 8 3-6 2-6 1-5-1 9-1-4-1-3 4 8-3-4-3-4-4-4-5-4-5-3-6-2 9 2-6-1-7 0-7 0-7-1-7 0-7 0-7 1-6 0-5 0-9-1-5-1-2-2-4-8 1-8 4-9 1-2 5-8 6-7 4-3 7-6 6-5 7-6 8-6 8-6 9-7 9-8 9-7 10-7 10-7 11-7 8-4 10-6 11-6 11-5 10-6 10-5 10-4 9-4 8-4 9-3 8-3 7-3 6-2 6-1 9-2 4 0 8 3 4 2 2 3 3 9 1 5 0 6 0 6 0 6 0 7 0 6 0 6 0 6 1 7 0 6 1 8 1 7 1 7 1 7 1 8 1 7 1 6 1 6 1 6-2-9 2 5 2 5 3 3-8-3"/>
<path d="M8992 1664l 1 7 2 5-2 9"/>
<path d="M9052 1852l 6 3 5 3 5 5 4 5 4 5 4 5 3 5 2 6 2 6 3 8 1 6 1 8 1 8 0 10 0 10-1 10-1 9-1 9-2 9-3 9-2 8-2 8-2 7 3-9-2 6 0 4 0 0-57 27 1-5 3-8 3-9 3-10 4-8 4-10 5-11 6-13 7-14 7-13 6-13 7-11 5-9 5-9 5-8 6-8 6-7 5-7 6-6 5-5 7-6 5-3 8-5 4-2 9-3 9-2 5-1 5 2 8 3 4 2 4 4 4 4 3 6 3 7 2 7 3 8 2 8 2 8 0 9 1 9 0 8 0 9 0 9 1 9 0 9 1 10 0 9 1 9 1 7 1 6 1 5-2-8 2 5 2 4 3 2-8-3 4 0 5 0-9 1 5-1-9 3 6-3-8 5 7-6-7 6 7-7-6 7 7-10 9-11 8-12 9-13-5 7 8-14 9-15 8-16 8-17 7-16 7-16-3 8 6-16 6-15 5-16 5-16 4-17 4-17 3-18 2-18 2-18-1 9 1-18 1-17 1-16 1-15 1-12 1-9 1-11 2-9 1-7 1-5 0-2 4-8 5-8 6-7 6-5 8-5 9-3 9-2 8 3 2 9 0 3-1 6-1 8-1 11 0 13-1 14-1 16-1 16-2 15 0 15-2 16-1 17-1 17-1 17-1 17-1 19-1 19-1 19-1 19 0 17 1 17 1 16 2 15 2 12 3 12-3-9 4 11 4 8 4 7 6 4 6 3-8-3 8 1 7 0-9 1 8-2-16 8 8-6-6 6 9-9 9-10-6 7 10-12"/>
<path d="M9252 1818l 8-2-4 2 24-18-2 3 10-33 2 4 3 2-7-3 5 1 6 0 6 0 8-1-9 1 8-1 9-2 9-2 9-2 8 3 2 9"/>
<path d="M9518 1836l 2 5-2-9 2 4 3 2 4 2-7-3 5 1 6 1 6 0 6 0 8 0 9-1-9 1 8-2 8-2-8 3 7-3 7-4 8-3 7-4 8-3 6-4-7 5 5-4 6-4 4-3-7 6 4-4-15 22 2-3-1 8-1-4 3 8-3-4-4-3-5-2 9 1-7 0-7-1-8 0-9 1-9 1-10 1-10 1-10 1-11 3 9-2-10 2-9 3-9 4 8-4-9 5-9 5 8-5-8 7 9-9-6 7-6 7 5-7-5 8 5-8-5 9-3 9-3 10 3-9-2 9-1 9 1 8 2 8-3-9 3 7 5 7 5 5 7 5-8-3 9 3 11 2 15 2 16 1 17-1 17-2 16-2-9 2 15-4 14-3 14-4 9-2 8 3"/>
<path d="M9674 1834l-4-8 1-8 4-8 4-8 6-7 7-5 2-2 8-5 8-3 5-1 6-2 9-1 6-1 6 1 6 0 6 0 6 0 5 0 6 0 5 1 5 0 5 1 8 4 4 2 4 4 3 4 2 4 3 9 0 4-2 9-2 5-2 5-5 8-3 6-4 6-4 6-5 7-5 6-5 6-6 7-5 6-5 6 6-7-5 8-5 7-5 7-3 6 4-8-2 6-2 6 2-9-1 5-1 6 0 5 1 5-2-8 3 3-7-3 7 1 12 0 13 0 13-2 14-1 14-2 15-2"/>
<path d="M10707 1390l 3-3 4-3 8-4 8-3 5-2 9-1 4-1 5 2 8 3 4 2 5 5 3 6 4 7 2 9 3 9 1 11 1 12 0 14-1 17-1 21-3 23-4 24-4 22-4 18-3 17-4 18-5 18-2 9-5 18-4 19 2-9-4 19-4 19-3 19-3 18-2 17-2 15-2 14 0 13 1 11 2 11-3-9 3 9 5 7 5 6 6 3-8-3 8 2 9 1 11-2-9 2 12-3 13-5 15-5-8 3 16-7 17-9 16-10-7 5 16-10 16-11 15-13-7 6 14-13 7-6"/>
<path d="M10738 1670l-12 3-15 3 8-1-14 3-12 4-10 4-9 4-9 4 8-4-9 5-8 4-8 4-6 4 7-5-3 3 10-46 4 0-9 2 8-3-8 3 9-4 11-6 11-7 13-6 15-7 16-8 9-3 9-2 8 3 2 9-2 8"/>
<path d="M11018 1613l-2 9-2 7-2 7-2 10 2-9-2 11-3 11-2 11-2 10-2 11-2 11-2 12-1 12 1 12 1 12 1 10-2-8 2 6 3 5 4 4 5 4 6 4-8-3 9 2 10 0-9 2 10-2 8-4-8 4 9-4 9-4 10-5 9-6-8 5 10-7 8-6-6 5 7-7-6 7 7-8-5 8 5-9 5-10-4 8 3-9 2-8-1 9-1-9-1-7-4-8 4 8-5-6-6-6-7-5-9-4-11-5-11-5-12-4-12-2 9 1-11-1-11-2-9-1-10-2 9 2-9-1-9 1 9-2-8 2-9 3-8 3 8-3-6 4 7-5"/>
<path d="M11755 1779l 6 1 7 0 7 0 8-1 9-1-9 2 10-2 12-4 13-5-8 3 15-7 17-10-8 5 18-11 19-14-7 5 20-17 21-21 22-23 23-25 24-27 24-28 25-29-3 4 24-29 23-29 22-27 20-28 19-27-3 3 16-27 14-26-2 4 11-27 8-28 5-28 2-28 0 5-1-25-6-22-8-18 3 7-9-14-7-10-8-9-7-8-7-5-7-4-7-1 9 1-7 1 8-2-8 3 8-4-9 6 8-5-9 9 9-9-10 12 5-7-9 16 4-8-10 20-9 23-10 26-10 29-10 33-11 36 2-7-12 40-11 42-10 43-10 45-8 44-8 45-7 45-6 45-5 44-5 42-3 42-2 40-2 39 0 36 0 34 2 31 4 27 4 24 6 21-1-5 6 17 8 15 9 11 10 9 10 7 9 5-8-3 9 3 8 0-9 2 9-3-17 8 9-5-7 6 9-8-6 7 8-11-5 8 7-13-3 8 6-16 6-17 4-19 4-20 3-21-1 8 2-22 0-23-2-23-2-25-3-24-4-25-4-24-5-23-5-21-5-21-5-19-5-18-5-17-3-16-3-14-2-13-1-11-1-9 0-8 1-9 1-5 4-9 2-4 5-7 6-7 7-6 8-5 3-2 9-3 9-2 5 0 5 1 5 2 5 2 6 2 8 3 6 2 7 3 6 3-8-4 6 3 6 1 6 1 7 1 7 1 7 0 8-1 8-1-9 1 8-1 9-2 9-3 8-2 8-3 7-2 7-2-8 3 6-3-8 4 7-4 7-4 6-5 6-5-7 6 6-5 5-6 4-5 4-5 4-4 4-4 7-6 3-2 7-5 9-3 9-1 2-1 8 4 2 8 1 2-1 5-1 5-1 6-1 7-1 6 0 7 0 6 0 6 0 5 1 5-2-8 1 5 3 4 2 4 4 3 4 3-8-3 4 1 4 1 5-1-9 2 6-2-9 3 6-3-8 5 7-5 6-5-7 5 7-6 6-7 8-7 6-6 6-6 6-6 5-5 5-5 4-5 4-4 3-4 4-3 3-3 7-6 2-2 8-5 8-3 9-1 2 0 8 3 2 3 1 4 2 5 2 5 3 5 4 3 4 2-8-3 5 1 6 0-9 2 5-2 6-1-8 3 6-3 7-3 7-4 7-4 7-5-8 5 8-5 8-5 7-4 7-5 6-4 6-4 5-3 8-5 4-2 8-3 9-2 3 0 8 3 2 2 2 4 2 9 1 4 1 5 0 5 1 5 1 4-3-8 2 4 2 4 2 3 4 3 3 2-7-3 4 1 6 1 6-1-9 2 9-2 9-2 8-3 9-4-8 4 8-4 9-4 8-5 7-4 7-4 7-3 7-4 6-3 9-3"/>
<path d="M12832 1545l-5 0 9 1-5 0-4 0-4 1 9-2-4 1-5 1-6 2-5 2 8-4-5 3 7-5-5 3-7 6-6 4-6 4 8-5-7 4-6 6-7 7 9-10-6 7-7 7-5 8-6 7 5-7-4 8-5 7 5-8-4 8-3 8 3-9-2 8-1 8 0 7 1 6-2-9 2 6 3 4 4 4 4 3 6 2-8-3 6 1 8 2 9 2 12 1 11 0 10-1-9 2 10-3 11-4 12-4-8 3 13-6 13-6 14-7 13-8-7 4 13-8"/>
<path d="M13134 1224l-2 4 4-8-3 6-2 7-3 7-3 7-4 8-3 9-2 10 2-9-2 10-2 11-2 11-3 12-2 13-2 14-3 15-2 15-2 17-2 16-3 17-2 17-2 17-3 18-2 17-3 17-2 17-2 19-1 21-2 18-1 14 0 13 0 11 0 12 1 11 2 10 1 9 3 9-3-9 3 7 3 5 4 3-8-4 5 2 7 0-9 1 8-2-16 7 7-4 7-6 7-6-6 6 7-6 6-7 7-6 8-5 8-3"/>
<path d="M13005 1534l-7 1-6 0-7 0-7 0-6 1-6 1-6 1-6 1-5 0-9-1-2-1-3-8 1-8 3-9 5-7 6-7 7-6 4-2 7-5 7-4 8-4 10-4 10-4 12-5"/>
<path d="M13293 1446l 0 5 0 5 0 5-1 7-1 7-2 8-2 9-2 8-2 8 2-9-2 9-2 10-2 10-2 9-3 10-2 9-2 9-3 10-3 9-3 10-3 10-3 8-2 6-2 7 2-9-1 6 1 4-10-11 4 0-9 2 8-3"/>
<path d="M13326 1337l-3 4-3 3-3 3 9-9-4 4 6-7-3 5 4-8-3 5-2 6-2 7-2 6 2-9-1 6 0 6 0 7 1 8 2 9-3-8 3 8 2 7 4 5 3 6"/>
<path d="M13404 1510l 2 5 1 6 1 7 1 7 2 8 2 7 1 7 2 6-2-8 2 6 2 5 2 4 4 4 4 4 5 3 5 3-8-4 6 2 6 1 6 0 6-1-9 2 5-1 6-2 5-2-8 3 5-2 5-3-7 5 5-3 5-4-7 6 4-5 5-4 4-4-6 7 3-5 3-4-5 7 3-5-4 8 2-5 0-5-1 9 0-4-1-5-1-3 3 8-2-4-4-4-3-4-4-4-5-4-5-3-5-4-6-4-5-4-5-3-5-4-4-3-4-4-3-3-3-4-3-8-2-4 0-3 1-9 1-4 3-8 5-8 3-3 6-7 3-4 7-6 4-3 4-3 8-5 5-3 5-2 5-3 9-3 5-2 5-1 5-2 9-1 6-1 5-1 6 0 6 1 6 2 6 2 7 3 6 2 5 3 4 4 5 4 4 5 4 5 3 5 4 6 3 5 3 6 2 6 2 6 3 9 1 6 2 6 1 7 1 6 1 5 1 6 1 5-3-9 2 5 3 3-8-3 5 1 6 0-9 2 6-2-8 3 6-3-8 5 7-4 6-5 6-5 7-6 6-5 7-6 8-6 7-5 6-5 7-5 6-4 8-5 6-3 6-3 6-3 5-3 4-3 9-3 5-2 4-1 9-2 5 0 4 0 5 2 8 3 4 2 4 4 3 5 3 6 2 7 3 9 2 8 2 8 1 9 1 10 1 10 2 10 1 9 2 10 2 9 1 9 2 9 1 10 2 10 2 10 3 9-3-9 3 8 2 8"/>
<path d="M8399 3404l 4 5 2 9 2 7 2 10 1 13 2 14 1 13 0 13 0 16-1 17-1 20-2 22-2 23-3 24-4 25-4 27-5 28-6 29-6 30-6 31-7 31-5 32-5 31-4 30-4 29-4 27-3 25-3 23-1 21 1 18 1 17 2 14 1 11 2 10-2-9 2 7 2 6 2 8"/>
<path d="M8679 3489l 5-7-2 4-3 6 4-8-3 7-4 7-3 8-4 9-4 10-4 10-4 13-5 13-5 13-7 16-7 16-6 18-8 17-8 19-8 18-9 19-9 18-9 17-9 18-8 17-7 18-6 19 2-9-4 17-1 14 2 11-2-9 3 8 4 6 6 6 9 5-7-3 12 4 13 3 12 1 13 1 12-1 14-1 13-2-9 1 14-3 15-4 16-5 16-6 16-6-8 3 17-7 20-9 23-10 22-9 19-9 17-7 17-8 17-7 18-7 17-8 16-7 15-7 15-8 13-7-8 5 9-6 7-5 8-4 8-4"/>
<path d="M8793 3567l-2-8 2 5 3 7 2 8 3 9 3 11 5 14 4 14 4 12 5 14 5 17 3 9 5 18 3 15 3 15 2 17 2 22 2 26 0 26 0 21 1 19 0 20 0 22-2 23-2 21-3 21-1 21-3 20-2 19-2 18-2 15-1 14-1 13"/>
<path d="M9188 3732l 8-2"/>
<path d="M9575 3451l 3 3 4 5 5 7 5 8 5 9 6 9 7 11 8 13 9 17 8 17 8 15 7 14 7 16 7 18 8 20 8 21 8 21 9 22 8 23 8 23 8 25 8 24 8 23 8 22 9 21 8 20 8 18 8 17 8 16 6 14 6 14 6 12 5 10 5 8 4 7 4 4-7-4 4 0-32 15 4-4-11 15 3-7-3 8 2-8 3-10 3-8 5-8 6-6"/>
<path d="M9843 3477l 25-4-5 3 7-5-5 5 9-9-5 6 5-8-4 8-5 9 4-8-6 13-8 18-8 19-7 17-7 19-9 21-9 23-11 26-15 31-18 38-19 38-14 31-12 28-12 28-12 29-13 29-13 31-13 30-13 28-3 4-13 25-12 23 2-4-11 22-11 24-3 5-12 25-11 21 3-6-7 15-3 11-3 9-4 8-3 6-4 8-2 3-42-7 1-1 6-6 7-6 8-5 8-3 9-2 8 3 2 9-2 9-4 8-5 7-1 1-9 9-7 6-8 4-9 2"/>
<path d="M10351 3677l 5-2 5-1 5-2-8 3 6-2-8 4 5-3 5-3 8-5 7-3 8-3 7-2 9-1 8-1 8-2-9 2 8-2 9-1 10-2 10-1 10 0 10-1 11-2 11-2 11-2 11-1 11 0 10 0 10 0"/>
<path d="M10347 3779l-8-3 6 0 6-1 7 0 8-2-9 2 9-2 9-2 9-2 11-2 12-1-9 2 12-2 11-4 12-4 14-4 16-5 15-4 11-2 9-2"/>
<path d="M10333 3893l 5 0 6-1 7-1-10 2 8-3 11-3 11-3 12-3 10-2 10-3 9-3 11-3 11-3 13-3 12-3 9-2"/>
<path d="M12774 3323l 7-6 3-3 8-5 5-3 7-3 7-3 7-3 8-4 7-2 9-1 8-1 8-1 9-1-9 1 9-1 9-3 9-1 9-2 9-1-9 2 9-3 9-3 9-4-9 4 8-4 8-3 8-3"/>
<path d="M12748 3418l 5-7-5 7-5 8-6 9-6 10-6 11 5-8-5 10-5 10-5 12-4 13-5 14-4 15 3-9-4 15-3 17-4 20-3 23-4 25-3 25-3 21-1 20-1 21-1 21-1 23-2 27-3 30-4 31-2 28-2 24 0 20 0 18 0 18 1 19 0 20-1 21 0 23 0 20 2 17 1 14 2 13 2 13 3 13 2 12-2-9 4 12 4 10 6 11 6 9 8 8 7 6 7 5 7 3 7 3-8-3 8 2 9 1 9 1 8 1 8 1 9 0 10 0 11 0 10 0 9 0 9 0 10-1 10-1 10-2-9 2 10-2 11-3 10-3 10-3 9-2 9-3 9-2 8 4"/>
<path d="M12940 3643l 3-4-6 7 3-4 3-5 3-4 6-7 3-3 7-6 4-3 8-5 5-2 5-3 6-2 8-4 5-1 9-2 6-1 6 0 7 0 6 0 6 1 6 2 8 3 6 2 5 3 5 3 5 4 4 5 4 5 3 6 2 8 2 6 0 7-1 8-3 9-2 8-4 9-4 8-5 8-6 7-6 8-8 9-9 9-10 10 9-9-10 11-10 12-12 13-9 9-13 13-13 12-15 13-15 13-15 12-14 12-13 11-12 10-10 10 9-10-8 9 5-7-6 9 4-8-4 8-2 8 2-9 0 7-2-8 2 6 4 6 6 5 6 3-8-3 8 2 8 1 10 1 11-1 12-1 12-2-9 1 13-2 14-3 16-5 18-5 17-6 16-5-9 3 14-6 15-6"/>
<path d="M13262 3577l 6-7 3-4 6-5 4-4 8-4 5-3 9-3 6-2 6-1 9-2 7-1 8-1 8-1 9-1 9 0 8-1 9 1 10 0 8 2 7 1 5 1 4 1 8 3 4 3 3 3 2 8 1 4-1 5-2 8-5 8-2 5-4 6-5 7-5 5-9 10-6 5-6 6-7 6-8 7-6 7 9-10-6 7 6-7-5 6-4 7 5-8-3 7 2-9-1 8 0 7-2-8 3 7 5 8 6 7 7 7 6 5 7 4 7 4 7 3 6 4 7 3 5 3 5 4 5 5 5 4 5 4 4 6 4 7 2 7 2 8 0 7-2 9-3 7-4 8-5 7-5 7-5 6-6 7-9 9-7 7-8 7-9 7-10 7-7 5-12 8-13 9-16 8-14 8-8 4-12 6-10 4-10 3-9 2-10 2-11 2-11 0-10 0-11-1-9-1"/>
<path d="M13427 3237l 4-4 6-6 5-4 6-4 8-5 7-4 8-3 9-3 9-4 10-2 11-3 9-1 11-2 12-1 13-1 14-1 14 0 13 0 13 1 13 2 12 2 12 2 11 2 11 3 11 3 10 3 11 4 7 3 10 5 10 5 9 6 9 6 8 5 8 5 7 5 7 7 6 8 6 8 5 8 4 9 4 9 4 10 4 11 4 11 4 11 2 9 3 12 2 13 2 13 2 12 2 12 1 12 0 11 1 12 1 14 1 17 0 20 1 21 1 21 1 21 0 21-1 21-2 21-2 22-3 22-2 22-3 21-3 19-3 17-2 16-2 17-3 17-2 18-2 17-3 17-2 17-3 16-2 17-3 15-2 14-2 13-2 13-3 12-2 12-3 9-3 11-3 10-4 11-4 10-5 9-4 8-6 10-5 7-7 10-8 8-9 10-9 7-7 6-8 5-7 5-8 4-8 3-8 3-9 2-9 3-9 2-10 1-12 2-14 1-18 0-18 0-18-1-17-2-19-2-20-3-8-2-22-3-21-5"/>
<path d="M11415 3422l 9 1-5 0 8-2-4 2 24-18-3 4 5-7-4 7 4-8-5 10-4 12-4 14 2-9-3 19-5 26-5 26-4 24-3 28-7 37-8 38-5 30-1 26-1 26-2 27-2 28-2 29-2 28-1 28-2 28-1 26-1 28-3 29-4 34-4 31-1 23 0 20 1 20 0 21-1 21 0 20 0 19-2 8-4 8-5 6-8 9"/>
<path d="M9547 4716l-9 1 6-1 7-2 7-2 7-3 9-3 10-3 10-3 11-4-9 3 10-5 11-4 11-5 11-5 11-5 11-6 11-6 11-5 11-5 11-5 10-6 10-5 9-4 9-3 9-3 9-2"/>
<path d="M9636 4744l-3 5-4 5 5-7-3 6-5 6-5 8-5 8 5-8-5 10-4 9-4 10-3 10-3 10-3 10-3 10 2-9-2 9-1 8-1 9-1 8 0 9 1 8 2 9 1 8 2 8 1 8 2 7-2-8 2 6 3 5 4 5 4 5 5 3 5 3 5 3-8-3 6 1 6 2 6 1 7 0 7-1 7-1 8-1-9 2 8-2 10-2 11-3 11-3 11-4 12-3 12-3 13-4 14-3 13-3 13-2 14-3 9-1 13-3 12-1 12-1 11 0 10 1 10 2 8 2 8 2 7 3 6 2 5 4 5 4 3 6 3 7 2 9 2 7 0 7-1 9-2 8-2 9-4 10-5 11-4 8-6 10-8 10-5 8-8 11-9 12-9 12-11 14-10 13-11 14-11 14-13 14-9 9-13 13-14 13-14 12-15 11-7 5-14 10-14 9-14 8-14 7-8 4-14 6-14 4-15 4-8 2-14 2-14 1-13 0-14 1-14 0-13 0-14 0-9-2"/>
<path d="M9826 5680l 7-5 7-5 8-4 9-4 8-3 10-2 11-2 11-3 11-3 12-2 9-2 12-2 11-1 10-1 9-1 9-1 8 0 7 2 7 2 8 3 6 3 5 4 4 6 2 7 3 8 1 8-1 7-1 8-3 9-2 8-3 7-3 7-3 7-4 8-4 6-4 7-3 5-3 5-3 5 5-8-3 5-2 4-4 8-2 5-3 4 5-8-2 4 2-9 0 3-2-8 2 2-7-3 4 1 6 0 7 0 7 0 6-1 7 1 6 1 6 1 6 1 5 1 4 2 8 3 5 3 4 4 4 5 4 6 2 4 2 5 2 5 2 8 1 6 0 7-1 6-2 9-2 6-3 6-4 8-3 6-4 6-4 7-5 7-5 6-9 10-5 5-6 6-6 6-6 5-7 5-7 5-6 5-7 3-7 3-6 3-6 3-8 4-5 3-6 2-9 2-9-2"/>
<path d="M10222 5681l 7 2 7 2 7 2 8 1 7 0 8 0 8 1 8 0 8 0 7 1 7 1 7 2 6 1 7 1 5 2 6 2 8 3 5 4 4 5 2 8 1 7-2 8-2 9-3 9-3 7-5 8-4 7-5 8-6 6-9 10-6 7-8 7-9 8-10 9-11 9-11 9-12 9-7 5-12 8-11 8 7-5-10 7-9 9-8 8 9-9-6 7 5-7-5 7-3 6 4-8-2 6 2-9 0 6-2-9 2 5 3 4 5 3-8-3 7 2 8 2 12 0 14-1-9 1 16-3 18-3 9-2 17-3 17-2 17-3-9 2 17-4 17-5 18-4 9-2 18-3 18-2 19-3-9 1 18-3"/>
<path d="M2770 5890l 1-5 0-4-1 9-1-3 4 8-3-1 18 0-5 2 8-4-6 4 7-5-7 6-8 7-8 9 9-10-8 10-9 10-9 11 6-7-10 14-10 16-10 17-11 20-13 24-17 28-18 31-19 33-19 34 2-4-18 36-18 36-16 35-15 35-13 37-12 36-11 36 2-4-9 35-7 33-5 32-4 30-2 29 0 28 0 25 2 22 5 21-2-6 7 18 7 16 8 15 9 14 8 13 9 12 10 10 11 9 11 8 12 6 12 6 12 5-8-3 13 3 12 3 13 0 8 3 2 9-2 9-5 8-5 7-9 9-7 6-8 4-9 1-12 0-9-2"/>
<path d="M4246 6334l 4-2 8-4 5-2 6-1"/>
<path d="M4552 6164l 1-9 0-3 4-9 1-3 5-8 6-7 3-3 7-6 3-3 8-4 5-3 6-3 8-4 8-3 9-3 9-3 10-2 9-1 10-2 10-1 10-1 11-1 11 0 11 0 12 2 12 2 12 3 12 4 8 3 11 5 11 4 10 6 10 6 9 8 7 10 5 9 4 10 2 9 2 10 0 12-3 12-2 8-4 13-7 14-5 8-9 15-5 7-12 16-13 15-14 17-9 9-16 16-17 17-19 17-20 18-22 17-7 5-23 16-24 16-24 16-24 16-22 15 5-4-22 16-21 15-19 14-17 14-15 14-13 14 7-8-10 12-9 10-8 9-9 9-6 7 14-16-4 5 7-17 0 4-3-8 5 2-8-4 7 0 10-1-9 1 12-2 12-3 14-4 14-4 16-4 16-4 18-4 19-4 19-5 19-4 19-3 9-2 20-3 19-4-9 2 18-3 9-2 18-3 18-1 17-2 17 0 17-1 16 0 16 1 15 1 8 3 2 8-2 9-4 8-5 7-9 10-8 5-8 4"/>
<path d="M5937 6385l 7 0 7 1 7 2 9 1 9 1 10 1 11 0 11 0 12-1 13-1 14-2-9 2 14-3 15-3 16-4 18-4 22-6 23-7 9-2"/>
<path d="M6119 6241l-4 7 4-8-4 10-4 12-4 12-5 13-4 15 2-9-3 15-3 13-3 13-3 15-3 17-3 18-3 18-1 19-1 19 0 20 0 19-2 9"/>
<path d="M7371 5955l 8 4 8 5 8 6 9 8 10 10 11 12 11 13 13 13 12 14 12 15 13 17 13 17 13 19 13 19 13 21 12 22 11 25 11 25 10 24 9 22 7 21 2 8 6 19 5 19 4 22 3 24 1 24 0 26-2 28-4 27-6 28-2 8-8 27-11 27-12 26-14 26-3 6-17 27-21 29-4 5-22 29-23 27"/>
<path d="M8225 5874l 0-6-1 9 0-5-1-4 4 8-3-1 18-1-6 2 8-4-7 5 7-5-8 6-9 8-10 8-12 10-12 12-13 14 9-10-14 16-14 18-15 19-16 21 5-8-15 21-13 20-12 21 4-7-13 24-13 27-14 29-14 31-14 32-11 33-11 33-9 33 1-5-7 34-7 33-5 33-3 31-3 30 0 29 0 28 3 27 3 24 3 22 4 20-1-6 6 16 7 14 8 14 7 14 7 13 7 12 8 11 8 11 9 9 10 8 10 6 10 5-8-3 11 4 11 3 8 3"/>
<path d="M8239 6460l 8-3 9-3 10-4-8 3 10-5 11-6-7 5 12-8 13-9 16-11 19-15 24-17 26-18 27-18 28-19 29-20 29-22 29-23 28-24-4 3 26-23 23-25 22-24-3 3 19-25 18-26 17-25-3 4 14-24 12-25-2 4 9-24 8-24 7-23 4-23 4-22 2-22 1-22 0 6 0-20-1-17-2-14-3-10-3-9-3-6-2-5 4 8-4-3 18 0-5 1 15-9-6 5 15-16-7 9 4-8-6 14-8 18-8 22-10 25-10 29-12 30-12 33-13 35-13 37-14 38-13 38-13 39-13 39-12 35-10 32-9 27-8 26-8 25-9 27-8 26-7 25-6 23 1-5-5 20-3 17-2 16-1 12 0 11-1 8 1 6 1 4-2-8 2 1-17-1 5-1-17 8 6-5-6 6 7-7 9-10 11-13-6 7 13-15 14-18 17-20 19-24 19-24 18-24 16-22 14-21 14-19 12-16 11-16 10-14 9-13 8-12 6-10 6-7 6-6 7-6 7-4 9-4 9-1 4-1 8 3 3 5 2 9 1 8-1 11-3 11-2 11-3 9-3 13-3 13 2-9-3 14-4 13-2 9-3 12-4 12-3 12-4 12 2-8-3 13-3 13-3 13-2 14-2 12-1 12 0 11 0 10 1 9 2 9-2-8 2 8 3 6 3 6 4 6 5 5 5 6 2 8"/>
<path d="M8875 6567l 6-3 8-4 7-2-16 8 6-4-7 6 4-5-6 7 4-5 4-6 4-5-8 16 1-4 36 7-2 2 14-17-3 5-4 6-4 6-5 7-5 7-5 7-5 7-8 10-11 12-10 13-9 11-8 10 6-8-7 10 4-8-5 10-3 10-5 8-5 7-9 9-7 5"/>
<path d="M9229 6301l"/>
<path d="M9468 6073l-2-6-2-5-1-6 1-9 2-5 3-8 5-8 4-5 6-6 7-6 5-4 8-5 7-3 9-3 8-2 9-2 9-1 11 0 13 0 15 0 14 1 14 2 15 2 14 2 14 3 13 4 13 5 8 3 14 6 13 5 13 6 13 5 12 6 10 7 9 8 7 9 6 9 4 9 2 8 2 10 0 10-3 11-2 9-5 11-4 8-7 14-10 14-5 8-12 16-13 16-9 9-15 16-16 16-19 15-20 15-7 5-22 14-24 13-25 12-7 4-26 10-24 9-23 10 7-3-22 11-21 10-18 11-17 11 5-5-14 11-12 11-11 10-9 8-8 8 9-10-6 7 6-8-4 7 4-8-2 6 2-9 0 7-2-9 4 6 6 6 8 5-8-3 10 3 10 2 12 3 14 2 14 1 15 1 15 0 18-1 19-1 21-1 20-2 21-2 20-3 19-4-9 2 19-4 18-4 18-5 19-6 19-6 18-8-8 4"/>
<path d="M10615 6369l-4-8 1-8 4-8 4-7 6-6 6-6"/>
<path d="M10883 6548l 1-6 4-8 5-7 3-6 5-6 6-7 7-8 9-9 7-6 11-9 13-10 14-11 17-12 18-14 20-16 22-17 24-16 24-18 25-17 26-18 26-17 26-19 24-19-4 3 22-21 21-24-4 4 19-26-3 4 17-28 14-29-1 4 12-29 10-29 8-29 7-27 5-26 4-24 3-23-1 6 1-20-2-16-5-11 3 6-5-8-6-7-6-6-6-5-7-2 8 1-8 2 16-6-10 6 8-5-12 8-12 11-14 13-15 14-17 17 9-9-18 18-18 22-19 23 5-6-19 27-17 29 3-6-17 33-14 35-14 34-11 32-11 32-8 31 1-5-7 31-5 29-2 28-1 26 1 25 3 22 5 21-2-5 7 19 9 16 9 15 11 13 10 13 11 12 11 10 12 9 13 7 13 7 14 5-8-3 14 4 14 1 13 0 14-2-9 2 14-3 15-3 14-4 9-2"/>
<path d="M11570 6469l-5 5-5 6 9-10-5 7 5-8-5 8 5-8-5 8-4 11-4 11-4 11-4 12-3 11-3 13-3 13 2-9-3 13-3 12-3 11-2 12-2 11-2 11-2 10-1 11-3 9"/>
<path d="M11829 5747l 4 6 5 9 4 10 5 12 5 14 7 16 7 19 8 19 9 19 8 20 10 21 9 23 8 23 8 26 8 26 2 8 6 27 6 28 5 29 4 30 2 29 2 29 2 28 0 26 0 27-2 28-2 28-4 29-6 29-7 30-2 6-9 30-11 29-12 29-13 27-3 5-15 27-16 26-17 24-3 4-18 23-19 22-20 23-5 5-22 22-22 20-22 20-23 19-5 3"/>
<path d="M3326 5858l 5-7 6-7 4-6 7-6 8-5 6-3 8-4 9-1 7 1 8 3 5 5 5 8 3 11 3 8 2 13 2 14 0 16-1 17-1 20-3 20-3 20-4 19-5 20-5 23-7 25-7 29-2 8-9 30-11 32-12 31-15 32-16 33-16 35-17 36-17 36-17 35-16 35-16 33-15 32-14 28-11 25-8 20-4 17 1-6-1 12 0 8-2-8 2 4-8-3 5-1-26 9 8-6-7 6 12-10 14-16 18-19 21-22 22-25 23-26-4 5 23-28 22-28 22-28 21-27 19-26 20-25 19-23 3-3 18-22 19-20 17-17 4-3 16-15 15-13 14-11 12-9 10-7 8-5 9-4 8-3 9-1 7-1 6 2 8 3 4 3 1 5 3 9 0 7-2 10-2 9-4 12-5 14-6 15-8 17-8 18-8 19-9 21-10 21-9 22-9 22-8 23-7 22-7 20-5 20 2-9-3 18-3 17-2 16-1 15 1 14 1 13 3 11-3-9 5 10 5 8 7 6 2 9-2 9"/>
<path d="M3731 6480l-3 7-4 7 4-8-4 9-5 10-4 10-3 11 2-9-3 11-1 10 0 10 1 9 2 9-2-8 3 8 4 8 5 7 5 7 6 5 7 5 8 3-8-3 8 2 9 2 10 0 10-1-9 1 10-2-8 3 11-4 9-6-7 5 9-7 9-7-7 6 8-8-6 6 7-9-5 8 5-10 5-9-4 8 3-8 2-9-1 9 0-9-1-9-3-9 4 8-5-9-6-9-7-9-10-8-11-8-11-7-11-5-12-4-11-3 9 2-12-2-11 0-11 2 9-2-11 3-9 2"/>
<path d="M6483 6539l-3 5-3 5 5-8-2 4 2-9 1 3-10-11 4 2 8-1-9 2 10-3-9 4 13-6 14-8-8 4 17-12 19-15 20-16 21-19-6 6 22-20 23-23 24-23 23-25 24-26 24-27-3 4 23-28 22-29 21-29 19-29-3 4 19-31 18-34 18-37 16-37-2 4 12-34 9-32 6-30 3-29 0 4 1-29 0-28-2-26-3-23-5-20 2 5-7-14-9-10-8-8-8-6-8-4-9-2 9 2-9 1 9-2-10 4 15-9-10 8-11 11 9-10-11 13-13 16 6-8-13 19-13 21-14 25 4-8-13 28-13 27-11 26-10 27-9 29-9 33-10 34-9 34 1-5-7 34-6 34-4 33-3 31-2 30 0 28 0 27 2 25 3 23 5 21-2-5 7 17 8 15 10 14 10 12 10 10 11 8 11 7 12 5-7-3 12 2 14 2 14-1 15-2 8 4 2 8"/>
<path d="M6984 6412l 8-4-4 3-4 3 7-6-5 4-4 5 9-10-5 5-4 5 6-7-4 6-4 6-4 7 5-8-4 7-3 8-2 8 2-9-1 8-1 9 0 9 0 9 0 9 1 9 1 8-2-8 2 7 3 7 4 6 5 5 5 3-8-3 6 1 6 1 7-1-9 1 6-1 7-3-8 3 7-3-8 5 7-5 8-5 7-5 8-6-7 6 6-7-5 7 5-7 5-7-5 7 4-7 4-8-4 9 3-8 1-8-1 9 1-8 0-8-1-9-2-8-2-8-4-8 4 8-5-8-5-7-6-5-5-5-6-3-5-2 8 2-5-1-5 0 9-2-4 1-4 2-9 2"/>
<path d="M2531 7626l-7 6 6-6 6-6 7-6 6-6 7-5-7 6 6-6 5-5 5-5 5-5 7-6 8-5 5-3 9-3 9-1 5 0 8 3 5 3 4 7 2 9 3 9 0 11-1 11-2 12-2 14-4 15-4 18-2 9-6 19-6 21-8 23-9 25-11 26-11 27-13 27-13 27-13 28-13 28-13 29-14 29-13 30-12 29-12 29-10 28-10 28-9 25-9 24-8 23-7 22-7 20-5 19 1-6-4 16-3 15-2 14-2 8-2 13-3 11-1 7 2-8-1 2-53 18 2-4 5-9 6-12 7-15 9-18 10-18 10-21 11-23 11-23 13-23 14-24 14-23 14-23 14-22 4-7 14-22 15-20 14-20 14-19 14-16 4-6 14-15 12-14 12-13 11-13 11-12 7-6 11-9 10-8 8-7 8-5 6-5 8-5 6-3 8-3 4-1 9-1 8 3 3 2 2 5 3 8 1 7-1 8-1 11-2 12-3 14-3 8-4 16-5 16-6 17-6 18-7 18-7 19-8 20-7 19-7 20-7 20-6 19-6 18-6 18-5 18-5 16 3-8-4 16-4 16-2 15-2 14-1 14 0 13 1 12 3 10-3-9 4 9 6 6 7 5 8 4-7-3 9 2 8 3 2 8-2 9"/>
<path d="M2807 8292l-3 4-3 5 5-8-3 5-3 6-3 7-2 6-2 6 2-9-1 7-1 7-1 7 0 7-1 8 0 7 1 7 0 6 1 7 1 7 1 6 1 7 1 7-2-9 1 6 3 8"/>
<path d="M3107 8030l"/>
<path d="M3590 7574l 0 6 0 7-1 8-2 10-2 11-3 11-2 11-3 13-2 15-3 18-4 19-5 22-5 23-5 24-6 24-6 25-2 9-7 25-8 25-8 26-8 26-8 26-9 26-8 26-8 25-8 25-8 23-7 23-6 20-5 19 2-7-4 16-4 15-2 8-4 14-4 13-4 10-3 9-3 6 2-9 0 2-48 11 2-3-5 7 4-7 5-9 6-12 6-12 8-14 8-16 8-16 10-18 10-18 10-18 11-19 11-19 11-19 12-19 5-8 12-18 13-17 13-16 12-16 12-15 12-14 5-7 11-12 10-11 10-10 9-8 8-8 6-6 7-5 7-4 8-5 5-3 9-3 5-1 9-2 4 1 8 3 4 2 3 3 3 5 3 5 2 7 2 8 2 8 1 9 1 10 0 10 0 10-1 12-1 13-1 13-1 14-2 15-2 14-1 15-3 14-2 14-2 14-2 14-2 14-2 15-2 14-2 14-2 13-3 12-2 11-1 10-2 9-1 8-1 7 1 7-3-9 2 5 3 4 4 3-8-3 5 2 5 1 5-1 8 4 3 8-3 9"/>
<path d="M2793 8224l-2-4-2-3 4 8-2-3-2-3-3-1 9 1-4 1 17-6-4 2 7-5-5 5 9-10-5 6 6-8-5 7-5 8-5 8-5 9-5 8-5 9 4-8-4 9-4 10-4 11-3 11-3 11-2 10-3 10 2-9-2 10-2 10-1 10-1 10-1 10 0 9 1 9 2 7 2 8-3-9 2 8 3 6 4 6 5 4 6 3-8-4 7 2 8 1 9-1-9 1 9-2 10-3-9 3 10-5 10-5 12-7-8 5 11-7 11-9 11-9-7 6 10-10 9-11-5 7 8-11 7-11-5 8 7-12 5-11-4 8 4-11 4-10 2-11 1-12-1 9 1-11-1-10-1-11-2-10-2-10-3-10-4-9-4-8 4 8-4-7-5-6-5-6-5-5-6-4-6-3-5-2-4-1-5-1 9 2-4-1-5 0-3 1 8-2-4 1 8-4-3 2-8 4-9 2"/>
<path d="M3991 8247l 1 4-1 5-2 9-1 4-2 5-5 8-3 4-3 6 5-8-3 6-3 8-4 8-4 8-4 9-3 9-4 10-4 11-5 10-5 12-6 12-5 13-4 12-5 13-4 14-4 8"/>
<path d="M4276 7932l-3 3-7 5-8 4"/>
<path d="M4565 7648l 5-4 8-5 5-4 8-3 6-2 7-2 9-1 7-1 8 0 9 0 9 2 10 3 10 3 9 3 10 3 9 2 9 3 9 4 10 4 8 3 10 4 10 5 10 5 9 7 9 7 8 8 8 9 6 9 5 11 3 11 2 8 2 13 0 14-2 16-3 17-2 9-6 17-7 17-9 18-4 8-10 18-12 19-12 20-14 20-15 21-5 7-18 20-19 20-8 9-20 19-22 18-21 18-22 17-20 16-19 16-19 14-6 4-18 12-17 11-17 11-16 11 6-5-14 11-7 5-13 10-12 8-11 7-10 6-8 5 8-5-6 4 9-9-2 2 1-36 3 0-9 2 6-2 7-2 9-1 9-2 10-2 11-1 11-1 12-1 14-1 13 0 13-1 14-1 14 0 15 0 16 1 16 1 16 1 15 1 15 1 14 2 13 2 13 2 12 1 11 1 10 1 10 1 9 1 9 0 8 0 7 0 8 3 2 9-2 9"/>
<path d="M5726 8035l 1-8 3-8 5-8 6-6 6-6 8-4 4-3 8-3 7-2 7-2 9-1 8-1-9 1 8-2 12-2 9-2 13-2 13-2-9 2 13-3 13-3 14-3 13-3 12-2 12-3 13-4"/>
<path d="M5900 7862l 7-5-4 5 8-10-3 6-5 4-4 6 5-8-5 7 5-8-4 10-3 9-3 10 2-8-2 10-2 10-1 11-1 11 0 12-1 12 0 10 0 11 0 13-1 13-1 14-1 15-1 15-1 17-1 17-2 18-2 8-4 8"/>
<path d="M6668 7560l-7 12-9 15-9 15-11 15-12 17-13 19-14 21-15 23-14 24-14 25 4-7-14 25-12 24-12 25-10 24-9 26-8 25-7 25-7 26 2-8-6 26-5 26-4 27-3 27-2 27-1 26 0 25 0 25 2 24 2 23 4 22 4 21 5 19 6 18-2-8 7 17 7 15 8 14 8 13 9 12 10 10 11 9 12 7 13 5-8-3 14 4 7 4 3 8"/>
<path d="M6936 7628l 3-15 4-15 5-16 6-16 5-15 6-13 3-9 6-12 5-12 6-12 6-10 5-9 5-7 5-7 6-6 7-5 7-5 9-3 6-2 9-2 8 3 7 3 6 8 4 9 2 9 2 11 0 13-1 14-2 17-3 19-5 20-5 22-2 9-6 21-6 21-6 21-7 22-7 25-9 26-10 28-14 31-18 34-19 36-3 5-17 32-15 26-13 23-12 23-13 23-13 22-13 21-12 20-10 19-9 16 3-6-6 14-5 11-4 7-4 8-5 7-4 6-9 9-7 5-2 2-8 4-9 2-9-2-4-8 1-4 0-9 3-7 3-9 5-9 6-12 5-7 9-13 11-17 15-20 18-21 5-6 18-20 17-18 16-17 15-15 15-15 14-15 13-15 11-15-5 7 10-14 10-12 6-7 10-11 8-9 8-8 7-6 8-6 7-4 8-5 8-3 6-1 9-2 8 3 3 5 3 8 1 10-1 12-2 13-4 13-2 9-4 14-4 15-5 15-4 15-4 13-4 13-5 14-4 14-4 15 2-9-3 14-2 15-3 14-2 13-1 13 0 13"/>
<path d="M7173 8094l-4 8-3 5 5-8-3 6-3 7-2 6 2-9-1 7-1 7-1 6 0 6 2 6-3-9 3 6 3 6 4 4 4 4 5 2-8-3 6 2 7 1 8 1 8-1-9 2 9-3 9-3 8-3-8 3 8-4-7 5 8-5 9-7-7 6 8-8-6 7 7-9 6-9-5 8 5-9 4-8-3 8 2-8 2-8-1 8 0-8-1-7-2-7-2-7 4 8-4-8-5-7-6-6-6-7-6-6-8-8-9-8-9-7-9-5-7-4-7-3-6-1 9 1-6-1-6 0"/>
<path d="M7511 8077l 9-9-3 4-3 4 5-8-2 4 4-8-2 5 2-9 0 4-3-8 2 3 3 3-8-3 6 1 7 0 7-1-9 1 9-2-9 3 10-4 9-5-8 4 11-6 12-8 15-11 16-14 17-15-7 6 17-16 16-16 16-17 17-19 18-19 17-19 18-21 18-20-5 6 18-21 19-23 18-23 18-24 17-24-4 5 15-24 12-25 11-24-2 6 9-23 7-23 6-23 3-22 2-22-1 7 1-21-1-20-3-18-3-15-4-13-4-11-4-8 4 8-5-6-5-3 9 2-6-1 8-2-6 2 8-4-8 4 7-5-8 7 9-9-9 10-9 12 5-7-9 14-10 16-11 17-11 18-12 20-12 21-13 23-13 23 4-7-12 24-11 25-11 27-11 27-11 28-10 28-10 29-7 28 1-6-6 28-6 26-4 25-2 21-1 19 1 17 2 17 3 16 3 16 3 16 4 14-3-8 5 14 6 12 7 11 8 10 10 8 10 7 12 5-8-3 13 4 13 3 13 1 14 1 13 0 13-1"/>
<path d="M8011 8074l-1 4-1 5-2 4-1 6-2 6 2-9-1 7-1 7-2 7-1 7-2 8-1 8-2 9-2 8-1 8-2 9-2 9-2 10-1 9 0 9-1 8 0 7 0 7"/>
<path d="M8366 7835l-8-3 7 0-9 1 6-2 6-2 9-2 9-1 12-2 13-2 15-2 14-2 15-1 16-2 16-2 16-1 17-3-9 2 18-4 17-5 16-3 15-4"/>
<path d="M8553 7697l-6 2-7 4 8-4-6 4 7-5-7 6 9-9-7 8 6-7-7 10-6 10-7 11-6 11 4-8-5 13-4 14 3-9-4 14-3 15-3 16-2 16-2 18-2 17-1 16 0 16 1 15 1 14-2 9"/>
<path d="M8804 8125l-2-4-1-4 1-9 1-4 4-8"/>
<path d="M8806 8091l-9 1 7-1 7-3-9 3 8-4 10-5-8 4 11-7 13-9 14-10 17-12 19-15 23-19 24-19 24-21-5 4 24-22 24-22 24-23 24-24 24-24 24-25 24-25 22-26-2 3 21-27 21-27 20-27 19-26 16-26-3 4 15-25 11-24 10-23-2 5 9-22 7-23 7-22 5-21 4-19 4-18 2-15 1-13 2-12 2-11 2-10 1-6 3 17-1-3 33-9-5 3 9-9-6 8 5-8-6 11 4-8-7 14-7 17-7 20-9 21-9 23-11 23-13 23-4 8-14 24-15 26-17 26-18 27-19 28-20 29-20 29-20 29-19 30-18 29-17 29-15 27-13 24 2-4-8 20-7 19-5 18 2-7-5 17-3 17-3 15-2 14-1 11 0 10 1 7-2-8 2 4 4 3-8-3 5 0-9 1 7-2-16 8 9-6 11-8 13-12-7 6 15-13 15-15 15-15 15-14 13-14 13-12 7-6 13-11 13-11 12-9 13-8 12-7 11-7 10-7 10-7 9-5 7-5 9-4 7-3 9-3 7-3 9-1 7-1 5 1 8 3 5 4 3 6 2 7 3 8 1 8 0 10 0 10-2 10-2 11-3 10-2 9-3 10-3 10-3 11-3 12 2-9-3 12-2 13-2 12-1 12 0 11 1 10 2 9-2-8 4 7 5 7 5 6 2 8-2 9"/>
<path d="M9471 8014l-2 5-2 6-3 6-2 7-2 6-3 8 3-9-2 8-1 7-2 9-3 8-2 8-2 8-3 9-2 8-3 10 3-9-3 9-1 9-2 8-1 8-1 7 0 7"/>
<path d="M9653 8091l 2-3 6-7 3-4 4-5 6-6 8-7 8-9 11-13 14-15 17-17 18-17 18-18 20-18 7-6 21-17 22-18-6 5 21-20 21-22-4 5 19-23 19-24 17-24-3 5 15-25 13-26 12-26-2 5 10-25 10-26 8-25 7-25 6-25 5-25 4-23 2-22-1 6 1-19-1-18-2-16-2-13-4-10-4-6 4 7-4-5-5-4-5-2 9 2-6 0 9-1-7 3 16-10-7 6-8 7 9-9-8 10 6-7-9 13-10 15-10 18-12 20-11 20-12 20-12 23 4-8-12 24-11 26-12 29-11 30-12 32-11 33-10 33 1-5-7 31-6 30-5 28-2 26-1 23 1 20 3 17 3 18 4 17 4 17 5 16-3-8 6 15 6 14 7 12 8 11 10 11 11 9 12 9 14 7 14 6 2 8-2 9"/>
<path d="M10071 8059l-4 3-5 4 7-5-4 3-5 5-5 5 9-9-4 5-4 5 5-7-4 5-2 5 4-8-2 5 2-8-1 6 0 7 1 7 1 6-2-8 2 6 3 6 4 7 4 5 5 5 6 3 6 3-7-3 8 3 9 2 9 1 8 1 7 0 7-1 7-1-9 2 8-2-8 3 8-3-8 4 8-5 8-5-7 6 6-6 4-5-6 7 4-6-5 8 4-7 3-7-4 8 3-7 1-6 1-7-1 9 0-7-2-7-2-7-3-8 4 8-3-7-5-7-5-8-5-9-5-7-6-6-6-3-5-3-5-2-5-3-5-2 9 2-6-1-5 1 8-2-6 1"/>
<path d="M10329 7439l 27-37 0 4 1 7-2-8 3 8 5 10 6 13 8 14 9 15 11 15 11 15 12 17 13 17 13 17 14 16 13 17 14 18 13 18 13 20 12 20 11 20 10 21 9 23 8 22 6 23 2 8 5 22 4 22 2 22 0 23-1 21-3 20-3 9-4 17-6 18-8 19-9 21-11 23-4 8-15 26-20 31-4 6-23 31-22 28-21 28-4 4-3 2"/>
<path d="M10779 7782l"/>
<path d="M11030 7570l 5-7 3-5 5-7 4-4 7-6 5-4 8-4 6-3 7-4 9-3 8-3 9-3 9-1 11-2 12 0 13 0 15 1 15 1 16 2 17 2 17 3 17 3 16 2 14 3 14 3 12 4 13 4 8 3 11 4 10 5 8 5 8 6 7 6 6 7 5 7 4 7 3 9 2 8 0 9-2 10-2 9-4 10-4 8-6 10-8 11-5 7-10 13-13 14-9 9-16 15-19 16-23 16-7 5-25 16-28 17-28 17-28 16-27 16-26 16-24 16-23 16-21 15 4-2-18 14-17 14-16 13-14 14-12 12-10 10-9 7-7 6-6 5-6 5-4 3 15-16-2 3 4-26 2 3 5 2-7-3 7 1 9 0 9-1 11-1 13-1 16-2 17-2 18-2 17-2 18-3 18-3 17-3 18-2 17-2 18-1 18-1 18 0 17 0 16 0 15 1 15 1 13 1 12 1 10 1 8 1 7 2 7 2 8 3 2 9-2 8"/>
<path d="M12482 7775l 5-7 1-3 6-7 7-6 3-2 8-5 8-3 5-2 9-1 7 0 8 0 8 0 7-1 8-1 7 1 10 1 11 0 11-1 12-1 13-1 12-1 13-2-9 1 14-2 9-2 16-2 16-3-9 1 18-3 18-4"/>
<path d="M12779 7619l 8-4-6 5 7-5-6 6 9-10-4 6 5-7-4 7 4-8-4 8-4 10-3 11-3 11-4 12-3 13 2-9-3 14-2 13-2 14-2 14-2 13-1 14-2 15-1 16 0 17 1 14 2 13"/>
<path d="M13041 7944l 7-1-9 1 7-2 8-3 10-4-8 3 13-5 15-7 18-8 21-10 23-11 25-13 27-13 27-16-7 4 27-17 27-19 25-21-4 4 24-22 23-23 22-24 21-25-3 3 20-24 19-25 19-24 18-25 17-27-2 4 16-29 14-30-2 4 13-30 11-31 11-32 10-31 8-29 7-27 4-25 3-21 0 5 1-18-2-15-4-12 3 7-5-7-5-6-6-3-6-3 9 2-8-1-10 2 9-2-11 4 8-4-13 7-16 10-17 12 7-5-19 14-20 17-21 20-21 22 8-8-22 25-23 28 4-4-22 32-19 33 2-4-18 36-16 36-16 37-14 38-13 38-11 39 2-4-9 38-6 36-4 34-2 30 0 27 4 25 6 22-1-5 8 19 10 16 10 15 10 13 11 13 11 10 11 9 11 8 10 6 11 4-8-3 11 3 11 1 10-1-9 1 11-2 11-3 11-4"/>
<path d="M13504 7931l 4 5 2 8 2 5 0 7-2 7-2 8-3 8-3 7-3 8-3 9-3 9-2 10 2-9-2 10-2 9-2 9-1 9 0 8 1 8-2-8 2 8 4 7 5 6 6 4-8-4 7 3 9 2 10 2 12 1 12-1-9 1 14-2 14-4 15-5 15-6-8 3 13-6 12-7-7 4 11-8 11-9-7 6 9-10-6 7 8-10 6-9-5 8 5-9 4-10-4 8 3-10 2-9-1 8 1-8-2-8-2-8 4 8-4-7-4-6-6-6-7-4-8-5-8-4-8-4-8-3-9-2-9-1 9 1-9-1-9 0-8 2 8-2-8 2-8 2-7 3-9 2"/>
<path d="M13819 7938l 6 3 6 3-8-3 6 1 7 1 8 0 10-2-9 2 11-4 13-5-9 4 14-7-8 4 14-9 15-10 16-14-7 6 16-15 17-18-6 7 17-21 18-21 5-7 20-21 20-23 21-23 22-24 22-25-3 4 21-26 20-25 19-25 17-26-3 4 15-27 13-27-2 4 10-26 8-27 6-25 3-26-1 6 1-25 0-23-1-23-2-21-5-18-7-15 3 7-8-12-8-10-8-8-10-6-10-4 8 1-12-1-13 2 9-2-14 5 8-4-14 8 8-5-15 11-16 14 9-9-16 17-15 20 5-7-15 22-15 24-14 26 3-7-13 28-12 29-12 30-11 31-9 32 2-5-7 32-6 33-5 33-4 33-3 32-1 32 0 31 1 28 2 27 4 24 5 21-1-6 6 18 7 17 8 15 9 14 9 11 10 10 10 9 11 6-8-3 11 4 13 1 13 0 14-2-9 1"/>
<path d="M14345 7984l-2 4 4-8-1 7-2 7-3 8 3-8-2 9-2 11-1 12 0 12-1 14-1 14 0 16 0 16-2 9-4 8"/>
<path d="M10584 6351l 5-12 1-3 2-2 4-8 2-2 6-7 7-6 4-3 4-3 7-4 5-3 4-1 8-4 5-1 6-1 9-2 6-1 6-1 6 0 9-1 8-1 8-1 8-1 7-1 8-1 9-1 10-2-10 2 10-2 8-2 8-2 6-1 5-2 5-1 5-1 4-2-8 4 3-2-14 10 2-2 7-6 8-5"/>
<path d="M10680 6132l 1 6 2 8 0 10 1 10 1 10 1 11 1 11 2 14 2 17 3 18 1 16 2 14 2 15 1 14 2 14 1 14 2 15 2 14 1 14 2 15 1 16 2 16 1 14 1 12 0 12 1 11 1 11"/>
<path d="M5044 5839l 8-1 8 0 6-1 6 0 7 0 8 1 8 1 11 1 12 1 13 0 13 1 13 0 12 0 12 0 11 1 10 1 10 2 9 2 8 3 7 3 6 3 4 3 2 8 1 6-1 7-2 9-4 8-4 8-4 7-5 7-5 8-6 7-5 7-9 10-7 6-7 6-7 6-7 7-6 6-6 5-5 4-8 6-4 3 7-5-4 3 14-16-2 3 5-25 1 3 3 4 5 4 5 3 5 3 6 2 5 3-7-4 6 3 6 2 8 3 7 3 6 3 5 2 6 3 6 3 5 3 5 4 2 4 2 8 1 5-1 5-2 8-2 6-3 6-4 8-5 8-5 7-7 9-8 9-9 10-9 9-9 9-8 9-8 8-8 8-7 7-8 6-7 5-7 5-6 3-8 4-6 2-9 2-9-2-4-7"/>
<path d="M5379 5824l 5-2 5-2 5-1 4-1 5-2 5-1 5-1 9-2 5 0 5 0 6 0 5 0 6 0 5 0 5 1 5 2 8 3 5 3 4 4 2 5 3 9 0 5 0 6-2 9-2 6-3 8-5 8-4 8-6 8-5 7-7 8-7 8-7 8-8 9-9 9-9 9-9 9 9-9-9 10-9 11 6-8-8 11-7 10-4 9 4-8-4 8-2 7 2-9-1 6-2-8 1 4 4 4 6 3-7-3 6 1 8 1 8 0 10 0 10-1 12-1 15-1 16-2 17-1 17-1 19-1 19-1 21-1 20-1 8 3"/>
<path d="M5059 7418l 7-5-4 4-5 5 9-9-6 7-6 8 6-8-6 10 4-8-5 11-6 12-5 15-5 17-6 20 2-9-5 24-4 27-4 25-2 24 0 23 1 21 2 18 3 17 4 17-2-9 5 16 5 14 7 14 8 13 8 11 9 9 9 7 10 7 11 5-7-3 11 3 12 2 13-1 12-1-9 1 14-3 13-5-9 3 13-6-8 4 12-7 12-8 10-8 9-8-7 6 8-8-6 7 6-8-5 7 4-9-3 9 3-9 1-9-1 9-1-9-3-8 4 8-5-7-8-7-9-5-11-4-11-2 9 1-12 0-12 2 8-2-12 4-12 4-12 6 8-4-12 6-11 7-11 6-10 6-9 7 7-5-8 6-6 6 9-10-5 6-4 5"/>
<path d="M5385 7414l-3 4-4 6 6-8-4 6-5 7-4 7-4 7-4 8 4-8-4 8-4 10-4 11-3 11-4 11-3 11-4 11-3 12 2-9-3 13-2 13-3 11-2 11-1 10 1 10 2 10-3-9 3 9 4 7 5 5 6 4-8-3 10 3 11 1 12-1-9 1 13-3 13-3 14-5 15-6-8 4 16-7 16-7 17-7 17-8 17-8 18-9 18-9 18-10 8-3"/>
<path d="M5478 7441l 4-8-2 6-3 8-3 9-3 10 2-9-3 12-2 14-2 15-1 16-1 16 0 16 0 16 1 17 1 19 3 20 4 20 5 21 6 20-2 9"/>
<path d="M11544 7406l 8-3 7-3 8-2 9-3 9-2 9-3 10-3 11-3 12-2 9-2 13-2 12-1 11-2 10-1 10-2 9-1 8 0 7-1 6 1 4 2 8 3 3 3 2 8 1 5-1 6-3 9-2 6-4 8-4 7-4 6-5 8-6 6-5 6-6 7-6 6-5 6-9 10-6 6-5 5 9-9-5 5-4 6-4 5 5-8-3 5 7-17-1 4-3-9 2 4 2 3 3 4 4 3 5 3 4 3 6 4 4 3 4 4 4 5 3 5 3 6 2 6 2 9 1 6 0 7 0 7-2 7-2 8-2 6-5 8-3 6-4 6-4 6-5 6-5 7-5 7-6 6-9 9-6 7-8 7-6 5-6 5-7 5-5 2-8 4-4 2-9 2-5 0-5 0-9-1-5-1-4-2-4-3-3-4-4-8 1-9"/>
<path d="M11840 7357l 7-1 7-1 7 0 7 1 6 1 6 1 6 0 8 1 9 1 9 2 8 2 8 1 8 2 7 1 6 1 5 2 8 3 4 2 4 2 3 3 2 3 2 5 3 8 0 5-1 6-3 9-1 5-3 6-2 6-5 8-3 6-4 6-4 6-5 7-5 8-5 7-6 8-6 8-7 8-6 8 6-8-6 8-4 8-5 7 5-8-4 8-2 8 2-9-1 6 0 6-2-8 2 4 6 4 8 4-8-3 9 3 11 2 11 0 11-1 11-1 11-2-9 2 12-3 12-3 13-4 14-4 14-4 14-4 15-6 15-5"/>
<path d="M2679 10041l-3 8 1-9-1 9 0-9 0-9 0-10 0-9 0-8 0-7-1-6 4 8-2-4 9 1-3 0 16-5-5 2 8-5-6 5 15-16-6 8-6 11 4-8-6 15-8 17-8 19-9 23-11 26-13 26-4 8-13 26-14 27 3-6-14 29-14 31-13 33-12 36-12 36-10 36 1-4-9 36-7 35-6 34-5 34-4 33-2 31-1 31 1 28 2 27 4 26 5 23 6 23 7 21-2-6 8 19 10 17 10 15 11 15 10 13 11 12 10 10 11 10 11 9 10 8 11 7 10 6 10 4 10 4-8-3 10 3 9 1 10 1 8 3"/>
<path d="M2838 10253l-3-3-3-3-2-3-3-8-2-4 0-3 0-4 1-9 3-8 2-3 5-8 6-7 7-6 3-2 8-5 8-3 5-2 6-1 9-2 7-1 6-1 7-1 8 0 7 0 7 1 7 0 7 0 7 1 7 1 7 2 8 2 7 3 7 3 7 2 5 4 5 3 4 4 4 5 3 4 2 9 2 5 0 7-1 7-2 7-2 9-3 7-4 8-4 7-5 8-5 7-6 8-6 9-7 8-6 9-8 8-7 9-7 9-9 9-8 8-7 8-7 7-7 6-6 7-5 5 9-9-4 5 12-25-1 4-2-9 3 2-8-3 7 0 8 0 9-1 10-1 10-1 11 0 11-1 11-1 11-1 11 0 10 0 10 1 11 1 10 1 10 2 9 2 7 3 8 3 7 4 5 5 5 6 4 7 3 8 3 8 2 9 0 9 0 9-2 11-3 11-2 9-4 12-4 13-5 12-7 13-4 8-7 13-8 12-7 12-8 12-6 7-8 11-8 10-8 9-9 10-9 8-9 7-7 6-10 6-9 6-8 4-9 4-9 1-8 2-6 0-9-2-5-2-5-3-4-8"/>
<path d="M3203 10193l 10 1 10 2 11 1 12 2 13 2 13 1 12 0 13 1 12 1 12 1 12 1 12 1 11 1 11 2 11 2 9 3 8 4 9 3 7 4 7 5 5 6 5 7 3 8 3 8 1 8 1 8-1 8-1 10-2 9-3 10-4 12-6 12-4 8-7 13-7 13-8 13-8 14-9 14-10 14-9 15-10 14-6 7-10 14-11 14-10 12-10 13-9 11 5-7-8 11-7 11-5 9 4-8-4 9-4 8-3 7-3 7 3-9-1 6 0 4-2-8 2 4 5 4 6 2-8-3 8 2 9 1 10 0 11 0 12-1 12-2-9 2 13-3 14-3 14-5 15-4 16-5 17-6 9-1"/>
<path d="M3754 10227l 4 8-4-7-4-5-4-6-4-6-5-8-7-8-7-8-8-7-7-5-7-3-8-3-8-2-8-2 9 2-9-1-9 1-10 2 9-2-11 3-11 4 8-3-11 6-12 8-13 8-12 9 7-5-12 9-12 9-10 10 9-9-10 10-8 10 6-7-7 9-4 8 4-8-3 8 3-9-1 7 2 5-3-8 4 5 6 3-8-3 8 2 9 2 11 0 13-2-9 2 13-3 14-3 14-4 13-4 13-5-9 4 12-6 12-5 8-3 11-4 10-3 9-2 9-2 8-1 7 1 6 1 8 3 4 3 4 4 4 4 2 6 2 9 2 6 1 8 0 9-1 10-2 11-1 12-3 13-2 13-3 15-3 14-4 14-3 14-4 15-3 15-2 15-2 14-1 14 0 12 1 10 2 10"/>
<path d="M4061 10072l-3 6 5-8-3 6-4 8-4 7 4-8-3 8-4 10-3 10-4 12-3 12-4 14-4 15-4 17-5 16-4 16-4 15-4 14 2-9-3 15-2 14 1 14 1 14 3 13 3 11-2-8 4 10 5 10 7 8 8 7 9 5 11 5-8-4 12 4 13 2 14 2 14 0 15 0 16-2 15-2-9 2 15-3 16-4 17-5 18-6"/>
<path d="M4212 10201l-4 3-5 3 8-5-5 5-5 5 9-9-5 6 5-8-4 8-5 8 4-8-4 10-3 11 3-9-3 12-1 12-1 14 0 14 1 16 1 17 2 17 0 19 1 18 1 19 1 20 2 21 1 20 1 21 1 22-2 8"/>
<path d="M4629 10056l 0-9 1-9 1-10 2-10 1-11-1 9 0-10 0-10 0-8-1-7-2-7-2-6 4 8-3-4-4-5-5-5-5-4-7-3-7-2-7-1 9 1-8-1-8 0-9 1-10 1 9-2-10 3-11 3-10 4-11 4 8-4-11 6-11 8 7-5-11 10 9-9-11 12-10 13 6-7-10 14-9 14-8 14-7 14 4-8-6 12-4 12 2-9-2 11-1 9 2 9-2-9 3 7 6 6 7 4-8-4 9 3 12 1 13-1-9 1 15-2 17-5 17-5 17-7 18-7-8 4 18-8 19-9 17-8 12-5 9-5 8-3 8-3 7-3 5-1 9-1 8 3 4 2 2 8 1 5-1 8-1 9-2 11-3 12-3 13-3 9-3 15-4 16-5 16-4 16-4 16-5 16-4 16-4 15 2-9-3 14-3 15-2 14-1 15-1 14 2 13 3 12-2-8"/>
<path d="M5132 9921l 7-5-6 6-8 8 9-10-9 10-10 12-10 13 5-7-11 16-11 17-11 20 4-8-10 22-10 22-8 24-8 25-8 26 2-9-7 27-5 28-5 26-3 25-1 24 0 22 1 20 4 19 6 17-2-8 7 15 8 14 11 11 12 10 13 8-7-3 15 6 16 3 18 1 17 0 19-2-9 2 18-4 19-6-9 3 18-7 15-8-8 4 14-9 10-10-7 6 9-10-6 7 6-10-8 16 4-10 2-10-1 9 0-9-2-9 4 8-6-8-8-7-10-6-11-5-12-4-13-3 9 2-14-2-14-1-14 1-14 2-15 3 9-2-14 4-14 4-13 5 8-4-12 7-12 7-11 7 8-5-11 8-8 7-8 8-7 6 9-9-5 6-9 9-7 5"/>
<path d="M5475 9954l 5-1 6-1 7-2-10 2 8-2 9-2 10-2 13-4 14-4 16-3 16-4 17-4 17-5 17-4 16-6 16-4 14-5 15-5 16-5 16-5 14-4 10-2 9-1 8-1 8-1 6 0 6 2 8 3 5 2 4 3 3 3 2 5 2 8 1 7 0 7-1 9-2 10-2 9-4 13-4 14-6 15-5 17-7 18-6 20-8 20-8 21-7 22-7 22-7 23-6 22-7 22-6 22-6 21-6 21 2-9-4 21-4 21-4 20-2 9"/>
<path d="M5949 9984l 3-8 2-4 2-3 5-8 2-3 6-7 3-3 7-6 3-3 4-2 7-5 4-2 5-2 4-2 5-3 5-2 5-3 4-2 4-3 5-2 8-3 5-2 4-1 5-2 4-1 9-1 5-1 6 0 6 1 6-1 7 0 7 0 8 0 8 1 8 1 8 2 9 2 9 2 10 2 10 3 10 3 11 4 11 4 8 3 12 5 11 5 11 6 9 7 9 7 8 8 6 9 6 10 5 11 4 11 2 9 2 12 1 13 0 14-2 14-3 9-4 16-6 16-8 16-4 8-10 16-5 7-12 16-13 14-8 10-14 14-15 14-16 14-16 13-18 14-18 13-7 5-18 13-17 11-18 12-17 11-18 12-20 12-17 11-14 8-12 8-11 6-10 5-9 5-8 4-5 3 7-5-2 1 11-45 4 0 8-1-9 1 10-1 10-2 11-3 12-2 9-1 14-3 14-2 16-2 18-1 19-1 21-1 23-1 24 0 26 0 27 0 7 3 3 9-2 8-5 8"/>
<path d="M6641 9993l-8-4-9-4-10-3-11-3-13-2 9 1-13-2-14-1-14 0-13 1-14 2-13 3 8-2-13 3-13 5 8-4-12 6-12 8-11 8 7-6-11 9-11 9-10 11 9-9-9 11 6-8-8 12-7 11 5-8-5 12 2-9-3 13-1 14 1 13 3 12-2-9 6 12 9 11 11 12 14 12 15 12 18 12 19 11 21 11 22 10 22 9 20 10 20 9 17 9 16 9 15 9 13 10 12 10 10 11 8 12 7 13 5 13 3 9 3 13 2 14 0 13-1 14-3 14-3 9-5 13-6 14-4 8-8 12-6 8-9 12-10 11-9 10-12 10-7 5-14 10-8 3-16 8-17 6-17 4-9 2-17 2-17 0-17-2-9-2-16-5-16-7-14-8-14-10-12-12-10-13-8-16-4-8-6-17-4-18-1-20 2-19 1-9 4-21 7-20 3-8 9-20 11-20 5-8 14-20 17-21 5-6 20-22 23-23 24-24 5-4"/>
<path d="M7172 9947l-10-2-10-3-12-2 9 2-13-2-15 0-16 0-17 2-17 1-17 2-16 4 8-2-16 4-15 6-15 7-15 6-13 7 8-4-13 7-12 9 7-6-10 9-9 8 9-9-6 7 5-7-4 8 4-8-3 7 2-9 0 7-3-9 2 6 6 5 8 3-8-3 11 1 13-1-9 2 16-3 18-6 21-7 21-8 23-9 23-9 23-8 22-9-8 4 21-9 19-8 18-7 8-4 16-6 15-6 12-5 11-3 9-1 9-1 7-1 5 1 8 3 4 3 1 4 3 9 0 5-1 8-2 10-3 9-3 12-4 13-5 17-6 18-5 21-6 22-6 23 2-9-6 24-5 23-5 24-6 23-5 24-5 23-5 23-4 25-4 26-3 27-5 29-4 29-6 31"/>
<path d="M7658 10199l-17 5 5-3 9-4 6-2 7-2 9-3 9-2 11-4 11-2 13-3 9-1 15-3 15-2 15-3 15-2 16-1 18-1 19-1 18-2 8 3"/>
<path d="M8320 9853l-2 10-2 12-3 13-4 14-2 9-4 15 2-9-4 18-4 19-3 22-3 22-3 24-2 25-2 27-2 26-2 26-1 26-1 25 0 24 0 25 0 24 0 24 0 25 0 25-1 25-1 24 0 22-1 21 0 19 0 17 0 15 0 15-1 14-1 12-1 10-1 8 0 7-3 9"/>
<path d="M8669 10144l-5 1-9-2-4-1-4-8 1-9 3-8 5-7 2-3 6-7 7-6 4-3 8-4 6-4 8-3 9-3"/>
<path d="M9023 9890l 3-4 5-7 4-4 6-6 5-4 6-5 8-4 6-4 9-3 6-2 9-2 6-1 7 0 8 1 9 2 10 3 10 3 8 4 11 4 12 5 13 5 13 6 14 6 13 6 13 8 13 7 10 8 10 9 8 9 7 11 5 11 2 9 4 13 1 14 0 16-3 18-2 8-5 19-9 20-4 9-12 21-14 22-16 23-5 7-19 22-19 22-21 21-7 8-21 20-22 21-22 20-22 19-21 19-20 17-20 16-5 3-19 14-20 13-18 12-18 11-17 10-15 10-13 9-12 7-9 7-8 4-5 4 21-22-2 3 5-26 2 2-8-3 7 2 9 0 11 0 13 1 14 0 16-1 16-2 17-2 18-2 18-3-9 2 19-4 20-4 21-5 22-5 22-5 24-5 24-6 25-4 24-5 24-5 23-5 8-1 7 2 3 8-3 8"/>
<path d="M9482 9817l 3-8 3-4 4-8 3-4 3-4 4-5 4-6 6-6 5-5 7-6 5-4 5-4 8-4 6-4 5-3 6-3 9-3 6-2 6-2 7-2 9-1 6-1 6 0 5 1 5 1 7 3 4 2 3 4 2 8 1 5-1 6-2 9-1 6-4 7-4 8-4 6-6 7-5 7-6 8-7 8-7 8-6 7-6 7-6 7-6 5-4 6-4 5 5-7-3 5 4-8-2 5 2-9 0 5-2-9 1 4 4 3 5 2-8-3 6 2 7 1 9 1 9 1 9 1 9 1 9 1 9 1 8 0 8 1 7 0 6 2 8 3 6 3 5 4 4 4 3 4 1 5 3 8 0 5 0 5-3 9-1 5-3 5-4 8-3 5-5 7-4 6-5 6-6 6-9 10-6 6-8 7-7 5-9 6-9 6-10 5-8 4-10 4-10 4-9 3-8 2-9 2-8 1-8-1-9-1-7-2-4-8"/>
<path d="M9780 9715l 5-1 5-1 6 0 6 0 6 0 6 1 8 0 8 1 9 1 10 1 10 1 10 1 10 2 9 2 9 2 8 3 8 3 6 3 6 5 4 5 2 5 3 8 1 5-1 5-2 9-2 5-4 9-4 6-6 8-6 8-7 8-9 9-9 9-11 8-11 9-12 9-7 5-12 8-12 8-11 6-12 7-10 6-9 7 7-6-8 6-7 6-5 6 9-10-4 5 10-15-3 5 3-9-1 5-2-9 1 5 4 3 6 4-8-4 8 3 8 1 10 1 11 0 12 1 13 1 15 1 15 0 15-1 16-1 15-2 15-1 15-2 15-2 14-2 7 3 3 8"/>
<path d="M10054 9601l 10 6 10 6 9 6 8 6 9 7 9 9 11 10 11 12 13 13 13 15 15 16 16 17 16 19 15 20 15 21 15 21 15 20 13 21 12 21 11 22 9 23 7 24 3 7 5 26 4 26 2 28 1 29-1 31-3 31-4 31-6 31-7 31-1 6-9 32-10 32-11 33-12 31-13 31-13 31-13 29-2 4-15 27-15 26-15 25-15 24-15 23-3 4-16 22-17 21-17 20-18 19-5 5-17 19-16 18-17 16"/>
<path d="M10990 9570l-5 4-6 5-7 7-9 7-7 5-11 8-12 8-15 11 8-6-16 13-16 14-17 17 9-9-18 19-17 22-19 23-18 24 4-6-19 27-18 28-18 28-16 29-15 29 2-5-15 30-13 31-12 31-11 32-9 33 1-5-8 34-7 34-7 34-5 32-5 32-5 32-4 31-3 31-2 30-1 28 0 28 1 26 2 24 3 23 5 20 5 19 6 19 4 18 5 16 4 16 4 15 3 14 3 14 3 13 3 13-2-9 4 12 4 10 4 9 5 8"/>
<path d="M11176 9907l-2 8-1 5-5 8-2 5-3 6-4 6-4 7 4-8-4 9-3 10-4 13-4 13-4 16-5 16-5 19-6 20-6 21-6 21-7 21-7 20-7 22-7 21-7 21-5 20-5 19 2-9-4 17-4 15-3 17-3 20-1 18-2 9"/>
<path d="M11408 10031l-6 3 8-4-6 4 7-5-7 6-6 7 9-10-7 8-6 9 5-7-6 9-6 11 4-8-6 12-5 14-5 14-4 15 2-9-3 15-3 14-1 15 0 14 1 13 2 12-2-9 3 11 5 10 5 8 8 8 10 7 10 5-8-3 12 4 13 3 14 3 15 1 16 1 16-1 17-2 18-3-9 1 18-4 17-5-9 3 16-7 16-9-8 5 13-11 13-10-7 6 12-12-6 7 10-13 9-13-5 7 8-14 7-13 6-14-3 8 4-14 3-14 2-15-1 9 0-15-1-15-3-15-3-13-5-13 4 8-6-12-7-11-8-10-8-9-10-7-10-6-10-5-10-4-10-2-11-2 9 1-10-1-10 0-9 0-9 1-9-1"/>
<path d="M11922 10033l 8-2-4 2-6 2 8-4-6 3-6 4 7-5-7 5-6 6 9-9-5 7 5-7-5 8 4-8-5 9-3 11-4 13-3 12 2-8-2 12-2 13 0 13 1 12 1 13 3 11-2-8 4 10 5 10 5 9 7 9 8 8 8 6 9 5-7-4 9 4 11 2 11 2 11 0 12-2-9 2 12-4 13-4 13-5-9 3 14-5 13-6 12-7-7 5 11-8 11-8 10-8-7 6 9-9 9-10-6 7 7-10-5 7 6-10-4 8 4-11 3-12 2-12-1 9 0-12-2-13-3-12-4-13-5-12 4 8-6-12-8-12-10-11-9-10-11-8-10-8-11-7-12-6-11-4-11-4-11-3 9 2-11-2-10-1-10 0-9 2 9-2-9 2-8 4 9-4-8 3-8 4"/>
<path d="M12424 10029l-7-1 9 2-7 0-6 1-8 2 8-2-9 2-9 3-10 5 8-4-9 5-10 6 8-5-9 7-8 7-7 8 9-10-6 8 6-7-5 9 4-8-3 9 2-9-1 10-1 11 0 11 2 12 3 12-3-8 4 11 5 12 7 11 8 11 8 10 10 8 11 8 12 6 13 6-8-3 14 4 15 4 16 2 17 2 18 0 17-1 18-3-9 2 17-4 16-5-8 3 14-7 13-7-7 5 11-9-6 6 10-10-6 7 9-12 8-12-5 8 7-13 6-12-4 8 4-12 3-12-1 9 1-12-1-13-2-13-4-13-4-14-7-13 4 8-8-14-9-13-11-13-13-11-13-11-15-10-15-8-17-6-16-5-16-5-16-3 9 2-16-2-16 1-16 2 9-2-16 4-14 5"/>
<path d="M2954 11831l-1-4 0-4-1-3 4 8-2-2 9 1-3 0 17-5-4 2 7-5-5 4 9-9-6 6-6 8-7 9-8 11 5-8-9 13-10 15-11 18-12 21-12 24 4-8-13 26-15 29-15 32-15 35-17 36-16 37-14 39-12 39-11 41-11 42 1-5-10 42-9 42-8 41-7 40-6 41-4 39-2 39-1 38 0 37 1 35 3 33 4 30 6 28 6 26 6 24-2-4 7 22 7 21 9 19 9 19 10 16 11 14 11 14 11 13 13 12 15 13 14 12 3 8-3 9"/>
<path d="M3320 12023l 2 6 2 8 2 10 1 12 0 14 0 16-1 18-2 19-1 21-3 21-3 22-4 24-5 25-5 27-7 27-7 29-2 8-7 30-8 29-8 30-9 29-8 28-9 27-8 26-8 24-7 23-6 21-6 20-5 18 1-7-3 15-3 11-2 8-2 9-2 6-1 2-4 8-5 8-9 9-8 5-8 4-8 2-9-1-4-8 1-9 1-4 2-8 5-11 3-8 7-14 8-16 10-17 11-19 5-7 12-20 13-19 13-19 13-20 14-18 12-18 11-17 11-15 9-13 9-12 8-11 7-8 6-7 6-7 7-6 6-5 8-4 5-3 8-3 9-1 5 0 8 3 4 4 3 8 2 8 2 9 1 11 1 12-1 13 0 15-2 15-2 16-3 16-3 15-3 15-3 14-3 14-2 13-3 12-2 12-2 12-1 10 1 8 1 7 1 6-2 9-4 8-6 7-9 10-7 5"/>
<path d="M3545 12633l-1 6-2 7 2-9-1 8-2 9-1 10 0 9-1 10 0 8 1 8 2 8-3-8 4 6 4 5 5 4 6 4-8-4 7 3 8 1 8 2 9 0 10-2-9 2 9-4-8 3 10-4 9-6-8 4 9-6 9-7-7 6 8-8-6 7 7-9 6-10-5 8 5-9 4-10-3 9 3-9 2-9 2-9-1 9 0-8-1-7-1-8-3-7 4 8-5-6-7-6-8-5-8-5-9-6-10-5-11-4-12-4-11-3-11-3-11-3-9-2 9 2-8-1-8-1-6 1-5 0"/>
<path d="M3810 12439l-4 0-3 0"/>
<path d="M4134 12122l 7-6 5-4 8-5 8-4 9-3 10-3 10-2 9-1 10-2 12 0 13-1 15 0 15 1 16 0 17 0 16 0 16 1 15 0 15 2 14 2 14 3 13 4 8 3 12 5 11 6 10 6 8 7 7 8 5 9 3 9 2 9 2 10 0 11-2 12-3 8-4 13-6 14-4 8-8 14-9 16-11 16-12 17-13 19-13 18-6 7-14 19-16 17-9 10-17 17-17 18-19 18-18 17-18 15-17 14-15 13-13 13-11 12 9-9-9 11 5-7-6 10-5 9 4-8-3 8 2-9-1 7 0 6-3-8 2 6 4 4 7 4-8-3 9 4 11 2 13 2 14 0 16 0 17-1 17-2 17-2-9 1 19-3 19-5 19-5 20-7 22-6 21-7 22-6 9-2"/>
<path d="M4622 11927l 0-4 4-8 1-3 5-8 6-7 2-3 7-6 8-5 4-2 9-3 5-2 6-2 6-2 7-2 9-1 7-1 8 0 8 1 7 0 7 0 5 2 8 3 4 3 4 4 2 5 2 8 1 6-1 7-2 9-2 6-5 8-3 7-4 6-5 7-5 7-4 6-5 7-5 7-4 7-4 5-3 5 4-8-2 5 2-9-1 5 1 5-2-9 2 5 4 3 5 4-8-4 7 3 7 2 8 1 8 1 8 1 8 0 7 1 8 1 7 2 6 2 8 3 6 3 5 4 3 4 2 5 2 8 1 5-2 6-2 9-2 6-5 8-3 7-4 6-5 7-5 6-5 6-5 6-5 5-9 9-5 5-8 5-5 4-8 4-7 3-6 2-6 2-8 2-6 1-4 0-9-2-5-1"/>
<path d="M4903 11882l-9 2 5-2 5-1 9-2 6-1 6 0 6 0 6 0 7 1 6 2 7 1 7 0 7 1 6 0 6 1 5 2 8 3 5 2 4 3 3 4 2 8 2 6-1 6-2 9-3 6-4 8-4 5-5 8-6 5-9 10-6 6-7 7-9 7-9 7-7 5-10 7-10 6-8 7 7-6-8 6-8 6-7 5-5 6 9-10-4 5 9-15-1 4 0-17 2 4 5 4 6 3-8-3 7 2 9 2 8 2 10 1 11 0 12 1 12 0 13 0 12 0 8 3"/>
<path d="M5386 12358l 8-3 5-2 9-2 5-1 6 0 6 0 7-1 8 0 8-1 9-1 10-1 10-1 12-2-9 2 13-3 13-3 13-3 15-4 14-4 15-4 13-4 14-4 13-5 13-4"/>
<path d="M5473 12236l 5-7-2 5 4-8-2 5 3-9-2 6-1 8 0 10 0 11 1 13 1 14 1 15 1 16 2 17 2 17 3 18 3 18 4 18 5 19"/>
<path d="M5841 12511l 7 0 8-1 10-2-9 2 11-3 14-5-9 3 15-7-7 4 16-11 18-14 18-17-6 6 20-19 21-22 24-23 25-25 24-27 25-27 24-28-3 4 23-29 23-29 22-29 20-30-2 3 20-33 19-37 18-38-2 4 13-35 10-32 7-29 5-26 2-23-1 5 0-22-2-19-3-18-4-16-5-14-5-11-6-10 4 8-5-7-5-5-7-3 9 2-6 0 16-6-7 4 7-6-8 7-10 10 9-9-11 12-12 14-12 17 5-8-12 19-13 22 4-7-12 24-12 26-11 25-10 27-10 30-10 34-11 37 1-6-11 40-10 41-8 41-7 41-4 40-3 40 0 38 2 37 3 33 5 32 7 28-1-4 9 25 10 22 12 20 13 18 14 15 15 11 16 8 16 7 15 5-8-3 14 4 14 1 13 0 14-2-9 1 13-3 9-1 8 3"/>
<path d="M6392 12566l-5 4 8-5-5 4-4 3-4 4-4 4 9-9-4 5 5-7-3 5 4-8-2 7 3-9-2 7-1 7 0 7 1 6-2-8 2 7 3 7 3 7 5 7 5 6 7 5 7 3 8 3-8-3 9 3 9 1 9 0 10 0 9-1-9 2 10-2 8-4-8 4 8-5-8 5 7-5 7-5-7 6 6-6 5-5-6 7 4-6-5 8 3-6-3 8 2-6 0-5-1 9 0-6-2-6-3-6 4 8-4-6-4-7-6-6-7-6-8-6-9-6-10-4-9-4-10-3-9-3-9-3-8-2 9 2-7-2-7 0-6-1-5-1"/>
<path d="M6651 11761l 7 7 8 7 9 9 10 11 12 12 13 13 16 12 17 13 19 15 20 15 21 16 21 18 21 17 20 17 16 16 17 15 16 17 15 17 14 19 14 21 11 21 11 22 9 21 8 22 2 8 6 23 3 24 2 25-1 26-2 28-6 30-2 8-8 32-11 33-14 33-17 34-2 4-19 33-20 34-23 33-24 36-3 3-27 37-28 37-28 37"/>
<path d="M7708 11815l-6 3 8-4-6 4 7-5-7 6 9-9-6 9 5-7-7 11-7 14 4-8-8 15-8 17-9 19-8 19-8 19-9 20-11 23-13 27-14 29-15 32-16 32-16 32-15 33-14 33-13 35-12 35-10 35-9 35 1-4-9 34-7 34-5 32-4 30-3 28-1 26 2 23 4 22-2-6 6 19 7 17 9 17 11 14 13 14 17 11 18 10 20 9 2 8"/>
<path d="M7539 11564l 9-9-6 7 5-7-7 10-8 13-9 16-9 17 4-8-9 18-10 22-14 27-4 7-16 31-18 35 3-5-19 38-19 41-20 43-21 45-21 49-24 50-25 52-2 4-27 52-29 54-30 55-30 57-30 58 2-4-29 57-28 57-27 57-25 57-24 56-24 54-24 52-23 50-22 48-21 45-19 44-17 40-15 38-12 34-11 31-7 26 1-4-4 21-1 17"/>
<path d="M8057 11876l 5 1 8 3 4 3 3 6 3 9 1 8 0 12 0 14-1 15-2 17-2 21-4 24-5 27-6 29-2 9-8 30-8 30-9 31-8 30 2-6-8 32-9 34-1 5-10 36-9 32-6 26 1-5-3 20-3 18-3 16-2 15-1 13-1 12-2 10 0 7 0 3-48 11 2-3-5 8 3-7-3 8 4-11 5-13 5-15 7-17 6-18 7-20 8-21 8-21 3-8 9-20 9-18 10-18 9-16 9-14 5-8 8-13 9-11 6-7 8-9 7-6 8-7 8-4 9-5 8-3 8-4 9-1 8-1 8 1 7 2 8 4 7 3 6 5 5 6 6 8 4 9 5 9 4 11 4 11 2 9 3 13 2 14 2 15 1 16 1 16 1 17 0 17 0 17-1 17-1 16-1 16-2 14-1 15-1 13-1 11 0 11 0 9 2 9-3-9 4 7 4 4-7-3 5 2 8 0 7 0 8 3 3 8"/>
<path d="M8444 12503l-1 5 2-8-1 6-2 9-2 7-2 7-2 9-3 9-2 9 2-9-3 10-2 10-2 10-3 11-2 10-2 11-1 11-2 10-2 11-1 11 0 10-1 10-1 9-1 8-1 7-1 6-1 9"/>
<path d="M8727 12320l"/>
<path d="M8969 12066l 5-3 8-3 5-3 7-1 9-1 7-1 9 0 10 0 10 1 11 1 12 1 11 2 13 1 13 2 13 2 14 3 14 4 13 3 14 4 13 5 7 3 12 6 10 6 8 8 6 7 4 8 2 8 2 9-1 9-2 9-3 11-6 11-4 8-8 12-6 8-10 12-12 14-13 14-15 16-16 18-9 9-16 17-17 17-17 17-16 17 9-9-16 17-9 9-15 16-15 15 9-9-14 15-12 14-11 14-9 13 5-7-8 12-6 10-5 10 4-8-3 8 3-9-2 7 1 7-2-9 2 6 5 5 6 4-8-3 7 2 9 2 9 1 10 0 12-1 13-1 14-1 16-2-9 2 17-3 17-4 19-3 19-4 20-5 20-6-9 3 20-8 20-9"/>
<path d="M9407 11908l 4-4 7-6 5-4 7-4 6-4 9-3 7-3 7-2 8-2 7-1 9-2 7-1 7 0 7 1 7 3 8 3 6 4 4 5 2 9 1 7-1 7-2 9-5 8-3 7-5 7-5 6-9 9-7 6-7 5-7 5-8 6-8 6 7-5-8 6-9 7-8 8-7 6-7 6-5 5-5 4 9-9-4 4 6-8-3 5 4-9-1 4 2-8 0 3-2-8 2 3 4 3-8-4 6 2 7 1 8 1 9 0 9 1 9 1 10 2 10 1 11 2 9 1 9 2 9 2 7 3 8 3 7 3 6 2 4 3 3 4 2 4 2 8 0 4-2 9-2 4-4 8-2 4-6 8-4 4-4 5-9 10-6 5-6 5-7 6-7 4-7 4-8 4-7 4-8 4-8 4-7 3-7 3-7 2-6 2-9 2"/>
<path d="M9697 11880l-9 1 7-1 9-2 7-1 7 1 8 2 9 2 9 2 8 2 8 3 7 3 8 3 7 3 6 4 5 6 4 7 2 9 1 7-2 9-2 7-4 8-4 7-5 7-5 7-5 6-9 10-5 5-7 6-7 6-9 7-9 7-10 8-10 8-8 8-8 7-8 7 10-9-6 6-5 6-4 5 5-7-3 4-2 4 7-17 0 3-3-8 4 2-8-3 5 2 7 0 7 0 8 0 8-1 8-1 10-1 11 0 11-1 12 0 12 0 12-1 12 0 8 3"/>
<path d="M10060 12310l 6-3 9-3 11-2 11-4 12-3 13-5 14-4 16-5 16-5 17-4 16-5 17-4 15-5 14-4 13-4 12-4-9 3 11-5 8-3"/>
<path d="M10193 12184l-3 7-2 8-2 8 2-9-1 9-1 9-1 11-1 11-1 12 0 11-1 10 0 11 1 13 0 14 0 16 0 15 0 15 1 17 2 18 1 18-2 9-4 8"/>
<path d="M10573 12501l 8 0 7 0-9 1 9-2 10-2 10-5-8 4 12-6-8 4 14-8 15-11 17-13 19-16 22-18 26-21-6 5 33-27 34-29 32-28 30-28 28-27 25-27-3 3 22-28 19-29-2 4 17-30 14-30-2 4 13-31 12-32 11-32 8-31 8-31 5-31 4-30-1 4 2-30 1-31 0-29-1-28-3-24-4-20-6-19-7-16 3 6-8-11-7-6-7-1 18-1-7 3 15-10-8 7 9-10-10 10 6-7-10 14-11 18-13 21-14 25-16 27-17 29-17 28-17 29-17 30 2-4-16 33-13 35-12 37-10 36 1-5-9 36-7 34-6 32-4 33-2 31 0 28 2 24 5 21 4 22 5 22 5 22 6 22-2-7 7 20 9 18 10 16 12 14 12 12 12 11 14 9 14 8 14 6-8-3 15 4 15 2 16-1 19-3-9 2 24-6 26-7 9-1 7 3"/>
<path d="M11116 12454l 0 4-2 9-1 5-2 4-2 5-2 5-2 6-2 6-2 5-1 6 2-9-1 6 0 6 0 6 2 6-3-9 3 6 3 5 4 4 5 3 5 3-7-3 6 2 7 1 9 0 10 0 13-1 11-1-9 1 11-3 9-3-8 3 8-4 7-4 8-4-8 4 7-4-7 5 5-5-5 7 4-6-5 8 3-6-3 8 2-6 2-5 0-6-1 9 0-6-1-5-2-6 4 8-2-4-4-5-5-5-6-5-7-5-8-4-8-3-8-3-8-3-8-2 9 1-7-1-6 0-6 1-6 1 9-2-5 1-5 3 8-4-5 3"/>
<path d="M11403 11656l 6 10 6 12 8 13 7 13 8 14 8 15 9 16 10 17 11 19 11 19 12 19 11 20 11 21 12 21 11 21 12 23 10 24 9 26 9 25 8 27 2 8 8 27-2-8 7 26 8 25 7 24 2 7 6 24 5 24 4 23 4 23 3 20 2 19 1 19 0 21-2 22-3 23-5 24-2 8-7 25-8 24-9 24-11 23-4 8-12 22-13 22-15 21-15 22-16 21-4 7-16 21-17 20-16 20-16 20-17 18-16 18-8 8-6 4"/>
<path d="M13026 9925l-5-1-5-1 9 2-5-1-5 1 8-2-5 3 8-4-6 3-6 4-6 4-7 5 7-5-7 5-7 7 9-9-7 8-7 9 5-7-7 10-8 13 4-8-7 15-6 17-6 17-5 19 2-9-4 20-2 21-1 21 2 21 3 19 5 17-2-9 6 16 8 14 10 12 11 11 13 8 16 7-8-3 17 5 18 4 19 3 20 2 22 0 21-1 22-3-9 1 21-4 21-7 21-7-9 3 19-9-8 4 17-11 15-12-7 6 13-13-6 7 11-14 10-14-5 8 7-14-4 8 6-14 3-14 1-14-1 9 0-14-3-15-5-16-7-15 4 8-8-15-10-15-12-14-14-15-15-13-17-13-17-11-17-10-16-9-15-8-14-6-13-4-12-2 9 1-11-1-10 0-9 0-9-1"/>
<path d="M13684 9967l-5-1 8 1-6 0-7 0-8 0-9 1 8-1-10 2-10 4 8-4-9 5-10 7 7-5-10 7-9 10 8-10-9 12 5-8-9 14-8 14 4-8-7 15-5 15 2-8-3 15-2 16 0 17 2 16 3 15-3-8 4 14 6 11 7 11 8 10 9 9 9 7 11 7 12 5-8-3 13 5 14 3 14 2 15 1 16-1 17-1 17-2 18-2-9 2 18-4 18-5 19-6-9 3 19-9 20-11-8 5 17-12-7 5 12-11-5 6 8-12-5 8 7-13-3 8 5-13 4-13 1-15-1 9 0-14-3-15-5-14 3 8-8-13-10-13-13-12-15-12-16-10-18-10-18-9-20-9-19-7-20-6-20-5-20-3 9 1-19-3-18-2-18-2-9-1"/>
<path d="M14301 9980l-6-1 9 2-7-1-8 0-8 0-9 1-10 1-10 2-10 2 8-2-11 3-11 5-11 5 8-4-11 6-11 6-11 8 7-5-11 9-10 10 9-9-10 11-8 11 5-7-8 12-6 12 4-8-5 13-3 14 2-9-2 13-1 13 1 13 3 13-2-9 5 13 8 11 11 11 12 9 15 8 16 8-8-3 18 6 18 3 18 3 18 0 20 1 20-1 21-2 21-4-9 1 22-4 22-6 21-6-8 3 19-9 19-10-8 4 17-12-7 5 15-13 12-15-6 7 10-14-5 7 7-14-3 8 5-15 3-16-1 9 1-16-2-16-4-16-7-15 4 8-9-15-10-15-11-14-13-14-13-13-13-12-14-11-13-8-14-7-12-4-11-3 9 2-11-1-9 0-8 2 8-2-7 3 8-4-6 3"/>
<path d="M14902 9973l-9-1 9 1-10 0-12 0-13 1-15 2-15 2-16 3 8-2-16 4-16 4-15 7 8-4-14 8-11 8 7-5-10 8-10 9-11 11 9-9-10 12 5-7-8 13 4-8-8 16-7 17-5 20 2-9-4 19-1 14 1 13 3 13-3-9 5 13 7 11 9 11 11 9 12 10 15 8 18 7-8-3 19 6 21 4 22 3 22 1 22-1 21-2-9 2 20-4 20-5 19-6 19-6 17-7-8 3 16-8 16-8-8 5 14-9 13-10-7 6 11-10 9-11-5 7 7-11-5 7 6-12-4 9 4-12 1-12-1 8-1-12-3-14-6-16-8-18 3 8-10-18-10-16-12-14-12-14-13-12-15-11-14-10-14-9-14-8-13-7-14-7-14-6-13-4-13-3-11-3 9 2-10-2-9-1"/>
<path d="M15373 9950l-8 2-6 1-6 2-6 1 9-2-7 2-6 2 8-4-6 4-6 3-6 4 8-5-6 5 9-9-6 6-6 7 6-7-6 8-4 9 4-8-4 9-4 9 3-8-3 9-1 11-2 11 0 11-1 11 0 12 0 14 1 16 1 16 3 16 3 14-2-8 4 13 5 12 6 12 6 10 7 11 7 9 8 9 8 8 10 6 10 6 11 5-8-3 11 4 12 3 13 2 13 2 13 0 15 0 16-1 16-2-9 2 17-5 18-6-8 3 16-7 13-7-8 4 10-7-6 6 8-9-6 7 9-10 7-11-5 7 7-12 5-12-3 8 4-12 4-13 2-13-1 9 1-14-1-14-2-13-3-14-4-14-5-15-7-14 4 8-8-13-10-13-11-13-11-11-12-11-13-10-12-9-13-8-12-7-12-7-12-7-11-5-11-5-10-3-9-2 9 2-9 0-9 1 9-2-9 4 8-4-11 5-10 8"/>
<path d="M15970 9903l 2-5-3 8 2-7 2-8 3-7 2-7 1-7 1-8-1 9 1-10 0-9 1-7 0-8 0-7 0-8 1-7 0-8 0-8-1-8-1-6 3 8-2-5-4-5-4-5-5-4-6-4-6-3-7-1 9 1-8-1-9 1-10 1-10 2 9-2-12 3-12 5-13 6 8-4-14 7-13 8-14 8-15 9-15 9 7-5-14 10-12 11-11 12 8-9-10 12-10 12 6-7-9 12-7 13 4-8-5 12-4 11 2-9-2 11-1 10 1 8-2-8 3 7 4 7 6 6 8 5 9 4-7-3 11 3 12 1 13 1 13 0 15-2-9 2 15-3 16-5 16-5-8 3 14-6 12-6 10-5-8 4 10-7 9-6 7-6-7 6 6-6 5-5-6 6 5-5 4-6 6-7 4-5-6 7 4-5 4-5 3-5-5 8 3-4 5-8 5-7 2-1 6-6 8-4 9-4 9-1 7 3 3 8-1 3-2 9-2 6-2 8-2 8 2-9-3 10-2 9-2 10-3 11-4 11-3 12-3 13 2-9-3 14-4 15-3 16-4 16-3 16-4 17-3 16-4 17-3 16-3 17-3 16-2 15-2 16-3 15-2 14-2 13"/>
<path d="M16317 9964l 7-2 9-2 7-1 7 0 7 0 9-1 11-2 14-1 15-2 17-2 18-2 20-2 22-3 21-2 20-2 20-4 20-3-9 2 18-4 15-4 14-4"/>
<path d="M16450 9882l-6 2 16-6-5 3 21-21-3 5 4-8-3 7 3-9-1 7-1 8 1 10 2 11 1 11 2 10 2 10 3 12 3 14 2 15 3 17 2 15 2 13-2 9-5 8"/>
<path d="M17123 9889l-10 5 8-4-12 6-12 8 7-5-14 11-14 12-13 14 9-10-12 17 5-8-11 18 4-8-9 20-7 20-6 21 2-9-3 21-2 20-1 19 1 19 2 19 3 17-2-8 6 15 8 14 10 13 13 12 15 11 17 10 19 8-7-3 22 6 23 3 24 2 24 1 23-3-9 2 23-6 21-7-8 3 21-9 21-9 21-11 21-13-7 5 20-15 20-16-6 6 19-18 17-18-6 7 16-19 12-19-4 7 9-19-3 7 7-19 3-19-1 9-1-19-3-18-7-18-9-19 4 8-11-18-12-17-15-17-16-17-17-16-18-15-18-14-19-12-18-10-17-8-18-6-19-5 9 2-19-3-20-1-18 0-19 3 9-2-17 4-15 5 8-4-14 7-11 8 7-5-10 9 9-10-8 11 5-7-7 13 4-8-6 14-4 8"/>
<path d="M17690 10022l-4-8-1-4 0-9 4-8 5-8 6-7 3-4 7-5 8-5 5-3 9-3 5-1 7-2 7-2"/>
<path d="M18028 9746l 6-7 4-4 7-6 5-5 8-4 6-4 8-3 7-2 7-2 8-2 9-2 8-1 10 0 11 0 12 0 13 1 14 1 15 2 15 2 15 3 14 4 14 4 13 4 8 3 12 5 11 5 10 5 9 5 9 6 7 6 7 7 6 8 4 8 3 7 3 9 2 7 0 7-1 7-2 9-2 9-4 9-4 8-6 9-7 11-8 11-5 8-10 12-11 12-9 10-11 12-14 11-7 5-16 11-19 12-20 12-21 12-22 11-23 12-22 13-22 12-21 12-20 11-18 10-15 11 6-5-12 11-11 9-8 10 9-10-7 8 5-7-5 8 5-8-4 7-2 8 3-9-1 7-2-8 2 6 6 6 7 5 9 5-8-3 11 3 12 3 14 2 16 2 17 1 19 1 20 0 20-1 21-1 22 0 20 0 21-1 19-1 17-1 17-2 17-2 16-1 17-3-9 2 17-4 17-5 17-4 8-2"/>
<path d="M18509 9574l 3-6 5-7 6-7 5-6 7-5 5-5 7-4 8-5 6-3 8-3 7-1 9-2 7-1 7-1 8-1 7-1 7 1 7 1 7 3 7 2 8 3 6 3 6 4 5 4 3 7 2 9 1 8 0 9-3 8-2 7-4 8-3 6-6 7-4 5-9 9-4 5-5 4-5 3-7 6-5 3-5 3 7-5-5 4 14-16-3 5 6-17-1 7 1 7-2-8 3 6 5 6 5 5 6 5 7 5 6 4 6 4 6 4 7 4 5 5 5 5 4 6 2 6 2 8 0 6-2 9-2 6-5 8-3 5-5 7-4 5-9 9-5 4-7 5-6 4-7 4-7 4-7 4-8 4-7 3-7 3-8 3-7 1-9 2-7 2-7 0-9-2-6-1-6-1"/>
<path d="M18839 9499l 7-1 8 0 7 1 7 3 8 3 6 3 7 2-8-3 7 2 8 3 8 2 8 3 7 3 7 2 8 3 6 4 6 4 3 6 3 8 1 7 0 7-1 6-2 9-3 7-4 8-4 6-5 7-9 9-5 5-7 5-7 5-8 4-9 4-8 4-10 4-11 4-10 4-10 4-9 4 8-4-8 4-7 4-6 5 7-6-4 5 18-25-2 6 0-17 2 6 5 5 7 4-8-3 8 3 8 2 9 1 10 1 11 1 11 1 12 1 11-1 11-1 11-1 11-1 10 0 11-1 12-2-9 1 11-2 10-1 11-2 12-2 12-2 13-2"/>
<path d="M19106 9371l 6 5 9 6 9 8 12 10 14 11 14 12 16 14 16 14 16 15 15 16 14 17 13 17 13 17 11 17 10 17 8 19 7 19 6 20 3 9 5 22 4 23 4 24 3 26 2 25 2 26 0 26 0 26 0 27-2 27-2 27-3 27-4 27-4 26-5 25-6 25-6 24-1 7-7 25-8 25-10 25-11 25-4 6-13 23-14 22-5 5-15 21-17 22-19 22-20 21-6 7-21 21-21 21-22 19-24 20-24 19-25 19-25 20-4 3"/>
<path d="M14362 13158l 3 3 3 1-33 6 3-2-13 13 3-5 4-5 6-7 5-4 7-6 5-4 8-5 6-3-8 5 7-5-7 6 8-7 8-10-6 7 10-13 11-15 12-17 13-20-5 8 14-22 14-24 16-25 16-27 17-29 17-30 16-32 14-33-2 4 13-33 12-34 11-37 12-40 10-42 8-41 6-42 4-40-1 4 3-40 1-39-1-39-2-37-2-34-3-33-4-30-5-29-5-27-6-25-7-25-8-24 2 5-9-19-11-12-12-6-10-2 9 1-9 2 17-6-7 4 7-5-8 7 9-9-9 11 6-7-9 14-9 17 4-8-10 21-11 25-12 29-14 33-14 37-14 40 2-5-12 43-10 44-9 46-8 48-7 48-6 48-4 48-2 49-1 49 0 47 2 44 4 40 4 34 6 30 7 29-1-4 9 29 10 28 12 25 13 22 15 18 17 15 17 13 16 8-6-3 16 4 16 1 15-1-9 2 15-4-9 3 15-6 15-8 15-8 8-4 9-1"/>
<path d="M14765 12957l 7-5-5 5 9-9-5 6 5-7-6 8-5 9-5 10 4-8-4 9-3 9-3 8 3-9-2 8 0 8 0 9 1 8-2-9 2 8 4 8 5 7 6 6 7 6 8 4-8-3 9 3 11 1 12 0 12-2-9 2 12-3 11-4-8 4 11-6 11-6-8 5 10-7 9-8-6 6 8-8 8-9-6 7 7-8 5-8-5 7 4-8-3 8 2-8 1-8-1 9 0-9-1-7-3-7 4 8-4-7-5-7-6-6-7-6-8-5-8-5-9-3-9-3-9-2 9 1-8-1-8 0-7 1-7 1-5 1 9-2-4 1 25-19-1 1 2-36 3 0 5-1-9 2 8-2 9-3 9-4-8 4 10-5 11-6 10-6 11-6 11-6-7 4 10-7 10-7 9-6 10-6 8-6 8-5 8-4 7-5 7-3 8-4 6-2 9-2 6 0 5 1 8 3 4 4 4 6 2 8 2 8 1 8 0 10 0 11-1 11-2 11-2 11-2 11-2 11-2 11-1 10 0 11 0 9 1 9 1 7-2-9 2 7 3 4 4 4 5 3-8-3 6 1 6 0-9 1 7-1-9 3 8-3 8-5-8 5 9-6 10-7 9-8 9-8-7 6 9-8 8-7 8-8 7-6 7-6 7-6-7 6 6-5 5-5 7-6 4-3 8-5 3-1 9-4 9-1 3 0 8 4 3 2 4 3 3 4 5 5 5 4 6 4 6 4 7 4-8-3 7 2 7 2 7 1 7 0 8 0-9 1 7-2 7-2-9 3 7-2 6-4 7-4-8 5 6-4 5-5-7 6 5-5-6 6 5-5-5 7 3-6 4-7-4 8 3-7 2-8 1-6 1-7-1 9 0-7 0-7-1-7-2-6-3-7-3-7 4 8-5-8-5-8-5-8-6-7-5-7-6-8-5-5-5-5-5-2-3-1 25-5-2 2 25-30-1 4 2-9-1 5-2 9-4 8-5 7-9 10"/>
<path d="M15470 13021l-2 6-3 6-3 6-2 7-3 8-4 9-4 10-4 11-4 12-5 14-5 15-6 17-6 18-4 8-5 7"/>
<path d="M16116 12207l-1 7 0 9-1 11 0 13-1 14 0 17 0 19 1 22 1 23 0 25 0 27 0 29 0 30 0 31-1 31-2 33-2 32 0 32-1 32-1 32-1 33-2 31-1 29 0 26 0 22 0 20 1 16 3 12 1 10 1 8 1 4-36-2 2-1-18 20 3-6-4 8 4-11 5-14 6-17 8-20 10-23 3-8 12-27 16-31 16-28 13-22 10-19 7-16 7-14 6-14 7-11 5-8 7-9 6-7 7-8 6-6 7-6 5-4 8-4 5-3 8-3 5-1 9-2 5 1 8 3 5 4 4 5 3 6 3 7 2 9 2 8 2 10 1 10 0 12 0 14 0 15 1 17-1 17 0 18 0 19-1 19-1 19 0 18 0 16 0 16 1 15 2 13 3 10-3-8 4 8 5 6 6 4-8-3 8 1-9 1 10-3-9 4 11-6-8 5 11-7 8-5 9-3 9-2 7 3"/>
<path d="M16512 12680l-2 7-1 7 2-9-2 9-2 10-3 11-2 11-2 13-1 15 0 15-1 14 0 14 1 12 0 13 1 12 1 12 1 10 2 9-2-8 3 8 3 7 4 6 6 3-8-3 5 2 6 0-9 1 6-2-9 3 7-4"/>
<path d="M16505 12522l-6-14-5-10 3 8-5-10-5-8-4-7-5-5-5-2 9 2-3 0 24-11-4 3 19-25-2 5 2-9 0 5 2 6-3-9 3 8 4 9 6 9 8 9 2 9-2 8"/>
<path d="M16755 12662l-4 4-5 3-6 5-6 5-7 6-7 6-7 8 9-10-8 9-8 9 6-7-8 10-7 12-8 13-7 13 4-8-7 14-6 15-6 15-5 14-3 14 2-9-2 12-1 11 0 10 1 10 2 8-2-8 3 6 5 5 5 3-8-3 6 1-9 1 7-1 8-3-9 3 8-4-7 4 9-6 9-7 10-9-7 6 11-10 11-11 10-12-6 7 10-12 9-12 9-13 7-12-5 8 7-11 6-11 6-9 4-9 5-8 3-6 5-8 3-4 6-7 7-6 7-5 2-1 9-3 9-2 8 4 1 2 2 9 1 5 1 8 0 8 0 10 0 11 2 12 1 14 2 14 3 15 2 16 3 16 2 16 2 17 2 17 2 18 3 19 2 19 3 21 2 22 1 23 2 26 1 27 0 29 0 29-1 30-1 29-2 29-2 26-1 25-2 22-1 18-2 16-2 14-3 13-2 8-4 13-4 10-5 8-6 8-5 8-9 9-6 6-8 5-8 4-7 2-8 2-8-1-9-1-7-5-7-9-7-13-3-8-6-17-6-20-4-22-4-23-2-27 0-30 1-35 3-39 2-44 2-51 1-64 3-77 3-82 4-79 5-71 0-4 6-64 8-59 8-53 10-49 11-44 10-40 11-35 10-32 10-28 10-26 9-24 8-21 7-18 6-14 4-11 3-7 4-9 5-7 4-6 5-6 7-6 7-4 8-3 6-3 9-2 8 3 5 3 5 7 5 10 5 13 2 9 4 16 4 19 4 22 3 24 3 27 1 29 0 31-2 34-2 35-2 34-1 33-1 30 0 29 0 29 0 29 1 29 0 29 0 29 0 27 1 24 2 19 4 16 3 13-2-7 3 10 4 7 3 3-17-2 4-2-29 21 5-6-5 8 5-10-3 8 5-13 5-15 5-17 6-17 5-18 6-17 7-17 6-16 4-8 6-15 7-13 6-13 7-11 5-7 6-10 7-8 6-6 6-6 6-6 8-5 6-3 9-3 6-2 9-1 5 1 8 3 5 2 5 5 4 6 4 7 4 8 4 10 3 10 4 11 2 9 3 12 4 13 3 15 4 14 3 15 3 15 3 15 3 15 3 14 4 14-3-9 4 13 4 13 4 12"/>
<path d="M11064 14046l 2-6-1 8 0-5 0-4 1-9 0-2 4-9 5-7 6-7 6-6 8-5 9-3 9-1 8 3 2 1 3 6 4 9 5 11 5 15 6 18 2 9 5 21 5 24 5 26 4 28 3 31 2 35 1 36 2 38 3 40 3 40 3 40 2 40 2 40 1 40 0 41 0 40 1 40 0 38 0 35 0 32 0 30 1 25 2 21 4 18-1-6 4 13 4 9 4 7 3 2-33 6 4-3-18 20 5-7-4 8 5-12 5-15 6-19 5-24 6-27 7-30 7-33 8-32 7-31 7-30 6-28 5-26 5-25 3-22 3-19 3-18 2-15 2-12 2-10 4-7 3-8 5-7 6-7 4-5 7-6 8-4 8-3 5-1 9-2 8 3 5 3 5 6 5 8 5 11 4 12 3 9 4 15 3 17 4 19 3 21 3 22 2 24 2 24 3 25 2 24 3 24 3 22 3 21 5 19-2-8 5 17 7 15 7 12 8 10 9 6-7-3 10 4 11 1"/>
<path d="M11571 14552l-6-1 9 1-6 0-7 1 9-2-7 1-8 3-7 3 8-4-8 4-7 5 7-5-7 5-6 7 8-9-6 8 5-7-6 9-5 11 4-8-5 12-5 12-5 13-4 13 3-9-4 13-2 13-1 13 0 11 1 11 2 9-2-8 3 8 4 6 4 5 5 3-8-4 6 1-9 1 7-1-9 3 8-4-8 5 8-6 8-7-7 6 9-9-6 7 9-10 8-12 8-12-5 8 7-12 7-13 6-13 6-11 5-11 4-9-4 8 4-9 3-7 3-8 2-5 5-7 6-7 1-2 7-6 8-4 9-4 9-1 7 3 2 3 2 9 1 6 0 8 1 9 2 8 2 8-3-9 2 8 3 7 3 7 3 6 4 5 5 5 5 3-8-3 6 2 6 0 6 0-9 1 6-2-8 3 7-3-8 5 7-5-7 6 7-6 7-9-6 7 8-10 7-11-5 7 7-13 7-15-4 8 7-17 6-18 7-20 6-23 5-24 6-26 6-28 7-29 6-30 4-29 0 7 3-31 3-30 1-31-1-32-3-32-5-32-7-33-7-32-9-30-10-28-10-25-10-22 2 4-11-18-10-14-11-10-10-8-8-7-8-4-6-3 9 1-6 0 17-6-5 3 22-21-4 6 4-8-4 9 3-9-3 13-3 16-1 19-2 22-1 25-1 28-2 31-1 33-1 34-1 36 1 37 2 38 4 39 4 40 6 39 7 38 7 36 8 35 9 33-1-4 9 31 10 27 11 24 12 21 13 18 14 15 15 12 15 9 16 6-7-2 15 3 14 2 15-1-9 1 13-3-8 3 13-6-8 5 12-9-6 6 11-10 11-12"/>
<path d="M11980 13875l 8-4-4 2-4 3 8-5-5 3-4 4-5 5 9-9-5 5 5-7-4 6-5 8 5-8-4 7-4 9-4 9-4 11-4 12-4 13 3-9-3 15-3 16-1 17-1 20 0 21 2 24 2 24 2 25 3 25 3 26 3 26 4 28 3 29 4 29 5 29 5 29 6 29 6 28 6 27 7 26 6 25 7 25 6 24 6 22 6 21 6 20 5 20 4 19 4 20 2 19 2 20-1 18-1 17"/>
<path d="M11844 14357l 5-4 7-4 6-4 7-3 8-3 9-4-9 4 10-4 10-6 11-6 10-6 11-6 12-8-8 5 13-8 14-9 15-8 7-5 15-9 16-9 17-9 16-9 17-8 17-8 17-8"/>
<path d="M12250 14618l 2-7 3-10 4-12 4-15 5-17 6-21 7-25 10-29 11-33 14-36 14-37 13-39 14-40 13-41 13-42 13-45 12-46 12-45 12-45 11-43 8-42 7-40 4-38-1 5 2-36-1-32-4-30-6-27-8-24-9-20 2 5-11-15-13-11-14-8-12-6-11-3 9 1-11 0 9-2-10 3 8-4-10 7 17-15-10 11 5-7-9 16 4-8-8 20-9 26 2-9-7 30-8 34-7 38-7 41-4 46-3 48 0 50 2 50 3 51 5 51 5 50 6 48 7 45 9 43 11 40-1-4 11 36 13 33 14 28 15 24 17 20 18 15 21 12-5-2 20 7 21 4 20 1 18-1-7 2 17-5-8 3 16-7 14-9-7 4 12-10-7 5 11-12-10 15 9-15-4 8 7-16 4-16 2-18-1 9-1-18-3-17-5-17-7-17 4 8-11-15-13-15-15-14-17-13-19-11-20-11-19-8-20-8-18-5-17-4 9 1-16-2-14-1-13 0-10 2 9-2-8 3 8-4-6 4 7-6-4 5 18-25-2 5 2-9 0 6-2-9 1 6 4 6 6 5 6 5 3 9-3 8-4 8-5 8"/>
<path d="M12713 14191l-1 7-1 8-1 9-1 10 0 12 0 13 0 14 1 13 1 14 2 14 2 15 3 15 4 15 3 15-2-9 4 15 6 14 5 14 5 12 6 12 6 10 7 8 7 6 6 4 3 9"/>
<path d="M12636 14007l-1 4-4 8-2 4-3 3-2 4 4-8-2 5-1 4 2-9 1 4-10-12 5 0-9 2 7-2 9-2 8 3"/>
<path d="M12773 13707l 0 7 1 9 0 9 1 10 1 11 2 12 2 14 4 14 4 15-2-8 4 15 5 17 6 18 6 20 6 22 8 24 7 28 3 8 6 31 7 32 6 34 7 34 7 33 8 33 8 32 8 31-1-4 8 30 9 29 8 28 9 25 9 22 9 19 9 16 9 14 9 10 7 9 7 6 6 4-8-3 7 0-18 5 6-3-14 10 6-6-11 14 5-10-3 8 5-13 4-16 5-17 3-8 5-8"/>
<path d="M12712 14157l 8-4-4 3-2 1-8 4-9 2-9-2-4-8 1-9 4-8 5-7 6-7 6-6 3-2 6-5 7-6 9-6 10-7 10-6 8-5 13-7 14-9-8 5 16-10 18-11 20-12 7-4 21-12"/>
<path d="M13171 14065l-5 2-5 3 8-4-6 3-6 4 7-5-6 5-6 5-7 5-6 7-7 7-8 8 9-10-7 8-7 8-6 8-7 9-6 8 5-7-6 8-5 8-5 8 5-8-4 8-2 8 2-9-1 7 0 5-3-8 2 4 3 3-8-3 4 1 6 0-10 1 7-1 6-2 8-2 9-2 10-1 11-2 12-2 13-1 13-1 14 0 14 1 15 2 14 2 14 2 12 4 12 4 7 3 11 4 9 5 8 6 7 6 6 7 5 8 4 8 2 8 3 9 1 10 0 10-2 11-3 11-2 9-4 12-4 12-6 13-4 8-7 13-8 13-5 7-10 13-11 12-9 9-12 12-13 12-14 12-15 11-7 6-15 10-15 9-15 8-8 4-15 7-14 5-13 4-9 2-14 2-12 0-12-1-9-1-11-2-9-3-9-3"/>
<path d="M13520 14036l-1 0-4-8 1-9 4-8 5-7 5-7 7-6 8-5 9-3 8-1 4 1 6 2 7 1 7 2 8 1 7 1 7 1 7 0 9-1 9 0 9-1 11-2 10-1 12-2 12-2-9 2 12-3 12-2 13-2 13-3 9-1 13-3 13-2 13-1 13-2 14-3-9 2 13-3 9-1 13-2 12-2 11-2 11-2 10-2 9-1-9 1 9-1 9-2 8-2 7-2 7-2 7-1 6-2 5-1 4-2 4-1 4-2 4-1"/>
<path d="M14291 13925l-5 1 9-2-5 2-6 2-6 2-6 3 8-4-6 4-6 4 7-5-6 5 9-9-5 6 5-7-5 8 4-8-4 8-3 9-3 10-3 11 3-9-3 11-3 13-1 13-1 14-1 12 0 13 1 14 2 12 2 11-2-8 3 10 3 8 4 7 5 7 5 5 6 4 7 3-7-3 8 2 9 0-9 1 9-2 10-3-9 4 10-5 10-5-8 4 10-6 9-8-7 6 8-7 7-7-6 7 6-9-5 8 6-10 6-10 4-11-3 8 4-11 3-11 2-10 0 9 0-9-1-9-2-8-4-8 4 8-4-7-5-6-6-5-7-5-6-3-6-3-6-2-7-1-6-1 9 1-6-1-6 0-5 0-3 0-9-1-1-2-4-7 1-9 3-8 5-8 2-3 6-7 4-4 5-5 6-7 8-7 8-8 7-6 9-8 9-7 10-9-7 6"/>
<path d="M14476 13600l-2-5-1-5-3-7-3-7 4 8-3-7-5-6-4-7-5-5-4-3 9 2-4-1 24-11-3 2 18-24-2 5 2-9-2 9-1 11 0 14 2 17 2 19 3 21 3 22 3 25 3 27 2 29 2 28 2 26 2 25 3 26 4 26 4 27 4 27 6 25 6 24-2-6 8 21 8 18 9 15 9 12 9 10 7 9 7 7 6 6 6 3-8-3 6 0-18 5 6-2-15 10 5-5-6 7 5-7-5 7 4-9-4 9 3-10 3-12 1-12-1 8 0-13-1-14-2-15-3-14-4-13-6-12 4 8-7-10-8-8-11-7-13-6-14-5-17-6-18-6-18-6-18-5-16-4 9 2-15-2-14 0-12 1-10 1-9 2 8-2-8 3-6 3 8-4-5 3 22-22-3 4 7-17 0 4-3-8 3 3-8-3 5 1 7 0-9 1 8-1 10-3-8 3 11-5-8 5 12-8 14-11 15-11 14-11 14-11-6 6 13-13-6 7 13-15 12-18-5 8 12-20 11-20 10-21 9-20-3 8 8-20 7-18 7-16 5-15 4-13 4-11 2-11 2-10 1-10-1 9 1-8 0-7-1-4 4 8-1-2 42-19-2 2 10-15-2 4 2-9-2 8-1 10-1 12 0 13 0 15 1 15 1 16 1 16 1 18 2 20 2 22 2 24 2 23 2 23 3 23 2 23 2 24 2 23 2 22 3 21 2 18 3 18 3 15 3 13 3 12-2-9 4 11 3 8 4 6 5 3-8-3 5 0-26 9 5-4-12 13 5-8-5 8 5-11-3 8 5-13 5-14 6-15 4-15 5-15 3-13 4-11 4-9 3-8 3-7 4-7 3-6 3-5 5-7 2-4 6-7 3-2 6-6 3-2 8-5 8-3 2 0 9-2 8 3 3 1 2 3 4 3 3 3 3 4 4 5 4 5 3 5 4 6 3 5 4 4 5 4 5 4 5 2-8-3 7 2 7 1 8 1 10-1 9-2-9 2 10-3 10-3-8 3 9-4 10-4 8-5 9-4 7-4 6-4-8 5 6-4-7 6 5-5 4-5 4-4 4-4 3-3 7-6 4-3 4-4 5-4 5-4 4-3 5-4 5-4-7 6 4-5 5-5-6 7 4-5 3-5 4-5-5 8 3-6-4 8 2-5-1 9 0-7-1-7-3-7 4 8-3-6-4-3-4-1-4-1-4-2 8 2-4-1-5 0 8-1-5 1-6 2 16-9-6 4-6 6-6 6-6 6 9-9-6 7-6 7 5-7-5 8-5 9 5-8-4 8-3 7-3 9 2-9-2 10-1 10-1 10 0 10 1 9 2 10-2-9 2 9 4 9 4 9 5 7 6 7 7 6 7 4-8-3 7 3 9 1 8-1-9 1 9-2 9-2 9-4-9 4 9-5 9-5-7 5 10-7 10-6 10-8 11-7 10-7 8-5 8-3 9-2 8 3 3 9-3 8-4 9-5 7"/>
<path d="M15152 13766l 0 6-1 5 0 6 0 6 0 8 0 8 1 8 2 7 1 6 2 7-3-9 2 7 3 7 3 8 3 8 3 7 2 4 1 5 2 4 2 5 2 8 1 4 0 2-2 8-4 8-6 8-9 9-7 5-8 4-9 2-9-1-3-8-1-3-2-5-1-7 1-6 1-9 1-5 4-8 2-4 3-7 3-8 4-8 5-7 5-7 4-8-5 8 6-10 6-10 5-7 6-9 6-7 7-6 7-4 8-5 8-3 8-2-8 4 8-4-15 11 9-9 9-9 8-10 8-8 8-8 8-7 8-7 7-6 8-7 10-7"/>
<path d="M15308 13312l 4 4 5 6 6 7 6 9 7 8 7 10 7 9 7 9 8 10 10 11 11 11 11 12 11 12 12 13 13 13 13 15 14 16 15 18 15 17 13 17 12 16 10 16 9 17 8 18 6 20 3 9 6 20 4 21 4 21 3 22 2 24 0 23-2 24-3 26-8 31-2 8-10 33-12 33-14 34-15 35-15 37-17 33-2 4-17 30-18 27-3 3-19 27-20 26-20 27"/>
<path d="M10747 13814l 0 5-3 9-1 4-1 5-3 7-2 9-3 11-4 12-4 15-5 17-6 21-8 25-8 28-10 31-11 35-11 39 1-6-10 42-9 43-8 45-6 45-5 48-5 48-5 50-3 50-1 50 0 49 1 49 3 49 4 47 6 45 6 43 9 41 9 41-1-5 11 39 13 38 14 36 16 33 16 31 17 28 18 26 19 24 19 22 20 20 21 18 21 16 21 15 21 12 20 9-5-3 19 6 17 5 17 5"/>
<path d="M9326 14447l 0 8 1 11 1 12 1 14 1 17 3 19 3 21 3 24 4 28 5 30 4 32 3 34 3 35 3 37 5 38 6 38 6 40 6 40 6 40 5 39 5 38 4 37 5 35 4 34 5 32 5 31 6 27 6 24-1-5 6 22 8 17 7 15 8 10 6 8 6 5 6 3 2 8"/>
<path d="M9927 14568l 7-5-7 5-6 6-8 7-9 9-11 11-11 11-14 13-15 13-14 14-15 14-15 15-14 15 9-9-15 16-14 16-15 15-9 10-15 15-14 15-14 14-13 14 9-10-12 14-11 13-10 12-9 11-7 10-7 8 6-7-6 8-4 7 4-8-2 7 2-9-1 6 0 5-2-9 1 5 4 3 5 3-7-3 7 2 10 0 11 0 13-1-9 1 15-2 16-4 16-5 17-5 18-5 18-5 20-6 19-6 20-5 20-4 18-4 18-4 16-4 15-3 9-2"/>
<path d="M10120 14619l-4 2 8-4-4 2 8-5-5 3-4 4-5 5-5 5-6 5-6 6-6 6-7 7-7 7-8 8-7 8-7 8 9-10-8 8-7 9-7 10 5-8-7 10-6 9-6 7-6 9-6 8 5-7-5 7-5 8-4 7-4 6 5-8-4 7-2 6-2 6 2-9-1 6 0 5-2-9 3 4 5 3-8-3 7 1 7 0 8 0 9-2-9 2 9-3 10-3 12-4 11-4 12-4-8 3 12-5 12-6 12-6 14-7 15-6 15-7 16-7 9-3 9-1"/>
</svg>
