<svg xmlns="http://www.w3.org/2000/svg" viewBox="702 -101 18904 13248" stroke="black" stroke-width="20" stroke-linecap="round" stroke-linejoin="round" fill="none" data-xena="0 0 0"><style>@media(prefers-color-scheme:dark){svg{background-color:black;stroke:white;}}</style>
<path d="M1037 1386l 1 6 1 6 0 7 0 9 0 10 0 12 0 13 0 14 1 16 0 18 0 20 0 22 0 22 0 24 0 24-1 24-1 25-2 25-2 25-2 25-2 25-2 24-2 22-1 21-1 19 0 17"/>
<path d="M1557 1425l 1-9 1-4 3-8 5-7 3-4 5-7 4-4 7-6 6-4 6-4 8-5 8-3 8-4 9-3 11-3 11-2 12-3 9-1 13-2 15-1 15 0 16 0 15 1 17 1 16 1 16 2 16 3 15 2 14 4 14 4 7 3 14 6 13 7 10 8 8 9 6 9 3 10 3 8 0 12-2 13-2 9-5 16-7 17-4 8-10 18-11 19-15 20-5 7-16 20-18 19-9 9-17 17-16 15-15 15-17 15-18 16-19 15-20 16-18 15-17 14-16 13-14 12-13 11-7 5-13 9-11 8-10 6-8 5-5 4 21-22-1 3-4-29 4 1 7 0-9 1 9-2 10-2 9-1 11-2 12-2 13-2 14-2 15-2 16-1 17-1 18-1 18-1 19-1 19-1 18-1 18 0 17 0 17 1 16 0 16 2 15 1 15 3 15 3 14 3 12 4 8 3 10 4 7 4 6 4 3 8"/>
<path d="M2480 1410l 4-5 7-5 5-5 6-4 7-4 8-5 7-4 9-5 9-4 11-5 8-3 11-4 10-4 10-4-8 4 10-5 10-4 9-3 10-4 10-3 10-3 9-3 10-2 9-1 8-2 9-1 8 0 8 0 8 2 8 3 6 4 4 6 2 8 0 7-2 9-3 7-4 8-5 7-6 8-7 8-9 9-8 8-9 9-11 9-12 9-12 9-12 9-11 8-12 9-10 8-11 8-10 7-7 5-9 7-9 5-6 4 16-14-1 2 1-35 4 1 8 1 9-1 10-1 10-1 10-1 11 0 12 0 12 2 13 1 13 2 13 1 12 2 14 3 13 4 8 3 13 6 13 6 13 7 12 7 11 7 10 8 10 9 8 9 8 10 6 10 4 9 3 8 2 9 1 10-1 10-2 11-3 9-3 12-6 12-4 8-7 13-9 12-5 8-10 11-9 10-12 11-13 11-7 5-14 9-14 9-15 7-8 4-15 7-14 5-15 5-14 4-14 3-9 2-13 2-12 2-13 0-13-1-13-1-9-2-13-2-13-3-12-4-13-6-11-6-11-7-8-8-6-7-4-8-4-8 1-9"/>
<path d="M3393 1313l 7-2 8-1 8 0 9-1 9 0 10-1 11-1 12-2 12-1-9 1 12-2 12-2 12-4 12-3 13-4 11-3 12-4-9 3 11-4 10-4 8-4 8-3 7-2"/>
<path d="M3395 1352l-7 3 8-3-6 3-7 4-6 4-7 5 7-5-7 5-6 6 9-10-6 7 5-8-4 7 4-8-4 9-2 9 2-9-2 9-2 9-2 10-4 9-3 10-3 11 3-9-3 10-2 11-2 11-1 10-2 11-1 11-1 10-2 10-1 10 0 10-1 9 1 8 1 8-2-9 2 7 3 6 5 5 5 3-8-3 7 2 8 0 10-1-9 1 11-2 13-4 14-4 15-5 18-5 18-4 18-4 17-4 10-1 17-3 18-3-9 2 17-4 17-3 9-1 16-3 15-2 14-2 14-1 14-1 13 0 13 1 11 1 10 3 8 2 8 4 8 3 6 5 5 6 4 6 2 8 2 7 0 8-1 9-2 9-3 10-4 12-6 13-6 13-4 8-7 12-7 12-6 7-8 11-9 11-9 11-9 10-10 10-11 10-11 10-12 9-7 5-14 8-8 4-15 7-16 5-17 5-9 2-18 3-20 2-21 2-21 1-23 0-22 1-23 1-22 0-21 1-20 2-20 1"/>
<path d="M1140 2444l-3 10-3 11-4 11-4 11-4 13-5 13-5 14-4 14-4 15-5 16-6 15-6 16-6 16-5 14-6 15-6 16-7 18-7 18-7 19-7 19-6 19-6 19-6 18-5 17 2-9-4 15-2 13-1 12-1 10 1 8-2-8 2 7 4 6 4 5 5 3 6 3-8-3 7 1 9 0 10-1-9 1 10-2 11-2 12-3 12-3 13-3 14-4 15-4 15-4 16-5 16-5 16-5 15-6-8 3 15-6 14-7 15-7 17-8 18-11 19-10 17-10 15-9"/>
<path d="M1275 2666l-3 6-3 6 4-8-2 7 2-9-1 6-1 6 0 6-1 7 0 8 1 9 1 9 1 9 0 10 2 11 2 13 2 15 1 16 2 16 1 17 1 18 1 19 1 20 0 20 0 21 0 19 0 19 1 18"/>
<path d="M1733 2436l-8 6 7-5-8 6-9 8-10 10 9-9-8 11 5-7-9 13-8 15-9 17 4-8-8 18-7 18-5 19 2-9-3 18-2 17 0 17 0 17 1 19 2 20 3 21 4 22 6 23 6 23-2-8 7 21 8 20 9 19 10 16 11 15 11 14 12 12 13 10 14 9 13 7 14 6-8-3 13 5 14 2 13 1 12-1-9 2 12-2 12-4-9 3 12-4-8 4 10-6 9-8-7 6 8-9-6 7 6-10-4 8 5-11 5-11-3 9 3-12 2-11-1 9 1-11 0-11-2-11-3-11-6-11 4 8-6-10-8-9-10-9-11-7-13-6-14-6-14-4-16-2 9 1-16-2-17 0-18 1-18 3 9-2-18 5-19 6-19 8-17 9 8-4-16 9-14 8"/>
<path d="M933 3533l 2 8-2 9-4 7-5 7-9 9-7 5-7 4-9 2-3 0-5 0-9-2-5 0-3-1-1-1-4-8 1-9 4-8 5-8 5-7 7-6 8-4 9-4 2 0 9-2 6-1-9 2 6-1 8-2 7-2 9-1 9-1 10-1 11 0 12 0 13-1 15-1 16-2 17-1 17-2 19-2 18-2 19-2 19-1 18-1 18-2 16-1 15-1 15-1 12-1 12 0 10-1 9-1 8 0 7 0 6 0 7 1 5 1 8 3 4 4 3 4 2 5 2 9 1 6 1 9-1 10 0 12-2 13-2 13-3 14-3 15-3 17-3 18-5 18-2 9-5 19-5 19-6 21-5 21-5 21-6 20-5 21-6 21-6 22-7 22-5 21-6 20-6 20-5 20-5 18-5 18-4 16-5 16-4 15-4 14-4 12-4 10-3 9-4 8-3 7"/>
<path d="M5633 1334l-2-8 3 8 5 7 3 6 3 8 2 8 2 8 2 9 0 9 0 11 0 12 0 13 1 14 0 15 1 16 2 17 1 19 2 18 3 19 4 17 3 17 2 17 3 17 2 17 3 17 2 15 2 16 2 14 2 14 2 14 2 12 0 10 0 10 0 8 0 8-1 7"/>
<path d="M6034 1346l 5-4 6-4 8-5 6-3 8-3 7-3 8-2 9-2 8-1 8 0 9 0 9 1 10 1 12 2 11 1 12 2 11 2 13 2 12 3 13 2 12 3 12 3 10 3 10 4 8 3 10 4 9 5 9 5 8 6 7 6 7 6 5 8 3 8 3 8 1 10 0 11-3 13-2 8-6 14-7 16-4 8-9 17-11 18-12 18-13 20-6 7-16 19-17 19-9 9-19 18-21 16-7 5-22 15-22 15-22 13-21 12-20 11-19 11-18 11-16 10-14 10-13 10-12 8-9 7-9 6-6 4 17-15-2 1-7-34 5-1 9-4 11-5 13-4 13-5 15-4 16-3 17-3 9-2 18-3 19-2 19-2 19-1 18-2 17 0 16 0 16 0 15 1 14 0 13 1 12 1 12 1 10 2 11 1 10 2 10 2 8 2 9 3 7 2 8 2 7 3 7 3 7 3 6 3 6 3 3 8-3 9-4 8-5 7"/>
<path d="M5717 2463l 6-3 6-2 8-3 9-3 10-2 9-2 11-2 13-1 14-2 14-1 15-1 16 0 15 0 14 1 13 1 13 1 12 2 11 2 10 3 10 3 9 4 8 3 8 3 6 4 6 4 6 5 4 6 3 6 2 9 1 7-1 7-2 9-2 8-4 8-4 7-5 7-6 8-7 9-8 10-8 11-8 10-9 10-9 9-9 10-10 9-10 9-7 5-11 7-11 6-8 4-9 4-10 4-9 4-10 3-11 4-9 3-10 2-9 3-8 2-6 2-5 2-1 1 16-53 3-1 5-1 7-2 9-1 7-1 9-1 9-2 10-1 10-1 12-1 13 1 12 0 12 0 13 0 12 0 13 2 13 3 13 3 12 4 8 3 11 5 11 6 10 6 10 6 8 7 8 6 7 8 6 7 5 9 4 8 2 9 2 9 1 10 0 11-2 11-3 9-3 12-4 12-6 12-4 8-7 11-7 12-5 7-8 10-9 10-9 9-10 9-10 8-7 6-11 7-11 6-11 6-8 4-11 4-12 3-8 2-12 2-12 0-12 0-13-1-9-1-12-3-13-4-13-5-13-6-11-7-10-7-9-8-7-9-6-9-4-8 1-9 4-8 5-8 6-7 6-6"/>
<path d="M6273 2409l 6-3 7-2 9-1 6-1 8-2-9 2 9-2 9-2 10-2 11-3 13-2 9-2 12-2 13-2-9 1 13-2 12-4 13-2 9-2 13-1 14-2-9 2 14-3 14-3 13-3 12-3 12-4 11-3"/>
<path d="M6329 2442l-7 7-7 7-7 7 9-9-6 8 5-7-6 10 5-8-6 11-5 12-5 12-4 12-4 13 2-9-3 13-2 13-2 14-2 13-1 12-2 10 0 10-1 10 0 10 1 10 1 9 1 8 2 7-3-8 3 7 2 6 3 5 4 3 5 3-8-3 5 1 6 1 6 0-9 1 8-2 8-3-9 3 10-4 11-5 12-6 13-6 14-6 8-3 14-5 14-4 14-4 15-3 15-3 9-1 15-2 15-2 15-2 16-2 15-2 14-2 13-1 12 0 12 0 10 1 9 0 8 2 7 3 8 3 9 4 7 5 7 4 5 5 5 5 4 6 3 6 2 8 2 8 1 8-1 9-2 10-2 9-3 11-4 11-5 12-6 13-4 8-7 13-7 13-9 13-5 7-9 13-11 12-9 10-12 12-13 10-8 6-13 9-15 8-8 4-14 7-16 6-17 6-17 5-16 4-9 2-16 3-16 1-16 0-14 0-14-1-13-2-9-1-12-3-12-3-11-6-11-7-10-9-8-9"/>
<path d="M7022 2362l 8 3-8-3 8 2 9 2 10 1 10 1 11 1 12 0 14 0 15 2 16 1 17 0 17-1 17-2 16 0 15 0 14 0 13 0 12-2-9 2 11-2 10-3 9-3 8-2 7-2 9-2 7 0 6 0 6 2 6 2 8 3 5 3 5 3 3 5 2 9 1 7-1 10-2 11-2 9-4 12-3 12-5 14-4 15-4 17-5 19-5 19-5 19-5 20-6 19-4 17-5 17-5 17-5 17-4 18-5 19-6 18-5 19-5 18-6 18-5 17-6 16-5 15-5 14-4 13-4 12-4 10-3 9-3 7-2 5-3 5-4 8"/>
<path d="M6827 1314l 3 7 2 8 2 7 0 7 0 8-1 9-1 9-1 9-2 8-3 9-2 9-3 9-4 9-5 10-4 8-5 10 4-8-6 11-5 13-6 13-5 13-6 13-5 14-5 12-4 12-4 11-3 10-3 8-2 8 2-9-1 7-1 7 1 6-3-8 3 6 5 5 5 3 7 3-8-3 7 2 8 2 9 3 10 2 12 2 11 2 13 1 13 0 14 0 15 0 14 0 13-1 14-1 13 0 14-2 13-1 14-2 13-2 14-2 14-1 15-2 14-2 14-1 12-2 12-1 12-2 11-2-9 2 11-3 10-2 9-3 8-1 6-2 5-2-8 4 4-3 9-3"/>
<path d="M7015 1442l-1 7 2-8-1 8 1 9 0 9-1 10 1 10 1 12 2 13 3 14 2 14 2 15 3 16 2 18 2 17 1 16 1 15 1 15 1 16 0 16 0 16 0 16-1 16 0 16-1 16 0 16-1 15-1 13-1 12-1 11-1 10-2 9-1 9-1 8-1 7-2 9"/>
<path d="M5848 3390l-5 2-5 3 8-4-5 3 8-5-5 4 9-9-5 6-7 8 6-8-7 10-8 12-8 14-9 17 4-9-9 19-9 21-9 22-9 24-9 25-9 25-8 26-8 26-7 25 2-8-6 26-6 26-4 26-4 24-2 24-1 24 0 22 1 22 2 21 4 18 4 17-2-7 5 15 7 15 6 14 7 14 8 12 9 11 9 8 10 8 11 6 12 4-8-3 12 3 13 1 14-1-9 2 14-3 14-5-9 3 13-7-8 5 13-9 13-10 12-11-7 6 12-11 11-12 11-11-6 6 10-12 8-12-5 7 7-12 6-11 4-11-3 8 4-11 2-10 1-9-1 9 0-8 0-9-2-7 4 8-4-7-5-7-7-6-8-6-9-5-9-4-10-3-10-3-11-2 9 1-11-1-13 0-12 0-12 0-12 1-12 1-11 2-11 2 8-2-10 3-10 4-8 4 8-4-9 4-7 5-8 5-6 5 7-6-5 5 9-9-5 4 6-7-3 5 4-8-2 4-2 5-4 8"/>
<path d="M1607 6310l 9-1 7 3 4 2 3 6 2 9 2 8 2 9 2 11 1 14 2 15 2 18 1 18 2 20 1 21 1 21 1 21 1 21 1 22 0 22 1 22 0 22 0 22 1 21 1 21 1 19 1 18 0 16 2 15 0 13 1 12 0 10 1 9"/>
<path d="M2208 6304l 6-2 6-2 9-1 6-1 8 0 8 0 8 1 9 1 10 2 10 2 11 2 12 3 13 3 14 4 14 3 14 4 14 4 8 3 13 6 13 5 12 7 11 7 10 8 9 9 7 9 5 11 3 11 2 9 2 12 1 12-2 14-3 14-2 9-6 15-7 16-4 8-9 17-11 18-13 18-5 7-14 19-15 18-15 18-15 17-9 9-15 16-16 16-16 14-15 14-14 12-15 12-7 5-15 10-14 9-14 8-8 3-14 7-13 5-11 4-10 4-8 3-6 3-5 2 15-10-1 2 11-46 2 0-9 2 6-2 9-2 10-2 12-2 13-3 15-3 16-4 16-5 17-5 17-4 17-5 19-4 19-4 19-4 9-2 19-3 20-2 19-2 18-1 18 0 17 0 16 1 15 2 14 2 14 3 13 3 11 3 8 3 9 4 8 4 7 4 5 4 5 4 5 4 2 8-2 9-5 8-5 7"/>
<path d="M3235 6359l-2-2-4-7-1-3 1-9 0-3 4-8 4-8 3-3 6-7 6-6 4-3 5-3 8-5 6-2 8-4 7-2 8-3 8-3 10-2 11-2 9-1 12-2 13-2 14-1 13-1 13 0 13 1 12 2 12 1 10 2 10 3 9 2 8 3 7 4 6 4 5 4 2 6 2 9 0 7-2 9-3 8-4 8-5 9-5 7-7 9-8 9-9 10-10 9-10 10-12 10-13 9-7 6-13 9-14 9-13 8-13 7-11 6-11 6-10 6-8 5-8 5-6 4-4 3-8 4-2 1-9 2-9-2-3-8 0-9 4-8 5-7 6-7 6-6 2-2 5-3 8-5 6-3 8-3 8-4 8-3 10-2 11-3 12-2 9-2 13-2 14-2 16-1 16-2 16 0 17-1 16 1 17 1 16 2 16 3 14 5 8 3 13 5 12 7 10 7 9 8 8 8 6 9 5 10 4 10 2 9 3 11 1 11-1 13-2 14-2 9-4 14-6 15-5 8-8 15-9 14-5 7-11 14-11 13-9 9-14 13-15 12-7 5-16 10-17 9-8 4-17 8-17 7-18 6-18 4-8 2-17 4-17 2-15 2-15 0-14-2-8-1-13-3-12-3-10-4-10-5-8-6-8-8-7-8-5-9-3-8-4-9"/>
<path d="M4318 6256l 9-9-3 4 5-8-3 5-3 5-4 7-3 7 4-8-4 8-5 10-4 10-4 8-6 10-6 11-7 12-7 13-8 13-8 13-9 14-9 14-8 13-8 14-7 12-7 13 4-8-5 11-5 11-4 9-4 9-2 8 2-9-2 8 0 7 1 7-2-8 2 5 3 6 5 4 6 4 8 3-8-4 9 3 10 2 12 0 11 1 12-1 12 0 13-1 14-1 14-2 15-2 15-2 16-1 17-2 16-1 18-3 17-2 18-2 17-3 18-3-9 2 18-4 17-4 17-4 16-4 14-4 12-3 11-3 10-3 9-4-8 3 8-3 8-4"/>
<path d="M4470 6327l-2 4 5-8-2 5 4-8-2 4-2 6 3-9-1 7 0 8 0 9 0 10 1 12 2 13 2 14 2 15 3 16 2 16 3 17 2 16 3 18 3 18 3 17 3 17 2 17 3 16 3 17 3 16 2 16 3 15 3 16 3 15 2 15 3 13 3 12 2 12 2 10 2 9 1 9-3 9"/>
<path d="M1440 7914l-2-3 0-3 0-9 1-3 1-4 3-9 2-4 5-7 3-4 6-7 3-4 7-6 5-4 6-5 8-5 9-5 7-5 10-5 11-5 9-3 12-4 12-4 13-3 13-4 14-2 9-2 13-1 14-1 14-1 14 0 15 0 16 0 16 2 15 2 14 2 14 3 13 4 7 3 13 5 11 6 10 7 9 8 8 7 6 9 4 9 2 8 2 10 0 11-2 13-2 8-4 14-6 15-8 15-4 8-10 17-10 17-13 18-5 7-13 18-15 19-16 18-15 18-15 17-9 10-16 16-15 15-15 15-15 14-15 14-15 14-14 11-8 5-14 11-13 8-12 7-11 7-9 5-9 4-8 4-8 4-7 3-5 3-1 0 17-52 3-1 6-2 7-2 9-2 11-1 12-3 12-2 13-2 13-3 13-2 9-2 14-2 15-3 14-2 16-2 15-2 16-1 15 0 16 0 16 0 16 0 15 0 15 1 14 1 13 1 13 2 13 3 12 3 12 4 8 3 2 8-2 9-4 8-6 7"/>
<path d="M2220 7903l-2-3-4-7-2-3-1-4 0-3 1-9 1-3 4-8 5-8 3-4 5-6 7-6 4-4 6-3 8-5 6-3 9-3 7-2 8-2 10-2 9-1 10-2 12-1 12-1 13 0 14 1 14 1 13 1 14 3 14 3 13 4 12 3 12 3 10 4 8 3 9 4 8 5 6 5 5 5 3 7 2 8 2 7 0 7-2 8-3 9-3 8-4 8-5 9-5 7-7 8-8 9-9 9-8 9-10 8-11 8-7 5-12 8-12 8-13 7-13 8-12 7-11 7-11 7-10 6-9 6-8 5-7 4-6 3-4 3 26-30-1 3 0-17 3 2-8-3 7 1 10 2 11 2 13 1 15 1 16 1 18 0 20 1 20 0 20-1 20 0 20 1 19 0 18 2 16 1 15 1 13 3 12 2 11 3 8 4 9 4 7 5 6 6 4 7 3 8 3 9 1 9 0 10-2 10-3 9-3 11-5 13-6 13-4 8-7 12-8 13-6 7-9 12-9 9-12 11-12 9-8 6-14 8-16 9-8 3-18 8-18 8-19 7-20 6-19 6-18 5-9 2-18 4-16 3-15 1-14 0-12-1-9-2-10-3-9-4-8-5-5-6-4-8-3-8-2-8-1-10 1-9 4-8 5-8 5-6 7-6"/>
<path d="M3282 7827l 3-8 2-4 5-7 5-7 7-6 8-4 8-3 9-2 4 1 8 3 4 4 3 6 2 6 3 8 2 7 1 8 0 10-1 10-3 10-2 9-3 11-4 11-4 12-5 14-4 14-6 14-5 15-6 14-5 15-6 15-5 13-4 12-3 12 3-9-2 10-1 10 0 8 1 7 1 6-2-8 3 5 3 6 4 4 5 4 6 3-8-3 8 2 10 1 11 1 11 0 14-1 15-2-9 2 16-4 17-4 19-4 20-4 21-5 20-5 20-6 20-5 19-6 19-5 17-6 18-7 16-6 16-6 15-6"/>
<path d="M3520 7879l-5 2-5 1 9-2-5 2 8-4-5 2-5 3 8-5-5 3-3 4 9-9-4 5 5-8-3 5 5-8-3 7-2 7 3-9-2 8-1 9-1 10 0 11 0 12 0 14 1 16 1 16 2 18 1 18 2 20 2 19 1 20 2 20 1 20 0 20 1 21 2 19 1 18 2 17 2 15 3 15 4 15"/>
<path d="M4428 7848l 0 5-1 4 0 6 0 6 0 7 0 6 0 7 1 7 1 7 2 8 1 9 0 10 1 10 1 11 1 12 1 12 1 14 2 13 1 14 1 15 1 15 0 15 1 15 1 16 1 16 1 16 1 16 1 15 0 15 1 14 1 12 1 13 0 11 1 11 1 10 0 9 0 9 0 8 0 9 0 8 0 6 0 6 0 4-1 5-1 4-2 9-4 8"/>
<path d="M1619 8876l 8 3 2 2 3 9 1 5 1 7-1 8-3 9-2 9-3 12-4 12-6 15-7 16-8 18-9 19-9 20-9 21-9 19-10 20-4 8-9 18-9 17-8 15-8 14-6 13 4-8-6 12-4 10-3 10-2 7 2-8-1 6-1 5 1 6-2-9 3 4 5 4-8-4 7 3 7 1 9 2 9 1 11 0 11 0 13-1 13-2-9 2 12-2 13-4 14-3 14-4 15-4 14-5 14-5 14-5 14-5 14-6 14-4 14-5 14-4 13-4 13-5 12-5"/>
<path d="M1705 9053l 7-5-3 3-3 3 9-10-3 4 5-7-2 4 4-8-3 7-2 7 2-8-1 8-1 10 0 11 0 12 1 14 1 16 3 17 2 17 2 19 3 21 3 21 3 22 4 23 4 23 4 23 4 25 5 24 4 24 5 22 5 20-2-9 6 19 5 17 3 8"/>
<path d="M2348 9021l 5 7 3 9 3 8 2 12 3 12 2 14 2 15 2 16 2 18 2 19 1 20 0 20 1 21 0 21-1 21 0 20 0 19 0 19 0 19 0 19 0 17 0 17 0 15 1 13 1 13"/>
<path d="M3116 9059l 0-3 0-9 4-8 1-3 5-7 6-7 7-6 3-3 8-4 5-2 8-4 6-2 8-2 9-1 9-1 9 0 10 0 11 0 11 1 12 2 12 1 12 2 13 3 14 2 13 4 13 4 8 3 13 6 13 5 12 6 11 7 11 8 10 9 8 9 6 10 5 10 4 10 2 8 3 12 1 12-2 12-3 14-2 8-5 14-7 15-5 8-8 14-10 15-10 14-5 7-12 15-13 14-9 9-13 14-14 14-13 12-13 13-14 12-14 11-13 11-13 10-12 9-11 8-10 7-8 6-7 6-6 4 9-10-2 3 9-32 3 1-8-3 8 0 9 0 11-1 12-1 14-3-9 2 14-3 17-4 18-4 20-4 21-5 23-5 24-5 26-5 27-4 28-5 8-1"/>
<path d="M4189 8994l-6-1-5-1-4-2-3-3-4-7 0-4 1-9 3-8 3-4 4-7 6-7 5-5 7-6 6-4 8-4 7-4 9-4 9-3 10-3 12-4 13-3 14-3 14-2 9-2 16-2 17-2 17-2 17-2 17-1 16 0 16 0 14 1 14 1 12 2 10 2 9 2 8 4 7 3 5 5 3 5 2 9 0 7-1 8-2 9-3 9-5 8-5 9-7 11-6 7-9 11-9 10-12 11-12 12-13 11-14 11-15 11-14 11-14 10-13 10-12 10-10 9-9 8-8 7-6 6-6 6 9-9-5 5 5-7-3 5 7-17-1 4-2-8 2 4 5 4 6 3-8-3 8 2 10 3 12 2 13 3 14 2 16 2 16 2 16 1 18 2 17 2 17 3 16 3 15 3 13 3 12 4 8 3 11 6 9 5 8 7 7 8 5 7 3 9 2 8 2 10-1 10-2 13-2 8-3 14-5 13-6 15-4 8-8 14-10 14-5 7-12 14-12 14-9 9-14 13-15 13-15 12-7 5-15 11-16 9-16 9-17 8-8 4-16 7-16 7-15 5-16 4-8 2-15 4-15 2-14 2-14 0-15-1-15-2-9-2-16-4-15-6-16-7-15-8-3-8 1-9"/>
<path d="M5869 7905l 4 4 2 8-2 9-4 8-5 7-9 10"/>
<path d="M5840 8119l 9-2-5 2 8-4-4 2-4 2 7-5-3 3-8 5"/>
<path d="M6793 7734l-5 5-5 6-6 7-8 7-8 7-9 8-10 8-10 9-11 9-12 9-11 9-12 9-13 9-12 9-11 9-12 9-11 8-9 9-9 8-7 7-7 7-6 5-5 6 9-10-5 6 5-8-3 5 5-26 1 4 3 2 5 2-7-3 5 2 5 1 5 1 5 0 5 1 7 1 6 0 6 1 6 1 5 1 6 2 7 1 7 2 9 2 9 2 9 1 9 2 9 1 7 2 6 1 6 2 7 1 6 2 6 1 6 2 6 1 5 1 6 1 5 0 7 1 6 0 6 0 5 1 4 0 8 3 2 9-2 8-4 8"/>
<path d="M7187 7767l 1-5 3-8 2-5 5-7 3-5 6-7 4-5 5-4 7-6 5-4 5-4 8-5 6-3 6-3 8-3 7-3 7-2 7-1 6-1 9-2 7-1 8 0 8 1 8 0 7 1 6 1 7 1 8 2 9 2 9 3 10 2 10 3 10 3 8 4 8 3 8 4 6 3 5 4 6 4 6 5 6 4 6 6 5 6 5 7 5 8 5 7 3 8 2 8 2 8 2 8 0 9 0 9-1 9-2 9-2 9-3 11-5 12-5 8-6 12-7 12-7 11-8 12-5 7-9 11-10 12-9 9-11 12-12 12-13 13-12 12-12 11-11 11-12 11-12 10-12 9-11 8-11 8-10 8-9 8-9 8-8 6-7 5-8 5-7 5-8 4-8 4-7 3-7 3-5 2-9 2-2-1-9-1-4-8 1-9 4-8 5-8 6-7 6-5 3-2 8-5 8-3 6-2 7-2 9-1 6-1 7 1 7 1 9 1 8 2 9 1 9 1 9 1 8 1 9 2 8 2 8 2 9 2 9 2 9 2 9 2 8 2 9 1 8 1 8 1 8 0 7 2 7 1 7 1 7 2 7 1 7 2 7 3 7 2 6 2 7 3 8 3 6 2 4 3"/>
<path d="M7720 7775l 2-5 5-7 2-4 6-7 4-4 7-6 5-4 8-4 6-4 8-3 8-4 8-3 9-3 11-3 12-4 12-3 11-2 12-3 12-2 13-4 15-3 14-4 14-3 12-2 9-2 12-2 12-2 11-1 12-1 13-1 14-1 13 0 11 1 9 1 7 2 8 4 6 3 4 5 2 5 3 8 0 6-1 7-3 8-2 7-5 8-4 7-5 7-6 7-9 9-8 8-9 9-11 9-11 8-12 9-11 9-11 8-7 5-11 7-9 6-8 6 7-5-7 5-6 5-7 5-7 6-6 4 7-5-5 4 14-16-3 3 5-25 1 3 3 2-8-3 6 2 6 1 9 1 11 1 12 2 13 0 13 0 13 1 13 2 14 2 15 2 13 2 14 2 14 2 13 3 13 3 12 3 12 3 10 4 8 3 9 5 8 4 6 5 6 4 4 5 3 6 2 7 2 8 0 7-1 8-2 8-3 9-3 9-5 10-4 8-6 11-7 11-8 12-5 7-10 11-9 10-10 10-13 11-13 9-7 5-14 9-13 8-14 8-14 7-8 4-14 6-14 5-13 4-8 2-13 2-14 2-13 1-12 0-11-1-9-2-11-2-9-3-8-3-7-4-7-4-5-5-5-6-4-6-3-6-4-8-2-6-1-5 1-9 3-8"/>
<path d="M8660 7747l 0-2 57-35 0 2-3 9-1 5-3 7-4 8-4 8-5 10-6 10-6 10-5 10-7 11-6 11-7 11-6 9-6 10-8 11-8 12-8 12-7 11-7 10-6 10-6 9-6 8-4 8-4 7-4 6 5-8-3 7 2-9-1 6 0 7 2 7-2-8 3 5 5 5 7 3-8-3 8 3 11 1 11 1 13 0 12 0 14-1 15-1 16-2 17-1 17-3 17-3 18-3 19-3 20-2 19-3 18-2 18-2 17-3-9 2 15-3 15-4 13-3 13-3 13-3 12-2 11-3 10-2 9-2 8 3 2 9-2 9-4 8-6 7"/>
<path d="M8771 7854l-2 5 6-17 0 7 0 8 2 8 2 8 2 8 2 8 1 8 1 12 1 13 2 14 1 14 0 14 0 14 0 16 0 15 0 14 0 13 0 13 0 13 1 12 1 10 1 10 1 9 1 10 1 9 2 9-2-8 2 6 4 6 4 5 2 8-2 9-5 8"/>
<path d="M9468 7674l 0 8 0 8 1 8 1 10 1 11 1 12 2 13 2 13 1 15 2 16 2 17 2 18 3 20 2 19 1 19 2 19 1 21 0 20 1 21 1 21 1 21 0 21 0 21 0 20 0 19 1 18 0 18 0 15 0 14 0 12 0 11-1 8-1 8-1 6 0 5-2 9-4 8"/>
<path d="M9896 7844l 6 3 6 3 6 3-8-3 7 2 7 2 7 1 7 2 6 3 7 2 7 1 9 2 9 3 9 2 8 3 8 3 9 2 8 2 8 2 9 2 8 2 8 3 10 3 9 4 8 3 7 2 8 3 7 3 7 3-7-3 6 2 8 2 6 3 8 3 4 3 2 9-1 5-2 9-5 8-5 7-4 5-9 9-6 4-7 6-7 3-6 4-8 4-7 3-8 3-7 3-9 3-9 3-10 4-10 3-11 3-10 3-9 3-10 3-9 2-10 3-10 3-10 3-8 2-9 3-8 3-8 2-8 3-8 2-8 3-8 3-9 3-7 3-8 3-6 2-7 3-6 2-6 3-5 2-5 2"/>
<path d="M5851 9111l"/>
<path d="M5794 9326l-5 0 9 2-4 0"/>
<path d="M6811 9102l-4 1-4 0-4 1 8-2-5 2-6 2-7 3-8 3 8-4-8 4-9 5-10 6-11 7-12 7-12 7-13 6-8 4-12 6 8-4-13 6-12 6-13 7-12 6-12 7-11 6-11 6-9 7-9 6-7 5-8 4-6 4-6 3-4 3 26-30-1 3 0-17 3 1-8-3 6 2 6 1 6 1 6 0 6 1 7 0 7 1 7 1 7 2 7 1 7 2 7 2 8 2 8 2 7 2 8 3 8 3 8 3 7 3 8 3 6 3 6 3 6 3 6 3 5 3 5 2 5 3 5 2 4 3 5 3 4 3 4 3 4 2 4 3-8-4 5 2 5 1 8 3 2 9-2 9-4 8"/>
<path d="M7319 9020l 5 1 8 3 4 4 2 6 3 8 1 7-1 8-1 10-2 10-2 10-1 9-2 9-2 9-3 7-3 8-4 8-4 9-4 10-3 10-4 9-5 10-4 9-4 9-4 8-3 8-4 8-4 7-3 6-2 6-2 6-2 5-1 5 2-9-1 5-1 5 1 5-2-9 2 4 4 4 5 3 6 2-8-3 6 1 8 1 8 1 8 0 9 0 10 0 10 0 11-1 12-1 12 0 13-2 14-1 13-2-9 1 14-2 14-3 15-3 14-4 15-3 14-3 13-3 12-3 13-3 11-2 11-3 9-2 9-2 8-2 8-3 8-2 7-2 7-1 6-2 6-2 6-2 5-1 5-2 9-2 8 4 2 8"/>
<path d="M7466 9136l-3 4 10-15-2 4-1 6 2-9-1 6 0 6 0 6 1 6 2 7 1 6 1 7 1 8 1 8 1 8 1 8 2 9 1 9 1 10 1 11 1 11 0 11 1 12 1 11 0 11 0 10 0 10-1 9 0 9 0 9 0 9 0 10-1 8 0 8 0 7 0 7 1 7 0 7 0 6 0 6 0 5 0 6 0 6 0 5 0 4 0 4-2 9-5 8-1 3-6 7-9 10-7 5-8 4-3 1-9 2"/>
<path d="M9921 9129l 4 4 5 5 6 3 5 4 5 4 7 4 7 3 7 4 8 3-8-3 9 3 9 3 9 4 10 3 10 2 11 3 11 2 11 3 11 2 12 2 12 2 13 2 13 2 13 2 13 2 12 2 11 2 11 2 11 1 11 1 9 1 10 1 8 0 7 0 7 0 6 0 5 0 7 3 3 2 2 8-2 9-1 3-4 8-6 7-9 10-4 4-6 5-7 5-8 5-8 5-10 5-8 4-10 5-11 5-11 5-13 5-13 5-14 5-14 5-14 6-15 5-14 5-15 4-14 4-14 5-15 5-13 5-14 4-14 4-12 4-13 4-11 4-11 3-10 3-11 3-10 3-9 2-9 2-9 3-8 2-8 1-8 2-7 1-6 0-5 0-9-2-4-1-4-1"/>
<path d="M7799 9154l-1-5 1-9 1-5 4-8 5-7 4-5 5-7 7-6 5-4 5-3 8-5 5-3 9-3 6-3 6-1 7-2 8-2 7-2 7-2 8-2 7-2 8-1 8-2 8-1 8-2 9-1 8-1 7-1 8 1 7 2 8 3 7 4 4 5 3 6 2 8 1 8-2 8-2 9-3 8-4 8-5 7-5 8-5 7-9 9-7 7-8 7-7 5-9 6-9 6-9 7 7-5-9 6-9 7-8 6-9 6-10 6-10 6-9 5-9 4-8 5-8 4 7-5-5 4 14-16-2 4 4-26 3 3-8-3 6 1 8 0-9 2 9-2 9-3 11-2 11-3 12-3 12-3 13-3 13-3 9-1 13-2 13-1 13 0 14 0 13 1 13 2 12 3 11 3 7 3 11 5 9 6 9 8 7 8 6 9 5 10 3 11 2 9 2 11 1 11-1 11-2 10-2 9-4 9-4 8-5 9-6 9-6 7-7 10-9 9-8 9-9 8-8 5-11 8-11 6-13 7-8 4-12 5-12 4-12 3-8 2-12 2-11 1-10 1-9-1-9-1-8-2-7-2-6-3-5-3-5-5-3-6-4-8-2-5 1-9"/>
<path d="M8393 9082l 8-3 9-3 9-2 10-3 11-2 12-3 9-1 13-2 14-2 15-1 15-1 15-1 14-1 12 0 12 0 12 0 11 1 10 2 9 2 9 4 8 3 8 4 6 6 4 7 3 9 2 9 1 10 0 10-3 11-2 9-4 10-5 12-5 8-6 11-7 12-9 13-9 12-5 8-10 12-11 13-9 10-12 12-13 13-14 12-16 13-17 13-7 5-17 12-18 11-18 12-17 11-15 10-13 10-13 8-10 6-9 6 7-5-6 5 19-25-2 4 0-17 4 3-8-4 8 1 10-1 12 0 13-2 14-2 17-3 17-3 18-3 19-3-9 2 18-4 19-5 18-5 17-4 18-3 9-2 18-3 19-2 22-2 24 0 24 2 24 2 7 3 2 8"/>
<path d="M9201 9058l-4 4 9-9-4 5 5-8-2 6 4-8-2 7-3 7-2 8-2 8 2-8-2 10 0 11-1 14 0 15 1 16 0 18 1 18 2 20 2 20 2 20 2 22 2 22 4 22 4 22 4 21 3 21 4 21 2 21 2 21 2 22 2 20 2 20 3 20 3 19 3 19-2 9"/>
<path d="M6917 10688l-4-2-3-3-3-3-2-2-4-2 9 2-3 0 8-2-4 1 8-4-4 3-5 3 7-6-5 4-5 5-6 6-7 6-8 7-7 5-9 7-12 7-12 8-14 8-14 9-15 8-16 8-16 9-17 9-16 10-16 9-17 9-15 8-14 7-13 7-12 7-12 7-11 5-10 6-8 4-7 4-6 4-5 4 7-5-4 4 18-25-1 4 0-18 2 4 5 3-8-3 6 2 7 1 6 1 8 1 8 0 10 0 10 0 11-1 11 0 12 0 13 1 13 1 13 1 14 1 14 2 14 3 14 2 14 3 15 2 14 3 14 3 13 4 12 3 11 4 8 3 11 4 9 5 10 5 9 4 9 4 8 4 8 4 6 4 6 5 5 3 4 4 4 3 4 3 3 4 3 4 2 4 3 9-3 8-4 8-5 8"/>
<path d="M7298 10555l 1-9 0-4 1-5 2-3 0-1 54-18-1 4-3 8-3 9-4 11-5 12-5 15-6 16-6 18-8 19-8 20-9 22-9 22-9 23-10 24-10 24-10 23-11 23-11 22-9 21-9 20-7 18-6 16-4 14-3 12 2-9-1 10-1 8 0 7-2-9 2 5 3 5 5 3 6 3-8-3 6 2 8 0 7-1 8-1 9-1 10-1 11-2 12-1 13-2 14-2 15-1 16-3 16-2 17-3 18-2 18-2 19-3 19-2 19-2 18-1 18-2 16-1 15-2 14-1 12-2 11-2 8 3 3 9-3 9-4 8-5 7-9 9"/>
<path d="M7389 10805l 7-5-3 3 14-16-2 4 4-8-2 5-2 7 2-8-1 8-2 8-1 11 0 11-1 13-1 14 0 16 0 16 1 18 1 18 0 17 1 19 2 19 1 20 1 20 2 19 1 19 3 19 2 17 3 17 4 15 3 13-2-8 4 12 4 11 3 8-3 9"/>
<path d="M9556 10535l 6 3 6 3 7 3 6 2 7 4 8 3 9 4 10 4-8-3 9 3 10 3 10 2 11 4 12 3 13 3 14 3 13 2 13 2 13 2 13 2 13 1 13 0 13 2 11 1 11 1 10 0 9 0 8 0 7 1 6 2 8 3 5 2 5 3 3 3 1 4 2 9 0 4-2 9-2 5-5 8-5 7-4 5-5 6-9 9-6 7-8 7-7 5-11 7-12 7-13 7-8 4-16 7-17 7-18 8-20 7-21 7-21 6-21 6-21 6-21 6-22 6-22 5-24 5-8 2"/>
<path d="M5876 10700l-4-8"/>
<path d="M5935 10783l 7-5-3 4 14-17-2 4 6-17 0 5 1 5-2 9"/>
<path d="M1488 10511l 2 8 1 4 1 8 0 9-1 11-3 11-2 9-3 12-4 14-5 15-5 15-6 16-6 16-7 17-7 17-8 18-8 17-8 17-8 15-4 8-7 15-8 15 4-8-6 13-5 11-4 11-3 10-3 8 2-9-1 7 0 6-2-9 2 5 4 3-8-3 6 2 7 0 9 0 11-2-9 2 12-3 14-2 16-3 17-4 9-1 18-3 19-4 19-3-9 2 19-4 19-4 19-3 19-5 18-4 18-4 18-4 19-4 17-4"/>
<path d="M1568 10748l 8-4-5 3-4 3 7-5-5 5 9-10-5 6 6-7-5 5-4 8 5-8-4 8-4 10-3 10 3-9-2 11-2 13-1 13 0 15 0 15 1 16 1 17 1 17 2 19 2 20 3 21 4 22 4 23 4 23 5 23-2 9"/>
<path d="M7806 10733l 3-5 4-8 3-4 6-7 4-3 6-6 4-3 4-2 4-3 5-4 6-4 8-5 6-3 7-3 7-4 7-4 8-5 9-4 8-4 10-3 9-2 9-2 10-1 10 1 10 0 10 1 9 2 10 3 8 3 9 5 9 6 8 7 8 8 6 8 5 9 4 9 2 9 3 10 1 12 0 13-1 14-3 16-4 19-3 8-6 21-9 22-9 21-5 8-10 19-12 18-12 17-5 7-12 16-12 16-12 14-12 14-9 9-12 12-11 12-11 10-10 10-9 7-9 7-7 5-8 5-7 5 8-5-5 4-2 1-7-40 2-1 5-3 7-3 7-4 7-4 9-4 9-6 10-4 9-4 11-4 13-3 14-4 14-3 15-3 9-1 16-3 16-1 16 0 17 1 16 1 17 3 16 3 17 4 7 3 3 9-2 9-5 8-5 7-9 9-7 6"/>
<path d="M8317 10614l 7-3 8-2 9-3 9-2 11-3 11-2 12-3 13-4 13-3 15-2 9-2 13-1 14-2 13-1 12 0 12 1 9 2 9 4 7 3 7 3 5 5 2 7 3 8 1 8-1 10-2 9-3 10-5 10-5 8-7 11-5 8-8 11-8 10-9 9-9 9-10 8-11 8-10 8-9 7-8 6-8 6-8 4-7 4-7 4-5 4 7-5-5 3-3 3 19-25 0 2-8-21 3 0-9 1 7-1 10-3 10-2 11-3 13-3 14-3 15-4 15-3 14-3 14-3 9-1 13-2 13-1 13-1 13 1 12 2 11 3 8 3 10 4 8 5 8 5 7 7 5 7 3 9 2 8 2 11 0 11-2 14-3 15-3 9-4 16-7 16-8 16-4 8-9 15-9 16-10 15-10 14-6 7-10 14-10 12-9 9-11 11-12 10-7 5-12 8-12 7-8 4-12 6-11 4-12 3-9 2-11 2-10 1-10-1-9-1-9-3-8-5-6-7-4-8-4-8-3-10-3-11 1-9 4-8 5-8 5-6 7-6"/>
<path d="M9049 10512l 0 7 1 9 0 9-1 10-1 10-1 12-1 13 0 13 0 15 0 17 0 18 0 20 1 21 2 23 2 24 2 25 3 26 2 28 3 28 4 29 3 30 3 30 4 29 5 28 5 28-2 7-3 6"/>
<path d="M4274 10621l 5-2 8-4 6-1 9-2 8 0 8 0 9-1 10 1 11 1 12 2 13 2 13 2 15 3 16 3 16 3 16 5 15 4 15 5 8 3 13 6 11 5 10 7 9 7 7 8 5 8 3 10 2 8 2 11-1 12-2 13-2 9-4 14-6 15-7 15-4 8-9 16-11 16-6 7-13 16-14 16-9 10-15 15-16 15-17 14-17 14-17 13-17 13-17 13-8 5-16 12-16 11-15 10 7-5-13 10-11 9-11 8-9 7-8 6-7 5-4 4 19-24-1 2-8-20 4 1 7-1 8-1-9 2 10-2 10-3 12-3 12-3 13-3 14-3 9-1 15-3 15-1 16-2 16-1 16-1 16-1 16 0 16 0 15 1 15 2 14 2 12 1 12 3 10 3 8 3 9 3 7 4 7 4 6 5 5 5 4 5 5 5 2 8-2 9"/>
<path d="M2336 10775l-4-8-1-3 1-9 4-8 2-4 5-7 6-7 6-6 4-3 8-5 6-2 8-4 7-1 9-2 7-1 9 1 10 0 13 2 15 2 15 1 17 2 16 1 16 1 15 2 14 1 13 3 12 2 11 3 8 3 10 5 9 4 6 6 5 5 3 6 2 8 1 7 0 7-2 10-2 8-4 10-4 11-4 8-6 11-7 12-8 11-6 8-8 11-9 11-10 11-9 9-10 11-11 9-11 9-7 6-11 8-11 7-10 6-10 6-9 4-8 4-7 4-6 3 8-4-5 2 26-30-1 2-8-20 5 1 8 1 10 1 12 0 12-1 13-1 14 0 14-1 13-1 13 0 12 0 12 1 11 1 11 1 11 3 10 3 8 3 8 4 8 5 6 5 5 7 4 7 2 8 3 8 1 9-1 9-1 9-2 9-3 9-4 10-4 8-6 10-7 11-5 7-8 10-9 10-9 10-9 9-9 10-10 9-10 9-8 5-11 8-12 7-8 4-13 5-13 5-14 3-9 2-14 3-14 1-14 1-13-1-12-2-9-1-11-3-10-3-9-4-7-5-6-5-5-5-3-5-4-8 1-9"/>
<path d="M3324 10710l 4 7 3 9 2 8 2 11 2 12 1 13 1 14 0 16 0 17 0 18 0 20-1 20 0 21 0 20 0 20 0 20 0 21 1 22 1 22"/>
<path d="M6944 12372l-2 9-4 7-5 7-2 3-9 10-7 5-4 3-5 2-5 3-5 3-5 2-6 4-6 3-7 4-8 4-7 3-8 3-9 3-10 4-11 3-11 3-12 3-12 3-13 3-12 3-13 4-13 4-13 4-13 4-12 4-12 3-11 4-10 4-10 3-9 4-8 3-8 4-8 3 8-4-6 3-6 3-5 4 8-6-5 4-3 3 21-34-1 3-2-8 3 2 6 3-8-3 7 2 6 3 6 2 6 1 7 2 8 1 8 2 9 1 8 2 9 2 9 2 9 1 8 2 9 2 9 1 8 3 8 2 9 2 9 3 9 3 8 2 8 3 8 2 7 2 7 2 6 3 6 2 6 2 6 2 5 2 8 3 5 2 4 3 4 3 4 2 4 3 5 2-8-3 4 2 4 0 5-1-9 2 4-2"/>
<path d="M7245 12307l 2-5 5-7 3-5 6-7 4-5 7-6 5-4 8-4 6-4 7-2 8-4 7-2 6-1 7-2 9-1 8-1 8-1 8-1 9 0 9 1 9 1 9 1 9 2 10 1 10 2 10 2 10 3 10 2 10 3 9 2 10 3 8 4 9 3 9 5 8 5 8 5 6 5 6 5 6 5 5 6 4 7 4 6 3 5 2 6 2 8 1 6 1 6 0 7-1 7-1 8-2 9-3 9-3 9-3 9-5 10-4 8-6 9-6 10-7 10-6 8-8 11-9 11-10 12-11 12-11 13-12 12-11 13-11 12-9 9-12 12-11 12-12 12-11 11-12 11-11 10-11 9-11 10-9 8-10 9-9 7-8 8-7 7-7 6-7 6-5 5-6 4-5 4-4 3 9-9-2 3 11-24 0 3-2-9 2 2-7-3 5 0 7-1-9 1 7-1 9-2 8-2 9-2 10-2 9-1 10-1 11-1 11-1 12-1 12-1 12-1 12 0 12 0 13 1 14 0 13 0 14 0 14 0 13 1 14 0 12 1 12 0 11 1 11 0 10 1 10 0 10 0 8 3 3 8"/>
<path d="M7859 12189l 6-7 4-4 6-6 5-4 6-4 8-5 6-3 6-4 6-3 7-3 8-3 7-2 6-2 10-1 7-2 8 0 7-1 8 0 8 0 8 0 8 1 7 2 8 2 8 3 8 3 7 4 8 4 7 4 7 4 7 4 5 6 3 6 2 7 3 8 1 7 0 7-1 7-2 6-2 9-3 7-4 8-4 8-5 8-5 7-6 8-7 8-7 9-7 8-7 8-9 9-7 8-6 6-6 6-7 7-7 6-6 6-7 6-6 5-6 5-5 5-6 5-4 4-5 3-3 3 9-9-1 1 2-36 2 0-9 1 3-1-8 3 4-2 9-3 5-2 5-1 5-1 10-2 5-1 6 0 6-1 7 1 7 1 7 2 8 1 8 2 8 2 9 2 8 3 9 2 9 2 9 2 9 3 7 3 9 4 8 4 9 4 8 4 8 4 8 4 6 5 6 5 6 5 5 4 5 6 4 5 4 6 2 6 2 8 2 7 0 6 0 7-1 7-2 8-2 9-3 9-3 9-4 9-4 8-5 9-6 9-6 9-5 8-7 8-7 9-8 8-9 10-7 7-8 8-7 6-9 7-7 5-9 6-9 6-9 5-10 5-8 4-10 5-10 4-9 4-9 4-9 3-9 2-8 2-9 0-8 1-7 0-7 0-7 0-6 0-5-1-9-2-5 0-5-1-5-2-4-2-4-2-3-2-3-3-3-3-4-8 1-9 4-8 5-8"/>
<path d="M8508 12200l-3 6 4-8-2 6-3 6-4 8-4 6-4 7-4 7-4 7-4 7 5-8-4 8-4 9-5 8-4 8-5 9-5 10 4-8-5 10-4 9-5 10-4 9-4 9-4 8-4 8-4 7-4 7-4 7 5-8-4 7-3 7-3 8-2 7-3 6-1 6 2-9-1 5 1 4-3-8 2 4 3 5 5 4 6 4 6 3 7 3-8-3 9 2 8 2 11 1 11 1 12 0 13 0 13 0 14 0 13 0 13 0 12-1 12 0 12-1 13-1 12-1 13-2 12-1 13-2 13-1 13-2 13-1 12-1 12-1 12 0 11-1 11 0 11 0 12 0 10 1 9 0 8-1-9 2 7-3-16 8"/>
<path d="M8632 12293l-5 4 9-9-5 7 10-16-3 8 2-9-2 10-1 10-1 11 1 10 1 9 2 10 2 11 2 12 2 13 3 12 2 13 2 14 3 15 2 14 3 15 2 16 2 16 1 16 2 15 2 14 2 14 2 13 3 12 2 11 3 10 2 10-2-9 3 8 3 8 2 8-2 9"/>
<path d="M9086 12200l 0 9-1 10-1 10-1 12-1 12-1 12 0 13-1 13 0 11 1 11 1 12 1 13 2 13 2 14 2 15 2 14 2 15 1 15 2 15 2 15 1 15 2 16 1 16 2 16 1 15 2 16 1 15 2 15 1 14 0 15 1 14 2 15-3 9-4 8"/>
<path d="M9493 12335l 0-2 4-8 5-8 5-7 7-5 3-3 8-5 8-3 4-1 9-2 5 0 6 1 6 1 6 1 7 1 9 2 9 2 11 3 12 2 12 2 13 3 12 2 13 3 12 3 13 2 13 2 12 2 12 3 11 2 11 2 11 2 11 2 10 2 8 2 8 3 8 2 6 3 8 3 5 2 4 2 1 3 3 9-2 9-2 3-4 8-6 8-4 4-9 9-4 5-5 4-8 5-6 3-8 4-6 3-8 3-8 2-8 2-8 2-9 2-8 2 8-2-9 2-11 3-11 3-11 3-12 3-11 3-12 4-11 3-11 3-11 3-10 3-10 3-9 3-8 4-8 3-7 3-6 3-6 2 8-4-5 3 7-5-4 3 9-10-2 4"/>
<path d="M12212 8765l-9 2 5-3-16 8 4-3 5-3 8-5 6-3 8-3 7-3 8-3 10-3 10-3 11-3 11-4 13-3 13-3 14-3 14-3 9-1 15-3 14-2 14-2 14-2 12-2 12 0 11 0 9 1 9 1 7 2 8 3 5 3 4 3 3 5 2 8 2 5-1 7-1 7-2 8-4 8-4 8-5 10-6 10-5 7-8 11-10 10-9 10-10 10-11 11-11 11-11 11-12 9-11 9-7 5-12 8-11 8-11 8-11 7-10 7-9 6-9 6-9 5-8 5-7 4-6 4-4 2 16-14-1 1 1-36 3 0-9 2 6-2 7-1 9-3 9-3 10-3 11-3 11-3 12-2 13-3 9-1 13-2 13-2 14-1 15 0 14 0 15 2 14 1 13 3 13 3 13 4 7 3 11 4 10 5 9 5 7 5 7 6 6 7 5 7 3 8 3 9 2 8 1 9 1 10-1 10-1 11-2 11-3 9-3 10-5 10-4 8-6 10-6 7-8 10-9 9-9 10-12 10-12 9-7 5-13 9-15 8-8 4-15 7-17 7-17 7-17 6-18 6-17 5-17 4-16 4-8 2-16 3-15 3-14 2-13 1-12 0-11-1-10-1-9-2-10-2-9-3-9-4-10-5-8-5-7-6-5-5-4-6-4-7 1-9 3-8 5-8"/>
<path d="M13824 8846l-4-8-2-4 1-9 1-5 3-8 5-8 4-4 6-7 6-6 6-4 8-4 7-4 8-3 8-2 9-2 7 0 8 0 9 1 10 2 10 3 11 4 8 3 9 3 10 4-8-3 10 4 11 3 10 4 8 3 10 4 10 5 9 6 9 7 9 7 8 7 8 7 7 8 6 7 4 7 4 8 2 7 2 9 1 8-1 9-2 10-2 9-3 11-4 10-5 10-4 8-6 11-8 12-9 13-6 7-11 13-12 14-9 9-13 13-13 13-13 13-13 13-14 13-14 12-13 12-14 11-13 10-12 10-7 5-13 9-12 8-10 8-10 7-10 6-8 5-7 4-6 3-5 3 17-15-2 2 2-36 2 1 6 0 8 0 9 0 9 0 10-1 9-1 11-1 11-1 12-2 13-1 13-2 12-2 13-1 13-1 13-1 13 0 12-1 11 0 11 0 11 0 10 0 10 1 9 1 8 2 8 2 6 2 6 1 7 4 5 2 2 8"/>
<path d="M13164 8780l-4 5 5-7-3 6-5 6-5 7-5 7 5-8-5 8-5 8-6 11-6 12-7 13-8 13-7 14-7 12-6 12 4-8-5 11-7 13-4 8-6 12 4-8-6 13-7 12-4 8-6 12-5 10-6 10-5 8 5-8-4 9-4 8-2 7-2 7-2 6 2-9-1 5 0 5 1 6-2-9 2 5 5 4 6 4 6 3-8-4 7 3 8 2 9 2 11 1 11 1 11 1 12 1 11 0 13-1 12 0 13-2 12-1 11-2 12-1 12-1-9 1 12-2 12-4 12-3 13-3 12-3 9-1 12-2 13-3 15-2"/>
<path d="M13228 8984l 9-9-3 4 5-7-3 4-2 5 4-8-2 4 2-9-1 6 0 6-1 8 0 8 1 9 1 9 1 9 1 11 2 11 1 12 2 14 2 14 2 14 2 15 3 16 2 16 2 17 3 17 3 18"/>
<path d="M14822 8714l-4 4 8-9-3 5 9-16-2 6 2-9-1 7-1 9 0 10 1 11 1 10 2 10 1 11 2 12 2 15 2 16 2 16 3 17 2 17 2 18 3 18 2 20 3 19 2 19 3 19 2 19 2 18 2 17 2 17 1 15 2 14 2 14 2 13 1 13-2 9-4 8"/>
<path d="M15601 8797l"/>
<path d="M15560 8940l"/>
<path d="M16308 8796l-6 4-8 4-7 3-6 3-7 3 8-4-7 3-6 4-8 5-9 5-9 5-9 5-8 4-10 5-10 3-9 4 8-4-9 5-8 5-8 5 7-5-8 6-7 6-7 5-8 5-7 5-6 5 7-5-6 4-6 4-5 5 19-25-2 4 0-17 2 4 6 3-8-3 8 3 8 1 7 1 6 0 6 1 7 0 6 1 7 1 8 2 8 1 8 2 8 2 8 1 7 2 7 2 7 2 8 2 7 1 8 2 7 3 8 3 7 3 7 4 7 3 7 4 6 4 7 4 6 5 5 4 4 5 5 4 3 8-3 9"/>
<path d="M16586 8688l 7-4 8-3 7-3 7-2 9-3 8-1 9-2 9-1 10 0 9-1 11-1 11-1 12 0 13 0 13 0 12 1 13 0 13 1 13 1 13 2 12 0 11 0 10 0 9 1 8 2 7 2 7 3 7 3 5 3 5 4 4 6 2 6 3 9 0 6-1 8-3 9-3 8-4 8-4 8-5 9-6 10-5 7-8 9-8 10-10 9-10 9-11 9-12 9-13 9-7 5-13 9-13 8-13 8-12 8-11 7-10 6-8 5-8 4-7 3-5 3 17-15-2 2 2-36 3 0 7-1 9-1 9-2 11-1 12-2 12-1 13 0 12-1 14 0 13 1 13 1 13 1 13 2 12 2 12 1 13 2 14 2 13 2 13 3 13 2 12 4 12 4 12 4 8 3 11 5 11 5 10 5 9 6 8 6 6 6 5 7 5 7 4 8 2 9 2 8 1 7-1 8-3 8-2 8-4 8-4 8-5 8-7 9-5 8-7 9-8 10-10 10-9 9-10 11-11 10-12 9-12 10-7 5-13 9-14 9-14 8-14 9-13 8-14 6-8 4-14 6-14 6-15 4-9 2-16 3-16 2-16 1-15 0-15-1-14-1-12-2-9-1-11-3-9-3-7-4-5-5-3-6-4-8-2-7 0-8 1-9 1-7 3-9 5-7 6-7 7-6"/>
<path d="M17342 8670l 6-3 8-2 9-1 8-2 10-1 11 0 12 0 12 2 13 1 13 1 14 1 14 0 14 1 14 1 13 1 13 2 13 2 12 4 13 3 12 4 11 4 8 3 10 4 10 5 8 5 8 5 7 6 5 7 4 9 2 8 3 9 0 9-2 10-3 9-3 11-5 11-5 9-6 12-8 12-5 7-10 13-12 14-12 15-13 14-14 15-9 9-14 15-15 15-15 13-16 13-16 13-17 13-16 12-7 5-15 10-15 9-13 7-12 8-10 7-9 6-7 5 7-6-5 5 18-25-2 5 0-17 3 3 6 3-8-3 8 1 9 1 11 1 12 0 13 1 15 1 14 0 15 0 16 0 14-1 14 0 14-1 14-2 13-2 14-1 14 0 14 0 15 1 15 2 15 2 14 3 14 2 14 3 13 2 13 2 8 3 2 9-2 9-4 8"/>
<path d="M18052 8739l 7-5-7 5-7 7-9 7-9 7-9 8-10 8-10 8-11 8-10 8-10 9-10 9-9 10 9-10-8 9-7 7-5 7-6 7 5-7-4 7-5 7-3 6 4-8-3 6 3-8-2 6 0 6 1 7-3-9 3 6 3 6 4 6 4 4 5 5 6 4 8 4 8 4 10 3-8-3 11 4 12 3 14 3 15 2 16 2 18 2 20 2 20 2 21 1 20 0 19 0 18-1 17-1 17-1 17-2 16-3-9 2 15-3 9-2 16-2 15-2 15-2 15-1 13-1 13-1 12-1 10 0 9-1-9 1 7-2"/>
<path d="M18166 8823l 17 0-4 2 29-26-3 5 4-8-2 7 3-9-2 6-1 8 0 8 1 10 1 10 1 12 2 12 2 12 3 12 2 13 3 12 2 13 3 13 3 12 2 13 2 11 3 10 2 10 3 10 2 9 2 9-2 9-4 8-5 8"/>
<path d="M18890 8762l-1 6-1 6-3 7-2 9 2-9-2 10-1 10-1 9 0 9 0 10 0 10 0 11 1 11 2 11 1 11 3 12 2 11 3 11 3 12 2 12 3 13 2 12 2 12 1 12 2 10 1 11 3 10 2 10 2 8 2 8 2 8 2 7 2 7"/>
<path d="M19199 8871l-8-3 7 2 7 1 7 2 6 2 7 2 8 2 8 2 8 2 9 2 8 1 9 2 9 2 9 2 10 2 10 3 10 3 10 3 10 3 10 3 9 3 9 3 8 3 9 4 8 3 8 4 7 4 6 4 7 4 5 4 4 4 4 6 2 8 1 5-2 9-2 5-4 8-5 7-4 5-9 9-5 4-8 6-5 3-7 4-7 4-8 4-8 4-8 4-10 3-10 4-11 3-11 3-13 4-12 4-13 4-14 4-14 5-15 6-15 5-13 6-13 4-13 4-12 5-12 3-12 4-8 2-12 2-12 2-12 2-12 1"/>
<path d="M1325 12521l 4 8-4-4-4-5-4-6-5-6-3-6-3-5-3-5-4-8-2-5-1-5 1-9 1-5 3-9 3-5 5-7 6-7 4-4 7-6 8-5 5-3 9-3 6-2 9-2 8 0 9 0 10 0 11 2 12 2 12 3 14 3 15 3 16 4 16 4 16 4 16 4 16 5 16 5 7 3 15 6 13 7 13 7 10 8 10 9 8 9 6 10 5 11 4 12 2 8 3 12 1 14 0 13-2 14-3 13-2 9-5 12-5 13-7 14-4 8-8 15-10 14-5 8-12 13-9 10-15 13-16 12-7 6-18 12-18 11-19 11-18 9-18 10-17 9-17 9-15 8-14 7-12 7-11 5-9 5-8 4-7 3-8 4-5 3 8-4-4 2 21-22-2 3 5-25 1 3 5 3 5 3-8-3 8 1 8 1 10 1 12 1 13 0 15 0 16-1 17-1 19-1 19 0 19-1 19 0 19-1 19 0 18 0 17 1 16 1 17 1 16 2"/>
<path d="M2067 12507l 2-5 3-8 5-8 6-6 4-5 7-6 7-4 7-4 8-3 9-2 9-1 9-2 11-2 12-1 13-2 14 0 15-1 15 0 15 0 14-1 14 0 13 0 14 0 15 0 14 1 13 1 13 2 12 3 12 2 10 3 10 4 8 3 9 4 7 4 6 5 4 6 3 9 2 6 0 8-3 9-2 7-4 8-4 8-6 7-6 7-9 10-7 7-9 7-9 7-8 5-9 6-10 6-8 3-11 6-14 6 8-4-13 7-13 6-8 4-11 6-10 4-10 3-11 4-10 3-9 4-8 2-6 1-5 2 8-4-4 2 21-22-1 3 6-17 1 4-2-9 3 5 5 3 6 4 7 3-7-4 7 3 9 3 10 2 10 3 11 2 11 3 12 3 13 4 14 4 14 4 14 4 14 4 13 5 8 3 13 5 11 6 10 6 10 5 8 7 8 6 5 6 4 6 3 7 2 8 1 7 0 7-3 9-1 7-4 8-4 8-5 8-6 7-7 8-9 10-9 9-11 9-13 10-14 10-7 5-15 11-16 9-16 9-16 8-8 4-16 7-16 6-15 6-16 5-15 4-8 2-15 3-15 2-14 0-13 0-12-1-12-2-8-1-11-2-9-3-7-3-6-3-5-5-4-4"/>
<path d="M3182 12425l 0-5 0-5-1 8 0-4 4 7-3-2 26-4-5 2 7-5-5 6 9-10-7 8-7 8-9 9-8 9-9 10 9-10-10 11-10 13 6-7-11 15-11 16-11 17-11 17-11 17-8 14-8 14-7 15-8 14-8 15 5-8-7 15-6 15-4 13 2-9-3 13-1 11 0 11 3 10-2-8 4 9 7 7 8 7 12 6-8-4 16 6 18 4 20 3 22 2 23 0 23 0 22-1 21-3-9 1 21-5 21-5 21-6 22-5 23-6 23-5 24-6 24-6 24-5 24-5 24-5 22-7 20-7-7 3 19-8 7-3"/>
<path d="M3340 12538l-7 1 9-2-6 2 16-9-5 4 9-10-4 5 9-15-3 7 3-9-2 9-2 11-1 12 0 14 0 15 0 15 0 16 1 17 1 18 2 20 3 21 3 22 3 24 4 30 4 31 4 30 7 27-2-6 8 26 8 23 10 18 10 16 11 16 2 9-2 9"/>
<path d="M4480 12518l-3 12 3-9-2 13-2 15-2 18-1 21 1 23 1 25 1 25 1 24 0 23 2 23 2 24 3 25 3 25 3 25 5 26 5 25 5 22 5 19 5 17-3-8 7 16 6 17 7 16"/>
<path d="M10567 959l 2 4 3 8-3 9-1 3-1 6 2-9-1 7-1 7-1 8-1 8-1 11-1 11-1 11 0 12 0 12 0 12-1 13 0 12 0 13 0 13 0 14 0 13 0 12 1 10 0 10 0 10 0 11 0 9 0 10 0 9 0 7 0 7 1 7 1 6 0 6 2 4-3-8 2 4"/>
<path d="M16054 732l-3 5 12-24-1 4-1 5-2 9-2 5 3-9-1 5-1 6 0 7-1 7-1 7-1 9 0 9-1 9-1 11 0 11 0 11 1 12 0 15 0 16 0 15 0 16 0 16 1 16 0 17 0 17 0 16 0 16 1 16 0 15 1 14 1 13 0 12 0 10 0 10 0 8 0 8 0 6 0 6 0 5-2 8-5 8-5 8"/>
<path d="M10933 1038l 8-3 10-4 10-3-8 3 10-4 10-6-7 4 10-6 12-8 8-4 13-8 14-9-8 5 16-9 8-5 17-10 19-9 22-9 8-4 23-8 23-8-8 3 23-9 22-10 21-12-7 5 20-13 22-14 22-14 23-13 7-4 24-12 25-11 7-3 26-9 28-10 29-9 29-10 28-10 28-10-6 2 27-11 27-11 26-12 26-11 26-11 5-2 27-11 29-11 30-11 31-10 30-11 29-10 28-9 26-10 25-10 25-9 25-8 24-8 25-8 25-8 27-8 27-8 27-7 26-7 25-8 24-9 23-10 22-9 23-8 22-9 23-9 23-9 23-8 23-8 25-6 25-7 25-7 24-7 24-7 22-6 21-7 20-7 19-8 19-8-7 3 18-8 18-9 17-8 17-8 17-7 8-3 17-7 17-6 18-7 17-6 16-5 16-5 16-5 15-5 14-5 14-6 12-4 11-4 9-4-8 3 8-3 8-4 8-4 7-3 6-4 5-3 5-3 6-3"/>
<path d="M10931 1191l-4-8-1-1 1-9 3-8 5-8 6-7 7-6 8-4 8-4 9-1 4 0 6 2 8 2 9 3 9 2 9 2 10 3 10 3 10 3 11 3 12 3 13 4 13 4 14 4 15 4 16 4 16 3 16 4 15 4 16 4 16 3 16 3 16 4 16 4 17 4 18 4 18 5 19 5 20 5 20 5 21 4 21 4 22 4 23 3 22 4 21 3 20 3 19 2 20 3 19 2 20 3 21 2 22 3 22 2 23 3 25 3 25 4 26 3 24 4 24 3 22 3 21 2 21 2 20 1 20 2 20 2 20 2 21 1 20 2 21 2 21 2 21 3 21 3 20 3 20 4 19 4 18 4 18 4 16 4 15 5 15 4 16 3 15 4 16 4 15 4 16 4 16 4 16 4 16 4 17 4 17 5 17 3 18 4 17 4 17 3 17 4 16 3 15 2 15 1 13 2 13 1 12 1 12 0 13 0 12 0 12 0 12 0 11 0 12 0 12 0 12 0 12 1 12 0 12 0 12-1 12-1 11-1 12 0 11 0 11 0 11-1 10 0 11 1 10 0 11 0 10 0 10 1 9 0 8 1 8 0 8 0 9-1 8 0 8 0 8 0 8 0 9-1 7 0 8-1 7 0 6 0 7-1 6-1-9 2 7-2 7-2 7-2 7-2"/>
<path d="M10844 1320l 1-9 1-5 3-8 3-5 5-7 5-7 7-6 5-4 8-4 8-3 6-3 9-1 8-2 9 0 9 0 10 1 11 0 12 2 12 2 14 2 16 3 16 4 18 4 18 5 19 5 20 6 20 6 21 7 21 6 21 7 19 6 20 7 20 8 20 8 21 8 22 8 23 9 24 9 25 11 27 11 27 11 6 2 28 11-7-3 27 11 6 2 26 10 25 10-6-2 25 9 23 8 24 8 24 7 25 8 26 9 26 9 27 9 26 10 27 9 26 9 25 9 24 8 23 8 22 8 6 2 23 8 23 9 23 9 23 9 23 11 22 11 23 12 22 12 23 12 22 11 21 11 21 10 18 11 18 10 17 8 18 8 18 8 17 8 17 9 17 9 17 9 16 9 16 9 17 9 16 10 16 8 17 9 16 8 16 8 16 9 15 8 14 8 13 7 13 7 12 6 11 7 12 7 11 7 11 6 10 6 11 7 10 6 10 6 10 6 10 6 11 5 10 5 10 5 10 5 10 5 9 6 10 5 10 5 10 5 10 5 11 4-8-3 10 3 8 3 10 4 9 4 10 4 9 3 8 4 8 3 8 4 7 3 7 3 7 3 6 3 6 3 7 2-8-3 6 2 7 2 7 2 7 1 7 1 6 2 6 1 7 2 7 1"/>
<path d="M10864 1232l 7 3 6 3 6 4 6 6 6 6 6 7 7 7 6 7 6 7 6 7 7 7 7 8 8 9 7 9 8 10 8 9 9 10 9 11 9 10 10 10 10 11 11 11 11 12 11 12 12 12 13 13 13 13 14 13 14 13 14 14 13 14 14 14 14 15 13 14 13 14 12 13 12 15 12 15 13 17 13 17 13 16 13 17 13 16 14 16 14 16 15 17 15 17 15 18 16 18 16 20 15 18 17 19 16 18 16 18 16 20 15 20 14 21 14 22 13 21 12 21 12 22 12 21 12 21 12 20 13 20 12 20 13 19 13 18 13 17 12 18 13 18 13 18 13 18 13 18 13 19 14 18 13 19 14 19 14 19 14 19 14 19 13 19 12 19 12 18 11 18 11 19 10 19 11 19 10 19 10 19 11 19 10 20 10 20 10 20 10 20 11 19 11 18 11 18 11 17 10 17 11 16 10 15 10 16 10 15 10 15 11 16 11 16 11 16 12 16 11 15 10 16 11 16 11 16 11 17 11 17 10 17 9 16 9 15 8 15 8 14 9 13 8 13 9 13 8 12 9 13 9 13 10 13 10 13 10 13 11 13 10 13 11 12 11 12 11 12 10 11 11 12 10 11 11 12 11 11 11 11 11 12 10 11 10 11 10 11 9 10 8 11 9 10 9 11 9 10 8 10 8 10 8 10 6 10 7 9 7 9 7 10 8 9 8 9 9 10 9 10 9 9 9 10 9 9 8 10 9 9 10 9 8 8 9 9 8 8 7 9 7 9 7 9 7 8 7 9 6 9 7 8 6 8 7 8 7 7 7 6 7 5 7 6 8 6 9 6 8 6 8 6 8 6 8 6 7 7 7 6 7 6 6 5 6 5 6 4 5 5 5 4 5 5 5 6 5 5 5 6 5 6 5 6 5 5 5 5 5 5 6 6 5 5 6 6 6 6 5 6 5 5"/>
<path d="M10933 2948l 17-8 8-4 20-8 23-7 24-6 26-6 28-5 27-5 27-5 27-6 27-5 29-6 31-4 6-2 32-3 29-2 25-2 25-1 25-1 27 1 26 1 28 1 30 1 37 2 46 3 50 4 48 5 46 6 44 4 42 3 40 3 37 2 38 2 38 1 38 2 39 2 38 1 37 2 35 1 32 1 31 2 31 1 30 0 31-1 32-1 32-1 33-2 33-1 32-2 30-2 29-3 28-2 27-3 27-3 27-3 26-2 26-2 26-2 25-1 25-1 23-1 22-1 20 0 18 0 17 0 16-1 15 1 13 1 13 1 12 1 12 2 12 1 11 2 10 2 9 2 8 1 7 1 8-1 7 3 3 9-3 9"/>
<path d="M10837 3024l 8-3 6-2 9-2 7 0 7 2 8 3 6 3 7 4 7 4 7 5 8 5 8 7 8 7 10 7 10 7 11 8 11 7 11 8 12 8 12 9 14 9 14 9 15 10 16 11 17 12 18 11 19 12 20 12 20 12 20 13 20 14 20 14 21 14 20 15 21 14 21 15 21 15 22 14 23 15 23 16 24 16 24 17 23 17 23 15 22 16 22 15 21 16 22 15 22 14 23 15 23 15 24 15 24 16 25 17 26 18 25 18 26 17 25 17 23 16 23 17 23 17 22 16 21 17 22 16 21 15 22 17 22 18 21 18 21 18 21 18 21 17 20 18 21 18 20 18 19 19 19 18 18 19 18 18 18 18 18 17 18 17 19 15 18 16 18 16 18 16 18 16 17 15 17 14 16 14 16 13 17 13 16 12 15 12 15 12 14 11 13 11 12 11 11 10 11 10 10 10 10 9 10 9 10 8 9 8 9 9 8 9 8 9 7 8 8 7 7 6 7 6 7 6 7 5 7 5 7 5 6 5 6 5 7 5 5 5 6 5 5 4 5 3 5 3 5 3 5 3 6 2 6 4 5 3 6 4 5 3 5 4 5 3 6 4 5 3 5 5 6 4 6 4 6 4 7 4 7 5 9 5 8 7 8 7 8 7 8 7 8 8 8 8 9 10 9 10 9 12 10 12 10 13 10 13"/>
<path d="M10978 4547l 7-6 7-4 8-3 9-2 4-1 7 2 8 3 7 3 8 3 8 4 7 3 8 4 10 4 10 4 11 5 11 5 12 6 13 6 12 6 13 7 14 6 13 6 14 5 13 6 12 7 13 7 13 8 15 8 15 9 16 10 16 11 17 11 17 12 18 11 19 12 19 12 21 12 20 13 22 12 21 13 20 12 20 12 19 12 19 12 18 13 19 12 19 13 19 12 20 11 20 12 19 12 20 11 20 12 20 11 20 11 20 10 19 11 19 11 18 11 18 10 18 8 17 8 17 8 16 8 17 8 17 9 16 9 17 10 18 10 17 10 17 11 17 10 18 10 17 9 17 10 17 9 16 9 15 10 15 9 14 9 14 8 13 8 14 8 14 8 14 9 14 7 14 8 14 6 14 7 15 6 14 6 15 7 15 6 15 7 15 6 16 7 16 8 15 7 15 7 14 8 14 7 13 6 13 7 13 5 12 5-8-3 12 4 12 5 12 4 8 4 13 5 12 5 12 6 12 5 12 6 13 6 12 6 12 5 11 6 12 5 11 5 11 5 11 5 12 4 10 4 11 5 10 4 10 4 10 4 9 4 9 4 10 4 9 4 9 4 9 4 9 5 8 4 8 5 8 4 8 4 7 4 7 4 7 3 7 4 7 3 6 4 7 3 6 4 6 5 5 5 6 6 7 7 7 7 7 7 6 7 7 8"/>
<path d="M13849 4668l 6-3 7-3 7-3 8-2 8-3 7-2 9-2 8-2 10-3 10-2 10-3 11-3 10-4 11-4 12-3 14-4 15-3 16-3 9-2 18-3 18-2 19-3 19-2 19-2 18-1 18-2 18-1 17 0 16 0 16 0 16-1 15 0 15 0 16 1 16 1 16 1 17 1 18 0 18 0 19-1 19 0 19-2 19-1 19-2 17-3 16-2 16-3 14-2 14-2 13-2 13-2 13-2 13-2 14-2 13-2 13-2 14-1 13-1 14-1 13-1 14 0 15-1 15 0 15-1 15-1 14-1 15-1 14-1 14-2 14-1 13-1 12-1 12-1 12-2-9 2 12-3 12-2 11-3 12-2 9-1 10-2 11-2 11-1 11-1 12-1 11 0 12-1 12 0 11-1 12 0 12 1 13 1 13 1 12 0 11 0 11 1 10 0 9 1 9 1 8 1 9 1 8 1 7 1 6 0 7 0 6 0 6 0 8 0 7 0 7 0 7 0 7-1 8-1 7 0 8 0 8 0 8 0 8 1 8-1 7 0 8 0 6 0 7-1 6-1-9 2 7-1 9-2 7-1 7-1 6-1 7-1-9 2 6-2 6-1 7-2 6-1 9-2 5 1 8 3 4 3"/>
<path d="M13938 2349l 1-9 0-4 4-9 4-7 6-7 3-3 7-6 8-5 8-3 6-2 9-1 7-1 7 1 7 1 8 2 9 3 8 3 8 3 10 4 11 5 12 5 13 5-8-3 14 5 15 5 16 6 17 6 8 3 18 7 17 7 18 7 18 8 18 9 20 10 20 11 21 11 22 12 22 12 23 13 23 15 24 15 25 13 24 12 24 11-6-3 23 9 22 9 23 7 22 8 23 7 23 8 23 8 25 8 25 7 27 7 26 7 26 7 25 7 24 7 22 6 22 6 22 6 21 6 22 5 23 5 23 5 24 5 25 6 24 6 25 6 24 5 24 5 22 3 22 4 19 4 19 3 19 3 17 2 18 3 18 4 18 5 17 4 18 3 17 3 18 4 17 4 18 3 17 4 17 4 16 4 15 5 15 3 13 3 12 3 10 3 10 1 9 2 7 1 7 2 7 1 6 2 6 1 7 4 5 2 2 5 3 9"/>
<path d="M13864 3864l 3-5 6-7 4-5 7-5 6-5 8-4 7-5 9-5 10-6 11-6-8 5 12-7 13-9 14-9 16-10 8-4 18-10 19-10 21-10 22-12 22-13-7 4 23-13 24-15 23-16 24-18 24-18 25-19 27-19 29-18 5-2 30-18 33-19 34-20 34-20 34-20-4 3 33-21 31-22 31-21 32-22 32-20 32-20 4-3 33-19 34-20 33-18 33-19 31-17-4 2 29-18 28-17 28-17 3-2 29-17 30-16 31-15 31-14 31-14 31-15 28-15-4 2 27-16 25-16 23-15 21-15 20-14 19-13 18-13 17-12 17-12 16-11 7-4 17-10 16-9 16-9 16-8 15-8 14-7 14-7 14-6 8-3 13-5 12-5 11-4-8 3 10-4 10-4 8-4 8-3 7-4 6-3 5-3-8 5 6-4 5-3 8-4 5-4 5-3 5-2 5-3 5-2 8-4 5-1 9-2"/>
<path d="M15598 2981l 5-7-4 7-5 7-4 8-5 9 5-8-5 10-6 11-6 14-6 15-6 16-6 17-7 18-8 19-9 19-4 8-10 19-11 19-12 19-13 19-14 21-16 21-17 23-17 24-18 25-18 25-19 26-17 27-18 26-17 26-17 27-17 27-17 27-17 27-17 29-16 29-18 31-18 32-18 31-19 31-20 29-20 30-20 29-20 30-19 30-19 29-18 28-18 29-17 28-16 29-16 28-15 28-16 27-15 27-16 27-18 27-18 28-20 28-3 4-21 28-21 28-21 28-22 26-21 26-21 27-21 27-20 26 3-3-19 27-19 27-18 28-17 28-17 28-17 27-16 27-16 25-17 25-3 4-17 24-18 23-18 22-17 21-18 20-17 20-16 21-16 22-16 21-14 20-14 20 3-5-13 19-13 20-12 20-12 19-11 18-10 18-9 17-10 17-10 16-10 15-10 15-10 15-10 14-10 14-10 15-10 14-9 15-10 14-6 7-10 13-10 13-10 12-9 12 6-7-8 11-8 12-8 12-6 7-8 11-8 10-7 9-8 9-7 8-7 7-9 10-7 6-7 7-6 6-6 6 9-9-6 6 6-7-5 6-4 7-4 6-5 7-6 6-5 7-5 6-5 6-5 6-4 5-5 6-4 5-4 4-3 5-4 5-4 5-3 5 5-8-2 4 4-25 1 1-25 2 4-2-8 5 7-5 8-4 8-4 9-1 8 3 3 8-3 9"/>
<path d="M13952 2773l 4-5 5-4 4-5 4-4 4-5-6 7 4-5 6-7 4-5-6 7 5-5 4-5 4-5 6-7 4-5 5-5 5-6 5-5 5-7 7-6 7-6 7-6 7-7 9-8 9-7 9-9 11-8 10-10 12-10-7 6 12-11 11-10 12-11 12-12 11-12-6 7 11-14 12-15 13-16 13-17 14-18 16-19 16-21 17-22 19-22 5-6 20-22 22-22 23-22 24-22 24-22 23-22 23-22 22-22 21-25-3 4 21-26 20-25 20-25 20-25 20-26 21-25 3-3 22-25 23-23 24-22 4-3 25-21 25-19 24-19 24-20-4 3 22-20 20-20 19-21 18-21-3 4 17-22 18-22 17-21 3-4 17-21 17-20 17-19 18-19 17-19 17-19 18-18 17-17 16-17 16-16 15-16 14-16 13-16 13-15-5 6 12-16 11-15 10-15 9-14 9-14 9-12 6-7 9-11 10-10 9-9 9-9 7-9-5 7 7-9 6-8 6-8 6-7 7-7 6-7 7-7 7-8 7-8 7-8 8-8 8-8 7-5 8-7 8-6 9-6 8-4 9-6 11-5 10-6 11-6 11-5 10-5 9-5-8 5 9-5 8-6 7-5 6-4 7-5-7 6 5-5 5-6-6 7 5-5 4-5 4-6 6-6"/>
<path d="M14069 1302l 14-5 14-5 15-5 17-6 17-6 18-6 18-5 17-5 19-5 19-5 20-6 20-5 22-5 25-4 8-1 26-3 28-1 28-2 28-2 28-3 27-3 27-5-6 1 27-5 29-5 29-6 31-5 6-1 32-3 34-3 35-2 34-2 33-4 31-5-4 1 30-8 30-7 30-7 30-6 32-7 32-6 32-7 34-6 32-6 31-6 28-7 27-7 25-6 6-1 25-4 26-3 26-3 26-3 26-3 26-2 26-3 23-3 23-3 21-2 19-4 17-2 16-3 14-3 13-2 12-1 11-1 11-1 9-1 8 0 7-1 6 0 7 0 6 0 7 0 8 3 2 8-2 9-4 8-6 7-9 10-7 5-8 4-8 2-7 0"/>
<path d="M13982 417l 6-7 6-5 8-5 8-3 4-2 9-1 7-1 9-1 11 1 12 1 13 2 14 2 15 2 16 1 17 1 17 0 18 1 19 1 18 1 19 1 19 1 21 2 22 2 24 3 25 5 26 6 27 8 27 10 28 11 27 10 27 10 26 10 26 10 5 2 26 11 27 12 29 13 29 14 31 14 31 14 32 13 32 12 31 13 30 12 30 12 30 12-4-1 30 11 31 11 32 12 33 12 34 12 3 2 33 13 32 12 29 11 29 11 27 11 26 12 26 13 26 12 25 11 26 11 25 11 25 12 24 13 22 12 21 10 20 8-6-2 18 6 16 6 15 4 13 4 8 3 12 4 11 5 10 5 10 5 8 4 8 3 7 3"/>
<path d="M10334 2830l 9 1-4 1 33-20-1 2 9-33 3 1-8-3 5 0 6 0 7-1-9 1 8-1 9-2 9-1 10-2 12-2 12-2 14-2 13-1 13-1 12-1 10-1 10 0 9 0 8 0 7 1 6 2 6 1 8 4 5 2 3 3 3 5 3 8 1 6 0 6-2 8-2 9-2 8-3 10-3 9-4 10-4 8-6 10-7 10-5 7-8 9-8 9-9 10-9 8-10 9-9 8-10 9-10 8-9 7-10 8-7 5-9 6-8 5-7 5-7 3-5 3-5 3 7-5-3 3 18-25-1 3 0-17 2 2-8-3 6 1 6 1 8 1 7 0 8 0 8 0 8 0 8 0 8 0 9 1 9 0 9 1 9 0 8 0 8 1 7 0 7-1 6 0 7 0 6 0 6-1 7 1 6 0 6 1 8 3 2 8-2 9-5 8-5 7"/>
<path d="M10384 4311l 3-8 5-7 6-7 2-2 6-6 4-3 5-3 5-3 8-5 5-3 6-2 9-3 6-2 9-2 7-1 8 0 7-1 9-1 8 0 8 0 9 0 7 0 8 0 7 1 6 1 6 1 5 2 8 3 5 3 4 4 3 4 2 5 3 9 1 5 0 6-1 6-1 7-2 9-2 7-3 7-4 8-4 6-4 7-4 7-4 6-5 7-6 6-9 10-5 6-7 6-6 5-6 6-7 5-7 5-7 4-7 4-6 4-6 3-5 3 8-5-4 3 21-33-1 3-2-8 3 3 5 2-7-3 6 3 8 2 8 1 8 2 8 1 8 1 8 0 7 1 8 1 7 1 7 1 7 1 7 2 7 1 7 2 6 1 5 2 8 3 6 3 4 4 5 4 3 4 3 4 3 5 2 6 3 8 1 7 1 7 0 7-1 8-1 8-2 8-3 9-2 9-3 9-5 9-4 8-5 8-6 7-6 8-7 8-9 9-8 8-8 6-7 6-8 5-7 5-8 5-8 4-8 4-8 3-8 3-9 2-9 2-9 2-10 2-10 0-9 0-10-2-9-1-9-2-9-3-9-3-9-4-11-6-11-10-11-12-4-8 1-9"/>
<path d="M13485 67l 4-8-2 6-2 8 3-9-3 10-2 12-3 14-3 15-1 17-1 19-1 19-1 19 0 19 0 19 0 20 0 21 0 22 0 22 0 21 0 22 2 23 1 23 2 22 2 23 3 23 4 26 4 26 5 25 6 21-2-7 6 19 7 19 6 16 6 16"/>
<path d="M13233 1237l-2-4-4-7-1-5 1-9 0-5 2-5 3-8 3-6 5-8 3-5 6-7 5-5 7-6 6-6 8-5 8-5 10-4 9-4 11-3 9-1 13-2 14-1 16 0 17 1 18 1 18 1 17 2 17 3 17 3 16 3 15 4 14 3 14 4 13 3 12 4 8 3 11 5 10 5 9 6 8 6 5 7 5 7 3 8 2 9 1 8 0 10-2 9-3 11-5 12-7 13-4 8-8 15-9 16-10 15-6 8-11 14-13 15-9 9-13 14-14 13-16 12-7 5-16 11-17 9-8 4-17 8-17 8-16 8-15 7-14 6-14 5-12 4-11 3-9 4-7 2-5 2-2 0 17-53 2 0 5-2 7-2 9-2 10-2 11-2 9-2 12-2 15-1 16-2 17-2 17-2 18-3 18-3-10 2 18-4 16-3 16-4 17-3 16-3 9-2 15-2 15-2 14-1 14-1 14 0 13 0 8 3 2 9-2 9-4 8"/>
<path d="M13330 2026l-8-3 7 1 7 0 7-1 8-1 9-1 9-2 9-1 11-2 11-1 12-2 12-2 11-2 12-1 11-1 11-1 10-2 9 0 8-1 7 0 7 1 6 2 7 3 5 3 3 4 1 4 3 9 0 5-1 6-3 9-3 7-4 8-5 9-5 7-7 9-9 9-8 10-10 10-10 10-12 12-11 11-12 11-13 10-7 5-12 8-11 8-11 7-10 7-9 6-8 5-7 5-7 4-4 3 7-6-2 2 11-45 3 0 6-1 8-1-9 1 9-1 9-2 12-3 12-2 9-2 14-2 14-2 15-1 16-2 14-1 15-2 14 0 13 0 13 0 12 0 12 0 12 1 10 0 11 2 9 1 8 2 8 2 7 3 7 3 5 3 4 4 3 5 3 8 1 6 0 6-3 9-2 7-3 9-4 8-6 9-7 11-5 7-9 11-10 11-10 11-11 12-9 9-12 12-12 11-14 10-7 5-14 9-15 8-8 4-15 6-16 6-16 5-9 2-16 4-15 2-15 2-15 2-13 0-13 0-13-1-9-1-11-3-10-3-10-4-4-8 1-9 3-8 5-8"/>
<path d="M13435 2816l 1 5-2 9-5 8-2 4-5 8-4 4-4 5-4 5 6-7-5 6-4 7-5 9 4-8-4 10-5 10-5 11-5 11-6 13-6 13-6 15-6 15-5 14-5 14-5 14-5 13-3 14 2-9-2 12-2 11-1 11 0 10 0 9 2 9-3-9 2 7 3 6 4 5 6 4 6 3-8-3 8 3 8 2 9 0 11 0 12 0 13-2 13-2-9 1 14-3 15-4 14-6-8 4 15-7 15-8-7 5 14-9 14-10 14-10 14-10 14-10 13-11 13-10 12-10 8-5"/>
<path d="M13537 2910l 7-5-3 4 9-9-4 4-9 9-3 4 9-10-4 5 5-8-3 5-3 6-4 6-4 8 5-8-4 9-3 11 2-9-2 12-2 13-3 15-1 16-1 18 1 19 0 20 0 21 0 20 1 20 3 21 2 21 2 21 2 21 3 21 2 22 3 22"/>
<path d="M13342 3697l-8 5 4-3 5-3 8-5 6-3 7-3 9-4 8-2 9-3 11-3 10-3 12-3 14-4 15-3 15-4 14-4 14-5 13-5 14-6-9 4 14-6 14-6 13-6 13-5 12-6 12-5 13-6 17-7 16-8"/>
<path d="M13326 3807l-4 4-4 4 9-9-4 4-4 6 5-7-4 6-4 7-4 7 4-8-3 8-3 8-3 8-3 9-2 9 2-9-2 8-1 8 0 8 0 8 0 8 0 8 1 7 2 6-2-9 2 5 2 4 4 3 4 3-8-4 5 2 5 0 5 0 5-1 5 0 5-1 7-1-9 1 7-1 9-1 9-2 9-2 11-1 11-2 13-1 14-2 14-2 15-1 15-2 15-2 14-3 14-2 12-2 13-2 12-2 12-1 12-1 11 0 10 1 9 1 8 3 7 2 7 3 7 4 6 4 5 4 4 5 3 6 2 8 2 7 0 8 0 8-2 10-2 9-4 10-4 11-5 12-4 8-7 12-8 11-5 7-10 12-10 12-10 12-11 12-9 9-12 11-13 11-7 5-15 9-16 8-8 3-16 7-17 5-18 4-9 2-18 4-18 2-17 2-17 1-17 0-16 0-16 0-9-2"/>
<path d="M13445 4415l-3 3-5 2-4 3 7-5-5 5 9-10-6 7-6 7 6-7-6 9-7 10 5-8-6 12-6 14-5 15-6 16-5 18-5 20 2-9-4 22-4 22-2 22 0 22 0 21 1 21 3 19 5 18-3-8 6 17 8 16 10 14 10 11 11 11 12 9 12 8 12 6-8-3 13 4 12 2 13 0 11 0 11-2-9 2 10-3-8 4 9-4 9-5-8 4 8-5 9-7-7 6 8-7-6 7 7-9-5 7 5-9 4-9-3 8 3-9 3-9 0-9 0 9-1-8-3-7 4 8-4-7-5-7-5-6-7-5-8-4-8-4-10-3-11-2 9 1-12-1-12 0-14 1 9-2-14 4-15 4-15 6-16 5-15 7-15 7 8-4-14 8-13 9 7-5-13 9-13 11-11 11-11 10-7 6"/>
<path d="M13272 5275l 5-2 5-2 6-1 7-2 8-2 8-1 10-2 10-2 12-3 12-2 9-2 13-2 14-2 14-2 15-3-9 2 15-3 15-3 14-4 14-3 13-3 11-2 9-2 11-1-9 1 10-2 10-2 9-1 8-2 7-2 6-1 9-2 6-1 5 0 5 1 4 1 8 3 4 3 3 3 2 5 2 9 1 6 1 7 0 8-2 10-1 11-3 13-2 14-3 16-3 16-3 18-4 19-3 20-3 21-3 20-4 22-4 23-3 23-4 23-3 24-3 24-4 24-3 26-3 25-3 24-3 23-3 22-3 21-2 20-3 18-1 18-2 16-3 15-2 14-3 14-2 12-2 12-2 9-2 9-3 8-2 7-1 6"/>
<path d="M15863 2557l 4-3 5-3 4-3 5-3 8-5 6-3 6-3 9-4 7-2 8-3 10-2 9-1 10-2 12-1 13 0 12 0 13 1 13 2 14 2 14 2 14 3 13 3 12 3 11 4 8 3 10 5 8 5 8 5 6 5 5 6 4 7 3 8 2 9 2 8-1 10-1 10-3 11-2 9-4 11-5 12-5 8-7 13-6 7-9 14-11 12-9 10-13 12-14 12-15 13-15 12-16 12-7 5-15 11-14 10 7-5-13 10-11 9-11 8-10 7-9 7-7 6-7 5-5 5 9-9-5 5 6-7-3 4 7-17 0 5-3-9 3 4 5 3-8-3 7 2 7 2 8 1 9 1 10 0 11 0 12-1 13-1 15-1 15 0 17-1 18 0 18-1 17-2 18-2 18-3 8 3"/>
<path d="M15795 4249l-3 1-9-2-3 0-3-8 0-9 1-1 3-8 5-7 6-7 7-6 8-5 8-3 9-2 4 0 6 0 8 0 7 1 8 1 8 2 9 2 9 2 10 3 9 2 10 3 7 4 9 3 7 5 6 5 6 6 5 6 4 7 3 8 3 8 2 9 1 11 0 11-1 12-3 13-2 8-4 13-5 14-6 14-6 15-8 15-4 8-8 14-8 15-8 14-8 13-7 12-7 11-6 11-5 9-5 8 5-8-4 7-2 6 3-9 0 5-2-9 3 3-8-3 5 0 6-1-9 2 7-2 8-3-8 3 8-3 8-4 10-4 8-3 11-4 11-2 9-2 11-1 11-1 11 0 11 1 11 1 10 2 8 3 8 3 8 4 8 4 7 5 5 6 5 6 4 8 4 8 2 8 2 8 2 9 0 10-1 11-2 11-3 9-3 12-4 12-6 12-4 8-7 12-5 7-9 12-10 11-9 9-11 11-12 11-12 10-13 11-13 9-8 6-13 9-13 9-13 9-12 7-12 6-8 4-13 5-12 5-13 3-9 2-13 3-14 1-13-1-14-2-9-1-13-3-13-3"/>
</svg>
