<svg xmlns="http://www.w3.org/2000/svg" viewBox="1710 2547 16568 11320" stroke="black" stroke-width="20" stroke-linecap="round" stroke-linejoin="round" fill="none" data-xena="0 0 0"><style>@media(prefers-color-scheme:dark){svg{background-color:black;stroke:white;}}</style>
<path d="M7394 6781l 1 7 1 8 0 10 0 11 0 12 1 13 1 16 1 16 1 17 2 16 1 14 1 14 1 14 1 13 2 13 1 13 2 11 1 10 1 10 1 9 0 8 1 7 1 7-1-7 1 5 1 2-43 0 1-2 1-6-1 7 1-7 0-8 1-8 0-9 0-10 0-10 0-12-1-12-1-13-2-13-1-13-2-14-2-13-1-13-2-13-1-12-2-12-1-9-1-9-2-7-1-6 2 7-1-5 3 7-1-1 40-7-1 4 1-7 0 7 0 8-1 9 1 9 0 10 1 10 1 10 1 10 1 11 1 10 1 11 1 10 2 11 1 10 1 11 1 11 1 11 0 11 0 9 0 10 0 9 0 9 0 8 0 9 0 7 0 6 0 6 0 5 0 4-1 7-3 5-4 5-6 3-6 1-6-1-6-3"/>
<path d="M7341 6647l 7 1 5 1 6 4 5 5 5 4 3 5 3 7 2 6 1 7 1 7 0 9 0 8 0 9-1 9-1 11-1 10-1 9 0 8-1 8-1 8 0 9 1 8 0 8 1 9 1 9-1-7 2 10 1 8 1 8 1 7 1 8 1 8 2 7 2 8 3 8 3 6"/>
<path d="M4990 6748l 0 5 0 5-1 7-1 8 0 8 0 9 0 9 0 9 0 11 0 11 0 11 0 11 0 10 0 12 0 11 1 12 1 11 0 11 0 10 0 10 0 10 0 10 0 9 1 8 0 8 0 6 1 7-1-7 1 6 1 5 0 5 1 5 1 5-1 5"/>
<path d="M2889 6802l 4-1 4-1 7-1 3-1 4 0 5-1 4 0 5 0 6-1 6 0 7-1 7 0 7 0 7 1 7 0 7 0 6 0 7 0 8 0 8 0 8 0 8 0 8 0 8-1 9-1 9 0 8 0 9-1 9 1 9 0 9 0 9 1 9 0 8 1 9 1 10 1 9 1 10 1 10 1 10 1 11 1 11 0 11 1 11 1 12 1 11 0 11 0 11 1 10 0 11 0 10 0 10-1 10 0 11-1 10-1 10 0 10-1 11-1 10-2 11-1 11-2 11-1 12-2 12-2 11-2 12-1 13-1 12-1 11-1 12-1 12-1 11 0 11-1 11 0 10 0 10 0 10 0 10 0 10 0 9 0 10 0 11 0 10 0 11 0 12 0 11 1 12 0 12 1 11 1 12 1 12 1 12 2 13 2 13 1 13 2 13 1 13 1 14 1 13 1 14 2 13 1 14 1 13 1 13 1 13 1 12 1 12 0 13 1 12 1 13 2 13 1 13 1 12 1 13 2 13 1 14 2 7 1 13 2 14 2 15 3 15 2 16 2-7-1 16 2 16 2 16 1 16 1 17 1 16 0 16 0 16 0 15 0 16 1 15 1 15 2 16 1 15 1 14 1 14 2 14 0 15 1 14 1 14 1 15 1 14 1 14 0 14 1 14 1 15 1 14 0 13 1 13 1 13 1 12 1 12 0 13 0 12 0 13 0 13 0 12 1 13 0 12 1 12 1 11 1 7 1 12 2 11 2-7-2 10 2 11 1 11 1 10 0 10 0 10 0 10 0 10 0 9 0 10 1 9 1 9 0 9 0 9 0 9 1 8 0 8 0 8-1 7 0 8-1 7-1 8 0 8-1 8 0 9 0 9 1 9 0 9 1 10 1 9 0 11 1 10 1 10 0 10 0 11 0 10 0 11-1 12-1 11-1 12 0 11-1 12 0 12 1 12 0 13 0 12 0 12 0 11-1 11-1 12-1 11-2 11-1 12-2 12-1 12-1 13-1 12 0 13-1 13 1 13 0 12 0 13 0 12 0 14 0 13 0 14 0 13-1 14-1 13-1 13-1 14-1 13-1 13-2 13-1 13-1 12 0 13-1 13-2 13-1 14-1 14-1 14-1 14-1 13-1 14 0 14 0 14 1 14 0 15 0 16 0 15 0 16 0 16-1 16-1 15-1 16-1 15-2 15-1 15-2 16-2 16-1 16-2 16-1 17-1 17-1 17-2 17-1 17 0 17-1 17-1 18-1 17-1 18-1 17-1 18-1 18-1 17-1 18-1 17-1 19-2 18-1 19-1 18-1 19-1 19-1 20-1 19 0 20 0 21 0 20-1 20-1 20-1 20-2 20-2 20-2 20-2 20-2 20-1 20-2 21-1 21 0 21-1 21-1 22-2 21-1 21-2 21-2 21-2 21-2 21-2 21-1 20-2 20-2 20-1 20-1 20-1 21-1 20 0 22-1 21-1 21-1 21-1 21 0 20-1 20 0 21-1 20 0 21-1 20-1 22-1 21-2 23-2 22-2 23-2 24-2 23-1 23-2 23-2 23-2 23-2 22-2 23-2 23-1 23-2 22-2 23-2 23-2 24-1 23-2 24-1 24-1 23-1 23-1 23 0 22 0 22 0 22 0 22 0 21-1 22 0 21-1 22-1 21-1 22-1 22-1 23 0 22-1 21-1 22-1 22-1 22 0 22-1 22-1 22-1 22-1 22-1 22 0 21 0 21 0 21 0 21 0 21 0 19 0 19 0 19 0 20 0 19 0 20 1 20 0 20 0 20 1 21 0 21 0 22 0 23 0 23-1 22 0 23-1 23-1 22-1 22-2 23-1 22 0 23-1 22 0 23 0 23 0 23 0 23 0 23-1 24-1 23 0 23-1 23-1 22-1 23 0 23-1 23 0 23 0 22 0 23 0 24 0 23 1 23 0 24 0 23 0 24 0 22 0 23 0 22-1 23 0 22-1 22 0 23-1 22 0 23-1 22 0 23-1 23 0 22-1 22 0 21-1 22 0 21 1 22 0 22 1 22 1 23 1 23 0 24 0 23 0 24-1 24-1 24 0 23-1 23-1 22-1 22-1 22 0 22 0 21 1 22 0 21 1 22 1 22 0 23 0 24 0 23 0 23-1 22 0 23-2 23-1 22-1 23-1 23 0 23 0 23 1 23 1 23 1 22 1 23 0 23-1 22-1 21-2 21-2 21-1 20-1 20-1 19-2 20 0 18-1 19 0 17 0 18 1 17 0 17 1 17 0 17 1 16 0 16 0 17-1 16 0 16 0 16-1 15 0 15-1 14 0 15 0 15 1 14 0 14 0 14 0 13 1 12 0 12 1 11 1 11 1 10 1 11 1 10 0 10 1 9 0 9 0 8 0 8-1 7 0 7 0 7 0 6 1 6 0 6 1 6 1 6 0 6 0 7 0 6 0 6-1-7 1 7-1 6-1 6-2 6-3 6-2 6-2 5-2 5-2 7-1 6 0 5 0 5 1 7 1 5 1-7-1 6 0 6 1 5 1 7 1 6 1 6 0-7-1 6 1 7 1 6 0 6 0 6 0 6 0 6 0 6-1 6 0 6 0 6 0 6 0 6 0 5-1 6-1 5-1 6 0 5-1 6 0 6 0 6 1 5 1 6 1 5 2 6 2 5 3 5 3 5 4 6 4 6 5"/>
<path d="M4309 2710l-4-3 6 3-5-2-6 0 7 1-6 1 7-1-7 2-7 3 6-3-8 5-8 7-9 8-9 8-10 8-10 9-10 8-11 9-10 9-10 10-11 9-10 10-10 11 5-5-10 10-11 12-12 15-11 15-10 15-9 14-7 12 3-6-6 13-6 14-4 13-4 12-3 11-1 10 1-7-1 11 1 11 2 10-1-7 2 9 4 8-3-7 4 7 5 5-5-5 7 5 7 5 9 5-6-3 11 5 14 6 14 5 14 4 13 4 12 3 12 3 11 4 10 5 6 3 10 5 8 5 7 6 6 6 5 5 5 5 4 5 4 6 3 7 3 7 3 8 2 8 2 7 1 8-1 9-1 7-1 8-2 9-3 9-4 10-4 9-3 7-5 9-5 9-4 9-5 9-4 9-5 9-6 10-6 11-7 11-5 10-6 9-5 8-5 9-4 7 3-6-3 8-2 9-2 9-2 8-3 8-2 6-1 6 1-7-1 7 0 6 0 8 1 7 1 9-1-7 1 9 2 9 3 10 2 9 4 11 4 12 5 13 4 15 5 15 4 15 5 14 4 12 4 14 4 15 4 16 3 19 1 7 3 19 3 22 2 23 1 25 1 26 0 28 0 29-1 30-1 31-2 30-1 32-2 32-1 33-1 34-1 36 0 35 0 36 0 36 1 37 2 36 2 36 3 35 3 36 3 35 4 34 4 35 5 34 5 32-1-7 6 32 7 30 7 31 8 29 8 29 8 26 9 25 10 24 10 21-3-5 11 20 12 18 15 18 18 17-4-3 22 17 26 16-4-2 28 15 3 2 3 2"/>
<path d="M5183 2813l 0 10-1 13-1 16-2 18-2 19-1 23-1 24-1 25 0 26-1 26 0 27-1 29-1 29 1 29 1 28 3 28 2 31 4 34 2 29 2 23 1 21 2 24 1 22 1 17 0 17-1 19-2 17-1 13-2 11-1 11-1 9 0 8 0 6-1 5-2 4"/>
<path d="M3608 3275l 4 0 5 0 5 1 7 1 4 1 4 2 4 2 5 2 5 1 4 2 5 1 4 2 4 1 4 1 5 0 4 1 4 1 5 1 5 1 4 1 4 1-7-1 5 0 7 1 6 1-7-1 6 1 4 0-7 1 5-1 4-1 5-2 5-1 4-1 4-1 4-2 4-2 5-1 4-1 5-1 4-1 4 0 4-1 4-1 5-1 6-1 6 1 9 1"/>
<path d="M3594 3187l 6-1-7 1 5-1 6-2 5-1 5-1 4-2 5-3-6 4 5-3 6-3 5-3 5-1 5-2 4-1 5-1 5-2 5-1 5-1 4-1 5-2 4-1-6 3 3-2 7-4 3-1 4-1 7-1 4 0 5-1-7 1 4-1 4-1 3-1 4-2-7 3 4-1 6-3"/>
<path d="M16470 4787l-1 11-1 6-2 13-2 15-2 16-3 16-4 18-3 19-4 21-4 22-4 22-6 22-6 22-8 24-6 25-6 22-5 21-6 24-7 25-8 27-8 28-7 27-8 28-7 27-8 28-7 28-7 28-6 27-5 26-6 26-4 24-4 23-4 23-5 25-4 21-3 16 1-6-3 13-1 5-2 11-2 9-3 7-3 6-2 6"/>
<path d="M2693 9924l-7 1 7-2 6-1 6-2 6-2 6-2 6-3 6-2 6-2 7-2 7-1 7-1 7-1 7-1 8-1 9 0 10 0 10 0 12 0 12-1 12 0 14-1 13 0 15 0 14-1 14 0 14-1 14 0 13-1 13-1 14 0 14-1 14-1 15-1 15-1 16 0 17-1 17 0 18 0 18 0 20 1 20 1 21 0 21 1 21 2 21 0 20 1 19 1 20 1 20 0 21 0 21 1 22 0 22 1 23 1 22 1 23 1 23 2 22 2 22 2 21 2 21 1 20 2 20 2 20 2 21 2 20 2 21 2 22 2 23 3 7 1 23 3 24 4 24 4-7-2 24 4 24 2 22 3 22 2 21 1 20 0 19 0 20 0 19 1 18 0 18 0 18 0 18 0 19 1 18 1 18 1 18 0 19 0 17 0 18 0 17 1 17 0 17 0 18 0 18 0 18-1 20 0 19 0 21 0 21 0 22 1 24 1 25-1 26-1 27-1 26-2 26-2 27-2 26-3 27-2 27-2 29-1 29-1 30-1 31-1 31-1 30-1 31-1 30-1 30-1 31-2 31 0 32-1 33-1 34 0 33-1 34 0 34-1 34-1 36-1 36-1 37-2 39-2 39-2 39-2 40-4 39-3 39-3 40-4 40-3 41-3 41-3 41-3 41-3 39-4 40-3 39-4 40-3 40-3 41-3 41-3 41-4 41-5 41-4 41-4 42-3 43-4 43-4 43-4 42-4 42-4 41-4 42-3 43-3 42-3 43-3 41-3 41-3 39-2 40-3 39-2 40-3 40-2 40-2 39-2 38-2 37-2 38-2 37-1 38-2 39-1 40-1 40-2 40-2 38-2 38-2 37-1 37-1 37-1 38 0 39-1 38-1 38-1 37-1 37-1 37-1 38-1 38-1 38 0 39 0 38-1 38-1 37-1 37 0 37 0 37 0 38 1 38 0 38-1 37-1 37-1 36-2 35-1 36-1 36 0 36 0 38-1 37 0 38-1 37-1 36 0 37-1 37 0 38 1 37 0 37 1 37 0 36-1 35-1 35 0 34 0 34 0 33 1 34 2 34 2 34 1 34 1 33 1 33 0 33 0 33 1 34 1 34 2 35 1 35 2 36 1 34 1 35 0 33 2 34 1 34 2 34 2 35 2 35 2 35 2 34 2 33 2 31 1 30 1 30 1 30 1 30 1 30 1 32 1 32 1 33 0 31 1 31 0 30 0 30-1 29 0 30 0 29 0 29-1 29 0 29 0 29 0 27 0 27 0 26-1 25 0 25 0 25 1 24 0 24 0 25 1 24 0 26 0 26 1 26-1 25 0 23-1 24-1 23-1 22-1 23 0 22 0 21 0 21 0 20 1 20 0 21 0 21 0 21-1 21 0 20 0 19 0 18 0 17 0 16 0 16 0 15 1 15 0 13 0 14 0 12 0 13 0 11 0 12 0 10 0 11 0 11 0 11 0 11 0 12 0 12-1 12-1 13 0 13-1 12 0 13-1 12 0 11-1 12-2 11-1 10-1 11-1 11 0 10-1 11-1 11-1 11-1 11 0 12-1 11-1 11-1 10-1 11-1 10 0 10-1 11 0 11 0 11 0 12 0 11 0 11 0 10 0 10 1 9 0 9 0 8 0 8 0 8 0 6 0 6 1 6 0 4 0"/>
<path d="M4070 9834l 1 7 1 6 1 7 1 7 0 8 1 9 0 9 0 10 1 10 1 10 1 12 1 11 0 13 1 14 1 13 2 13 1 13 1 13 0 13 1 13 1 13 1 12 1 12 1 12 0 11 1 11 1 11 1 11 1 11 1 10 1 9 1 9 1 9 1 8 1 8 1 7 0 7 0 5 0 5 1 5 0 4-1 7-1 3-3 6-5 5-3 1-6 3"/>
<path d="M6843 9620l 3-6 1-2 5-5 6-3 7-1 7 1 6 3 6 5 3 7 0 4 2 8 1 9 1 7 2 9 0 10 1 11 1 12 0 13 1 12 0 13 1 14 1 14 1 14 1 15 1 14 1 15 1 15 0 15 1 14 1 14 1 13 0 14 1 13 1 14 1 12 1 13 1 12 1 12 1 11 1 11 1 11 1 10 0 9 1 8 0 7 1 7 0 6 0 5 0 5"/>
<path d="M14206 8946l-3 4 2-5-2 6-1 7 1-6 1 7-1-6 3 7-3-6 5 8 7 8 9 10 11 11-5-5 13 11 15 12 17 13 19 13 19 15 20 14 21 15 23 15 25 15 28 17 33 16-7-3 37 16 39 17 41 17 41 18 44 19 45 19 50 20 53 21 56 22 57 22 57 23 60 23 63 25 66 25 67 26 68 26 71 28 73 28 74 30 74 31 78 31 80 32 80 32 81 33 81 34 84 33 84 34 83 32 86 33 87 34 87 34 85 34 85 34 85 33 84 32 82 31 81 31 80 31 76 31 74 32 73 31 71 32 69 31 64 29 60 27 57 26 55 25 54 24 50 24 6 3 46 22 41 22 36 21 32 20 30 17 28 15 25 15 22 13 19 12 16 10 12 8 10 7 2 3 2 3"/>
<path d="M14260 10628l-17-8-5-2-16-8 5 2-14-6-11-4-6-3-8-4-6-4-5-4-4-4-3-6-1-5-1-6 1-7 1-5 3-6 5-5 5-4 6-3 8-5 12-5 14-5 17-5 19-6 20-6 20-7 22-9 24-9 26-11 29-12 33-12 35-13 39-15 40-16 40-18 39-21 41-21 45-23 48-24 52-25 52-27-6 3 52-28 54-29 56-31 6-3 59-32 62-32-7 4 63-34 63-36 64-38 68-39 69-38 70-37 71-39 73-40 74-41 77-41 6-3 79-41 79-42 80-42 82-41 81-40 82-39 81-38 80-39 80-38 80-39 79-37 79-34 77-33 76-33 75-30 74-28 70-27 65-24 64-24 62-22 59-20 55-19 50-16 44-14 39-10 36-9"/>
<path d="M2659 13671l 6-3 7-2 7-1 7-2 7-1 7 0 8-1 7 0 8 0 7 0 9 0 8 0 9 1 10 1 10 0 11 2 12 0 12 1 14 1 15 1 16 1 15 0 16 1 15 0 14 1 13 0 14 0 13 0 14 0 15 0 15 0 16 0 17 0 18 1 20 0 20 0 23 1 23 0 25 1 25 0 26 0 25 0 25-1 26-1 26-1 28-1 30 0 31 0 31 0 32 1 32 1 32 1 30 2 31 1 30 2 30 1 30 2 32 1 33 2 35 1 34 2 35 2 34 2 35 2 36 2 37 1 38 1 40 1 40 0 41 1 40 1 41 1 40 0 42 0 42-1 43 0 45 0 45 0 44 0 45 0 46-1 46-1 47-1 48-2 47-2 47-2 47-3 48-2 49-2 50-3 51-2 52-3 51-3 52-3 53-4 54-3 55-3 55-3 55-5 55-5 56-5 57-4 57-5 56-5 56-5 56-4 57-5 57-4 57-4 57-4 57-4 56-3 56-3 56-3 55-3 55-4 55-3 56-2 56-2 56-2 56-1 56-2 57-1 58-1 58-1 59-1 58-3 57-2 59-2 59-2 59-2 57-2 57-2 55-2 56-1 57-1 57 0 56-1 55-1 55 0 56 0 56-1 56 0 56-1 56-1 56-1 57-1 57-1 56-1 56-1 54-1 55-1 54 0 55-1 55 0 54-1 54-1 52-1 53-1 52-2 52-1 51-1 50-1 50-1 50 0 50-1 50 1 50 0 48 1 48 0 47 1 47 0 48 1 47 0 47 0 45 0 45-1 46 0 47-1 47 1 48 0 48 0 46-1 46 0 46 0 47-1 46 0 47-1 46-1 45-1 45-1 44-2 43-2 44-1 44-1 44 0 43-1 41-1 41-1 40-1 41-1 40-1 41-2 41-1 41-2 39-2 39-2 38-2 39-2 38-1 38-1 38-1 37-1 36-1 34-1 34-1 33-2 33-1 32-1 32-1 31-1 30-1 30 0 28-1 27 0 25-1 24-1 24 0 23-1 23 0 22 0 22-1 21-1 20 0 20 0 18-1 18-1 16-1 15-1 14-1 12 0 11-1-7 1 10-1 8-1 7-2 6-1 6-1 6 1"/>
<path d="M4472 7430l 5 0 5 0 6 1 7 1 6 1 7 2 7 2 6 4 7 3 7 3 7 4 8 5 7 5 7 4 7 4 6 5 7 4 6 6 6 5 6 5 6 5 5 5 5 6 6 6 5 6 5 6 5 7 4 7 3 7 2 6 3 5 2 5 2 5 2 5 2 5 1 5 1 4"/>
<path d="M4795 7270l-1 9-1 10-2 11-3 14 1-7-2 15-1 17-2 16-2 18-1 7-3 18-3 19-4 19-5 22-4 21-5 22-6 24-5 25-6 26-6 28-6 27-6 28-6 27-6 25-5 24-5 24-4 23-4 22-4 22-4 19-3 18-3 17 1-7-3 16-2 13-1 11-1 10-1 9 0 6-1-5 1 4-11-11 3 1 4 2 4 3"/>
<path d="M5024 7760l 1 4-3-6 3 2-17-8 4-1-7 1 5-2-6 3 5-5 6-6-5 5 7-8 7-10 7-12 8-14 9-17 9-18 9-18 10-18 9-17 9-19 10-19 10-20 11-20 10-21-3 6 10-23 9-24 8-25 7-23 5-23 5-22 3-23-1 7 2-22 2-21 1-22 0-20-1-19-2-18-3-18 1 7-3-15-4-12-4-11-4-10 3 6-5-7-5-6 11 8-6-2 7 1-6 0 7-1-7 3 7-3-7 5 5-5-5 7-6 8-6 11 3-6-6 13-6 16-6 18-7 21-5 24-5 25-5 26-4 26 1-7-3 26-2 26-2 27-1 27 0 26 0 27 2 27 3 27-1-7 5 26 6 25 6 25 8 24 9 23 10 21-3-6 11 17 11 14 11 12-5-5 10 9 10 7-7-4 10 5 9 2-7-1 9 0-7 1 8-3 7-3-6 3 6-4 5-5-5 5 5-7 5-7-4 7 4-8 2-8 2-9-1 7 1-10 0-10 0-11-2-12 1 7-2-11-3-11-4-10-4-10-4-9-4-8 3 6-4-7-5-7-4-6-4-4-3-4 5 5-4-3-3-3-4-3-3-2-5-5-3-7 0-2-1-7 1-7 3-6 5-5 6-3 3-1 5-2 6-2 6-2 5-2 5-2 4 0"/>
<path d="M5320 7546l 2 6 1 7 1 7 1 7 0 8 0 8 1 9 0 8 0 10 0 10 1 10 1 9 1 7-1-7 1 6 2 6 3 5-4-7 3 4-5-5 4 2-13-4 4 0-7 1 5-1-7 3 5-3 4-4-5 5 4-5 4-5 4-5 3-6 4-6-3 6 2-6 3-7 2-6 2-7 1-6 2-6 1-5 1-3-1 7 1-4 0-2 4 13-1 0 40-7-1 3-1 5 1-7 0 5-1 5 0 5 0 6 0 5 1 5 0 6-1-7 1 5 2 4 3 5-4-6 4 5 5 4-5-5 4 4 5 2-7-3 5 2-7-2 6 1-7 1 7-1 7-1 6-2 7-3 7-2 7-3 8-3 6-4-3 2 6-4 3-1 3-1 3 1 3 1 3 3"/>
<path d="M5510 7585l 3-6-2 7-2 8-2 9-2 9-2 9 1-7-1 9 0 9 0 9 0 9 2 8-1-7 1 8 3 7 2 5-3-6 3 5 5 4-5-5 4 3-6-3 5 3 5 1-7-1 5 0-6 1 5-1-6 3 5-3 5-5-5 5 5-7 4-8 5-9 5-9 4-9-3 6 4-10 4-8 3-9 3-8 3-8 2-8 2-7 2-6 1-6 1-6-1 7 1-6 0-6 0-3 5 13-1-1 37 0-2 2 3-7-1 4-2 4-1 5-2 6-1 6 1-7 0 8 0 9 0 10 1 12 2 13 2 14-1-7 3 13 3 14 5 14 4 14 6 15 6 13 5 13-3-7 6 12 7 11 7 12 7 10 7 11 7 10 7 11 7 12 7 13 3 7 7 13 5 13 5 14 3 14 1 7 3 15 1 15-1 14-1 14-1 7-3 13-5 12-3 6-7 12-8 11-5 5-9 9-11 9-12 8-12 7-6 3-12 6-13 4-7 1-14 2-14 0-15 0-15-3-7-1-15-3-16-5-17-5-16-6-17-6-16-8-16-8-5-3-14-9-13-9-12-10-3-4-10-11-8-11-2-3-1-4 1-4"/>
<path d="M7071 7290l-1-6-1-7 0-6-1-7 0-6-1-6 0-6 0-6 0-6 0-5 1-7 0-4 4-7 5-5 2-1 6-3 7-1 7 1 6 3 4 2 5 5 4 6 3 6 4 8 4 9 5 11 6 13 6 14 7 14 7 15 7 16 7 15 7 14-3-6 7 13 7 12 7 12 7 12 7 11 8 11 8 10 7 10 7 9 6 9 6 9 6 7 6 7 5 6 4 5-5-4 5 4-6-3 5 2"/>
<path d="M7368 7259l 0 8 0 9-1 11-1 12-1 14-2 17-2 19-1 20-2 21-3 23-2 7-3 24-4 25 1-7-4 27-3 27-4 29-4 30-4 30-4 30-3 29-4 28-3 26-2 24-2 22-3 22-3 20-3 19-3 18-3 15-2 12-1 6-3 11-3 9-3 7-2 3-3 5"/>
<path d="M7606 7776l-2 3 8-10-1 2-7-23 1 1-18-3 3-1 5-3 6-3 7-4-7 3 8-4 8-5 8-7 8-9-5 5 9-10 9-11 8-11 9-13 9-12 8-13 7-12 7-12 6-11-4 6 5-11 4-10 2-10 2-8-1 7 1-8 0-8-1-6 1 7-1-6-2-5 3 6-3-3 5 5-3-3 6 3-3-1 7 1-4 0 13-4-3 2 5-5-3 4 3-6-2 5-2 7-1 8 1-7-1 9 0 10 1 10-1-7 2 11 3 10 4 10 5 10-3-6 5 9 6 9 7 9 7 9 7 8 7 8 6 7 6 8 5 7 5 6 3 7 3 6 3 5 1 5 1 7 1 5-1 5-1 7-1 4-3 7-2 4-3 3-5 5-4 4-5 3-4 4-6 3-6 3-7 2-6 1-7 2-7 0-8 1-7-1-7-1-8-1-7-3-8-2-6-3-6-3-6-3-5-2-4-3-5-5-3-7-1-3-2-7 1-3 1-7 3-6 2-3 5-5 4-4 4-3 6-4 7-5 7-4 8-4 6-3 8-5 9-4-6 3 8-5 9-5 8-5 9-5 9-5 8-5 8-5 8-4 7-4 7-4 7-4 6-4 6-4 6-4 5-3 6-3 6-3 5-3-6 4 5-3 4-2 5-3 4-3 5-3 4-3 4-3 3-3 3-2 3-3 3-2 3-3-5 5 3-4 3-3 3-3 3-4 3-4 2-4 3-4 2-3-3 6 1-4 2-4 0-4-1 7 1-4-1-4 1 7-1-4-1-4-2-4 4 7-3-4 5 5-3-2 7 3-4-2-4-1 7 1-4 0-4 0 7-1-5 1-5 2-5 2 6-3-5 3-5 4-6 5 5-5-5 6-4 7-5 8-5 9 4-6-5 9-4 10-3 10-2 10-2 11-2 11 1-7-1 11-1 11 1 10 1 9-1-7 2 8 3 7-4-6 4 7 5 6 5 5-5-5 5 4-6-3 6 3 7 1-7-1 8 0-7 1 8-1 8-3 9-5-6 4 10-6 10-6 10-8 11-10 10-11-5 5 11-12 10-13 11-13 10-14 11-15 11-15 10-15 9-16 9-16-3 7 7-16 7-16 5-17 4-16 4-17 3-18-1 7 2-18 1-19 1-18 0-19 0-17 0-18-1-16-1-15-2-14 1 7-2-12-3-10-2-8-3-7 3 7-3-5 5 5-3-2 13 5-4-1 7-1-4 2 6-3-5 4 5-5-5 7-6 9-6 11 4-6-6 12-5 15-5 15-5 18-4 18-4 19-3 20 1-7-2 21-3 20-1 22-1 22 0 22 0 23 2 23 2 22 3 21-1-7 4 20 6 17 5 16 7 14-3-7 7 12 8 10-5-5 9 7 9 6-6-3 9 3 10 2-7-1 9 0-7 1 10-2 9-3-6 3 9-6 9-7-5 5 8-8 8-11 7-12-3 7 6-14 5-14 5-15 4-16 4-17 4-17 3-17-1 7 2-18 2-18 1-18 1-19 0-19 0-20-1-20-1-21 0-21-1-22-2-21-1-21-2-19-2-18-2-17-3-14 1 7-2-12-3-10-2-8-3-6-2-5 3 6-2-3 5 5-3-2 13 4-3 0 7-1-3 1 6-3-4 2 5-5-4 5-4 6-4 7 4-6-5 10-3 11-4 13-3 15-2 15 1-7-2 17-1 18-1 18 0 19 1 19 1 20 2 20 3 20-1-7 3 20 4 19 5 19 5 19 6 19 5 18 6 18 6 17 7 15 7 15-4-6 7 13 7 13 7 11 7 12 7 10 7 10 7 8 7 8-4-4 8 7 7 7 8 6 3 3 2 4 0 4 0 4"/>
<path d="M4550 6167l 3-3 3-4 5-5 3-3 4-4 5-3 6-4 6-3 8-4 8-3 8-4 8-4 9-4 8-4 9-3 9-3 10-4 11-3 11-3 12-4 11-2 7-1 11-2 11-1 11-1 10 0 10 1 10 1 7 1 9 2 9 2 8 3 7 2 6 3 7 3 5 3 5 4 5 5 3 4 3 6 2 5 1 7 1 6-2 7-1 6-2 6-4 6-4 7-5 7-7 8-5 5-8 9-10 9-11 9-11 9-13 9-13 10-14 11-15 9-14 9-14 8-13 8-6 3-13 7-12 5-11 6-11 5-10 5-9 5-7 3-7 2-7 1-4 0-7-1-7-3-2-2-5-5-4-6-1-4-1-7 1-7 1-4 3-7 2-4 4-5 4-4 5-5 5-5 5-4 6-3 7-3 6-3 8-2 8-2 8-1 7-1 9-2 10 0 11 0 11 0 12 0 12 1 11 0 12 2 12 1 7 2 12 1 13 3 12 3 13 4 12 4 11 2 10 3 9 3 8 3 6 3 7 4 7 3 4 4 5 5 4 5 3 6 3 7 1 7 1 8 0 9-1 7-3 10-4 9-3 7-6 10-8 10-9 10-5 5-11 9-12 10-12 9-12 9-10 8-11 7-11 7-12 6-6 4-13 6-14 7-13 6-14 5-14 5-12 3-12 2-7 1-12 2-11 0-10-1-7-1-9-3-9-5-6-3-7-6-5-5-5-8-3-5-3-9-2-9 0-6 0-9 1-5 2-9 4-10 2-4"/>
<path d="M5015 6217l-4 8-5 8-5 9-5 9-5 9 3-6-4 10-4 11-4 10-3 9-2 9-2 9 1-7-1 10 0 11 1 11 1 11-1-7 2 10 4 10 3 8 4 8-3-6 5 8 6 8 7 7-5-5 7 6 8 5 8 4-6-3 8 3 9 2-7-1 9 1 10 0 10 0 10-2-7 1 11-2 12-4 11-5 13-5 11-6-6 4 11-7 10-8-5 5 9-9 8-11 7-11 6-11-3 6 4-10 4-9 2-11-1 7 1-11-1-12 2 7-3-11-4-11-5-11 3 6-7-10-9-11-10-10 5 5-12-10-13-8 7 3-14-7-15-5-16-4-15-2 7 1-13-2-13 0-12 1-13 2-13 1 6-1-12 2-13 3-10 2-10 2-9 2-9 2-4 0-7 2"/>
<path d="M5506 6217l-5 1-5 1-5 1 7-1-5 1-6 3-6 2-6 2-6 3-7 2-7 3-7 4-7 4-7 3-7 3 6-3-7 4-7 4-7 6-6 5-6 5-6 5 5-5-6 7-5 7-5 8-4 6-4 6-3 4 3-6-3 6-1 6 1-7 0 8-1-7 3 7-3-6 5 7 6 6-5-4 6 4-6-3 8 4 9 3 11 3 12 3-7-1 13 1 15 0 14-1 16-1 15-1 16-3-7 1 16-4 16-4 14-5 14-4 13-4 14-3 13-4 13-4 12-5 12-4 11-5 9-5-4 2 9-5 7-6 7-6 4-2 3-1"/>
<path d="M5466 6125l 1-7 0 8 1 10 1 11 2 12-1-7 2 12 4 15 4 18 4 18 4 17 3 16 1 7 3 18-1-7 4 18 4 17 4 14 3 15 3 15 3 15 3 13 3 13 3 13 3 12 2 12 3 10 3 9 4 8 4 7 1 4-1 4"/>
<path d="M7018 6124l-4 9-5 9-6 11-5 11 3-6-5 11-5 12-5 11-5 11-5 9-3 6-4 9 3-6-4 9-3 9-3 8-1 8 1-7 0 7-2-7 2 7 3 8-4-6 4 7 6 5-5-5 6 6 8 3-6-3 8 3-7-2 10 1 10 0 12 0 13 0 14-1-7 1 15-3 16-5 17-6 17-6 18-6 18-5 17-6 16-6 15-7 14-7 12-5 4-1"/>
<path d="M7094 6161l-5 3 6-3-5 4 4-5-4 6-3 6 3-6-3 7-2 7-2 7 1-7-1 8-1 9 0 9-1 9 0 9 0 9 0 10 0 11 1 11 2 12 1 10-1-6 1 10 3 10 5 10-3-5 7 12 8 12 8 11 2 4 0 4"/>
<path d="M7371 6114l-5 1-6 2-6 3 6-2-6 4-7 6-7 7 4-5-7 9-7 10-8 12-8 13-7 14 3-6-7 14-5 14-5 14-4 15-4 16-2 15 1-7-2 13 0 12 1 12-1-7 3 12 4 13 5 12-3-6 6 11 8 11 8 10-5-5 10 9 9 7 11 6-6-3 11 4 13 4 13 3-7-1 14 2 14 1 14 1 13-1-6 1 13-4 14-4 14-6-7 3 13-7 12-8 11-9 11-9 9-10-5 5 8-10 7-11-3 6 5-12 5-11 3-11-1 7 1-11 0-12-1-12 1 7-3-12-4-11-5-11-6-13 3 7-7-13-9-13-9-12-11-12 5 5-12-11-13-11-14-9-14-8 6 3-14-7-14-5-13-5-13-2 6 1-13-2-11-1-10 0-8 0-7 1 5-1-7 2-3 0-4 0"/>
<path d="M7837 6169l 7-1-6 2-6 3-6 3 7-3-8 4-8 5-9 5-9 6-10 6-10 7-9 7-9 8-9 8-10 9-9 8 5-5-8 9-7 9-6 9-6 7-4 6-3 6 3-6-2 6 1-7-1 6-1-7 1 7 3 5-4-6 4 5-5-5 5 4 6 4 8 5-6-3 9 3 9 2 10 2 10 3 11 2-7-1 11 0 11-1 12-1 12-1-7 1 12-2 11-4 12-4 12-4 12-2 12-3 14-4 13-5 13-5 14-4 12-4 12-6-6 3 11-7 10-7 9-6 8-6 7-6-4 3 6-7 6-9 4-8 3-3 3-2"/>
<path d="M7838 6097l-4 5-4 5 5-5-4 5-3 5-3 5 3-6-3 7-2 7 2-7-1 8 0 9 0 11 0 12 1 12 1 13 2 12-1-7 3 12 3 14 3 13 3 13 4 12 4 12 4 12 4 12 4 11 5 12 4 12 5 13 5 13 5 12 4 12 4 10 4 11 4 11 0 3 0 4"/>
<path d="M1870 3071l 1-6 0 6 0-6 1-6 0-6-1 7 0-5 0-5 1-7 1-4 1-5 1-4 3-6 5-5 2-2 6-3 7-1 7 1 3 1 6 3 5 5 3 5 4 6 3 7 3 10 3 11 2 13 2 7 2 15 1 17 2 20 2 21 2 22 2 24 3 25 4 26 3 26 3 27 3 27 3 27 3 28 3 28 3 28 4 27 4 27 5 27-2-7 5 26 5 24 4 22 3 18 4 17 4 16 5 15 5 15 5 13 5 12 6 10-4-6 7 10 6 8-5-5 8 5-6-3 7 3-7-1 8 0-7 1 9-3-6 3 8-6-5 5 9-10 9-13 9-15 10-18-3 6 9-21 10-23 10-25 10-27 9-29 9-30 8-31 7-31 5-31-1 7 4-33 3-34 3-35 1-36 1-37 1-38 2-39 2-41 3-39 2-34 2-29 1-23 0-18 1-13 1-11 1-10 1-9-1-4 13 19-3-2"/>
<path d="M2583 2756l 6-3-5 4 6-5-6 6-5 8-7 10-8 13-9 15-10 19-11 22 3-7-11 25-11 27-11 27-9 25-10 27-9 29-11 32-11 36-10 40-9 41-9 43-8 42-8 43-6 43 1-7-5 45-4 45-2 44-1 42 0 41 3 38 4 37 5 36-1-7 6 34 7 32 7 29 8 28 8 25 8 23 8 21 8 19 8 17-3-6 8 15 8 13 8 11 8 9 7 8 7 7-3-4 7 6 7 4-4-2 6 2 6 1 3 1 2 2 1 3"/>
<path d="M2615 3648l 2-8 2-10 5-12 5-14 8-17 8-20 11-22 12-26 14-30 16-33 19-40 20-42 18-43 18-43 15-44 14-44 12-44 11-43 9-40 8-35 5-31-1 7 4-30 4-33 3-31 2-26 2-19 1-13 1-9 1-7 1-6 2-3 3-6 5-5 6-3 7-2 7 2 6 3 5 5 4 6 1 3 1 7 1 8 1 12 1 15 1 19 3 25 3 25 3 21 3 21 3 22 3 25 4 28 5 35 7 40 6 42 7 39-1-7 6 33 6 27 7 25 7 26 7 26 7 26 7 25 7 25 7 22 8 20 6 18 7 16 5 14 5 12 4 11 4 9-3-5 4 6-4-4 2 2-24 4 4-4"/>
<path d="M2726 3394l 9-4 13-6 13-6 13-4 16-4 21-5 21-7 15-5 17-6 22-8 20-10-5 2 16-9 15-9 20-12 3-2 3 0"/>
<path d="M3033 2729l 6 3 14 7 14 8 15 10 16 10 16 11 16 12 14 13 5 5 16 15 19 20 21 22 19 21 17 20 15 16 12 15 12 16 14 20 16 24 3 6 14 28 12 27 8 26 6 27 5 28 1 7 4 29 2 29 0 29-2 28-3 24-1 7-4 24-6 25-8 26-9 27-10 29-9 29-11 29-10 27-10 26-11 25-2 3-2 3"/>
<path d="M3606 3170l 5-4 6-3 5-2 6-3 7-2 9-1 7-1 8 0 9-1 8-1 8-1 10-1 12-1 10 0 7 0"/>
<path d="M3615 3299l 7-1 10 1 12 0 12 0-6 0 11-2 13-3 4 0 4 0"/>
<path d="M4874 2943l-8 3-11 2-14 4-15 4-15 6-16 5-15 6-15 4-12 5-11 6 7-4-12 7-12 9-14 8-13 7-10 6-7 6-6 5-5 4 5-5-3 4 4-13 1 4-5-14 4 4-5-5 8 5-6-4 11 4 13 3-7-1 12 1 12 2 7 1 10 2 12 2 14 3 15 3 12 2 12 3 11 4 12 4 12 3 12 3 10 4 10 4 10 4 7 4 8 5 6 5 5 5 4 6 3 6 2 7 1 7 0 7-1 7-2 7-3 7-4 6-6 7-5 5-8 7-11 9-14 10-15 10-14 8-6 3-14 7-16 7-19 8-21 8-23 6-21 5-21 5-18 4-17 2-6 1-13 1-12-1-5-1-11-2-10-4-12-5-3-2-3-3-2-3"/>
<path d="M4708 2831l 2 9-1-7 2 10 2 10 2 10 2 9 3 10 3 14 1 7 2 14 2 14 2 13 2 17 1 19 2 24 1 23 1 20 1 21 0 26 0 27 0 23 0 23 0 27 0 27 0 27 0 22 0 18-1 14-1 16 0 17 0 16 0 14 0 12 0 11 0 10-1 9 0 8-1 3-1 3"/>
<path d="M4805 4168l 1 5-1-4 3 5-2-3 4 4-3-2-3-2 6 3-5-1 7 1-7 0-7 1-8 1 7-1-8 2-8 3-10 3-10 4-11 6 6-4-11 6-12 7-12 7-12 8-12 8-12 9-13 11-11 10-9 8-6 7-6 5 5-5-4 5-3 5 3-6-1 4-4-20 3 3-5-5 5 3-6-3 7 1-7-1 9 1 10 0 10 0 12 0 12 0 14 0 14 0 14-1 16 0 14 0 15 1 13 0 13 0 12 1 7 1 12 3 11 4 6 3 9 5 5 4 5 5 3 5 3 6 1 6 1 7 0 6-1 7-2 6-3 6-4 6-6 7-5 5-9 8-9 8-10 7-11 6-6 4-11 6-14 6-13 7-11 5-11 5-12 5-14 5-16 4-17 4-15 2-6 1-14 1-12-2-6 0-10-4-5-2-8-5-7-6-3-3-6-7-2-4"/>
<path d="M4753 3976l 2 9 1 6 3 11-1-7 3 11 3 10 5 11 5 12 5 13 4 14 4 14 4 17 5 20 4 20 2 7 3 19 2 18 2 19 1 20 1 19 0 20-1 21-2 22-2 22-3 23-1 7-4 23-5 23-5 22-4 21-5 20-3 17-3 16 0-6-2 15 0 16 0 12 1 8-1-5 2 5 0 4"/>
<path d="M5201 4093l 2-5 2-5 2-4 2-5 1-4-3 5 2-4 1-4 3-6 2-4-3 6 2-4 1-5 1-4 1-4 1-4-1 7 0-3 0-3 2 7-1-3 3 6-2-2 11 8-3-2 7 1-5 0-6 0 7-1-5 2-6 2 7-3-6 3-6 4-7 6-7 6-8 8-9 9-10 10 5-5-10 11-10 13-11 15-11 16-11 18-9 18 3-6-9 18-7 18-7 18-6 17-6 18-5 17-3 17 1-7-2 17-1 16 0 16 2 16-2-7 3 15 4 14 6 14 6 14-3-6 7 13 9 12 10 11 10 11-5-5 12 10 12 10 13 9 12 8 13 7-6-3 12 5 13 6 13 4 14 4 13 3-7-2 13 1 13 0 13-2-7 1 14-3 14-4 15-5 14-7-6 3 14-8 14-9 14-10 14-11 13-12 13-12 13-13-5 5 13-13 11-14 11-14 9-14 8-15-3 7 6-15 5-15 4-15 3-17-1 7 1-17 0-18-2-19-3-18 1 7-4-19-5-19-6-19-6-18-8-18-8-16 3 6-10-15-10-14-12-13 5 5-12-10-13-8 7 3-14-7-14-4-16-3 7 1-15 0-17 2 7-1-17 3-17 5-17 7-17 6-16 7-15 8 5-3-15 7-15 9-15 8-14 8-13 8-12 8-12 7-10 7-9 6-8 7-2 1"/>
<path d="M6695 3253l-2 9-1 8-2 9 1-7-1 8 0 8-1 10-1 11-1 11-1 9-1 10-1 10-1 9-1 6-1 8 1-5-1 7 0 7 0 7"/>
<path d="M6628 3079l"/>
<path d="M6927 2992l-6-6 4 5-6-5-7-3 6 4-6-2 7 1-7 0-7 0 7-1-7 2-7 2-7 4 6-4-7 4-7 5-7 5-6 7 5-5-6 7-6 8-5 7-4 7-4 7-4 8-5 9 3-6-4 9-3 9-3 10-2 11 1-7-1 12-1 12 0 11 0 12 0 14 0 17 2 21 2 19 2 16 2 14 1 16 1 17 2 18 1 19 1 18 1 18 0 17 0 17 1 15-1 16-1 16-2 16-1 4-3 13-3 10-2 3"/>
<path d="M6679 3195l 9-4 11-3 12-3 15-4 20-4 20-4 6-1 15-2-5 1 17-4 24-4 25-5 27-5 27-4"/>
<path d="M7486 3452l 4-9 5-11 7-12 9-15 11-16 13-17 14-21 15-22 15-25 15-23 13-22 14-24 15-29-4 6 16-32 14-32 12-29 11-29 9-28 7-30 7-30 5-29 4-25 4-24-1 7 3-21 2-20 2-17 1-15 1-11 0-9 1 7 0-2 39 6-2 4 3-6-2 9-3 13 1-7-2 15-1 17-2 19-1 21 0 21-1 23-1 24 0 24 0 24 1 25 1 25 2 23 2 26 4 30 5 30-1-7 6 29 6 27 6 26 8 24 7 21 8 20 7 19 6 19 5 17 4 15 4 13 3 11 4 13 3 11 3 10 0 4 0 3-2 4-3 2"/>
<path d="M7588 3253l 6-3 9-3 11-3 11-3 13-3 7-2 14-2 17-1 21-1 21-3-5 1 24-5 23-4 23-5 3 0"/>
<path d="M7940 3211l 2 9 2 7 1 10 0 10 0 11-1 12-2 13-1 13-1 7-2 11-3 12-2 11-2 12-2 11-3 10-2 8-2 9-2 7 1-7 0 4-36-19 3-2-5 5 5-8 7-10 7-10 7-12 7-13-3 6 7-15 7-16 3-6 7-14 7-11 5-8 4-9-3 7 4-9 3-7 5-8 5-9 5-9 4-5 5-5 3-2 6-3 7-1 7 1 6 3 3 3 5 5 3 6 3 6 2 7 1 7 1 7 1 7 0 9 0 9 1 8 0 8 0 7 0 8 0 8 0 8 0 9-1 9 0 9 0 7 0 7 0 6 0 7-1-6 1 7 2 8 2 6-3-6 3 6 4 5 4 5-4-4 5 5 5 3-4-2 5 2 5 1 4 2 3 3"/>
<path d="M8158 3262l-1 10-2 12-2 10-2 8-2 9-2 12-2 11-2 11-2 9-2 8-2 10-1 8-2 8 2-7-1 3-41-14 3-3 4-10 6-11 6-11 7-10 6-11 7-11 7-12 6-10 7-9 7-10 7-8 7-8 7-8 7-7 7-8 5-7 4-5 5-5 7-3 4-1 6-1 7 1 7 4 5 5 3 4 3 6 2 8 1 7 0 8-1 10-1 11-1 11-1 11-1 10-1 7-2 9-2 9-1 10 1-7-1 9 0 9 0 7 1 8-1-6 1 8 2 8-3-6 4 7-5-4 6 5-5-3 8 4 9 2-4-1 10 2 12 1 4 0 3 2 3 3"/>
<path d="M8465 3287l-5-4-6-5 5 4-6-4-6-4 5 3-7-2 7 1-8 0-7 2 7-1-8 2-7 3-9 2-10 4-12 5-12 6-13 7-12 6-13 6 7-3-12 7-10 8-9 8 5-5-8 9-6 8-5 7 3-6-2 7 0-14 1 7-8-11 6 5-6-3 9 3-7-1 11 0 12-1 13-2-7 2 13-3 13-2 13-3 13-2 12-3 12-4 10-4 10-4-6 3 7-4 5-4 5-4-5 5 3-3 5-5 3-2 6-4 7-1 7 1 6 4 5 5 3 6 2 3 1 7 1 7 0 8 1 8 0 8 0 8 2 8-2-7 2 8 2 7 2 7-3-6 3 6 4 6-5-5 6 6-5-3 7 5 10 2-6-1 11 2 14 1 17 0 23-2 25-4"/>
<path d="M6614 4394l-3 9-2 11-4 11-3 13-2 11-2 10 1-7-2 12-2 15-2 18-2 16-1 12-1 11-1 11 0 12 0 13 1 10 0 7 0 3-2 3-2 2"/>
<path d="M6922 4136l-5-3-5-4-5-2 6 3-5-2-7-1-7-1 7 1-8 0 7-1-8 2-7 3-7 3 6-3-7 5-6 6 5-5-7 7-6 7-6 7-6 7-6 8-6 9-7 11-6 12 4-7-6 13-4 13-4 14-3 13-2 14 1-7-1 14-1 13 1 15 2 14-2-7 3 14 4 14 4 13 5 14 5 14 4 13 5 14 5 15 5 16 4 13 3 12 3 12 1 13 2 7 1 12 1 12 0 13-1 13-1 6-3 13-3 13-6 13-2 4-7 13-8 12-3 2"/>
<path d="M6632 4349l 5-3 7-2 8-3 9-3 11-4 12-4 15-4 16-3 7-1 18-3-6 1 19-3 20-3 20-4 20-4 20-4 22-4 5-1 23-4 25-3 28-1 29-1 3 1"/>
<path d="M7626 4346l 6 1 6 3 6 3 5 4 6 5 5 7 4 7 3 6 4 8 3 10 2 12 1 7 2 12 0 14 0 14 0 16-1 16-1 15-2 7-2 14-2 13-2 13-3 12-3 11-4 10-4 11-3 9-4 9-3 7-4 6-3 5-5 5-3 1-6 4-7 1-7-1-7-4-5-5-1-2-3-6-1-7-1-4 2-7 1-5 2-7 4-8 3-10 5-12 5-13 5-13 5-14 7-15 8-18 4-6 8-17 7-13 8-13 9-13 9-12 9-12 9-9 5-5 8-8 8-7 8-6 8-4 6-4 8-4 8-3 7-2 6-2 7-1 7-1 6 1 7 1 7 3 6 3 5 5 4 6 4 6 3 7 2 7 1 7 1 8 0 9 0 10-1 11-2 11-1 7-2 13-2 12-3 13-3 12-4 14-4 14-3 13-3 13-3 11 1-7-2 11 0 11-1-6 2 11 3 10-3-6 5 8-4-4 6 5-5-3 8 2-6 0 9 0 11-1-5 0 14-4"/>
<path d="M8092 4412l 5-3-5 4-6 5-6 5-6 5 5-5-5 7-6 7-7 8-8 9-7 9-6 9-6 10-6 10-5 9 3-6-4 8-2 8 1-7-1 7 1 7-2-7 3 7-4-7 4 6 4 6 6 5-5-5 6 5 8 4-7-3 9 3-7-1 11 0 13-1 14-1-7 1 12-3 11-4-6 4 10-6 9-6 8-7 7-6-5 5 6-6 4-7-3 6 3-7 1-7-1 7 0-7 1 7-1-7-3-8-4-7 3 6-6-8-8-9 5 5-10-9-11-9-11-8-10-7-9-7 6 4-9-5-9-4-9-2 6 1-8-2-9-2-8-1-7 0-6 1 5-1-6 1-5 2-5 1-4 1-3-1-4-2"/>
<path d="M8426 4142l-4 6-4 8 3-6-4 8-4 10-3 10-3 11-4 12-5 15-4 16-5 16-4 16-6 17-5 19-6 21-5 20-5 21-5 18-3 19-4 21-3 22-3 22 1-7-3 21-1 21-1 20 1 19 2 17 2 17-1-7 4 18 5 18 8 17-4-7 9 14 9 11-5-5 10 8 12 6-7-3 12 4 14 2-7-1 14 0-6 1 15-2 15-4 15-5 14-6-5 2 15-7 15-9 16-10 14-11 14-10 12-10 3-2 3 0"/>
<path d="M8205 4422l 5-1-8 3-7 2-3 2-6 1-6-1-6-3-4-4-3-5-1-6 1-6 3-6 4-4 6-3 6-3 11-3 14-4 14-2 17-3 7-1 19-2 22-3-6 1 25-4 6-1 27-3 28-3"/>
<path d="M9067 3428l 3 3-11-4 5 0-7 1 6-2 6-2 7-2 6-4-6 4 7-5 8-5 7-7-5 5 8-9 9-10 10-10 10-11 9-12 10-12 9-13 10-13 9-13 9-14 8-14 8-15-3 6 7-14 6-13 5-13 4-12 4-12 3-10 2-9 1-8-1 7 0-6 0-6 1 7-1-4 3 6-1-2 18 9-2 0 18-9-2 3 3-6-2 4-1 6-1 8 1-7-1 7 0 9 1 8 1 9-1-7 3 10 3 9 4 8 4 9-3-6 6 9 5 8 6 7 6 6 6 7 6 7 7 7 6 6 6 6 6 7 6 7 5 7 4 6 3 6 3 6 3 6 1 5 1 7 0 6-1 7-2 6-3 6-3 6-4 5-5 6-6 6-5 5-6 6-7 6-7 5-9 4-8 5-6 3-9 5-9 4-9 3-9 3-9 3-8 2-8 2-7 1-7 1-6 1-5 0-1 0-7-1-6-3-5-5-3-6-1-7 1-7 3-7 5-5 6-3 7-1 3 0 5-1-7 1 7-1 7-2 8-1 9-2 10-3 10-2 12-3 12-3 14-4 14-4 15-5 16-5 15-7 16-7-3 1 16-8 3-2"/>
<path d="M9503 2776l 1 9 0 12 1 14 2 17 1 19 2 21 2 21 2 22 2 22 2 24 1 26 1 27 1 28 0 29 0 30 0 31 1 30 0 28 0 27 0 25 0 24 1 22 0 21 1 19 0 17 0 15 0 13 0 11 0 8-1-7 1 4-28-14 2-1-11 8 4-5-4 6 4-8 4-11 4-12 5-12 5-15 5-15 6-16 6-14 6-15 7-15 7-15 7-14 6-15 7-13 6-13 5-12 6-11 3-6 5-10 4-9 5-6 5-5 3-2 7-3 7-1 7 1 6 3 3 3 5 5 3 6 3 7 1 7 1 7 1 9-1 9 0 10-1 11-2 12-1 13-2 13-2 12-2 12-2 11-1 12-1 12 0 11 1 10-1-6 2 9 2 8 2 7 3 6-2-4 3 6 2 3"/>
<path d="M9807 3237l-1 4 0 5-1 6 1-7 0 6 0 6 1 7 0 7 0 6 1 6-1-7 1 5 1 7 2 6 2 5 3 7-3-7 4 6 4 5 4 4-5-5 4 3 4 4 4 2-6-3 4 1-7-1 6 1 5-1-7 1 5 0 5-2 6-3 6-4 7-3-6 3 7-4 7-5 7-6 7-5-5 5 6-7 6-7 5-8 5-8 4-8-4 6 4-7 2-8 2-8-2 7 1-7-1-6 2 7-2-6 3 7-4-5 5 5-4-4-6-4 6 4-7-3-8-2-8-2 7 1-9-1-10 0-9 1-10 2 7-2-9 2-10 3-9 3-8 3 6-3-8 5-7 5-7 4-7 5-5 6 5-5-6 5-4 6-4 5-4 5 3-6-2 4 1-6 0 3-7-15 5 4-5-2 10 5 3 2 3 2 1 3"/>
<path d="M10064 3179l-2 6-3 6-2 6-3 6 3-6-3 7-2 7-3 8-3 8-2 8-2 8-2 8-2 9 1-7-1 8 0 8 0 8 0 7 1 6-1-7 2 6-3-7 3 5-5-5 4 4-6-4 4 2 6 1-7-1 7 0 7-1-7 1 7-2 8-4-6 3 8-5 8-5 7-6 8-6 7-7-5 5 7-8 6-7 5-7 5-6 4-5 3-5 3-5-3 7 2-4 0-1 3-6 5-5 6-4 7-1 7 1 7 4 5 5 3 6 1 7-1 7-1 2-1 4-1 5 1-7 0 5-1 6 1 7 0 6-1-7 2 6 3 6-3-7 3 6 4 4-5-5 5 4 5 3 6 4-7-4 7 4 7 2-7-1 8 0 8-1-7 2 8-2 9-3 8-3-6 3 9-5 8-6 9-6 8-6 7-6 7-6 7-6 6-6-5 5 5-6 5-6 5-7 3-5-3 6 3-6 1-7-1 7 0-7 0-7 1 7-1-8-3-7-3-7 3 7-3-6-5-5 5 4-5-5-5-5-5-5-6-5-5-4-5-4"/>
<path d="M10397 3233l-7 1 5-2-6 3 4-3 6-5 5-5 6-6 5-6-5 5 6-6 7-7 6-8 7-9 7-9 6-11 7-10 7-11 6-11 6-11 5-10 5-11-3 7 5-10 4-10 4-8 3-8 3-7 2-6 1-5 1-5-1 7 0-4 5 13-1-1 36-1-1 2 3-6-1 4-1 6 1-7-1 6 0 6 0 6 1 6 0 6-1-7 2 7 2 6 2 6 3 7 3 7 3 7 4 8-3-7 4 8 5 9 5 9 4 8 5 9 5 9 5 9 5 9 4 7 4 8 3 6 4 7 3 7 2 8 2 7 1 7 1 8 1 9 0 9-1 9-1 7-2 8-3 9-3 6-5 8-5 8-7 8-5 5-8 7-9 6-6 3-9 4-10 4-9 4-9 4-10 3-7 1-9 1-9 1-9 0-8 1-7 0-7-1-7-1-6-2-6-4-6-2-4-3-3-3-5-5-4-6-1-3-1-7 1-7 1-4 3-6 5-5 3-2 7-3 4-2 5-2 5-1 7-1 7-1 7-1 7 0 8 1 9 0 9 0 9 1 10 1 11 2 11 2 10 1 12 2 5 1 11 2 12 3 11 4 12 3 12 3 12 3 3 1 3 3 2 3"/>
<path d="M14016 5009l 5-4 7-3 7-4 8-4-6 3 8-5 9-4 6-4 10-3 12-3 12-4 14-4 13-3 15-3 17-3 20-4 24-6 23-7 18-6 16-5 17-6 17-7 16-7 16-8 17-7 16-6 16-6 14-5 14-5 13-4 12-4 10-3 9-3 7-2 5-2 4 0"/>
<path d="M14278 4984l 1 6 0 7 0 9 0 10 1 12-1 12 0 13-2 14 0 14-1 15 0 16-1 16 0 18 0 17 0 16 1 16 0 15 1 15 1 15 1 15 1 14 1 13 0 12 1 12 0 12-1 12 0 11-1 10-1 10 0 9-1 8 0 8 0 7-1 7 0 6 0 6 0 4-2 3"/>
<path d="M13502 6345l 5-2 5-2 8-1 8-2 9-3 9-2 10-2 10-3 11-3 11-3 11-3 11-4 11-3 11-4 11-4 11-4-6 3 10-6 6-2 11-5 10-4 11-3 10-4 10-3 9-2 8-3 4 0 4 0"/>
<path d="M13629 6194l 2 6-1-7 1 7 2 8 3 10 3 11 3 12 4 13 4 13 4 13 4 13 3 14 3 14 3 14 3 14 1 7 3 15 2 15 2 15 2 15 1 15 1 14 0 14 0 13 1 12 1 11 0 10 1 8 0 6 0 5 0 4"/>
<path d="M13941 6154l-6 5-7 6-7 6-7 7 5-5-6 8-7 11-8 14-7 14 3-6-6 14-6 13-5 16-6 17-5 19-5 19-6 20-4 22-4 22 1-7-2 22-1 21 1 21 2 20-1-7 4 19 5 17 8 17-4-7 9 15 10 12 12 11-5-5 13 10 14 8-7-3 15 5 14 4 15 2-7-1 15 1 15-1-7 1 15-4 14-5 14-7-6 3 14-8 14-10 14-11 14-12 14-13-5 5 13-15 13-16 11-16 11-18 9-17-3 6 7-17 7-18 5-19 3-21-1 7 1-20-3-18 2 7-5-18-8-21-9-20-10-19 3 6-12-20-14-23-15-23-15-21-15-17-14-15 5 6-12-12-11-9 6 3-12-5-14-5-15-3 7 2-14-1-13 1 7-1-13 3-13 5-13 6 6-3-13 8-12 10-11 10 5-4-10 10-7 12 3-5-5 12-3 12 0-4-1 13-1 14 0 3-2 3"/>
<path d="M14265 6560l-6-1"/>
<path d="M14353 6083l 0-6 1-6 3-6 3-6 5-4 5-6 7-4 6-3 8-3 8-3 10-2 7-1 10-1 10-1 11 0 11 0 11 0 11 1 11 2 7 1 10 2 9 2 9 2 8 3 6 3 7 4 6 4 5 5 4 6 3 7 2 6 1 7 0 7-1 7-1 7-3 7-3 6-5 7-6 7-6 5-7 8-9 8-9 8-11 8-11 8-11 8-12 8-10 8-9 6-8 6-8 5-6 5-4 4 8-11-1 3-15-29 3 1-14 0 5-1 7-1 7-1 8-2 9-1 10-2 10-1 12-1 13 0 12 0 12 1 7 1 10 2 10 2 10 4 11 5 6 3 10 5 9 5 9 5 8 6 8 6 7 6 5 5 6 7 6 6 4 7 3 6 4 8 1 9 2 7 0 8-1 7-1 7-3 8-3 8-3 6-6 9-8 11-10 11-5 5-12 11-12 10-13 8-13 9-15 8-6 3-17 9-19 10-20 10-20 10-16 9-14 6-14 6-12 4-12 3-11 2-7 1-10 0-6-1-8-2-6-4-6-3-4-4-4-6-3-5-2-9-1-5 0-13 1-5 3-16 6-17 7-16 2-4 3-2 3-2"/>
<path d="M14723 6128l-2 9-3 10-4 11-3 12-3 12-3 13-3 14-2 15 1-7-1 14 0 13 0 13 1 13 2 13 2 14-1-7 3 12 4 11 5 10-3-6 5 9 7 8 7 7-5-5 7 5 9 5-6-3 9 2-7-1 11 1 11 0-7 1 12-3 14-5 15-6 16-8 18-8-7 3 18-10 18-12 17-13 15-13 13-15-5 5 12-14 11-14 9-15-4 6 8-16 7-19 4-17-1 7 1-14-1-13-2-13 1 7-3-14-5-14-6-13 3 7-8-13-10-11 5 5-10-9-11-7 6 3-13-6-14-6-15-3 6 0-16-2-16 0-16 1-16 3 5-1-16 4-15 5-14 6-15 6-3 0"/>
<path d="M16085 6230l 8 1-7-2 7 1 8-1 9-1 8 0 9 1 10-1 11-1 10-1 11-1 12 0 11 0 11 0 11-1 11 0 12 0 10 0 10-1-5 1 9-3 8-2 7-3 4 0 4 0"/>
<path d="M16161 6132l 2 5 3 5 1 6 2 6 1 8-1-7 3 9 3 8 3 8 3 7 3 9 3 9 2 11 3 10 3 8 2 8 2 8 1 8 2 7 1 7 1 7 0 7 1 8 2 9 1 8 0 7 1 7 0 6 0 6 0 5-1 5-1 6-1 7-1 6 0 5"/>
<path d="M16497 6042l 3-5 4-5 6-3 6-1 6 1 5 3 5 4 3 5 3 6 1 7 2 9-1 11-1 13-1 7-3 16 2-7-3 17-2 20-3 20-2 21-2 21-3 21-3 22-1 7-3 22-3 21-4 21-5 25-4 24-4 20-3 20-5 23-5 22-4 18-3 18-3 21"/>
<path d="M16636 6542l 4-9 3-7 5-11 8-13 9-16 13-21 15-26 17-28 17-28 16-27 16-26 14-25 12-21 10-21-3 7 11-24 11-28 12-34 12-35 10-33 9-30 8-27 8-26 6-25 6-24 5-22 4-19 4-18 3-16 2-13 1-9 1-3 4-6 5-5 6-4 7-1 7 1 6 4 5 5 3 6 2 7 0 4 0 9 0 10 0 12 1 14 0 16 1 17 1 19 2 20 1 19 2 20 2 24 3 29 4 33 5 33 5 33-1-7 5 31 6 28 7 27 7 26 7 25 6 22 6 19 6 20 8 22 8 21 6 17 6 14 6 13-3-5 6 13 3 6 6 14-2-5"/>
<path d="M16765 6342l 10-2 13-2 14-3 7-1 15-3 16-1 18-2 18-1 18-2 17-1 18-1 17 0 18 0 17 1 18 2 3 0 3 1 2 3"/>
<path d="M13735 7117l 4-4-2 3 3-18 2 3-3-5 3 2-5-5 5 3-7-3 7 3 7 1-7-1 6 0 7-1 7-1 10-1 12-1 12-2-7 1 11-2 10-2 11-1 6-1 11-1-6 1 12-2 13-2 14-3 14-3 17-4 16-3 15-4 13-3 12-3 3 0 11-2 3 1"/>
<path d="M14133 6853l 0 5-1 6 0 6 1-7 0 7 0 7 0 9 1 10 0 11 0 12 0 13 0 13 0 14 1 14 1 16 1 18 2 20 2 20 2 17 1 16 2 16 1 17 2 17 2 18 2 18 2 18 1 17 1 17 1 16 1 18 1 17 0 17 1 17-1 15-1 15 0 15-1 13-1 12-2 11-1 9-1 5-1 8-2 8-1 6-2 3"/>
<path d="M14305 7494l 2-7 2-8 3-11 2-12 4-14 4-15 5-16 5-19 6-20 7-22 7-21 7-22 6-22 5-23 6-25 5-24 5-27 4-32-1 7 4-36 4-35 4-31 3-27 2-27 3-26 2-26 3-26 2-24 3-24 2-24 2-21 2-14 1-9 1-8 1-5 1-7 3-6 1-3 5-5 6-3 7-1 7 1 7 3 5 5 3 7 1 3 2 7 3 11 3 14 4 18 4 18 4 16 4 14 6 15 6 16 7 16 8 17 8 18 9 19 10 20 12 22 13 24 12 24 10 20 8 18 8 18 8 19 9 18 8 17 7 17 7 15 6 15 6 15 6 15 5 14 6 13 4 12 5 12 4 10"/>
<path d="M14357 7223l 6-3 6-4 9-4 10-5 12-3 13-4 14-4 16-4 7-1 16-3 18-1 18-2 19-2 20-3 19-2 20-2 19-2"/>
<path d="M15967 7095l 5-2 5-2 6-2 9-1 7-1 10 0 12 0-6 1 13-2 15-2 6 0 18-2 20-1 24 0 30-2"/>
<path d="M16500 6970l-6 3-7 2-7 4 5-2-8 5-9 8-10 9-10 10 4-5-10 12-9 13-9 15-9 17 4-6-7 17-6 18-4 18-3 19 1-7-2 19 0 17 1 16 2 14-1-6 4 13 6 13-3-6 8 12 11 10-6-5 12 9 12 9 14 7-6-3 15 6 16 5 17 4 16 3-7-1 17 1 16 1 16-1 15-2-7 1 14-3 13-4 13-4 13-6-7 3 13-7 11-9 11-10-5 5 10-10 9-11 8-11 8-13-3 6 6-14 6-14 3-16-1 7 1-15 0-16-2-17 1 7-4-16-5-16-7-16-8-15 4 6-10-15-10-14-12-13-12-13 5 5-13-11-14-10-14-8 6 3-16-7-16-6-16-4-16-4 7 2-16-3-15-1-15 0-13 2 6-1-13 3-12 4-11 5 5-2-9 5-7 7 3-4-6 8-5 9-3 3-4 2"/>
<path d="M16869 7223l 4-1 7-2 7 1 7 1 11 2-5-1 9 0-5 0 11-4"/>
<path d="M17041 6842l 6-1 6-2 7-1 8-1 8 0 10-1 10 1 7 1 10 2 11 2 11 2 11 2 10 2 9 3 9 3 8 3 7 2 7 2 5 2 7 4 4 3 4 3 5 5 3 3 3 7 1 4 1 7 0 4-1 7-1 5-3 7-3 5-4 5-5 5-4 4-6 4-6 4-7 4-6 4-8 3-7 4-7 2-7 3-6 2-6 3 6-3-4 2 5-5-3 4 4-14 0 4-4-13 3 3-5-5 5 3-6-3 6 3 7 2 8 3 9 3 8 3 8 2 9 3 8 2 8 3 8 3 8 3 8 3 8 3 8 2 7 2 7 3 6 2 6 3 6 3 5 4 5 4 5 5 3 4 3 7 3 5 2 6 1 7 1 7-1 6-1 7-2 7-2 7-3 7-4 7-5 8-6 10-8 10-9 10-5 5-10 10-10 9-12 9-12 9-13 9-13 8-6 3-13 7-14 5-13 4-12 4-12 2-6 1-11 1-11 1-9-1-6-1-9-2-7-4-5-2-6-5-3-4-4-6-2-4-3-7 0-3"/>
<path d="M17429 6939l 1 5 0 6 1 8 0 8 0 10 0 9 2 10 2 11-2-7 3 13 3 12 3 12 3 12 4 12 5 12 5 11-4-6 6 10 6 9 6 9 7 9 9 9-5-5 9 8 9 7 9 5-6-3 9 4 11 3-7-1 10 2 11-1-7 1 10-3 10-4 10-5-6 3 10-6 10-7 10-9 10-9 10-9 11-11-5 5 11-14 12-15 10-15 7-12-3 6 6-11 4-12 4-12 2-13-1 7 1-14 0-14-1-14-2-14 1 7-3-13-5-12 3 6-7-11-8-10 5 5-8-8-9-8-10-7-10-6 6 3-10-5-11-5-10-4-11-2 6 1-11-2-13 0 7-1-13 2-13 2-12 4-13 3-13 5-12 6 4-2-13 7-12 8-12 8-3 2-3 0"/>
<path d="M16021 4829l 7 3 6 5 6 5 5 5 5 6 5 7 6 8 6 7 7 8 7 9 8 10 8 10 8 11 8 12 9 12 9 12 8 12 8 11 8 11 8 11 10 11 9 11 10 11 9 10 8 10 9 9 7 9 7 8 7 8 5 7 5 7 4 6-4-4 4 5 5 4-5-2 6 2 6 2 4 2"/>
<path d="M3642 9242l 5-5 6-4 7-4 6-3 9-4 9-5 10-4 11-4 11-4 11-3 11-3 12-2 7-2 13-1 12-1 12-1 12 1 11 1 7 1 10 2 10 2 10 3 8 4 7 3 7 5 7 6 5 5 6 7 4 8 4 6 3 9 1 7 2 10 0 11-2 7-1 12-4 13-6 15-3 6-9 15-11 16-13 17-15 18-17 17-5 5-18 19-20 19-21 18-20 19-21 19-20 18-19 19-18 17 5-5-16 17-15 16-13 14-12 13-10 12-9 12-7 10-5 9 4-6-4 8-1 7 1-7 0 6-1-6 2 5-3-6 3 3-5-4 5 2-6-3 6 2-7-2 7 1 9 0 9-2-7 2 11-3 11-3 13-4 13-3 15-3 16-4 16-4 17-5 19-4 18-4 19-4 20-5 19-6 20-6 20-6 19-7 19-6 18-7 3-1 3 1"/>
<path d="M4039 9325l-6 3-6 4 6-3-6 4-5 4-5 5 5-4-5 6-6 8-6 9-5 11 3-6-6 11-5 12-4 13-4 14-3 14-4 13-2 14 1-7-1 14 0 13 1 13-1-7 3 12 4 13 6 11-4-6 8 11 8 11-5-5 10 9 12 8 13 8-7-4 14 6 15 4 16 3-7-1 16 1 17-1 18-2-7 1 19-4 18-6 17-7 17-8-6 3 15-10 15-10 14-12 13-12-5 5 11-14 11-14 8-15 8-15-3 7 6-15 4-16 3-16-1 7 0-16 0-16-3-15 1 7-4-15-6-15-7-14 3 6-9-14-10-14-11-13 5 5-13-12-14-11-17-10 6 3-17-8-18-7-18-6-17-3 6 1-18-1-18 1 7-1-19 3-17 5-17 7 5-3-15 9-15 9-12 11 3-4-11 11-11 11-3 3-4 2-4 1"/>
<path d="M4620 9317l 7 1-6 0-6 0 7-1-4 1-5 2-4 1-5 3 6-4-5 4-5 4-6 5-6 6-7 5-8 6-9 7-10 7-11 8-10 9-12 10-11 9-11 10-10 9 5-5-10 11-9 11-7 10-7 10-5 9 4-6-3 10 1-8-1 10 0 9-1-7 2 8-3-6 5 7 6 6-5-5 8 7 9 6-6-4 11 5 14 4 14 3-7-1 15 1 15 0 15-1 15-2 16-3-7 1 16-2 17-4 16-4 15-6 15-5 16-5 14-5 14-5 13-5 12-5 10-5 10-4 3-1 3 1"/>
<path d="M4567 9212l-3 7 3-6-2 8-1 9 1-7 0 11 0 11 0 13 1 14 2 16 3 17-1-7 3 17 4 18 4 18 4 19 5 19 6 21 5 20 6 20 6 21 7 22 6 22 7 22 7 22 7 22 6 23 6 23 6 23 1 4-1 4"/>
<path d="M3476 10599l 6-3 6-4 7-4 8-4 8-4 9-4 11-4 11-4 11-5 11-5 11-4 11-5 11-4 12-5 12-5 13-5 12-5 13-5 14-5 14-5 14-4 14-4 14-4 14-4 14-3 5 0 12-3 11-1 10-1 9 0"/>
<path d="M3658 10555l 3 10 4 12 4 13 5 14 4 15 5 17 4 17 4 18 4 19 4 20 1 7 3 20 3 22 3 22 3 22 3 22 2 22 3 22 2 21 1 20 1 18 0 18 0 17 0 18-1 17-1 15-2 15-1 13-2 13-2 12 0 4-2 12-2 9-2 8-2 3"/>
<path d="M4238 10998l 1-6 0 4-4-12 2 3 3 2-11-8 4 1-7-1 5 0 5 0-7 1 5-1 5-3-7 3 5-3 6-6-5 5 6-7 6-9 8-12 8-13 9-17 10-18 11-21 11-22 12-23 12-24 13-24 12-24-3 6 10-23 10-24 10-24 8-24 8-24 6-23 5-24 3-24-1 7 2-23 1-23 0-21-1-20-1-17-1-16-3-14 1 7-2-11-3-9-4-6 4 6-4-4 11 9-4-2 14 0-4 1 6-3-5 4 5-5-7 7-7 11-8 14 4-6-9 17-8 21-9 24-8 25-7 28-6 29-6 30-4 31 1-7-4 31-3 32-1 31-1 29 2 28 3 26-1-7 5 24 7 21 9 19-4-6 11 16 11 15 12 13-5-5 14 10 14 8-6-3 16 5 17 4-7-1 17 0 16-2-7 2 15-5 14-6-6 3 13-8 11-9-5 5 10-11 7-11 6-12-3 6 4-12 2-13-1 7 1-13-1-13-1-13 1 7-3-12-5-12-5-11 3 6-7-10-7-9-8-9 5 5-9-7-8-6-9-5 7 3-9-4-8-3-7-1 7 1-7 0-6 0 7-1-4 2 6-3-3 2 8-11-1 3 0-14 1 4-8-11 4 3 5 3-6-3 6 1-7-1 7 1 8-1 8-1-7 1 10-2 10-3 10-3 9-3 10-4 8-3 8-4 7-4 7-3-7 3 7-4 5-3 5-3 7-3 4-2 7-1 7 1 4 1 6 3 4 3 5 5 2 4 4 6 2 6 1 6 1 7 1 7 0 8-1 10 0 10 0 12-1 10 0 10 0 10 1 10 1 9 1 10-1-7 2 9 2 8 2 7 3 6-3-6 3 4-5-5 4 4 5 2-7-3 6 1-7-1 5 0-7 1 6-2-6 3 6-3 7-5 7-6 7-8-5 5 8-9 8-10 8-12 7-11 6-10 5-9-3 7 3-8 3-7 3-7 1-7 1-5-1 7 0-5 4 13-1-2 18 9-2 0 13-4-3 2 5-5-3 4 3-6-2 6-2 7 1-7 0 7 0 9 0 8 2 9-1-7 1 8 3 8 3 7-3-6 4 7 5 5-5-5 5 5 6 3-6-3 5 3 7 1-7-1 7 1 7-1-7 1 7-1 8-2 8-4 8-4-7 4 7-5 7-6 6-6-5 5 6-6 5-7 4-7-4 7 4-7 2-7 3-7 2-7 1-7-1 7 0-7 0-5 0-5-1-5 1 7-1-4-1-7 1-7 3-6 5-5 7-4 7-1 6 1"/>
<path d="M4882 10706l 5 5-3-2 13 5-2 0 18-10-3 3-2 6 3-7-3 7-2 7-2 8-2 8-1 7-2 8-2 9-2 9 2-7-1 8-1 10 0 9 1 9 1 9 2 10 1 9-1-7 2 10 2 10 3 9 3 7 3 6-3-6 2 4 4 5-5-5 3 3 5 3-6-3 5 2-7-1 6 0 6 0-7 1 7-2 7-3-7 3 7-5 7-6-5 5 6-8 7-8 6-9 6-9 6-11 6-11 6-11 6-11-3 6 5-11 5-11 4-12 4-11 4-10 3-11 3-10 2-10 2-10-2 7 1-10 1-9-1-9-1-8 0-7 1 7-1-5 3 6-2-2 25 8-2 1 11-8-2 4-3 5 3-7-2 6-2 6-2 7-1 8 1-7-1 9 0 10 0 11 1 11 1 11 2 12-2-7 3 12 3 13 3 13 4 13 4 14 5 14 4 14 6 15 5 13 6 14 5 14 6 14 5 16 6 16 5 15 5 16 4 15 5 15 3 15 3 15 1 7 3 14 1 14 0 13 0 14-2 14-1 7-2 13-3 13-4 12-5 11-3 6-6 11-7 11-8 10-8 10-5 5-9 9-10 8-10 7-7 4-10 5-11 5-12 5-11 4-11 4-12 2-7 1-12 1-12 0-11 0-12-2-7-1-12-2-12-4-13-3-12-5-11-5-11-5-10-5-6-3-9-6-10-8-9-9-3-4-9-9-9-10-2-3 0-4 0-4"/>
<path d="M6234 10460l 6-3 5-2 5-2-6 3 7-4 7-5 7-3 6-4 7-3-6 3 9-5 9-5 7-5 8-4 6-3 10-5 10-4 10-4 8-3 8-2 9-2 8-1 9-1 8-1 8-2 9-1 5 0 8-1 6 1 5 1 5 1 6 1 7 2"/>
<path d="M6358 10480l 2 10-2-7 2 8 2 8 2 10 1 7 2 10 2 12-1-7 2 12 2 12 3 13 1 7 1 13 2 15 2 16 1 16 2 15 1 16 0 16 1 17 1 18 0 18 0 18-1 17-1 17-1 16-2 7-2 15-2 15 1-7-2 15-2 14-2 13-1 11-2 10-2 9-1 7-1 5-1 6 0 2-23-23 2-1 5-1 5 1 5 3"/>
<path d="M6679 10905l 5-3 6-3 8-4 8-4-7 4 9-5 10-5 9-6 10-7 10-7 9-8 9-9 9-8-5 5 8-10 8-9 6-10 6-11-3 7 5-11 4-11 2-10 2-10-1 7 1-9 1-10-2-9 2 7-2-8-3-8-3-8-4-7-3-7 3 6-4-6-3-6-3-5-3-4 5 5-3-2 13 5-2 0 18-9-1 3 3-7-1 5 1-7 1 6 1 7-2-7 2 8 3 8 3 8-3-7 5 8 5 8 6 7 6 7 5 7 7 7 6 6 6 7-5-5 7 6 6 6 6 5 7 6 6 4 5 5 5 4 5 5 4 4 4 5 3 4 3 7 2 4 1 7 0 5-1 7-1 5-2 5-3 6-4 5-5 5-3 3-5 3-5 3-6 3-5 3-6 3-6 2-7 2-6 2-6 2-6 2-7 2-7 1-7 1-6 1-4 0-7-1-6-3-2-1-5-5-3-6-1-7 1-7 3-7 1-2 5-5 4-3 5-4 6-5 6-4 5-5 6-5 6-5 6-4 6-5 6-5 6-4 6-4 5-4 6-4 5-3 5-3 7-3 5-3 5-2 4-1 6-1 7-1 5-1 5-1 6-1-7 1 5-1 5-1 6-1 5-2 4-1 6-2 5-2 5-1 6-2 5-2 6-2 6-2 6-2 6-3 6-3-6 3 6-3 6-4 6-4 6-4 6-4 6-4 6-3 5-4 4-3 4-3-5 5 3-4 3-4 2-5-3 6 2-4 0-5-1 7 0-4 0-4 1 7-2-4 3 6-2-3 5 5-3-3-3-2-4-2 6 3-5-2-5-1-5-1 7 1-6 0-5 0 7-1-6 1-5 2-5 2 6-3-5 4-5 4 5-5-5 5-4 6-5 6-6 6-4 8-5 8 3-6-4 8-3 9-3 9-2 9-2 9 1-7-1 8 0 8 0 8-1-7 1 6 3 7 3 6-4-7 4 6 5 5-5-5 6 4 6 4-7-4 7 4 8 3 8 2 9 2-7-1 10 1 10 0 11-1 11-1-7 1 12-2 12-4 12-5-7 3 12-6 11-8 11-9 11-11-5 6 11-12 10-13 9-13 10-15 8-15 8-16-3 6 7-17 6-17 6-16 5-17 4-17 4-18 2-18-1 7 2-18 1-19 0-21-1-21 0-21-1-20-1-17-1-15-1-15-1-13-2-13 1 7-2-11-3-8-3-6 9 11-4-3 6 3-4-1 14 0-5 2 12-8-5 5-5 8 4-7-5 10-4 11-4 12-4 13-3 12-4 13-3 14-3 15-3 17 1-7-2 19-2 19-1 21-1 20 0 21 0 21 2 20 2 19 3 19-2-7 4 18 5 16 5 15 6 13-3-6 6 10 8 9-5-5 8 7 8 5-6-3 9 3 9 2-7-1 10 1 11 0 11-2-7 1 11-4 11-5-7 4 11-7 10-8 10-9-5 5 10-11 9-13 9-13 8-14 8-15-4 6 7-15 7-16 5-16 5-16 4-17 3-19-1 7 2-20 1-23-1-25-2-24-2-23-3-22 1 7-4-21-5-20-4-20-5-18-4-15-5-13-4-10-4-8 3 6-4-5 5 5-4-4-4-2 6 3-5 0 14 0-4 1 6-3-4 3 5-5-4 6 3-6-4 8-4 10-3 11-2 14 1-7-2 15-1 16-1 17-1 17 0 16 1 18 0 18 1 19 2 20 2 21 2 21 3 21 4 22 3 22-1-7 4 21 4 20 4 19 5 18 5 17 6 16 6 15 6 14 7 13-4-7 7 12 7 10 7 9 7 9 6 8-4-5 6 6 7 6 6 5-5-3 7 4 7 3 7 1-5-1 7 1 7 0 7-1-4 1 7-2 4 0 3 0 3 2 2 2"/>
<path d="M6506 9088l 6-3 7-3-6 3 7-4 9-5 9-5 11-6 6-3 11-6-6 4 11-6 12-6 12-7 13-8 13-7 12-6 11-6 5-2 10-5 9-3 8-2 8-2"/>
<path d="M6520 9132l-3 4-4 5 4-4-4 5-4 7-4 7-5 7-5 7-4 8-4 8 3-6-3 8-3 8-2 7-2 7 1-7-1 7 0 7 0 7 0 7 0 5 0 5-1-7 1 5 2 6 2 5-3-6 2 4 3 4-5-5 4 2 4 3-6-3 5 1-7-1 5 1 6 0-7 1 6-2 5-1 6-2 6-3 7-3-7 4 7-4 7-4 7-4 7-3 7-4 8-4 7-3 8-4 8-3 8-3 8-2 7-3 8-2 7-1 7-1 7-1 7 0 7 1 7 1 6 1 6 2 6 2 6 3 4 4 5 5 4 4 3 7 2 4 2 8 0 6-1 6-1 7-3 8-3 6-5 9-7 8-7 9-9 10-5 5-10 10-11 10-12 11-12 11-12 11-13 10-12 10-11 9-12 9-11 7-11 6-9 5-6 3-9 3-9 3-6 1-7 0-7-1-5 0-6-3-4-2-4-4-3-4-2-5-1-4 0-6 1-4 2-7"/>
<path d="M6770 9134l 1 5 0 6-1 6 0 7-1 7-2 8-2 8-2 9-2 9-3 10-2 13-2 14 1-7-1 13 0 9 1 8-1-7 2 8-3-6 4 8 6 7-5-5 7 6 7 5 8 4-7-4 9 4 11 3 13 2-7-1 13 1 10-1 10-1-7 1 8-2 9-4-6 3 8-5 9-5 9-6 8-6 7-7-5 5 8-9 6-10 5-10-3 6 4-9 4-10 3-10 1-11-1 7 1-11-1-10 1 7-2-10-4-10-4-9 3 7-5-9-7-8-7-8 5 5-8-7-7-7-8-7-9-6 6 3-8-4-9-4-10-2 6 1-10-1-9-1-9 1 6-1-8 1-8 3-7 2-7 2-5 2 2-1-5 3-2 1"/>
<path d="M7202 9083l-4 0-4 0 6 1-4 0-5 1 7-1-5 2-5 3 6-4-6 4-7 4-8 5-7 5-9 6-9 7-9 7-10 9-9 8-10 9-9 9-9 9 5-5-8 9-7 10-7 10-5 9-4 7 3-6-2 8 1-7-1 8 1 8-1-7 2 5-3-6 4 4-5-5 6 4 7 4-6-3 8 3 10 2 12 2-7-1 12 1 14 0 13 0 13-2-7 1 13-3 13-4 13-4 13-3 13-4 13-5 12-4 12-5 11-4 10-4 10-4 9-5-4 3 8-5 8-5 7-4 3-2 3 0"/>
<path d="M7099 9032l 1 7-1-7 3 8 3 9 4 11 4 12 5 12 6 13 6 13 6 14 6 15 6 17 5 17 6 17 6 17 5 16 4 17 4 19 5 21 3 19 2 16 1 6 2 14 1 16 1 16 0 16 1 15 0 13 0 14 0 3-2 4-3 2"/>
</svg>
