<svg xmlns="http://www.w3.org/2000/svg" viewBox="207 -14184 9504 7440" stroke="black" stroke-width="20" stroke-linecap="round" stroke-linejoin="round" fill="none" data-xena="0 0 0"><style>@media(prefers-color-scheme:dark){svg{background-color:black;stroke:white;}}</style>
<path d="M2554 -12637l-1-3 0-1-2-2-1-3-1-1-1-2-2-1-1 0-2 1-2 1-2 2-3 2-3 3-4 5-4 5-5 7-5 8-5 10-6 11-6 13-5 14-6 17-4 17-5 17-4 19-4 19-2 19-3 19-1 20 0 18 1 18 1 18 2 17 2 17 4 15 5 15 5 15 6 12 6 13 8 10 9 10 10 7 10 6 11 5 12 3 13 2 13 1 14-1 14-3 15-3 15-4 14-5 14-6 15-7 13-7 12-8 13-9 12-9 12-10 10-11 10-11 10-11 8-12 8-12 7-12 6-13 5-12 4-12 3-11 2-12 1-11-1-10-2-10-3-10-4-10-5-9-6-9-7-10-8-10-8-9-19-20-11-10-12-10-11-9-13-9-13-9-13-8-13-6-12-7-13-5-12-4-11-3-12-2-10-1-10-1-9 1-8 1-8 2-7 1-5 3-5 3-3 4-3 4-2 4"/>
<path d="M3019 -12799l-2 2-4 3-4 4-4 4-5 6-6 6-6 8-5 8-6 8-5 10-7 12-6 12-6 13-7 15-7 15-6 17-7 18-6 18-7 20-7 20-6 21-5 22-5 23-5 22-5 24-3 23-2 22-2 21-1 22 1 20 1 20 2 18 3 17 4 17 5 15 6 14 6 13 8 11 7 11 8 10 9 9 8 7 10 5 10 6 10 4 9 3 10 1"/>
<path d="M3166 -12585l-2 3-3 3-4 5-3 5-4 5-5 8-4 7-4 8-2 8-3 9-2 8-2 10-1 10-2 10 0 10-1 9-1 9-1 11 0 43 2 22 1 11 0 10 2 10 0 10 2 10 2 8 2 8 2 7 2 7 3 5 3 5 3 2"/>
<path d="M3191 -12796l 1 3 3 4 2 4 3 6 3 7 5 8 6 9 6 8 6 9 6 10 8 11 8 10 8 12 9 13 8 15 9 13 10 15 9 15 9 15 9 16 8 18 8 17 6 18 6 19 6 19 4 20 4 20 4 20 1 21 1 21 1 22-1 22-1 22-1 23-3 24-3 23-4 24-4 25-5 24-6 24-5 24"/>
<path d="M3131 -10712l-1-3-1-5-2-5-1-5-1-6-2-5-1-6-2-6 1-3 1-2 0-2 1-2 2-4 2-2 0-1 1-1 1-1 1-1 0 0 1-1 4 0 2 1 1 1 2 0 2 1 1 2 2 0 2 2 0 2 2 2 1 2 2 3 1 4 2 3 1 4 1 5 2 7 1 7 2 7 0 8 2 9 1 18 1 10 1 10 0 10 0 11 1 10 0 23-1 11 0 12 0 12-1 12-1 13 0 12 0 12-1 11 1 12-2 23 0 10-1 10 0 10 0 8-1 8-1 7 0 16 0 4 0 7 0-4-1-3-1-3-1-6 0-6-1-8 0-8-1-10 1-11 1-11 0-12 2-12 1-13 1-12 1-12 2-12 2-12 1-12 3-13 2-12 3-13 4-11 3-12 5-12 4-12 4-10 5-10 5-11 5-9 5-9 5-9 4-7 4-7 4-6 5-5 4-4 4-3 4-3 3-3 3-2 4-2 3-1 3-1 3-1 4 0 6 0 3 1 4 1 2 1 4 2 3 1 2 2 4 3 2 4 3 3 4 5 3 5 2 5 2 6 3 6 1 7 2 6 2 7 1 8 1 7 1 8 1 8 1 8 1 9 0 7 1 8 0 9 1 8 0 8 0 8 1 8 0 8 1 8 1 15 1 8 0 7 1 6 0 7 1 7 1 6 1 7 0 6 0 7 1 6 1 4 0 5 1 5 0 4 1 3 0 4 1 2 0 4 1 2 0 3 1 2 0 2 1 2 1 1 1 2 1 0 1 1 3 1 1 1 4 0 2-1"/>
<path d="M3681 -11191l 0 2 1 2 0 1 0 2 0 3 1 4 1 4 0 18-1 8-1 8-1 9-1 10-3 11-2 12-4 14-3 15-5 16-6 18-7 20-7 22-8 24-10 25-10 28-11 28-12 30-12 32-14 33-15 35-16 35-16 37-16 35-17 39-17 39-18 38-17 39-16 39-17 39-16 39-17 39-16 38-15 37-14 35-13 35-14 32-11 31-11 29-9 27-9 25-6 23-8 22-6 20-5 18-5 17-4 15-4 14-3 12-3 10-2 7-3 8-1 5-1 4 0 5 0-3 0-3"/>
<path d="M3541 -9973l 1-1 3-2 1-2 3-3 3-3 5-5 6-5 6-6 6-7 6-7 7-9 8-10 7-11 8-12 9-13 7-13 9-14 9-13 7-16 8-16 9-16 8-17 7-17 7-18 7-17 7-18 7-18 8-19 6-18 6-19 7-19 6-17 5-18 5-18 5-18 5-18 2-18 3-17 2-16 2-17 1-16 0-32-1-15 0-15-2-13-1-13-1-12-1-12-2-8-1-8-1-7-3-5-1-4-1-2-3-1-5 0-2 2-4 3-4 3-6 5-5 6-6 7-6 9-7 10-6 11-7 12-7 14-6 15-6 16-6 17-13 37-6 19-5 20-5 21-4 22-4 21-4 23-3 22-3 23-1 22-1 23 0 42 0 20 2 20 3 17 3 16 4 15 4 15 4 12 5 11 6 11 6 9 5 8 6 8 7 6 5 5 7 5 6 3 7 3 7 2 7 2 7 0 7 1 7-1 7-1 7-2 6-2 7-3 6-2 7-3"/>
<path d="M3906 -10237l-1-1-3-1-3-1-4-1-8-2-8 0-4 1-4 1-4 2-5 2-3 3-5 4-4 4-5 5-5 5-4 6-4 7-9 16-3 9-4 8-4 9-3 9-3 9-3 9-1 8-2 8 0 7-1 6 1 6 0 5 2 3 3 5 2 2 3 3 3 1 4 1 3 1 5 0 3-1 5-2 10-4 6-3 6-5 5-5 6-5 6-6 5-6 6-6 5-7 4-6 5-7 4-6 4-5 2-6 3-5 3-6 2-5 2-4 3-9 1-3 0-3 1-2 0-3-1 0-1 0 0 0-1 1-1 1-1 5-1 3-1 4 0 5-2 6 0 20 1 8 1 9 0 8 2 8 1 9 2 10 2 9 2 9 3 10 2 10 3 9 3 9 2 9 4 10 3 8 3 10 3 8 4 9 3 9 3 9 2 9 3 10 3 9 2 9 2 10 0 10 2 10 0 29-2 10-2 9-2 9-3 8-4 9-9 16-5 7-6 6-6 6-8 6-7 5-7 5-8 4-9 1-9 3-10 2-9 0-9 0-9 0-10-2-10-3-9-2-9-5-9-4-9-6-9-5-9-6-9-7-9-7-8-9-8-9-8-9-7-10-7-11-6-11-5-12-5-12-4-11-3-11-3-13"/>
<path d="M4089 -10577l-1 0-3 1-2 3-2 1-3 4-3 3-2 4-3 6-2 7-4 7-4 10-3 9-4 11-5 13-3 15-5 15-4 15-4 17-4 18-5 19-4 18-4 20-4 21-3 21-3 22-2 22-3 22-2 21-2 21-1 20 0 20 1 19 2 19 2 17 2 15 3 15 4 15 4 13 4 12 4 10 4 8 5 8 5 6 5 4 5 4 5 2 5 1 6 0 6-2 5-2"/>
<path d="M4138 -10374l-1 1-1 2-2 2-1 2-1 3-3 3-1 3-1 5-1 4 0 5-2 6 0 5-1 7-1 6 0 7 0 8 0 26 0 10 0 10 1 10 0 80-1 10 0 26 0 7 0 5 0 4 0 6 1 1 0 1 1 0 0-2 2-2 1-4 2-5 3-6 2-8 5-20 3-12 3-13 2-15 2-14 3-15 1-15 1-15 1-15 1-14 1-14 0-63-1-12 0-34 1-6 0-8 0 3 0 3 1 3 1 4 0 7 2 7 1 8 1 10 1 11 2 11 2 12 1 12 2 12 2 13 3 12 3 13 3 12 4 12 3 11 5 12 10 21 6 10 6 9 6 8 5 9 6 8 6 7 5 6 6 6 5 5 6 4 5 4 5 3 4 2 4 1 5 1 3-1 5-1 3-2 4-2 3-3 4-6 3-6 3-8 3-9 4-9 3-10 3-12 2-13 2-13 3-13 1-12 1-13 0-38-2-14-1-12-2-13-2-14-2-12-2-11-3-11-2-11-3-9-2-8-3-8-2-6-2-6-2-4-2-4-3-2-2-3-2-1-1-1-2 0-4 0-1 1-1 1"/>
<path d="M4355 -10619l 1 2 3 2 2 4 3 4 4 5 4 7 5 5 5 8 10 15 6 8 6 9 6 9 6 9 6 10 7 10 6 10 6 10 7 10 6 11 6 11 6 11 6 11 7 11 11 25 5 12 5 12 4 13 5 13 3 12 4 13 3 13 2 13 3 14 1 15 1 14 0 15 1 14-1 15 0 15-2 15-2 15-2 14-3 14-3 13-4 14-4 14-5 12-5 14-6 13-6 13-8 12-6 11-8 12-8 11-8 10-7 10-8 10"/>
<path d="M7183 -12576l-1-1-2 0-1-1-2-1-1-1-2 0-2-1-5 0-1-1-2 0-1 1-1 0-2 1-2 0-1 1-3 1-2 2-3 1-4 3-4 3-4 4-6 4-6 6-6 6-7 7-8 10-7 11-8 11-10 14-9 16-10 16-11 19-10 19-11 19-11 22-11 23-10 22-11 25-10 23-10 26-10 26-9 26-9 27-8 25-6 27-5 28-5 27-4 28-2 27-3 28-1 57 0 58 1 30 3 59 2 30 3 29 3 29 4 28 4 28 4 27 5 26 5 24 5 25 5 24 6 23 5 23 6 20 5 22 6 20 6 19 6 19 5 17 5 19 5 16 6 18 5 15 5 15 5 15 5 15 5 14 5 12 5 12 5 12 10 20 4 8 5 8 5 8 4 8 4 5 4 6 5 4 4 5 4 3 5 2 3 3 4 1 10 0 4-2 5-2 5-5 6-5 5-6 5-8"/>
<path d="M7243 -12403l 1-2 0-5-1-3 1-3 0-10 1 0 1 0 1 1 2 1 1 2 2 2 2 3 3 3 3 4 3 4 3 4 3 6 2 6 3 7 1 7 2 8 1 8 1 8 1 10 0 49-1 10 0 11-2 10-3 22-2 11-2 10-2 9-4 17-2 7-2 7-1 5-2 5 0 4-1 2 0 3 0-1 1 0 0-1 0-2 0-3 1-4 1-5 0-6 2-8 1-9 1-10 1-10 2-11 1-12 1-11 1-12 2-11 1-12 1-10 1-11 3-22 2-11 1-10 3-20 2-10 2-10 1-8 2-9 2-8 2-7 3-7 2-6 2-6 2-4 3-3 2-4 2-2 3-3 2-1 3-2 4-1 3 0 2 1 2 0 3 2 3 1 2 2 3 3 2 3 3 3 2 4 3 5 2 4 2 5 2 6 1 5 2 6 0 6 2 6 1 7 1 6 1 7 1 8 1 7 1 8 0 9 0 8 1 9 1 18 0 18 1 9 1 8 1 7 0 8 0 7 1 6 1 7 0 5 1 5 1 4 1 4 1 4 1 3 1 2 2 1 2 1 2 0 2-1 4-3"/>
<path d="M7512 -12600l-1-1 0 1-1 0 0 1-1 0 0 0 1 0 2 0 1-1 3 0 2 1 6 0 9 1 4 1 5 1 4 0 5 1 5 1 5 0 5 2 5 1 4 0 5 1 5 1 4 1 5 2 4 1 4 1 4 3 4 1 3 2 3 2 2 2 2 3 2 3 2 2 2 3 1 3 1 3 0 3 0 4 0 4-1 3-1 4-1 4-2 4-2 4-3 4-2 4-3 5-3 3-3 4-3 5-3 3-2 4-1 4-2 3-2 4-1 3-1 2-1 3 0 1 0 1 0 1 0 1 0 1 1 0 1 0 1 1 2 0 1 1 11 0 5-1 3-1 5 0 5-2 6-1 6-2 5 0 7-2 6-1 8-1 7-1 9-1 8-1 9-1 10 0"/>
<path d="M7786 -12223l 1-1 0 0 0 0 0-1 2-1 1-1 2-2 1 0 2-1 2-2 3-1 3-1 4-2 4-2 4-1 6-3 6-1 6-2 7-1 7-3 8-1 8-1 8-1 9-2 8 0 9-2 8 0 9-1 8-1 10-1 8-1 10-1"/>
<path d="M8131 -12438l-1-1-2 0 0 1-1 0 0 1 0 0 0 2-1 1-1 3-1 3-1 4-1 5-2 5-1 7-2 7-2 8-3 19-1 9-1 10-1 10-2 11-1 21-1 10-1 11-2 22 0 10 0 11-1 10-1 11 0 10 0 22-1 10 0 21 1 10 0 11 0 10"/>
<path d="M7355 -11505l 0-20 1-5 0-4 1-4 1-3 1-3 1-2 1-2 1-2 2-1 2-1 1-2 7 0 2 2 3 1 2 2 3 3 3 4 2 4 3 5 2 6 2 7 2 8 1 8 1 9 1 11 0 10-1 11-1 12 0 12-2 12-2 13-1 11-3 12-2 11-2 11-2 11-1 10-2 9-1 8-2 8 0 7-1 6 0 13 1 1 0 1 1-1 1-1 2-2 2-4 3-4 3-6 3-7 3-9 4-9 5-10 3-11 4-11 3-11 3-12 4-11 3-11 3-11 3-10 4-10 3-8 2-9 4-8 4-8 2-6 4-5 3-4 3-3 3-3 2-2 2-2 2 0 1-1 2-1 1 1 5 0 2 2 0 1 2 1 1 2 1 1 0 2 1 2 1 3 2 2 1 4 1 4 0 3 2 4 1 6 1 5 1 6 1 6 2 6 0 6 1 8 1 7 0 7 0 7 1 7 1 7 1 7 0 8 1 6 1 6 2 5 2 5 2 5 3 4 3 4 3 2 3 3 4 2 4 0 5 1 5 0"/>
<path d="M7638 -11465l 0 1 1 0 0 1 3 0 2 1 2 0 3 1 3 0 4 0 3 1 10 0 5-1 5 0 5 0 7-2 6-1 5 0 7-2 6-1 7-1 14-3 7-2 7-1 7-2 6-1 7-2 7-1 6-1"/>
<path d="M7932 -11606l 1 0 0 1-1 0 0 9 1 4 0 5 0 5 1 5 1 7 1 7 0 8 2 8 0 7 2 9 1 9 0 8 2 19 0 10 1 9 0 11 1 10 1 9 0 9 0 10 1 9 0 17 1 7 0 14 0 6 0 6 1 5 1 4 1 3 0 4 0 1 1 1 1 1 1 0"/>
<path d="M8238 -12628l 1-1-1 0 0-1-1-1 1 0 0-1 2 0 1 1 1 1 2 1 3 1 2 2 4 2 4 4 4 3 4 5 5 5 4 6 5 7 6 7 6 8 6 8 5 9 6 10 6 10 7 10 6 12 7 12 6 11 7 12 5 11 7 12 6 11 7 11 5 11 7 10 5 10 6 10 6 11 6 11 5 10 6 12 6 11 5 12 6 12 6 12 5 11 6 13 4 12 4 13 4 12 4 13 4 12 3 13 3 14 4 14 2 14 3 14 3 14 3 15 2 15 3 14 1 14 3 15 1 14 2 15 1 15 1 15 2 15 0 15 1 15 0 75-1 15 0 15 0 15 0 56-1 13-1 14 0 12 0 13-2 13-1 13-2 13-3 12-2 11-2 13-3 12-3 12-3 13-4 13-3 12-4 13-3 13-4 12-4 13-3 11-4 11-3 11-4 11-3 11-4 11-4 11-3 10-4 10-3 10-3 10-4 10-3 9-3 8-3 8-3 8-3 7-3 7-2 8-2 7-2 5-2 7-2 6-2 5-2 5-1 5-2 4-1 3-2 5 0 3"/>
<path d="M6774 -11070l 1-1 1 0 2 0 3-1 2-1 5 0 5 0 7-1 8-1 8-1 9-1 10-2 12 0 11-2 12-1 13-2 14-2 14-1 14-2 16-2 16-2 16-3 16-2 17-1 17-1 17-1 17-2 18 0 20-3 20-1 20-2 22-1 21-2 24-2 24-3 25-3 26-3 27-2 27-4 29-2 30-4 30-4 30-2 32-4 32-4 33-2 32-3 32-2 34-3 34-2 33-2 34-1 34-2 35-3 34-2 35 0 36-2 35-1 35-1 35 0 34-1 35 0 99 0 33 0 32 0 31 0 31 0 87 0 28 0 25 0 25 0 25-1 23-1 21-1 21 0 20-1 18 1 17-1 15-1 13 0 50 0 5 0 3 1 3 1 1 0 0 1-2 1-3 2-5 2"/>
<path d="M7398 -10917l 1-1-1 0 0 0-1 0 0-1-3 0-2 1-2 0-1 1-3 1-3 3-3 2-3 3-4 3-4 4-4 4-4 6-5 6-5 7-5 7-5 8-6 10-6 10-5 10-6 12-6 11-5 13-7 13-6 13-7 15-5 15-7 17-6 18-7 18-7 20-11 40-6 20-5 22-4 20-5 22-3 22-3 22-3 23-2 21-1 24-2 23-1 24 0 23 1 24 1 22 1 23 2 22 3 23 2 22 4 21 4 22 3 20 4 20 5 20 5 18 5 19 5 17 5 17 6 16 7 15 5 15 6 13 6 13 5 12 7 12 6 10 5 10 6 10 6 8 6 9 7 8 6 8 6 7 6 7 7 6 5 7 7 5 6 5 7 5 5 3 5 5 6 2 6 4 10 6 4 2 4 1 5 3 4 2 8 1 4-1 7 0 3 0 4-1 2-1 3-1 3-2 2-1 3-2"/>
<path d="M7573 -10842l 1-1 3 0 0 1 1 1 1 0 1 2 2 1 0 2 2 3 1 4 2 4 0 5 2 6 0 6 1 7 1 8 1 9 0 45-1 9-1 10 0 9-1 10-1 19-1 9 0 9-1 8-1 8-1 7 0 8-1 5-1 7 0 5 0 5-1 4-1 4-1 4 0 3 0 3 0 4 0-1 0-2 0-1 0-3 1-4 1-4 1-5 0-7 2-7 0-6 1-9 1-8 1-10 0-8 1-9 1-19 2-9 1-8 1-8 2-8 2-8 2-7 2-6 3-7 3-7 2-6 3-7 2-5 3-6 4-7 3-5 3-5 3-5 3-5 3-4 3-4 4-4 3-3 3-4 3-3 2-3 3-3 2-3 3-3 2-2 3-1 2-3 3-1 2-2 3-2 2-1 2-1 2 0 3-2 1 0 2 1 1 0 2 1 1 0 1 2 2 1 2 2 1 2 3 3 1 2 2 3 2 4 2 4 1 4 2 5 1 5 1 5 3 5 0 6 2 6 1 6 2 6 0 6 2 5 1 7 1 6 1 7 1 7 1 6 1 6 1 6 1 7 0 5 1 6 1 5 0 5 1 6 1 6 1 4 0 6 1 7 1 6 0 5 0 6 1 5 0 4 1 5 1 5 0 3 1 4 1 2 1 3 2 3"/>
<path d="M7791 -10937l-1-1 0-3 0-1 0-4 0-1 0-1 1 0 0 0 1-1 0-1 0-1 0 0 1-1 2-2 1-2 3-1 1-1 2-1 3-1 2-1 3 0 2 0 3 0 4 0 8 0 3 0 10 0 2 1 2 0 2 1 2 1 2 1 1 1 3 1 1 1 0 1 1 1 1 1 0 1 0 2 0 7 0 3-1 2-1 3-2 4-1 3-2 4-2 4-2 5-3 4-2 4-3 4-2 4-3 4-2 3-2 4-2 3-2 2-2 3-1 3-1 3-1 3-1 3-1 3-1 2 0 3 0 2-1 3 0 5 1 2 0 2 0 1 1 2 2 1 0 2 2 1 2 1 2 2 2 2 4 1 3 1 3 2 4 1 4-1 5 2 4 1 9 3 4 1 5 1 4 1 5 2 5 1 5 1 4 1 6 1"/>
<path d="M7629 -10300l 0-1-1 0 0 0 0 1 1 0 1 1 0 2 2 2 1 2 2 4 2 3 1 5 2 4 3 5 1 6 2 5 2 7 0 5 2 7 0 6 1 7 1 8 0 7 1 7 0 34-1 7 0 7-1 6-1 6 0 6 0 5-1 5-1 5 0 3-1 4-1 1-1 2 0 4 0 1 0 1 0 0 0-1 0 2 1-1 1-1 0-1 1-3 2-2 1-4 2-5 2-6 2-7 2-7 3-7 2-8 2-9 3-8 2-8 3-9 2-8 2-9 2-9 3-8 2-9 3-8 2-7 3-8 4-7 3-6 3-5 2-6 4-5 3-4 3-4 3-3 3-3 3-3 3-2 3-1 3-1 3 0 3-1 3 1 3 0 3 1 2 1 2 1 2 2 2 3 2 2 2 3 3 4 1 4 2 4 2 5 2 5 1 5 2 6 1 6 1 6 0 7 1 6 1 7 1 7 0 7 1 6 1 7 0 6 2 6 1 5 0 6 2 4 1 6 1 4 2 6 1 4 2 3 2 4 1 3 3 3 1 3 2 2 2 1 2 1 8 0 4-2"/>
<path d="M7981 -10969l 1 1 1 2 2 3 1 2 2 3 2 3 2 5 3 4 3 5 4 5 3 6 5 7 5 6 4 7 5 7 5 7 5 8 6 8 5 8 5 8 5 9 6 10 6 10 5 10 5 10 7 11 6 12 5 10 6 12 6 11 5 11 6 13 5 13 5 12 4 14 5 14 5 13 4 14 4 15 4 14 3 14 4 13 4 14 3 13 3 14 3 15 2 14 2 14 2 15 1 15 1 15 0 16 1 16 0 16-1 14 0 16-1 14-1 16 0 15-3 15-2 16-2 15-3 15-3 14-2 15-5 15-3 15-5 14-4 13-5 14-5 14-5 12-6 13-5 12-5 13-6 11-5 11-6 11-6 10-5 11-6 10"/>
<path d="M5065 -8101l 0-1-1 0 1 0 0 0 1 0 1 0 2 0 2 1 7 0 3 1 25 0 5-1 8 0 7-1 7 0 8-2 8-1 8-1 9-1 18-3 10-2 11-3 11-1 11-2 12-2 12-2 14-1 14-3 15-1 15-2 15-1 17-2 17-2 16-1 18-2 19-3 18-2 20-2 20-3 20-1 22-3 21-3 23-3 22-3 24-2 23-3 24-2 25-3 24-2 25-2 26-3 25-1 26-4 27-2 27-3 26-3 27-2 28-3 28-2 28-3 29-2 27-1 28-2 28-2 29-2 28-2 28-1 28-2 29-3 28-1 27-2 28-1 29-1 28-2 28-1 28-2 28 0 28-1 28-2 27-1 28-1 27 0 27-2 26-1 27-2 25-1 26-2 25-1 25-1 24-2 23-1 23-2 24-2 22 0 21-1 21-1 20-1 19-2 18-1 17-1 17 1 15-2 14 0 14-1 11-1 11 0 11-1 9 0 9 0 8 0 6-1 11 0 4 1 5 0 0 0-1-1-2 0 0-1-5 0"/>
<path d="M5778 -7912l 1-1 2 0 1-2 2-1 2-1 1 0 1-1 1 0 1 0 6 0 1 0 2 0 1 1 2 1 2 0 1 1 2 1 4 3 2 2 1 2 3 2 2 4 2 3 1 3 2 4 3 4 1 4 2 5 2 5 2 4 0 5 2 4 1 10 1 4 1 5 0 6 0 6 0 6 1 5 0 6 1 6 0 25-1 5 0 7-1 6 0 7 0 6 0 14-1 5 0 6-1 6 0 5 0 4 0 5-1 4-1 4 0 4-1 3 0 4 0 3 0 7-1 3 0 3-1 1 0 3 0 0 0-1 0 1-1 0 0-3-1-1-1-1-1-1-1-1"/>
<path d="M5815 -7824l 1-1 0-4 0-1 0-5 1-1 1-2 1-2 0-3 1-2 1-2 3-4 2-2 2-3 1-2 2-2 2-3 1-3 2-2 0-3 3-3 1-2 2-2 2-3 2-3 2-3 2-3 2-2 2-3 12-12 3-2 2-2 3-2 2-2 3-3 2-2 3-2 3-2 2-2 3-2 3-2 3-3 2-1 3-1 3-2 3-1 2-2 2-1 2-1 2-1 2 0 2 0 2 0 1 0 2 1 2 1 1 1 2 2 2 1 1 2 2 2 1 3 2 2 2 2 1 2 2 3 1 2 1 4 2 2 1 4 2 4 1 5 1 5 2 17 1 6 0 13 0 6 0 7 1 6 0 14 1 6 0 6 1 6 0 6 0 7 0 11 1 6 0 12 1 5 0 11 0 5 0 5 1 5 0 5 1 5 0 5 1 3 1 7 0 4 1 2 0 3 2 4 1 2 1 2 1 2 2 0 2-1 1-1 2-1 2-1 2-2 3-3"/>
<path d="M6041 -8001l 0-3-1-1 0-1 2 0 0-1 2 0 1 0 2 0 2-1 2-1 2-1 2 0 3 0 9 0 3 0 1 0 1 1 3 0 2 1 1 0 2 1 2 0 2 0 1 1 0 1 1 1 0 2 1 0 0 10-2 5 0 3-1 4-2 3-1 4-1 3 0 3-3 5-1 3-1 4-2 3-1 2-1 3-1 4-2 3-1 2 0 2-2 2 0 2-1 2-1 1 0 1-1 1 0 2 0 0 0 1-1 1 0 1 3 0 1 0 2 0 1 1 2 1 2 0 2 0 3 1 2 1 3 0 3 1 3-1 4 1 3 0 3-1 4 1 4 0 4 0 4 0 3 0 8 0"/>
<path d="M5715 -7472l-9 0-3 1-2 0-2 0-1 0-1 1-1 0-1 1 1 0 0-1 3 0 1 1 4 0 2 1 3 0 3 0 4 2 4 0 10 0 5 2 6 0 5 1 7-1 6 1 14 0 7 0 7 0 17 0 7 0 8-1 10-2 8 0 9-2 10-1 10-2 10-2 10-2 10-2 10-1 11-3 10-1 9-1 10-2 8-1 10-2 8 0 9-2 8-1 8 0 8-1 8-1 7 0 7-1 7-1 6-1 10 0 5 0 8 0 3 0 6 0 3 0 9 0 2-1 8 0 1-1 3 0"/>
<path d="M5854 -7348l 0-1-1 0 0 1-2 0-1-1 0 1 0 1 0 0 0-1 1 1 1 1 1 1 0 1 2 2 1 2 2 3 1 5 2 3 2 5 1 5 2 5 2 5 2 11 2 5 3 13 1 6 1 6 2 17 1 7 0 33-1 8 0 7-1 7 0 7 0 7 0 7 0 7 0 7-1 6-1 6 0 5-1 5 0 5 0 5-1 3 0 4-1 3 0 2 0 2-1 1 0 1-1 1 0 1 0-1-1 0 0-1-1-1-1-2 0-1-1-2-1-3-1-3-1-4-1-5-1-12-2-5 0-6 0-5 0-7-1-5 0-14 1-6 0-5 0-5 1-5 2-5 1-10 1-4 0-4 2-5 1-4 2-4 1-4 2-3 2-4 2-3 2-3 2-3 3-4 2-3 2-3 3-4 2-2 2-3 3-2 2-3 3-2 2-2 3-1 2-2 3-3 2-1 3-2 2-2 3-1 2-1 3-2 2-1 3-1 1-1 4 0 2 0 5 0 2 0 1 0 3 1 2 1 2 1 3 2 2 1 3 2 2 2 3 4 2 3 3 3 2 4 3 3 2 5 2 4 2 5 1 5 3 4 1 5 2 4 3 8 1 5 2 5 1 5 1 4 1 5 0 4 2 5 1 4 1 4 1 4 2 5 1 3 2 3 1 4 2 3 1 3 1 3 3 2 2 2 2 2 2 2"/>
<path d="M6201 -7437l-1 0 0-1-1 0 1 0 0 1 2 0 1-1 2 0 1 0 2 0 2-1 2-1 3-1 2 0"/>
<path d="M6437 -7966l-1-1 0-1-1-1 0-1-1-2-1 0 0-2 0 0 0 1-1 1-1 0 0 1-1 2-2 3-2 3-2 5-3 6-3 6-2 8-4 9-4 10-3 11-4 13-3 14-4 15-4 17-4 17-3 20-2 20-4 22-4 23-3 22-4 23-3 26-3 26-6 51-2 27-2 27-2 27-1 28-1 25 1 26 0 24 1 25 1 23 2 23 2 22 3 21 3 21 3 19 4 19 3 19 4 18 5 16 4 17 4 15 5 15 4 17 4 13 4 12 3 10 5 10 4 10 3 8 5 7 3 5 5 5 4 5 4 4 4 4 4 1 4 1 3 0 4-2 5-2 4-3 4-6 5-7 5-7 4-10"/>
<path d="M6482 -7824l 0-1-1 0-2 0 0 1 1 1 0 0 1 2 0 1 2 3 0 3 2 4 1 3 2 5 2 6 1 6 2 6 2 6 2 7 1 7 1 7 2 7 0 8 1 8 0 33-1 8 0 7 0 7-1 7 0 18-1 4 0 10 1 2 0 3 0-2 1-1 0-2 0-3 2-3 0-4 2-5 2-6 1-7 3-9 2-10 2-9 2-10 2-11 2-11 2-10 2-10 2-9 3-8 2-9 2-9 2-7 2-8 3-7 2-8 6-12 2-6 3-5 2-4 2-3 3-2 1-3 2-2 2-1 2-1 1-1 2-1 3 0 4 2 1 2 2 1 0 2 2 3 1 3 2 3 0 5 2 3 1 5 2 5 0 6 2 6 0 5 1 7 1 6 1 6 1 6 1 6 0 7 1 5 2 5 2 17 0 5 1 5 2 5 0 5 2 5 0 4 2 4 1 2 1 3 1 0 1 2 4 0 1-2 3-2"/>
<path d="M6662 -8017l 1-1 2 0 1 0 1 0 4 0 2 1 5 0 3 1 2 0 3 0 2 1 5 0 1 1 2 1 1 0 1 1 2 1 1 0 0 3 1 0 1 2 0 6-1 3-1 6-1 3-2 4-1 4-1 4-3 3-1 5-2 4-2 3-2 5-1 3-2 3-1 4-1 4 0 3-1 3 0 9 1 3 1 1 1 2 2 1 2 1 2 1"/>
<path d="M6806 -7859l 0-1 1 0 0 1 5 0 3-1 7 0 3 0 5-2 4-1 4-2 5-2 5-1 5-3 5-2"/>
<path d="M6971 -8009l 0 1-1 2-2 2-1 3-2 3-1 4-1 4-1 5 0 3-1 5 0 5 1 4 0 10 0 7 1 6 2 7 0 8 2 7 0 8 2 7 1 8 2 7 2 8 2 7 2 8 4 14 3 7 2 7 3 7 2 7 3 5 2 7 3 6 2 7 3 5 2 6 3 6"/>
<path d="M6505 -7338l 1-1 1 0 1-1 1-2 1 0 2-2 2-1 1-1 1-1 2 0 1 0 2-1 1 0 2-1 5 0 1 1 2 1 2 0 1 2 2 1 2 2 2 1 2 2 2 2 1 3 3 3 1 3 1 4 2 4 1 4 2 10 0 6 0 6 1 5-1 7 0 7 0 7-2 6 0 7-2 6-1 7-1 5-1 6-3 5-1 5-1 4-1 4-2 4-1 2-1 3-1 1-1 0 0 1 0-20 1-5 1-5 0-7 0-7 2-6 1-7 2-7 3-13 2-5 2-6 1-5 2-5 2-4 2-4 2-4 2-3 2-4 2-3 3-3 2-2 1-2 2-3 1-2 1-2 2-1 1 0 1-1 1-1 6 0 2 1 2 0 2 1 1 1 2 2 3 1 2 2 2 2 2 3 1 2 3 3 1 3 2 4 2 3 3 7 2 5 1 4 3 8 1 5 1 4 1 4 1 5 2 4 1 3 2 4 2 4 2 2 2 3 3 2 2 0 3 2 3 0 2 1 3-1 4-1 4 0"/>
<path d="M6712 -7326l 0-1 0 1 8 0 2-1 3 0 3-1 3-1 2-1 4-1 3-1 3 0 5-1 3-2 4 0 4-2 4-1 4-2 4-1 5-1 4-1 3-2 5 0 4-2 5 0"/>
<path d="M6955 -7425l 1 0 0 1 0 0 1 1 2 1 0 1 2 2 1 1 2 2 2 2 2 3 1 3 2 3 3 4 4 8 2 5 2 4 2 5 2 5 2 5 1 6 2 6 2 5 1 5 1 6 1 5 1 6 2 6 0 5 1 4 1 4 0 4 1 3 2 4 0 2 1 2 1 2"/>
<path d="M7113 -8068l-1 1 0 10 1 4 1 4 0 5 2 6 2 6 2 7 2 6 3 7 4 7 3 7 5 7 5 8 4 8 5 8 6 8 5 10 5 9 5 10 7 9 5 10 7 9 6 10 7 10 7 10 6 10 7 10 7 10 6 11 7 12 6 10 7 12 6 11 6 12 6 12 6 11 5 12 5 10 5 12 4 13 4 11 4 12 4 12 3 12 3 13 3 13 1 14 2 13 1 14 1 14-1 14-1 15-1 17-1 16-3 15-3 17-4 17-4 16-4 17-5 18-5 16-5 17-7 16-5 16-8 15-6 16-7 15-7 14-7 14-7 13-6 13-7 11-13 23"/>
<path d="M5650 -9512l-1-3 0-2-1-3-1-2-1-3-1-2-1-1 0-1-1 0-1 1 0 0-1 2-1 2-2 3-2 3-9 17-3 8-5 9-5 11-5 12-5 14-6 15-6 17-6 18-6 21-6 22-6 21-6 25-6 24-5 25-5 26-5 27-5 26-4 27-4 26-4 27-2 27-3 28-2 27-1 26-1 26-1 26 0 27 1 25 1 25 2 22 2 25 3 23 3 22 4 22 4 22 5 21 5 19 11 39 6 17 7 18 6 16 7 15 8 14 6 15 7 13 7 12 7 12 7 10"/>
<path d="M5766 -9295l 0-2-1-2-1-2-2-4 0-2-2-2 0-2 0 0 0 2 0 2 1 1 1 2 0 1 2 4 1 3 2 3 1 5 2 5 1 6 3 13 1 7 0 7 1 7 1 8 0 22-1 8 0 8-1 7 0 7 0 7-1 6-1 5-1 6 0 4 0 8 2-2 0-2 1-1 1-3 1-4 1-5 2-7 2-8 2-7 2-8 3-9 2-8 2-9 2-8 3-8 2-7 2-6 3-7 2-6 3-5 2-6 2-4 2-4 2-4 2-3 2-3 2-2 2-1 2-2 2 0 5 0 1 0 1 1 1 1 1 0 1 1 1 2 1 1 2 2 1 2 1 2 1 2 1 3 1 2 1 3 1 3 1 2 1 3 2 3 1 3 1 4 2 3 1 3 2 4 2 3 1 4 2 3 0 4 2 3 1 3 2 3 0 3 2 2 1 2 2 2 1 1 2 1"/>
<path d="M5964 -9444l 0-6 0 1 0-1 1 0 0 1 0 1 13 0 2-1 2 1 1-1 2 1 1 0 2 1 1 1 1 1 1 2 1 1 1 2 0 5-2 6-1 4 0 4-2 4-2 4-1 4-2 5-2 4-3 4-2 3-2 5-2 3-2 3-2 4 0 2-2 2-1 1 0 3 0 2 0 1 1 0 1 1 1 1 6 0 3-1 3 0 3-1 4-1 3-1 5-1 4-3 6-1 5-3 6-2 6-2 6-3 7-2 7-3 7-2"/>
<path d="M6190 -9368l 1-1 8 0 3 0 4 0 3-1 5-1 5-1 4-1 6-1 5-1 7-2 5-2 7-2 7-2 6-2 8-2 7-3 8-2"/>
<path d="M6469 -9549l 0 1-1 2 0 3 0 3-2 3-1 4 0 6 0 7-1 6 0 26 1 8 0 6 1 7 1 7 1 7 1 8 1 7 2 8 1 8 2 8 1 9 2 7 0 9 2 9 1 8 1 9 1 8 1 9 1 9 1 9 0 9"/>
<path d="M5935 -8964l-1 1-1 0-2 1-1 2-1 1-2 2-1 2 0 3 0 21 0 3 0 30 0 8-1 6-1 8-1 7-2 7-2 8-2 9-1 7-2 8-3 7-2 8-2 7-2 7-2 6-2 7-2 6-3 7-2 5-2 5-1 5-2 2-1 4-2 2 0 2 0 1-1 1 0 0 1 0 0-1 0-1 0-2 1-3 1-3 1-3 0-5 2-6 1-7 2-8 1-8 1-9 3-9 1-10 2-9 2-8 2-10 4-17 3-8 3-8 2-7 3-7 3-6 2-5 3-5 3-5 3-4 3-4 3-3 2-3 3-2 2-2 2-1 2-1 2 0 5 0 2 1 3 1 3 1 3 1 2 2 3 2 2 3 3 3 6 7 2 4 2 5 1 5 3 4 2 5 1 6 2 5 1 5 1 5 1 6 2 6 0 6 0 6 1 6 0 25-1 5 0 12 0 5 0 9-1 4 1 3 0 2 2 3 1 1 2 1 3 0"/>
<path d="M6124 -8904l 0-1 1 1 0 1 3 3 2 0 1 1 2 1 2 1 4 1 3 1 3 0 5 0 15 0 5 0 6 0 7-1 6-2 6-1 8-1 7-1 15-3 8-2 8-2 7-2 7-3"/>
<path d="M6418 -9027l 0-1 0 3 1 2 0 2 0 3 0 3 1 4 1 5 1 5 0 5 0 6 2 6 0 6 1 7 0 7 1 6 1 7 1 6 1 7 0 7 1 7 1 6 1 7 0 7 0 7 1 7 0 7 1 8 0 7 0 7 1 8 1 6 1 6 1 6 1 6 0 4 2 4 1 3 1 3"/>
<path d="M6505 -9551l 1-1 0 1 0 0 1 1 1-1 1 1 2 1 2 2 3 2 3 3 4 2 5 3 5 5 6 5 6 5 6 5 7 7 6 6 7 8 7 8 7 8 7 10 7 10 7 11 8 11 8 12 7 12 8 12 7 13 7 13 7 14 7 15 6 15 8 15 6 16 6 17 6 17 6 18 6 18 5 18 5 18 5 20 5 20 4 20 5 22 4 21 4 22 3 22 2 23 2 23 2 22 1 24 0 24 0 25 0 25-2 25-2 25-2 25-3 25-3 24-4 23-4 24-5 23-5 21-5 21-5 21-5 19-6 19-6 18-5 17-6 16-6 16-6 13-5 14-5 12-5 11-4 10-4 8"/>
<path d="M7468 -8375l 2 0 1 1 1-1 3 0 2-1 3 0 3 0 4-1 2-1 5 0 3-1 5-1 5-1 4 0 5-2 5-1 5 0 5 0 6-2 15-2 5-1 8-2 4 0 10 0"/>
<path d="M7498 -8312l 1 0-1 1 1 0 0 0 1 0 0 0 3 0 1 1 3 0 3 1 4 1 4 0 5 0 5 0 5 0 16 0 12-2 6 0 6-1 7 1 7-1 7-1 7 0 8-1 6-1 7-2"/>
<path d="M8248 -8999l 2 2 1 2 1 2 1 2 1 3 2 2 1 3 1 2 1 3 1 3 2 3 1 3 1 4 1 3 2 4 1 3 1 5 1 3 1 4 1 3 1 4 3 8 1 5 0 4 2 5 0 6 2 5 1 6 1 7 1 5 2 7 1 6 2 7 1 8 1 7 2 7 1 8 2 7 1 8 2 7 1 7 1 6 1 7 1 7 1 7 1 13 0 12 1 6 0 23-1 6 0 19-1 3 0 3 0 4 0 1-1 2 0 2-1 1 0 6 0 0 0 0 0-1 0-1 0 0 0 0 0-1 0-1 0-1 0 0-1-1-1-1-1-2-4-7 0-1-1-2 0-1 0-2-1-1 0-2-1-1 0-4 0-2 0-2-1-1 0-10-1-2 0 0 1 0-1-1 0-2 0 1 0-3-1-2 0-3 1-1-1-1 0-2 1-1 0-10 1-3 0-28 1-4 0-3 0-4 0-3 1-3 1-4 1-3 1-4 3-7 1-4 2-4 2-4 2-5 2-5 3-5 2-5 3-5 3-5 3-5 2-5 4-5 3-5 3-5 4-5 3-4 3-4 4-4 4-3 4-5 3-3 5-3 4-4 4-3 5-2 4-3 4-3 4-2 4-2 4-2 3-2 4-1 3-1 3-1 4-1 3-1 4 0 3 1 4 0 4 1 3 0 4 0 3 2 4 0 3 2 4 1 6 5 3 2 3 2 3 3 3 3 3 4 2 3 3 5 3 4 2 5 1 5 2 5 2 5 1 6 2 6 1 7 1 6 1 14 1 9 1 8 0 17-1 9 0 9-1 9 0 9-1 9 0 9 0 10-1 9 0 10-1 10 0 37 2 16 0 7 0 8 2 7 1 6 3 12 1 5 2 5 1 4 3 4 1 4 1 4 2 4 2 3 1 4 3 3 2 5 3 2 1 3 1 2 1 1 1 2 1 2"/>
<path d="M8144 -8425l 0-1 1 1 1 0 2-1 2 1 3 0 5 1 5 0 5 0 7 1 16 0 9 1 9 0 10 1 10 0 11 0 10 0 12 0 23 0 13 0 13-1 13-1 26 0 13-1 13 0 13-1 12-1 14-1 25-3 14-1 13-1 13-2 13-1 12-1 12-2 12-1 11-1 11-1 12-1 11-1 10-1 10-1 10-1 9-1 10 0 8-1 22 0 6 1 5 1 4 2 5 1 7 2 2 1 2 1 1 1 1 2 0 4"/>
<path d="M8126 -8097l 0-1-1-1-1 0 0-1-1-1 0 1 1 0 1 2 1 1 1 2 2 3 2 4 2 5 2 5 2 5 3 7 2 8 2 8 2 8 2 9 2 9 2 9 2 11 1 9 2 10 2 12 1 10 2 12 1 11 1 12 1 12 1 12 1 12 0 11 0 11 1 11 1 10 0 17 1 8 0 47-2-3-1-2 0-3-2-4-1-5-1-7-1-7-2-8 0-8-2-20 0-52 1-12 1-10 1-21 1-9 2-11 1-9 2-10 3-8 2-8 3-7 2-7 3-6 3-5 4-5 3-5 3-4 4-4 3-4 4-2 3-4 4-3 4-3 4-2 3-3 4-1 4-2 3 0 4 0 4-1 11 0 3 1 4 0 3 1 3 2 3 2 4 3 3 2 2 5 3 4 2 4 3 5 2 5 3 5 2 6 3 6 1 6 2 7 2 8 1 9 2 8 1 9 3 18 0 10 2 10 1 9 2 9 1 8 2 9 2 8 1 7 2 8 2 7 3 6 2 6 1 6 2 5 2 4 3 3 1 4 2 3 2 2 2 1 1 2 2 1 3 0 2-1 2-1 3-2 2-4 3-4"/>
<path d="M8411 -8241l 1-1 0-2 0-1 1 0 2 0 2-1 3 0 2-1 20 0 3 1 5 0 3 1 4 0 4 1 4 1 3 1 4 1 3 1 3 2 3 1 2 2 2 3 2 1 3 4 2 2 0 3 1 2 0 10-1 3 0 5-1 4-1 4-3 4-1 5-1 4-2 4-2 4-1 4-2 4-2 2-1 3-3 5 0 2-2 2 0 1-1 3 0 1-1 1 0 6 1 1 1 1 0 1 1 0 1 1 0 0 5 2 3 1 2 0 4 1 4 1 5 1 10 0 5-1 6 0 6-1 8-1 7-2 8-1 10-2 8-3 10-2"/>
<path d="M8948 -8464l 0-1 0 1 1 1 0 0 2 0 1 1 5 2 2 0 4 0 4 0 4 1 4-1 5 0 5-1 6-1 6-1 6-1 6-2 13-3 7-1 8-1 6-2 6-2 6-1 6-1"/>
<path d="M8947 -8363l 1-1 0 1 0 1 1 0 2 0 0 2 2 1 3 0 2 0 10 0 5 0 5-2 6-1 6-1 6-1 7-3 7-2 7-3 8-2 8-4 9-4 9-4 10-5 9-5 10-5 9-6 10-5 10-5 9-6"/>
<path d="M9396 -8809l 0 1-1 0 0 5 0 3 0 2-1 5-1 4-1 5 0 6 0 5-1 7-1 6-3 24 0 8-1 19 0 40 1 10 0 10 0 10 1 9 1 11 1 10 1 11 1 9 4 28 1 10 2 8 1 8 1 9 2 8 3 16 2 8"/>
<path d="M9139 -8219l 1-1 3-1 3-1 4-1 4-2 6-1 6-2 7-2 9-3 9-4 10-3 11-5 11-5 11-5 11-6 11-5 12-6 11-6 11-5 11-5 12-4 11-4 11-4 11-3 12-4 10-3 11-3 11-5 12-3 11-4 12-4 11-4 12-5 10-4 11-4 10-4 9-3 10-4 7-3 8-4 7-3 7-3 6-2 6-1 5-2 4 0"/>
<path d="M9306 -8172l-1 1-2 1-1 2-2 3-3 4-2 3-3 5-1 3-1 5-2 5-1 7-1 5-1 7 0 8-2 7-1 9-1 8-1 9-2 9-1 11-1 10-1 9-2 11-1 10-2 12 0 10-2 11-3 20-2 10-1 10-2 9-1 10-2 7-1 8-1 6-1 6-1 4-1 3 0 3 0 1 0 2 0-2 0-1 0-3 1-2 0-10 1-5 0-9 1-8 1-10 1-11 1-12 2-11 2-11 3-13 2-10 3-12 2-11 3-11 3-10 3-10 3-10 3-9 4-9 3-9 3-8 4-7 4-6 4-7 4-6 5-5 4-4 5-3 5-3 4-3 5-2 4-1 5-1 5-1 7 0 5 1 3 0 4 2 3 0 3 3 3 2 3 2 3 2 2 3 3 3 3 4 2 4 2 5 2 4 2 5 2 6 2 5 1 6 2 6 0 8 1 7 2 8 0 8 1 8 1 9 0 9 1 8 1 9 1 9 1 8 1 8 1 9 2 7 0 9 2 9 2 7 1 9 2 8 2 8 2 9 2 8 3 7 3 8 2 6 3 7 3 6 3 6 4 6 3 5 3 5 4 4 3 3"/>
<path d="M854 -9732l 1 0 0 2 0 2 1 2 0 3 1 4 0 4 1 6 0 6 1 6 0 6 1 8 1 7 1 7 1 17 2 9 0 9 1 10 1 9 1 11 3 40 1 11 0 10 1 10 0 10 0 12 0 21 1 10-1 11 0 62 0 7 0 7 0 7-1 5-1 5 0 5-1 3 0 3 0 4 0 2-1 1"/>
<path d="M504 -9210l-1 1-2 1-1 2-2 1-1 1-1 1-1 2-1 1-1 1 0 6 2 2 3 2 2 1 4 2 6 1 6 1 8 2 9 1 10 1 11 1 12 2 13 1 14 0 62 0 18-1 17-1 19-2 36-4 32-4 31-3 28-5 27-5 25-3 22-5 18-2 19-3 18-3 20-4 18-3 18-3 17-4 17-2 18-3 17-4 17-3 16-3 16-3 16-3 15-3 15-3 15-2 15-3 13-2 13-2 14-2 11-2 11-2 9-1 9-1 8-1 6-1 6-1 13 0 2 1 1 0 0 1-1 2"/>
<path d="M631 -8964l 0-2-1-1 1-1 0-1-1 0 0-1 1 0 0 0 1 0 0 0 3 2 0 2 2 1 3 6 1 4 3 8 1 6 2 6 2 7 1 8 1 7 1 9 1 19 0 30-1 11 0 11 0 10-1 10-1 10-1 10-2 9 0 9-1 7-1 8-1 7-1 5-1 5 0 5 0 3-1 4 0 5-1-1 1-2 0-3 1-3 0-5 1-5 1-6 1-7 1-6 1-8 3-17 2-9 1-9 2-10 2-10 2-10 1-9 3-10 2-8 2-9 3-7 2-8 2-6 2-6 2-6 2-5 2-4 3-5 2-3 3-3 2-3 3-4 2 0 2-2 1 0 5 0 2 0 2 1 1 1 2 1 3 2 1 2 2 2 2 3 1 3 2 2 2 5 1 3 1 5 2 5 1 5 2 5 2 5 1 5 1 6 1 6 1 5 2 7 0 6 2 5 0 5 2 5 1 5 1 5 3 9 1 3 1 4 1 3 2 3 2 2 1 2 2 1 2 1"/>
<path d="M809 -8909l 1 0 0 1 1 0 2 0 2 1 2 1 2 0 4 1 2 0 4 1 13 0 4-1 5 0 5-2 5-1 7-1 5-2 6-3 6-2 6-3 6-4 6-2 5-4 6-3 6-3 4-4 5-3 4-3 3-2 3-2"/>
<path d="M861 -8979l 1 0 0 1 0 0 0 0 0 0 0 0 0 0 1 0 0 2 1 1 1 2 2 2 1 2 2 3 1 2 1 3 3 3 1 4 1 4 2 4 1 4 2 5 2 5 1 4 2 6 1 5 1 5 2 5 1 5 2 6 1 5 2 4 3 5 2 4 3 5"/>
<path d="M1054 -9081l 1 0 0 2 0 2 2 2 1 2 1 2 1 4 2 4 1 5 2 5 2 6 2 6 2 6 2 8 1 6 2 7 2 8 2 8 1 8 2 8 2 8 2 9 1 8 2 9 2 8 1 8 1 9 1 8 1 9 2 8 0 8 2 8 0 8 1 7 2 7 1 8 1 5 1 5 2 5 0 5 1 3"/>
<path d="M1456 -9293l-1 0-1-1-7 0 0 1 0 0 0-1 1 0 1 1 2 0 2 1"/>
<path d="M1416 -9317l 1-1-1 0-1 0 1 0 0-1 1 0 1 1 3 0 1 0 3 0 2 1 3 1 3 0 3 1 4 2 3 0 12 0 4 1 5 0 5-1 11 0 11-1 6-1 7-1 6-1 6-1 6-2 6-2 7-2 6-3 5-3 6-3 7-3 6-3 5-2"/>
<path d="M1495 -9412l 0 1-2 0-1-1-1 1-2 0-1 0 0 3 1 0 0 2 1 2 0 2 1 4 1 4 2 4 2 5 1 6 2 6 1 6 2 6 2 8 2 6 2 8 1 6 2 7 3 8 1 7 2 7 2 7 1 8 3 14 1 8 1 6 1 8 2 6 1 6 2 6 2 7 2 5"/>
<path d="M2019 -9587l 1-1 0 1 1 1 1 1 1 2 2 1 3 2 2 3 3 3 2 3 3 4 2 4 3 4 2 5 3 5 2 5 2 6 2 6 1 6 3 7 0 7 2 7 1 8 1 7 1 7 0 8 0 30 0 7-1 7 1 8-1 5-1 6 1 6-1 3 0 12 1 0 0-1 1-1 0-3 1-2 1-5 0-5 2-7 1-7 2-9 2-10 2-10 2-11 2-11 2-12 3-11 2-11 3-11 2-10 2-10 3-10 3-10 4-10 4-9 4-9 4-8 4-8 5-8 4-7 4-6 4-5 5-5 4-4 3-3 3-3 3-2 3-1 2-2 2-1 2 0 2-1 1 0 3 2 1 0 2 1 2 2 2 2 2 3 1 4 2 3 3 5 1 5 2 6 2 7 2 7 1 7 1 9 1 8 1 8 1 9 1 9 0 9 1 9 0 10 1 9 0 10 0 10 1 9 1 9 0 8 2 9 1 8 1 7 1 8 3 14 2 6 3 6 1 6 1 4 2 5"/>
<path d="M1844 -9219l 0-1 8 0 5 0 6 0 7-1 10-1 10-1 13-2 14-1 14-3 16-2 16-2 17-3 16-3 17-3 17-3 18-3 17-3 17-3 17-4 17-2 17-4 17-4 16-3 16-3 16-4 15-2 15-3 15-2 13-3 14-3 13-2 13-3 12-2 12-2 21-3 11 0 9-2 19-1 8-2 8 0 9-1 7-1 6-1 27 0 4 1 3 0 3 1 2 1"/>
<path d="M1784 -8989l 0-1 0 5 1 2 0 3 1 4 1 5 1 5 1 6 1 7 0 8 1 7 1 9 0 27 1 10 0 10-1 10-1 9-1 10-1 10-1 11 0 9-3 10 0 10-2 8-1 9-2 7-1 7-2 7-2 5 0 5-2 5-1 3-1 3 0 1-1 2 0 1 2-3 0-4 1-4 0-5 1-6 1-8 1-10 2-10 2-10 3-13 2-12 3-13 3-12 3-12 6-23 3-10 3-10 3-10 4-8 2-7 3-6 3-6 3-6 4-4 2-5 3-3 2-4 3-3 2-3 3-3 2-1 3-1 2-2 6 0 3 1 2 1 2 1 2 3 2 2 2 2 1 3 3 4 1 3 1 3 3 4 1 3 1 4 2 5 1 5 1 4 1 6 0 5 2 6 1 7 0 6 1 6 0 7 1 6 0 7 2 7 1 6 1 5 1 5 3 5 2 4 2 3 2 3 3 2 2 1"/>
<path d="M1968 -8909l 3 0 1-1 2 0 3 1 2-1 11 0 4 0 4-1 4-1 12-4 5-2 10-2 5-3 6-2 5 0 6-2 10-4 6-3 5-2 5-3 5-2 5-3 4-3 3-2"/>
<path d="M2022 -8986l 0 1-1 3-1 2-1 4-1 4-1 4-1 5 0 8 1 5 1 5 0 5 2 5 1 5 1 5 1 4 2 5 1 4 2 5 3 5 2 5 3 5 3 5 3 5 3 5 3 5 4 4 4 4 3 4 4 4 3 4"/>
<path d="M2266 -9117l-1 1 1 1-1 2 0 2 0 6-1 4 0 5 1 6-1 6 1 6 0 7 0 7 2 7 0 8 1 8 2 17 1 9 1 9 0 10 0 9 1 11 1 10 1 10 1 10 1 11 0 10 1 11 1 10 3 21 0 10 2 9 1 9 1 8 1 7 1 6 1 6"/>
<path d="M2541 -9202l 1 0 1 1 1 0 1 0 1 1 1 0 3 1 1 1 2 0 2 1 2 1 2 0 3 1 3 1"/>
<path d="M2874 -9652l-1 1 0 2 0 2-1 4 0 4-1 5 0 41 1 8 0 8 1 8 2 26 1 8 2 9 1 8 1 9 3 8 2 9 2 8 2 8 2 8 2 7 3 8 2 6 2 7 2 6 2 6 1 6"/>
<path d="M2656 -9237l-1 0 1 1 3 0 3 0 8 2 5 1 7 0 8 1 9 1 9 0 22-1 12-1 12 0 12-2 13-1 12-1 13-1 13-3 15-1 13-2 15-2 14-3 13-2 14-3 14-3 13-2 13-2 13-2 13-1 13-2 12-2 13-3 12-1 13-2 11-2 11-1 11-1 11-2 11-1 10-1 9 0 9-1 9 0 9-1 16-2 8 0 6-1 32 0 6 1 5 0 5 0 8 0 3 1 3 0 2 1 2 1 1 0 2 2-2 3"/>
<path d="M2630 -9002l 1 0 0-1 0 1 0 0 1 1 1 1 1 1 1 2 1 3 2 2 2 4 1 4 1 4 2 5 0 6 0 5 1 6 0 7-1 6 0 7 0 7-1 6-2 7-2 15-2 7-2 8-2 7-2 6-2 7-3 6-2 5-3 5-1 4-2 3-1 2-1 2 0 0 0 1-1 0 1-1-1 0 0-3 1-3 1-4 2-4 2-6 2-5 2-7 3-6 3-7 3-7 4-7 3-6 3-6 4-5 3-6 4-5 4-5 3-5 3-4 4-4 2-3 3-3 3-2 2-2 2-2 2-1 2-1 1-1 2-1 7 0 2 1 2 0 1 1 2 2 2 0 2 1 2 2 1 2 2 2 2 2 1 3 2 3 2 4 2 4 1 5 2 5 1 5 2 5 1 7 2 5 0 7 1 6 1 6 0 6 1 7 0 6 1 6 1 6 0 5 1 5 1 4 0 3 2 3 3 5 2 0"/>
<path d="M2836 -8966l 1 0 0 1 3 0 2 0 3 1 2 2 3 0 4 0 3 1 5 0 6 1 7 0 6-2 7-2 7-2 8-2 9-4 8-3 7-5 8-5 7-4 8-4 6-4"/>
<path d="M2882 -9040l-1 0-3 1 0 2-2 1-2 2-1 2-1 2-1 4-1 3-1 4 0 5-1 4 0 5-1 4 0 17 1 5 0 7 1 6 1 5 1 5 0 5 2 5 1 4 2 5 1 3 1 5 3 3 2 4 3 4 2 3 3 2 4 2 3 2 5 0"/>
<path d="M3079 -9130l-1 1 0 1 0 2-1 2-1 3-1 3 0 4 0 5-1 5 0 30 1 6-1 7 0 25-1 8 0 9 0 10-1 9 0 10-1 9 0 17-1 9 0 24 0 6 0 7 0 14 1 5"/>
<path d="M3321 -9257l 1-1 10 0 5 0 10-2 13-3 7-2 8-3 7-2 10-3 9-3 10-5 10-4 10-6 10-5 10-5 10-6 9-6 10-5"/>
<path d="M3431 -9370l-2 1-2 3-2 2-3 4-3 5-3 5-2 6-2 6-2 6 0 6 0 7 1 13 1 6 2 6 2 6 2 7 4 6 3 6 3 7 4 6 3 6 5 6 5 5"/>
<path d="M3649 -9216l 0-1 0 1 1 0 0-1 0 1 5 0 3-1 2 0"/>
<path d="M3783 -9209l 1-1 2 0 2 1 4 0 2 1 3 0 6 0 3 1 6 0 4 1 3-1 7 0 3 1 10 0 4-2 4 0"/>
<path d="M3932 -9215l 2 1 1 1 2 2 1 2 3 1 2 2 3 2 2 2 3 1"/>
<path d="M996 -8149l 0 1 1 1 0 2 1 2 3 6 2 4 2 4 2 4 2 5 1 4 2 5 2 5 1 6 2 5 2 5 1 5 2 6 1 5 0 6 2 5 1 5 1 7 0 6 1 5-1 7 0 13 0 7-1 6-1 7"/>
<path d="M628 -7778l-1 0 0 1-2 0-1 0-2 0 0 1-3 0 0 1 0 1 1 0 2 0 4 0 3 1 28 0 9-1 11 0 11 0 13-1 13-1 29-3 30-3 29-5 29-5 27-4 25-5 24-6 42-10 22-5 21-5 22-6 22-6 22-6 22-7 23-5 22-7 22-5 21-7 22-5 21-5 21-4 20-5 18-4 18-4 18-4 17-2 16-3 15-2 13-2 13-1 13-2 11 0 11-1 9-1 30 0 10 2 3 0 3 1 2 1 2 0 1 1 0 2-1 2-2 2"/>
<path d="M816 -7689l 0 2 1 1 0 3 0 2 0 2 1 3 1 3 1 3 0 3 0 4 1 5 1 4 0 5 1 6 0 35-1 7 0 6-1 7-1 6-1 7-1 5-1 10-1 5-1 4 0 3-1 3-1 3 0 2-1 1 0 1 2-2 1-1 0-3 2-3 1-3 2-5 3-5 4-12 5-11 6-12 5-13 5-11 6-10 4-9 3-7 4-6 4-7 3-6 4-5 4-5 2-5 4-5 4-4 2-3 3-4 3-2 4-2 2-2 3-1 3-1 6 0 3 1 3 2 3 2 2 2 3 2 6 6 2 3 3 3 1 4 3 4 2 4 2 5 1 5 1 5 1 5 1 6 1 5 1 6 0 5 1 5 1 5 0 5 1 5 2 10 1 4 1 4 1 4 2 4 2 3 2 3"/>
<path d="M1019 -7683l 6 0 3-1 3 0 4-1 5-1 5-1 6-1 7-2 6-2 6-2 8-2 6-3 6-3 8-3 7-4 7-4 6-4 7-3 7-4 6-3 7-4"/>
<path d="M1088 -7762l-1 1-1 1-1 1-1 1 0 2-1 3-1 2 0 2 0 3 0 3 0 2 1 3 1 3 0 4 1 3 3 9 2 5 2 4 3 4 2 5 2 5 4 4 3 4 3 5 4 3 4 4 5 3 4 4"/>
<path d="M1347 -7821l-1 1-1 3-1 2-1 3-1 4-1 4-1 5-1 4-1 5 0 18 2 4 1 4 1 4 2 4 2 4 2 4 2 3 2 5 1 4 3 4 2 4 2 4 1 4 2 5 2 3 1 5 2 7 0 3 0 5 1 5"/>
<path d="M367 -7457l 2 0 2 1 21 0 6-1 26 0 11-1 12 0 13-1 13-1 15-1 16-1 18-1 17-1 19-2 42-5 23-2 46-6 47-7 47-7 46-7 46-7 44-8 42-6 38-7 39-7 38-6 39-5 41-5 40-6 120-15 39-4 40-4 38-5 38-3 36-4 36-3 35-3 33-3 33-2 32-2 30-1 27-2 29 0 27 0 26 0 25-1 24 0 22 1 22 1 22 1 20 1 18 2 18 0 17 2 13 1 14 2 12 1 10 1 9 2 7 2 8 1 5 2 5 1 3 2 2 1 2 0 0 1 0 1-2 2"/>
<path d="M645 -7276l 4 0 0 1 0 0 1 0 0 1 1 2 0 2 0 3 0 2 1 5 1 4 1 5 0 6 1 6 1 7 0 8 1 9 2 10 0 10 1 10 0 12 1 11 0 12 0 26 1 13-1 14 0 26 0 13-1 14-1 14 0 14-1 27-1 14 0 25-1 12 0 11 0 11 0 10"/>
<path d="M781 -7098l 1 0 0-1 2 0 1 0 2-1 3-1 2-1 3-1 8-2 8-2 9-3 10-3 9-2 9-3 9-2 9-2 8-2 8-3 8-2 8-3 9-2 9-2 17-3 9-2 8-1 9-1 8-1 9-2 9-1"/>
<path d="M1446 -7497l 0 4-1 2 0 5 0 3 0 4 0 3 0 8 3 17 1 5 1 4 2 9 1 3 1 4 1 4 0 4 1 4 1 4 0 4 1 5 0 4 2 3 0 4 0 5 0 4 1 5 0 23-1 5 0 5"/>
<path d="M1180 -7198l 6 0 2 1 24 0 7-1 9-1 8 0 9-2 20-3 10-2 11-2 11-2 12-2 13-2 13-3 13-3 14-3 14-3 14-3 14-3 16-3 15-2 16-2 15-3 17-3 16-3 16-3 15-2 14-3 15-3 14-2 13-2 13-1 13-2 13-2 13-1 12-2 11-1 10-2 11 0 11-1 9 1 32 0 7 0 7 1 6 0 6 1 15 0 4 0 9 0 7 2 2 1 3 0 3 1 2 0 3 1 1 1 1 1 0 3"/>
<path d="M1214 -7082l 1-1-1 0 0-1 1-1 0-1 0 0 0 1 2 2 1 1 1 2 1 2 1 4 2 3 2 5 0 3 2 6 1 5 1 6 1 5 0 6 0 6 0 6 1 5 0 16 1 5 0 4-1 5 0 4-1 4 0 4-1 3 0 3-1 3 0 2 0 2 0 4 0 1 0 0 0-2 0-1 0-7 0-3 2-10 0-6 3-6 1-6 1-6 3-6 1-6 1-6 3-5 1-5 1-6 3-5 2-6 2-5 2-5 2-6 2-4 3-5 2-4 2-4 2-5 2-3 2-4 2-3 9-8 2-3 2-3 2-2 2-3 4-2 1-2 2-2 1 0 2 0 1-1 2 0 2-1 1 1 4 0 1 1 2 2 2 1 2 2 2 2 1 3 3 4 1 3 1 5 0 3 1 5 2 5 0 5 0 5 1 6 0 6 1 5 0 7 0 6 1 5 0 11 1 5 0 5 1 6 0 5 0 5 0 4 2 9 0 3 1 4 1 3 1 2 1 3 1 2 1 2 1 1 3 3 1 1 4 0"/>
<path d="M1447 -7479l 0-2-1-1 0-3 1-1 0-4 1-1 0-2 0-2 0-1 1-2 2-2 0-1 0-2 1-2 1-1 0-2 1-1 1-1 1-3 1-2 1-2 1-2 2-1 1-3 1-1 1-2 2-2 2-2 3-3 2-1 1-1 2-1 2-2 3 0 2-1 3-1 1 0 2-1 2-2 5 0 1 0 2-1 4 0 4 1 2 0 4 1 3 1 2 1 3 1 2 0 2 1 2 3 3 1 2 2 3 2 2 1 2 2 2 3 2 2 3 3 1 2 3 3 1 4 2 2 2 3 1 3 2 4 1 2 2 3 1 3 1 4 2 3 1 3 2 5 0 4 2 4 1 4 0 5 1 5 1 5 0 5 1 5 0 5 1 6 0 11 1 6 0 39 0 4 0 5 1 4 0 4 1 4 0 4 1 4 2 7"/>
<path d="M1442 -7107l 1-1-1 0 0 1-1 0 0 1 1 0 0 0 1 0 0 0-1 0 1 0 0-1 0-1 0 0 0 0 0 1 1 0 0 1 0-1 1 0 1-1 1 0 1 0 4 0 1-1 8 0 3-1 22 0 4-1 13 0 13-2 9 0 4-1 4 1 5-1 3-1 4 0 3-1 8-1 2-1 3-1 3-1 4-1 3 0 2-1 2-1 1-1"/>
<path d="M1499 -7175l-1 1-2 0-1 0-1 0-1 1 0 2 0 0-2 2-1 2 0 1-1 2 0 3-1 3 0 3 0 4-1 3 0 13 1 4 0 5 0 5 1 5 1 6 0 5 1 4 2 10 0 7 2 4 1 5 2 4 1 4 1 3 3 5 2 3 2 2 2 3 2 2"/>
<path d="M1670 -7186l 0 1 1 1 0 2 0 2 1 3 2 3 0 4 1 4 1 5 1 4 2 5 1 5 1 5 1 5 2 4 1 5 1 5 2 6 1 5 1 5 3 10 2 5 1 5 1 5 2 6 1 6 1 5 0 5 1 6 1 7 1 5 0 5 1 6"/>
<path d="M2252 -7628l 0-1-1 0-1-2-1-1-1 0-2-2 0 0 2 0 1-1 2 0 2-1 3-1 2 0 5-2 5-1 5-2 6-1 13-3 7-2 8-1 7-2 8-2 8-2 8-2 8-2 7-2 8-2 7-1 6-2 7-1 7 0 5-1"/>
<path d="M2272 -7544l-4 0 0 1-2 0 2 0 0 0 3 0 2-1 4 0 4-1 5 0 5-2 7-1 7-2 8-2 8-3 9-3 9-5 10-4 12-5 10-5 12-5 11-5 13-6 12-6"/>
<path d="M2644 -7904l-1-1 0 0-2 1-1 0-2 1-2 0-1 1-2 2 0 2-1 2-1 3-1 4 0 4 0 6-1 6 0 23 1 10 0 10 0 10 2 23 1 12 0 13 1 13 1 13 0 13 0 13 1 14 1 14 1 14 1 14 0 14 1 15 1 14 1 14 1 14 1 13 1 14 2 14 1 14 2 13 3 12 1 13 2 12 2 12 2 11 3 10 4 18 2 9 3 8 2 7 2 8 2 6 2 6 3 8 1 5 2 5 2 6 1 4 1 5 1 4 1 3 1 3 0 2 2 2 0 1 0 1"/>
<path d="M1610 -8120l-1 4-3 6-2 7-3 7-4 10-3 10-3 10-2 8-3 9-2 8-2 8-2 9-1 8-2 9-1 7-2 9 0 8-2 8-1 9 0 7-1 9-1 8 0 7-1 8-1 7-1 7-1 7 0 7-1 6 0 7 0 7 0 7-1 7 0 7 1 7 0 22 0 5 1 7 1 6 1 13 2 12 1 5 0 6 3 10 1 4 1 4 2 4 2 3 1 3 2 2 2 3 2 2 2 1 2 2"/>
<path d="M1696 -8077l 0 3-1 2 0 3-1 3-1 4 0 13-1 4 0 4 1 5 0 4-1 4 0 32 0 5 0 8-1 5 0 4-1 4 0 4 0 5-1 3 0 4-1 3 0 4"/>
<path d="M1754 -7999l 8 0 2 1 11 0 3-1 5 0 3-1 7 0 3 0 3-1 4 0 3-1 4-1 4 0"/>
<path d="M1981 -8334l 1 0-2 0 1 0-1 1 1 0-1 0 0 3 0 0-1 2 0 4-1 2 0 31 1 3 0 24-1 4 0 5-1 4 0 3 0 3-1 2-1 8-1 3-1 3-1 4 0 3-2 7 0 3-2 3-1 3 0 3 0 4-1 2-1 2 0 1 0 1-1 2-1 1-1 2 0 0-1 2 0 1-1 0 0-3 1 0 0-7 1-3 0-3 0-3 0-4 1-4 0-8 1-4 0-5 1-4 0-5 1-3 1-4 0-5 2-4 1-4 1-3 1-4 1-4 2-4 1-4 1-4 2-4 1-4 2-4 1-4 2-3 1-4 2-4 2-3 1-3 1-3 2-2 1-3 1-2 1-2 2-2 1-2 1-2 1-1 2-2 4-7 1-1 2-2 1-2 1-1 2-2 1 0 1-2 2-1 1-2 3-3 1 0 0-1 1-1 0 0 1 0 1 0 0-1 0-1 2 0 0-1 1 0 0 0 5 0 1 0 1 0 1 2 2 1 0 1 1 1 1 1 0 1 2 3 1 2 0 1 2 2 0 3 1 2 0 3 1 2 1 2 0 2 2 6 0 2 0 3 1 3 1 3 0 41-1 2 0 14-1 2 0 5 0 2 0 1-1 2 0 5-1 1 1 2-1 1 0 1 1 2-1 1 0 2 0 1 0 1-1 1 0 2-2 1 0 3 1 1 0 0 3 0"/>
<path d="M2121 -8509l 0-1-4 0 0 1-1 0 0 1-3 3-1 0-1 3-1 2-1 1-1 2-1 2 0 2-1 2-1 1-1 2-1 3-2 4-1 4-1 3-1 3-1 3 0 2-1 3-1 2-1 6 0 2-1 2 0 2-1 2 0 8 0 2-1 2 0 3-1 2 0 3 0 2-1 2 0 8-1 2-1 0 0 3-1 1 0 1-1 1 0 1 0 3-1 0 1 0 0-1 0 0 0-1 1-1 1-2 1-2 1-2 1-3 1-4 1-5 2-4 1-5 2-5 1-5 2-5 1-5 1-5 3-4 1-4 1-4 2-5 2-4 2-4 2-5 2-3 1-4 2-3 2-4 1-3 2-4 0-3 2-3 1-3 3-6 1-2 1-3 3-4 1-2 1-2 1-1 1-2 1-2 1-1 1-2 1-1 1-2 0 0 2-2 0-1 0-1 3 0 0-1 0 2 2 0 0 1 2 0 1 0 1 1 1 1 1 1 1 2 1 2 1 2 1 1 1 3 2 2 1 6 1 4 2 2 1 4 1 4 1 3 0 3 1 4 1 2 1 8 0 7 1 3 1 4 0 3 0 4 0 4 1 3 0 4 1 3 0 3 1 4 0 18 0 5 0 8 1 4 0 42-1 4 0 4"/>
<path d="M1855 -8086l 0-1 1 0 0 0 1 0 2-1 0-2 2 0 3-2 2 0 2-1 3-1 3-1 3-1 4-1 3-1 5-2 3-2 5-1 5-2 4 0 5-2 5-1 12-2 6 0 5 0 6-1 13-1 6-1 6-1 6-1 7 0 6-1 7-1 6-1 7-1 7-1 8-1 7-1 7-1 7-2 8 0 8-2 7 0 8-1 7-1 16-1 14-2 6 0 7 0 8-1 7 0 7-1 6-1 7 0 6 0 7-1 7 0 5-1 13 0 5 0 26 0 4 0 5 1 8 0 4 1 6 0 4 0 3 0 3 0 5 0 3 0 6 0 2 0 4 0"/>
<path d="M1881 -7936l-2 0-1 1-1 1 0 2 0 2 0 5-1 3 0 10-1 4 0 4 0 4 0 5-1 4-1 4-1 5-2 8-1 4-1 5-1 5 0 4-2 4-1 9-1 3-1 5 0 3-2 2 0 4-1 3 0 2-1 2 0 2-1 2 0 1 0 1 0 1 0-1 1-2 0 0 1-2 0-2 1-2 1-3 1-3 0-2 1-3 1-5 1-3 2-5 0-5 3-4 1-4 1-4 2-5 1-5 2-4 1-4 2-4 1-5 2-4 2-5 2-4 1-5 2-5 2-5 3-4 2-4 1-3 2-4 2-3 1-2 2-3 1-2 2-3 2-2 2-3 2-1 1-1 2-3 2-1 1-1 2-1 1-2 2 0 2-3 1-1 2-1 1 0 2 0 5 0 2 0 2 1 3 0 2 1 1 0 2 1 2 1 3 1 1 3 2 1 2 1 2 3 2 1 1 2 2 3 2 2 1 3 1 3 1 3 2 3 1 2 1 4 1 3 0 3 1 3 2 3 0 4 0 3 2 7 0 8 0 2 0 4 1 3 1 3 0 5 1 3 0 2 0 3 1 2 1 3 0 2 0 1"/>
<path d="M2035 -7920l 1 0 0-1 0 0 0-1 2-2 1 0 4-2 2 0 2-2 3-1 4-2 3-1 7-3 5-2 4-2 5-2 3-2 5-2 4-2 4-2 4-2 3-2 5-2"/>
<path d="M2084 -7991l 0 1-1 2 0 1-1 2-1 3-1 3 0 3-1 4 0 2-1 3 0 4 0 3 0 3 0 4 0 7 1 4 1 2 0 3 1 6 1 3 1 3 1 3 1 2 1 4 2 3 1 3 1 3 1 2 2 3 1 2 1 2 1 2 1 3 1 2"/>
<path d="M2204 -8018l 1 1 0 6-1 3 0 4 1 3 0 8-1 4 1 4 0 5 0 4 0 5 1 4 0 10 2 3 0 5-1 5 0 4 1 5-1 4 0 32 1 5-1 3 1 3 0 4 1 2 0 2"/>
<path d="M2353 -8407l 1 1 0 3 1 2 2 3 1 4 2 4 2 5 2 5 2 6 2 6 3 6 2 6 3 6 3 7 3 7 2 8 3 7 3 7 4 7 3 8 3 7 3 7 3 8 3 6 3 8 3 6 3 8 2 8 3 8 2 8 2 9 2 7 0 8 2 8 1 7 2 8 0 8 0 9 2 17 0 18-1 10-1 10 0 9-2 11-1 10-2 10-2 10-3 12-2 11-2 10-2 10-3 11-2 11-3 10-3 10-3 10-3 9-4 9-3 9-2 8-3 8-3 7-2 6-3 7-2 7-3 5-3 6-3 5"/>
<path d="M2892 -7643l 1 0 1-1 8 0 4 0 5-2 5-1 4-1 6-1 6-2 6-1 8-2 7-1 8-2 8-3 9-2 9-3 9-2 10-4 10-3 10-3"/>
<path d="M3529 -8102l 1 0 0-1-1 0 0 3 1 1 0 2 0 2 0 1 1 3 1 3 0 5 1 8 1 5 1 5 0 6 1 5 1 5 1 5 0 5 0 15 1 5-1 5 0 10 0 5-1 5-1 6-1 5 0 7-2 5 0 7-2 6-1 7-2 6-2 7-2 5-1 6-2 4-1 5-2 5-2 3-1 4-1 3-1 2-1 1 0 2-1 0 0 2 0-1 1 0 0-4 1-7 2-13 1-8 2-9 0-10 2-10 3-20 2-8 2-10 2-9 2-8 2-9 2-7 5-16 2-7 2-8 3-8 2-8 3-7 3-7 2-8 3-6 3-7 3-7 3-5 3-5 3-5 3-6 3-5 3-5 4-4 2-5 3-4 4-4 1-4 3-3 2-2 3-2 2-2 2-1 2-1 1 0 2 0 1 0 2 0 3 0 2 1 1 2 2 0 2 2 2 3 1 2 2 3 2 4 2 4 2 4 1 4 1 4 2 5 1 5 1 4 2 4 1 5 1 5 1 4 1 5 2 5 0 5 1 5 0 6 1 6 0 5 0 6 0 17 0 5 0 10-1 5-1 6 0 5-2 12-1 5 0 5-1 5 0 10-1 5 0 12 1 4 0 4 1 2 0 3 0 2 1 2 1 1 1 1 2-1 2 0"/>
<path d="M3799 -8366l 0-1 0 1-1 0 0 11 0 3 0 27 0 3 0 7-1 3-1 3 0 3-1 2 0 2 0 2-1 3 0 0-1 2 0 0 0 0 0 0 0 0 0-1 2-3 0-2 1-3 2-3 0-4 2-4 3-4 4-8 3-5 3-5 2-5 3-5 2-4 2-4 3-4 3-3 2-5 2-3 2-4 3-3 2-3 2-3 2-2 1-3 2-2 2-2 2-2 1-1 2-2 1 0 1-2 1 0 2-1 0 0 1 0 1 0 1 0 0 0 1 0 1 0 2 3 0 1 1 1 2 3 1 2 1 3 0 4 2 3 1 4 0 4 1 5 1 5 0 5 0 5 1 5 0 5 1 6 1 5 0 5 1 5 1 5 0 5 1 5 2 6 0 5 1 6 1 6 1 4 1 7 1 5"/>
<path d="M3199 -7732l 1-1 0 1 1 1 1 0 1 0 4 0 2 2 3 0 3 1 5-1 4 1 17 0 8-1 7 0 9-1 19 0 20-1 11-2 13-2 12-2 13-2 12-2 14-4 14-3 15-3 15-3 15-3 16-4 17-3 17-4 17-4 17-4 17-2 17-4 17-4 17-4 17-3 17-3 17-3 17-4 16-2 15-3 16-3 16-2 16-3 31-6 15-2 15-2 14-2 13-2 13-2 12-1 13-2 12-1 12-2 32-2 11-1 19 0 9-1 35 0 7 1 8-1 7 1 36 0 4 0 10 0 3 1 4 1 3 0 3 1 2 0 3 0 1 1-1 0"/>
<path d="M3381 -7569l-1 0-1 1-3 1-1 2-2 2-1 1 0 2-1 2 0 3 1 4 0 3 1 3 1 2 1 5 1 3 1 5 1 5 2 5 1 6 1 6 1 5 1 6 1 6 1 6 1 11 0 17 0 7 0 5-2 6 0 6-1 6-1 5-1 6 0 4-1 9 0 3-1 4 0 3 0 2-1 2-1 2 0 2-1 1 0 1 1 0 0-2 1-1 0-2 1-2 0-2 0-3 1-3 1-5 1-3 1-5 1-6 1-5 2-6 2-5 2-7 2-5 1-5 2-6 3-5 2-6 1-5 2-6 2-5 3-5 2-5 3-6 6-11 3-6 3-6 2-5 3-5 2-4 3-4 3-4 2-4 2-2 2-3 2-3 2-2 2-1 3-1 5 0 4 1 2 1 2 1 2 2 2 2 3 3 5 4 4 6 2 3 1 3 3 4 2 2 2 4 2 4 1 4 3 3 2 4 2 4 1 5 2 4 2 4 2 4 2 5 2 4 1 4 1 3 2 4 1 3 2 2 0 3 2 2 1 2 1 1 1 2 1 3 2 1 1 1 1 2 1 1 2 2 0 1 2 1 1 1 2 0 2 0 1 0"/>
<path d="M3592 -7572l 1 0 0 1-1 0 1 1 1 0 0-1 4 0 3-2 1 0 3 0 3 0 4-1 4-1 4-1 5-1 10-3 5-1 5-2 5-2 5-2 6-2 5-4 5-2 5-3 4-1 5-3 5-1"/>
<path d="M3646 -7632l-2 2-2 1-2 2-2 2-1 2-2 2-2 4-2 4-1 4-2 4-1 4-1 4-1 4 0 5 0 4 0 3 0 4 1 4 1 2 1 4 1 4 1 2 2 4 1 3 2 3 2 2 1 3 2 2 2 2 3 1 2 2"/>
<path d="M3834 -7707l 1 0 0 2 0 2 0 5 1 2 0 3 1 2 1 3 0 5 0 3 1 3 1 4 0 4 1 3 1 5 1 4 1 4 1 4 1 4 2 4 0 5 1 4 1 5 0 4 0 5 1 4 0 4 1 4 0 3 1 5 0 3 0 4 2 8 0 3 0 3 1 4 1 3 1 3 0 2"/>
<path d="M3279 -8180l-1 0-2 1-2 0-2 1-2 2-3 1-2 2-3 2-3 3-4 4-3 4-4 4-5 5-4 6-5 6-5 8-6 8-6 9-7 10-6 12-7 12-8 12-9 14-7 14-9 15-9 16-8 17-9 18-8 18-10 17-7 19-8 19-9 20-7 18-8 19-6 20-7 18-5 20-5 20-5 19-5 19-3 19-3 20-2 19-1 18-1 18-1 19 0 18 1 17 0 17 2 17 3 17 4 15 4 15 4 14 5 14 6 12 7 13 6 11 7 10 8 11 9 8 8 8 9 8 9 7 11 6 11 4 12 4"/>
<path d="M3788 -8197l 1-1 0 0 0 0 0-1 1-1 1-1 1 0 1 0 6 0 3 0 2 1 3 1 3 1 4 2 3 1 5 2 4 2 4 3 4 2 5 4 4 3 4 4 5 4 4 4 5 6 4 4 5 6 4 5 10 12 5 6 5 7 5 6 5 7 5 6 5 8 6 8 5 8 12 17 17 28 5 9 6 10 5 10 5 11 5 11 4 11 5 11 4 12 4 12 4 11 3 12 5 12 3 11 3 12 4 12 3 11 2 12 3 12 2 13 3 12 0 13 2 13 0 13 1 14 0 12-1 14 0 14-1 12-2 14-2 14-2 15-2 15-3 15-3 16-4 16-3 15-4 17-4 16-5 17-3 15-4 17-9 31-4 15-5 13-5 14-4 13-5 12-5 13-5 12"/>
<path d="M851 -13817l 1-1 2-1 2-1 3-1 3-1 5-1 5-2 5-1 7-2 7-3 7-2 8-3 9-2 8-3 20-5 10-3 12-4 12-3 12-3 13-3 13-4 12-3 13-4 12-3 12-3 20-6 9-2 9-3 9-2 9-1 9-3 10-3 8-3 10-3 10-3 9-4 9-4 9-3 8-3 10-4 8-2 9-3 8-2 6-3 7-1 6-1"/>
<path d="M1056 -13847l 0-3 0 2 1 1 0 1 0 3 1 3 0 4 1 4 1 6 1 6 1 9 0 18 0 10 0 12 0 12 0 13-1 14-1 14 0 15-1 15-2 15-1 16-2 16-2 15-2 15-3 16-2 16-3 15-2 16-6 32-3 15-2 17-3 15-2 15-3 14-2 14-2 13-1 12-1 11-1 9 0 22 1 5 1 4 1 2 3 2 2 0 3-1 4-2"/>
<path d="M1502 -14006l-1 1-3 0-2 2-3 1-4 2-3 3-5 4-5 3-5 5-4 6-4 7-5 8-5 9-6 10-5 12-6 13-7 13-7 16-7 16-7 18-7 19-8 19-7 21-8 22-7 23-5 22-7 24-6 23-6 24-5 24-4 24-4 23-3 23-3 22-1 23-1 22 0 22 1 42 1 18 3 19 2 16 3 16 5 14 5 12 5 10 6 9 6 7 7 7 6 5 6 4 6 2 6 2 6 1 6 0 5-2 7-2 5-3"/>
<path d="M1564 -13758l 0 1 1 5 0 3 1 4 1 4 1 5 0 5 0 5 1 6 0 6 1 7 0 14 0 6 0 25 0 8 0 18-1 9-1 9 0 9-2 9-1 9-1 9-1 10-2 8-1 8-2 8-1 7-2 7-2 6-2 5-2 4-1 5-2 3-2 3-1 2-2 2-1 2-1 0 0-1 1-1 0-2 2-2 1-4 2-4 3-6 4-6 3-9 5-10 6-12 8-12 7-13 8-15 8-13 8-15 9-12 8-13 8-13 8-12 7-11 6-11 7-9 5-9 6-9 6-8 5-6 5-7 5-5 5-5 3-5 4-3 3-4 3-2 6-3 2 0 4 0 2 1 2 1 1 3 2 2 1 4 2 4 0 5 1 5 0 18 1 7-2 8 0 9-2 9-1 9-2 9-2 10-4 20-2 10-3 20-2 10-2 11-1 9-1 10-2 9-1 9-1 8-1 8 0 8-1 7 0 12 1 7 0 5 1 5 1 3 0 4 2 3 2 1 1 2 3 0 2 0 3-1 3-2 4-2 4-4"/>
<path d="M1751 -14024l 2 1 1 0 1 1 2 2 2 2 3 3 2 4 3 4 3 5 5 6 4 6 4 7 10 15 6 9 6 10 5 11 6 11 5 12 11 26 6 14 4 14 6 14 5 14 4 13 5 15 5 15 4 14 4 15 4 15 3 16 3 15 2 16 3 16 2 16 1 16 1 16 0 32-2 17-1 16-2 17-3 15-4 16-4 16-5 15-6 16-5 15-6 15-6 14-6 13-7 13-7 12-7 11-7 9-7 10-7 8-8 8-7 7-6 6-6 4-5 5-4 2"/>
<path d="M2076 -13687l 1 0 0-1 1 0 2-1 2-1 3-1 8-1 6-1 6 0 7-2 8-1 8-1 9-1 8-2 8-1 9-1 8-1 7-2 8-1 7-1 5-1 6 1"/>
<path d="M2081 -13614l 0-1 4 0 2 0 3 0 3-1 4 0 5-1 5-1 5-1 6-1 7-1 7-2 7-1 8-1 8-2 8-2 9-1 28-5"/>
<path d="M2605 -13785l-2-2-4-2-3-2-9-4-4-2-5-2-3 0-3 0-3 0-3 1-3 2-3 1-4 4-3 3-4 5-4 7-4 6-4 9-4 10-4 11-5 12-4 14-4 13-3 15-3 15-3 15-2 15-2 16-2 16-1 16-1 17 0 32 1 16 1 16 3 16 2 15 4 15 5 15 6 14 6 12 7 11 7 10 10 10 9 7 10 6 11 5 10 5 12 3 12 2 12 2 12 0 12 0 13-1 12-2 11-4 13-3 13-5 12-5 12-7 12-8 11-9 11-10 11-10 12-11 8-12 11-12 10-13 10-13 9-12 9-14 8-14 7-13 6-14 5-14 4-14 1-15 2-14-2-14-2-14-4-15-5-15-6-15-7-15-9-16-9-16-11-16-10-15-12-14-11-13-12-12-13-11-13-10-13-7-12-8-13-5-13-5-12-4-12-2-12-1-12-1-12 1-23 1-21 6-9 3-10 4-8 4-7 4-5 5-3 4-3 4-2 5 0 5"/>
<path d="M3086 -13894l-2 1-4 0-3 2-5 2-5 2-7 4-6 4-7 6-7 6-7 7-7 7-7 9-8 9-7 10-7 10-8 11-7 11-7 12-6 13-7 14-7 14-7 16-6 16-5 17-5 18-5 17-5 18-4 20-7 40-3 19-2 20-1 20-2 19 0 40 1 19 1 19 2 19 3 18 4 16 3 16 3 15 5 15 5 13 5 12 5 12 6 11 6 9 8 8 7 8 6 7 7 5 8 5 7 5 7 3 6 2 7 3 7 0"/>
<path d="M3045 -13555l-1 0-1 1-1 1-1 1-3 3-1 3-1 2 0 2 0 3 0 8 0 4 0 9 1 5 0 7 1 5 0 7 1 8 0 36-1 10 0 10-1 10 0 10-1 10 0 9-1 9-1 8 0 8 0 6 0 6-1 5 0 5 1 4 0 2 1 2 1 1 1 1 1 0 2 1 2-1 2-2 2-3 4-3 4-5 5-7 5-7 5-9 5-11 12-24 5-12 7-12 5-12 6-12 5-11 10-22 5-9 5-9 8-17 5-8 4-7 4-7 4-6 4-5 3-5 4-5 3-2 1-3 2-1 2 0 3 1 0 2 2 2 1 6 1 4 0 21-1 6 0 6 0 6-1 7-1 8-1 7-1 7-1 8 0 7-2 16 0 8-1 9 0 8 1 7 0 8 2 7 0 7 2 6 1 5 2 4 3 4 2 4 3 3 3 2 4 1 4 1 4-1"/>
<path d="M3220 -13838l 0-1 1 0 0 1 1 1 2 0 1 3 2 1 2 3 4 3 3 3 5 5 5 5 4 5 6 5 6 6 7 7 7 7 8 8 8 9 8 9 17 19 9 10 8 10 17 21 8 11 7 10 8 11 7 12 5 10 7 11 5 11 5 13 5 12 4 12 4 13 3 13 2 12 2 14 1 13-1 13-1 14-2 14-2 13-3 14-4 15-4 13-5 14-5 13-5 14-6 13-7 12-6 13-7 11-7 12-8 10-7 10-8 11-7 9-8 10-15 15-7 8-6 5-7 5-6 5-6 3-4 2"/>
<path d="M3607 -13552l 6 0 4 1 4 0 5-1 6 0 7-1 7 0 8-1 9-1 8-1 10-2 9-1 9-2 10-2 9-1 10-2 11-2 11-2 20-4 8-3 10-2"/>
<path d="M3633 -13633l 1 0-2 1 0 3-1 2 0 2-1 4 1 4 0 10 1 7 1 6 1 7 2 8 1 8 2 8 3 9 2 8 2 9 2 9 3 9 2 10 2 8 2 9 2 10 3 10 1 10 3 11 2 11 2 11 3 10 2 11"/>
<path d="M4113 -13790l 1-1 3-2 2-1 2-2 3-2 4-2 4-1 5-2 6-2 6-1 7-1 7-1 7-1 9-1 9-1 29 0 10 1 10 1 10 0 11 2 19 3 8 1 9 2 9 2 9 2 8 2 8 2 7 2 7 3 7 3 7 3 6 3 5 3 4 4 3 4 3 5 2 5 0 6 0 6-1 7-1 8-4 7-5 8-6 10-5 10-9 10-9 12-10 11-10 12-12 12-12 13-12 11-12 13-13 13-13 13-28 25-14 12-14 12-14 13-14 11-14 12-12 12-13 10-12 12-11 11-12 12-11 10-10 10-10 10-9 8-8 8-7 7-7 7-6 5-5 5-5 5-4 5-3 3-2 4-1 2-2 2 0 2 0 2 0 0 1 2 1 1 1 0 2 2 3 0 4 1 3 1 5 1 5 0 6 0 7 0 7 0 7 0 8-2 9-1 9-2 9 0 11-3 10-2 23-6 12-4 13-4 13-4 13-4 15-5 15-3 16-5 16-5 16-4 15-5 16-4 15-5 16-5 15-4 15-4 15-4 15-5"/>
<path d="M4516 -13740l 1-2 3-2 2-2 3-3 5-2 5-3 7-3 7-2 7-3 8-2 8-2 8-3 9-2 8-1 19-4 10-1 11-2 11-2 12-2 12-1 11-1 12-1 12-2 11-1 11-1 11-1 10-1 10 0 10-2 10 0 8-1 8-1 7 0 12 0"/>
<path d="M4620 -13732l-1 1-1 1-2 2-1 2-1 4-2 4-1 3-1 4 0 5-1 5 0 6 0 32 0 7 1 6 1 14 1 8 1 8 1 9 0 10 0 19 0 10-1 11-1 11-1 11-1 11-1 12-2 11-1 12-2 12-2 13-2 12-1 13-2 11-3 21 0 11 0 9 0 8 1 7"/>
<path d="M5061 -14002l-1-1-1 0-1 0-1-1-1 0-1 1 0 2-2 1-1 2-2 3-2 4-3 5-3 6-5 7-5 10-6 10-7 12-7 13-9 15-8 15-8 17-10 17-9 18-9 20-9 20-10 20-18 45-9 23-9 22-8 24-9 24-7 23-8 24-7 23-6 23-10 46-4 22-3 21-2 23-1 20-1 21 0 19 1 20 1 17 2 17 3 16 2 15 4 13 4 14 4 13 5 12 5 10 5 10 6 10 5 9 5 8 6 8 6 6 5 6 7 6 6 5 6 5 6 3 8 2 7 2 7 2"/>
<path d="M5049 -13527l 1 1 0 1 1 6 2 3 1 5 1 5 0 5 2 7 1 6 0 7 0 8 1 7-1 9 0 9 0 8-1 9-1 9-1 9-1 10-1 9-1 8-2 9-2 16-1 6-2 7 0 5-2 5 0 4 0 3-1 2 0 1 1 1 0 1 0-1 2-1 1-1 2-3 2-4 3-5 3-6 4-7 4-9 5-9 4-10 5-11 5-11 5-12 5-12 5-11 5-12 5-12 5-11 5-11 6-11 6-10 5-8 6-9 5-9 5-8 4-7 5-6 4-6 4-5 4-5 3-4 3-3 3-2 3-1 3-1 2 0 3 1 2 1 3 1 2 2 2 3 2 3 1 3 2 4 2 5 1 5 1 6 1 5 2 7 0 6 1 7 0 8 1 7 0 65 0 10 0 10 1 10 1 10 1 8 1 9 1 8 2 8 1 7 2 8 3 6 2 6 2 5 2 5 4 5 2 3 5 3 4 2 4 1 6 0 6-1 5-3"/>
<path d="M5514 -13861l-1 0 0 1-1 0-1 2-1 2 0 3 0 4-1 4 0 5-1 15-1 8-1 9-1 10-1 10-1 11-3 14-2 14-2 17-3 16-3 19-5 18-5 20-5 21-6 21-6 23-8 23-7 24-8 25-8 25-9 26-8 26-10 25-7 25-9 25-7 23-7 22-7 22-5 20-6 18-4 18-5 16-3 15-2 14-3 12-1 11-1 9 0 8 0 7 2 5 1 3 3 2 2 0 4-1 4-3 5-4 5-7 6-7"/>
<path d="M5676 -13652l 0-3 1-1 0 0 1-2 2 0 2-1 3-1 3 0 10-1 7 0 7-1 7-1 26 0 10 2 9 0 10 1 9 1 9 1 9 2 9 1 7 2 8 2 6 2 6 2 5 2 5 2 4 3 3 2 3 2 2 4 1 3 1 3 1 4-1 4-1 4-3 5-3 5-4 6-5 5-6 7-7 8-7 7-8 8-9 7-9 9-10 9-11 8-11 9-11 9-11 9-13 8-11 10-12 9-12 10-10 10-11 10-9 10-10 9-7 9-13 17-5 8-5 7-3 6-2 7-1 5-1 5 1 4 1 4 2 4 2 3 4 2 5 2 5 2 5 1 7 0 8 1 7-1 8 0 10-2 18-4 10-2 10-3 11-4 11-3 12-4 11-5 12-4 12-5 13-5 14-5 13-5 15-5 13-5 15-6 14-6 13-7"/>
<path d="M5925 -13920l 1 0 1 1 1 1 2 2 3 4 3 4 4 5 4 7 5 7 6 7 6 8 8 8 7 10 8 8 9 9 8 10 10 10 10 10 10 10 9 10 9 10 10 11 9 12 9 11 9 11 8 13 7 12 8 12 7 13 6 13 6 12 5 14 5 13 5 13 3 14 4 14 3 13 2 14 2 13 1 14 1 13 0 14-1 14-2 15-3 15-4 15-5 16-5 15-7 16-8 15-8 15-9 15-10 16-11 16-11 16-13 15-13 15-13 15-14 15-13 15-15 15-14 14-14 12"/>
</svg>
