<svg xmlns="http://www.w3.org/2000/svg" viewBox="300 -7609 10080 33008" stroke="black" stroke-width="20" stroke-linecap="round" stroke-linejoin="round" fill="none" data-xena="0 0 0"><style>@media(prefers-color-scheme:dark){svg{background-color:black;stroke:white;}}</style>
<path d="M8237 7523l-4-4-5-2-5-4-5-3-7-3-8-4-6-3-6-1-5-1-7-1-6-1-5-1-20 0-3 2-3 0-4 2-3 3-4 2-3 4-3 4-4 5-3 5-3 6-2 6-2 6-2 6-1 6 0 5 0 5 0 5 1 4 2 4 2 4 1 4 3 4 2 3 4 4 4 3 4 2 5 3 6 2 6 1 7 1 7 1 8 0 7-1 7-2 8-1 7-1 7-3 7-2 6-4 6-4 6-4 5-4 5-5 5-5 3-5 4-5 4-4 4-5 2-3 3-4 2-3 2-2 1-2 0-1 0-2 0 0 0 1-1 1-1 0 0 0-1 0 0 2 0 0 0 2 0 3 1 3 1 2 1 3 2 3 1 3 6 4 3 2"/>
<path d="M8454 7508l 0-10-1-4-1-2-2-2-1-2-1-2-2-2-1-2-2-1-3-2-2-2-3-1-2-1-4-1-4-1-3-1-4 0-13 0-5 2-5 0-4 1-5 2-5 2-5 2-5 3-5 4-4 3-5 3-6 5-4 5-5 7-4 6-5 6-3 6-3 6-3 7-2 5-2 6 0 6-1 5 1 4 0 6 3 5 2 4 2 4 3 5 3 3 4 3 4 3 4 2 5 2 6 1 12 0 7-2 7-2 7-3 7-3 8-4 8-5 8-6 8-7 7-7 8-7 9-7 7-8 8-8 7-10 7-8 7-11 15-23 7-13 6-13 7-13 6-15 6-15 5-15 5-16 3-16 4-16 2-17 2-17 2-17 1-17 0-32-1-16-1-14-2-12-2-12-2-10-3-9-3-7-2-6-3-5-2-3-3-2-3 0-3-1-4 1-4 1-4 3-4 3-6 5-6 7-6 7-5 9-6 10-6 10-4 12-4 13-4 15-3 14-2 15-2 16-1 15 0 16 0 15 1 15 1 14 2 13 2 14 4 24 3 13 3 11 2 12 3 10 3 10 3 9 3 9 3 7 3 6 4 7 2 5 3 5 4 3 3 4 4 3 4 2 5 1 4 1 5 0 6-1 6-2 7-4 7-3 8-4 8-6 8-4 8-7 7-6 7-7 6-6 7-7 5-6 5-6 3-6 4-5 3-6 3-4 1-4 2-4 1-3 1-2-1-2 0-2-1-1-1-1-2 0-1-1-2-1-2-1-2 0-1 0-2-1-4 0-1 1-2 0-1 2-2 1 0 2-1 2-1 2-1 4-1 2-1 4 0 4 1 5 1 5 1 5 2 5 2 5 2 5 3 5 3 5 3 5 2 4 3 5 4 5 4 4 4 5 3 5 5 5 3 5 4 4 3 5 3 4 4 4 3 5 2 4 3 3 2 3 3 4 1 3 1 3 1 4 2 3 0 6-1 3-1 2-1 2-1 3-1 2-3 2-2 1-3 2-3 1-4 1-3 0-8 0-5 0-6-1-6-1-5-1-6-2-6-1-5-1-5 0-4-2-4-1-3-1-3-1-2-1-2 0-3-2-1 0-1 0 1-1 1-1 0 1 1 0 1-1 1 1 2 1 2 0 3 1 3 1 5 1 4 2 5 1 6 1 6 1 6 1 6 1 6 2 6 1 6 0 7 1 6 1 13 1 7 1 6 0"/>
<path d="M8751 7117l 4 1 5 2 5 2 7 3 8 3 9 5 8 5 9 6 9 6 7 6 8 7 9 8 9 8 9 9 10 8 10 9 10 9 10 9 40 37 9 9 17 20 8 10 8 10 7 10 6 10 6 11 6 10 3 10 5 10 3 11 3 10 2 11 2 11 2 11 0 12-1 13-1 13-2 12-4 14-4 13-5 14-6 15-6 14-8 15-8 15-9 15-9 14-9 14-10 14-9 13-9 13-9 11-10 12-8 10-7 9-8 9-6 6-5 7-5 5-4 4-2 3-3 1-2 2-1 0-1-1-1-2 0-2"/>
<path d="M9221 7456l 0-2 0 1 2 0 0-1 3 0 1-1 2-1 3 1"/>
<path d="M9453 7289l 1-1 0-2 0-1 0-3 1-2 0 0 2-2 0-1 3-3 2-1 2-2 3-2 3-1 4-2 3-2 5-1 4-3 5-1 5-1 5-1 5-1 5 0 6-1 10 0 7 1 6 0 7 0 7 1 8 1 7 2 16 3 8 1 9 2 7 3 8 2 8 4 7 3 8 4 8 4 8 4 7 6 6 5 8 7 7 6 6 6 6 8 6 7 4 8 4 7 4 7 3 8 2 8 1 8 1 9 0 9-1 9-1 10-6 20-5 10-4 10-7 10-8 10-8 10-9 11-10 10-11 10-10 11-12 9-10 10-10 9-10 10-10 8-11 8-9 7-10 6-9 6-8 5-8 3-8 3-7 3-7 2-6 2-6 2-6 1-4 1-4 1-4 0-2 0-3 0 1 0 1 0 9 0 6 0 15 0 9 1 11 1 25 0 13 0 28 0 14 1 15-1 73 0 15 1 13 0 13 1 22 0 11 0 9 1 9 1 8 1 8 0 7 1 7 1"/>
<path d="M899 9174l 1-1 0 0 3 0 2 0 3 0 2 0 3 0 4 0 4-1 4-1 5-1 4-1 6-1 5-3 3-1 6-1 5-1 6-2 6-2 7-1 5-2 7-2 7-1 7-2 8-2 8-1 15-3 8-1 8-1"/>
<path d="M930 9248l 1 0 0-1 0-2 0-1 1 0 0 0 1-1 1-1 1 0 1-1 2-2 2-1 2-1 3-2 3-2 3-1 3-2 3-1 4-2 3-2 3-1 3-1 4-1 3 0 4-2 5-1 4-1 4-1 4 0 10-3 5-2 5-1 5-1 6-1 5-1 7-1 6 0 5-1"/>
<path d="M1684 8939l 1-1 1-2 1-1 1-2 2-3 2-2 2-1 1-1 1-1 2-1 0-1 4 0 1 1 4 0 1 1 2 0 3 2 2 1 1 0 2 2 0 1 1 2 1 1 0 1 1 3 0 2-1 2 0 5 0 3-2 3-2 5-3 4-3 5-3 5-4 6-5 5-6 5-6 7-6 6-5 7-7 5-5 7-7 7-6 7-7 6-7 7-6 7-7 7-7 6-7 7-6 6-6 7-6 6-5 6-6 6-5 5-4 6-4 5-4 4-3 5-2 3-2 3-2 3-1 1 0 2 0 1-1 1 0 1 4 0 2 0 6 0 4 1 4 0 5-1 6 0 7 0 7-2 8-1 7-2 7-2 9-3 9-3 8-3 9-4 9-3 10-4 9-5 10-4 9-4 10-4 11-5 10-3 8-5 10-4 9-4 9-3 8-3 8-4 6-2 8-3 6-2 6-3 5-2"/>
<path d="M1726 8981l-1 2-1 3-1 4-1 5-1 5-2 6-1 6-1 7-2 7-1 8-1 8-1 8-1 8-1 8 0 9-1 7-1 8 0 15-1 8 0 7 0 7 0 7 0 19 0 6 0 11-1 5 0 5-1 5 0 4-1 5-1 3-1 4"/>
<path d="M1290 9381l-16 0 0 1 0 0 0-1 19 0 6-1 7 0 7-1 17-3 9-2 10-3 10-3 10-3 12-3 13-2 12-3 15-4 16-4 17-4 17-3 18-4 18-4 20-4 19-2 20-3 20-4 22-4 21-2 22-3 20-3 21-3 22-4 20-2 22-3 20-3 20-2 20-3 21-2 20-2 21-2 21-2 19-1 40-2 19-1 19-1 19-1 17 0 18 1 16 1 16 1 15 1 14 1 15 1 13 0 13 1 12 0 12 1 10 1 10 0 10 1 9 0 9 0 7 0 7 1 28 0 5-1 10 0 3 0 1 0 2-1 2 0 0-1 0 0 0-1 0-1-1 0-2-1-2 0"/>
<path d="M1330 9505l 0-1-1-1 0 0-1-1-1 0 0 2 1 0 0 7-1 5-1 5 0 8-2 8-2 9-3 12-2 12-4 13-4 13-5 15-5 14-4 16-5 15-5 15-6 17-5 16-5 16-5 16-6 16-6 16-6 15-4 15-5 13-4 13-4 10-3 10-2 7-3 7-1 5-1 3-1 3 0 1 1 0 0-1 2-3 1-3 2-5 3-7 3-9 5-10 5-12 5-14 6-14"/>
<path d="M1311 9518l 1-3 0-4 0-3 0-5 0 0 0 1 0 0 0 2 1 1 1 3 1 3 2 4 2 5 2 6 3 7 3 8 3 9 3 9 4 10 3 11 3 11 4 12 4 12 5 12 4 12 5 12 5 11 5 13 6 11 5 11 6 10 5 10 5 9 5 9 6 7 6 8 6 7 5 5 7 7 5 5 6 4 6 3 6 2 5 2 6 1 7 1 6-2 7-3 6-2 8-4 6-6 9-6 7-8 7-9 6-10 7-10 5-10 6-12 4-12 4-11 3-12 2-13 2-11 1-11-1-12-1-11-2-12-3-12-3-11-4-12-11-21-10-22-6-10-6-9-5-8-5-8-5-6-5-6-4-5-4-3-4-3-3-2-2-1-3-1-1 0-1 0 0 0 2 1 0 1"/>
<path d="M2251 9255l 0-1-1 1 1 0 0 1 0-1 0 1 0-1 1 0-1 1 0-1 0 1 2 0 2 0 4 0 2 0 4 0 7 0 3 0 5-1 3 0 4-1 10 0 4 0 5-1 5-1 9 0 5-1 5 0 5 0 21 0 6 0 5 0 5 0 17 0 6-1 6-1 6 0 6 0 6 0 5-1 6-1 5-1 15-2 4-1 4-1 4-1 5-1 4-1 4-1 3-2 4 0 3-2 2 0 3-1 2 0 3-1 1-1 2 0 2 0 1 0 1-1 0 0 1-1 1 0 0 0 0 0 1 0 0 0 1 0 1-1 2 0 2-1 2-1"/>
<path d="M2822 9210l-1-2-2-2-1-2 0-1-1-2-1 0 2 0 1-1 4 0 3-1 4 0"/>
<path d="M3419 9008l-1-1 0 0 0 0-1 0-1-1 0-1 14 0 3 1 10 0 5-1 6 0 6-1 6 0 7 0 7-2 8 0 8-2 8-1 9-1 7-1 9-2 9-2 8-2 9-2 8-2 17-4 8-2 8-2 8-2 8-3 8-2 8-2 8-2 8-2 7-2 8-2 6-1 7-2 6-2 5 0 5-3 9-1 3-1 3-1 3 0 2-1 2 0 0 1 1 0 0 1-1 0 0 0-1 0-1 2-2 2-1 2-2 3-3 3-2 3-3 4-3 3-4 5-3 3-3 5-3 3-4 4-2 5-4 3-3 5-3 4-4 4-4 4-4 3-3 5-5 4-3 4-5 5-3 4-4 5-3 4-2 4-4 5-3 4-2 4-1 4-3 3-1 2-1 3 0 3-1 2 0 5 1 0 0 2 0 0"/>
<path d="M3275 9018l-1 0 0-1-5 0 0 2 1 0 0 0 1 1 1 0 2 2 1 1 3 2 3 3 4 2 5 3 6 3 6 3 7 4 7 4 7 2 7 4 8 3 7 3 7 3 7 2 7 3 8 2 8 3 7 2 7 2 8 1 7 2 8 3 7 1 6 2 7 2 7 1 6 1 6 2 6 1 6 2 5 0 5 2 6 1 5 0 4 0 4 0 5 1 10 0 4 1 5 0 2 0 1 0 3 1 1 1 1 1 0 0 1 0 2 1 0 1 0 1 1 2 0 1 1 1 0 5-1 3-1 3-1 3-2 4-2 5-2 4-3 5-4 5-4 6-5 5-5 7-5 6-7 7-7 7-8 8-8 8-9 9-20 18-11 11-11 10-11 11-12 10-13 10-13 12-12 11-14 12-14 11-14 12-14 12-14 13-13 12-14 12-13 12-13 12-12 11-11 11-21 20-8 10-8 8-7 9-7 8-6 8-4 8-3 6-3 6-3 7-2 5-1 5-1 5 1 5 1 5 2 5 2 4 4 4 3 4 6 3 6 5 7 3 8 3 8 3 9 2 11 2 10 2 12 2 11 0 13 0 13-1 14-1 14 0 14-3 14-1 14-2 15-2 14-2 14-2 15-2 15-3 17-2 15-2 17-3 17-2 17-2 17-2 17-3 18-2 17-1 17-2 17-2 16-3 15-2 15-2 14-2 14-3 14-2 13-3 13-3 12-3 12-2 11-3 11-2 10-2 10-3 9-2 9-3 8-2 6-1 7-2 5-3 5-2 7-3 3-2 2-2 2-2 1-3 1-2 0-4-1-3-1-4-1-4-4-9-4-5-3-5-4-5-4-5-5-5-5-5-6-5-5-5-6-5-7-4-6-4-7-3-6-3-6-2-8-1"/>
<path d="M2919 10108l 1 1 0 1 0 1 0 1 1 1 1 1 1 0 2 0 4 1 4-1 5 0 6-1 6-1 8-1 9-2 10-2 9-3 11-4 11-3 10-3 12-5 12-5 13-7 12-6 12-8 13-9 13-10 13-9 12-10 13-11 12-11 12-12 12-12 10-13 11-13 10-12 9-14 9-14 7-14 6-14 6-14 5-14 3-13 3-14 2-13 1-13 0-12-1-13-2-12-2-12-3-12-3-11-5-10-3-10-5-8-4-8-5-6-5-6-4-5-4-3-5-2-4-2-3-1-4 0-4 1-4 2-3 1-4 4-5 5-4 5-5 7-5 9-5 9-5 12-5 14-5 14-5 16-4 17-3 20-4 18-4 19-2 20-3 20-2 40 0 18 0 17 2 18 2 16 3 14 3 14 5 12 5 11 5 10 6 8 6 7 6 5 7 6 6 4 7 3 7 2 7 2 6 1 7 0 5-1 7-2 6-2 7-3 6-5 6-4 6-5 5-6 5-6 4-6 4-6 3-6 2-5 1-5 0-9 0-4-1-4-2-4-3-3-4-4-3-3-4-2-4-3-5-2-9-5-5-1-4-1-3-2-8 0-2-1-3 0-2 0-1-1-1 0-1-1 0-1 0 1 2 0 3 2 3 0 2 1 5 1 5 3 7 1 8 1 8 2 19 0 11-1 10-1 12-3 12-2 11-4 12-3"/>
<path d="M3532 9766l-1-1-2-1-2-2-2-1-4-3-2-1-1 0-1-1-1 0 0 1 0 0 0 1-2 1-2 1-3 2-3 3-4 2-4 3-6 5-5 4-6 5-6 5-6 5-6 4-6 5-6 5-5 5-6 5-5 5-6 4-5 5-4 5-4 3-3 5-2 3-3 3-1 3-1 3 0 2 0 1 0 2 0 2 3 3 3 1 2 2 4 2 3 1 5 2 3 1 10 3 5 1 7 1 5 1 7 0 6 1 7 1 34 0 6-1 6 0 6-1 5 0 10-1 5 0 3-1 10 0 1 1 1 1 2 0"/>
<path d="M3438 9977l 0-3 1 0 0-1 2 0 3-1 3-1 5-3 5-2 7-2 9-3 9-3 10-2 9-3 10-2 20-4 9-2 10-2 10-3 10-2"/>
<path d="M3681 9701l 1-1 0-3 0 3 0 1 0 6 1 4 0 9-1 7 0 7 0 8-2 8-1 8-2 9-2 10-2 10-1 9-3 11-2 11-3 12-3 12-4 12-2 13-4 12-3 13-3 11-3 12-4 11-3 10-2 9-2 9-2 8-2 5-1 6-1 4 0 3 0 2 0 1 0 1 0-1 2-1 0-2 3-4 2-6 3-6 3-9 7-20 4-12 4-12 4-13 3-12 2-14 3-12 2-13 3-12 2-11 1-11 2-10 1-9 1-9 1-7 1-6 1-5 0-14-1 1-1 1 0 5-1 4 1 3 0 13 1 6 1 6 2 13 2 7 2 6 2 6 3 6 3 6 3 6 3 5 3 6 4 5 3 5 4 4 3 3 3 4 4 3 3 3 3 2 4 2 3 1 5 2 8 2 5 0 5-1 5-1 5-2 6-3 6-5 5-5 5-6 6-6 6-8 5-7 5-8 5-9 4-8 4-9 4-7 4-8 3-8 3-8 2-8 2-7 2-8 3-8 1-7"/>
<path d="M3952 9625l 1 0 0-1 0 24-1 7-1 9-2 9-1 10-2 11-3 10-4 12-3 12-4 13-4 13-5 13-5 15-13 33-7 18-7 17-7 17-7 17-8 17-7 17-6 16-7 14-10 26-4 11-4 10-3 9-3 9-2 8-2 6-1 7-1 5 0 3 1 4 1 2 1 1"/>
<path d="M3952 9844l 1-1 0-1 0-1 1-1 1 0 2-1 1-1 3 0 4-2 3-1 5-2 5-1 4-2 5-2 6 0 4-2 5 0 5-1 4 0 5 1 5 1 3 1 4 0 3 1 4 1 3 2 2 1 2 2 2 2 2 1 1 5 1 2 0 7-1 3-1 4-3 4-2 5-3 6-4 4-4 6-5 6-6 7-6 6-5 7-13 15-7 7-6 6-5 7-6 6-5 5-5 5-3 3-3 3-3 3-1 2-2 1 0 1 1 1 0 1 1 0 2 2 2 0 1 1 3 2 3 1 3 1 3 0 4 0 4 2 10 0 5-1 10 0 7-1 6 0 7-1 7-1 6-1 7-1 7-1 7-1 6-2 6 0 5-1 5-1 5-1 4-1"/>
<path d="M4506 8817l-2 0-2 1-2 0-2 1-3 1-3 2-3 3-4 3-5 4-5 5-6 6-7 7-7 8-8 10-8 10-9 13-9 14-10 16-9 16-10 17-10 18-10 18-18 38-9 20-8 20-7 20-7 20-11 42-5 21-5 20-5 20-2 21-3 19-2 19-3 18 0 19 0 36 1 18 2 17 2 17 3 16 3 15 4 13 5 13 5 11 5 11 6 9 7 9 6 8 7 8 7 8 7 7 8 6 9 5 8 5 9 4 9 4 9 4 9 2 9 2 9 1 9 0"/>
<path d="M4605 8955l 1-1 0-3 0 0-1 0 0 3-1 1 0 1-1 3-1 2-1 5-2 5-3 6-3 9-4 9-5 10-5 11-5 11-5 12-5 11-6 12-6 12-6 12-5 12-10 21-5 10-3 9-3 8-3 6-1 6-2 3-1 3 0 3 1 0 0-1 1 0 1-3 3-3 2-5 4-6 4-8 12-20 6-12 7-13 7-15 6-13 5-14 6-14 5-14 4-14 4-13 3-13 3-12 2-13 2-10 1-10 2-8 0-19-1-3-1-3-1-2 0-2-1 0-1 0 0 6 0 3 1 3 1 5 3 5 2 8 3 7 3 8 4 7 4 9 5 8 5 8 6 9 6 8 7 8 7 9 7 8 7 8 8 7 6 7 7 7 7 7 7 6 5 6 6 5 6 5 7 5 5 3 6 3 6 2 5 0 12 0 6-3 7-2 6-5 7-6 7-7 7-8 7-10 7-10 7-12 6-11 6-12 5-12 5-12 5-13 4-14 3-13 3-13 2-14 1-13 0-13 0-12 0-12-1-11-2-10-2-10-2-10-2-10-2-8-3-7-2-7-3-6-2-6-2-3-2-4-2-2-1-2-2 0 0-1-1 0-1 1-1 3-1 2-1 4"/>
<path d="M4664 9252l 1-1 0 2-1 1 0 22-1 7 0 8-1 10-2 10-1 10-2 12-2 12-2 13-3 13-2 13-3 14-3 13-2 13-3 13-3 12-2 11-2 9-2 9-2 8-1 5-2 5 0 4-1 3-1 2 0 1 0-2-1-1 0-14 1-6 1-5 1-7 2-8 3-7 2-7 4-6 3-7 4-7 4-6 4-5 4-6 5-5 5-6 5-4 6-4 6-5 5-4 6-3 7-2 5-2 6-1 6-1 12 0 6 1 6 2 6 3 6 2 6 4 6 3 5 4 5 4 5 5 5 5 5 5 4 3 3 5 3 5 3 6 2 6 2 5 0 6 2 6 0 6-2 7-1 5-2 7-3 6-4 7-5 7-5 6-5 8-7 7-7 7-7 7-9 7-7 6-9 5-9 5-9 4-9 3-9 3-10 2-9 1-19 2-8 0-9-1-8 0-7-1-7-3-6-1-5-2-5-2-7-6-3-4-2-4 0-4 0-5 1-7"/>
<path d="M4881 8836l 1 0 0 1 3 3 3 2 4 2 4 3 6 4 5 4 8 5 7 5 8 6 8 6 9 8 9 8 9 9 10 9 9 9 9 10 10 11 9 11 10 11 10 11 9 12 9 11 9 13 9 12 9 13 8 13 8 14 8 13 8 14 6 14 7 14 5 14 5 14 5 15 3 15 2 15 1 15 1 15-2 17-2 17-3 17-5 19-6 18-7 20-8 21-9 20-10 20-10 21-10 20-10 20-22 37-10 17-11 16-11 15-10 13-11 13-10 11-10 10-20 17-10 6-10 7-10 5-9 5"/>
<path d="M5302 9436l 0-1 0 2 1 0 0 0 0 1 1-1 6 0 3 0 5-2 5-1 7-2 8-4 8-5 9-6 10-8 11-10 10-11 12-12 13-14 12-12 14-15 12-15 14-15 14-17 14-16 12-16 14-17 13-17 12-17 21-35 11-16 9-17 8-17 7-18 6-17 4-17 4-17 2-16 2-17 0-17 0-17-1-16-2-16-2-14-3-13-2-11-3-10-4-8-4-6-4-4-5-3-4-2-4-1-5 0-6 2-6 3-6 5-7 5-7 7-8 10-8 12-8 12-8 14-8 17-6 18-8 19-6 19-7 22-6 21-6 23-5 24-4 24-4 24-3 24-2 23-1 24 0 22 0 21 2 20 3 20 3 18 5 18 5 16 6 15 6 15 7 13 7 13 7 12 8 10 8 9 8 8 8 6 9 7 17 8 9 3 9 1 8 1 16 0 7-1 7-2 7-3 6-4 4-4 4-5 4-7 4-6 3-6 2-8 1-7 0-9 0-9-2-10-3-9-3-9-4-9-5-10-5-8-6-8-6-7-6-6-7-6-5-5-6-3-5-3-5-2-5-2-4-3-3 0-3-1-3 0-1-1 0 1 0 0 1-1 2 0 3 1 4 1 4 0 5 1 6 2 7 1 8 1 8 2 9 1 9 0 9 0 10 1 22 0 12-1 13 0 13 0 14-3 13-1 16-1 16-3 16-2"/>
<path d="M3057 10381l 1-1 1-2 2-1 2-2 4-1 4-2 10-5 5-1 5-2 6-2 11-4 7-2 6-2 6-3 6-2 6-3 6-3 6-3 7-3 6-3 7-3 6-4 6-3 8-4 5-3 7-4 5-3 5-3 5-3 8-6 5-3 3-3 9-4 5-3 4-2 5-3 4-3 4-2 5-3 5-1 10-4 5-2 6-1 5 0 7-1 20 0 8 1 7 1 8 0 9 0 8 2 10 1 10 2 9 1 10 2 11 2 11 2 11 5 11 2 11 3 11 3 12 3 11 2 11 3 11 3 10 1 10 3 10 2 10 3 10 3 9 2 9 3 15 6 7 2 8 4 7 2 7 4 6 4 6 3 6 4 5 3 5 5 4 4 4 3 3 5 4 4 3 4 2 5 3 4 2 4 1 5 2 4 1 4 0 4 1 4 0 3 0 9 0 0 0 1-1 0 0-1-1 0 0-1-2-1-1-1-2-2-2-3-1-3-2-3-3-4-2-3-1-5-2-4 0-4-1-5 0-10 1-5 1-5 1-6 2-4 2-6 2-6 2-5 3-6 3-6 3-6 4-6 3-6 4-6 5-5 4-6 5-5 5-5 6-4 6-5 8-4 8-4 8-3 10-3 10-4 10-3 11-3 12-3 10-1 23-4 12-2 12 0 11-1 12-2 12 0 12-1 11-1 12-1 26-3 13-1 13-1 13-2 12 0 13 0 13-1 12-1 12 0 13-1 13-1 12-1 53 0 13 2 14 1 13 0 29 3 14 1 14 1 15 2 13 1 15 2 13 2 14 1 12 2 13 2 13 3 14 2 13 1 13 2 13 1 12 1 14 0 13 1 13 0 12 1 14 1 14 0 31 0 16 1 15 0 17 1 17 0 17 0 19 1 18 1 20 1 19 0 20 0 20 1 18 0 20 1 20 0 20 1 19 0 19-1 38 0 19 0 19-1 19 0 18-1 18-1 19-1 17-1 19-2 19-1 38-3 19-2 20-2 18-3 20-3 20-3 38-6 19-3 19-4 19-4 18-5 19-4 18-5 19-5 18-6 18-6 16-6 17-6 17-6 17-6 15-6 16-6 16-6 15-6 30-15 15-5 13-7 15-7 13-6 12-7 11-8 10-7 10-7 9-8 8-7 8-8 8-8 13-17 6-10 5-9 5-9 5-10 4-9 3-9 3-9 2-8 3-7 1-5 1-6 2-5 0-4 1-4 0-3 0-1 0-5 1 0 1 0"/>
<path d="M2299 11095l 3 0 0-1 1 0 2 0 2-2 2-1 3-2 4-3 5-3 5-4 7-4 5-4 7-4 7-4 7-4 6-3 8-3 7-3 7-3 8-3 8-2 8-2 9-2 8-1 9-1 8-1 8-1 7 0"/>
<path d="M2349 11164l 1-1 0 0 0-1 0-2 2 0 1-1 2 0 3-1 4-1 6-1 5-2 8-1 9-3 9-2 9-2 11-2 11-2 10-2 13-1"/>
<path d="M2971 10890l-1-1-7 0 1 0 0 1 4 0 2 1 2 0 2 1 3 0 3 1 5 1 5 0 5 1 7-1 6 0 7-1 8-2 10-1 10-3 12-2 11-4 12-4 13-3 13-5 13-5 14-5 13-5 28-10 15-5 14-6 14-6 15-5 27-10 13-4 13-4 13-4 12-4 11-2 11-3 10-3 8-2 8-2 7-2 12-1 4-1 8 0 3 1 0 0 1 0 1 1 0 3-1 1-1 2-3 3-1 3-4 4-3 5-4 6-5 5-6 7-6 7-6 6-5 7-6 6-10 12-5 4-5 5-4 5-5 4-3 4-7 8-3 3-3 3-2 3-2 3-3 3-2 2-2 1-2 2-1 3"/>
<path d="M2911 10942l 0-2 1 0 0-1 1 1 1 0 1 1 2 1 3 0 2 1 4 1 5 2 5 1 6 1 6 1 7 2 8 1 8 2 9 1 9 1 10 0 11 2 10 1 10 1 12 1 23 1 12 1 13 0 12 0 13 1 12 1 13 0 12 1 12 0 11 0 12 1 21 1 11 1 28 2 8 0 8 2 8 0 7 0 7 0 5 1 5 1 5 1 7 1 2 1 1 0 2 1 0 0 0 0-1 1-1 1-2 1-3 2-3 3-4 4-6 4-7 5-7 6-8 5-10 7-10 8-10 8-11 8-12 9-12 9-13 9-13 9-14 10-14 11-15 11-14 10-15 11-15 9-15 10-29 20-27 20-13 10-12 8-12 10-11 10-10 8-8 9-10 7-8 7-6 7-6 6-5 5-3 5-3 3-2 3-1 2-1 2 0 1 0 1 2 1 2 1 2 1 4 1 4 3 5 2 6 3 6 1 7 2 9 2 9 0 9 2 47 0 14-1 14 0 45-2 15 1 15-1 16-1 16-1 15 0 16-1 17 0 15-1 17 0 16-2 17-1 16-2 16-1 17-1 16-1 17-2 15-2 30-3 15-2 29-4 14-2 13-2 13-3 12-2 12-3 10-2 11-3 11-2 9-3 9-4 7-3 8-2 6-3 6-3 5-2 4-3 3-3 3-2 2-2 2-3 1-3 0-3 1-4 0-4-1-4 0-4-2-6-1-6-2-6-2-6-3-6-4-7-4-6-4-7-5-5-4-7-5-6-5-4-4-4-5-4-4-3-3-2"/>
<path d="M2725 11852l-1 1 0 0 0 1 0 6 0 2 1 1 4 5 2 1 3 1 2 1 3 0 4 1 3 1 5 0 8-2 6 0 5-3 6-2 6-3 7-4 7-5 8-6 7-7 18-15 7-9 9-10 9-10 9-10 9-11 9-13 9-12 9-13 7-14 8-14 7-15 7-14 6-15 4-14 3-14 4-14 3-12 1-12 1-12 0-12-1-10-2-11-2-10-4-11-3-9-5-9-5-9-5-8-5-6-6-6-5-4-6-4-4-1-5-2-4 0-4 2-5 2-4 3-5 5-5 5-4 6-5 8-5 9-5 9-4 10-3 11-4 11-3 11-2 13-1 12-2 14-1 14 0 15 0 16 0 16 1 15 2 15 2 16 3 15 4 15 3 15 5 14 5 14 5 14 5 12 5 13 6 12 11 21 6 9 6 10 6 8 7 6 6 7 6 6 6 5 6 3 7 3 12 5 7 0 6 0 7 0 6-2 7-2 11-6 10-7 9-10 3-6 3-5 3-6 3-13 1-6 0-6-1-6 0-5-2-6-3-5-2-5-4-5-9-9-5-5-17-13-6-3-7-4-5-3-6-3-6-2-5-2-5-3-5-1-3-1-4-2-2-1-2 0-2 0-1 0-1-1 4 0 3 1 3 0 4 0 31 0 7 0"/>
<path d="M3219 11596l 0-1-1-1 0 0-1-1-1-1-1 0 0 1 0-1-1 1-1 1-2 1-1 0-3 2-3 3-4 3-4 3-4 3-4 4-5 4-5 3-5 2-5 3-5 4-5 3-6 4-5 2-6 4-6 4-5 4-5 4-5 3-4 5-4 3-4 4-3 3-3 3-2 3-2 2-1 2-1 1-1 1 0 1 1 0 1 0 1 1 2 1 2 2 3 2 3 2 4 2 5 1 5 2 5 1 6 0 12 1 8 0 7 1 13 0 7-1 7 1 12 0 6-1 18 0 5 1 4 1 7 0 4 1 6 0 3 1"/>
<path d="M3116 11781l 1 0-1 0 0-1 0 1 1-1 0 0 1 1 8 0 4-1 11 0 6 0 7-1 8-2 7-1 7-2 8-2 8-2 7-3 8-2 8-3 7-3 7-3 6-3 7-3"/>
<path d="M3374 11505l 1-1 0-1 0-2 1-1 0-1 1 0-1 1 0 4-1 2 0 3 0 4-2 5 0 6-3 7-1 7-1 7-3 8-2 7-2 7-1 7-2 7-3 6-1 7-1 5-3 6-1 5-1 5-1 4-1 5-1 3-1 3-1 3 0 4 0-1 1-1 0-1 1-3 1-2 2-4 2-4 2-6 2-6 3-8 2-8 2-9 3-8 1-9 3-8 1-9 1-8 1-8 1-8 1-6 0-6 0-15 0-5 0-2-1-2 0-1-2 0 0-1 0 0 0 1-1 0 0 2-1 2 1 3 0 7 1 4 0 5 1 6 2 6 2 5 2 6 3 5 3 5 2 6 4 5 4 4 3 4 4 5 3 4 4 3 4 3 4 3 4 2 4 2 5 2 3 1 4 2 8 1 4 0 3 1 7 0 4-2 4-2 5-2 4-3 9-9 4-6 4-6 4-7 5-7 4-8 4-8 3-9 3-8 3-8 2-9 2-8 2-8 1-9 1-7 1-8 1-8 1-6 0-6 0-7 1-6-1-5 0-22"/>
<path d="M3630 11388l 0-1 0 2-1 2 0 1-1 2-1 3-1 5-2 4-1 6-2 7-2 7-2 7-2 9-2 9-3 10-4 11-2 10-4 12-4 13-4 14-4 14-5 15-4 15-5 16-6 16-6 17-6 18-6 17-6 18-7 17-6 16-7 17-6 15-6 15-6 13-5 13-5 11-4 11-3 10-4 9-3 8-2 7-2 6-1 6-1 5"/>
<path d="M3631 11560l 0 0 0 1-1 0 0 2 2 1 0 0 2 0 2 1 2 1 3 3 3 1 3 2 3 2 3 2 4 3 3 1 4 2 7 3 4 2 3 2 3 1 4 1 5 3 4 0 3 2 2 1 3 2 2 1 2 1 3 3 1 2 0 2 1 2 0 8-1 3-2 4-2 4-3 6-3 5-5 6-4 6-5 7-6 7-5 7-5 6-7 7-6 7-6 7-6 7-13 12-5 7-18 18-2 3-2 3-3 2 0 2-1 2 0 1 1 0 2 1 1 0 2-1 3 1 13 0 5 1 5 0 6-1 6 0 7-1 6-1 7-1 5-1 7-3 7-1 6-2 7-2 8-1 7-2 7-2 7 0 8-2"/>
<path d="M4482 10641l 1-3 0-2 0-2 1-2 2-6 0-2 0-2 1-2 0-1 1-1 0-1 0 0 1 0 0 1-1 0 0 1 0 1 0 0-1 2-1 3-2 4-1 3-3 5-3 8-4 7-4 10-4 10-4 10-5 10-5 11-3 12-5 12-5 11-5 12-5 11-5 12-4 12-5 12-4 11-4 10-3 9-4 9-3 8-3 7-2 5-1 5-2 4 0 2-1 1 0 2 1-1 0-2 1-1 2-3 2-3 3-4 2-6 4-8 4-10 10-21 5-13 5-13 4-14 5-13 3-13 5-13 3-12 2-12 3-11 4-12 2-10 3-8 2-10 2-7 2-8 1-7 1-6 1-5 1-4 1-4 0-2 0-3 0 1 1 0 0 0 1 2 1 1 2 2 1 4 3 4 2 5 4 6 2 8 5 8 3 8 13 30 5 10 4 10 15 32 5 10 5 11 5 10 6 10 10 17 5 8 4 7 10 13 5 5 4 5 4 4 5 3 4 2 4 2 4 1 4 0 4 0 4-1 4-2 5-4 4-4 5-5 5-7 4-7 9-19 3-9 4-11 3-11 2-10 2-12 1-11 0-11-1-11-2-10-2-10-3-10-4-10-4-8-4-9-4-9-4-8-5-8-3-6-4-7-3-5-3-5-2-3-2-2-1-2-2-1 0-1 0 2 0 2 1 2 2 2 3 7"/>
<path d="M4801 10702l-1-1 0 0 0 0 0-1-1-1 0-1 1 0 0 0 1-1 1 0 3-1 2 0 3-2 5-1 6-2 6-2 8-2 8-3 7-2 9-3 8-2 8-2 9-2 8-2 8-2 7-2 9-2 8-2 7-2"/>
<path d="M5066 10571l 0 2-1 2 0 2 0 3-1 3-1 5-1 6-2 6 0 8-2 9-1 8 0 10 0 35 0 10 0 9 1 10 1 9 0 10 1 11 0 11 0 10 0 10 0 10 0 9"/>
<path d="M4404 11336l 1 0 0-1 1 0 1 1 3 0 1 1 2 0 3 0 3 1 11 0 5-1 4-1 5-1 6-3 5-2 7-5 6-5 7-5 8-8 8-7 17-19 9-10 9-11 9-11 10-13 9-13 9-13 9-13 8-14 8-13 7-14 8-13 6-13 5-13 5-13 4-13 5-12 2-12 3-12 1-10 1-11 0-19-1-8-1-10-2-7-3-8-2-7-3-7-3-6-2-4-3-3-2-3-3-2-2 0-3 0-2 1-3 2-3 2-4 5-3 4-5 7-4 8-5 10-4 10-4 11-5 13-3 12-5 15-4 13-3 14-3 13-3 15-3 15-2 15-2 15-2 15-1 16 0 31 1 15 0 15 2 14 3 13 3 11 4 11 3 10 5 9 5 8 5 7 5 7 12 12 11 8 7 4 5 3 7 2 5 2 7 0 6-1 7 0 7-2 7-3 7-3 7-4 7-5 6-5 6-5 5-5 7-10 3-6 2-5 1-5 1-5 0-4-1-5 0-4-2-5-2-4-3-5-3-4-3-4-5-5-5-4-6-5-6-3-6-3-6-3-7-4-6-2-6-1-6-2-5 0-5-1-5-1-3 0-4 0-2-1-4 0-2-2 0-1 1 0 1-1 5 0 3-1 10 0 5-2 7 0 8-2 7-1 9-1 9-2"/>
<path d="M4816 11203l 0-1-1 0 0 0 0-1 2 0 1-1 2-1 4 0 3 0 5-1 6-1 6 0 6-2 8-1 7-2 8-1 7-2 8-1 8-1 7-2 8-1 7-1 14-3"/>
<path d="M5064 11061l 0-1 0 2-1 0 0 4 0 3 0 4-1 5 0 7-1 7 0 26 1 9 0 9 1 9 0 10 1 8 1 20 0 103 0 3 0 3-1 2-1 1-1 0"/>
<path d="M4236 10633l-1-1-1-1-1-2-1-1-2-1-1-1-2-1-2 0-1 1-2 1-1 1-2 3-3 3-4 4-4 5-4 6-5 7-6 8-11 20-6 10-6 13-6 15-7 15-7 17-7 18-7 19-8 21-8 22-8 23-7 25-8 25-6 25-8 27-6 26-6 27-5 27-4 26-3 27-2 26-2 26 1 26 1 25 3 24 4 23 5 23 6 22 7 20 8 19 10 18 11 16 11 15 13 14 15 13 15 12 17 10 18 8 19 7 20 6"/>
<path d="M5261 10545l 1 0 0 1 0 0 0 0 1 3 1 1 1 3 1 3 2 3 5 10 4 6 3 6 5 6 4 7 5 7 5 8 11 17 6 10 6 10 7 10 7 11 6 12 8 11 7 12 6 13 7 13 7 13 8 13 6 13 6 14 13 29 6 14 6 14 5 15 4 14 4 16 4 15 3 15 2 16 1 16 1 17 0 35-2 19-2 18-3 20-4 19-5 19-5 21-6 21-7 21-7 21-8 21-8 19-8 19-9 17-8 17-9 14-9 12-9 11-10 8-9 7-9 6-9 4-10 3-8 2-10 0-8-1"/>
<path d="M5726 10785l 1 0 0 1-1 0 0 1-1 2 0 2-1 3-1 3-1 4-2 5-1 7-2 7-2 8-2 8-2 8-2 10-3 10-2 9-4 11-3 10-4 10-4 12-4 12-5 11-5 12-5 12-5 12-5 12-6 12-10 23-4 12-5 10-3 10-4 7-2 8-1 5-1 4-1 3 0 1 2-1 0-2 2-5 4-7 4-8 6-11 6-12 7-15 7-15 7-16 7-16 7-17 6-16 6-15 5-16 4-14 4-12 3-13 2-10 3-12 2-9 1-9 1-7 1-6 0-4 1-4 0-3-1 0 0 1 0 0 0 1-1 0 0 2-1 2-1 3 0 5-1 5-1 8-1 9-1 11-1 11 1 11 1 13 1 12 2 13 3 12 3 12 4 11 5 12 5 10 5 10 7 8 6 8 14 14 7 5 8 5 7 4 7 4 8 2 7 2 7 1 23 0 7-1 7-2 8-4 8-4 7-5 7-6 8-7 7-9 7-10 6-10 7-10 5-11 5-12 4-13 4-12 2-12 3-12 0-11 1-12 0-11-1-10-1-11-2-11-3-11-3-11-3-11-3-11-5-11-3-12-5-10-3-10-4-11-4-10-4-9-2-9-4-8-3-7-2-6-2-7-2-5-1-5-1-3 0-4 0-3"/>
<path d="M6340 10811l-1 0 0-1-1 0 1 0 0 1 0 0 0-1 2 1 0 0 3 1 2 0 3 0 5 1 5 1 6 0 6 1 8 0 15 0 9 0 8 0 9 0 9-1 9-1 8-1 18 0 9 1"/>
<path d="M6366 10902l 0-1 1 1 0 0 1 1 2 0 2 3 3 0 4 2 4 2 5 1 4 2 7 3 6 1 7 1"/>
<path d="M6829 10734l 1 0-2 0 0 28-1 7-2 7 0 9-2 10-3 10-2 11-3 12-2 12-4 13-4 15-4 15-4 15-4 17-6 18-6 17-6 20-7 19-8 20-7 21-8 20-7 20-8 18-7 20-7 18-6 18-7 17-7 16-6 13-5 14-5 13-5 11-4 11-3 9-3 8-1 7-1 5-1 4-1 3 0 2 1 1 0 1 2-2 1-3 3-4 2-5 5-8 4-10 6-12 5-12 7-15 7-15 6-16 7-17 6-17 7-18 13-37 6-18 6-17 6-20 6-19 5-19 4-18 4-18 5-18 3-16 3-15 3-15 2-14 2-12 2-11 3-20 2-8 0-7 1-7 1-6 0-3 1-4 0-7 0 2 0 2 1 2 1 3 1 5 2 6 2 7 2 8 2 9 3 11 2 12 3 12 3 13 3 15 2 15 4 15 4 17 7 33 4 16 5 16 10 32 5 16 6 15 6 15 7 14 6 13 6 13 8 12 6 11 7 9 7 9 8 7 7 7 7 5 7 5 6 5 7 2 5 3 6 1 5 1 5-1 4-1 5-3 4-5 4-5 5-6 5-8 5-11 4-10 4-13 4-14 4-14 4-15 2-15 3-17 2-15 2-17 1-17 0-35-1-20-2-18-1-19-2-20-2-18-3-19-3-17-2-16-3-15-3-13-2-13-3-10-2-8-2-7-2-5-2-5-3-2-1-3-2-2-2 0-1-2-1-1 0 0 0 0 1 2 1 2 1 2 2 4 1 5 2 5"/>
<path d="M7267 10995l 0 1 1 0 0 1 1 0 1 1 1 1 2 0"/>
<path d="M7412 10850l-1-2 0-2 0-2 0-12 0-3 1-3 1-2 2-3 1-4 2-3 2-4 2-4 2-3 3-4 2-5 4-4 3-5 3-6 3-5 4-5 4-5 10-10 11-9 7-4 8-2 7-3 9-2 9-2 10-1 10 0 10 0 11 2 10 1 10 3 10 3 9 4 10 4 8 6 9 5 7 7 6 6 6 8 5 7 4 8 3 8 2 8 2 8 1 8-1 17-3 10-3 9-5 10-6 11-8 11-8 11-9 13-12 12-26 27-15 12-15 13-15 13-17 13-16 13-17 12-18 12-17 10-17 11-16 10-16 9-14 9-14 7-13 7-12 7-11 5-10 5-9 5-8 4-7 4-5 2-5 2-3 2-2 1-1 0-1 0 0 1 1 1 1 0 0-1 5 0 3-1 4 0 5 0 6-2 7-1 8-2 8-1 9-2 9-2 9-2 10-2 10-2 12-3 10-2 11-1 11-3 12-2 11-1 12-2 10-2 10-1 9-2 9 0 10 0 8-1 24 0 8 1 8 0 15 0 8-1"/>
<path d="M7776 10614l 1-2 0-2-1-2 0-4-1-2 0-1-1 2-1 1-1 4-1 3-1 4-3 6-3 7-3 9-4 8-5 10-5 10-5 11-5 12-5 10-6 11-5 11-10 22-4 11-3 9-7 17-3 7-3 6-2 5-2 3-2 3 0 2-1 1-1 1 0 1 1-1 0-1 1-1 1-2 1-3 2-5 2-5 2-7 3-8 4-10 4-9 3-11 5-11 4-11 4-10 5-11 3-11 4-11 3-10 3-9 2-8 2-9 3-8 2-6 1-5 1-5 1-5 0-2 1-3 0-1 0 1-1 0 0 4 1 2 1 2 1 3 1 4 1 4 2 5 3 5 2 5 2 6 3 6 3 6 2 5 3 6 3 5 4 5 3 4 3 5 4 3 3 4 4 4 3 2 3 3 4 2 3 3 3 0 3 2 3 2 3 0 3 1 2-1 2 0 2-1 2-1 3-2 2-3 3-4 3-3 3-5 3-5 3-6 2-7 2-6 1-7 1-8 0-7-1-8 0-8-3-14-2-7-3-7-2-8-2-6-2-6-2-6-2-6-2-6-2-4-2-4-1-4-2-3-1-2-1-3 0-2 0 1 1 0 1 1 2 1 2 1 3 2 3 2 5 3"/>
<path d="M7938 10658l 0-1-1 0-1-1 0-1-1-1-1-1 0-1 1 0 0 0 1-1 3-2 3-2 3-2 3-2 5-2 6-4 5-3 7-3 13-6 6-2 6-2 6-2 7-2 5-3 7-1 6-1 6-3 6-1"/>
<path d="M8138 10523l-1-1-1-2-3-3-1 1 0 13 0 5 0 18-1 8 0 8-1 8 0 9-1 9 0 10-1 9 0 10-1 9 0 10 0 10-1 9 0 10 1 9 0 9 0 8 1 8 1 8 1 8 2 8 1 6"/>
<path d="M8226 10918l 0-1 0 1-1 0 0 1 0 0 0 3 0-2 2 0 2 1"/>
<path d="M8564 10550l 0-1-1-1-1 0-1-1-1 0 0-1 0 1 0 1-1 1 0 0-1 2 0 2-1 2-1 4-1 5-1 6-3 16-1 9-2 10-2 11-2 10-2 11-2 11-4 21-1 11-2 10-1 11-2 10 0 9-2 9 0 10 0 9 0 17 0 8 1 8 1 8 0 7 2 8"/>
<path d="M8370 10922l 0-1-1 0-2 0-1-1 0 0-2-1 0-1 0 0 0 0 0 0 7 0 3-1 5-1 5-1 7-2 7-2 8-2 9-3 9-2 10-2 10-4 10-2 10-3 11-4 23-6 11-2 12-3 12-2 12-2 11-2 11-3 11-2 11-1 10-3 9 0 9-2"/>
<path d="M8454 11018l 0-6-1 0 1-1 6 0 3-1 10 0 6-1 7 0 7 0 8 0 8 0 7 0 7 0 7 1 6 0 7 2 5 0 6 1 5 1 5 1 4 2 3 1 4 2 3 2 1 3 1 2 1 2 0 4-1 2-1 4-1 3-3 4-4 3-3 5-5 5-6 5-7 6-7 5-17 13-9 7-10 7-22 12-10 8-20 11-10 4-8 6-9 5-8 5-7 4-5 4-5 4-4 4-4 3-2 1-1 2-1 2 0 2 1 0 2 0 1 1 3 1 5 1 5 0 6 1 9 1 9 0 11 0 12-2 13-2 15-1 15-4 15-3 16-5 16-4 16-4 17-5 16-5 16-3"/>
<path d="M8776 10913l 1-1 0 0 3-1 3-1 3-2 4-2 5-2 7-3 6-3 8-3 7-3 9-3 9-3 9-2 20-5 10-3 10-2 11-2 10-3 10-2 10-2"/>
<path d="M8865 10786l 1-1 0 0-1 0 0 0 1 1 0 1 2 2 2 2 2 4 2 3 4 4 3 5 4 6 4 7 3 7 3 8 3 7 3 9 3 9 2 8 2 9 1 8 2 10"/>
<path d="M9383 10334l 1-1 0-3 1-2 2-3 0-2 2-5 0 0 0-1 0-1 0 1 0 1-1 1 0 1-1 0 0 2-1 3-2 3-1 3-1 5-3 6-2 6-2 8-2 8-3 9-2 8-3 9-3 10-3 10-3 10-3 11-4 12-2 10-4 12-4 12-3 11-3 11-4 10-2 9-3 9-1 8-1 7-2 4-1 5 0 3-1 3 0 3 1 0 1-1 2-1 1-3 2-3 3-4 4-6 3-7 4-9 5-10 5-11 5-12 4-13 4-12 5-13 3-13 3-13 3-12 1-12 3-12 2-12 6-34 1-11 2-11 2-10 1-9 2-8 1-8 1-7 1-5 0-5 1-4 0-2 1-3 0-2 1-1 0-1-1 0 1 0 0 1 0 2 2 1 0 2 3 4 1 3 3 5 3 6 3 6 2 8 3 9 3 8 3 10 4 10 2 9 4 9 4 9 3 9 4 9 3 8 4 9 4 8 4 9 4 8 4 8 4 8 4 7 4 7 5 7 5 6 4 5 4 5 4 5 4 4 4 2 4 3 4 1 2 2 4 1 4 0 2 0 3-1 4-2 3-2 4-4 4-4 3-5 3-7 4-5 3-9 3-9 4-10 2-10 3-11 2-11 3-10 2-12 1-12 2-11 0-12 0-21 0-10-1-10-2-9-1-8-1-8-3-7-1-6-2-6-2-5-3-4-2-4-2-3-2-2-2-2-1-2-2-1-1-1-1-1-1-1-1 0-1 0-1 0 0 1 0 1 0 1"/>
<path d="M9251 10881l 0-4-1-1 1-1-1 0 0 2 0 0 0 2-1 2 0 3-1 3 0 5-1 5-1 6-1 7-2 8-1 8-2 8 0 8-3 18-2 7-1 8-2 7-1 8-1 6-1 6-1 5-2 15-1 5 0 5-1 4 0 4-1 3-1 4 0 11 1 2 0 0 2 0 0 0 0-1 2-1 0-1 2-2 1-3 2-3 2-4 2-5"/>
<path d="M9246 10861l 0-5 0 4 1 2 0 3 0 3 1 5 2 5 0 6 1 6 1 7 2 7 1 7 2 8 2 8 2 8 1 8 3 9 2 9 2 8 2 8 2 8 3 8 2 7 3 7 3 5 6 11 2 4 3 5 3 3 3 3 4 3 2 2 3 2 6 3 3 2 3 0 3 0 2 0 3-1 4-2 3-2 3-2 4-4 3-4 4-3 4-5 3-6 3-6 4-7 2-8 3-8 3-8 2-9 2-9 1-10 2-10 2-10 1-9 1-10 1-8 0-9 1-8 0-20-1-5 0-5 0-5-1-3-1-4 0-3-1-3 0-2-1-2 0-1-1-2 0 0 0-5"/>
<path d="M9545 10747l-1 3-1 4-2 5-2 7-3 7-4 10-3 10-3 9-4 9-3 10-3 11-4 11-3 11-4 12-4 11-5 12-3 12-4 13-5 13-4 12-5 14-5 13-4 14-5 13-5 13-5 12-5 13-4 12-5 12-5 11-5 12-6 11-5 10-5 12-5 10-5 11-5 10-5 9-5 10-4 8-3 7-4 7-3 6-2 6-2 5-2 3-1 4-1 3-1 2 0 2 1 0"/>
<path d="M9522 10937l 1 0 0-1 0 1 3 0 0 1 2 0 1 1 2 1 8 3 2 0 2 1 2 1 1 0 1 1 1 0 1 1 2 0 0 1 0 1 1 2 0 7-1 7-1 4-2 5-2 6-4 13-3 7-3 7-3 6-3 8-3 8-7 14-4 8-3 7-4 6-3 7-5 10-3 4-2 3-1 3-1 3-1 2 0 1 0 1 0 0 1 0 7 0 2-1 4 0 4-1 5-1 5-2 5-1 5-2 6-2 6-3 5-3 5-2 6-3 6-2 5-3 5-2 6-2 5-2 4-2 4-1 4-2 5-1"/>
<path d="M9143 10229l-1 3-3 3-4 5-3 7-5 7-5 9-4 9-4 10-4 10-4 12-4 13-5 14-5 15-5 17-5 17-5 18-5 18-5 19-5 21-5 22-5 24-4 24-5 27-5 26-4 29-5 29-4 31-3 32-4 33-3 34-2 33-2 35-1 34 0 34 1 33 1 32 2 30 3 29 3 28 4 27 5 24 5 22 6 22 7 19 7 19 8 16 9 14 9 14 9 13 11 11 12 9 12 9 13 7 12 5 15 5 15 4"/>
<path d="M9748 10366l 1 3 1 3 2 6 1 6 2 8 2 8 3 10 6 20 3 10 3 10 6 23 3 12 3 12 3 14 2 13 3 13 2 15 2 15 2 16 1 16 2 17 1 18 1 19 1 20 0 21-1 21-1 24-2 23-2 25-3 25-3 25-3 27-4 26-3 26-5 25-4 24-5 25-6 22-5 22-6 20-7 19-6 17-6 16-6 16-7 13-5 12-6 10-6 10-4 8-4 6-5 6-4 4-3 4-5 2"/>
<path d="M9956 10373l 0 14-1 5 0 6 0 7-1 7-1 9-4 30-2 11-1 11-2 12-2 12-2 13-3 12-2 13-3 13-2 12-3 12-2 10-2 10-2 10-2 8-2 7-1 5-1 5-1 2-1 3-1 1 0 1 0-4 0-3 0-5 0-6 2-9 1-10 1-12 2-15 3-16 4-15 3-17 4-18 3-17 4-18 3-16 4-15 3-14 3-12 2-12 2-10 2-8 2-8 1-7 1-5 1-5 1-3 0-2 1-2 0-1 0 0 0 1 1 1 0 2 1 3 1 3 2 6 2 6 3 8 2 10 3 10 5 25 4 13 3 14 3 13 3 13 4 15 3 12 5 13 3 11 4 11 4 9 4 9 5 7 4 6 4 5 4 4 5 3 4 2 4 2 4-1 4-2 5-2 5-4 6-5 5-5 6-8 5-9 7-10 5-11 6-13 6-14 5-13 6-15 4-15 5-13 4-14 4-15 3-14 3-14 2-14 2-13 2-13 1-14 2-12 0-12 0-12 0-26 0-6-1-6-1-4 0-3 0-2-1-1 0-2-1 0 0 1-1 2 0 1-1 2-1 4 0 4-1 5-2 6"/>
<path d="M9882 10806l 1-1 0 0 1 0 2 0 0-1 2-2 3-3 3-4 4-5 6-5 7-6 8-7 9-7 10-5 10-7 11-6 23-10 11-3 11-4 23-8 11-3 12-2 11-2 12-3 11-4 12-3 11-3 11-2 10-3 10-4 9-2 9-3 8-1 7-2 7-1 6-1 6-1 4-1 4 0 5-1 8 0 1-1 2 0"/>
<path d="M10048 10844l 0-1 1 1 3 0 1-1 5 0 4 0 5 0 4-1 6-1 12 0 5-1 6 0 5 1 5 0 5 1 4 1 3 1 4 1 3 3 3 2 2 3 1 2 1 4 0 4-1 5-1 7-2 6-3 8-4 8-4 9-5 9-5 10-6 8-6 9-5 8-6 8-6 7-5 8-6 7-5 7-4 7-5 6-5 7-5 6-3 5-4 5-3 5-3 5-2 3-2 3-1 3-2 3 0 2 0 1 0 2 0 0 2 0 1 0 2 1 11 0 5 1 6-1 8-1 7-2 8-2 9-3 8-3 10-5 10-4 10-4 10-5 9-5 10-6 19-11 17-10 7-6 8-5 7-4 7-4"/>
<path d="M718 13045l 0 1 6 0 1-1 2 0 3 1 2 0 3-1 7 0 4-1 4 0 4 0 6-1 5 0 6-1 6-1 6 0 6-1 8-1 7 0 13-2 12-1 13-2 10-2"/>
<path d="M709 13162l 1 0 0 1 3 0 1 0 7 0 3 1 14 0 4 1 9 0 5-1 12 0 7-1 6 0 7 0"/>
<path d="M1859 9565l 0-1 1 0 0-2 0-1 2-5 1-2 1-3 2-3 2-4 3-3 3-5 4-3 10-9 6-4 7-4 7-5 8-4 9-4 8-4 10-5 9-3 20-7 10-3 9-2 11-3 9-2 10-1 10-1 9-1 10 0 9-1 9 1 8 0 8 1 7 2 8 2 6 2 6 2 6 4 5 3 4 4 4 4 3 5 2 5 1 6 1 5 0 7-2 8-2 7-5 9-4 10-6 10-8 12-17 24-9 13-11 13-10 12-10 13-23 26-11 12-12 12-12 12-11 11-12 12-12 10-12 12-11 10-12 10-18 22-9 9-8 9-7 10-6 8-5 9-4 7-3 6-2 6-1 5-1 4 0 6 1 3 1 2 2 2 3 0 2 1 4 1 4 0 6-1 6-1 8-1 9-3 9-3 11-3 11-5 12-5 13-5 12-5 14-7 13-6 13-7 13-7 12-7 13-7 12-7 13-7 12-7 13-8 12-7 13-6 12-7"/>
<path d="M2226 9423l-1-1-1 0-1 0-1-1-2 0 0 1 0 1 0 19 0 6 0 13-1 7-1 8-1 8-1 9-2 8-1 9-3 8-2 8-3 8-3 7-2 6-3 7-2 5-3 4-1 4-1 2-2 3 0 0-1 0-1-2 0-6 1-4 0-6 1-7 2-8 2-9 3-10 4-10 3-11 4-11 3-10 3-10 3-11 2-8 2-9 1-8 2-6 0-6 1-6 2-4 0-3 0-3 1-2 0 5 1 1 0 4 3 2 2 5 2 4 3 5 3 6 3 6 4 7 3 6 5 7 5 7 5 6 5 7 7 6 6 6 7 6 7 6 8 5 7 4 8 4 8 3 9 2 8 1 9 1 8-2 10-1 9-3 9-4 8-4 9-6 8-4 7-7 6-7 6-8 5-8 4-9 4-9 3-10 2-10 1-10 2-21-1-10-2-10-1-10-3-9-3-9-3-9-5-7-10-15-5-6-5-6-6-6-6-5-5-5-6-4-4-3-5-3-5-2-4 0-4 0"/>
<path d="M1742 9651l-1-2 0-3 0-1 0-2-1 0 0-1-1 0-1 1 0 2 0 0 1 0 1 1 1 1 2 1 3 2"/>
<path d="M1326 12813l 0-1-1-3 0-2 0-2 0-2-1-2 0-2-2 0 0 1-2 2 0 1-2 1-1 3-2 2-3 3-2 5-4 5-4 6-5 7-5 8-5 9-6 10-7 11-7 11-7 12-8 12-7 13-8 13-8 12-8 13-8 15-8 13-8 15-7 12-7 14-6 13-5 11-6 12-4 10-3 9-3 9-2 7-2 7 0 6 0 5 1 5 2 4 2 3 4 4 4 4 5 2 5 3 6 2 6 2 8 2 7 1 8 2 10 1 20 0 10-1 11 0 12-2 11-2 11-3 12-3 12-3 11-3 25-7 12-4 11-3 13-3 12-4 12-5 11-3 11-4 11-4 9-4 10-5"/>
<path d="M1346 12961l 0 1-1 2 0 3-1 3-2 5-1 6-1 9-2 10-1 10-2 12 0 14-1 14-1 15-1 15 0 16-1 16-1 17-1 16-1 17-1 17-1 17-1 34-1 16 0 61 1 14 2 12 2 12 2 11 1 11 3 10"/>
<path d="M1783 13118l-1-2-3-1-2-1-3-1-2-1-2-1-1-1 0 1 0-1 2 1 1 0 2-1 3 0"/>
<path d="M1984 12922l 1-2 0-4 0-2 2-4 2-2 6 0 4 0 6 0 6-1 16 0 8 1 9 0 10 0 9 2 10 2 10 1 10 3 10 2 10 3 10 5 8 2 9 5 8 4 7 5 5 5 5 6 5 6 3 7 3 7 2 7 0 7-1 8-2 7-2 8-5 8-5 9-6 8-7 8-9 9-10 9-11 8-12 9-13 8-13 10-14 9-16 9-17 10-15 9-17 10-17 9-17 9-16 10-15 9-16 9-14 9-14 8-12 9-11 8-9 9-8 8-6 8-5 7-3 6-2 5-2 7 0 5-1 5 2 5 3 3 4 5 4 3 5 4 7 3 8 2 10 2 10 1 12 1 13-1 12 0 15-1 14-2 15-2 15-2 14-3 15-3 15-4 15-4 14-3 16-5 14-5 14-4 15-6 14-6"/>
<path d="M2296 12797l 1-1 0 0 0-1 1-1 0 4 1 0 0 3 1 2 0 3 1 4 1 5 0 6 0 22-1 8-2 9-2 9-3 9-2 10-4 9-4 9-4 8-4 9-4 5-3 7-4 6-2 4-2 3-1 3-3 2 0 1-1 1 0-2-1-2 0-3 0-3 0-17 0-8 2-9 1-8 2-10 2-10 3-12 2-10 3-10 3-11 3-11 3-10 2-9 2-9 3-8 1-7 2-8 1-5 1-5 1-3 0-5-1 1 0 6 1 4 1 3 1 5 2 6 1 6 3 7 2 7 3 7 2 7 4 7 4 7 4 8 3 7 5 8 5 7 5 7 6 6 12 12 11 10 6 5 7 5 6 3 7 2 5 3 20 2 5-2 8-1 6-3 6-4 6-5 7-6 7-8 7-8 6-9 6-11 10-21 4-11 5-12 2-11 3-13 2-12 2-12 1-11 0-12 0-11 0-11-1-11-2-9-2-9-1-8-2-7-2-6-3-5-2-4-3-3-2-3-1-1-2-2-1 0-1-1-3 0-2 2-1 2-2 3 0 3-2 4"/>
<path d="M2758 13058l-1-1 0-1 0-2 0-1-1-1 3 0 1 1 2 0 2 1 3 0 4 0 4 1"/>
<path d="M3027 12893l 6 0 3 1 3 0 5 0 6 0 6 1 16 2 9 0 10 1 10 1 10 2 10 2 11 3 11 3 12 3 11 4 11 4 10 4 10 5 9 4 9 5 8 6 7 5 6 6 6 6 6 6 3 7 4 7 2 7 2 8 0 9-1 9-2 10-3 10-5 10-5 12-7 12-9 12-9 12-10 12-11 13-11 12-12 11-11 12-13 10-12 10-12 10-13 10-12 9-13 9-13 7-12 9-12 7-12 8-11 6-11 5-11 5-10 5-8 3-9 3-7 3-6 3-5 2-4 1-2 2-2 1-1 0 0 1 1 0 0-1 1 1 2 0 2 1 3 0 5 2 5 0 6 2 7 1 9 2 9 0 11 2 23 0 12-2 14-1 13-1 15-3 30-4 16-2 15-2 17-3 15-2 16-3 15-3 16-3"/>
<path d="M3383 12793l-1-1 0-3 0 0 0-1-1-1 0 13-1 6-1 6 0 8-2 9-2 10-2 10-2 10-3 12-3 11-3 13-3 11-4 10-3 10-3 8-2 9-2 6-2 7-1 4-1 3 0 3-1 1 0 2 1 0 1-1 1-2 1-2 3-4 2-4 4-7 4-7 4-9 5-11 4-10 5-13 4-12 5-13 5-12 4-13 4-10 2-12 3-10 2-8 3-8 0-6 2-5 0-7-2 0 0 1 0 6 0 4 1 4 1 6 1 5 2 8 2 7 3 7 2 7 4 7 4 7 4 7 4 8 4 6 5 6 5 6 5 5 6 5 5 5 6 4 5 5 6 3 5 2 7 1 5 1 6-1 7-1 5-2 6-4 6-5 6-6 6-6 6-8 6-9 6-10 5-9 5-11 5-11 3-11 3-12 2-10 1-11 0-12-1-10-1-12-4-20-3-9-5-9-2-9-5-8-3-6-3-6-4-5-3-5-2-3-1-3-2-1-1 0-1-1 0 1 0 3 0 3 1 3 1 4 2 5 2 5 3 8"/>
<path d="M3651 12802l 0-1-1 0 0-1 0-2 2 0 2 1 3 0 3 1 8 0 6-1 6 0 6-1 6 0 8-2 7 0 8-2 7-1 8-1 8-1 9-2 8-2 8-1 9-3 8-2"/>
<path d="M3915 12628l 0-1 0 2 1 2 0 14 0 6 0 6 0 20-1 7 0 18-1 9 0 9 0 9 0 11-1 9 0 99 1 7 0 8 0 7 1 7"/>
<path d="M4016 13058l 1 1 0 0 1-1 0-1 4 0 2 1 2-1 4 1 4 0 5-1 5 0"/>
<path d="M4300 12714l 0-1-1-1 0-2 0 0 0-1-1-1 0 0 0 1 1 0 0 1 0 3 2 2 1 3 2 4 1 5 2 6 2 9 2 8 2 8 1 10 2 10 0 11 2 11 1 10 0 22 0 11 0 12 0 12 0 11 0 11-1 11 0 12-1 11-2 30 0 10-1 9 0 8-1 8-1 8"/>
<path d="M4200 13084l 1-1 0-1 0-1 0-1 1 0 2-1 2-1 3 0 5-1 5-2 7 0 8-2 7-3 10-1 9-2 11-2 10-2 10-2 11-3 12-1 11-3 11-3 12-3 12-2 11-2 12-4 11-1 12-2 11-2 11-1 11 0 9-1 9 0"/>
<path d="M4313 13151l 0-1-1 0 0 0 11 0 4-1 15 0 7-1 5-1 13 0 5 2 6 0 5 1 5 1 4 1 5 1 4 2 3 2 3 1 3 2 2 2 2 2 1 1 1 2 0 3-1 2-1 3-2 3-3 4-3 3-9 10-5 6-7 6-7 5-6 6-8 6-7 6-8 5-7 5-8 6-7 4-7 5-6 4-6 5-10 7-4 3-2 3-3 3-1 2-1 1-1 2-1 0 0 2 1 0 1 2 2 1 1 0 4 4 3 1 3 1 4 1 5 2 6 1 7 0 14 0 8 0 8 0 9-1 10-1 9-1 10-2 10-1 22-3 9-1 11-1 10-2 10-1"/>
<path d="M4762 12983l 1-1 0 1 0 0 0-1 5 0 0 0 3 0 2 0 14 0 4 1 4-1 4 0 4 0 5-1 5-1 5-1 5-2 6-1 7-2 6-1 7-1 7-1 8-2 8-2 8-1 6-3 8-2 7-2 8-2 8-3 8-2 7-1 7-2"/>
<path d="M4839 12941l 0 4-1 5 0 12 0 8 0 17 0 8 0 8 1 8 1 8 1 17 2 9 1 7 1 8 2 7 1 8"/>
<path d="M2015 12770l 1 0 1-1 7 0 2 1 11 0 3 1 15 0 6-1 5-1 5 0 5-2 7-1 6-1"/>
<path d="M5517 12814l 1-1-1-1 0-7 1-1 0-1 0-1 0-2 1-1 0 2-1 1 0 2-1 6-1 3-1 5-2 7-1 7-3 8-2 9-6 19-3 8-3 9-3 10-4 9-7 17-3 9-4 9-3 9-4 7-4 9-3 8-4 9-3 8-3 7-3 7-4 8-2 7-1 6-2 6-2 5-1 4-1 4-1 4 0 2 0 6 0 2 1 1 3 3 1 2 3 2 2 1 3 2 4 2 3 0 5 1 5 0 5 1 12 0 6-1 6-1 6-1 8-1 7-1 7-2 7-3 7-3 8-3 8-3 8-3 8-3 8-4 8-3 8-3 8-4 8-3 8-4 7-2 8-3 7-3 7-3 6-2 7-3 5-2 6-3"/>
<path d="M5580 12900l-1-1-2 1-2 1-2 0-2 2-3 1-2 3-2 4-1 4-2 6-1 8-1 8-2 20-1 12 0 43 1 16 1 16 1 17 0 18 0 17 1 19 1 18 0 17 0 18 1 17 1 17 1 16 1 15 1 13 1 13 2 12 1 9 1 9 2 8 1 7 2 6 2 6 2 4"/>
<path d="M5796 13062l-1 0-1 1-2 0-1 2 1 0 0 1 3 3 1 1 2 1"/>
<path d="M5889 12881l 0-1 0 1 11 0 4 1 4-1 6-1 6 0 13 0 7-1 8-1 7-1 8-1 8-1 8-1 8-2 8 0 7-2 7 0 7 0 18 0 5 0 5 1 4 1 7 3 2 2 2 3 2 2 3 9 0 11-1 7 0 8-3 9-2 10-3 11-5 11-5 12-5 13-6 12-7 15-7 14-7 15-8 15-9 16-8 15-8 15-9 15-9 13-9 14-9 14-9 14-9 11-8 11-8 10-7 9-5 9-5 7-5 6-3 5-2 4-2 3-1 2 0 0-1 1 1 1 0-1 0 0 0-1 1 0 2 0 2-2 3-2 5-3 5-3 7-5 8-5 8-5 9-5 10-7 10-6 18-13 10-6 9-6 10-6 9-6 9-5 9-4 9-4 9-4 8-3 8-3 7-3 7-3 6-1 6-2 10-2 4 0 5-1 8 2 4 0 3 1 2 1 3 1 2 1 3 2 2 1"/>
<path d="M6154 12791l 0-1-1 0 0-1 2 0 0-2 3 0 2 0 5-2 5 0 4-1 4-2 5-2 5-1 4-2 5-1 5-2 4-2 5-1 6 0 5-1 5-2"/>
<path d="M6353 12626l 1 0 0 1 0 2 0 1 1 2 2 3 0 4 1 3 1 5 0 5 1 7 1 6-1 7-1 8 0 7-1 10-1 8-1 9-2 8-2 10-1 10-2 11-2 10-2 9-1 10-2 8-2 7-1 6-2 7 0 3 0 2 0 0 0-6 0-4 0-5 1-7 1-8 1-9 2-10 2-11 1-10 2-10 2-10 2-10 1-9 2-9 1-9 2-8 0-9 2-9 0-7 1-8 0-5 1-6 0-12-1-3 0-2-1-1 0 0-1 1 0 1-1 2 0 3 0 3-2 9 0 13 1 7 1 8 1 7 1 8 3 7 2 8 6 14 3 7 4 7 4 7 3 7 5 7 4 6 9 12 13 13 5 4 4 2 5 2 4 2 4 2 5 2 8 0 4-2 5-1 3-3 5-3 5-3 4-6 5-6 4-8 4-7 5-10 3-8 4-10 3-12 2-10 2-13 2-11 2-12 0-13 1-12 0-13-1-12 0-12-1-12-2-11-2-12-3-9-3-9-3-9-4-8-3-7-3-6-4-5-3-6-3-3-3-3-3-2-3-3-2-2-3 0-2-2-1 1-2 0-2 1-1 0-2 2"/>
<path d="M6584 13003l-1 0 0-1 2 0 0 1 5 0 3-1"/>
<path d="M6949 12401l-4 0-1 1-1 0-3 0-2 2-2 1-5 5-3 3-5 4-5 6-5 7-5 9-7 9-6 12-7 12-8 14-8 15-8 16-8 18-8 18-10 21-9 20-8 23-9 23-10 23-9 24-9 27-9 26-8 25-8 26-8 26-6 28-6 27-6 26-5 25-4 26-4 25-2 25-3 23-1 23 0 41 1 18 1 18 3 17 3 16 3 15 5 14 5 14 5 14 6 13 7 12 6 13 7 11 7 10 7 9 8 8 8 7 9 6 8 5 9 4 8 4 10 2 9 2 9 2"/>
<path d="M7018 12559l 0-1 0 1-1 1-1 0-1 3-1 3-2 5 0 6-3 7-1 9-2 10-2 12-2 12-2 13-2 11-1 13-3 11 0 11-2 11-1 11-1 9-1 8 0 15 0 5 0 8 0 0 0 1 1-1 1-1 1-4 0-5 2-8 2-8 3-10 2-12 3-12 3-14 3-15 3-15 3-16 3-15 1-15 2-14 2-15 1-14 1-12 1-12 1-11 1-10 1-10 1-7 1-7 0-6 0-4 0-6 0 0 0 19 0 7 1 9 0 10 1 10 1 12 2 11 2 12 2 13 3 12 3 12 4 11 4 11 4 11 5 8 5 9 6 7 5 6 5 6 5 5 5 4 5 4 5 3 4 2 5 1 8 0 5-1 4-3 5-2 5-4 5-5 6-7 5-8 5-7 5-10 5-10 5-11 5-12 3-12 4-12 3-13 4-12 3-12 2-12 2-12 1-12 2-13 1-10 1-12 0-11 1-11-1-9-1-9 0-9-1-8-2-7-1-5-1-4-1-4-2-3 0-2-1-1-1 0 0-1"/>
<path d="M6890 12929l 1 1-1 1-1 2 0 3-1 2-1 5-1 5-2 5-2 7-1 8-2 8-2 10-2 10-2 11-2 11-2 12-1 12-2 13-2 11-2 12-2 12-1 11-3 11-1 10-2 10-2 9-2 9-1 8-2 7-1 7-1 6-1 5-2 3 0 3 0 3-1 1 0 2 1-1 0-3 0-2 0-4 1-5 1-6 1-8 1-8 1-10 3-21 0-12 1-10 1-12 0-10 1-10 0-40-1-10 0-17 0-8 0-14 0-6 0-5 1-5 0-3 1-3 0-2 1 0 0-1 0 0 0 1 1 0 0 2 1 2 0 2 2 2 1 3 5 9 2 4 2 6 3 6 3 7 2 7 3 8 3 8 4 9 3 8 7 17 3 8 3 7 4 8 3 6 5 6 3 5 7 8 4 4 3 2 3 2 3 2 2 1 2 1 5 0 1-1 2-1 2-3 1-2 2-3 5-10 2-6 3-8 2-8 3-9 2-9 3-9 2-8 2-10 2-9 1-8 2-8 2-8 1-7 2-8 1-7 1-8 1-6 0-6 1-6 0-6 1-5 0-12 1-3"/>
<path d="M7101 12874l 0 1 1 2 0 10-1 3 0 5-1 6 0 7 0 7-2 8-1 7-2 20-3 11-2 11-2 12-2 13-3 13-3 15-3 15-3 16-3 17-4 17-4 17-4 17-5 16-4 16-5 16-5 15-5 14-5 14-4 13-4 13-5 12-2 10-4 8-2 8-2 5-2 5"/>
<path d="M7152 12973l 1 0 0 1 2 0 1 0 2 0 2 1 2 1 3 0 3 1 8 0 5 1 17 0 3 1 4-1 3 0 3-1 2 1 3 1 2 0 1 0 2 2 0 1 0 2 1 1 0 3-1 3-1 3-2 5-3 5-3 5-4 7-8 13-5 7-6 7-6 8-5 7-6 8-6 7-5 7-6 7-5 6-4 6-5 5-3 4-3 4-3 2-1 3-2 2-1-1 0 1 0 0 0 0 1 0 1 0 1-1 2 1 2-1 3-1 4 0 5-2 6-1 6-2 7-3 8-1 8-3 17-6 9-2 8-3 8-2 9-3 8-2 9-3 8-2 9-3"/>
<path d="M7354 12492l-1-1-1 0 0 1-1 0 0 1 1 0 1 0 1 2 1 1 3 2 3 3 4 4 6 5 6 6 7 7 6 9 8 10 7 11 8 13 7 13 7 14 6 15 7 17 6 16 7 16 5 16 5 16 15 49 5 16 4 17 4 18 4 18 4 19 3 20 3 20 3 20 2 22 2 22 1 23 1 23 0 46-1 24 0 24-1 23-2 22-1 22-2 21-2 21-2 20-3 19-2 18-3 17-3 15-2 13-4 12-3 11-3 9-2 8-8 13-3 5-4 4-4 4-4 2-9 0-5-1-4-2-4-5-5-3-3-7-4-8-3-8"/>
<path d="M7718 12506l 0 5 1 4 0 10 0 7 1 9 1 8 1 9 1 9 1 10 2 9 2 10 2 9 2 10 3 9 2 8 3 9 2 9 3 7 2 8 2 7 3 8 1 7 1 8"/>
<path d="M7637 12907l 1 0 0-1 0 0 1-1 2-1 2-1 3-2 3-1 10-6 7-3 7-5 9-5 9-5 9-7 20-13 11-7 10-8 11-8 11-7 10-8 11-8 11-8 11-7 10-7 20-14 9-6 9-6 9-5"/>
<path d="M7749 12937l 1 0 0 1 0 0 2 0 1 0 2-1 3 0 2-1 4-1 4-2 5 0 5-2 6-1 5-2 5 0 5-2 4-1 5-1 3-1 3 0 3 1 2 0 2 1 2 1 1 1 1 1 1 2 1 3 0 2-1 3-1 3-1 5-1 5-3 6-3 6-4 8-3 6-5 8-4 8-5 8-4 7-5 8-4 7-5 7-4 7-4 6-2 7-4 6-2 5-2 5-2 5-1 4-2 3 0 4-1 3 1 2-1 1 0 1 1 1 2 0 1-1 5 0 5-1 4-2 5-2 5-1 6-3 6-3 7-4 7-3 7-4 8-3 8-5 8-6 8-5 8-6 7-4 7-5 6-5 7-5 6-4 6-4 5-3 5-3"/>
<path d="M614 14160l 1-1 0 0 1 0 1-1 1-1 1-1 1 0 1-1 2-1 2-1 2-1 2-1 3-2 2 0 4-2 2-1 4-1 4-1 4-2 4-1 5-1 5-1 10-3 6-1 6-1 13-2 7-1 7-2 7 0 7-2 7-1 7 0 7-2 7 0"/>
<path d="M623 14269l-1 0 0-1 2 0 1 0 2-1 2-1 3-1 5-2 4-1 4-1 5-1 6-1 6-1 7-3 7-1 8-2 8-2 9-2 8-2 10-1 8-2 10-1 9-1 8-1 10-1"/>
<path d="M1182 13857l-1-1 0 0 0 1-1 0 0 2 1 2-1 1 0 10-1 6 0 6-1 8 0 9-1 12-1 11 0 14 0 14-2 15-1 15-1 16-1 16-2 17-1 18-2 18-3 19-2 18-4 19-4 20-4 20-4 20-4 20-5 20-5 21-6 20-6 20-5 19-11 39-7 19-5 17-5 18-5 15-5 15-4 13-2 12-4 10-2 9-1 7-1 6 0 8 1 2 2 1"/>
<path d="M1397 14226l 0-1 0 1 4 0 1-1 2 0 4-1 4-1 4-1 5 0 6-1 6-1 8-1 7-1 8-1 8 0 9-1 8 0 10-1 10 1 8 0 10-1 10 0 9 0 9 0 9-1 8 0 9-2 19-1 9-1 9-1"/>
<path d="M1533 14074l 0-1 0 1-1 1 0 0 0 1 0 17 0 5 0 5 1 7 0 23 1 8 0 16-1 8-1 8 0 9 0 8 0 8-1 9 0 33-1 8 0 27"/>
<path d="M2611 14244l-1-1-2-1-1 0 0-1-2-1 0 0 0 0 2 0"/>
<path d="M3091 13622l 0-2-1-2-1-6-2-3-1-3-1-2-1-1-2-2-1 0-1-1-1 0-2-1-5 0-2 1-2 1-3 1-3 1-3 3-4 2-5 4-5 4-6 5-7 5-6 7-7 6-8 8-9 9-8 9-9 11-10 10-9 12-10 13-10 12-9 14-10 13-9 13-9 13-9 15-9 15-8 13-7 14-6 13-6 13-5 12-4 13-3 14-3 13-2 12-2 13 0 14 0 24 0 11 2 10 3 10 2 9 3 9 3 10 4 9 5 9 3 7 5 8 5 8 5 7 4 7 5 6 4 5 5 6 6 4 5 4 6 4 6 3"/>
<path d="M3151 13744l-1 0-2 1-1 1-3 2-5 5-4 5-3 4-2 6-4 5-4 7-3 7-4 8-4 8-4 7-5 9-4 9-3 10-5 9-4 9-4 9-3 8-4 9-3 8-4 7-3 7-3 6-2 5-2 5-1 3-1 3-1 1 1 1 1 0 2-1 1-2 2-3 3-4 3-6 4-7 5-8"/>
<path d="M3132 13728l-1-4 0-5 0-4-1-3-1-3-1-2-1-1-3 0 0 1-1 1 0 1-1 2-1 3 0 3-2 5-1 7 0 7 0 17 1 20 2 11 2 10 2 11 3 11 3 10 4 10 4 8 5 10 5 8 10 16 12 14 5 7 7 5 5 5 7 4 6 4 7 3 6 2 7 2 5 0 7 1 5-1 6-2 7-3 5-2 7-5 7-6 6-6 7-7 11-16 6-8 6-8 5-9 4-9 4-9 7-19 2-8 2-9 1-9 0-16 0-9-2-7-1-8-2-7-3-8-2-8-3-7-2-7-3-7-3-7-3-5-3-4-1-4-2-3-1-2-1-1-1-1 0-1-1 0 1 1"/>
<path d="M3181 14038l 0 0-1 0 0 1 0 0 0 0-1 0-1 1-1 2 0 1-2 2-1 2-2 3-1 4-2 4-3 4-3 5-7 10-4 5-3 5-4 5-4 6-4 5-5 4-3 5-3 5-4 4-3 3-2 4-5 5-2 2-3 3 0 1 0 0 0 1 0 0 1-1 1-1 1-2 1-2 2-3 2-4 3-4 3-6 4-5 3-5 4-7 3-6 4-7 2-7 3-7 3-6 2-8 2-6 2-5 2-6 2-6 0-5 2-5 1-5 1-4 1-5 0-3 1-3 1-3 1-3 0-1 0-1 0-1 0 2 1 0 0 2 1 1 0 2 1 3 2 11 2 5 4 15 1 6 3 5 2 6 1 7 2 5 2 6 3 5 2 6 3 5 2 4 3 4 2 4 3 3 3 3 2 2 3 3 3 2 3 2 2 2 3 1 2 2 4 1 2 1 3 0 2-1 2-1 2-2 3-2 3-2 3-3 4-5 3-4 5-6 4-5 4-6 4-7 3-7 4-8 4-7 4-7 3-7 3-6 2-6 2-7 1-5 1-6 1-10 0-12 0-3-1-2-1-2 0-1-2-1-1 0 0 0 0-1 0 1 0 0 1 1"/>
<path d="M3423 13927l-1 0-3 4-1 2-2 2-2 2-2 3-2 4-2 5-4 5-2 6-3 6-4 7-4 8-4 8-5 8-5 9-5 9-5 10-5 9-7 10-6 10-6 11-6 10-7 11-6 10-7 10-7 10-17 30-4 10-5 9-4 8-3 8-3 7-2 6-1 5-1 3 1 4"/>
<path d="M3445 14008l 0-1 1 0 0-1 0 1 0-1 8 0 2 1 3 0 3 0 3 1 4 1 2 0 5 2 2 1 1 2 2 1 1 1 1 1 1 2 0 5-1 1-2 2-1 2-2 2-2 3-2 3-4 2-4 3-3 3-4 4-5 3-5 2-4 4-4 3-5 3-4 4-3 3-4 3-5 5-2 1-2 2-1 2-1 2-1 1 0 5 1 1 1 3 1 1 3 2 2 1 3 2 3 0 3 2 4 0 12 3 23 0 6-1 7-1 7-1 7-1 7-1 8-3 8-2 7-2 8-2 16-6"/>
<path d="M3559 13676l 1-1 0-3 0 0 1 1 2 1 1 1 3 2 3 2 5 3 5 4 5 5 5 4 8 6 6 6 6 8 8 8 6 8 7 8 7 8 5 10 7 10 6 10 6 9 6 10 12 20 5 11 5 10 6 11 5 10 4 11 5 11 4 10 4 11 3 11 3 10 3 11 2 11 1 10 1 10 1 11-1 9-1 9-1 9-3 9-3 9-3 8-5 9-5 10-5 8-6 9-7 8-7 9-7 9-10 8-10 9-11 8-12 8-14 9"/>
<path d="M2761 14349l 1-1 13 0 7 0 8-1 11 1 12-1 14-1 16-1 17 0 19-1 20 0 21-1 22 0 23-1 25-2 25-2 27-3 28-2 29-3 29-3 62-9 31-3 33-5 33-5 33-5 32-4 33-5 32-6 32-5 31-5 29-5 28-5 28-5 27-5 25-3 25-4 22-4 22-3 21-3 20-3 19-2 18-3 18-3 17-3 16-2 15-4 13-1 12-2 11-2 11 0 10-1 9-1 9-1 8-1 8-1 7-1 7-1 7-1 6 0 6 0 4-1 4-1 4 0 4 0 2 0 1 0 2-1 1 0-1 1-2 0-3 0"/>
<path d="M3080 14503l 0-1 1-2 0-1 0-2 1-1 2-2 1-1 2-1 2-1 4-2 3-1 5-1 5-1 5-2 5 0 7-2 6 0 7 0 8 0 6 0 7 1 7 1 7 1 6 2 7 1 7 1 6 3 7 2 5 3 7 2 5 3 5 2 3 3 6 6 1 4 2 3 0 9-1 4-2 4-3 6-4 6-5 7-7 7-7 9-9 7-9 8-10 10-10 9-11 8-11 9-10 9-10 9-11 8-11 10-11 8-10 8-11 9-10 8-10 7-10 8-9 7-7 7-8 6-6 6-5 6-4 4-3 4-2 4-2 3-1 1 0 4 1 1 2 2 2 0 2 2 4 0 4 2 5 1 6 1 25 0 10-1 11-2 12-2 12-2 13-3 14-3 14-3 14-5 14-4 13-4 15-5 14-6 14-5 15-4 14-6 13-6 15-6 13-7 13-5"/>
<path d="M3428 14397l-1-1-1 0-1-1-2-1-1 0-2-1-1 1-1 1-1 1-1 1-2 3-2 3-2 3-2 4-2 5-3 5-4 6-2 7-3 6-4 7-3 7-3 8-4 6-3 6-2 6-3 5-3 5-1 4-1 3 0 2-1 1 0 2 1 0 0-1 0-1 1-1 1-2 2-4 1-4 2-5 2-6 2-6 2-7 3-7 2-7 2-7 2-7 3-6 1-6 1-5 1-5 2-3 0-4 0-3 1-2 0-6 0 2 1 0 0 3 0 2 2 3 1 2 1 3 3 9 2 5 3 4 2 5 3 5 3 5 3 4 3 5 4 4 4 4 4 3 4 4 4 3 4 2 5 3 5 2 5 1 4 2 4 1 5 1 18 0 5-2 6-2 5-2 5-4 5-3 6-4 5-5 5-6 5-6 5-6 4-7 4-7 4-6 3-8 3-8 2-6 2-8 2-5 1-7 1-6 1-6 0-13-1-3-1-3 0-2 0-2 0-2-1-1-1 0 0-1-1 0-1 1 0 2"/>
<path d="M3641 14417l 0-1 3 0 0 0 3 0 3 0 1 0 2 1 4 0 3 1 5 0 4 1 30 0 7-1 8 0 17-3 10-1 11-1 10-2 10-3 12-2 11-1 12-3 11-3"/>
<path d="M3919 14388l 1-1 0 0-1 0 0-2 0 11 1 5 0 6 0 7 2 7 1 8 1 9 1 9 3 9 1 8 2 9 2 9 2 11 2 9 2 11"/>
<path d="M736 23003l-1-1-1 0-2 0-2-1-1 0-2-1-8 0-3 1-4 0-7 3-3 1-5 3-3 3-4 3-4 4-4 5-5 5-8 13-4 8-5 8-5 10-4 10-5 10-4 12-5 13-5 12-5 14-4 15-4 15-5 16-4 17-5 17-5 18-4 18-4 19-3 19-4 20-4 20-3 20-3 20-3 20-2 20-2 18-1 19-1 20-1 18 0 18 1 17 1 16 2 16 2 15 2 14 3 14 7 24 4 11 4 10 4 10 5 10 5 8 6 9 5 8 6 7 5 8 12 14 6 6 6 5 6 6 7 6 7 4 6 5 8 4 6 4 7 3 8 3 7 2 7 3 7 1 8 1 7 2 8 1 7 0"/>
<path d="M873 23085l 0-1 1-1 0-1 0-1 0-1 1-1 1-1 1-2 1-2 1-1 3-2 2-1 3-1 3-2 3-2 4-1 4-3 5-1 4-2 10-3 6-1 6-2 6-1 5-1 6-1 5-1 23 0 5 1 5 0 5 2 5 0 5 2 3 1 4 2 3 3 3 2 3 2 3 6 1 3 0 7-1 4-2 4-2 5-4 5-4 6-5 6-5 5-6 6-6 6-8 7-7 6-8 7-7 7-7 5-8 6-8 6-6 6-6 5-6 4-5 4-5 3-4 3-3 2-3 2-3 2-1 0-2 1 0 1-1-1 1 0 1-1 3-1 2-1 3-2 3-2 3-2 5-2 5-2 6-3 6-2 7-3 8-2 7-3 8-2 8-2 8-1 8-1 8-1 9-1 22 0 7 1 7 1 5 1 10 5 5 2 3 3 3 3 2 4 2 3 1 5 0 9-1 5-2 5-3 6-3 5-4 7-5 6-5 7-6 6-7 6-7 6-7 7-8 5-8 7-7 6-8 5-9 5-8 5-8 4-9 3-8 3-7 2-7 2-6 1-7 0-6 0-5 0-5-1-4-2-3-3-3-4-2-3-1-5-1-6"/>
<path d="M1133 23049l 0-1-1 0 0 0 0 0 2 1 1 1 2 1 0 2 2 2 1 2 2 3 2 3 2 3 2 4 2 5 2 6 2 6 1 6 1 7 1 8 0 35 0 9-2 9-1 9-3 18-2 8-2 7-1 7-2 5-2 6-1 4-1 5-1 3-1 2-1 1-1 1-1-1 0-4-1-4 1-5 1-5 1-7 1-14 1-9 2-8 1-10 2-10 1-10 2-10 2-10 1-9 2-9 2-17 2-8 1-7 1-6 1-6 0-4 0-4 1-4 0-6 1-2 0-4 0 1 1 1 0 2 0 2 2 3 0 4 2 4 1 5 2 5 2 6 2 6 2 7 4 8 3 8 3 8 4 8 5 8 10 18 10 15 5 8 6 7 7 7 6 5 6 6 6 4 7 5 7 3 6 3 7 2 6 2 7 0 7 0 6 0 6-2 8-4 6-4 6-5 7-6 6-6 6-8 6-8 5-9 9-20 4-10 3-11 3-12 2-12 2-11 0-12 0-12 0-12-1-11-2-11-2-10-3-9-2-8-3-8-3-7-3-7-4-5-2-4-3-3-2-3-3-2-2 0-3 0-1 1-1 1-2 3-1 2"/>
<path d="M1021 23511l 0-1 1-1 0 0 0-1 2-1 2 0 3-1 3-1 5-1 5-1 7-1 6-2 7-2 8-1 15-3 8-2 8-1 8-1 8-1 7-1 18 0 5 1 4 1 3 1 3 1 3 3 0 2 0 3 0 3-1 3-2 3-2 3-3 5-5 5-4 5-4 6-5 6-6 6-6 6-6 5-6 6-8 5-6 5-6 5-6 5-7 5-5 4-5 4-4 3-3 3-3 3-3 2-2 2 0 1 0 1 2-1 1-1 2-1 3-1 5-1 4-2 6-2 5-2 7-2 8-3 9-3 8-4 10-2 8-3 10-2 8-3 9-2 8 0 8-1 7 0 7 1 7 1 6 2 6 2 4 3 5 4 5 3 3 4 3 3 3 5 2 3 2 5 1 4 1 4 0 9-2 5-2 5-2 6-3 6-3 6-3 7-5 6-5 5-5 7-5 6-6 6-7 5-6 5-6 5-7 4-7 4-7 2-7 3-7 2-8 0-7 0-7 0-7-2-6-2-6-3-7-4-5-6-5-5-5-8-4-7-3-10-3-10-2-12 0-13"/>
<path d="M1476 23038l 0 1 2 0 1 0 1 1 2 2 3 1 2 1 3 3 3 2 4 3 4 2 4 4 5 4 5 4 5 5 5 5 6 6 6 6 6 6 7 8 5 7 13 16 6 9 6 9 5 10 10 20 10 23 5 12 3 12 7 24 5 24 4 25 3 24 1 44-1 21-2 19-2 19-3 19-3 19-3 20-4 21-5 20-6 20-5 20-7 20-7 20-6 19-8 18-7 18-7 18-7 16-7 16-7 14-7 14-7 12-7 12-6 9-7 9-7 7-7 6-6 5-6 2-6 3-6 2-7 0-5-1-6-1-6-3-5-4"/>
<path d="M1855 23437l 0-2-1 0 0-1-1-1 0 1 1 0 0 1 0 0 0 1 1-1 1 0 1 1 2 0 2 0 2 1 3 1"/>
<path d="M2346 23018l-1 0 0 1-1 0 0 2-1 1 0 5-1 2 0 3 0 4-1 4-1 5 0 6-1 6-2 14-1 7-1 17-1 8-1 9-1 9-1 9-2 26 0 8-1 8 0 16-1 8 1 7 1 6 0 23 1 5"/>
<path d="M2089 23403l 0-1 1 0 0 1 0-1 2 0 0 0 0 0 1 0 1 0 4 0 3-1 3-1 4-1 15-2 5 0 5-2 7-1 5 0 7-1 8-1 7 0 8-2 8-1 8 0 9-2 9-1 9-2 9-2 9-1 9-2 10-2 10-2 10-1 11-2 11-3 11-2 10-1 11-2 12-2 12-3 12-2 10-3 13-2 12-2 11-2 12-1 11-3 11 0 10-2 5 0 5 0 5-1 7-1 6 0 6-1 11 0 7 0 13 0 8-1 6 0 6-1 14 0 6 0 40 0 3 0 0 1-2 1"/>
<path d="M2211 23560l 1-3 0-13 0-1 0-1 1-1-1 0 1 0-1 0 0 0 0 1-1 1 0 1-1 0 0 2-1 3-1 3-1 5 0 5-2 7-3 8-2 9-3 9-3 10-4 11-4 10-9 23-3 12-4 11-5 12-7 21-4 10-4 9-3 8-3 8-2 8-2 6 0 5-2 3 2 3 0 2 2 0 3-2 2-3 4-3 4-6 4-7 5-7"/>
<path d="M2237 23553l 1-4 1-4 0-4 1-4 1-4 0-4 1-2 0-1 0 1 1 1 0 1 0 3 2 2 1 3 1 5 2 5 3 5 3 7 2 7 4 7 3 8 4 8 5 8 5 8 4 9 5 8 6 9 5 8 5 9 5 9 6 8 6 8 6 7 11 14 6 6 5 6 7 5 5 4 11 7 7 2 5 3 6 1 7 1 5 0 6-1 6-1 5-2 5-3 5-3 6-5 5-5 5-6 5-7 4-9 5-9 5-9 4-11 4-10 2-11 3-11 2-12 1-10 0-10-1-10-1-10-1-10-3-10-3-8-4-9-3-8-5-7-3-6-4-6-5-5-3-3-4-3-3-2-3-2-4-1-2-2-3 0-2 0-8 0-1 0"/>
<path d="M2096 22958l 0-1-1 0 0 0-1-1-2 0 0-1-1 0-3 2-2 1-1 2-3 3-2 4-3 5-3 6-4 7-3 8-4 9-4 10-4 10-5 12-5 13-6 15-5 15-5 17-6 17-6 18-5 18-6 20-6 17-5 22-10 38-10 38-8 35-7 33-5 31-4 28-4 25-2 21-1 22 0 42 1 22 2 21 2 21 2 20 4 19 5 18 5 18 7 16 7 16 8 15 8 14 11 14 11 13 11 12 12 11 13 10 14 10 15 7"/>
<path d="M2620 23008l 0 1 1 0 0 1 0 2 1 1 2 2 1 3 1 4 3 4 2 5 3 5 3 6 4 6 4 8 4 8 5 8 5 10 5 10 5 10 6 10 6 12 5 11 11 23 6 12 5 12 5 12 6 13 4 12 5 13 4 12 8 24 6 24 5 22 3 20 2 20 1 19-1 18-2 18-3 17-4 18-4 18-6 20-5 20-6 19-7 20-8 19-7 19-8 19-7 17-7 17-8 13-6 14-7 11-6 10-5 8-4 6-4 5-3 3-3 1-2-1"/>
<path d="M2771 22958l 0-2 1-1 0-1 0-1 0-1 1-1 2-1 0-1 2-2 2 0 1-2 2-1 3-2 3 0 4-2 3-1 3 0 4-1 4 0 9-1 5-1 12 0 5 1 10 2 3 0 3 2 2 1 2 2 3 3 1 2 1 1 0 2-1 2 0 3-1 2-2 3-2 3-2 3-2 3-3 3-3 3-3 2-3 4-3 3-3 3-3 3-3 2-3 3-2 2-1 2-2 1 0 2-2 3 0 0 1 2 1 0 1 0 2 1 3 1 3 0 3 1 5 0 3 1 5 1 5 0 12 1 5 1 7 1 6 1 7 1 6 1 6 2 6 1 5 1 6 3 5 1 5 2 9 4 2 3 4 2 2 3 3 6 1 3 0 3-1 3-1 3-1 4-2 3-3 4-4 3-3 5-5 3-10 7-5 4-7 4-6 2-7 4-7 3-7 2-7 3-6 2-8 1-7 1-5 2-7 0"/>
<path d="M3069 23368l-1-1-1 0-2-2 2 0 1-1 5 0 2 0 3 0 2-1 4-1"/>
<path d="M3475 22964l-1 0-1-1-12 0-2 1-4 1-4 0-4 2-3 2-5 2-5 4-5 3-5 5-5 6-7 6-6 8-7 9-6 9-7 10-8 11-7 13-8 13-8 15-16 33-8 18-9 17-8 19-15 38-13 36-11 34-11 33-7 30-6 27-3 22-2 20-1 16 0 17 1 17 1 17 2 16 1 16 2 16 3 15 4 15 2 14 5 14 3 12 5 13 5 12 5 11 5 11 6 11 6 9 6 9 7 9 6 9 6 9 6 7 6 7 6 7 5 6 5 6 6 4 5 5 5 4 5 4 5 2 4 1 5 2 4 0 8 0 5-1 4-2 4-2 5-3"/>
<path d="M3559 23073l-1 0-2 1-1 2 0 1-1 2-1 3-1 2-2 5-1 4-2 5-2 6-2 7-3 7-3 8-3 8-4 10-2 9-4 11-4 10-4 10-3 10-3 9-4 9-3 8-3 9-4 13-2 5-1 5-1 4 0 4 1 1 1 0 1-2 3-2 2-4 3-5 4-5 3-6 4-7 4-7 5-8 3-8 4-8 5-10 3-9 4-9 3-9 3-10 2-8 3-9 2-7 1-7 2-7 0-5 1-5 0-15-1-1 0-1-2 0-1 2 0 1-1 3-1 6 0 4-1 4 0 15 1 5 0 6 1 6 1 6 2 7 2 5 2 6 3 6 4 5 2 5 5 5 3 4 5 4 4 3 5 3 5 2 5 2 5 2 11 1 6-1 6 0 5-1 6-2 6-2 11-6 5-4 6-5 5-5 4-5 5-6 4-6 3-6 3-7 3-7 2-6 2-7 1-7 2-14-1-6-1-8-1-6-1-6-2-6-2-6-2-6-3-5-2-5-3-4-2-3-3-4-2-3-2-3-1-2-2-2-3-1 0-1-1 0-1 1 0 0"/>
<path d="M3819 23115l 1 0 1-1 2 0 1 0 1-1 3-1 2-1 3 0 4-2 3 0 5-2 5-1 5-1 5-1 6-1 7-2 6-1 6 0 7-1"/>
<path d="M4086 22989l 0 1-1 0 0 0 0 2-1 1 0 2-1 2 0 3-1 3 0 5 0 4 0 11-1 5 0 30 1 7 0 9 0 9 0 7 1 9 2 9 2 23"/>
<path d="M3389 23410l 0-1-1 0 0-1 2 1 0 0 3 1 2 1 5 0 5 1 6 2 16 1 21 0 11-1 11-1 13-1 13-1 15-2 15-2 17-1 17-2 17-3 18-2 18-3 20-3 20-3 41-6 21-2 20-3 20-3 21-2 21-3 21-2 20-3 19-2 19-3 19-2 19-3 19-2 18-3 18-2 17-3 8-2 19-3 10-2 9-3 10-1 20-4 10-1 10-2 9-2 10-1 9-1 9-1 9-2 9 0 8-1 8-1 20 0 5 1 4 1 4 0 4 1 3 1 2 1 3 0 3 2 1 1"/>
<path d="M3740 23501l-5 0-1 1 0 0 0 1-5 10-3 4-3 6-4 7-3 7-3 9-4 9-5 11-3 11-9 23-4 12-6 13-5 12-5 14-5 13-5 13-4 12-5 11-4 11-4 9-3 9-3 7-2 6-1 4-1 4 0 7 1 0 1-2 2-3 2-3 3-4 4-5 4-8 6-8 5-10 6-10 5-12 6-12 5-13 5-12 4-12 4-12 3-11 2-10 2-10 2-9 2-7 0-7 1-6 1-4 0-3 0-2 0-2 0-2-1 1 0 3 1 2 1 7 1 6 1 5 2 8 2 7 2 8 3 8 3 8 3 8 5 7 5 7 5 7 6 5 7 7 7 5 8 5 8 4 8 4 8 4 8 3 7 3 8 2 7 2 8 2 7 1 8 1 14 0 7-1 7-1 7-2 7-3 8-4 7-2 6-5 7-6 6-6 6-7 5-7 12-16 4-8 5-10 4-8 3-9 2-9 2-8 1-9 0-17-2-9-1-9-2-8-3-8-2-8-4-8-4-6-3-6-4-6-4-4-4-4-4-4-4-3-4-2-3-2-2-2-3-1-2-1-2-1"/>
<path d="M4278 22924l-1 0-1-1 1 0 1 3 2 2 2 2 2 3 3 3 3 4 3 5 4 5 5 7 5 6 5 8 6 8 6 9 7 10 7 9 8 10 7 11 8 10 8 12 8 11 8 12 9 11 8 11 7 13 8 12 7 11 8 12 7 12 8 13 6 13 6 13 5 13 5 13 10 25 6 25 4 23 3 22 1 21-1 20-1 19-3 16-4 15-4 16-4 16-5 15-6 15-6 15-7 16-7 16-6 15-7 15-9 15-8 15-8 13-8 13-7 12-9 13-8 12-8 12-8 11-8 10-8 10-8 9-8 9"/>
<path d="M4481 22848l 0-3 1-1 0-2 0-1 0-2 1-1 2-3 2-4 2-2 2-2 3-1 3-2 3-2 5-1 4-2 6 0 5-2 6-1 6-1 7-1 7 0 15 0 7 0 8 1 7 1 7 1 7 2 6 1 6 2 5 3 4 2 4 3 3 2 3 3 2 4 1 3 0 3-1 3-1 4-2 3-3 4-4 4-3 4-5 4-5 3-5 5-6 3-6 5-7 4-6 4-7 4-5 5-7 3-5 5-6 3-4 3-5 3-3 3-4 2-3 1-3 2-2 2-1 1-2 0 0 1 0 1 2 0 2-1 2 0 3-1 3 0 3 0 3-1 4 0 4-1 4-1 7 0 5 0 14 0 4 0 2 0 2 1 2 1 1 1 2 2 1 1 0 7-1 2-2 3-2 4-2 3-2 5-3 3-3 5-5 5-3 4-5 4-5 5-5 4-5 5-5 3-5 4-6 3-6 3-5 3-5 2-5 2-5 2-5 1-8 0-5-1-2-2"/>
<path d="M4653 22840l 0 1-1 0-1 1-1 0-1 1 0 1-2 2-1 1-1 2-1 2-1 3-1 2-1 4-1 4-1 4 0 5-1 4 0 24 1 7 0 7 0 7 1 7 1 7 0 8 1 8 0 7 1 7 1 7 0 6 0 6 0 5 1 5 0 4 1 3 0 4 1-1 0-1 0-4 0-4 1-4 0-6 1-5 0-7 1-7 1-7 1-16 0-7 1-8 1-9 1-16 0-32-1-5 0-4 0-4 0-3-1-3 0-3-1-1 0-3 0 0 0-1-1 0 0 4 1 2 0 2 1 3 1 4 1 4 4 9 3 6 2 5 3 6 3 6 4 7 4 6 9 13 4 7 4 6 5 6 5 5 5 5 5 5 4 4 5 4 5 3 4 3 9 4 8 2 4-1 5-1 4-2 4-3 4-3 3-4 4-5 4-6 3-5 3-6 3-7 3-7 2-7 1-8 2-8 0-8 0-8 0-8-1-8-3-15-2-7-2-8-2-6-3-6-3-6-3-6-2-4-3-4-2-4-2-4-2-2-2-3-3-4-1-1-1 0 0 1 0 2 0 2 1 2 1 2"/>
<path d="M4906 22888l-1-1 0-2 1 0 1-1 5 0 3 0 4 0 3-1 45 0"/>
<path d="M5134 22812l 1-1 0 0 0-1 1-1 2-1 0 0 2-2 1 0 2-1 2-1 3-1 3-1 4 0 3-1 9 0 3 1 5 1 5 0 4 2 4 1 5 1 4 2 3 2 4 2 3 3 3 2 2 2 2 2 1 3 2 2 0 2 1 2-1 2-1 3-1 2-2 3-2 2-3 2-3 3-3 2-4 2-3 3-7 4-3 3-4 1-2 3-3 1-2 2-1 2-2 2 0 3 1 1 1 1 5 1 2 1 4 1 9 0 4 0 5 1 11 0 6 1 11 0 11 1 6 0 6 1 5 1 4 1 4 1 4 1 4 2 4 2 2 1 3 2 2 2 2 2 1 3 1 2 0 6-1 2-1 4-2 3-2 4-2 4-3 4-4 4-4 4-4 4-5 4-5 5-6 4-6 4-5 4-7 3-7 4-7 4-8 2-7 3-8 2-8 2-8 1-8 1"/>
<path d="M694 24925l-1-1-1-1-1 0 0-1-1-1 0 0 0-1 0-1 0 0 0 0 5 0 3-1 6 0 4-1 5-1 12-1 6-1 7 0 8-2 9-2 18-2 19-2 17-2 16-3"/>
<path d="M673 25064l 1-1 0-3 0 0 0-2 2-1 1-2 1 0 2-1 2-1 2-1 3-2 4 0 3-2 5 0 5-2 5-1 5-2 7-1 7-2 7-1 9-1 8-2 8-1 10-2 18-2"/>
<path d="M1262 24865l 1-3 1-4 2-4 1-5 2-5 2-6 2-5 3-5 2-4 2-5 2-4 3-4 4-5 2-2 2-2 1-1 2-1 0-1 1 0 0 1 1 1 0 3 0 4 0 4 1 5-1 7 0 7-2 9-3 10-4 11-4 13-5 13-6 13-6 15-6 14-7 15-7 15-7 15-8 15-7 15-7 14-7 16-7 15-7 15-6 15-6 14-5 13-5 13-5 11-5 9-3 9-4 8-2 6-2 5-2 4 0 3-1 1 0 1 1-1 0-2 1-4 2-4 2-6 4-8 4-11 5-12 7-15 8-17"/>
<path d="M1305 24815l 1-4 0-22-1-6-1-4-2-3-2-2-1-3-3 0 0-1-2 0 0-1-2 0 0 5-1 4 0 4 0 6-1 8 0 8 1 10 0 11 2 12 3 13 2 14 3 15 5 15 4 15 4 15 5 15 5 15 6 15 6 14 7 14 6 14 6 14 6 13 7 13 6 13 6 12 6 13 5 10 12 20 6 9 5 7 5 7 5 5 6 5 5 4 4 4 5 2 3 2 4 1 5 0 3-1 5-2 4-3 6-5 5-5 7-7 7-8 7-10 8-13 7-12 7-14 7-14 5-15 5-16 5-14 3-17 2-15 2-18 0-17 1-18-2-17-1-18-2-18-3-18-2-16-4-15-3-14-4-12-3-12-4-8-3-9-4-7-4-6-4-5-3-4-5-3-3-4-4-4-4-2-3-2-3-1-2-2-1-1-1-1 0-1 1 0 3 1 2 1"/>
<path d="M1681 24780l-1-1 0-1 0 1 3 0 2-1 1 1 3 0 3-1 5 0 5 1 6 0 6-1 7 0 8-1 8-1 8 0 7-2 9 0 9-2 10-1 7-1 10-1 10-2 9-1"/>
<path d="M1961 24654l 0-1-2-3 0 0-1-1 0-2 1-1 0-1 1 0 0-1 2 0 2-1 2 0 2-1 4 0 3-2 4 0 3-1 5-1 15-3 5 0 6 0 6-1 13 0 5 1 6 0 6 1 4 2 5 0 4 2 8 3 3 2 3 1 2 2 2 2 2 3 0 2 1 3 1 2-1 3-1 2-1 3-3 2-2 3-4 3-3 4-4 3-4 3-5 4-5 3-4 4-5 3-5 4-3 3-9 6-4 2-3 2-3 2-3 1-1 1-1 2-1 0 8 0 3 0 20 0 7-1 7-1 8-1 8-1 7-1 8 0 9-1 8-1 7-1 7 0 11 2 9 1 4 2 2 1 2 2 2 2 1 3 0 2 0 3 0 4-2 4-2 4-3 4-5 5-5 5-5 6-7 5-8 6-8 7-8 5-9 6-10 6-9 5-9 5-10 5-9 5-10 4-9 4-9 3-9 3-9 2-9 2-8 1-8 1-7 0-8 0-6 0-6-2-6-3-4-2-5-3-3-5-2-5 0-7 0-7 2-8 2-9 5-9"/>
<path d="M2174 24599l 0 1-1 1 0 2 0 2-1 3-1 2-1 3 0 4-1 4-1 4 0 5-1 6-1 7 0 6-1 7 0 7-2 8 0 8 0 9-2 7-2 8-1 9-3 8-2 8-3 8-2 7-3 7-2 6-3 6-1 5-1 4-2 4-1 2-1 2-1 1 0 2-1 1 0-1 1-1 0-2 0-2 1-4 1-4 3-6 2-7 2-8 3-8 4-10 4-10 4-10 3-10 3-9 2-9 3-9 2-9 0-9 1-7 1-8 0-7 1-5-1-6 0-5-1-4-1-5 0-3-1-2-1-3 0-2-2-1 0-1-1 0-1 1 0 1-1 1 0 1 0 3 0 6-1 4 1 5 0 5 1 5 1 6 2 6 2 7 3 6 3 7 3 6 3 6 4 6 4 7 4 6 4 7 5 5 4 6 5 6 5 5 5 5 5 5 5 4 6 4 6 4 5 3 5 2 6 2 11 3 11 0 6-1 5-1 6-2 5-3 6-4 5-4 6-6 5-6 6-6 5-8 4-8 4-8 4-7 2-9 1-9 2-8 0-9-1-9-2-9-2-10-3-9-2-8-3-10-5-8-3-8-4-7-5-7-3-5-5-5-4-4-4-3-4-3-3-1-4-2-4 0-4-1-3-1-2 0-2 1-2 0-1 1-1 0 0 1-1 2 0 8"/>
<path d="M2579 24954l 1 0-3 0 0 1 1 0 0 0 1 0 0-1 3 0 1-1 2 0"/>
<path d="M2698 24658l-1 0-1-1-2 0-2 0-6 0-3 0-2 2-3 0-2 3-3 1-3 3-3 3-3 3-4 4-4 4-4 5-5 7-5 6-6 8-6 8-6 8-7 10-7 10-7 12-8 12-7 13-9 13-8 15-8 15-8 14-8 15-8 15-7 16-8 15-7 16-6 16-7 16-5 14-5 16-4 14-3 15-3 14-2 14-1 13-1 14-1 13 0 13 2 12 1 12 1 11 2 12 2 10 6 20 4 9 3 8 4 8 5 7 4 7 5 6 4 5 6 4 5 4 6 4 5 3 5 2 7 3 6 1 6 1 6 1 7-1 7 0 8-2 7-2 8-3 8-3 8-5 8-4 8-6 8-6 8-6"/>
<path d="M2752 24838l 0-3-1-1 0-1 0 1-1 1-2 4-2 3-3 5-4 7-4 7-6 9-6 12-7 12-7 13-6 14-7 14-8 14-6 15-6 13-7 14-6 14-7 14-5 13-6 13-5 11-6 11-5 12-3 9-5 9-3 8-2 6-3 6-2 5-1 3-1 2-1 2 0 0 0 1 1-1 1-2 1-2 0-3 2-6 3-7 2-8 3-11 5-11 4-13 5-14 6-15 5-16 5-16 5-18 5-16 4-16 4-18 4-16 3-16 3-16 2-14 3-13 2-12 2-10 3-9 2-9 1-7 1-6 1-4 1-5 1-3 0-2 0-2 0-1 0 0 0 0 0 0 0 4 0 2 1 3 1 3 1 5 1 4 1 5 3 7 1 7 1 9 3 8 2 10 2 10 2 12 3 11 3 13 3 11 2 12 3 12 3 12 4 11 3 11 3 11 4 10 3 10 5 9 3 9 4 9 4 8 4 7 4 8 3 7 5 5 3 6 5 4 4 4 3 3 5 2 3 2 9 0 6-1 5-2 6-3 7-4 7-5 8-6 7-8 8-9 8-9 7-9 7-11 7-11 6-11 6-12 4-11 4-11 3-12 3-11 2-13 1-12 0-10-1-12 0-12-3-11-2-10-3-11-2-10-4-9-3-9-3-8-4-8-4-7-2-5-4-6-2-4-3-3-1-4-3-2-2-2 0-2-2 0-1-2 0 0 0-1-1 0 1 0 3 2 2 1 2 2 3 1 3 2 4 2 4 3 4 3 5 4"/>
<path d="M3061 24950l-2-2-2-1 0-1-1-1-1 0 3 0 2-1 7 0 4 0 6-1 6-1 8-1 8 0 8 0 9-2 9 0 18-3 10-2 10-1 9-2 11-1 20-3 10-2 10-1"/>
<path d="M3457 24761l-1-1-1 0-2 0-1 0-1-1-3 0 0 1 0 0-1 2-1 3 0 5-2 5-1 6-2 7-2 9-1 9-2 11-1 10-2 13-2 12-2 13-1 14-2 14-2 14-2 15-2 14-2 14-2 14-2 12-2 11-1 11-2 10-1 9-1 8-1 7-1 7 0 17"/>
<path d="M3456 24608l 0-1 1 0 0-1 3 1 2 0 4 0 6 1 6 1 8 1 9 1 10 2 10 2 12 3 11 4 12 3 12 4 11 5 12 5 10 6 11 7 11 7 10 8 10 7 10 8 8 8 8 9 7 8 7 9 7 9 6 9 5 10 5 11 4 10 3 11 4 11 2 12 3 12 1 12 1 13 0 13-1 14-2 14-3 15-4 16-4 16-6 15-6 15-7 15-8 15-9 14-9 14-9 13-11 13-11 12-11 13-10 12-12 11-12 11-11 10-12 9-12 8-11 7-11 6-11 5-10 5-8 3"/>
<path d="M3815 24502l 1-1 0-3 1-1 0-2 27 0 6 1 7 0 7 0 7 2 5 1 6 2 6 2 5 3 5 2 4 3 4 4 3 3 2 4 3 4 1 4 1 4-1 4 0 4-1 4-3 4-2 4-3 4-3 4-4 4-3 4-4 3-3 4-4 4-4 3-2 3-3 2-2 2-2 2-1 1-1 2-1 0 1 1 1 1 0 0 1 0 2 0 1 1 2 1 3 1 3 0 3 0 4 1 19 0 5 1 5 0 5 0 6 1 5 1 4 1 5 2 3 1 4 2 2 2 3 3 1 2 2 3 0 2 0 7-1 3-2 4-2 4-4 5-4 5-5 5-6 5-6 5-7 5-6 5-8 5-7 5-8 4-7 3-7 4-13 6-6 1-5 2-5 0-4 1-10-1-5-2-5-1-10-5-5-2-3-3-4-2-2-4-1-4-1-4 0-4 1-5"/>
<path d="M4038 24508l 1 0-1 1-1 3-2 1-1 2-2 3-1 2-2 3-2 4-2 3-2 4-2 5-2 5-2 5-3 5-2 7-3 6-3 8-4 7-3 7-4 8-3 8-5 8-4 8-4 6-3 7-3 6-4 5-2 4-3 4-2 6-2 1-2 0 0-1-1-1 1-2 0-3 1-4 1-5 2-6 2-6"/>
<path d="M4002 24527l 1-3 0-4 0-17 0 0 0 5 0 3 2 3 1 3 2 5 1 5 3 7 2 6 4 6 3 7 3 7 3 7 4 7 4 7 4 7 4 7 5 7 5 6 4 6 5 6 5 6 5 5 5 5 5 5 5 4 5 4 5 3 4 3 5 2 5 1 5 1 5 1 3-1 4-1 5-2 4-2 4-4 5-5 3-6 4-5 5-8 4-7 4-8 3-9 2-8 3-9 3-19 1-9 0-19-1-9-1-8-3-9-2-8-2-8-3-6-3-6-2-6-3-4-3-3-3-3-3-2-2-2-3-1-3 0-3 1-1 1-1 2 0 3-2 4-1 3 0 4"/>
<path d="M4259 24560l-1-1 0 0 0-1 4 0 3-1 3 0 3-1 4 0 6 0 7 0 5-1 7-1 6 0 7-1 7-1 6 0 7-1 7 0"/>
<path d="M4520 24492l 0-4-1 0 0-3 0-2 0 0 3 0 2 0 36 0 6 2 12 1 4 2 5 1 4 2 3 1 3 1 2 2 2 2 3 1 2 3 0 2 1 3 1 2 0 2-1 3-1 2-2 2-2 3-3 3-3 3-3 3-4 3-4 3-4 3-4 3-3 3-4 2-3 2-2 3-1 2-1 2 0 6 1 1 1 1 1 2 2 1 3 2 2 2 3 1 3 1 4 1 3 2 4 1 4 1 5 2 4 2 4 1 4 1 5 1 4 2 4 0 5 2 5 0 5 1 4 1 5 1 4 0 9 1 3 0 4 1 3 0 2 1 2 1 1 1 0 1 1 1 0 2-1 1-1 2-2 1-2 2-4 2-4 2-4 3-6 3-13 5-7 3-8 4-9 3-8 3-9 4-10 3-10 4-10 3-10 3-10 3-11 3-20 6-9 2"/>
<path d="M5001 24475l 1-1 0 0-1-1 0-2-1 0 0 0 0 0-1 0-1 1-1 0 0 1 0 0 0 1-1 0-1 1 0 0-1 1-2 3-4 2-4 5-6 7-8 7-8 10-10 11-11 14-12 14-13 17-12 16-14 18-13 19-12 21-13 21-12 23-11 22-12 25-10 24-9 25-8 24-7 25-6 26-5 25-5 24-3 24-2 23-2 21 0 19 0 19 2 17 1 16 3 15 4 14 4 14 5 12 5 11 6 12 6 10 6 9 8 9 7 7 8 8 9 6 9 6 10 4 9 4 11 2 12 3 11 1 12 0 12-1 12-2"/>
<path d="M5183 24533l 2-2 3-2 3-1 7-3 3-1 3-1 3 0 0 1 0 1 0 1-1 0 0 2 1 3 1 2 1 2 2 2 1 2 2 3 3 2 2 3 3 2 4 3 3 2 5 3 5 2 4 3 4 2 5 2 5 2 4 2 3 3 4 2 3 2 2 3 2 2 2 3 0 2 1 3 0 2-1 3-2 2-2 3-2 2-4 3-3 3-5 3-5 3-5 3-5 2-7 3-5 3-7 2-6 3-6 3-6 3-7 2-6 3-5 2-7 2-5 3-5 2-5 2-4 2-3 1-3 2-2 0-1 1 0 1-1 0 4 0 1-1 3-1 7-1 4-1 5-1 6 0 5-1 6 0 5-1 22 0 6 1 5 1 5 0 5 2 4 1 4 1 7 3 2 1 3 2 2 2 3 2 1 1 1 3 1 1 2 2 0 2 1 2 0 4 1 2-1 3-1 2-1 3-2 3-2 3-3 4-4 3-4 3-4 4-5 4-6 5-5 3-6 3-6 4-6 3-6 3-7 3-6 3-7 3-8 2-7 1-7 2-7 1-7 1-7 0-7 0-8-1-7-1-5 0-7-3-5-2-4-3-4-2-3-4-1-4 0-4 1-5 2-6"/>
<path d="M5431 24519l 0 4 1 2 0 2 0 2 1 3 0 2 1 4 1 2 0 20-1 6-1 6-1 6-2 6-1 7-3 7-3 7-3 7-4 6-4 7-5 8-10 12-5 6-6 7-5 5-5 5-5 4-4 3-4 3-3 2-3 0-3 0-2-1 0-2 0-3 0-4 2-5 1-5 2-6 2-7 3-8 3-7 2-9 3-8 4-8 3-9 4-9 3-9 3-9 3-8 3-8 4-7 2-7 2-5 2-5 2-3 0-4 2-2 0-3 0-1 0 0-1 1 0 1-1 2 0 8 1 4 0 6 1 5 0 7 1 7 2 8 2 8 1 8 3 9 3 8 3 8 3 9 3 8 4 8 5 7 4 7 5 7 5 6 6 7 5 6 6 5 7 4 5 4 6 3 6 3 5 1 5 2 5 0 5 0 5 0 5-2 5-2 6-3 6-4 4-4 6-6 6-6 5-8 6-7 6-9 5-9 5-9 4-9 4-9 2-10 3-10 1-9 1-10 0-9-1-10-1-10-5-18-2-8-3-9-3-8-3-7-3-7-3-7-3-6-3-5-2-3-3-3-1-3-2-2-1-1-1 1 0 1-1 1-1 2-1 2-1 4-1 4-2 5-1 5-1 5"/>
<path d="M5249 24860l 1-1 0-1 1-2 2-1 1-1 1-3 3-1 2 0 3-1 3 0 4-1 4 0 5-1 11 0 5 1 7 1 6 0 6 2 5 0 6 2 5 1 5 2 5 3 3 2 3 1 4 2 2 2 1 3 2 1 0 2 0 4 0 1-2 2-2 2-3 2-3 2-3 1-4 3-3 2-4 2-3 2-3 1-2 2-3 1-2 2-1 1-2 1 0 1-1 0 1 1 0 1 0 0 2 1 1 1 2 1 3 1 4 1 3 0 5 2 4 1 6 0 5 2 17 4 6 1 5 2 5 1 6 2 6 2 5 2 5 1 5 3 4 1 4 2 3 2 3 2 2 2 2 1 1 2 1 3 0 4 0 3-2 3-1 2-2 3-3 3-4 3-4 4-5 3-6 4-6 3-7 4-7 3-8 4-9 3-8 3-9 2-9 3-10 2-10 1-9 2-9 0-9 1-10 0-8-1-9-1-8-1-7-2-6-2-7-3-5-3-3-5-4-5"/>
<path d="M5670 24453l 1-1 2 0 2 1 3 1 3 0 5 1 5 2 5 3 5 2 5 3 6 4 6 3 6 5 6 5 6 5 5 7 7 7 6 7 5 9 7 8 5 9 7 10 6 10 6 12 6 11 5 12 6 13 5 12 10 28 4 13 4 14 4 15 4 14 3 15 3 16 2 15 1 16 2 17 0 15 0 33 0 17-2 15-1 16-2 16-3 15-3 16-4 14-3 15-5 13-5 13-5 12-5 11-6 11-6 11-7 10-6 9-7 10-7 8-7 7-8 7-8 6-9 5-10 4-11 3-10 3-13 3"/>
<path d="M3247 -7427l-2-4-9-8-3-3-3-3-3-1-1-2-2 0-1 0 0 0 0 0 0 0 1 1 2 0 1 1 1 0 2 1 2 1"/>
<path d="M539 4432l 1 0 0-1 2 0 3 3 1 2 2 3 1 4 1 5 2 5 1 8 2 7 1 10 2 10 1 13 1 12 0 15 0 53 0 20-2 22-1 22-2 23-1 24-2 24-2 25-2 25-2 25-2 25-2 23-2 23-2 21 0 22-2 19-1 18-1 16-1 14 0 11 0 10 0 14 0 4"/>
<path d="M513 4498l-1-1 0 0-2-3 0-1-1-1 0-2 0-1 0-1 0-2 1-2 1-2 2-2 3-2 4-2 5-2 6-2 6-3 8-2 8-3 9-2 10-3 11-3 12-2 13-2 13-3 27-2 14 0 13 0 14 1 12 1 12 3 12 2 11 4 11 4 9 5 8 5 8 7 7 6 5 7 5 8 3 8 2 9 0 8 0 9-2 10-3 10-5 10-5 10-6 10-7 10-8 10-9 10-10 10-10 9-11 9-11 9-13 8-12 7-11 7-12 6-11 5-11 5-11 4-9 3-10 3"/>
<path d="M1141 4315l-1 0 0 1 0 0 0 1-1 1-2 1-1 3-1 3-3 4-3 4-4 6-5 6-5 8-5 9-7 10-8 12-7 13-8 14-10 17-9 17-10 20-19 38-18 38-15 39-14 36-10 35-8 31-6 29-4 25-2 24 0 23-2 23 0 62 2 18 0 18 2 16 2 15 3 14 4 13 4 13 5 11 5 11 5 10 7 9 7 10 7 8 8 7 9 5 10 6 11 4 11 4 11 3 12 1 12 0 12 0"/>
<path d="M1276 4467l 0 1 1 1 0 2 2 1 1 2 0 2 1 2 1 4 2 4 1 5 2 6 0 6 2 8 1 7 1 18 1 20-1 20-1 22-3 21-3 22-5 21-4 20-5 20-5 21-5 20-9 40-4 18-4 17-3 18-3 15-2 14-2 13 0 10-1 10 1 8 1 7 1 7 2 5 3 3 2 3 3 2 3 1 4 0 5-1 7-2 8-3 9-4 11-6 12-5 13-8 13-8 15-9 12-11"/>
<path d="M1176 4680l-4 1-5 0-12 5-5 0-3 1 0 1 0 0 3 1 2 0 4 1 6-1 18 0 12-1 15-2 16-2 19-3 19-5 20-4 20-3 21-5 20-5 20-5 21-5 19-5 20-4"/>
<path d="M1469 4692l-1 0-2 1-2 2-2 2-2 3-2 2-2 4-1 4-1 4-1 6-1 6 0 30 1 10 1 9 1 11 2 10 1 12 1 10 2 12 2 11 2 10 3 10 2 10 3 7 2 8 4 5"/>
<path d="M1521 4602l-3 0-1 1 0 4 0 3 3 3 2 5 5 4"/>
<path d="M1592 4760l 0 1-1 0 0 2 0 2 0 1-1 3 1 2 0 3 1 2 1 3 1 3 2 4 3 3 3 3 4 3 4 4 5 2 5 3 6 2 6 3 7 1 27 0 9-2 9-2 9-1 8-3 8-3 7-4 7-4 5-3 4-4 4-3 2-4 3-3 1-4 1-4 0-4-2-3-1-4-2-4-3-4-4-3-5-3-7-4-6-3-7-4-8-3-8-3-8-2-9-2-9-1-8-2-8-1-10 1-8 1-9 1-9 1-9 2-7 3-8 4-8 4-8 5-6 5-7 5-6 6-5 6-6 6-4 8-4 7-3 8-3 7-1 8-1 8 1 9 2 9 3 9 4 9 4 8 5 10 6 8 7 8 8 8 7 8 9 7 9 6 20 12 22 8 12 4 12 2 14 2 13 0 14 0 15 0 14-3"/>
<path d="M2057 4363l 0-4-1 0 0-9 1-1-1 0 0 1 1 1 0 2 1 2 0 8 0 5 0 7 0 17-1 11-1 13-1 14-1 16-2 35-4 36-10 79-5 39-7 37-5 36-6 33-5 31-6 32-5 30-6 31-6 29-5 30-5 26-6 24-6 24-4 21-5 19-3 18-3 15-4 14-3 12-2 10-1 9-2 6-2 5 0 5-1 2 0 2-1 0 1-1 1-3 0-3 1-6"/>
<path d="M2323 4881l-6 0-3 1-5 0-1 0-1 1 0 1 0 11 0 3 1 4 1 7 2 3 2 4 1 4 3 2 2 3 3 2 2 3 4 1 4 1 4 0 4 0 5 0 6-2 6-3 7-4 8-6 9-7 10-10 11-11 11-13 11-16 13-16 12-19 12-18 12-19 11-20 13-21 11-20 11-20 9-19 4-10 5-11 4-11 4-12 3-12 4-13 2-14 2-14 1-13 1-14 0-29-1-14-1-14-2-13-2-13-3-11-3-11-4-10-3-8-5-6-5-5-5-5-5-1-5-1-6 2-6 2-5 4-6 6-6 6-6 8-6 9-6 10-5 10-5 12-4 15-9 28-7 30-5 31-3 29 0 29 0 28 2 25 2 23 4 22 5 22 6 20 6 20 7 18 8 18 8 16 9 15 8 13 10 11 9 11 9 9 10 8 10 8 10 6 10 5 10 4 10 2 8 2 9 1 9 0 8-1 8-2 8-3 7-5 7-5 6-6 5-7 5-7 5-8 3-8 2-8 2-9 0-16-2-8-3-7-3-8-4-7-5-8-7-7-7-7-7-7-8-5-8-6-9-5-8-4-8-3-8-3-8-2-7-2-6-2-6 0-4-1-7 0-2-1-3 0 0-1 1 0 1 0 8 0 5-1 5 1 8-1 8-1 20-3 12-2 12-3"/>
<path d="M2949 4915l-1 0 0 1 2 0 0-1 1 0 1-1 1 0 2-1 4-2 5-2 6-5 6-6 9-8 10-9 11-12 12-15 12-15 13-16 12-17 13-17 12-18 13-18 12-19 11-17 12-18 5-9 7-10 5-10 12-23 6-13 5-12 5-13 4-13 4-15 4-14 3-16 3-15 4-15 1-15 2-16 1-16 0-14-1-13-1-13-2-12-2-11-2-10-3-8-3-7-2-7-4-5-4-4-3-3-4-1-4-1-4 1-4 2-3 3-5 4-3 6-4 5-3 8-4 9-4 10-2 11-3 12-2 14-3 15-5 31-2 32-3 32-2 31-1 31-1 29-1 26-1 24-1 21 0 22-1 20-1 20-1 19-1 17-1 17 0 29 0 13 0 10-1 8-1 7 0 6 1 4 0 3-1 2 1 1 0 1 1-1 0-1 0-1 1-3 2-4 2-5 3-6 3-8 9-20 5-11 5-12 6-12 6-11 5-10 5-8 4-8 5-6 4-5 5-5 3-3 4-2 4-3 3-2 3-2 3-1 2-1 3 0 2-1 2 0 1 0 3 2 2 1 1 1 1 1 1 2 2 2 0 2 2 3 0 3 0 5 1 5 1 5 0 49 1 6 0 7 1 6 1 5 2 6 2 6 2 5 3 4 3 4 3 2 5 3 4 2 4 2 5 0 6-2 6-1 8-4 7-4 7-6 8-7 7-7"/>
<path d="M3351 4758l 0-1-1 0 0 1 3 0 2-1 2 0 3 0 3-1 4-2 5-1 6-2 6-2 7-3 6-3 7-4 7-2 6-3 8-3 6-4 6-3 5-2 5-3 5-3 3-2 2-2 4-4 1-1 0-1-1-1-1-1-2 0-3-1-3-1-4 0-10-2-6-1-7 0-6 1-7 0-7 2-7 1-6 1-7 2-6 2-6 3-6 3-5 3-5 5-5 3-5 5-4 4-3 5-3 6-3 5-3 6-2 6-2 6-1 6-1 6 0 7 1 7 1 6 2 7 6 13 9 13 6 6 6 5 6 6 8 4 7 5 9 3 9 4 10 2 9 2 11 2 22 0 11-1 12-2 13-2"/>
<path d="M3702 4746l-1-2-2-2-3-2-3-2-2-2-4-3-3-2-3-2-3-2-2-1-3-1-2-2-3-1-3-1-3-1-4 0-3-1-4 0-4 1-5 0-5 2-6 1-5 2-6 3-7 4-5 4-5 5-6 5-6 5-5 6-4 4-4 6-5 5-2 5-3 4-1 4-1 4 0 6 0 3 1 2 1 3 3 3 2 2 4 3 4 2 10 3 6 1 6 1 7 0 6-1 7 0 7-2 6 0 7-2 6-2 6-1 6-3 5-2 4-1 3-2 4-1 2-1 2-1 1-1 0-1 1 0 0-1 0 1-1 0 0 1 1 0 1 1 2 0 2 1 2 0 3 2 4 0 4 2 5 1 5 1 13 3 7 1 7 2 8 0"/>
<path d="M3916 4729l 0-4 1-4 0-10-1-5-1-6-1-5-2-5-3-4-4-3-3-2-4-2-4-1-10-2-11 0-10 3-6 2-5 2-6 4-6 4-7 5-6 6-6 6-6 7-6 8-7 7-5 8-10 17-5 9-4 9-3 10-3 10-3 9-2 9 0 9 0 8 1 8 2 7 2 7 3 6 4 5 3 5 5 5 6 4 6 3 6 2 7 1 8 1 7-1 10-1 9-3 9-5 10-6 10-7 11-9 11-10 21-24 11-13 11-14 10-15 9-16 9-15 9-17 7-16 6-16 6-17 1-9 3-9 2-10 1-11 2-11 0-13 0-26 0-15-1-15-2-15-2-17-3-16-2-17-4-17-4-18-3-16-4-16-5-15-5-13-4-13-4-10-10-19-4-6-5-6-4-4-4-1-5-1-5 1-4 3-4 3-3 6-4 7-3 7-4 9-3 11-3 11-2 12-3 14-2 15-1 16-2 33 1 32 2 32 2 31 3 27 3 27 4 23 3 19 3 18 3 17 4 16 2 15 4 15 4 13 3 13 4 12 3 12 5 10 4 9 3 8 5 6 3 6 4 4 3 3 3 2 3 1 3 0 3-2 4-1 4-3 5-4 7-6 6-6 7-8 6-8 7-9 7-8 6-9 7-8 6-7 6-7 5-6 5-6 5-6 4-5 4-5 3-4 3-4 2-3 2-4 1-2 1-3 0-6 0-3-1-2-1-3-2-3-1-3-2-3-1-2-2-3-2-2-1-2-2-2-1-1-1-1 0-1-1 0-1-1-1 0 0 3 1 1 0 1 1 3 1 6 2 4 0 4 2 4 1 4 2 4 1 4 2 4 6 13 2 5 3 5 2 5 3 5 3 6 3 6 3 6 3 6 3 6 4 8 2 6 4 7 4 7 3 7 4 7 3 7 3 6 3 5 3 6 3 5 3 4 1 4 1 4 2 2 1 2 0 1 0 1 0 1-2 0-2 0-4 1-3 1-5 1-6 1-7 0-7 1-9 2-8 1-8 0-33 0-7 0-7-1-6-1-6-1-5-1-5-1-4-2-4-1-2-1-3-1-3-1-1-1-1 0 0-1 3 0 1 0 14 0 5-1 7 0 8-1 7-1 9-1 9-1 8 0 9-2 10 0 9-2 10 0 9-1 10-2 11-2 10-2"/>
<path d="M4222 4276l-1-1 0 0 1 0 1 0 1 1 2 1 2 2 3 2 2 3 5 3 4 4 5 4 6 6 5 6 8 6 7 8 9 8 18 18 9 10 9 11 10 12 10 12 10 13 10 14 9 14 9 15 10 15 8 16 8 16 15 32 11 32 10 31 8 29 5 27 2 24 2 23 0 39-2 20-2 20-3 19-2 19-4 18-5 19-6 17-6 16-7 16-8 15-9 14-8 14-9 13-9 12-9 11-8 10-8 8-8 7-7 6-7 5-6 4-5 2-5 0-4 0-3-3"/>
<path d="M4625 4645l-1-1-1-1-2-2 0 0 0-1 2 0 1-1 2 0 3-2 2-1 3 0 4-2 5-2 5-1 7-3 7-2 7-2 9-3 10-2 10-3 11-3 10-2 12-3 11-2 12-3 12-2 12-2 11-1"/>
<path d="M4601 4770l 1-1 0-1 1-3 2-2 1-2 3-3 4-3 5-3 7-3 7-3 10-5 10-3 12-4 12-4 14-3 12-3 13-3 13-3 14-2 13-2 14-2 14-2 14-2 15-2 13-3 16-2"/>
<path d="M5266 4295l-1-1 0-3-1-1-1-2-1-2-2-5-1-2-1-2-1-2-2-4 0-2-2-3-1-1 0-1 1 0 4 0 2-1 3 0 3-1 5-1 5-2 5 0 7-2 7-1 8-2 8-3 9-1 10-2 20-3 11-1 19 0 10 1 9 1 9 3 9 2 8 5 7 3 7 5 6 6 5 6 3 7 4 8 2 8 1 7 1 9-1 9-2 10-3 10-4 10-5 10-5 10-8 11-7 11-8 10-9 10-10 10-11 10-11 10-12 10-12 10-13 8-13 10-13 7-13 8-13 7-12 8-13 7-13 6-12 7-12 6-10 5-10 4-10 5-8 5-7 3-6 4-6 3-5 2-4 3-4 2-2 1-2 1-1 1 1 1 1 0 3-1 3 0 4 0 5-2 6-1 7-1 7-1 8-3 10-1 10-2 10-2 12-2 13-2 12-2 13-2 14-2 13-2 13-2 12-1 13-2 13-1 12 0 12-1 12-1 11 0 11 0"/>
<path d="M5514 4590l 1 0 0-1 1 0 2 0 1-1 2-1 3-1 4-2 4-2 5-3 6-3 7-5 8-5 7-5 10-7 9-8 10-7 11-8 11-10 12-9 11-10 12-11 12-11 12-11 10-13 12-12 9-12 11-11 9-13 9-13 9-14 8-13 8-14 6-15 6-14 4-14 4-14 4-14 2-13 1-13 1-12 0-11 0-10-2-10-1-8-2-8-3-7-4-5-3-4-5-3-3 0-5-1-5 1-5 2-6 3-6 3-5 5-7 6-6 6-6 8-6 9-7 9-6 9-6 12-6 12-5 13-5 13-5 14-3 14-4 14-3 15-3 14-4 29-1 14 0 14 0 14 0 13 2 12 4 23 3 12 4 10 4 10 4 8 5 9 5 8 6 7 6 6 6 6 6 5 6 4 7 4 7 3 6 2 7 2 7 1 6 0 7-1 7-1 6-2 6-2 6-2 10-7 5-4 3-3 4-4 3-4 4-8 1-4 0-4 0-4-2-3-1-4-2-3-3-3-4-3-3-3-5-2-4-3-5-2-10-4-5-2-4-2-5-1-5-2-7-3-3 0-2-1-3-1-1 0-1-1 8 0 4 1 10 0 7 0 31 0 10 1 43 0 12-1 11 0"/>
<path d="M5069 4872l 4-2 4-2 6-2 8-3 11-2 11-4 14-4 13-4 16-3 17-5 19-5 20-5 21-6 22-7 25-6 26-7 27-7 29-7 29-8 30-7 31-8 31-7 30-6 32-6 30-6 31-6 30-5 29-4 30-4 29-3 28-3 26-3 27-2 26-1 25-2 24-1 23-1 22 0 22-1 20-1 83 0 13 1 11 1 18 0 7 1 12 0 2 1 2 0-11 0-6-1"/>
<path d="M5506 4933l 1-1 0-2 2-1 1-2 0-2 2-1 0-1 0 2 0 2-1 3-1 4-2 4-2 6-3 8-3 10-5 10-5 12-5 13-7 14-7 14-7 16-8 16-8 16-8 17-10 17-8 17-10 18-8 17-9 16-8 17-8 15-7 15-7 13-5 12-4 11-4 9-2 6-3 5 0 4-1 2 0 0 1-1 2-2 2-3 4-6 5-7 5-8 7-12 8-13 9-15 9-16 9-17 8-16 8-17 7-17 6-16 6-16 5-15 5-15 3-13 5-13 3-12 4-10 3-10 2-7 2-6 1-4 1-3 1-2 0 0 0 4 1 3 2 4 0 5 2 6 2 8 2 10 2 9 3 9 7 22 4 10 4 11 4 10 5 11 6 11 6 12 5 11 7 11 6 11 7 10 15 19 14 17 7 6 7 7 7 5 6 5 6 4 6 4 5 2 6 2 4 1 5 0 5 0 5-2 6-3 6-3 6-6 7-7 7-8 8-10 7-11 9-13 8-12 8-14 8-15 7-16 5-15 7-17 6-17 5-17 4-18 3-19 3-19 2-19 2-39-1-18-1-19-1-16-2-15-2-13-3-12-2-10-3-7-3-6-3-4-2-3-3-2-2-1-3-1-3 1-3 1-2 2-3 3-2 3"/>
<path d="M549 5867l 0-1-1 0 0 2 1 0 0 1 1 2 0 3 1 2 1 3 1 5 1 4 1 6 1 6 2 8 0 8 2 10 0 11 0 12 0 14 0 14-1 16-1 34-1 19-2 20-2 21-3 21-2 22-3 22-4 23-3 21-4 23-4 22-3 21-4 21-3 19-3 19-3 16-3 14-2 13-1 12-3 10-1 8-1 7 0 4 0 1 0 0"/>
<path d="M480 5937l-1-1 0-1-1-1-1-2-1-1-2-6 0-1-1-2-1-1 0-2 2-2 2-1 3-2 3 0 4-2 5-2 6-2 7-2 7-3 18-6 10-3 11-4 11-4 13-3 12-4 13-3 12-2 13-3 12-3 13-2 11-2 12-2 12-1 11-1 10-1 19 0 10 1 7 1 8 2 7 1 6 2 6 2 5 3 3 3 3 4 2 5 1 5 0 6-1 7-2 7-3 7-5 9-5 9-5 9-7 10-8 11-9 11-9 12-10 11-9 11-11 10-10 11-11 10-11 10-11 9-23 18-11 7-10 5-10 6-9 6-8 4-8 4-7 3-7 2-6 1-5 1-5 1"/>
<path d="M1038 5672l-4 0-2 1-3 0-3 1-4 2-3 2-4 3-3 5-3 4-5 6-5 6-5 9-5 8-7 10-5 12-7 12-6 14-8 14-7 16-8 17-8 17-8 20-8 20-8 20-10 22-8 24-9 24-9 25-9 25-4 12-5 14-4 14-4 16-5 16-3 17-3 16-4 18-3 17-3 18-2 18-2 19-2 17-1 20 0 18 0 37 2 18 3 31 6 26 6 24 7 20 8 16 7 13 9 10 7 6 8 6 7 3 9 3 19 0"/>
<path d="M1033 6348l 1 0 1-1 1 0 2-2 3-2 2-2 4-4 4-4 6-6 5-6 7-8 8-8 7-8 7-10 17-22 9-12 9-13 10-14 9-15 11-14 11-17 10-16 10-17 10-18 10-17 9-18 9-15 9-17 6-18 7-17 6-17 4-17 5-17 2-17 3-17 2-18 0-17 0-16 1-16 0-15-1-13 0-12-2-10 0-8-2-6-1-4-1-3-1-2-2 0-1 0-2 1-3 2-3 3-4 4-5 5-5 7-6 9-7 10-7 13-7 13-8 16-6 17-7 17-7 20-8 20-7 20-7 22-7 21-6 21-5 22-6 22-5 22-4 23-3 22-2 21-2 21-1 20 0 19 1 19 2 18 2 15 3 15 4 13 4 11 5 11 6 9 6 8 7 7 6 6 8 5 7 4 7 3 9 3 8 1 9 0 9-1 9-2 8-2 10-4 8-5 9-5 8-6 7-6 7-7 6-7 6-7 5-8 4-7 3-7 2-7 3-7 1-13-1-5-2-5-2-5-3-5-3-5-5-4-5-4-4-2-5-4-5-3-11-4-6-1-5-2-6-1-15-3-3-1-4-1-4 1-2-1-1 0-2-1 0-1 1-1 0-1 1-1 1 0 2 0 3-1 3-2 4 0 5-2 7-1 8-1 8-2 10-2 8-2 20-1 11-2 12-1 12-2"/>
<path d="M1804 5799l 0-6-1-3 0-10 1-3 1-2 0 0 0-1 2 0 0 1 1 1 0 2 1 2 1 3 1 5 2 7 1 8 1 11 1 12 0 31-1 18-2 20-3 20-3 23-4 23-4 24-6 26-5 26-5 25-5 26-5 25-4 27-5 25-4 25-4 23-4 22-4 21-3 21-4 18-3 18-4 15-2 12-2 12-2 10-1 6 0 5-1 5 0 3 2-1 0-2 0-3 2-3 3-4 2-6 5-9 5-10 5-11 6-13 7-14 7-15 9-15 8-14 8-14 8-14 7-14 8-13 6-13 7-10 7-11 6-10 6-8 5-7 6-7 6-5 5-5 5-4 4-3 4-2 4-2 3-1 3-1 2 0 1 1 2 0 2 2 2 1 2 3 2 3 1 3 1 5 2 4 1 6 1 6 0 22-1 9-1 9-3 20-1 9-2 10-3 10-1 10-1 10-2 8-1 9-1 8-1 8-1 7 0 19 1 5 1 4 2 5 2 2 2 3 4 2 4 2 4 1 5 0 6-1 7-2 6-2 7-5 8-5 8-5 8-8"/>
<path d="M2045 6204l 0 1-1 0 0 4 1 1 0 1 1 2 0 0 1 2 2 2 2 1 3 2 2 2 5 1 5 2 4 0 6 0 5-1 7-1 6-1 7-2 6-3 7-3 6-4 6-3 7-4 6-5 6-4 5-5 5-4 4-5 5-5 3-5 3-3 2-4 2-4 1-4 0-5-1-2-1-3-3-3-3-2-3-3-5-2-5-2-6-3-6-2-13-3-7 0-7-1-7 1-7 0-6 2-6 2-8 4-5 3-5 5-7 5-6 7-12 15-5 10-5 10-5 10-5 10-2 12-4 11-2 11-2 11-1 10 0 9 1 9 1 9 2 8 2 8 3 8 4 7 3 7 5 7 5 6 5 5 6 4 7 5 8 3 9 2 9 1 10 0 11-1 11-1 12-2 12-4 12-3 13-5 12-4 13-5 12-6 12-5 12-5"/>
<path d="M2374 6214l-1-1 0-3-3-2-2-3-2-3-3-4-3-3-3-3-3-2-4-3-3-2-4-2-5-1-3-2-5 0-5-1-5-1-4 1-10 1-5 3-6 2-5 3-6 3-6 4-5 5-6 5-6 5-6 6-5 6-5 6-4 6-4 6-3 7-4 6-2 6-3 6-2 6-2 6-1 5 0 4 0 5 0 4 1 3 2 3 1 3 2 3 2 2 7 3 4 1 4 1 5 0 5-1 5-1 6-1 6-2 6-1 7-3 6-4 11-6 5-3 6-4 4-3 5-2 3-3 4-2 3-3 3-1 2-1 2-1 1-1 2-1 1 0 0 1-1 2 0 0-1 0 0 2 1 1 0 2 0 2 2 1 1 2 1 2 1 2 2 2 2 2 2 2 2 2 4 2 3 2 8 3 5 1 5 1 6 1 6 0 6 1"/>
<path d="M2564 6178l-1-1-1-2-2-1-2-2-3-3-2-1-3-2-2-1-3 0-3-1-4-1-4 0-4 1-4 0-5 1-5 0-5 2-6 1-5 1-5 3-6 2-5 2-6 3-6 3-6 4-6 4-6 6-6 6-5 5-6 7-6 7-6 8-5 8-4 8-5 8-3 9-4 8-3 9-2 8-1 8-1 8 0 7 1 7 1 6 2 6 3 5 3 5 3 3 4 4 5 2 4 2 6 2 6 1 6 0 7-1 7-1 8-2 9-3 8-4 9-6 9-7 10-7 10-8 9-10 10-10 10-11 10-11 9-11 9-13 9-13 9-15 7-14 7-15 7-16 5-15 5-17 4-16 5-18 3-17 3-18 2-18 2-19 1-18 1-20 0-19-1-19-1-19-1-18-2-17-2-15-1-15-2-12-2-10-2-8-2-6-1-5-2-3-2-2-1-2-2 0-1 2-2 2-2 3-3 4-3 7-3 7-5 10-4 11-5 14-5 15-5 15-5 18-4 17-3 18-3 19-3 19-2 19-3 20 0 19-2 19 0 54 2 16 1 16 2 14 2 13 3 12 2 10 4 10 4 7 3 6 4 5 5 4 4 3 4 2 5 2 5 1 9 0 6-1 5-2 5-2 6-2 6-4 6-4 7-5 5-5 7-4 5-6 6-5 6-6 5-7 5-7 5-7 5-7 4-7 4-6 3-8 2-6 3-6 1-5 1-4 1-4 0-10-1-1 0-1-1 0-1 1 0 0-1 1-1 0 0 1-1 0 1 1-1 1 1 0 0 1 1 2 0 3 1 4 0 3 1 5 1 6 3 5 1 5 1 6 3 7 2 5 3 6 2 6 3 5 2 5 3 6 2 4 2 3 3 5 2 3 2 4 2 3 2 3 1 3 2 3 1 3 1 3 0 4 1 3 0 7-1 3-1 3-2 5-1 3-2 4-2 3-3 4-3 4-4 3-3 3-4 2-4 3-4 2-4 1-4 3-4 0-5 1-5 1-5 1-4 0-5 0-4 0-5 0-9 0-3-1-7 0-2-1-4 0 1 0 0-1 12 0 5 1 20 0 7-1 16 0 8-1 9-1 7-1 8-2 8 0 8-2 8-1 7-2 6-1 8-1 12-3 7-1"/>
<path d="M2723 5811l 0-2-1 0-1-2 1 2 2 1 2 2 3 1 4 2 5 4 6 3 6 4 7 5 8 6 8 5 8 7 8 6 10 7 8 8 10 7 8 8 9 8 10 9 19 18 9 11 9 9 8 11 8 11 7 11 8 11 6 12 7 12 6 12 6 14 5 13 4 13 4 13 4 14 4 13 3 13 2 14 2 13 2 13 0 27-1 15-2 13-2 14-3 14-5 14-4 15-6 14-6 13-6 15-8 15-7 15-9 14-9 14-9 15-9 13-9 14-20 25-10 12-9 11-9 10-10 10"/>
<path d="M3132 6106l 0-1 1-1 1-2 2-1 2-2 3-2 3-2 4-2 6-3 6-2 6-2 7-3 7-1 7-2 7-3 8 0 7-1 7-1 7 0 7 1 7 1"/>
<path d="M3086 6213l 0-1 1 0 0-1 1-1 2-1 2 0 4 0 4-2 6-1 6-2 8-2 8-3 9-2 9-2 10-2 11-1 10-2 12-1"/>
<path d="M3640 5590l-1 0 0-1-4 0-1 2 0 1-2 3-1 4-2 5-3 7-3 8-4 11-3 11-5 14-4 15-5 16-5 17-5 17-4 19-5 18-5 20-12 40-5 20-5 20-6 20-5 20-4 19-5 19-3 17-3 16-3 13-2 12-1 9 0 7-1 5 0 7 1 0 0 0 2-2 1-4 2-4 3-7 4-10 5-11 5-14 6-15 7-18 7-18 7-19 7-19 7-20 7-19 6-20 5-20 4-19 5-18 3-18 4-16 2-16 3-13 1-12 2-10 1-9 1-6 0-5 1-4 1-2 0-2-1 0 0 1-1 2 1 1 0 12 1 7 0 7 1 11 2 12 1 12 2 13 2 15 3 14 2 15 3 14 4 15 3 15 3 14 4 15 3 15 5 14 3 14 5 12 5 13 5 12 5 11 5 10 5 9 6 8 5 7 6 5 5 5 6 4 5 3 6 2 5 1 5 1 5-1 6-1 5-3 5-3 6-5 6-6 6-7 7-10 7-11 7-12 7-13 6-14 7-15 6-15 5-16 5-16 3-16 3-17 3-17 1-18 1-17 0-18-1-17-3-33-2-15-2-14-3-14-2-13-3-12-3-12-2-9-4-9-3-7-2-7-3-5-2-3-2-4-2-1-1-2-1-1 0-1 0 0-1 1 0 1 1 0 0 2 0 3 1 2 1 5 2 5 2 5"/>
<path d="M3638 6170l 0-1-1 0 0-1 0 0-1-1-1 0 0 2-1 2 0 5 0 4-1 6-1 6-1 8-3 17-1 9-3 10-1 10-2 9-2 10-2 9-2 10-1 9-2 10-3 8-2 10-2 9-1 9-3 10-4 19-3 9-4 19-2 8-2 8-2 8-1 7-1 7-1 7-1 5-1 5-1 3 0 4-1 3 0 3-1 1 0 1-1 1 0 1 1 0 0-1 1 0 0-1 0 0 0 0 1 0 0-2 1 0-1 0 1 0 0 0 0 0 0 0 0 0-1 0 0 0 1 0 0-3 0-2 0-2 1-3 1-3 1-5 1-5 1-4 2-5 1-4 2-4 1-4 2-3 2-3 1-3 2-4 2-3 3-4 2-3 2-3 3-4 2-3 3-3 3-3 2-3 3-3 2-2 4-3 3-2 3-2 3-2 4-1 3-2 5-1 3-1 5-1 3 0 4-1 8 0 9 2 5 1 4 2 4 2 5 2 5 3 5 2 4 4 4 4 5 3 3 4 4 4 3 4 3 4 2 3 2 4 2 4 1 5 0 4 0 8-1 5-2 5-2 6-3 7-3 5-4 7-5 7-5 6-5 7-5 7-6 6-7 7-5 6-6 7-6 5-6 5-7 5-5 5-7 4-7 2-7 4-7 2-7 1-7 2-7 0-13 0-5 0-6-3-6-2-5-3-4-3-4-4-3-5-2-6-3-6 0-7"/>
<path d="M3522 5662l-1-1-3 0-2 1-2 0-3 1-3 3-3 2-4 3-4 4-5 4-5 6-6 6-5 8-7 9-7 10-6 10-8 13-9 12-8 15-10 15-9 16-10 17-11 18-10 19-10 20-10 20-10 22-10 23-10 21-9 24-9 23-9 24-8 24-8 24-6 24-6 25-5 25-4 26-4 24-2 24-1 24-1 23 1 23 1 22 2 22 4 21 4 20 6 20 7 20 7 19 9 17 10 16 10 16 11 15 12 14 12 13 13 11 14 10 14 9 16 7 16 7 16 5 17 3 18 3 18 1 18-1"/>
<path d="M3956 5685l 1-1 0 1-1 1 0 1 9 17 4 7 20 40 6 13 6 12 6 12 7 13 6 12 6 12 7 13 7 13 7 12 6 13 7 13 7 12 6 14 6 13 6 13 4 14 4 14 4 14 2 15 1 16 0 17 0 18-6 39-4 21-5 22-5 21-8 23-7 24-8 23-8 24-9 25-10 24-10 24-10 25-10 22-11 24-11 21-11 23-21 41-10 19-9 17-9 16-8 15-8 14-7 12-7 10-5 8-4 6-4 4-2 3-2 1"/>
<path d="M4255 6155l-1 0 0 1 2 0 0 0 3 0 2 1 3 1 4 1"/>
<path d="M4536 5917l-1-2 0-2-1-2 0-3-1-2-1-3 0-2 0-2 0-1 1 0 1 0 1-1 2-1 3-1 5-2 5-2 7-4 7-3 8-3 9-4 10-3 10-4 10-2 11-2 11-1 12-1 22 0 13 1 11 1 11 2 11 3 12 3 10 2 11 3 10 4 10 4 10 5 9 4 9 5 7 6 7 6 7 6 5 7 4 7 3 8 2 8 1 9 0 9-1 11-2 12-5 13-5 14-6 14-8 17-9 16-11 17-11 17-12 20-13 20-13 20-14 20-15 20-16 21-16 21-16 20-17 20-16 18-17 18-17 17-16 15-16 16-15 13-15 13-15 12-14 11-14 10-13 8-12 9-11 7-12 7-10 6-10 6-8 5-8 4-7 4-7 4-4 2-4 2-3 1-2 2-2 1 0 0 1 0 1-1 1 1 2-1 3 0 3-1 5-1 6 0 7-2 8 0 8-2 10 0 9-2 9-1 10-1 10-2 10 0 10-2 10 0 10-2 10-2 10-2 20-3 9-3 10-2 9-2 10-2 9-2 8-2 9-3 9 0 8-3 9-1 7-2 8-1 7-1 7-2 6 0 5-1 5-2 5 0 3 0 4-1 3 0 2-1 5 0 3 0"/>
<path d="M4959 5882l 0 1 2 0 1-1 2 0 1-1 3 0 4-1 3-2 5-1 5-1 5-3 7-2 6-1 6-2 13-3 6-2 7-1 7-1 7-1 6-2 8-1"/>
<path d="M5223 5731l 1 0-1 0 0 1-1 0 0 0 0 1 0 2-1 0 0 34-2 8 0 10-2 10-1 10-2 10-2 12-3 11-3 11-4 12-3 11-5 11-5 12-4 12-10 21-4 10-4 10-5 7-3 8-3 6-2 5-2 4-2 2-1 2 0 1 0-1 1-2 1-2 1-3 2-5 2-6 3-8 4-9 4-12 5-12 5-13 5-14 5-13 5-15 5-12 4-13 3-12 3-11 3-10 3-10 2-8 2-7 2-7 1-5 2-5 0-5 0-3 1-2 0-4-1 0 0 1 0 0 0 3 0 2 1 4 0 4 1 5 0 6 1 7 2 8 1 8 1 8 3 9 2 9 3 9 2 8 4 8 4 9 3 8 4 7 5 7 4 7 4 6 5 6 5 6 4 5 4 4 4 4 5 3 3 3 5 2 3 2 4 1 3 0 7 0 4 0 4-3 4-2 5-3 4-5 5-5 5-7 4-6 5-8 5-9 4-7 4-9 4-9 3-8 3-9 3-9 3-9 2-9 2-9 3-19 2-18 0-30-1-9-1-10 0-10-1-9 0-9 0-8-1-7-1-5 0-5 0-4-1-3 0-2-1-1 0 0-1 0 0 0"/>
<path d="M565 7293l-1-1 0-1 0-1 0-2-1-1 0-3-1-1 0-3 1 0 0-1 1 1 0 0 0 1 1 1 1 1 0 1 1 3 0 2 1 3 0 5 1 4-1 6 0 7-1 8-1 9-1 11-1 10-3 12-2 15-3 15-3 16-4 18-3 19-5 19-5 20-5 21-5 21-5 22-5 22-5 23-5 23-5 22-5 22-5 22-5 22-3 21-4 20-3 19-4 18-3 18-1 16-2 15-1 14-1 12-1 11-2 10 0 8 0 7 0 6"/>
<path d="M499 7308l-1-1 0 0-1-1 0-1-2-2 0-1 0-1 0-2-1-1 0-1 1-2 0-2 1-2 1-2 2-2 1-2 3-3 3-3 4-2 3-2 5-4 5-4 6-3 6-4 7-4 7-4 8-3 8-4 8-3 9-3 8-2 9-3 9-2 8-2 9-1 9 0 18 0 8 0 8 1 7 2 8 3 7 2 7 3 6 4 6 3 6 5 5 5 5 6 5 6 4 6 4 7 2 7 3 8 2 8 0 10 1 10-1 10 0 10-2 11-3 11-4 12-4 12-5 12-7 13-6 13-7 12-8 14-9 12-8 12-9 11-10 11-10 11-10 10-10 9-10 8-10 8-9 7-9 5-9 5-8 5-8 3-8 3-7 2-7 2-10 1-5-1-3 0-2-2-3-1 0-1-1-3"/>
<path d="M1031 7133l-1-1 0 1-1 0-2 1-1 0-2 2-2 1-2 1-1 1-2 3-2 2-2 2-2 3-2 3-2 3-3 4-3 4-3 5-3 6-3 5-4 6-3 7-3 6-5 6-3 8-4 7-5 9-5 9-5 10-5 10-6 12-7 13-7 12-7 15-6 15-8 15-8 15-7 17-8 16-8 17-4 10-4 10-5 10-10 23-5 14-5 13-5 13-5 14-6 15-5 14-5 16-5 15-4 16-5 15-5 15-4 16-4 14-3 15-2 13-2 13-3 13-1 12-1 11 0 11 0 11 0 11 1 9 1 9 1 9 2 9 2 9 2 7 2 8 3 7 2 6 3 7 3 5 3 5 4 5 3 5 3 5 7 7 7 7 6 6 6 5 5 2 5 3 4 2 3 2 4 1 3 0 9 0 3-1 3-1 3-2 4-2 3-4 2-3"/>
<path d="M1084 7316l-1 1 0 1 0 1 0 2 0 1 0 0 1 2 0 1 1 2 0 4 0 4 1 4 0 6 1 6 1 7 0 17-1 10 0 10-2 10 0 12-2 13-3 12-2 14-2 14-3 16-3 16-2 16-3 17-5 17-4 18-4 17-4 16-4 17-4 15-5 15-3 13-3 13-3 12-3 12-2 10-2 10-1 8-2 7 0 25 1 4 2 3 1 3 3 3 2 2 3 2 5 0 5 0 4 0 11-3 7-4 8-5 9-5 9-8 9-7 9-9 10-9 9-9 9-10"/>
<path d="M981 7535l 1-1-1 0 1 0 0-1 3-2 2-2 4-1 4-2 5-2 7-2 7-3 8-3 9-4 9-3 9-4 9-4 10-3 10-4 10-4 11-4 11-5 12-2 11-5"/>
<path d="M1235 7534l 1 0-1 1-1 0 0 3 0 2-1 4-1 5-1 6 0 6-1 8-1 8 0 8-3 28 0 10-1 9-1 9 0 10 0 19 0 9 1 9 1 7 1 6 2 6 3 4 3 3"/>
<path d="M1250 7421l-1-1-6 0-1 2-1 1 0 2 0 3 0 11 1 4 2 5 2 5"/>
<path d="M1310 7591l-1 1 0 2-1 1-1 3-1 1 0 3-1 2 0 3 1 1 3 3 2 1 2 1 3 1 3 1 2 1 5 1 13 0 5-1 6-1 6-1 5-2 5-2 6-3 6-3 6-4 5-3 5-4 5-3 4-5 3-3 4-4 4-4 2-4 3-4 2-4 3-4 1-4 1-4 1-4 1-4-1-3-1-4 0-3-2-4-2-2-2-3-3-2-3-1-3-2-5-2-3-1-9-1-4-1-9 0-5 1-4 1-5 1-4 2-5 2-5 3-5 3-4 4-4 4-5 5-4 6-5 5-4 5-4 5-3 7-4 7-3 7-4 7-2 7-3 7-2 8-2 8-2 7-2 7 0 8-1 7 0 8 1 7 1 6 2 7 2 6 3 7 2 6 3 6 5 5 4 5 4 5 5 4 6 3 6 3 7 3 7 2 7 1 16 0 8-1 9-1 8-2 10-4 9-3 11-5 10-5 12-6 12-7 11-7 13-9 11-8 12-8 12-10 11-9 11-8"/>
<path d="M1496 7216l-1-1-3 0 0 1 1 1 0 0 2 2 0 2 2 3 3 3 3 4 3 5 4 6 5 6 5 7 5 6 7 7 6 8 7 8 7 8 6 8 7 8 7 8 8 8 7 8 6 9 7 9 7 8 7 8 6 9 6 9 6 10 5 10 6 10 5 11 4 10 5 12 4 13 3 12 3 13 2 14 2 15 1 14 1 17 1 15 0 82-1 16-1 16-2 15-1 14-2 15-2 13-3 12-2 12-3 10-4 10-3 8-4 9-4 7-5 6-5 7-5 5-6 5-6 5-7 3-6 3-7 2-6 2-7 0-12 0-5-1-5-2-5-4"/>
<path d="M1869 7460l 0 1 1 0 0 1 0 0 0 1 1 0 2 1 1 0 3 1 3 1 3 1 5 0 5 1 5 0 6 1 6-1 5 0 7-1 6 0 7-2 8-1 7-1 8-2 7-2 7-1 7-1 8-2 6-1 7 0 5-1 6-1 5-1 4 0"/>
<path d="M1854 7560l 1-1-1 0 3 0 2 0 4-1 3-1 5-1 6-2 7-3 8-2 8-3 10-4 10-3 10-5 11-4 12-5 12-4 11-5 12-5 11-4 11-5 10-4 11-4 9-3"/>
<path d="M2453 7252l 0-1-1-1 0-2 1 0 3 0 2-2 4 0 3-3 6-1 6-2 7-3 8-3 9-3 10-3 11-4 10-3 12-3 13-5 12-3 13-4 12-4 13-5 13-4 13-5 13-6 13-5 13-5 12-5 13-6 12-5 10-5 11-4 9-4 8-3 8-4 7-3 7-2 5-1 4-2 4 0 3-1 2-1 3 0 1 1 0 4-1 2-1 3-1 3-1 4-3 3-2 5-4 4-4 5-3 5-4 6-3 5-5 5-4 5-3 5-4 5-3 5-4 4-3 4-4 4-2 5-4 5-3 4-3 4-3 5-2 4-3 4-3 5"/>
<path d="M2419 7280l 0-1 1 2 4 0 2 0 3 0 3 1 4 0 5 2 6 0 6 2 7 1 8 0 8 1 8 1 9 0 9 0 9 1 9 1 10 1 10 1 10 1 10 0 10 1 9 2 9 1 10 1 8 2 9 2 7 2 8 2 6 2 7 2 5 3 7 2 5 3 4 2 4 3 4 2 3 2 3 2 2 1 1 2 2 1 1 0 1 1 0 1 0 0 0 1 0 0-1 0-1 1-2 1-2 2-3 2-3 3-5 3-5 5-7 5-6 4-7 6-9 6-9 6-10 7-10 7-11 7-11 9-13 8-12 10-14 10-14 10-13 12-14 12-14 12-14 12-14 12-13 12-14 13-12 13-13 12-12 12-12 13-11 10-10 11-10 12-9 10-8 10-7 10-7 10-10 18-5 7-3 8-2 7-3 7 0 7-1 6 1 6 0 5 2 5 1 5 2 5 3 4 5 5 4 5 5 4 6 4 7 4 8 3 9 3 11 3 12 2 13 1 14 3 14 0 17 0 16 0 17 0 17-2 17-1 18-1 17-1 18-2 17-1 18-2 17-3 16-2 17-2 16-2 16-3 16-1 17-4 15-3 17-3 15-2 15-3 15-3 15-3 14-1 14-3 14-2 13-3 13-2 11-2 10-3 10-2 9-2 9-2 7-1 6-3 5-1 4-2 3 0 3-1 0-1 2 0 0-1 0 1-1-1-1-1-1 0-2-3-3-3-3-2-4-5-6-4-5-5-6-5-6-6-6-5-7-6-7-6-6-5-8-6-7-5-6-6-7-5-6-5-6-4-5-5-5-3-3-3-2-3-3-2-1-1-1-2-2-1-1 0 0-1 0 0"/>
<path d="M2389 8244l 1 1 0 0 0 2 1 1 0 1 1 1 1 1 0 2 1 0 1 1 0 1 0 0 2 1 1 1 1 0 1 1 1 0 2 0 2 0 2 0 2-1 3-1 7-3 4-2 5-3 5-3 5-4 5-4 5-5 6-4 6-5 5-7 6-6 7-6 6-7 6-7 8-8 7-8 6-9 7-8 6-9 6-8 11-17 5-10 9-17 4-9 4-9 2-8 3-9 2-9 3-9 2-10 1-9 1-9 0-27-2-9-1-9-2-8-3-8-2-8-3-8-4-7-2-6-4-6-3-6-3-4-2-4-3-2-2-3-3-2-2 0-1-1-2 0-2 1-2 0-2 1-2 2-2 3-3 3-2 4-3 5-2 6-3 7-4 6-3 8-3 8-2 9-3 10-3 11-2 12-2 12-3 13-2 14-1 14-2 14-1 14-1 13 0 13 0 14 0 12 1 13 1 11 2 12 1 11 2 11 3 9 2 10 3 9 3 8 3 8 4 7 3 6 4 6 4 4 4 4 5 4 4 4 4 2 5 3 4 1 6 1 5 1 6 1 5 0 6-1 6-1 6-1 5-2 7-2 6-2 5-3 6-3 5-3 5-4 4-4 5-4 3-4 3-5 4-4 2-4 2-4 1-3 2-3 0-4 0-9 0-3-2-3-1-3-2-3-2-2-3-3-2-2-3-3-3-2-3-3-4-2-2-3-4-2-3-1-3-2-3 0-2-2-3 0-1 0-1-1-1-1-1 0-1 1 0-1 0 1 0 0 1-2 1 1 2 0 2 1 2 0 3 1 11 0 4 0 5 0 5-1 6-2 6 0"/>
<path d="M3273 7246l 1 0 0-1-1 0 1 0 0 1-1 0 0 9 1 4 0 6-1 6 0 9-1 8 0 11-1 11-1 11-1 11-2 13-1 12-1 13-1 12-2 12-1 13-2 13-1 13-1 13-2 13-2 12-1 12-3 12-1 12-1 12-2 11-2 11-1 12-2 12-2 11-2 12-2 11-2 11-3 11-2 11-3 10-2 8-2 9-2 8-1 8-2 5-1 6"/>
<path d="M3249 7258l 0-1 1-2 0-2 1-1 1-3 1-2 1-2 1-3 2-3 1-2 2-3 3-3 2-2 3-3 3-3 4-2 3-3 5-2 4-1 4-3 5-3 6-2 6-2 7-1 6-2 7-1 7-1 7-1 7 0 8 0 8 0 8 0 7 1 8 1 8 1 9 2 7 1 8 1 6 1 7 3 7 3 5 2 6 3 5 3 5 4 4 2 3 3 3 3 2 3 2 3 2 3 1 4 0 3 0 5 0 5-1 6-2 5-2 7-3 8-3 8-4 9-6 9-6 9-6 9-7 10-8 10-7 10-8 9-7 8-8 9-7 9-8 8-7 7-8 6-8 5-7 6-8 4-7 5-7 4-7 4-8 2-7 4-6 2-7 2-5 2-5 1-5 1-4 0-2-1-2-1-2-3"/>
<path d="M3702 7095l-1 0-4 1-4 1-5 2-5 4-7 3-6 5-7 7-7 6-7 7-7 8-7 8-7 9-8 10-7 10-7 10-8 11-6 12-7 12-7 13-7 14-6 14-7 15-7 15-6 15-6 16-6 16-6 15-6 16-5 16-5 16-4 17-4 16-5 17-2 17-3 17-3 18-2 19-2 19-3 39 0 19 0 19 2 17 2 18 4 15 4 15 5 13 6 12 7 12 7 10 8 8 8 7 8 7 9 5 9 4 9 4 9 2 9 1 9 1 10-1 10-1 10-2 9-4"/>
<path d="M3826 7217l-1 0 0 1-1 0-1 3-1 2 0 5-1 6-1 7-2 10-1 10-2 12-3 14-2 14-3 15-2 16-3 16-3 18-4 17-3 19-3 18-4 19-3 19-3 18-3 19-3 19-2 19-2 18-2 17-2 16 0 16 0 28 0 10 2 10 2 8 2 8 2 7 2 5 3 3 4 3 3 4 5 1 4 1 6 0 5 0 7-2 7-3 8-5 8-5 8-7 9-8 9-9"/>
<path d="M3671 7477l-1-1-1 0-2-1 0 0-2-1 0-1 0 0 1-1 2-1 4-3 4-2 6-3 7-5 8-5 11-5 12-6 12-6 13-7 12-6 15-5 13-6 15-5 13-5 14-4 13-5 13-3 13-3"/>
<path d="M3939 7473l-1 1-1 3-2 1-2 4-2 3-2 4-1 5-3 5-1 6-2 7-2 7-1 8-2 9-1 9-1 12-2 10-2 12-1 12-2 12-1 13-1 11-1 12 0 11 0 11 0 10 2 9 1 7 3 7 3 5"/>
<path d="M3950 7341l-1 0 0 1-1 0-2 3 0 1-2 3 0 3 0 8 0 3 2 5 2 4 3 5 3 4 5 4 4 4 5 4"/>
<path d="M4014 7511l-1 1-1 2-2 3-1 2-1 3 0 3-1 3 0 3 1 2 2 3 1 2 2 2 3 0 3 2 4 1 8 2 5 0 6 0 6 0 5-2 5-1 7-1 6-1 6-2 6-2 6-2 6-2 5-2 6-3 5-4 4-3 5-2 3-4 4-4 3-3 2-3 2-4 1-2 2-3 1-3 0-4-1-3-1-3-2-2-2-2-3-3-3-1-3-2-5-2-5-2-5-1-12-2-6 0-7 0-5 0-7 0-6 2-6 1-6 2-6 2-6 3-6 4-5 4-5 5-5 5-6 7-5 6-5 7-4 7-4 8-3 8-3 7-2 7-2 8-1 8 0 7 1 7 1 8 2 7 3 6 3 7 4 5 5 6 5 6 6 4 5 5 8 4 7 3 8 3 8 3 9 2 10 2 10 1 10 1 13-1 12 0 13-2 13-3 14-4 15-4"/>
<path d="M4456 7153l 0-1-1-1 0-2-1 0-1-1-1-1 0 0 0 0-1 0 0 1-1 1 0 3 0 2-1 4-1 5-1 6-2 8-1 8-2 10-1 12-1 12-3 13-1 14-1 14-3 17-2 15-3 17-2 18-4 17-4 18-4 20-4 20-5 20-5 21-5 21-5 20-5 20-4 20-5 19-3 18-2 16-2 15-1 13 0 12 1 10 2 7 2 7 4 5"/>
<path d="M4586 7566l 1 0 1-1 3-1 3-1 2-2 4-2 6-4 6-4 8-6 9-6 10-8 21-19 12-10 12-11 12-11 12-12 12-13 12-11 12-13 11-13 12-13 10-12 10-12 10-13 10-12 8-13 8-13 8-13 7-12 7-13 5-14 5-13 5-15 3-14 3-14 1-14 1-13 0-13-1-12-1-12-2-10-2-8-3-8-3-6-4-5-3-4-4-2-4 0-5 0-5 3-6 4-7 7-7 8-9 10-7 12-9 13-9 14-7 15-8 15-7 16-7 18-6 16-5 17-5 17-3 16-4 16-2 15-2 15-1 15 0 14 0 14 2 13 2 12 3 12 3 10 5 10 5 8 5 9 6 7 6 6 6 6 7 5 6 5 7 4 7 3 7 2 7 3 6 1 7 1 6 0 6 0 6 0 5-1 5-1 4-2 4-2 3-3 4-1 2-3 3-4 1-3 1-3 1-4 1-4-1-4-1-5 0-4-2-4-2-4-2-4-3-4-3-4-3-3-2-3-3-3-3-2-3-3-2-2-2-2-2-1-1-2-2 0 0-1-2-1 0 0 2 0 0 0 2 0 1-1 3-1 4-1 5-1 6-1 8-1 9-2 9 0 9-2 11 0 11 0 12-1 11 0"/>
<path d="M5117 7546l 1-1 3 0 2-1 3-1 5-1 3-2 7-3 6-4 8-5 8-5 8-6 10-7 10-9 11-9 11-10 13-11 12-11 13-11 13-11 14-12 14-13 14-12 13-12 14-13 13-13 12-13 12-14 11-14 11-15 11-14 9-16 9-14 7-14 8-16 6-15 5-16 4-15 3-17 4-15 2-16 1-16 1-15 0-26-1-10-1-10-2-6-2-6-1-3-2-3-2-2-3-1-2 1-2 1-3 3-3 4-5 5-5 6-5 8-5 10-5 11-5 12-6 14-5 15-5 16-5 17-5 18-5 18-4 19-5 19-10 43-5 22-5 22-5 22-6 21-5 22-6 21-4 19-4 19-4 17-3 16-3 14-2 13 0 10-1 9-1 9 0 6 1 7 1 4 0 3 0 3 1 2 1 0 0 1 1 0 2-1 1-2 3-3 4-4 4-5 6-6 7-7 6-9 7-9 7-9 7-9 6-8 6-7 5-7 5-5 5-5 5-4 5-4 4-3 5-1 4-3 5-2 4-2 4-1 2-1 3 0 2 1 3 0 1 0 1 1 1 2 2 1 0 1 0 2 1 2 0 5 1 2 0 7-1 4 0 13 1 3 0 3 0 3 2 2 1 2 1 2 2 2 2 1 3 2 3 1 4 1 9 0 5-1 5-1 6-2 5-2 5-3 6-3 5-5"/>
<path d="M5534 7463l 0-1 0 2-1 0 0 0 1 0 0 0 4 0 2 0 7 0 4-1 6-1 6 0 6-1 6-2 7-2 6-2 7-2 6-1 6-3 6-2 5-3 5-2 5-3 5-2 4-3 3-3 4-2 2-3 2-3 2-2 1-2 1-2 0-5-1-2-1-1-2-2-3-3-2-2-3-2-3-2-4-1-5-2-5-1-5-1-10-1-11 0-6 0-6 1-5 1-6 2-6 3-6 3-5 3-6 4-4 5-5 4-4 6-4 4-3 6-3 5-1 5-2 7 0 12 2 6 1 5 2 6 3 5 4 6 4 5 4 5 6 4 7 5 7 4 8 5 8 3 9 2 10 3 10 1 11 2 23 0"/>
<path d="M5818 7450l 0-1-1-2-1-3-1-2-1-3-2-2-1-3-2-2-1-2-1-1-2-2-2-1-2-1-2-1-2 0-3-1-3 0-3 1-4 0-3 1-4 2-4 2-5 2-5 3-5 4-5 4-5 5-5 5-5 5-4 5-5 5-3 5-3 5-3 4-2 5-1 4-2 4-1 3 0 3-1 2 0 3 1 2 0 2 1 1 2 2 1 2 2 0 6 2 8 0 5-1 5-1 6-1 6-2 6-2 7-3 5-3 6-4 6-2 5-5 4-3 4-3 3-4 4-3 2-2 2-3 2-3 1-1 0-2 1-1 0-3-1 0 0 1 1 1 0 1 0 1 1 2 1 3 1 3 2 3 2 5 2 3 2 4 3 4 3 4 3 4 3 3 3 3 4 2 5 3"/>
<path d="M6060 7420l-1-1-1-2-2-2-2-2-2-3-2-3-3-2-2-2-2-2-2-2-2-2-3-2-2-2-4-3-2-1-2-1-2-1-3 0-2 0-5 0-3 0-4 1-3 1-5 2-5 2-5 3-5 3-7 5-6 5-6 5-6 7-6 7-6 9-6 7-5 8-4 9-4 8-2 8-3 7-2 7 0 6-1 6 0 5 1 6 1 4 2 4 2 5 3 3 3 3 4 3 4 2 4 1 4 2 6 0 5 0 7-2 7-2 8-4 8-4 10-5 9-7 9-6 9-7 10-7 9-8 9-8 7-9 8-9 7-10 7-10 6-10 6-11 6-11 10-21 4-12 4-12 3-13 3-13 2-14 2-14 2-15 1-15 2-15 0-16 0-14 0-44 0-14 0-12-2-22-1-8-1-7-1-6-1-4-2-3-1-3-1-1-2-1-1 0-2 1-1 1-2 3-4 2-3 4-2 5-4 6-4 8-3 9-4 10-3 12-3 11-2 14-3 14-2 15-1 16-2 16-1 17-1 17 0 16-1 18-1 16-1 15 0 31 0 14 0 14 0 14 0 12 1 11 1 11 1 10 2 9 3 7 2 8 3 5 2 6 3 5 3 4 4 4 3 2 4 2 4 2 5 0 5-1 6-1 6-3 6-4 7-4 8-6 8-6 8-7 8-8 9-7 8-8 8-9 7-8 8-10 7-8 6-10 7-8 5-8 5-8 4-6 3-6 3-6 2-5 1-4 1-3 1-3 0-1-1-2-2-2 0 0-2-1-1 0-2-1-2-1-8 0-2 1-1 1-1 0-1 1 0 0 1 0 0 6 1 3 0 6 1 5 0 4 1 5 1 5 1 5 2 5 1 5 1 5 2 6 2 5 2 5 2 5 2 6 2 5 2 5 2 5 3 5 2 4 3 5 3 4 2 3 3 4 2 3 3 4 3 3 3 3 2 3 2 2 1 2 2 1 1 2 2 2 0 1 0 0 1 1 0 2-2 0-2 0-3 0-4 1-4 1-6 0-5 1-8 1-7 1-9 2-8 0-8 2-8 1-8 0-8 1-6 1-5 0-5 1-5 1-3 0-2 1-1 1-1 0 2 0 0-1 1 0 1 1 6 0 4-1 17 0 8-1 8-1 8-1 9-1 8-1 10-3 8-1 9-2 9-2 9-2 10-2 8-2 9-2 8 0 16-2 9 0"/>
<path d="M6394 7107l 0-1-1-2-1-1-1-2-1-2 0-1-1-1 0-1 0 1 1 0 1 1 2 0 2 1 7 3 5 3 6 3 7 4 7 5 8 6 8 5 9 8 9 7 9 9 9 9 18 17 8 10 8 10 8 10 7 10 7 10 8 11 11 20 6 11 5 11 5 10 5 12 3 10 4 11 3 12 1 11 2 11 0 25-3 12-1 13-4 15-4 14-5 15-6 15-6 15-6 14-7 15-7 15-6 14-8 13-7 12-7 13-7 11-6 12-8 10-7 10-8 10-7 8-8 8-6 6-6 7-5 5-6 4-4 4"/>
<path d="M2771 8038l 1 0 0-1 0 0 0-1 0 1 0 0 0 0-1 0-1 2 0 0-1 0-1 1-1 0-1 2-1 0-3 2-5 4-4 2-4 2-4 3-4 3-5 2-4 3-5 3-4 2-4 2-4 2-5 3-5 2-4 3-4 2-5 2-4 2-3 3-5 2-3 1-4 2-3 1-3 2-4 2-1 1-1 0-1 1 0 0 0 0 0 0 1 0 1 1 0 0 1-1 2 0 2 1 2 1 1 1 2 1 2 1 2 1 2 1 2 1 2 2 3 1 2 1 3 1 2 1 3 1 2 1 3 1 3 1 3 1 3 1 3 1 3 0 3 0 3 1 4 1 2 0 3 0 3 0 3 1 2 1 2 0 2 1 3 0 2 0 1 1 2 0 1 1 2 0 2 0 2 1 1 0 3 2 1 0 1 0 0 1"/>
<path d="M2657 8191l 1 0-1 0 0 1 1 0 0-1 0 0 0 1 0-1 1 1 2 0 0-1 9 0 2 1 29 0 2-1 10 0 3 1 5 0 2-1 8 0"/>
<path d="M2901 7947l 0-1-2-3-1 0-1-1-1 0-1 1 0 2 0 1 0 2-1 3 0 5-2 5-1 5-1 7-2 7-1 8-2 9-2 9-2 9-2 8-2 9-2 9-3 9-2 8-2 8-1 7-2 8-2 6-1 6-2 5-1 5-2 4 0 4-1 3-1 2 0 3 1 1 1-1 0-1 0-1 1-2 1-3 1-3 2-5 2-5 2-6 3-7 2-7 2-8 3-8 2-8 2-9 2-8 1-8 1-8 1-8 1-7 1-8 0-7 0-6 1-6 1-6 0-6 1-4 0-5 0-3 0-4 1-3 1-2 0-2 0-2 0 5 1 2 0 2 1 4 1 3 2 4 1 5 2 6 1 6 2 7 2 7 2 8 1 7 2 8 2 8 1 7 2 7 2 7 3 6 2 5 3 6 2 5 2 5 3 5 3 4 2 4 2 5 2 3 3 3 2 4 2 2 2 2 2 1 3 2 2 0 2 1 2 0 2-1 2-2 3-1 4-3 3-4 3-5 4-5 5-6 5-6 3-8 5-8 3-9 3-8 3-9 3-8 3-9 2-9 2-7 2-8 1-7 1-8 1-6 0-11-1-5-1-5-1-5-1-3-2-4-1-3-2-3-2-2-1-3-3-2-2-1-3 0-1 1"/>
<path d="M3156 7912l 0-1 0 0-1 0 0 2 0 0-1 1 0 2-1 2-1 2-2 3 0 4-3 5-2 6-2 6-3 7-3 8-5 9-5 11-5 10-6 12-7 12-7 14-7 14-9 15-9 15-9 15-10 15-10 15-10 16-10 15-10 16-9 15-10 14-9 14-8 13-9 14-8 13-8 12-7 11-7 11-6 9-5 8-5 7-5 7-3 5-3 5-3 3-1 3-2 2 0 1-1 1 0 0 1 0 0-1 1-1"/>
<path d="M3091 8164l 1-1 0 0 1 0 2 0 2-1 4 0 3-2 2 0 3 0 8 0 3 0 2 0 4 3 2 0 2 2 2 1 1 2 2 2 1 1 1 2 0 2 1 3 0 2-1 3 0 3-2 4-1 3-2 5-2 5-4 4-4 5-4 5-4 6-5 5-4 5-5 5-4 4-5 4-4 4-5 5-5 3-3 4-4 3-5 3-5 3-3 3-4 4-3 2-4 3-3 2-2 3-2 2-2 1 0 1-1 0 0 1 1 0 3 2 2 0 3 0 2 1 4 2 4 0 8 2 5 0 5 0 4 0 6 1 11 0 6 1 6 0 7-1 22 0 7-1 7 0 13 0 7 0 6 0 6 1 6 1"/>
<path d="M6881 7202l 1-4 3-2 1-3 1-2 3-3 1-2 1-1 1-1-1 1 0 1 0 0 0 1-1 2 0 5-1 4 0 5-1 6-2 8-1 9-3 10-3 12-3 13-3 14-4 16-5 16-5 18-5 18-6 19-4 19-7 19-6 20-6 20-6 21-5 20-5 20-5 19-5 18-4 18-3 18-3 17-3 15-2 15-2 12-1 12 0 9 0 19 1 3 2 1 1-1 2-3"/>
<path d="M6889 7228l 0-3 1-1 0-2 0-1 1-2 2-2 0 0 5-2 2 0 4-1 4-1 5-1 5-2 7-1 6-1 8-1 7-2 9-1 8-2 10 0 10-1 9 0 10-1 19 0 9 1 10 1 10 2 9 1 9 3 7 3 8 3 7 4 5 4 6 5 4 5 5 5 3 6 2 6 1 7 1 7-1 8-1 8-2 8-3 10-5 9-5 10-6 9-7 10-8 10-19 20-10 10-10 9-12 8-10 9-13 7-11 7-11 7-13 5-12 5-13 5-12 3-12 3-11 3-11 2-10 1-9 0-8 1-7 1-6 0-6-1-4-1-4 0-2-1-1-1-1 0 0-1 1-1"/>
<path d="M7384 7033l-2 0-1 1-1 0-2 1-3 2-2 2-3 2-2 2-4 4-4 3-4 4-4 5-4 7-6 6-5 7-6 9-6 9-6 10-6 11-8 11-6 13-8 12-7 13-7 13-7 12-7 15-8 14-7 15-7 15-6 15-6 16-5 16-5 14-5 16-4 15-4 16-3 15-3 15-2 16-2 15-2 16-1 15-1 13 0 43 1 14 2 13 1 14 3 12 3 14 3 11 3 11 4 11 4 9 4 8 5 8 4 7 5 6 5 7 5 5 5 5 6 4 5 3 5 3 6 3 6 2 6 2 5 1 6 1 5 1 6 0 11-2 6-2 6-2"/>
<path d="M7324 7579l 0-1 0 1 0-1 1 1 1 0 1-1 1 0 2-1 3-2 3-3 5-4 7-5 7-7 10-8 10-9 10-10 11-10 12-11 10-12 11-12 11-11 10-13 11-12 10-12 10-13 10-13 10-14 9-13 10-15 8-15 8-15 8-14 8-16 7-17 6-15 6-16 5-16 4-16 4-14 2-14 2-12 0-12-1-10-2-10-2-8-4-7-4-5-4-4-5-4-5-2-6-1-5 1-6 1-6 3-7 3-6 5-7 7-8 8-7 10-8 10-8 13-8 12-6 15-8 16-7 16-6 18-6 19-6 20-5 20-4 21-3 21-4 21-2 21-1 20 0 19 1 18 2 17 4 16 4 14 6 13 6 13 7 10 8 11 8 9 8 10 10 7 9 8 9 7 10 5 9 5 10 4 9 3 9 1 9 2 8 0 8-2 8-2 5-3 7-4 5-5 5-6 5-6 3-8 3-7 2-9 2-8 0-8-1-8-1-8-3-8-3-8-4-6-5-7-6-6-7-6-7-5-7-5-7-4-7-3-7-3-6-3-6-2-5 0-5-1-5 1-10 0-1 0 3 0 2 1 2 1 4 1 3 2 4 1 5 2 6 1 6 1 6 1 33 0 9-1 10 0 10-2 20-3 11-1"/>
<path d="M7716 7165l 1 0 0 10 0 5 0 6 1 8 0 8 1 9 1 10 0 11 2 11 0 12 2 12 1 14 1 13 1 15 0 15 1 15 0 32-1 15 0 16-2 17-1 16-2 16-2 18-1 15-2 15-2 15-3 14-2 13-1 11-2 12-1 10-1 10-3 9-1 8-1 6-1 4-1 5-1 2 0 1 0 1 0-3 0-1 1-4 2-3 1-6 1-7 3-7 4-10 3-10 5-10 5-10 6-11 12-20 6-10 6-9 5-8 6-9 5-7 5-6 5-7 5-5 4-3 5-3 4-4 4-2 3-2 4-2 3 0 1-1 2-1 3 0 1 1 3 1 1 0 1 3 2 2 1 3 1 2 1 5 0 4 1 5 0 23-1 7 0 6 1 7 0 35 1 6 1 4 0 5 1 4 1 4 1 3 2 4 1 3 2 3 2 2 3 2 2 1 3 1 8 0 4-1 5-1 5-2 4-2 5-3 4-2 5-3 4-5 4-3"/>
<path d="M7914 7530l 1-5 1-4 0-2-1-1 0-1 0 0 0 0 0 1 0 1 17 0 4-1 5-1 4 0 5-1 5-2 5 0 5-3 5-1 6-1 5-2 6-3 5-3 5-2 4-3 4-3 5-3 3-3 3-4 3-3 2-3 2-4 2-3 0-3 0-8-1-2-1-3-3-3-2-2-3-2-3-3-4-2-3-1-5-2-4 0-5-1-9 0-5 1-5 0-5 2-5 2-4 2-5 3-5 3-3 3-5 4-4 4-4 5-4 5-3 6-4 6-3 5-3 7-2 6-3 7-2 8-1 6-1 7 0 7 1 7 1 7 2 7 2 7 3 6 3 6 4 7 4 5 4 5 6 6 6 4 6 5 7 4 8 4 7 3 8 3 8 2 9 2 8 2 10 1 9 1 19 0"/>
</svg>
