<svg xmlns="http://www.w3.org/2000/svg" viewBox="336 845 18840 8328" stroke="black" stroke-width="20" stroke-linecap="round" stroke-linejoin="round" fill="none" data-xena="0 0 0"><style>@media(prefers-color-scheme:dark){svg{background-color:black;stroke:white;}}</style>
<path d="M931 1288l 1 7 2 9 1 11 0 13-1 15-1 18-1 21-1 22-1 23-2 23-5 28-7 37-7 38-5 31-2 27 0 27-1 28-1 31-2 31-1 32-2 33-1 33-1 32-2 31 0 28-1 26-1 25-1 23 0 19 0 16 1 14 0 13-2 8-4 8-6 7"/>
<path d="M868 1305l 3-8 3-5 5-7 6-7 7-6 4-4 8-5 6-3 8-3 8-4 9-3 9-3 10-4 12-3 13-4 15-4 17-3 17-3 9-2 16-3 16-2 17-1 20 0 21 1 21 2 19 2 18 4 17 5 8 3 15 6 15 7 14 8 12 8 12 10 9 10 9 10 7 11 6 11 4 13 3 8 2 14 0 16-2 17-3 18-2 9-6 19-7 20-9 21-10 23-12 23-4 7-12 22-13 21-13 18-5 7-15 18-8 8-15 15-14 13-7 5-15 10-17 10-8 4-18 8-19 7-20 7-19 6-19 5-9 2-17 4-17 2-16 2-14 1-13-1-12-1-9-1-9-3-5-3-5-3-3-7"/>
<path d="M1589 1292l 3-5 6-7 4-5-6 7 3-5-8 16 2-6 2-6 2-5 1-5-1 9 0-2 37-2-4 4 14-17-6 9-7 13 4-8-7 15-9 20-10 22-12 25-13 28-14 30-14 35-14 38-14 40-12 42-12 41-11 39 1-4-9 39-7 40-6 41-5 41-3 40 0 37 1 33 4 28-1-4 6 21 8 17 9 17 9 16 10 15 10 16 10 15 10 14 10 13 11 12 11 9 10 7 10 5-8-3 11 4 11 2 10 0-9 2 7-2 9-2 8 3 3 9"/>
<path d="M1672 1605l 4-7 4-8 5-7 6-7 6-7 6-6 6-7 7-6 7-5 8-6 8-4 8-5 7-3 9-3 7-3 8-2 9-1 11-2 11 0 11 2 11 3 8 3 10 5 9 6 9 7 9 10 10 12 9 14 8 16 7 17 7 16 8 19 7 19 6 22 2 8 5 22 5 21 5 22 5 22 5 21 6 22-2-9 6 21 7 18 7 18 7 17 9 15 9 12 8 11 8 8 9 8 8 5 9 4-8-3 9 3 10 1 10 0 11-2-10 2 10-4-16 8 10-6-7 6 10-9 12-13-6 7 13-17 14-18 6-7"/>
<path d="M2060 1613l-7 3-9 4 8-4-9 6 7-6-10 8-10 9-11 11-13 12-13 12-14 13 9-9-13 14-13 17-15 17-15 19-16 19-17 20-18 22-18 22-19 24-18 23 4-7-17 23-15 21-14 18-4 6-12 17 4-6-9 15-8 14-6 12"/>
<path d="M2135 1261l 9 3 8 4 9 6 9 7 9 8 9 8 11 9 11 9 11 11 12 11 12 13 12 12 12 13 12 14 13 15 12 16 13 16 13 18 13 18 13 19 13 19 13 20 12 21 11 21 10 22 9 20 7 21 3 9 5 20 3 22 2 23-1 24-2 24-4 25-6 25-2 9-7 24-9 24-9 25-11 24-11 23-4 7-10 19-9 17-9 15-10 17-12 19-13 21-14 19-5 7-13 17-12 14-11 14-9 9"/>
<path d="M2762 1625l 8 3-8-3 8 1 6 1 6 1 5 0 6 1 6 0 6-1 6 0-9 1 7-1 10-3 13-4 14-4 13-4-9 3 11-4 11-6"/>
<path d="M2724 1748l 7-1 8-2-9 2 7-2 7-1 7-2 8-1 8-2 8-2 7-1 7-2 7-2 6-2 9-1 7-1 7 0 7 0 8-1-9 1 8-1 7-1 9-2"/>
<path d="M3583 1291l-4 5-5 5 9-9-5 5-4 6 5-7-5 8-5 9-5 11-7 11-7 12-8 12-6 8-10 13-11 14-10 13-9 11 5-7-9 13-10 16-11 20 4-8-11 21-11 23-11 26-14 32-17 39-17 39-13 35-9 30 1-4-5 28-4 28-3 26 0 25 0 23 2 20 4 17 5 19 5 21 4 21 4 16-2-9 4 14 4 13 5 13 6 12 6 13 7 11 6 11 7 11 6 12 6 10 7 10 6 9 7 7 6 7 6 5 6 4 6 3-8-3 5 2 7 0"/>
<path d="M3783 1405l 2 7 1 8 0 9 0 9 0 11 0 13 0 16 0 19 0 20 0 21-1 20 0 22-1 22-2 22-1 22-2 21-2 22-3 21-2 21-3 22-3 21-3 21-3 19-4 19-3 17-3 15-3 13-3 13-3 12-1 9-1 8 0 6-2 9"/>
<path d="M4045 1679l 6-7 6-5 4-4 8-4 8-4 6-2 7-2 6-2 8-2 7-2 8-1 9-2 9-1-9 2 10-2 10-3 11-3 11-2 12-2 13-4 13-3 13-4 14-3 14-3 14-3 14-4 14-3 14-4 9-1 8 3"/>
<path d="M4523 1605l 0-5 1-9 1-5 4-8 2-5 5-7 3-5 6-7 4-4 5-4 6-6 5-3 4-4 5-4 6-4 7-5 7-3 7-3 9-4 8-2 9-1 7-1 8 2 7 2 8 3 7 4 7 6 7 7 5 9 5 11 5 13 2 9 4 14 4 17 3 17 2 19 3 20 2 21 3 21 2 21 3 21 4 21 4 20 5 20-2-9 6 20 6 18 7 17 8 15 9 13 8 12 10 10 9 10 10 8 9 7 10 5-8-3 10 3 11 3 11 2 13 1 13-1-9 1 14-3-9 3 14-7-7 5 14-10 14-11 14-12"/>
<path d="M4874 1633l-11 4-11 4-13 6-15 6-16 7-17 8 8-4-17 9-18 11-19 12-19 13 7-5-20 15-19 16-19 18-19 19 9-9-18 19-17 21-17 20-16 22 5-7-15 21-13 20-11 19-10 17-7 16 4-8-7 15-5 13-4 8"/>
<path d="M4939 1233l 7 5 6 6 8 8 8 9 9 10 11 12 11 11 11 10 13 11 17 16 18 18 18 19 17 19 17 19 17 20 15 21 15 23 13 25 11 25 10 26 8 25 2 7 6 27 4 27 2 27-1 26-3 25-4 24-5 26-2 7-8 28-10 29-12 29-14 28-3 6-16 26-17 24-4 5-18 21-18 20-6 6-19 20-19 19-17 18-16 16-15 15"/>
<path d="M5835 1223l-7 3 8-4-7 4-9 6-10 7-11 8 8-5-13 9-12 11-14 12-14 14 9-9-14 16-14 17-15 18-15 21 5-7-17 23-17 26-17 29-17 32 3-5-16 35-14 38-13 38-11 38-10 37-9 37 1-4-9 36-7 35-6 35-4 34-1 33 1 29 3 27 5 25 6 22-1-5 7 20 7 19 9 16 8 14 10 13 10 13 10 12 11 11 11 8 12 8 13 5-8-3 13 3 8 3"/>
<path d="M5960 1437l 7-5-5 4-4 4 15-16-4 6 4-8-3 8-4 9-3 13 3-9-4 15-3 17-2 21-3 23-3 24-2 25-2 26-1 26-2 26-2 27-2 27-2 28-2 27-2 28-1 27-1 26 0 23 1 22-2 7"/>
<path d="M6184 1650l 8-1 9-1 10 0 10-1 12 0 11 0 13 0 14-1 17-1 18-2 20-1 20-1 21-2 22-2 23-3 23-2"/>
<path d="M6657 1690l 3-7 3-6 5-8 5-5 6-7 5-6 5-6 7-6 7-7 7-6 7-6 9-6 8-6 10-6 7-5 11-5 10-5 8-3 11-4 9-3 9-3 9-2 9-2 9-1 8 0 9 2 8 3 9 4 8 4 8 7 7 7 7 10 6 10 5 12 5 14 2 8 4 15 3 17 3 17 2 17 2 19 1 19 2 17 1 16 2 15 2 19 2 19 3 18 4 17 4 15-2-8 5 15 6 13 6 11 7 9 9 8 10 6 12 6-8-4 13 3 14 1 17-2-9 2 18-3 19-5 19-7-8 3 20-9"/>
<path d="M6979 1672l 8-2-9 4-10 5 8-4-11 6-12 8 8-5-12 9-13 10-13 12-14 13-15 14-16 16-17 16-17 17 9-10-17 19-18 21-18 23-20 23-19 24-19 24-18 23-17 21-13 19 3-5-10 16 3-6-7 15-5 14-4 12-2 10"/>
<path d="M7176 1502l 7 0 8 0 8 1 8 1 9 2 8 1 8 3 8 3 7 2 7 3 7 3 7 2 5 4 6 3 4 4 5 5 3 4 2 9 2 5-1 6-2 8-2 6-3 7-4 8-4 6-5 8-5 6-5 6-9 9-7 6-7 7-7 7-8 6-6 7-6 6-6 5-8 5-6 4 7-5-4 5 21-34-1 5-2-9 5 5 6 3-8-3 7 2 8 1 8 0 8-1-9 1 9-1 10-2 12-3 9-1 14-3 15-2 17-2-9 1 18-3 9-2"/>
<path d="M7378 1313l 8 1 8 2 8 3 9 4 10 5 11 7 13 10 15 13 15 14 15 15 15 16 15 16 16 18 15 19 14 21 14 23 13 23 12 22 11 22 11 22 10 20 10 22 8 21 7 22 2 8 4 22 2 23-1 25-4 26-2 8-7 28-10 28-14 29-15 31-3 6-18 31-19 30-20 29-3 4-20 27-21 27-21 24-19 23-19 21-16 19-15 17-13 14-5 6"/>
<path d="M8220 1272l 1-4 4-8 1-4-3 9 1-4-1 9-1-2 4 8-3-2 9 2-5 0 9-2-6 2-7 3 8-4-8 5-9 5-11 7 7-5-11 9-12 10-13 11-15 12-17 16-20 19 9-8-22 21-8 9-20 21 7-7-20 23 4-5-19 26-17 29-18 33 3-5-17 35-15 37-13 38-11 38-9 37 1-4-8 37-6 36-5 36-3 35 0 33 2 30 4 26-1-4 6 22 9 20 9 18 12 15 13 13 16 10 16 8 18 7-8-3 18 5 19 3"/>
<path d="M8316 1487l 14-16-4 7 4-8-3 11-4 13 2-9-3 16-2 18-2 21-2 24-3 24-3 26-3 26-3 26-2 27-2 26-1 25-1 27 0 26 1 26 3 23 4 22 5 21-2 8-4 7"/>
<path d="M8523 1646l 5-5 6-6 8-4 6-4 9-3 6-3 7-1 9-2 8-1 11-1 11-1 12-1 12-1 16-2 18-2 21-3 21-2"/>
<path d="M8995 1616l-4-8-1-2 1-9 0-4 4-8 2-4 5-7 3-4 6-7 4-5 5-5 7-6 6-4 7-6 7-5 9-5 8-5 8-5 9-4 9-4 9-3 9-3 10-3 9-1 9-2 9-1 10 1 9 2 8 3 9 4 7 5 7 6 6 7 6 9 5 11 5 12 5 12 4 13 5 13 4 14 2 8 4 14 3 13 3 15 4 14 4 14-3-9 4 14 5 13 5 13 5 12 5 12 6 11 6 11 7 11 8 9 9 8 9 7 10 5-7-4 11 3 13 1-9 1 14-2 16-6-8 3 16-8 17-9 17-10 18-10"/>
<path d="M9362 1531l-5 3-7 3 8-4-8 4-10 6-11 7-13 8-13 10 7-5-14 11-14 12-14 13-15 15-15 15-17 15-17 18-18 18-19 18-20 18-19 18-19 17-17 17 9-8-16 17-13 16-12 16-10 14-9 13 6-7-7 10 5-8-4 10 2-9 1 10-3 9"/>
<path d="M9611 1339l 7 0 8 1 7 1 7 2 8 3 6 4 5 4 3 6 2 9 0 7-3 9-3 7-4 8-5 7-6 6-9 10-6 6-6 6-6 5-5 5-8 5-6 4-6 4 7-6-5 4 15-16-3 4 5-26 3 4 7 4-8-4 7 3 7 1 7 1 6 1 6 2 7 2 6 2 6 2 6 1 7 4 6 2 5 3 4 3 3 3 3 4 2 9 1 4 0 5-2 9-2 4-4 8-2 4-6 7-3 5-5 5-9 10-6 5-6 6-7 4-7 6-7 5-8 4-8 5-8 5-9 5-8 3-10 5-10 4-10 3-9 2-8 2-9 1-10 0-8-1"/>
<path d="M9710 1146l 8 2 10 4 8 3 12 5 12 7 14 8 14 11 15 11 15 13 15 13 15 15 15 16 14 17 14 17 14 18 15 21 15 24 13 24 11 21 10 19 10 20 10 25 2 7 8 30 6 29 5 25 5 24 3 28 1 27 0 24-2 25-6 31-2 7-10 33-12 32-13 30-14 29-2 4-16 29-18 28-3 4-20 27-22 26-5 5-25 25-28 24-32 23-3 3-33 22"/>
<path d="M894 3099l 0 6 0 9-1 14-1 16-2 18-2 20-2 23-3 25-6 27-6 28-6 26-2 8-8 30 2-8-11 42-13 48-12 46-8 40-5 33-5 30-6 31-5 32-6 31-5 34-5 37-5 36-1 34 4 32 1 18-1 8-2 9"/>
<path d="M777 3113l 4-6 3-6 4-5 6-7 7-6 5-4 7-5 8-4 9-5 9-4 11-5 11-5 8-3 12-4 12-4 13-3 14-4 14-2 9-2 15-2 16-3 19-1 20-1 20 0 19 1 17 2 16 3 13 4 13 5 8 3 16 6 15 8 15 7 13 9 10 8 9 10 6 11 5 12 2 8 4 13 1 13 0 14-2 12-3 9-5 11-4 8-8 12-6 8-13 15-9 9-16 16-18 15-7 5-19 13-19 12-21 11-20 11-19 10-19 10-8 4-19 9-16 8 8-4-16 8-8 4-15 7-15 6-14 6-14 4-13 3-9 2-12 3-11 0-9-1-8-1"/>
<path d="M2005 3007l 9 1-8 0 9-1-7 2 15-9-6 5 9-10-6 7-7 9-8 10-9 12 5-7-9 14-10 18 5-9-10 21-10 24-9 25-10 26-12 30-15 39-18 41-17 42-17 43-15 44-13 43-11 37-9 38 1-4-10 44-9 45-5 42-3 40 0 38 2 36 5 33 7 30 8 27-2-5 10 25 10 23 10 18 9 13 10 10 12 9 11 11 12 13 13 12 12 10 11 7 9 5-8-3 9 2 9-1-9 2 8-4-8 4 8-4 9-4"/>
<path d="M2086 3290l 9-1 5-1 5-1 7 1 8 0 7 1 7 1 5 1 6 2 6 2 8 4 9 3 9 5 9 4 8 3 7 5 8 6 8 8 8 10 8 10 7 12 7 14 6 15 6 18 6 19 6 20 2 9 6 20 5 21 5 22 5 21 4 20 5 19 5 19 4 18 5 18-3-9 5 17 5 15 6 14 6 14 6 12 8 12 7 9 7 8 7 7 8 4-8-3 9 2 11 0 11-2-9 2 11-4-8 3 12-6-8 5 12-8 12-9 12-8 13-10 12-10"/>
<path d="M2373 3351l-8 1 8-2-8 2-9 3 8-3-8 4-9 6 7-6-9 8-11 8-11 10-11 12 9-10-11 13-12 13-13 17 5-7-13 19-15 21-16 23-17 23-17 24-17 23-17 25-17 24-14 22-13 21-10 20 3-7-7 17-5 16-4 13-4 11-3 7-4 8"/>
<path d="M2420 2987l 9-1 9 1 11 2 11 4 7 3 12 5 14 7 14 8 14 9 15 8 16 9 15 10 15 11 16 13 14 14 15 16 14 16 15 16 16 18 16 18 15 19 14 18 13 18 11 18 11 19 8 19 7 20 2 9 5 20 3 22 0 24-2 26-5 27-2 9-8 28-12 30-14 31-3 6-15 29-15 28-16 29-17 28-17 28-17 27-16 27-15 25-15 23-13 21-12 18-9 15-7 11-5 6-7 10-8 9-7 5"/>
<path d="M3713 3483l 4-5 3-6 4-6-5 8 5-8 4-9-4 8 4-10 3-8 3-9 3-7 1-8-1 9 1-7-1-7-3-5 4 8-4-5-6-3-7-1 8 1-9 1 9-2-10 3 8-4-12 7 7-5-14 9-14 13-15 15 9-10-15 17-14 18 5-7-14 19-12 20-10 19 4-8-9 19-7 17-5 17 2-9-3 14-2 13 1 10 2 9-2-8 3 7 5 6 7 3-8-3 8 1 9-1-9 1 10-2 11-4-8 4 12-6 12-6 12-7 13-7-8 5 12-8 12-8 11-8 11-8 9-8 9-7 8-6-7 6 7-7-6 7 5-7 5-7 5-6 6-7 4-5 4-4 7-6 8-4 9-4 3 0 9-2 8 3 3 4 2 9 1 7 1 9-1 10-1 11-1 11-2 11-2 12-2 14-3 15-3 16-3 16-3 18-5 23-5 27-6 29-4 27-5 26-5 29-6 32-7 34-7 34-5 34-5 33-5 33-5 32-4 31-5 30-4 28-4 23-3 21-4 21-1 6-5 21-6 20-7 19-7 17-6 16-4 7-7 14-7 12-5 7-7 10-9 9-7 8-7 5-7 4-8 4-6 2-9 2-9-1-6-1-5-4-4-7-4-8-4-10-3-14-2-17-2-23 1-27 2-30 1-8 4-32 5-33 8-37 10-44 11-46 13-46 13-44 14-40 15-39 2-4 17-36 18-34 19-33 3-3 20-31 21-28"/>
<path d="M4043 3456l-4 4 9-9-3 4 12-24-1 5-2-9 3 5 7 3-8-3 9 2 11 1 10 0 11-1 12-1-9 1 12-2 14-4 12-4 13-5-9 4 14-6 13-7 13-7-8 5 12-7 10-7 8-7-7 6 6-7-6 7 5-7-8 16 2-7-1 8 0-7-2-7 4 8-3-6-6-4-6-3-7-3-8-3-9-2 9 2-10-1-11 0-11 1 9-2-11 3-12 4-11 4 8-4-10 7 7-6-10 8-9 8 9-9-9 10-10 12-11 15 5-7-10 16 5-8-9 16-6 17-5 16 2-9-2 14 0 13 1 12-2-9 4 11 5 12 7 10 9 10 8 8 10 5-8-3 11 5 14 2 14 0 16-1-9 1 17-4 17-6-9 4 17-8 17-9-7 4 16-10 16-12 15-11 13-12-7 6 12-11 11-11-6 7 9-11 7-10 6-9-5 7 6-9 4-8 4-8 4-6 5-8 3-4 6-7 7-6 8-4 8-4 3-1 9-1 8 3 2 3 2 9 1 6 0 7 0 7-3 9-1 7-3 8-4 9-4 10-4 10-4 10-4 9-4 9-5 9-5 9-5 9-5 8-4 7-3 5 6-17 0 3-27-7 3-2-8 5 6-6-7 6 8-8 9-10 10-11-6 6 10-12 9-12 9-12 10-11 5-7 10-11 9-11 8-9 8-8 8-7 6-5 6-5 6-6 6-5 7-4 6-3 8-4 9-1 6-1 6 2 8 3 5 5 3 7 2 8 2 8 1 8 1 8-1 9-1 8-1 9-2 9-2 9-1 9-1 8 0 7 1 7-2-8 3 6 4 4 7 4-8-3 9 2 9 1 10-2-9 2 11-4-8 4 11-5 12-6 12-6 11-6-8 4 9-6 9-5 7-5 9-3"/>
<path d="M4603 3444l-2-8 3 5 6 4-8-3 7 2 6 1 7 0 7-1-9 1 8-2 10-2 9-4 11-3-9 3 10-4 10-5-8 4 9-5 8-5 8-6 7-6-7 6 6-5 5-5-6 7 4-6-9 16 2-5-1 8 0-6-3-6 4 8-4-5-5-3-5-2-7-2-8-1 9 1-8-1-8 0-9 0-8 2-9 1 9-1-9 2-8 4 8-4-9 5 7-5-8 6-8 8 9-9-8 9 5-7-7 10-8 12 5-8-7 14-6 14-5 14-4 14 3-9-3 14-1 13 1 12 1 11-2-8 3 10 4 8 5 8 6 6 6 5 7 4-8-3 8 2 9 1 10 1 12 0 13-1 14-2-9 1 16-4 16-7-8 4 16-8 17-7 8-3 17-7"/>
<path d="M4913 3398l-6 1-6 1-9-2-3-1-3-8 0-8 4-9 5-7 6-7 2-2 7-6 8-5 5-3 9-3 7-2 8-3 8-2 9-1 10-2 9 0 9-1 9 0 9 0 10 0 9-1 9 0 8 1 8 0 6 1 8 4 5 2 2 4 2 8-2 9-1 5-4 8-6 7-5 5-9 10-7 6-8 6-9 8-10 8-9 8-10 9-9 10-9 9 9-9-9 9-8 10 6-7-8 11-6 12 4-8-5 11-5 11-3 10-3 8 2-9-1 8-1 9 0 8 2 7-2-9 4 7 5 6 7 5-8-3 9 3 12 2 13 0 14 0 16-1 18-2-9 2 19-4"/>
<path d="M5235 3440l 2-6 4-8 2-7 3-6 4-6 3-7 4-7 4-7 4-7 3-7 4-7 4-7 3-7 3-7-3 8 2-6-1 9 0-5 4 8-3-4-5-2 9 1-7 0-9 1 9-2-8 3 8-4-8 5-8 5-9 6 7-5-9 7-9 9-9 9 9-9-9 10-9 9-8 9-9 8-7 9 9-10-8 9 6-7-7 9-5 8 4-8-3 8 2-8-2 7 1 7-3-8 3 6 5 5 7 3-8-3 9 2 9 0 10-2-10 2 10-3 8-2 9-3 7-2 8-3-9 3 7-2 6-3 6-3 6-3 5-3 6-3 6-3 8-3 6-2 9-1 7-1 6 2 8 3 6 3 5 5 5 7 4 6 4 7 5 6 5 6 6 5 7 4-8-3 7 3 9 1 10-1-9 2 11-2 13-4 14-5-9 3 16-7 18-9 18-10 20-11 19-12-7 5 19-12 18-14 18-14-7 6 17-16 16-17 14-16-5 6 12-15 11-16-5 8 9-17 10-19 9-21-3 8 10-26 10-29 10-29 9-26 7-24 5-21 4-22 4-22 3-22 3-21 2-18-1 7 1-13 0-9 1-9 0-8-1 9 0-7 0-5 3 8-1-2 48-26-2 3 4-8-3 5-3 7-4 10-4 13-6 17-6 21-7 23-7 25-8 26-8 28-9 29-8 29-9 29-9 30-7 28 1-6-7 29-5 28-5 26-3 24-1 24 0 21 1 20 1 18 2 17 3 14-2-8 4 11 4 9 5 7 5 5 6 2-8-3 6 1-9 1 7-1 9-3-9 3 12-6-8 5 14-9 16-12 16-14-7 6 14-13 12-13 11-12 10-12-6 7 9-12 9-12 6-7 7-6 8-5"/>
<path d="M5590 3262l-12 4-13 3-8 2-13 3 8-2-11 3-11 3-9 2-9 2-8 1-3 1-9-2-3-8 0-8 4-9 5-7 6-7 7-6 7-5 9-3 4-1 10-2 12-2 13-2 14-3 16-5 18-5 20-6 19-6 18-4 9-1 19-3 25-1 26-2"/>
<path d="M5886 3387l 8-2-1 1 25-53 3 0-9 1 5-1 8-3 8-3 9-4 10-3 10-2 10-3 10-3 9-3 8-4-9 4 8-3 7-4 7-3-8 4 6-3 5-4-13 13 3-4-9 24 0-4 4 8-4-3-6-2 9 2-8-1-9-1-10 1-9 1-10 2 9-2-10 3-10 4 8-4-10 5-10 7-10 7 8-5-11 7-10 9-10 8-9 9-8 9 9-9-7 8 5-7-6 8-4 8 4-8-3 9 3-9-1 8 0 8 2 9-3-9 4 9 5 8 7 9 9 8 11 8 13 7 14 6-8-3 15 4 16 2 17 2 18 0 22-2 25-3-9 2 25-5 25-5 24-6 24-7 22-7 21-7-8 3 18-8 16-8 17-9 15-9-8 5 12-8 11-9-7 6 10-10-6 7 9-11 7-11-5 8 5-11-3 8 3-11 1-11 0 9 0-10-2-9-2-7-2-6 4 8-4-6-4-4-5-3-5-1 8 1-4 0-5 1 8-2-4 2 8-4-5 3 7-6-5 5 9-10-4 6 5-8-3 6 4-8-2 7 2-9-2 8-1 8 1 8 1 10 3 10-3-9 4 11 4 9 4 8 5 8 5 7 7 9 7 10 7 10 6 8 7 9 7 7 7 7 7 7 6 7 5 6 3 6 3 7 2 8 0 6-3 9-2 6-5 8-5 7-9 9-5 5-7 5-8 4-6 3-8 2-8 2-8 1-9 1-10 1-10-1-10-1-9-2-11-2 9 2-12-2-12-1-13-2-12-1-9-2-12-2 9 2-12-2-12-1-11-1-7 0-3 0 34-57 4 1 7 0 11 1 13 0 15 0 18-1 18 0 19 0 19 0 19 0 19 1 19 0 20 0 21 0 20 0 8 3 3 9-3 8-4 9-5 7-9 9-7 5"/>
<path d="M7260 3277l 4 10 2 8 2 12 1 14-1 15-2 16-3 20-4 23-6 25-7 28-2 8-9 28-10 28-11 31-12 32-12 31-12 31-12 29-12 29-12 29-10 29-9 28-7 26-6 22-6 20-4 16 1-7-2 13-2 9-2 9-4 7-1 4-6 7-8 10-7 5-8 3-9 2-8-1-4-8-1-4 1-9"/>
<path d="M7217 3329l 3-8 3-7 2-8 3-7 3-8 3-6 3-6 3-5 5-7 6-7 4-5 7-6 5-4 7-4 7-4 8-4 9-4 8-4 9-3 9-4 10-3 12-3 13-4 12-2 9-2 13-2 12 0 12 1 11 2 10 3 10 3 8 3 8 3 7 5 7 6 5 8 4 9 2 8 2 11 1 12-2 14-2 9-4 14-6 14-4 8-9 13-5 8-10 13-9 9-12 13-14 13-16 13-16 14-16 12-7 5-16 12-16 10-16 9-8 4-17 7-15 7-14 5-12 3-9 2-10 2-9 0-9-1-7-2-5-4-3-6-4-8 0-6 1-9 1-7 2-6 4-8"/>
<path d="M7632 3325l-7-2-8-2-8-1 9 1-8-1-8-1-9 0-8 0-9 1-10 2-9 2-9 2 9-2-9 2-9 5 8-4-10 5-10 5-10 5-9 5-9 4-9 5 7-5-8 6-8 8-8 9-7 8 9-10-6 8 5-7-4 8 4-8-4 8-2 8 2-9-1 8 1 9-2-9 4 8 5 7 7 5 8 5-8-3 9 2 11 2 11-1 13-1-9 1 13-2 14-4 14-4 14-5 14-4 12-4 13-4 10-4-8 3 9-5 9-4 7-3 5-3-14 11 3-4-5 7 3-4 4-5-5 7 3-5-4 8 1-2 44-2-2 2 10-15-2 6 2-9-1 6 0 6-2-8 2 5 4 4 5 4 6 3-7-3 7 2 8 1 9 1 11 0 14 0 14-2 8 3 2 9-2 9-5 8"/>
<path d="M7815 3292l-4-8 1-9 4-7 4-8 6-7 7-5 7-5 9-3 9-2 4 0 7 1 9 2 8 2 8 2 9 2 9 1 8 2 9 2 8 2 8 2 7 0 7 0 7 0 8 3 4 3 3 8 0 6-2 9-2 6-4 8-5 6-5 8-5 6-9 10-7 7-8 7-8 8-9 8-11 8-7 5-11 8 7-5-12 9-12 10-11 10-11 10-10 10 9-10-8 10-8 10 6-7-6 9 4-8-3 9 2-8-1 8 0 8 1 7-2-9 3 5 4 4 6 2-8-3 8 2 11 0 14-1-9 2 15-3 16-5-9 3 17-7 15-7 15-7 15-8 17-8 19-8 19-9"/>
<path d="M8249 3011l-4-2 9 2-4-1 9-1-4 1 8-4-4 3 16-15-4 5 5-8-3 7 4-8-2 7 2-9-1 7-1 9-2 11-1 11-1 10 0 11 0 11-2 15-2 19-3 20-3 18-3 20-5 23-6 24-2 9-6 20-5 19-6 18-5 19-5 19-5 18 2-9-4 18-4 16-2 14-2 13 0 13 1 14 3 13-2-9 4 11 7 8 8 5-8-4 9 3 10 0 10-2-9 2 12-4-9 3 12-5 12-7 10-5 10-6-8 5 10-7 11-7 7-4 9-4"/>
<path d="M8034 3263l-5 1-9-2 0 0-4-8 1-9 3-8 5-8 6-7 7-6 8-4 8-4 6-1 9-1 9-2 11-2 13-2 14-1 16-1 18-2 18-1 19-1 19-3 20-2 19-3 20-3 20-2 20-3 20-2 19-1 20-1 22 0 19 1 17 1 13 2 11 1 9 2 6 2 8 3 4 3 4 5 2 9 2 6 0 6-1 8-2 9-2 8-1 8-2 8-1 8-2 8-3 9-2 8-2 9-3 9 2-8-2 11-3 12-2 11-2 9-1 7-1 7-1 8-1 7"/>
<path d="M8464 3098l-6-2-5-4-2-3-4-8 1-8 3-9 5-7 6-7 7-6 8-5 8-3 5-1 9-2 7 1"/>
<path d="M8689 2963l 5 4 5 5 4 5 4 6 5 6 6 8 5 8 4 8 4 9 3 9 2 8 3 10 1 12 1 13 0 13 0 11-2 12-3 14-2 9-4 16-6 21-7 23-8 22-8 20-9 19-9 18-4 8-7 14-8 15 4-8-8 17-8 19-8 17-6 15-5 14-3 11 2-9-2 11-2 11-1 12-1 12 1 10 1 8-2-8 2 7 4 6 6 7 7 6 8 4-8-3 10 2 11 0 11-1 11-2-9 2 11-3 13-5-9 4 14-6 16-8 16-7 17-9 21-11 22-12"/>
<path d="M8539 3278l-9-1-4-1-4-8 1-9 4-8 5-7 6-7 6-6 3-2 8-5 9-3 8-2 9-2 10-1 9-1 10-1 13-2 17-2 23-1 22-2 19-1 20-1 25-1 25-1"/>
<path d="M9005 3260l-2 4-5 7-3 4-9 10-5 4 9-9-5 7 5-8-4 8-4 6-3 6 4-8-3 6-2 9-3 9-3 12-5 13-3 12-3 11 2-9-2 12-3 14-2 15-2 13-1 11 0 8 2 10 2 10-2-9 3 9 5 6 5 4"/>
<path d="M8992 3122l 9 1-7 2 38-28-2 5 4-25 4 6 2 8-2 9-4 8"/>
<path d="M9191 3261l 0 7-2 6-1 7-1 7-1 8-1 8 0 9 0 9 0 9 0 8 0 7 1 8 1 8 2 9-2-9 2 8 4 8 5 6 5 5 5 4-7-3 6 2 8 2 8 0 8-1 8-1-9 1 8-1 7-2-8 3 6-3 6-3-8 4 6-4-7 6 5-5 4-5-5 7 3-5-4 8 3-6-4 8 2-6-1 9 1-7-1-9-2-8-3-8-3-7 4 7-4-6-6-7-7-7-8-5-7-4-9-4-10-5-10-5-11-4-9-3-8-3-8-3-5-2-3-4-4-8-1-3 1-9 4-8 5-8 6-7 2-3 7-6 8-5 5-2 9-4 7-2 8-2 9-1 9-2 9-1 9-2 9-1 9-1 8 0 8 0 8 1 9 2 8 2 9 3 10 2 9 2 10 2 8 2 7 3 8 2 8 4 8 3 8 4 8 6 7 5 5 7 4 6 3 6 3 8 2 8 1 8 1 9 0 9 0 9-2 9-2 9-2 9-2 9-2 9 2-9-2 7-1 6 1 4-10-12 3 0-25 9 5-4 6-5-6 6 7-8 10-9 10-10 7-6 11-10 11-9 11-9 10-8 11-9 14-10 16-12 16-13 15-13 13-12 11-9 11-8 9-7 8-6 8-4 7-4 9-4 6-1 9-2 5 1 8 3 6 2 4 4 4 5 2 6 2 8 2 7 1 9 0 10-1 10 0 11-1 11-1 10-1 11 0 10 0 10 1 10 1 12 2 11 2 10 2 10-2-8 3 9"/>
<path d="M10263 3229l-6 7 3-4 6-7 3-3 7-6 3-2 8-5 8-3 9-2 5 0 7 3 5 2 4 4 3 4 3 6 2 5 3 9 1 6 1 8 0 8-1 10-1 10-3 12-2 9-4 12-6 13-6 12-4 8-7 12-7 11-7 11-7 10-5 7-6 9 5-7-6 7-4 7-3 6 6-17 0 2-42 4 3-4 7-8 9-11-6 7 10-11 9-11 5-7 10-11 11-12 11-12 12-13 12-12 12-13 12-12 11-11 11-11 11-11 10-9 7-6 10-9 10-7 9-7 8-6 8-4 7-5 6-3 9-3 9-2 4 1 8 3 2 4 2 8 1 7-1 9-2 9-3 9-3 9-3 10-3 10-4 10-3 10-4 10-3 10-3 9 3-9-2 9-2 9-1 8-1 7-1 7 1 6 1 5-2-9 3 4-8-3 6 2 8 0-9 1 8-2-8 4 8-4 10-5 10-5 12-7-8 4 12-8 12-8 12-10 11-9-7 6 10-10 9-10-6 7 8-9 6-7"/>
<path d="M10608 3222l-2 5-2 5-4 8-3 5 4-8-2 7-3 7-2 7-2 7 2-9-2 7-2 9-1 11-2 12-1 10 0 10 1 8 1 8 2 7-3-8 2 6 4 6 6 5-8-3 8 3 8 1 9 0 8-1 8 3"/>
<path d="M10739 3216l-2 3-2 4-5 7-3 5 5-8-3 5 4-8-3 6-3 7-1 6 2-9-2 7-1 6-1 7-1 8 0 7 1 8 1 7 2 8 1 8 2 9 1 7-2-8 2 6 3 6 3 5 3 4 4 3-8-3 6 2 7 0 7-1-9 2 8-2 7-2-8 3 9-3 10-6 11-6-7 4 11-7 12-8 11-8"/>
<path d="M10898 3234l-4 4 9-9-4 5-4 5 6-7-4 6 4-8-4 8-4 9-3 9-3 8-2 8-2 7-2 6-2 7-2 5 3-8-2 5 0 4-2-8 2 3 4 2-8-3 5 0-9 1 6-2-16 7 8-5 9-8-6 6 9-9 7-6 11-9 11-9 13-11 14-12 12-10 8-7 6-5 8-4 9-4 4-1 9-1 8 3 2 3 2 8 1 6 1 5-2-8 2 4 4 2-8-3 5 1 6 1 5 0-9 1 6-1-8 3 5-3-7 5 5-4 6-3 8-5 6-3 6-4 7-3-8 4 6-4 5-3 8-5 5-2 5-3 4-2 9-4 4-1 9-2 4 0 8 4 4 2 3 5 3 6 2 7 3 9 2 7 1 7 2 8 2 9 2 8 2 8-3-9 3 6 3 6 3 6 2 5 3 4 3 4"/>
<path d="M11242 3338l 9-9-3 3 12-24 0 1-19-9 4-1-9 3 7-3 8-5 10-5 12-6 14-8 17-10-8 5 20-12 21-15 23-16 25-17 26-19 27-19 26-20 25-21-4 4 23-21 21-22 20-23-3 4 18-23 16-23-3 4 14-24 12-23 11-24-2 4 9-25 8-27 6-28 4-25 0 5 0-19-3-13-4-11 3 7-4-10-4-7-5-9 4 8-6-6-6-5-8-2 9 2-8 0 8-2-9 3 8-4-10 6 7-5-11 10-12 12 9-9-13 16-14 18 6-7-15 20-14 23-15 24-15 25-15 26-15 27 4-6-15 28-13 29-11 30-10 30-8 29 1-5-6 29-4 27-2 25 1 23 3 20 5 19-2-6 6 15 7 14 8 13 10 10 9 10 11 7 11 5-8-3 13 3 13 1 13-2-9 2 14-4 13-4-8 3 13-5 13-7 11-6-7 4 11-8 10-8-7 6 9-9-6 7 8-10-5 7 6-11-4 8 4-11 3-12 2-13-1 9 0-13-2-13-3-12-3-13-4-12-4-11 3 8-5-11-5-9-6-8-6-7-5-6-6-5-5-4-6-4-5-1 9 1-4-1 17-5-2 1 26-48 1 3 5 4 5 4 7 4 6 3 6 3 2 8-2 9-4 8-6 7"/>
<path d="M11742 3153l 5 0 5-1 6-1-9 2 6-1 9-2 6-1 7-1-9 1 8-1 8-3 8-2 8-3 8-4-8 4 9-4 9-4 9-5 10-4 9-5-8 4 9-6 9-6 8-7 7-6 7-6-6 6 5-6 5-5-6 7 4-5-5 8 3-5-4 8 2-4-1 8 0-4-2-5 4 8-4-4-5-3-6-3-7-1 9 1-8 0-9 0-10 0-10 2-10 1-11 3 9-2-11 3-11 4-11 5 8-4-12 6-10 7 7-5-10 8-9 9 9-10-9 9 6-7-7 10-6 11 4-8-4 11-3 11 2-9-2 11-2 12 0 11 2 12 3 10-3-8 5 10 5 10 8 10 10 9 11 7 12 6-8-3 13 4 15 3 15 3 17 1 18 0 18-1 19-3-9 1 19-3 19-4 19-5 19-6-9 3 22-9 26-12"/>
<path d="M12039 3103l-5-1-3-1-1 0-4-8 1-9 4-8 5-8 5-6 7-6 8-5 9-3 9-2 2 1 4 1 6 1 7 2 6 1 7 2 7 3 7 2 6 2 8 4 6 2 6 4 4 3 5 5 3 5 3 5 2 5 2 9 1 5-1 5-1 6-2 9-3 6-4 8-4 6-4 7-5 7-6 6-9 9-6 7-7 6-8 6-8 7-7 6-8 7-7 6 9-9-6 7 5-7-4 7 4-8-3 7-3 8 2-9-1 7-1 6 1 6-2-8 3 5 4 6 5 4 8 4-8-4 9 4 11 2 12 2 13 0 14-2 15-2-9 2 16-3 16-4 16-5 17-6-9 3 16-7 17-8 16-8 16-8 15-9-8 5 14-9 13-11-7 6 12-10 11-12-6 7 9-11 8-12-5 7 7-12 5-13-3 8 4-12 3-12 3-11 1-9 1-9-1 9 0-8-1-7-1-5 3 8-2-4-4-2 9 2-4 0 9-2-4 1 15-9-4 3 14-16-3 4 5-8-2 6 2-9-1 7-1 7 0 8 1 9 1 10 2 11 2 11 3 12 3 12-2-9 3 12 4 11 4 11 5 10 5 11 5 10 6 11 6 11 6 11 7 10 7 10 6 10 6 9 6 9 6 8 5 7 3 7 3 6 3 9 1 6-1 5-2 9-4 8-3 4-5 7-9 10-7 5-5 3-8 4-6 2-9 2-8 1-9 0-10-1-11-1-11-1-13-2-9-1-13-3-14-3-14-4-14-3-13-2 9 1-12-2-9-1-11-2-10-2-8-2-6-3-4-2-2-2-4-8 1-9 4-8 5-8 1-2 6-7 7-6 8-5 4-2 9-3 6-2 9-2 9-2 10-1 12-1 12 1 14 0 15 2 15 1 15 1 16 0 17 1 16 0 16 2 16 1"/>
<path d="M12710 3337l-7-3 5 1"/>
<path d="M2309 5127l 5 4 5 3 6 2-8-3 7 2 7 1 8 1 9-1 10-2-9 2 10-3 11-3 11-4-8 4 12-5 12-6 13-7-8 4 13-8 13-8 12-9 12-9 12-9 10-8 10-9-7 6 8-8 8-7 6-6 5-6-6 7 4-6-5 8 3-5-4 8 1-5-1 9 0-4-2-4 4 7-3-3-4-2-6-3-8-1 9 1-8-1-10 0-11 1-12 1-12 2-13 3 9-2-13 4-13 4 8-3-13 6-13 8-14 9 8-5-13 10-14 11-12 12 9-9-12 14-10 14 5-8-10 15-9 15 5-8-8 16-6 16-5 16-4 16 2-9-3 15-2 14-1 14 1 12 2 12-3-9 4 11 4 9 5 8 5 7 7 5 8 4-7-3 9 3 10 2 11 1 13-1 14-3-9 2 15-4 17-4 17-6 17-7 18-7-8 4 18-9 17-10-8 5 18-11 16-12 16-13 14-12-6 6 12-13 12-13-6 7 9-12 9-13-5 8 7-12 6-12-4 8 5-12 4-12 4-10 3-10 2-8 2-8 2-6 0-4 0 9 0-1 57-35-1 4-1 7-1 9-1 11-1 11 0 12 0 13 1 13 1 13 2 14 3 13 3 12-2-8 4 12 6 11 6 9 6 9 7 9 7 7 8 7 9 4-8-3 10 2 10 1 10 0 10-2-9 2 10-3-8 3 10-4-8 4 10-6 10-7-7 5 9-9-6 7 9-11 9-13-5 8 7-15 7-15-4 8 6-15 5-16 4-16 4-15 2-16 2-15 2-15-1 9 1-13 1-12 0-11 1-10 0-8 0-7 0-5 0-4 0-3 1-9 4-8 5-7 5-7"/>
<path d="M2951 5106l-7-3 5 1 5 1 6 0 7-1 6-1-9 2 7-1 8-2 8-3 9-3-8 3 9-4 9-4 10-5 9-6 9-5 9-5-8 5 8-6 7-5 6-5-7 6 5-5-6 7 4-5-5 7 3-5-3 8 2-4 1-5-1 9-1-4-1-4 4 8-3-4-4-3-5-3-5-2-7-1 9 1-7 0-7 0-7 0-9 1 9-1-9 2-10 3-9 5 8-4-10 5-10 5-9 7 7-6-10 8-9 8 9-9-8 10-8 10 5-7-7 11-7 12 4-8-6 12-5 13-4 12-4 12 3-9-2 12 0 12 1 12 2 11 3 9-3-8 4 8 4 7 6 7 7 5 7 3-8-3 9 3 9 1 11 1 12 1 12-1 13-1-9 1 13-2 13-4 14-3 14-4 13-4-8 3 12-5 13-7 13-6 12-6-8 4 12-7 11-8 10-8-6 6 9-9 9-10 9-9-6 6 8-10"/>
<path d="M3259 5039l-1 5-1 6 2-9-2 7-1 8-2 9-1 11-2 11-1 11-1 12-1 11-1 11-1 12 0 11 0 11 1 10 0 9 1 8 0 7 1 6 2 5-3-8 3 3 4 2-8-3 4 0-17 5 4-2-14 10 5-4-6 7 6-7 5-9 7-10-5 8 6-11 7-11 6-12 6-13 7-13 6-13 7-12 7-11 5-8 7-10 6-10 7-9 6-8 6-7 6-7 5-6 7-5 5-5 4-3 8-4 4-2 9-3 9-2 4-1 5 1 8 3 5 3 5 4 4 4 4 6 4 7 3 7 3 9 4 9 5 11 5 11 6 10 6 10 6 9 6 8 2 8-2 9"/>
<path d="M4057 5047l 4-4 4-4 4-4 7-6 4-4 5-4 5-4 6-5 5-4 6-3 8-5 6-3 5-4 6-3 5-3 5-3 5-3 5-2 5-2 5-2 8-3 5-2 4-1 9-1 4 0 7 3 4 2 2 4 2 5 2 8 1 5 1 6-1 7-3 9-2 7-2 9-3 10-3 11-3 12-5 13-5 12-5 13-6 13-5 12-6 11-6 11-5 11-5 10-4 10-4 9-4 8-3 7-2 7 2-9-1 5-3-9 1 2-33 6 3-2-7 6 4-5 6-6-6 6 7-7 6-9 7-10 8-12 7-12 8-13 9-13 9-13 9-14 10-13 9-12 10-12 9-12 9-11 8-11 6-7 9-10 8-8 8-7 7-6 8-7 7-6 7-4 7-5 7-3 8-4 6-2 9-1 5-1 4 1 8 3 3 3 3 5 2 9 1 5 1 6-1 8-2 8-2 9-2 9-3 10-3 11-3 10-4 11-3 12-4 11-4 11-3 11-4 10-3 10-2 9 2-9-2 9-2 8-1 7-1 6 0 5 1 5-2-9 2 3 3 2-8-3 5-1-9 2 6-2-9 3 6-3-7 4 7-4 8-7 9-7-7 6 8-8 9-9 9-9 9-11 9-10 8-10 9-10 8-9-6 7 7-9 7-9 7-9 6-8 6-8 5-7 4-7 4-6 4-4 6-7 3-4 7-6 3-2 8-5 8-3 9-2 2 0 8 3 2 9 1 2-1 6 0 6-1 7-1 7-1 7-1 8-1 8-1 9-1 8-1 9-1 9 0 9 0 8 0 8 0 8 0 7 1 7 1 6 1 7-2-9 1 6 3 5 4 4 5 3 5 3 5 2 3 9-2 9"/>
<path d="M4617 5010l-2 4-2 4 4-8-2 4-2 5 3-9-2 6 0 6-1 7-1 6 0 7 0 7 0 8-1 8 0 9-2 9-1 9-2 9-1 9-2 9-1 8-1 9-1 8-1 7 0 7 0 6-2-9 1 3-8-3 5 0-26 9 6-4 7-6-7 6 8-7 7-8 9-10 9-10 9-11-6 7 9-11 10-11 9-11 8-11 8-10 8-11 7-11 8-10 7-9 6-8 6-7 6-7 5-5 4-5 4-5 3-3 1-1 7-6 8-5 8-3 9-2 8 4 2 8-2 9-1 2-2 5-4 8-3 5-3 5 4-8-3 6-3 7-2 7-3 7-3 7-2 7-3 7-3 6-1 6-2 6 2-9-1 6-2 7-1 6-2 7-1 6-1 6-1 6-1 5-1 5-1 5-1 6 0 5-1 5-1 6 0 5 0 6 1 5 1 5 1 5 1 4-2-9 2 4 2 2-8-3 4 1-9 1 4-1-17 8 4-3 4-3 8-5"/>
<path d="M4453 5219l 5-1-9 1 5-2-8 3 5-3-7 5 6-4 8-5 7-4-8 5 8-5 8-6 8-6 10-7 10-6 12-7 11-9 12-10 11-9"/>
<path d="M4708 5039l 3-4 2-4 6-7 3-4 4-4 5-5 7-6 4-4 6-4 6-4 6-4 6-4 6-4 6-4 6-4 8-4 6-4 6-3 7-3 6-3 8-3 5-2 5-1 9-2 4-1 4 0 4 1 8 3 3 2 3 4 2 4 2 9 0 5 0 6-2 7-1 8-3 9-2 9-3 9-4 9-5 11-6 11-6 13-7 12-4 8-7 13-6 12-7 12-7 12-6 11-6 10-6 9-6 8-5 8-4 8-4 5-6 8-2 2-9 9-7 5-8 4-8 2-9-1-4-8 1-9 0-2 4-8 2-6 5-9 5-10 7-12 8-14 8-15 10-16 9-15 5-8 10-15 11-15 10-14 11-14 9-13 10-12 9-11 6-7 9-10 8-9 8-8 7-6 6-6 7-6 6-5 5-4 5-4 8-4 8-3 5-1 9-2 7 3 3 3 3 8 1 7 0 9-2 10-2 10-3 9-3 11-3 11-4 12-5 12-5 11-5 12-6 13-5 12-5 12-4 12-4 10-3 10-4 9-3 7-1 6 2-9 0 2-35-2 3-3-13 13 6-6 6-9 8-11 8-12 9-14 10-14 11-15 11-14 11-15 11-13 10-13 6-7 10-12 10-11 10-10 9-8 7-6 8-7 7-6 7-5 6-4 7-4 9-4 5-1 9-2 4 0 8 3 3 2 3 4 2 9 2 6 1 6 0 8-1 8-1 9-1 9-2 10-2 10-2 11-3 11-2 10-2 10-2 10-2 10-2 10-1 10 0 9 0 8 1 7 1 6-3-8 2 6 3 4 4 4 6 2-8-3 6 1 7-1-9 2 8-2 9-1 8 3"/>
<path d="M5146 5066l-8 4 6-4 7-5 8-6 10-8 11-9 12-11-7 5 14-12 15-14 15-15 17-17 19-18 18-19 20-20 20-21 20-22 21-25-5 6 23-29 23-32 23-33 20-31-2 4 17-30 15-28 13-27-2 4 11-27 10-27 8-25 6-23 3-20-1 6 1-16 0-14-2-11-3-8-3-6 3 7-4-3-7-1 18-1-8 2 8-4-9 5 8-5-11 8-12 12-13 15 9-10-15 18-17 20 5-7-18 24-5 6-18 26 4-6-20 28-19 29-18 29-15 30 2-5-14 31-13 31-12 33-10 33-9 32 1-4-7 31-6 31-4 28-3 27 0 24 1 22 4 20-2-6 5 18 6 15 7 14 7 12 8 9 9 8 8 6 9 4-7-3 10 3 10 0 11-2-9 2 11-4-8 3 10-5-7 4 10-8-7 6 11-9 9-10 9-11-6 7 8-10-5 7 7-10 5-11-3 8 4-11 3-11 2-11-1 9 1-10-1-10-1-10-2-9-4-7 4 8-3-7-4-6-4-5-2-4-4-8-1-1 1-9 4-8 5-8 6-7 6-6 8-4 9-4 9-1 2 1 8 3 5 2 7 3 6 2-8-3 7 2 7 2 6 2 6 1 6 2 6 1 5 0 5 1 5 0 4 0 5 0 4 0 4 0 5 0 4 0 4 0 5 0 4 1 5 1 5 1 5 1 5 0 5 0 5 0 6-1-9 2 6-1 6-2 7-2-8 3 7-3 7-3 7-3 7-3 7-4 7-3 7-4-8 4 6-4 8-4 6-4 6-3-8 4 5-3 5-4 4-3-7 6 4-4-11 15 2-4-3 8 1-5-1 9 0-5 0-4-2-4 4 8-3-3-4-2 9 2-5-1-6 0-7 0-7 1-8 1-8 1 9-2-8 2-8 3-8 4 8-4-8 4-8 6 7-6-8 6-8 7-8 7-8 8 9-9-7 9 5-8-6 9-5 10 5-8-4 9-3 10 2-9-1 10 0 9 1 10-2-9 3 10 4 9 5 9 7 7 8 6 9 5-8-3 10 4 12 3 13 2 13 1 14 0 15-1 15-3-9 2 16-4 17-6-9 4 17-7"/>
<path d="M5841 4970l-6-2 9 2-6 0-6 0-6 1-7 2-7 1-7 1 9-2-7 3-8 3 8-4-7 4-7 4-7 5 7-5-7 6-6 6-6 6 9-10-6 6 6-7-4 6 4-8-3 8 2-9-2 7-1 8 0 7 1 8 1 8-3-9 3 8 3 6 5 6 6 4 6 3 7 3-7-3 7 3 8 1 8 1 8 0 9 0-10 1 9-1 8-4-8 4 8-4 8-4-8 4 7-4 7-5 6-6-6 6 5-6-5 7 5-7 4-6-5 8 3-6-4 8 3-7 1-6 2-6 0-6-1 9 0-5-1-5 4 8-3-3-3-3-4-1-4-8 1-9"/>
<path d="M5689 5077l 9-1 10-1-9 2 11-2 10-3 11-4 12-4 13-5-9 3 13-5 14-7 16-8 17-10 18-10-8 5 16-10 15-10 13-9 11-10-7 6 10-9 8-9-6 6 6-9-5 7 5-9 5-9 3-7-3 8 2-7 2-6-1 9 0-6-1-6-1-4 3 8-2-4-1-1-4-8 1-9 4-8 5-8 5-7 7-6 8-4 8-3 9-2 3 1 5 2 7 1 7 2 8 1 9 1 9 1 8 0 8 2 7 2 8 3 7 3 6 4 6 4 5 3 4 3 3 4 3 5 1 5 3 8 0 5 0 6-1 5-2 9-2 5-3 5-4 8-4 6-4 6-5 7-5 6-5 6-5 6-5 6-5 6-5 6-5 6-4 5 5-7-4 6-3 5-3 5-2 4 4-8-2 5-2 5 3-9-1 5 1 5-2-9 2 5 3 5 4 4 7 3-8-3 8 2 10 1 13 0 15-2"/>
<path d="M6729 4998l-6 1-8 0-7 1-7 1-8 2 9-2-8 2-8 4 8-4-8 4-7 4 8-5-7 5-6 6 9-9-5 7 5-8-4 8 4-8-3 8-3 9 3-9-2 9 0 8 2 8-3-8 3 7 3 8 5 7 6 6 8 6 10 4-8-3 11 3 13 2 13 0 15-2-9 2 16-3 17-5 16-6-9 3 16-7 15-8-8 5 14-9 13-8 11-9-7 6 9-9 8-9-6 7 6-8-5 7 4-8-3 8 2-7-1 9 1-8-2-7 4 8-3-7-5-6-7-6-7-4-8-3-8-3-8-2-9-1-8-2 9 1-7-1-7 1-5 1 8-2-3 1 33-33-1 2 0-18 3 2-8-3 6 2 8 1 9-1-9 2 11-2 12-4-8 3 13-5 13-6 13-7 15-8-8 4 15-10 17-12 18-13 18-15 20-15 21-17 21-19 24-20 25-23 26-22-5 4 23-22 20-21-3 4 16-21 13-20-3 5 11-20 10-21-2 5 7-21 6-21 5-19 2-17 0 7 0-12-1-9-3-6 4 8-3-5-5-2 18 0-7 2 8-4-10 6 8-6-11 9-12 11-14 14 9-10-15 17-16 20-17 22 5-7-17 24-18 25-16 26-16 28 3-5-17 32-17 36-17 39-18 41-17 42-17 43-16 44-16 46-13 44-12 43 1-4-10 41-7 39-4 35-3 33 1 31 2 27 5 25-1-4 6 21 8 18 10 14 12 9 13 6-7-3 12 3 13-1-9 1 13-4-9 3 14-8-8 5 15-11-7 6 15-14 16-16-6 7 15-18 13-20-4 8 12-22 11-24-4 8 10-26 8-28 8-34 7-37 5-37-1 5 1-35-2-29-6-23 2 4-9-18-11-13-12-10-13-8-12-7-11-5-11-4-10-2 9 1-10-1-7-1-3 0 35-56 3 0 7 0 12-1 13-2 16-2 16-2 19-2 19-3 21-2 22-2 23-2 23-2 8 3 2 8-2 9-4 8-5 7-9 10-7 5-8 4"/>
<path d="M7846 5046l 8-4-5 3 7-5-3 4 20-34 0 4-2-9 5 3-8-3 9 1 12-2-9 2 13-4-9 3 15-6 16-8 16-9 19-10 22-12 26-14 30-16-7 4 36-20 40-25 39-28 35-29 32-28-3 2 29-27 26-26 23-25 20-24-3 4 18-24 14-24-2 4 12-23 9-22-2 4 8-21 6-21 4-20 2-16-1 7 0-14 1-13 1-8 0-12-1 9 0-9-1-7 3 8-2-4-3-1 17-1-4 1 8-3-5 3 7-5-7 6 10-9-8 8-9 11 5-7-10 14-10 16-12 19-12 22-13 22-15 25-18 29-21 33-22 35-20 35-18 34 2-4-17 33-2 4-16 33-18 33-19 35-17 34 2-4-13 30-9 26 2-6-3 21-1 16 0 12 1 12 2 10-2-8 3 9 6 6 8 5-8-3 9 3 11 0-9 2 14-3 15-5-8 3 19-9 22-13-8 5 24-14 22-14 19-14 15-13 15-13-7 6 13-13 13-13 13-13"/>
<path d="M8077 4889l-11 2-11 3 9-2-11 3-11 3-10 2-9 3-7 4-5 2-2 0 17-52 4-1 8-3 10-3 12-4 15-5 18-6 20-7 21-8 24-9 24-9 24-8 24-9 25-9 25-8 24-8 8-2 7 3 2 8-2 8-4 7-4 7"/>
<path d="M8347 4966l 5-7-2 4 6-16 0 4-2-8 3 3 5 3-7-3 7 1 9 1 10 0 12-2 13-2-9 2 15-3 16-4 17-5 19-7 21-7 22-7-9 3 19-8 16-9-8 4 12-8 10-6 7-7-6 6 5-6-11 15 3-5-3 8 0-4 3 16-3-3-6-3-9-2 9 2-9-1-11 1 9-2-12 3-12 3-13 4-14 5-15 5-14 5-13 6-10 5-11 5 8-4-11 5-11 7 7-5-11 7-10 9-9 10 9-10-8 10-7 9 6-7-6 9 4-8-4 9-3 9 2-9-1 8 0 8 3 8-3-8 4 8 7 8 9 7 11 5-8-3 12 2 15 1 17-2 19-4-9 2 21-4 23-6 22-6 23-7 23-9 9-1 7 3"/>
<path d="M8712 4896l 20-33 0 4-2-9 3 4 5 3-8-3 7 2 7 0 7 1 7 1 9 1 8 0 8 0 7 0 7 1 7 1 7 4 5 3 3 5 2 9-1 6-2 9-4 8-3 5-6 8-9 9-5 5-7 6-9 6-10 8-11 8-7 5-12 8-13 6-8 4-12 6 8-4-13 8-13 8 8-5-12 9-10 9 9-9-8 9-7 9 5-7-6 8-5 8 5-8-3 8 2-9-1 7 1 7-3-9 4 5 6 4-8-3 9 3 11 2 12 0 15-1-9 1 16-5 17-6 20-7 21-8-8 3 21-9 23-9 22-10 22-11 21-12-7 4 19-13 18-12 16-12 15-11 7-4 8-3"/>
<path d="M9019 4878l-3 5-4 5 5-7-4 7-5 8-5 8-5 9-6 9-5 9-5 9-5 8-5 9 4-8-4 9-4 10-4 8-3 8-4 8-4 8-4 7 5-8-4 6-1 6 2-9 0 4-10-11 4 1-9 1 7-1-9 3 8-4 9-5-8 5 10-6 10-7 12-7 11-9 13-9 12-9 11-9 11-8 10-7 9-6 8-6 7-5 8-4 5-3 9-3 9-2 2 1 8 3 3 8-1 4-2 8-2 6-5 8-4 7-5 7-5 7-6 8-7 9 6-7-7 9-6 9-6 10-5 9-4 8 4-8-4 8-2 7 2-8-1 6 2 5-3-8 4 3-8-3 6 2 7 0-9 1 8-1 9-3 10-4-8 3 11-4 12-6 12-6 12-7 12-7-8 5 11-7 9-6 9-6 8-6 6-5 8-4 5-3 9-3 9-2 3 1 8 3 2 4 2 8 0 6 0 6 0 6 1 5 1 5-3-9 2 5 2 6 3 5 3 6 4 5 4 4 5 5 5 5 6 4 8 4 9 3-8-3 9 3 11 0 11 0-9 1 11-2 11-3 11-4-9 3 11-5 11-6 12-7-8 4 12-7 12-8 12-8 12-8 12-8 10-7 10-8 9-8-7 6 8-8 8-8-6 7 7-8 6-9-5 7 6-10 4-10-3 8 3-10 3-8 2-7 1-4-1 9 0-2 46-11-2 3 5-7-3 5-3 6 4-9-3 7-3 5 3-8-2 6 0 6 0 7 0 8 1 8 2 8-2-9 2 9 3 8 4 9 5 9 4 9 4 9 5 9 4 9 5 9 4 9 5 9 5 9 4 10 4 9 4 8 4 9 3 7 2 5 2 9 0 3-2 9-4 8-5 7-9 10-8 5-2 1-8 4-9 2-4 0-9-2-7-1-7-2-9-2-10-3-11-3-12-3-12-3-12-3-11-2-11-2 9 1-9-1-10-1-8-1-7 0-5 0-1 0 34-56 2 0 5 0 7 0 8 0 9-1 10-1 12-1 13-1 13-1 15-2 14-2 15-2 16-2 16-2 16-2 8 3"/>
<path d="M10116 4798l 3-6 4-5 6-7 3-4 5-5 5-5 5-4 6-6 5-4 8-5 5-2 8-3 9-2 5 0 5 0 8 3 5 2 3 4 3 5 2 9 1 6 0 7-1 9-3 10-3 13-2 8-4 14-4 15-6 16-6 16-6 15-6 15-6 13-6 13-6 12-4 10-3 10 2-9-2 8 0 7 1 5-2-9 3 3-8-4 6 0-9 2 7-3-16 8 9-6 11-8 12-10 13-11-7 5 13-12 13-15-6 7 13-16 13-17 13-17 11-17-5 8 11-18 9-17 8-18-3 8 7-16 6-16 4-15 4-15 3-14 2-12 2-10 1-9-1 9 0-6-1-2 51-18-2 2 5-8-3 5-2 6-4 8-5 8-9 9-7 5"/>
<path d="M10351 4977l 7-3 8-3-9 3 9-4-8 4 10-6 11-7 13-10 15-12 16-13-7 6 14-14 14-13 12-12 11-13-6 7 10-12 9-12 8-11-5 7 6-11 5-11-3 8 4-11 4-11 3-10 2-9 1-8 1-7-1 9 0-6 1-5-1-4 4 8 0-1 51-34-1 3-2 6 2-9-2 6-1 6-1 6-1 6 0 7 1 7 1 6-2-8 2 6 2 7 3 6 4 7 5 7 5 7 6 7 7 6 6 7 7 7 6 7 7 6 6 6 6 5 5 6 4 5 3 5 2 5 3 9 0 6-1 6-3 9-2 6-4 8-3 5-3 5-6 7-4 5-9 9-5 5-6 5-7 5-6 4-8 4-7 3-8 2-7 2-7 2-9 2-7 2-8 0-8 1-8 0-8 1-7 1-7 0-4 0-9-1-2-1-4-8 1-9 4-8 4-8 6-7 7-5 2-2 8-5 9-3 6-2 8-2 9-3 9-2 9-2"/>
<path d="M10809 4981l 1 5 1 5 2 6-2-8 2 6 2 6 4 6"/>
<path d="M2375 6349l 15-9-4 4 14-16-3 4-3 6-3 5 4-8-3 7-2 6 2-8-2 7-1 9-1 9 0 9 1 9 1 8-2-8 3 8 3 6 4 6 5 5 6 3-7-3 6 2 8 2 8 1 9-1 10-1-9 2 9-3 11-3-9 4 11-5 10-5-8 4 10-6 10-7 9-8-7 6 8-8 8-7 6-7-5 7 5-7-5 7 3-6-3 8 2-7 1-6-1 9-1-5-2-5 4 8-3-5-5-5-6-5-8-5-9-4-11-4-12-4-13-4-12-3-12-3-12-2 9 2-11-2-10-1-10 0-8 1 8-2-7 2-6 2 8-4-5 3 17-15-2 3 9-33 2 4 4 4 7 3 2 9-2 8-4 8"/>
<path d="M2722 6272l-4-3-6-3-6-3-8-3-8-2 9 1-7 0-7 0-7 1 8-2-7 2-7 3-9 4 8-4-9 6 8-5-9 6-9 8-8 8-9 9 9-9-9 9-8 10-8 10-8 10 5-7-7 11-5 11 4-8-4 10-4 11 3-9-3 9 0 9 0 8 2 7-2-9 3 5 5 4-8-3 6 1 7 0-9 1 8-2-8 3 10-5-8 5 12-8 12-9-7 6 14-12 14-14 15-15 17-15 16-16 17-16 16-17-6 6 16-18 14-20 12-20-4 8 11-21 11-21-4 8 9-22 8-23 7-23 6-23 6-23 4-23 3-22 3-23 2-21 2-20-1 8 0-18 0-17-1-15-1-14-2-12-2-9-2-9-3-7 4 8-4-5-3-3-4-2 9 2-5-1-6 1 9-2-7 3 8-4-7 6 7-6-8 7 9-9-8 9-8 10 5-7-8 12-8 13 4-8-8 16-8 17-8 20-8 21-8 23-8 24 3-8-8 26-6 28-6 28-4 28-4 26-2 25-1 25 1 23 3 22 4 20 5 19-2-7 7 17 8 15 9 14 10 11 11 10 13 8 14 6-8-3 15 4 8 3"/>
<path d="M3004 6214l 9 1-6 1-5 1 9-2-6 1-6 2-7 2-7 2-7 3-7 3 8-4-8 4-7 3-8 4-7 5 7-5-6 5-6 6 9-10-6 7-6 8 5-8-5 8-5 9-5 8 4-8-4 9-4 9-4 8-2 9 2-9-2 8-1 9 0 8 2 8-2-8 2 7 4 8 5 6 5 4 5 3-7-3 6 2 8-1-9 2 8-3-8 3 9-4 10-5-8 5 11-7 12-9 12-9 13-11 13-12-7 6 13-12 12-14-6 7 12-14 12-15 10-16-5 8 9-17 9-18 8-18-4 8 8-20 7-22 6-24 6-25 5-25 5-26 4-27 3-28-1 8 4-29 2-28 2-28 2-27 0-25 0-23-1-20-3-17-3-14-5-12-6-10 4 8-5-8-4-4-3-3 8 2-3-1 8-2-4 2 15-10-5 4 9-9-5 6 5-7-5 7-6 10-6 11 5-8-6 13-6 16-6 17-6 19-5 20-6 22 2-9-5 23-5 25-5 27-5 28-4 29-4 29-2 29 0 29 1 28 1 26 3 24 4 22 4 21 6 19-2-7 6 18 8 15 8 14 8 13 8 12 10 12 9 10 11 8 11 6-7-3 12 5 14 3 14 3 8 3"/>
<path d="M3955 6363l 9-9-3 4-4 4-3 4 6-7-3 4-3 4 5-8-2 4-2 5 2-9-1 5 0 4-2-9 2 4 4 2-8-3 4 0 6 0-18 4 6-2-8 5 7-5 7-5 9-7 9-8 11-9 12-11 14-11 14-13 14-12 15-13 16-13 16-13 17-12 16-12 15-12 16-12 14-10 14-10 12-8 10-8 8-6 7-4 7-4 9-3 5-2 9-1 7 3 3 2 3 8 1 5-1 7-3 9-3 9-5 11-4 8-7 13-8 13-9 13-10 14-5 7-10 14-11 14-10 14 5-8-10 14-9 14-9 14-8 13-8 12-6 11-6 10 4-8-4 10-4 8-2 6 3-8 0 3-10-11 4 0-17 4 6-3-8 5 8-6-7 6 9-9 10-10 11-12 12-13 15-14 16-15 17-16 15-14 14-14 11-12 11-11 8-10 7-8-6 7 5-7 6-6 4-5 7-6 2-1 7-5 9-3 9-1 8 3 2 8 0 3-2 9-2 5-2 6 3-9-2 7-1 7-2 7-1 8-1 7-1 9-1 8 0 8 0 8 0 7 0 8 1 7 1 7 2 7-3-8 3 5 3 5 4 3 5 3-8-4 7 2 7-1-9 2 7-2-8 4 9-4 9-5-8 4 11-7 11-8 12-9 12-11"/>
<path d="M4499 6155l-3 3-3 4 9-10-3 4 5-7-3 5-3 5-4 6-3 7 4-8-4 8-4 9-4 9-4 8-4 9-3 10-2 9 2-9-1 9-2 10-1 11 0 10 0 10 0 11 0 10 1 10 2 9 1 9-2-8 2 8 4 7 4 6 5 5 6 4 5 3-7-3 6 1 6-1-9 2 8-2 8-3-9 3 9-4-8 5 9-6 10-7 10-7 9-7-6 6 9-9"/>
<path d="M4635 6199l 9-9-3 4-3 3 6-7-3 4-3 5 4-8-3 6-2 6-3 6-3 7-3 6-2 7-3 7-2 7-2 7-2 7 2-8-1 6-2 7-1 7-1 6 0 5 0 5 0 5-2-9 2 4 3 3-8-4 4 2 5 0-9 1 5-1-8 3 6-2 8-4-8 5 8-6 8-6 9-7 10-8 10-9-7 6 10-9 10-9 10-9 9-8 8-8 7-8-6 7 7-8 5-8 5-6 4-6-5 8 2-5-3 9 1-4-1 9-1-2 21 8-2 1 8-4-4 2 7-5-3 3 9-9-4 4 6-7-3 4 4-8-3 6-2 6-3 6-2 6-2 7 3-8-2 7 0 7 0 7 0 7 1 7 1 5-2-8 2 5 3 5 3 4 4 3 4 3 5 3-8-4 6 2 6 1 7-1-9 2 7-2 7-2 9-3 9-3-8 3 10-4 9-5 10-6 8-3 9-2"/>
<path d="M4975 6132l 2 5-2-9 1 5 3 8 1 5 1 6 1 5 1 5 0 5 0 6 0 6-1 5-1 6-1 5-1 6-2 9-2 7-2 7-3 8-3 8-3 9-4 10-4 9-4 10-4 9-4 9-4 9-3 7-4 7-4 8-4 7-4 5-5 7-3 4-9 10-1 1-7 5-8 4-9 2-9-2-4-8 1-9 1-2 3-8 3-5 4-7 5-8 6-10 6-10 7-11 4-8 8-11 8-12 8-13 9-12 9-11 8-10 6-7 9-10 9-10 8-10 8-9 8-8 8-8 7-6 7-6 7-6 7-6 6-4 8-5 5-3 9-3 5-1 9-2 5 0 8 4 4 2 4 4 3 6 2 8 2 7 0 7-1 8-2 10-2 10-2 10-2 9-3 10-4 11-4 11-4 11-4 12-5 10-4 10-4 9-4 9-4 7-3 6-1 2-33-11 1-1-6 6 4-4 6-7 7-8-6 7 8-10 8-10 6-7 9-10 9-11 10-10 9-11 10-10 9-10 10-8 6-6 9-8 9-7 7-5 6-6-7 6 6-5 7-6 5-4 7-4 5-3 8-3 9-1 5-1 7 4 4 2 3 3 2 5 2 9 1 5 1 7 0 7 0 9 0 9-1 9-1 8-1 9-1 9 0 9 0 9 1 8 1 7 1 7-2-9 2 6 2 6 3 5 4 4 4 3 4 3-7-3 4 1 6 0 6 0-9 1 6-2 6-2-8 3 6-3 7-2 7-3 7-3 7-4 6-4"/>
<path d="M5357 6217l 5-3 6-4-8 4 7-4 7-4 8-6 8-7 9-8 11-9 11-10-6 6 12-12 13-12 13-13 13-13 13-14 14-15 14-16-6 7 13-17 13-16 13-17 12-18 12-17-5 7 12-17 10-19 10-19 8-20-3 8 8-20 6-21 6-22 5-21 4-21 3-20-1 9 1-18-2-17-3-13 4 8-5-10-6-6-7-4 9 2-7 0 8-2-8 2 8-4-9 5 7-5-10 8-12 11 9-10-13 14-14 18-14 19 5-7-15 21-16 22-16 24-16 26-16 29-17 30 3-5-16 34-15 35-12 36-10 35 1-4-8 33-6 32-5 29-3 27-1 25 1 22 3 19-1-5 5 16 7 14 6 12 7 11 6 9 7 6 8 4-8-4 9 1-9 1 10-2-9 4 11-5-8 4 11-7 10-8-7 6 11-10 10-11 10-12-6 7 10-13 9-14-5 7 8-15-3 9 6-16 5-15 4-16 2-16 0 9 1-17 0-17-1-15-3-14-3-11-4-10 4 8-6-9-5-6-7-6-6-4-7-3-6-1 9 1-6-1-6 0-5 1 9-2-4 1 8-4-4 2"/>
<path d="M5677 6186l 6 0 7-2-9 2 7-2 8-3 8-2 9-3 8-2 9-3 9-3-8 3 8-4 9-4 7-3 7-4-8 5 5-4-6 6 4-5-6 7 3-4-5 7 3-4-4 8 2-4 0-4 0 9-1-5-2-4 4 8-3-3-5-3-5-3-7-3-8-1 9 1-9 0-10 1-10 1-11 1-11 3 9-2-11 3-11 5 8-4-11 6 8-5-11 8-10 8-8 9 9-9-8 9 6-7-8 10-6 10-6 10 5-8-5 10-3 10 2-9-2 10 0 11 0 10 2 9 2 9-2-8 3 8 5 8 7 7 8 6 9 4-8-3 11 3 12 1 13 1 13-1 15-2-9 2 16-4 15-5 17-5 18-6 18-8-9 4 18-8 17-9 17-10 8-3"/>
<path d="M5912 6124l-3 2 16-14-2 3 11-24 0 4 1 5-3-9 3 5 3 4 4 3 4 3 5 2-8-3 6 2 6 1 7 2 6 1 6 0 5 1 5-1 5 0 5 1 8 3 3 1 2 4 2 9 0 5-2 9-2 6-3 6-5 8-4 8-4 8-5 8-5 9-5 9-5 7-5 8-4 7-4 8-4 7-3 6 4-8-3 5 3-8-2 6 0 6 0 5 1 5-2-9 2 5 2 5 3 5 4 4 5 4 6 3 6 3-8-3 8 2 9 1 11 0 12-2 14-2 8 3 2 9-2 9-5 8"/>
<path d="M6608 6180l-4 3 7-5-5 3-5 5 9-9-5 6-5 6 6-7-5 6-4 6-4 7-5 6-3 7 4-8-3 7-3 7 2-9-1 7-1 7 0 6 1 6-2-8 2 6 2 4 3 5 4 3 5 3-7-3 6 2 8 2 9 0 10-1-9 1 11-2 12-2 12-4 13-5-9 3 12-5 12-6 10-5-7 4 9-6 7-6-7 6 6-6-10 14 4-6-4 8 3-6 0-6-1 8-1-5 4 8-3-6-6-5-7-4-8-4-9-3-10-3-10-3-11-3-9-2-9-1 9 1-8-1-8 0-6-1-6 1 9-2-5 2 16-9-3 2 21-33 0 3-2-8 2 4 4 4 6 4 8 4-8-4 10 3 11 1 12 0 15-1 16-3-9 2 17-5 19-6-8 3 20-9 23-10 25-14-8 4 30-17 32-21 31-21 28-20 25-18 22-19-4 4 21-19 21-21 19-22-3 4 19-25 16-25-3 4 13-25-2 4 9-22 5-20-1 5 1-20-1-20-2-21-3-19-2-16-4-13-4-10-4-9 3 8-5-6-6-4 9 2-7-1 9-2-8 2 8-4-9 6 8-5-10 10 9-9-11 14 6-8-12 18-12 21-13 23 4-8-14 27-14 29-16 32-18 37-20 43-19 49-18 49-15 44-13 41-12 40-12 41-11 43 1-5-10 44-9 44-8 42-6 41-4 39-3 36-1 32 1 28 3 26 4 21-1-5 6 19 6 16 7 13 7 10 8 8 7 4-8-3 8 2 8-1-18 4 9-4-8 5 9-7-7 6 9-10-6 7 10-11 9-14-4 8 9-17 11-21-4 8 10-24 9-26 6-24 4-24 3-25 0 8 2-26 1-26 1-26 0-24-2-21-3-19-4-16-4-14-6-11-5-10 4 8-5-7-5-7-5-5-5-4-4-3-3-2-4-8-1-3 1-9 3-8 5-7 2-3 6-7 7-5 7-5 5-3 6-2 8-4 8-2 9-3 9-2 11-2 12-2 9-2 14-2 14-1 15-1 16-1 8 3"/>
<path d="M7923 5788l 4-2 4-2 5-1 9-2 4 0 4 0 8 3 5 3 4 6 3 8 2 8 2 10 0 12-1 13-3 13-4 16-2 9-5 17-6 20-8 20-8 21-9 19-7 19-8 19-8 20-9 22-9 23-9 23-8 22-7 21-6 20-5 18-4 18 2-9-4 17-3 15-3 14-1 12-1 11 0 10 1 8-2-8 2 7 3 6 3 5 5 3-8-3 7 0 8-1-9 2 11-3-9 3 12-6-8 4 13-9 15-11 15-12"/>
<path d="M8078 6127l-2-8 2 3 4 3 4 2-8-3 6 2 7 1 9 1 9 0 11-1-9 2 12-2 12-3 13-3 14-3 14-4 13-3 13-5-9 3 12-5 10-4 9-5-8 4 8-4 7-5 5-5-7 6 4-5-11 15 3-5-4 8 1-4 0 9-1-4 4 8-2-4-4-3-6-1 9 1-6-1-8 1-9 2 8-2-10 2-10 4-11 5-11 5 8-4-13 7-16 8-15 10 8-5-14 10-11 10-8 8-8 8 9-10-7 9 5-7-6 9-6 10 4-8-4 10-4 10 2-9-2 9 0 10 1 9 2 9-2-8 3 8 5 7 6 6 9 6 13 6-8-3 15 3 17 2 16 0 17 0 20-2 20-4-9 2 17-4 18-6 23-8 29-10 32-11 8-2"/>
<path d="M8373 6102l-6 1-6 2 9-2-5 2 15-10-3 3 19-42 1 3 4 4 6 3 6 3-8-4 8 3 8 1 9 2 9 1 10 1 10 0 9 1 8 1 8 1 7 2 7 2 7 3 6 2 4 2 2 4 2 8 0 4-2 9-2 3-4 8-5 8-4 4-9 9-4 5-7 6-7 6-8 6-10 7-10 8-10 8-10 9-8 8-9 9-8 9 9-10-8 9-7 8 5-8-5 8-4 8 4-8-3 7 2-8-1 6 0 6-2-8 2 6 3 6 6 4 7 4-7-3 8 3 9 1 12 0 13-1 14-2-9 1 15-4 18-6 22-8-9 3 23-9 20-10 19-11-8 5 18-12 16-12 16-12 14-11 12-9 7-5 9-3 9-2 8 3"/>
<path d="M8715 6081l 4-8-2 5-2 6-2 7-1 6-2 7-2 8-3 8-2 8-3 8-3 8-4 8-4 10-4 10-6 11-4 8-5 10-5 8-4 8 5-8-3 6 2-9 0 4-10-12 3 1-9 1 5-1-8 3 7-4-8 5 9-5 9-7 11-9 11-9-7 6 11-11 12-11 11-11 11-11 11-10 11-9 6-6 10-9 9-7 8-6 7-5 6-4 8-5 4-2 9-4 9-1 4 0 7 3 3 2 2 5 2 8 1 6 0 8-1 8-2 9-3 8-2 10-4 9-3 10-3 11-3 10 2-9-2 10-2 9-1 8 0 7 0 6-2-9 2 4-8-3 5 1 6-1-17 5 7-3 8-5-8 5 9-7 9-7 10-8 9-8-6 5 9-8 8-9 8-9-6 6 7-8 7-9 5-7 5-7 3-4 6-7 7-6 8-4 2-2 9-3 9-2 8 4 1 2 2 8 1 5 1 7 1 8 2 9 2 9 2 9 3 9-3-9 4 9 3 9 4 7 5 7 6 6 6 5 7 4 7 3-7-3 8 2 9 1 9-1-9 2 10-2 11-3 11-4-8 3 11-6 12-7-8 5 13-8 13-8 13-10 13-10 13-10 13-11-7 5 12-11 12-12 12-12 11-13-6 7 10-13 10-14 9-13 8-12-5 7 7-11 7-11 5-9 2-7-3 8 1-4 2 17-1-2-3-1 9 1-4 1 9-2-4 1 8-4-5 3 8-5-4 3-4 3 9-10-3 4 10-15-2 5-2 5 3-9-1 6 0 6 1 6 1 7-2-9 2 7 3 8 4 9 4 10 4 9 5 10 5 10 5 11 5 11 6 11 5 11 6 11 6 10 6 9 5 8 7 8 6 7 6 8 6 6 6 6 5 5 5 5 3 3 2 1 2 8-2 9-4 8-6 7-9 10-7 5-8 4-9 2-9-2-1-1-5-2-7-1 9 1-9-1-10-1-11-1-13-1-13-1-13 0-14 0-13-1-12 0-11-1-11-1-9 0-8 0-5 0 9-2-1 0 26-54 4 1 7 0 9 0 11-1 12 0 12-2 13-1 14-1 15-1 15 0 16-2 17-1 16-2 17-2 17-2 17-2 17-2"/>
<path d="M1255 1165l-7-3 6 2 5 0 4 0 5 0 5 0 5 0 6-1 5-1-9 2 6-2 7-2 7-2-8 3 7-3-8 5 6-4 6-4 7-4"/>
<path d="M1402 1027l-3 3-3 3-3 2 14-16-2 3 6-17-1 5-1 6-1 7 1 8 0 9 1 9 1 9 1 9 1 9 1 11 1 11 1 13 1 13 1 14 0 15 0 16 0 17 0 17 0 17-2 9-4 8"/>
<path d="M774 5110l 1 6-1 8-1 9-3 11-3 14-4 16-2 9-5 17-5 18-6 18-6 20-6 21-6 23 2-9-5 23-6 24-5 25-7 26-6 27-7 28-6 27-6 26-5 24-4 24-4 21-3 18-3 16-2 8-3 14-3 12-3 9-3 7-4 8-3 4"/>
<path d="M647 5114l 0-4 0-3 4-9 2-3 4-8 6-7 3-3 7-6 4-3 7-4 5-3 6-2 8-3 7-3 7-2 8-1 9-2 9-1 9 0 10 0 9 0 10 0 10 1 10 2 10 3 8 4 10 4 10 5 10 5 10 7 10 7 9 7 8 7 8 7 7 9 7 9 5 9 4 9 3 10 3 9 2 10 1 10-1 11-3 11-2 9-4 12-5 12-4 8-7 12-8 12-5 7-10 11-9 10-10 10-12 10-12 10-7 6-14 9-13 9-13 8-13 7-12 7-11 6-11 5-8 4-10 4-8 2-8 2-7-1-8-1"/>
<path d="M968 5278l 7-1-9 1 7-2 7-3-9 3 8-3 7-4 7-4 8-4 7-5 8-4-8 5 8-5 7-5 7-4 8-5 6-4-7 5 6-4 5-5-7 6 5-4-6 7 3-5 3-3-5 7 2-4-4 9 1-4-1 8 0-3-2-4 4 8-3-2-4-2-6-1-7-2 9 2-7-1-7 0-7 0-7 1-7 2 9-2-8 2-8 3 8-3-8 4-8 4-7 6 7-6-7 6-7 6 9-9-6 7-6 8 6-7-6 7-5 8-4 9 4-8-4 9-4 9-4 9-3 9 2-9-2 10 0 9 0 9 1 9 2 9-3-9 3 8 4 8 5 7 5 7 7 6 9 4-8-3 10 3 11 2 12 1 12 0 14-2-9 2 15-3 16-6-9 3 17-7"/>
<path d="M1340 4935l-5 2-6 2 8-3-6 3-7 5 7-6-6 6-6 5-7 7 9-10-6 8 5-7-6 9-6 11-7 13 4-8-7 14-7 15-7 18-7 19-7 21-7 23-6 24 3-9-5 25-4 26-4 25-3 26-3 24-1 24-1 24 1 22 2 22 2 21 4 19 4 18-2-8 5 16 6 14 7 13 7 10 7 8 7 6 8 3-8-3 9 1 9-1-9 1 10-3 9-2"/>
<path d="M1394 5166l 20-32 1 4-3-9 3 5 4 7 3 6 5 7 4 7 6 8 6 9 6 8 6 9 5 10 6 9 5 9 5 9 5 8 5 7 5 7 6 5 6 6 6 5 6 4 5 2-8-3 6 2 7 2 7 1 8-2-9 2 8-3 9-2 8 4"/>
<path d="M1575 5112l-6 7-8 9-7 7-8 8 9-10-8 9-8 12-9 12-10 12-10 13-10 13-10 13 6-8-9 13-9 14-8 13-7 12-7 11-7 12 4-8-5 11-5 10-5 10-4 9-3 7"/>
<path d="M1611 4839l 3 4 3 3 4 4 3 5 5 6 6 7 7 6 6 6 7 7 8 9 9 10 9 12 9 11 9 13 9 13 10 15 10 16 9 16 9 16 8 17 7 18 6 18 3 9 5 19 4 20 3 20 2 22 0 22-2 22-3 22-6 23-2 9-7 23-8 24-10 25-11 26"/>
<path d="M7605 4196l 3-3 7-6 4-3 3-3-7 6 4-3 3-3 3-4 4-3 6-6 4-3 4-2 3-3 4-4 4-3-7 6 4-4 7-6 4-3 8-5 8-3 9-1 4-1 7 3 3 5 3 8 1 9-1 10-2 12-2 9-4 13-5 15-6 15-6 15-6 16-8 18-9 18-9 19-10 19-10 20-4 8-10 18-10 19-9 17 4-8-8 17-7 15-7 13-4 13-4 12 3-9-2 11-1 9 1 7-3-9 3 6 4 3-8-3 6 0-9 2 7-2-9 3 9-3 10-5 12-5 13-6 14-7 15-8 16-8 16-8 17-8 18-8 18-8 8-3 19-7 20-7 19-6 20-5 20-3 9-2 20-3 21-3 20-3 20-3 20-3 20-4 23-3 24-4"/>
<path d="M11309 4394l-7-4-9-4-9-3-10-3-10-2 9 1-12 0-11 1 9-1-10 2-10 3-11 4-11 4 8-3-11 5-11 8 7-5-11 8-12 10-11 11 9-9-11 12 6-7-10 14-8 15-9 15 5-8-8 16-6 15-4 14 2-8-3 13-1 12-1 9 1 9-2-8 2 8 4 7 5 5 7 3-8-3 9 1-9 1 12-2 13-5-9 4 14-8-8 5 15-11 16-13-7 6 16-14 16-16 16-16 16-17 15-17 15-17-6 7 14-17 12-18 12-18-5 7 10-18 9-18-4 8 8-19 6-18 5-18 5-19 4-21 3-22 3-23 2-24-1 9 3-24 2-23 1-22 2-20 1-19 0-17 0-14-1-12-1-11-1-8-1-7-2-5 4 8-4-5-4-2 17-1-5 2 15-9-5 4 9-9-6 6 6-8-5 9 4-8-5 10-5 14-5 15-5 18-5 19-6 21 3-9-6 22-5 24-5 25-6 26-6 25-5 26-5 26-3 26-2 26-2 24-1 23-1 22 0 20 2 19 4 16-2-8 6 14 7 13 8 12 10 9 11 7-8-3 12 4 12 2 14 0-10 2 15-3 15-5-9 4 16-7 16-8 15-8-8 4 14-9 13-9 13-11 8-4 8-3"/>
<path d="M11527 4441l 8-4-7 5 8-5-6 6 9-9-5 7 5-7-5 9 4-8-4 9-5 10-5 9-3 10-4 10-3 10-3 12 2-9-2 11-3 11-1 10 0 7 1 7 2 7-3-9 3 7 4 5 5 2-8-3 6-1-9 2 7-3-8 3 8-4-8 5 10-6 9-8"/>
<path d="M11552 4227l-7-1-7-1 9 1-6 0-6 1 9-2-6 1-5 2 8-4-5 3 7-5-5 4 19-24-3 7 2-9 1 9-2-9 2 9 4 7 4 6 5 6 6 6 3 9"/>
<path d="M11732 4442l-4-4-5-4-4-3-6-4-6-2 9 1-7-1-7 0-7 1 8-2-7 2-7 3-6 2 8-4-6 4-5 3-6 2-5 3 7-5-4 4 14-17-3 6 7-17 0 6-3-8 3 6 5 6 7 5 7 4 8 4 9 4-8-3 10 4 11 2 12 3 12 2 12 2 11 2 11 2 11 2 10 3 9 2 8 2 7 3 7 3 6 3 5 3 3 4 3 9 1 5-3 9-2 6-4 8-6 7-5 6-9 10-6 6-7 7-9 6-7 6-10 7-11 7-11 9-13 8-13 6-8 4-13 4-8 2-12 3-12 1-11 2-10 1-10 0-9-1-9-1-8-3-7-5-6-5-5-7-3-8-3-7 0-9 1-9 2-11 2-13 4-8"/>
<path d="M12049 4116l 9-9-5 6 5-7-3 6 4-8-2 7-3 8-2 8-3 10 2-9-2 11-3 13-2 14-3 15-3 16-3 18-4 18-2 9-5 18-6 18-5 17-6 19 3-9-5 19-4 20-5 20-4 20-4 18-5 18-3 15-2 14 0 12 1 11 2 11-3-8 3 10 4 8 5 6 7 3-8-3 8 2 10 0 12-1-9 2 14-3 15-6-9 4 16-9-8 5 17-11 17-12 16-13"/>
<path d="M11954 4305l-10-11 7-1 11-2 13-2-9 1 14-2 9-2 15-2 16-2 17-2 18-2 18-1 19-2 19-2 18-2 17-2 17-3 15-2 13 1 12 1 9 2 8 1 6 1 8 4 5 2 4 5 2 7 2 8 1 7 0 8 0 8-1 7-2 8-2 8-2 9-2 10-3 11-2 12-3 11-2 9-3 12 2-9-2 11-3 11-2 10-2 9-1 9-1 9 0 7-2-8 2 5 4 4-8-3 7 1 7-1-9 1 7-2"/>
<path d="M12299 4209l-6 2-6 2-7 2 8-4-6 3 8-5-6 4 9-9-3 4 9-15-1 6 2-9 0 7 1 8 1 8-2-8 2 8 4 7 4 7 3 5 3 9-2 9"/>
<path d="M12376 4375l 2 8 2 6 0 7 0 6 0 7-1 7-1 7-2 7-2 9-2 7 2-9-1 7 1 4-10-12 5 0-25 9 8-5 8-7-6 6 8-8 7-6 9-8 9-8 10-8-7 5 10-9 11-9 7-6 9-9 9-7 8-6 7-6 6-5 6-4 5-4 4-3 8-5 5-2 9-3 9-2 5-1 6 2 8 3 5 4 4 6 4 6 3 7 2 7 3 8 3 7 3 8 3 8 3 8 3 8 4 8 5 7 5 6 7 5 7 5 8 3-7-3 8 1 8 4"/>
<path d="M12754 4381l-6-2-5-2-6-1 9 1-6 0-7-1-7-1-8 0-8 1-8 2 8-2-8 3-10 3-10 4-9 4 8-4-10 6 7-6-10 8-12 11-11 11-11 11-10 9 9-9-7 10 5-7-6 10 4-8-5 12-4 10 2-9-2 10-1 10 0 9 2 7-2-9 3 6 5 6 6 4 6 5 8 3-8-3 10 3 10 2 12 0 14 0 15 0 16-2-9 1 17-3 18-5 9-1"/>
<path d="M13016 4102l-4-1 8 2-4 0-4 0 16-5-4 2 7-5-3 3 9-10-4 4 6-7-3 5 4-8-2 6 2-8-2 7-1 10-1 11-2 13-1 15-1 16-2 17-3 18-4 18-5 20-2 9-7 23-8 26-8 26-8 25-7 24-7 22-6 21-6 18-4 18 2-8-2 17-1 14-1 14 1 12 2 12-3-8 4 11 6 10 7 7 7 4-8-4 8 2 11 0 12-1 14-2-9 2 17-3 18-5 19-7-8 3 19-9 19-10 8-3 9-2"/>
<path d="M12934 4288l-3-2-4-8 0-4 1-9 3-8 5-7 6-7 7-6 8-5 4-2 9-4 7-2 10-2 11-2 9-2 14-2 16-2 19-2 20-1 21-2 23-1 24-2 25-2 24-3 31-4"/>
<path d="M727 6239l 8 3 2 5 2 8 1 7-2 9-2 11-3 14-3 15-4 16-2 9-5 18-5 20-6 22-8 24-8 25-9 26-9 27-11 28-10 27-12 28-13 29-13 30-13 29-12 27-9 25-8 23-7 20-5 16 1-6-2 12-2 9-2 9-2 7-5 8-5 7-1 2-9 9-7 5-9 4-8 2-9-1-4-8 1-9"/>
<path d="M581 6320l-2-6-2-6-1-6-2-7-1-7-1-7-1-7 1-7 1-9 2-8 2-8 4-8 4-9 6-9 4-7 7-9 6-7 9-9 7-6 10-9 11-8 13-8 8-5 14-7 15-6 8-4 16-5 16-4 16-3 9-2 16-2 15 0 15 1 14 2 14 3 13 5 8 3 12 6 12 8 11 9 10 8 9 8 7 8 6 9 5 10 4 11 3 8 1 11-1 13-3 13-2 9-5 14-6 15-5 8-9 16-11 17-13 18-5 8-15 18-16 19-9 9-17 18-17 16-18 15-17 14-16 12-8 6-15 11-13 9-12 7-9 5-8 4-8 4-7 3-6 1-8 2"/>
<path d="M981 6397l-2 5-3 5-4 6-5 7-3 6-4 7-4 7 4-8-3 7-4 8-3 8-2 8 3-9-2 8-1 7-1 6 1 6 1 6-3-9 2 6 3 4 4 3 5 3-7-4 6 2 7 0-9 1 7-1 7-3-8 3 8-4-8 5 8-6 8-7-7 6 8-7 7-9-6 7 7-8 5-8 5-7-5 7 4-7 3-7-3 8 2-6 0-7-1 9 0-6-2-6-2-5 3 8-3-5-4-4-5-4-5-4-6-3-6-4-6-3-6-2-5-2-5-3-4-3-3-8-1-4 1-9 1-5 4-8"/>
<path d="M1299 5966l 4-7 3-8 4-8-4 9 3-9 2-7 3-6 1-6 1-4-1 9 0-3 21 7-3 1 15-9-6 4-6 6 9-9-7 7-7 9-8 11 5-7-8 13-9 15-10 18-10 20 4-8-11 23-12 25-13 28-14 28-15 30-13 29-12 29-11 29-9 28-7 28 1-5-5 28-4 27-1 25 2 23 5 21-2-6 7 19 8 16 10 14 10 12 12 11 11 8 13 7-8-4 12 4 12 2 12 1 12-1-9 1 12-3 13-4-8 3 12-7-7 5 12-8 13-9 8-5 8-3 9-2"/>
<path d="M1358 6212l 0-5 1-9 0-4 2-4 3-8 3-4 4-8 4-4 6-6 3-4 7-6 4-4 5-3 8-5 5-3 6-2 8-4 6-2 7-2 7-2 9-1 8 0 8 0 7 2 7 2 8 3 7 4 8 6 7 8 6 9 5 10 5 11 4 10 4 12 2 8 4 13 3 12 3 13 3 12 3 12-2-9 3 12 4 11 4 10 5 10 6 9 6 8 6 7 7 5 6 5-8-4 7 3 8 0 8-1-9 2 9-4-9 4 10-5-8 4 10-6 10-9-7 6 10-9 10-10"/>
<path d="M1653 6155l 8-4-8 4-9 6-10 6-11 8 7-6-11 9-12 10-13 12-15 13-15 14-16 14-17 14-18 15-19 14-18 15-16 15-16 13-15 14-12 13 9-10-9 11-8 9-5 6-4 4-9 10-7 5"/>
<path d="M1668 5911l 8 3 8 4 9 5 11 5 11 5 13 6 14 7 14 9 14 10 15 12 15 13 15 14 14 15 14 16 12 17 11 17 11 17 11 18 9 18 8 17 6 19 3 8 4 19 3 20 1 19-1 20-2 19-4 20-2 9-6 20-7 22-10 23-12 23-4 8-14 23-16 23-5 7-18 24-21 23-7 8"/>
<path d="M971 7686l 0 7-2 9-2 12-2 14-4 14-2 9-6 18-9 25-11 25-9 23-11 26-16 34-16 33-13 28-8 27-9 29-9 30-8 28-7 25 1-6-6 24-1 6-6 22-6 21-5 18 2-7-4 16-3 15-2 8-4 15-5 12-4 9-4 8-5 7-9 10-8 5-8 4-8 2-9-2-4-8 1-9"/>
<path d="M834 7717l 2-7 4-8 3-6 5-8 4-6 6-7 6-7 7-9 10-10 10-9 6-6 10-8 10-7 8-4 13-8 13-7 12-5 8-3 13-4 13-3 14-3 9-1 15-2 15-1 15 0 18 0 19 2 18 2 15 4 13 4 7 4 14 5 11 6 8 7 6 8 4 8 2 9 3 9 1 11 0 12-4 14-2 9-7 17-4 8-10 20-12 20-13 17-5 8-13 16-15 17-9 10-17 17-17 16-17 17-19 16-22 17-22 17-20 14-7 5-15 11-15 9-16 9-8 4-17 8-14 6-12 5-9 2"/>
<path d="M1272 7906l 5-3 7-4 7-4 7-4-7 5 6-4 6-4 6-5 7-6 7-6-7 6 8-7 6-6 6-5 5-5-6 7 3-6-8 16 2-6 1-5-1 9 0-5-1-6 4 8-3-5-3-4-4-3-5-2-5-2 9 1-7 0-7-1-8 1-8 1 9-2-8 2-7 2-7 3 8-4-7 4-7 4 7-5-7 5-6 5-6 6-6 5-5 5 9-9-6 6 5-7-6 8-5 9-5 9 4-8-3 7-2 7 2-9-1 7-1 9-1 10 1 10 2 10-3-9 4 11 4 10 5 11 7 10 7 10 6 8 6 6 7 5 9 4-8-3 11 2 14 1 15-1-9 2 16-4 18-6-8 4 21-9 8-3 9-2"/>
<path d="M1668 7465l 9 1-4 1 16-6-3 2 7-5-4 3-3 4 14-17-4 6-6 9-7 11-7 12-6 11-7 11-8 15 5-8-9 19-10 23-9 23-9 25-9 26-8 25-6 22 2-8-5 21-3 24-4 25-2 26-1 26 0 24 0 22 3 21 4 22 5 23-2-8 7 22 7 17 8 13 9 8 11 5-8-4 11 1-9 2 12-3 13-5 9-1 8 3"/>
<path d="M1813 7719l 7-4 9-4 5-1 9-1 8 1 7 3 5 6 2 8 2 9-1 9-1 10-2 11-2 9-1 9-2 9-2 9-3 9-3 9-3 10-4 9-3 10-4 9-5 10-5 10-4 8-5 9-5 8-4 7-3 6-6 7-3 4-9 10-7 5-8 4-2 0-9 2-8-1-4-8-1-4 1-9 1-8 2-10 4-11 4-8 5-12 8-13 8-13 8-14 9-15 9-16 10-17 10-16 5-8 9-15 9-12 8-10 7-10 7-9 6-7 7-7 7-7 6-6 7-6 5-4 8-5 8-3 5-1 9-2 8 3 4 3 4 7 4 8 2 9 2 9 2 9 1 11 0 13 0 14 0 12 0 11 0 10-1 11 0 10 0 10 0 10 0 10 0 10 1 10 1 9 1 8 1 8 2 7-3-9 3 6 3 5 4 5"/>
<path d="M2001 7459l-1-2 0-8 4-8 5-8 5-7 7-5 8-5 8-3 9-2 8 3 3 1 7 5 8 7 10 10 11 10 11 12 11 12 10 13 12 13 11 13 11 13 11 15 12 17 12 18 10 15 9 14 9 16 10 20 10 23 8 25 7 23 2 8 4 21 3 17 2 17 0 17-1 18-4 18-3 9-6 19-7 18-9 18-4 8-11 16-5 8-11 15-12 14-13 14-9 10-13 13-13 11-12 10-8 5-13 8-8 4-14 5"/>
<path d="M2374 7685l 7 0 6 0 6 1 7 2 7 1 8 1 8 2 9 1 9 1 11 0 11 1 12 2 13 2 13 1 13-1 14-1 13 0 10 0 12-1 15-2-9 2 15-3 10-2"/>
<path d="M2933 7699l-2 5-1 6 2-9-2 7-1 7-1 9-1 9-2 11-1 12-2 14-1 15-2 18-3 19-5 20-2 9-6 21-6 22-6 24-7 25-9 26-9 28-12 28-13 27-12 28-11 25-8 21-8 18-9 21-9 20-7 15-4 11-2 6-4 8-6 7"/>
<path d="M2806 7703l 1-9 2-9 2-9 4-9 3-8 4-8 4-7 5-7 6-7 4-5 7-6 5-3 8-5 8-3 6-2 9-1 6-2 8 0 9 0 9 1 10 2 10 2 10 3 11 4 8 3 12 5 12 6 12 6 12 6 12 6 11 6 11 6 10 7 9 8 8 7 7 8 5 7 3 8 2 8 2 9 1 10-2 10-3 9-4 12-4 8-8 14-11 15-5 7-12 14-9 10-14 14-15 15-17 16-17 15-17 15-17 12-8 6-16 11-17 9-16 9-8 4-16 7-14 6-14 5-11 3-10 3-9 1-8 2-5 1-4-1-9-1"/>
<path d="M3205 7856l-3 4-9 10-4 4 9-9-6 5-6 8-7 8-6 9 5-7-6 9-6 9-5 9 4-8-3 9 2-9-2 10-1 10 1 8-2-8 2 8 4 9 6 8 6 7 7 6 6 6 7 5 8 3-8-3 7 1 8 0 11-1-9 2 11-2 11-3 9-3-8 3 9-5-8 5 8-6-7 6 6-6-5 7 5-6-5 7 4-6-4 8 3-7 1-6 1-6-1 9 0-7-1-7-3-6 4 8-3-7-3-6-4-6-4-6-4-5-4-6-5-6"/>
<path d="M3712 7341l-3-1-4-2-3 0 9 1-4 0-5 1 9-2-5 2-6 2 8-4-6 4 7-5-6 5-6 6-7 7 9-9-7 9 5-8-7 11-9 13-9 15-10 17-11 18-9 19 4-8-10 20-9 20-10 23-10 23-10 24-10 23-9 24-9 23-7 25 2-8-6 25-4 25-2 24 0 23 1 22 3 20 4 17-2-8 6 16 7 13 7 12 9 11 8 10 9 9 8 7 10 4-8-3 11 2 12 1 13 0 8 3"/>
<path d="M3846 7582l 1 8 1 9 0 8-1 8-2 9-2 10-2 11-3 12-2 9-4 12-3 13-5 13-4 13-4 10-2 9 2-9 1 5-11-12 5 1-17 5 7-3-8 4 10-6-7 6 10-10 11-12 12-14 13-15 12-15 12-13 10-12 9-10 8-9 8-9 8-9 7-7 6-6 7-6 4-4 8-5 9-3 5-2 9-1 5 1 7 4 4 5 3 8 3 8 2 8 1 9 1 9 0 9 0 8 0 9 0 9 0 9 1 9 1 8 2 7 1 5-2-8 2 5 2 5 4 5 5 3-8-3 5 1 5-1-17 5 8-3-8 4 8-5 8-5"/>
<path d="M4085 7247l 7 3 8 3 8 3 8 4 10 5 11 6 11 8 11 9 12 11 11 13 10 13 10 16 9 17 9 17 9 18 9 18 8 19 6 20 7 19 6 20 2 8 5 19 5 20 3 20 3 19 3 17 1 19-1 26-2 28-4 29-5 27-6 27-2 8-8 27-10 25-11 24-4 6-12 23-14 22-14 20-4 6-15 18-16 19-7 7-17 18"/>
<path d="M4637 7512l 8-3 9-2 6-1 8 0-9 2 8-2 7-2 7-3 8-2 9-3 11-3 12-3 12-3 9-2 13-2-9 2 14-3 15-5 13-3 14-2 9-2 12-2 12-1"/>
<path d="M4646 7627l 9-3 10-3 12-3 13-4 16-4 18-4 19-5 9-1 20-4 8 3"/>
<path d="M5942 7087l-5 4-7 7-8 8 9-9-8 9-8 11 5-7-9 13-8 14-8 12-7 11-8 13-10 16-12 18-12 18-9 15-9 16-11 20-10 19 4-7-8 17-6 19-7 23 3-9-7 26-5 24-3 22-1 18 0 19 2 21 2 21 4 17-3-8 5 17 8 20 10 18 12 16 11 13 12 11 13 10 13 8 14 8 14 5-8-3 12 4 10 2 9 1 8 3 2 8"/>
<path d="M6043 7367l 7-1 6-2-9 2 7-2 9-1 9-2 9-1 10-1 10-2 11-2-9 2 11-2 9-2 9-1 10-2 11-2-9 2 12-2 11-3"/>
<path d="M6434 7173l 2 8 1 7 1 10 0 14 0 13 0 12-1 14 0 19-1 20-1 19-1 19 0 19-1 19-1 19-2 17-1 13-1 13-1 16 1 15-1 12-1 10-1 8-2 7-2 9-4 8"/>
<path d="M6461 7115l 8 1 9 2 8 3 8 3 8 3 10 4 12 5 14 6 13 6 13 6 13 7 13 7 13 8 13 10 13 10 13 11 12 12 11 11 9 12 8 12 8 11 7 12 7 15 7 15 5 14 3 8 3 14 4 14 2 15 1 16 0 19-1 21-3 22-4 20-2 9-5 18-7 17-7 16-7 16-8 15-4 8-8 16-9 15-9 15-9 13-5 7-9 11-7 9-9 10-7 6-7 6-7 5-8 6-8 4-8 4-7 2-9 2-7 1-9-1"/>
<path d="M6823 6941l"/>
<path d="M6926 7062l-2-8 2 6 3 5 3 5 4 5 4 5 6 6 5 7 6 6 5 7 6 6 6 7 5 7 6 7 6 8 5 7 4 6 4 7 4 8 3 9 3 8 2 9 2 8 2 8 1 8 0 8 0 8-1 8-1 7-2 8-2 9-3 8-4 8-5 8-6 8-6 8-7 9-7 7-9 10-7 6-8 5-8 5-10 6-8 4-10 5-11 4-10 3-9 3-9 2-10 2-11 1-11 0-10-1-10-2-9-1-10-3-9-4-10-6-9-7-8-7-8-6-4-8"/>
<path d="M7738 7340l-2 6-3 7-3 8-3 9-3 9 3-9-2 9-2 10-1 11-2 12-2 10-1 10 0 8 0 7 1 6-2-8 1 5 2 5 3 4 2 9"/>
<path d="M7713 7213l"/>
<path d="M8117 6981l-7-1 9 1-7-1-8-1-8 0-9 1-8 2 9-2-9 2-8 4 8-4-9 5 7-6-8 7-8 7 9-9-8 8-8 11 6-7-8 12-8 13 4-8-7 14-6 14-4 14-4 15 2-9-3 17-2 17-2 19-2 23-1 27-2 27 0 26 2 25 2 23 3 24 3 23 5 24 6 23 6 22-2-8 7 22 2 7 5 20 5 16 4 16 5 18 3 19 2 18 1 14-1 12-2 11-2 9"/>
<path d="M7860 7320l 3-5 6-7 5-5 7-6 7-6 9-6 11-7 8-5 14-7 17-7 19-8 8-4 23-8 25-9 26-6 26-5 28-5 28-5 8-1 28-5 29-2"/>
<path d="M8894 7322l 8-2-5 3 15-9-4 3 9-9-4 5 5-8-3 5 4-8-3 7-2 6-2 7-3 8 3-9-2 10-2 13-1 12-1 11-1 11-1 9-1 11-1 12 0 12-1 12-2 11-2 11-2 9-2 9-3 9-4 8-4 8-4 8-4 7-4 6-4 7-5 7-4 5-9 9-7 6-4 2-9 4-8 2-9-1-3-3-4-8-1-5 1-9 1-9 3-12 5-12 3-9 6-13 7-15 10-19 12-21 12-21 13-21 12-20 4-7 12-19 13-18 12-16 6-6 12-14 10-12 10-10 7-6 9-8 7-6 7-4 7-4 7-3 8-3 6-1 9-2 7 0 7 2 7 3 7 4 7 7 7 9 6 10 5 10 4 9 3 10 3 8 2 8 1 8 2 7 1 8 1 9 1 9 1 10 1 10 1 11 0 10 0 8 0 7 1 7 0 7 1 5-2-8 2 5 3 4 5 4"/>
<path d="M9321 7159l 8-4 10-3 10-2 12-3 14-2 9-1 14-2 16-2 16-2 17-2 17-1 16-1 17-2"/>
<path d="M9331 7305l 12-2 14-2-9 1 15-3 18-4 20-5 21-6 23-5"/>
<path d="M9671 7060l 9 1-5 2 42-52 3 4 5 6 4 6 5 7 4 7 2 8-2 9-4 8-6 8"/>
<path d="M9748 7321l 1 7 2 7-2-9 3 7 4 8 6 8 6 8 8 8 7 8 8 9 8 9 8 10 8 11 6 11 7 13 5 13 5 14 4 12 3 12 3 8 3 12 3 12 3 13 2 11 1 10 0 11-1 12-1 13-2 14-4 14-2 9-4 13-5 13-6 13-4 8-7 13-8 12-5 7-9 11-9 10-9 9-10 7-7 5-9 6-9 5-8 4-12 5-14 4-8 2-14 3-13 1-12 1-12 0-14-1-15-3-9-1-15-3-14-5-13-6-13-6-11-8-12-9-11-10-10-11-9-12-8-12-7-13-3-8-6-12-4-12-2-12 0-13 0-12 1-9"/>
<path d="M10127 7010l-5-1 9 2-5-1-7 1 8-2-8 3-10 4 8-4-11 6-11 7 7-5-9 7-9 9 9-9-10 10-10 13 5-8-10 14-10 16-9 18 4-8-11 20-11 24-10 23-7 21-7 23-9 28-10 28-8 24-7 22-6 24 2-7-6 28-8 32-6 31-3 24 1 19 2 18 3 18 3 18 2 17 4 16 4 16-2-9 5 14 5 13 5 11 7 11 10 11 10 7-7-3 11 4 11 1 13-1 12-2 8 4"/>
<path d="M10188 7184l 1-9 1-6 2-6 3-8 3-6 5-7 4-7 6-7 6-7 6-5 7-6 7-4 8-5 9-3 10-4 12-3 9-2 12-1 12-1 13 1 13 1 14 2 13 2 11 2 12 2 13 3 13 3 12 4 8 3 9 5 8 5 6 5 4 7 2 7 2 8-1 7-2 9-4 8-5 7-5 7-9 10-7 7-9 7-8 5-11 7-11 8-13 9-14 8-15 9-14 7-15 7-13 8-12 7-11 8-11 7-11 7-9 6 8-5-8 5-6 5 14-17-2 4 5-25 3 1-8-3 7 0 9 0 10-2 11-2 11-1 12-2 12 0 13-1 14 1 13 0 13 2 13 2 13 2 13 3 12 4 12 4 7 3 11 4 9 5 7 6 7 6 5 7 4 7 4 8 2 8 2 9 1 9-1 10-2 11-3 9-4 11-5 8-6 12-6 7-8 12-10 9-10 12-12 10-13 10-7 5-12 9-12 7-13 7-8 4-14 6-15 6-17 7-19 6-19 6-18 4-9 2-16 4-14 2-13 1-11 0-9-2-9-1-8-4-7-5-4-7-4-8-3-9 0-9 0-8 4-9 5-7"/>
<path d="M10629 7149l-3 2 25-46 6 6 8 7 6 8 3 8-3 9-4 8-5 7"/>
<path d="M10682 7372l 7 5 7 5 6 5 6 4 7 5 6 6 7 6 6 7 5 6 6 7 7 10 8 11 8 12 6 12 5 12 4 12 5 13 2 8 4 13 1 13 1 14-1 14-3 14-3 14-2 9-5 14-4 13-6 14-8 16-9 17-4 8-9 15-10 15-5 7-13 16-9 9-15 16-15 13-15 12-7 5-16 9-8 4-15 6-16 4-8 2-14 1-13 0-13-1-16-2-9-1-17-5-16-7-15-8-14-10-13-11-10-13-10-14-3-8-8-16-6-17-4-19-1-19 0-20 1-9"/>
<path d="M10936 7215l 3-8 2-4 5-7 6-7 6-6 5-3 8-5 8-3 7-2 7-1 9-2 8-2 9-2 10-1 9-1 11-1-9 1 10-2 11-3 11-3 12-4 13-3 13-3 13-4 12-4 12-5 11-4 11-3-9 3 9-4-8 5 7-5 6-5"/>
<path d="M11088 7130l-6 1 17-5-5 2 16-15-4 5 10-15-3 6-3 7 2-8-1 7-1 8 0 8 2 10 1 10 3 11 2 10-2-9 3 11 3 11 3 11 4 11 2 8 3 12-2-9 3 12 4 10 4 11 3 10 3 10 3 9-2 9"/>
<path d="M10986 7392l 5-4 8-4 7-4 8-3 7-3 8-2 10-3 11-3 12-3 14-4 15-4 16-5 18-5 17-5 19-5 18-5 19-4 17-4 17-5 17-6-9 3 17-7 9-4"/>
<path d="M11441 7065l 2-8 0 6 1 8 0 9 3 10-3-9 4 12 2 9 3 14 3 15 2 15 3 15 2 15 2 16 1 16 1 16-1 15 0 16-1 16-1 14-1 14 0 14 0 14 0 12 2 11-2-9 2 9"/>
<path d="M11521 6800l 9 1 8 3 9 3 9 6 10 5 10 7 12 6 12 9 14 10 14 11 15 11 15 13 14 14 15 15 14 14 14 16 13 16 12 17 12 18 12 18 11 19 10 20 10 21 8 20 8 21 6 20 3 9 5 19 4 21 3 20 1 19 1 20-1 20-2 19-5 20-2 9-6 20-7 20-10 20-4 8-11 19-12 20-5 7-14 18-15 18-9 9-16 17-18 16-17 15-17 14-8 5"/>
<path d="M12232 6879l 1 6 0 6 0 7-1 8-3 11-2 8-4 12-6 13-7 15-4 9-10 17 5-8-11 21-12 24-5 8-14 26-16 26-19 26-4 6-21 26-21 27-22 28-21 28-21 27-20 26-16 23 2-4-11 20-11 20-13 23-12 20-8 15 4-7-5 11-3 10-3 8"/>
<path d="M12269 7069l 8-3 7-4 8-2 7-1 9-1 7-1 8-1 8 1 9 1 9 3 9 3 8 3 8 3 8 4 7 5 6 6 6 6 5 6 3 7 2 7 3 8 1 7 1 8-1 8-2 8-2 9-4 8-4 8-6 8-5 8-7 8-9 9-8 8-10 9-11 9-12 9-7 5-13 9-13 8-13 8-13 8-13 8-12 9-12 8-11 8 7-5-10 8-9 7-7 8-7 7 9-9-6 6 10-15-2 5 0-18 1 5 4 3 6 4-8-4 8 3 10 2 9 0 9 0 11-1 14-1 17-1 19-1 19-2 18-1 17-2 16-2 17-2 17-2 17-3 16-2 15-2 14-2 14-2 13-1 8 3"/>
<path d="M13220 3108l-4-8 1-8 4-8 4-7 6-7 6-5 8-5 8-3 3-1 7-2 8-2 9-1 11-2-9 1 15-3 19-5 19-4 9-2 19-3 17-2 18-3-9 2 19-4 19-4 19-3 21-5 19-5"/>
<path d="M14307 3152l-8 4 6-4 6-5 7-6 6-5-7 6 7-6 7-7 9-9 8-8 7-7 7-7 6-6 6-6-6 7 5-6 4-7-5 8 4-6 3-5-4 8 2-5-1 9 0-5-1-5 3 8-2-5-4-5-6-4-7-4-8-3-8-3-10-1 9 1-10-1-12 1-12 1-12 3 8-2-12 4-13 6 8-4-13 8-14 10 7-6-13 11-13 13-14 14 9-10-12 15-13 15-13 15-12 17 5-7-12 18-12 20-11 19 4-7-7 16-4 13 2-8-2 12-1 11 1 11 3 11-2-8 5 10 6 9 9 8 11 6-8-4 12 4 13 3 16 0 17-1-9 1 18-3 20-5 20-5 22-6 23-6 23-7 24-7 23-9-8 3 23-9"/>
<path d="M14579 3168l-5 4-5 4-5 5-5 4-5 6 9-9-6 6-6 7-6 7 6-7-5 8-5 8 5-8-4 8-3 7-3 8-2 8 2-9-2 9-2 10-1 9-1 10 0 9 0 9 1 9 2 7-2-8 2 6 4 4 4 3 5 2-7-3 5 1 6 0-9 1 7-1 7-3-8 3 8-4 9-5 8-5-8 5 9-6 7-6-6 6 6-7 7-6 5-6-6 6 5-6 4-6-5 8 3-6 2-5-3 8 1-4 1-5-1 9 0-4 0-4-1-3 4 8-1-1 54-43-1 3 1 6 2 6-3-9 2 6 3 6 3 4 4 5 5 4 6 4 6 4 7 2-8-3 8 2 9 2 9 0 9-2-9 2 11-3 10-3 12-4-8 4 12-6 14-8-8 4 15-10 13-11 11-9-7 6 10-9 7-8-5 7 7-9 6-9-5 8 6-9 4-9-3 8 3-10 3-9 3-9 1-9 1-9-1 9 0-9 0-7 0-7-1-5 4 8-1-2 25-4-2 1 22-22-3 4 5-8-2 5 2-8-1 6 0 7 2 8 2 8-2-8 3 8 3 8 4 9 5 7 6 8 6 7 7 6 7 6 7 6 7 5 7 6 7 5 7 6 6 6 5 5 3 5 3 5 3 6 1 5 3 8 0 5-2 9-2 4-4 8-6 8-3 3-9 10-7 5-4 2-8 4-6 2-6 2-7 3-8 2-9 3-9 3-10 2-8 3-8 2-9 3-8 2-8 1-5 3 8-4-5 2 7-5-3 4 18-25-2 4 2-9 1 4-2-9 3 3-8-3 5 2 6 0 8-2-9 2 9-2 9-4 10-3 10-2 7 3 3 9-3 9-4 8-5 7-9 9"/>
<path d="M15167 3103l-4 3 7-5-3 3-3 3 14-16-3 3 5-8-2 5-2 5 2-9-1 7-1 7 0 9 0 8 0 10 0 10 1 11 0 12-1 12 0 13 0 14-1 14 0 15 0 16 1 15 1 12 2 10 2 9-2-9 3 8 5 6 5 5-7-3 6 2 8 0-9 1 10-3-9 3 13-7-8 5 14-10 14-12-7 6 13-13-6 7 12-14 13-16 14-19 16-22 15-22-4 7 12-19 9-18 8-16 8-17 8-17 7-17-3 8 7-18 6-15 4-11 3-7 1-3 45-2-2 2 5-8-3 6 4-8-4 9-4 11-5 12 3-8-4 15-2 16-2 18-1 18 0 19 0 20 0 21 1 22 2 21 2 22 1 22 2 23 0 24 1 26-2 27-2 29-3 31-4 32-5 33-5 32-7 32-2 5-8 31-8 30-9 31-10 30-11 30-11 29-12 27-13 26-2 4-12 24-13 23-12 21-11 20-12 17-3 5-13 15-6 7-13 13-12 9-7 5-12 7-8 3-13 3-8 2-13-1-9-1-11-4-10-8-8-11-8-14-3-8-6-18-4-21-2-26 2-31 1-9 5-37 8-43 9-42 10-38 11-35 11-34 11-34 12-32 12-30 2-4 13-28 12-26 12-24 12-21 3-5 13-20 13-18 13-17 4-4 4-4 5-3 6-2 5-1"/>
<path d="M15589 3336l 2-8 0 5 0 4 0 5-3-8 2 4 4 2"/>
<path d="M7815 6061l-10-1-10 0-10-1-11 1-10 0-9 1-9 2 9-2-6 2 8-4-2 1 18-50 4 0 9-1 12-1 13-2 15-3-9 2 17-4 19-3 20-5 21-4 22-6 23-5 24-4 24-5 9-2 8 3 3 9-3 9-4 8"/>
<path d="M7689 4309l-10-11 7 2 12 1 15 0 15 1 16-1 20-3-9 2 25-6 28-7 32-7 39-10 56-16 74-24 77-25 67-22 62-18 66-16 71-16 74-16 77-15 4-1 81-12 83-11 85-10 86-9 88-8 89-6 91-5 90-3 90-2 89-1 91 0 89 2 89 4 85 5 84 5 83 5 81 5 81 5 79 5 77 6 78 6 81 8 86 10 81 11 73 10 65 10 58 9 53 9 46 10 41 9 36 9 31 9 26 8 22 6 19 6 5 2 16 7 12 5 11 6 2 8"/>
<path d="M11328 4948l 7 0 7-1 6 1 6 1 5 1 8 3 5 2 4 3 3 3 3 4 2 5 2 8 1 5 0 6-1 7-2 9-3 8-3 9-4 10-4 8-5 10-8 12-6 7-11 15-12 16-14 17-16 18-18 19-9 9-20 19-22 18-7 5-25 17-28 17-30 17-34 18-37 18-4 2-41 18-45 20-49 20-52 20-55 21-58 21-59 21-61 21-64 20-67 19-70 18-71 16-5 1-73 16-75 14-77 13-78 12-80 10-81 10-82 9-84 8-85 7-85 5-85 4-86 3-85 3-84 2-83 2-80 1-78 2-74 2-71 2-68 2-64 2-60 1-58 3-54 2-51 3-49 3-44 4-42 5-40 5-37 7 4-1-35 9-33 9-29 8-28 8-29 8-29 8-30 9-29 10-28 10-28 11-26 11-26 11-24 11-24 10-23 10-22 9-20 10 6-3-19 10-17 9-16 9-15 8-8 4-14 7-13 6-11 6-11 4-10 5-8 3-7 4 8-4-6 3-4 3 7-5-4 3-7 5-3 2 7-5-3 2-3 3 9-9-2 3-3 2-9 10-2 1-8 6-8 4-2 1-4 1-8 2-9-1-4-8 1-9 3-8 5-8 6-7 7-6 8-4"/>
<path d="M7677 5708l 0 6-3 9-1 7-3 9-4 9-5 10-5 11-4 8-6 11-6 11-7 13-7 13 5-8-7 13-6 12-5 12-5 8-5 11 4-8-6 11-4 11-4 12-3 11 2-9-2 10-2 10 0 8 0 7 0 7-2-9 2 6 3 5 4 5 5 3 5 3-7-3 7 2 8 3 9 1 10 1 11 1 12 1 13 0 14-1 16-1 19-2 24-2 25-3 25-4-8 2 24-4"/>
<path d="M5468 7151l-5-3-6-2 9 1-7-1-7 1-7 1 9-2-7 2-6 2-7 3 8-4-8 4-9 6-9 6-9 6 7-5-10 8-11 8-12 10-13 11-12 12-11 12 9-10-12 12-11 14-12 13-11 14 6-7-10 14-9 13-7 13 4-8-6 12-5 12-4 11 3-9-3 11-2 12-1 13 1 12 2 10-3-8 3 8 4 9 5 8 5 9 5 7 7 8 7 7 7 7 8 8 8 7 8 8 9 8 9 7 8 6 8 7 9 8 10 8 10 9 10 8 8 9 8 8 6 8 6 8 6 8 5 8 3 8 3 8 3 8 1 8-1 7-2 9-2 7-3 6-4 8-4 6-4 7-5 7-5 6-9 9-5 5-5 5-5 4-5 4-6 4-7 5-6 5-7 4-7 5-8 5-8 5-9 5-8 5-7 5 7-5-5 4-4 4-4 3 9-9-3 4 10-15-3 4 3-9-1 5 1 6-3-8 2 6 3 6 4 7 6 7 6 7 7 6 6 6 6 5 6 6 4 5 5 6 5 6 6 7 4 7 5 7 4 10 4 11 3 11 2 9 3 11 3 13 3 13 2 14 1 16 0 17-1 18-2 20-2 22-3 23-3 23-3 23-3 22-3 21-3 21-2 21-3 21-3 23-2 24-3 24-2 25-2 26-1 25-1 25-1 24-1 25 0 23 1 24 1 21 1 21 2 19 3 19 4 19 4 18 4 18 5 16-3-8 5 15 5 15 6 14 6 13 7 12 6 12 8 11 8 11 9 10 9 9 10 8 10 7 11 5-8-3 11 4 11 3 12 2 12 1 11 0 11-1 11-2 8 3 2 9-2 9"/>
<path d="M13233 2980l-8 3 6-3-8 4 4-3 8-5 5-2 9-3 6-2 8-2 10-3 11-3 13-3 15-4 19-5 19-4 15-3 15-4 16-3 17-3 18-5 17-4 16-5 18-6 20-7 18-7 15-4 12-4 14-5 14-4 12-3 12-3 10-2 12-2 11-2 11-2 9-2 8 3"/>
<path d="M13502 2782l-6 2 9-2-6 1-6 2-5 2 8-4-5 2 8-5-4 3 14-17-2 4 7-17 0 5-2-8 2 5 4 6 6 6 6 5 8 7 9 6 13 7 16 9 18 9 17 7-7-3 16 6 14 5 15 5 16 5 16 5 16 5 16 5 15 6 8 3 14 6 13 7 12 7 10 8 8 7 7 8 4 9 3 8 2 8 1 8-2 8-2 9-3 8-5 8-6 10-5 7-10 12-9 9-14 13-15 13-15 11-7 5-14 10-16 12-18 12-20 14-19 12-15 10-13 9-13 8-12 6-11 6-8 4-11 5-8 2"/>
<path d="M13165 6919l 4-1 9-2 5 0 6 0 6 0 6 1 8 0 8 0 9 0 10 0 11 0 12 1 12 0 12 1 13 1 14 3 13 3 13 6 8 3 13 6 13 8 13 9 12 11 10 12 9 13 8 15 6 16 5 16 2 9 4 17 2 18 2 18 0 19-1 18-2 19-3 19-3 18-5 19-2 9-5 19-6 18-7 19-7 20-8 19-8 20-8 19-8 18-9 18-8 18-7 17-8 15-7 15-4 8-7 13-7 11-5 11 4-8-4 10-5 8-4 8-4 8-4 7-4 6-3 5-3 5-5 7-4 4 6-7-3 4-3 5-3 5-2 4-3 4-2 4-2 4-3 3 5-8-2 4-2 5-1 4 2-9 0 4 0 5-2-9 1 5 3 4 3 4 4 4 5 5 4 4 4 5 4 5 2 5 3 4 3 5 3 5 3 6 3 6 3 6 3 7 3 7 3 7 2 8 3 7 3 7 3 8 2 9 3 9 2 9 3 9 2 10 3 10 2 9 3 10-3-9 3 9 3 9 3 10 4 10 3 10 3 11 3 10 3 10 3 10 4 11 4 11 4 12 5 12 4 12 5 13 5 14 6 14 6 14 5 14 5 15 6 16 6 16 5 16 6 16 5 16 4 16 3 9 4 16 4 16 4 17 4 16 4 16 3 16 3 17 2 17 2 17 2 18 2 18 1 18 2 18 2 18 1 18 2 18 1 18 1 19 1 19 0 18 0 19 0 19 0 18 0 19-1 20-2 20-3 21-2 21-4 21-4 20-4 20-4 19-3 9-5 19-6 18-7 18-8 17-4 8-9 16-10 16-11 16-5 7-12 15-13 14-9 10-15 13-16 13-7 5-16 12-17 11-18 11-19 10-18 10-8 4-19 9-20 8-20 6-20 5-9 2-20 4-21 3-21 3-21 1-21 0-20-1-19-2-18-3-9-1"/>
<path d="M6048 8279l-5 2 7-4-5 4 7-5-6 6 14-16-5 8-6 10 4-8-6 13-5 13-5 13-4 14 2-9-4 16-3 21-4 23-2 23-1 20 2 19 4 21 5 21-2-9 5 18 7 14 9 13 9 12 11 12 13 11 16 9 18 8-8-3 21 6 22 5 19 3 20 0 22-2 24-4-9 2 24-6 24-6 23-8-8 3 21-10 21-10 21-11 21-11-8 5 19-12 18-12 17-14-7 6 15-15-6 7 13-15 9-15-4 7 7-15-3 8 5-16 2-16-1 9 1-17-1-17-3-18-5-16-6-16 3 8-9-15-11-18-13-18-13-17-14-17-17-19-18-18-16-15-18-12-21-12-19-11-17-9-17-7-20-5-21-3 9 1-20-1-20 1-21 3 9-2-22 5-21 7-20 9 8-4-19 10-17 12 7-5-16 14 9-9-14 15-13 17 5-8-11 18-6 7-8 9"/>
<path d="M7718 8480l 8-3 6-2 6-2 8-3 9-2 10-2 11-3 14-3 14-4 15-4 16-5 14-5-9 3 14-5 12-6 11-6-8 4 10-6 8-7-7 6 6-7-6 7 5-7-5 8 3-6-3 9 1-5 1-4 0 9 0-4-1-4 3 8-2-4-3-4-4-3-5-3-7-3-9-2 9 2-10-1-10 0-12 1-13 2 8-2-14 3-13 4-13 6-13 5 8-4-12 7-11 8 7-5-11 9-11 9-9 11 9-10-10 11-10 12 6-7-9 12-7 11 5-8-5 11-4 10-3 11 2-9-1 10 0 10 1 8-2-8 3 9 5 8 7 8 7 8 8 5 9 5-7-3 10 3 12 2 15 0 18-2-9 2 20-4 22-7 23-8-8 3 23-11-8 4 24-13 24-16 24-17 25-19 26-20 25-23-5 4 25-24 24-25 23-27-3 4 21-27 19-27 17-27-3 4 16-27 13-26 11-28-2 5 11-29 8-30 7-31 6-31 3-29 3-29-1 5 1-26-2-22-3-18-5-15 2 6-5-11-6-9-7-6-7-3-8-2 9 2-8 0 9-2-8 4 8-4-9 6 8-6-10 9 10-10-10 12 6-8-9 14 4-8-8 17-7 18-6 20 2-9-6 23-7 28-8 34-2 8-10 38 2-7-10 43-10 43-7 41-4 40-1 37 0 35 3 30 6 25-1-5 7 22 10 21 12 19 13 16 14 13 17 11 19 8-8-3 19 5 19 1 20-4-9 2 20-7-9 3 20-10-8 5 21-12 19-14 19-16-7 6 17-16 15-17-6 7 12-16 11-17-4 7 9-18 9-19-4 8 7-18 4-16 3-16-1 9 1-15 0-13-2-11-2-9-2-8 3 8-3-7-4-4-4-2 9 1-5 1 8-2-5 2 15-9-5 3 9-9-4 5 5-8-4 6 5-8-3 7 2-9-1 7 0 7 2 7-2-8 3 8 4 8 5 8 4 9 5 9 5 10 6 10 5 11 6 11 6 12 7 12 8 13 8 13 8 11 8 11 8 10 7 9 8 9 6 7 6 7 5 7 4 6 2 6 3 9 0 5-2 9-2 6-4 8-4 4-5 8-9 9-5 4-7 6-5 3-8 4-7 2-9 2-9 1-10 1-11-1-11-1-9-1-11-3-10-3-9-3-9-5-8-4-8-5-7-5-5-5-4-4-4-8-1-5 1-9 0-5 4-8 5-8 3-4 6-7 7-6 5-4 8-5 6-4 7-3 9-3 8-3 10-2 11-3 9-1 13-2 14-2 14-2 14-2 14-2 14-1 14-2 12-2-9 1 12-2 12-2 10-3 10-3 9-2 8-3 8-2 8-3 8-3 8-3 7-3 8-3 7-2-9 3 7-3 7-3 6-3 7-4 7-4 6-3 7-4 7-4 8-4 7-3 8-3 7-3 7-2 7-3 7-2-8 3 6-2 6-3-8 4 5-3-7 6 4-4-6 7 3-4-9 16 2-4 0-5-1 9 0-5-2-5 4 8-2-4-4-4-4-3-5-4-6-3-7-3-7-2-7-1 9 1-8-1-8-1-9 1-10 1 9-2-9 2-8 3-9 4 8-4-8 4-7 5 8-6-7 6-6 6 9-9-6 7 5-7-6 8-5 8 5-8-5 8-3 10 2-9-2 10-1 11 0 12 2 11 3 11-3-8 4 11 6 10 7 10 8 10 9 9 10 8 12 7 13 7 14 5-8-3 15 5 17 3 18 2 19 0 20-1 21-2 21-3-9 2"/>
<path d="M13844 7598l 6-1 7-1 8 0 9-2-9 2 11-3 12-4 14-5 13-5 15-5 15-6 17-7 18-6 18-6 18-6 18-6 19-5 17-6 16-5 13-5 12-5 9-3 7-3 5-1 9-2"/>
<path d="M13961 7656l 5-7-2 4 4-8-2 5-4 8-3 4-3 5-3 5-4 5-4 7-3 6 4-8-3 7-4 7-3 8-3 9-3 10 2-9-3 12-2 12-3 12-3 14-3 15-3 15-3 16-2 16-3 16-1 16-2 16-2 17-1 17-1 17-1 18-1 18-1 18-1 17-1 17 0 16-1 14-1 13 0 11 0 11-2 8"/>
<path d="M14157 7646l 5-7-3 5 4-8-3 7-3 8-3 10 3-9-3 12-3 14-2 14-2 16-2 17-2 18-3 20-3 21-3 22-5 22-5 23-5 23-3 9-6 23-8 25-8 24-8 23-8 22-8 21-8 20-6 18-6 16-4 14-4 12-4 9-1 7 2-9 0 3-35-2 3-3-13 13 5-7 6-10-4 8 7-12 5-8 9-14 10-14 11-15 11-15 10-14 11-14 9-12 9-12 6-7 9-9 8-9 7-7 7-6 7-6 6-5 8-4 5-4 9-3 5-1 9-2 4 1 8 3 3 4 3 5 2 9 2 6 1 8 1 8 0 9-1 11-1 11-1 11-2 12-1 11-2 12-1 11 0 10 0 9 1 9 2 8-3-8 3 7 3 4 5 3-8-3 5 1 6 0 7-1-10 1 8-2-8 3 9-5-8 5 10-6 11-7 11-8 10-8 11-8 9-8 9-7 8-8-6 6 7-7 6-6 5-6-6 7 3-4 6-7 7-6 1-1 8-5 9-3 9-2 8 3 2 9-1 3-2 8-1 6 2-9-1 7-2 7-1 8 0 10 0 11 0 11 1 12 1 12 2 10 2 10-3-8 3 9 3 8 4 7 4 6 4 3 5 3-8-3 6 1 7 0-9 1 8-3-16 8 9-6 10-9-6 6 11-12"/>
<path d="M14429 7867l-5-3-6-2-6-2 9 2-7-1-6 0-7 2 9-2-7 2 8-3-6 3 7-5-6 5-5 5 9-9-6 7 6-7-5 7-4 8 4-8-3 7-1 7 2-8-1 7 1 8 2 7-3-8 3 8 5 9 5 9 5 11 6 12 6 12 5 13 6 14 5 15 5 15 5 13 5 14 5 12 4 13 4 12 4 12 5 11 4 11 4 9 4 8 5 7 5 7 4 5 4 5 4 3 5 2-8-4 4 2 4 0-9 1 5-1-9 4 4-2-7 4 4-3 5-3 5-4 6-5-7 6 6-6 6-7 7-8-6 7 7-9 8-9 7-10 7-11-5 8 6-11 7-11 6-10 6-11 6-11 5-10 5-9 4-9 3-7 3-6-4 8 2-5 4-8 1-4 5-8 6-7 7-6 2-1 8-5 8-3 9-1 8 3 3 2 5 4 5 5 5 6 6 6 5 6 6 6 6 7 7 7 8 7 8 7 8 7 8 8 8 8 8 7 8 8 7 7 6 7 6 7 5 6 4 6 4 5 2 4 2 5 3 8 1 5 0 5-3 9-2 4-4 8-5 8-9 9-4 4-8 5-8 4-6 3-8 2-9 2-9 1-11 1-13 0-12 1-13 0-13 1-13 1-13 0-13 0-11 1-11 1-9 1-9 0-8 0-7 1-5 1 8-2-1 1 25-55 4 0 7 0 10-2 13-2 14-2 16-2-9 1 17-3 18-3 9-2 8 3"/>
<path d="M15585 7963l 7-5-3 4 9-10-3 4-3 4-3 4-3 4 5-7-2 4-3 4-2 5 4-8-2 5-2 5-2 5 2-9-2 7-1 7-2 9-1 9-2 9-1 10-1 10-1 10 0 9 0 8 0 7 0 7 2 6-3-8 3 5-8-4 5 2 7 1"/>
<path d="M15601 7868l-4 2-4 2 8-3-4 2 7-5-4 3-4 4 14-17-2 4 4-8-2 4 3-9-1 5 2 5-3-8 3 6 4 6 2 9-2 9"/>
<path d="M15705 8058l-2-8 3 1-8-3 5 0-9 2 5-2-8 3 7-3 8-4 10-6-8 5 11-7 11-8 12-10-7 6 11-10 11-10 11-12 10-11 10-11-6 7 8-11 7-10 6-9-5 8 5-8 4-8-4 9 3-7 1-6 1-6-1 9 0-6-1-4 4 8-3-3-3-2 17 0-3 1 15-9-3 3 14-16-3 4 5-8-2 5 2-9 0 5 1 5-2-8 1 5 3 6 4 6 5 7 5 8 6 7 7 7 7 7 7 7 7 8 8 8 7 8 7 8 6 7 6 8 6 8 5 7 4 6 2 6 3 9 1 6 0 5-1 5-2 9-5 8-2 5-6 7-4 5-9 10-4 4-8 5-5 4-8 3-7 3-8 3-8 2-9 2-8 1-9 1-9 1-9 0-9-1-9 0-8 0-8 0-8 0-8 0-6 0-4 0-9-2-2-1-4-7 1-9 4-8 5-8 6-7 6-6 3-2 8-5 6-3 8-3 8-4 9-3 10-2 11-4 12-3 14-5 15-5 16-5"/>
<path d="M16553 7959l-1 4-1 5-2 4-2 7 3-9-2 7-2 8-1 8-1 8-2 8-2 9-2 8-3 8-2 8-3 8-3 6-4 8-3 6-3 6 4-8-2 4-1 2-51 9 3-4 5-8 4-8 7-10 7-12 9-13 10-14 12-14 12-15 6-7 12-14 12-13 11-11 11-11 10-10 9-8 6-6 9-7 7-5 7-4 5-3 8-4 8-4 2 0 9-2 8 3 2 9-2 9-1 2-4 8-2 5 4-8-3 5-3 7-3 8-3 9-4 9-4 9-4 9-3 9-4 8-2 9 2-9-2 8-1 8 0 7 2 7-2-9 3 5 5 4-7-3 7 1 9 0 10-1 8 3 2 8"/>
<path d="M16808 7977l 8-2-4 2 8-4-5 3 7-6-5 4-4 4 9-9-4 6 5-8-4 7-3 6 4-8-3 8-3 7-2 8 2-9-2 8 0 7 0 7 2 7-2-9 2 6 4 4 5 4 5 2-7-3 6 2 7 0 7 0-9 1 7-1 7-3-8 3 8-3 8-4-8 4 8-5 8-5 7-6 6-6-6 6 5-5 6-6-6 7 5-6-5 7 3-5-3 8 1-5-1 9-1-4 4 8-2-4-3-4-4-4-3-3-4-3-4-2-4-3-3-3-2-3-4-8-1-3 1-9 1-3 3-8 5-8 3-4 6-7 7-6 4-3 6-4 6-4 7-5 7-3 7-4 8-4 7-4 8-4 8-3 8-3 9-3 8-1 9-2 8-1 7 0 8 0 6 1 6 1 8 4 5 2 4 3 3 4 3 5 2 6 3 9 1 7 0 8-1 10-1 10-2 9-2 8-2 8-2 7-3 8-3 8-3 8-3 9-3 7-2 6-2 4 2-8 1 2-11-11 4 0-18 4 5-2-8 4 7-5 9-8 10-9 12-9 12-10 12-10 11-10 10-8 10-8 8-6 7-5 8-4 7-4 8-3 6-2 9-1 4 1 8 3 2 4 2 9 1 7 0 7 0 8-1 6-1 5-1 5-1 4 0 5 1 6 1 6 1 5-3-9 2 5 2 5 4 4 4 4 4 3 6 3-8-3 7 1 6 1 7 0 8-1-9 2 9-4-9 3 12-6-8 5 14-10 18-13 18-15 8-4 8-3"/>
<path d="M17390 7676l 7-5-4 4 9-9-4 4 5-7-2 4 4-8-2 6-2 6 2-8-1 8-1 11 0 12 0 11 1 12 0 13 1 14 0 14-1 16-2 15-2 15-3 16-2 16-3 15-3 14-3 13-2 9-4 13 3-9-3 13-3 13-2 11-2 10-2 8-1 6 0 6 0 5-3-8 3 4 4 3-7-3 8 0-9 2 9-3-8 3 11-5-7 5 12-8 14-10 14-10 13-11 12-10-7 6 10-11-5 7 7-10-5 8 5-9-4 8 2-9-1 9 0-9-2-8 4 8-4-9-7-8-8-8-11-6-13-6-15-6-15-6-16-4-16-2 9 1-16-2-16-2-15-1-13-1-13 0-11 1-11 1-10 1-7 2 16-6-3 2 25-47 3 2-8-3 6 1 8 0 9-1-9 2 13-3 14-2 17-3 18-4 20-4 21-4 9-2 8 3 3 9-3 8"/>
<path d="M17609 7766l 0 4-2-8 4 3-7-4 7 3 8 2 8 1 7 2 8 2 8 1 8 1 7 2 8 2 7 3 8 3 6 4 4 5 2 7 2 8 1 7-3 8-1 6-5 8-4 6-5 7-5 7-6 6-9 9-6 7-7 6-6 7-7 6 10-9-6 6-6 7-5 6-5 6-5 7 5-7-4 6-3 6 4-8-3 7-2 6 2-8-1 7 1 7-3-8 4 6 6 4-8-3 8 2 11-1-9 2 13-3 14-4"/>
<path d="M17872 7869l 9-9-4 6 5-8-3 6 4-8-3 6-2 7-2 7 2-8-2 6-1 6-1 6-1 6-1 7-2 6-1 8 0 7 0 7-2-8 3 7 5 5-7-3 6 2"/>
<path d="M17917 7739l-6-7-4-7-4-5-2-2-4-2-3-1 18 0-3 1 36-43-1 6 1 7 2 9-3-9 5 11 2 8-2 9-5 8-5 7"/>
<path d="M18072 7823l 1 8 0 7 0 8 0 8 1 8 1 8 2 8-2-8 3 8 3 8 3 8 3 7 4 6 6 5-8-3 7 2 8 0-9 1 9-2-8 3 8-4 9-5-7 4 9-6 8-7-6 6 8-8 9-9 8-10-6 7 8-10-5 7 7-11 6-12 6-12 6-12 5-12-4 8 5-11 3-10 3-9 2-7 2-7 1-6"/>
<path d="M18365 7808l-2 6-1 7 2-9-1 7-1 6 0 7-1 6 1 7-1 8 0 8-1 8-1 8-1 7 0 6 0 7-2 9"/>
<path d="M18427 7627l 31-20-3 5 12-23 2 6-3-8 4 7 2 8-2 9-4 8"/>
<path d="M18546 7828l-1-5-1-6-1-6-1-6-1-4 4 8-3-4-5-2 9 2-6-1-7 1 9-2-7 3 8-4-7 4-7 5 7-6-7 6-6 5-7 6-6 7 9-9-6 7 5-8-4 7-4 7 4-8-3 6-2 7 3-9 0 7-2-8 4 6 5 5 7 3-8-3 7 2 7 0 8 0 8-1-9 1 7-1 7-2 6-2 9-2 6 0 8 3 4 2 3 6 3 7 2 8 3 7 5 7 5 6 5 5 8 4-8-3 9 3 9 2 10 1 9 0 10-1 9-1 10-2-9 2 10-2 11-3 12-4 12-4-8 3 13-6 13-6 13-7-7 4 13-8 14-10 13-10-7 5 13-11 12-14-6 7 12-14 10-17-5 8 10-19 9-20-3 8 9-21 9-24 10-25 10-26 11-27 10-26 9-26 9-24 7-22 5-20 3-19-1 8 1-16-1-12-2-11-3-9-4-8 4 8-4-6-5-3-6-2 9 2-7-1-7 1-7 1 9-2-7 3 8-4-8 4 8-5-8 6-8 7-9 9 9-10-10 11-9 12 5-7-10 15-9 17 4-8-10 19-9 20-10 23-9 26-8 27-9 30-8 31 2-7-7 32-4 31-2 29 1 26 4 24 6 20-2-6 8 17 10 15 11 14 11 12 12 11 12 9 13 9 13 8 12 7 14 6 12 6 3 9-3 8"/>
<path d="M16728 8142l 212 3 212 3 275 2 286 3 254 3 242 3 246 2 246 2 206-3 110-6"/>
</svg>
