<svg xmlns="http://www.w3.org/2000/svg" viewBox="426 -11196 11880 2448" stroke="black" stroke-width="20" stroke-linecap="round" stroke-linejoin="round" fill="none" data-xena="0 0 0"><style>@media(prefers-color-scheme:dark){svg{background-color:black;stroke:white;}}</style>
<path d="M651 -10613l 0-1-1-2 0-2-1-3 0-2 0-3 0-2 0-2 1-2 1-2 1-2 2-2 2-2 3-3 3-2 3-3 3-1 6-3 5-2 5-2 6-3 7-1 7-2 9-2 7-1 8 0 9-1 9 0 10 1 9 0 10 1 10 2 10 2 9 3 10 4 9 3 10 4 9 4 9 5 10 5 9 5 8 6 8 6 7 7 7 6 7 6 5 7 6 7 3 8 4 7 3 9 2 8 2 11 0 10-2 12-2 13-4 13-5 15-6 15-8 17-9 18-10 18-10 18-12 19-13 18-13 19-13 19-14 16-14 18-14 17-14 17-14 16-14 17-14 15-15 14-14 15-14 13-13 12-13 12-12 10-10 10-11 8-8 7-8 6-7 4-5 3-4 3-3 1-1 2-2 1-1 0 0 0 1-1 0-2 2-1 2-2 3-1 5-3 5-3 6-3 7-3 9-3 10-3 9-4 10-3 10-2 10-2 12-1 10-1 10-1 10-1 31 0 11-1 73 0 9 1 8 0 10 1 8 0 8 1 8 0 6 1 7 0 7 1 5 1 4 1 5 2 3 0 3 2 2 1 2 2 2 2 2 1 2 2 0 1"/>
<path d="M1139 -10335l 0 1-1-1 0-1 1 1 2-1 1 0 3 0 3-1 5-1 6-1 6-1 6-2 8-1 7-3 8-1 10-2 9-3"/>
<path d="M1528 -10316l 0-2 1-4 1-4 0-5 1-5 1-7 1-6 1-5 1-4 0-10-1-3-1-4-2-4-1-3-3-3-2-3-2-2-3-3-2-3-2-1-2-2-3-1-3-1-2 0-2-1-4 1-3 1-3 1-4 3-4 3-4 3-4 4-5 5-3 6-5 7-5 7-3 8-4 9-4 9-4 11-4 10-3 12-3 11-2 12-2 12-2 12 0 11-1 11 0 10 1 10 0 9 2 8 2 7 3 7 3 5 3 5 4 3 4 3 4 3 5 2 5 0 6-1 6 0 6-2 8-3 8-5 8-6 8-7 9-9 9-10 8-11 9-12 8-13 7-14 8-13 7-14 6-14 5-14 6-14 5-14 4-15 4-15 3-15 3-15 2-15 1-16 2-16 1-15 0-32-1-16-1-15-1-16 0-15-2-14-1-15-1-15-2-14 0-12-1-13-1-12-1-10-1-10-1-9-1-7 0-6-1-5 0-3-1-2 0-2-1-1 0 1-1 0 0 1 0 2 0 3-1 4-1 5-1 7-1 9-2 10-2 12-1 13-2 15-2 14-1 16-2 17-1 17 0 16-2 18 0 17 0 18 0 18 0 55 1 19 1 18 1 19 0 17 1 17 2 16 1 16 3 13 3 14 3 12 3 11 5 10 5 8 4 8 5 6 5 5 5 4 5 3 5 2 5 2 5 0 5-1 5-2 5-3 5-3 5-6"/>
<path d="M1740 -10344l-1 3-1 5-2 5-1 6-2 8-2 7-2 8 0 7-1 7 0 7-1 6 0 7 1 6 1 6 0 5 2 5 1 5 2 3 1 4 3 3 2 3 3 3 3 2 3 1 8 0"/>
<path d="M1746 -10520l-2 2 0 1-2 2-1 2 0 3-1 4 0 8 1 5"/>
<path d="M1865 -10319l 0 3-1 2-1 1 0 2 0 2 0 8-1 3 0 11-1 4 0 8-1 4 0 14 0 4-1 4 0 7-1 3-1 2 0 4 1 1 0 1 1 0 0-1 1 0 0-1 0-2 1-2 2-2 1-5 2-5 2-7 2-8 3-9 3-9 3-10 3-9 5-10 4-9 4-9 3-8 4-9 7-13 4-7 2-5 3-5 2-4 3-2 2-2 2-2 2-1 2 0 1 0 2 2 2 1 3 3 2 2 2 4 2 4 4 9 3 5 2 5 2 6 2 7 1 6 2 6 2 6 1 7 0 6 1 6 1 4 1 6 1 4 0 5 0 4 0 6 1 3 1 3 0 0 1 2 0 1 2-1 0-1 1-1 1-2 2-2 3-3 3-4 3-6 4-6 5-8 4-8 6-8 4-10 4-9 5-9 4-8 3-8 4-7 3-8 4-5 3-6 3-6 2-4 2-3 3-3 1-3 1-1 1-2 1 0 0 0 1 0 1 2 1 2 3 6 0 3 1 5 2 4 0 3 1 5 1 5 0 5 1 5 0 5 1 5 1 5 1 4 1 6 2 4 1 4 2 4 1 3 5 6 2 2 3 2 2 1 4 1 3 1 3 0 10 0 3 0 4-1 5-2 3-1 5-2 4-3 4-2 5-4 4-2 4-2 5-3 4-2 3-2 5-2 3-3 2-1 3-2 4-2 3-2 3-1 3-1 3-1 3-1 3-2 3-2 3-1 3 0 2-3 3-1 2-1 3-1 3 0 2-1 3-1 10 0 1-1 3 1 2 1 2 1 28 0 2-1 2-1 3-1 3-1 3-1 2-2 3-1 2-2 3-3 3-2 3-1 2-3 4-3 3-2 3-3 6-6 3-2 3-3 2-4 3-3 1-3 3-3 1-3 0-3 2-3 0-3 2-3 0-10-1-3-1-2-1-2-2-3-2-1-2-2-2-2-3-1-3-2-3-1-4-2-3-1-4-1-3-1-5-1-4 0-4-1-4 1-4 0-4 2-4 1-4 1-3 2-4 2-4 2-4 4-5 3-3 4-5 4-4 6-4 5-5 7-4 7-3 7-3 8-3 7-4 7-1 7-2 6-1 7-2 6 0 10 2 6 1 5 2 5 2 5 3 5 4 4 4 4 4 3 5 3 5 3 5 3 5 2 6 1 6 1 6 1 6 1 6 0 6-1 6-2 6 0 6-2 7-1 7-4 7-2 6-3 7-3 8-3 7-4 7-4 6-3 7-3"/>
<path d="M2457 -10490l 1-1 0-2 1-2 0-5 0-1 0-2 0 2 1 1 0 1 2 1 0 2 2 2 2 3 2 4 3 5 3 6 2 6 2 6 3 7 1 7 3 8 2 8 0 9 0 9 2 9 0 9 1 9 0 10-1 9-1 8-1 9 0 7-1 7-2 6 0 5 0 4-2 3-1 2 0 2 0-11 0-5 0-6-1-7 0-16 1-9 0-10 0-10 2-9 1-10 5-20 3-10 6-18 5-8 2-8 3-6 4-7 3-6 3-5 4-4 3-4 3-3 3-3 3-2 4-1 3-1 3-1 3 1 3 0 3 1 3 1 3 2 3 2 4 2 3 4 3 3 3 3 4 3 2 5 3 5 2 5 2 4 2 6 1 5 2 6 1 7 2 6 1 7 0 7 1 7 0 16-1 9 0 7 0 8-1 7-1 6-1 6 0 7-1 5 1 4 0 13-1 3 1 3 1 3 1 1 1 2 3 1 2 1 3 0 4-1 4 0 5 0 5-2 5-2 6-3 6-4"/>
<path d="M2712 -10415l-1 1 0-1 0 1 1-1 0-1 1-1 1 0 1 0 1 0 1-1 3 0 3-2 3 0 3-3 3-2 4-3 3-4 5-3 4-4 11-9 5-6 6-5 6-6 6-6 5-6 6-7 6-6 5-7 5-6 6-6 5-6 5-6 5-6 4-6 3-6 3-7 3-6 1-6 2-6 0-5 1-5 0-5-1-5 0-4 0-5-2-3-1-3-1-4-2-2 0-2-1-1-2-1 0 0-2 0-1 0-1 2-2 1-1 3-1 4-2 3 0 5-1 5 0 6 1 7 0 7 2 7 2 8 3 8 3 9 3 8 4 8 5 8 3 8 6 7 4 8 6 7 6 7 6 7 6 7 5 7 6 7 6 6 5 7 4 7 4 7 3 6 3 6 3 6 1 6 1 6 1 4 0 4-1 4-2 4-1 3-2 4-3 3-3 3-3 2-4 3-4 1-5 3-5 1-5 2-6 0-6 1-7 0-5 1-6 0-6-2-6 0-6-2-5-2-5-2-5-3-6-2-3-2-4-2-3-2-3-2-2-2-1-1-1-1-1 0 0-2-1 0 2 0 1-1 2-1 2-1 2 0 4-1 5-2 4-1 6 0 5-2 5-1 6 0 7-1 7 0 7-2 7 0 7-2 8-1"/>
<path d="M3050 -10533l-1 2-2 1-2 2-3 2-2 3-3 4-7 13-1 6-2 6-1 6-2 7-1 7-1 7 0 8-1 7 0 8 1 8 1 8 2 23 1 6 3 7 2 6 2 5 2 4 3 5 4 3 3 2"/>
<path d="M3058 -10638l-3-2-3-2-4-2-4-2-3-3-4-2-3-1 0-1-3 0 0 1 1 1 1 2 1 2 1 3 2 4 1 4 3 4"/>
<path d="M3225 -10548l-2-1-1 0-2-1-2 0-2 0-2-1-6 0-2-1-5 0-3 1-3 1-3 0-3 0-3 1-2 2-3 1-4 2-3 2-3 3-4 3-3 3-4 5-4 4-4 5-4 5-3 5-4 6-3 5-3 5-3 6-1 5-2 5 0 6-2 10 0 10 1 5 1 5 1 4 2 4 6 8 6 4 5 3 5 4 7 2 7 2 6 2 8 1 8 0 8-1 8-1 8-2 8-2 8-2 9-3 7-4 7-3 7-3 7-4 5-4 5-4 5-5 4-4 4-3 3-4 2-5 2-4 1-4 1-5 0-8 0-4-2-4-1-5-1-4-2-4-3-5-1-4-5-7-3-4-2-3-2-3-2-2-1-3-3-3-1 0-2-2 1 0 0-1 1 0 0 0 1-1 3-1 3-1 3-2 5-1 5-3 5-2 7-2 6-3 7-3 6 0 7-3 6-1 6-2 7 0 6-2 6-1 5 0 6-1 5 1 12 0 4 0 9 3 3 3 3 2 4 3 1 3 2 4 1 4 1 5 0 4 1 6 0 5-1 5 0 6-1 5-1 5 0 6-2 6-1 5-2 6-2 6-3 6-3 7-2 6-2 5-2 6-3 4-1 4-1 3-1 2 0 1 0 1-1 0 0-1 1 0 0-1 1 0 1-1 1-2 2-3 3-5 2-5 4-8 4-8 6-9 5-11 7-11 7-10 7-10 7-11 6-9 6-8 6-8 6-7 5-6 5-6 3-4 3-4 4-3 3-2 3-3 2-1 1-1 3 0 0 1 1 0 1 2 1 1 0 2 1 3 2 2 0 4 1 5 1 4 0 6 1 6 0 5 1 6 0 6 1 7 2 5 0 12 1 12 1 5 1 6-1 6 1 6 0 5 3 5 1 6 2 5 2 4 2 4 3 5 3 4 5 3 3 3"/>
<path d="M3749 -10588l-2-1-4-1-5-1-4-1-6-1-20 0-6 1-6 2-6 1-6 2-6 2-6 2-7 3-6 4-7 4-6 5-6 6-6 5-6 5-4 6-4 5-3 5-2 5-3 5-1 5-2 4 0 4 0 8 1 3 1 4 4 6 3 3 3 1 4 2 6 0 5 0 6 0 7-3 7-2 8-3 8-3 8-5 8-3 9-5 7-5 7-3"/>
<path d="M3730 -10526l-1 3-1 2-2 2-1 2-2 3-1 3-2 2-1 3 0 1 0 3 0 2 1 1 0 3 2 3 2 2 2 3 2 2 3 3 3 3 4 3 3 1 4 1 5 2 5 1 5 0 6-1 7-1 6-1 6-2 8-3 7-4 8-4 8-5 7-6 8-6 8-6 10-7 9-7 9-9 10-10 9-10 10-11 9-11 10-11 9-13 9-13 8-12 8-13 7-13 7-14 6-13 5-14 7-15 3-15 4-14 3-15 2-16 2-14 2-15 0-15 0-30 0-15-1-15-2-15-1-14-3-13-2-12-2-10-3-9-3-7-4-6-3-5-4-4-3-1-4-2-2-2-4 0-4 1-4 1-3 3-5 3-6 6-5 7-6 9-6 10-6 12-6 13-5 14-5 16-6 17-6 16-4 18-5 18-4 18-3 19-3 21-2 20-1 21-2 20-2 21-1 20 1 21 0 20 1 19 1 17 2 16 2 16 3 14 4 13 3 12 4 10 5 10 5 8 5 8 7 8 6 6 6 6 7 4 6 4 6 3 8 2 7 2 15 0 8-2"/>
<path d="M4408 -10369l 2 0 0-1 1-1 3 0 2 0 3-2 3-1 4-3 6-2 5-3 5-4 6-4 6-6 7-6 7-6 7-7 7-6 7-7 8-7 7-8 7-6 6-7 7-7 7-7 6-7 7-7 6-7 5-7 6-6 5-7 4-6 5-7 3-7 4-6 1-6 3-6 2-6 1-6 2-6 1-5 1-5 0-14-1-4-1-4-2-4 0-2-1-3-1-2-1-2-1-1-1-1 0-1-1-1 0 0 1 0 1-1 1 1 6 0 3 1 4 0 4 1 5 1 6 0 6 0 7 1 6 1 7 1 7 0 8 0 7 2 6 1 7 1 6 2 6 3 5 3 5 3 3 3 3 4 4 3 2 5 2 4 1 4 1 5 0 9-1 5-1 5-2 5-1 6-2 6-3 6-3 6-3 6-4 6-5 7-4 6-4 7-5 6-5 6-5 7-4 6-4 6-4 6-4 5-3 5-3 5-1 5-2 3-1 5-1 4 0 7 1 2 1 2"/>
<path d="M4745 -10457l 1 0 1-1 1 0 1 0 1 0 1-1 2-2 2 0 2-1 3-1 3-2 4-1 4-2 4-3 5-1 5-3 5-2 4-3 6-4 6-4 6-3 6-4 7-5 7-4 6-5 6-4 6-5 5-5 6-5 5-5 4-4 3-6 4-4 3-4 3-4 2-4 1-3 1-3 1-2-1-2-1-3-1-1-3-2-3-1-3-2-3 0-3-1-8 0-4 1-4 1-6 2-4 1-5 3-5 2-5 4-6 5-5 4-5 5-5 6-5 5-5 6-4 6-3 6-4 6-3 6-3 6-2 6-2 7-2 6-2 7-2 7-2 7-2 7-1 8 0 13 1 8 1 7 2 7 2 6 5 12 4 4 4 6 3 3 6 3 6 3 6 1 7 1 9 0 9-1 10-2 10-3 11-5 11-5 11-5 12-7 11-8 10-9"/>
<path d="M5016 -10570l-1-1-1 0-2-1-1 0-1 0-2-1-1 0-1 1-1 0 0 1 0 2-1 2-2 2 0 3-2 5-1 5-1 6-2 6 0 6-1 8-1 7-2 7 0 9 0 8-1 9-2 9-1 10-2 12-1 11-2 13-2 13-2 13-3 13-1 13-3 14-3 14-3 13-3 12-3 13-2 12-3 12-4 11-3 10-2 9-2 8-2 8 0 6-3 6 0 3-2 3-1 2 0 1 0 1-1-1 0-3 1-3 0-5 0-6 1-8 0-9"/>
<path d="M4979 -10490l 2-7 3-8 3-9 3-11 4-11 5-12 4-10 5-7 4-7 4-5 4-5 4-4 5-4 5-4 4-4 5-2 5-2 5-3 7-2 6-1 6 0 6-1 12 0 6 1 6 0 5 1 6 2 6 0 6 1 6 2 5 2 5 2 4 2 4 3 4 1 2 3 3 3 2 3 2 3 2 3 0 3 0 4 0 5-1 4-3 6-3 6-4 7-5 6-6 8-7 8-8 8-8 8-8 8-7 8-9 7-8 7-8 7-7 6-7 5-7 6-6 5-6 4-5 4-4 3-4 3-3 3-2 2-3 1 0 2 0 0 2-1 2-1 3-2 3-2 6-4"/>
<path d="M5263 -10632l-3 0 0 1 1 0 0 1 4 0 1 0 2 0 3 1 2 1 4 0 3 1 5 0 5 0 4 0 5 0 15 0 4 0 5 0 4 1 3 1 3 1 2 1 2 2 2 1 1 2 0 3 0 2 0 3 0 4-2 4-2 3-3 5-4 4-4 6-5 6-6 5-7 6-8 7-6 8-8 7-7 6-7 9-9 7-7 8-8 7-7 8-7 7-6 8-7 6-5 6-4 5-3 5-2 4-2 4-2 3 0 2 2 2 1 3 3 1 2 3 4 0 4 1 7 1 5-1 6 0 8-2 8-2 9-4 10-4 10-3 11-5 10-5 11-6"/>
<path d="M5433 -10563l 0 1-1 0 0 1 2 0 1-1 15 0 4-1 5-1 4-1 6-2 4-1 6-2 5-2 5-3 6-2 6-4 6-3 7-3 6-4 5-5 4-3 6-4 4-3 3-3 3-4 2-2 2-3 2-2 1-2 0-2 1-1 0-2-1-1-1-1-1-1-2-1-3-1-3-2-4 0-4-2-4-1-5 0-6 1-7 1-7 1-6 1-7 2-7 3-6 2-8 4-7 3-6 4-7 6-7 5-7 5-7 6-6 7-6 7-6 8-6 8-5 8-4 8-5 8-4 9-1 8-3 8 0 7 0 7 0 7 1 7 3 7 3 5 3 6 4 5 5 5 5 4 6 3 7 3 7 3 8 1 7 1 10 0 10-2 12-3 11-3 14-4 14-6"/>
<path d="M5532 -10470l 0-4 1 1 0-1 1 0 2 0 2 0 2-1 3-2 3-1 4-3 6-3 5-3 5-3 7-4 7-5 7-5 9-5 7-7 9-6 9-6 9-9 10-8 10-9 9-8 10-8 9-9 8-8 8-8 7-9 6-6 5-8 5-7 3-7 3-6 2-7 1-5 1-5 1-6-1-5-1-4-1-6-2-4-1-4-2-4-3-2-2-2-3-2-2-1-2 0-1 0-2 1-1 1 0 1-1 1-2 3-1 3-2 4 0 5-2 6-1 6-2 6 0 7 1 6 1 8 2 8 3 7 3 7 4 8 4 6 5 9 4 7 6 8 5 8 5 6 6 8 5 7 4 7 4 7 4 6 3 5 3 6 2 5 2 6 1 4 1 5 0 7-1 4 0 2-2 3-1 3-3 1-3 2-3 1-3 1-5 1-17 0-6-2-6 0-6-2-7-2-6-2-6-2-5-2-4-3-5-2-3-3-3-2-2-2-2-2-1-1-1-2-1-1 0-3 1-1 2 0 0-1 3-1 1-1 3-1 4-2 4-1 4-2 5-1 5-2 6-1 5-1 6-1 6-1 7 0 7 0 6-1 6 0 7-1 7 0 7-1 13 0 6 0 6-1 8-1 6-1 6 0 7-2 7-1 6-2 7-2 6-2 7-2 9-2 6-3 7-2 7-3 7-4 7-4 7-4 8-4 6-4 7-5 14-9 6-5 6-3 7-5 6-5 5-3 5-6 6-3 4-5 5-4 5-3 4-4 9-9 2-3 2-3 1-2 1-2 1-3 0-2-1-2 0-2-2-2 0-2-2-1-1-2-2-1-3-2-2 0-3-1-3 0-3 1-13 0-4 0-5 2-4 1-5 1-4 2-5 3-4 4-5 3-4 5-6 4-5 6-5 6-5 6-5 7-6 7-6 6-5 7-5 7-3 7-4 7-2 7-2 7-1 7 0 8 1 6 2 7 1 6 2 6 3 6 3 5 4 5 4 4 5 4 5 4 5 3 6 2 6 2 6 0 8 0 8 0 7-1 9-2 9-4 9-3 8-6 9-5 9-6 9-6 8-7 8-7 8-7 7-7 6-7 7-8 5-6 5-7 5-5 4-5 4-5 3-4 2-4 2-3 1-3 1-2 1-2 1-1-1-2 1 0 0-1-1 1-1 1 0 1 0 1-1 2-2 3 0 3-2 3-2 5-2 5-1 5-2 6-1 5-1 6-2 5 0 5 0 11-1 4 0 5 1 5 0 3 0 4 0 3 2 2 1 2 1 1 2 1 1 1 3 0 3-2 2-1 4-2 4-3 4-3 5-6 6-5 7-6 6-7 6-8 7-7 5-7 6-8 5-6 6-8 5-7 4-6 4-6 6-5 4-5 4-4 4-4 4-3 3-2 3-2 2-1 1-1 2 0-1 0 0 1 1 0-1 2-1 0 1 2 0 1-1 1 1 3 0 3-1 3 0 7-1 5 0 4-1 6 0 4-1 6 0 10 0 6 0 6-1 6 1 6 0 6 0 6 0 5 1 6 3 9 2 4 3 4 3 4"/>
<path d="M6457 -10921l 0-4 1 0-1 1 0 5-1 3-1 3 0 11 0 6-1 7-1 7-1 9 0 7-1 9-2 9-1 9 0 10-2 10-2 11-1 12-3 12-3 14-3 14-3 15-4 17-4 16-5 17-4 17-6 17-10 35-6 16-5 16-5 14-5 14-5 12-4 11-3 9-3 7-2 6-1 4 0 7 1 1 1 2 2 0 3 1 3 0 3-1 5 0 6-2 7-3 9-4 8-4 10-6 10-6 10-7 10-7 10-7 10-8 9-7 8-7 7-7 6-7 6-6 3-6 3-5 3-5 1-5 0-9-1-4-3-3-3-3-3-2-6-3-6-3-7-3-6-2-9-1-8-3-9-2-8-2-8-3-9-1-8-2-8-3-8-3-7-2-7-3-7-2-8-4-6-4-5-4-5-3-6-4-4-5-3-3-3-4-3-3-2-3-1-3 0-4-1-3 1-1 0-2 3-3 3-2 3-2 4-2 5-3 6-2 6-3 6-2 7-2 7-1 9-2 8-2 9-1 10-1 10 0 24 0 12 0 13 1 12 1"/>
<path d="M6655 -10712l-1 2-5 0-3 0-4 1-4 2-6 0-5 2-5 2-6 2-6 3-6 3-6 3-7 3-5 3-6 4-6 3-6 4-6 4-6 4-4 4-6 4-6 5-5 4-5 3-3 4-4 4-3 4-3 4-2 4-3 3-1 4-1 4 0 8 1 2 1 3 2 2 2 2 2 2 3 1 4 1 4 1 10 0 6-1 7-2 7-2 7-2 8-2 7-4 9-3 7-4 7-3 6-4 7-3 5-3 5-2 4-3 4-2 1-2 2-2 2-1 1-2 0 0 0-1 1-1-1 0-1 1-1 0 0 1-1 0 1 1 0-1 1 1 0 2 1 1 0 2 0 2 2 1 1 4 1 2 2 2 1 2 2 3 3 3 4 1 3 2 3 2 3 1 5 0 11 0 5-1 7-2 7-1 15-6 8-5 9-4 9-6 10-7 10-7 9-8 11-9 10-9 10-10 10-9 9-10 9-11 10-11 7-10 8-12 6-11 6-11 5-12 4-11 5-12 2-13 7-36 1-13 1-13 1-13 0-13 0-23 0-12-1-12-1-10 0-9-1-9-1-6 0-6-1-4-1-2-1-2-1-1-1 0 0 1-2 0-1 1-1 2-2 3-3 4-2 5-3 7-3 7-4 9-4 12-3 11-3 13-2 14-3 14-3 15-2 15-2 16-2 16-3 16-3 17-3 18-2 18-1 17-3 19-3 18-2 19-1 17-2 18-1 16-1 14 0 14 1 12 1 10 2 10 3 7 3 7 3 6 3 5 4 3 4 3 5 2 3 1 5 1 4-1 5 0 5-3 5-3 5-3 6-5 5-5 6-6 5-6 6-8 5-8 4-6 3-8 3-8 4-9 1-7"/>
<path d="M6804 -10762l-4 0-4-1-6-1-6 0-6-1-6 0-5-1-9 0 1-1 2 0 2 0 2-1 4-1 4-1 5-1 6-2 8 0 9-3 10-1 11-2 12-2 11-2 12-3 12-3 12-2 13-2 12-2 13-3 13-2 13-2"/>
<path d="M7061 -10803l-1 3-2 3-2 5-3 4-3 6-3 6-3 6-3 7-4 6-3 8-4 8-2 7-3 8-3 9-1 8-3 9-1 8-2 8 0 9 0 8-1 7-1 7-1 8 0 6 1 6 0 11 1 4 1 5 2 4 1 3 2 1 2 2 3 0 3 0 3-1 4-3"/>
<path d="M7113 -10908l-2 1-3 1-2 0-3 2-4 3-3 2-3 4-4 3-3 4-2 5-2 4-2 4-1 5-1 4-1 6 0 10 1 6 2 6 1 7 2 7 3 7 2 8 3 8 3 8"/>
<path d="M7157 -10665l 1 2 1 2 0 2 1 2 1 3 1 3 1 4 2 2 1 3 2 3 1 2 2 2 2 3 3 2 2 2 2 2 4 2 3 2 3 1 4 2 5 0 3 1 4 0 4-1 3-1 4-1 4-2 3-2 4-1 3-3 3-1 3-2 4-3 4-3 3-2 3-3 2-3 3-4 4-3 2-4 1-3 3-3 1-4 1-4 1-3 1-5 1-3 1-4 0-11-1-3-2-4-2-3-2-3-4-2-3-2-3-3-4-2-5-1-5-1-22 0-6 1-6 1-7 1-7 1-7 3-8 2-8 2-7 3-6 3-7 2-5 3-5 2-4 2-2 3-2 1-2 2-1 1-1 2 0 2 1 2 0 1 1 1 2 1 2 1 3 1 5 0 4-1 6-1 6-1 7-2 6-3 8-4 8-4 8-5 8-4 16-9 8-5 8-4 14-10 7-3 7-4 6-3 6-3 7-2 5-4 5-1 5-2 5-1 4-1 3 0 3 1 3 0 2 1 2 2 3 1 1 3 2 3 1 3 2 4 1 3 0 5 1 5 0 11-1 5 0 6-1 6-1 6-1 7 0 6-1 6-2 5 0 5 0 4-1 3-1 4-1 2 0 7 1 1 1-1 1-1 1-2 2-3 2-4 3-4 4-4 3-5 5-7 5-6 4-8 6-6 6-7 4-7 5-8 5-7 5-7 5-6 5-6 5-5 4-5 4-4 5-3 3-3 4-3 4-1 3-2 3 0 2-1 2 0 2-1 2 1 0 1 2 0 1 1 2 3 3 2 1 2 1 2 1 2 1 4 1 4 0 5 1 5 2 11 0 6 0 7 0 39 0 9 0 26 1 7 0 9 2 7"/>
<path d="M7898 -10646l 0-1-1-1-1-1-1-2-2-1 0-2-1-2-2-1 0-1-3 0-1 1-2 0-1 1-2 1-3 2-4 2-4 4-5 4-6 5-7 5-6 7-6 6-6 7-5 6-5 7-4 7-4 7-3 8-2 6-3 7-1 6-2 6 1 5 0 5 1 5 1 4 1 4 2 4 3 3 4 2 4 3 5 1 6 2 7 0 7 0 9-1 9-2 9-2 10-3 9-3 10-5 11-3 11-6 9-5 10-5 9-6 8-5 6-5 5-5 4-4 3-3 2-4 0-3 1-3 0-2-1-1-1-3-1-1-2-1-2-1-3-1-3-1-3-1-3 0-3-1-2-1-14 0 0 1-2 0 1 0 0 1 2 0 1 0 2 1 2 1 2 1 3 1 4 1 4 0 6 1 6-1 7-1 9-2 9-2 10-3 11-4 13-6 11-6 13-7 14-8 15-7 15-10 15-10 15-10 14-11 14-12 14-12 14-12 12-12 12-14 12-12 10-13 11-13 9-13 8-13 8-13 7-12 5-13 6-12 4-13 3-13 2-14 1-13 2-13 0-13 0-13 0-11-1-12-1-9-1-9-2-7-2-6-2-3-2-3-2-2-2-2-3 0-3 1-4 1-3 2-5 3-5 6-7 6-7 8-8 10-8 13-10 14-9 17-10 18-10 21-10 22-11 24-10 27-12 27-10 30-13 31-11 32-11 34-11 35-10 34-8 35-7 34-6 35-5 34-2 33-2 32 0 62 1 29 3 29 3 25 4 24 5 23 3 20 6 20 4 16 6 14 6 12 5 11 6 8 5 7 6 5 4 4 6 3 4 1 4 0 5-1 3-2 5-4 4-5 4-7 6-8 4-9 5-11 4-12 3-12 3-13 2-14 1-13 0-15-1-15-2-15-2-16-3-17-4-17-4-16-4-18-6-17-6-17-5-16-6-15-6-15-5-14-6-12-7-11-5-9-4-8-6-7-4-5-4-5-4-4-3-3-3-3-3-2-2-2-2-1-1-1 0-1 0-1 9 0 3 1 4 0 5 1 7 1 7 0 9 1 23 0 13-1 14-1 15-1 17-1"/>
<path d="M8991 -10899l 0 1-1 0 0 4 0 3-1 3 0 7-2 6-1 8-2 10-2 10-3 13-4 14-3 15-5 15-5 17-6 18-12 38-7 20-6 19-7 19-6 18-6 18-6 17-5 17-5 15-4 14-4 12-3 10-3 10-2 7-1 6 0 7 1 1 1-2 1-3"/>
<path d="M8953 -10962l 2-2 3-3 3-4 3-5 5-4 6-6 6-3 6-4 7-2 8-4 8-3 9-3 10-3 11-2 10-2 12-2 11-2 13-1 14-2 14 0 15-1 15 1 16 0 15 1 16 1 16 2 16 2 16 2 14 3 14 3 27 9 13 4 12 6 11 7 10 6 10 8 10 8 8 8 8 9 6 9 5 11 4 10 3 11 2 11 0 13 0 12-2 13-2 13-4 12-4 15-6 14-8 15-8 14-10 15-12 16-11 16-11 16-15 15-14 16-16 16-17 17-18 16-19 15-20 16-21 15-21 15-20 13-21 12-21 12-20 11-21 9-20 8-19 8-19 6-19 6-16 6-17 4-17 3-15 2-15 1-15 0-12 0-12-1-11-2-8-3-7-3-6-4-5-3-4-5"/>
<path d="M9308 -10574l 0 1 0-1 1 0 0-1 1 0 0 0 1-2 1 0 1-1 0 0 2-1 1 0 3-1 2-1 4-1 3 0 6-2 5-1 6 0 6-1 6-1 14 0 7 1 7 1 7 2 7 1 6 3 6 3 6 3 5 4 4 3 4 4 4 5 4 4 2 5 3 4 2 5 0 4 1 6-1 4 0 6-3 6-2 5-4 6-3 6-5 6-5 6-6 6-7 5-7 5-7 5-7 4-9 5-8 4-17 9-8 4-9 4-8 5-8 4-7 3-7 3-8 3-6 4-6 2-6 1-5 3-4 1-3 2-3 0-1 1 0 1-1 1 4 0 0 1 3 1 3 1 3 1 3 2 4 0 6 1 6 1 6 0 8-1 8-1 10-1 10-2 11-2 11-2 13-2 12-4 13-3 12-4 12-3 12-4"/>
<path d="M9542 -10554l 1 1 0 23 1 6-1 5 0 7-1 6-1 7-1 6-1 7-2 6-1 8-2 6-2 7-2 7-2 5-2 5-1 5-2 5-2 3-2 4-1 3-1 2-2 2 0 1 0 2-1 0 0-1 1-1 0-2 1-3 1-4 1-5 1-6 2-8 4-8 3-9 4-10 5-10 5-9 6-9 5-10 6-8 4-9 6-8 6-8 3-6 4-7 4-4 4-5 3-3 2-3 2-1 1-2 2 0 2 0 3 0 1 0 1 1 2 1 1 1 3 0 1 3 2 1 3 2 2 3 3 3 2 3 3 4 2 3 2 4 2 3 2 3 2 4 2 3 3 3 2 4 2 3 3 3 2 5 2 3 2 3 2 4 1 4 2 4 1 4 1 4 2 3 0 4 1 5 0 5 0 5 1 6 0 26 1 5 0 6 1 6 0 6 0 5 2 5 1 3 1 4 2 4 3 3 3 3 3 3 4 2 6 2 6 1"/>
<path d="M1515 -9500l 1 0-1 0 0-1 2 0 0-1 1 0 2 0 2-1 2-1 3-1 4-1 4-2 4-1 11-3 5-2 6-1 5-2 6-2 6-1 7-3 7-1 7-3 8-1 7-2 9-3 7-1 7-2 7-3 7-1 6-2"/>
<path d="M1512 -9419l 1 0-1 0 1 0-1 0 0 1 2 0 0-1 0 1 18 0 5-1 5 0 6-1 6-1 6 0 6-1 7-1 6-1 7-1 8-2 7-1 8-2 9-2 8-2 8-2 9-3 8-2 8-2"/>
<path d="M2196 -9789l-2-1-4-1-4 0-5-1-6-1-6 0-6 1-6 1-7 3-6 3-6 4-8 5-8 5-7 6-9 6-8 8-9 8-9 8-9 9-9 9-10 10-9 10-8 10-8 11-9 12-9 12-9 12-8 13-8 14-8 15-9 17-9 17-7 16-9 19-6 18-7 20-7 19-5 19-6 19-4 19-2 19-3 19-2 19-2 18 0 18 0 17 0 16 0 16 3 13 3 15 3 12 6 10 4 11 6 8 6 10 16 15 8 7 9 5 9 5 10 4 11 4 10 3 12 1 12 0 12 0 12-2 13-3 14-5 13-4 15-7 14-7 15-8 15-8 15-10 15-10 12-11 13-10 13-11"/>
<path d="M2134 -9331l-1 0 0-2 0 1 0-1 1 0 2-1 0-1 3-1 2-1 4-2 4-2 6-2 4-3 7-3 7-4 7-3 6-2 7-3 7-3 6-3 7-2 6-2 7-3 6-1 7-2 6-2 6-1 6-1 5-2 5 0 4 0 10 0 3 0 3 1 3 0 3 2 2 1 2 2 2 3 1 3 2 4 1 5 1 4-1 6 0 12-1 7-1 7-1 8-1 8-2 8-1 8-3 9-2 9-2 9-2 9-3 8-5 18-1 10-3 8-2 7-2 8-2 8-1 7-2 6 0 7-1 6 0 5 0 5 0 4 1 4 1 3 2 1 2 2 2 1 3 0"/>
<path d="M2465 -9499l 0 2 5 0 3-1 9 0 4-1 6 0 6-1 6 0 6 0 7-1 6-1 7-1 7-1"/>
<path d="M2478 -9381l 1 0 0-1 1 0 1-1 2 0 3 0 3-1 6-1 5-1 8-3 8-2 9-3 11-3 10-3"/>
<path d="M3009 -9755l-1-1 0-1-1 0 0 0-3 0-1 0-3 0-2 1-1 1-3 2-6 3-4 3-5 3-4 3-5 5-4 5-4 5-5 6-5 6-4 6-5 6-5 7-3 7-5 6-4 7-4 7-4 7-3 8-4 7-2 6-3 8-3 6-3 7-2 7-2 6-2 6-1 7-2 6 0 6 0 13 0 5 0 5 2 5 1 4 2 4 3 3 2 3 6 6 4 3 5 3 4 1 5 3 5 2 5 1 6 3 7 0 5 2 7 1 5 2 6 1 5 1 5 2 5 1 5 3 4 1 4 2 3 1 3 2 3 2 5 1 1 3 2 1 2 2 2 1 2 3 1 2 1 1 1 3 0 10-1 4-2 5-2 5-3 6-3 6-3 7-10 14-4 6-5 7-3 6-6 6-4 6-3 6-5 5-3 5-4 5-3 5-4 3-3 4-2 3-3 3-2 2-2 1-1 1 0 2 1 0 0-1 1 1 2 0 1 0 2 0 3 2 2 1 3 0 3 2 3 1 3 1 3 2 3 2 3 1 3 3 3 3 6 6 3 4 3 3 3 4 4 5 3 4 4 4 4 5 3 3 9 14 2 5 3 5 2 5 2 6 2 6 1 7 2 8-1 8 0 9-1 8-1 10-2 10-2 11-3 11-3 11-3 11-3 12-3 12-3 11-3 11-2 11-3 11-2 11-2 10-1 9-1 10-1 8 0 24 1 7 2 8 2 6 1 6 2 6 1 6 3 5 3 6 3 5 3 4 3 5 4 5 5 3 4 5 6 3 6 4 6 2 7 3 7 2 9 0 10 1 10-1 11-1 12-2"/>
<path d="M3341 -9349l 1 1 0-1-1 1 0 1 1 0 0 1 1 2 0 2 1 2 1 3 1 4 1 5 2 4 1 5 2 6 1 6 1 6 1 7 2 6 1 7 1 6 1 6 1 7 1 6 0 6 1 7 1 6 0 15 1 7 0 7 0 8 0 7 1 7-1 7 1 6-1 5 0 21 1 1 0-2-1-2 0-2-1-4-1-5-1-5 0-7 0-7-1-10 0-9 1-9 0-10 3-9 0-10 2-10 1-10 2-8 1-10 2-8 2-8 1-9 1-7 3-7 2-7 2-7 2-7 6-10 2-6 3-6 6-9 4-4 4-4 3-4 3-4 4-3 4-3 4-3 5-3 5-2 5-2 6-3 5-1 8-2 6 0 6-1 7-1 12 0 7 2 7 0 6 1 7 2 8 1 7 2 8 3 7 3"/>
<path d="M3714 -9548l 0 1-1 0 0 1 0 0 0 0-1 1 0 3 1 2 0 4 0 2 0 2 1 2 0 3 2 3 0 3 0 3 1 4 0 3 1 4 1 4 0 4 0 3 1 4 1 4 0 4 1 4 0 3 2 3 1 3 0 4 2 2 1 4 2 3 1 2 1 3 2 2 2 3 2 2 1 4 2 2 1 1 2 3 1 1 2 2 2 0 2 0"/>
<path d="M3667 -9652l-1 0-1 1 0 1 0-1 0 1 0 0 0 0 0 0 2 0 0 1 2 1 1 1"/>
<path d="M4005 -9135l 1 1 0 5 1 2 0 2 0 2 0 13 0 3 0 3-1 4-1 4-1 4 0 5-2 5-2 6-1 6-2 7-3 8-3 8-4 8-4 9-5 10-5 9"/>
<path d="M4320 -9460l-1-1-2 0-2-2-2-1-2-1-2 0-3-1-6 0-2 1-4 0-2 1-3 1-4 2-4 2-3 3-5 3-5 3-3 3-6 4-4 5-6 4-4 4-5 4-5 4-5 4-4 4-5 4-3 4-5 3-4 4-3 4-4 3-3 3-4 3-3 4-3 3-1 3-2 3-1 2-1 2-1 2 0 2 0 2 0 1 0 1 1 1 1 1 1 1 0 1 2 0 1 1 2 1 2 1 2 2 4 1 3 0 4 1 5 1 4 1 5 0 5 0 5 0 11 0 5 0 24 0 6 1 6 0 5 1 6 0 7 1 6 0 6 0 6 2 7-1 6 2 7 1 7 0 6 2 6 1 6 1 6 2 6 1 5 2 5 2 6 2 4 2 5 2 4 2 3 3 3 3 3 2 3 2 1 3 2 3 3 4 1 3 3 4 0 4 0 4 1 4 0 5-1 5-2 4-1 6-3 7-2 6-4 6-4 7-3 6-6 7-4 7-6 7-6 6-5 5-6 6-6 6-7 4-7 5-6 4-7 4-8 4-8 3-7 2-8 2-7 2-8 2-8 0-6 0-8 0-8 0-6 0-7-1-7-2-5-1-7-3-6-3-4-3-5-3-4-3-5-3-4-4-2-3-3-3-1-3-3-3-1-3 0-3 0-8 0-4 1-4 2-3 2-5 2-5"/>
<path d="M4489 -9709l 0 1-2 0 0-1-1 1-2 0 1 0 0 1 1 0 1 2 1 2 0 2 3 3 0 3 3 5"/>
<path d="M4519 -9534l 0 1 1 0 1 1 0 0 2 1 1 2 2 2 1 1 2 3 2 2 3 3 2 3 4 2 3 3 3 3 3 2 3 3 3 3 4 2 3 3 3 3 3 3 4 3 2 3 3 3 4 4 2 3 2 4 2 3 3 4 2 4 2 4 2 4 3 4 1 4 3 5 1 5 2 4 3 9 1 4 1 5 2 13 0 12 1 4 0 4-1 3 0 4-1 3 0 3-2 3-1 2-2 3-1 3-3 2-2 2-2 3-4 2-3 3-5 3-4 4-6 2-6 2-6 2-8 2-8 2-7 2-8 0-8 1-9 1-8 1-7 0-7-1-7-1-7-1-6 0-6-2-5-2-5-2-5-2-5-3-4-2-4-4-3-3"/>
<path d="M4924 -9858l 0 1 1 1 1 3 0 2 1 4 0 4 2 6 0 6 1 8 1 9 1 10 1 11 1 11 1 13 1 14 1 15 1 14 0 16 2 16 1 16 1 17 1 16 1 17 1 17 2 17 2 17 2 16 2 17 1 17 2 18 1 17 3 17 1 18 2 18 2 19 2 18 3 19 2 19 2 19 5 38 0 18 2 20 2 19 2 21 1 19 1 19 2 19 0 19 3 18 1 17 2 16 0 15 1 13 2 13 1 11 2 10 0 9 2 8 1 6 2 5 1 4 1 3 1 3 2 2 0 1 0 0 0 1 1 0 0-3-1-2 0-2 0-1-1-2-2-3 0-3 0-3-2-3-1-4-1-4 0-3"/>
<path d="M9890 -10523l 1 1 0 5-1 0 1 0 0 7 1 2 0 3-1 4 0 4-2 6-1 6-3 8-3 7-4 9-5 11-5 11"/>
<path d="M10177 -10693l-1 0 0-1-1-1-1 0-1 0-2 0-1-1-8 0-2 1-1 0-3 4-3 3-2 2-1 4-3 4-3 5-2 5-2 5-3 6-2 6-1 6-3 6 0 6 0 22 1 5 2 4 2 5 3 4 2 3 4 3 4 3 4 2 4 1 6 3 5 0 5 1 6 0 6-1 6 0 7-2 6-1 7-3 6-3 6-3 6-3 5-4 5-5 4-4 4-5 2-4 3-5 2-4 0-4 1-5 0-8-1-3-2-4-1-4-3-5-2-3-4-3-3-3-4-3-3-2-4-3-5-2-3-3-5-2-3-1-5-2-4-1-4-2-5 0-3-1-2 0-3 0-2-1-3 0-1 1 0-1-1 0 0-1 2-1 1-1 1-1 2-1 3-1 4-2"/>
<path d="M10319 -10729l 0 6 1 2 1 2 0 2 1 3 1 2 1 3 1 3 1 4 1 3 2 3 1 4 3 3 1 4 2 5 2 3 2 3 2 3 1 4 2 3 1 3 1 1 1 2 1 3 0 2 1 1 0 2 1 1 0 2 1 1-1 1 0 0-3 0-2 0-1 0-1-1-3-3-1-3-1-2-2-3-1-4-1-3-1-5-1-5 0-9 0-7 0-4 1-6 2-5 1-6 2-4 2-5 2-4 3-5 3-4 3-4 4-3 3-5 5-4 5-4 5-3 5-3 6-3 6-4 6-4 7-2 7-3 8-3 7-2 8-2 8-3"/>
<path d="M10661 -10755l-2-2-2-2-3-2-2-2-4-3-3-3-4-2-2-2-2-2-3-1-3-1-2-2-3 0-2-1-3 0-3-1-3 0-3 1-4 1-4 1-3 2-4 1-4 3-4 3-5 4-6 5-6 6-5 6-7 7-6 8-6 8-6 10-6 9-6 10-4 10-5 11-3 10-2 9-2 10 0 8 0 9 0 8 2 7 2 6 3 6 4 4 4 5 5 3 6 3 6 1 8 2 8 0 9-1 10-2 9-4 11-4 11-7 12-7 11-8 11-10 10-10 11-12 10-11 9-11 8-13 7-12 6-12 6-11 4-12 4-12 4-12 2-12 2-12 0-12 1-12-1-12 0-13-2-12-3-14-2-13-3-15-3-15-4-15-4-14-3-14-4-15-3-13-4-11-3-11-3-9-3-8-3-7-2-6-2-5-3-4-1-2-2-2-1-2-1 0-1 0 0-1-1 0-1 1 0 1-1 2-1 3-2 4-1 5-2 7-2 8-2 8-2 10-1 11-1 12 0 13-2 14 1 13 0 15 1 16 1 16 0 16 2 17 1 17 2 17 1 17 3 17 1 16 2 16 1 16 3 15 2 14 2 14 3 13 3 12 3 11 4 10 4 10 4 8 4 7 5 7 4 5 5 4 5 3 5 3"/>
<path d="M10807 -10680l 1 0 0 1 9 0 3-1 4 0 5-1 5 0 6-1 7-3 6-2 6-2 7-3 7-4 7-3 6-4 6-4 6-3 6-4 6-3 3-4 5-3 3-4 3-4 2-2 2-3 1-3 0-2-1-3-2-3-2-2-3-2-4-2-4-3-5-2-5-2-6-1-6-2-6 0-6-1-13 0-7 1-8 1-7 2-7 2-7 3-7 3-7 3-7 5-6 4-5 6-6 6-5 6-5 7-4 8-4 8-3 9-3 8-3 9-1 8-1 9 1 7 0 8 2 8 3 6 3 7 4 6 4 6 6 5 6 5 7 4 9 4 8 2 10 2 10 1 23 0 12-1 11-1"/>
<path d="M11020 -10728l-2 0 0 1-1 0 0 1-1 0-1 3 0 1 0 5 0 4 0 3 2 4 1 4 1 4 2 4 1 5 3 4 2 4 2 4 2 5 3 5 2 5 2 5 3 4 1 5 2 5 0 5 1 4 0 11-1 3 0 2 0 2 0 1-2 2-1 0 0 1 0-1-1-1-1-2-1-1-1-2-1-3-2-3 0-4-1-5-1-4 0-6 1-6 0-7 1-6 3-15 2-7 3-8 3-8 3-7 4-8 4-7 4-7 4-6 4-4 4-5 4-4 4-4 5-4 4-3 5-4 6-2 7-4 8-3"/>
<path d="M11703 -11013l 1 0-1 1 2 0 0-1 2 0 2-1 2 0 5-1 5 0 6-2 8 0 8-1 9 0 29 0 9 0 10 1 11 2 11 0 9 3 10 2 10 2 8 4 9 4 7 4 7 4 6 6 6 5 4 5 4 6 3 5 2 7 2 7 0 15-2 7-3 9-4 9-6 9-7 9-8 9-10 10-11 10-13 11-14 9-15 10-16 11-16 11-16 11-17 10-17 10-17 10-15 10-15 9-16 10-14 10-15 8-13 10-11 8-10 7-8 7-7 7-5 6-4 3-3 5-2 3-1 2 0 3-1 2 1 3 0 2 3 2 3 3 4 3 5 1 5 2 9 2 8 1 22 0 13-1 13-2 15-2 15-3 15-3 16-4 15-5 16-4 16-4 14-4 16-3 14-4 15-3 14-3 12-2"/>
<path d="M11973 -10802l 0 0 0 4 1 2 1 2 0 4 0 5 1 5 0 5 1 6 1 7 0 54-1 7 0 6-1 5-1 6 0 6-2 5-1 4-2 5-1 3-2 3-2 2-1 1-1 1 0 1-1-1 0-1-1-1-1-2-1-3-2-4-1-6-1-5-1-7 0-7 1-9 1-10 1-9 2-10 3-9 4-12 4-10 5-10 4-11 5-9 5-10 6-9 5-8 5-7 5-7 6-5 4-6 5-4 4-3 5-3 4-2 3-2 4-2 3 0 4-1 3-1 4 0 4 1 4 0 4 1 4 2 4 1 4 3 5 2 5 3 5 2 4 4 5 3 4 3 6 4 3 4 5 6 3 6 3 6 3 7 3 7 2 8 3 8 1 8 1 8 1 9 0 8 1 8-1 9 0 10 0 9-1 9-1 8-1 9 0 9 0 8 0 20 0 7 2 6"/>
<path d="M5425 -9421l 1-1 1-1 0-3 1-2 1-2 1-3 1-4 1-3 1-2 1-3 0-6 1-3 1-2 0-3 0-2 0-3 1-3 1-2 0-8-1-2 0-3-1-2 0-2-2-2-1-1-2-2-1-1-3-2-4-1-3 0-3-1-4-1-5 0-4 1-6 1-6 1-5 2-6 2-6 2-6 3-6 3-6 3-6 3-5 3-5 4-6 4-5 4-5 4-5 5-4 5-5 6-3 4-4 5-3 4-3 4-1 4-3 4 0 3 0 3-1 2-1 2 0 3 1 3 1 2 0 2 2 2 1 2 3 2 1 2 3 2 2 1 3 1 3 2 3 1 3 1 4 2 3 0 4 1 4 1 4 0 4 1 4 0 4 0 4 1 13 0 4 1 27 0 6 1 5 0 6 0 6 1 6 1 5 1 5 1 11 3 5 2 4 3 5 3 4 3 4 3 4 3 3 4 3 3 2 4 2 3 2 4 1 4 1 4 0 22-1 6-2 7-3 6-3 7-4 5-3 6-4 5-4 6-5 5-9 9-5 5-5 4-6 5-6 4-8 4-8 4-7 3-9 3-8 2-8 2-7 1-8 1-15 0-8-1-6 0-7-2-7-1-6-2-7-3-5-3-6-3-5-3-4-3-4-4-3-3-2-4-3-3-1-3-1-3-1-4 0-7 1-4 1-5 2-3"/>
<path d="M5554 -9671l 0-3-1 0 0-1 1 0 0-1 2 0 1 0 1 0 1-1 3-1 1 0 3-1 2 0 3-1 11 0 3 1 3 0 2 0 3 1 3 0 2 1 2 1 1 1 2 1 0 1 2 1 1 2 1 1 0 6-1 3 0 3-1 3-2 4-1 3-2 4-3 5-1 3-3 5-3 4-3 4-2 3-3 4-2 3-2 3-3 3-2 2-2 2-2 2-1 2-2 2-1 2-2 1-1 1-1 2-1 0 0 1 2 0 0-1 3 0 2 0 3 0 3-1 7 0 4-1 5 0 4-1 5 0 5 0 7-1 7-2 7-1 8 0 8-2 9-1 8 0"/>
<path d="M5806 -9520l 0 1 1 0 0-2 1 0 0-1 3 0 3 0 5-2 4-1 7-2 7-2 9-2 9-3 10-2 9-3 9-3 9-3 9-2 9-3 9-3 9-2"/>
<path d="M5798 -9413l-1 0-1-1-1 0-1-1-1 0-1-1 0-1 1 0 0-1 2 0 1 0 1-1 2-1 3-1 4 0 5-2 6-1 8-2 8-2 8-3 9-2 10-3 9-2 9-2 10-3 10-2 9-3"/>
<path d="M6169 -9532l 0-1-1 0 0-1-2 0-1-1-1-1 0-1-1 0-1-1 0-1-1 0 0-1 0 0 1 1 0 2 1 0 1 2 0 2 1 4 3 5 1 6 2 6 3 8 2 8 1 10 3 11 1 11 2 11 0 11 2 13 1 11 1 11 0 12 0 11 1 11 0 19 1 10 0 8 1 9 0 53 0-1-1-1 0-2-1-2-1-3-1-5-2-5-1-7-1-8-2-9 0-9-1-10 0-11 1-10 0-12 1-13 2-12 2-13 2-15 6-27 3-14 5-13 4-12 4-11 5-9 4-9 4-7 3-6 4-7 3-5 3-4 6-10 3-3 3-4 3-3 3-3 5-3 4-2 4-2 4-2 5-2 5-1 5 0 6-1 6-1 7-1 6-1 7-1 7-1 8 0 7 0 7-1 8-1 6 0 7-1 6 0 22 0"/>
<path d="M6497 -9731l-2 0-1 1-2 0-1 1-1 1 0 1 2 2 0 3 1 3 1 4 1 5 1 6 1 6 2 7 0 7 0 8 1 8 1 7 1 7 0 8 1 7 1 8 1 7 0 8 1 6 1 7 1 5 0 5 0 6 1 3 1 4 0 5 1 1 0 2 0 0 0 1 0-2-1-1 0-1-1-3-1-3 0-3-1-4 0-5-1-6-1-6 0-6-1-6-1-6 0-13 1-6 1-6 0-6 1-6 1-6 1-5 2-5 1-4 2-5 1-4 3-4 2-3 2-3 3-3 2-2 1-3 3 0 3-2 2-1 2 0 5 0 2 0 2 0 3 1 2 1 3 1 2 3 3 1 3 2 3 3 2 2 3 2 3 3 2 3 3 2 3 2 1 2 2 3 3 3 3 2 1 3 3 2 2 3 1 3 3 3 3 4 1 4 2 4 2 4 2 4 2 5 1 4 1 3 2 5 1 9 1 4 1 9 1 5 1 3 1 5 0 4 3 4 0 5 1 4 3 9 2 3 1 4 3 4 2 4 3 4"/>
<path d="M6864 -9534l 1-1 1-1 1 0 1 0 1 0 3-1 2-1 2-1 3 0 3 0 3-2 4-1 4-1 4-2 5 0 5-2 6-1 6-2 6-2 7-2 6-2 7-2 8-1 8-2 9-3 8-1 8-2 8-1"/>
<path d="M6874 -9459l 1 0 0-1 2 0 0-1 2 0 2 0 2-1 2 0 2-1 4 0 4-1 5-1 4-2 6 0 10-3 7-3 7-2 8-3 8-2 9-3 8-3 10-3 9-4 10-3 10-4 10-3"/>
<path d="M7411 -9883l-2 0 0-1-1-1-2 0 0 0-2-1-1 0-1 1-2 0 0 2-3 2-3 3-4 3-3 4-4 5-5 7-5 7-6 8-6 9-6 10-7 12-6 13-8 13-7 14-8 16-8 17-9 18-8 20-8 20-9 20-7 21-9 22-8 22-8 22-6 21-7 22-6 21-4 22-5 22-4 20-3 21-1 19-2 18 0 17 0 17 0 17 2 15 1 14 3 13 4 13 3 13 5 11 4 11 6 10 6 10 5 10 6 8 7 8 6 8 7 8 8 7 8 6 8 5 8 4 8 6 9 4 8 3 8 3 8 2 8 1 11 2 8 1 18 0 8-1 8-2 10-1"/>
<path d="M7613 -9582l-1-2-3-1-2-2-3-3-3-2-4-2-4-2-3 0-2-1-3 1-5 0-3 0-4 2-4 1-5 3-4 3-6 3-6 4-5 4-6 5-6 5-5 5-6 4-5 5-5 4-4 4-5 5-3 3-3 4-2 4-2 3-2 3-1 3 0 3 0 7 1 2 1 3 2 2 3 1 3 3 3 2 5 1 5 2 6 1 6 2 6 2 8 0 8 2 8 1 8 2 9 1 9 2 10 1 10 3 8 1 8 2 9 2 8 2 8 2 6 2 7 3 7 3 7 3 6 3 5 4 6 3 9 6 4 3 3 4 3 3 4 6 1 4 2 4 0 3 0 4 0 5-1 4-2 6-1 6-3 5-4 7-5 7-6 6-6 7-8 7-9 7-9 7-10 6-8 6-9 5-9 5-10 4-8 3-8 2-8 3-8 2-9 0-8 1-7 0-8-1-7 0-7-2-6-1-6-3-6-2-5-3-5-4-3-3-4-4-2-3-3-5-1-4-1-4 0-4 1-5 1-5 3-5"/>
<path d="M7803 -9514l 1 2 0 6 1 4 0 10 2 6 0 6 1 7 0 14 0 8 0 15 0 8 0 7 0 7 1 7 0 7 1 6 0 19-2 5 1 6 0 4-1 4 0 2 0 3 0 3 0 0-1 0 0-3-1-3-1-3 0-4-2-6-1-6-1-6-1-7 0-7 1-9 0-7 1-8 2-9 1-8 4-9 2-9 3-8 3-9 5-8 4-8 4-7 4-6 4-7 5-5 4-6 5-5 5-4 5-5 6-4 6-3 6-3 4-2 6-2 6-3 7-1 6-2 5-1 8-2 6-1 7-1 7-1 8-1 7 0 6 1"/>
<path d="M7978 -9812l-1 0 0-1-1-1 0-1 2 1 2 0 1 2 3 2 4 2 4 3 6 3 7 4 7 4 7 5 8 5 9 5 9 7 9 7 9 6 18 15 9 8 10 8 9 9 9 9 9 8 9 8 9 10 8 10 10 9 7 10 8 9 7 11 7 10 7 11 6 9 6 11 5 10 5 10 5 10 5 11 4 11 4 10 3 11 3 11 4 13 3 12 2 13 1 12 1 14 0 14-1 14-1 13-2 14-3 14-5 13-5 15-5 13-6 14-5 12-7 14-6 12-6 11-6 12-7 10-5 10-6 9-6 8-5 7-6 6-6 5-7 4-6 3-5 2"/>
<path d="M8252 -9916l 0-1 1 1 0-1 1 0 0 1 3 0 3-1 3 0 3-1 3 1 5-1 4 1 15 0 5 1 5 1 4 1 6 1 4 1 5 1 4 1 3 2 3 1 4 2 2 1 2 2 2 3 1 2 2 2 0 3 1 3 0 3-1 3 0 3-1 4-2 3-3 4-3 4-3 4-5 3-5 4-5 4-4 5-7 3-5 4-6 3-5 4-5 4-5 3-4 4-4 3-3 3-3 2-1 2-3 2 0 1-1 0 0 6 1 0 0 2 1 1 2 0 1 2 2 2 3 1 3 2 4 1 4 1 6 1 6 1 6 1 8 1 9-1 9-1 10-1 11-1 10-2 13-3 13-3 14-4"/>
<path d="M8546 -9569l-1-1 0 0-1 0-1-1-1-1-1 0 0-1 0 1 0 0 0-1 10 0 4-1 5 0 5 0 6-1 6-1 6-1 7-1 8-2 7 0 8-2 8-1 8-1 8-1 8-1 8 0"/>
<path d="M8606 -9475l 0-1-1 0 0-1 0-1 0 0 0-1 3 0 3-1 3-1 3-1 6-1 5 0 5-2 7-1 7-2 7-1 7-1 7-2 8-1 8-2"/>
<path d="M8935 -9835l 1 2 0 10 1 6 0 5 0 7 1 7 1 9 1 9 0 10 1 11 1 11 1 13 0 12 1 13 0 13 2 12 0 14 1 15 2 14 0 14 1 15 1 14 1 15 2 15 1 15 1 15 1 15 2 15 1 15 2 15 2 15 1 13 1 14 2 12 2 12 1 11 1 10 2 8 1 9 2 6 1 8 2 6 1 5 0 5 1 4 1 4 1 2 0 2 0 2 0 4 1 1 0 1 1-1 0-1 1 0"/>
<path d="M9127 -9934l 1-1-1 0 0-2 5 0 1 1 3 0 2 1 3 0 4 0 3 1 6 3 4 2 4 2 3 2 4 2 3 3 3 3 4 3 3 4 4 3 3 5 4 5 4 4 4 5 4 6 4 5 3 5 4 6 3 7 3 6 3 6 3 6 2 7 1 6 2 7 2 7 1 7 2 7 1 6 1 6 1 7 1 7 1 6 0 7-1 8 0 14-1 8-1 7-1 8-1 8-2 7-3 15-2 7-2 7-2 7-1 7-1 6-2 6 0 5 0 5-1 4 0 4 1 4 0 3 1 4 1 3 1 3 1 3 2 3 1 3 3 3 1 2 2 3 3 2 4 2 3 2 3 1 3 2 4 1 4 2 5 2 3 2 5 1 4 2 4 0 4 2 5 1 3 0 8 0 4 1 4 0 3-1 10 0 3 0 3 0 3-1 2-1 2 1 2-1 2 0 2-1 0 0 1 0 0 0 1 0-1 0-1 1 0 1 0 1-2 1-2 2-2 1-2 2-2 2-4 3-3 2-3 3-3 3-3 3-3 3-3 2-3 3-2 3-3 2-2 3-3 3-3 2-2 2-2 3-2 2-2 2-2 2-1 2-2 2-1 2-2 3 0 3-1 3-2 2-1 3-2 3 0 2-1 3-1 3-1 1-1 3 0 6-1 3 0 3 1 2 0 6 1 3 0 4 1 2 1 3 1 3 1 4 2 3 1 4 2 3 3 3 2 4 2 3 3 3 3 4 3 3 2 3 3 4 3 3 3 4 2 4 4 4 3 4 2 3 3 4 3 3 3 4 3 4 2 3 3 4 2 3 3 4 3 3 2 4 3 3 2 4 3 4 1 3 2 3 3 4 1 3 2 4 3 4 2 4 1 4 1 3 2 4 1 5 2 4 1 5 0 4 1 5 0 28-1 5 0 6-1 7-1 6-1 5-1 6-2 6-2 5-2 7-2 6-2 6-2 5-3 6-2 5-2 6-3 4-3 5-2 4-4 3-3 4-3 4-4 3-4 4-4 4-4 3-5 4-5 4-6 3-6 4-6 2-6 3-6 2-6 1-7 2-6 1-6 2-6 1-6 0-7 1-6 0-6 1-18 0-5-1-4 0-4-1-3 0-3 0-3-1-3-1-3 0-2-1-1 0-3-1-2 0-2-1-2 0-2-1"/>
</svg>
