<svg xmlns="http://www.w3.org/2000/svg" viewBox="-2276 -5921 22856 20464" stroke="black" stroke-width="32" stroke-linecap="round" stroke-linejoin="round" fill="none" data-xena="-403 594"><style>@media(prefers-color-scheme:dark){svg{background-color:black;stroke:white;}}</style>
<path d="M5968 2807l 0-1 4 25-2 34-4 37-4 30-5 33-7 36-7 37-7 37-7 36-7 32-5 30-5 25-5 32-3 28"/>
<path d="M6109 3031l 0-1 26-10 28-5 25-3 26-3 29-3 30-4 27-5 29-6"/>
<path d="M6223 2932l 0 0 9 26 9 25 7 29 4 29 0 30-1 31"/>
<path d="M6895 2593l 0-1 21 14 5 28 3 26 2 28 0 28 2 26-1 31-2 29"/>
<path d="M6597 2913l 0 0 31 4 33-1 30-2 35-4 39-3 42-4 45-5 49-5 25-2 25-3 25-2 25-3 26-3 25-3 25-3 25-2 25-3 24-3 25-3 45-6 44-5 39-4 36-4 33-1 29-1 26 1 25 1 33 3 25 3 26 3 25 4 24-3"/>
<path d="M6576 3056l 0-1 26-4 31-3 29-1 31 0 28 0 27 3-3 25-16 19-25 23-18 17-19 16-22 17-21 17-22 17-22 18-22 18-22 18-22 16-27 21-20 18-15 18 23 12 26 0 34-4 24-3 34-6 32-5 27-6 23-6 24-10"/>
<path d="M6870 3178l 0-1 23-9"/>
<path d="M7060 3041l 0-2 21-14 27-8 28-6 26-4 28 1 24 9 7 25-17 19-25 17-23 12-25 10-24 8-24 7 24-12 32-6 25-3 25-1 30 2 24 5 26 12 12 21-3 25-14 21-16 18-19 20-20 22-25 23-29 18-31 16-28 10-25 3-30-5-20-15-12-23 0-29 10-23"/>
<path d="M7337 2943l 1-1 25-2 25 5-8 23-20 15-22 16-19 18 16 20 25 2 26-6"/>
<path d="M7508 2515l 2 1 27 12 22 17 24 26 16 21 17 24 18 27 19 28 19 30 17 31 16 31 14 31 11 30 8 30 5 29 3 29 0 31 0 31-2 29-4 29-3 28-5 29-8 27-10 28-10 27-14 28-14 29-15 27-16 25-16 22-22 25-18 19-22 11"/>
<path d="M8137 2540l-1-1-23 9-14 19-17 25-19 32-15 25-17 29-17 33-18 39-18 42-17 44-14 45-12 45-10 45-7 45-5 42-1 39 2 36 5 31 8 27 9 24 13 31 16 25 21 23 19 19 22 13"/>
<path d="M8210 2746l 1-1 25-7 18 19 7 28 3 29-3 33-4 25-6 26-7 29-10 31-10 33-14 33-13 31-13 29-11 25-14 30-13 23-12 21"/>
<path d="M8389 2928l 0-1 25 1 24-1 32 0 26-1 27-3 25-5 27-9"/>
<path d="M8467 2882l-1-1 9 23 5 24 1 30 2 33"/>
<path d="M9002 2550l-1-1-5 24-2 25 0 31 0 33-1 32 0 29-3 24-5 27"/>
<path d="M8674 2918l 2-1 26-9 27-6 34-4 26-2 27-2 29-1 31-1 32 0 35 0 35 0 38 0 39 0 40 2 40 1 39 2 39 0 37 1 35 0 33-1 27 0 25-1 30-1 25 1 24 2 24 8"/>
<path d="M-804 5110l-2 1-23 10-16 20 15 18 25-10 25-20 22-24 18-21 19-27 21-31 22-35 26-42 15-22 14-23 15-25 15-25 15-25 13-27 12-26 12-27 9-25 9-25 6-25 4-24 5-46 0-44-2-42-6-39-7-33-10-29-10-22-15-20-27-3-19 19-14 24-17 31-18 40-8 23-9 25-8 27-7 28-8 29-6 31-6 32-5 32-5 32-3 33-3 32-2 32-1 30 1 29 1 28 2 27 2 26 9 45 11 39 13 30 15 22 25 23 27 8 28-2 28-13 27-23"/>
<path d="M-394 4992l-2-1-25 4-15 19-11 24-8 28-3 27 5 26 22 16 30-7 26-19 17-18 15-25 3-25-15-20-20-13-25-13-21-12"/>
<path d="M-147 4969l-3-4-23-15-23-11-27 11-15 18-18 27-15 30-12 30-5 27 4 26 26 3 25-11 20-15 19-16 23-21 18-20 11-22-11 25-7 27-3 32 2 33 7 35 6 24 5 23 5 24 4 36 1 25-2 29-3 30-6 30-8 29-11 29-12 27-13 25-15 21-20 25-20 15-28 2-21-15-19-27-10-25-7-30-5-35-2-39 2-41 6-40 9-38 14-34 16-31 20-31 22-30 24-29"/>
<path d="M261 4366l-4 1-25 17-21 24-15 22-16 25-17 30-16 33-15 38-14 41-11 46-10 48-5 25-3 25-4 25-3 25-2 25-4 47-1 45 1 42 3 38 3 35 6 31 6 26 6 24 11 29 13 27 19 15"/>
<path d="M268 4644l-1-1 4 26 3 32 1 29 0 30 1 32-1 33-3 35-3 35-4 35-5 32-6 28-5 26-7 32-5 27"/>
<path d="M434 4804l 0-1 24-7 27-3 26-3 29-2 30-3 30-4 28-3 25-4"/>
<path d="M566 4685l-1 1-12 21-4 29-1 29 0 33 2 36 3 24 6 36 9 33"/>
<path d="M836 4810l-1-3 4-25 11-23 20-18 26 3 19 19 11 28 7 28 7 32 7 35 4 24 6 35 6 30 9 24 12 22 23 10 28-15 26-26"/>
<path d="M1043 4752l-4 1-20 15-19 18-18 21-23 27-15 21-17 22-17 24-16 25-15 25-15 24-12 22-17 29"/>
<path d="M1043 4467l 1-1 23 12 22 20 22 23 15 20 13 22 15 25 12 27 14 28 13 30 13 30 13 30 9 30 7 31 4 32 0 32-4 34-6 36-11 34-12 35-15 33-15 29-14 27-13 22-16 30-19 23"/>
<path d="M1398 4727l 1-1 23-8 30-5 27-4 30-2 28-1"/>
<path d="M1420 4819l 0-1 22-14 28-7 27-5 32-4"/>
<path d="M1921 4843l 0-1 7-25 13-21 14-23 17-22 18-20 18-18 20-16 23-10 14 22 7 28 5 26 5 29 8 32 7 32 6 31 9 31 9 28 11 25 13 21 17 23 19 18 25 11 30-2 22-13"/>
<path d="M2284 4731l-1 0-25 12-18 20-20 24-15 20-18 23-19 25-23 27-22 28-23 28-22 28-20 27-17 26-16 23-18 28-12 25"/>
<path d="M2477 4717l-1-1 26-5 30-4 30-4 34-3 25-2 25-2"/>
<path d="M2976 4403l-1-1 0-25 21-18 24-11 28-4 26 9 14 19 9 23 5 27 5 30 6 30 5 30 6 29 7 24 15 22 24 10 25-4 24-12 26-19 26-23"/>
<path d="M3288 4290l-4 0-24 5-23 10-25 16-26 21-20 19-20 20-21 22-23 23-20 23-20 23-18 22-15 20-15 26-8 24"/>
<path d="M3368 4205l 1-1 25-10 25 4 23 11 16 22-1 25-14 22-18 19-20 17 8 23 31 2 31 0 28 1 28 1"/>
<path d="M2872 4757l 0-1 27-3 29-6 26-6 29-5 33-8 36-7 39-8 42-7 42-8 44-7 46-7 46-6 46-7 45-6 44-5 42-4 40-4 36-3 31-1 32-2"/>
<path d="M3206 4871l 0-1 26-11 25-3 25 1 25 5 10 25-12 23-18 22-20 25-17 17-18 17-20 17-20 17-18 16-24 21-20 20-18 18 28 11 28-8 35-11 26-8 28-9 30-10 30-11 32-12 32-12"/>
<path d="M3719 4687l-2-1 22-13 26-4 33-4 36-5 24-4 32-8 31-7 23-9"/>
<path d="M3846 4573l-2 2-22 22-17 25-5 27 2 30 10 30 9 22 16 26"/>
<path d="M4243 4324l-1-2 18-17 29 5 22 13 21 22 12 21 10 23 8 26 8 28 7 29 10 26 13 23 24 21 29 8 32-7 28-15 20-14 20-16"/>
<path d="M4491 4280l-5 2-28 17-28 21-25 26-17 20-16 22-15 23-15 25-15 24-16 24-13 24-13 21-13 26"/>
<path d="M4619 4125l 1-1 26-5 27 5 27 7 26 7 19 16-13 20-22 15-19 15 26 7 23 6 23 14 18 16 7 24-16 20-22 15-22 12-28 11-28 12-30 11"/>
<path d="M4134 4651l 1 0 30-3 30-3 26-4 31-4 35-6 40-6 43-7 46-6 47-7 25-3 47-5 48-5 44-4 43-3 40-3 36-1 33-1 30-1 30-1"/>
<path d="M4374 4806l 0-1 28-8 31-2 26 0 28 3 20 16-17 24-23 21-18 16-25 19-20 14 28 7 32-3 25-2 24 1 28 5 22 14 2 27-12 23-17 21-20 21-21 19-25 15-27 10-29 5-26-3-23-10-20-21"/>
<path d="M5017 4592l-1-1 25 12 31 1 31-2 25-3 25-3"/>
<path d="M5426 4293l-1-2 10-22 27 2 21 12 22 20 16 21 13 23 9 27 9 27 7 27 6 27 6 24 9 28 15 22 27 6 29-16"/>
<path d="M5672 4258l-2-1-26 7-24 14-19 14-22 17-23 21-26 23-28 25-28 27-27 27-24 27-21 25-15 20-14 22"/>
<path d="M5842 4102l-1-1-7 25-8 27-10 24-8 23-3 24 16 22 29 6 31-3 24-5 26-8 26-13 24-12 23-15"/>
<path d="M5931 4172l-2 0-17 19 0 27 4 28 6 27 3 30 2 32-2 25"/>
<path d="M5291 4660l 0-1 26-8 31-2 27-3 34-2 38-2 43-3 45-3 49-2 24-1 25-1 25-1 26-2 24 0 26-2 26-1 24-1 25-1 24-1 47-2 43-2 39 0 36-2 29-2 33-2"/>
<path d="M5609 4756l-1 0-20 18-15 23-14 22-14 23-14 23-11 21-10 23 4 26 21 14 28 2 29-2 33-5 25-4 24-5 25-5 34-10 32-11 29-12"/>
<path d="M5669 4844l-1-1-12 24 3 27 8 23 8 23 6 26 3 29 0 28"/>
<path d="M6307 4765l-2-2-24-12"/>
<path d="M6272 4759l-1 0 28 3 25-3 25-5 24-6 23-8 27-8 24-7 25-7"/>
<path d="M6405 4622l-1-1-19 18-6 24 0 30 5 33 4 31 6 30 5 29 3 27"/>
<path d="M6574 4847l-1 0"/>
<path d="M6703 4890l-1-1 25-5"/>
<path d="M6847 4900l 0-1 23 8"/>
<path d="M-53 1254l-1-4-8-25 20 20 13 23 16 29 14 23 15 26 16 29 16 33 18 35 18 35 17 34 16 33 16 30 16 28 16 27 14 25 12 23 16 30 11 23 12 25"/>
<path d="M237 1188l-2-1-24 5-18 27-15 30-12 25-13 30-12 33-16 37-16 39-17 42-18 42-18 42-18 40-17 41-17 39-16 36-14 34-11 30-10 24-10 30-5 25"/>
<path d="M462 1497l 0-1 21-15 29-10 27-9 29-8 28-8 25-5 28-3"/>
<path d="M480 1612l-2-1 9-23 27-12 27-8 29-5 31 0"/>
<path d="M-1419 5959l-1-1 17 25 18 22 20 29 17 21 15 23 16 23 16 23 14 21 14 20 23 36 19 30 17 29 16 27 16 26 13 25 12 23 9 22 11 29 9 24 9 27"/>
<path d="M-1140 5905l-2-1-28 8-20 27-17 30-13 23-14 28-12 24-15 30-12 24-14 28-17 33-17 35-19 37-20 39-21 39-20 37-18 35-15 33-14 29-11 25-13 29-8 24"/>
<path d="M-871 6100l-1-1 27-8 28-7 25-8 27-7 27-8 24-5 26-2"/>
<path d="M-830 6177l-1 0 30-4 31-3 26-3 28-1 27-3 25-2"/>
<path d="M-155 5876l-1 0-3 26 0 29 0 29 2 35 1 26 1 29 1 28 1 28 0 24 2 30 2 27"/>
<path d="M55 5913l-1 0-8 26-7 28-7 28-9 36-9 28-10 31-13 33-13 35-15 38-16 38-16 40-15 40-13 38-13 33-11 31-10 26-11 31-8 24-6 24"/>
<path d="M39 6236l 0-1 22-10 24-7 27-5 27-1 29 7 19 19 1 28-15 25-17 21-20 20-20 21-22 19-21 17-20 15-20 16 30 0 26-3 24 3 25 5 27 6 27 9 26 10 22 10"/>
<path d="M401 6167l-1-2"/>
<path d="M833 5832l-1 0 25-4 27-7 24-8 27-7 30-8 31-7 31-6 33-7 24-5 35-6 24-4 34-7 32-6 29-5 31-6 24-4-14 26-18 22-18 21-14 20-14 22"/>
<path d="M878 5876l-1-2-8-24 23 17 17 19 19 23 20 25 17 17 20 16 22 15 23 16 24 16 23 13 22 15 22 13 24 17 20 13 19 17 3 28-13 27-15 23-19 26-16 19-17 20-20 22-20 22-21 22-20 21-19 20-16 18-21 23-16 19-16 23-11 23 16 22 26 3 27-2 33-5 24-5 26-4 25-4 27-2 27-2 25-2 25-2 24-3 35-4 35-4 33-6 31-6 27-7 28-8 23-12 14-23-4-25-14-22-22-23-20-17-23-14-22-11-27-8"/>
<path d="M1086 6622l-1 0 2 27-2 27-1 25-1 27-1 30-2 31-1 31-1 28-1 25 0 25"/>
<path d="M1069 6647l-1-2 5-25 22-14 25-8 24-5 24-3 25 0 27 5 14 21-9 27-12 21-16 22-19 20-19 19-19 15-25 16-24 11-26 9"/>
<path d="M2077 5682l 0-1 14 20-1 29-3 26-4 29-5 30-5 26-4 26"/>
<path d="M1794 6041l-1-1 29-4 26-2 27-2 32-2 25-2 26-1 29-2 31-1 31-2 32-2 32-2 33-3 33-4 32-4 31-5 28-4 25-5 25-5 33-6 28-5 29-6 24-3"/>
<path d="M1824 6248l 0 0 27 0 24 2 31 2 30 5 27 7 25 12 2 26-17 24-20 21-24 22-27 22-20 13-20 14-27 18-27 18-23 19-20 16-20 18 26-3 29-11 25-8 27-8 28-8 28-8 26-8 24-6 25-4"/>
<path d="M2119 6389l 1 0 1 29-3 30-6 28-4 31-6 33-6 31-6 31-4 31-3 27-3 28"/>
<path d="M2096 6392l 0-2 9-26 19-14 26-10 28-4 28 2 25 6 24 11 10 22-6 27-17 22-17 18-20 19-22 16-21 14-27 13-26 3"/>
<path d="M2264 6126l-1-1 28-5 27 0 28 2 19 16-14 23-17 17-19 16-19 16-20 17 22 15 25 0 30-4 28-1"/>
<path d="M2679 6060l-1 0 14 20 25 2 24-3 24-3 25-1 25 1 25 0"/>
<path d="M3462 5617l-1-1-8 27-4 28-1 27-2 28-4 26-5 24-2 26"/>
<path d="M3128 6023l 0-1 26-6 30-5 24-2 29-1 32 0 35 0 24-1 26 0 27-2 29-3 31-4 33-4 35-5 35-5 35-5 35-5 33-5 31-4 29-3 25-3 32-2 28-3 26 0 26-1 24 4"/>
<path d="M3279 6256l-1-4 1-27-6-25-22-15-30-1-27 8-22 11-21 14-19 15-21 22-13 20-2 26 25 14 27 6 24 4 28 4 31 4 31 6 28 7 28 11 21 20 1 29-13 29-17 23-22 26-26 23-28 19-27 11-31 2-26-13-17-28-8-25-6-27 1-28 5-25 9-26 16-26 16-19 18-17 20-17 22-17 20-15 22-13 28-15"/>
<path d="M3433 6403l 0-1 8 27 3 28-3 25-2 29-5 31-6 32-5 33-6 31-5 29-6 24-5 23"/>
<path d="M3429 6405l 0-1 14-23 25-6 28-3 32-1 30 3 25 6 21 14 11 23-5 29-15 26-17 20-20 20-20 17-21 12-27 10-24 0-19-18"/>
<path d="M3679 6069l 0 0-6 28-15 22-15 24-9 24-1 24 25 2 26-3 27-4 25-6 24-5 26-8 23-8"/>
<path d="M3748 6093l-1-1-8 24-3 26-4 25-4 29-3 28 0 28"/>
<path d="M4056 5978l 0-1 22 12 24 2 28-2 27-2 25-1 26-1 29 1 25-1 25-1"/>
<path d="M4196 5885l-1 0-9 24-1 25 1 30 2 29 2 28 2 24 4 25 1 26"/>
<path d="M4883 5555l 0 0 15 20-3 28-3 28-3 24-2 26-2 27-2 24 1 24"/>
<path d="M4532 5933l 1-1 23-11 24-7 26-4 25 2 30-1 27-3 32-5 29-3 34-3 25-3 27-2 26 0 25-1 27 0 25 0 27 1 26 0 25 0 25 1 26 1 24 1 25 0 36-1 25 0 36-2 33-1 31-1 30 1 28 1 26 4 30 5 25 3 27 5 24 0"/>
<path d="M4489 6197l 0-1 21-13 24-1 26 7 23 11 22 11 15 20-10 26-14 21-21 23-17 18-27 27-20 20-21 20-22 20-23 21-20 19-19 19-17 18-22 23-17 20-15 20 23 10 30-5 30-10 25-9 26-9 25-10 28-11 23-8"/>
<path d="M4747 6160l-1-1-10 24-8 23-10 27-9 29-13 27-15 25-9 24-6 26 14 21 29 6 27-2 31-5 29-8 30-9 27-10 23-13"/>
<path d="M4799 6290l-2 0-11 26 2 25 5 30 2 33-2 30-2 30-1 30"/>
<path d="M5012 6298l-1 1 0 24 3 30 4 31 0 29-2 35-3 27-5 29-5 30-7 28-6 26-8 34-5 27-5 29"/>
<path d="M4975 6374l 1-3 8-23 17-22 23-10 25-1 30 5 27 8 25 15 15 20 0 27-12 24-22 19-28 14-30 9-30 3-27-4-23-13"/>
<path d="M5317 6043l-1 0-19 23-12 26-9 25-9 26-9 28-4 27-2 24 1 27 13 20 24 8 28-9 20-20 13-25 5-27-8-23-26-11-26 5-24 17-17 18"/>
<path d="M5681 5978l 0 0 25 6 24 0 25-2 27-3 24-1 26-2 25-2"/>
<path d="M5962 6200l-1-1 25-10"/>
<path d="M6052 6192l 1 0 25-2"/>
<path d="M6153 6215l-1 0 27-4"/>
<path d="M6267 6222l 0-1 25 0"/>
<path d="M6362 6246l-1-1"/>
<path d="M-869 7995l-1-1 23-9 27 1 25-1 27-3 25 0"/>
<path d="M-876 8090l-1-1 25-13 25-8 23-7 24-2 25-1 25 2 25 7"/>
<path d="M-384 7743l 0-1 6 27 3 29 1 26 1 28-2 32-2 34-4 34-4 34-6 31-5 27-4 27"/>
<path d="M-178 7707l-1-1-1 30-4 24-9 33-8 28-11 32-12 38-15 42-17 45-8 23-9 24-9 24-9 24-8 25-9 25-9 25-8 25-8 24-14 45-12 44-10 41-8 37-7 34-6 28-7 31-4 26"/>
<path d="M-214 8219l 0-1 14-20 23-12 26-3 25 2 26 6 22 10 18 18 1 30-10 29-14 26-17 30-18 29-18 25-18 21-21 24-18 17 26-9 25-1 24-1 26-1 25 0 24 0 25 5"/>
<path d="M107 8105l-1-1"/>
<path d="M801 7765l-1 0 2 25 6 27 7 24 2 25 0 31 0 29 0 25 3 27"/>
<path d="M1056 7850l-1-1-18 25-16 26-12 21-14 25-16 25-19 30-19 32-19 33-21 35-21 35-20 35-19 35-16 34-14 31-12 30-9 27-9 23-9 24"/>
<path d="M925 8214l-1-1 15-20 25-10 27-5 28 0 26 5 19 17 0 25-9 24-12 21-16 21-18 23-20 21-18 18-22 20-23 15 26-13 26-6 26-4 25 3 24 9 24 7 24 10 23 14"/>
<path d="M536 7538l-2 0-24 9-20 17-16 20-19 30-14 25-15 29-15 33-16 36-17 41-9 22-9 24-8 24-8 24-9 25-7 25-7 25-6 26-6 24-9 47-5 44-4 42-2 39 0 37 1 35 2 31 4 30 5 27 6 26 12 34 13 25 14 20 17 18 20 17 25 10"/>
<path d="M1314 8024l 0 0-16-19"/>
<path d="M1819 7601l-1 0 26 3 29-5 28-7 32-7 35-8 35-9 35-8 30-6 27-7 30-5 25-1 2 24-18 24-16 21-15 20-15 19-20 19"/>
<path d="M1789 7639l-1-1 20 14 17 18 18 18 25 20 22 15 22 12 21 12 25 15 25 12 24 12 1 25-19 22-21 21-16 18-19 20-20 22-20 23-21 23-21 23-19 25-18 24-17 23-15 21-13 21-19 27-16 24-14 21-13 26 10 23 30-2 26-4 29-3 33 0 35 2 37 3 26 3 27 3 28 2 27 1 25 2 25 0 33 0 29 0 24-4 26-7 1-25-17-22-19-22-19-22-15-23"/>
<path d="M1848 8492l-1 1 7 24 8 25 5 24 7 30 6 33 4 36 0 26 0 25-2 35-3 29-6 28"/>
<path d="M1859 8491l 0-1 21-18 28-5 28 0 29 1 25 4 21 15 1 29-14 26-15 21-16 20-22 21-22 13-27 4"/>
<path d="M2690 7607l-1-1 2 30 1 26 1 31 3 30 3 28 1 26-1 28-5 26"/>
<path d="M2479 7995l 0-1 25-15 27-6 27-4 25-5 27-3 31-3 32-4 32-2 31-3 32-3 33-2 32-3 32 0 31-1 29-2 28-2 24-5 32-4 24-3 27-3"/>
<path d="M2641 8168l-1-1 14 25 5 32 1 33 0 35-3 26-2 27-3 27-3 26-4 25-5 35-5 31-5 28"/>
<path d="M2629 8202l-1-1 5-24 21-14 23-8 28-4 30 3 27 11 22 13 21 18 4 28-12 24-17 22-24 21-23 20-23 16-20 14-22 10-20-15"/>
<path d="M2899 8060l 0 0 27 3 29 3 25 4 4 24-22 16-21 14-19 16 20 17 28-3 25-5 27-4 26 1"/>
<path d="M122 9684l-1-1 25 7 26 0 24-2 28-5 26-3 23 5 24 5"/>
<path d="M746 9309l 0-1 11 25 0 30 0 30 0 30 0 32-1 35-1 25-1 24 0 35 0 32 1 27 3 27 4 25 4-26"/>
<path d="M954 9497l 0-1 2 26-13 29-12 25-13 27-15 29-17 31-16 33-16 32-16 32-15 33-14 31-13 31-11 28-10 26-12 32-9 22-9 23"/>
<path d="M909 9765l 0 0 25-6 26 0 25 2 25 8 15 21-6 25-14 24-16 22-21 23-22 22-22 19-25 19-24 16 30-5 28-7 27-8 25-5 27-3 25-1"/>
<path d="M1050 9599l-1 0 25-9 26 4 11 23-15 19-20 14-23 9 25 4 25-5 25-5 26-3"/>
<path d="M1299 9551l-1 0"/>
<path d="M1519 9290l-1 0 7 27 0 29 3 25 1 25 4 25 1 28-1 25"/>
<path d="M1709 9275l-1 2-10 28-9 30-9 26-10 33-9 25-9 26-10 28-10 29-12 31-13 33-14 36-15 36-15 37-15 36-15 35-15 33-14 30-11 27-9 25-10 33-6 25"/>
<path d="M1631 9671l 0-1 24-11 25-1 24 5 22 11 13 23-4 28-14 22-16 19-20 18-21 16-22 14-23 16-21 12 24-8 25-3 30 2 25 9 28 13 17 17 15 20"/>
<path d="M2011 9590l-1 0"/>
<path d="M2450 9250l-1-1 24 7 30 2 32-2 29-2 34-5 26-4 26-5 28-5 26-5 25-4 31-3 26-2 28 1 0 26-21 17-25 19-24 19-23 18-20 18-19 17"/>
<path d="M2419 9301l-2-1 3 26 19 17 20 19 22 18 18 17 20 20 21 13 24 11 30 12 24 9 23 12 27 15 23 16 17 18 14 23 5 25-2 25-6 24-14 22-18 22-19 18-25 18-26 15-27 15-25 15-25 17-25 18-23 19-19 19-20 22-10 24 4 24 27 7 30 3 31 0 30-1 33-2 25 0 25-1 27-1 26 1 25 1 25 0 24 1 35 1 32 0 26 0 28 1 26 1 11-25-11-24-13-21-14-23-15-23-12-21-20-18"/>
<path d="M2670 10058l-1-1-3 27-1 28-1 25-1 25-2 27-1 28-1 27-3 24-2 26"/>
<path d="M2655 10097l-1-1 8-23 25-10 28 0 26 10 14 21-4 29-12 23-17 22-23 12"/>
<path d="M3374 9125l 0-1-1 28 0 30 1 29 1 32 2 25 2 24 1 27 5 25"/>
<path d="M3183 9483l 0 0 29 1 32-2 30-3 36-5 27-2 28-3 29-3 29-3 29-4 27-2 28-3 27-3 26-2 35-4 32-3 27-3 27 0"/>
<path d="M3324 9693l 0 0 4 24 7 26 5 25 7 30 2 36 1 29-2 30-5 31-4 32-6 30-3 29-4 27-1 25 0 30 4 26"/>
<path d="M3305 9714l-1-3 8-24 27-4 25 2 29 4 31 4 28 5 25 12 11 24-7 25-15 23-20 24-23 24-23 23-22 20-20 14-25 7"/>
<path d="M3580 9550l 0 0-7 26-9 23-12 26-11 23-7 23 28 1 24-6 26-5 28-4 29-6 27-9 23-13"/>
<path d="M3668 9548l-1-1-5 28-2 27 3 29 1 28 3 25 3 24"/>
<path d="M52 11168l-1-1 27-6 30-6 27-3 27-5 25-4 30-6 27-3"/>
<path d="M132 11080l-1 1 0 25 7 25 10 29 8 23 9 26 9 27"/>
<path d="M602 10907l 0-1 9 24 7 28 4 30 1 25 0 26 0 27 0 27 0 31 3 27"/>
<path d="M807 10879l-1 0-11 25-10 31-11 33-8 24-12 28-13 30-13 33-15 34-15 36-16 37-15 37-15 38-15 37-15 34-15 32-14 27-12 23-13 30-8 25"/>
<path d="M735 11230l-1-1 27-8 25-2 26 0 24 4 25 11 7 27-9 29-14 23-16 24-19 22-21 24-23 22-22 22-20 17-19 17 24 6 28-8 30-3 28 0 28 4 25 6"/>
<path d="M899 11051l-1-1 27-5 25 2 23 8 15 20-14 22-20 20-21 14 26 6 27 0 24 4 17 20-9 25-18 17-25 7-25-8"/>
<path d="M1271 11191l-2 1"/>
<path d="M1564 10856l-1-1 15 20 5 27 2 31 1 26 1 26 1 25 1 24 1 31 3 24"/>
<path d="M1799 10872l-1 1-13 25-10 23-13 29-10 25-13 28-16 33-18 37-21 38-22 42-22 43-20 42-20 40-17 38-15 35-12 30-10 23-8 26"/>
<path d="M1717 11214l 1-1 25-12 28 1 25 9 4 28-14 23-20 21-20 15 27 0 25 1 25 6 20 17 5 23-5 25-12 20-17 18-23 14-25 6-27-1-26-9-19-16"/>
<path d="M2017 11151l-1-1"/>
<path d="M2530 10843l-1-1 27 3 28-3 32-6 36-7 35-7 34-7 31-3 27-3 26-2 24 2-22 18-19 15-20 15-24 15-25 15-23 14"/>
<path d="M2517 10855l-2-1 6 24 26 16 28 16 24 11 26 11 26 11 25 11 25 9 26 8 23 8 27 11 23 14 18 18 8 24-9 25-14 20-21 21-26 24-21 16-22 18-23 18-24 20-24 19-23 19-23 20-21 18-19 17-23 25-13 20-9 25 15 22 30 4 28-1 34-1 25-1 24-2 25-1 24-1 36-1 34-3 31-3 29-5 27-7 24-10 24-13 14-22-7-29-12-22-19-24-20-25-18-20-18-19"/>
<path d="M2672 11538l-1-1 15 20 10 22 7 28 5 31 2 29-2 30-2 28-4 24-4 28"/>
<path d="M2694 11520l 0-1 21-15 30-6 27-2 26 3 25 9 17 21-2 26-14 24-19 21-21 11-26 3-25-3"/>
<path d="M3414 10678l-1 0-3 27 4 24 5 32 4 27 2 29 1 27-1 28 0 25"/>
<path d="M3175 11067l-1 1 24 5 26 0 34-1 27-2 30-2 32-3 32-2 32-2 30 0 30 0 29-1 27 0 27 0 25 0 34-1 31-1 25-3 24-5"/>
<path d="M3315 11280l-1 1-5 24 0 29 3 30 3 29 2 33 1 25 0 26-1 27-1 27-1 26 0 34 1 27 5 28"/>
<path d="M3279 11313l-1-1 17-21 25-4 28-2 27 2 25 6 29 7 26 9 12 21-12 25-15 19-22 19-20 17-20 14-26 11"/>
<path d="M3605 11122l-2 0-15 20-9 29-4 28-3 30 2 28 9 26 18 16 24-6 24-15 14-22-3-25-23-13-26 4"/>
<path d="M49 12657l 0 0 24-9 25-3 25-2 24 3 26 8"/>
<path d="M532 12325l-1-1 20 18 3 31 1 31-2 26-1 26-1 26 0 30 15 21"/>
<path d="M767 12246l 0-1-2 27-6 24-10 32-9 26-11 28-11 31-13 34-14 36-15 39-17 40-17 44-9 22-18 44-9 23-10 22-17 43-16 42-15 39-10 27-10 27-7 24-7 25"/>
<path d="M663 12716l-1-1 23-12 24-6 28-3 26 1 23 14 13 25 4 26-2 26-9 27-15 29-13 21-16 20-19 23-17 19-20 20-18 20-19 19-20 19 26-5 26-11 27-11 30-8 26-3 25 2"/>
<path d="M887 12533l 0-1-12 22 6 24 1 26-2 27-4 26-3 25 26-8 24-9 25-11 27-14 23-13 23-13"/>
<path d="M937 12568l-1-1 12 25 6 28 4 27 1 26 0 25 2 28"/>
<path d="M1240 12533l-1 0"/>
<path d="M1519 12207l 0 0 2 24 4 26 8 26 8 29 4 25 4 26 1 28 0 27 0 31"/>
<path d="M1752 12198l-1 1-15 20-8 23-11 32-9 26-11 30-13 33-14 36-17 40-17 43-20 43-17 43-17 41-15 40-13 37-13 31-10 27-13 31-10 24"/>
<path d="M1754 12528l 1-1 2 25-8 24-9 23-14 26-14 27-17 27-16 25-14 25-12 25 21 16 30-7 24-6 27-6 26-4 27-5 26-5 25-5 26-5 26-1"/>
<path d="M1801 12669l-2-1-15 20 7 30 7 29 4 27 1 28 1 29-1 26"/>
<path d="M2008 12595l-4-1-15 20"/>
<path d="M2506 12285l-1-1 30-9 26-4 31-4 33-4 25-2 24-2 24-2 25-2 24-2 34-4 33-3 27-2 24-3 25-2-13 22-21 17-20 19-19 17-22 13"/>
<path d="M2558 12292l-1-1 5 25 20 20 20 20 19 16 19 17 22 17 24 15 26 12 27 12 28 9 27 10 25 8 28 14 19 15 15 25-3 25-14 21-19 26-16 18-17 19-20 18-20 18-20 19-22 18-19 17-20 16-19 14-28 18-24 17-24 18-9 23 24 6 24 2 30 2 33 0 35 2 24-1 25 1 24 0 24-1 25-1 26-2 25-3 24-3 32-6 27-7 24-13 19-20-6-27-15-22-20-23-23-18-24-6"/>
<path d="M2740 12989l-1 0-1 29 2 28 1 26 2 27 1 27 2 24 3 28 2 25"/>
<path d="M2732 13013l-1-1-7-23 25-9 26-1 26 3 22 14 7 23-9 27-15 21-20 15-23 7"/>
<path d="M3340 12225l-1 0 4 26 11 28 10 26 8 26 7 28 5 27 2 28"/>
<path d="M3592 12163l 0 0-9 24-10 30-10 29-10 23-12 25-14 30-15 33-18 36-20 38-20 40-21 40-20 39-18 38-16 36-14 31-12 29-10 24-12 27 22-15"/>
<path d="M3576 12620l-1-1 9 25 2 30 2 31 0 35-1 26-2 28-3 26-2 29-3 24-2 26-3 25-2 25 0 25"/>
<path d="M3582 12638l-1-4-8-25 13-23 26-10 24-2 27 5 28 8 25 11 22 16 9 27-8 24-20 26-19 17-22 16-21 13-26 9-25-7"/>
<path d="M3917 12340l-3-1-21-12-26 4-22 12-19 18 7 27 20 16 25 12 26 13 24 14 23 16 15 24 0 24-9 27-17 25-23 21-22 11-29-6-20-21-9-23 0-30 7-30 14-31 17-27 18-22 18-20 20-16 22-14 26-11"/>
<path d="M58 13882l 1 0 28-3 28 0 29 0 25-1 25-3 32-7"/>
<path d="M135 13795l-2 1-6 27 5 28 5 25 5 28 7 33 7 34 5 24 8 33 8 30"/>
<path d="M395 14058l-1-1 27-5"/>
<path d="M526 14071l-1 0 27-5"/>
<path d="M670 14076l-1 0 27-2"/>
<path d="M813 13563l 0 0 24 11 27 14 27 13 28 17 20 13 21 14 21 17 20 18 18 22 18 22 17 25 15 27 14 28 12 30 9 30 8 30 4 31 2 30-1 32-3 35-5 35-8 36-11 34-11 30-11 29-10 25-14 31-12 22-17 19"/>
<path d="M1412 7762l 0-1 20 20 9 32 5 33 2 25 3 27 1 30 2 30 2 33 2 34 1 34 3 36 2 36 3 35 3 35 2 33 3 31 1 26 1 26-1 31-2 30"/>
<path d="M1613 7989l-1-1"/>
<path d="M5203 8568l-1-1-23 17-13 30-13 32-9 26-12 31-11 34-11 38-11 41-10 42-10 44-6 45-4 43-2 43 2 41 5 37 6 34 7 30 10 25 15 31 19 20 26 11"/>
<path d="M5296 9099l-1 0 15 25 8 26 7 35 5 30 5 34 5 37 6 38 5 39 4 39 3 36 2 32 2 28 3 31 2 29"/>
<path d="M5286 9126l-1-4-3-26 4-26 14-21 23-22 25-14 31-11 32-6 29 1 25 8 22 13 20 22 6 29-4 26-14 30-13 20-17 20-18 22-20 21-22 18-20 15-26 15"/>
<path d="M5619 9002l 0 0 13 24 10 22 8 28 5 29 5 26-15-26-1-27 3-31 7-34 8-23 11-23 14-22 16-20 17-17 25-20 23-10 25-3"/>
<path d="M5871 8919l-1-1 8 27 7 27 8 28 5 28 6 26"/>
<path d="M5913 8822l-3-1-19 14"/>
<path d="M5956 8932l 1 1 11 24 0 24-3 25 20-16 14-24 16-25 15-23 16-22 22-10 5 27-2 26-1 27 0 25 24-8 15-24 13-26 9-25 18 18 9 22 18 21 24 7 24-5 26-13 25-16 21-14 21-12 23-15 16-18 14-21 12-22 8-24-20-15-22 12-24 20-19 20-18 23-15 24-6 23 4 28 7 24 20 21 23 10 29 1 26-7 27-13"/>
<path d="M6726 8828l-2-2 1-27 13-22 22-23 22-17 21-13 22-11 23-10 28-11 26-3 0 27-12 24-18 29-14 21-19 28-14 23-9 25 20 17 29 5 27 5 28 10 26 15 26 16 24 18 22 21 14 19 12 22 6 25-1 28-9 32-10 24-14 25-16 26-19 24-21 24-22 22-23 18-22 15-22 10-31 7-29-4-25-16-19-28-8-28-4-35 2-40 8-42 9-42 15-37 16-35 18-31 21-27 21-25 22-22"/>
<path d="M7028 8788l-3 1-17 17 24-1 30-15 27-16 24-21 21-22 15-21 9-24-19-18-30 3-23 10-24 16-21 22-20 27-14 26-10 25 2 26 15 21 23 17 24 6 28 0 32-6 23-8 24-10 26-13 27-16 26-19 24-21 21-24 19-25"/>
<path d="M7376 8375l-1-2-19-17-11 23-5 34-2 24-1 27-1 30-1 34 0 33-1 37-2 37 0 36 0 36 0 34 3 30 2 28 6 31 15 26 29 0 28-17 22-18 21-20 21-20 18-23 13-23"/>
<path d="M7293 8576l-6 3-28 13-31 15 28-13 31-15 32-15 24-9 26-8 28-7 29-4 29-3"/>
<path d="M7603 8591l-3-1-25 2-25 6-26 9-25 14-19 18-16 21 15 21 27-8 23-9 22-11 23-13 15 24 15 21 30 7 33-5"/>
<path d="M7946 8666l 0 0 25 11 27-10 20-17 27-26 20-23 22-26 25-30 26-33 25-37 24-39 21-44 17-45 6-24 6-24 10-46 7-40 4-33 1-31-19-15-18 20-15 26-12 25-10 30-11 36-13 42-6 24-8 25-7 28-8 28-7 30-8 31-7 33-8 33-7 35-7 35-6 35-5 35-4 33-3 32-2 30 0 29 1 26 4 45 8 35 10 29 12 21 18 20 25 6 20-23 14-33 7-28 4-30 0-32-4-33-7-35-9-33-14-31-12-26-18-27-20-15 33-3 24-12 24-16 24-18 22-18 17-18 16-20 12-23-18 20-11 26-6 26 3 26 18 18 25-4 23-14 22-13 19-20 2 25 6 25 24 5 24-18 22-23 17-24 11-25-8 23 20 14 21-14 19-22 20-21 23 6 5 24 17 20 25 5 30-5 25-10"/>
<path d="M8778 8426l-1-1-25-3-22 13-21 22-20 26-14 22-13 21-9 25 9 26 27 8 28-2 30-8 32-14 33-16 22-12 25-12 25-13"/>
<path d="M8901 8122l 0-1 22-10 29 2 23 5 22 9 20 16 16 23 7 27-1 25-6 29-11 31-15 33-17 29-15 28-15 26"/>
<path d="M8996 8516l-1 0 2 24 12 24 21 15"/>
<path d="M9026 8017l 0-1 23 20 20 20 21 25 17 20 17 20 16 22 19 23 17 24 16 23 15 23 13 25 11 25 7 26 7 27 4 27 0 29 1 28-3 29-2 28-3 27-5 26-5 24-7 24-10 23-15 32-13 21-18 29-14 20"/>
<path d="M7494 -5085l-1-1 13-21 25-5"/>
<path d="M7767 -5137l-1-1-1 25 0 33-2 29-1 32-4 36-6 40-6 42-10 43-9 42-9 42-10 40-9 35-8 28-11 30 3-30 4-30 7-37 7-40"/>
<path d="M7727 -5065l 0-9 3-30 3-25 8-28 13-26 14-19 24-15 29-6 25 2 26 7 26 14 23 19 16 23 8 24-3 26-16 28-18 19-22 22-25 19-23 19-23 17-20 13-22 14"/>
<path d="M8077 -5105l-3-1-24 1 21 16 32-5 32-12 22-11 22-12 20-14 24-21 15-19 3-25-21-16-31-2-30 9-32 16-21 15-22 16-19 18-19 18-15 20-17 26-6 27 15 22 30 8 32-1 26-4 27-8 31-9 32-12 31-14 30-15 27-16"/>
<path d="M8339 -5199l-3-3-24-14-24-7 25-4 27-3 29 0 26 2 23 6-3 26-26 21-23 20-22 20-16 21-12 25 22 17 32-6 24-8 25-10 26-12 28-12 26-11"/>
<path d="M8575 -5237l-3 0-24 7-12 27 0 26-1 27-4 36-2 29-5 34-7 36-6 39-10 42-10 41-12 40-13 37-12 32-11 23-17 21-10-31 2-25 3-32 6-35 7-38 9-40 8-42 9-39 8-37 8-32 8-29 10-25 12-22 17-29 17-24 18-17 22-14 24-5 26 5 24 18 11 22 3 28-4 30-12 29-15 28-19 25-16 19-21 16"/>
<path d="M8778 -5165l 2-1 17-20 15-20 18-24 18-21 20-24 16-20 20-21 18-24 19-26 18-30 15-35 15-37 13-39 9-39 8-35 3-29-1-25-8-23-24-7-27 19-17 22-16 28-14 32-14 39-15 44-8 24-8 24-8 25-7 27-8 25-6 27-7 25-5 25-7 45-1 40 6 33 11 27 16 20 23 15 25 11 29 4 31 0"/>
<path d="M9052 -5197l-4 0-24 5 26-2 23-7 28-10 32-12 23-9 22-10 30-14 22-12-7-24-32-2-28 6-32 12-25 18-25 20-16 22-10 22-2 27 15 24 24 9 28 0 37-5 27-7 29-10 30-10 28-12 25-12 27-16 20-19-25 8 4 28 21 17 28 11 32 11 30 9 30 8 30 4"/>
<path d="M9486 -5248l-4 1-26 10-26 17-20 17-25 21-20 16-20 17-19 18-20 24"/>
<path d="M9578 -5278l-1-1-7 27 0 28-1 27-3 28-4 27-7 28"/>
<path d="M9607 -5422l-2-1"/>
<path d="M9843 -5574l-2 0-17 23-2 33-1 36-4 30-5 36-10 38-10 40-14 43-15 42-14 39-13 35-12 29-12 30 2 25 23 10 26-6 33-16 24-15 22-16"/>
<path d="M9672 -5260l-2 1 33-3 33-13 25-10 27-12 28-12 30-12 27-10 26-11 31-13 28-9 0 28-10 26-10 33-10 35-5 24-4 33 0 28 5 23 27 8 28-19 18-16 19-20 17-24 15-24 14-25 10-25 8-23 8-28-16 25-8 34-4 25-2 26-1 27 0 30 1 32 1 31-1 34 0 36-4 37-3 40-5 42-6 41-9 44-12 44-15 45-16 42-17 36-17 30-16 20-27 20-28 5-25-9-21-21-16-32-5-26-2-29 4-31 8-33 12-35 18-36 21-40 26-42 15-22 15-23 15-23 17-23 16-22 20-22 17-21 17-18 18-17 35-29 32-22 30-16 31-11"/>
<path d="M10587 -5107l 2-3 22-25 24-24 18-18 21-21 25-24 26-26 26-28 28-27 25-30 24-30 21-34 19-36 15-35 14-35 11-31 10-27 8-28-23-7-27 24-23 25-23 33-24 40-11 22-12 24-11 25-11 27-12 28-11 27-11 30-11 30-8 30-11 30-9 30-8 29-7 29-6 30-6 28-4 28-6 26-3 26-2 24-3 44 1 36 2 29 9 31 17 20 24-5 21-22 15-23 13-26 11-29 7-30 2-33-2-33-6-31-7-30-8-28-8-24-12-29-12-23 25 4"/>
<path d="M10935 -5216l-2-1-22 14-9 23 7 26 17 18"/>
<path d="M11013 -5354l-1-1"/>
<path d="M11225 -5591l-1-1-18 22-11 31-9 27-12 30-12 35-11 39-14 39-14 41-14 40-14 38-11 33-7 27-1 29 15 20 24 2 34-11 29-14 31-17"/>
<path d="M11425 -5542l-2-2-24-7-13 27-12 33-11 28-11 33-13 34-14 37-14 36-10 35-6 33-4 29 1 25 4 28 13 23 23 9 29-2 23-6 26-9 26-12 24-13 23-16 18-17"/>
<path d="M11331 -5343l-5 1-30 1 24-10 30-5 25-3"/>
<path d="M11547 -5320l-3 0-24 2 31 2 29-2 31-4 28-7 24-9 20-14-22-17-31 1-27 7-25 11-27 16-26 20-19 21-13 23-1 29 15 25 21 15 30 8 37 3 29-1 32-5 32-8 30-10 27-10 23-12 26-19 17-19 10-27-5-28-23-16 28 9 32 4 30 6 26 11 12 23-10 24-21 23-20 17-22 17-21 20-16 22 9 25 31 10 29 3"/>
<path d="M7323 -4076l-1-2 22 14"/>
<path d="M7529 -4051l-1-1 7 27 4 30 1 28-1 32-3 37-3 42-7 47-5 24-3 25-5 25-4 25-5 25-5 24-9 44-8 39-6 33-5 26-5 26-3-25 2-27 3-35"/>
<path d="M7541 -3956l 1-7 9-29 9-24 16-30 19-21 25-19 23-9 24 7 15 19 9 30 0 27-6 29-11 31-16 30-18 28-18 22-17 17"/>
<path d="M7836 -4023l-2 0-18 18-14 19-17 24-11 25-4 29 22 19 29-3 27-12 27-19 27-21 22-22 17-19 14-23-3-24-20-19-25-8-26 2-24 8 25-5 29-12 24-8 25-9 26-8 26-6 28-5 26 5 9 28-11 31-13 29-16 30-15 25-10 25 29-3 24-17 27-22 27-21 22-20 17-18 16-18-10 26-10 26 0 29 15 23 25 12 25 0 25-9 26-17 20-23 14-25 6-27-5-26-13-24-18-20-22-11"/>
<path d="M8412 -4041l-5-1-24-3 30 10 29-1 32-6 30-8 26-10 23-16 5-24-21-13-29-2-27 6-29 14-29 19-19 16-17 17-16 18-18 29-8 26 5 28 18 19 28 13 29 3 33-2 26-6 28-8 29-12 30-13 26-14 21-15 23-19 15-19"/>
<path d="M8659 -4057l-3-3 22-14 27 3 25 5 25 5 19 16-19 22-22 20-23 20-19 19-12 21 12 21 22 11 27 3 25-3 29-8"/>
<path d="M9221 -4036l 1-2 23-14 27 0 23 15 11 27 1 33-7 28-10 33-13 36-17 38-20 40-20 42-23 40-22 36-23 32-18 25-21 24-6-25 8-27 9-34 13-38 16-43 15-41 14-41 13-38 10-33 10-29 7-23 11-28 14-27 19-24 20-16 24-16 28-14 29-10 24-5 24 6 12 23-6 29-14 25-19 27-24 27-18 17-18 16-25 23-20 17-18 18 23-25"/>
<path d="M9656 -4496l-1-2-8 26-2 27 1 33 1 25 2 29-2 31-5 35-7 38-13 41-13 41-17 42-19 40-19 38-19 35-18 30-13 23-14 22 22-24 16-23 21-26 22-28 23-27 22-24 21-21 19-17 22-20 22-15 12 21-10 31-12 28-13 30-10 30-7 23 4 27 26 9 29-12 27-17 28-21 25-22 18-22 15-25 6-25-14-19 23-6 25-1 30 1 24 1 24 7-8 26-23 20-21 18-21 17-17 22-7 26 16 22 28 5 35-4 29-6 32-7"/>
<path d="M10168 -4123l-3-3-20-15-25 4-21 18-20 18-18 20-19 21-15 23 12 23 26-4 29-9 26-11 22-13 13 24 22 10 27 6 28-3 22-10 20-15 18-19 12-22 7-29-3-30-8-25-25 8-1 25 10 24 18 23 25 20 25 17 20 15-20 20-32 5-28 3-31 1-24 1-26 4 26-1 24-4 30-6 24-5 29-8 33-7"/>
<path d="M10551 -4178l-3 0-23 11-1 25 8 28 10 30 10 30 9 24"/>
<path d="M10596 -4315l-2-1-24 7 10 23"/>
<path d="M10675 -4171l-1 1 0 28-3 28 0 26-2 25 3 24 21-20 19-23 16-19 23-24 20-20 22-16 12 24-2 29 6 28 25 15 31 5 33-1 35-6 32-11 31-14 25-14 20-20 11-24-3-24-21-20-25-5-24 5-28 16-20 16-20 18-19 20-14 19-10 27 8 24 26 12 28-3 33-9 23-10 22-11 28-15 26-12 7 24-10 28-8 23-9 25-8 27-9 29-9 33-7 35-10 39-10 43-10 44-13 43-15 43-14 39-14 35-15 30-14 22-22 25-26 13-20-23-2-38 5-34 7-40 12-45 8-25 9-24 10-25 10-24 11-24 13-23 12-21 24-39 22-32 23-27 21-24 20-19 23-17 22-14 23-10 25-7 26-4 26-1"/>
<path d="M11425 -4174l-1-3 12-21 28 1 34-1 31-3 38-4 45-7 26-4 28-4 28-4 31-4 32-5 34-5 35-3 35-4 36-4 37-3 37-3 38-2 37-2 37-2 38-2 38-1 37-2 40-2 38-1 37-1 38 0 37 0 35 0 34 0 34 1 31 1 32 0 30 0 29 1 26 0 26 0 24 1 44 0 35-1 33-1 29 0 31 0 25 1"/>
<path d="M7317 -2906l-4-1-24-8-10 23"/>
<path d="M7367 -2739l-3 1-15 22 17 18 28-10 23-17 18-17 18-20 18-21 17-24 15-24 13-26 10-25 6-24 5-32-2-27-7-28 24-10 29 3 25 0 30 0 28 0 28 2 29 5 20 18-10 22-18 19-25 23-20 18-20 20-20 20-18 19-21 26-13 27 21 20 28-2 23-5 27-10 28-11 28-13 26-11 24-12 30-15 22-15 21-15 22-16 19-17-2-25-27-4-24 5-28 12-31 16-26 21-20 23-11 27 12 23 30 8 33-1 37-6 24-6 24-9 25-9 25-13 22-14 23-15 27-23 20-21 15-23-14 25-2 29-3 35-1 24-2 26-1 29-3 31-5 35-6 36-6 39-9 38-10 39-11 35-12 30-11 23-11 23-5-24 3-26 5-33 8-37 9-41 10-45 9-45 10-45 11-41 10-37 11-31 10-26 15-30 20-23 22-11 27-3 25 1 28 3 29 6 26 9 25 17 9 27-15 25-25 22-21 13-21 14-23 13-22 12-31 15-27 11-23 10"/>
<path d="M8858 -2956l-5-1-24 2 10 24 28 4 33-7 32-11 23-10 24-13 23-14 19-16 22-21 12-21-21-22-27-4-34 1-26 5-26 8-27 10-25 14-22 16-18 16-20 25-10 23 1 29 16 23 23 11 33 4 24-2 24-4 26-8 23-9 23-10 31-16 22-17 21-22 13-21-5 25 12 23 23 14 25 1 24-6 26-7 25-10 26-10 26-3 26 8 30 9 25 2 28-1 28-5 26-6 30-11 23-13 17-20 8-25-10-22-20-13-27-6-27 4-26 15-22 20-5 27 14 23 25 20 25 15 24 15 21 17 16 18 13 23 9 26 3 29-2 37-8 27-11 33-14 35-19 37-22 40-23 41-28 39-28 37-28 31-25 25-23 18-27 16-28-7-11-30-2-30 4-37 10-45 7-25 9-27 9-28 11-28 11-29 13-28 13-28 14-27 15-26 14-25 15-23 14-21 14-20 28-34 27-28 26-22 26-16 25-10 24-8"/>
<path d="M9718 -2854l 0-1"/>
<path d="M10402 -2982l 1-4 14-26 10-23 3-25-19-20-25-3-25 4-28 11-31 20-21 16-21 19-20 21-17 21-17 28-8 26 23 15 26-2 31-9 33-13 28-15 22-12 24-13-21 18-9 22 0 25 15 23 27 6 24-6"/>
<path d="M10510 -2995l-2 3-9 23-7 29-5 36-3 28-5 31-6 33-7 33-9 35-9 35-12 36-12 34-11 33-11 31-11 26-15 31-15 21"/>
<path d="M10442 -2880l 2-11 9-25 13-33 16-35 14-25 15-21 24-25 27-19 24-15 30-10 26-3 24 7 17 19 5 27-4 26-12 28-19 28-17 18-17 18-19 17-20 16-21 14-27 17-22 9-17-18 13-22"/>
<path d="M10829 -3091l-3 2-13 26-4 24-2 28-1 32-2 25-2 28-4 33-5 36-8 37-8 40-12 38-12 37-15 35-13 29-12 24-15 21"/>
<path d="M10788 -3044l 1-7 10-27 8-22 15-25 19-20 24-9 30 6 23 11 22 14 21 18 15 20 8 27-7 30-18 25-27 25-20 15-23 13-22 10-30 10-25 2-18-15"/>
<path d="M11098 -3136l 0 1-6 25-7 28-4 25-2 25-3 24-3 30-5 24-15 20-5-30 10-29 10-24 14-25 16-24 16-21 17-19 24-21 23-16 26-12 24-5"/>
<path d="M11390 -3133l-4-1-25 0-25 10-22 14-23 20-19 25-15 26-6 25 4 27 16 18 28 3 28-5 27-12 25-16 20-18 15-26 3-29-11-22-15-22-20-18"/>
<path d="M11673 -3113l-4-2-22-14-26-5-29 12-21 16-24 21-20 21-15 20-5 23 27 9 25-4 30-8 30-13 28-12 23-17 17-18-13 21 4 28 18 23"/>
<path d="M11932 -3154l-5 0-25 6-25 9-21 12-20 16-20 18-15 18-10 24 2 26 20 20 26 7 27-2 31-8 34-11"/>
<path d="M12102 -3440l-3 1-17 23-4 27-5 24-4 29-4 31-7 34-9 34-9 36-12 37-12 36-10 34-9 31-6 26-5 28 20 15 25-18 25-23 19-16 26-20 24-15 26 5 11 26 6 26 6 23 7 24 7 30 8 26"/>
<path d="M7051 -1996l-1-1 13-23"/>
<path d="M7332 -1918l 1-4 13-27 21-15 21 13 13 29 5 33-2 25-3 28-7 30-8 29-9 28-9 24-13 26 1-31 12-30 15-34 17-32 16-29 15-24 17-25 17-18 16 21 1 30-3 28-6 31-5 28-3 27 26-5 20-27 15-25 17-26 16-26 16-24 14-20 16-22 13 25-2 24 0 26 1 24 7 26 19 20 31-2"/>
<path d="M7837 -1921l-1-1-24 13-14 22-15 27-12 27-3 29 13 22 26 2 27-12 22-15 20-20 15-20 11-27-8-27-21-19-21-11-24-6-27 1"/>
<path d="M8126 -1983l-9-1-32 1-29 3-25 6-31 17-24 23-19 30-11 22-9 22-7 32 4 27 14 20 28 11 26-6 31-18 22-18 24-25 25-28 23-33 23-36 19-38 16-37 13-38 9-37 5-40 3-42 2-44 1-43-1-41-3-34-4-24-9-23-25 21-12 20-11 27-11 33-9 37-7 42-6 47-3 24-1 26-1 26-2 26-1 27 0 25 0 25 0 25 5 45 8 39 12 30 15 23 27 22 33 7 36-9"/>
<path d="M8350 -1914l 0-4 1-26 3 24 27 7 30-7 26-12 25-16 20-17 12-24-13-22-27-12-25-2-27 3-27 14-26 24-18 29-11 29-1 26 9 26 18 19 25 13 25 4 28-5 31-11 24-12"/>
<path d="M8561 -1879l-2 2-9 24 29-4 28-18 24-19 27-26 29-30 31-35 29-36 28-38 23-38 21-41 16-45 14-45 6-24 7-47 5-46 3-42-1-37-3-29-8-28-24-9-22 28-12 25-13 34-12 39-8 23-7 23-5 26-7 27-6 27-5 30-5 30-5 31-4 31-1 31-2 30-2 30-1 28 0 27 3 25 7 45 9 36 17 28 22 21 27 14 34 6"/>
<path d="M9717 -1921l-1-1-12-21-21-16-26 12-16 19-18 26-15 30-10 22-10 30-3 25 13 24 28 0 30-14 21-17 22-21 23-26 24-28 20-31 17-33 15-33 8-33 6-36 4-38 4-40 1-44 2-43 0-43 0-39 1-32-2-33-26 2-16 28-9 24-8 25-4 26-1 30 2 31 3 34 5 38 5 41 5 44 3 47 1 25 1 46 3 44 4 39 6 32 7 26 15 26 25 15 25-7 30-20"/>
<path d="M10019 -1963l-2 1-16 20-17 28-14 28-7 28-3 28 0 24 13 21"/>
<path d="M10024 -2118l-2-1"/>
<path d="M10133 -1862l-2 0 28-13 22-13 26-18 30-21 31-24 33-27 32-30 31-32 30-34 25-36 20-38 15-39 10-39 5-37 2-33-2-26-10-24-25-10-22 13-19 19-20 26-21 33-22 40-11 22-10 25-12 25-10 28-12 29-13 30-13 33-14 32-13 35-13 35-13 37-13 36-11 37-12 35-10 35-8 34-7 33-6 31-3 29-4 27-2 24 2 43 7 32 13 22 21 18 25-5 26-27 19-28 17-33 15-35 12-36 5-36 1-35-4-35-6-32-8-27-11-29-13-21 26-13 27-16 22-17 25-20 26-24 27-26 26-29 28-31 27-32 27-34 26-36 22-38 18-38 14-36 10-33 7-28 4-31-6-26-24 10-16 25-13 25-16 33-18 39-8 23-10 24-11 27-10 28-11 30-11 32-12 33-10 35-12 36-11 36-11 37-11 37-9 36-9 34-7 34-7 31-4 31-3 28-1 25 2 44 9 35 13 27 16 18 28 11 29-13 19-21 18-26 15-32 11-32 7-33 1-33-4-33-9-33-13-33-14-31-16-25-16-20-28-20-26-5-30 3 33 3"/>
<path d="M10628 -1983l-3 0-21 14-12 28-5 33-4 29-1 30 2 26 8 27"/>
<path d="M10696 -2127l-3-1-23 10-8 25"/>
<path d="M10784 -1968l-1 2-8 24-7 26-8 24-9 28-3 25 25-6 24-19 18-16 28-22 22-15 24-11 20 14 22 12 27 14 22 14 23 14 23 11 25 10 27-2 22-15 21-25 12-23 10-25 1-30-12-23-28-2-25 15-20 21-18 26-11 25-4 28 6 25 13 25 15 22 16 28 11 27 8 33 4 25 2 27 0 32-2 33-5 38-10 39-14 41-17 42-21 42-12 21-14 21-13 21-15 19-29 36-28 30-26 22-24 15-32 6-26-14-12-24-5-32-1-42 3-24 5-27 8-29 9-31 11-34 14-36 18-35 18-36 20-35 22-34 22-31 22-29 23-26 22-24 21-22 22-19 21-18 19-16 20-15 38-25 35-18 32-14"/>
<path d="M7177 -1084l-1-1"/>
<path d="M7409 -1004l 1-4 14-21 19 21 9 29 1 29 1 35-2 25-3 27-4 29-6 29-6 27-7 24-8 26 4-27 6-28 9-33 9-34 11-33 10-30 9-25 14-28 15-20 25-6 23 17 14 29 5 30 1 24-3 27-5 27-5 26-7 30-3 26 16-19 13-26 16-31 15-31 15-30 15-27 13-20 15-20 0 25-5 23-6 27-4 24 0 26 12 22 30 0 27-18 21-19 19-19 20-21 24 2 24 5 29-11 25-16 23-20 19-20 12-24-10-26-25-7-30 8-25 14-25 18-21 22-18 24-12 25-6 25 4 24 11 22 21 17 26 10 32 2 25-4 29-10 29-15 30-18 29-23 25-26 24-27 21-29 16-32 15-33 9-33 7-34 4-33 2-32 0-34-2-33-2-32-2-28-5-33-10-22-19 17-15 31-12 28-10 33-8 35-7 39-6 39-4 42-2 40 1 39 3 36 4 32 5 28 7 25 12 29 13 20 22 11 22-13 18-24 19-29 11-31"/>
<path d="M7982 -1002l-8 1-30 4-25 4-25 4 23-18 29-17 25-13 25-11 27-12 30-9 33-9 37-8 42-7 43-5"/>
<path d="M8293 -986l-4-2-24-13-23-9-18 15-19 25-13 29-4 25 6 24 31 2 29-10 27-15 22-17 19 16 22 16 24 7 30 2"/>
<path d="M8511 -1048l-2-1 24-12 25-3 32-2 34-2"/>
<path d="M8785 -891l-1 0 21 12 24-7 22-13 28-20 20-18 22-23 23-27 23-30 22-33 20-35 17-33 13-34 9-33 5-32 2-31 0-29-3-25-5-28-16-17-19 17-16 30-12 28-13 35-12 39-11 45-9 48-5 27-3 26-4 25-2 26-1 24 0 46 6 39 9 32 16 25 18 17 24 9 28 2 29-3"/>
<path d="M9152 -940l-3 1-16 19 23 6 32-8 25-9 24-13 22-13 24-18 13-23-26-9-27 3-23 8-23 12-22 18-22 22-18 25-12 24 0 26 19 18 28 7 25 3 28 0"/>
<path d="M9519 -936l-6-1-26-3-25-1-32 3-27 5-26 11-20 21-9 26 5 25 21 13 26 0 25-8 23-11 20-15 5 24 20 20 25 6 27 0 31-6 24-7"/>
<path d="M9673 -926l-2-3-18-18 24-10 32-5 28-3 27 3 14 21-13 24-16 21-17 20-13 24-4 25 24 11 30-11 28-17 21-13 27-20 22-17 19-19-7 26 0 25 5 26 26-4 20-20 18-17 19-17 20-14 10 22 2 27 6 24 16 18 26 8 25-1 27-5"/>
<path d="M10196 -903l-1 1-21 17-14 20-3 25 17 18"/>
<path d="M10191 -1084l-4-2-27-6 17 21"/>
<path d="M10288 -926l-3 1-19 18-20 18-1 25 26 0 23-8 28-12 29-13 26-11 25-7 25 0 23 10 19 18 18 16 25 13 25 8 25 3 29-4 21-11 20-20 16-24 8-24-13-25-24-5-30 5-23 8-24 15-14 22 7 24 15 26 15 22 14 24 15 28 12 31 8 23 5 26 3 28 1 33-1 35-3 40-6 42-11 46-7 25-8 24-10 25-10 25-12 26-13 25-14 24-14 23-15 23-15 21-28 36-28 27-23 17-30 9-22-15-13-35-3-34 3-42 11-49 8-28 10-30 12-31 13-32 16-33 16-34 17-31 18-31 17-30 17-28 18-25 17-24 18-21 17-19 17-18 33-30 32-23 31-17"/>
<path d="M11466 -1453l-2-4-20-14-24 12-26 25-21 25-22 32-24 41-13 22-12 25-12 25-12 26-11 28-11 28-10 28-10 30-9 31-8 31-7 30-7 30-6 31-6 30-4 30-4 28-3 27-2 25 0 45 5 39 10 30 12 25 21 26 26 14 30 4"/>
<path d="M11501 -1244l 0-5 6-28 18-19 26 6 16 28 9 37 4 30 0 36-3 39-7 44-10 43-10 45-13 43-13 39-13 35-11 29-9 22-10 22 5-25 9-28 12-37 16-42 9-24 10-24 9-25 9-23 10-24 10-22 11-22 19-38 19-30 16-23 18-21 25-9 20 15 9 23 2 35-3 29-6 33-8 34-10 34-12 32-11 29-12 22-12 24 15-33 16-35 21-43 12-24 12-24 12-23 12-24 13-22 12-22 12-20 25-38 23-33 22-27 19-21 24-18 25-6 11 23-1 27-4 25-6 29-7 31-9 34-9 34-8 32-7 32-7 30-2 27 1 34 8 22 20 18 27 0"/>
<path d="M12003 -943l-4 2-20 19 25-9 23-19 19-19 18-21 21-26 22-28 22-30 23-30 21-30 19-32 17-33 15-35 13-38 10-39 9-36 6-29 6-29-14 26-8 27-7 30-7 33-5 35-3 37-2 37 0 37 3 36 5 35 6 33 7 29 9 24 14 27 16 18 22 12 25-10 5-25"/>
<path d="M12119 -1071l-4 0-25 1 18-17 26-15 24-11 25-11 27-12 33-13 32-12 38-13 37-11"/>
<path d="M12437 -1293l-1-1 24 8 20 22 10 23 3 32-2 25-5 27-8 28-12 30-12 28-12 25-15 29-1-32 12-33 17-37 18-36 19-36 19-31 17-27 16-22 23-23 24-16 22 12 3 32-3 34-7 26-8 28-11 27-12 27-12 24-15 28 23-22 19-28 19-30 20-31 20-30 19-27 18-23 17-19 20-22 20-14 25 6 8 31-3 30-6 37-7 26-7 26-5 26-5 26-5 23-2 33 3 26 12 24 26-11 20-24"/>
<path d="M13011 -1436l-1-1-6 24-3 31-4 32-4 26-5 30-7 32-11 35-10 35-13 35-12 36-13 34-12 32-13 27-12 31-7 27 27-4 22-10 25-11 27-10 28-7 30-7 30-5 25-3 28 0 24 7"/>
<path d="M13200 -1504l 0-1 18 17 18 22 15 19 17 22 16 27 17 30 14 32 11 33 10 35 5 35 3 35 1 37 0 35-4 33-5 33-7 33-10 34-15 35-17 34-18 33-18 33-16 30-18 26-16 22-23 23-26 15"/>
<path d="M9846 12477l 0-1 6-25 12-24 18-21 20-18 28-16 24-9 31-5 27 5 23 13 20 20 11 25 1 31-10 31-14 23-16 27-20 28-26 30-29 33-32 34-18 17-35 33-17 16-34 31-31 28-27 25-22 20-24 24-17 18 27-15 26-15 30-17 22-10 23-10 23-7 34-10 33-8 34-6 30-4 25 1 28 7 19 16"/>
<path d="M10182 12688l-1-1-3 25 0 25 0 34-2 27-4 30-5 33-6 35-7 37-6 37-7 35-7 30-6 25-6 25"/>
<path d="M10140 12738l-1-3 8-26 25-13 28-9 31-5 35-3 32 3 27 5 24 14 12 23-7 25-14 23-21 26-20 18-21 18-22 18-22 15-22 14-28 13-26 3"/>
<path d="M10405 12429l 0-2 23-12 26-3 27 1 25 6 21 15-4 29-17 22-20 18-22 17-25 18-20 15-21 15 21 14 30-2 27-5 31-5 31-5"/>
<path d="M10663 12605l 0-1 29-6 27-4 33-6 31-6 29-7 30-10"/>
<path d="M10740 12512l-1-1 8 25 7 30 4 25 3 27 1 30 4 29"/>
<path d="M11035 12346l-1 0-3 31 0 25 0 34 0 24-2 28-2 28-2 30-4 30-4 32-5 32-5 32-4 28-4 34-4 29"/>
<path d="M9696 13026l-1-1 30-3 32 1 28 0 35-1 42-3 24-2 26-2 29-4 30-4 33-5 34-4 36-4 38-4 38-5 40-3 40-3 42-2 42-2 41-2 41-1 40 1 39 0 38 0 37 1 34 0 35 0 33 1 33-1 32-1 32-1 32-1 32-2 32-2 30-2 31-4 29-4 29-4 27-4 26-4 25-5 24-5 41-9 36-9 30-7 29-10"/>
<path d="M10015 13244l-1-1 24-11 28-5 31-4 24-1 26 0 26 1 35 6 30 11 24 15 14 20 3 26-8 31-11 22-17 24-20 25-24 25-26 25-28 23-29 22-27 20-28 19-26 18-26 19-23 15-25 16 27-10 34-10 25-7 26-6 27-7 28-6 26-5 24-4 32-5 29 0"/>
<path d="M10460 13444l 1-1 16 22 5 24 4 34 0 27 0 30 0 31-2 32-2 34-3 34-5 35-5 32-6 29-6 32"/>
<path d="M10460 13433l 0-3 14-20 27-6 31 1 25 4 29 10 20 14 11 23-7 28-21 26-22 20-24 20-27 19-26 13-28 7-23-5"/>
<path d="M10705 13231l-1-1 27-6 29-1 28 5 20 15-9 27-17 22-18 18-22 17-23 16 10 23 24 0 27-5 25-6 28-9"/>
<path d="M11432 12819l-1-1 26-1 29-8 25-7 25-5 25-2"/>
<path d="M11437 12923l-1 0 25 10 25 0 25-3 27-6 26-5"/>
<path d="M7574 12761l-1-3-8-23 5 32 3 25 0 35-1 41-3 48-2 26-3 27-2 28-4 30-3 30-4 30-4 30-4 30-3 30-4 30-4 29-4 28-3 27-4 26-3 25-6 45-4 40-3 33-1 27 1 28"/>
<path d="M7715 13127l 0-1 17-18 24-7 24-5 30-5 34-5 24-5 36-6 34-7"/>
<path d="M7832 12990l-1-1-2 30 6 27 3 36 3 27 1 27 1 28 3 27 2 25 5 34 9 26"/>
<path d="M8528 12602l-1-1-9 28-1 27 2 35 0 25 2 26 2 28 1 28 3 28 2 27 3 28 2 25 4 32 5 27"/>
<path d="M8212 13124l 0-1 24-6 26 1 37 0 31-2 35-2 37-4 40-5 41-7 43-8 45-7 42-8 41-6 38-6 33-4 29-2 26-1 31 0 29 4 20 15"/>
<path d="M8275 13339l-1-3 15-22 31-6 32-3 24 2 28 7 20 12 12 22-6 25-11 23-20 28-16 21-19 23-22 23-21 23-22 24-20 21-16 19-17 22-12 22 25 12 25-3 30-5 32-8 33-9 32-9 30-10"/>
<path d="M8598 13492l-2 1-17 17-7 28-3 28 3 32 4 36 3 25 3 25 5 26 5 26 6 32 5 28"/>
<path d="M8567 13496l-1-2 12-25 23-12 29-7 28-3 28 6 14 20-7 29-12 25-18 28-17 27-17 23-18 18"/>
<path d="M8707 13322l-1-2 25-10 29-2 26 3-5 27-15 19-16 21-17 20 20 15 30-11 30-12 23-10"/>
<path d="M9109 13042l-1-2 18-18 29-8 27-1 24 2 22 11"/>
<path d="M9102 13150l 0-1 26-14 25-7 30-7 34-7 25-3 26-3"/>
<path d="M12119 12422l-1-1-23 10-17 26-17 29-11 22-11 24-12 26-12 28-12 31-12 36-13 41-11 47-6 25-6 25-5 28-5 28-5 29-5 29-4 29-4 29-4 29-2 29-1 28-1 27 0 26 4 46 6 40 10 30 13 25 16 22 16 18 25 20 23 15 22 13 27 13"/>
<path d="M12246 12631l-2 1-11 28-7 23-8 29-8 32-8 34-5 37-5 40-3 39-3 41-3 40-2 41-1 41-1 38-2 36-2 32-1 24-1 25"/>
<path d="M12367 12902l-1-1 32-5 27-7 32-6 34-7 32-7"/>
<path d="M12453 12795l-1-1-2 30 2 25 0 30-2 33-1 33-3 31 2 27"/>
<path d="M13034 12436l-1-1 10 22-5 25-12 20-16 19 5 24-2 28-3 30-2 29-2 30-2 28 1 27"/>
<path d="M12788 12873l 0-1 29-7 27-1 25 0 26-1 30-1 30-3 34-2 34-5 35-5 34-4 33-5 31-4 28-4 28-2 34-1 29 1 29 2"/>
<path d="M12834 12981l-1-1-15 21-13 23-12 27-12 29-8 29-5 25-2 26 7 25 21 15 25 5 24 0 28-5 30-7 27-10 24-11 22-14"/>
<path d="M12930 13049l-1 0-10 24 6 30 9 28 5 26 2 30 1 36-1 25-1 26-1 28-1 26-1 35 2 27"/>
<path d="M13060 13156l-1-1 15 20 10 25 6 33 1 31 0 33-4 35-2 34-3 33-3 31-3 25-2 24"/>
<path d="M13091 13162l-1-4 0-25 24-11 30 0 30 2 28 4 28 8 22 12 6 25-15 26-16 19-20 20-23 20-23 15-21 12-28 6"/>
<path d="M13273 12973l-1-1 27 2 24 10 16 19-10 24-17 17-14 20 27 0 28-2"/>
<path d="M13449 12525l-1-1 9 30 14 30 16 25 19 26 24 28 25 27 25 28 28 26 25 28 23 29 21 30 16 30 13 30 11 30 8 28 5 30 3 29-2 30-5 30-6 31-10 30-10 27-11 25-12 21-14 21-14 19-21 24-18 16"/>
<path d="M14072 12809l 0-1 25 9 29 3 29-3 34-6 27-6 29-5 29-5"/>
<path d="M14677 12486l-1 0-22 15-17 28-17 30-12 26-15 30-13 32-15 37-14 39-13 41-11 43-7 44-5 45-4 44 0 43 0 42 3 40 7 35 8 32 10 26 13 22 21 27 23 20 25 13 22 8 25 1"/>
<path d="M15047 12497l-1 0 5 26 3 33 2 30-2 31-1 32-2 28"/>
<path d="M14774 12849l-1-1 30 0 32 1 28 1 31 0 33 1 35 1 36 1 36 0 36-1 34-2 34-2 32-3 30-3 28-4 25-3 31-5 25-2"/>
<path d="M14840 12999l-1-1-19 18-12 22-12 22-10 24-8 24-9 27 0 28 24 17 26 3 31-3 27-6 27-9 25-12"/>
<path d="M14910 13036l-1 0-16 23-2 28 0 27 0 29-1 29-4 30-1 30 1 26"/>
<path d="M15074 13099l-1 1-8 28 3 29 5 28 5 32 2 24 0 26-2 28-1 30-2 30-4 28-3 26-5 33-5 27 0 26"/>
<path d="M15061 13122l 0-2 5-24 20-15 26-3 26 5 22 18 5 25-8 25-16 22-21 24-23 21-20 15"/>
<path d="M15223 13002l 0-1 25-3 23 8 14 20-16 22-20 15-11 24 23 9 27-10"/>
<path d="M15310 12477l 1 0 24 7 21 14 26 19 19 16 23 19 25 22 26 26 25 28 24 30 20 30 18 30 17 30 12 30 13 30 7 29 8 29 4 27 3 28 0 26-2 26-7 28-7 27-10 28-13 27-14 28-16 27-15 24-15 23-14 21-21 26-20 20-20 14"/>
<path d="M13552 12347l 0-1 24-8 31-2 26-3 24-2 25-1-10 28-24 16-28 17-21 12-26 17-20 13-15 20 22 14 29 1 29-2 33-5 36-7"/>
<path d="M15549 12233l-1-1 27-7 25 1 24 4 26 10 21 14 2 26-20 19-27 15-27 14-22 12 21 14 30 0 25 0 27 1 30 2 28 2 25 5"/>
<path d="M8663 3095l 0-1 27-4 26 2 28 8 23 11 16 22-8 27-16 19-20 20-23 24-19 16-20 15-20 13-30 18-28 14-23 12-23 10 28 3 28-3 29 0 27 1 29 3 27 2"/>
<path d="M8911 3224l 1 0 18-16"/>
<path d="M9128 3096l 1-1 25-3 26-5 29-7 25-8 23-8"/>
<path d="M9136 3111l-3 1-15 20-8 25 4 24 22 9 29-8 22-8 24-7 26-6 28-5 27-2 24 2 14 21-10 23-19 27-21 24-25 21-25 16-25 12-30 8-25-2-25-16-10-29"/>
<path d="M9371 2993l-1 0 12 22-13 24-17 18 16 19 29 0 24-6 24-10"/>
<path d="M9297 3000l-1-1"/>
<path d="M9297 2999l-1 0 21-14 24-11 25-1 19 15-6 25"/>
<path d="M9486 2487l-1-2 1 26 16 24 25 25 21 17 23 19 24 20 23 21 22 23 19 23 17 24 14 25 15 27 12 27 11 28 7 29 5 28 3 30 0 32 2 32-3 32-4 32-4 32-7 30-8 30-8 28-11 29-10 26-12 26-13 23-13 23-20 27-20 23-21 20-24 15-23 12-27 7"/>
<path d="M9960 2943l 0 0"/>
<path d="M10080 3180l-1 0"/>
<path d="M10183 3198l 0 0 22 14"/>
<path d="M10283 3210l 1 0 20 15"/>
<path d="M12536 2014l 0-1-2 26-5 27-7 34-5 25-5 25-6 28-6 29-5 29-5 27-4 35-1 24"/>
<path d="M12009 2577l-3-1-24-5 24-10 33-10 30-8 36-7 42-7 48-8 26-5 28-4 29-4 31-5 31-5 32-5 32-5 32-4 32-4 32-4 31-5 31-3 31-4 29-3 29-3 29-2 28-3 26-2 25-3 24-1 25-1 41-3 36 0 31 0 24 1 28 1 26 0"/>
<path d="M12154 2739l-1 0-12 21-4 28-5 26-5 29-7 29-6 30-8 29-6 26-7 24"/>
<path d="M12284 2795l 0-1 24-18 27-10 32-8 24-5 25-4 25-3 26-1 31 1"/>
<path d="M12625 2710l-1-1 12 22 3 26 2 24 0 28 0 29-3 28-4 25-8 25-10-29 7-33 6-23 8-24 14-31 15-28 16-24 17-21 21-17 23-15 21-12 25-8 28-5 28 0 24 7"/>
<path d="M13240 2427l-1 0 26-12 25-2 30-3 24-2 25-1 25 1"/>
<path d="M13252 2489l-1-1 29-6 31-1 30-1 25 0 27-1"/>
<path d="M13816 2173l 0 0-6 27-5 26-5 36-5 30-7 35-7 38-8 42-8 45-9 44-9 45-8 43-9 38-8 33-9 30-8 25-12 29-13 23-3-25"/>
<path d="M13949 2430l-1 0 25-6 33-7 29-4 32-4 35-3 34-5 31-5 26-5"/>
<path d="M14081 2289l-1 0 2 25 4 30 1 26 0 25-2 25 0 29 0 24"/>
<path d="M14721 1955l 1 0-10 27-2 29 0 28 1 28 1 28 0 26 2 25 0 30-2 28-7 27"/>
<path d="M14397 2344l-1 0 26 16 27 4 25 1 32 0 35-2 38-1 41-2 41-3 40-4 41-4 41-6 40-5 38-7 37-6 35-5 35-7 34-5 31-5 30-4 27-3 29-2 27 4 22 10"/>
<path d="M14397 2556l 0-1 23-15 28-7 30-3 28 2 23 8 6 24-16 20-20 20-26 22-20 16-22 16-22 17-23 16-20 17-20 16-23 22-17 19-13 22 28 5 24-7 31-8 34-9 24-6 32-9 28-6 29-7 26-5"/>
<path d="M14714 2667l-1 0-2 26 4 26 2 26 2 29-1 25-4 26-7 26-7 30-8 22 8-28"/>
<path d="M14737 2608l 0-1 21-12 30 0 25 4 26 7 16 19-9 24-18 20-24 20-26 18-22 10-30 7-26 0-23-14"/>
<path d="M14934 2445l 0-1 28-8 26 3 23 10-6 26-19 21-18 18-20 17 18 17 27 1 28-2 26-3"/>
<path d="M11355 3714l-1-1 24-10 26 5 30 2 27-1 29-3 31-3 30-1"/>
<path d="M11404 3805l-1-1 15-20 24-13 23-8 25-5 25-3 24 1"/>
<path d="M11581 3560l-1-1 25 0 26 6 26 9 25 13 20 14 15 19 13 21 8 25 4 25-5 24-9 22-15 25-15 21-16 20-20 22-23 18-24 7"/>
<path d="M12022 3629l-1-1-18-18 18-17 26-8 29-5 26 0 29 2 30 4 30 7 25 9 21 12 16 22 0 30-13 29-14 21-18 24-20 24-23 25-27 26-27 27-30 28-30 26-30 26-30 23-29 21-26 19-23 16-24 19-20 15 24-5 28-11 33-11 34-8 33-3 30 0 29 2 23 5 28 8 23 8 21 15"/>
<path d="M12369 3898l 0 0 1 25 2 30-1 27-3 34-4 26-6 29-8 30-8 31-10 32-10 29-9 26-12 30-9 25 4-31 9-31 8-24"/>
<path d="M12402 3859l-1-1 20-18 27-9 27-2 26 9 19 18 4 25-7 26-15 28-16 23-20 21-23 19-21 15-21 12-24 10-25-3"/>
<path d="M12618 3670l 0 0 27 1 29-3 26-2 24 5-7 28-19 17-22 20-19 16-18 17-24 18-21 17 26-10 28-12 29-8 27-2 26 9"/>
<path d="M12953 3800l 0-1 23-10 25-10 28-8 28-7 25-7"/>
<path d="M12910 3913l 0-1 21-22 24-14 25-9 27-7 32-3 32 1 34 4"/>
<path d="M13498 3470l-4-1-25 1-25 11-19 16-19 24-14 23-15 26-15 29-15 32-13 33-12 33-12 33-10 33-8 31-6 31-5 31-4 31-3 29 2 26 6 34 11 30 13 27 16 22 17 18 25 18 23 10"/>
<path d="M13577 3609l 0-1-3 31-5 29-7 36-6 28-8 31-7 31-8 32-7 32-6 30-7 27-7 32-5 25"/>
<path d="M13681 3779l 0-1 24-13 27-11 28-7 31-5 26-2 28 0 28 0 32-2"/>
<path d="M14051 3738l 0 0 6 24 1 29-1 26-2 31-4 32-4 29-6 27-3-30 7-29 9-27 11-24 12-21 16-19 19-18 18-16 23-16 24-8 23 9"/>
<path d="M14246 3490l 0 0 24 9 24 15 21 17 21 23 21 28 15 22 13 21 12 23 12 22 10 22 12 34 9 33 4 34-1 34-5 24-6 25-10 24-10 22-13 21-22 28-23 25-22 21-23 18"/>
<path d="M14739 3373l-1-1-24 18-16 25-19 31-15 24-16 27-17 29-16 32-14 34-14 37-12 35-9 34-8 33-4 31-4 27-2 27 1 24 4 35 8 32 10 27 12 25 11 28 10 23 12 21 21 13"/>
<path d="M14892 3511l 0 0 0 28-4 31-7 30-6 25-7 25-8 27-8 28-9 29-8 28-8 26-8 24-8 31-6 26-6 25"/>
<path d="M14973 3686l 0-1 24-8 30-2 26 1 28 1 24 0 26 1 25 0 29 1 24-2"/>
<path d="M15094 3601l 0-1 14 22 4 24 0 29-1 29 0 29-2 27"/>
<path d="M15382 3486l 1-2 17-19 24-1 27 9 26 16 21 21 13 27 3 31-4 27-14 30-20 28-18 20-20 19-22 18-23 17-25 16-25 14-24 12-22 11-31 15-25 12-23 12 26 4 30-5 35-6 24-2 35-3 33-1 29 2 25 3 28 6 26 9"/>
<path d="M15674 3721l 0 1-6 24-3 26-3 24-2 29-5 35-5 25-6 25-7 25-7 23-11 32-13 26-12 22"/>
<path d="M15683 3712l 0-1 12-22 27-8 26 3 24 8 21 11 19 18 4 29-10 22-22 23-21 16-24 14-27 11-25 1-20-14"/>
<path d="M15932 3528l 0-1 28 1 23 9 22 15 11 21-18 22-21 18-21 14-23 13-20 15 22 9 30 1 28-1 29 0"/>
<path d="M16043 3317l-1-1 27 13 23 14 27 18 28 24 17 18 16 21 15 22 14 21 13 21 19 32 13 32 11 34 7 32 8 32 7 31 2 31-5 31-12 34-12 24-14 24-17 25-20 24-18 24-19 20-20 17-25 18-25 9"/>
<path d="M12611 4777l 0-1 23-13 27-9 27-6 30-5 30-3 26-1 24 7"/>
<path d="M12609 4861l 0 0 22-16 24-8 26-5 30-2 25-1 27 0 27 1"/>
<path d="M13069 4591l 0-1 22 12 4 29 1 30-2 36-3 27-4 30-7 33-6 36-11 37-13 37-13 35-14 33-12 30-11 26-12 31-13 25 18-17"/>
<path d="M13284 4784l-1-1 27-2 27-1 25 0 28 0 29-1 27-4"/>
<path d="M13349 4709l-1-1 2 26 0 26 0 27-1 28-1 30 0 28 1 25"/>
<path d="M13649 4619l 0-2 12-21 29-3 25 3 25 6 28 6 31 10 28 11 23 15 19 24 2 33-11 30-15 24-19 25-23 26-28 26-30 24-32 22-31 21-31 19-29 17-27 17-22 13-25 18-20 15 30-5 32-8 25-5 29-5 27-4 28-3 26-3 24-2 35-3 29 1 30 4"/>
<path d="M13962 4869l 0 0 4 26 2 26 3 27 2 31 0 34-3 34-7 35-5 23-7 32-8 23 3-25"/>
<path d="M13991 4811l 1-3 14-26 19-17 27-8 29 5 25 10 23 15 18 20 6 25-10 23-21 20-23 15-27 17-27 14-26 11-24 8-24 4"/>
<path d="M14210 4624l 1-2 22-10 29-3 25 2 26 8 18 16-16 23-24 16-25 13-21 12 14 21 28 5 30 2 27 1"/>
<path d="M14442 4766l-1-1 28-3 26 3 26 4 29 2 25 0 28-1 29-2 31-1 33-2"/>
<path d="M14856 4776l 0 0 21 18 7 23 5 29 0 24-4 25-6 25-12 30-12 24-8-24 5-33 5-27 8-28 10-26 10-22 12-21 15-19 16-18 22-20 24-15 26-10 25-4 27-1 25 2 25 4"/>
<path d="M15235 4742l-1-1 30 1 28-1 28-2 25-2"/>
<path d="M15563 4469l-1-1 22-13 26 3 24 5 25 11 26 15 23 18 20 20 14 21 10 28-6 30-16 26-26 28-21 18-26 20-27 20-29 19-30 20-30 21-31 19-28 18-28 16-25 14-20 13-27 16-20 13 28 8 26-3 34-4 25-3 24-1 25 0 33 1 32 2 30 3 27 3 24 5 25 7"/>
<path d="M15816 4739l 0 0 9 24 10 22 10 26 7 25 2 25-7 28-17 18-7-28 5-24 10-28 12-31 16-28 16-23 17-18 18-18 21-17 22-10 25-7 30-5 27 0"/>
<path d="M16165 4724l-1-1-5 26 0 27 1 24-1 28-4 31-8 34-6 25-9 25-10 26-8 25-11 23-14 28-15 25 12-20 13-24"/>
<path d="M16169 4690l-1-1 23-12 28 4 29 7 29 8 26 10 20 14 15 22 2 24-14 27-23 20-20 12-29 14-29 9-24 4-25-1"/>
<path d="M16489 4544l 0-1 26-4 25 6 20 15 10 25-5 26-20 15-22 10-26 8-22 11 20 17 27 3 29 2 25 3"/>
<path d="M11344 5850l-2-1 11-23 26-13 26-11 26-9 28-9 28-6 28-4 27-1 27 3"/>
<path d="M11341 5897l-1 0 23-9 29-5 28-5 27-4 28-3 30-1 26 0 31 1"/>
<path d="M11511 5706l-1-1 24-3 27 1 31 2 28 5 29 8 25 10 25 14 17 18 1 25-16 25-16 19-20 19-23 21-24 21-24 22-22 18-22 18"/>
<path d="M12071 5976l-1 0 2 26 5 31 3 31 2 26 1 28-2 28-4 26-5 23-7 27-8 24-2-29 2-32 5-29 8-32 9-29 12-24 16-26 18-25 20-22 20-16 22-12 23-8 24-5 29-1"/>
<path d="M12602 5880l-1-1 25-10 29-4 32-4 31 0 25 3"/>
<path d="M12569 5974l-1-1 27-10 29-6 26-4 27-2 28-1 30 3"/>
<path d="M13757 5552l-1 0 4 26 4 28 2 25 2 24 0 25-1 29-2 24-5 27"/>
<path d="M13102 5920l-1-1 31-7 27-5 37-5 28-3 33-3 37-2 39-4 43-4 45-5 24-1 24-2 24-2 25-2 25-1 25-2 27-2 27-1 26-2 29-2 29-1 28-2 29-2 30-1 29-2 29-1 29-1 28-1 29-1 28-1 27-1 26 0 28 0 25-1 25 1 24 0 46 1 45 1 40 2 37 2 33 3 28 2 27 3 32 3 26 2 26 2"/>
<path d="M13191 6133l-1-1 10 25 0 27-3 29-5 30-5 28-7 30-6 32-8 31-7 29-6 28-4 29-5 24 8-27"/>
<path d="M13364 6226l-1-1 22-10 27 2 27 0 28-1 26-2 25-2 25-2"/>
<path d="M13446 6161l-1-1 5 27 1 28 2 27 4 27"/>
<path d="M13703 6032l-1-1 25-2 24 2 27 5 25 7 24 10 21 13 21 19 9 26-11 27-15 21-23 22-28 21-19 14-21 13-21 13-29 18-28 16-24 13-22 13 25 6 25-2 26-3 26-4 25-2 29-2 26 0 25 1"/>
<path d="M13986 6189l-1-1 12 21 6 24 4 25 2 28 0 32-2 35-3 24-5 35-3 24-4 24-4 25-6 33-9 30-6 25-5 25 7-27 3-28 6-35 4-24 7-26 5-24 5-24 7-31 4-29 5-27 2-27 0-28-1-28-3-26-5-28-8-23 24-12 31 2 26 2 28 3 29 5 24 5 24 10 14 20-5 27-19 25-19 20-24 18-25 13-24 12-29 10-28 3-5-26"/>
<path d="M14298 6024l-1-1 25-4 27 1 25 8 9 24-18 21-20 13-21 12-24 7 24-1 25-1 28-1 24 1 28 7"/>
<path d="M11606 7270l 0 0 6 30 4 26 1 33 0 27-2 28-3 32-3 32-5 35-7 37-7 38-8 38-7 36-7 34-7 31-6 27-10 31-8 26 13-28"/>
<path d="M11779 7593l 0-1 26-4 26 1 24-1 25-2 26-4 27-4 25-6 23-5 24-10"/>
<path d="M11935 7481l-2 0 2 24 10 30 5 23 4 26 5 27 3 29"/>
<path d="M12513 7094l-1 1-8 25-2 28 0 31 2 25 3 26 2 28 1 26 2 25 1 26"/>
<path d="M12242 7467l-1 0 24-1 28 0 25-2 28-1 33-4 35-3 36-4 36-4 35-5 35-4 35-4 35-5 35-4 35-5 35-5 34-4 31-4 31-4 26-3 25-2 29-2 29-1"/>
<path d="M12234 7732l-1-1 22-18 30-7 24-4 32 0 30 4 26 11 9 26-9 28-16 27-14 21-18 21-20 20-21 21-22 20-21 21-22 20-20 19-19 20-18 17-20 21-16 20 30-11 28-14 22-11 21-11 22-11 23-9 33-9 31-6 28-3"/>
<path d="M12516 7888l-1 1-10 26-5 27 0 32-2 30 0 33-1 36-1 25-3 36-2 30-1 25"/>
<path d="M12530 7836l-1 0 25-10 25-3 26 0 25 6 20 16 6 25-11 25-19 22-17 18-20 17-21 13-23 12-25-2"/>
<path d="M12728 7643l 0-1 18-19 26-6 28-3 26 3 19 16-8 28-15 18-19 21-19 22 24 7 25-3 29-4"/>
<path d="M14862 7204l-3 1-23 23-17 22-16 29-12 23-10 26-12 27-10 30-9 31-8 32-8 32-6 33-6 34-4 34-4 34-1 34-1 34 1 30 1 29 2 25 6 34 7 31 8 25 12 25 18 18"/>
<path d="M14981 7346l-1 0 2 26-1 26-2 32-3 35-3 26-3 28-3 28-4 30-4 29-4 28-6 26-5 24-7 30-8 29-7 25"/>
<path d="M15165 7561l-1 0 28-3 29-3 25-3 26-3 27-5"/>
<path d="M15235 7479l-1 0-13 24 0 29 0 26 2 27 2 30"/>
<path d="M15759 7153l 0 0-1 28-4 28-6 27-5 23-6 26-6 28-4 30-5 29-4 25"/>
<path d="M15490 7536l 0-1 24-15 26-3 31-2 31-2 35 0 27-1 27 0 26-2 28-1 29-1 27-1 29-1 28 0 28-1 25 0 33-2 28 1 29 1"/>
<path d="M15609 7729l 0 0 11 24 1 30-2 28-6 34-7 25-8 26-9 28-7 28-8 26-5 25-6 32-7 30"/>
<path d="M15561 7705l-1-1 24-16 30-5 25-1 26 2 25 5 24 5 28 10 19 16 3 26-14 25-16 20-19 19-21 18-21 15-21 13-25 13"/>
<path d="M15834 7641l-1-1 24 0 28 5 20 12-7 25-20 18-26 12-22 12 25 1 29 0 29-1 25-2"/>
<path d="M16003 7264l 1-1 24 0 24 7 27 15 27 20 18 18 19 20 19 23 17 25 18 26 15 26 12 27 11 28 9 29 6 29 6 29 3 29 2 28-2 27-3 28-7 28-8 28-10 28-14 28-13 26-14 26-15 22-19 30-19 22-19 17"/>
<path d="M16381 7209l-1-1 25-8 27-1 28 1 25 8 4 24-19 18-20 15-23 13-20 13-20 16 25 14 29 1 28-1 31-1"/>
<path d="M16538 7563l 0-1 26-11 29-7 26-5 26-5 26-4"/>
<path d="M16557 7619l 0 0 28-4 30-6 26-5 27-5"/>
<path d="M17063 7363l 0-1-3 31-4 24-5 30-7 36-6 28-6 30-8 33-8 35-9 35-9 35-11 34-9 32-10 29-8 28-8 32-6 25"/>
<path d="M17138 7630l 1-1 25-13 32-6 27-2 28-1 27-1 29 0 29-2 27-3"/>
<path d="M17287 7539l-1 1 0 26 5 26 3 25-2 26-2 26"/>
<path d="M15371 7739l 0-1 6-24 23-14 24-5 25-3 25 3 22 10 14 19-5 28-17 23-18 22-21 21-24 20-25 19-25 18-23 15-25 16-21 14 21-16 24-10 27-7 27-5 27-2 25 4 17 18"/>
<path d="M17882 7139l 0-2 15 19-4 29-6 29-7 32-5 24-5 24-6 26-6 25-6 24-9 31-5 25-5 26-2 25"/>
<path d="M17604 7626l-1-1 25-14 27-2 29-2 32 0 24 0 37-1 24 0 24-1 27 0 26 0 27 0 27-2 27-1 26-1 25-1 25-1 34-2 29-1 29-1 24 0"/>
<path d="M17680 7801l 1-1 13 21 0 29-3 27-5 33-5 26-3 28-6 30-5 31-5 30-7 32-6 31-5 29-5 27-6 33-4 27-1 24"/>
<path d="M17646 7845l 0-3 14-21 18-17 21-13 22-10 28-6 27 3 24 11 22 17 14 21 3 25-8 23-16 24-21 25-17 17-25 20-25 16-26 11-25 2"/>
<path d="M17914 7709l-1-1 24-10 26 10 22 15 8 24-15 23-20 21-20 14-22 13 19 17 27 1 30 1"/>
<path d="M18338 7574l-1 0 25-6 26-8 26-8 28-11 25-12"/>
<path d="M18412 7497l-1-1-1 27 4 30 5 26 7 28"/>
<path d="M19090 7134l-1-1-22 18-5 30 0 27 1 28 1 29 0 28-1 31-3 29-4 28-4 24"/>
<path d="M18765 7555l 0 0 30-4 27 0 33 0 26-1 29 0 32 0 35 1 38 0 41 0 43 2 42 1 42 2 38 2 38 1 32 2 33 0 29 1 27 1 24 0 35-2 27-2 25-1 27-1"/>
<path d="M18789 7705l 0-1-9 22-11 23-11 25-15 30-17 32-15 28-13 25-11 27-3 26 24 13 30-2 27-6 31-6 32-9 31-10 30-8 26-9 28-8"/>
<path d="M18841 7808l-2-1-14 27 0 28-3 28-1 30-1 34-3 35-2 32-2 31 1 25 1 25"/>
<path d="M19040 7864l-1-1-4 30 1 30 1 30 0 32-1 36-3 25-3 26-5 25-5 24-8 32-6 28-5 27"/>
<path d="M19046 7917l-1-4-3-25 23-14 24-1 27 3 29 4 28 6 26 11 11 23-3 24-15 21-22 21-26 19-27 14-25 7-25-3"/>
<path d="M19309 7676l-1 0-3 27-9 27-13 25-13 25-12 23-8 24 26 5 27-4 24-6 27-7 25-7 24-10"/>
<path d="M19344 7744l-2-1-10 25 5 29 2 28-4 28-5 28"/>
<path d="M15216 8825l 0-1-1 28-3 25-2 28-4 31-5 34-6 25-5 26-9 28"/>
<path d="M14849 9301l-1-2 27-4 26 1 34-1 28 0 30-1 33-2 39-5 41-6 48-8 24-3 26-4 26-4 25-4 27-4 26-4 27-5 26-5 27-4 25-5 25-4 25-5 47-8 44-7 41-5 37-5 33-4 28-2 34-1 26 3"/>
<path d="M14889 9541l-1-1 13-22 24-13 24-5 29-1 24-1 24 4 29 8 18 18-1 31-12 22-21 30-19 22-21 22-24 23-26 21-26 20-28 19-26 18-24 17-20 17-25 22-20 19-17 19 29-2 28-6 33-10 25-7 25-8 27-7 25-7 25-5 31-3 28-1"/>
<path d="M15220 9715l-1 0-9 25-4 25-5 31-7 35-5 27-6 28-7 31-7 33-8 34-7 32-6 31-6 27-5 27"/>
<path d="M15201 9666l-1-2 15-19 28 0 25 3 26 4 23 8 25 11 20 21 3 26-12 23-22 23-21 15-25 12-25 11-23 7-25 3"/>
<path d="M15454 9481l-1-1 22-11 28 3 18 17-14 23-20 16 18 17 25 2 24 0"/>
<path d="M15885 9312l 0-1 24-6 29-2 29-1"/>
<path d="M15861 9388l-1-1 24-10 31-8 28-6 31-6"/>
<path d="M16206 9166l-1-3-5-25 16-18 24-8 27-2 31 6 29 9 23 7 23 12 19 16 18 17 15 26 5 31-4 25-12 26-18 29-16 20-17 20-21 20-24 21-26 21-27 21-28 19-27 19-27 17-26 15-24 14-22 11-28 15-26 10 23-12 32-9 35-6 35-3 33 1 31 1 29 2 27 1 29 5 24 9 22 12"/>
<path d="M16594 9351l-1-1 24-10-24 4"/>
<path d="M16791 9333l 0-2 8-23 16-21 21-18 25-10 26-2 20 15 10 23 5 32 0 27 3 29 5 26 2 25 5 30 8 23 11 26 18 21 20 15 24-1 21-12"/>
<path d="M17043 9261l-2 0-24 16-15 23-14 22-18 25-19 28-14 20-15 21-18 20-16 21-23 26-18 23-18 21"/>
<path d="M17326 9246l-1 0 29-3 25 2 29 1 30 0 24 1"/>
<path d="M17266 9329l-1-1 29-4 31-5 28-5 31-5 31-6"/>
<path d="M17416 9154l-1-1 24 0 23 5 27 8 26 10 26 10 22 12 21 16 13 21 2 25-14 27-22 21-21 15-22 16-23 14-24 15-22 13"/>
<path d="M17757 9223l 1-4 15-27 18-21 20-14 25-4 22 13 19 21 15 26 9 24 5 27 5 31 5 32 3 32 3 30 6 25 11 24 22 14 25-10 25-20"/>
<path d="M18021 9176l-3 0-23 7-19 17-21 22-23 26-19 19-21 22-23 23-24 25-23 25-20 23-17 22-18 29"/>
<path d="M18094 9206l 0-1 22-13 26-5 25-2 27-3 26-1"/>
<path d="M18113 9256l-1 0 29 3 31 1 24 0"/>
<path d="M18671 8817l 1-1 5 27 2 30 1 28 0 31 1 34-1 35-2 25-1 24-2 36-3 33"/>
<path d="M18367 9251l 0 0 26-1 28 0 37-3 30-2 33-2 37-1 38-2 38-2 39-3 38-4 37-4 35-5 34-3 32-4 31-3 27-3 25-3 31-2 30 1 25 8"/>
<path d="M18500 9401l-1-1-15 27-14 22-17 23-19 25-20 27-19 26-18 25-13 23-8 25 10 24 24 3 25-4 31-6 31-9 30-9 30-10 27-10 25-7"/>
<path d="M18514 9514l-3 0-21 16-5 26-2 32 0 29 2 28 2 27 1 26 0 25-1 24"/>
<path d="M18630 9560l 0 3 1 33 3 33 5 35 3 35-1 35-2 35-6 35-7 32-7 29-8 28"/>
<path d="M18655 9501l-1-1 19-15 33 1 31 4 30 9 29 9 21 12 18 17 4 27-14 21-19 18-23 17-25 17-27 13-24 10-28 7"/>
<path d="M18889 9406l-1-1 27-5 29 5 25 10 11 22-12 24-21 15-22 13-17 18 22 18 27 7 26 3"/>
<path d="M14653 10526l-1 0-11 24-8 28-11 27-9 23-11 25-11 30-12 32-13 34-13 36-11 35-11 37-8 37-7 36-4 37-2 35 1 33 2 31 4 28 6 26 6 23 11 29 12 25 15 25 17 20 23 17 27 5"/>
<path d="M14825 10726l-1-1 14 22 9 32 4 30 4 35 1 26-1 30 0 32-4 35-7 36-5 38-9 36-6 36-6 32-4 27-4 29"/>
<path d="M14948 10934l-1-1 26-2 31-4 28-4 29-6 30-6 31-6 30-6 23-6"/>
<path d="M15072 10836l-1-1 3 27 9 25 8 32 6 28 4 30"/>
<path d="M15613 10511l-1 0 12 21 8 25 1 31-2 29-7 33-7 23-8 23-12 31"/>
<path d="M15373 10882l 1-1 24-8 24-2 31-3 36 0 28-2 32 0 32-1 36-2 37-2 37-1 38-2 35-1 36 0 34-1 33-1 32-1 29-1 26-2 34-2 25-1 24 1"/>
<path d="M15440 11051l-1 0-8 24-13 28-10 24-13 25-14 26-12 24-12 29-7 25 21 18 25-2 26-7 27-8 27-10 26-10 28-12 26-10"/>
<path d="M15511 11161l 0 1 0 24 2 29 1 25 1 30-1 34-2 24-1 26-2 26-3 25-2 31-2 28"/>
<path d="M15628 11180l 0 0 18 19 9 25 4 24 3 28-1 31-4 34-4 35-4 33-5 30-6 24-7 24"/>
<path d="M15637 11183l-1-2 15-20 25-6 30-2 25 1 25 6 24 10 21 19 10 22-1 27-14 24-17 20-20 18-20 15-24 12-26 0"/>
<path d="M15824 11026l 1-1 25-7 28 4 21 11 4 27-14 20-21 20-22 15 19 20 28 0 25-3 25-5"/>
<path d="M16022 10639l-1-1 20 15 25 22 22 21 25 23 18 17 20 18 18 19 18 21 17 22 15 24 12 25 11 28 9 29 5 29 2 29 0 29-2 29-5 28-8 29-11 31-14 29-16 28-16 26-15 24-17 20-22 25-23 17"/>
<path d="M16234 10511l 0-1 25-4 26 1 25 1 25 5 25 7 22 10-2 24-20 13-22 10 22 12 25 1 25-1"/>
<path d="M16535 10829l 1 0 30 6 29-1 27-3 27-3 27-3"/>
<path d="M16543 10926l-1-1 25-11 25-9 35-10 27-8 28-7"/>
<path d="M17062 10619l-1-1 17 21 3 25 0 36-2 30-4 34-7 38-7 39-10 43-11 44-11 42-12 43-13 37-11 35-11 29-10 31-7 23"/>
<path d="M17149 10895l 0-1 26-5 26 2 24 3 31 2 24 1 25 0 25-2 26-4"/>
<path d="M17240 10832l-1 0 10 24 7 25 7 25 6 27 1 30"/>
<path d="M17910 10507l-1-1 5 24 3 24 0 31-1 26 0 27-4 28-4 28-7 27"/>
<path d="M17604 10900l-1 0 25-1 27 0 38 1 30 0 33 0 37-1 40 0 43 0 43 1 44 0 42-1 42 0 41-3 40-1 40-1 36 0 34 0 30 1 26 1 35 3 29 5 25 4"/>
<path d="M17661 11078l 1-1 28-3 32 4 25 4 27 5 27 9 19 16-1 25-19 27-21 23-19 16-20 16-23 15-22 14-23 14-20 13-30 18-25 16-22 15 22 8 25-6 28-7 30-6 29-6 30-5 30-3 26-2"/>
<path d="M17936 11249l-1 1-10 22 0 28-4 27-3 31-5 25-4 26-5 27-7 27-6 27-6 25-6 31-3 29"/>
<path d="M17913 11206l-1 0 31-1 32 0 26 2 30 7 24 13 10 25-11 25-22 22-27 17-26 10-26 3"/>
<path d="M18141 11083l-1-1 28-1 25 6 22 10 4 25-20 20-20 14-25 13-23 9 26 3 27 0 25 0 28-2"/>
<path d="M18621 10903l 0-1 24-15 25-5 25-2 26 0"/>
<path d="M18656 10866l-1-1 5 25 6 26 7 29 7 25"/>
<path d="M19316 10439l-1 0-3 24 2 27 3 25 6 27 4 31 3 31 1 32 1 32-2 30-3 29"/>
<path d="M18991 10859l 0 0 29 8 28 3 26 1 31 0 35-1 40 0 45-2 24 0 24-1 25-2 27 0 26-1 27-1 27 0 27 0 27-1 26 0 27 1 25 0 25 1 46 1 43 1 42 1 38 1 36-1 31-1 27 0 33-1 25 0 24 1"/>
<path d="M19015 11083l-1-1-4 26 1 24 3 30 1 25-1 27-4 31-6 30-6 31-4 27-5 31-3 27"/>
<path d="M19229 11053l 1-2-20 21-15 26-13 25-12 27-10 27-7 30-3 27 3 25 5 30 15 22 19 15 23 9 25 2 25-5 25-10 18-19-3-28-18-22-24-9-28-2-26 7-23 13-18 17"/>
<path d="M19425 11233l 0 0 5 26 1 26 1 31-1 27-5 31-5 32-7 31-6 28-7 25-5 27"/>
<path d="M19431 11251l-1-4-1-25 15-20 29-4 27 3 29 9 21 12 17 20-2 26-19 17-28 12-28 6-31-1-24-7"/>
<path d="M19678 10992l 0-1 11 23-5 29-12 26-14 22 12 21 30-2 27-6 26-3 27-3 27-4"/>
<path d="M19747 11029l-1-1 7 27-1 26-1 32-2 24-4 30-2 25"/>
<path d="M10558 8916l 0-1 24-8 27-4 25-1 25-1 25 4"/>
<path d="M10525 9023l-1-1 24-8 23-5 27-3 28-1 30 5"/>
<path d="M11056 8590l 1-3-21 14-17 25-18 30-11 23-12 25-13 28-13 30-14 34-16 37-16 41-16 41-15 44-15 44-12 43-10 43-7 42-4 38-2 37 0 32 2 28 4 25 8 32 12 25 13 21 19 21 22 16 23 10 27 3 26-4"/>
<path d="M11155 8804l 0-3 4 32-4 35-3 24-3 26-2 26-1 26-2 26 0 25-2 25-2 25-4 24-3 25-6 33-4 25-5 27"/>
<path d="M11269 9014l 0-1 23-8 26-6 24-4 26-3 27-2 31 0 26 1"/>
<path d="M11380 8906l 0-1 11 24 5 25 1 31 0 27-1 30-2 33"/>
<path d="M11890 8651l-1-2-2 28 0 27 1 26 1 28 1 31-1 24-1 25-7 24-5 30"/>
<path d="M11553 9029l-3-1 24-6 33-4 27-4 31-4 34-5 38-6 40-5 42-5 43-4 45-3 45-2 41-2 41-2 39-1 35-1 34-1 29 0 24-2 30-1 27-1-8 26-22 20"/>
<path d="M11710 9127l-1-1-9 29-13 26-18 30-13 20-20 30-18 30-17 27-14 25-13 25 5 23 27-3 27-5 30-7 35-10 34-8 24-7 31-8 32-7 25-6 24-4"/>
<path d="M11757 9266l-1-1-4 30-2 25-4 32-4 35-4 26-4 27-3 27-4 29-4 28-4 28-3 28-3 25 0 30"/>
<path d="M11899 9323l-2 0-11 22-1 27-2 24 0 28 0 30-1 33-2 34-4 35-5 35-6 30-6 25"/>
<path d="M11889 9293l-1-1 18-21 31-7 26-2 26 3 29 8 20 12 14 24-7 25-17 20-25 18-21 12-30 10-24 5"/>
<path d="M12062 9121l-1-1 27-10 27 0 26 4 22 8 3 27-23 16-26 15-21 13-20 14 22 15 30-4 28-3 24-3"/>
<path d="M12253 8609l-1-3-11-22 26 0 27 11 24 15 26 20 20 15 20 17 23 18 21 21 21 22 19 22 18 25 17 26 16 27 13 27 13 29 9 29 9 28 6 29 3 30 1 31-1 31-3 31-5 30-7 31-9 29-13 27-13 28-15 26-18 25-17 24-17 22-17 21-19 19-18 16-25 21-23 16-24 15"/>
<path d="M12538 8502l-1-1 25-8 25 9 24 9 18 18-20 19-24 15-26 13-22 12 27 3 24-5 26-5 29 0"/>
<path d="M12762 8971l-1-1 21-12 26-6 25-5 30-3 27 1 27 4"/>
<path d="M13274 8619l-1-4 4-25-24 22-18 30-12 23-13 25-15 26-12 29-14 32-13 34-11 38-12 39-12 41-10 41-9 40-9 39-7 39-5 35-3 35-3 32 0 30-1 30 1 27 3 26 6 35 9 30 7 27 8 23 12 26 15 21 15 21 17 19"/>
<path d="M13550 8653l 0-3 7-24 14-19 10 22 3 27 1 31 0 32-3 25-1 25-4 25-4 31-4 24"/>
<path d="M13330 9002l-1-1 28-6 27-4 37-5 30-3 31-3 34-4 33-3 34-3 33-4 32-3 31-3 26-3 26-3 24-3 33-4 31-5 25-4 25-2"/>
<path d="M13371 9118l-1-1-8 26-7 26-8 23-9 24-8 23-10 23-10 28-5 25 20 18 29-7 23-7 25-8 28-8 27-7 25-7 30-8"/>
<path d="M13441 9196l-1 0-3 28-2 29-5 27-5 31-5 31-5 32-3 29-3 28-2 30"/>
<path d="M13585 9269l 0 1 2 28 1 25 1 24-2 30-2 36-3 26-3 26-5 25-5 26-5 26-6 25-5 24-7 31-7 25"/>
<path d="M13583 9291l 1-2 15-19 25 7 26 10 22 10 18 19-12 28-21 23-19 17-20 15-24 12"/>
<path d="M13768 9146l 1-1 25 1 22 13 9 23-15 20-23 18-23 15 25 6 25-4 26-4 26-5 23-5"/>
<path d="M13866 8630l 0-1 20 15 22 20 22 18 23 21 26 23 16 19 16 19 15 22 14 23 13 25 13 27 11 26 10 28 7 27 6 29 5 28 5 28 4 29 1 31 0 32-4 32-6 35-8 34-11 35-11 37-15 36-14 33-13 30-13 25-15 29-17 25-21 18-22 11"/>
<path d="M14093 8450l 1-1 28 0 29 1 28 1 25 5 23 11 12 23-17 23-24 15-25 14-24 12-21 12 24 15 26 4 31 2 25 3 25 6"/>
<path d="M9992 10467l 0-1 25-7 24-7 29-9 26-7 26-6 27 0"/>
<path d="M9992 10577l-1-1 22-16 28-8 28-2 30 0 25 2 27 6"/>
<path d="M10467 10156l 0-1-16 22-13 24-10 23-11 27-13 34-8 25-10 27-8 29-9 31-8 30-7 33-5 33-5 33-4 31-3 30-3 30-1 28-2 27 0 28 0 25 2 24 5 33 4 28 5 25 7 30 12 25 15 20 18 18"/>
<path d="M10591 10394l-1-1 12 22 3 28 0 27-1 33-1 25-1 24 0 25-2 24-1 24-3 35-3 33-2 29-1 26 2 25"/>
<path d="M10674 10223l-1-1 20 19 22 23 20 19 23 21 21 23 21 25 20 27 18 29 12 21 9 23 7 25 6 27 2 28 1 30-1 28-4 29-5 30-9 30-11 29-10 28-12 25-10 22-14 29-11 22-17 19-23 9"/>
<path d="M11024 10591l-1 0"/>
<path d="M11309 10217l 0 0-14 21-10 25-8 26-7 24-7 28-8 33-7 34-5 25-5 25-5 26-3 27-3 25-3 26-1 35-1 24 2 34 3 31 5 30 6 27 7 23 10 27 10 25 8 25 8 24"/>
<path d="M11508 10309l 0-1 4 30-4 27-5 33-5 36-4 26-5 27-5 28-5 26-5 25-3 24-5 33-4 29-1 29 1 27"/>
<path d="M11633 10489l 0-1 25 5 24 2 25 0 25-5 25-5 25 0"/>
<path d="M11723 10374l 0-1 20 14 3 26 0 27-3 30-4 31-6 28-5 24-4 26"/>
<path d="M12223 10171l-1-1 0 27 0 25-3 25-4 29-3 24-5 26-5 29"/>
<path d="M11988 10495l 0-1 27-10 30-5 29-2 33-2 25-1 25-2 27-1 30-2 30-3 32-2 31-3 30-2 31-3 31-3 30-4 28-4 25-4 32-5 29-2 29-2 27 1"/>
<path d="M12001 10656l-1-1 24-13 29-4 30 2 27 5 23 12 4 26-16 22-19 19-23 19-27 19-28 20-26 18-25 18-23 17-20 16-20 16 25-2 28-8 24-7 26-7 25-6 26-6 28-5 24 1"/>
<path d="M12259 10764l 0 0-3 25 1 29 1 30 1 27-1 29-4 34-4 25-5 25-6 34-5 26-7 24"/>
<path d="M12246 10743l 1-3 7-25 21-19 24-11 28-8 30-3 31 1 26 7 17 19-11 23-18 18-21 17-24 15-25 13-23 10-25 7"/>
<path d="M12438 10601l 0 0 27 1 24 6 23 12-5 24-20 19-20 16 16 20 26-2 30-5"/>
<path d="M12624 10139l 1-1 25 7 24 13 23 14 23 16 24 19 25 23 18 18 16 18 20 31 11 21 11 24 12 25 8 25 8 26 5 29 2 29 0 29-1 30-2 28-4 26-5 26-6 26-7 26-8 26-9 23-12 32-13 29-13 25-14 23-16 18-21 16"/>
<path d="M15529 2599l 0-1 24-13 22-8 31-9 24-8 23-5"/>
<path d="M15543 2661l-1-1 20-18 23-5 31-5 26 0 25 1"/>
<path d="M15994 2272l 0-1 3 26 2 26 2 26 2 31 2 36 0 26 0 26 0 25 0 26 1 26-1 25 0 24-1 35-1 33 0 31-3 30-3 25-4 27-3 26"/>
<path d="M16346 2513l-1-1 25 10 24 5 26-1 28-6 24-7 23-9 23-10"/>
<path d="M16427 2449l-1 0 2 26 10 25 7 24 7 26 6 27"/>
<path d="M17162 1981l 1-1 15 20 0 31-1 27-1 29 0 30 0 28 1 27-1 25-2 25-3 30"/>
<path d="M16722 2441l-1 0 24-1 33-3 27-3 33-4 37-4 42-4 24-2 25-3 27-2 27-3 28-2 31-3 32-2 32-3 33-2 34-3 33-2 35-2 35-1 34-2 35 0 34-1 32-1 33 0 31 0 30-1 30 0 29 1 27 1 26 1 27 0 25 0 25 1 25 1 45 1 40 1 37 1 31 0 26-1 30-2 26-6"/>
<path d="M16839 2634l-1-1 16 25-4 27-6 35-6 26-7 26-6 26-7 27-5 26-5 25-6 32-6 27"/>
<path d="M16932 2783l-1-1 28 2 32-2 27-5 28-5 27-5 25-5 27-8"/>
<path d="M17047 2676l-1 1-14 22 2 30 3 29 4 24 6 25 4 31 7 27"/>
<path d="M17274 2603l 0-1 28 2 31 5 25 4 23 7 27 10 22 17 0 25-12 20-21 22-22 22-23 21-25 20-26 20-24 19-20 17-19 19-15 20 26 15 33 1 28-2 32-3 31-4 30-5"/>
<path d="M17521 2796l-1 0 2 24 4 30 1 27 0 30-2 34-3 24-2 26-6 27-6 27-7 25-6 25-5 32-5 30"/>
<path d="M17519 2802l-1-2 13-21 27-6 28-2 29 4 25 7 20 19 3 25-10 25-16 20-18 17-22 15-28 10"/>
<path d="M17778 2656l-1 0 27-8 25 2 28 2 22 9-7 24-21 19-21 13-23 15 25 10 29-4 26-3"/>
<path d="M18220 2367l-1-1 26 1 27-1 28-4 30-4 29-5 27-2"/>
<path d="M18257 2329l-1 0 5 25 5 24 8 30 4 30 6 28 4 26 2 25"/>
<path d="M19262 2003l 0-1 11 24 3 31 1 29-1 31 1 29 2 25 2 25 2 26"/>
<path d="M18872 2426l-1-1 15 21 26 6 24 0 31-1 36-3 39-3 43-4 43-4 45-4 43-2 45-2 47-2 25 0 25-2 26 0 28-2 28-1 28-2 28 0 29-2 28 0 27 0 26 0 25 0 24 0 46 1 42 1 43 1 37 1 35 2 33 2 28 3 27 2 24 3 30 3 27 3"/>
<path d="M18955 2661l 0 0-9 25-4 29-2 26-3 31-4 34-3 25-4 25-6 35-5 31-2 28"/>
<path d="M19065 2784l 1-1 23-10 25-4 32-3 26-1 26-2 26-4 31-4"/>
<path d="M19175 2692l-2 0-12 21 4 30 4 28 2 28 6 30 10 28"/>
<path d="M19374 2669l 1-2 22-14 26-4 24 1 26 3 23 5 27 10 20 17-2 25-18 21-23 19-21 14-21 13-23 14-24 14-21 13-27 18-20 16-15 20 24 12 31 4 32 0 33-3 34-2 33-5"/>
<path d="M19606 2814l 0 0 6 29 0 29-2 24-3 26-5 27-9 29-8 30-8 30-10 27-10 28"/>
<path d="M19585 2829l 1-4 6-26 15-22 27-9 27 5 24 8 24 17 13 25-4 25-15 20-23 16-29 11-25 4"/>
<path d="M19796 2695l 1-1 25 2 25 1 2 25-17 17-20 17-2 25 24 8 26 5 25 2"/>
<path d="M18830 2175l-1-1-26 3-19 22-18 25-12 22-15 25-15 27-15 31-14 35-14 37-12 40-12 42-12 43-9 43-7 44-2 42 2 40 5 38 10 36 15 32 20 31 22 28 29 26 31 22"/>
<path d="M19932 2164l 0-1 22 18 16 21 18 27 17 19 18 22 20 23 23 25 25 24 25 27 23 28 22 28 18 28 17 28 14 28 12 29 9 28 6 28 3 29-3 27-3 27-6 26-8 25-9 24-11 23-13 21-14 21-13 20-22 27-20 21-23 17"/>
<path d="M20135 2060l 1-1 25-11 28 0 25 3 25 5 22 12-2 25-21 13-22 11-20 13 19 19 28 8 28 4 24 2 26 1"/>
<path d="M-1994 -2347l-1 0-8 24-2 29 0 25 1 26 1 30 0 32 0 33-2 32-1 30-3 27-4 25-3 28-4 26"/>
<path d="M-1576 -2344l 0-1 24-14 25-8 28-7 28-3 26 2 28 10 16 20 3 25-6 25-13 28-17 31-15 21-16 23-18 23-19 24-20 22-19 21-19 20-18 18-18 16-21 22-19 18 26-9 25-8 27-8 28-7 28-7 27-6 27-3 25-2 31 2 27 4"/>
<path d="M-901 -2388l-1-1 18-21 24-8 27-6 30-6 29-4 27 6 8 23-11 27-17 25-20 25-21 21-19 17-21 13-24 8 24-13 28-8 23-5 25-4 25-2 30 1 24 7 16 22-8 27-17 25-20 19-24 18-29 16-31 14-34 9-32 4-30 1-27-3-26-11"/>
<path d="M-249 -2487l-1 0-5 27-10 24-11 22-14 24-14 27-12 27-11 28-6 25 18 20 27-2 25-4 27-6 32-8 34-10 34-9 33-10 30-9 25-6 23-6"/>
<path d="M-128 -2423l-2 0-17 19 0 32 0 27 0 31-1 32-2 30-4 30-1 28-2 25 0 25"/>
<path d="M-426 -2017l-1-1 12-25 19-22 17-19 21-22 23-26 25-30 31-32 33-34 18-18 18-17 19-19 19-19 18-17 19-19 18-18 17-18 33-33 31-30 28-27 25-23 20-22 18-18 21-23 17-19 17-22"/>
<path d="M492 -2413l 0-2 16-19 28-9 24-6 28-7 29-6 26-5 25-3"/>
<path d="M482 -2404l-2 1-13 23-3 25-1 31-1 31 0 30 1 28 5 24 24 2 21-18 21-17 25-17 28-15 29-12 29-6 28-3 25 2 25 4 26 7 20 17-4 25-14 22-18 24-22 22-25 21-27 18-29 13-29 10-30 6-25 3-28 1"/>
<path d="M1228 -2509l-2 1-22 15-21 25-15 27-14 33-6 23-6 27-3 28-2 27 0 28 2 26 5 25 11 31 17 25 20 18 23 11 25 4 25-2 29-11 21-18 5-28-18-19-25-15-27-10-27-5-26 4-23 9-22 17-13 21-5 28"/>
<path d="M1763 -2496l-1 0 22 14 27-2 27-6 31-7 29-10 28-8 24-7 24-5 16 17-11 31-12 32-10 25-10 25-8 27-8 28-9 28-7 27-6 25-5 32-2 25 0 25 4 26"/>
<path d="M2630 -2511l 0-4-3-30-19-19-30-3-32 6-22 11-21 13-21 20-12 20 2 27 19 20 29 14 27 10 30 9 29 11 25 11 21 15 18 23 8 30-1 25-8 25-15 25-18 21-26 19-28 12-26 6-25-1-27-14-17-20-8-26 0-32 5-24 6-24 10-22 12-22 23-26 28-22 21-14 22-14"/>
<path d="M2770 -2729l 0 1-15 25-19 27-15 23-17 25-20 28-20 30-25 30-30 33-29 36-31 36-15 20-15 20-25 39-25 39-23 39-21 35-19 35-15 32-14 28-10 25-11 30"/>
<path d="M3403 -2447l 2-4 12-25 10-28 0-27-6-27-13-25-21-15-28 2-25 13-29 22-18 17-16 18-20 30-16 28-10 25 3 25 24 15 32-5 32-13 22-12 21-15 27-22 19-19 16-19-13 24-9 29-2 25-2 26-2 29-3 32-5 31-4 29-5 25-5 27-1 24"/>
<path d="M3983 -2544l-1-1-18 25-9 25-10 31-11 35-7 25-6 27-7 28-6 29-4 27-3 24-2 28 8 26"/>
<path d="M4060 -2451l-3 2-16 24-8 23-7 28-3 30 3 30 10 27 16 22 20 15 25 8 27 2 27-5 28-11 26-17 22-23 14-26 6-25-2-28-13-29-18-30-15-18-25-22-29-11-29 0-26 8-21 12"/>
<path d="M4684 -2538l 1-1 4 27-5 26-9 34-5 25-5 28-5 28-4 29-3 28-2 26-1 33 0 25 3 25"/>
<path d="M4871 -2556l-1 1-17 20-8 28-4 25-2 27-2 30 0 35-2 26-2 27-1 26-2 26-2 24-2 31-1 25 5 25"/>
<path d="M5420 -2523l-1 0-3 29 0 32-5 31-6 36-4 26-6 28-5 29-6 26-6 24-8 33-5 27-4 26"/>
<path d="M5531 -2484l 1-1 27-1 28 5 31 6 24 5 29 11 19 16 2 25-8 25-15 20-20 20-24 21-27 19-28 17-29 16-27 16-24 14-20 13 25 10 27-5 28-4 29-2 31 0 28 0 27 1"/>
<path d="M5790 -2632l-3 0-23 10-28 19-20 17-24 20-26 24-30 27-32 31-32 33-32 36-16 18-18 19-15 19-17 18-17 19-16 19-15 18-30 34-26 31-24 29-22 26-20 22-17 19-21 21-20 19"/>
<path d="M-1581 -1281l-1-1-24 11-19 23-14 21-14 25-16 27-15 31-13 32-13 35-11 35-9 40-9 40-7 40-7 42-6 40-6 38-4 37-3 37-3 34 0 31 0 28 1 26 4 34 5 28 8 24 10 22 14 25 16 22 18 18 21 18 21 14"/>
<path d="M-1367 -1104l 0-1-6 28-5 29-5 34-3 27-4 30-3 32-5 34-5 33-5 34-4 34-4 31-4 29-3 27-3 33-1 28 0 27"/>
<path d="M-1058 -876l-1-1-18-17 25-2 26 1 27-2 24-5"/>
<path d="M-1001 -962l-1 1-9 25 1 28 2 26 3 25"/>
<path d="M-583 -1208l-1 0-10 26-2 25 1 28 2 27 1 28 2 27 3 24"/>
<path d="M-758 -887l 0 0 29-6 32-8 28-6 32-6 33-7 34-6 35-6 35-5 32-4 26-2 28 3"/>
<path d="M-689 -761l 0-2 26-10 29 0 26 6 22 13 9 24-8 23-18 21-24 21-19 14-22 12-24 15-23 13 30-2 25-3 29-4 30-7 33-7 34-9 34-9"/>
<path d="M-339 -858l-1-1 24-11 28-5 24-3 26-4 25-3 25-4 24-3"/>
<path d="M-245 -930l-1 1-16 20-3 27 5 30 8 26 12 28"/>
<path d="M212 -1191l-1-3 10 28 2 24 2 28 0 32-2 32-4 33-6 35-5 32"/>
<path d="M29 -834l 0-1 26-3 30-4 30-5 35-6 27-4 27-3 29-5 29-3 28-3 26-3 24-2 32-2 26 0 25 0"/>
<path d="M160 -757l-1-1-15 25-13 24-14 27-12 26-2 24 29 3 31-2 27-4 29-4 28-4 27-5 24-6"/>
<path d="M252 -706l-2 1-19 18-9 27-1 24 4 26 6 26 7 24"/>
<path d="M534 -852l 0-1 24 2 32-2 27-2 27-3 24-4 29-4"/>
<path d="M608 -917l-3 1-17 20 6 26 13 25 14 23"/>
<path d="M753 -734l-1-1"/>
<path d="M891 -726l 0-1"/>
<path d="M994 -735l 0 0 24-3 24-6"/>
<path d="M1012 -1278l 0 0 17 21 19 17 25 19 21 14 23 15 25 16 26 17 25 17 24 20 20 22 17 23 15 25 12 28 10 29 7 30 7 31 3 30 0 28-3 29-5 30-6 28-8 27-9 26-10 25-12 24-14 24-15 22-15 20-17 19-20 23-18 17"/>
<path d="M1790 -1367l-1-1-24 12-14 25-12 25-13 33-10 25-10 29-11 31-14 32-15 35-16 38-17 37-14 38-12 37-8 36-6 34-4 32-2 29 1 27 2 25 5 32 6 30 10 28 8 27 11 25 14 25 14 21 17 23 19 22 17 18"/>
<path d="M2159 -1334l-1-1 7 24 0 31-2 29-3 31-2 30-2 29-2 27-2 25-3 28 0 25"/>
<path d="M1890 -918l-1 0 26-11 29-4 27-2 33-2 37 0 28-1 29-1 31 0 31 0 30 0 30-1 27 0 27 0 24 0 31 0 25 0 26 0"/>
<path d="M2160 -750l 0-2 10-24 15-25 9-23-5-24-23-14-29 2-31 13-23 15-22 18-16 20-16 24-6 25 23 5 26-7 24-9 24-10 28-11 24-9 14 24-3 27-5 26-5 29-5 31-4 30-6 29-6 28"/>
<path d="M-1998 -551l 4-2 31-7 36-5 27-1 29-2 32-3 35-4 39-6 42-7 46-8 26-5 27-5 28-5 29-6 31-5 33-5 34-6 35-7 35-5 37-7 38-6 40-7 41-6 42-6 44-8 46-7 47-6 48-7 51-7 51-8 52-7 54-8 56-8 57-9 58-9 60-9 63-9 63-9 65-10 66-10 67-10 67-10 69-9 69-11 70-10 71-9 71-10 73-10 72-9 73-9 72-10 74-9 74-9 74-10 73-9 73-9 73-9 73-8 74-9 73-7 73-7 71-7 72-7 71-6 71-6 70-5 70-6 67-5 67-5 65-4 65-5 63-5 62-6 59-4 59-6 58-5 56-5 54-5 53-5 50-5 49-5 48-5 46-5 43-5 42-5 40-5 37-5 35-5 34-4 31-5 28-5 25-3 25-5 41-6 34-5 25-4"/>
<path d="M3916 -1194l-2 4-14 27-9 24-9 29-10 30-7 34-8 36-7 36-6 36-5 35-4 33-3 32-4 29-1 26-2 33 2 27"/>
<path d="M3866 -1171l-1-3 16-19 26-7 28-7 36-5 25-3 26 0 26 3 25 4 24 5 32 10 23 12 18 21-2 26-16 27-16 18-21 19-22 18-23 15-23 13-32 15-28 10-25 5-25 0"/>
<path d="M4257 -1162l 1-1 22-10 28-10 25-7 30-8 33-5 30-5 27-2 25-1"/>
<path d="M4307 -1154l-1 0-9 26 2 31 4 32 3 27 3 28 2 31 2 31 0 31-2 29"/>
<path d="M4181 -800l-1 0 25-12 23-5 27-4 29-4 30-3 28-3 31-3 28-4 26-3"/>
<path d="M4648 -1193l-1-1 28-9 32-6 27-3 28-4 27-3 25-5 28-4"/>
<path d="M4646 -1172l-1 2-18 23-9 30-6 25-1 25-2 26 0 28-2 31-2 31 0 29 0 26 2 30"/>
<path d="M4630 -1057l-1 0 23-8 24-3 28-3 30-3 28-2 29 0"/>
<path d="M4577 -896l-1 0 30 1 27-2 28-3 31-4 33-5 33-6 31-3 28-3"/>
<path d="M4971 -1229l-1-1 22-15 30-2 30 2 27 7 23 16 9 27-4 28-10 27-17 28-20 29-22 27-18 26-14 23-12 28-6 26"/>
<path d="M5031 -832l-1 0"/>
<path d="M4178 -1160l-1 0 10-22 25-2 25 1 32 2 27 1 28 3"/>
<path d="M1274 989l 1-1 24-3 14 27 7 28 5 25 3 25 2 25 3 25 2 25 3 35 2 31 1 30"/>
<path d="M1183 1418l 0-1 30-4 24-5 27-8 31-11 32-9 32-8 33-8 32-7 32-8 30-7 25-5 24-1"/>
<path d="M1299 1579l-1-1 20-21 26-12 27-3 27 1 25 7 22 15 8 25-9 24-14 23-20 26-16 19-18 19-19 19-20 20-19 20-20 19-18 19-21 25-14 20 12 22 28-6 27-10 30-13 22-10 22-9 23-10 24-9 22-9 33-11 28-8"/>
<path d="M1870 970l 0 0 21 16 25 4 33-3 34-8 28-8 31-9 36-10 36-11 38-11 37-11 36-10 33-9 28-8 25-6 32-6 28-2 24 8-4 26-15 25-17 23-18 23-13 21-14 23-17 20"/>
<path d="M1872 1032l-1-1 28 10 24 14 20 16 23 18 25 20 27 21 30 20 29 19 29 18 27 16 27 15 23 13 27 15 24 12 9 22-17 20-19 18-24 22-19 16-21 18-23 20-25 22-25 24-27 26-25 26-25 26-21 25-17 22-21 27-14 24-4 26 23 11 27 3 30-2 36-3 26-3 28-4 30-3 29-3 31-4 30-3 31-3 29-3 27-4 25-2 35-3 30-5 25-5 25-6 24-9-11-24-18-21-23-21-20-16"/>
<path d="M2765 1342l 0 0 24 11 25-9 27-18 22-19 25-24 26-30 27-35 26-38 24-42 20-42 17-45 11-45 5-45 1-45-2-33-4-35-8-30-7-27-13-25-27 2-20 24-20 34-16 37-12 38-9 37-7 40-4 43-2 44 0 44 4 42 6 40 7 36 12 32 11 27 13 22 24 24 26 14 31 3"/>
<path d="M3141 1216l-2 1-21 18-12 24-5 25 5 26 19 20 26 10 24-1 27-10 26-19 17-22 6-26-8-28-13-21-18-18-20-14-27-6-27 11"/>
<path d="M3462 1232l 0-4 4-28 0-27-13-21-24-1-28 13-23 20-17 19-16 20-14 22-12 22-11 29-4 29 16 22 27-1 26-10 29-18 26-21 20-21 15-25 6-25-18 22-6 30-1 25 3 28 6 32 6 35 4 28 5 30 2 32 1 34 0 36-3 35-2 35-4 33-6 35-7 32-8 29-9 25-14 26-18 16-24-8-20-20-12-23-10-27-8-30-5-32-4-32-1-32 0-33 3-34 7-33 9-33 12-31 14-28 17-24 18-21 18-17 28-21"/>
<path d="M3790 816l 0-1 4-25-13 25-13 30-9 25-12 30-12 36-14 41-12 44-5 24-10 45-8 46-5 43-3 39-1 37 2 31 3 27 8 34 9 27 9 22 13 23 16 21 17 19"/>
<path d="M3951 928l 0-1 11 22 6 26 4 37 2 28 2 30 1 32 1 32 0 31-2 32-2 29-3 26-4 31-5 24"/>
<path d="M4177 1118l-1-1 26-13 24-6 28-5 24-3 25-3 30-3 27-2"/>
<path d="M4264 987l-1 0 14 26 7 28 4 25 2 27 0 29-2 27-2 27-3 28"/>
<path d="M4763 879l 0 0 11 23 1 32 2 30 0 35 0 26-3 27-2 26-4 25-4 25-5 30-6 27"/>
<path d="M4784 860l 0-1 16-18 19-19 21-12 25-5 28-1 31 2 30 6 22 12 15 21 3 28-9 24-15 21-20 21-24 17-25 15-23 13-31 9-27 3-25 0"/>
<path d="M5041 720l 0-1 26-7 27-5"/>
<path d="M5217 639l 1-1 23-13 24-2 25 9 18 18 0 28-19 21-21 14-22 14-23 13-22 13 25 10 25-1 28-2 27-1 27 3"/>
<path d="M4642 1100l 0 0 26-2 27 1 28-1 35-1 28-2 30-1 32-3 36-2 38-3 40-3 41-4 43-4 41-4 41-5 43-5 40-5 37-6 35-4 30-4 27-3 33 0 28 0 29 1 25 4"/>
<path d="M4943 1233l-1-1 18-22 23-8 26-2 30 2 25 1 25 2 28 3 25 6 2 26-15 25-22 23-18 16-20 16-22 15-22 15-22 14-21 13-20 12-27 16-23 17 27 8 29-6 33-6 34-5 32-4 27-2 27-1 28 3 24 5"/>
<path d="M5557 660l 0 0 21 11 25 16 25 17 28 20 20 15 19 15 34 30 28 29 21 26 16 24 15 26 14 27 10 27 9 28 6 28 5 30 0 30-4 30-7 30-11 30-13 29-16 28-17 28-17 26-16 24-16 22-20 28-21 23-19 17-23 12-25 5"/>
<path d="M1804 1947l 0-1 11 23 2 27-2 27-2 30-4 35-3 25-4 26-6 26-5 24-7 29-6 24"/>
<path d="M1806 1980l-1-1 9-25 22-17 22-11 29-4 23 9 18 19 4 26-15 23-19 17-23 18-20 13-20 14"/>
<path d="M2126 1933l-1 0 16 21 9 26 2 24 0 30-2 33-3 25-5 26-5 25-5 24-8 32-7 24"/>
<path d="M2124 1955l 0-2 12-25 19-17 26-13 25-6 27 2 20 14 5 26-10 29-17 23-16 19-19 17-21 17"/>
<path d="M2294 1911l 1-1 25 8 16 22 8 24 0 26-19-15 3-28 10-25 17-22 20-16 24-12"/>
<path d="M2455 1899l 0 0 15 22-6 24-8 25 13 20 20-15"/>
<path d="M2501 1796l-1 0"/>
<path d="M2546 1883l 0 1 11 23 6 25-3 27 10-27 13-23 17-25 16-18 18 18-4 28-7 24-8 24 20-21 13-24 13-21 16-18 13 21 0 25-3 27 0 25 17 18 23-18"/>
<path d="M2769 1899l 0-1 25 5 25-8 12-22-13-22-24-1-21 13-10 24-3 27 5 24 8 23 15 20 22 12 25-1"/>
<path d="M929 3193l-1 0 25-5 27-4 30-3 25-2 26-1 26-1"/>
<path d="M934 3266l 0-1 26-1 27-4 26-4 29-4 27-3 29-2"/>
<path d="M1481 3004l 0-1 11 24-1 27-5 33-6 26-9 28-10 29-9 27-10 28"/>
<path d="M1715 2949l 0 0-9 29-10 27-14 33-12 27-14 30-17 32-20 35-23 38-25 41-13 22-14 22-13 22-15 23-14 22-13 23-13 22-12 21-13 20-21 37-18 33-16 28-11 22-11 22 20-12"/>
<path d="M1635 3318l-1-1 1-25 21-14 27-9 26-5 27-1 28 4 23 8 20 17 8 25-5 27-12 21-17 22-24 22-28 21-21 14-30 20-29 18-28 15-25 14 25-3 27-4 29-3 31-1 26 2 25 3 25 4 22 13"/>
<path d="M2121 3164l 0 0 19-16-24 3"/>
<path d="M2380 3438l 0 0"/>
<path d="M2404 3439l 4-1 27-17 23-18 24-26 18-22 19-27 20-28 21-32 21-33 21-33 20-37 18-37 15-39 11-39 7-39 2-37-2-35-5-32-6-28-10-29-17-21-24 4-15 20-12 25-9 23-9 27-8 31-8 36-6 39-5 42-3 44-1 43 1 42 4 38 5 34 6 30 8 26 13 30 15 22 21 17 27 10 30 2"/>
<path d="M2786 3273l-1 0-19 18-9 22-4 26 5 25 22 15 27-3 25-15 17-20 11-25 4-24-11-26-19-22-22-15-25-4-21 20"/>
<path d="M3056 3271l-1-1-11-24-26-6-26 13-17 17-17 20-12 24-9 28 0 25 25 8 25-11 20-14 18-18 17-18 14-22 6-24-22 9-10 23-3 27 5 30 8 24 10 24 12 30 8 23 8 25 8 29 6 30 5 31 3 33 0 32-2 32-3 31-5 29-8 27-7 24-16 28-18 20-23 11-25 3-28-6-28-14-27-17-23-22-18-24-14-23-9-22-4-31 5-26 10-26 14-27"/>
<path d="M3461 2626l 0-3-19 22-16 32-13 26-15 32-17 35-19 41-19 44-9 22-9 23-8 24-14 45-11 45-7 43-6 43-3 39-1 37 1 35 3 31 3 30 5 28 7 25 11 32 12 27 14 21 16 25 14 20 18 20"/>
<path d="M3641 2841l 0 0 4 25 1 25 0 24-1 29-3 35-2 27-5 29-4 30-4 31-6 31-5 30-5 30-5 28-4 26-6 31-6 30-6 24"/>
<path d="M3819 3108l-1-1 27-8 30 2 28 3 29 6 31 4 30 3 29 0 26-2"/>
<path d="M3953 3007l-1 0-4 27-1 27 0 25-3 26-3 25-3 26 0 25"/>
<path d="M4635 2743l 0-1-4 30-4 25-2 26-1 26 0 25 2 30 4 28 4 24"/>
<path d="M4319 3088l-1 0 24-9 20-13 23-9 25 3 28 3 28 0 37-3 27-2 30-3 31-4 33-4 34-5 36-3 36-5 37-4 37-3 36-5 37-4 34-4 34-4 30-4 29-4 26-3 32-4 26 0 26 2 25 4 23 8-17 18"/>
<path d="M4288 3248l-1-1 22-15 25 0 30 2 26 2 28 3 21 12-15 25-17 18-23 23-18 17-22 20-22 20-23 21-25 22-24 22-24 21-22 19-19 18-22 22-19 19 30-8 32-7 28-4 31-2 30-5 29-5 26-5 28-7 24-7"/>
<path d="M4581 3362l-1-1"/>
<path d="M4761 3271l-1-1-6-23 19-17 25 1 26 1 28 2 27 2 25 8 1 28-20 24-23 23-27 24-20 17-21 17-20 18-19 16-25 23-20 20-16 19 28 7 28-6 24-4 24-4 26-2 24-3 29-6 26-8"/>
<path d="M5000 3164l-1-1 20-14 22 9 9 25-20 20-19 16-17 16-18 19 18 19 26 5 27 2"/>
<path d="M5100 2606l 0-1 24 12 22 16 28 24 23 19 23 19 26 22 26 23 27 27 25 28 22 30 23 30 19 31 18 31 16 33 15 33 11 32 8 32 5 30 1 29-1 29-4 29-8 30-13 30-12 31-18 29-17 28-15 26-18 24-15 22-16 20-21 24-18 19-24 17"/>
<path d="M5783 2687l-1-2-17 26-10 24-13 29-15 34-18 38-17 42-20 43-10 22-10 23-10 23-8 23-16 44-11 42-7 39-3 37 0 36 2 33 5 30 6 28 9 23 18 30 20 25 22 20 21 15 24 15 24 11"/>
<path d="M5965 2816l 0-1"/>
</svg>
