<svg xmlns="http://www.w3.org/2000/svg" viewBox="1500 1801 5392 2360" stroke="black" stroke-width="32" stroke-linecap="round" stroke-linejoin="round" fill="none" data-xena="-27 -75"><style>@media(prefers-color-scheme:dark){svg{background-color:black;stroke:white;}}</style>
<path d="M1768 2163l 0-1-1 24 20-16-12-21-18 18 0 24 26 3"/>
<path d="M2352 2139l-1 0-10 22 20 13"/>
<path d="M2974 2161l-1-1-25 6 27 9"/>
<path d="M3583 2090l-1 0-16 19 23 7-5-23 18 19"/>
<path d="M4146 2116l-1-1-2 25 17-19-25-6"/>
<path d="M4702 2111l-1-1-18 19 20 16 23-10 7-25"/>
<path d="M5281 2065l-2 0-23 9 21-13"/>
<path d="M5685 2057l-1 0-1 24 24-5-23-10 12 22"/>
<path d="M6201 2089l-2-1-26 5 24 6"/>
<path d="M6603 2081l-1-1-13 22 24 10 18-17"/>
<path d="M1771 2569l-1 0 0 26-2 28-1 27 1 30 2 25 4 27 7 26 9 23 21 14 23 8 24 7 26 3 26 1 27 1 28 2 27 1 25 1 27-1 31-3 25-1 26-1 26 0 25 1 25 1 30 3 27 4 26 3 27 4 24 4 25 3 30 4 26 3 27 3 26 3 31 4 29 2 28 2 27 0 25-2 27-3 30-3 24-3 24-2 30-2 27-2 30-2 30-3 25-5 26-4 29-5 25-3 26-4 29-3 25-2 25-1 25-2 27 0 27-1 29-4 30-3 27-3 29-3 27-2 27-3 27-2 26-2 27-2 25-1 27-3 33-4 33-3 32-3 32-2 32 0 27 2 29 3 26 8 23 8 28 2 28-2 29-2 24-1 26 0 24 0 27 1 25 1 28 0 24 3 28 5 27 2 25 5 25 5 26 2 24 4 8-24 0-27 1-26 0-29 2-25 3-29 1-30 0-28 0-27-2-24-22 9-23 22-20 15-23 20-20 15 17-26 19-24 22-23 20-18 21-17 21-12 22 12 14 24 19 24 16 17 21 19 19 15"/>
<path d="M2284 3220l-1-1-8 25-6 29-4 31-3 27 0 26 6 24 22 11 25 2 29-5 29-6 27-6 32-3 27-2 29-1 29-2 31-1 34-2 34-1 35-1 34 2 34 1 33 2 24 1 35 1 25 1 24 0 27 0 25-1 26 0 25 0 37 0 24 0 35-2 34-2 32-1 30 0 28-2 28-2 29-2 28-3 27-3 27-3 26-2 27 0 27-2 25-1 29 0 27-1 26-2 24-2 26-1 25 0 25 0 24-4 5-25-11-22-9-22-8-25-3-24-2-27 0-24 3-26-23 15-19 20-18 18 15-21 20-21 17-18 24 8 17 21 21 18 18 15 25 8"/>
<path d="M2890 3729l-2-1-9 24 0 24 0 27-3 27 5 25 18 18 26 7 26 5 24 5 26 5 28 3 28 0 35-2 27-3 29-3 28-3 30-3 30-3 29-2 29-1 27-2 28-1 28 0 27 0 25-1 25 0 25 0 25-1 25 0 25 0 24 0 24 0 35-1 35-2 32-2 31-3 30-6 34-6 34-7 34-7 32-6 30-5 28-2 27-1 25 0 25 0 26-2 26-3 26-3 25-4 24-3 25-4 29 0 33-1 35-2 25-2 24-1 25-1 27-3 26-3 27-3 27-2 35-3 32-2 25 1 29 2 29 2 28 2 27 1 25 1 24-1 25-1 28-1 27-3 33-3 29-3 33-2 26 1 25 1 30 2 30 1 27 2 25 2 26 0 24-1 27 0 24-3 24-3 25 0 25 2 25-1 18-16-5-26-1-29 0-30 0-27 3-29 3-28 5-28 2-26-23 12-22 23-22 18-23 17-22 13 12-26 22-19 22-15 23-13 21-12 15 21 15 19 13 23 15 21"/>
</svg>
