<svg xmlns="http://www.w3.org/2000/svg" viewBox="-768 -3721 19440 19808" stroke="black" stroke-width="32" stroke-linecap="round" stroke-linejoin="round" fill="none" data-xena="-22 -372"><style>@media(prefers-color-scheme:dark){svg{background-color:black;stroke:white;}}</style>
<path d="M3576 10965l-1-1-6 28 3 27 3 32 5 30 4 25 5 25 6-30 6-29 7-33 7-33 6-31 6-27 8-23 10-24 20 17 4 30 3 25 3 25 2 26 1 25 2 25 4 26 8 23"/>
<path d="M3920 10505l-3 1-20 21-15 22-13 27-13 35-9 28-8 30-7 33-5 37-3 37-3 37 0 38 1 38 2 37 5 36 5 35 5 33 6 31 7 29 8 26 8 23 11 30 15 24 20 20 22 13"/>
<path d="M4009 10920l-1 0-9 24-3 24-2 31-1 34 2 33 3 28 5 24 14 21 28-12 16-21 17-30 10-22 10-23 7-22 10-32 5-28 3-25-1-26-19 23-3 27 0 29 0 29 3 28 3 24 9 27 16 21 25 10"/>
<path d="M4256 10905l-1-1 27-9 28-6 25-5 26-8 25-8 24-9"/>
<path d="M4334 10810l-2 1-14 23-2 30 2 27 6 30 8 26 14 25"/>
<path d="M4556 10623l 0-1-11 25-8 30-8 30-9 32-10 31-9 30-7 29-4 25-3 25 28 7 28-8 30-11 29-12 24-8 26-10 23-10 26-10 23-8"/>
<path d="M4661 10691l-3 0-21 15-5 25 0 24 6 26 8 29 9 29 7 31 5 32 4 29 3 26 1 25"/>
<path d="M4703 10515l-1-1 27 14 22 13 24 15 26 17 24 18 24 18 21 20 18 21 18 23 14 24 13 28 7 30 4 32-1 25-3 29-4 31-7 33-6 34-7 32-7 30-9 27-11 31-15 25"/>
<path d="M3422 11417l 0 0 27 2 30-2 32-6 27-8 32-10 38-13 43-15 25-8 25-8 26-7 26-8 27-7 27-6 28-6 27-6 26-4 26-4 27-4 25-3 26-3 25-2 24-2 25-1 47-4 45-3 43-4 43-4 40-4 37-4 35-4 33-4 31-4 31-4 27-3 28-1 27-2 26-1 26-2 26-3 28-4 27-5 25-5 30-8 24-7 27-10 22-12 24-11"/>
<path d="M3972 11587l 0 1 4 31 0 32-1 27-2 28 0 27 2 24 6 25 14 22 25 5 21-16 19-23 13-22 13-24 10-25 9-26 6-24 2-25 1-28-1-25-14 24-2 28 0 24 2 30 3 26 8 24 13 24 18 17 25 8"/>
<path d="M5226 11259l-1-3-10-22-13-24-26-10-29 9-20 14-20 20-18 27-12 23-9 24-8 26-3 25 2 32 10 25 24 19 29 1 26-11 27-22 19-20 17-24 17-28 14-28 13-30 11-32 10-32 7-35 4-35 0-37-2-38-5-39-6-41-9-44-10-43-11-40-10-34-9-27-13-24-25 7-6 29-1 27 0 33 3 36 4 41 6 44 7 43 8 44 7 44 10 41 11 40 9 35 12 33 10 28 10 25 10 22 17 25 19 20 24 0"/>
<path d="M5452 11195l-1 1-14 21-7 27-3 24 0 26 3 25 9 28 15 22 23 12 27-7 27-20 21-22 19-26 15-28 11-29 9-26 2-24-2-30-9-24-16 19-8 29-1 26 1 27 5 32 5 32 8 31 10 30 12 25 15 20 20 20 25 14"/>
<path d="M2814 851l-1-2-15-22-18-17-25-6-25 16-17 21-14 27-12 29-11 35-6 24-4 27-3 29-2 30 0 30 2 30 3 27 5 27 7 27 7 26 7 26 8 23 10 24 10 23 10 22 11 23 12 24 11 22 11 23 11 25 12 27 10 29 10 30 10 30 9 27 8 29 8 27 5 29 5 26 3 24 2 25 2 25 0 24 0 24-3 34-5 32-8 28-14 26-20 17-25 8-29-4-25-9-25-13-23-15-20-17-18-17-15-24-5-29"/>
<path d="M3151 1433l 0 0 25-1 29-3 32-2 27-1 32 0 38-1 43-1 48-2 25-1 27-2 26-2 28-1 29-3 30-2 31-3 32-2 32-3 34-3 35-3 35-3 36-4 36-3 36-4 38-4 37-3 38-4 37-3 38-2 37-3 39-2 38-3 38-2 38-3 37-2 37-3 36-2 35-2 34-1 33-2 32 0 30-2 30 0 28-1 25 0 26-1 24 0 45-1 40 0 34 0 27 0 32 1 27 0"/>
<path d="M3566 1789l-1-1-18 17-13 29-10 22-11 25-13 26-12 28-11 30-10 28-6 27 9 23 29-5 28-15 21-13 22-12 20-14 22-19 19-18 16-18"/>
<path d="M3600 1857l-1 0-3 26 5 29 3 29 2 32 6 30 8 27"/>
<path d="M3714 1886l 0-1 15-21 23-9 25 6 13 20 5 26 1 25 1 25 3 29 8 24 16 17 24 6 26-6"/>
<path d="M3896 1828l-2 0-21 20-18 23-18 22-20 28-20 31-12 20-17 30-11 25-8 22"/>
<path d="M3985 1861l-1-1 25-14 24-9 25-10"/>
<path d="M4152 1809l-1-1 12-25 18-16 25 1 10 27 4 26 4 29 3 27 4 24 10 24 14 20 25 3 26-14 21-19"/>
<path d="M4333 1748l-1 0-20 15-18 19-17 19-19 23-18 28-18 27-17 28-13 23-11 22"/>
<path d="M4389 1651l-1-1 25-1 25 2-12 23-14 21 19 16 27-8 25-8"/>
<path d="M5125 1289l-1-3-15-20-24 9-17 22-13 28-8 27-7 28-5 31-2 29 3 24 10 23 25 6 20-19 18-27 12-24 12-27 11-29 10-32 7-32 6-34 4-36 2-39 0-40 0-40-2-39-2-34-2-30-1-24-4-25-17 19-4 27-2 30-3 32-2 35-2 35-1 38 0 38 0 38 2 36 3 34 3 31 4 27 7 34 11 25 15 20 25 4 25-18"/>
<path d="M5242 1281l 0-2 4-25 26 3 17 18 18 23 12 25 11 29 10 28 11 25 15 24 20 14 26 2 24-15 20-22"/>
<path d="M5414 1193l-3 1-20 13-18 23-13 21-12 24-10 29-11 30-12 33-12 33-12 31"/>
<path d="M3409 1704l-1-1 3 30 2 29-1 35 0 26 0 28-2 31-1 33-1 35-2 35-2 36-2 34-4 34-3 33-3 30-3 27-4 34-5 28-2 25-21-14-7-24-7-30-8-24-9-28-10-29-11-24-15-23-20 13-9 25-2 26-5 24-6 25"/>
<path d="M3404 1709l 0 0 23-11 23-8 24-7 28-8 29-10 27-6 31-7 25-4 26-5 24-3 26-3 26-4 27-4 24-3 26-2 25-4 26-5 28-5 27-6 29-6 30-5 32-7 34-7 24-4 25-5 24-3 24-4 24-3 34-2 34-3 32-2 30-3 28-1 27-1 25-2 33-3 29-2 28-2 29-3 26-5 26-6 24-12 23-10"/>
<path d="M3720 1162l-1-1 21-12 19-16 17-18 18-22 18-28 12-21 12-23 13-26 12-28 11-29 12-31 10-29 8-31 8-31 5-32 4-31 2-28 0-27 0-31-6-26-26 10-10 25-13 32-7 25-8 29-8 31-7 33-7 34-5 35-5 36-4 35-2 35-1 31 1 27 3 34 7 23 14 20 29 3 25-13 23-14"/>
<path d="M3918 1010l 0 0 18 20 4 28-3 30-5 26-7 23 8-32 10-30 10-27 10-24 11-25 13-21 20-14 12 22 0 29 0 26 0 25 0 28 2 25"/>
<path d="M4238 916l 0-1 12-23 19-17 24-5 9 26 0 28 0 26 0 27 1 26 4 30 8 23 16 22 23 7 28-10 24-17"/>
<path d="M4435 841l-3 1-21 13-18 20-15 21-17 26-14 20-13 23-15 24-15 26-15 26-15 25-15 23-12 21-16 27"/>
<path d="M9820 1357l 0 0 15-21 16-24 15-24 18-29 14-23 15-25 14-28 16-28 14-30 14-32 14-32 14-35 12-35 10-36 9-35 6-33 6-30 2-26 4-34-2-26-3-25-27 10-14 25-11 25-11 27-11 33-10 36-9 38-7 41-6 41-3 40-3 39 1 35 2 31 4 28 8 33 9 25 16 21 23 15 24 4"/>
<path d="M10097 1086l 0-1-3 26-3 32-2 29-3 30-3 28-5 31-4 28 14-31 12-32 13-32 14-29 11-23 13-22 16-20 12 26-4 30-3 25-1 25 0 30-1 26 2 25"/>
<path d="M10537 1058l 0-3 10-23 16-19 20-16 19 21 7 29 4 27 3 29 5 29 7 27 8 28 9 27 13 25 18 21 27 7 28-13 20-17 21-25"/>
<path d="M10793 993l-4 0-29 10-23 11-24 15-26 21-19 17-19 18-20 21-18 21-17 21-14 22-12 22-15 31-6 26"/>
<path d="M11040 970l 0-1 25-10 26-2 25 0 24-2"/>
<path d="M11042 1061l-1 0 22-9 28-10 26-8 31-9 30-7"/>
<path d="M11537 665l-1 0-8 25-6 26-4 25-4 30-5 32-6 31-5 30-7 30-4 28-4 24-1 27"/>
<path d="M11783 703l-1 1-18 24-17 29-13 24-14 24-14 27-17 30-17 32-18 36-21 37-21 38-23 39-22 39-23 39-20 40-20 38-17 37-18 34-17 31-15 29-15 26-11 24-12 26"/>
<path d="M11644 1158l 0-2 11-24 23-13 23-5 26 0 23 15 12 26 4 29 3 25 4 25 7 28 10 27 14 23 18 20 23 9 25-1 30-13 25-16"/>
<path d="M11902 1046l-4 2-23 15-24 22-23 26-16 19-14 20-14 22-13 23-15 24-17 26-18 27-18 28-16 28-16 28-13 25"/>
<path d="M7966 2850l 1-3 11-26 14-27 14-23 16-20 15-20 15 22-7 29-10 35-7 26-7 25-6 25-6 24-5 24-4 32-3 26 4 28 25 2 18-19 16-21 17-25 18-31 18-33 17-34 17-35 14-35 13-32 10-32 9-31 8-29 6-26 6-29 2 29-2 26-3 30-5 32-4 35-7 39-9 43-8 45-6 23-4 25-5 24-6 25-5 25-6 24-5 26-5 25-6 26-6 24-5 24-6 24-5 24-11 44-9 41-9 39-8 36-10 34-8 31-7 26-10 31-10 24-17-27-5-37-1-33 1-39 4-44 7-47 4-24 5-26 5-25 7-26 7-26 8-26 9-25 8-24 8-24 9-23 17-42 16-39 15-35 16-29 15-24 14-20 19-20 19-15"/>
<path d="M8342 2779l-1-1 23-8 29-6 25-6 26-8 27-7 28-4"/>
<path d="M8359 2864l-1-1 26-5 26-5 29-5 24-5 27-6 29-7"/>
<path d="M8987 2507l-1 0 22-11 25-5 30-5 29-3 34-3 25-2 29-3 31-4 35-5 37-5 39-6 40-6 44-6 45-6 49-6 27-3 26-2 28-3 27-3 29-4 31-3 30-5 31-4 32-4 34-4 33-5 34-4 34-4 34-5 34-4 34-4 33-4 33-3 32-5 32-3 30-3 30-4 28-3 28-2 27-3 25-3 25-2 25-2 45-2 42-3 39 0 33 1 31 2 26 1 32 3 29 4"/>
<path d="M8962 2552l 0 1-5 24-4 27-6 37-4 28-5 31-5 33-5 34-7 37-5 38-7 39-6 40-7 39-9 38-8 41-9 42-9 42-10 43-10 42-11 38-9 35-8 31-7 26-7 32-6 27-22-20-10-28-13-28-14-25-20-23-21-15-22 15-9 29-4 24 3 27"/>
<path d="M9124 2749l 0 2-4 29-7 32-9 29-12 34-9 23-10 23-10 24-11 23-10 22-9 23-13 30-9 27-3 27 15 21 26 1 24-7 31-13 23-11 22-12 23-12 22-11 29-18 25-15 20-13 20-15"/>
<path d="M9187 2855l-1-1-8 29-2 28-3 33-1 25-2 24-2 25-2 26-3 24 0 24-1 34 1 25 5 28"/>
<path d="M9331 2909l-1-2 10-24 24-15 26-10 25 6 12 29 4 25 5 33 4 34 2 32 3 27 12 28 13 21 18 20 27 5 25-13 22-19 16-18"/>
<path d="M9571 2867l-4 1-23 10-25 19-21 20-23 26-18 22-18 22-19 24-17 25-16 24-15 23-16 30"/>
<path d="M9720 2883l-1-1 27 4 26-2 28-5 30-6 24-6"/>
<path d="M10019 2777l 1-1 14-20 25-3 24 11 16 22 11 23 11 28 11 27 8 23 15 23 16 18 24 14 26 4 30-5 24-11 21-16"/>
<path d="M10267 2699l-4 1-27 18-21 18-23 24-17 18-16 21-17 23-18 24-18 26-21 27-19 26-18 24-14 21-13 23"/>
<path d="M10381 2581l-1-1 27-2 25 3 24 4 7 24-17 22-16 21-15 20-16 20 17 18 25-2 28-5 26-6 27-5"/>
<path d="M8001 4299l-1-1-17 18-12 31-9 31-7 33-5 32-3 30 1 25 9 26 24 7 21-18 25-27 18-23 17-25 18-25 15-25 13-24 10-22 12-30 6-27 5-29 1-26-13 22-9 26-7 28-3 30-3 34 0 25-2 25 1 28 1 29 2 29 1 29 2 27 0 26 3 25 2 24 3 33 1 29 0 27-2 26-4 24-6 24-11 30-16 25-19 17-27 11-26-1-29-9-23-14-23-19-19-21-15-22-12-29 1-28 7-25"/>
<path d="M8204 4087l-1-1 22-19 24-9 26-7 26 2 20 18-8 27-18 23-23 21-23 17-22 14 26-4 24-8 28-8 31-8 34-8"/>
<path d="M8520 4182l-2-1 22-12 31-7 30-5 31-4 25-2"/>
<path d="M8505 4262l-1 0 27-6 25-5 28-5 30-8 32-9"/>
<path d="M8981 3944l 0-1-6 27-12 28-10 22-13 25-13 25-13 27-13 26-12 26-11 26-8 23-8 32-2 26 5 27 15 20 27 2 24-6 30-10 31-12 32-14 28-16 28-17 24-16 23-17 20-17"/>
<path d="M9017 4084l-1 0-9 26-1 30 0 27-2 31-1 33-2 34-3 33 0 32 2 27 9 25"/>
<path d="M9179 4086l 1-3 14-21 21-18 25-13 28-2 21 14 12 26 7 28 5 25 3 26 6 25 9 30 10 27 16 23 21 14 30-6 25-19"/>
<path d="M9422 4057l-3-1-25 9-21 16-18 16-19 20-20 24-19 29-20 30-13 21-12 20-15 29-9 24"/>
<path d="M9621 4074l-1-1 30-4 30-2 26-4 28-4 30-6 30-5"/>
<path d="M9961 3972l 0-1 24 10 16 20 12 27 7 28 7 29 8 27 10 24 11 22 12 21 26 14 30 1 30-11 26-15 28-20"/>
<path d="M10164 3915l-4 1-22 16-25 21-19 16-17 20-18 21-18 22-18 22-18 24-20 24-18 25-19 24-16 25-14 20-15 25"/>
<path d="M10251 3791l-1-1 25 5 26 8 5 24-19 22-21 19-18 17 20 17 25 3 27-2 28-3 29-3 25-2"/>
<path d="M9390 1214l-3 1-20 15-15 19-13 21-10 27-9 23-4 26 8 28 20 21 28 4 26-16 20-24 13-21 15-27 12-29 11-30 10-30 5-29 5-28 5-30 3-31 1-33 0-36-1-39-4-41-2-40-1-37-2-32-2-26-4-26-19-17-19 18-10 31-6 34-3 28-1 30-1 32 1 36 0 38 0 40 1 40 0 39 2 37 4 33 4 29 6 26 12 32 13 22 20 18 27 1 28-12 20-16"/>
<path d="M9787 666l-1-1-20 15-14 21-12 25-17 33-13 28-14 34-13 38-12 41-12 41-11 42-8 42-7 42-4 42-2 38-1 38 2 32 4 32 4 30 8 26 9 25 14 29 17 23 15 19 23 20 23 14"/>
<path d="M10772 692l-1-1 20 24 15 23 15 30 12 23 11 28 11 29 11 31 10 31 10 31 10 30 9 31 8 31 8 30 6 30 5 30 4 30 2 28 0 29-1 29-2 32-4 31-5 30-8 29-7 25-8 24-10 31-12 26-17 26"/>
<path d="M12386 1039l-1-2 1-25-9-22-25-12-27 9-22 17-23 24-21 29-15 31-9 30-3 29 1 24 16 24 28 5 28-11 23-19 24-27 17-20 15-23 13-23 13-26 10-26 9-30 5-30 4-32-1-34-2-38-3-40-6-39-6-39-5-32-5-26-7-28-19 23-4 25-2 29-3 34-3 37-2 39-2 39-1 37 0 35 3 33 2 32 5 28 4 25 7 33 9 28 15 27 23 16"/>
<path d="M12549 971l 0-1 20-15 20 20 10 25 6 28 6 24 4 24 8 24 5 25 9 30 11 22 22 15 30-1 24-11"/>
<path d="M12736 975l-3-1-25 7-22 13-25 20-19 19-20 21-19 22-17 23-16 26-15 27-15 28"/>
<path d="M8024 5527l 0-1 11-22 18-18 22-20 25-17 28-9 29-4 27 3 24 8 22 14 10 26-4 26-11 28-12 20-15 22-16 24-19 24-21 25-23 26-24 27-25 27-25 27-25 27-23 25-22 24-17 22-20 25 27-13 21-15 23-12 26-10 28-10 29-8 26-7 29-8 24-4 25 5 15 20"/>
<path d="M8329 5603l-1-1-8 29-5 24-5 29-2 32-2 31 0 27 4 27 22 13 23-21 18-24 17-30 16-30 13-30 10-26 5-24 4-28 1-25-12 23-4 25-3 28 0 33 0 35 0 24 0 25 0 27 0 28 0 28-1 30-1 30 0 30-3 29-3 28-5 31-7 32-5 30-6 30-6 27-6 25-9 32-9 23-24-7-15-24-10-23-10-25-8-28-9-29-7-32-5-33-3-34 2-33"/>
<path d="M8722 5605l 1-3 4-28-7-23-24-15-26 3-25 13-22 16-20 21-20 26-15 29-12 30-7 27 3 28 16 18 30-1 24-14 28-24 19-21 21-23 20-28 18-28 15-29 12-30 9-28 7-30 3-29 2-30-2-31-3-30-3-30-4-26-3-34-5-23-20 18-5 25-5 27-4 31-2 32-2 33-1 35 1 32 0 33 2 31 3 30 5 28 5 25 10 30 15 25 23 12 23-11"/>
<path d="M8866 5543l-1 0 0 27-4 24-6 30-5 31-3 31-1 29 4 25 12 24 30-8 24-22 18-18 18-22 17-22 16-22 12-21 13-31 10-30 3-26 1-26-17 23-9 31-6 29-4 34-1 36-1 28 1 30 3 32 3 33 4 35 3 35 1 35 1 33 0 31-2 30-3 28-3 27-5 24-12 31-13 23-19 21-25 7-29-5-21-12-23-18-22-25-15-19-12-21-14-33-6-30 2-30 7-29"/>
<path d="M9294 5448l 0-1 29-7 29-4 32-4 31-3 29-3"/>
<path d="M9299 5541l 0-1 24-7 31-8 26-7 25-6 28-7 27-7"/>
<path d="M9860 5147l-1-1 1 26-4 25-10 35-9 28-11 31-12 31-10 32-12 32-10 30-8 26-8 24-9 28-5 29 4 25 28-3 28-12 23-12 25-15 29-17 30-16 29-17 26-15 26-11 22-11 23-10"/>
<path d="M9980 5231l-1 1-9 29-5 28-2 33 0 25-1 25 1 28 0 27-1 28-1 27 0 27-2 26-1 24-4 31-2 24 9 23"/>
<path d="M10156 5376l-1-1 28-5 28-7 31-11"/>
<path d="M10409 5178l-1-1 19-19 26-11 30-8 26-3 25 0 26 3 24 5 25 13 18 19 6 24-10 32-15 30-15 21-18 21-18 22-20 21-19 22-21 21-19 22-19 20-19 19-24 24-18 17-15 21 23 11 28-4 29-8 33-9 24-6 24-7 24-6 23-7 32-8"/>
<path d="M10739 5287l-1-2 13-22 24-2 25 15 17 23 13 23 13 26 16 24 18 22 18 17 26 12 27 3 23-10 18-17"/>
<path d="M10942 5225l-4-1-23 10-19 17-18 20-20 25-15 20-17 20-20 23-17 24-18 23-15 23"/>
<path d="M9761 5054l-3 1-23 9-21 17-21 25-14 24-14 28-15 33-11 24-12 28-11 30-9 33-10 37-8 39-6 41-3 40 0 40 2 40 6 37 10 37 12 34 15 32 17 27 20 25 24 21"/>
<path d="M10980 5025l-1 0 18 16 24 20 21 19 24 22 19 16 19 17 19 17 18 19 17 18 17 19 14 20 15 33 8 34 2 24 0 25-5 26-8 26-13 27-14 27-16 25-16 25-16 23-16 22-14 20-21 25"/>
<path d="M11590 5297l-3-3-21-16-24-11-28 9-20 15-23 20-22 23-18 29-14 29-6 28 4 28 17 22 24 6 25-6 31-17 21-18 22-24 20-27 17-28 14-30 12-30 6-30 4-29 1-32-1-34-2-35-3-36-5-37-5-33-6-30-6-24-7-24-25 14-8 32-3 27-2 29-1 31 1 32 1 33 3 32 4 32 3 31 5 29 4 28 5 24 10 29 16 26 19 17 24 5"/>
<path d="M11784 5243l 0-1 15-20 24-5 22 15 13 21 7 23 9 25 9 25 10 25 12 21 17 22 21 13 30-5 26-15"/>
<path d="M11989 5189l-3 1-23 14-20 16-20 24-23 26-15 21-18 23-18 25-19 26-17 27-17 27-16 24-15 22-16 28"/>
<path d="M1083 3259l 0-1 26-5 29-8 29-7 31-8"/>
<path d="M1073 3350l-1 0 25-11 23-9 28-9 33-11 24-7"/>
<path d="M1606 2798l-1-1-25-8-20 14-17 26-13 28-10 25-8 31-7 34-3 27-3 29-2 31 0 33 0 35 3 35 5 35 5 34 7 33 8 32 10 31 10 32 12 31 12 30 13 29 12 29 11 29 12 29 11 29 12 30 10 30 10 29 10 28 9 27 6 27 5 28 4 28 1 27 1 27-1 26-3 25-5 35-7 32-10 28-10 22-18 23-26 8-30-6-26-12-20-13-22-17-13-22"/>
<path d="M2179 3049l 0-1 7 26 4 33 0 32 1 33 0 30-1 30-1 30-3 30-3 28-3 25-2 24"/>
<path d="M2373 3082l 0-1-9 25-7 26-10 31-9 23-12 25-14 30-15 32-18 36-18 38-20 39-20 40-21 42-19 40-19 39-17 34-16 28-15 24-17 25-15 23"/>
<path d="M2313 3439l 0 0-6 26-5 31-4 24-2 26 0 24 4 25 19 17 25-13 18-18 17-21 15-22 16-25 11-27 2-24-15 22-3 29 7 28 7 27 8 29 8 30 8 31 7 30 9 27 8 26 5 26 2 26-5 31-8 27-13 24-16 23-23 17-25 11-25 3-26-4-26-10-25-17-20-25-9-25"/>
<path d="M2682 3342l-1-1"/>
<path d="M2916 3564l 0-1 26 5 22-14 20-21 24-28 17-22 16-25 15-26 14-27 11-26 10-26 9-25 7-25 5-26 3-26 2-26 1-27 0-26-1-26-4-31-7-23-26 5-13 22-11 29-6 26-7 31-5 25-3 28-3 30-2 31 0 32 1 33 2 33 4 31 3 30 5 27 8 33 11 25 18 20 30 2 29-15 24-17"/>
<path d="M3222 3370l-1-1 8 27 5 30 2 28 0 30-1 26-2 24 3-30 7-25 8-26 8-24 9-28 11-24 17-21 21-13 21 13 3 28-1 27-2 25 1 24 14 21 27 2"/>
<path d="M3714 3224l 0-1 26 2 12 26 5 25 6 28 6 29 6 29 10 28 9 24 13 24 17 17 24 0 20-15 18-17 19-23"/>
<path d="M3946 3162l-3 0-25 11-21 20-17 20-20 25-14 20-16 23-16 22-17 25-17 26-17 27-17 26-16 27-15 25-15 24-13 20"/>
<path d="M4173 3181l-1-1 0 24"/>
<path d="M4400 2681l-1-2 10-24 27-13 23-10 26-6 29-5 31-4 32-2 29 2 24 5 21 14 6 24-6 26-17 32-17 23-19 24-22 23-20 22-20 21-17 18-23 23-20 20-17 17-17 18 29 0 31-10 26-8 27-9 27-6 26-5 31-5 30-3 28-2"/>
<path d="M4789 2801l-1 0-15 24 0 26 6 24 21 15 28-7 24-18 18-18 20-25 11-22 5-24-15 23 7 26 11 27 14 25 16 24 12 22 7 25-7 24-19 23-23 17-26 11-25 4-30 0-29-4-24-6-21-14"/>
<path d="M4340 3166l-1-1 25-5 33-5 29-4 32-4 35-5 36-5 40-5 42-6 45-8 48-8 47-8 25-5 25-5 25-4 24-4 25-4 24-5 25-4 47-9 45-10 42-9 38-10 38-8 35-9 35-8 31-7 29-6 26-5 34-5 30-4 27-2 25 3"/>
<path d="M4351 3405l-1 0-10 24-11 26-9 22-15 27-16 29-11 22-13 31-10 30-5 24-1 24 19 20 27 2 29-6 24-9 24-9 24-10 24-10 23-12 21-12 25-18"/>
<path d="M4410 3526l-1 0-1 28 3 26 6 31 4 24 5 25 6 25 8 30 7 23"/>
<path d="M4637 3534l-1-1 24-5 28-8 27-9 28-7"/>
<path d="M4879 3354l-1-1 20-14 28-6 29-5 28-5 28-1 29 6 19 17 1 25-15 30-20 27-15 19-17 21-18 21-17 21-16 21-16 21-20 29-15 24-12 24 26 5 25-9 26-12 27-13 29-14 30-15 31-13"/>
<path d="M5116 3427l 0-1 19-20 24-6 21 18 13 23 9 25 6 28 7 29 7 26 11 25 19 16 24 0"/>
<path d="M5294 3399l-1 1-20 15-14 20-18 28-16 25-18 27-18 29-16 27"/>
<path d="M5796 3142l 0-4 1-25 0-28-6-27-17-18-26-8-29 4-27 16-24 22-16 20-15 24-15 25-11 27-10 26-6 26-4 24 1 31 12 26 21 15 27 0 26-12 19-15 21-19 20-22 20-26 19-26 16-28 12-29 9-28 5-27 2-26 0-27-2-27-4-29-5-31-5-33-6-32-5-31-4-26-5-30-7-23-3 25-4 32-1 25-2 28 0 29 1 31 1 31 3 33 4 33 3 33 3 32 4 30 5 29 5 24 8 29 10 24 20 16"/>
<path d="M5930 3118l-1 0-18 22-8 28-1 26 6 28 16 21 29-4 25-17 18-18 15-20 13-28 5-25 1-24-25 12-4 30 1 24 5 26 7 28 9 30 10 33 11 34 9 35 6 25 6 25 5 27 3 25 3 26-1 25-1 26-3 24-7 30-10 24-18 21-23 10-30-3-25-11-25-15-26-21-23-22-20-23-16-21-15-24"/>
<path d="M8524 6957l 1-4-1-27-9-24-20-14-27 5-26 13-20 16-19 24-15 24-13 30-12 33-6 34-2 31 2 25 10 22 24 9 28-7 23-14 23-20 23-25 20-27 17-30 13-31 10-34 3-25 3-25 1-28-1-31-1-34-1-36-1-39-1-41 1-39 1-34 1-28 2-30-2-25-9 27-8 34-6 28-4 29-4 31-4 32-1 34-2 35 0 34-1 33 0 33 1 32 3 28 3 27 7 33 9 25 15 24 22 16 29 0 27-13"/>
<path d="M8721 6848l-1-2 15-21 21-14 25-3 24 14 12 22 5 30 3 30 2 31 5 28 9 25 14 21 25 15 28 4 24-7 25-15"/>
<path d="M8951 6804l-4 1-21 16-21 23-19 26-18 24-18 29-15 22-15 25-15 25-16 25-13 23-16 28"/>
<path d="M9175 6694l-1-1 24-8 28-5 26-2 29-4 28-4 30-3"/>
<path d="M9170 6787l 0-1 24-13 27-4 24-1 32-2 29-4 34-5"/>
<path d="M10055 6191l-1-1 5-24 22-11 23-10 28-8 29-5 29 0 24 5 25 12 14 21-5 27-17 25-25 25-21 19-21 19-22 19-21 18-20 16-20 16-20 15-26 21-19 19-17 18 30 0 31-8 36-9 24-5 26-6 25-7 29-6 29-6 28-7"/>
<path d="M10413 6261l-3 1-24 15-17 20-12 26 5 24 25 8 27-7 23-11 22-15 19-18 19-24 10-25-2-27-1 30 8 29 7 30 7 27 8 24 8 23 6 26-5 25-16 22-24 12-24 4-25-2-28-9-24-12"/>
<path d="M9680 6582l-1-1 33-5 37-5 30-5 35-5 40-5 43-6 25-3 26-4 28-3 30-4 30-5 33-5 33-5 36-4 36-5 37-4 38-5 37-3 38-4 37-3 36-2 36-3 34-2 33-1 31-2 30 0 28-1 26-1 25 0 44 0 39 0 34-1 32-2 31-2 27-3 33-3 26-2"/>
<path d="M9794 6789l-1-1-20 17-15 20-16 26-19 29-19 30-13 21-11 22-15 30-13 26-11 23-8 24 23 12 33-9 33-13 26-11 26-10 26-11 25-11 23-9 31-14 26-12"/>
<path d="M9839 6849l-2 0-18 21-13 29-8 28-8 33-5 35-4 25-2 26-1 26 0 25 3 31 6 27"/>
<path d="M10024 6974l-1-1 22-14 24-5 26-4 28-5 28-5"/>
<path d="M10292 6800l-1-2 24-13 27-4 26-1 26 3 24 11 15 20 2 26-13 28-17 25-21 27-17 19-19 18-19 19-20 18-17 17-22 23-17 20-17 19 25 2 27-6 31-10 24-8 24-9 26-10 28-11 23-10 23-10"/>
<path d="M10550 6841l 0-2 16-19 25-5 24 2 22 11 11 25 7 24 6 25 6 25 11 28 13 20 25 13 25-4"/>
<path d="M10767 6814l-1 0-20 15-21 20-17 19-20 22-22 27-16 18-20 28-13 23"/>
<path d="M11403 6549l-2-1-23-8-29-4-24 1-25 7-26 15-20 16-20 20-17 24-10 24-6 30 6 28 23 18 32 4 28-5 32-13 28-19 24-25 18-27 17-31 10-32 5-24 3-26 0-29 0-32-1-35-4-37-3-40-2-38-3-36-2-31-5-33-8-22-10 22-4 32-1 26 0 30-1 31 1 33 1 33 2 33 4 34 3 33 3 30 3 26 3 25 11 31 12 24 15 20 20 15 30 2"/>
<path d="M11613 6479l-1-1-17 20-3 30-1 29 3 28 11 24 23 11 26-3 23-9 22-13 20-15 21-20 15-24 2-25-7-25-15-20-11 28 3 29 4 25 6 26 7 26 9 26 10 26 9 27 9 29 9 32 9 30 6 30 3 28-1 27-3 25-8 25-20 20-24 13-25 7-28 4-27-4-30-7-27-12-24-16-19-19-15-20-18-26-13-25"/>
<path d="M1058 4915l-1-1 25-5 30-3 31-5 26-4 26-6 25-5 27-5"/>
<path d="M1093 5006l-1-1 27-7 26-3 25-3 29 0 24 2"/>
<path d="M1773 4383l-1-1-15-20-23 8-15 20-14 27-12 26-12 31-8 23-7 25-7 23-4 24-3 27-3 28-1 29 0 30 1 30 4 31 4 32 6 32 6 34 6 36 7 37 6 39 6 38 8 39 9 38 10 36 11 35 10 34 11 32 11 31 9 30 9 31 7 31 7 32 7 31 5 30 4 29 2 26 2 25 1 35 0 32-3 30-5 26-10 27-12 21-18 16-23 11-27 5-29-3-28-6-26-10-19-17"/>
<path d="M2413 4751l 0 1 14 20 24 1 24-12 19-20 17-20 16-24 15-28 13-30 9-22 13-34 7-23 5-26 4-27 2-28 2-29 2-25 1-35 1-25-27 9-12 21-11 25-10 27-8 30-7 33-5 33-4 32-2 31-1 29 3 26 5 34 9 28 11 22 20 17 23 7 28-4 26-13"/>
<path d="M2686 4602l-1 0 5 24 0 27-3 25-4 25 11-24 11-23 10-23 12-25 12-25 16-20 14 20 3 28-2 27 0 28 4 27 16 18"/>
<path d="M3104 4527l 0-2 13-24 17-17 22 10 4 30 0 28 0 29 3 27 4 25 12 26 19 17 28 0 27-12"/>
<path d="M3330 4454l-3 1-21 13-19 16-19 21-23 22-22 23-24 25-23 27-21 26-17 24-15 21-15 22"/>
<path d="M2301 4925l 0-1 28 0 25-2 24-1 31-2 25-3 29-3 32-4 36-3 39-5 42-3 44-4 46-6 25-3 25-4 25-3 25-4 28-4 27-4 27-5 28-4 27-5 28-5 28-5 28-5 27-4 27-5 26-4 26-4 26-4 45-5 42-5 38-2 36-3 34-1 33-1 34 0 31-1 29 1 27 2 24 1 31 2 28 4 25 2"/>
<path d="M2435 5112l-1 0-13 21-15 26-14 24-15 25-17 28-19 30-20 30-17 27-13 27-8 28 1 25 24 5 26-7 24-8 26-9 27-9 27-9 27-8 28-10 26-10 24-9 25-8"/>
<path d="M2477 5254l-1 0-13 21-4 26-1 25 0 32 0 28 0 32 0 32-1 28 1 30"/>
<path d="M2739 5269l 0 0 28-1 28-2 27-4 28-6 29-6"/>
<path d="M3000 5081l 0-1 22-14 29-4 24 0 29 3 27 7 23 8 20 15-4 24-14 21-22 28-18 19-18 20-19 20-21 20-20 20-19 19-18 17-19 24-14 22-12 25 13 22 28-7 31-12 31-12 30-12 27-10 27-8 26-9 25-7"/>
<path d="M3298 5164l-1-3 5-25 25-8 25 0 25 10 15 24 9 28 5 25 6 25 10 24 14 25 18 19 27 0 25-14"/>
<path d="M3502 5089l-3 0-26 13-17 19-16 21-18 26-17 28-19 29-13 21-14 22-17 28-16 26"/>
<path d="M4070 4881l 0-1 0-25-9-25-20-17-25-9-28 0-23 11-19 16-19 24-18 30-11 22-9 24-8 32 0 25 12 27 25 10 28-8 25-15 25-22 21-29 12-21 11-22 9-23 8-25 7-25 4-25 2-26-1-27-3-28-3-29-6-31-5-32-7-30-7-29-7-24-9-27-17 22-2 24-2 27-2 30-1 32-1 35-1 34 0 36 0 36 0 34 3 33 4 31 6 27 7 24 15 27 17 18 27 12 30 0"/>
<path d="M4212 4829l-1 0-9 23-3 29 0 27 6 25 11 26 20 14 27-3 28-17 21-19 16-21 15-28 6-25 1-27-5-24-24 15-5 24 0 25 2 27 7 28 11 30 12 29 14 28 14 28 12 27 10 28 5 27 2 28-1 25-5 23-11 27-20 22-25 10-30-2-24-6-25-9-23-11-24-12-21-13-21-14"/>
<path d="M8833 -3046l-1-2-19 26-12 30-7 23-7 24-5 26-4 25-2 34 3 29 8 25 24 13 28-12 25-25 18-22 18-26 19-28 15-26 13-25 10-22 8-29 2-26-3-26-17 20-5 25-2 27 1 27 1 24 5 30 5 25 8 27 15 20 28-5"/>
<path d="M9075 -3032l-1-1 6 30 4 31 2 26 4 29 5 29 6 25 10 25 18 16 23-5 20-22 17-30 12-24 12-24 8-25 6-25 5-35-1-30-3-26"/>
<path d="M8757 -3225l-1-1-23 12-15 24-16 30-11 26-13 30-12 33-11 37-10 38-9 38-6 39-4 38-2 36 2 34 5 28 8 26 11 23 21 26 30 19"/>
<path d="M9278 -3235l 1 0 21 21 17 21 15 21 15 23 17 25 17 25 14 25 12 25 9 28 2 35-1 25-5 28-5 29-8 28-9 26-8 23-15 25"/>
<path d="M9530 -3372l-1 1-8 28-9 23-10 25-12 28"/>
<path d="M9660 -3163l 0 0 25-9 29-7 26-7 24-4"/>
<path d="M9665 -3099l-1-1 27 1 30-5 25-6 29-7"/>
<path d="M10084 -3159l-1-1-15 18-12 29-9 23-9 25-8 25-7 25-7 30 0 27 21 15 31-10 30-20 21-18 21-20 18-20 17-20 15-19 16-26 11-23 6-26 0-24-14 21-7 25-2 27 0 29 0 29 2 25 10 25 27 4 21-15"/>
<path d="M10375 -3349l 1 0-9 25-11 21-15 26-17 27-18 29-17 26"/>
<path d="M10446 -3234l 0 0 9 25 5 31 2 30 0 30 3 26 6 24 26 5 21-20 20-23 14-19 18-31 15-32 12-32 7-32 4-26 2-26"/>
<path d="M10750 -3259l-1-1 28-8 25-5 29-5 30-6 30-8 28-8"/>
<path d="M10851 -3360l 0 0-5 24-1 25 0 27 2 28 5 28 7 29"/>
<path d="M11128 -3310l 0 0-6 26-8 28-6 26-4 28 0 28 3 27 8 29 19 18 24 0 29-12 23-18 21-23 17-24 14-25 10-25 5-25 3-31 1-27-21 13-8 23-8 29-2 27 6 25 11 23 23 13 26-2"/>
<path d="M11380 -3292l-1-1-2 27 4 29 3 24 5 25 10 25 17 19 25 3 25-15 22-22 16-21 12-24 11-25 9-28 6-27 4-28"/>
<path d="M11658 -3465l-1 0 0 28-5 30-9 28-11 26"/>
<path d="M8504 -2276l-3-4-22-15-25-10-25 7-10 22-7 26-4 24-2 27-2 31 2 35 3 24 5 24 6 25 8 25 8 26 9 27 9 25 10 25 10 25 11 25 10 23 9 22 15 30 14 31 13 32 12 34 11 36 6 27 5 27 5 26 3 28 2 26 1 28 1 27-2 27-3 28-4 28-4 27-6 27-5 26-6 23-8 33-8 27-8 23-13 23-27 9-30-6-22-12-23-20-23-25-20-30-14-30-6-30"/>
<path d="M8839 -2039l-1 0-17 21-12 25-12 23-13 29-9 23-7 26-6 29-7 31-7 32-5 32-3 33 0 31 1 31 2 29 5 27 5 24 11 32 12 26 14 20 16 19 21 12"/>
<path d="M8944 -1772l-1-1-21 18-7 27-2 25 0 27 3 27 7 27 12 21 25 4 23-16 17-20 18-24 12-25 11-25 8-29 2-24-3-26-18 16-5 27 0 27 3 26 10 26 12 24 18 18 25 4"/>
<path d="M9177 -1804l-1 1-8 25 3 29 8 24 9 24 15 23 19 15 24-15 12-25 8-25 8-30 7-28 5-29 0-27-2-28"/>
<path d="M9333 -2027l-1-1 16 21 19 22 20 26 14 21 14 25 12 27 10 27 6 27 5 30 4 31 0 25-3 27-5 27-8 27-10 26-12 24-12 22"/>
<path d="M9500 -2149l 0 0 14 24 5 25-3 25"/>
<path d="M9754 -1949l-1-1 25-10 25-8 27-9"/>
<path d="M9717 -1844l 0 0 28-6 31-6 29-3 29-4 29-4"/>
<path d="M10359 -2455l-2-1-24-5-26 6-18 21-15 26-12 25-10 32-8 34-2 36 2 24 5 27 7 28 9 30 9 31 11 30 10 31 11 29 12 30 11 26 11 26 10 27 10 27 10 26 10 25 11 25 11 24 10 24 9 25 8 25 7 26 7 26 4 26 2 27-1 27-1 28-5 27-6 28-6 27-7 26-8 25-7 24-13 30-14 22-18 20-22 11-26 5-26-2-23-8-21-13-12-25"/>
<path d="M10632 -1929l-3 1-16 20-4 28 0 26 4 26 7 28 10 25 15 25 23 15 25 0 25-18 17-23 18-30 11-22 11-24 9-34 6-31 1-28-3-27-7 29-3 25-2 25 0 28 0 25 2 28 9 25 20 14"/>
<path d="M10912 -2131l 0 0-14 26-10 24-12 27-10 28-10 26"/>
<path d="M11019 -2020l-1-1 2 26 4 26 5 30 7 28 9 27 12 24 22 10 16-22 13-24 10-27 7-28 3-31 2-33 0-29 0-25"/>
<path d="M11430 -2085l-1-1 22-15 25-8 28-7 27-7 28-5 25-5 29-8 23-9"/>
<path d="M11517 -2176l-1 0 5 24 14 25 15 22 13 23 10 22 13 26"/>
<path d="M12114 -2551l-4-4-20-14-25-16-25-10-26-5-22 14-19 21-24 28-16 21-15 24-14 26-12 28-9 31-6 34-4 36 1 35 4 36 10 36 10 35 14 37 13 36 15 35 17 35 13 34 16 34 14 34 14 33 14 33 12 34 11 33 11 31 9 31 8 30 6 28 3 27 1 27-1 26-4 25-6 25-9 22-15 31-20 25-24 19-26 12-28 2-29-7-33-13-23-13-23-14-20-15-25-23-18-23-9-27"/>
<path d="M12302 -2074l-1-1-8 30-5 31-1 24 5 30 9 23 21 17 24-4 21-12 22-19 21-23 16-27 12-27 8-26 1-25-4-27-10-23-15 20-5 25 5 29 7 30 8 29 10 24 15 23 22 14"/>
<path d="M12551 -2130l-1 0-5 27 14 27 11 25 12 23 18 24 22 12 24-16 16-24 11-23 9-24 5-25 3-28 2-28-1-29"/>
<path d="M12818 -2299l-1 0 2 26-2 28-10 30"/>
<path d="M8501 -530l-1-2 23-8 26-4 25-4 31-7 33-9 24-8 23-8 23-9 24-7"/>
<path d="M8514 -451l-1 0 28-7 32-8 27-6 30-7 30-7 32-8 29-8"/>
<path d="M8666 -735l-1-1 30 0 30 7 24 5 25 8 29 11 25 14 23 14 24 16 18 16 14 19-4 25-13 21-18 21-20 16-22 14-23 8"/>
<path d="M9378 -1035l-3-3-23-14-27 1-21 12-19 23-11 27-5 28-4 33-2 27 1 30 3 31 5 32 7 31 10 31 13 32 13 31 14 32 13 32 15 33 14 32 13 33 13 30 10 31 8 31 7 30 6 32 5 31 4 32 3 31 2 31 2 31 0 31-3 31-4 28-5 25-9 33-11 24-17 23-19 14-28 8-26-1-26-10-25-16-21-21-13-24"/>
<path d="M9681 -580l 0 0-8 30-4 27-2 33-1 35 0 25 2 34 5 30 11 26 19 20 27-3 20-12 22-21 16-18 14-21 11-21 14-32 7-28 3-27-2-27-5-24-6-25-14 20-1 30 2 32 4 31 5 30 7 24 9 24 21 16"/>
<path d="M9952 -749l 0-1-12 28-9 31-8 26-11 29-11 28"/>
<path d="M10062 -647l-1-1-3 32 3 29 3 33 7 33 9 31 9 30 12 25 15 26 20 16 20-15 16-26 13-24 13-25 12-27 10-27 8-28 5-28 5-26 2-24 0-30-2-28"/>
<path d="M10507 -721l 0-1 27-5 30-4 25-1 25-3 25-3"/>
<path d="M10519 -625l-1-1 23-16 29-10 24-6 25-4 26-4"/>
<path d="M10951 -680l 1-4 9-22-9 25-10 34-7 24-5 25-6 25-4 25-2 32 3 26 12 21 24 9 23-10 20-16 20-22 20-28 19-28 13-30 8-27 4-28 3-26 1-31-3-26-10 22-5 31-5 28-3 29 0 26 1 30 8 25 19 15"/>
<path d="M11240 -745l-1-1 9 27 5 24 3 28 3 28 3 29 2 27 3 24 5 28 10 22 22-10 12-25 12-31 10-34 5-23 6-35 6-34 3-30 3-24 4-26"/>
<path d="M11477 -738l-1 0 26-2 24-5 24-6 25-6 28-6 26-6"/>
<path d="M12254 -1154l-2-4-14-19-25-10-22 10-18 22-10 22-9 27-6 23-3 28-1 35 1 27 2 28 3 30 5 30 8 30 9 30 8 30 11 28 12 29 10 28 13 29 12 28 13 28 12 28 10 27 10 26 7 26 5 25 3 25 1 25-1 26-1 25-4 34-7 31-10 27-11 22-20 23-25 18-28 9-32 0-25-5-30-13-26-17-20-19-12-26 2-24"/>
<path d="M12386 -796l 0 0-6 24-1 25 1 30 2 27 3 25 10 30 20 21 27 2 22-9 24-18 26-23 22-28 18-25 9-25 4-30-2-27-5-24-10-22-8 26-1 27 1 27 4 30 6 28 6 24 14 24 27 6"/>
<path d="M12675 -850l-1 0-3 28 4 26 8 30 7 31 9 29 10 25 15 21 25 4 17-18 15-22 13-28 14-33 8-24 5-24 4-26 3-26 3-34 0-25"/>
<path d="M12962 -1016l 0-1-6 25-5 29-7 26-8 31"/>
<path d="M8705 8180l-1 0 20-21 15-20 13-20 18-24 23-26 16-19 18-20 18-21 17-18 18-16 24-16 22-10 0 26-13 22-14 27-17 25-16 25-20 26-21 27-20 26-16 21-13 22 25 11 25-6 33-5 26-2 24 0 30 10 22 11 20 16 15 23 12 27 6 31 3 34 2 35-2 25-3 28-5 30-7 29-8 30-11 30-14 30-15 28-17 29-18 24-17 21-26 21-24 9-31-7-24-20-13-22-13-25-8-30-5-32-2-33 3-35 7-35 11-35 16-33 18-31 21-30"/>
<path d="M9125 8042l 0 0 22-16 24-12 26-11 27-11 27-7"/>
<path d="M9177 8103l-1 0 22-10 25-11 23-10 24-9 24-11 24-10"/>
<path d="M9651 7715l 0-2-15 29-14 29-12 23-12 25-13 25-12 27-11 26-10 26-7 23-8 34-2 29 3 27 12 23 25 13 25 2 30-6 25-9 30-13 30-16 20-14"/>
<path d="M9666 7847l-1-1-14 25-1 30 0 30-1 24 0 28 1 29-2 31 0 30-1 29 0 28 0 25 4 31 9 27"/>
<path d="M9845 7931l 0-2 19-19 25-8 26 1 23 13 12 26 5 29 4 25 2 26 6 31 8 29 14 25 20 18 25-3 20-15"/>
<path d="M10092 7876l-2-1-24 2-24 20-19 22-22 28-17 23-16 24-17 25-15 24-14 24-14 21-14 28"/>
<path d="M10259 7938l 1 0 23-8 25-3 25-2 27-3"/>
<path d="M10623 7890l 0-2 12-24 19-16 23-12 24 3 12 22 6 30 5 28 3 31 5 31 6 29 6 26 11 26 16 23 21 13 26-3 24-18 21-22"/>
<path d="M10864 7823l-4 1-24 17-22 18-24 25-17 20-18 21-17 23-18 24-15 23-15 24-13 21-17 29-14 24-11 22"/>
<path d="M10947 7715l-1 0 25 4 27 8 23 9 21 15-9 22-22 19-20 21-17 18 26 10 25-4 25-4 28-4"/>
<path d="M9017 9348l 0-1 4-25-13-21-25 9-21 18-17 23-12 22-11 26-9 25-7 26-4 32 3 29 10 24 24 4 22-14 20-23 13-21 14-26 15-29 15-32 15-34 13-33 10-33 9-33 6-32 3-33 3-34 0-33-1-30-1-29-4-33-3-25-5-23-12 25-9 37-8 33-6 36-7 40-5 42-5 40-3 41-1 40-1 37 2 34 3 32 5 26 11 31 19 24 27 6 23-13"/>
<path d="M9165 9328l 0-2 16-22 21-12 29-8 28-1 25 6 15 20-6 27-16 26-16 20-18 17-24 20-21 18-19 16 27 9 31-2 32 2 27 4 24 8 21 17 18 22 10 23 7 26 0 33-2 32-6 24-7 24-7 24-12 24-16 31-21 24-20 18-29 11-29-5-21-18-15-26-9-24-5-27-3-30 1-30 5-28 8-27 11-26 13-24 16-23 17-22 19-20 19-20 20-19"/>
<path d="M9466 9210l 0-1 21-12 25-8 24-5"/>
<path d="M9462 9290l 1-2 21-22 23-14 28-10 25-6 23-7 30-5 30 0"/>
<path d="M9980 8886l 2-2 9 26-10 22-12 27-15 28-15 29-14 29-15 29-14 28-10 25-7 23 13 21 27-4 26-4 25-4 29-4 25-5 27-7 28-8 25-8 27-11 24-11"/>
<path d="M10086 9011l 1-1 0 30-2 30-3 25-2 28-6 29-4 30-5 30-5 26-5 27 2 25"/>
<path d="M10363 9050l-1-1 25-4 27-5 29-5 24-4"/>
<path d="M10664 8830l-1-1 0-25 23-10 27-4 30 0 25 1 24 4 28 7 23 14 7 27-8 26-13 25-14 20-16 21-19 21-21 23-20 22-21 20-21 22-18 19-19 18-22 24-16 19-13 21 26 0 28-13 25-13 24-14 26-11 25-9 28-9 26-4 24-1"/>
<path d="M10926 8943l 1-2 9-22 24-10 26 7 19 17 14 26 7 26 9 31 11 28 14 27 12 22 15 23 21 14"/>
<path d="M11142 8898l-2 1-22 16-22 22-19 22-21 25-13 20-15 21-15 24-14 24-16 24-16 22-15 20-17 19"/>
<path d="M9929 8777l-3 1-21 23-13 21-12 24-12 30-8 22-8 25-8 28-9 27-7 29-8 29-6 31-2 31-1 30 4 29 7 29 11 27 14 26 21 24 25 21 30 17 37 13 40 8"/>
<path d="M11093 8642l 3 2 21 14 22 16 22 17 22 19 21 20 18 21 15 24 13 27 10 32 8 34 4 35-2 25-3 26-7 27-10 26-11 28-12 26-15 27-14 25-15 23-13 22"/>
<path d="M11635 8921l-1-2-8-25-20-18-23-8-29 2-28 7-28 14-27 21-20 26-18 31-10 23-7 25-3 24 2 31 11 23 23 15 32-1 34-17 25-18 26-24 24-29 24-32 20-35 17-39 14-38 11-39 6-40 2-39 2-41-2-40-3-36-5-31-5-24-10-23-21-12-14 26-7 34-5 31-3 35 1 39 1 41 4 42 4 43 3 42 5 42 6 38 6 35 8 32 9 26 13 32 15 22 21 17 24 1"/>
<path d="M11792 8888l 0-1 22-13 27-1 25 12 15 20 9 27 4 32 2 27 2 31 5 29 10 27 11 22 22 22 24 12 25 4 26-6"/>
<path d="M12029 8865l-4 0-25 9-27 21-18 19-20 21-19 25-20 25-21 26-17 28-18 27-16 28-14 29-12 29"/>
<path d="M1125 6558l-1 0 27 4 25-2 32-6 25-7 26-9"/>
<path d="M1173 6665l-2-1 21-20 22-8 25-8 28-9"/>
<path d="M1735 6234l-1-2-10-24-18-18-25-1-17 18-12 27-8 29-7 35-1 26 1 28 4 28 5 28 9 30 10 30 12 30 14 32 14 30 14 33 15 32 14 30 13 32 13 30 12 29 11 31 10 31 9 30 9 30 7 30 7 30 5 27 3 28 3 26 1 26 0 25-1 27-3 25-3 26-9 33-10 30-13 25-13 21-22 19-23 12-25 4-25-3-26-7-23-12-19-18"/>
<path d="M2340 6635l-1-1 17-21 19-19 17-20 19-23 21-27 14-21 14-23 14-24 13-27 12-28 12-29 9-28 6-29 5-27 3-27 0-26-2-26-4-27-4-26-6-23-9-29-11-24-23 11-12 25-8 23-7 27-7 30-5 30-3 32-2 32-1 34 1 34 3 34 4 33 5 31 6 27 7 24 13 31 13 24 19 22 25 11 27-6"/>
<path d="M2601 6397l-1 0-9 24-1 29 2 28 2 30 3 30 3 28 16-25 9-30 10-30 10-29 10-27 7-23 10-24 15 25 5 27 5 28 4 31 5 29 9 24 15 20 25 8"/>
<path d="M2989 6328l-1-1 5-26 14-22 22-15 25 10 15 21 9 25 8 28 7 27 8 28 10 25 13 26 19 21 25 4"/>
<path d="M3199 6286l-4 1-29 15-18 17-18 18-17 21-15 24-15 24-12 25-13 27"/>
<path d="M2224 6815l 1-1 28 2 29-2 28-4 35-4 28-5 28-3 32-5 33-6 35-6 37-6 38-7 38-7 37-6 37-6 35-5 36-5 37-5 36-5 35-6 34-6 33-6 30-5 29-4 27-3 24-2 24-1 34 0 31 2 28 3 26 3 30 5 26 4 26 4"/>
<path d="M2606 6939l 0 0 27-9 30-12 26-8 29-10 32-9 32-6 33-4 34-1 31 0 29 1 26 2 31 0 26 2 24 0"/>
<path d="M2630 6956l-1-1-11 28-3 29-1 34-3 25-1 27-2 29-3 30-2 30-4 31-3 33-3 32-4 32-3 30-2 28-3 25-6 32-6 27-26 5-15-20-17-26-15-22-18-16-17 19 1 27 7 26 11 24"/>
<path d="M2752 7168l-2-1 6-24 22-18 25-13 28-10 27-7 23 5 2 26-9 24-13 28-12 22-13 22-14 22-14 25-11 23 29 4 25-5 26-4 26-3 25 0 28 5 28 11 24 18 19 24 11 22 10 26 5 29 2 35-2 25-2 28-5 30-6 30-7 30-9 30-10 27-11 26-12 24-15 21-23 25-25 17-25 8-30-3-26-18-16-22-9-31-1-27 5-30 7-32 10-35 12-33 11-34 12-32 13-31 14-30 16-29 16-27 18-26 18-22 20-19 22-15"/>
<path d="M9135 10504l 1-2 8-24 7-24-7-26-14-20-24-10-29 12-21 18-22 25-18 27-17 30-13 31-7 32 0 28 5 30 21 18 26-2 24-13 26-23 17-21 17-23 16-26 15-28 15-30 14-33 12-33 10-34 9-35 5-35 3-37-1-37-5-36-7-37-8-33-9-30-7-25-9-25-21 15-5 37-1 30 0 33 1 35 4 35 3 37 5 37 6 38 6 37 8 36 7 34 9 29 10 26 16 31 15 22 18 22 26 7"/>
<path d="M9333 10313l 0-2 16-21 24 1 21 16 13 22 10 28 2 26 5 31 3 30 5 28 5 26 10 27 18 21 28 7 23-9 25-20"/>
<path d="M9527 10291l-5 3-21 13-20 14-23 26-17 20-14 22-14 23-15 23-12 23-13 23-10 22-10 30"/>
<path d="M10586 9709l-1-1 9 25 4 26 1 32-1 34 0 35 0 35 2 35 2 30 4 25 2 25"/>
<path d="M10280 10096l-1 0 28 11 30 3 26 0 28-1 31-2 34-4 38-3 37-5 38-4 40-5 38-5 42-6 45-5 47-6 25-3 25-4 27-2 26-4 25-2 26-3 25-2 25-2 25-1 25-1 47-1 46-2 43 0 40 0 35 0 28 2 25 2 24 6"/>
<path d="M10286 10241l-1 0-9 23-11 28-12 25-13 31-13 34-8 23-12 30-5 24 3 26 24 10 26 0 26-4 30-7 31-8 30-11 29-11 27-12 23-12"/>
<path d="M10372 10356l 0-1-9 23-6 30-3 25-3 24-1 32 3 30 8 26"/>
<path d="M10559 10418l-1-2 22-9 28-1 25 0 29-2"/>
<path d="M10811 10236l-1-1 20-14 27-6 30-3 28 1 27 7 19 16-3 24-13 27-15 23-18 24-23 24-23 25-24 25-22 25-19 23-16 19-3 25 25 3 30-5 28-6 32-8 31-10 29-12"/>
<path d="M11067 10296l-1-2 23-9 22 11 17 21 9 29 9 31 5 25 7 23 11 25 17 19 24 2 20-14 18-20"/>
<path d="M11249 10296l-2 0-27 4-22 17-20 18-23 26-17 21-18 23-17 23-18 24-17 23-13 21"/>
<path d="M11763 10137l-1-4-9-27-14-23-22-11-29 11-21 18-22 25-13 20-13 22-10 23-7 23-5 33 2 27 13 23 30 9 24-8 28-19 20-19 18-24 20-28 17-29 18-31 13-32 12-33 8-36 5-36 4-40 2-40-2-37-2-33-3-27-6-26-16-17-20 18-13 29-7 25-6 30-4 34-3 35-2 36 0 36 1 36 2 35 3 33 4 30 4 26 8 33 10 26 16 23 24 7"/>
<path d="M11913 10106l 1-1 18-21 25-8 26-1 27 3 27 10 17 22-1 25-14 25-20 20-25 20-22 13-24 13 27 8 27 1 28 6 31 11 23 11 20 15 18 17 18 25 12 29 0 28-8 32-17 31-13 20-15 20-17 17-28 22-28 15-27 6-25-1-25-16-12-29 2-32 10-35 15-25 17-25 19-25 22-24 22-22 25-21 24-20 26-18 27-17 26-15 26-13 24-12 23-8"/>
<path d="M9767 10087l-1 0 24-1 29 0 25-3 30-4 24-3 28-6 27-6"/>
<path d="M9799 10184l 0-1 24-14 25-3 30-1"/>
<path d="M3537 6682l-2 0-23 8 20-14 24 0"/>
<path d="M4309 6184l-1-1 6 30 8 30 6 30 6 33 6 34 5 33 4 32 3 30 3 25 5 26"/>
<path d="M3862 6726l-1-1 29-12 30-7 23-6 27-6 29-7 33-7 34-8 37-6 38-5 38-4 40-5 43-2 44-5 45-5 24-3 48-7 24-5 25-4 26-5 27-5 28-6 28-6 30-7 30-6 31-6 30-6 30-6 29-5 28-4 27-4 25-3 25-3 47-4 44-2 39-1 36 0 31-1 28-2 35-3 27-4 25-6"/>
<path d="M4184 6847l-1-1-16 23-11 24-13 30-11 22-11 23-12 24-11 24-10 22-12 30-8 29 5 24 24 10 28-3 26-8 24-11 24-12 23-14 21-14 20-15 23-18"/>
<path d="M4205 6996l-1 1-5 24 3 25 3 26 2 29-1 31 0 33 0 32 3 27"/>
<path d="M4422 6981l-1-1 25 5 28-5 28-8"/>
<path d="M4597 6830l-1-1 25-13 28-7 30 0 27 4 26 9 18 17 6 29-5 24-13 28-17 31-15 20-15 19-18 19-20 19-18 18-19 16-22 22-16 18 23 12 30-8 23-8 24-7 30-10 23-8 22-9"/>
<path d="M4821 6914l 1-1 20-13 27 0 24 10 16 19 10 22 7 25 8 24 8 23 10 23 18 18 26-2 15-22"/>
<path d="M4984 6877l-1 1-20 20-14 23-13 24-13 26-14 27-14 27-12 26-10 24"/>
<path d="M5654 6623l-2-3-21-18-25-12-28 0-25 17-15 20-17 27-16 33-9 25-6 25-5 24-1 31 6 27 24 13 31-7 29-17 21-16 19-21 17-24 18-27 16-28 14-29 11-29 8-30 5-30 3-34-1-36-2-38-3-40-3-43-4-44-3-42-2-38-2-29-3-28-17 25-6 28-7 34-5 37-3 40-3 42-2 44 0 45 2 45 2 44 3 41 4 38 5 35 7 29 8 25 14 25 22 15 24 2"/>
<path d="M5849 6594l-1-1 23-11 26 3 20 15-4 25-18 26-19 23-20 22-21 21-17 18 28 2 28-7 27 0 26 13 21 17 21 22 16 19 18 24 20 27 15 29 10 32 5 36 2 25-3 25-7 25-10 24-13 22-15 20-24 20-25 12-26 1-24-9-21-19-14-25-8-32-2-25 1-28 3-32 7-35 11-35 13-35 15-34 15-31 17-27 18-23 19-21 21-18 21-15 24-12"/>
<path d="M-511 8690l-1 0 28-4 25 1 29 0 25 0 25-3 25-5 26-5"/>
<path d="M-483 8777l-1-1 17-18 23-11 22-9 25-8 24-7 24 0"/>
<path d="M42 8289l-1-1-15 23-11 31-12 33-10 27-11 33-12 38-14 44-8 23-7 25-7 25-6 24-7 26-7 26-5 27-4 25-4 26-4 26-3 27-2 26-2 26-2 26 0 25-1 25 0 25 1 25 0 24 1 24 4 46 3 45 6 43 6 41 7 38 8 37 8 32 9 28 11 26 15 31 15 25 17 20 21 16 24 0 22-16"/>
<path d="M274 8690l 0 0 24 6 21-12 20-23 19-25 18-30 13-23 12-24 12-24 10-26 9-25 6-28 5-26 2-26 1-28-1-26-2-26-5-25-8-33-9-27-23-12-18 24-10 25-11 35-6 26-6 29-4 30-4 30-1 31 0 30 2 30 3 29 5 26 5 26 10 33 12 25 16 19 24 14 25 5 25-4"/>
<path d="M522 8501l-1-1 2 30 4 27 1 32 2 31 1 28 9-23 8-29 10-29 8-25 10-27 10-26 21 17 4 25 4 26 4 27 7 27 12 21"/>
<path d="M823 8446l 2-3 17-17 22-16 25 3 16 24 9 28 10 27 10 25 11 23 14 25 16 22 23 9 23-10"/>
<path d="M1034 8394l-4 2-20 14-28 22-24 25-20 26-17 24-15 24-15 24-15 24-14 24"/>
<path d="M33 8864l-1-1 24-7 29 0 33-1 33-3 26-4 28-5 32-5 35-8 37-7 40-8 43-8 44-8 45-8 44-8 45-6 44-6 44-5 41-4 40-5 38-4 36-5 34-5 32-4 30-4 28-5 27-7 26-5 25-7 33-7 28-5 31-4 26-4 26-1"/>
<path d="M284 8967l-1-1-25 8-17 20-13 27-13 27-8 23-9 29-7 26-2 25 24 11 29-6 28-8 24-8 25-8 23-9 29-11 25-10 27-10"/>
<path d="M356 9035l-2 0-17 21-4 30-2 27-1 29-1 31 1 30 2 28 3 26 4 26"/>
<path d="M506 9113l 0-1 22-13 24-7 28-6 27-7 29-8"/>
<path d="M744 8929l 0-2 24-9 28 5 22 9 22 11 15 20-4 27-11 23-17 27-14 20-16 20-17 18-18 18-18 17-25 25-22 22-18 22-15 23 19 18 28-5 24-5 26-4 24-3 29-1 25 3 25 6"/>
<path d="M912 9087l 0-2 14-21 25-9 24 6 20 18 13 25 9 25 6 26 9 23 11 25 18 18 25 7"/>
<path d="M1128 8977l-4 0-23 10-21 21-17 24-18 31-13 23-13 23-13 24-12 21-15 30-10 27-9 25"/>
<path d="M1156 8340l 0-1 26 10 23 14 21 13 24 18 26 20 19 17 18 17 17 18 16 21 14 22 12 24 11 26 9 30 6 31 4 34 3 35 2 35 0 38-1 39-4 42-5 41-7 41-9 41-9 40-8 38-9 35-8 32-8 30-9 25-9 24-12 27-16 24"/>
<path d="M1594 8682l 0 0"/>
<path d="M3223 8793l 0-1 25-7 30 0 32 3 28 2 29 1 25-1 30-1 24-4 26-7 22-13 13-21"/>
<path d="M9106 11212l-1-3-19-20-24-6-25 9-22 17-16 19-15 23-14 27-11 29-6 31-1 34 4 36 3 27 4 28 6 31 6 32 9 33 10 34 9 33 12 34 12 36 12 36 13 38 14 38 13 38 14 37 14 38 13 36 15 36 12 35 10 33 9 33 6 34 5 34 5 34 3 32 1 32-1 31-1 27-4 25-3 33-5 29-10 28-19 18-30 0-24-6-26-9-26-13-24-14-23-13-25-14-20-14"/>
<path d="M9564 11544l 0-2-4-24-8-25-16-19-26-6-23 10-19 22-15 22-13 26-10 27-7 26 0 28 14 23 24 8 29-12 20-18 20-22 18-28 18-30 10-23 8-24 6-24 5-25 3-26-1-27-2-30-3-32-4-33-4-33-5-31-4-27-7-32-10-25-16 21-2 30 0 35 0 26 2 25 1 27 2 26 1 26 2 25 5 35 5 31 5 29 7 24 13 22 21 17 24 1"/>
<path d="M9688 11434l-1-1 14-20 28-4 25 6 8 23-13 23-15 19-17 23-15 21 20 14 27 7 27 10 22 13 21 16 16 21 11 27 1 26-3 29-8 30-13 28-14 24-16 19-21 14-28 1-25-14-15-26-5-30 0-36 4-25 7-24 14-30 17-25 20-22 25-20 31-18 24-13 24-10 24-10"/>
<path d="M9274 11826l 1-1 25-10 28-7 25-6 29-7 34-8 37-9 39-11 43-10 46-10 47-9 46-8 45-8 43-5 40-5 36-2 33-2 29-1 25 0 33 0 29 0 31 3 25 0 25-3"/>
<path d="M9498 11942l-1 0 24-7 24-6 32-6 34-6 26-4 25-4 26-4 26-5 24-4 33-5 29-4 31-4 24-4"/>
<path d="M9480 11982l-3 0 1 25 7 27 6 24 2 30 0 33-3 26-2 26-2 28-3 28-3 29-2 30-4 27-2 24-2 29-6 26-8 24-20-14-15-24-25-2-2 27"/>
<path d="M9621 12147l-1-1 21-12 31-4 27 0 27 5 21 12 12 23-4 28-11 25-18 28-17 20-19 18-19 16-21 17-9 22 26 3 27-1 28 0 27 6 28 11 25 17 20 16 15 22 13 23 4 27 0 27-4 28-9 28-13 27-17 23-20 22-30 5-26-16-21-23-13-22-11-26-10-30-7-34-4-35-2-34 2-31 3-27 9-24 9-23 12-22 13-22 17-21 19-21"/>
<path d="M10174 11694l 1-1 23-10 27-8 25-7 30-8 26-3"/>
<path d="M10168 11784l-1 0 28-6 26-5 31-6 35-6"/>
<path d="M10795 11127l-4-1-28-8-28 3-24 15-17 17-17 23-11 26-7 24-2 29 3 35 3 26 3 29 4 30 6 31 6 33 7 35 7 34 8 36 7 36 8 35 9 35 11 34 10 32 12 31 13 29 12 29 15 28 13 28 11 26 11 27 9 27 8 28 7 28 6 26 5 28 4 28 2 29-1 30 0 28-1 29-4 26-3 24-9 31-11 23-15 19-23 8-30-3-29-8-27-12-25-12-20-14-18-23-10-24-1-25"/>
<path d="M11219 11590l 0-1 11-22 24-17 24-12 25-6 25 4 14 19-8 28-14 21-15 20-20 24-20 18-22 15 25 3 26 0 27 2 29 8 28 14 19 16 19 20 17 24 14 28 8 31 5 33 0 24-3 26-7 29-8 27-12 28-12 25-14 20-21 25-22 15-30 7-28-12-19-18-15-25-10-35-3-29 2-33 5-34 8-34 11-30 13-29 16-25 17-23 20-20 21-18 21-17 22-13 22-11"/>
<path d="M11402 11372l 0 0 26-1 26-8 26-8"/>
<path d="M11611 11215l 0 0 7 27-1 28 0 24-1 27-1 25-2 26-1 27 3 24"/>
<path d="M11777 11135l-1 0-7 24-6 30-6 28-7 32-7 24-7 26-10 26-10 28-10 28-13 26-11 25-11 22-13 30-11 26"/>
<path d="M11811 11278l 1-1 25-8 25-5 28 0 12 22-16 21-23 22-19 18-20 17-24 19-20 16 17 18 25-3 29-7 27-6 27-5 27-3"/>
<path d="M12244 11560l-4-1-29 2-26 8-22 14-20 19-18 27-11 28 0 25 14 22 22 12 29-1 25-13 19-18 21-25 19-30 10-23 10-23 7-25 5-27 2-29-1-30-1-32-5-33-5-33-7-32-5-28-6-25-9-25-10-23-14 20-6 29-3 24-2 28 0 32 1 35 1 40 3 40 4 40 4 39 6 36 6 34 7 28 8 25 13 30 15 20 22 14 25-5"/>
<path d="M12407 11579l 1-1 19-14 25 0 24 11 9 24-12 24-17 22-18 23-16 20-14 20 18 17 26 13 26 12 20 13 23 19 20 16 20 20 16 23 11 26 5 29-2 24-5 27-8 26-12 22-16 25-19 19-23 9-28-3-29-13-18-19-16-27-9-23-5-25-3-28 1-30 5-30 8-30 12-27 16-25 16-22 17-19 18-19 20-18 20-17 25-15"/>
<path d="M12726 11455l 0-1 28 0 25-2 28-1 25 0"/>
<path d="M12721 11548l-1 0 30-11 27-7 30-6 31-5"/>
<path d="M13155 11488l-1-1 10-24 22-11 26-7 26 2 25 6 15 21-5 30-14 25-17 23-16 18-17 17 12 20 24 7 30 9 23 9 24 8 26 10 26 12 21 15 17 18 17 25 7 29 0 25-7 29-13 32-11 22-11 23-15 22-17 21-18 20-18 19-26 22-26 13-23 5-27-7-20-23-10-27-2-33 3-25 7-27 12-29 15-32 19-35 21-34 21-33 24-33 24-30 23-28 23-24 19-20 26-22 23-13"/>
<path d="M13482 11067l-1 0 3 28 3 25 4 26 3 25 5 24"/>
<path d="M13653 10972l-1-1-11 24-8 25-11 30-9 26-13 29-13 33-10 23-11 25-12 25-12 26-12 25-12 23-14 29-12 22-7 24"/>
<path d="M13675 11114l 1-1 23-7 24 5 21 12 4 26-17 20-20 19-23 17-23 16-21 13-20 14 29 5 26-3 27-4 29-3 26-2 27 5"/>
<path d="M13959 11465l-1 0"/>
<path d="M14176 11261l 0-1 14-20 22-10 25-5 28-3 30 1 26 4 24 6 28 12 20 21 6 26-8 26-15 23-21 26-24 28-18 17-19 18-20 17-21 16-21 17-20 15-20 13-22 17-23 15 25 5 32-4 26-3 27 0 25 2 24 2 28 7 26 11 23 12"/>
<path d="M14579 11322l 0 0 26 5 30 0 26-2"/>
<path d="M14559 11401l-1 0 30-2 30-4 24-3 24-1"/>
<path d="M14935 11228l-1-1-2-26 17-21 23-12 25-4 28 1 32 4 27 6 23 9 24 16 11 24-1 32-9 28-16 31-14 22-16 22-17 23-18 24-21 23-20 24-21 23-23 23-22 22-23 21-22 18-22 17-21 13-27 15-23 10-24 7 30-9 29-9 34-8 24-5 25-4 24-4 24-4 34-4 30-1 27 0 24 2 25 1 24 5"/>
<path d="M15356 11182l-1-1 27 2 26 0 35-2 27-2 30-3 29-5 31-5 28-7 29-7 26-7 27-7 26-8 23-8 30-9 24-7"/>
<path d="M15375 11211l-1 0-7 31-1 30-1 37-2 26-2 30-5 32-5 34-6 36-5 36-2 37-4 35-4 35-4 32-6 29-5 25-9 31-11 25-27-2-15-28-11-27-10-23-13-23-24 9-9 23-2 24 10 25"/>
<path d="M15526 11372l 0-1 26-5 26 0 27 2 25 10 3 27-14 27-22 21-20 15-25 16-22 14-18 18 15 20 26 4 26 0 26 0 27 2 25 5 24 9 24 14 24 18 20 23 16 27 14 31 8 35 3 25 0 26-4 27-5 29-9 30-14 30-17 29-21 28-21 26-22 23-21 18-27 16-25 1-29-17-19-24-14-32-5-26-1-31 4-33 7-33 11-33 15-30 17-25 18-25 21-23 22-22 26-23 29-22 32-22 32-21 32-19 31-18"/>
<path d="M1882 8500l-1-1 29-10 27-2 31-1 35 0 33 3 30 7 24 12 16 19 9 25-1 33-7 24-11 25-17 27-18 26-20 27-22 27-21 28-20 25-17 25-17 22-15 22-14 20-18 26-14 19 23 12 28-7 33-9 24-7 26-7 26-7 25-6 33-7 32-4 25-1 26 1 24 7"/>
<path d="M2352 8451l-1-1 26 0 32-3 31-5 33-8 25-6 24-7 33-10 31-8 28-6 26-3 27-4"/>
<path d="M2353 8490l-1-1 2 25 3 31 0 26 1 30 0 33 0 35 1 35 0 37 2 37 1 38 1 37 0 37-1 36-3 35-2 34-3 29-2 26-5 27-13 22-22-11-15-27-10-25-8-25-9-24-16 22 10 22"/>
<path d="M2480 8688l-1-1 27-6 27 3 24 8 19 15-11 24-19 19-23 21-23 21-19 20-17 19 27 7 26 1 25 3 25 9 29 13 22 15 23 18 20 22 18 25 12 27 5 30 0 34-4 25-6 25-10 26-10 26-13 24-12 22-15 19-21 24-23 15-23 6-32-4-21-13-18-22-14-31-3-24 0-26 8-26 10-25 14-26 13-24 16-23 17-21 17-21 23-21 22-21 25-20 25-20"/>
<path d="M4032 8245l-3-1-27-3-22 10-21 23-14 25-9 23-8 29-7 34-3 26 0 29 1 30 4 32 7 34 9 35 11 37 12 37 13 36 13 38 13 37 13 35 12 34 12 34 10 32 10 30 8 31 7 32 5 34 4 33 3 34 2 32 1 31 0 30-1 28-2 25-4 33-8 25-12 22-22 13-27-2-27-9-25-9-22-13"/>
<path d="M4237 8491l-1-1 8-24 22-19 25-13 23-8 26-5 31 1 30 9 25 15 17 21 9 25-2 25-9 30-8 23-12 23-15 25-15 24-18 25-18 25-19 24-19 22-17 19-20 23-17 20 21-21 24-18 23-14 25-10 27-5 25-1 27 1 26 4 27 7 25 9 22 10"/>
<path d="M4639 8389l-1-1 25-10 27-10 25-7 30-7 33-9 33-9 31-9 26-6 25-3 24-3 25 0"/>
<path d="M4651 8403l-1 0 0 27-1 30 0 29-2 33 0 25-1 27-1 28 0 27-2 27-2 27-1 26-1 25 0 32-1 24-3 24-25-1-18-22-18-19-22 12-5 25 4 25"/>
<path d="M4773 8541l-1-1 26-7 26-1 25-2 27 4 16 18-8 25-15 23-20 22-22 18-20 17-20 15 26 10 26 0 30 5 25 6 24 9 23 10 26 18 20 22 8 31 0 28-3 32-8 34-8 23-9 22-17 30-16 26-16 22-18 16-26 9-24-8-21-22-12-23-8-30-2-25 1-27 4-28 6-26 9-24 10-22 15-28 20-25 22-22 27-20 28-17"/>
<path d="M5192 8509l-1-1"/>
<path d="M9362 13531l-3-2-20-19-22-11-29-3-29 11-24 15-25 23-17 17-20 30-16 31-9 32-2 28 7 29 22 14 26-4 25-13 25-23 17-21 15-24 15-27 13-29 13-31 11-34 9-35 7-38 2-40 1-41-3-45-4-47-3-24-7-47-7-43-7-37-7-30-7-23-8-27-4 33 2 36 2 28 1 32 2 35 2 37 4 38 4 40 4 38 5 39 6 38 6 38 7 35 9 32 9 28 11 22 17 29 17 21 21 18 25 7"/>
<path d="M9047 13840l 0 0 33-4 36-5 32-5 34-7 38-7 40-6 41-7 43-6 42-5 41-4 38-4 36-2 35 0 32 0 30 1 29 2 26 3 33 2 27 3 27 0"/>
<path d="M9199 14141l-1-4-10-25-18-17-27-6-28 5-25 13-17 18-19 24-16 31-10 25-8 25-7 25-4 25 1 32 7 26 15 20 28 4 28-17 23-25 15-23 14-26 14-29 11-29 10-31 8-33 7-34 3-35 0-35-3-35-5-38-6-38-5-36-6-31-5-26-8-26-11-22-9 24-2 28 0 24 1 28 3 31 2 34 4 34 4 33 4 32 5 31 5 31 6 29 6 26 7 24 10 30 10 24 15 21 23 10"/>
<path d="M9290 14063l 0-2 9-23 26-12 25 1 26 12 20 19 15 25 12 29 8 22 12 29 11 26 14 21 18 23 21 14 26-9"/>
<path d="M9541 13984l-4 1-27 15-18 18-21 26-16 21-15 23-15 26-16 27-15 28-14 27-15 27-12 27-11 26-10 33"/>
<path d="M9899 13335l-3 1-19 21-14 23-14 29-9 23-9 28-8 32-8 35-7 37-6 39-4 39-3 41-2 41 0 40 0 40 2 40 2 39 3 38 5 35 6 32 8 28 8 25 13 32 14 27 16 22 16 18 22 15 27 4 27-10"/>
<path d="M10086 13585l 0 0 27-6 23-15 18-18 21-22 17-20 17-21 17-24 17-27 15-27 14-29 11-28 9-30 5-32 3-31 1-31-1-28-4-26-6-29-14-22-21 12-15 20-15 28-11 22-10 24-9 25-5 26-4 28-1 27 1 28 1 28 5 27 5 25 6 24 11 31 12 25 18 23 21 15 25 5 25-4"/>
<path d="M10384 13433l 0 0-4 29-2 25-3 25-2 25 16-24 12-25 12-26 8-23 13-27 17-20 25-3 15 23 9 25 3 25 1 26 1 24 5 26"/>
<path d="M10729 13376l 0-2 14-20 20 15 11 24 8 27 6 25 7 25 8 27 7 23 13 27 16 22 24 1 23-16"/>
<path d="M10912 13365l-1 1-24 20-18 18-18 23-22 27-14 20-14 21-15 21-20 30"/>
<path d="M10123 13768l 0-1 29-2 28-3 38-4 29-3 34-3 38-3 43-4 47-4 24-2 25-2 25-3 25-2 24-3 25-2 24-2 48-5 45-5 40-5 39-5 31-3 31-4 28-1 25-3 35-3 30-4 25-2 27-1"/>
<path d="M10216 13915l-1 0-20 19-16 24-12 23-14 28-14 30-12 32-11 28-8 24-4 24 7 24 26 5 26-2 24-4 25-6 27-6 31-7 28-3 27-3"/>
<path d="M10282 14060l-2 1-15 20-7 25-3 32 0 26-2 27 1 27 0 24"/>
<path d="M10439 14114l 0-1 22-15 29-3 25-1 29-1 24 2"/>
<path d="M10657 13944l 0-1 26-2 29 2 29 5 26 6 22 16 7 28-8 31-15 28-17 28-20 28-24 25-24 24-26 23-21 21-17 19-14 22 27-2 24-10 27-11 28-10 25-9 25-5 28-5 25-4"/>
<path d="M10862 13994l 1-1 25 0 13 20 8 27 7 25 9 28 10 25 12 24 18 18"/>
<path d="M11004 13986l-4 1-24 15-16 18-18 23-17 24-17 25-15 23-13 21"/>
<path d="M11055 13354l 0 0 16 24 15 21 20 25 17 19 17 21 18 22 16 23 16 24 14 25 13 26 12 26 11 26 11 26 8 26 7 25 6 26 4 27 3 27 2 28-1 29-4 30-4 29-7 29-6 30-8 30-7 28-7 28-10 24-13 29-13 23"/>
<path d="M11472 13637l 0-1 24-10 25-3 25 1 28 2 27 2"/>
<path d="M11493 13737l-1-1 25-3 31-5 26-4 28-3 30-4 28-4"/>
<path d="M12620 13111l 0-1-1 27 2 30 2 29 3 35 2 27 2 28 2 29 2 29 3 28 3 25 3 25 5 33 3 27 4 25"/>
<path d="M12042 13729l-1-1 30-10 27-7 33-6 24-2 28-3 34-2 37-3 42-5 48-5 24-4 28-4 27-4 30-5 30-5 32-5 31-5 32-5 32-5 32-5 32-5 31-5 31-5 31-5 31-4 30-4 28-3 28-4 27-3 26-2 24-3 46-4 42-2 37 1 30 2 27 2 30 4 25 4"/>
<path d="M12057 13912l 1-1 8 25-9 23-12 27-14 30-15 31-12 31-11 28-7 27-5 25 2 27 12 23 26 13 25 0 25-4 27-10 27-13 26-15 27-13 23-14 26-16 20-14"/>
<path d="M12167 14030l-1 0-21 16-5 24-2 24-2 28-2 32 1 35 1 35 2 32 3 28 10 29"/>
<path d="M12324 14045l 0 0 24-4 20 15 10 22 10 28 8 24 9 30 8 30 10 26 14 25 14 20 22 17 27-4"/>
<path d="M12497 14055l-3 1-23 13-22 23-18 22-19 24-19 26-17 29-14 26-11 23-7 27"/>
<path d="M12605 14055l 0 0 25-7 25-4 25-4 29-4 26-5"/>
<path d="M12782 13873l 0-1 22-15 26-4 30 3 24 7 22 11 20 18 11 23 1 24-5 24-12 29-18 30-14 20-16 22-18 20-18 20-18 20-16 19-20 26-15 23-14 24 26 8 29-14 26-13 26-15 27-15 29-15 28-14 24-11"/>
<path d="M13014 13972l 0-2 14-22 20-14 18 17 12 22 12 27 10 23 10 24 11 25 12 25 8 27 14 22 25-11"/>
<path d="M13144 13900l 0-1-9 26-10 24-12 27-13 29-15 31-15 31-13 26-12 25"/>
<path d="M13194 13802l-1-1 25 0 25 2 22 13-9 25-18 17-18 18 26 5 25-2 24-3 25-1"/>
<path d="M13558 13639l 0-1 25-8 26-3 31-2 25 0 27-2 27-3 25-2 28-3"/>
<path d="M13667 13577l 0-1 10 23 4 27 2 28 5 28 6 29"/>
<path d="M14119 13929l-1 1 15 21 25-4 23-14 21-18 22-22 23-27 15-20 16-23 16-25 17-28 19-30 19-31 18-32 16-32 15-32 11-34 11-34 7-34 6-32 3-31 2-29 0-24-2-30-6-24-20-13-17 20-15 25-11 22-12 25-12 28-10 30-10 30-8 32-5 32-4 31-3 31-1 29-1 28 2 27 2 26 4 24 8 31 11 24 19 24 23 14 25 9 28-2"/>
<path d="M14492 13687l 0 0 0 28 0 25-1 28-2 30-2 28-4 27 0 25 0-29 4-28 6-23 8-24 9-23 11-23 13-25 18-22 20-15 10 25 0 30-1 29 0 26 1 27 4 25 13 21"/>
<path d="M14875 13577l 1-1 17-18 25-2 16 20 7 28 4 25 3 28 3 29 5 27 4 27 6 23 9 23 15 20 23 10 24-6"/>
<path d="M15048 13559l-2 0-25 14-17 19-14 20-16 24-15 26-17 28-12 21-13 22-16 30-16 29-14 25-15 26"/>
<path d="M15282 13545l-1-1"/>
<path d="M15415 13532l-1 0 26 3 24-3 25-4 28-6 25-6 27-4"/>
<path d="M15894 13217l 0 0-16 21-10 23-9 23-11 30-10 34-7 27-8 28-10 31-8 34-9 33-7 34-6 33-7 33-4 30-4 30-3 27-2 26 0 25 0 24 2 32 4 28 5 28 4 26 7 25 5 24 9 27 11 22 10 23 17 19"/>
<path d="M16002 13389l 0 0-11 24-11 27-10 27-11 28-9 28-11 28-8 27-4 27-2 24 25 11 26-2 26-5 29-5 29-5 27-4 24-4 25-7"/>
<path d="M16065 13468l-1 0-5 26-3 30-2 24-1 26 0 26-2 27-2 27 0 25 0 25 0 25 2 33 4 25 9 24"/>
<path d="M16308 13580l 0 0 26-3 26-1 25-1 29-1 29-1"/>
<path d="M16530 13472l 0 0 17-18 24-11 26-1 28 4 29 7 23 10 21 15 10 25-4 26-18 27-20 23-24 26-18 18-19 18-19 18-19 19-18 18-16 19-23 26-18 24-15 22 17 19 30-6 27-7 26-8 29-9 28-9 32-10 28-9 26-9"/>
<path d="M16776 13577l 1-1 23-13 23 8 17 21 10 27 8 25 11 25 10 24 14 23 18 17 25 0"/>
<path d="M16940 13544l-3 1-20 14-18 20-15 19-16 22-16 23-16 25-17 27-17 29-16 28"/>
<path d="M16968 13290l-1 0 16 26 20 23 21 19 23 21 18 16 19 17 20 19 19 20 18 23 16 23 13 23 11 23 13 33 10 30 8 28 3 26-4 26-13 31-16 32-13 21-16 20-16 20-17 20-16 20-22 27"/>
<path d="M17170 13274l 0-1 24-7 25-4 27-5 30-5"/>
<path d="M17359 13154l 1-1 28-3 27 5 25 12 20 15-2 26-21 17-20 15-19 15-18 18 7 24 28 2 25-1 27 0 26 0"/>
<path d="M17690 13565l-1 0-4 28-8 23 23 9 17-19-1-24-19 17"/>
<path d="M17922 13590l 0-1 23-10 28 0 25-1 28-1 26 1"/>
<path d="M18200 13404l 1-2 25-14 24-5 29 2 23 6 27 12 27 13 20 16 17 24 3 30-10 26-15 21-20 23-26 23-19 16-19 15-19 15-29 20-26 18-22 15-20 16 25 9 32-4 26-3 25-2 26-1 24 0 28 3 27 6 25 11"/>
<path d="M11555 15335l-1-1 17-19 22-10 26-8 27-5 25-3"/>
<path d="M11584 15391l-1-1 22-11 28-9 27-8 28-7 34-7"/>
<path d="M12476 14844l-1-1-2 27-1 25 0 30 3 26 2 27 3 25 2 28 5 26"/>
<path d="M12150 15203l 0-1 29 0 31-1 26-2 29-2 32-3 36-5 37-5 40-7 40-8 44-8 45-9 45-8 45-7 42-7 40-4 39-5 41-4 39-5 38-5 36-4 32-4 31-3 30-3 28-4 26-3 25-3 30-4 25-2 25-3"/>
<path d="M12162 15445l-1-1-14 22-12 22-15 26-17 32-14 23-13 23-13 23-11 21-11 29-3 30 8 28 24 17 31 3 30-6 25-8 27-12 29-15 29-18 25-18 19-17"/>
<path d="M12183 15606l-1 0-5 24 5 25 3 26 4 27 5 27 8 24"/>
<path d="M12327 15574l 0-1 14-24 21-13 26-5 23 9 13 24 9 25 7 27 7 26 9 23 15 20 23 10 24-6 21-19"/>
<path d="M12556 15513l-3 0-25 9-21 18-17 22-17 22-16 24-13 23-14 21-13 26"/>
<path d="M12630 15502l-1-1 28-11 26-2 25-3 27-4"/>
<path d="M12813 15335l-1 0 25-8 26-2 28 1 25 3 24 10 7 25-12 29-15 25-19 26-22 27-16 19-24 26-20 27-17 24-12 21-9 23 23 10 24-6 30-11 26-9 25-11 25-13"/>
<path d="M13067 15384l 0-1 24-2 17 19 13 23 8 25 8 27 9 30 8 27 9 24 15 24 24 13 20-18"/>
<path d="M13203 15358l-2 0-24 5-20 19-17 23-14 19-16 27-13 24-10 24"/>
<path d="M13241 15255l-1-1 25 8 21 12-2 25-19 19-12 21 19 14 28 0 24-4"/>
<path d="M13616 15162l 0 0 24 7 28-5 26-7 26-6 25-6 24-7"/>
<path d="M13688 15079l-1-1-5 25 0 25-1 26 3 26 5 28"/>
<path d="M14184 14738l 0-1 12-22 24-18 27-13 25-6 25-1 26 4 25 8 22 13 20 19 8 24-3 32-13 29-14 22-18 24-19 24-19 23-20 23-21 21-19 20-19 18-23 21-20 17-22 13 25-18 22-8 25-7 28-7 26-4 29-2 25-1 26 1 29 3"/>
<path d="M14529 14969l-1 0 25-11 21-13 24-20 20-20 20-22 21-25 19-28 18-30 12-30 8-30 2-32 0-34-1-34-5-27-12-23-22 10-20 24-13 27-12 31-10 34-5 24-3 25-1 25 0 26 1 26 3 35 7 31 9 27 13 20 22 19 25 10 25 1 24-6"/>
<path d="M14808 14835l-1-1 0 26 4 24 1 25 3 26 9-25 15-25 16-24 13-21 16-19 23 10 6 28-1 26-1 25 1 26 12 22"/>
<path d="M15147 14774l 0-3 19-18 25-5 17 17 8 25 5 27 3 31 5 30 11 25 18 22 25 10 29-9"/>
<path d="M15334 14744l-3 0-23 8-23 17-22 18-22 21-24 25-26 25-21 18-19 18-19 17-19 17-23 24"/>
<path d="M14012 15148l-1-1 25-16 27-6 35-5 25-2 29-1 32 0 37 0 42 0 48 1 27 0 27-1 28 0 30 0 30 0 30 0 32 0 32 0 31 0 34 0 34 0 35 1 37 0 36 1 36 0 36 1 37 1 37 1 36 0 34 1 32 1 32 0 32 0 32 1 30 0 30 0 28 1 29 1 28 0 28 1 25 1 25 1 25 1 45 3 40 4 35 4 33 4 27 3 25 3 28 3 26 2"/>
<path d="M14196 15257l-1 0-18 18-17 26-15 29-13 28-13 33-10 25-10 26-9 28-8 30-7 31-5 32-4 31-1 30 0 27 1 25 4 34 7 30 10 26 12 22 16 23 23 17 26 2"/>
<path d="M14332 15369l-1 1-17 20-11 25-9 26-7 30-5 24-7 24-7 24-7 25-9 26-4 26 20 13 29 0 30-3 24-3 27-4 25-5 23-6 29-7"/>
<path d="M14448 15429l-2 1-12 20-4 28-1 32 3 28 2 29 5 28 4 25 6 28 5 24"/>
<path d="M14682 15502l 0-1 23-13 26-2 25 2 30 0 26-2 27-2"/>
<path d="M14947 15338l-2-1 26-3 30 3 25 6 22 13 13 23-4 26-11 25-13 21-17 21-20 22-23 23-22 24-19 21-17 22-13 20 24 7 26-7 24-5 27-7 30-7 30-8"/>
<path d="M15165 15439l-1 0 23 15 20 19 17 22 12 25 8 29 11 26 14 21 25 11 23-9"/>
<path d="M15333 15435l-3 1-25 10-21 16-19 17-21 21-22 26-20 28-19 27-13 22"/>
<path d="M15329 15264l-1 0 19 20 18 17 22 19 22 23 15 19 11 23 8 23 4 26 2 26-1 27-2 26-5 28-8 27-9 25-16 25-18 20-20 13"/>
<path d="M15507 15241l 0-1 27 5 24 11 20 12-16 21-22 17-19 20-6 24 23 7 25 0"/>
<path d="M5223 8110l-2-1-23 12-7 24-5 26-6 33-3 27-5 30-5 36-4 39-4 43-2 43-3 44-2 45 1 44 3 46 4 43 5 45 5 44 7 43 8 40 8 38 9 34 9 31 8 27 10 26 10 24 14 30 13 23 14 22 17 20 23 8"/>
<path d="M5719 8046l-1-1 4 26 6 31 4 25 3 24 4 25 4 31 2 30-1 24"/>
<path d="M5366 8476l-1 0 29-3 33-6 29-7 31-8 34-7 39-9 41-9 44-9 46-8 46-9 24-5 46-9 46-7 44-8 42-8 41-8 37-7 36-7 33-5 29-7 27-5 34-9 29-7 30-5 24-3"/>
<path d="M5394 8636l-1-1-15 24-10 22-10 24-12 25-12 27-10 25-6 24 2 25 28 4 23-5 29-11 25-11 23-11 24-12 21-13"/>
<path d="M5444 8733l-1 0-15 21-3 27 0 25 0 26 2 26 2 25 7 29"/>
<path d="M5545 8716l 0-1 10-25 21-13 25 5 18 20 12 21 9 29 5 27 3 29 3 28 3 29 6 25"/>
<path d="M5712 8687l-2 1-22 14-20 24-15 21-14 24-13 25-13 25-10 22-9 25"/>
<path d="M5769 8676l 0-1 23-12 23-6 26-6 25-6"/>
<path d="M5919 8546l 0-1 17-20 27-5 26 4 25 12 19 21 9 23-4 31-8 26-14 28-16 28-17 29-20 28-18 27-18 23-14 19-15 21 26 5 25-5 26-5 24-4 26-4 25-2"/>
<path d="M6091 8663l-1-1 27 2 17 20 13 25 10 22 9 22 9 24 13 21"/>
<path d="M6218 8623l-2 0-22 14-15 21-13 21-16 24-16 26-12 25-10 25"/>
<path d="M6214 8538l 0-1 25 1 24 7-6 24-13 21-13 21 19 16 28-5 26-8"/>
<path d="M6379 8356l-1-1 27 0 25-6 27-8 27-10"/>
<path d="M6445 8283l 0-1 5 27 6 27 4 29 8 29"/>
<path d="M6641 7994l 0-2 17-19 26-4 28 4 26 12 20 17 13 23-1 30-9 22-14 27-19 29-14 20-23 27-22 23-20 18-22 18-19 15 24-9 24-9 25-7 26-4 29-2 29 0"/>
<path d="M6829 8244l-1 0 22-21 23-20 16-20 16-22 16-24 14-26 13-24 10-23 10-23 4-31-4-32-7-30-14-23-24-2-20 20-10 25-10 29-6 25-4 27 0 29 1 30 3 30 6 27 8 23 13 24 22 15"/>
<path d="M7006 8128l 0 0-9 24 2 27 3 26 17-18 11-23 12-21 15-21 21 12 3 24 1 25 12 21"/>
<path d="M7231 8057l-1-1 15 22 16 24 13 21 11 22 17 22"/>
<path d="M7329 8078l-3 1-24 13-19 15-20 18-20 22-21 21-20 22-21 22"/>
<path d="M6624 8398l 0-1 26-2 25-1 34-3 36-4 28-3 30-5 34-5 36-5 35-5 36-5 34-4 35-4 32-4 30-3 30-3 28-2 26-2 34-3 30 0 27 2 30 4 28 4 24 5 24 5"/>
<path d="M6688 8543l-1-1-10 27-8 23-7 26-9 25-8 23-3 27 8 24 25 5 27-7 22-10 24-11 23-12 22-13"/>
<path d="M6761 8610l-1 0-6 26 2 26 1 24 3 27 6 26"/>
<path d="M6898 8643l-1-1 27-4 29-7"/>
<path d="M7051 8529l-1-1 24-13 24 5 24 10 20 15 6 25-9 25-14 20-18 20-20 20-21 18-20 16-19 16-20 16 18 19 27-7 30-9 23-8 27-8 25-8 26-10"/>
<path d="M7219 8611l 1 0 23 16 22 18 19 18 18 19 18 17"/>
<path d="M7312 8587l-1 1-22 18-16 24-15 23-17 25-14 20"/>
<path d="M6571 8542l-1 1-15 26-11 27-7 29-6 31-2 26 1 27 5 26 7 23 14 21 19 17"/>
<path d="M7310 8503l 0-1 23 8 21 13 15 19 14 27 9 26 7 27 0 27-4 28-10 24-14 26"/>
<path d="M7420 8437l 0-1 23 9 12 21-19 20-18 16 22 12 27-3"/>
<path d="M7376 8028l 0 0 23 16 28 17 27 16 31 19 22 16 22 17 21 19 20 19 20 21 16 21 14 23 13 25 9 27 8 28 6 30 3 30 1 32-1 34-3 34-6 35-7 35-10 35-13 34-12 32-13 29-13 28-12 25-11 24-17 30-13 25"/>
<path d="M7879 8477l-1-2-18-19-27 7-23 19-19 20-14 22-9 24 13 23 24-8 22-17 17-20 18-24 16-27 14-30 8-33 1-36-4-25-4-28-6-30-9-32-8-33-9-31-7-27-6-24-5-24-1 31 5 33 3 25 4 28 5 31 6 34 5 36 8 36 5 35 5 34 5 31 5 26 5 24 8 27 13 28 17 17"/>
<path d="M8031 8403l 0-1 24 1 9 27 6 25 6 29 6 30 9 25 13 27 13 20"/>
<path d="M8170 8393l-3-1-20 15-12 21-13 25-13 29-16 31-15 31-14 33-12 30-11 29"/>
<path d="M2924 10753l-4-3-18-16-24-12-27 5-22 18-12 28-6 30-1 24 1 28 4 32 7 33 8 34 12 37 13 36 14 37 16 38 15 39 17 39 18 39 18 38 20 37 18 38 18 40 17 40 16 40 15 41 13 41 11 41 10 42 9 42 7 41 5 39 4 38 3 35 0 34-1 31-4 27-6 34-10 26-17 23-27 8-26-1-28-7-28-10-24-13-23-14-17-17-13-21-6-28 0-31"/>
<path d="M3356 11120l 0 1 18-22 11-24 10-29 12-33 10-26 10-28 10-31 11-34 11-34 8-35 7-35 3-35 0-33-3-31-4-27-7-24-9-28-14-23-28 0-13 23-10 32-6 29-6 35-3 38-3 41 0 42 1 40 2 41 4 39 5 36 7 33 7 30 9 26 9 22 16 25 17 19 22 14 27-5 26-18"/>
</svg>
