<svg xmlns="http://www.w3.org/2000/svg" viewBox="385 -3849 17560 4344" stroke="black" stroke-width="20" stroke-linecap="round" stroke-linejoin="round" fill="none" data-xena="0 0 0"><style>@media(prefers-color-scheme:dark){svg{background-color:black;stroke:white;}}</style>
<path d="M4935 -681l 4 8-4-1 17 0-4 1 8-4-5 3 7-5-5 4-7 6-7 7-7 7 8-9-8 9-9 11-9 11-11 12-11 13-12 15-12 16 6-7-11 15-10 16-8 15 4-8-7 15-5 13-4 13 2-9-2 11-1 9 1 9 2 8-2-9 3 7 6 6 7 5 9 5 10 5-8-3 11 4 12 2 13 1 13 1 13 0 14-1 15-1 14-1 16-1 16-2 18-1 17-2 17-1 17-1 16 1 16 1 15 2 15 3 14 2 13 3 11 4 8 3 10 5 8 7 7 7 5 8 4 8 3 9 2 9 2 11 0 13-2 14-2 8-4 15-5 16-7 17-8 19-9 19-4 8-10 19-12 19-12 18-5 7-13 18-14 17-9 9-15 16-16 14-15 13-14 12-7 5-15 10-14 9-8 4-15 6-14 5-14 4-9 2-14 2-14 2-15 0-16-2-8-2-16-3-16-4-15-6-16-8-15-9-14-11-14-12-14-12-14-12-4-8 1-8 4-8"/>
<path d="M3062 -99l 5-1-9 1 6-2 4-1 9-2 5 0 5-1 5 1 6 0 6 1 7 2 8 2 8 2 8 1 9 3 9 2 9 4 9 2 10 2 9 1 8 0 8 0 8-1 8-1 8-1-9 2 6-2 6-2-8 3 5-2 4-2-7 4 5-3-7 5 4-4 4-5 4-4 3-3-6 7 3-4 3-5 3-4 2-3 6-7 3-3 3-3 4-3 6-6 4-3 4-3 5-3 5-3 5-3 5-3 8-5 5-3 6-3-8 4 6-3 7-5 7-3 6-4 7-3 6-3 6-3 7-3 5-4 9-3"/>
<path d="M3124 61l 5-1 5-1 6 0 6 1 7 1 7 1 7 0 8 1 7 0 8 0 8 0 8-1-9 1 9-1 9-3 8-2 8-2 8-3 7-2-8 3 6-3-7 4 6-4 6-4 6-4 5-4 6-4 5-4 6-4 6-3 7-5 6-3 5-3 5-2 5-3 9-3 5-1 8-2 6-1 5 0 6 0 6 1 7 2 7 2 7 3 9 2 10 2 10 3 11 2 12 2 12 2 8 3"/>
<path d="M9046 -3218l-3-3-2-5-3-4-4-8-1-5-1-5 1-9 4-8 2-3 5-7 5-7 7-6 8-4 8-4 5-1 9-1 6 0 7 2 7 3 8 3 9 5 9 6 10 8 9 8 9 10 9 11 9 11 9 12 9 14 9 14 9 16 8 17 8 18 8 19 8 20 9 19 8 19 9 20 10 19 8 18 7 18 7 16 8 16 7 14 6 14 7 12 6 11 5 10 5 9 4 8 4 7"/>
<path d="M9489 -3378l-2 8-3 10-3 11 2-8-3 13-3 14-3 16-4 18-4 20-4 21-5 22-6 26-6 29-8 33-9 36-1 7-10 37 1-5-8 38-7 37-7 38-6 39-6 41-7 42-6 43-6 41-7 40-6 39-6 37-5 37-5 36-4 34-5 32-4 29-3 27-4 24-3 22-2 20-1 17 0 13 0 12-1 11-1 10-1 7-2 9-1 3-4 8-6 7-9 9-7 5-8 4"/>
<path d="M9586 -2866l 7-2 8-1 8 0 7 0 9 0 9-1 11 0 11 0 12 0 14-1 13-1"/>
<path d="M9563 -2666l 6-4 8-4 8-3 10-4 11-3 12-4 14-4 19-6 22-6 22-7 21-8 9-2"/>
<path d="M10190 -3290l-6 0 9 1-7 0-7 1 9-2-7 2-7 3 8-4-8 5-7 5 7-5-8 6 9-9-8 9-7 10-9 11-9 12-9 11 5-7-9 13-8 13 5-8-7 15-6 16-6 18 3-8-5 22-3 27-3 30-2 30 1 29 2 27 3 28 4 28 5 28 4 29 5 29 6 28 6 29 8 30-2-6 8 29 8 27 8 26 9 24 10 23 9 21 8 21 8 20 7 19 2 7 6 20 6 23 4 23 4 21 3 19 3 18 2 16 1 15 0 14-2 14-3 9-3 13-4 11-5 7"/>
<path d="M9932 -2795l 4-4 7-6 6-5 10-6 7-5 12-6 13-7 14-6 8-3 16-6 17-5 19-4 20-4 20-4 9-1 21-3 22-3 21-4-9 2 20-4 21-5 21-5 22-4 22-5"/>
<path d="M10401 -2343l 8-9-2 4 5-7-2 5 4-8-2 5-3 6-2 5-3 7-2 8-2 9 2-9-2 9-1 10-1 11 0 14 0 15 1 13 3 12-3-9 4 11 4 11 6 10 6 9 7 7 8 7 10 4-8-3 10 4 11 2 12 0 11-2-9 2 13-4 13-5-9 3 13-5 13-7-7 4 12-8 12-10-7 6 11-11 10-12-6 7 10-13-5 8 8-14 6-13-3 8 5-12 3-12 1-12-1 9 0-12-2-11-4-12-5-11 3 7-6-11-8-10-9-10-11-8-11-7-12-4-12-3 9 2-12-1-13 0-13 2 9-2-12 3-12 4-12 5 8-4-11 6-9 6 7-5-10 7"/>
<path d="M10385 -2290l 6-1 7-2-9 2 7-2 10-1 11-2 13-3 15-3 18-6 20-8-8 4 19-10 17-9 17-10-7 5 16-11 17-12 16-12"/>
<path d="M10921 -3344l-6 5-6 6 9-9-7 7-8 10 6-7-8 11-9 13-10 15-11 18-13 22-14 24 4-7-12 25-11 24-8 23-8 24-9 28-10 31-10 33-10 33-10 34 2-5-8 37-6 40-4 42-3 40-1 37 2 35 2 32 4 30 5 27 6 26-1-5 6 23 8 21 10 21 10 19 11 17 11 17 13 17 14 16 14 13 13 11 14 9 14 7 2 9"/>
<path d="M11025 -3201l 9 5 10 7 10 9 8 10 7 8 7 9 8 10 9 12 10 13 11 14 11 16 13 16 13 20 13 22 12 19 12 17 11 15 10 15 9 14 9 14 7 14 7 14 8 13 7 14 7 14 6 13 6 11 5 9 5 8 4 6"/>
<path d="M11240 -3129l-6 3 15-9-6 4 9-9-5 7 5-8-6 9-6 8-5 8-7 9 5-7-8 12-10 13-10 16-11 18-11 19-12 21-13 21-13 21-13 21-13 23-13 23-13 23-13 23-11 21 4-7-10 20-7 17-6 15-2 11 2-9-2 9-2 9"/>
<path d="M11227 -3535l 7 6 8 7 8 7 10 8 12 10 14 10 14 11 14 9 14 10 18 11 19 13 21 15 21 16 20 16 21 18 20 18 20 20 22 23 19 22 17 21 13 21 11 22 8 19 7 18 2 7 5 19 4 20 1 22 1 23-1 24-2 24-3 24-6 25-3 9-10 28-13 30-4 6-14 28-15 26-17 25-18 25-4 5-19 25"/>
<path d="M11867 -2958l-7-3 7-1-17 5 5-4 6-3 7-3 9-4 8-3 9-3 11-3 12-4 12-4 14-5 16-5 18-5 18-5 19-5 21-5 21-4 21-6 21-7 20-7 9-2 8 4"/>
<path d="M11970 -3119l 3 7 3 8 3 10 3 11 4 12 2 8 4 13 3 14 3 15 3 16 2 17 2 16 3 17 2 16 3 17 4 15"/>
<path d="M12651 -3206l-4-8 4 8-5-6-5-5-6-3-6-1 8 1-6 0-6 2 9-2-6 2-6 1-6 3 8-4-7 3-7 4-8 5-8 6-8 5-10 7-9 6 7-5-10 8-10 7-11 9-7 5-12 8-12 8 8-5-11 8-10 10-11 10-11 12 9-9-11 12-12 14-11 15 5-7-10 15-10 15-9 15 5-8-8 15-6 15-5 14-4 12 2-8-2 11-1 10 1 10 1 8-2-8 3 8 5 7 7 6 9 7 9 5-8-3 11 3 11 3 11 1 10 1 11-1 11-1-9 1 10-1 9-3 10-2 9-3 9-2 8-3 8-3 8-3 8-2 7-3 8-2-8 3 8-3 8-4 7-4 8-3 7-4 6-3-7 4 6-4 6-5 5-4 6-4 5-4-7 6 3-4-14 22 2-4-1 8-1-4 4 8-3-3-5-1 9 1-6 1-7 1 9-2-8 2-8 3 8-3-7 3-7 4-7 4-6 4-7 4-7 4-7 5 7-5-7 5-6 6-7 6-7 8 9-9-7 8-8 9-9 10-9 9-9 9-9 9-9 9 9-9-8 9-8 9-8 9-7 8-6 8 5-7-5 8 4-8-4 8-3 8-2 8-3 9 3-9-2 9-1 10 0 9 0 9 2 8-2-8 2 8 4 8 4 7 5 8 7 7 7 6 9 6 9 5 10 5 10 4-8-3 11 4 10 3 10 1 10 1 10 0 12-1 14-1 14-2 14-3-9 2 13-3 12-3 13-3 12-3 12-3 12-4 11-3 12-5-8 3 12-5 12-5 11-6 9-5-7 4 8-5"/>
<path d="M13154 -2721l 3 8 2 10 2 12 0 13-2 15-3 15-3 17-3 8-5 18-7 17-9 18-4 8-11 19-12 21"/>
<path d="M14008 -3198l-7-2-7-1 9 1-8 1-8 1-9 2 8-2-9 3-10 4 8-4-10 5-10 6-10 7-10 7 7-5-10 7-10 8-9 8-8 9 9-9-8 8-6 7-6 7-5 6 5-7-4 6-4 7-4 6 4-8-3 6-2 6-1 5 2-8-1 4 1 5-3-9 2 4 4 4 4 3-8-3 6 2 7 1 8-1 9 0 11-2-9 2 11-3 12-2 12-3 12-3 13-4 13-3 14-3 12-2 8-2 10-1 8-1 3-1 7 3 3 8-3 9-4 8-5 7-9 9-7 6-8 3-2 1-6 2-8 2-9 3-9 3-9 3 8-4-8 5-9 5-9 5-10 7-11 6-11 8 8-5-11 9-11 10-10 11 8-9-10 12-11 13-11 13-11 12-10 11-9 9-7 9 5-7-6 9-6 9-6 9-5 9-5 9 4-8-4 9-3 8 3-9-2 8-1 7 1 7 2 7-3-8 3 7 3 7 5 6 6 6 6 6 8 5 9 5-7-3 9 3 10 3 12 1 13 0 17-1 18-2 18-3-9 2 19-4 19-6 20-6 22-7 22-7 24-6 23-7 24-5 22-6 21-7 19-7-7 3 16-8 15-7 12-6"/>
<path d="M14387 -3172l 5 5 6 4 7 3 6 3-7-3 8 2 9 1 9 0 10 0 11 0 11-1-9 1 12-2 12-4 11-4 12-4 11-4-8 3 10-4 9-5 9-5 8-4 8-4 7-4-7 4 6-4 5-3 5-4 5-3 7-5 5-2 9-3 8-2 6-1 6 1 7 3 6 3 6 3 7 3 7 3-7-3 8 3 8 2 8 2 10 1 9 1 10 0 11 1 10 2 12 3 12 3 13 2 13 2 14 2 15 2 15 1 16 1 8 3 2 9"/>
<path d="M15251 -3369l-5 8-6 12 4-8-6 14-6 17-7 18-8 19-9 20-10 20-10 21-10 21-4 7-12 23 4-8-12 24-14 26-3 7-15 27-15 28-15 29 3-6-14 28-13 27-12 26-9 22-7 20-5 16 2-6-3 13 1 10-2-7 3 6 6 1-16-1 8-2-8 3 10-6-7 4 13-10-7 6 14-14-5 7 15-20 17-24-5 7 17-28 16-32 14-33-2 5 12-34 9-34 8-32 6-32 4-31 4-31 3-30 0 5 2-29 1-25-1-20-1-16-2-12-3-10-2-6 3 8-2-1 50-34-2 6 2-9-2 12-2 16-2 19 0 21 0 23 2 24 3 25 4 26 4 26 5 29 5 30 7 30 7 30-1-6 9 29 10 28 11 26 13 23 14 20 16 17 16 15 17 11 18 9-6-2 16 5 17 4 17 1 19-2 18-4-9 2 19-6-9 3 18-8-8 5 18-11 17-14-7 6 16-17-5 7 15-20-5 7 14-22 13-25 11-27-3 7 11-28 8-30 5-32 4-33 4-33-1 5 2-34 0-33-2-31-2-29-4-25-6-21-8-18 3 6-8-13-8-10-7-9-6-7-6-6-5-5-5-4-4-3-3-3-4-8 1-8 3-8 5-8 6-6 7-6"/>
<path d="M15928 -3677l 9 1-6 1 8-2-5 2 8-4-6 3 8-5-6 4 9-10-5 6 6-7-5 7 4-7-4 10-6 13-6 16-7 19-8 19-7 20-7 22-9 23-10 24-11 27-14 32-14 34-15 38-14 38-11 39-10 37 1-4-8 36-7 36-5 38-4 39-2 39-1 38 2 35 2 32 4 31 5 29 5 25 7 23-1-4 7 19 8 14 10 13 9 14 8 15 9 16 9 15 9 14 10 11 10 10 11 8 11 6-7-3 12 5 8 3"/>
<path d="M16193 -3219l-8-5-8-3 9 1-10 2 17-6-10 5 8-5-10 7-8 8 9-9-8 9 5-7-7 10-7 12-7 12 5-8-6 13-4 15 2-9-4 16-2 18-1 19 0 19 2 19 2 19 4 19 5 19-2-8 7 18 8 17 9 15 9 12 9 10 11 9 11 8 11 7-8-3 12 4 13 2 14 1 16-1 16-3-9 2 16-4 17-7-9 4 17-8 17-9-8 5 16-10 15-11-6 6 13-14-6 7 11-15-5 7 9-15 7-17-3 8 4-17 2-17-1 9 0-18-3-18-5-19-7-18 4 8-10-19-11-19-11-18-13-18-14-17-15-14-16-13-16-10-15-8-15-5-14-2 8 1-13-1-12 2 9-2-12 3 8-3-10 5-9 6 7-5-9 8 9-9-8 10 5-7-7 11 4-8-7 14-6 15-6 19 2-9-5 22-3 26-3 28-2 7-4 8"/>
<path d="M16632 -2867l-1 9-1 10 0 8-1 9-2 11-2 9-3 13-5 14-6 16-6 17-7 19-8 20-8 20-6 20-5 8"/>
<path d="M16881 -3095l-7 8 8-9-7 9-8 11 5-7-8 10-7 11 5-7-6 10-3 11 2-9-2 10 0 9 2 9-2-8 3 9 4 8 5 6 5 6 7 4 7 2-8-3 7 2 9-1 8-1-9 1 9-2 9-3-8 3 9-4 9-5-7 4 9-6 8-6 9-5 9-6 8-7-7 6 7-7-6 7 6-8 5-7-5 7 4-6-3 8 2-6 1-7-1 9-1-7 0-7-2-7-3-8-3-8 4 8-5-7-5-6-5-5-6-4-5-3-5-2-5-1-5-1 9 1-6 0-6-1-5 0-9-2-1 0-4-8 1-8 4-8 4-8 6-6 7-6 7-5 9-3 3-1 7-2 7-3 7-3 7-2 7-2 7-2 9-1 9-2 10-1 11-2-9 2 11-2 11-2 9-2 12-2 13-2 14-2 14-2 14-2 14-3 13-2 14-3 13-2"/>
<path d="M17298 -3409l 8-1 7 1 8 1 8 3 7 3 8 3 8 4 6 4 6 5 5 6 4 6 2 6 3 8 1 6-1 7-2 8-2 6-4 8-3 4-5 8-9 9-4 3-4 4-5 5-5 5-5 4-5 5-5 5 9-9-4 4 10-15-3 5 3-8-1 5-2-9 3 6 7 4 9 3-8-3 10 3 9 3 10 1 10 1 11 1 11 0 13 0 14-2 15-2-9 1 16-3 16-4 15-4 14-6-8 4 13-6"/>
<path d="M17509 -3560l 9 3 10 5 9 5 11 7 11 7 12 9 12 10 12 11 14 13 14 14 14 17 15 18 14 19 15 19 13 19 12 19 12 21 11 21 10 20 10 19 8 19 7 19 6 18 2 9 5 19 2 20-1 22-2 23-4 22-2 8-7 23-9 22-11 23-12 24-4 7-14 23-15 21-4 6-16 21-16 20-17 20-16 19-16 18-14 16-12 13-12 13-7 8"/>
<path d="M5958 -308l 4-5 4-4 6-5 4-4 8-4 8-3 4-2 9-1 4 0 7 4 3 2 2 5 3 9 1 7-1 9-1 11-2 13-3 14-2 9-4 15-4 16-5 16-5 15-5 16-5 15-4 15-4 14-4 13-2 11 2-9-3 10-1 8 0 6-2-9 1 4-7-3 4 0-9 2 5-3-16 8 7-4 7-6-7 6 8-8 7-8 9-10-6 7 8-10 9-11 8-10 8-9 7-10 6-8 6-8 4-7 4-6 3-4 6-7 6-6 2-1 8-5 8-3 9-1 8 3 0 2 3 8 0 4 0 6-1 6 0 6 0 7 0 6 0 6 1 7 2 5-2-8 2 5 3 5 3 5 4 3 4 3-8-3 5 2 5 0 6 0-8 2 7-2 8-2-8 3 9-4 9-5-8 4 10-6 9-8 9-8-6 6 9-9 9-10 8-10-5 7 8-11 8-11 8-12-5 7 8-12 6-11 6-12 4-10-3 8 4-10 4-10 3-8 2-7 2-4 0-2 49-9-1 2 4-8-2 4-2 7-3 8-3 9-3 9-2 9-3 10-2 10-3 9 3-9-3 9-1 8-1 8-1 6 1 4-3-8 2 2-8-3 3 0-24 9 4-3-7 6 5-5-6 7 5-7 6-8-5 7 6-10 6-10 6-11 7-12 5-7 7-12 8-11 7-11 8-10 8-10 5-6 8-9 6-6 7-6 6-5 6-4 7-4 9-4 5-1 8-2 5 1 8 3 3 2 4 5 2 6 2 8 1 8 1 8 0 10 0 9-1 10 0 10-1 10 0 9 0 9 0 9 0 8 1 7 2 6-2-8 2 5 3 4 5 3 5 2-7-3 6 1 7 0 8-1-8 2 9-3 10-3-9 3 11-5 13-6 12-7 14-7-8 4 14-8 14-9 13-10 13-10 13-10 11-9 11-10-7 6 10-9 9-9 8-8 7-8 7-8-6 7 6-7 5-7-5 8 4-7 3-6-4 8 2-5 2-5 1-4-1 8 0-3-1-4 4 8-2-3-3-1 9 2-4 0 8-2-4 2 7-4-5 4 7-5-6 4-6 5-7 7-8 8 9-9-9 9-9 11-10 12-10 13 5-7-10 15-10 17-9 18 4-8-9 18-8 20-6 19 2-9-5 19-2 18-1 17 2 15 3 14-3-8 5 11 6 10 8 7 8 6-8-4 10 3 10 1 11-2-9 2 11-4-16 7 11-7 11-9-7 5 12-12-6 6 12-15 12-18-5 8 13-21 14-23 13-25 14-26 13-28 12-29-2 6 12-31 10-32 8-33 6-33 4-34-1 5 3-34 1-35 0-34-1-33-2-33-3-32-3-30-4-28-5-24-6-22-6-18-6-15 3 6-7-11-6-8-6-6-5-3-5-1 26-4-5 3 16-15-5 6 5-7-5 10 4-8-5 13-5 15 2-9-5 19-3 21-4 24-3 27-2 29-3 31-1 32-1 33 1 33 2 32 3 31 4 29 5 27 6 26 6 25 7 23 7 23-2-5 8 20 8 19 8 17 9 16 9 14 9 12 9 11 9 9 8 9 7 7 8 6 7 4-7-3 7 3 7 1 8 1 7-1-9 1 7-2-9 4 7-3-8 4 7-4 6-6-7 6 6-6-6 7 5-8-5 8 5-9 4-8 5-9 3-9-3 8 3-8 3-8 3-7 1-7 1-5 2-4 3-8 5-7 6-7 2-2 7-6 7-4 9-4 8-1 4-1 4 1 4 1 5 1 5 0 6 0 7 0-9 1 6-1 7-2-9 3 7-3 6-3-8 4 7-4 6-4 6-5 6-5-7 6 6-5 6-6 5-5-6 6 4-5 4-5 4-6-5 8 2-5 2-4-3 8 2-5 0-3-1 8 0-3 4 7-2-3-3-2-3-3-5-1-5-1 9 1-6 0-5 1 8-2-6 2-7 2-7 4 7-4-8 4-8 6-9 6 7-5-9 6-9 7-9 8-8 9 9-9-8 9 5-7-7 11-6 11 4-8-6 12-4 13 3-8-3 13-1 14 1 14 2 13 3 12-2-8 4 12 6 11 7 9 8 8 8 7 9 6 9 4-7-3 9 3 11 1 10-1-8 2 11-3 12-4-8 3 13-6 13-8-8 5 14-9 15-10 7-4 9-3"/>
<path d="M7104 -391l 6 0 8 0 8 0 9 0 10 1 10 0 9 0 8 0 8 0 8 1 8 0 6 0 4 1 8 3 3 2 2 4 2 8-2 9-2 5-3 7-4 8-4 7-5 7-6 7-6 8-9 9-8 8-9 9-10 9-9 10 9-9-10 11-9 11-9 12 5-7-8 12-7 11-6 11 4-8-5 11-5 10-3 10 3-9-2 9-1 9 1 8-2-9 2 8 3 6 4 6 7 5 8 4-7-3 10 3 11 1 13-1 16-1-9 1 16-4 17-6-8 3 17-7"/>
<path d="M8124 -369l 6-6 8-4 8-3 3-2 9-1 4 0 8 3 5 2 5 3 5 5 5 4 5 6 4 6 3 7 2 9 3 8 2 10 1 11 0 12 0 14-1 14-1 16-1 16-2 16-2 16-3 16-3 16-3 16-3 9-4 15-5 14-5 12-5 11-5 8-5 10-6 10-5 7-5 8-4 5-9 9-7 5-3 2-8 4-8 2-9-1-1-2-4-8 1-6 0-9 3-9 4-13 5-15 6-17 8-19 3-8 9-20 9-21 10-21 9-21 10-21 10-20 9-19 9-17 8-16 9-15 8-13 4-8 8-11 7-10 6-7 7-8 7-7 6-6 7-6 6-4 8-5 5-2 9-4 5-1 9-2 5-1 5 1 8 3 5 2 4 3 4 5 2 6 3 8 1 7 1 9 0 9-1 11-3 12-2 13-4 15-3 16-3 17-2 17-3 17-2 17-2 16-2 15 0 13 0 12 1 10 1 10 2 7-2-8 4 6 5 3-8-3 7 1 8-1-9 2 10-3-8 3 11-5-8 4 13-7 14-10 15-12 15-13-7 6 16-15 16-15 16-16 14-16 13-15 13-14 11-13-6 6 10-12 8-11 7-10 5-9-4 7 4-7 3-7-3 8 1-5 0 9-1-3 13 10-3-1 8-1-4 1 8-3-5 3 7-5-5 4-5 5 9-9-5 5-4 6 5-7-4 6-4 7-4 8 4-8-4 9-3 8-3 9-3 9 3-8-2 9-1 9 1 8-2-8 2 8 4 7 4 6 5 6 5 4 7 4-8-3 7 2 7 1 7 0 7-1-8 2 6-2-8 3 6-3-7 4 6-4 7-5-7 6 6-6 6-7-6 7 6-7 5-8-5 7 4-8 4-8-3 8 3-8 3-8 1-9 1-8-1 9 0-8-1-7-1-7-2-6-2-6 4 8-3-5-3-5-3-4-4-4-4-3-4-1 17 0-3 1 33-34-1 3 0-17 1 4 3 2-8-3 6-1-9 2 6-3-8 3 7-3 8-4"/>
<path d="M8742 -448l 4-1 5-1 4-1 5-1 4 0 5 0 5 0 5 1 5 0 4 2 5 1 5 2 8 3 5 2 4 3 4 4 3 5 3 5 2 6 2 8 2 6 1 6 1 6 0 7-1 7-1 7-2 8-1 7-3 6-3 7-4 7-4 7-5 7-5 6-5 7-6 7-7 8-7 9-8 9-8 11 5-7-8 12-8 12-8 13-7 13-7 13-7 12-6 12 4-8-5 11-3 9-3 9 2-9-1 8 1 6-2-9 3 5 5 2-8-3 6 0-9 2 7-2 9-3-9 4 10-4 10-6 12-6 12-7 13-7 14-8-8 4 14-8 14-9 15-10 14-10 13-10 13-11 12-10-7 6 11-11 11-10 10-9 10-9 9-9 9-10 7-9-5 7 7-8 6-9 6-7 5-7 4-7-5 8 4-6 2-5-4 8 2-4-1 9-1-2 13 9-2 0 16-5-3 1 8-5-4 3-3 3-4 3 9-9-3 4 5-7-2 4 4-8-2 4-2 6-1 5 2-9-1 6-1 6-1 6 0 7-1 7 0 8-1 8 0 8-1 8 0 7-1 8-1 6-1 6 0 5-2-8 1 3-8-3 3 0-25 9 4-3-7 6 5-4 5-6-6 7 6-7 5-7 6-7 6-7 6-7 6-7 6-6 5-6 6-6 6-5 6-5 5-4 5-3 4-3 8-5 4-2 9-3 8-1 5-1 3 2 8 3 3 3 3 4 2 4 2 9 1 5 1 5 0 5 0 4 0 5 1 4-2-8 2 4 3 2-8-3 4 2 5 0-9 1 5-1 6-2-8 3 7-3 8-3 8-5 8-4-7 4 8-5 9-6 8-5 8-6 8-5 7-5 7-5 8-4 6-4 6-4 6-3 5-2 8-3 5-2 4-1 9-2 4 0 4 1 7 3 4 2 3 3 3 4 3 4 3 4 3 4 3 3 4 3 4 3 5 2-8-3 6 2 6 1 7 1 7 1 7 0 8 0 8-1 9-1-9 2 9-2 10-3 9-3 10-3 10-4-8 3 10-4 10-5 10-5 9-5-8 4 10-6 9-5 8-6 9-5 7-6 8-5 7-6-7 6 6-6 6-6 5-7-5 7 4-6 5-6 3-5 3-5-4 7 2-4-3 8 1-5-1 9 1-5-1-3 4 8-3-3-3-1 8 1-4 0-5 1 8-2-6 1-6 2-7 4 8-4-7 4 7-5-7 6-8 6-7 6-7 7-8 7-7 8 9-10-7 8-6 8-6 8 5-7-5 8-5 8-5 8 5-8-4 7-3 7-1 7 2-9-1 6 1 5-2-8 2 4 3 4 5 3-8-3 6 1 6 1 6 0 7-1-9 1 8-2 8-2 8-3 9-4-8 4 8-4 9-4 8-5 8-4-8 4 7-4 7-5 7-6-7 6 6-5 5-6-6 7 4-5-5 7 3-5 3-5 2-3 4-8 1-1 6-7 7-6 7-4 9-3 9-2 7 3 3 8 0 2 0 4 0 5 1 6 1 5-2-8 2 4 3 4 4 4 4 3 5 3-8-3 6 2 7 2 6 1 7 1 7-1 6 0-9 1 7-1 7-2-8 3 7-3 8-5-8 5 9-6 9-7 10-8 11-10-7 6 12-11 13-12 13-14 14-16 15-16 16-18-6 6 16-19 17-20 16-21 15-21 15-22-4 6 14-22 14-24 12-25-3 6 11-26 10-28 8-28 6-28 5-27 4-26 3-25-1 6 1-23 0-20-1-17-3-14-3-12-4-11-4-8 4 7-5-7-5-5-7-4-7-1 9 1-8 1 8-2-9 2-11 4 8-3-11 6 7-5-11 9-12 12 8-9-12 14-13 17 5-7-13 19-14 22-14 24-14 27 4-7-15 30-14 32-12 34-11 35 1-5-9 36-6 36-4 35-1 34 1 33 2 30 3 28 5 26-1-4 7 23 9 22 10 18 11 17 13 14 14 12 15 10 16 8 16 6-8-3 16 4 16 3 16 1 16-1 16-2"/>
<path d="M10634 -452l 7 0 9-2-9 2 11-2 12-4 13-4-8 3 14-6 15-7 17-8 17-8 18-8 18-9 17-9 15-9-7 5 14-9 12-9 11-8 9-8-7 6 7-7-6 7 5-7-4 8 3-6-3 8 1-5-1 9 0-5 4 8-2-4-5-2-7-1 8 1-9 0-11 1-13 2-15 3 9-2-15 5-16 6-16 6 8-3-16 7-15 9-14 9-14 10 7-6-12 10-10 10 8-9-9 10 5-7-7 11-7 11 5-8-5 11-3 11 2-9-1 10 1 10 2 10-3-8 4 9 5 9 6 8 7 8 8 6 10 5 10 5-7-3 11 3 13 2 14 0 15-1 16-2-9 2 17-4 17-5 16-6-8 3 16-7 16-9-8 5 15-10 15-11 14-12-7 6 14-13 14-12 12-13 12-12 12-11 10-11 9-10 9-10 7-8-5 6 6-7 5-7 4-6-5 7 3-5-4 8 2-4-1 9-1-3 4 8-2-1 9 1-3 1 8-2-4 1-5 2 8-4-4 2 7-5-2 2 18-24-1 3 0-17 1 3 3 3 5 2-8-3 5 2 6 1 5 0 5 1 5 0 4 0 5 0 5 0 4 1 8 3 4 1 3 3 2 4 2 8 1 5-1 6-1 7-2 9-2 7-3 7-3 7-4 8-4 7-4 6-4 7-4 7-3 6-4 6-4 6-3 6 5-8-2 5 2-9 0 4-3-8 2 3 4 3-8-3 5 1 7 1 8-1 9-1 11-1-9 1 13-2 13-4 14-4 15-5 15-6-8 3 15-6 14-7 15-7 14-8 14-8-8 4 13-8 14-9 13-9 13-10 12-10-7 6 11-10 9-10 9-10-6 6 8-9 6-9 6-9-5 7 5-8 3-7-3 8 2-6 1-6-1 9-1-5 4 8-2-4-4-4-4-2-5-2 9 2-5-1-5 1 9-2-5 1-4 2 8-4-4 3 7-6-4 3 14-16-1 3 6-16 0 3-2-8 3 3 4 3-7-4 6 2 7 2 8 1 9 1 9 0 9 0 10 0 9 0 9 0 10 1 9 0 8 1 8 1 7 1 6 2 8 3 5 2 3 3 2 3 3 9 0 4 0 4-3 9-2 5-4 8-3 6-4 6-4 7-6 7-5 8-7 8-6 8-8 9-7 8-7 9-7 9-6 9 5-8-6 9-5 8-4 8 4-8-3 8-2 6 3-9-1 6 1 5-2-9 2 5 4 3 5 2-8-3 6 1 8 0 9-1-9 2 10-2 12-3 13-3 14-5 15-5-9 3 16-7 16-7 15-8 15-8-8 4 14-8 13-8 12-8 11-9 10-8 10-8 8-7-7 6 7-7 6-6 5-5-6 7 3-4-8 16 0-1 20 16-2 1 14-9-4 3-5 4 9-9-5 6-5 6 5-7-5 7-4 8 4-8-3 8-3 8 2-9-2 9 0 8-1 9 1 8 2 7-3-8 3 6 3 7 4 5 5 5 6 5 6 4 7 3-8-3 7 2 8 1 8 1 8-1-9 1 8-1 9-3 8-3-8 3 8-4 9-5-8 5 8-5 8-6 7-5-7 5 7-6 6-6-6 6 5-6-5 7 4-7 4-7-4 8 3-7 1-7 1-8-1 9 0-8-1-7-2-8-3-7 4 7-4-7-5-7-5-6-6-6-6-5-6-5-6-4-5-3-5-3-4-2-3-2-2-3-4-8 0-2 1-9 3-8 5-7 2-3 5-7 7-5 4-3 7-4 5-2 9-3 6-2 6-2 7-1 7-2 9-1 8-1 8-1 8-1 8-2 9-1 9-1 9-1 9-2 10-1 10-1 9-2 8-1-9 1 8-1 8-2 7-1 7-2 9-1 8-1 7-1 6-1 6 0 6 1 5 0 5 1 5 2 5 2 5 1 4 2 5 2 8 3 4 2 5 2 5 2 6 3 5 3 5 3 4 3 4 4 3 4 2 8 1 5 0 5-3 9-2 5-4 8-3 6-4 6-4 8-5 7-5 8-5 8-5 8-6 8-5 7-6 7-6 8-5 7 5-7-5 7-4 6-3 5 5-8-3 5 3-9-1 5 0 4-3-9 2 4 2 3 4 3 4 3-8-4 5 2 5 1 6 0 6 0 7 0 8-1-9 1 9-1 9-3 10-3 11-4 12-5-8 3 12-5 13-6 9-3 8-1 8 3"/>
<path d="M798 -2725l-5 7 2-4-3 8 0-4 1-3 1-3 1-4 4-8 2-4 5-7 6-7 6-6 4-2 7-5 9-3 4-1 8-2 5 1 7 3 5 3 4 4 3 7 3 8 2 9 2 10 0 13-1 15-1 17-2 19-4 20-6 23-2 9-7 24-9 26-11 29-12 32-14 33-13 34-12 35-11 35-10 35-10 33-10 32-9 31-8 29 1-4-6 27-5 25-2 21 0 17 2 14 2 11 2 11 2 8-2-9 2 6 5 4-8-3 6 1 8 0-9 1 8-3-8 3 9-4 11-5 11-6 13-6 14-7 15-7 16-7 16-8 16-7 15-7 16-7 14-6 13-7 13-5 8-3 13-5 12-5 11-4 12-3 11-3 12-2 8-1 11-2 10-1 10 0 8 0 9 1 8 2 8 3"/>
<path d="M1423 -2973l-6 8 5-7-6 11-8 13-8 15 4-8-9 19-11 24-14 31-15 35-16 38-13 42 1-5-12 42-9 42-9 45-8 53-7 57-6 53-4 48-2 44-1 44-1 41 0 38 2 36 3 34 5 31 6 29-1-5 8 25 11 21 13 18 14 14 17 11 18 7-7-3 19 4 20 0 21 0"/>
<path d="M1666 -2637l 8-2-6 3-7 2-7 3 8-3-7 4 7-5-7 7 9-9-6 8 5-7-7 10-7 11 4-7-6 14-5 17 2-9-5 19-4 22-3 25-4 28-3 30-3 30 0 29 1 27 2 24 4 24 6 22-2-7 8 21 9 17 12 14 12 11 14 9-8-3 16 6 17 2 19-1-9 2 20-4 21-7-9 4 22-10 23-12-8 5 22-16-7 6 21-18 20-21-5 6 17-21 16-23-4 7 12-23-3 7 10-23 6-22 5-21 2-18-1 7 0-16-4-16-6-16 4 7-11-18-17-24-22-29-22-29-19-25-19-19-20-14-22-11-23-11-20-8-13-5-10-3"/>
<path d="M1843 -2993l 0-16 3 3 7 5 9 6 12 8 13 7 12 7 12 6 13 6 15 9 19 14 23 19 22 21 22 18 22 18 22 18 19 16 17 15 17 18 19 22 17 23 14 21 13 20 12 20 11 22 9 23 7 25 2 6 6 26 4 28 1 30-1 33-4 35-6 37-9 35-1 5-10 34-12 33-15 32-2 4-16 32-17 30-17 29-18 27-18 25-3 4-17 24-21 23-5 5-26 23-26 21-4 3-4 2"/>
<path d="M1617 -2420l 4-2 8-4 7-2 8-3 10-4 12-4 16-5 18-6 16-4 16-5 18-5 23-5 29-5 9-2 27-4-7 1 22-4 20-6 22-6"/>
<path d="M2472 -2223l 5-3 7-2 7-1 9-2 9-1-9 2 9-3 11-2 9-1 12-2 13-2 14 0 14-2 13-2 13-1"/>
<path d="M2607 -2129l 8 0 10 0 12-1 13-1-9 1 17-3 19-5 9-2"/>
<path d="M3359 -2754l 5-2 6-2 9-1 7-1 8-1 9-2 11-1 13-2 14-2 15-2 17-3 19-2 20-3-9 2 21-4 23-5 22-5 17-4 15-4 15-4 15-4 15-4 16-3 17-4 9-1 17-3 14-2 13-1 11-1 9-2 8-1 8-1 5 2 8 3 3 5 2 8 0 7-2 8-2 8-4 7-4 8-4 7-4 8-5 8-6 8-5 7-7 9-6 8-7 8-9 9-7 7-7 7 9-9-6 8-6 7 5-7-6 9-6 9-6 9-6 9-5 7-5 6-4 5 5-7"/>
<path d="M3275 -2604l 6-4 7-4 8-3 7-3 9-3 9-1 9-2 8 0 8-1 8 1 10 1 14 2 15 3 15 4 13 3 11 2 12 3 12 4 12 3 12 4 11 4 8 3 10 5 11 4 10 5 9 5 8 5 6 5 4 4 3 4 2 8 1 4-1 5-2 9-3 6-4 8-4 7-6 9-5 8-8 10-11 13-14 16-18 19-19 20-20 21-21 21-7 8-22 23-24 26 6-7-25 28-23 26-18 24 3-4-15 21-13 20-13 20-14 19-4 6-14 19-14 18-12 17 4-6-10 16-9 13-7 13-5 11 4-8-4 11 2-9-2 9 0 7 1 7-2-9 3 6 5 5 8 4-8-3 10 2 12 2 14 1 17 1 17 0 19 0 19-1 20-1 22-2 25-1 27-1 30 0 29-1 28-1 27-2 26-4 25-4 24-4 24-4 23-4 23-5-7 1 22-5 22-6 23-6 24-7 24-7 24-8 22-8 21-9-8 3 18-8 15-8 13-8-8 5 10-7 9-7-7 6 6-6-5 7 4-7-4 8 3-7-4 8 2-7-1 9-1-8-2-10-5-9 4 7-6-9-8-10-9-8-8-7-7-6-8-5-8-6-8-5"/>
<path d="M3129 -1559l 5-7-3 6 4-7-2 8 2-8-3 10-2 12-2 13-1 14-1 14-1 15 1 14 1 14 2 15 2 14 2 14 4 14-2-8 4 12 5 11 5 9 6 8 6 6 7 6 7 3-8-3 7 1 7-1-9 1 8-1"/>
<path d="M3120 -1709l-3 4-3 4 5-7-2 4 7-17 0 4-3-8 3 4 4 2-8-3 5 2 8 3 2 8"/>
<path d="M3292 -1646l 6-6 3-2 8-5 4-3 6-3-8 5 7-4 7-5 8-4 10-5 9-4 9-3 10-4-8 3 11-5 8-3 12-5 12-4"/>
<path d="M3300 -1519l 6-6 4-3 4-3 4-4 5-4 8-5 8-6 8-5 11-6 11-6 13-6 16-7 17-8 19-8 8-3 20-8 21-8-9 3 21-9 20-9"/>
<path d="M3789 -1825l 2 5 1 6 1 7 1 8 0 10 0 13 0 15 0 16 0 18 1 18 0 20 0 21-1 20 0 21 0 21 1 20 2 20 1 18 2 17 2 15 3 13 2 13 2 11 3 9-3-8 2 7 4 5 4 4 4 2"/>
<path d="M3343 -3239l 1 8-1 9-1 11-2 15-4 19-3 21-5 21-5 20-2 9-5 18-4 17 2-8-5 18-5 21-5 21-4 18-4 16-2 12-2 9-2 9-1 2-5 8-5 7-9 9-7 5-8 4-8 2-9-2-4-7 1-8 1-16 1-9 2-21 3-23 2-25 3-25 3-25-1 8 3-25 2-23 0-21 1-17 0-14-1-14-1-13 0-10 0-8 0-5 1-9 3-8 1-1 4-7 6-7 7-6 8-5 8-3 9-1 7 3 2 3 3 8 4 10 4 12 5 13 6 15 7 16 7 17 9 18 10 18 12 17 13 17 15 16 15 13 16 12 16 10 17 8-8-3 16 6 16 3 14 0-9 2 15-3 15-6-8 4 14-8-8 5 12-10-7 6 11-12-6 7 10-16-4 7 9-18-3 8 7-20 6-19 3-19 2-18-1 9 1-16-1-14-2-14-3-14-5-17-6-18-6-18-7-17"/>
<path d="M4190 -2121l 7 0 6-1 7-1-9 1 7-1 7-2-9 3 7-3 7-4-7 5 7-6-7 6 7-7-6 7 8-10 8-11 9-13 10-15-5 8 10-17 5-7 11-18 13-20-5 7 15-23 15-25 17-28 18-33 19-37-3 6 17-37 13-31 9-31 7-34 6-32 3-28-1 5 1-26-1-27-2-28-3-31-4-33-4-37-4-35-4-31-5-26-6-20-5-17-6-12 3 6-6-9-6-6-4-5-5-2 9 1-6 1 24-10-7 4 9-9-7 8 5-7-6 12 4-8-6 14-5 18 2-9-4 21-5 25-6 28-6 30-6 32-5 29-3 28-1 29-2 32-1 35 0 41 2 45 2 45 3 41 4 32 5 26 6 21-1-5 6 21 2 5 6 21-1-6 7 19 9 18 10 16 11 14 11 13 13 12 12 10 13 8 14 6-8-3 14 3 15 2 15-2-8 2 16-4 16-5"/>
<path d="M4646 -2335l-3-2-3-2-5-1 9 1-5 1 8-2-6 2-6 3 8-4-5 3 7-5-6 5 9-9-6 7 5-7-6 8-5 9-5 9-6 9 4-8-5 10-5 14-5 15-3 13 2-8-2 9-1 7 0 7 2 6-3-8 3 5 5 5 6 4-8-3 8 3 10 2 10 0 11-2-9 2 11-2 10-3 11-3 10-4-8 3 10-4 10-5-8 5 8-6 7-5-6 6 5-6-6 6 5-5 3-5-5 8 2-5-3 8 1-7-1 9-1-9-4-9 3 8-7-10-9-10-7-8-6-8-5-6-3-6-3-5-3-7-1-4 1-9 2-4 3-8 5-8 3-4"/>
<path d="M4981 -2483l-3 8 0-4 1-3-1 8 0-3-1-3 4 8-2-3-3-3-4-2-6-2 9 2-7-1-7 0-7 1 8-2-7 3 8-4-8 4 8-5-8 6-7 7 8-9-8 9-8 10-10 13 6-8-11 16-11 18-10 19 4-8-9 19-7 17-5 17-5 16 3-9-3 15-1 15 1 12 2 11-3-8 4 9 4 7 7 5 8 4-8-3 9 3 9 1 10 0-9 1 11-2 12-4-8 3 11-5 9-5-7 4 8-5 8-6 7-6-7 6 6-6 5-5-5 6 4-6-5 8 3-6 3-6 3-5-4 8 2-4 1-3-1 8 0-1 54-25-1 2-1 6 2-9-2 9-1 11 0 11 0 11 2 11 3 12-2-8 3 13 5 13 5 14 7 15 6 15 8 16 7 16 8 17 8 17 7 18 7 19 6 19 2 9 5 19 3 21 2 21 0 21-2 21-3 21-5 20-2 9-6 21-7 21-9 20-4 8-11 19-11 19-12 16-5 7-12 15-9 10-12 13-13 11-7 5-13 8-8 4-14 6-14 3-8 2-15 1-17-3-9-1-17-4-19-7-18-8-18-9-18-12-17-12-16-14-16-15-15-15-15-20-14-24-3-7-13-28-10-30 1-7 2-7 4-6 5-5"/>
<path d="M5537 -2813l 3 5 3 7 3 9 3 8 2 12 3 13 3 18 3 23 2 28 2 27 2 22 3 19 3 20 2 21 2 22 2 24 1 23 1 24 1 24 0 26-1 24-2 24-4 24-5 24-5 24-2 7-6 22-7 21-7 19-6 18-7 16-6 15-5 8-6 13-7 10-5 9-6 7-5 6-4 5-9 9"/>
<path d="M5418 -2888l 4-5 5-6 7-7 7-5 7-7 8-6 9-6 10-7 8-4 10-6 11-6 11-6 13-6 8-3 14-5 16-5 17-4 18-4 9-1 17-3 17-1 17 0 17 1 17 3 17 5 17 5 8 3 16 7 14 7 15 8 13 10 14 10 12 11 11 11 8 12 6 11 5 11 2 8 2 12 0 13-2 14-2 8-5 15-7 16-4 8-8 16-11 17-14 20-5 7-18 21-18 20-16 17-8 8-14 14-15 14-15 14-17 16-17 15-16 13-14 10-7 5-12 9-11 8-9 7-8 5-7 4-8 4"/>
<path d="M5844 -2433l 5 1 4 2 4 4 3 4 3 5 4 5 3 6 4 6 3 7 3 8 3 9 2 9 3 9 1 10 1 11 1 12 1 13 1 13-1 11-1 11-2 10-2 9-2 9-2 9-3 7-2 7-2 7-3 5-4 8-6 7-3 4-9 9-7 5-8 4-4 1-8 2-9-1-4-1-3-4-4-8-2-5-2-6-2-8 0-10 0-12 1-14 1-8 1-15 2-16 2-17 2-17 3-17 3-17 5-16 6-16 5-16 5-14 5-14 5-13 3-8 5-11 6-10 5-9 5-8 6-9 5-7 6-7 5-4 6-6 4-3 8-5 4-2 8-3 5-2 9-1 5-1 6 0 7 1 7 1 7 1 8 2 8 2 9 3 10 3 12 4 13 3"/>
<path d="M6075 -2045l-4 1 15-8-3 3 14-16-4 6-4 7 4-8-3 7-3 9 3-8-2 10-2 11-2 11-2 11-1 12-1 12 0 12 2 12 1 11 3 10-3-9 3 9 4 9 4 8 5 7 5 6 6 5 6 3-8-3 7 2 8 2 9 0 10-1-9 1 10-2 11-4-8 3 11-5 12-6-8 4 13-7 11-9 11-8-7 6 10-9-6 7 7-9-4 7 5-9 5-10-4 8 4-8 3-8 2-8 1-8-1 9 0-9-1-7-3-8 4 8-4-8-5-8-5-8-7-8-6-7-7-7-8-7-8-6-9-5-8-4-9-3-8-2 8 1-8 0-9 0-8 2 9-2-7 3 8-4-7 4-8 4-8 2-9-2"/>
<path d="M6076 -2017l-9 1 5-1 5-2 9-1 6-1 6-1 7 0 8-1-9 1 8-2 10-2 9-1 11-1 12-2 12-1-9 2 13-3 14-5 14-5 14-5-9 3 14-7 14-8 8-3"/>
<path d="M6703 -3093l 2 8-2 8-4 8-5 7-3 3-4 6-6 7-6 8-8 10 6-7-8 12 4-8-7 16-8 18-9 19-8 19-9 21-9 22-10 23-10 25-10 27-11 29-12 30-11 32-10 34-10 34-9 34 1-5-7 34-5 33-5 34-3 33-1 32 0 31 1 29 3 27 5 25-1-4 7 22 8 19 8 18 9 15 10 13 11 11 11 9 11 8 10 8 10 5-7-3 10 3 11 1 12 1"/>
<path d="M6742 -2621l 1 6 0 8 0 9 0 11-1 13-1 13-2 15-2 15-2 16-1 16-2 17 0 17 0 18 1 17 1 14 2 11-2-8 2 7 3 5 4 4 5 3-8-4 6 2 5 0-8 1 6-3-16 8 8-5 9-7-7 5 10-9 11-12-6 7 11-14 11-15-5 7 11-18 11-19 10-17 7-15-4 8 5-13 3-12 3-12 1-11-1 9 1-11 0-10-1-9 0-8-1-7-1-4 4 7-2-2 25-4-3 1 16-14-3 4 10-15-3 6-2 8 2-9-1 9-1 10-1 10 0 11 0 13 1 15 0 16 2 18 1 19 3 20 3 21 3 22 4 24 4 24 3 25 4 24 3 24 5 22 4 23 4 21 5 22 4 21 4 21 4 21 4 21 3 19 2 19 3 18 1 18 1 18-1 18-1 17-2 18-4 16-2 9-5 16-5 14-5 8-7 14-8 12-5 7-9 12-9 9-10 10-11 9-7 5-12 7-8 4-13 6-14 4-8 2-14 3-15 1-16 0-15-2-9-2-15-4-16-6-15-7-15-9-13-11-12-12-11-12-10-14-9-12-8-13-4-8-6-14-5-14-4-16-2-15 0-17 1-17 1-9 3-19 3-19 4-8 5-8 5-7 7-5"/>
<path d="M7036 -2482l 0 8-1 8-1 9-1 9 0 10 0 9 0 10 1 10 1 11 2 13 1 13 1 9 1 7 1 6-2-9 1 6 2 4 2 5 3 3 4 2-8-3 5 0-9 2 7-2 7-3 9-1"/>
<path d="M6997 -2645l"/>
<path d="M7051 -3163l 5 6 5 5 7 6 8 8 9 9 11 12 14 13 15 14 16 15 17 16 17 18 17 18 17 19 16 18 16 17 15 18 15 18 14 19 13 20 12 19 11 20 11 21 9 21 10 21 8 22 8 21 6 22 2 7 6 22 4 21 2 21 2 21 0 22-1 23-4 28-6 31-2 7-8 30 2-6-6 25-5 21-5 22-1 7-8 23-8 24-9 23-9 23-9 22-9 21-10 20-3 6-9 18-8 16-8 15-7 14-5 6-9 12-8 8-9 10"/>
<path d="M600 -1112l 2 6 1 9 1 10 1 13 0 14 1 16 0 17 0 19-1 20-1 21-1 23-1 24-1 26-1 26-2 27-2 25-1 23-2 23-2 22-2 20-1 17 0 14-1 11-1 8-1 6-2 8-4 8"/>
<path d="M545 -1139l 1-6 0-6 1-6 2-7 2-6 4-8 3-6 3-6 5-8 4-6 5-7 6-7 5-6 6-7 7-6 7-6 8-6 10-6 9-6 8-5 10-6 11-5 9-3 12-4 14-4 13-4 13-2 9-1 13-2 12 0 11 2 11 3 7 3 10 4 8 5 7 6 6 5 3 7 3 8 2 9 0 10-1 11-2 12-2 9-4 13-5 15-6 15-7 15-8 17-4 8-9 17-10 17-10 17-11 17-10 15-10 15-10 14-6 8-8 9"/>
<path d="M964 -1227l-4 3-5 4-5 3-6 4 7-5-6 6-7 6-7 7-7 8 9-10-8 9-7 9-7 9-7 9-7 10 5-7-6 9-5 10 4-8-4 9-4 8-3 8-2 7 3-9-1 6 1 7-2-9 1 6 3 4 4 4 6 2-8-3 7 1 7 0 7-2-9 2 8-3-8 3 8-4 8-4-8 4 8-4 8-5 8-5 7-6 6-5 6-5 5-5 5-3 8-4 5-2 8-4 9-1 4 0 8 3 2 4 2 5 3 8 1 6 1 6 1 5-3-8 2 5 3 3 4 2-8-3 6 0-9 2 5-1-9 3 5-3-7 5 5-4 6-5 6-5 7-6-6 6 7-8 8-8-6 7 8-10 8-11"/>
<path d="M1124 -1285l-3-27 3 0 5 0 6 0 7-2-9 2 8-2 8-3 9-3 10-2 9-3 10-3 10-3 9-3 9-4 8-3 8-2 6-1 5-2 9-1 5 0 7 3 4 2 2 9 1 4 0 7-3 8-1 7-3 7-5 8-4 7-4 7-6 9-6 9-7 9-7 10-6 10-6 10 4-8-5 11-4 11-3 10 2-8-2 9-1 9 0 7-2-8 2 6 3 5 5 4 6 3-8-3 9 1 10-1-9 2 11-3-8 4 11-5-7 4 11-7 12-8 8-4 8-4 9-1"/>
<path d="M1388 -1285l-4-1-5-1 8 2-5 0-6 0 8-2-6 2-6 2 8-4-6 3-6 4-6 4 7-5-6 5-5 6-6 6 9-9-6 6-5 6-6 7 5-7-4 7-5 7-4 8 4-8-4 7-2 8-2 6 2-9-1 6 0 5-2-8 1 4 4 4 5 2-8-3 7 1 7 0-9 2 7-2-8 3 7-3 9-5-8 5 9-6 9-7 10-7 10-7 10-7 9-6 8-6 8-5 6-5 6-4 4-3 8-4 8-4 3 0 9-2 8 3 1 2 3 8-1 4-2 8-1 5-2 4-1 4-2 4-1 5 2-9 0 4-2-8 1 4 3 4 4 2-7-3 5 2 5 0 6 0-8 1 6-1 7-3 7-2-9 3 8-3 7-4 7-4-8 5 6-4 7-5 6-4 6-5 6-4-7 5 5-4 4-4 4-4 2-3 7-5 8-5 8-3 2-1 9-1 7 3 1 2 2 8 0 4 0 5 0 5 1 5-2-8 1 4 3 4 3 3 4 2-7-3 4 1 5 1 4 0 5 0 5 0 5-1-9 2 5-2 5-1 5-1 5-2 5-1 4-2-8 3 4-1 5-2 8-3 4-2 5-1 4-1 5-1 5-2 4-1 5-1 5-1 6-1 6-1 6-2 7-2 8-2 7-2 9-2 8-3 8-3 8-3-9 3 8-3 8-3 9-3 7-4 8-2 7-2 7-2 7-2 7-1 6-2 5-2-8 3 5-2 4-2-8 5 3-3-21 28 1-3 3 17-2-3-4-4-5-2-6-2-5-2-4-2-3-1 17 0-1 0 33-50 2 2 3 4 5 4 6 5 7 5 6 5 7 3 6 4 6 3 6 4 6 3 7 4 6 3 6 4 5 4 6 3 5 4 5 3 4 4 3 4 2 5 2 8 0 4-2 9-1 4-4 8-6 7-2 3-9 10-4 3-7 5-5 3-8 4-6 3-7 2-7 2-7 2-7 1-6 2-7 2-6 1-6 2-5 1-5 1-2 1 33-33 0 1-8-20 3 1 5 1 8 0 7 0 9-1 9-1 10-1-9 1 11-2 10-2 11-3 11-2 11-3 11-2 11-3 12-4 12-3 12-3 13-3 9-2 7 3 3 9-3 8-4 8-5 7-9 10-7 5-8 4-12 3"/>
<path d="M1724 -225l 4-5 5-6 7-5 6-6 6-5 8-5 8-5 9-5 10-4 8-3 11-4 12-2 9-2 12-1 11-1 11 1 10 1 9 3 8 3 8 3 8 4 6 7 6 8 6 10 4 13 3 8 3 15 3 19 2 22 1 24-1 28-2 30-3 32-4 33-4 36-5 36-6 37-5 36-6 34-5 31-5 28-3 24-3 20 0 16-1 13 0 10 0 7 1 1-56 26 1-5 3-12 4-18 5-23 7-29 9-33 10-35 11-38 9-39 9-38 7-36 7-37 7-35 7-35 8-34 9-33 10-32 9-30 11-28 10-25 1-4 11-23 10-20 10-16 3-5 9-15 9-11 5-6 5-5 10-10 10-6 8-5 8-3 10-3 9-1 10 1 8 3 10 5 10 9 9 12 9 15 8 19 7 23 2 8 5 27 3 29 0 33-1 35-2 36-4 37-3 37-4 37-5 36-6 37-7 35-8 33-8 31-1 5-7 28 1-5-5 25-4 20-2 16-1 12-1 8-1 5-3 8-4 8-5 7-8 9-2 2-7 5-8 4-8 2-9-2-4-7-1-5 0-11 1-19 1-9 3-28 7-34 8-37 8-37 9-35 9-35 9-34 9-35 10-35 11-34 11-34 11-32 12-31 12-28 2-4 12-26 11-24 10-21 9-19 9-16 3-5 8-13 5-6 9-10 6-5 9-6 7-5 8-3 9-3 9-1 9 1 8 3 8 4 7 8 6 10 6 12 4 16 3 8 4 18 3 21 2 24 0 25 0 26 0 26-2 27-2 28-3 28-4 28-3 28-3 27-2 27-1 26-1 24 0 22 1 20 2 18 4 17 5 14-2-7 6 12 6 10 7 7 8 5-7-3 8 3 9 0 9-1 7 3 3 8"/>
<path d="M2647 -495l 6 7 6 9 5 12 5 14 5 16 2 8 4 19 4 20 2 22 1 25 1 27-1 28-2 30-2 30-2 31-3 31-4 31-5 32-4 32-4 31-5 31-4 30-3 30-3 28-2 26-1 24-1 22 2 19 3 16-2-6 4 12 4 12 2 8 3 10-2-8 4 10 4 9 4 7 6 5 7 4-8-3 8 2 9 2 11 1 13 0 12-1 14-1 14-1 14-1 15-3-9 2 15-3 15-4 14-3 15-3 14-4 14-5-9 3 14-6 12-7 12-6 11-5 10-5 10-5 9-5 8-4 9-3 8-3 7-3 7-2 9-1 7-1 6-1 6 0 8 3 2 9"/>
<path d="M3752 -425l 5 4 4 5 4 7 4 9 4 11 3 12 3 8 4 15 4 17 3 18 2 20 0 22 0 24 0 27-2 29-3 31-4 33-4 36-5 42-6 44-6 41-4 38-5 35-6 33-6 28-4 23-3 19 0 13 0 10-2 7-2 9-4 8-5 7"/>
<path d="M3670 -400l 5-9 6-8 6-7 6-7 7-8 8-9 8-8 7-6 9-8 10-7 11-7 8-5 12-6 13-7 14-6 8-4 15-5 15-5 15-5 15-4 15-4 13-2 9-2 13-2 12-1 12-1 12 1 10 1 10 2 9 3 8 4 8 4 7 6 6 8 4 10 2 8 3 13 2 15-1 16-2 18-4 21-2 8-7 24-12 29-20 38-3 7-26 39-27 38-24 32-2 4-22 27-21 23-4 5-19 20-18 18-14 15 5-6-12 14-6 7-12 12-10 9-7 5-9 7-6 4 7-5-2 2 10-44 4 0 7-1 10 0 14 0 17 0 19 2 19 3 18 4 17 3 16 3 15 4 14 4 14 5 7 3 14 6 14 7 13 8 13 8 12 9 11 9 11 10 10 11 10 12 8 12 9 14 7 13 8 13 7 13 6 14 6 13 5 13 4 13 3 8 3 12 3 11 2 10 3 9 1 7 2 6-2 9-5 8-5 7"/>
<path d="M4406 -523l-3-3-4-3-5-2-4-2-6-2 9 2-7-1-8 0-10 0-10 2-11 2 9-2-12 4-12 5 8-4-13 7-12 8 7-5-12 9-11 10-12 11-12 12-12 13 9-9-11 13-11 14 5-7-10 14-8 13-7 13 5-8-6 12-3 10 2-9-2 10 0 9 2 8-2-9 4 7 5 6 6 4-7-3 8 2 9 2 10 0 11-1 12-1 14-2 14-2 16-2 17-3 18-3 19-1 19-1 19 0 20-1 20-1 21-1 19 0 19 1 17 1 16 2 14 2 13 2 11 3 11 4 8 3 9 5 8 6 6 7 5 8 4 9 3 9 3 11 1 13 0 14-2 17-4 18-5 20-2 9-6 21-8 23-10 25-12 25-4 7-15 25-4 6-17 22-18 21-7 7-19 18-19 16-21 15-5 4-21 13-20 12-6 2-21 10-19 8-19 5-19 5-7 1-18 4-16 1-15-1-8-1-13-4-11-5-10-8-9-9-7-11-4-8-5-12-3-13-1-14 1-15 0-9 4-8"/>
</svg>
