<svg xmlns="http://www.w3.org/2000/svg" viewBox="231 2786 14778 32602" stroke="black" stroke-width="16" stroke-linecap="round" stroke-linejoin="round" fill="none" data-xena="0 -9 0"><style>@media(prefers-color-scheme:dark){svg{background-color:black;stroke:white;}}</style>
<path d="M1414 10180l-5 2-22 18-18 25-13 27-13 32-7 23-7 25-4 27-4 28-2 31 0 32 1 36 2 36 3 36 3 35 5 34 6 32 7 30 8 28 8 26 15 28 19 18 23 14 29 7 24-7 23-17 17-19 15-23 8-27 4-26-5-29-15-25-21-18-26-10-31-4-28 1-23 7-24 8-22 13"/>
<path d="M2440 10319l-2-1-8 28-4 25-5 29-3 30-3 31-4 31-2 33-5 32-3 33-4 29 1 29 0 31"/>
<path d="M2733 10332l-3-3-17-18-22-14-26-6-25 8-21 13-20 17-18 17-12 23-6 25 1 24 21 19 26-3 27-13 19-15 20-14 23-19 20-18-14 24-6 32 0 26-1 28 1 27 2 28 2 27 3 30 6 25 5 24"/>
<path d="M3589 10286l-1 2-5 25-4 28 0 29 2 27-3 28-3 32-3 36-3 25-3 24-5 25-5 35-3 32-3 24"/>
<path d="M3905 10313l-2-7-5-26-11-24-23-16-25-5-26 2-24 7-24 12-24 15-21 19-16 18-18 19-14 20-11 28 2 28 22 13 30-2 27-6 28-10 26-11 23-12 24-15 20-14-14 23-7 28-7 26-6 29-4 29-3 31-3 30-3 29-2 31-1 32 0 27 0 27 0 24"/>
<path d="M5285 10289l 1-4 2-29-1-27-6-23-9-25-14-19-18-19-23-11-27 7-20 14-16 25-11 29-6 30 2 26 19 20 26 4 28-6 23-10 23-17-2 27-4 27-3 26-4 25-3 26-2 26-1 26-1 28-1 26 0 25 0 26 0 26 0 25-1 28 0 25"/>
<path d="M6324 10388l-1 2 24 6 28-1 24-2 24-3 29-6"/>
<path d="M6776 10178l-1-1-10 25-12 31-10 24-10 26-10 21-11 30-10 27-6 25-1 25 9 24 25 12 29 1 28-4 32-6 30-6 28-8 25-7 26-7"/>
<path d="M6859 10338l-2 0-12 21-2 25-1 30 0 29 0 25 0 27 3 25 3 24"/>
<path d="M7685 10393l-1-1 24-5 29-2 28-5"/>
<path d="M8162 10260l 0-6-4-26-12-23-21-16-24-6-28 4-25 9-19 16-23 23-17 20-15 20-13 24-10 22-8 28-1 26 16 22 26 6 30-4 25-9 27-13 26-14 23-14 25-14 20-14-12 26-11 27-8 25-8 26-5 27-4 27-5 30-4 34-3 33-3 33-1 33 1 32 4 26"/>
<path d="M8884 10464l-2 1 23 10 25 1 30-1 30-5 24-4"/>
<path d="M9218 10287l-1-1 3 24 2 29-2 29-4 24-3 26-6 27-4 27-4 27-4 24-3 25-3 26 0 26"/>
<path d="M9497 10254l-3 2-22 16-14 22-10 22-11 24-9 28-7 28-6 31-3 30-1 29 3 32 5 28 9 24 17 16 23 11 26-3 20-18 13-21 7-25-2-27-12-23-21-11-25 0-22 10-22 16-16 22"/>
<path d="M10287 10429l-4-2 24 7 28 4 25 5 25 3"/>
<path d="M10747 10254l-3-1-25 3-18 15-18 25-13 25-11 28-9 28-7 31-4 33-3 35 0 32 2 32 4 29 7 27 12 25 15 21 20 17 27 11 25-4 23-13 17-17 10-26-6-27-15-21-25-14-25-8-28 3-23 13-20 18"/>
<path d="M11697 10431l-1-2 27-7 27-3 29-5"/>
<path d="M12142 10185l-2 0-24 16-18 24-17 25-12 23-15 26-8 31-8 28-3 30-3 28 0 28 0 25 4 29 12 27 18 17 27 9 28-5 24-11 24-17 20-20 14-24-1-25-18-22-20-13-24-7-27 1-25 10-19 18"/>
<path d="M12842 10388l 0-1 27 1 28-2"/>
<path d="M13248 10169l-4 0-26 8-18 17-19 25-16 23-11 25-11 26-6 28-3 30-1 29 4 26 7 24 13 25 18 18 22 15 22 11 29 1 23-8 25-15 16-19-5-25-14-25-19-19-23-11-26-3-24 4-23 9"/>
<path d="M13911 10363l-1-1 25-5 24-1 25-1 31-3"/>
<path d="M14277 10206l-1-1-4 24-6 30-6 33-4 25-3 25-2 25 0 26-1 26-1 29-3 28-2 27"/>
<path d="M1994 9284l 0 0-23 15-13 22-13 23-15 26-12 22-13 24-16 26-16 29-12 21-12 21-11 22-13 24-12 23-13 25-13 25-11 24-13 23-11 25-11 25-11 24-11 25-11 24-12 23-10 23-10 23-14 30-14 27-13 20-14 23-14 20-15 19"/>
<path d="M1980 9358l-1-1-12-22 24 6 16 21 18 23 16 22 15 25 13 21 18 26 16 21 14 23 17 23 15 26 15 24 17 25 17 23 17 24 16 21 21 24 17 24 14 22 15 23 14 22 13 21 17 26 17 22 22 23 16 22 13 23 16 23 11 23 12 21"/>
<path d="M1631 8750l 0 0 13-23 18-16 23-10 25-9 24-6 28 6 23 16 14 24 7 23 5 25-2 28-4 27-7 29-12 28-14 27-13 22-14 20-14 21-14 21-22 23-20 19-19 17-22 15-21 12 25-9 28-2 26-4 26-3 27-4 26-3 27 5 25 5 20 13"/>
<path d="M1990 8551l 2-1 24-10 24-6 26-3 27-3 25-5"/>
<path d="M2029 8582l-2 1-15 21-5 25-2 25-3 26 0 25 12 23 25 7 26-8 23-9 24-7 25-9 25-7 25-5 25-3 28-3 28-1 25 0 26 8 17 17 7 28-1 27-7 27-6 25-11 23-18 26-17 17-18 16-26 16-29 11-23 6-32 7-28 1-26-3-24-1"/>
<path d="M3993 9898l 0-1 9-24 15-24 15-23 13-21 15-25 14-25 17-27 19-28 13-21 15-22 19-24 19-24 18-26 21-27 20-27 20-27 21-27 19-25 20-26 19-24 19-25 16-23 16-22 14-21 13-21 17-30 16-27 14-22 17-26 15-23 14-22 14-22 13-22 15-18 19 20 18 20 17 25 16 19 20 22 17 18 18 22 19 26 21 26 20 27 20 28 13 21 14 22 15 20 15 24 13 25 15 25 13 25 12 26 14 25 13 24 15 24 13 22 14 22 19 30 20 26 17 26 18 27 17 27 15 23 17 23 17 18 16 20 18 16"/>
<path d="M4184 8628l-1-1 9-22 20-14 27-6 27 3 26 10 24 14 10 25-5 27-14 23-15 20-16 19-17 19-17 18-21 20-20 18-15 20 20 15 24 5 28 1 27-3 29-8 32-8"/>
<path d="M4613 8571l-3-4-20-17-25-9-25 0-25 4-25 9-20 13-18 19-10 24 3 28 19 17 26 11 25 8 27 9 29 8 29 9 26 8 22 11 23 17 20 20 12 24 2 30-4 25-11 24-20 19-24 4-22-12-16-20-11-28-4-31 2-29 7-32 8-24 13-23 17-21 22-21 27-21 20-13"/>
<path d="M6936 9793l 0 0 5-26 12-23 16-26 18-31 14-24 16-26 17-27 20-30 21-31 22-29 23-31 23-30 22-30 22-28 21-25 17-22 15-19 19-23 16-22 15-20 25 2 20 20 20 24 23 26 18 18 18 18 19 18 18 17 20 19 20 19 21 19 22 19 22 18 22 18 21 18 21 17 20 18 21 17 19 18 18 17 17 18 23 24 21 27 19 29 12 21 13 25 15 26 10 25"/>
<path d="M6851 8870l-1-1 8-25 23-7 25-6 27-6 23-6 25-7"/>
<path d="M7106 8648l-1 0-7 27 1 27 0 31-1 26 0 25 2 25 1 24 4 31 3 26"/>
<path d="M7235 8652l-1-2 23-13 24-5 30-2 27-1 25 3 14 21-14 22-16 19-17 18-19 16-12 22 24 9 26-1 29-4 27-1 27 0 26 4 24 7 26 9 23 16 16 21-4 25-17 21-21 17-27 17-23 13-22 11-22 11-28 7-28 3-27-4"/>
<path d="M9369 9862l-1-2 11-26 18-20 19-22 23-27 17-21 19-23 21-25 24-25 25-26 25-28 27-27 27-30 28-30 27-26 25-28 22-24 19-20 16-21 19-19 19-20 17-17 21-12 22 11 21 16 20 25 16 25 17 28 11 21 12 21 14 23 13 21 22 29 17 20 17 19 17 18 18 19 19 18 18 17 20 18 19 19 19 20 20 20 18 19 18 20 17 18 17 18 18 17 25 24 24 22 17 19 19 24 14 20 14 23"/>
<path d="M9361 8880l-2-1 22-16 28-6 26-7 30-6"/>
<path d="M9627 8697l 1-2 21-15 26-10 26-4 24 1 22 17 5 28-9 24-13 22-18 26-16 18-19 17-18 17-20 18-24 19-21 17-18 17 0 24 28-1 24-10 29-11 23-11 24-10 24-10 23-9"/>
<path d="M9923 8706l-1-2 21-15 25-3 26-3 27 5 21 13-1 27-13 23-16 19-19 19-18 19-19 17-19 18-18 17-10 22 23 9 27 3 25 1 25 0 28 2 30-1 29-1"/>
<path d="M12064 9937l-1 1 10-23 18-18 23-23 20-20 22-25 22-28 16-19 15-20 16-22 16-21 17-22 17-22 17-21 15-24 15-24 14-25 13-24 13-24 11-23 12-23 16-29 17-25 17-24 18-22 17-17 23-9 22 14 18 23 16 22 16 25 14 20 20 27 17 23 18 26 18 24 17 24 21 25 23 23 24 21 24 21 19 22 22 22 22 21 19 20 18 19 19 24 19 18 20 20 17 19"/>
<path d="M11976 8834l-1-1 26-11 23-5 30-4 24-2 30-3"/>
<path d="M12299 8678l-1-2 0 26 3 26 5 29 2 24 0 30 0 31 0 24-1 24-3 24-4 28-6 25"/>
<path d="M12444 8762l 2-3 18-16 28-11 25-6 27-3 28 1 27 5 24 6 22 14 17 19 11 22 0 25-10 23-21 21-23 20-20 14-22 14-22 12-26 14-21 12 28 5 27-4 31-4 32-4 24-3 24-2 25-1 24-2"/>
<path d="M14306 9788l-1 0 23-12 22-17 21-19 20-19 18-20 20-21 21-25 23-23 15-19 23-27 21-27 19-25 18-22 15-19 16-22 17-22 18-22 17-21 17-21 16-20 20-14 22-11 22-11 21-13"/>
<path d="M14581 9097l 0-1 23-7 25-3 26-5 26-4"/>
<path d="M14886 8933l 0 0 1 27 5 28 5 29 3 28 3 30 0 24 0 26 0 25-4 27"/>
<path d="M2470 8133l-2-2 7-25 16-21 19-23 17-19 18-21 19-24 23-26 22-26 25-28 26-31 26-34 28-36 27-35 27-35 25-34 24-31 21-31 22-28 21-25 19-25 18-22 17-23 15-20 15-19 15-19 23-25 24-26 22-24 19-26 19-26 18-26 18-24 14-20 13-21 18-19 23-11 25-7 27 5 25 15 25 18 21 20 25 22 19 18 19 16 21 17 23 17 21 16 25 18 24 18 26 18 26 21 25 19 25 21 24 22 22 21 25 24 23 24 23 25 23 25 21 26 19 25 18 24 17 23 16 23 17 23 15 24 16 22 15 21 20 28 22 26 21 28 21 22 21 21 15 20 14 19 16 25 17 24 14 20 16 18"/>
<path d="M2555 6505l-1-1 15-21 22-13 26-14 28-13 23-11 23-13 22-11"/>
<path d="M2625 6467l-3 0-22 10-18 20-12 27-6 25-3 26-5 30-4 26 3 26 3 25 14 22 27-1 25-15 24-15 29-13 28-13 28-13 22-9 28-4 25-5 27-3 26-2 25 5 12 24-6 28-12 25-18 25-20 25-22 25-22 22-21 19-22 15-22 14-25 14-27 5-23-10"/>
<path d="M3094 6452l 0 0 27-3 29-8 28-5 25-5 27-3 26 6 10 22-17 25-15 23-19 16-25 15-20 17 3 25 26 4 30 0 28 1 26 3 28 5 23 8 19 18-5 25-18 23-23 20-25 19-21 13-22 12-22 10-26 12-27 6-28 4-28-5"/>
<path d="M7521 8325l-1-1 19-17 21-18 21-19 26-23 19-16 22-14 22-20 25-22 26-23 29-25 29-25 31-26 31-27 33-28 33-30 33-30 32-31 33-30 31-30 32-30 29-31 29-29 27-28 28-31 27-28 26-27 25-26 23-24 22-23 21-21 19-20 18-19 22-25 18-18 17-20 15-21 15-19 20 16 15 25 17 24 20 19 19 18 22 20 25 21 28 21 19 15 20 17 22 17 22 15 23 19 25 18 23 23 27 21 28 21 29 23 29 20 29 22 29 23 29 20 30 21 29 19 29 19 28 18 27 17 28 18 28 20 27 21 26 17 25 17 24 16 23 15 22 17 22 18 20 17 18 17 24 23 19 22 17 20 16 20 17 24 14 25 12 22-7-27"/>
<path d="M7797 6942l 0 0 23-13 26-10 27-6 26-4"/>
<path d="M8119 6776l 1-2 22-15 26-10 27-11 28-7 25-1 25 0 9 23-22 20-26 19-22 14-22 15-21 13-23 15-20 17 20 15 27 0 32 0 26 0 26 0 30 3 27 10 19 16 2 27-12 23-15 22-22 22-25 19-27 15-29 11-28 7-24 3-25-7-1-28"/>
<path d="M8509 6723l-1-1 24-5 26-8 28-9 25-5"/>
<path d="M8529 6754l-2 2-22 17-17 20-12 24-5 25 5 23 17 22 24 10 26-4 25-7 28-9 28-8 31-6 29-4 25-1 26 1 24 9 6 25-16 22-21 19-26 18-23 15-23 12-22 10-27 8-27 3-29-1-25-9"/>
<path d="M12851 8231l-1-1 8-24 19-23 22-22 20-20 25-23 18-16 20-18 20-18 22-20 23-20 25-21 25-22 27-22 28-22 29-25 31-25 31-28 32-30 32-29 31-31 30-29 31-28 31-28 28-26 27-24 25-22 21-18 20-18 26-22 21-20 17-18 18-18 19-19 17-16 21 14 18 17 25 14 23 15 24 14 26 15 21 15 21 20 23 22 25 23 18 18 19 18 18 18 18 19 19 20 18 22 20 23 20 24 22 25 24 25 25 26 26 25 27 26 28 24 29 24 28 25 30 23 29 24 28 23 28 21 29 22 29 19 27 19 27 18 24 19 23 18 22 17 21 17 19 17 25 23 22 20 20 17 20 16 22 18 20 18 21 14"/>
<path d="M13194 6945l 1 0 24-4 26-2 29-5 26-9 27-8 28-10"/>
<path d="M13538 6751l-1 0-7 27-2 25-1 29 3 27 2 28 2 27 2 31-1 25-2 29-3 27"/>
<path d="M13706 6807l 1-3 12-24 23-14 24-7 25-5 28 2 24 11 16 18-6 27-16 18-21 19-19 16-20 14 20 17 26-3 27 0 28 3 27 9 24 13 19 15 14 21-16 22-22 14-23 9-24 8-26 2-25-2-28-5-25-10"/>
<path d="M3805 6009l-2-1 20-14 26-8 24-10 27-10 27-10 31-11 25-9 27-12 31-13 32-14 34-16 36-17 38-19 41-19 41-19 42-18 43-19 42-17 43-17 43-16 43-18 22-10 45-18 22-10 45-19 22-9 23-9 23-10 22-9 23-9 23-9 23-9 22-8 43-18 42-16 42-16 38-15 38-14 35-12 31-12 28-9 26-8 33-10 27-8 28-5 28 0 24 1 24-2 23 13 24 10 21 9 23 9 30 12 27 8 30 12 31 12 34 13 23 10 26 9 28 10 30 11 31 9 32 10 33 11 34 8 36 12 38 13 39 12 40 18 42 15 41 16 42 17 42 15 43 18 44 18 45 20 23 10 23 10 24 10 23 11 25 10 24 12 26 10 25 11 25 10 26 11 26 11 25 10 27 10 26 11 25 10 27 10 27 11 27 10 26 10 27 11 27 10 26 10 27 10 27 11 27 10 27 10 26 10 28 11 26 9 27 10 26 9 27 9 25 10 25 9 25 8 26 9 25 8 25 9 25 10 24 9 25 8 25 8 25 8 24 7 24 7 24 7 24 7 46 11 46 14 42 14 41 12 38 14 37 11 34 10 32 9 30 9 28 10 26 9 24 9 33 9 28 8 24 7 26 7 26 5"/>
<path d="M5170 4866l 0-2-2 27-6 30-6 31-6 24-8 24-8 27-8 28-6 31-8 29-6 27-5 25-3 27"/>
<path d="M5465 4825l-2-2-24-10-26 1-24 10-22 16-20 15-21 19-19 21-18 19-13 22 6 26 23 14 25 10 30 9 31 9 23 7 25 7 28 4 26 3 24 2 25 2 24 9 12 24-9 26-13 21-18 20-23 20-27 18-25 15-24 10-26 1-24-18-10-24-6-31 0-34 5-35 4-26 8-27 8-25 9-26 14-25 14-26 16-25 19-23 18-21 21-19 20-18"/>
<path d="M13772 6352l-1 0 12-22 19-19 22-19 22-17 24-19 28-21 21-17 23-18 25-22 26-21 27-22 27-22 27-21 27-23 28-23 29-23 29-25 29-24 31-24 29-24 30-25 30-23 29-25 29-26 29-26 28-25 28-25 28-22 25-22 25-22 25-21 25-22 24-19 20-19 20-15 27-19 24-18 20-16 19-16 20-16 17-17"/>
<path d="M14271 5044l-1-1 23-11 26-6 29-4 25-3"/>
<path d="M14551 4896l-1 1 0 26 2 26-2 29-3 31-2 25-3 24-4 30-3 28-4 24 0 26"/>
<path d="M14737 4910l 0-1 23-10 25 5 25 11 18 17-14 23-22 19-22 19-19 15 15 19 26-2 26-1 25 3 23 13 11 22-10 24-19 21-25 17-22 10-27 9-29 4-25 2-24-1"/>
<path d="M6303 4641l-1 0 24-5 27-8 30-10 26-9 30-10 33-10 33-12 24-8 25-9 27-10 30-10 33-12 35-13 39-13 42-16 42-16 45-18 23-9 25-11 25-11 25-9 25-11 27-11 26-12 28-12 28-12 28-11 28-11 29-12 30-12 28-12 30-12 30-13 30-12 31-12 31-12 30-12 31-13 31-12 30-12 31-12 30-12 31-12 29-13 30-12 30-13 29-13 29-12 29-12 29-13 28-11 29-11 27-12 27-10 27-12 28-10 25-10 26-10 24-10 25-10 24-10 23-9 23-8 44-17 42-17 40-16 38-14 35-12 35-12 32-10 29-7 27-9 23-6 30-9 28-10 22-10 11 21 20 14 21 12 24 5 25 6 28 8 28 9 27 7 31 9 27 7 28 9 31 10 34 10 23 7 25 6 25 8 27 7 29 8 28 7 30 8 30 10 31 9 33 10 33 9 33 10 34 9 35 10 37 11 41 11 41 12 43 11 42 11 46 12 45 10 23 6 25 6 24 5 24 6 24 5 25 6 28 6 25 5 27 5 26 6 27 5 27 4 27 6 28 7 28 5 27 5 28 6 29 5 29 6 29 5 29 5 29 6 30 5 30 5 30 5 30 6 30 5 31 5 30 6 31 5 31 6 30 5 31 6 32 6 31 5 31 5 31 5 31 5 31 6 32 5 32 5 32 5 32 7 32 5 31 6 32 5 32 6 32 6 31 6 31 6 32 6 32 7 31 6 31 6 32 6 33 6 32 7 31 6 32 5 32 6 33 6 31 6 31 5 32 6 31 6 31 6 31 5 31 6 30 6 31 6 31 6 31 5 32 5 30 6 31 6 31 5 31 6 32 5 30 6 29 6 30 6 30 6 30 6 29 7 29 6 30 6 28 5 30 6 28 6 28 6 28 6 29 6 28 6 28 6 27 7 27 5 28 6 28 5 28 6 27 6 26 6 28 6 25 5 27 6 26 6 26 6 26 6 26 5 25 7 25 6 25 4 24 5 24 5 24 6 23 5 24 6 47 9 23 5 45 10 47 9 43 9 42 9 41 8 39 8 38 8 37 8 35 6 34 8 32 8 31 8 29 9 27 6 26 6 24 7 33 9 28 7 27 6 27 6 25 4 28 5 26 5 26 3 24 3"/>
<path d="M8421 2985l 0-2 15-19 27-9 25-9 31-12 25-9 28-9 32-10 31-9 29-8"/>
<path d="M8465 2979l-2 0-25 10-9 23-3 25-4 28-4 26 1 27 5 26 14 20 26 6 27-3 26-7 31-8 25-6 28-5 30-4 30-3 30 0 28 1 25 5 27 9 23 19 14 23 1 29-8 25-18 27-18 21-22 19-24 18-26 16-26 12-29 9-28 5-28 3-27 1-26 0-31-3-25-7-22-14"/>
<path d="M912 11331l 0 0-3 27 1 28 1 24 2 28-2 27 2 26 7 24"/>
<path d="M1004 11393l 0-2 2 27 1 26 7 24 6 24"/>
<path d="M865 11243l 1 0-24-2-25 9-20 16-13 22-14 26-12 22-10 24-10 25-6 27-3 26 3 28 0 29 2 30 5 31 9 26 12 24 13 22 20 25 24 19 23 15 21 11 27 9 26 5 28 1 31-3 30-10 21-12 22-14 18-17 21-19 19-17 19-21 15-22 9-28 1-29-3-31-6-26-11-27-13-28-17-30-19-25-19-23-22-20-20-19-22-19-24-17-26-15-25-12-23-9-28-10-25-3-28 6-22 18"/>
<path d="M12110 11200l 0 0-5 27-6 28-6 26-6 27-4 28-3 24 0 24"/>
<path d="M12284 11216l-2-2-15-22-26-5-19 16-17 21-13 22-13 21 19 14 26-12 22-11 23-9 4 25-10 22-2 25 0 26 5 25"/>
<path d="M12234 11075l-3-1-23-10-26-5-28 1-24 5-28 8-26 10-28 15-21 16-21 18-20 22-20 25-13 25-9 25-4 24-1 26 2 28 6 29 10 29 12 27 17 25 20 22 22 19 24 19 27 13 31 11 30 6 32 7 32 3 33 1 33-1 31-8 28-9 28-14 23-16 19-19 18-20 12-23 9-24 2-26-2-29-7-30-10-32-10-22-10-22-11-22-13-21-18-28-19-23-18-19-19-16-27-11-25-5-25 1-28 9"/>
<path d="M880 18408l-3 1-22 10-17 18-15 25-12 25-10 29-9 34-4 24-5 25-4 27-3 28-1 28 0 28 0 27 1 25 5 34 6 29 7 25 13 29 15 22 16 17 26 14 27 3 26-3 26-10 23-16 15-22 6-25-3-27-15-24-20-18-24-9-26-7-27-2-30 6-20 16-6 29"/>
<path d="M2040 18462l-1-1-1 25 0 27 1 32-1 24 0 24 1 25-1 25 0 26 0 24 1 24 1 34 0 34-2 31 0 31 2 24 7 27"/>
<path d="M2366 18483l 0-5-5-27-9-25-23-16-26-5-27 5-23 15-23 24-13 23-18 25-16 27-10 28-8 26-1 28 6 25 22 13 25 4 30-6 24-11 23-12 20-14 25-20 17-18 14-21-19 23-4 28-2 29-1 33 1 31 1 31 2 29 3 31 4 30 2 29 2 29 5 26 4 30"/>
<path d="M3315 18506l 0-1 1 28-1 27-1 26-2 30-3 29-3 30-2 29-3 31-4 27-1 28-1 27 1 30"/>
<path d="M3612 18519l-2-4-19-19-27-7-25-2-27 9-25 14-21 23-13 21-14 26-11 26-10 27-4 31 2 25 12 22 27 10 24-4 24-9 23-15 23-19 20-19 19-17 15-21 10-22-21-12-16 22-9 26-2 30 3 24 2 26 2 27 2 28 2 26 2 28 1 28 2 25 2 29 4 28"/>
<path d="M4973 18452l 1-2 7-24 5-27 0-27-9-23-17-23-23-14-28 4-22 11-26 19-21 17-19 22-18 24-19 23-16 24-13 20-10 24-5 28 7 25 25 10 25-3 27-10 25-12 26-13 22-12 19-19 16-19-6 27-4 26-3 25-2 28-3 28-3 30-3 31-3 30-2 27 1 26 9 23"/>
<path d="M5726 18517l-1-2 24 1 28-2 25-6 26-7 28-5"/>
<path d="M6068 18316l 0-2-11 25-7 26-9 24-10 28-9 30-8 27-4 26-2 27 8 25 23 12 28 0 29-4 24-8 24-13 22-15 24-17 19-19"/>
<path d="M6165 18413l-2 2-18 19-10 25-5 28-4 25-1 27-2 29-2 29 2 28 6 25"/>
<path d="M7234 18556l-1-2 26-6 24 6 27 5 33 6 27 1 31 0"/>
<path d="M7692 18449l 0-3-2-26-9-23-25-9-26 4-24 13-22 17-21 20-16 26-14 24-8 27 9 23 25 5 27-3 30-11 21-10 27-10 20-14 18-20-24 2-7 26-4 25-2 30 0 26 1 31 2 31 1 28 0 29 0 31 2 26"/>
<path d="M8791 18561l 0-1 25-4 25 1 26-8 29-5 23-6"/>
<path d="M9111 18397l 0-1-8 26-2 27 0 24-1 29-2 31-2 32-2 33-3 32-3 31-3 28-2 28 0 28 8 24"/>
<path d="M9334 18395l-2 0-19 16-21 25-17 23-17 28-14 29-10 22-11 33-6 24-6 24-4 31 1 31 5 25 13 25 19 20 24 9 27 5 29-1 26-9 23-17 13-22-2-25-18-20-24-12-27-10-27 0-25 2"/>
<path d="M10034 18599l-1-1 25-7 28-6 24-5 25-3"/>
<path d="M10520 18348l-3-1-27 3-22 18-20 24-15 22-15 26-12 26-8 27-5 28-4 28 1 28 4 25 9 25 16 20 20 15 25 8 25-6 22-12 14-22-1-25-18-20-24-9-26 0-27 4-26 8-21 12"/>
<path d="M11307 18396l 0-2 27-2 28 4 31-1 28-4"/>
<path d="M11766 18183l-2-1-25 7-21 21-16 21-16 28-12 22-12 23-10 27-9 28-10 31-8 30-7 28-6 28-4 27-1 34 6 30 10 23 17 22 25 17 24 2 26-8 27-12 22-16 19-21 6-24-8-27-17-17-25-15-25-6-28 5-24 10"/>
<path d="M12462 18403l 0-4 23-10 27-1 30-3 28-2 29-2"/>
<path d="M13114 18121l-1-1-24-1-17 22-19 27-16 23-12 22-12 22-13 24-11 25-11 26-11 27-10 26-8 26-8 34-3 28 0 24 3 27 12 23 21 19 25 9 25-5 23-8 20-15 14-22 8-25 2-25-8-26-16-21-23-10-28-2-26 7-21 15"/>
<path d="M13831 18368l-1-2 27-9 25-3 30-6"/>
<path d="M14164 18212l-1-2-13 25-11 28-11 32-7 26-9 27-5 26-4 24-4 25-3 31-2 24-1 26 0 25-3 25"/>
<path d="M2444 17976l-1 0 21-13 26-17 21-16 25-21 19-17 20-20 24-20 25-23 27-22 26-21 27-23 24-23 24-22 21-21 19-21 17-17 24-23 16-17 15-23 22-13 22 15 16 21 17 25 17 21 18 25 19 27 13 22 20 29 21 28 21 27 19 19 17 20 17 22 19 20 15 21 16 21 17 18 14 20 22 28 20 28 20 22 21 25 20 25 16 22 18 16"/>
<path d="M599 19522l-2-2-15 22-3 31 0 25-2 24-1 24 1 26 4 26 3 25 17 18"/>
<path d="M707 19547l-2 0-20 17-5 25-6 25-3 25 2 25 1 24 0 26 4 25"/>
<path d="M618 19369l-5-2-30 0-24 2-25 6-25 8-23 9-27 15-20 17-21 18-17 21-15 23-15 28-13 33-8 25-4 27-7 31-4 32-2 33 0 32 2 31 4 34 5 32 6 34 10 31 13 25 15 24 25 26 29 20 25 10 33 7 25 1 35-7 28-6 27-8 28-11 26-14 26-17 25-19 24-19 25-22 22-25 22-25 19-30 19-28 15-26 15-27 12-24 10-27 7-26 6-26 1-24-3-26-8-26-12-25-12-25-15-23-14-21-20-21-22-20-23-18-25-15-26-13-25-8-26-5-26-3-24 1-34 4-30 7-28 7"/>
<path d="M5013 18059l-1 1 14-22 17-20 19-22 25-27 19-21 21-22 23-23 24-25 25-26 26-26 28-25 27-26 29-27 29-25 25-27 23-22 22-18 24-21 18-17 18-18 24 13 16 23 15 24 14 20 15 25 16 24 17 25 16 26 18 28 16 25 16 22 18 23 17 21 17 19 21 22 22 19 20 18 22 15"/>
<path d="M7728 18071l 0-2 13-21 25-19 25-15 20-14 24-16 26-17 29-20 33-23 36-25 39-29 20-13 40-28 21-13 40-27 20-13 21-13 20-12 21-13 38-26 38-23 35-21 33-20 28-16 26-16 23-13 28-14 26-13 24-9 22 12 16 21 17 25 15 20 16 22 19 25 20 26 22 24 22 24 22 25 22 27 23 27 16 18 16 19 16 19 17 18 16 20 24 22 20 15 26 15 22 14 23 12"/>
<path d="M10467 18040l 3-5 17-22 22-27 16-18 19-19 21-20 24-21 25-23 26-24 28-23 30-24 33-23 32-25 35-26 38-25 35-26 39-25 37-25 35-22 35-22 32-20 29-17 27-16 22-11 27-13 23-12 25-8 25 5 22 17 17 17 15 19 18 25 12 23 14 24 14 25 15 25 16 29 18 24 18 24 21 21 22 22 21 20 22 20 22 19 20 18 18 17 21 19 19 21 19 16"/>
<path d="M12890 17827l-1-2 11-23 19-17 23-18 20-16 24-19 27-21 20-17 22-15 23-17 25-19 26-20 27-20 29-21 28-22 27-20 26-19 26-19 26-17 25-18 23-18 21-17 27-20 24-17 24-14 18-16 23-8 23 10 16 23 12 21 17 24 14 27 13 21 15 21 15 22 17 25 21 26 21 27 22 26 22 27 25 25 24 24 25 26 23 26 22 25 21 21 19 20 15 19 20 23 18 20 19 19 18 19"/>
<path d="M13260 16925l-1-1 24-12 27-5 29-7 24-2 24-1"/>
<path d="M13576 16747l 1-2 20-12 24-4 28 1 25 1 28 1 25 0 24 3-6 24-13 22-15 25-13 21-14 22-14 25-14 29-15 30-13 30-12 30-11 30-11 28-8 30-5 27-3 27 1 24"/>
<path d="M10817 17075l 0-2 27-2 27-2 26-4 28-5 28-6"/>
<path d="M11183 16888l 0-2-2 29-6 30-5 23-5 24-5 26-7 28-6 31-3 29-2 29-1 25 2 28 10 22"/>
<path d="M11367 16926l 1 0 25-8 27-3 26-1 29-3 30 1 25 8 24 11 18 15-2 27-11 22-19 22-19 18-23 20-22 18-22 17-18 19 7 24 27 4 25 4 26-3 25 1 27 5"/>
<path d="M8054 17128l 0-2 24-9 24-11 25-6 25-6"/>
<path d="M8356 16917l 0 0 17-17 23-9 26-6 25 4 23 9 20 16 11 23-6 24-14 22-19 23-17 18-17 17-17 18-18 18-17 18-18 17-22 22-19 21-20 18-15 19 19 17 25-7 28-7 29-10 23-7 24-9 25-4 25-1"/>
<path d="M8702 16903l 0-2 15-20 23-11 26-10 29-8 27-5 27-5"/>
<path d="M8728 16899l-2 2-18 18-14 20-11 26-5 25 2 24 18 19 25 5 28-3 28-5 28-6 24-5 30-1 26 2 24 3 23 9 13 22-11 21-20 17-23 16-26 14-25 13-25 8-22 8-27 2-23-6"/>
<path d="M5317 16974l 0-1 20-15 22-11 25-10 23-8 26-10 25-10 25-10"/>
<path d="M5344 16989l-2 0-20 17-11 22-9 25-5 26 1 24 19 17 28-5 27-8 25-8 25-8 24-8 24-11 23-10 24-6 25-1 24-3 25 2 20 15-4 27-12 23-15 23-17 17-20 18-23 13-25 13-23 13-23 9-28 5-24 2-23-7"/>
<path d="M2713 16985l-2-2-3-25 22-15 22-12 28-13 22-8 31-9 28-5 27 0 22 11-11 26-14 23-16 21-19 21-19 20-19 17-20 21-18 21 15 20 28-5 29-2 31 0 30 0 29 6 24 12-2 27-16 26-20 20-22 21-24 16-24 11-28 9-25-1-15-23 11-26"/>
<path d="M3266 16879l-2-2-24-6-27 4-28 8-24 11-25 9-24 7-20 15 16 20 25 8 32 11 27 11 31 8 30 7 31 6 27 8 27 9 22 10 20 17 12 25-8 28-13 28-18 19-20 18-21 13-26 10-26 3-26-9-25-17-16-23-7-30-3-25 2-28 5-30 7-31 13-27 20-26 20-23 19-18"/>
<path d="M11922 17247l 0-2-2-25-18-17-25 5-25 11-19 17-19 16-18 19-13 24 7 25 25-3 23-9 23-13 25-11-6 24-11 23-5 25-3 27-3 26 0 25"/>
<path d="M11894 17186l-2-2-26-7-26 1-26 8-25 9-25 14-24 16-19 15-20 19-18 18-15 21-14 29-9 24-5 28-2 30 2 28 6 25 13 27 20 24 19 18 25 11 25 11 29 6 31 6 34 1 34 0 32-5 31-7 28-10 24-11 21-13 26-18 23-20 16-20 12-22 13-25 7-24 4-25 0-24-4-26-6-28-9-28-12-26-15-23-18-16-19-17-22-12-24-13-24-7-25-2-27 0-27 1-25 1-30 7-27 12-22 17-16 21"/>
<path d="M3648 17222l-1-1-24 8-17 24-14 24-12 28-8 26-5 30-5 30 0 31 1 26 5 24 11 26 12 21 24 17 25 12 25-7 24-12 13-21 3-25-14-22-25-14-26-7-27 0-26 8-23 15-19 17"/>
<path d="M3684 17183l-2-2-21-13-25-7-25-2-26 3-25 7-26 12-22 16-19 16-17 19-17 24-15 24-14 26-8 28-5 23-4 34-2 34 1 32 5 33 9 28 13 26 17 22 20 22 24 18 26 15 30 13 30 13 31 6 28 2 28 0 29-3 26-11 23-13 25-17 23-21 22-25 12-21 16-29 12-28 8-28 6-36 0-24-2-24-11-34-11-35-16-32-15-29-22-23-23-23-24-22-28-19-27-15-26-11-30-8-27-1-24 4-23 11-12 26"/>
<path d="M11599 19203l 0 0 2 26 0 29 0 28 1 26 1 26 1 28 0 26 0 28 1 25 1 25 1 28 2 28 2 24"/>
<path d="M11824 19321l 0-5 5-28 3-28-2-26-8-23-20-16-26-4-23 11-20 18-19 21-14 26-7 30-4 29 5 27 10 23 23 12 27 0 28-12 24-17 19-21 12-23-21 13-1 26 0 29 2 30 5 25 3 27 1 29 0 28 0 25 6 25"/>
<path d="M11777 19094l-4-2-24-11-30-9-24-3-32 2-25 2-24 7-25 12-26 16-25 25-17 22-17 25-16 27-18 29-16 29-13 33-11 32-8 34-5 33-3 31 0 31 2 27 4 29 6 27 9 24 10 24 12 24 14 21 15 22 16 22 18 18 19 15 21 11 31 15 31 10 32 5 34 0 25-5 25-6 25-13 28-15 27-19 26-24 26-26 24-28 19-31 19-30 17-29 15-29 14-25 10-28 8-28 4-28 2-31-2-31-5-32-9-33-11-32-16-30-19-29-21-26-25-25-27-24-29-22-29-19-30-16-30-12-29-8-28-5-27-3-24-1-34 1-28 7-22 10"/>
<path d="M7620 19378l-1 0-4 26 0 28 1 25 0 28-1 25 0 27 0 25"/>
<path d="M7725 19317l-2 1-15 22-8 27-2 24-3 30 2 27 2 30 4 28 8 26 16 20 25 4 24-10 19-18 12-22 4-24-20-15-24 8-22 15"/>
<path d="M7682 19227l-3-1-23-12-26-6-27 6-26 11-20 15-21 20-18 18-18 21-17 23-16 27-13 27-12 30-8 32-6 35-2 34 2 33 6 30 9 29 13 23 16 20 20 15 21 15 29 11 24 7 27 2 27 0 29-5 28-11 28-12 29-15 25-15 25-18 22-22 20-19 16-21 15-26 11-27 6-28 1-27-4-27-11-28-17-26-17-21-19-21-20-16-20-13-28-16-27-10-26-5-29 0-27 5-24 8-23 12"/>
<path d="M825 17933l-1 1-11-22 7-29 10-28 6-25 9-27 10-28 10-24 10-22 11-22 10-24 12-26 10-22 14-26 11-24 12-28 12-25 13-24 10-23 10-27 16-25 11-21 11-31 12-24 11-22 12-24 10-26 13-26 13-22"/>
<path d="M1283 17468l 0 1 23-11 24-9 24-11 20-14 14-20-60 28-19 16-18 18-10 24-11 23-3 25 14 20 24-8 22-15 23-12 21-13 22-10 15 20-11 21-17 23-15 24-21 21-19 15-20 17-24-2"/>
<path d="M1342 17380l-2 0-24 0-25 4-23 7-21 13-19 21-16 17-13 24-10 25-6 25-1 24-1 26 2 25 5 25 10 27 17 20 18 20 23 17 23 11 27 6 30-1 30 0 26-1 25-11 26-15 22-20 16-19 12-20 13-29 8-29 4-31 0-25-5-25-9-25-14-27-15-23-17-22-19-21-21-16-20-16-25-7-25-6-25-2-24 2-24 7-29 11-27 14-21 18-16 23-11 23"/>
<path d="M1148 16766l-2-1-6-23-10-22-24-10-18 18-12 27-8 28-8 35-4 28-5 28-3 31-1 30-1 30 1 29 3 28 4 25 8 33 11 25 14 20 23 20 25 7 29-4 26-5 29-10 24-17 19-24 13-24 9-26 2-24-10-26-20-23-21-14-29-10-25-3-26 4-24 6-26 12-21 16-17 19-13 25"/>
<path d="M13991 17226l-2 0-15 19-3 26-3 26-2 25-7 24"/>
<path d="M14079 17216l 0-1-23 9-13 21-12 24-6 23-1 25 10 25 22 16 26 0 27-7 22-12 18-20 13-23-5-28-11-22-22-18-21-17-22-9-24-6"/>
<path d="M14068 17136l-1-1-21-14-27-5-24 2-25 7-27 11-23 16-20 20-16 28-12 24-9 26-5 26 0 26 6 30 14 27 17 26 22 21 21 16 26 9 28 9 28 2 25 0 25-2 26-3 24-7 24-10 22-11 26-16 20-20 14-21 13-22 9-23 2-30-6-27-15-26-17-27-19-27-24-20-24-16-25-14-25-10-28-8-26-8-25-3"/>
<path d="M7230 21457l 0 0-8 24-4 27-3 24-2 26 0 25 2 27 2 25 5 23"/>
<path d="M7237 21353l-1-1-26-6-26 4-28 9-21 13-23 19-17 17-16 20-15 24-12 25-10 27-5 29-2 28 0 27 2 26 8 29 15 23 17 24 20 23 21 16 23 14 23 11 24 8 26 0 27-2 28-1 26-9 24-15 21-18 17-27 12-21 10-25 8-24 4-26 0-27-4-32-7-34-10-32-10-33-14-28-14-25-16-19-22-20-24-14-26-9-26-2-26 1-28 5-28 13"/>
<path d="M6925 21658l-1 0-20 17-17 22-16 20-15 20-17 20-19 25-16 18-17 19-19 20-19 21-19 24-19 28-21 27-22 30-22 29-22 30-23 32-23 32-23 32-22 29-24 33-23 32-22 32-23 34-23 31-21 31-21 30-20 27-19 29-18 29-17 29-18 29-16 27-16 26-12 22-13 22-16 31-13 29-12 26-11 23-13 26-11 23-13 22-15 24-13 20-14 25-15 23-16 21"/>
<path d="M5793 23178l 0-1 18-16 24-11 26-5 25 3 10 22-11 22-12 21-15 22-16 19-20 20-20 18-19 19-12 22 14 22 28 5 27-1 24-5 24-11 23-10"/>
<path d="M5917 23036l-2-2-20-15-25-8-28-5-24-1-28 3-29 7-23 9-24 12-24 14-24 19-25 20-24 23-15 20-13 22-13 23-10 25-10 32-5 32-1 34 5 34 6 25 11 33 18 29 22 23 26 21 21 13 30 15 33 10 33 3 33 3 34 1 33-4 31-10 30-12 28-15 27-14 24-18 21-25 18-22 14-25 9-23 7-24 2-31-3-25-5-25-11-27-15-26-19-26-22-24-22-26-25-18-25-16-24-11-30-10-26 0-25 4-24 6-22 18"/>
<path d="M7482 21840l-1-1 24 12 16 22 15 23 13 23 16 24 16 28 18 28 20 30 15 22 15 21 16 20 16 21 17 21 19 23 19 24 22 26 22 25 22 24 22 26 22 23 22 25 23 26 22 26 21 28 21 28 21 28 20 27 18 26 20 27 18 25 19 26 19 25 18 27 18 25 16 26 17 27 18 25 16 26 18 25 17 24 17 23 16 23 16 23 15 23 14 21 14 21 19 28 17 28 15 23 15 21 17 23 15 22 15 21 13 20-11-22"/>
<path d="M8628 23211l 1-1 22-12 23-10 25-3 27-1-2 25-20 19-18 16-17 16-17 18 23 13 25 2 26 5 24 9 5 24-16 22-22 19-22 9-23 8-26 8-23-11"/>
<path d="M8691 23050l-5 1-26 4-25 11-25 16-19 17-19 21-14 21-15 28-13 33-8 24-7 26-5 25-4 29-1 28 0 27 1 27 7 32 12 31 16 25 18 19 21 15 28 13 24 6 24 3 24-1 25-4 25-6 25-9 24-10 23-13 22-13 20-18 17-19 17-24 14-25 11-27 6-29 0-28-6-32-6-23-8-27-11-26-12-28-14-25-15-27-15-23-15-20-22-21-21-14-27-9-29-4-31 6-25 7-23 10-21 13"/>
<path d="M5564 23795l 2-1 9-22-22 18-17 20-15 21-18 26-15 20-17 23-20 23-21 27-24 29-27 32-27 34-30 37-32 36-16 21-16 20-17 21-16 20-15 21-16 21-15 23-15 21-16 20-15 21-15 20-27 41-28 39-25 40-25 39-25 37-24 40-13 21-24 41-13 20-23 42-25 39-20 37-20 35-19 34-19 34-15 31-15 28-13 29-10 24-11 23-10 23-13 29-14 27-13 23-12 22-14 24-15 22-17 19 11-28 16-23"/>
<path d="M4308 25422l-1-1-1 27-8 29-8 28-7 24-8 24-8 27-5 27-2 25 9 23 25 3 23-10 24-11 23-13 22-12 20-13 25-11"/>
<path d="M4381 25515l-1 1-11 24 0 24 4 26 1 28 1 26 4 26"/>
<path d="M4304 25313l-6 0-32 6-26 12-26 14-24 14-25 18-21 19-21 22-18 25-16 28-14 31-12 31-5 25-4 24-3 26-1 28 2 28 4 28 5 29 7 29 12 28 11 27 15 27 17 23 19 18 20 17 31 15 22 10 33 10 23 8 25 1 26-1 26-5 26-8 25-9 25-12 24-13 23-18 26-20 22-22 21-23 19-25 15-27 13-27 12-28 9-27 7-27 6-25 3-28-1-27-4-26-8-28-10-27-14-29-14-28-18-31-20-28-20-23-21-22-21-18-22-16-23-15-20-13-31-15-31-9-28-2-25 1-28 10"/>
<path d="M5898 23807l 0-1 17 19 11 22 11 25 10 24 10 28 11 32 8 25 9 26 9 26 9 29 9 28 10 27 11 26 12 26 11 26 12 26 13 28 13 27 13 28 12 28 13 28 12 28 12 28 12 26 12 28 10 26 12 27 10 28 11 28 11 27 10 27 11 28 10 29 10 27 11 30 10 26 9 25 9 26 9 25 9 27 9 27 8 24 9 24 7 24 13 33 8 24 10 30 9 27 9 23 8 25 8 23 9 28 9 22 12 25 11 22"/>
<path d="M6480 25466l-1 0 24-6 26-5 26-9 23-7"/>
<path d="M6471 25475l-3 2-18 15-9 25 8 23 24 8 26 0 27-3 25 1 25 5 25 0 21 12-3 25-10 23-18 22-22 18-23 16-24 13-26 7-24 3-24-1"/>
<path d="M6551 25337l-4 0-28 3-26 12-26 17-24 20-20 21-17 24-16 24-8 24-7 23-7 25-1 27-1 30 4 29 8 26 10 24 14 21 21 21 24 15 29 12 25 6 27 0 25-1 25-3 24-2 23-7 25-9 24-13 22-19 21-24 18-25 15-25 12-25 6-28 5-31-3-27-9-31-13-34-11-23-13-23-12-23-15-20-20-25-20-18-25-10-24-6-25-3"/>
<path d="M8727 23706l-1-1-23 17-10 26-9 25-9 30-10 33-8 26-8 29-10 31-10 34-12 37-13 39-13 42-14 45-14 46-12 46-7 24-7 25-13 46-13 45-11 46-11 42-10 43-11 42-11 39-9 39-10 36-9 35-9 33-7 30-7 27-6 25-6 34-6 25-6 28-5 23"/>
<path d="M8339 25155l-1 0-18 16-16 23-11 23-7 24-4 28-1 26 0 26 3 28 3 26 8 23 13 24 17 20 22 15 25-3 21-14 12-22-2-25-19-18-26-3-27 6-23 16-18 16-19 21"/>
<path d="M8294 25075l-2-2-25-7-25 13-21 18-19 23-19 26-13 23-14 29-13 32-7 23-8 24-5 26-3 27-2 28 0 28 1 26 4 28 4 25 7 24 12 32 16 28 21 27 24 24 28 20 30 15 32 10 33 3 35-3 24-6 24-4 23-9 24-12 23-15 21-17 20-19 19-21 17-21 16-23 13-24 12-23 10-25 8-24 5-24 2-24 0-25-4-25-7-25-10-26-13-27-15-29-19-29-19-31-22-26-22-24-21-20-23-15-22-14-23-10-32-10-29-7-28-3-25 0-28 2-26 4"/>
<path d="M10093 25211l 0 0 24 8 28-5 28-1 24-7 24-4 2 25-10 23-11 24-9 26-9 23-11 24-9 24"/>
<path d="M10193 25098l-3-1-27-6-25 0-26 4-27 9-21 13-22 16-23 22-17 19-17 26-17 30-10 22-10 23-9 25-7 25-6 28-3 28-2 27 2 29 3 25 11 31 15 25 20 23 24 21 28 15 32 9 36 4 34 3 34-3 32-7 32-7 29-10 28-11 25-14 23-17 21-18 18-22 14-26 10-31 6-28 1-27-3-28-8-30-14-29-11-21-14-21-15-20-16-24-17-21-18-20-17-18-25-20-22-14-22-10-27-3-25 7-22 10-25 16-16 18"/>
<path d="M4048 26077l-1 0-20 17-18 19-19 22-19 25-17 22-19 25-21 28-17 20-16 21-18 22-18 25-18 24-18 27-20 29-20 29-22 31-21 33-21 32-24 34-23 36-24 35-25 37-21 38-22 37-21 39-21 35-21 34-19 34-18 31-16 33-16 31-16 33-15 31-15 30-15 29-13 26-10 24-9 22-12 28-11 28-9 23-7 25"/>
<path d="M3088 27628l 0-2-9-23-22-13-26 3-24 9-20 17-17 18-12 23 5 24 26 14 24 4 27 3 29 6 30 5 25 4 23 13 17 23 4 30 0 25-7 30-9 23-12 23-19 26-19 19-25 13-25-3-20-16-17-19-15-23-10-26-3-25 2-25 6-23 13-27 14-22 17-20"/>
<path d="M3072 27528l-2-2"/>
<path d="M3048 27467l-1-2-22-16-22-12-28-6-25-3-31 2-26 7-28 13-24 14-22 17-22 22-19 25-19 27-17 30-10 24-7 28-7 28-6 31-5 31-2 32 1 33 3 32 5 32 10 29 11 28 15 28 18 25 17 27 20 21 20 20 24 16 24 15 26 12 27 12 27 10 26 7 27 6 28 4 28-2 28-1 24-5 27-6 26-8 25-9 27-11 24-15 22-13 22-17 21-19 19-20 16-25 15-27 13-28 11-26 8-28 6-25 1-25-1-24-6-35-11-23-13-27-15-24-21-26-21-26-21-24-20-23-22-19-22-18-22-12-34-15-31-10-32-9-29-3-24 0-26 4-24 9-23 10"/>
<path d="M4330 26157l 0 1 11 26 11 25 11 29 11 36 10 26 9 28 10 29 11 31 9 32 11 33 10 32 13 34 12 34 12 36 13 39 11 39 12 41 13 40 13 41 16 43 15 44 8 24 9 23 9 24 8 23 8 24 8 24 7 24 8 27 8 23 6 25 7 23 7 24 6 23 13 45 13 41 13 40 13 38 12 34 12 31 10 29 13 28 11 28 12 24 15 32 14 23 11 24 11 25 8 23"/>
<path d="M4913 27887l-1-1 2-24 1-25-7-24-19-16-26 1-23 7-17 19-11 23-4 25 1 26 17 18 26 3 22-10 19-16-1 26-6 24-4 28-4 26-3 24 3 28 3 27"/>
<path d="M4867 27709l-3-2-28-6-24 3-28 7-22 12-21 19-14 25-11 28-7 31-6 34 0 27 0 28 0 30 3 33 5 33 6 36 8 34 11 29 11 25 19 26 21 24 25 14 24 11 25 4 26 5 26-2 27-6 25-10 22-13 22-15 22-19 22-24 18-29 12-21 10-22 9-23 8-23 5-35 1-33-5-34-11-34-9-23-13-24-16-25-16-23-21-22-19-21-22-16-22-18-22-16-21-13-22-14-31-16-29-15-25-9-27-2-24 4-24 7-19 16"/>
<path d="M6551 26009l-2 2-17 21-13 23-13 27-13 33-8 24-7 25-7 28-6 28-7 29-7 30-8 33-7 35-8 36-9 39-8 41-9 40-11 44-10 45-6 24-5 25-6 26-11 47-6 24-5 23-11 46-11 43-11 45-9 46-11 44-10 42-10 42-9 40-8 38-8 36-7 33-6 28-6 31-5 27-6 26-5 26-7 33-5 29-5 27-4 26-4 24-2 25 2-25"/>
<path d="M6031 27736l 0 0-14 20-4 26-1 27 2 25 4 25 5 25 9 25"/>
<path d="M6140 27748l-2 1-16 22-9 23-3 24 3 25 10 25 15 20 24 14 26 0 21-12 20-16 10-23 6-25-4-26-17-23-23-16-25-10-26 5-18 19"/>
<path d="M6146 27623l-3-1-24-3-26 1-27 6-27 8-27 13-25 19-22 23-16 20-14 25-11 29-9 33-5 38-1 25 1 25 3 24 10 34 14 31 18 28 22 23 24 20 28 13 30 9 31 2 35 0 25-6 25-5 27-8 24-10 25-11 24-16 22-17 23-21 22-25 22-24 21-26 19-26 16-27 13-28 11-25 6-26 4-33-4-33-12-33-13-23-15-24-20-23-21-24-24-22-25-21-26-19-28-16-28-15-26-13-25-9-33-9-30-3-26 1-28 8-24 9"/>
<path d="M6678 25926l 0-2 13 23 10 26 10 26 12 32 9 25 11 26 11 30 14 33 15 35 15 38 17 39 18 40 19 42 10 22 18 42 20 42 18 38 18 41 19 37 18 40 18 40 18 38 20 39 18 39 19 38 18 38 17 35 16 36 17 38 15 36 14 37 15 36 13 35 12 34 13 32 11 32 11 30 10 28 10 30 9 27 9 28 11 34 10 33 9 26 7 25 10 25 12 25 10 25 13 20"/>
<path d="M7320 27746l-1 0-4 26-3 25 0 27 0 27"/>
<path d="M7455 27715l 0 1-5 24-4 27 0 28 4 26 6 26"/>
<path d="M7448 27609l-2-1-25-2-25-1-25 4-28 8-21 11-24 14-24 13-24 19-18 17-16 19-13 22-13 23-11 25-8 24-6 28-3 27 0 29 3 25 12 32 12 24 18 26 21 18 26 11 30 12 31 9 22 12 34 6 32 6 31 2 28-3 29-4 28-9 26-11 24-18 22-19 19-22 16-22 14-25 12-25 9-31 1-24-3-26-7-25-12-28-13-25-15-26-17-25-17-24-19-22-22-23-21-22-23-21-20-16-23-14-25-9-27 8-24 10-21 13-16 20-13 21-12 27"/>
<path d="M8496 25885l-1 1-17 17-6 24-4 30-2 27-1 25 0 28-2 29-1 33-3 37-2 27-3 28-4 29-3 30-4 30-5 35-4 37-5 37-6 41-4 37-6 37-4 36-5 36-6 35-3 34-4 34-3 32-4 31-3 28-3 25-2 26-3 27-2 28-2 31-3 29-4 27-3 24-3 26-3 26-3 25-2 28-3 25-4 35-2 32-1 29-1 29-1 28 0 27 0 25 1 26 1 27 0 28-1 25 0 27 2 27 1 26"/>
<path d="M8241 27696l 0-1-9 27-2 29-2 28-1 24 0 27 0 24 1 27"/>
<path d="M8311 27731l-1 0 24 2 25 1 25 6 20 15-1 27-12 25-14 21-18 20-18 21-15 20 24 5 25-5 26-7 24-10 22-11 25-13"/>
<path d="M8338 27574l-2-1-26-2-30 1-27 4-27 5-28 10-21 15-19 21-16 23-11 22-10 22-9 31-9 29-7 34-5 31-1 31 3 29 5 26 8 26 12 23 14 20 17 18 20 15 23 15 25 7 26 4 26 0 28-2 30-3 29-6 29-9 27-13 27-14 26-18 24-21 22-22 18-22 12-25 8-25 5-26-1-26-5-23-12-23-17-23-21-26-17-18-18-18-18-17-20-15-27-22-28-17-28-13-27-7-30-5-27 0-28 2-24 4"/>
<path d="M8608 25854l-1-1 16 24 12 24 10 22 12 24 14 28 14 29 15 33 16 30 9 23 11 22 11 25 12 25 13 24 12 25 13 25 14 26 14 25 13 26 14 27 14 28 12 27 13 29 12 29 13 30 11 32 11 31 12 33 10 33 10 33 10 35 9 35 9 33 8 30 8 30 8 28 8 28 7 27 9 25 8 24 13 32 12 31 11 28 11 30 11 32 10 33 9 30 7 33 9 29 6 28 7 25 6 30 7 30 8 27 8 28 7 26 11 22 12 23 6 26 9 24 10 22"/>
<path d="M9095 27712l 0-2 0 26-2 24-3 25-4 25-3 28-2 26 11 23"/>
<path d="M9175 27734l 0-1 22-13 24-4 24 7-5 25-16 21-17 17 18 17 24 3 21 15-3 27-11 22-17 20-24 17-22 12-25-4"/>
<path d="M9203 27581l-3-1-24-6-29-1-29 3-27 7-22 12-24 17-18 17-18 21-18 22-17 26-18 25-17 28-12 31-10 29-6 31-3 31 2 29 7 27 13 28 15 27 19 23 19 19 21 17 21 12 31 8 24 5 25 2 25-1 28-6 28-5 28-9 30-15 27-18 26-24 23-24 22-26 19-25 14-23 11-23 7-25 2-26-5-25-14-25-18-22-18-17-20-17-23-19-25-16-26-18-26-16-27-10-25-8-25-7-29-8-25-1-26 6-23 10-10 23"/>
<path d="M10300 25774l-1 0-14 22-5 27-2 31-1 29-4 34-3 25-3 26-3 27-4 28-4 29-4 33-6 34-7 35-7 37-8 35-9 37-7 37-9 38-7 35-8 37-7 37-7 38-8 40-7 37-6 38-5 38-5 37-6 37-4 34-5 34-3 34-4 33-3 32-3 33-4 29-3 29-2 27-4 34-2 34-1 34-2 32-1 32-2 33-1 29 0 26-2 25-1 29-2 28-4 27-4 25-5 25-4 30-8 26-6 24-6 24"/>
<path d="M9967 27696l-1 0-13 22-1 26 1 25 4 28 5 29 4 25 6 27"/>
<path d="M10068 27728l-2-1-18 15-6 24 5 26 11 22 21 15 27 4 24-4 27-4 22-13 20-18"/>
<path d="M10146 27763l-1 0-15 19 3 26 8 26 11 24 10 24"/>
<path d="M10107 27657l-5-2-24-5-24-1-24 3-25 5-26 7-25 13-24 21-17 20-14 23-13 27-12 30-7 29-5 27-2 26 1 25 2 27 7 23 11 22 21 22 18 17 21 12 23 9 26 2 28 3 32-3 33-7 33-13 23-11 22-14 21-16 20-20 19-19 18-19 15-19 19-27 12-27 7-25 1-30-6-27-16-28-20-22-22-24-26-25-26-24-19-15-29-18-30-16-26-12-24-11-26-11-24-8"/>
<path d="M10425 25751l 0-1 9 23 11 23 10 24 9 27 13 32 9 23 10 24 12 25 12 26 13 28 15 29 15 29 18 28 19 30 21 28 22 31 23 32 23 33 25 35 25 32 25 35 25 35 24 35 26 37 24 35 24 38 25 35 25 34 24 34 24 33 22 32 20 31 21 29 19 26 19 27 18 25 18 22 16 25 15 25 14 26 12 27 12 25 12 25 11 23 11 23 13 32 12 31 11 28 11 25 12 27 13 26 13 20 21 13"/>
<path d="M11279 27528l 0 1-5 25-2 26-1 28-1 30-1 31-1 29-1 26 0 27 1 25"/>
<path d="M11401 27562l 1-1 23-7 28-5 25-1"/>
<path d="M11443 27571l-5 2-23 17-20 19-11 26-6 23 4 26 21 16 28 1 25-2 25-8 25-3 25 0 6 25-18 21-21 20-20 15-21 11-28 13-24 8-25 8-22-12"/>
<path d="M11544 27437l-4-2-23-11-28-9-30-5-32 2-25 4-28 9-28 10-28 12-25 10-27 15-28 18-27 19-26 23-22 25-20 27-18 31-13 32-10 33-4 32 1 35 6 35 11 32 16 30 18 29 23 26 17 18 20 16 20 17 24 16 22 13 24 13 25 12 27 9 28 9 29 7 30 3 30 0 30 0 28-4 29-6 27-9 27-11 26-13 25-17 24-15 21-20 20-21 16-22 16-21 19-30 12-27 6-23 0-28-5-26-10-31-9-26-10-25-13-26-16-26-16-28-17-23-17-21-23-23-23-20-24-13-25-7-24-5-31 0-29 7-27 8-24 11-16 17"/>
<path d="M2946 28434l-1-1-10 22-9 24-10 25-11 24-12 29-11 23-12 26-11 28-14 28-14 28-14 32-14 32-14 36-14 39-14 40-15 41-14 41-14 42-17 42-13 43-14 43-15 44-8 23-13 43-12 43-12 39-11 37-11 34-9 32-7 32-6 32-7 35-8 30-8 30-8 27-10 33-8 32-7 30-4 24-6 23-3 25"/>
<path d="M2247 30003l-1 0-11 23-2 28-1 25 2 28 4 27 7 24"/>
<path d="M2367 29973l-2 2-14 21-8 24-6 29-1 25 1 29 5 25 10 23 17 23 21 12 25 2 23-11 15-23 7-23-9-24-22-11-27 0-24 11-17 21"/>
<path d="M2319 29824l-5 0-27 1-26 7-25 8-24 10-25 14-19 15-16 20-10 22-9 26-7 28-4 37-2 26 1 27 3 28 2 26 4 24 7 35 14 32 17 28 19 26 20 22 22 17 23 15 30 13 26 10 30 4 24-4 27-5 26-8 27-9 28-13 27-18 25-22 20-28 19-27 19-30 11-34 7-33 1-32-4-32-10-29-16-30-21-26-22-24-20-18-21-16-24-17-24-18-23-12-23-11-32-14-30-13-27-9-25-5-24-5-24-6"/>
<path d="M3136 28457l-2-1 16 23 10 29 8 27 10 30 9 25 8 25 9 27 9 29 11 30 11 31 12 33 14 34 13 37 14 38 15 40 15 41 16 44 18 43 14 42 18 42 16 41 15 38 16 38 15 35 13 35 13 33 14 33 11 30 12 28 12 28 10 26 10 28 10 26 7 25 10 26 10 24 9 22 13 31 12 28 12 31 13 29 16 33 9 25 8 25 8 26 10 23"/>
<path d="M3590 30075l-1 1-10 22 0 25 0 26-1 25 1 28 2 27"/>
<path d="M3671 30074l 1 0 25-6 25-6 18 17-5 26-3 25-6 24-5 23-2 26 7 23"/>
<path d="M3730 29958l-4-1-29-5-30 1-27 6-26 9-26 13-26 15-24 16-16 17-19 27-15 27-13 33-12 34-5 24-3 24-1 28 0 30 4 31 7 32 7 28 13 24 18 29 23 25 22 18 27 13 29 7 29 1 30-1 28-1 28-3 24-7 22-15 21-13 19-16 19-21 17-25 9-22 13-30 8-33 5-30 1-32-3-30-8-27-12-24-15-25-20-26-22-27-22-22-27-20-26-16-25-13-25-11-25-10-26-5-25 1"/>
<path d="M4878 28466l-1-1-18 19-11 24-12 29-10 27-8 34-6 24-7 27-7 27-6 26-6 30-7 30-9 33-9 38-8 39-8 39-8 40-6 39-7 41-7 42-6 44-5 41-5 40-4 40-5 38-3 38-6 37-4 38-5 37-4 36-3 34-3 32-4 35-4 32-4 28-4 35-2 27-1 29-3 30-3 26-2 24-1 25-4 28-5 28 0 25 17-17"/>
<path d="M4470 30091l-2-1-18 18 0 27 2 26 1 29 3 26 3 26 3 24 6 23"/>
<path d="M4664 30069l-2-2-24-7-24 4-20 14-17 18-13 20 6 23 24 15 25 12 23 8 22 12 20 15 14 20 1 26-8 24-12 21-23 9-17-18-7-28 1-25 4-28 8-26 11-23 12-21 17-24 20-20"/>
<path d="M4677 30000l-4-2-25-11-28-8-27-6-30-3-28 7-25 7-25 10-27 14-23 14-19 15-22 18-18 19-16 21-14 22-11 23-9 27-6 31-2 36 1 27 4 27 5 28 7 25 10 33 16 28 20 23 22 18 27 14 32 13 35 9 34 2 26 0 26-2 25-4 27-7 22-8 25-12 24-12 23-13 23-16 22-15 20-20 18-21 17-24 15-23 15-24 11-23 10-22 7-31 1-28-2-25-8-25-13-27-18-26-24-28-20-16-21-18-25-19-25-15-25-17-25-16-25-15-25-17-25-11-22-9-31-7-25-4-27-2"/>
<path d="M5033 28385l 0-1 7 29 7 24 9 28 8 23 11 27 12 28 13 30 14 32 14 34 15 35 16 34 16 36 16 33 15 38 16 38 15 41 17 45 17 42 16 44 16 43 13 43 14 40 15 40 14 37 14 37 17 38 14 35 15 34 17 35 15 34 16 35 16 33 14 31 14 29 12 30 13 29 11 27 12 24 13 31 11 32 9 34 8 28 6 24 7 27 5 24 5 26 4 26"/>
<path d="M5515 30115l-1 0-10 25-3 27-3 25-3 27 0 24 2 27 11 24"/>
<path d="M5697 30138l-1-3-12-21-20-15-24 2-22 14-15 21-5 23 8 23 26 0 22-13 8 24 2 26 3 27 3 24"/>
<path d="M5675 30003l-3-2-23-9-26-1-27-2-24 3-26 9-26 12-21 13-19 19-18 22-18 26-17 28-16 30-12 28-9 28-7 29-3 29 0 24 4 29 10 26 12 21 16 18 18 17 25 15 27 11 24 8 26 5 25-1 25-3 30-3 23-9 23-12 21-17 20-19 20-19 19-24 16-27 12-26 12-26 8-30 4-27-3-24-10-27-14-22-14-19-21-20-24-17-20-14-21-16-21-13-26-11-23-8-26-8-25-1"/>
<path d="M6292 28285l-1 1-11 25-8 29-5 31-2 31-3 25-2 27-3 29-4 31-3 34-4 33-3 34-3 34-3 33-1 33-2 34-1 34-2 35-1 37-2 36-2 37-1 37-3 38 0 38-1 40-1 39-1 40 0 38 0 35 0 35 0 34 1 32 2 29 0 28 1 28 1 26 1 25 0 24 1 35 0 36 0 24-1 34-1 36-2 34-1 33-1 29 0 27 1 31 1 25 1 25"/>
<path d="M6125 30107l 0-1 21-13 25-1 24 9 15 21-5 25-13 21-18 19-18 20-22 15-20 18-14 21 26 4 28-4 22-10 27-12"/>
<path d="M6306 30145l-2 1-18 21-11 23-6 24 9 23 19 16 25 1 23-9 21-18 16-20 11-22 3-26-11-24-21-14-25-9-25-5-25-1"/>
<path d="M6243 29957l-2-1-25-5-27 8-22 9-22 15-19 16-19 22-15 22-15 25-13 28-11 26-9 32-6 31-3 33 4 31 8 31 12 28 14 24 15 19 18 17 22 15 26 13 29 6 30 6 35 3 31 4 29-3 27-4 25-6 25-11 25-13 20-14 17-18 16-23 15-26 13-31 10-33 8-33 1-31-3-28-10-27-15-27-18-28-19-24-22-20-25-21-25-20-26-19-27-17-26-16-28-17-26-11-25-10-27-6-25-3"/>
<path d="M6386 28175l-1-1 6 27 9 29 9 31 10 31 11 33 8 23 10 35 8 28 10 29 9 33 10 34 11 36 12 39 11 41 15 41 13 41 14 40 13 43 13 42 14 43 14 43 13 42 15 46 7 23 15 42 13 45 15 43 13 39 13 41 14 38 14 39 13 36 15 35 12 34 13 31 13 31 12 29 12 27 11 27 11 28 13 31 13 34 14 34 11 31 11 28 8 27 8 26 8 25 8 23 9 32 9 27 10 27 9 26 6 24 13-21"/>
<path d="M6945 30143l-1 0 25-5 24 6 17 17-4 25-13 21-15 19-16 20-21 20-19 21-11 21 26 5 25-6 25-7 28-10 25-8"/>
<path d="M7122 30128l-2 0-15 20-1 25 2 28 5 26 8 24 19 15"/>
<path d="M7146 30006l-2-2-23-11-26-6-27-3-28-1-30 3-28 9-28 13-21 13-25 15-26 21-25 21-25 23-22 25-20 24-17 26-14 28-11 32-6 28-2 25 4 30 7 26 13 27 14 22 19 17 23 12 24 11 27 5 27 4 27 1 25-2 27-4 29-7 29-9 28-12 28-15 27-17 26-20 25-23 25-25 22-27 18-25 13-23 11-28 4-25 0-24-6-24-15-24-22-24-19-19-23-22-24-17-23-15-29-11-26-5-25 0-29 4-25 11-20 13-6 23"/>
<path d="M2044 33262l 0-1-3 28-1 25-2 30-1 26-1 26-2 28-1 28 0 27-1 25-1 26-1 27-3 28 0 26"/>
<path d="M2170 33311l 0-1 21 17 9 27 5 28 3 25 2 28 0 30 0 26 1 25 0 28 1 29-1 27 4 26"/>
<path d="M5198 33398l 1-1 14-19 10-22 2-25-13-21-22-10-26 3-22 12-12 22-3 24 12 23 17 18 22 16 21 13 22 14 19 17 16 18 12 22 3 27-9 25-12 21-19 18-26 7-27 0-22-13-17-22-9-27 0-26 4-28 8-25 11-22 18-20 21-17"/>
<path d="M5406 33601l 0 0-6 24-7 25-10 23-8 23-11 26-13 24"/>
<path d="M5538 33348l 0 0-1 28 0 27 2 26 1 26 0 28-2 30-1 28-1 29 4 27"/>
<path d="M5818 33357l 0-3-3-24-8-25-17-17-25-8-25 4-22 16-18 21-16 23-4 24 5 26 14 20 21 18 24 14 27 10 28 8 29 7 25 9 25 15 18 20 6 25-6 25-15 18-21 20-27 17-30 10-30 4-26-1-26-12-16-18-10-22-7-26 4-27 9-29 11-22 13-23 14-23 15-22 17-21 18-19 19-19 25-18"/>
<path d="M2338 33645l 0 0-5 25-3 24-6 24-5 24-9 24"/>
<path d="M2514 33364l 2-2 22-10 22-13 27-6 27-2 26 4 19 15-6 25-19 19-14 22-19 20 23 10 26-2 25 2 23 5 24 7 21 12 7 24-5 23-11 24-14 20-22 14-24 3-24 4"/>
<path d="M1834 34731l-1-2-26 7-16 25-12 25-9 22-11 24-12 29-13 30-14 32-15 35-8 26-8 28-4 28-4 29-2 26 0 25 1 35 6 30 12 30 14 21 20 21 21 16 24 9 30 0 25-6 24-13 17-18 13-22 12-26-2-27-7-28-16-22-22-17-22-12-28-3-25 10-23 12-17 20-8 27"/>
<path d="M2056 35029l 0-1 24 5 28 4 27 0 24 2 26-5"/>
<path d="M2118 34981l-1 0-5 27 2 25 2 25 5 25 4 29 2 24 4 25"/>
<path d="M6649 33959l 0 1 16 19 20 19 16 20 12 24 9 24 8 23 25-15 15-33 14-30 13-36 13-35 14-36 14-37 13-35 14-34 13-34 13-29 13-25 12-22 14-28 14-24 13-26 12-24 11-23"/>
<path d="M8921 23617l 0-1 2 26 12 21 13 24 15 22 16 19 19 15 17 22 14 21 9 23 11 23 11 22 14 23 13 21 14 21 15 22 15 23 19 21 18 22 17 24 15 22 15 24 18 24 18 23 17 25 15 19 16 22 17 22 19 20 18 17 19 18 19 18 19 20 18 23 20 23 21 23 21 25 21 22 21 22 21 21 21 20 20 21 16 22 17 19 20 21 14 20 17 19 22 20 19 18 17 20 19 21 16 19 19 20 18 22 15 21 17 22 13 22 9 23 14 22"/>
<path d="M6148 30669l-1-2 26 4 24-9 22-10"/>
<path d="M6292 30561l-1 0 24-7 22-8 23-15 24-8"/>
<path d="M6323 30563l-1 0-16 20-10 25-4 27 0 26 10 22 26-7 24-11 23-10 27-3 24-1 24 4-7 25-15 22-16 19-18 18-16 21-24 16-25 12-25 9-24 4"/>
<path d="M6464 28001l-1-2 25-7 24-8 22-12 23-9"/>
<path d="M7649 28159l 0 0-19 18-12 23-11 24-13 28-8 24-7 24-7 26-6 27-3 24 0 30 3 26 10 27 15 19 24 12 25 5 27-2 24-12 16-19 3-25-12-25-21-15-27-5-26 5-23 15-16 19"/>
<path d="M2199 30551l-1 0 26-2 28-1 26 0 26 8 24 9 19 16 7 25-4 25-12 25-17 23-16 18-17 18-22 16-22 15-24 16-23 15-22 13-23 12-23 15 25 7 28-2 24-2 26-2 28-1 26-1 26 1 24 4"/>
<path d="M3439 30752l-1 0 28-4 25-6"/>
<path d="M3616 30631l 0 0 25-14 27-2 24-9"/>
<path d="M3672 30619l-1 0-19 17-11 22-12 25-9 25 4 25 22 9 28-6 22-9 24-6 28-5 24-1 25 9 21 12 9 24-10 23-13 21-18 20-22 13-22 13-23 8-27 2-24 1-25 2"/>
<path d="M6557 27868l 0-1 20-13 24-12 23-13 22-13 22-11 12 22-3 27-6 28-3 25-6 29-4 27-3 25-4 27-2 25-1 26-4 24"/>
<path d="M5131 28256l-1-1 21-13 22-9"/>
<path d="M5258 28162l 1 2-1 25-3 26-2 26-3 26-4 25"/>
<path d="M5345 28179l 0 1-16 20-11 23-2 27 3 26 15 21 23 11 25-6 19-15 14-21 10-26 5-24-6-23-18-17-25 8"/>
<path d="M3322 28313l-1-1 25-10 24-7"/>
<path d="M3483 28181l-1-1 20-15 24-10 24-9 25-7 23-6 2 25-19 21-16 21-14 20 2 25 26 0 26-1 26 4 24 7 17 18-9 24-16 20-17 19-20 18-24 13-24 12-27 7-25-1-20-14"/>
<path d="M5470 28364l 0 1 4 25"/>
<path d="M5548 28300l-1 0 25-5 25-4"/>
<path d="M5655 28224l 0-1 24-7 24-9"/>
<path d="M5674 28224l-1-1-15 21-8 25 1 24 24 4 23-9 23-9 25-2 11 23-9 24-16 21-18 18-25 5-23-6"/>
<path d="M6758 28128l-1 0-7 24-14 22"/>
<path d="M6807 28039l 0-1 23-8 22-11"/>
<path d="M6891 27956l 0-1 11 22 8 24 4 25 0 26 1 25 1 26 2 25"/>
<path d="M6835 25838l 0-1 25-7 25-1 25-3"/>
<path d="M7076 25704l 0-2 12 22 1 25-1 25-1 27 0 28-1 26 0 25 2 25 1 25"/>
<path d="M4500 26048l 0 0 23 5 25-7 25-9"/>
<path d="M4696 25926l 0 0-5 27-3 27-3 27 0 27-4 28-2 27-3 24 3 24"/>
<path d="M4745 25925l 0-1 18-19 24-10 25-8 24-7 1 27-8 27-8 24-9 25-8 29-4 25-3 27-6 28-3 25 1 25"/>
<path d="M4928 26150l-1 0-17 20-2 25-1 25"/>
<path d="M5031 26017l 0 0 23-9 23-7 24-1"/>
<path d="M5227 25871l-1 0 1 27 4 26 4 27 3 28 1 25 2 24-2 27-1 26"/>
<path d="M6104 23650l-1 0 23-9 25-8 24-9"/>
<path d="M6273 23537l 0-1 3 24-1 30 0 27-1 27-3 24-1 26 1 26 4 27"/>
<path d="M6486 23523l-1-2-16-21-23-6-25 6-20 14-17 22-9 24 9 25 20 17 22 13 24 14 22 11 22 15 14 22 5 27-10 23-15 21-23 11-24-4-22-12-11-23 2-26 8-23 11-22 15-19 15-22 16-20 19-19"/>
<path d="M9282 23334l-1 0-18 20-15 25-12 25-12 25-9 27-6 29-2 29 2 25 6 24 14 22 21 16 23 9 25 4 23-5 23-12 13-23-5-24-18-18-23-11-26-4-26 0-22 9-18 18"/>
<path d="M9277 25857l-1 0-7 24-5 25"/>
<path d="M9395 25703l 0 0 3 26-2 26-4 24-4 27-4 26"/>
<path d="M9450 25712l-1-1 21-13 24-9 26-9 25 2 19 14-12 24-19 19-16 21-17 16 23-5 25 0 21 11-4 26-11 21-15 22-17 16-24 11-27 1-23-9"/>
<path d="M9430 23342l-1-1 18-18 28 2 24 3 25 6 24 10 17 17-17 20-17 19-20 15-23 17-22 11 24-11 26-6 26-1 25 3 24 5 19 16 8 26-6 25-12 22-15 18-19 16-25 9-27 2-26-5-26-8-18-16"/>
<path d="M7700 21566l 1-2-14 25-10 22-11 22-10 25-10 24-9 23-3 25 20 16 27-4 27-9 25-10 26-9 25-9 25-9 23-10"/>
<path d="M7758 21613l-2 0-17 17-3 26 1 27 4 30 4 30 3 28 2 25 2 24 7 23"/>
<path d="M7940 21552l 0 0 20-14 23-8 27-9 25-9 23-9"/>
<path d="M7965 21557l-2 1-13 20-4 27-1 25 0 25 3 26 25 8 23-13 22-14 24-13 24-14 22-9 27-5 24-1 22 13 1 26-10 26-16 23-20 20-22 17-24 14-25 9-29 3-28 0-28-6"/>
<path d="M8730 25644l-1 0 25-11 28-9 27-7 24-5 24-1-6 25-21 19-22 16-21 14-18 18 25 5 26-4 27 1 25 6 16 19-7 26-15 19-19 17-21 16-22 14-24 11-25 1"/>
<path d="M9060 25623l-3-2-27-8-25 2-25-2-27 5-20 16-7 25 17 21 25 16 25 10 27 6 26 9 23 11 17 17-6 28-19 20-25 14-27 9-26-2-16-18-5-24 3-24 10-24 12-23 15-26 19-21 21-22 22-20 24-18"/>
<path d="M10625 25538l-1-1 21-16 25-9 25-4 26-1 18 16-15 23-22 19-24 17-23 19-19 19-22 19-12 22 13 22 27 4 24-2 23-7 26-10 28-10"/>
<path d="M10897 25502l-1-2 15-19 27-11 25-7 26-5 25-5"/>
<path d="M10924 25484l-3 0-24 7-17 19-4 26 0 24 15 20 28 4 28-1 25-3 26-3 28 2 28 5 18 16-16 20-21 13-25 12-24 9-23 6-28 0-25 1-22-11"/>
<path d="M8341 28238l-2 1-19 16-20 21-15 23-11 23-7 26-2 29 6 28 12 22 18 19 24 15 26 3 26-3 18-16 1-25-14-23-23-15-25 2-22 12-20 17-13 21"/>
<path d="M9091 28224l 0-2-24 14-17 24-15 22-14 25-10 25-6 25 0 27 5 24 13 23 20 16 23 12 26 1 24-7 21-16 4-27-13-22-22-15-27-1-24 7-22 12-12 23"/>
<path d="M9988 28244l 0-1-2 28-4 25-3 26-4 27-6 31-5 28-6 25-4 27 6 23"/>
<path d="M10182 28227l 0-2-6-25-23-11-26 7-19 15-17 24-14 25-10 22 4 25 24 9 28-6 21-12 22-15 17-20-8 26-5 24-5 24-3 26-6 27-5 30-2 27"/>
<path d="M11493 28128l-2-1-25 7-18 20-14 23-11 28-9 28-6 28-1 26 0 29 8 26 20 19 25 9 28 1 24-10 23-13 9-25-12-22-23-9-27 3-22 9-23 14"/>
</svg>
