<svg xmlns="http://www.w3.org/2000/svg" viewBox="1113 1976 9702 9747" stroke="black" stroke-width="16" stroke-linecap="round" stroke-linejoin="round" fill="none" data-xena="0 0 0"><style>@media(prefers-color-scheme:dark){svg{background-color:black;stroke:white;}}</style>
<path d="M1422 2333l-2-1 29-4 30-7 30-11 24-9 28-11 29-13 32-14 33-16 31-17 31-18 31-18 31-19 33-18 30-17 25-16 22-14 27-17 21-14-24 14"/>
<path d="M1622 2319l-1-1 16 18 13 23 14 28 15 25 13 30 9 34 7 23 6 25 8 26 7 28 4 29 2 30-1 33 1 31 0 31-1 31-2 29-4 30-5 28-7 26-8 23-10 23-11 22-20 29-20 22-23 16-23 8-26 1-26-10-22-13-18-21-17-25-11-31-11-29-9-27-1-31"/>
<path d="M2032 2830l 2-4 11-24 12-24 11-25 3-27-3-25-16-18-24-10-30 7-21 13-24 19-22 23-21 26-17 27-13 28-9 28-1 25 2 28 13 27 21 15 26 0 26-9 27-17 17-17 16-23 14-20 11-22-22 10 0 25 0 28 13 20 25 11 25-5"/>
<path d="M2280 2698l-3-2-25-1-24 16-19 17-16 22-16 21-8 25-7 29-1 28 8 22 19 20 23 8 25 3 31-5 30-7 32-10 34-12 23-8"/>
<path d="M2496 2769l-3-2-27 0-21 13-11 24-5 27 5 27 16 24 20 16 28 4 29-3 24-11 18-19 7-25-11-25-20-15-25-6 28 0 26-12 23-12 29-15 21-11 22-12 22-15 22-15 22-17 24-18 24-19 22-20 22-22 20-21 19-22 16-24 15-25 14-28 12-32 15-31 8-32 6-32 4-30 0-29 0-24-3-30-11-26-20-16-25-1-25 11-19 17-17 24-13 21-11 25-12 27-9 32-10 35-9 41-4 42-8 45-4 45-5 46 0 44 0 45 2 42 6 39 2 37 7 33 8 30 7 26 10 24 11 22 17 26 17 17 21 11 24-7 20-24 14-28 8-36 6-27 2-25 1-25-5-34-6-28-8-25-20-15 24 5 28-3 27-6 25-4 26-4"/>
<path d="M3966 2265l 0 0-7 28-6 28-7 27-9 34-5 25-7 28-7 30-10 33-12 35-15 35-15 38-17 39-19 40-22 40-19 40-20 39-20 37-15 37-16 33-12 28-7 26-9 29-6 23 17 19 29-5 22-9 25-11 29-11 34-13 25-9 25-12 27-10 27-10 27-11 28-7 28-9 27-10"/>
<path d="M4276 2802l 1-5 4-24 2-26-2-25-13-20-24-7-26 9-25 14-23 16-24 21-21 24-22 27-19 26-14 25-7 30 5 28 22 19 24 6 26-2 23-9 24-10 21-12 23-19 20-18 12-23-20 15 17 22 26 12"/>
<path d="M4552 2762l-1-2-10-26-9-26-13-22-27-9-29 10-22 12-22 18-21 21-21 25-22 25-14 27-10 25-1 30 4 27 15 23 29 8 23-5 25-14 29-17 29-19 25-19 22-20 16-19 13-21 5-24-21 11-14 24-13 29-9 24-9 28-8 32-6 24-5 26-6 27-5 28-7 31-8 32-7 34-7 37-10 34-11 36-12 35-13 35-15 33-13 32-12 30-15 28-14 27-12 25-21 27-15 20-21 14-23-9-13-30-7-25-1-30 0-35 3-40 5-45 8-45 10-45 13-44 16-39 18-35 18-30 20-27 21-25 23-23 23-20"/>
<path d="M4712 2798l-1-1 25 0 28-6 28-10 22-10 21-12 22-16 16-20 0-26-19-19-22-13-31 1-27 12-22 13-20 18-22 21-24 26-17 28-10 28-4 26 5 30 15 25 22 20 29 12 25 3 29-1 33-9 24-9 25-13 25-12 25-16 25-15 23-17"/>
<path d="M5056 2668l-2 0-24-6 26-4 25-3 29 0 26 2 25 7-7 26-22 20-25 20-18 18-19 18-18 20-14 20-14 24-7 26 10 23 24 3 32-9 29-13 33-16 24-12 26-13 26-13"/>
<path d="M5299 2640l-3 0-25 2 25-7 27-4 26-3 27 1 28 3 24 6 7 25-20 21-21 17-22 15-21 18-22 17-21 18-21 22-14 25 5 25 24 12 27-3 27-8"/>
<path d="M5571 2680l-2 0-26 4-26 11-22 15-21 16-20 22-6 27 7 25 21 13 28 4 27-4 30-7 22-10 22-13 22-18 17-22 3-26-13-21-21-18-22-14-23-11 22 16 26 6 25 2 30-2 24-5 24-6 30-9 27-13 25-17 21-16 19-20 10-23-16-19-2 27 11 23 13 21 15 23 15 26 13 26 10 23 9 23 6 25-5 26-17 16-27 13-26 5-30 1-29-3-25-2-24-4 21-12 25-4 26-3 30-2 24-1 26 0 26 1 29 0 29 0 26-1 28 4"/>
<path d="M2693 3824l-1-1"/>
<path d="M3077 3585l 1 0 4 29-3 25-4 32-6 24-8 26-10 28-12 29-14 30-14 34-16 35-17 35-20 37-20 37-20 36-22 34-19 32-18 30-17 27-11 25-11 22-11 27-8 26 6 23 28-6 28-14 28-15 32-18 23-10 22-11 22-11 33-13 24-7 23-7 31-7 28-6 30-2"/>
<path d="M3305 3985l-2-1-15 27-10 25-9 29-7 28-9 29-6 29-5 27-5 30 1 27"/>
<path d="M3340 3824l-1 0"/>
<path d="M3545 4038l-1-3-18-22-21-15-24-6-26 7-24 11-22 19-19 23-14 22-11 22-5 28 8 26 19 18 30 0 27-9 28-16 18-16 19-21 13-21 6-24-15 24-4 26-3 27-1 31-1 25-1 27-1 29-2 30-4 31-8 32-10 35-9 25-10 24-12 24-14 24-12 21-13 21-19 28-19 24-18 16-24 13-26 0-24-21-9-25-5-33 1-26 1-29 4-31 6-30 8-31 9-30 10-30"/>
<path d="M3716 3670l 0-1 7 28 0 29-2 29-7 33-6 24-6 26-8 29-8 32-9 32-11 33-11 33-11 32-12 32-11 32-11 29-11 28-9 24-13 31-7 26 20-22 12-23 17-28 15-29 16-30 14-28 15-27 16-23 13-22 22-28 17-22 20-23 20-19 24-4-1 26-8 28-10 27-15 28-13 30-15 31-10 30-9 28-6 27-4 26 4 25 26 2"/>
<path d="M4030 3673l 1-1 22 10 13 24 6 27 0 24-2 30-7 31-8 35-8 24-9 26-8 26-11 26-11 24-10 24-12 24-11 22-18 30-12 27-10 24-8 24-1 25 25 8 27-15 27-18 20-15 22-17 19-17 19-18"/>
<path d="M3932 3932l-2-1 21-16 27-13 27-9 32-10 24-6 24-5 36-6 24-4"/>
<path d="M4296 3938l-1-2-26-3-22 19-20 20-18 24-17 27-11 23-3 25 14 22 23 8 28-2 24-7 26-10 26-11"/>
<path d="M4422 3966l-4 0-24 5-24 11-20 16-10 22-6 24 0 24 12 23 23 7 27-10 22-11 20-16 20-20 11-23 3-25-9-23-12-21 23-13 25-5 26 2 17 20 3 24-5 26-10 27-11 26 25-17 17-21 21-23 19-24 17-24 18-20 22-22 18-16 21-12 4 26-10 27-13 27-13 26-11 25-6 25 0 25 26 4"/>
<path d="M4831 3962l-3 0 30-5 29-7 30-9 28-10 23-14 15-19-4-25-22-14-25-5-25 5-22 14-21 18-22 21-19 22-15 22-9 28-4 26 6 26 17 19 30 7 29-2 24-4 26-7 30-9"/>
<path d="M5646 4022l 0 0 27-5 21-14 22-17 25-20 28-24 32-28 31-27 30-28 29-27 28-29 28-29 24-30 22-30 17-30 12-27 10-26 3-24 4-30 1-29-12-23-27 2-19 16-22 26-18 24-18 28-20 34-19 39-11 22-11 22-11 23-11 23-11 25-11 25-9 26-10 26-10 26-8 27-9 28-8 26-8 27-6 27-7 27-6 24-5 25-4 25-8 46-5 43-3 36 0 34 3 29 4 25 9 31 17 25 29 7 27-18 21-29 14-24 13-25 10-31 8-30 4-32 2-31-2-32-4-31-6-30-8-28-8-26-8-23-11-26-14-21"/>
<path d="M6092 3841l-2-2-25 0-22 11-21 21-16 23-14 27-10 26-4 28 9 26 25 13 26-3 26-12 26-19 21-20 16-20 7-26-9-23-22-17-23-10 17-22 24-10 23-8 24-9 25-7 25-4 24-4 24-2-2 24-11 22-14 25-14 24-10 25-4 24 26 9 22-13 21-16 25-19 26-22 25-19 21-17 22-20 15-20-25 6-11 22-7 23-3 25 5 27 20 17 25 2 26-8 24-12 26-16 24-15 25-18 20-18 21-21 14-22 5-25-24 8-15 21-10 22-11 24-12 26-10 26 26 2 23-19 20-20 20-20 18-21 18-20 20-24 18-16 17-18 8 24-3 27-5 26-8 23-13 25-11 24 18 19"/>
<path d="M7009 3795l-1-2-10-25-21-13-25 4-23 8-26 12-27 18-20 16-19 18-17 17-16 26-8 25 2 24 18 19 23 7 25-5 23-10 27-16 28-18 28-22 19-18 18-18 19-21 16-21 16-22 14-23 13-24 10-26 10-27 9-31 7-30 8-32 6-30 5-27 4-26 1-31-3-30-12-21-25 15-15 28-12 28-11 34-8 24-7 26-6 27-7 27-7 28-6 29-6 28-5 27-4 27-4 25-3 35 0 29 0 25 7 27 18 17 28 1 22-9 26-16"/>
<path d="M7202 3770l-2 0 22 14 26-8 23-12 18-17 8-25-22-13-29 7-24 10-25 14-20 13-23 18-20 19-18 17-15 23-6 24 3 26 12 22 22 14 25 3 33-4 28-7 31-12 22-11 22-11"/>
<path d="M7420 3709l-2-2-24-6 21 11 27 5 27 6 25 9 18 17-5 27-17 23-17 18-19 17-19 17-20 19-11 24-1 26 14 19 22 10 29 2 28 0"/>
<path d="M2431 5311l 0-1"/>
<path d="M2742 5118l-1-2 6 23 1 33-1 28-2 31-4 34-5 37-5 39-6 42-7 43-5 40-6 38-4 36-3 32-2 28-1 24 0 24 10-23 5-29 7-36 8-41 7-44 8-49 3-25 5-25 4-26 3-27 3-25 3-24 6-44 3-38 2-29 1-32-2-25-2 25 3 35 4 27 5 29 6 30 10 30 10 30 14 29 13 29 14 28 15 26 13 20 23 25 23 16 26 10 28-5 21-21 13-27 10-25 9-28 8-32 4-31 3-32 0-32-3-33-5-33-5-33-6-30-8-28-8-26-15-30-11-23-17-19-23 6 4 28"/>
<path d="M3184 5409l-2 0 29-5 27-9 23-13 18-15 14-21 1-24-17-19-23-13-26 2-24 13-17 19-17 25-10 27-6 30-4 32 4 27 8 24 17 25 23 16 26 5 32-2 29-4 30-12 21-12"/>
<path d="M3449 5375l 0 0 22 12 26-4 24-10 22-15 10-24-18-18-25-3-28 6-22 18-14 20-14 20-12 23-4 24 4 28 21 20 25 11 25 6 25 0 29-6 27-9"/>
<path d="M3809 5366l-3-2-26-6-24 5-19 19-17 20-12 25-4 25 6 25 17 16 28 2 22-12 24-22 18-21 18-26 15-31 14-31 10-34 9-32 4-25 2-25 1-29-1-28-1-27-1-28-4-32-5-27-8-26-17-18-25 9-10 24-7 23-6 28-3 31 0 35 0 25 1 27 1 28 3 27 3 27 5 26 7 26 8 26 10 22 15 31 17 25 21 17 26 18 27 8 27-2"/>
<path d="M4119 5319l-2-2-22-9-21 16-16 18-12 22 6 24 28 4 25 2 25 0 24 2 23 7 18 21-1 27-8 23-12 21-17 22-27 7-25-8-23-20-21-20"/>
<path d="M4742 5443l-1-1 24-18 19-16 25-23 19-18 20-22 23-24 22-25 24-28 22-31 21-33 18-34 17-35 14-34 12-34 10-31 9-28 5-25 5-35 3-31 0-25-3-27-15 24-11 31-9 25-9 27-10 29-12 32-11 34-11 37-9 38-6 36-6 36-4 34-2 32 1 30 3 29 4 25 6 25 10 31 14 23 19 21 22 11 28-5 20-15 23-22"/>
<path d="M5153 5285l-1 0-22 11-9 22-2 25 0 28 8 24 18 17 25 1 22-17 21-21 13-20 12-27 6-25-8-24-16-20-25-9 21 16 24-6 29-9"/>
<path d="M4845 5187l 1-1 20-13 27-6 29-7 27-6 31-3 34-5 36-5 24-4 25-2 25-3"/>
<path d="M5620 5374l 0 2 2 25 26-5 22-14 21-19 24-28 19-21 20-23 22-23 24-26 24-28 22-29 22-31 20-33 17-33 13-31 10-32 6-28 3-25-1-31-5-24-12-22-20-13-28 13-20 25-12 22-12 24-14 26-13 30-15 30-14 34-13 37-10 37-8 36-5 35-1 32 2 31 5 27 8 25 16 30 20 21 21 16 21 11 29 3 27-5 21-18 16-27 9-26 0-29-9-28-14-22-22-18-23-10"/>
<path d="M5983 5277l 1 1 24-1 25-4 27-8 23-9 9-23-17-18-24-11-25 3-23 9-21 16-19 22-15 22-13 29-6 25-2 28 2 26 6 23 15 25 23 18 24 10 25 5 31-1 35-9 24-9 25-12 24-15"/>
<path d="M6545 5381l-2 1-18 19-13 27-8 27 18 17 27-5 26-9 20-13 23-18 27-20 30-28 33-29 19-16 16-17 19-17 18-17 18-19 17-18 18-19 17-19 17-19 17-19 15-22 16-20 14-22 14-21 11-21 11-22 18-42 13-38 6-35 5-31 0-25-5-29-17-18-26-3-30 16-16 18-19 22-19 26-19 30-22 34-19 38-21 42-10 23-12 24-10 23-10 26-12 27-9 28-10 30-9 30-9 32-9 32-9 33-7 32-6 32-6 32-4 31-4 31-4 29-2 26-2 27 0 26 0 25 2 45 7 38 9 34 12 27 14 22 21 22 23 11 31-3 24-18 16-20 14-26 13-30 11-34 8-33 4-36 2-37-2-38-5-38-7-37-8-34-11-31-10-24-16-30-19-21-25-10"/>
<path d="M6960 5277l-2 0-24 5-22 10-20 18-15 25-4 27 6 26 20 15 28-4 24-8 24-12 20-16 14-22-6-26-21-11-27-9-25 1 25-9 23-12 21-11"/>
<path d="M7102 5212l 1 0 24 1 26 4 24 10 12 22-13 24-20 18-20 16-20 14-18 17-14 25-7 24 14 21 28 0 28-7 25-9 28-13 28-14"/>
<path d="M7344 5243l-1-1-24 9-18 18-18 20-15 24-12 24-1 26 16 20 26 7 26-2 24-11 19-17 17-19 10 22 16 21 27 6 28-10 24-17 18-21 12-24 0-24-10-26-15-20-17-18-24-8"/>
<path d="M7732 5262l-3-3-18-19-24-10-22 9-22 18-17 19-15 22-1 25 24 11 24-8 22-11 23-11 8 23 12 22 27 0 27-11"/>
<path d="M7856 5236l 0-2 17-17 25 6 23 10-5 24-19 16-19 18-11 22 3 27 16 22 26 9"/>
<path d="M8216 5232l 0-1-14-19-23-14-27 4-28 10-23 15-24 19-22 22-15 23-7 27 1 26 15 21 29 4 27-9 25-14 25-21 25-23 16-18 22-28 21-28 11-22 11-24 9-27 7-31 6-29 6-32 7-34 4-33 5-31 1-28 0-24-3-29-10-25-19-19-27 8-17 26-10 23-8 33-4 25-3 32-3 31-4 34-2 35-3 34-2 36-2 35 0 34 1 30 3 29 3 28 5 25 5 24 9 28 14 25 23 16"/>
<path d="M8475 5156l 0 0 27-4 27 1 28 0 29 0 31-1"/>
<path d="M8902 5183l 1-1 12-22 2-24-18-18-29 1-25 12-21 13-19 16-19 18-17 19-17 24-15 24-10 25-5 30 7 25 20 14 27 5 25-4 32-14 23-12 24-16 24-17 21-20 22-23 18-24 15-28 14-26 10-29 8-29 6-30 4-31 2-32 2-34 2-33 1-35 1-29 1-25-2-27-10-22-14 25-10 22-10 30-6 24-6 26-5 27-5 31-6 30-5 32-4 34-4 31-2 34-2 31 1 32 1 29 4 25 8 30 11 22 20 22 25 5 24-12"/>
<path d="M9146 5162l-2 0-19 14 25 9 24 0 24-5 23-10 19-16-8-23-25-11-25-1-28 14-22 21-17 19-17 22-15 23-10 23-4 26 7 25 18 19 27 11 30-5 26-8 28-12 29-15 28-17 24-17 21-17 17-18 14-20-13 22-9 23-6 26-9 29-4 30-4 32-4 26-3 26-5 26-5 28-7 27-5 26-6 27-6 25-7 35-5 29-4 25 8-26 10-33 7-26 8-28 7-30 7-30 8-34 7-36 6-35 6-35 6-32 5-28 4-24 5-29 4-25 4-25 9-25 24-15 26-5 28 5 22 9 21 17 10 24-12 26-22 24-22 19-24 19-24 17-22 15-21 18"/>
<path d="M9471 5286l 1 2 29 1 22-11 21-13 22-19 24-21 25-25 23-25 15-19 14-22 14-24 13-27 11-29 11-30 10-30 11-31 8-28 7-28 5-26 5-33 1-29-9-23-25 6-18 18-15 21-16 30-11 23-11 25-11 28-10 27-8 29-7 30-7 30-5 31-4 30-2 27 0 25 3 34 8 27 12 21 17 17 28 12 25 0"/>
<path d="M9840 5169l-3 0-26 1-25 10-16 18-10 24 0 24 8 27 19 17 26 5 25-4 21-11 17-21 0-26-18-19-21-12 20-19 24-10 27-9 24-11 23-6 27-5 25 2 2 24-10 23-16 29-11 24-11 26-8 22-4 25 3 24 26-2 20-16 24-22 25-26 16-18 22-28 14-20 18-29 17-26 14-26-24 14-13 24-9 30-7 31-7 34-6 37-6 25-7 26-5 27-5 28-6 26-6 28-8 27-9 28-10 27-11 28-11 28-11 28-11 29-12 25-10 24-13 22-17 27-15 19-22 12-12-25-2-26 3-37 4-30 6-35 7-40 8-41 9-42 10-42 10-39 11-37 11-33 11-28 10-25 18-30 18-26 21-23"/>
<path d="M10257 5164l 0 0 29-2 23-5 26-8 23-12 24-13 16-21-11-23-22-11-25-3-26 5-26 12-23 17-22 19-17 21-11 22-3 29 6 23 16 23 21 17 24 8 30 2 29-2 30-5 32-10"/>
<path d="M10617 5147l-2-3-16-20-24-9-25 7-25 11-21 12-21 16-18 19-18 24-13 24-4 27 12 23 25 11 25-8 24-13 28-20 27-22 18-19 17-18 15-20 14-20 13-20 11-23 10-24 8-27 7-28 8-29 6-31 5-32 3-32 3-29 2-28-2-31-9-29-15-19-24 1-22 18-14 21-13 28-7 24-5 27-3 30-2 30-1 30-2 31 1 32 1 31 2 29 3 28 4 25 3 25 6 33 5 31 8 26 11 26 16 22 18 19"/>
<path d="M2402 6494l-3-2"/>
<path d="M2866 6271l 1-2-22-15-24 9-31 13-25 15-26 18-26 19-23 16-25 19-15 20 2 26 22 11 30 2 28-4 32-4 32-6 32-2 28-1 29 2 24 5 25 12 21 21 9 25-5 30-10 25-15 24-20 24-25 26-18 19-18 17-21 15-21 14-21 10-24 11-33 12-32 9-30 2-25-3-27-15-13-21-4-27"/>
<path d="M3005 6170l-2 0-14 25-4 28 0 25 0 30-2 35-2 28-2 29-1 30-2 34-4 33-6 33-5 33-4 30-5 27-5 24-6 31-6 29 4-25 14-33 10-26 12-24 14-23 13-22 20-27 17-20 20-18 22-11 20 17 5 29-1 28-4 24-8 31-7 28 1 25 16 19 28-2"/>
<path d="M3268 6525l-1 0-24 7-18 22-12 25-7 26-3 26 13 23 25 2 23-7 23-16 18-19 12-22-6-25-20-19-28-8-28-3-24-3"/>
<path d="M3434 6468l-4-2 20-18 28-2 26 2 23 5 7 24-15 19-21 19-22 19-19 20-15 19-15 19-1 25 23 11 30-7 28-11 28-16 30-16"/>
<path d="M3759 6193l 0-1-24 5-6 26-5 27-4 32-3 29-5 33-6 35-7 34-2 28-5 23-9 35-10 33-3 30 3 31 3 24 10 22 27 2 27-8 22-14 24-17 21-20"/>
<path d="M3617 6422l 0 0 25-7 27-10 28-10 28-5 28-7"/>
<path d="M3925 6437l-5-2 25-9 29-4 24 1 28-2 32-4"/>
<path d="M4297 6241l 1-2 9 24-7 31-10 30-10 35-7 24-9 25-8 25-10 25-10 25-8 24-11 33-9 28-6 29 1 25 17 19 27-2 26-7 29-17 22-13 20-20 21-18 19-18"/>
<path d="M4191 6428l-1 0 21-14 25-9 25-10 30-9 32-7 33-7 33-5 35-4"/>
<path d="M4407 6476l 0 0 26-1 24-8 30-11 25-10 26-11 23-9 22-11 20-15-17-16-27-3-26 5-25 10-20 15-20 26-15 25-13 27-11 28-6 29-2 25 6 29 16 22 21 15 26 8 26-1 29-7 30-11 31-14 21-13 31-19 20-15"/>
<path d="M4730 6425l 0-1 27-6 28-2 24 3 21 12-2 24-20 22-20 19-23 20-21 19-19 20-15 23-7 24 19 21 30 0 30-9 26-11 26-14 26-15"/>
<path d="M4961 6437l-2 2-14 21-1 25 0 28-1 27-3 26-1 26 20-15 16-20 18-25 16-25 15-23 13-21 15-22 14 20-7 29-6 24-3 25 0 25 18-16 17-25 18-24 15-21 16-20 19-17 11 21 10 25 4 24 3 29 6 27 16 19"/>
<path d="M5409 6362l-1-2"/>
<path d="M5432 6467l-2-1"/>
<path d="M5749 6418l 2-2 19-15 18 18-3 26-7 27-9 22-10 24-12 23-12 22-13 24-12 24 17-28 17-28 12-21 14-20 21-29 20-25 20-24 16-18 16-20 21-16 25-2 10 27-5 28-7 28-8 26-8 24-8 23-8 28-3 25 6 26 25 9 26-5 24-9 25-14 23-17"/>
<path d="M6071 6469l 0 0-10 22 25 1 27-11 25-12 22-14 24-15 17-20-16-21-27-2-28 5-23 9-22 13-22 18-19 22-13 25-10 22-5 25 5 25 18 19 25 5 24 1 30-2 33-5 23-5 23-7"/>
<path d="M6340 6451l-2 0 22 11 28 0 26-6 24-12 25-14 16-18-13-22-28-1-25 4-28 8-23 14-22 16-16 20-9 27-1 26 6 25 16 24 21 15 28 10 27 5 32-3 32-7 23-8 31-14"/>
<path d="M6701 6404l-2-1-25-8-25-1-24 8-25 16-23 16-18 18-13 21-11 26-1 28 15 22 22 10 25-6 28-13 24-15 24-21 24-27 22-28 20-29 12-24 12-23 9-27 10-29 7-29 7-32 7-33 5-32 5-33 3-31 1-27-1-26-4-29-12-23-21-12-20 16-12 27-10 31-8 32-5 26-5 28-4 30-5 33-3 32-3 34-4 35-3 34-3 30 0 29 2 25 3 28 5 23 12 31 17 22 24 13"/>
<path d="M7433 6504l-1-2 3-27 11-22 11-26 3-25-7-25-14-21-22-10-26 1-29 11-22 12-21 17-21 21-18 24-15 25-12 25-9 30 3 27 19 19 28 1 24-7 24-12 23-13 23-17 18-17 13 22 12 23 24 14 29 0"/>
<path d="M7919 6509l-1 1 26-4 26-17 27-21 21-18 24-20 27-22 28-23 27-24 28-26 25-27 21-27 20-28 18-29 12-29 10-29 7-27 5-25 2-33-2-26-10-25-27 1-20 14-18 22-18 25-14 23-14 25-14 28-15 33-15 32-13 34-13 35-11 34-8 35-5 33-1 31 2 29 5 24 13 31 17 23 21 19 26 14 26 5 27-1 25-7 26-15 21-21 13-28 5-29-5-30-9-23-11-22-17-24-19-17-25 0"/>
<path d="M8357 6408l 0 0 25 2 25-9 23-14 20-19 12-21-10-23-24-4-25 5-25 10-19 18-19 22-11 21-7 28 2 26 11 23 22 16 27 8 31 4 27-3 28-6 29-9"/>
<path d="M8681 6405l-2-2-6-25-20-16-25 1-27 12-20 14-20 16-18 20-4 25 18 19 27 1 29-4 26-6 23-7 21-13 3 26 24 14 29 2"/>
<path d="M8927 6353l-2-2-25-6-26 5-25 13-26 17-22 18-18 20-16 21-6 25 10 25 20 19 24 9 32 3 28 0 29-3 30-7"/>
<path d="M9122 6052l-1 0-7 24 0 28 1 31 2 26 2 27 1 32-2 24-1 25-3 27-5 26-5 25-8 25-8 27-9 24-9 26-13 32-11 25-10 23 19-29 16-31 18-29 16-28 15-25 16-24 16-19 24 0 0 26-6 30-9 25-7 25-4 28 6 25 16 22"/>
<path d="M9436 6088l-1-1-17 23-4 31-4 29-4 33-5 36-5 26-6 28-9 29-9 30-11 29-13 30-12 27-13 24-11 22-13 26-11 24 24-22 18-26 19-28 20-25 21-25 21-25 19-19 22-17 20-13 24-9 23 8-2 25-9 23-12 27-13 28-11 25-8 23-6 25 8 26 23 6 25-7 22-10 22-11 20-14"/>
<path d="M9629 6430l-1 1 23 13 26-2 28-4 27-6 25-10 23-15 15-19 0-25-18-20-26-7-24 5-27 9-25 16-19 17-16 22-13 24-7 25 3 26 11 23 16 21 24 17 31 9 28 0 33-4 24-6 25-7 26-9"/>
<path d="M10052 6380l-1-2-19-15-25 5-25 10-25 12-21 13-27 16-24 20-17 21-12 21 9 22 23 10 26 0 30-6 26-9 27-10 20-15 10-23-23 13-10 22 1 26 10 24 23 10 25 1 32-6"/>
<path d="M10330 6414l-2-3-7-26-17-19-24-2-23 10-23 13-24 16-23 19-18 22-12 21-8 27 2 27 9 24 22 13 31-3 22-10 25-13 26-18 27-22 27-22 25-23 16-19 14-21 15-24 13-27 12-27 12-29 10-30 9-30 7-30 5-28 1-24-1-29-9-30-13-20-22-14-27 7-13 22-10 27-7 27-7 34-4 25-3 26-4 25-4 25-3 29-5 29-2 28-1 27 0 25 3 35 4 24 6 28 10 22 19 20 24 16 28 4"/>
<path d="M10514 6550l 0 2 9 22"/>
<path d="M2439 7570l-1-1 0 24"/>
<path d="M2809 7504l 3-5 14-28 13-28 12-21-6 34-9 26-12 30-13 34-15 37-14 37-15 38-15 37-14 37-14 37-12 35-11 35-9 29-6 26-7 30-6 27 9-23 10-35 8-32 10-38 10-43 11-43 10-44 10-41 10-37 6-32 8-30 6-24 8-30 6-25 12 22 7 26 6 31 9 36 6 24 8 24 8 25 9 24 10 23 10 22 17 31 17 29 18 21 22 15 30 1 25-21 23-30 16-22 15-28 13-29 12-30 11-33 8-35 7-35 4-36 0-36-1-34-3-32-4-29-4-26-6-31-7-23-25 3-6 25-1 26"/>
<path d="M3295 7688l-2 0-26 4-18 17-14 22-6 26 8 26 21 16 27-3 24-14 16-21 2-25-12-24-16-19-23-9 26-1 24-6"/>
<path d="M3409 7650l 0-1-2 26-5 29-5 29-4 25-1 25 25 9 26-16 18-16 20-18 20-22 13-21-14 26 1 25 16 20 23 6 24-4 23-18 20-18 20-19 15-22 6-25 3-25-3-26-16-24-22-9"/>
<path d="M3790 7554l-2 0"/>
<path d="M3780 7658l-1 0"/>
<path d="M4204 7566l 1-2-26-1-22 12-23 16-20 14-18 17-19 15-20 18-17 19 21 13 29 4 24 2 24 3 27 6 27 7 22 13 4 25-11 27-17 26-16 19-18 17-24 13-25 9-24 2-23-11-14-24"/>
<path d="M4308 7647l-2 3-23 18-17 22-14 26-6 26 10 23 19 18 25 12 27 4 23-9 25-14 21-18 14-21 6-26-12-24-17-17-22-15-26-6 21-16 22-12 24-10 25-9 24-3 23 8 14 20 2 26-5 24-7 24-9 28-10 23 15-20 13-24 15-25 19-25 14-24 16-27 19-19 23-9 17 20 2 24-4 29-7 29-8 24-7 25 28-10 21-24 15-20 18-24 16-20 24 7-3 25-3 27-3 26 4 25 21 14 25-11"/>
<path d="M4829 7661l 0 0 23 8 25 3 25-12 21-13 10-22-15-22-27 2-23 11-24 17-19 22-19 23-15 25-10 25-5 24 5 27 15 25 21 14 28 11 26 0 31-10"/>
<path d="M5373 7825l 0-1 24-16 20-17 19-18 20-17 20-20 19-19 17-21 15-26 10-25 4-24-5-24-6 25 4 24 9 23 14 20 17 18 11 24-1 25-11 27-17 21-19 16-20 14-24 8-19-15 8-24 21-13 25-13 23-10 26-9 22-10 24-12"/>
<path d="M5736 7646l-2 1-21 11-7 26-3 26 0 27 3 28 15 20 27-3 23-13 23-20 23-21 19-22 15-21-17 19 0 27 11 26 15 20 25 12 26-2 23-8 24-16 21-16 18-22 13-24 5-24 0-25-7-26-11-23-16-18"/>
<path d="M6154 7607l-2 1-14 20-5 27-1 26 3 25 5 29"/>
<path d="M6172 7462l-2-1"/>
<path d="M6368 7326l-2 1-17 22-10 27-8 23-8 27-9 33-6 25-6 27-7 27-5 29-5 26-3 25-3 25-2 31 1 28 4 25 4 31 7 25 15 22 27-2 23-16 18-19 17-23 16-24"/>
<path d="M6249 7555l-7 1-24 5 26-11 24-8 26-9 29-9"/>
<path d="M6568 7579l-2-2-24-7-24 12-19 16-21 21-17 18-19 25-13 25-5 25 6 27 19 21 21 14 28 2 30-9 25-12 26-16 28-19"/>
<path d="M6646 7345l-3 2-12 25 0 27 3 32 4 31 3 31 1 32-1 24-1 25-1 25-2 28-2 35-2 29 3 31 8 25 21-17 14-28 10-23 12-29 12-22 14-21 20 17 0 29-2 28 0 28 5 24 16 19"/>
<path d="M7435 7625l-1-1-17-17-23-10-25-7-26 0-25 8-22 12-19 17-17 23-17 24-13 24-10 25-7 30 0 25 13 24 23 12 23-7 23-18 27-23 20-19 20-20 22-23 22-25 21-27 19-30 17-28 14-29 11-29 8-28 5-31 4-32 1-34 1-32 1-32-1-30-2-27-4-30-8-24-24 7-9 30-8 34-5 24-5 27-5 28-4 26-3 29-3 29-1 29 0 28 1 27 2 26 6 34 8 33 10 26 12 24 18 22 25 11"/>
<path d="M7611 7605l-2 0 22 14 28-11 21-13 20-20-3-24-27-4-25 7-26 10-19 16-16 26-14 26-10 25-5 25 1 28 8 25 21 19 30 3 31-7 26-11 25-16 25-16"/>
<path d="M7780 7638l-2 0 29-11 23-15 24-16 18-17 13-23-2-26-17-18-19 18-3 26 3 25 6 24 13 21 19 23 17 21 16 23 5 23-12 23-26 3-25-3-24-5 20-16 26-4 27-8 29-9"/>
<path d="M8058 7614l-1 0-9 26-2 27-2 27 3 25 17 17"/>
<path d="M8134 7453l-3 0-22 13 4 26"/>
<path d="M8290 7611l 2 0 12-21-22-12-28 3-26 13-21 12-22 15-19 19-18 20-13 23-12 26-1 25 21 14 28-1 29-14 22-12 20-15 25-19 17-22 12-23-1 28-1 24 2 27 7 28 7 24 7 25 6 26 6 24 4 24 0 25-4 28-7 28-10 31-13 31-10 22-11 22-19 30-19 29-19 26-18 20-23 16-27-4-13-23-6-32-2-26 0-31 2-34 3-38 5-37 5-36 5-35 6-31 8-28 8-27"/>
<path d="M8377 7594l 0 3-5 27-6 30 0 25 3 24 3 26 1 24 0 27 13-22 11-24 15-27 14-23 15-20 17-18 24 6 7 24 4 28 4 25 2 26 4 28 4 25"/>
<path d="M8604 7876l 0 0 0 26-11 22"/>
<path d="M1234 9228l 1 0"/>
<path d="M1513 8983l-1-1 6 25 3 27 0 33 1 27 1 28 0 31 1 31 0 37-2 38 0 38-1 39 0 37 0 36-2 35-3 36-1 32-1 30-2 29-1 34-2 24"/>
<path d="M1494 8965l 2-2 21-12 24-5 24-1 30-1 33-1 35 2 24 3 35 6 23 6 35 12 21 12 29 17 26 20 20 20 16 22 13 25 8 24 3 26-6 28-9 33-8 25-9 27-11 27-14 28-16 26-14 28-18 26-17 25-17 27-19 23-16 23-16 20-24 25-22 19-21 15-29 11-28-1-22-13-19-19"/>
<path d="M1960 9386l 1 0 26-5 25-9 22-11 19-17 10-22-19-20-25-8-26 9-19 16-19 21-13 26-12 25-6 26 3 27 6 24 17 20 28 10 27 4 31-8 29-12 26-16 27-19 18-17 27-22 20-24 15-20 13-27 5-24 0-27-11-21-17 21 0 24 11 21 19 19 21 15 25 13 21 15 11 23-12 22-24 7-28 2-24 0-25 3 12 22 28 4 27-6 25-10"/>
<path d="M2427 9289l-1 0-20 13-13 23-5 25 3 25 10 25 15 20 23 6"/>
<path d="M2459 9132l-2-2-25-11"/>
<path d="M2665 9350l-2-3-11-24-7-25-10-24-26 4-21 17-18 24-16 22-14 23-11 28 0 25 13 24 25 14 24-5 20-14 21-22 19-23 10-23 9-24-2 24-2 29 3 26 4 28 4 31 4 26 4 28 3 31 0 31-3 25-2 25-2 26-4 30-4 26-5 24-7 25-10 29-13 24-15 20-28-6-16-25-13-32-7-27-5-30 0-34-3-34 0-31 1-29"/>
<path d="M2724 9341l 0 0 18 18 14 25 10 24 10 24 6 25 3 27 0-26 5-31 6-25 7-31 6-23 11-23 25 0 9 27 7 27 7 26 7 25 10 23"/>
<path d="M3602 9227l-1-1-24 0-21 13-21 22-17 21-16 23-15 26-10 28-5 25 0 26 14 22 27 2 25-9 22-17 22-25 17-20 15-23 14-24 12-26 9-27 8-28 6-28 3-29 2-31 1-32 2-33 1-34-3-34-1-31-5-30-3-25-6-28-7-26-22 11-3 25-4 33-2 24-3 27-1 28-2 31-1 31-1 32 1 31 1 30 2 31 2 31 4 27 5 24 10 26 18 25 20 18 29 7 26-10"/>
<path d="M3818 9205l-1 1-21 16-14 22-9 26 3 24 9 22 25 10 25-4 22-19 15-22 7-23 0-26-18-22-23-10-26-2"/>
<path d="M4077 9140l-1-1-26 0-24 16-21 15-17 18-17 22-14 26-7 27 8 22 17 18 24 12 26 8 28 1 26-1 28-5"/>
<path d="M4210 9297l-1 1"/>
<path d="M1223 10395l-1-1"/>
<path d="M4449 9115l-1 0 25 3 24-1 30-8 30-8 24-6 27-10"/>
<path d="M4516 9040l 0 0 1 25 1 26-1 31-1 31 0 31 2 31 3 30 6 27"/>
<path d="M5015 9164l-1-2-22-10-26 1-27 9-22 13-21 21-13 22-13 22-12 22-7 27 3 29 18 24 24 11 32 2 32-4 23-5 27-8"/>
<path d="M5203 9193l-2 0-28 5-22 9-21 16-15 18-9 25 12 22 20 15 26 5 24-1 24-7 22-11 20-16 1-26-18-21-19-19 9-24 24-9 24-8 25 0 24 10 15 20 4 27-2 25-5 24-9 23 1 24 17-22 12-21 12-24 12-23 11-24 13-23 24-3 13 22 3 28 0 25 0 24 20 16 23-9 23-9"/>
<path d="M5466 9280l 0 0 20-13 10-26 11-22 13-23 15-21 17-20 19-18 25-4 13 22 7 25 5 24 3 28 5 27 5 23 18 17"/>
<path d="M5759 9145l-1-1-7 28 1 28-1 27-3 28-7 23 11-23 12-22 12-24 11-22 14-24 16-20 23 9 1 25-4 28-3 26 5 24 25-13 17-22 15-26 15-24 15-21 18 17-4 29-3 28-2 24 14 20 26-5"/>
<path d="M6064 9169l 0 0 20 17 22-9 28-10 25-12 21-14 17-20-10-25-26-1-26 6-26 12-22 17-18 19-19 23-7 25 4 26 13 21 21 13 25 12 25 4 28 0 29-6 28-14 20-14 19-16 15-19 13-24 8-25-25 0-9 28-1 26 2 24 9 23 23-14 19-20 15-20 20-25 18-21 18-16 7 27 0 25 5 27 12 22 24 9 24-10"/>
<path d="M6567 8847l-1 0 9 23 9 29 3 32 1 27-1 30-5 32-6 34-8 35-6 23-5 24-5 24-7 29-4 25-1 25 5 25 19 18 30 1 23-7 25-15 23-20 17-20"/>
<path d="M6439 9098l-3 0 26-10 29-4 31-4 25-2 26-2 27-1 27-2"/>
<path d="M1439 10262l-1-1 26-5 25-7 22-10 23-11 25-14 26-13 27-10 27-11 26-10 29-11 24-12"/>
<path d="M1601 10267l 0-1 14 21 6 27-2 26-1 29 0 31-3 34-4 35-4 25-5 37-4 27-2 25-6 24-9 34-9 32-5 26-4 27"/>
<path d="M1906 10566l 1-2-5-26-8-25-20-18-23 5-21 15-17 20-19 26-18 22-12 25-1 24 20 16 28-8 26-13 19-16 16 22 13 22 26 6 25-5 22-11 21-16 22-24 16-22 17-25 20-29 13-21 12-23 11-23 11-35 6-34 3-25 3-24 1-25 2-24 1-33 0-28-4-30-5-26-16 25-15 27-9 30-7 32-7 34-3 24-6 24-3 26-3 27-3 27-2 27-1 27 1 27 8 26 6 34 8 26 12 24 20 15 29 3 22-14 18-16"/>
<path d="M2275 10192l-2 0-14 23-7 25-5 26-5 31-3 35-3 26-3 27-3 29-3 29-1 28-1 27 1 26 1 25 1 32 2 28 3 27 24-16 7-27 9-34 7-34 6-32 3-27 6-23 9-23 21-11 25-3 27-1 21 13-9 25-18 23-18 21-17 18-20 19-17 18-13 23-2 26 9 23 24 16 26 6 24 0 31-4 25-4"/>
<path d="M3165 10429l 0-2-20-16-27 4-22 15-19 19-17 25-13 22-9 23-6 27 0 25 18 20 27 2 27-12 21-16 17-17 18-21 11-22-8-23-17 20-1 24 1 24 21 15 25 1 22-10 27-19 25-20 18-18 17-18 17-22 18-22 16-22 15-24 15-23 11-25 10-23 7-24 6-24 3-35 0-25-2-34-4-27-10-26-23-9-23 16-16 27-14 28-9 23-11 24-8 25-8 28-6 26-3 27-4 27-2 26-3 27 0 27 3 25 3 24 10 32 12 26 13 20 21 17 27 4 27-8 19-16 12-23 2-26-12-26-16-19-20-17"/>
<path d="M3548 10446l 1-2-27-3-18 19-14 24-3 26 0 25 14 21 27 7 28-7 22-13 18-15 12-22-12-22-23-10-23-9 28-9 22-10 25-8 24-6 25 0 7 24-10 23-12 25-6 28 0 25 27 3 21-15 18-17 18-18 17-19 8 24 5 26 16 19 27-3 24-14 20-14 21-19 24-23 22-26 20-27 18-30 14-30 8-24 6-24 6-24 6-24 6-32 7-29 6-30-2-25-15 20-11 25-7 29-4 30-2 24-1 28-2 26-5 30-4 31-3 33 0 27 0 28 9 27 14 20 25-4 20-15 19-23"/>
<path d="M3979 10345l-5-1-29 0-25 4 28 2 30-10 24-11 26-9 27-11 25-8"/>
<path d="M4754 10408l-2-1-24-3-26 0-25 2-19 16-15 25-11 27-8 23-6 26-3 31 6 24 17 18 28-1 24-9 28-20 20-18 19-20 20-22 17-23 15-23 14-26 10-25 8-25 8-25 4-24 4-28 2-29 0-31 1-32 1-31 1-30 1-27 0-32-2-25-16-18-19 20-12 25-12 30-4 24-5 31-4 37-3 24-2 24 0 36 1 35 1 33 2 29 6 26 10 24 17 25 22 19 28 6 26-6"/>
<path d="M4930 10406l-2 2-17 16 18 21 27 0 24-6 23-7 25-13 16-21-3-24-22-14-28 4-22 15-19 20-14 21-12 21-7 23-1 28 12 22 25 9 30-2 28-8 30-12 22-11 26-12 21-12 22-15 17-21 10-23 3-27-1-26 3-25-7 27 3 24 9 26 13 21 17 20 19 19 4 24-12 24-20 17-24 9-25-5 13-21 27-7 28-6 25-6"/>
<path d="M5357 10407l-2 1-12 22-5 25 0 28 5 26 12 24"/>
<path d="M5395 10282l-2-2-24-7"/>
<path d="M5561 10426l-2-3-16-20-21-14-25-1-24 13-18 18-15 23-11 23-7 26 3 24 20 16 29 2 23-10 23-14 23-19 17-19 15-22-27-1-14 20-5 25 2 26 6 24 9 28 8 27 9 29 6 28 2 27 1 30-2 25-7 26-11 24-17 20-22 15-27 5-26-6-26-13-23-19-15-27-5-24-2-31 5-31 8-24 9-24 14-22"/>
<path d="M5628 10375l 1-1 4 29 0 25-4 26-3 26-3 26-3 26-4 24 10-23 10-23 11-25 10-22 13-25 13-23 17-17 20 13 8 26 1 26 0 25 2 26 6 27"/>
<path d="M6327 10404l 0-2 2-24-12-21-24-11-26 5-22 14-24 20-17 18-17 21-14 22-14 26-5 27 12 23 29-1 22-12 27-19 19-18 21-20 21-22 20-25 20-25 18-26 16-26 13-25 11-29 8-31 7-31 2-34 2-33 1-33 0-34-1-28-3-34-6-26-27-2-11 27-7 23-6 30-8 35-6 25-5 26-5 27-3 28-5 29-5 27-3 27-3 25-3 32 1 30 2 24 8 30 11 26 19 15 26 5"/>
<path d="M6514 10363l-2 0-25 1-19 14-14 23-5 24 4 25 17 20 27-1 23-10 21-16 13-22 5-25-6-24-17-19-23-9"/>
<path d="M6779 10329l-1-1-23-6-24 9-23 12-20 16-20 20-15 22-4 25 6 23 20 16 25 12 29 5 27-2 28-3"/>
<path d="M6920 10468l-2 1"/>
<path d="M1219 11356l-1-1-2 25"/>
<path d="M1512 11160l 0 0-1 30 0 26-4 30-4 27-4 30-4 35-8 38-5 26-4 27-5 26-6 28-5 25-5 25-6 31-6 27-1 26"/>
<path d="M1711 11105l-1 0-11 24-8 25-5 25-3 29-3 31-2 33-3 34-1 27-1 27-2 28-1 28-1 27-3 27 0 24 0 35 3 27 5 25 7 28 26-6"/>
<path d="M1481 11442l-3 0 10-22 25-9 33-10 27-8 28-9 29-8"/>
<path d="M1849 11505l-2-5-6-25-3-25-22-11-22 11-20 17-18 22-12 23-6 24 19 24 28 7 25-11 20-13 18-17 16 21 22 15 27-5"/>
<path d="M2068 11411l-2-1-26-2-24 13-20 21-20 22-16 24-12 22 1 28 13 21 25 12 28-3 24-10 23-14 26-16"/>
<path d="M2203 11134l-2-1-4 29 0 33 1 25-2 29-3 31-2 35-3 24-4 35-4 24-5 32-5 30-2 27-4 29-3 24 9-28 10-28 11-30 10-28 10-24 12-26 10-22 13-21 24-6 22 14-8 23-19 18-22 16-18 20-17 19-13 20 2 26 17 21 23 12 28 4 25-3 30-8"/>
<path d="M2462 11422l-1-2-11-25-22-13-26-2-23 12-24 19-19 19-16 25-13 25 7 23 28-1 25-10 22-12 21-16 19-18-1 24 12 22 27 5 22-12 22-19 25-21 18-18 17-19 17-19 15-22 15-23 14-25 13-23 10-24 7-25 5-25 3-26 2-28 1-27 2-25 1-34 0-24-10-23-15 23-9 31-7 31-4 24-4 28-6 31-4 31-6 34-4 34-4 34-3 32-2 31-1 28 1 28 3 24 7 29 14 28 19 16 25-10 16-26 6-27 2-34-5-33-12-31-17-30-22-26-24-24-21-19-25-11-24 1-21 14 8 25 29-4 28-13 27-15 20-16 23-18 24-21 23-25 24-24 23-25 19-24 17-23 14-21 15-30 11-28 6-31-1-25-21 19-9 30-6 29-5 34-3 25-2 27-4 29-3 30-4 32-5 32-3 32-4 32 0 32-3 32-3 31-3 28-5 25-1 27 0 25 25-13 16-31 13-27 13-26 12-25 12-24 15-30 15-23 24 2 3 26-5 30-4 26-5 25 0 25 14 22 29-1"/>
<path d="M3067 11346l-2-1-20 15-13 22-10 23-7 24-5 24 3 26 18 18 28 0 23-15 18-18 15-22 10-26 4-25-8-23-22-13 26-1 24-9 25-5 25-3 24 7 17 20 0 27 8 23 21-11 19-21 16-21 16-19 19-16 24 3 8 25 4 28 3 27 6 29 10 22 12 23 18 18"/>
</svg>
