<svg xmlns="http://www.w3.org/2000/svg" viewBox="-6608 -3035 10320 3696" stroke="black" stroke-width="20" stroke-linecap="round" stroke-linejoin="round" fill="none" data-xena="0 0 0"><style>@media(prefers-color-scheme:dark){svg{background-color:black;stroke:white;}}</style>
<path d="M-688 -1919l 6-4 9-3 6-2 8-1 7-2 8-1 8-2 9-2 9-1 11-1 14-2 14-2-9 2 10-3 10-2 13-4 13-5-9 3 10-4 10-5 12-8"/>
<path d="M-653 -1825l 6-4 6-3 8-3 6-2 6-2 8-3 9-3 9-3 11-4 10-3 11-4-8 3 12-7 14-7 12-7 13-6 12-7 12-7 12-7 12-6"/>
<path d="M-524 -1987l-1-1 1-9 4-8 4-7 6-6 6-6 8-5 8-3 4-1 9-2 6-1 7 0 7-2 8-1 9-1 10-1 10-1 11-1 11-1 11-1 12 0 11 0 13 0 14 0 13 3 12 2 10 2 9 1 7 3 8 3 7 3 5 3 3 5 2 9 0 8-1 10-3 11-2 8-3 10-4 7-5 9-6 9-5 7-8 9-10 11-10 11-8 9-7 7-6 8-7 8-7 9-7 8-7 9-7 8-6 9 5-8-6 9-5 8-5 7-4 6-3 5"/>
<path d="M-1738 -81l-4 8-5 6-8 9-7 5-8 4-8 2-5 0-8-2-6-1-2-2-4-8 1-9 1-3 3-8 5-7 3-5 6-6 5-6 6-6 8-7 7-6 10-9 11-9 13-10 13-10 15-10 16-13 17-12 17-12 15-12 15-11 14-11 14-12"/>
<path d="M-1662 -99l-7 5-7 5 7-5-6 5-6 5-6 7 8-10-6 8 5-7-7 9-5 10 4-7-4 10-4 11-3 13 2-9-2 14-2 15-2 15-1 16 0 16 0 15 0 16 1 15 2 14 1 13 2 11-2-8 3 10 4 9 5 7 4 4 5 3-7-3 6 2 7 0-9 2 10-2 12-5-8 3 14-7 14-8 16-9-8 5 17-12 18-12 16-12 17-11 8-5 17-10 18-10 18-8 9-3 18-7 18-4 9-2 16-2 15 0 14 0 13 2 12 3 7 3 11 4 9 5 8 6 6 8 4 10 2 9 3 12 0 14-2 18-5 21-2 9-8 23-11 24-4 8-12 22-13 20-5 7-13 18-13 15-11 13-8 9-10 11-9 7-7 5-8 4-8 4-9 2-7 1-9-1-6-2-6-4-4-8-4-8"/>
<path d="M-1285 -153l 5 1 4 3 5 6 5 7 6 8 5 9 4 12 5 14 5 17 5 18 6 20 7 21 6 23 8 23 7 22 10 20 10 17 12 15 15 13 16 11 19 8-8-3 19 5 20 1 22-1-9 1 23-5 25-9-8 3 28-14-7 4 29-18 26-20-4 3 23-23 20-23-3 4 14-22-2 5 11-22-2 5 8-22 7-22 6-22 3-23-1 7 0-22-4-22-8-24-11-24 4 7-14-23-16-23-21-21-22-19-24-17-24-14-25-10-24-7 6 1-24-2-22 1 7-2-21 6-20 9 6-3-20 15 7-5-18 19 7-8-15 20 5-7-14 21-4 6"/>
<path d="M151 -2245l-3 8 0-3 1-4 1-6 1-6 3-7 3-8 5-7 4-6 5-6 4-4 7-6 5-4 8-4 6-3 9-4 8-3 10-3 11-2 9-1 11-2 11-1 12-1 13-2 14-2 14-2 13-2 13-1 13-2 13-1 13-1 13 0 11 1 8 2 8 3 6 3 5 4 3 6 2 8 0 6-2 8-2 7-4 8-5 8-7 10-5 7-9 11-9 9-12 13-16 15-18 15-17 16-18 16-17 16-19 18-19 17-19 19-19 18 8-8-18 19-16 17-15 17-7 7-14 15-14 14-12 14-10 12 8-8-7 8-4 7 5-7-3 5 4-8-2 5 2-9-1 4-2-8 1 2-8-3 4 0-9 2 6-2-9 3 8-4-8 5 9-6 13-8 7-4 15-8 16-7 8-3 16-6 17-4 18-5 23-5 9-1 25-4 25-2 25-1 22-2 23-3 23-4 21-3 18-3 15-2 14-2 14 0 12 1 10 2 8 3 9 4 8 5 6 5 5 7 3 10 2 8 1 11-1 11-2 13-3 8-4 14-6 15-8 16-4 8-10 19-12 22-15 24-19 26-4 6-19 24-17 20-17 19-6 7-17 18-18 18-19 16-20 14-5 4-19 13-20 11-5 2-20 9-19 7-18 7-16 6-15 5-8 2-14 2-12 0-8-2-10-2-8-4-7-6-5-9-3-8-3-11-2-14-1-14"/>
<path d="M1093 -2108l 2-4 2-4 1-3-5 17 0-2 21 8-5 1-8 3-8 4 8-4-9 4-11 7-12 7-9 7-9 6 7-5-8 7-9 7-8 8-7 7 9-9-6 6-4 5 5-7-2 5 6-16-1 5-2-8 2 5 5 5 7 3-8-3 8 2 9 1 8 1 10 1 12 0 13 0 10 0 9 0 10-1 11 0 13 0 12 0 10 2 8 0 7 1 8 3 6 3 4 6 4 9 2 8 2 9-1 8-2 9-2 8-5 10-4 8-6 11-8 12-5 7-9 12-10 11-9 9-12 11-12 12-15 11-7 5-15 11-15 10-15 9-14 7-8 4-14 6-12 5-12 3-8 2-11 1-8-2-10-2-8-4-7-5-4-8 1-9 4-8 5-7"/>
<path d="M1388 -2471l 4 8 3 9 3 8 2 11 2 12 3 13 2 15 3 17 3 17 2 15 1 16 0 17 0 19 0 19 0 20-1 21-2 23-2 22-2 19-2 18-2 20-3 25-5 31-5 31-5 28-1 20 1 14-2-7 4 11 5 14 4 12 5 10 7 7 9 4-8-3 11 4 14 1 13 0-8 2 11-3-8 3 12-5 12-7-8 5 15-10 19-14 19-17 8-4 8-3"/>
<path d="M1216 -2150l 1-5 3-8 3-6 5-7 6-7 5-5 7-6 7-6 8-4 11-6 14-8 17-7 8-3 19-8 21-6 23-8-9 3 24-10 23-12 25-10 8-4 24-8 25-8 26-8"/>
<path d="M1541 -2124l-4 7 4-7-3 7-2 7 2-9 1 6-2-9 3 4 6 3-8-3 8 0 9-1-9 2 11-2 12-3 15-5 16-6-8 3 17-7 19-9 23-9 25-11 24-12 21-11-7 4 17-11 13-11 10-10-7 5 8-8-6 6 5-8-4 8 3-8-3 8 2-8-1 9-1-7 3 8-4-6-8-4-10-2 9 2-11-1-13 1-13 1-15 2-15 3 9-2-16 5-16 4-15 5-14 5-14 6 8-4-13 8 8-6-11 8-9 8 9-9-7 9 5-7-7 11-7 13 4-8-6 16-5 16 2-9-3 13-1 12 2 13 3 13-2-9 6 13 7 12 8 9 10 7 11 7 14 8 16 8-8-3 18 7 20 5 20 5"/>
<path d="M1909 -2196l 5-7-3 6 4-7-3 7-2 8 2-8-2 8-2 9-1 11-1 13-1 15-1 15 0 16 0 17 1 20 2 21 1 18 2 17 2 18 1 19 1 21 1 20 1 20 1 21 0 20 1 19 2 18 2 17 2 15 2 11 1 8-2-9 0 2-54 43 0-3 0-9-2-14-1-17-3-18-3-18-3-18-4-22-4-23-5-22-4-19-4-17-3-17-3-20-2-20-2-19-1-15-1-14 1-12 1-14 1-9 1-15 3-14 3-13 5-12 4-8 6-13 7-12 5-7 8-12 6-7 10-11 10-10 7-6 11-8 10-8 8-4 11-6 8-3 12-4 12-3 9-1 14-2 14-2 14-1 13 0 14 1 12 2 12 2 11 3 9 3 7 3 8 4 6 3 5 6 3 6 3 9 1 8-2 9-2 9-3 9-4 8-6 9-5 7-7 9-9 9-10 11-13 12-15 11-7 5-15 10-16 9-19 10-8 3-18 9-15 6-13 5-12 4-10 2-10 3-8 2-9-2-4-7 1-9"/>
<path d="M2284 -2291l-7 5-5 4-8 3-6 3-9 1-7 2 8-2-9 3-11 5-11 5 8-4-11 5-10 6-9 6 7-5-7 7 9-9-6 7 5-7-4 7 6-16 1 5-3-8 6 3-8-3 9 1 11 0 11 0 12 0 13 0 13 0 13 1 13 2 13 1 12 2 12 2 12 1 10 2 9 2 8 3 8 3 7 3 6 4 5 4 3 6 2 8 2 6-1 8-2 8-3 9-4 8-5 8-6 7-6 9-9 9-9 9-11 10-12 9-7 5-13 9-12 8-13 6-8 4-15 7-16 7-13 5-13 4-14 4-13 4-8 1-13 2-10 1-9-2-8-1-8-3"/>
<path d="M2800 -2872l-2 6 4-8-3 6-4 9-4 10-4 13-5 16-5 18 2-8-5 21-5 23-7 28-2 8-8 30-9 32-11 33-13 34-14 35-14 39-15 42-16 45-16 45-18 45-17 39-14 34-14 33-15 37-16 43-18 50-17 45-14 36-12 34-13 35-11 32-8 23-4 17 1-5-2 14-3 12-3 11-2 8-2 9-2 6-2 5"/>
<path d="M2803 -2319l-1 9-2 12-2 14-3 14-2 14-3 13-2 14-3 15-4 16-3 17-3 17-3 16-3 15-2 14-2 11-1 8 1 4-28-6 3-2-20 17 5-7-5 8 7-12 8-16 8-18 9-20 9-19 10-19 8-18 9-17 9-16 9-16 8-15 7-12 5-7 6-10 7-8 5-7 6-6 6-5 7-6 7-5 6-2 9-4 8-1 7 1 8 3 6 3 6 5 5 7 3 8 3 8 3 8 2 9 1 10 1 11 0 10 0 10 1 9 1 9 0 8 1 6-2-8 3 4-8-3 5 0-17 4 6-3-8 5 6-5 7-6-7 6 8-7 7-7 8-9 8-8 9-8 7-7 7-6 7-6 6-5 8-5 6-3 8-3 9-2 6 0 8 3 6 2 6 5 5 6 4 6 4 7 3 8 3 7 3 8 3 6 4 7 4 7 4 8 5 7 5 7 4 5 5 6 5 6 5 5 4 3 5 3 2 9-2 8-4 8"/>
<path d="M3220 -2217l-2 6-3 6-3 8-3 7 2-9-1 7-1 7 0 6 0 5 0 5 1 7 1 6-2-8 5 5-8-3 11 4 7 3"/>
<path d="M3246 -2444l 2 4-3-8 3 6 5 9 7 11 7 12 7 12 8 12 8 13 9 13 2 8-2 9-4 8-5 7"/>
<path d="M3365 -2252l 2 8 2 6 1 7 1 8 0 8 0 10 0 9 0 9 0 9-1 9 0 8-1 8-1 8-1 8-1 8 0 6-2-8 0 3-24 1 3-1-15 10 5-5-6 7 6-8 8-10 10-14 12-15 12-15 11-13 10-13 6-6 10-12 9-10 8-8 7-8 7-7 6-5 7-6 5-5 5-3 8-5 4-2 9-3 8-2 5 2 8 3 5 3 4 5 4 5 3 6 3 8 2 8 2 7 1 8 2 9 2 10 2 9 2 8 0 8 1 9 0 10 1 10 1 10 1 9 2 9-2-9 2 8 2 7 3 9-3 8"/>
<path d="M-59 -363l 3-4 3-4 3-5 5-5 5-7 5-7 5-7-5 8 4-8 5-7 4-8 3-7-4 8 2-6 1-5 0 9 0-4-2-4 4 7-3-2-4-2 8 2-6 1 9-2-8 3 8-4-8 5 8-5-9 6-8 8-9 8-9 8-10 9-10 10-10 10 9-9-10 11-9 11-8 10-7 9 5-7-6 9-4 8 4-8-2 7 2-9 0 6-3-8 2 5 4 4-7-3 6 2 8 2 10 0 10 1 12 0 14 1 16 0 18 1 18 0 18 1 15 0 15 1 12 1 12 1 10 3 8 3 8 3 6 5 5 7 2 8 2 9-1 12-3 14-2 8-6 15-7 15-4 8-10 16-12 17-6 8-14 18-17 18-9 9-18 18-19 16-20 16-21 15-6 4-20 14-19 12-18 10-8 4-16 8-15 6-8 2-13 3-11-1-9-1-10-4-4-7"/>
<path d="M143 -857l 2 6-2-8 3 7 3 8 4 10 4 13 4 14 5 16 6 16 7 18 7 20 6 21 7 23 2 8 6 23 6 23 6 25 6 25 5 27 5 28 4 27 5 26 5 25 4 24 5 24 5 22 5 20 5 18-2-7 6 16 7 15 6 14 7 13 7 12 7 11 8 9 9 8 11 6-8-3 14 3 15-1-8 1 15-4-8 3"/>
<path d="M78 -510l-2 2 0-44 3-2 8-3 8-5-7 4 10-7 13-10 15-12 17-11 20-13 8-5 23-13 25-14 8-3 9-1 7 3 2 8-2 8"/>
<path d="M462 -561l 1 5-2-8 1 5 4 3 5 3-8-3 7 0-9 1 7-2-8 3 9-5 11-6-8 4 14-9 17-12 15-12-7 6 12-12 12-10 12-11 12-11 11-12 7-6"/>
<path d="M555 -685l-8 2 9-2-8 2-9 4 8-4-9 5-10 5-10 7 7-5-9 8-9 10 9-10-9 10-8 10-7 10 5-8-7 11-6 11 4-8-6 12-5 12-3 13 2-9-3 13-1 13-1 13 1 13 2 12 3 11-3-8 5 11 6 11 8 10 9 9 10 7 11 6 11 4-8-3 13 3 14 2 16 0 8 3"/>
<path d="M766 -655l-3 7-2 10 2-9-2 10-1 9 0 10 1 11 2 12 2 14 3 16 4 16 4 18 5 19 5 20 5 21 4 20 4 22 5 22 4 23 4 23 3 23 3 22 3 22 2 20 3 19 2 17 2 14 2 13 0 10 0 7-3 9-1 3-4 8-6 7-8 9-8 5-7 4-9 2-9-1-3-2-4-5-5-10-4-8-5-13-5-17-5-19-6-21-6-23-6-26-6-29-6-32-4-33-3-32-3-30-4-27-5-24-4-21-5-18-5-14-3-13-1-12 1-8 1-12 2-11 4-9 3-8 4-9 6-9 4-7 6-8 6-8 5-6 7-7 7-7 6-5 8-7 8-5 8-6 8-5 10-5 10-5 12-5 8-3 12-5 13-4 13-3 9-2 12-2 13 0 12-1 12 0 11 1 10 3 8 3 8 4 8 5 5 5 4 6 2 8 2 7-1 7-2 9-2 8-5 9-4 8-7 11-5 7-9 11-10 13-12 13-12 14-13 13-12 14-12 13-11 13-9 9-10 11-9 9-7 6-7 5"/>
<path d="M1159 -861l-5 4-6 6-6 6 9-9-7 8-9 9-9 10-11 13-14 15-9 9-13 14 9-9-10 11-8 11 5-7-7 10-6 9-4 8 4-8-2 7 2-9-1 7 2 5-2-8 3 4 5 3-8-3 7 2 8 1 10 1 12-1-9 1 15-4 16-5 16-5 15-4 16-4 14-3 9-1 14-3 14-1 13 1 12 2 10 3 8 3 9 4 8 5 6 6 5 6 3 6 3 6 2 9 0 6-1 8-2 9-2 8-4 9-5 10-4 8-6 10-5 7-8 10-8 9-9 9-10 10-10 10-12 9-7 5-12 8-12 7-8 4-12 6-12 4-11 3-9 2-10 1-10 0-10-2-9-1"/>
<path d="M1580 -1002l 2 4-3-8 3 4 3 6 5 8 6 11 6 12 7 15 8 15 8 15 9 16 9 17 11 17 12 17 12 16 13 16 13 17 12 15 12 13 11 10 11 7 10 4-7-3 8 2 8-2-24 10 7-5-7 6 8-9-11 14 7-12 7-16-4 8 8-19 7-22 8-24 7-26 8-28 8-29 8-30 7-32 7-34 6-36 5-37 0 5 2-37 2-37 0-35 0-35 0-32-1-30-1-26-2-24-2-22-1-19-2-16-3-13-4-11 1-8 3-8 5-7"/>
<path d="M-6264 -1763l-7 4 8-6-12 12 4-6-5 7 3-6 3-7-3 8 3-9 4-10 4-11 4-11 3-12 3-11 2-12 1-11-1 8 0-11-1-11-4-10 4 8-6-9-7-8-8-6-11-5-12-3 8 2-15-1-18 1-19 2 8-1-18 4-19 7 8-3-17 9 7-5-16 12-15 14 9-9-14 17 5-7-12 19-12 21 4-8-9 22-8 24 2-9-5 24-4 23-2 22 0 21 3 20 5 19-3-8 8 16 10 15 12 13 15 11 18 10 19 9-8-3 21 8 23 7 25 6 27 6 26 7 24 6 23 6 21 5 20 6 7 2 19 7 20 10 17 10 16 12 13 13 10 14 7 17 3 8 4 20 2 21-1 23-4 24-7 26-2 8-10 27-11 27-13 26-13 25-3 6-13 23-13 22-12 20-5 5-12 18-13 15-8 7-14 12-6 4-16 9-7 3-8 2-17 4-18 0-9-1-18-5-18-9-17-13-15-16-12-21-4-8-10-25-7-30-4-32-1-35 1-36 3-38 1-5 4-37 5-36 7-35 9-33 11-32 12-30 2-4 13-30 15-29 15-28 15-28 2-4"/>
<path d="M-5861 -2030l 1 7 2 6 1 6 1 8 1 9 2 12 2 12 2 13 3 14 2 15 1 17 2 18 3 19 4 19 3 19 4 20 4 20 4 21 3 22"/>
<path d="M-5966 -1334l 6-6 5-4 7-4 6-4 8-4 10-5-7 5 11-7 12-9 12-9 14-9 14-10 14-12 16-12 17-12 20-14 21-13 21-13 21-13 8-5 22-12 24-11 23-11 8-3 23-9 21-8 9-1"/>
<path d="M-5768 -1266l 7-4 6-4 7-3 7-4 8-3 9-3 8-4 8-2 9-3 8-4 9-2 10-3 9-1 10-2 9-1 9 0 9 0 7 2 8 3 6 2 4 5 2 5 2 8 1 7 0 6-2 8-2 9-4 9-4 10-5 10-4 8-6 11-6 10-6 11 5-8-5 11-5 9-3 9-3 7-2 6 2-9-1 5 1 4-3-8 4 3-8-3 6 2 7 1 8 0 9-1 11-1 11-2-9 1 12-2 12-3 12-2 11-3 12-2 10-3 9-2 8-2 9-1 7-1 6-1 6 1 4 2 8 3 5 3 3 4 3 6 2 8 2 7 1 9-1 9-2 10-2 11-2 9-4 12-5 13-6 13-6 12-4 8-7 12-9 12-5 7-9 12-10 11-9 9-11 10-13 10-7 5-16 9-8 3-16 8-17 5-9 2-17 3-18 1-9-1"/>
<path d="M-6031 -19l-4-2 9 1-3 0 37-27-2 4 4-8-2 6 3-9-1 8 0 9 1 12 0 14 1 17 0 21 0 22 0 26 0 28-2 30-3 32-4 32-4 32-4 32-3 32-4 32-2 32-1 29 0 26 1 24 3 21-2-6 5 15 6 10 2 8-2 8-3 7"/>
<path d="M-5714 80l-3 11-2 10 2-9-3 12-2 15-2 17-2 17 0 18 0 17 2 17 3 16-2-8 4 15 6 13 7 12 9 10 9 8 10 7-7-3 12 4 13 3 15 0 15-1-9 1 16-4-9 3 17-8-8 5 16-11 16-14-6 5 15-16-6 6 14-18 13-20-5 7 12-22 11-22-3 8 10-23 7-23 4-22 1-21 0 8-1-18-3-17-5-15-7-15 4 8-9-13-11-13-14-12-17-10-19-9-20-6-20-5-20-4 8 2-19-2-18 1-17 4 8-2-15 6 8-4-13 8 7-5-10 10 8-10-9 11"/>
<path d="M-3986 -1363l 1 8 1 8 0 11 0 12 1 13 0 13 0 13 1 14 1 15 0 15 1 17 1 17 2 17 2 17 2 18 4 18 4 18 4 19 4 20 4 19 4 20 3 18 2 18 3 16 3 15 3 15 3 15 3 15 3 14 3 14 2 14 3 14 2 12 3 11 1 11 2 11 2 10 2 9 2 8 0 6 1 6 1 7 0 6 1 6 0 6 0 5 1 5 1 6-1 5 0 5-1 4 0 5 0 4 0 4-3 9"/>
<path d="M-3853 -1457l 0-4 1-4 1-3 4-8 4-8 3-4 6-6 3-4 7-5 3-4 4-3 4-3 3-2 4-3 8-4 4-2 9-4 5-1 6-2 9-1 7-1 7-1 8-1 8 0 8 0 8 1 7 2 8 3 7 3 5 3 4 5 3 5 2 6 3 8 1 7-1 7-1 8-3 9-3 9-6 12-4 7-8 16-10 17-10 17-10 17-10 16-10 15-9 16-9 14-8 13-7 12-7 10-5 10-4 8 4-8-3 6 2-9-1 5-2-9 2 3-8-3 4 1 5 0-9 1 6-2-8 3 7-3 10-5 11-5 12-6 12-6 13-5 8-3 14-5 14-6 15-5 15-6 16-5 16-5 16-5 9-2"/>
<path d="M-3887 -996l 1-3 3-8 5-7 2-5 6-6 3-5 7-5 5-4 5-4 7-4 7-6 8-7 9-7 9-7 11-8 12-9 14-9 14-10 14-10 15-9 16-10 8-4 16-10 17-10 17-10-8 5 16-10 8-5 16-9 15-9 15-8 13-7 12-7-8 4 11-6 10-6 8-6 8-4 7-4 7-3"/>
<path d="M-3734 -1008l 4-3 3-4 5-4 5-4 5-3 7-4 8-5 7-4 8-4 8-3 9-3 8-1 9-2 8-1 8-1-9 1 7-1 7-2 5-2 9-1 5-1 4 2 7 3 3 3 2 5 2 8 0 6-1 6-2 9-2 6-4 7-4 8-4 8-5 8-6 9-5 7-7 8-6 8-7 8-6 8-6 7 5-7-5 7-4 6-4 6-2 4 6-16 0 4-2-8 3 2-8-3 5 1 7-1-9 2 8-2 8-2 8-3 9-3 9-4 10-3 10-3 11-3 10-2 9-2 9-2 8-1 7 0 6 0 5 1 8 3 4 2 4 3 3 5 3 9 2 6 0 7 0 7 0 8-2 8-2 10-2 8-3 11-4 10-6 11-4 8-6 10-7 11-8 11-5 7-8 11-9 9-8 9-10 9-11 9-12 10-12 9-7 5-12 8-11 6-8 3-11 5-11 3-8 2-11 1-9-1-11-2-10-4-4-8 1-8"/>
<path d="M-3280 -806l 8-4 8-4 4-1 9-2 5 1 7 3 4 3 3 5 2 8 2 7 1 7 1 8 0 8 0 10-2 10-2 9-4 12-4 11-4 12-5 12-6 12-6 13-5 7-7 14-8 13-8 13-5 7-9 12"/>
<path d="M-3122 -1391l 3-5 6-6 4-5 7-6 8-4 5-4 7-3 7-3 8-3 9-5 11-4 10-5 12-6 13-5 14-6 13-7 14-6 15-8 8-3"/>
<path d="M-2980 -1414l-3 5-4 5 6-7-4 6-4 8 4-8-4 9-5 10-4 12-5 12-4 14-4 14-4 16 2-9-4 16-3 17-2 17-3 18-3 18-4 18-2 18-2 17-1 17-1 16 0 14 1 13 2 10 2 10-2-9 2 8 4 5 4 3-8-3 5 0 7-1-9 2 8-2 9-4-8 4 10-5 11-7 13-7 13-8 14-8 14-7 14-8 13-7 13-7 12-7 12-6 13-6 12-5 12-6 12-5 8-3 13-4 12-4 13-3 13-3 12-3 12-2 8-2 11-1 10-1 8 0 8 1 5 1 8 4 5 2 4 4 2 5 2 8 1 6-1 7-3 9-2 8-4 10-4 8-6 10-7 12-5 7-9 12-9 12-10 14-11 13-10 13-12 13-9 9-12 13-12 13-12 12-11 11-12 10-11 9-7 5-12 8-11 7-7 3-11 6-10 3-9 2-10 1-10 0-9-2-9-1-8-2"/>
<path d="M-2216 -1353l-4-7 1-9 1-3 1-6 3-6 2-7 4-8 2-6 2-5-3 8 2-4 1-5 1-4-1 8 0-1 29 3-3 2 7-5-4 4 8-9-5 7 5-7-7 9-7 11-8 12-9 13-10 15-5 7-12 15-12 14-9 9-13 13-13 13-13 12-13 12-11 11-10 10 9-10-9 10-6 8 5-7-6 8-3 6 6-16-1 5-2-8 4 3-8-3 7 2 9 1 12-1 12-2-8 2 14-4 15-4 16-4 15-5 14-6 15-5 15-5 15-4 14-4 12-2 9-1 11-2 9 1 7 1 7 3 5 4 3 4 3 9 0 7-1 9-2 8-4 12-5 14-7 16-5 7-8 17-10 18-10 18-10 17-11 18-11 16-6 7-11 15-9 10-13 13-13 11-7 5-14 9-14 7-8 4-9 2"/>
<path d="M-1939 -1770l-1 4-1 4-1 4 2-8 0 4 0 7 1 9 2 10 3 11 4 12 4 14 4 15 5 16 4 17 5 18 3 19 4 20 4 22 2 24 2 23 1 25 0 25 1 26 0 26 0 24 0 23 0 22 0 20 1 19 1 18 1 16 1 14 3 11-3-8 4 8 4 5 4 3-7-3 5 0-9 2 7-2-16 7 7-4 8-7-7 5 9-9-6 7 10-12 10-14 11-16 5-6"/>
<path d="M-2011 -1439l 8-4-5 3-5 4-5 3-5 3-2 1 8-47 5-2 9-2 11-3-8 3 12-6 15-7 17-10 18-10-8 4 18-11 18-11 8-5 8-3 9-1 8 3 2 8-2 9"/>
<path d="M-1672 -1458l 2-8 0 4 1 4-2-9 3 3-7-3 6 1-9 1 8-2-8 3 9-3 10-5 11-7-8 5 12-7 11-8 11-9 10-8 10-9-7 6 9-8 6-8-5 7 5-7 4-7-5 7 3-5-3 8 0-5-1 8-1-4 3 8-4-3-5-3 8 2-7-1-10 0-11 1-12 3 8-2-13 4-13 4-12 5-13 6 8-4-11 7-11 7 7-5-10 9 9-9-8 10-8 10 5-8-6 11-6 10 4-7-4 12 2-9-3 15 0 15 2 13-2-8 4 12 6 11 8 10 11 9 13 6-7-3 15 4 18 1 20-3-9 1 23-8-8 3 24-11"/>
<path d="M-1384 -1558l 5-7-3 5 5-8-3 7-2 8 2-9-2 9-2 11-1 12-1 13-1 14 1 15 1 16 2 17 2 18 3 18 3 18 3 19 4 20 3 19 3 20 2 19 3 20 1 21 2 20 1 21 0 18 0 18 0 15 0 14-1 12-1 9-2 8-4 8-1 2-5 7-9 10-7 5-8 4-9 2-9-2-4-8-1-9-1-25 0-34 1-39 0-37-2-35-3-32-3-31-4-28-4-27-5-22-4-20-5-16-4-14-2-13-1-12 1-11 0-9 2-9 2-8 2-7 4-8 4-7 4-8 5-6 6-7 6-6 7-5 7-6 7-5 8-5 9-5 10-5 11-5 8-3 13-4 13-4 13-3 14-4 14-3 9-1 13-3 13-1 11-1 11 0 10 0 9 1 8 2 7 3 8 3 6 3 4 4 2 5 3 8 1 7-1 7-2 9-2 9-4 9-5 8-5 11-8 12-5 7-9 13-12 13-9 9-13 12-13 13-14 12-14 11-14 10"/>
<path d="M-1011 -1707l-3 5-5 7-5 6-6 6-5 8-7 6-9 10-6 6-8 7-7 6-6 7-7 6-6 6 9-9-5 6 5-7-4 7 4-8-2 6 2-8 0 5-3-8 3 5 4 3 6 2-8-3 7 2 8 1 9 1 10 0 10 0 11 0 11-1 12-1 11 0 11 1 11 1 10 2 10 1 9 0 8 1 7 0 7 2 7 1 6 1 5 2 5 1 7 3 4 2 2 4 2 8 0 4 0 5-2 9-3 5-4 8-3 6-5 7-5 7-6 6-6 7-9 9-7 7-7 7-7 7-9 7-7 5-9 6-10 6-9 5-9 5-9 4-8 4-8 4-7 2-7 2-8 2-7 0-9-2-8-1-8-4-8-4-4-8 1-9 3-8"/>
</svg>
