<svg xmlns="http://www.w3.org/2000/svg" viewBox="2376 2053 16883 8602" stroke="black" stroke-width="16" stroke-linecap="round" stroke-linejoin="round" fill="none" data-xena="0 0 0"><style>@media(prefers-color-scheme:dark){svg{background-color:black;stroke:white;}}</style>
<path d="M2889 2169l-2 26 0 28 0 30 0 27 3 31 0 31 1 35 1 25 1 24 1 25 0 35 2 33 1 30 1 29 2 30 4 25 2 26"/>
<path d="M2770 3218l 23-11 25-6 28-3 28-1 25 3 26 4 19 15-13 23-19 22-19 19-19 16-18 16-18 17-20 16 23 11 27 0 28 3 29 7 27 4 28 5 26 7 24 10 21 15 13 25 3 27-8 26-12 22-15 24-18 20-20 17-23 14-27 11-27 8-27 4-25-1-28-3-25-7-23-9"/>
<path d="M3053 4420l 3-26 2-26 0-24-4-29-9-26-12-22-19-17-23-8-24 5-27 15-23 19-20 22-20 27-18 29-14 29-12 28-8 27-4 27 0 24 6 26 15 24 19 15 27 1 26-7 23-13 21-17 20-21 17-24 14-23 14-23 14-20 13 22 2 28 0 25 0 27-1 29 0 31 0 29 2 28 3 28 2 30 3 28 3 28 2 26 1 25 0 30 0 24"/>
<path d="M2554 5540l 21-11 26 2 25 4 28 5 28 5 24 6 23 13 5 26-11 26-13 22-17 26-19 26-19 23-18 22-17 20-16 21-18 25-16 22-12 22-10 24-3 26 6 25 19 18 26 2 29-8 24-13 28-14 27-11 25-11"/>
<path d="M2938 5456l 26-5 28-1 28-7 26-6 25-4 27-4 24 3 20 13 7 23-3 25-9 27-8 25-14 26-12 28-12 30-12 33-12 35-11 33-8 31-7 29-6 27-5 31-4 27-3 26"/>
<path d="M4400 3144l 10 25 5 29 4 31 4 28 4 30 1 33 0 25-1 24 0 24 0 24-1 33-1 31-1 30 0 28 3 28 3 25"/>
<path d="M4466 4060l-11 22-11 23-9 26-6 24-6 24-5 26-4 25 0 29 4 27 13 20 25 11 27 0 29-6 27-7 28-9 30-8 27-8 24-7 25-7"/>
<path d="M4621 4148l-16 20-7 26 1 24 5 30 5 27 7 31 7 31 6 24 8 30 11 30"/>
<path d="M6383 3925l 20-14 27-8 30-5 25-2 29-3 29-1 29 0 29 0 27 3 30 4 29 6 22 10 8 24-15 22-18 17-18 16-19 18-22 15-21 15-26 17-22 17-19 16 19 19 24 3 25 4 27 4 25 3 28 4 28 4 29 5 27 6 25 7 28 12 21 19 10 22 0 31-9 28-11 22-14 21-13 21-14 21-16 20-19 18-22 16-24 15-27 13-28 12-28 7-28 6-27 5-27 1-24 0-30-4-28-9-26-13-23-17-20-21"/>
<path d="M4316 5280l-6 23-2 26-3 32-2 26-1 26 0 26 1 27 1 26 0 27 0 28-2 27-3 26-1 25-3 31-1 25 5 24"/>
<path d="M4455 5346l 23-8 23-10 26-12 27-13 22-10 22-10 26-11 24-12"/>
<path d="M4590 5300l-19 18-19 23-15 23-13 25-12 25-9 25-1 27 14 23 22 9 26 0 28-4 32-6 30-8 31-4 30 0 27 5 24 7 26 13 18 18 11 23 1 26-9 28-15 24-19 19-22 17-25 14-28 12-27 7-28 1-25-8-21-12"/>
<path d="M6635 5303l-8 29-4 27-2 24-1 25 0 28 1 28 0 28 2 26 1 27 1 24-2 29 0 25 1 26"/>
<path d="M6756 5286l 20-17 25-13 25-9 27-5 24 1 27 11 18 21 7 24-5 29-17 23-19 22-21 20-23 17-21 16-21 17 26 7 26-10 29-10 31-8 30-6 26-4 25-3 28 0 29 1 31 6 27 13 12 22 1 28-13 31-15 27-19 25-22 25-24 23-23 22-23 21-23 19-22 15-23 13-27 9-25 3-25-9"/>
<path d="M8236 5264l-9-23-12-22-18-18-27-4-25 6-28 14-20 16-17 18-14 20-14 26-8 25-2 29 7 24 21 12 28 0 29-6 23-9 21-11 20-14 23-18 20-17 20-21 17-19-5 25-8 29-2 25-3 25-2 26-3 27-1 29-3 27-2 27-1 28-2 27-1 26-2 24 0 28 0 26 1 27 3 24"/>
<path d="M2635 6895l 4-26 5-29 4-24 3-29-1-25-6-25-16-21-23-13-26 1-24 15-22 21-15 21-14 23-11 24-10 29-4 25 1 25 8 23 14 22 19 18 21 17 23 15 27 14 26 16 22 11 26 14 26 16 22 17 17 20 12 21 6 25-1 29-6 24-9 23-12 22-19 25-22 18-24 11-26 0-22-10-22-20-15-21-12-28-6-33-1-24 0-24 4-36 10-33 9-23 9-23 11-22 11-22 13-21 14-20 21-30 22-27 23-24 22-20 21-18 19-17"/>
<path d="M2937 6769l 14 20 11 25 5 25 5 28 3 32 2 28 2 28 3 28 2 28 2 30 2 29 1 28 2 27 1 24 1 29 4 27"/>
<path d="M14471 2345l-20 17-15 22-14 26-12 21-14 28-12 27-10 26-3 29 3 27 14 24 19 18 26 7 27 0 28-6 27-10 27-12 22-10 22-11 26-15 20-13"/>
<path d="M14516 2517l 2 27-1 30-1 24 1 26 3 24 5 30 9 28 8 24 11 21"/>
<path d="M14741 2421l 18-20 21-13 26-12 24-7 25-7"/>
<path d="M14774 2459l-21 17-17 21-10 23 17 21 24 11 27 5 27 4 26 3 26 4 31 6 26 8 24 10 25 12 21 21 1 26-23 19-20 15-26 16-31 14-32 11-31 7-30 6-29 4-24 2-25-1-20-16"/>
<path d="M15180 2492l 24-9 26-7 23-7 24-7"/>
<path d="M15196 2462l-14 21-3 26 1 28 5 26 10 26"/>
<path d="M15583 2302l-20-20-24-10-24-6-24-1-25 4-26 8-22 14-22 14-18 17-14 24 1 28 14 26 20 18 22 13 23 12 28 8 26 9 29 9 28 9 28 10 22 11 20 17 10 24-6 26-22 19-26 14-23 8-30 9-25 2-27-5-21-14-14-25-3-30 3-27 5-28 8-29 15-32 13-20 18-28 21-23 20-19 22-14"/>
<path d="M15817 2221l-1 27 3 25 3 29 2 33 0 25 1 26 0 26 0 26-2 32-1 29 0 26-3 28-3 25"/>
<path d="M16059 2369l 26-11 24-7 28-7 26-5"/>
<path d="M16347 2207l 16-20 26-9 26-6 26-6 29-5 26-5 23 12-5 28-9 22-13 26-9 24-10 26-12 29-14 31-13 31-11 32-8 29-10 29-7 26-8 23-7 26-1 25"/>
<path d="M16674 2196l 26-9 25-1 25 5 24 9 22 12 21 15 6 27-4 27-15 23-19 22-19 16-19 15-21 15-22 16-21 16-25 19-18 18-18 19 24 8 27-4 26-3 27-5 28-2 28 2 26 3 24 10"/>
<path d="M4294 6632l 27-5 23-9 23-10 28-13 24-13 23-11"/>
<path d="M4332 6617l-17 17-12 25-7 23-4 25-1 27 2 28 4 25 10 24 20 13 25-1 25-6 24-9 26-12 25-9 26-6 25-2 26 2 25 6 23 11 14 21-4 27-13 27-16 27-15 21-17 22-18 17-24 20-25 16-26 16-27 10-28 6-24-9-5-24"/>
<path d="M4719 6620l-10 27-7 24-10 28-9 23-5 24-1 29 6 25 15 21 24 8 27-2 23-6 28-7 27-11 26-10 30-9 27-8 23-8 24-7 23-10"/>
<path d="M4858 6707l-18 17-6 23-2 26 0 24 1 27 2 27 3 26 6 28 6 29 7 27 6 24 7 23 9 24"/>
<path d="M14556 3696l 20-17 22-9 22-10 27-5 25 1 20 15 0 27-9 26-15 23-15 20-14 23-17 22-18 23-20 23-20 24-19 19-19 24-15 20-10 23 0 24 24 8 29-6 25-10 28-12 30-13 29-13 29-14 26-12"/>
<path d="M14984 3641l-21-16-24-5-28 1-24 5-25 7-22 12-23 14-22 16-17 18-13 21-1 25 12 22 25 14 27 11 24 7 30 4 25 5 25 6 29 7 25 9 22 17 6 28-11 25-18 23-21 22-25 19-22 12-26 6-25-3-18-18-7-29-1-25 4-31 7-32 12-34 13-34 10-22 18-29 19-25 22-20 23-19 23-13"/>
<path d="M15237 3736l"/>
<path d="M15371 3630l 25-5 25 2 26 3 25 7 13 22-14 20-17 21-14 22 20 16 23 6 24 6 25 8 21 14-1 26-10 24-16 23-19 18-21 18-23 16-25 13-22 12-24 9"/>
<path d="M15758 3667l 27 1 25 1"/>
<path d="M15705 3783l 26-7 28-3 25-4 26-4 25-4 25-4"/>
<path d="M16207 3578l-7-24-15-21-20-16-24 1-24 11-21 14-23 17-18 18-12 23-3 25 10 23 20 21 18 16 24 18 22 12 22 11 23 11 22 10 23 12 22 15 13 22 1 26-7 28-14 25-18 25-23 20-26 16-23 13-28 7-26-9-15-21-6-28 0-26 5-31 10-29 13-31 16-28 17-28 17-27 18-23 17-20 17-19 19-18 20-18 21-15 23-17"/>
<path d="M16525 3479l-15 20-12 22-11 25-11 28-12 27-4 29 6 24 15 19 26 10 29 4 25 0 28-4 28-7 28-8 30-9 26-8 23-8 22-11"/>
<path d="M16643 3555l-11 24 2 27 4 27 6 26 4 29 3 29 0 24 0 28 2 28 2 24"/>
<path d="M17019 3620l 24-10 28-4 24-6 25-4"/>
<path d="M17368 3461l 25-9 24-1 26 5 23 9 22 13 15 22-15 20-22 12-22 10-27 11-22 11 11 22 24 11 21 11 23 16 20 13 22 16 11 22-8 24-18 16-21 13-25 10-27 9-24 4-26-6-7-26"/>
<path d="M17662 3404l 25 3 27 1 26 4 25 8 20 17 10 23-6 27-13 22-13 22-19 21-22 21-19 18-18 17-13 21-13 22 16 20 27 0 24 0 25-4 27-2 25 0 26 0"/>
<path d="M18022 3524l 25-10 25-7 28-6 24-6 24-4 28-2"/>
<path d="M18050 3607l 21-14 26-4 27-1"/>
<path d="M18568 3396l 20-16 25-7 24-5 24-4"/>
<path d="M18555 3440l-20 17-16 19-14 23-3 24 18 18 27 4 28-4 28-6 26-7 29-7 27-6 25-3 27 2 26 9 19 15 6 25-10 25-21 19-24 16-26 15-22 12-23 10-24 9-24 7-27 6-26 3-25-2"/>
<path d="M18959 3414l 22 10 29 8 24 9 23 15 16 19-9 22-19 21-22 19-22 13-26 15-20 16-18 19-16 19 15 19 28 2 25 0 25-2 28-2 28-2 28-2 28-1 28 0"/>
<path d="M6502 6567l 27-3 25-6 27-11 26-11 24-10 25-7"/>
<path d="M6536 6576l-20 17-15 19-13 22-7 25 0 25 15 20 25 6 25-7 26-7 27-9 29-7 26-6 26-4 29-3 26 1 23 11 4 28-6 26-9 23-10 26-12 25-14 23-17 23-19 16-25 14-28 8-25 2-25-5-22-11-12-23"/>
<path d="M6932 6604l 17-17 25-8 27-5 24-1 27 2 24 7 18 16 7 24-6 25-12 24-17 26-14 21-17 20-18 19-19 18-19 16-22 20-21 16-21 16-22 15 27-3 23-6 25-5 24-4 26-2 28-2 28-2 25 0 25 3 26 8 19 15"/>
<path d="M14973 4797l-22 10-16 19-17 20-18 26-14 22-12 22-9 23-10 25-8 25-8 24-4 24 0 30 1 30 5 27 10 25 12 21 21 20 25 12 29 6 24-2 28-9 22-13 17-19-10-25-23-11-27-5-27-2-27 0-25 2-25 4-25 7-22 11"/>
<path d="M15200 4838l 24-11 25 1 26 5 24 7 19 17-13 20-18 18-25 16-23 16-19 14-14 20 15 21 24 4 25 1 27 4 21 14 8 25-11 23-14 21-15 18-16 19-18 16-24 16-21 12-24 6"/>
<path d="M15500 4943l 23-9 26-7 27-4 27-3"/>
<path d="M15810 4767l 23-9 28 2 25 5 25 6 25 11 16 19-4 27-14 22-18 18-24 20-20 16-20 17-21 17-22 18-22 17-20 15-22 17-17 20 6 25 27 0 27-4 25-6 29-10 25-9 27-12 32-11 29-11 31-14"/>
<path d="M16131 4691l-23 11-16 21-13 21-10 23-8 25-7 26 4 24 17 19 26 6 25-1 27-4 28-7 23-7 30-11 28-10 25-13 20-12"/>
<path d="M16195 4740l-16 20-8 25-6 26-4 24 1 26 2 26 2 26 6 27 6 25"/>
<path d="M16460 4741l 23-17 23-5 27-4 28-1 25 0"/>
<path d="M16449 4816l 25-5 30-5 28-5 25-5"/>
<path d="M16766 4604l 21-12 28-5 29-1 27 1 26 4 23 11 10 24-15 21-22 16-21 11-24 15-20 15 19 18 24 6 25 9 24 12 19 14 16 21-1 24-16 22-24 19-22 13-26 14-24 7-24 2"/>
<path d="M17226 4588l 24-17 24-19 20-16 18-19 6-24-18-16-30-3-31 5-24 7-24 8-26 10-16 21 1 27 22 14 26 4 24 3 27-2 26 2 15 20-3 28-7 26-8 26-7 29-7 28-5 26-8 26-6 26"/>
<path d="M8047 6314l 27-4 28-4 27-3 26-3 28 1 24 6 16 19-11 27-19 19-22 18-21 19-20 17-17 19 18 17 27 5 28 7 24 7 23 7 21 16 0 26-15 20-19 19-21 19-26 16-22 13-23 11-26 5-16-18"/>
<path d="M8562 6292l 14-23 7-28-1-25-13-25-19-15-29-6-25 5-25 14-23 18-16 21-5 23 15 21 27 6 25-5 28-7 23-7 23-11 21-11-1 27-5 25-3 24-3 24-3 29-5 24-3 26-3 29-3 30-3 28-3 27-3 26-2 28 2 25"/>
<path d="M9492 6280l 10-22 27 0 27 5 25 4 25 8 24 13 16 25-1 27-11 25-12 23-18 25-20 28-16 19-15 19-16 19-17 19-17 18-17 18-25 25-21 23-19 22-16 19-18 24-13 21 27 5 27-12 30-12 26-11 25-10 28-11 28-11 28-9 26-10 25-7 24-8"/>
<path d="M9791 6270l 16-19 21-14 21-12 23-10 24-10 24-8 23-5 28-2 23 10 0 28-10 25-9 26-11 29-9 24-11 25-11 27-12 28-9 28-9 27-8 25-6 23-6 28-5 26-7 28 2 26"/>
<path d="M3691 8718l-3 27-2 31-2 30-1 28 0 29-1 31-1 31-1 32 0 33 1 34 2 33 0 32 0 31 1 29 2 26 3 32 4 25 3 28 4 25 1 24"/>
<path d="M3757 10085l 1 27 1 25 0 30 0 32 0 31-3 25-1 27-2 26-1 28-2 27-1 26-2 24-1 24-2 30-2 25-4 24"/>
<path d="M5592 10142l 5 23 5 32 1 30-1 25 0 26 0 27 0 26 0 25-1 31-1 31 0 29-1 27-2 25-4 26-4 24"/>
</svg>
