<svg xmlns="http://www.w3.org/2000/svg" viewBox="422 -10670 14192 9224" stroke="black" stroke-width="20" stroke-linecap="round" stroke-linejoin="round" fill="none" data-xena="0 9 0"><style>@media(prefers-color-scheme:dark){svg{background-color:black;stroke:white;}}</style>
<path d="M1291 -10309l-1-1-2-1-1-2-2-1-2-1-2-1-1-1-2 0-1 0-2 0-2 1-2 1-2 2-4 2-3 3-4 3-5 5-5 5-5 7-6 8-5 9-7 10-6 11-7 12-5 13-7 14-6 14-6 15-6 17-7 16-5 18-7 18-6 18-6 19-6 18-6 20-6 20-6 19-5 20-6 21-5 20-4 20-4 20-3 20-4 19-2 19-2 17-2 17 0 17 0 16 0 17 1 16 1 15 2 16 1 15 3 14 2 15 3 12 4 13 3 12 5 11 2 12 5 10 5 10 5 10 6 8 6 9 6 8 6 9 6 7 7 6 6 7 7 5 8 6 7 4 8 4 8 4"/>
<path d="M1410 -9789l 0-3 0-3 1-5 1-5 2-5 1-7 2-6 2-5 2-5 2-5 2-5 2-3 3-4 2-3 2-4 2-3 1-3 2-2 2-3 1-2 2-2 1-1 2 0 2-1 0 0 2 0 1 1 2 0 2 3 1 2 2 3 0 4 2 4 1 7 2 8 0 9 1 10 0 11 0 13-1 13-1 14-1 15-1 16 0 16-1 17-1 15-1 18-1 16-1 16 0 16-1 14-1 14 0 14 0 12 0 11 0 10-1 10 1 9 0 5 0 7 1 4 1 4 0 3 1 2 1 1 1 0 1 0 1-1 1-2 2-4 3-5 3-6 4-7 4-9 4-11 4-11 5-14 5-13 5-15 4-15 4-15 4-15 3-16 4-16 4-16 4-15 3-15 3-15 4-13 3-14 3-14 2-14 2-12 1-13 2-12 1-13 1-12 1-12 0-11 0-10 1-7 1-9 1-7 0-7 1-5 1-3 0-2 0-2 0-2 0 1 0 1 1 1 0 3 1 3 0 4 2 6 0 7 1 8 2 8 1 10 2 11 1 12 1 12 2 14 2 13 1 14 3 16 1 15 2 17 2 18 2 18 1 18 2 19 2 20 1 20 2 20 2 20 1 21 2 19 1 22 1 21 2 21 0 21 1 21 0 21 0 21 0 19 0 20 0 19 0 19-1 18 0 17-2 18 0 17-1 17-2 14-2 15 0 14-2 13-1 12-2 11-1 10-1 9-2 6-2 7-1 5-3 5-2 3-1 3-2 1-2 0-3 0-2-1-4-2-4-4-3-4-5-5-5-6-5-8-6-10-4-10-6-12-4-14-5-14-4-15-3-17-3-17-3-17-1-17-2-18-1-17 0-17 1-17 0-16 2-17 2-17 2-15 2-16 3-14 3-16 4-14 4-15 3-14 4-14 5-12 4-13 5-12 5-11 4-12 6-10 5-10 5-10 5-8 5-9 6-8 5-7 5-8 6-7 6-6 6-6 6-6 6-4 5-3 6-4 7-4 5-2"/>
<path d="M1829 -9676l 0 0-1 1 0 0 1 0 0 1 0 2 0 1 0 2 1 2 0 3 0 4 0 3 0 4 1 3 1 5 0 4 1 4 0 5 1 5 1 5 0 5 0 4 1 5 1 4 1 4 0 5 0 4 1 4 0 5 1 5 0 4 0 3 0 5 0 4 0 4 0 4 0 3 0 4 0 3 0 3 0 2 0 3 0 2 1 2 0 2 1 2 0 2 1 1 0 1"/>
<path d="M2039 -9582l 0 1 1 2 0 3 1 3 1 3 1 4 1 4 1 4 0 3 1 4 2 5 0 5 0 4 0 6 1 5 0 5-1 6 0 7 0 7-2 6-1 7 0 7-2 8-2 7-1 8-2 8-2 8-2 7-2 7-3 7-2 7-3 6"/>
<path d="M2184 -9879l 0-4 1-3 0-4 2-5 2-5 2-6 2-7 3-5 3-6 4-6 3-5 4-7 3-5 4-6 3-5 4-5 4-5 2-4 3-3 4-4 3-3 3-2 4-2 3-2 4 0 5-1 4 0 4 0 5 1 4 1 4 2 5 2 5 3 5 4 5 4 4 5 4 7 5 8 5 8 4 9 4 11 4 11 3 11 4 12 3 12 3 13 2 13 3 14 2 13 3 13 1 14 2 13 2 13 2 12 3 13 1 11 2 13 2 12 2 11 2 12 2 11 3 10 2 9 2 10 3 8 3 7 3 8 3 6 2 6 4 5 3 4 3 4 4 3 4 2 3 1 4 1 5 1 3 0 5-1 5-1 5-2 6-3 6-4 8-5 6-5 7-6 7-8 7-8 7-10 7-10 6-12 7-12 6-11"/>
<path d="M2535 -10045l-3 1-3 3-3 3-4 4-5 5-5 6-5 7-5 8-5 8-5 9-5 10-6 11-6 12-6 13-8 14-7 14-8 16-7 15-8 16-7 16-8 16-6 17-7 16-7 16-6 17-6 18-6 16-7 18-7 19-6 17-6 18-6 17-6 15-6 15-5 15-5 12-4 11-3 10-3 9-2 6-1 5-2 5 0 2 0 2 1 1 1-1 3-2"/>
<path d="M2673 -9675l-1 1 0 2-1 2-1 2-1 4-1 3-1 4 0 4-2 4-1 5 0 5 0 5-1 5 0 5-1 6 0 7 0 6 0 6 0 6 0 7 0 6 0 6 0 7 0 6 0 6 1 5 1 5 1 4 1 4 1 3 2 3 1 2 2 3 2 1 2 1 2 0"/>
<path d="M2675 -10295l-1 0 1 1 0 1 1 2 1 2 2 3 2 5 2 4 3 6 4 5 5 7 6 8 5 7 8 9 7 9 8 9 8 9 8 9 8 12 8 11 8 11 10 11 8 12 9 11 8 12 10 13 8 11 8 12 8 12 8 12 6 13 7 13 7 13 6 14 6 12 6 15 5 15 4 14 4 15 4 15 3 15 1 16 1 16 1 16 0 17-1 16-1 16-2 17-3 17-4 16-4 17-4 16-5 17-5 17-5 16-7 15-6 16-6 15-8 14-7 14-8 13-10 13-9 12-10 12-10 12-11 12-11 11-11 12-12 10"/>
<path d="M1221 -9017l 0-1-1 0 0 0-1 0-1 0 0 0-1 0 0 1 0 0 0 1-2 1 0 2-3 2-2 3-3 5-3 6-5 8-5 9-7 12-6 12-6 15-8 14-7 16-8 17-7 17-8 18-6 18-7 19-6 19-6 20-6 20-6 19-5 21-5 20-5 20-5 20-5 20-3 21-4 20-2 21-2 19-1 19-1 20 1 20 1 17 1 19 1 18 2 17 2 17 3 17 3 16 3 15 4 15 4 14 5 14 5 13 5 12 5 12 7 11 6 9 7 9 8 8 7 9 8 7 9 7 9 6 10 7 10 5 11 5 11 3 12 3 13 2 12 1 14 1"/>
<path d="M1366 -8653l 1-3 1-2 2-3 1-3 1-3 2-4 2-2 1-1 0-2 1-1 1 0 1-1 0 1 0 0 1 2 1 1 1 1 1 2 1 3 2 4 1 5 2 6 1 7 1 8 1 9 1 11 0 11 1 12 0 12 0 14-1 14-1 13-1 15 0 13-1 13-1 14 0 13-1 13-1 12 0 13-1 12 0 11 0 11 0 11 0 10 0 9 0 8 1 7 1 7 1 5 0 3 0 3 1 2 1 1 0 0 1 0 1 0 1-1 0-2 2-3 3-3 2-4 3-6 5-9 4-10 5-11 5-14 5-15 6-16 5-16 5-17 5-18 5-18 5-18 5-17 5-17 5-17 5-16 5-16 4-15 4-14 4-14 4-13 4-12 2-11 3-12 2-10 2-9 2-9 1-8 2-7 1-5 2-6 0-4 0-3 1-3 0-2 0 0 0-1-1 1 0 0 0 1 0 2-1 2-1 3-1 4-1 6-1 6 0 9-2 9-1 11-1 13-1 14-1 15-1 16 0 17 0 17 1 18 1 19 0 19 1 19 2 19 1 21 2 20 2 19 1 21 2 22 2 22 2 22 2 23 3 23 2 22 2 24 2 23 1 23 2 21 1 23 2 21 1 21 0 20 0 19 0 19-1 19-1 17-1 17-2 16-2 15-3 14-2 12-2 11-3 10-3 8-3 7-2 6-2 4-2 3-2 3-2 1-2 0-3 0-3-1-3-2-4-4-5-4-5-7-5-7-5-8-7-11-5-12-6-14-5-15-5-17-5-18-4-20-3-21-3-22-2-22-1-23-1-23 1-23 1-23 2-22 2-22 3-22 3-20 4-20 4-18 5-18 6-16 6-16 6-14 7-13 7-13 7-10 8-11 9-9 9-9 9-7 10-8 9-6"/>
<path d="M1747 -8511l-1-1-2 0-1 1-2 0 0 1-2 0-1 0 1 0 1 0 1 0 0 0 2 0 1 0 3 0 2 0 3 0 4 0 3 0 3 0 3 0 2 0 3 1 2 0 1 1 3 1 0 2 2 2 1 2 0 3 1 3 0 4 0 5-2 5 0 5-2 5-1 6-2 6-2 7-3 7-2 6-3 7-3 6-4 6-3 7-4 6-4 6-4 6-5 5-4 6-4 6-4 5-4 3-3 5-3 5-3 3-2 4-1 3-2 3-1 2-1 3-1 2 0 2 0 1 0 1 0 1 1 0 2 1 1 1 1 1 3 0 2 0 4 0 4 0 3 0 5-1 5-2 6-2 6-3 5-2 7-3 7-4 7-4 7-4 7-4 7-4 7-5 8-4"/>
<path d="M1958 -8416l 0 1 0 1 1 2 0 2 0 3 1 3 0 4 0 4 0 4 0 5 0 5-1 5 0 5 0 6-1 6-1 7-1 8-2 7-1 8-1 9-3 8-2 9-3 9-2 9-3 9-2 8-3 9-3 10-3 8-4 10-4 8"/>
<path d="M2224 -8703l 1-2 0-2 2-3 1-3 2-4 2-3 1-4 2-2 2-3 2-2 2-2 2-2 2-2 3-2 2-1 3-2 2-1 3-1 2 0 3-1 3 0 2 0 3 1 3 0 3 1 3 2 3 2 4 3 3 3 4 4 4 3 3 6 4 6 4 7 3 8 4 8 4 10 3 11 3 11 3 12 3 13 3 14 3 14 2 14 3 15 2 13 3 15 2 14 3 13 1 13 2 12 2 11 3 11 2 10 2 9 3 9 2 8 3 7 2 5 3 6 2 3 2 4 3 2 2 3 3 2 3 1 2 1 3 0 4 0 3 0 5-2 4-1 6-2 5-4 8-4 7-5 8-6 7-8 9-7 9-8 7-10"/>
<path d="M2490 -8811l-4 1-3 3-4 4-5 5-7 5-7 6-8 8-7 7-7 7-7 9-7 9-8 10-7 10-7 11-7 12-7 13-7 14-7 13-8 15-8 17-8 17-8 17-8 18-8 18-7 18-8 19-6 18-7 18-7 17-5 17-5 16-5 16-6 15-4 14-3 13-3 13-2 11-2 12-2 9 0 9 0 7 0 5"/>
<path d="M2570 -8491l 0 0 0-1 1 0 0 1 2 0 1 0 2 0 3-1 4 0 3 0 4-1 4-1 4-1 4-1 4-1 5-1 3-2 4 0 3-1 4-1 3 0 3-1 3 0 2 0 1 1 2 1 2 1 0 3 0 2 0 3 0 4-1 5-1 5-3 6-2 5-4 7-3 7-4 7-4 7-5 7-4 7-4 7-5 7-5 5-4 6-4 6-4 6-4 6-4 5-4 5-3 5-3 5-3 4-2 3-2 4-2 4-1 2-1 2 0 2-1 1 1 1 0 1 1 1 2 0 2 0 2 1 2 0 4 0 3-1 5-1 5-2 5-1 5-3 6-3 7-3 5-4 6-3 6-5 7-4 7-5 6-5 8-5 6-5 6-5 7-5 7-5"/>
<path d="M2626 -9036l 0 0 1 1 1 1 2 2 1 3 3 3 3 4 5 4 5 4 5 5 6 4 6 5 7 6 7 5 7 7 8 5 8 7 8 7 8 7 8 6 8 8 9 7 9 8 9 9 9 8 8 8 9 10 9 7 7 10 8 9 7 9 7 10 6 10 6 10 6 10 5 11 5 11 3 13 4 12 3 12 3 13 1 13 1 13 1 14 1 15-1 15-1 16-2 17-2 17-3 19-3 19-4 18-4 19-5 20-6 19-6 19-6 19-7 18-7 18-7 17-9 18-9 15-7 16-9 15-9 14-9 14-9 13-9 12-8 12-9 10-9 9-9 10"/>
<path d="M1672 -7711l-1 0-1 0-1-1-1 0 0 0-1 0-1 0 1 0 1 0 1 0 2 0 2 0 3-1"/>
<path d="M1826 -7718l-2 1-2 0-2 1-2 2-2 1-3 2-1 2-2 1 0 1-1 2-1 1-1 2 0 0 0 1 0 1 1 1 1 0 1 0 2 0 2 0 3 0 3-1 5-2 5-1"/>
<path d="M2007 -7751l-1-1 0 1 0 1 0 0 0 1-1 0 0 1 0 1 0 0 1 1 0 1 1 0 1 2 3 1 2 1 3 1 3 0 4 1 5 0"/>
<path d="M7019 -10109l-1-1-1 0-2 1-1-1-1 0-3 0 0 0-2 0 0-1-2 0-1 0-1 0-1-1-1 0-2 0-1 0-1 0-1-1-1 0-1 0-1 0-1 0-1 0-1 0-1 0-1 0-1 0-1 0-1 0-1 0-1 0-1 0-2 1-1 0-1 0-1 0-1 1-2 0-1 1-1 0-2 0-1 0-1 1-1 1-2 0-1 1-2 1-1 1-1 1-1 1-1 0-1 1-1 1-1 1-1 0 1 0-1 0 0 1-1 0-1 1-1 0-2 0 0 0 0 0-1 1-1 1 0 1-1 0 0 0-1 0-1 1 0 1-1 0-1 0 0 1 0 1 0 1-1 0 1 0-1 0 1 0-1 0 0 1-1 0 0 1-1 0 0 0 0 1 0 0 1 0-1 1 0 1 0 0 0 1 0 1 0 2 0 2 0 1 0 3 0 2 1 3 1 4-1 4-1 4 1 5 0 5 1 6 1 7 1 7 0 8 1 8 2 9 1 9 1 9 1 11 1 11 2 10 0 10 2 11 1 10 2 11 1 11 1 10 3 12 1 11 1 12 2 11 2 11 1 13 2 11 1 12 1 12 1 12 1 13 2 13 1 14 1 15 1 14 2 14 1 15 1 15 1 14 2 14 0 14 2 15 3 13 0 15 2 13 1 14 2 15 1 13 2 14 2 13 0 14 2 14 2 13 1 13 1 14 2 13 2 14 2 13 1 13 1 13 1 14 2 13 1 14 1 13 1 15 0 12 0 14 0 14 0 13 0 14-2 13 0 11 0 12 1 12-1 11 1 11 1 12 0 11 0 10 1 10 0 10 0 10 1 11 0 10 0 10 0 9 0 10 1 8 0 9 1 8 1 7 0 7 0 6 0 7 0 6 1 7 1 5 0 5 0 5 1 6 1 4 1 5 0 4 1 5 1 4 0 4 2 3 1 4 0 3 2 3 0 3 1 3 1 3 0 1 0 2 0 2 1 1 0 2 0 0 0 1 0 1 0 1 0 0 0 1 0 1 0 0 0 0 1 0-1 0 0 0 0 0 0 0 0 0 0 0 0 0 0 0 0 0 0 0 0 0 0 0 0 0 0 0 0-1 0 1 0-1 1 0-1 0 1 0 0-1 0 1 0-1 0 1 1 0 0 0 0 0 0 0 1 0 1 0 1 0 1 0 1 0 2 0 2 0 2 0 3 1 2 0 2 0 3 0 2 0 3 0 2 0 2 0 3 0 2 0 3 0 2 0 2 0 2 0 3 0 2 0 3 0 3 0 2 0 2 0 2 1 2 0 2 0 3 0 2 1 1 0 2 0 1 0 1 0 2 0 1 1 2 1 2 0 1 0 2 0 3 0 2-1 3-1"/>
<path d="M7359 -10098l 0 0-1 0 0 1 0 1-1 1-1 2-1 3-1 3 0 3-1 5 0 4 0 5 0 6 0 5 0 6 0 7 0 7 0 7 2 7 0 8 0 7 1 8 2 8 0 8 1 9 1 8 0 8 2 9 1 8 1 8 1 9 1 7 2 8 1 7 1 8 0 6 0 8 0 7 1 8 1 8 0 8 0 8-1 7 0 7 0 7-1 6 0 6-1 5 0 5-1 5 2 4 0 3 0 4"/>
<path d="M7229 -9346l 1-2-1-2 1-1 0-2 0-3 0-3 1-3 1-3 0-2 1-3 0-3 1-2 1-3 0-4 2-2 1-3 1-3 1-2 1-3 2-3 2-2 2-2 1-3 2-2 1-1 2-2 1-1 1-1 0 0 1-1 2-1 1-1 1 0 0 0 2 1 1 0 1 1 1 1 2 0 1 1 3 1 2 2 3 2 4 3 3 3 3 3 4 3 4 4 4 5 4 4 3 5 5 4 3 5 4 5 3 6 4 5 3 6 3 5 4 6 3 7 2 5 4 7 2 7 3 6 5 7 2 8 4 8 3 9 3 8 4 9 3 8 3 9 1 9 3 9 3 8 3 10 3 8 2 10 2 8 3 9 3 8 2 8 3 8 2 9 3 7 3 8 2 7 3 7 3 7 2 6 2 7 3 5 2 6 2 5 3 5 2 5 2 5 3 5 3 3 2 4 3 3 2 2 4 3 3 2 3 3 3 1 3 1 4 2 3 1 3 1 4 1 3 0 2 0 4 0 3 0 3 0 3-2 3 0 3-3 4-1 3-3 4-3 4-4 4-4 4-5 4-5 5-5 4-5 5-6 5-6 3-5 5-6 3-7 4-5 4-7 4-6 4-7"/>
<path d="M7491 -9493l-1 0 0 0-1 1-1 0-1 0-1 1-1 1-1 1-1 1-1 1-1 1-1 2-1 2-1 3-1 2-2 4-2 4-1 3-2 4-3 5-3 6-3 6-4 6-4 7-4 8-4 6-5 8-5 8-4 10-4 8-5 9-4 9-4 10-4 9-5 10-4 10-4 8-5 10-5 10-4 11-4 10-5 11-5 10-5 11-5 11-5 10-5 9-5 10-5 10-4 9-5 10-5 9-4 9-4 7-4 9-4 7-4 7-3 7-4 6-3 6-3 6-2 5-3 5-2 5-2 4-1 4-2 4-1 3-1 2-1 3 0 2-1 1-1 2 0 1-1 1 0 1 0 1-1 1 0 0 0 0 1 0-1 0 0-1 1 0 1 0 0-1 0 0 1 0 1 0 1 0"/>
<path d="M7678 -9093l-1 0 0 1 0 0 0 0 0 1 0 1 0 1 0 0 0 2 0 0 0 3 0 1 2 1 0 3 1 3 1 4 0 3 1 5 0 4 1 4 1 5 0 4 1 5 1 5 1 5 0 5 1 4 1 5 0 4 0 5 1 4 0 3 1 5 1 3 0 5 1 3 0 4 1 4 0 4 0 2 0 4 1 3 0 2 0 3 1 2 0 1 0 3 0 1 1 1"/>
<path d="M7682 -10233l 1 0 3 0 2 0 3 0 3 0 4 0 3 0 3 0 3 0 2-1 3 0 3 0 2 0 3-1 3-1 3 0 3-1 4 0 3 0 4-1 4-1 3 0 3 0 3-2 2-1 3 0 2 0 1 0 2-1 2 0 2-1 1 0 2 1 1 0 1 0 1 0 2 1 1 0 0 0 1 0 1 1 0 0 2 1 1 1 0 0 1 0 1 1 0 1 0 0 1 1 1 1 1 1 0 1 0 1 1 1 1 2 0 1 1 1 1 3 1 2 0 3 2 2 0 3 1 2 1 3 0 2 1 4 1 3 1 4 1 4 1 5 1 4 0 5 1 6 1 5 1 5 1 5 1 6 1 7 1 6 3 6 2 8 2 7 1 8 2 7 3 8 2 10 1 9 2 9 2 10 2 11 2 11 2 11 3 11 2 13 2 12 2 13 3 12 1 13 2 12 2 13 2 12 3 12 2 12 3 11 2 11 2 12 2 11 2 11 2 10 2 10 1 9 2 10 2 10 2 10 3 10 2 11 3 11 2 10 2 12 3 10 2 12 2 11 2 12 3 10 2 11 2 11 2 11 2 11 2 11 2 11 2 11 2 10 2 10 1 11 3 10 2 11 3 11 3 10 3 10 2 9 2 9 3 9 2 10 2 8 3 9 1 8 2 9 2 8 2 8 2 8 2 8 2 9 2 8 2 9 3 8 1 8 2 8 2 7 2 7 1 8 2 7 1 8 1 7 2 8 1 9 2 8 1 8 2 7 1 7 1 7 2 8 1 6 1 7 1 6 0 7 2 6 1 6 2 5 1 6 1 6 1 4 1 5 1 5 1 5 0 4 1 5 1 5 1 5 1 4 0 5 1 4 1 5 1 5 1 4 1 4 0 4 1 5 1 3 1 5 0 5 0 4 1 5 1 4 0 5 1 4 1 5 0 5 1 4 0 5 1 4 1 5 1 4 0 3 1 4 1 4 0 2 1 4 0 3 0 3 1 3 0 2 1 3 1 2 1 3 0 2 0 3 0 2 1 3 1 2 0 3 0 2 1 3 1 2 1 3 0 2 0 2 0 2 0 2 0 2 1 2 0 2 0 2 0 1 1 2 0 1 0 2 0 2 1 1 0 2 1 0 0 2 0 1 0 0 0 1 0 1 0 0 0 1 0 1 0 1 0 0 1 1 0 1-1 0 0 0 0 1 1 0 0 0 0 1-1 0-1 0 1 0 1 0-1 0 1 0-1 1 0-1-1 0 0 1-1 0 0-1 0 1 0 0 0 0-1 0-1 0 0 1-2 1-1 0-2 1-1 1-2 1-2 0-1 1-2 1-2 1-1 0-2 1-2 1-2 0-2 0-2 1-3 1-2 0-4 1-3 1-4 1-3 0-4 0-3 1-3 1-4 0-3 0-3 1-3 1-2 1-4 0-3 0-3 1-2 1-3 0-3 0-2 1-3 0-2 0-2 1-1 0-2 1-3 0-1 0-1 1-1 0-2 1 0 0-1 0-1 0 0 0-1 0-1 1-1 0 0 0-1 1-1 0 0 0-1 1-1-1 0-1 0 1"/>
<path d="M8189 -9466l 0-1 0 1-1 0 1 0 1 0 0-1 0 0 0 0 1 0 1-1 1-1 0-1 1-1 1-1 0-1 1-2 1-1 1-1 0-2 0-1 1 0 0-1 1-1 0 0-1 0 0-1-1 0 0-1 0-1-1 0-1-1-1 0 0-1 0 0-1-1-1 0 0 0 0-1-1 0-1 0-1 0 0 0-2 0 0 0-2 0-1 0-1 1-1 0-2 1-1 0-2 1 0 1-2 1-1 2-1 1-1 2-1 2-1 2-1 3-1 2-1 3-1 2-1 3-1 2 0 3-1 2 0 3 0 2-1 1 0 2 1 2-1 1 0 2 1 0 0 1 0 1 0 0 1 0 0 0 1 0 2 0 0 0 2-1"/>
<path d="M8497 -9823l 0 1 0 1-1 2 0 3 0 4 0 5 0 5 0 7 1 7 0 8 1 8 1 10 1 10 1 11 0 12 1 11 1 12 0 12 1 12 1 13 1 12 0 13 1 14 0 13 1 14-1 14 0 15 1 15 0 15 0 15 0 15 0 15 0 15 1 15 0 15 0 15-1 13 0 14 0 14 0 14 0 12-1 13 0 11 0 11 1 11 0 10 0 9-1 9 1 9 0 7 0 7 0 6-2 5 0 5 0 3 0 3 0 1 0 1 0 0 1-1 1-2"/>
<path d="M8471 -9856l 0-1 1-3 0-2 1-3 2-2 1-3 2-3 4-3 3-2 4-2 5-3 6-2 7-2 7-3 8-2 10-3 10-2 10-2 10-1 12-2 11-3 12-1 11-1 12-1 12-1 11-1 12-1 11 0 12-1 11 0 11 0 12 0 10 2 9 1 9 2 9 2 7 3 7 2 6 3 6 4 4 3 4 5 4 5 3 5 2 5 1 6 0 7-1 7-1 8-3 8-3 9-5 10-7 10-8 12-9 12-11 13-10 13-13 14-12 14-14 15-14 14-13 13-14 14-14 12-14 12-14 10-15 11-13 9-13 10-15 8-12 7-11 7-11 8-10 5-8 5-8 5-7 4-5 3-5 3-4 2-4 2-2 1-3 0-1 0-1 0 0-1-1-1 1-1 0-1 0-1 0-3 1-2 1-3 2-3 2-4 4-4 3-4 4-4 5-4 5-4 5-3 6-4 8-3 8-2 8-2 9-1 9-1 10-1 10-1 10 0 10 1 11 1 11 1 11 2 12 2 11 2 11 2 12 3 11 3 12 2 11 2 12 2 12 3 11 3 12 3 10 3 11 3 10 4 11 3 9 5 10 3 9 5 9 5 8 5 8 5 6 5 6 6 5 6 5 6 4 7 4 6 2 6 3 7 1 7 0 6 0 8-1 8-1 8-2 9-2 8-5 9-5 10-4 10-6 10-5 9-7 10-7 10-7 10-8 9-8 10-8 8-10 9-8 8-10 7-10 8-10 7-10 6-10 6-12 5-10 4-11 4-11 3-11 2-11 3-11 0-11 0-10 0-10-1-11-2-10-2-10-3-11-4-9-3-11-5-10-5-9-5-8-4-10-6-8-5-9-5-8-6-6-6-7-5-6-5-4-5-5-5-4-5-3-4"/>
<path d="M9143 -9689l-1-1-3 0-2 1-2 0-2 1-3 0-2 1-1 1 0 1-1 0-1 0 0 0 1 0 1 0 0 0 1 0 1 0 2 0 2 0 2 1 3 0 4 0 4 0 4 0 5 0 5-1 6 0 6-2 7-1 8-2 7-2 8-2 7-3 8-2 7-3 9-2 8-3 7-2 9-2 7-2 8-2 7-3 8-2 6-1 6-1"/>
<path d="M9113 -9557l-1-1-1 0-2 0 0 0-1 0-1 0 0-1 0-1 0-1 1 0 1 0 0-1 0-1 2 0 1-1 2-1 3-1 3-2 4-2 5-2 6-2 6-3 7-3 8-3 8-3 9-2 9-4 10-3 10-3 10-3 10-2 10-3 10-3 12-2 11-3"/>
<path d="M9533 -9727l-1-1-1 0-1 0-1 0-1-1-1 0-1 1-1 0-1 1 0 1-2 3-1 2-1 3-3 4-2 5-1 5-2 6-2 7-1 8-1 7-1 8 2 9 0 8 0 9-1 9 1 9 1 9 2 9 0 8 2 9 2 8 1 9 2 8 3 8 2 7 3 7 2 6 3 6 2 4 3 5 3 4 3 3 3 3 3 1 3 2 4 1 4 1 4 0 5 0 4-2 6-1 5-2 5-2 6-4 7-4 5-4 6-5 6-6 6-5 4-6 6-6 5-7 4-5 5-7 4-6 4-7 4-7 4-7 3-7 3-7 2-8 1-7 2-7 1-7 0-7-1-7-2-7 0-8-2-9 0-8-2-8-2-8-2-9-2-8-2-9-3-6-2-7-2-7-1-5-2-5-1-3-2-3-1-3-2-2-2-2-2 0-1-1-2-1-1 0-1 1-1 0-1 0-1 1 0 1 0 1-2 2-1 2-2 2-1 3-1 4-2 3-1 4-2 5 0 5 0 5 0 5 1 6 1 5 1 7 2 7 2 7 2 7 2 8 2 8 4 8 3 8 2 8 3 7 3 8 4 9 3 7 3 9 3 8 3 8 3 9 3 9 2 8 3 9 3 9 3 9 3 9 3 9 3 9 4 10 3 9 4 8 3 9 3 10 3 9 3 10 3 10 3 10 1 9 2 9 3 10 2 9 2 9 2 9 1 9 3 9 1 10 1 9 1 9-1 10 2 9 1 10 0 10 0 9 0 9 0 9-1 8 0 8-1 8-1 9-1 8-1 7-2 7-2 7-3 6-3 6-3 7-3 5-4 5-3 5-5 5-5 5-4 5-6 3-5 4-4 3-6 2-6 3-6 1-6 1-7 0-7 1-7-1-7 0-8-1-8-1-7-2-8-3-7-3-7-3-8-4-7-5-6-5-7-5-6-6-6-7-6-6-5-6-5-7-5-7-5-7-5-7-5-7-5-8-4-7-3-7-3-8-2-6-1-7-1-7-1-8 0-6 1-8 1-6 3-7 2-6 3-7"/>
<path d="M9874 -9588l 0-1-1 0 1 0 1 0 0 1 0 1 1 0 2 2 1 1 1 2 2 2 2 3 3 3 2 3 1 4 3 3 1 4 1 4 2 5 1 5 0 5 2 5 0 5 1 5 1 5 1 4 0 5 1 4 1 4 0 5 2 3 1 4 1 4 0 4 1 3 0 4 0 3 1 4 0 3 0 3 0 4 1 2 0 2 0 2 0 2"/>
<path d="M9514 -9908l-1-1 0-1 0-1 0-1 0-2 0-1 0-2 0-2 0-2 0-2 0-2 0-3 0-3 2-3 2-4 2-4 2-5 3-6 3-6 3-6 4-7 4-7 2-8 4-7 4-8 3-7 4-8 4-7 4-7 4-6 4-7 4-6 3-7 5-5 2-5 3-5 3-5 2-4 2-3 3-3 2-3 1-3 2-1 1-3 1 0 0-2 1-1 1-1 1 0 0-1 0 1 0 1 1 0 1 1 0 0 1 1 2 1 1 3 2 2 2 2 2 3 3 3 2 5 4 4 4 4 2 5 3 5 4 4 3 5 3 6 3 5 4 5 3 4 4 5 3 5 4 4 4 4 3 5 4 4 3 4 4 4 3 4 3 3 4 3 3 4 3 4 2 3 3 2 3 3 2 2 3 2 2 3 2 2 3 2 2 1 2 2 2 2 1 1 2 2 1 1 2 2 0 1"/>
<path d="M7956 -10456l 0-1 0 0 0-1 0-1 0-1 1 0 0 0 0-1 0-1 0 0 0-1 0-1 1-1 0 0 1-1 1 0 0-1 1 0 1 0 1 0 1-1 1 0 2-1 2 0 2-1 3 0 2 0 3-1 3-1 4 0 4 0 4-1 4-1 4-1 5 0 6 0 5-2 6 0 6-1 6-1 6-1 8 0 6-2 8 0 6-2 7-1 8-2 8-1 8-2 8-1 8-1 7-2 7-1 7-2 7-2 7-1 7-2 6-1 5-2 5-1 5-1 5 0 3-1 3-1 3-1 2 0 2 0"/>
<path d="M8102 -10443l-1 0 0-1 0 0-1 0 0 0-1 0 1 0 1 0 0 1 1 1 1 1 0 2 2 2 1 2 1 2 1 3 2 3 4 8 4 8 3 9 3 9 3 9 3 7 3 9 1 6 2 8 2 6 1 7 1 7 1 7 2 8 0 7 2 8 1 8 1 7 1 8 1 7 1 8 1 7 1 6 0 6 1 6 0 7 1 5 1 6 1 6 0 5 0 7 1 6 1 5-2 6 1 6 0 5 1 5 0 5 1 4 0 4 1 3 1 2"/>
<path d="M1247 -7121l-1-1 0 1 0 1 0 0 0 1 0 2 0 1 0 3 0 3 0 5 0 5 0 5 0 8 1 7 0 9 1 9 0 10 1 10 0 12 1 11 0 13 0 13 0 13 0 13 0 14-1 14-1 14 0 15 0 14 0 14 0 15 0 14-1 15-1 14 0 14 0 13-1 13 0 12-1 12-1 12 1 10 0 9 0 7 0 7 1 6 1 5 0 4 0 3 0 2 0 1 1 0 1-1 0 0 1-3"/>
<path d="M1266 -7165l-1-1 0-1 0-2 0 0 0-2 0-2 0-1 1-2 1-1 3-2 2-1 3-1 3-3 4-2 4-2 5-2 5-2 6-2 6-2 7-1 6-2 7-1 7-1 8 0 8-1 8 0 8 0 9-1 9 0 7 1 9 0 8 0 8 1 8 0 7 0 7 0 6 1 7 1 5 1 5 1 6 1 5 2 4 1 4 2 4 2 2 1 3 3 2 3 0 3 1 4 0 5-1 6-1 6-2 8-4 8-5 8-5 9-5 10-7 10-8 11-8 10-8 12-9 11-10 11-10 11-10 10-10 10-10 10-10 9-10 9-10 7-8 8-9 7-8 6-6 5-7 5-5 4-6 3-4 3-5 2-3 2-4 2-3 1-2 0-2 1-1 0-2 0 0 0 0-1 0 0 0-1 1-1 1-1 2-1 2-1 3-2 3-2 4-2 5-3 5-2 6-3 7-3 7-3 7-2 8-2 9-1 8-2 9-2 10-1 9 0 10-2 10-1 10 0 10-1 10 0 11 0 10 0 10 0 10 1 8 0 10 1 10 1 9 2 8 2 9 3 8 3 8 4 7 4 6 5 7 5 5 5 5 5 5 6 4 7 4 7 3 8 3 8 1 9 1 10 1 10 0 11-2 11-1 11-2 12-3 11-4 13-3 11-5 13-4 12-7 12-7 11-8 12-8 11-10 11-10 11-11 10-12 10-12 10-12 9-12 9-13 8-13 7-13 7-12 7-13 6-12 5-13 5-12 4-12 4-11 4-12 2-11 3-12 2-10 3-11 1-10 1-10 0-9 0-10 0-8 0-8-2-7-2-7-3-7-3-5-4-5-4-5-5-4-5-4-6-2-5-1-6-2-7 1-7 1-7 1-8"/>
<path d="M1760 -7045l-2 0-1 1-1 0-2 1-1 2-2 1-2 1 0 3-2 2-1 2 0 2-1 2 0 2 1 3 0 3 0 3 2 3"/>
<path d="M1789 -6934l-2 1-2 1-2 2-3 1-3 1-3 3-2 2-2 1-1 2-1 1-1 1-1 1 0 1 0 1 1-1 1 0 0-1 1-1 1 0 2-2"/>
<path d="M7014 -7869l 0 0-1 0 0 0 0-1-1 0-1 0-1 0 0 0-1 0-1-1 0 0-1 0-2-1 0 0-2-1 0 0-2 0-1 0-2 0-1-1-1 0-2-1-1 0-2 0-2 0-2 0-2 0-2 0-3 0-2 0-3 0-3 1-3 0-4 1-3 0-4 0-3 1-4 1-3 1-5 0-3 0-5 1-3 0-4 1-3 0-4 0-3 0-3 0-4 0-3 0-3 0-3 0-3 0-3 0-3 0-3 0-2 0-3-1-2 0-3 0-2-1-1 0-2 0 0 0-2 0 0 0-1 0-1 0-1 0 0 0 0 0-1 0 0 0-1 0 1 0-1 0 1 0-1 0 0 0 0 0 0 0 0 1-1 1 0 1 0 2 0 2 0 2-1 3-1 3 0 4 0 4 0 4 0 5-1 5 0 4 1 5-1 4 1 4 0 4 0 4 0 5 0 4 1 4 0 5 1 5 1 5 0 5 0 6 0 6 1 6 0 7 1 6 0 6 0 7 0 7 1 8 0 7 1 8 1 8 0 9 0 9 0 9 0 9 0 8 1 9 0 10 0 10 1 9 0 10 1 9 0 10 2 9 0 10 0 10 2 10 0 10 1 10 0 10 1 10 1 9 0 9 1 10-1 10 1 10 1 9 0 10 0 10 1 10 1 9 0 10 0 10 0 10 0 10 1 10 0 10 1 10 0 10 1 10 0 11 1 11 1 10 1 11 0 11 0 11 1 11 0 11 1 11 0 11 1 12 1 11 0 12 1 10 0 10 1 11 1 11 0 11 0 10 1 10-1 11 0 10 0 11 1 10 0 11 0 12 0 10 0 11-1 11 0 11 0 12 0 11 0 12 0 12 0 12 0 11 0 12 0 12 0 12 0 13 0 13 0 12-1 12 0 13 1 13 0 14 0 13 0 14 1 14 1 12 1 14 0 13 0 13 0 13 2 12 0 12 0 13 2 12 1 12 1 12 1 12 0 12 1 11 1 12 1 12 1 13 1 12 1 13 2 13 0 13 0 14 1 12 1 12 1 12 1 12 0 12 1 11 0 11 1 12 1 11 0 13 1 12 1 11 0 11 0 12 1 11 0 11 0 11 0 11 0 10 0 11 0 11 2 11 0 11 0 11 0 11 0 11 0 10 0 12 0 10 0 10 0 10 0 11 0 10 0 11 0 9 0 11 0 11 0 10 0 11 0 11-1 10 0 10-1 9 0 9 0 11 0 10 0 10 1 10 0 9-1 10 0 10 1 9 0 9-1 9 0 10 0 9 0 10 0 9 0 10 0 10 0 9 0 9 0 9 0 10 0 8-1 9 0 8-1 10 0 8 0 8 0 9-1 9 0 9 0 8 0 9 0 8 0 8 0 8-1 6 0 8-1 8 0 8 0 8 0 8 0 8-1 9 0 8-1 8 1 8-1 7 0 9 0 7 0 8 0 7-1 7 0 7 0 7-1 7 0 6 0 6-1 6 0 5 0 7 0 6 0 6-1 6 0 5 1 6-1 5 0 5 0 4 0 5 0 3 0 5-1 3 0 4 0 3 0 4 0 4 0 3 0 4 0 4 0 3 0 3 1 4-1 3 0 3 0 2-1 3 0 2 0 2 0 1 0 2 0 1 1 2 0 0 0 2 0 0 0 1 0 1 1 0 0 1-1 0 0-1 0 1 0-1 1 0-1 0 1-1 0 1 0-1 0 1 0-1-1 0 1 0-1 0 1 0 1 0 0 0 1 0 1 1 3 1 2 0 2 0 3 1 2 1 2 0 2 0 2 1 2 1 3 0 2 1 2 0 3 0 2 1 3 0 2 1 2 0 2 0 2 1 3 0 2 1 3 0 2 1 4 0 3 0 4 0 4 0 3 1 4-1 4 0 4 0 3 0 5 0 4 0 3 0 3-1 2 0 4 0 3-1 3 0 1-1 2 0 3 0 2 0 2-1 2 0 3-1 1 0 2 0 2 0 2-1 1 0 2 0 2-1 1-1 2 0 1 0 1 0 1-1 2 0 0-1 1 0 1 0 0 0 1 0 1 0 0-1 1 0-1-1-1 0 0-1 0 0 0-2"/>
<path d="M7204 -7763l-1 1 0 0 0 3 0 2 0 3 0 3-1 4 0 5 0 5 0 5-1 6 1 7 0 6 0 7 0 7-1 7 0 8 1 6 0 7 1 7 0 7 1 7 1 6 0 7 1 7 0 6 1 7 1 7 0 7 1 6 1 7 0 7 2 7 1 7 1 7 1 8 1 7 2 7 0 7 2 7 0 7 1 7 2 7 0 7 1 6 0 8 1 7"/>
<path d="M7226 -7149l 1 0 0 0 1 1 1 0 1 0 0 2 0 1 0 2 0 1 0 3 0 3 0 3 0 5 0 4 0 5 0 6 0 5 1 5-1 6 1 6 0 6 1 6 0 6 0 6 0 7 0 6 2 7 0 7 0 7 1 8 0 7 0 9 0 9 0 10 0 9 0 10 1 10-1 11 0 9 0 10 0 11 0 10-2 9 0 10-1 9-1 9 0 10-1 8 0 8 0 8 1 7 0 7 0 7 0 5 1 5 0 5 0 4 0 4 0 2 1 3"/>
<path d="M7217 -6527l-1-1-1-1-1-1-1-1-1-1-1-1 0 0 0-1-1 0 0 1 0 0-1 0 0 1 0 1 1 0 0 2 0 1 0 2 1 3 0 3 1 4 0 5 1 6 0 6 1 6 1 7 1 6 0 7 1 7 1 7 0 6 1 7 1 7 1 8 0 7 1 8 1 8 0 8 0 9 1 8 0 7 1 7 1 6 0 7 0 6 1 6 1 6 0 5 1 5 1 6 1 5 0 6 1 5 1 5 0 4 1 4 1 4 1 3 1 3 1 2 1 3 2 2 0 3 2 2 1 3"/>
<path d="M7203 -5873l-2-1-2 1-2 0-2 1-2 0-2 0-2 1-1 0-1 0 0 1 0 1 2 0 0 0 2 1 1 1 1 0 2 1 2 0"/>
<path d="M7258 -5850l 0-1 0 1 0 1 1 0 0 0 1 1 1 1"/>
<path d="M7367 -5848l-2-1-2 0-2 0-1 0-2-1-2 0-2 0-1 0-1 0-1 0 0-1 0-1 0 0 1-2"/>
<path d="M7843 -7732l 1-1 0-3 2-2 1-2 2-3 2-3 3-3 1-3 3-2 2-2 2-2 2-3 3-1 2-2 3-2 3 0 3-2 3 0 3-1 4-1 3 0 4 0 4 0 4 1 4 1 5 0 4 2 4 2 4 2 4 2 4 4 4 3 3 3 3 4 3 5 3 5 3 6 3 7 3 7 1 7 2 8 2 8 2 8 2 8 1 9 2 9 1 9 1 9 2 8 1 9 2 8 1 8 2 7 1 8 2 7 2 8 1 7 2 6 2 7 1 5 2 6 2 5 3 5 2 4 2 3 2 4 3 3 2 2 3 2 2 2 4 1 2 2 3 1 4 0 3 0 5-1 4-2 6-2 5-4 5-4 7-6 6-6 7-8"/>
<path d="M8104 -7853l-4 1-3 0-4 2-5 1-5 3-7 3-6 4-6 4-6 4-6 6-7 6-7 7-8 8-7 10-9 10-9 10-8 12-9 13-9 13-9 14-10 13-9 14-9 13-9 13-9 13-9 14-7 12-8 12-7 12-7 12-6 11-5 11-3 9-4 9-3 9-2 8-1 8-2 5 0 5 0 5 0 2 1 3 2 2 2 1 3 0"/>
<path d="M8207 -7644l-1 1 0 1-1 2-1 3-1 2 0 4-2 4 0 4 0 5-1 5-2 4 0 5-1 5-1 6 0 4 0 5 0 4 0 5 0 6 1 5 0 5 0 5 1 6 0 5 1 5 0 5 2 5 0 5 2 5 2 5 1 5 1 5 1 6 1 6 0 6 1 5 1 7-1 6 0 7-1 7"/>
<path d="M7920 -7171l 0-2 1-2 0-1 2-2 1-2 2-3 3-2 2-2 3-1 2-2 3-1 2-1 3-1 3-1 4-1 3 0 3 0 4 0 4 0 4 2 4 1 3 2 4 3 4 2 4 3 4 4 4 4 4 4 4 5 4 5 3 6 5 6 3 6 5 6 2 7 4 6 4 8 3 7 4 7 3 8 4 7 3 8 3 8 5 8 3 9 4 8 3 8 4 9 3 8 5 8 3 9 4 8 3 8 5 7 3 5 4 8 4 6 4 6 5 5 4 5 4 4 4 4 3 3 3 2 3 2 4 2 3 1 3 2 4 0 3 0 5 1 3-1 4-1 4-1 4-2 5-3 3-3 4-3 5-4 4-5 4-6 5-7 4-7 4-7 4-8 4-9"/>
<path d="M8166 -7218l-4 1-3 1-4 2-5 3-6 3-6 4-6 5-6 5-6 5-6 6-7 6-7 8-8 8-7 9-8 9-8 9-9 10-8 10-8 11-9 11-8 10-9 11-8 12-8 10-8 10-7 11-7 9-8 11-7 11-7 10-6 9-6 10-6 9-5 9-5 8-3 7-2 7-3 6-2 5-1 5 0 5 0 3"/>
<path d="M8214 -7025l 1 1 0 1 3 2 1 0 3 2 3 3 4 2 4 3 3 3 3 2 4 3 4 3 3 2 3 2 2 2 4 3 3 2 3 2 3 2 1 1 3 3 2 2 2 1 2 2 2 2 2 1 2 2 0 2 1 1 0 2 1 2 0 2-1 3 0 2-2 3 0 4-2 4-3 5-2 5-3 6-4 6-4 6-4 6-5 6-5 7-4 5-5 7-4 6-5 5-5 5-4 5-4 5-3 5-3 5-3 4-3 4-2 4-1 3-2 4-1 3-1 3-1 2-1 2 0 1 0 1 0 1 0 1 1 1 0 1 3 0 1 0 1 0 3 1 2 0 3 0 3 0 4-1 3 0 5 0 6-1 5-1 6-1 6-1 7-1 7-2 7-1 7-2 6-1 8-2 7-2 7-2 6-1 7-2 7-2 6-1 5-1 5 0 4-1"/>
<path d="M7938 -6571l-1-1 0-1 1-2 1-2 0-2 2-2 1-3 2-3 3-2 2-3 2-3 3-2 3-3 2-3 3-2 4-2 3-2 3-1 2-2 4 0 3 0 3 0 3 0 2 0 4 1 3 1 3 3 3 2 4 3 4 4 4 3 3 5 3 4 4 4 4 5 4 6 3 5 2 6 3 6 3 7 3 5 3 7 2 8 3 7 3 8 3 7 2 8 3 7 3 8 2 8 3 7 3 8 3 8 3 8 3 8 3 8 3 7 3 6 3 7 3 7 4 5 3 7 5 6 4 6 3 5 3 5 4 4 3 4 3 3 2 3 4 2 4 2 4 1 4 2 4 0 3 0 5 0 5 0 5-2 4-2 4-2 4-3 4-3 5-5 5-4 5-5 4-6 5-5 5-7"/>
<path d="M8139 -6660l-3 1-2 2-3 2-4 3-4 3-5 5-5 5-4 5-4 6-5 7-5 7-5 8-5 9-5 9-5 10-5 11-7 12-5 11-5 13-5 13-6 14-7 14-5 14-5 13-6 13-5 14-5 12-5 14-5 13-4 12-5 12-5 12-3 11-3 11-3 10-3 10-2 10-1 8-2 7 0 8"/>
<path d="M8272 -6398l-1 0 0 1 0 0 0 0 2 1 2 2 1 0 2 2 2 1 2 2 2 0 2 2 1 0 2 2 2 1 1 0 1 1 1 1 2 0 0 0 1 1 1 2 0 1 1 2 1 2 1 3 0 3 1 4 0 4 1 4 0 4-1 5-1 5 0 5-2 5-1 5-2 5-2 5-1 4-2 4-1 5-1 3-1 4 0 3-1 2-1 3-1 2 0 3-1 1 0 2 0 2 0 0 1 1 1 1 1 0 1 0 0 0 1 0 2 0 2-1 1 0 2-1 2-1 1-1 2-1 3-1 3-1 2-1 3-2 3 0 3-1 3-1 3 0 2 0 3 0 3 0 3 0 2 0 3 0 2 0 2 0 2 0 1 1 1 1 1 0 1 1 1 1 0 1 1 1 1 1 0 0 0 2 0 1 1 2 0 1 0 2 0 2 0 2-1 2 0 2-1 3-1 3-1 3-2 3-2 3-2 4-3 4-2 4-3 4-3 4-4 4-3 4-5 4-5 4-3 3-5 4-5 4-5 3-5 4-5 3-5 2-4 3-4 2-4 3-4 2-4 1-3 2-4 2-3 1-4 1-3 1-1 1-4 1-3 0-2 0-3 0-2 0-3 0-2 0-3 0"/>
<path d="M8081 -5802l-1-1-2 0-1 0-2 0-1-1-2-1-1 0 0-1 0 0 1 0 0-1 2-1 1 0 3-2 3-1"/>
<path d="M8163 -5816l-1 0 0-1 1 0 1 0 0 0 1 0 2 0 1 0 2 0 2 0 2-1 3-1 3-1 4-2 3-2 4-2 4-3 4-3"/>
<path d="M8352 -7971l-1 0 0 0 0-1 0 0 1 0 1 0 1-1 2 0 1-1 2 0 3-1 3 0 3-1 5-1 3 0 5-2 4-1 3 0 5-2 4 0 4-1 5-1 3-1 4 0 4 0 4-1 3 0 4-1 3 0 4-1 3 0 3-1 3 0 3-1 3 0 2 0 3 0 1 0 1 0 2 0 2-1 1 1 1 0 0 0 2 0 1 0-1 0 1 0 0 0-1 1 1 0 0 1 0 1 0 0 1 1 1 1 0 1 0 2 2 1 1 2 0 2 0 3 1 2 0 3 1 3 0 4 0 2 1 5 1 3 1 5 1 5 1 5 2 5 1 7 0 7 2 8 1 9 2 9 1 11 1 11 2 12 2 11 2 13 2 14 2 14 3 14 2 15 3 16 1 16 2 17 1 18 1 17 2 18 1 18 2 18 1 19 1 18 1 17 2 19 0 18 2 17 1 18 0 18 2 18 0 17 2 17 0 18 3 18 0 18 2 18 2 18 1 18 2 19 3 19 0 17 2 20 3 19 2 19 2 17 2 19 2 19 2 17 2 18 3 16 2 17 3 17 2 17 3 16 2 17 2 16 3 16 2 17 3 15 2 16 2 15 2 15 3 15 3 15 2 15 2 14 2 16 2 15 2 15 2 15 1 15 3 15 1 15 2 16 2 15 4 16 2 15 2 15 2 16 2 14 2 16 1 15 1 16 1 16 0 15 1 16 1 16 0 17 1 16 0 16 1 16 1 15 0 16 0 15 1 15 0 14 1 14 1 15 1 14 1 14 1 13 1 14 1 14 1 12-1 13 1 12 0 13 0 12-1 11 1 12 1 12 0 10 3 12 2 11 1 9 2 11 2 10 3 10 2 10 3 11 2 11 2 10 3 10 3 12 2 11 3 12 2 11 3 12 2 10 3 10 2 11 2 10 1 10 1 9 1 9 1 8 2 9 1 8 1 8 0 9 2 9 0 8 1 9 0 8-1 8 0 8-1 7-1 7 0 7 0 8-2 7 1 6 0 7-1 7 0 6 0 6 0 6-1 5-1 5-1 5-2 5 0 4 0 4-1 4-2 4 0 4-1 4-1 3 0 4 0 4-1 3-1 3 0 4-1 2 0 3-1 3-1 3 0 4-1 2-1 3-1 4 0 3 0 3-1 4-1 3 0 4-1 2-1 4-1 4 0 4-1 3 0 3-1 4-1 3-1 3 0 3-1 3 0 3 0 2 0 3-1 2 1 3-1 2 0 3 0 3-1 2 0 3 0 2 0 3 0 2 0 3 0 2-1 2 1 3-1 1 0 1 0 2 0 1 0 1 0 1 1 1 0 1 0 1 0 1 0 1 0 2 0 2 0 1 0 2 0 2 0 1 0 2 0 1 1 1-1 1 1 1 0 1 0 1 0 0-1 2 0 0 0 1 0 1 0 1 0 0 1 0 0 1 1 0-1 0 0-1-1 0 1 0-1 0 0 0-1 0 1 0-1 0-1 0-1 0-2 0-2 0-2 0-4 1-3 0-4 1-5 0-5 1-6 1-5 1-7 1-5 1-7 0-8 2-7 1-8 0-8 1-9 1-8 0-10 0-9 0-8 0"/>
<path d="M8954 -7143l-1-1 0-2 0-1 0-1 0-1 0-3-1-1 1-1 0-1 0-1 0-1 0-2 1 0 1-2 0-1 1-1 2-1 0-1 1-1 1-1 1 0 1-1 1-1 1 0 1 0 1 1 1 1 1 1 2 2 1 2 2 2 2 3 1 3 2 5 1 5 2 5 1 6 1 6 2 8 0 9 1 8 0 10 2 10 0 10 0 10 1 12 0 11 0 12 1 11 0 12 0 12 1 13 0 12 1 11 0 12 1 10 0 11 0 11 0 11 0 11 0 11-1 10 0 10-1 10 0 10 1 10-1 8 0 9 0 8 0 7 0 8 0 6 0 6-1 3 1 4 0 3 0 1 1 2 1 0 0 0 0-1 1-1"/>
<path d="M8979 -7166l-2-3-1-3-1-3-2-3 0-4-2-3-1-2 0-2 0-1-1-1 0-1 0 0 1-1 0-1 2-1 2-1 2-1 4-2 3-2 6-1 6-3 5-2 8-3 7-2 9-3 9-2 8-2 9-3 10-3 8-2 10-3 10-1 9-2 9-2 10-1 9-1 10-2 10-1 9 0 8 0 8 0 8 1 7 2 6 1 4 2 5 2 5 2 4 3 4 3 1 3 2 4 1 4 1 4 0 6-1 6-2 7-3 8-4 7-4 9-5 9-5 10-7 9-7 9-7 9-8 10-7 9-9 9-9 7-8 8-8 7-8 7-8 6-8 6-8 5-8 5-7 5-7 4-7 5-6 3-7 4-5 2-5 3-5 2-5 2-3 1-4 1-3 1-1 0-1 0-1 0 0-1 0-1 1 0 1 0 1-1 3-1 3-1 4-2 4-1 6-1 6-2 7-1 7-2 8-1 9-1 10-1 9 0 10-1 9-1 11 0 11 0 11 0 11 0 11 0 12 1 11 1 12 0 10 1 11 2 11 0 11 2 10 2 9 2 8 3 8 3 7 4 7 4 6 5 5 5 4 6 3 6 3 7 2 6 1 7 1 8 0 7-1 9-2 9-3 10-3 10-4 12-5 10-6 11-6 12-7 10-8 12-8 10-9 11-10 11-10 10-10 9-10 9-11 8-11 8-11 7-12 7-11 5-11 5-12 5-11 4-10 3-11 3-11 1-10 2-9 0-10 2-9 0-9-1-10-1-8-1-8-2-9-1-9-3-7-3-7-3-6-4-6-4-6-5-5-5-5-5-5-6-4-5-3-5"/>
<path d="M9532 -7171l-1-1-1 0-1 0-1 0 0 0-1-1 0 1 1 0 0 0 1 0 2 0 0 0 2 0 3 1 2 0 3 1 4 0 3 0 5 0 4 0 5 0 4-1 5-1 6 0 5-1 6-1 5-1 7-1 6-1 6-1 6-1 6-1 5 0"/>
<path d="M9542 -7075l 0-1-1 0 0-1-1-1 0-1 1 0 1 1 1 0 3 1 3 1 4 0 4 1 5 1 5 0 6 1 6 0 7 0 6 0 7 0 8-1 8 0 8-2 8-1"/>
<path d="M10102 -7352l-1 0 0-1-1 0-1 0-1 0 0-1 0-1 0 0 0 0 0 1 0 1 0 0 0 1 1 1 1 0 1 2 1 1 2 3 2 3 2 4 2 4 3 5 3 5 2 5 3 6 3 5 4 5 3 6 5 6 3 6 4 6 4 6 4 6 3 6 4 7 3 6 4 5 3 6 3 6 2 5 4 5 4 5 2 5 4 5 3 5 3 4 3 4 2 5 3 3 2 4 2 3 1 3 2 3 2 2 1 3 2 3 3 2 2 1 1 3 2 0 2 2 3 0 2 0 2 0 2 0 3 0"/>
<path d="M10350 -7392l-2 1-2 3-1 4-2 5-3 6-3 7-3 9-2 10-3 10-3 11-4 10-3 13-4 12-4 13-4 13-3 14-4 14-4 14-4 15-4 13-4 15-4 14-4 15-5 16-4 15-4 14-4 15-4 15-4 15-4 14-4 15-4 14-4 14-4 13-5 14-3 13-5 13-4 13-3 10-5 12-4 10-4 11-4 10-5 10-3 9-4 8-3 8-3 7-2 6-3 5-1 4-1 3-1 3-1 3-1 1 0 1 1-1 1-2 1-2 2-4"/>
<path d="M10082 -7528l-2-1-1-1-1-1-1-1-1-1-1-1-2-2 0-1 0 0 0-1 0-1 0-2 0-1 1-2 2-3 1-2 1-4 3-4 2-5 4-5 3-5 3-6 5-6 3-6 4-7 4-7 4-6 4-7 4-6 4-6 3-7 3-6 3-5 3-5 2-5 3-4 2-4 2-4 3-4 2-3 2-2 1-2 2-2 0-2 0 0 1-1 1-1-1 0-1 0 0 1 0 1 1 0 0 0 0 1 2 1 0 1 1 2 1 2 0 3 2 2 2 3 1 3 1 4 1 3 3 4 2 3 2 5 2 4 1 4 3 5 3 5 2 4 3 4 3 4 2 4 3 4 3 5 3 3 3 4 3 3 3 3 2 4 4 3 3 3 2 4 3 3 3 3 2 4"/>
<path d="M10625 -7301l 0-1 0 0 1 0 0-1 0-1 0 1 1 0 2 0 1 0 3 1 3 0 4 0 4 0 5 0 5 0 5 0 5 0 6 0 5 0 6 0 7-1 6 0 6 0 7-1 7 0 6 0 7 0 7 0 7 0 7 0 6 1 6 0"/>
<path d="M10654 -7220l-1-1 0-1 0-1 1 0 1 0 2 1 3 0 3 1 3 0 4 1 5 1 5 0 6 0 6 1 6 0 6 1 6 0 8 0 7 0 7 0"/>
<path d="M11194 -7940l 0 0-1-1 0 0 0-1 0-1-1 0-1-1 0 0-1-1 0 0 0-1 0 0 0 0-2 0 0 0-1-1-1 0-1 0 0-1 0 0-1-1-1 0 0 0-3 0 0 0-1 0-1 0 0 0-1 0-2 0 0 0-2 0 0 1-2 0-1 1-2 0-1 1-2 0 0 0-2 0-1 1-2 0-1 0-1 1-2 0-1 0-2 0-1 0-2 0-1 0-1 1-2 0-1 0-2 0-1 1-2 0-1 0-1 0-2 1-1 0-2 0-1 0-2 0-2 0-2 1-2 0-1 1-3 0-1 0-2 1-2 1-1 0 1 0-1 1-1 0-2 0-1 0 0 0-1 0-3 1-1 0 0 0 0 1-1 0-1 0 0 0 0 0-2 0-1 0 0 0 0 0 0 1 0 0 1 0 0 1 1 1 0 1-1 1 0 2 0 2-1 2 0 3-1 4-1 3-1 4-1 4-1 5 0 4 0 5 0 6 0 6-1 5-1 8 0 7 0 7 0 8 0 8 0 10 1 9 0 10 0 9 1 11-2 11 0 12 0 13 1 13 0 14 0 13 0 15 1 15 0 15 1 16 0 16 1 17-1 17 1 18 0 18-1 18 1 20 0 21 1 21 0 20 1 22 1 22 0 22 2 22 1 22 0 23 0 23 1 22 1 24 0 23 1 23 1 24 1 24 0 24 1 24 1 25-1 26 1 25 1 27 1 26 1 25 2 26 0 26 2 25 1 25 0 26 2 25 1 24 2 25 0 26 1 24 1 25 1 24 0 24 2 25 0 25 1 25 1 23 1 24 1 25 1 24 0 24 0 24 0 23 2 23 0 23 1 22 1 22 1 21 1 22 1 20 0 20 1 20 0 20 1 20 1 20 0 21 2 20 0 21 1 19 1 21 1 20 1 19 1 19 1 17 0 19 1 19 1 17 2 17 1 17 2 16 0 18 1 15 1 15 2 16 1 15 0 14 2 14 0 13 1 13 1 14 1 13 0 13 1 12 1 13 0 12 2 13 1 12 0 12 0 11 1 12 1 10 0 10 1 10 1 11 1 10 0 10 0 9 0 10 1 9 1 8 1 8 1 8 1 7 0 8 1 7 1 6 0 7 1 5 1 6 0 4 0 5 1 3 0 4 0 2 0 3 0 1 0 2 0 1 2 1 0 0 0 1 0 0 0 0 0-1-1 0-1 0 1 0 0 0 1 0 0-1 0 0 0 0 0 0 1 0 1 0 1 0 1 0 1 0 1 0 2 0 1-1 2 0 2 0 2-1 3 0 2-1 2 0 2-1 3 0 3 0 2-1 3-1 3 0 3-2 4-1 3-2 5-1"/>
<path d="M11494 -7851l-1-1-1 0-1-1-1 0 0 0-1 0 1 1 0 1 0 1 0 2-1 3-1 2 0 3 0 5 0 5 0 6 0 7 0 7 1 7 1 8 0 7 0 8 2 8 1 7 0 7 2 8 1 7 2 6 1 7 1 7 2 6 2 6 2 5 2 5 2 5 3 4 3 3 4 2 3 2 4 2 3 1 5 1 3 1 5 0 5-1 5-1 6-1 6-2 6-3 7-4 6-3 6-5 7-5 6-5 5-7 5-5 5-6 4-6 3-6 5-6 3-6 2-6 1-6 2-5 1-6 1-5 0-5-2-5 0-4 0-4-1-4-1-3-1-3 0-2-1-2 0-3-1-2-1-2-1-1-1-2 0-1-2-1 0-1-1 0-1 0-1 0 0 0-1 0 1 0-1 0 0 1 0 1 0 1 0 2 0 3-1 5 0 5 0 5 0 7 0 7 1 8 1 8 0 9 3 9 1 9 2 10 2 9 2 9 4 9 2 9 3 9 4 10 3 9 4 9 3 9 5 8 3 8 4 8 3 8 4 8 3 8 4 8 3 7 3 9 3 7 3 9 3 8 4 7 2 8 3 8 1 8 2 8 2 8 2 8 1 7 2 8 0 8 1 8 1 8 0 7 0 7 0 7 0 6-1 5-1 6-2 3-2 5-2 4-3 4-4 4-4 4-3 4-5 2-5 4-6 3-6 2-6 2-7 2-7 1-8 1-8 0-8 0-9 0-8-2-10-1-9-1-9-1-9-2-8-3-7-2-8-3-7-4-8-3-6-3-6-4-6-3-5-5-6-3-5-5-4-4-4-3-4-5-3-6-3-6-3-6-2-7-1-8-2-7 0-7"/>
<path d="M11421 -8007l 0 0 0-1 0 0 0-1 0-1 0-1 1 0 0-1 0-1 1-2 2-2 0-2 2-4 2-3 3-4 3-5 2-4 5-5 3-5 5-6 4-5 4-5 4-5 4-5 4-4 3-5 3-4 3-4 3-4 2-4 3-4 2-4 2-3 1-4 2-3 1-3 2-2 0-2 1-2 2-1 0-2 1-1 0-2 1 0 0-1 0 0-1 0 1 0-1 0 1 1 0 0 0 0 2 1 1 1 0 1 2 2 1 2 2 3 2 2 3 4 1 3 3 3 3 4 3 4 2 3 3 4 3 5 3 4 3 4 3 5 4 4 4 4 4 4 3 5 5 4 4 4 4 5 4 5 4 3 4 5 5 5 5 5 4 5 4 5 4 5 3 5"/>
<path d="M11822 -7691l-1-1 0 1 0 1 0 1 0 2 0 2 0 3 0 3 1 4 0 5 1 6 1 5 1 7 1 5 0 7 0 6 2 7 0 5 0 6 2 6 1 6 2 7 2 5 1 6 2 6 2 5 1 6 2 6 1 6 1 6 1 5 1 6 1 8"/>
<path d="M11482 -7117l 0 1 0 0-1 2 0 2 0 2 0 4 0 3 0 5 0 4 1 6 0 5 1 6 0 6 0 7 1 6 1 7 1 6 1 6 1 6 1 5 1 6 1 6 2 3 1 5 2 5 1 3 2 4 2 3 3 3 2 2 2 2 3 2 2 1 3 1 3 0 4 0 2-1 4-1 5-2 5-2 6-3 6-4 6-4 6-4 8-5 6-6 6-6 6-6 5-7 5-6 4-6 3-6 2-5 3-5 2-6 2-5 1-4 0-5 0-4 0-4 0-4-1-3-2-3 0-3-1-3-1-2-1-3-1-2-1-3-2-1-1-2-1-3-1 0-1-1-1-1 0 0-1-1-1 0-1 0 0 1 0 1-1 1 0 3-1 2-1 4 0 4 0 5 0 5 0 6 1 6 0 8 2 7 2 7 2 8 2 8 3 8 3 9 3 8 3 9 4 9 3 9 5 9 4 9 4 8 5 9 3 8 4 8 4 8 4 8 3 8 4 8 3 7 2 8 3 8 3 8 2 8 2 8 3 8 1 7 1 8 0 7 0 7 0 7 0 7 0 7-2 7-1 7-3 6-3 7-3 6-4 7-4 5-5 6-5 5-6 5-6 5-6 4-7 4-7 3-6 2-8 3-6 1-8 1-8 1-7 0-8-1-9-2-7-1-7-2-7-3-6-3-6-3-6-4-6-4-3-5-4-5-4-4-4-5-4-4-3-4-3-5-3-5-1-5-3-4-1-5-1-4-1-5 0-4 2-5 1-3"/>
<path d="M11803 -7010l 0-1 0 1-1 0 0 1 0 0 1 2-1 1 0 2 0 3 1 2 1 3 0 3 0 3 0 4 0 2 0 4 1 3 0 3 0 3 1 2 0 3 1 2 0 2 0 2 0 2 0 2 0 1 1 1 0 1 1 2 0 0 0 1 0 1-1 0-1 0 0 0 0-1 0-1 0 0 0-1 1-1-1-1 0 0 0-1 0-1 0-1 1-1 1-1 0-1 0-1 0 0 1-2 1-1 1-1 0-1 2-2 1-1 2-2 2-1 2-2 2-1 2-1 3-1 2-1 3-1 3-1 2-1 1-1 3-1 2-1 3 0 2-1 3-1 2 0 3 0 2-1 3-1 2 0 3 0 2 0 2-1 1 1 2 0 2 0 1 0 2 1 0 0 2 1 1 0 2 0 2 1 1 0 0 1 2 1 1 1 1 1 1-1 0 1 1 0 1 2 0 0 1 1 1 2 0 0 1 2 0 0 0 2 0 2 0 1 0 2-1 2 0 2-1 2-1 2-1 3-1 3-2 3-2 4-2 3-3 4-3 5-3 4-4 5-4 4-5 5-4 5-4 5-4 5-4 5-4 5-3 4-4 4-3 4-4 3-3 4-4 3-3 4-3 3-3 3-2 2-2 3-2 2-1 1-1 2-1 2-1 1 0 0 0 1-1 1-1 0 1 0 0-1 0 1 0-1 1 0 0 0 0-1 1 0 0 0 1-1 1 0 0 0 1 0 1-1 3 0 2 0 3 0 2-1 3 0 2 0 3-1 3 0 4-1 3 0 4 0 4-1 4-1 5-1 4 0 4 0 5-1 4-1 4 0 4 0 5-1 3 0 3-1 4-1 5 0 4-1 4-1 2 0 4 0 3-1 3 0 2 0 1 0 1 0 1 0 2-1"/>
<path d="M11454 -7304l 0-1-1 0 0-2 0-1 0-2 0-2 1-2 1-2 2-2 1-2 2-3 4-3 4-4 3-4 4-5 5-5 5-4 5-5 5-5 4-6 5-5 5-5 5-5 4-4 4-5 4-5 4-3 4-4 3-5 4-3 4-4 3-3 2-3 3-2 2-3 2-1 1-1 1-1 1-1 0 0 1 0 1 0 1 1 0 1 1 0 1 2 0 1 2 2 1 2 2 3 0 3 3 4 1 4 2 4 2 5 2 5 2 5 2 4 1 4 3 5 2 4 2 5 3 4 2 4 2 5 2 3 3 4 3 5 2 4 3 4 3 4 4 3 3 3 3 4 4 3 4 3 3 3 4 3 3 4 3 3 4 3 4 4 4 3 3 3"/>
<path d="M11431 -6337l 0 1 1 1 0 2 1 2 1 3 1 2 1 4 2 4 2 3 0 4 2 4 3 4 2 5 3 3 2 4 3 5 2 3 3 4 3 3 3 3 4 4 3 2 4 2 3 2 5 2 3 0 4 1 5 1 4-1 6-1 5-1 6-2 7-2 6-4 7-3 8-5 9-5 8-5 8-5 8-5 8-5 7-6 6-6 7-6 5-5 3-5 5-5 2-5 3-5 3-5 3-5 1-5 0-4 1-4 0-4-1-3 0-4-1-3-2-3-2-2 0-2-2-2-2-1-2-1-2-1-2 0-1 0-1-1-3 1 0 0-2 1 0 0-2 1-1 1-1 1-1 1-2 2-1 2-1 3-1 2 0 4-1 4-1 4-1 5 0 6 1 5 0 7 0 6 2 7 2 7 0 7 3 7 0 6 2 8 2 7 2 7 1 7 3 6 3 7 4 7 4 6 4 8 3 6 4 6 4 7 4 7 3 6 4 8 3 6 4 6 3 7 3 6 4 7 3 6 3 6 2 7 3 6 2 8 2 7 1 8 2 7 1 8 2 7 0 8 0 7 0 6-1 7-1 6-1 6-2 7-3 6-3 5-3 6-4 6-4 5-4 5-5 4-6 4-6 4-5 4-7 3-7 4-7 2-7 2-9 2-9 1-9 2-9 1-9 0-9 0-8-1-9-1-8-1-8-2-7-1-7-3-6-2-6-3-5-3-5-3-4-3-5-4-3-3-3-4-2-4-2-5-2-5-1-5 0-5"/>
<path d="M11800 -6257l 0 0 1 0 0 0 2 0 1 0 2 0 3 1 2 0 3 0 3 1 3 0 3 1 3 1 3 0 2 1 3 1 1 1 1 2 1 0 1 1 1 1 0 1 0 1 0 1 0 1 0 1-1 2-1 1-2 2-1 2-3 1-2 2-3 3-3 2-3 2-3 2-2 3-3 2-2 2-2 2-2 2-1 1-1 2 0 2-1 1 0 2 0 1 0 2 1 2 0 2 1 2 1 1 2 2 1 1 2 2 2 1 2 1 3 1 2 2 3 0 4 2 3 0 3 2 3 1 3 0 2 2 3 0 3 1 1 2 2 0 2 1 2 1 2 0 3 1 1 2 1 0 1 2 2 0 1 2 1 1 0 1 0 1 0 2 0 1-1 2-1 1-1 2-2 2-2 2-3 2-3 3-4 2-4 3-5 3-5 3-6 2-6 2-6 2-6 2-7 2-7 2-7 1-6 1-7 1-7 0-8 0-7 0-8 0-8-1-8-2-8-1"/>
<path d="M11407 -6488l 0-2 0-1 0-2 1-2 0-3 1-3 2-3 2-3 3-2 4-4 3-3 5-3 4-3 6-4 5-3 5-5 6-3 5-5 5-3 4-4 5-3 5-4 3-3 2-3 3-2 2-3 3-2 2-1 3-2 1-1 1-1 1-1 2-1 0 0 1 0 1-1 0 1 0 1 0 0 1 1 1 0 1 1 2 1 3 2 2 1 2 2 3 3 2 2 3 3 3 4 3 3 4 3 3 4 4 3 3 4 5 3 4 3 4 3 4 3 4 3 4 3 4 3 4 3 4 2 4 2 3 2 4 2 3 2 2 2 3 3 3 1 3 1 3 2 2 1 3 1 2 1 3 1 2 1 2 1"/>
<path d="M11532 -5746l-1-1-2 0-1 0-1-1-1 0-2-1-1 0 0 1 1 0 1 1 1 1 1 1 1 3 3 1 3 1 4 3 3 1 6 1"/>
<path d="M11702 -5741l-1-1-1 0-1 0-1 0-1 0-1 0 0 0-1 0 1 0 0 0 1 1 1 1 3 0 2 1 3 1 4 1 4 0 4 0 6 1"/>
<path d="M11859 -5751l-1-1 0 1 0 0-1 1 1 0 0-1 0-1 2 0 0-1 3-2"/>
<path d="M11968 -8216l-1 0 0-1-1 0-1 0-2 0-1 0 0 0 1 0 1 0 0 0 0-1 1 0 1 0 1 0 0-1 0 0 1 0 1 0 2 0 1-1 3 0 3 0 3 0 2 0 3 0 2-1 2 0 2 0 2 0 3 0 2 0 2 0 2 0 2 0 2 0 2 0 3 1 1 0 2 0 2 0 2 0 1 0 2 0 2 0 0 1 2 0 1 1 1 0 1 0 1 1 2 0 0 0 1 0 1 1 1 0 1 1 1 0 0 0 1 1 1 1 1 0 1 1 2 0 1 1 1 1 1 1 1 1 1 1 1 1 1 1 0 1 2 2 1 1 1 2 2 2 2 1 1 3 3 3 2 3 1 2 2 4 2 4 3 4 2 5 3 5 1 6 2 5 3 7 1 8 2 7 2 8 2 8 2 9 2 10 2 10 2 10 2 12 2 11 2 12 3 12 1 13 2 13 2 14 2 13 1 14 2 15 1 15 1 15 2 15 1 14 2 15 0 15 1 16 2 15 0 16 1 15 1 17 1 16 1 17 1 18 2 17 1 18 1 19 1 18 1 19 1 19 1 20 2 19 0 19 2 20 1 21 2 20 2 19 2 20 1 19 2 19 1 19 2 17 2 17 3 17 2 17 2 17 2 17 2 18 2 17 2 18 2 17 2 18 1 18 2 18 1 18 2 18 1 18 2 17 1 19 1 18 2 18 1 19 2 19 1 17 1 19 2 19 1 17 2 18 1 17 2 18 1 17 2 18 1 17 1 17 1 17 2 17 0 17 1 16 1 17 1 17 2 17 0 17 1 16 1 17 1 18 1 17 1 18 1 17 1 18 0 17 0 18 0 17 1 18 1 17 1 16 0 17 0 16 1 16 1 18 0 16 1 16 1 16 0 17 1 16 0 16 1 16 1 15 1 16 1 16 0 15 1 15 0 15 0 15 1 15 0 16 1 16 0 15 0 15 0 15 0 15 0 15 0 15 0 15 0 15 0 15 0 15 0 16 0 16 0 14 0 15 0 15 0 14 0 15-1 13 0 13 0 12-1 13 0 13 0 13 0 12 0 12 0 12 0 12 0 13 0 11 0 11 0 11 0 11 0 10 0 11 0 10 0 10 0 10 0 10-1 10 0 10-1 8 0 10 0 10 0 11 0 10 0 11-1 10 0 10 0 9 0 10 0 9 0 9 0 8 0 9 1 8 0 8 2 8 0 8 0 6 0 8 0 7 0 6 0 7 0 5 0 6 0 5 0 5 0 5 0 4 0 4 0 3 0 4 0 4 0 3 0 3 0 2 1 3 0 4 0 2 0 3 1 2 0 3 0 3 0 3 0 3 2 2 0 3 1 3-1 3 1 2 0 3 0 2 0 2 0 3 0 2 0 2 0 1 1 3 0 1 0 1 0 1-1 2 0 0 0 1 2 0 0 0 0-1 1 0-1 0 0 0-1 0 0 1-1 0 1 0-1-1 0 0-1 0-2 0-1 0-3 0-3 0-4 0-4 0-7 0-5 0-6 0-6 0-6 0-5 0-6 0-6 0-4 0-6 0-5 0-6 0-5 0-6 0-6 0-6 0-6 1-7 0-6 1-6 0-6 1-5 0-6 1-4 1-4 0-4 0-3 0-2 0-2-1-2-1-1 0"/>
<path d="M1284 -6081l 0 2 1 3 0 4 0 5 2 5 1 7 2 8 0 8 3 9 1 8 2 9 2 9 2 9 2 9 1 10 2 10 1 10 2 10 1 11 2 10 2 10 1 10 2 10 2 10 2 12 1 11 2 11 0 11 2 10 0 12 2 11 1 10 0 10 1 10 0 10 1 10 0 8 1 9 1 9 0 9 1 7 0 8 0 6 0 6 0 5"/>
<path d="M1224 -6173l-1-2 0-2 0-2 1-3 1-2 0-4 3-4 2-2 3-3 4-4 5-3 4-4 6-4 6-5 8-4 7-4 8-4 8-5 9-5 9-4 9-4 9-4 9-3 10-3 9-4 10-3 10-3 9-2 10-2 9-1 9-1 10-1 8 0 9 0 8 1 7 1 7 3 6 2 6 3 5 4 6 3 4 5 4 5 3 5 2 5 1 6 1 7-1 6-1 7-2 9-4 8-4 10-5 10-6 10-6 10-8 10-7 10-8 10-7 9-9 9-9 9-7 9-8 9-9 8-8 9-8 8-7 7-8 8-6 6-7 6-6 6-6 6-4 5-4 3-3 3-2 2-2 3-1 0 0 1-1 0 1 0 1-1 0 0 0 0 1-1 1 0 2-1 2-1 3 0 4-2 5-1 5-2 6-2 7-2 7-2 8-3 8-2 9-2 9-2 9-2 9-2 10-2 10-1 10-2 10-1 10-1 10-1 11-1 11-1 11-1 11 0 11 0 11 0 11 1 11 1 10 1 10 1 8 2 9 2 7 2 7 3 6 4 6 3 5 5 4 5 4 5 4 6 3 7 3 7 2 8 2 7 0 10 0 10-1 9-2 11-2 12-3 12-5 13-4 13-5 13-6 13-6 14-7 13-7 13-9 13-8 12-9 12-10 12-11 11-10 10-12 10-11 10-12 9-12 10-12 8-12 8-12 7-12 7-11 7-12 6-12 5-11 5-11 4-11 3-10 4-10 3-10 2-10 1-8 2-8 1-8 0-7-1-7-2-7-2-6-2-5-3-5-3-4-2-4-4-3-4-2-4-1-4 0-5 1-6 2-6"/>
<path d="M1803 -6040l 0 0-1 1 0 0 0 1 0 1 0 1 0 1 1 1 1 0 0 2 1 1 2 2 2 1 1 2"/>
<path d="M1827 -5921l-1 0-2 1-1 1-2 2-2 0-2 2-1 1-1 1-1 1-1 2 0 1 0 2 0 2 1 1 1 2 1 1"/>
<path d="M2196 -7130l-1-4 0-3-1-4 0-4-1-5-1-4 0-5 1-2 1-3 1-3 2-2 1-2 2-3 2-2 4-3 3-2 4-3 4-2 5-2 5-2 6-2 5-2 7-1 6-1 7-2 7-1 8-1 8-1 8 0 8 0 8 0 7 0 8 0 8 0 8 1 7 1 7 2 7 2 7 4 6 2 6 5 6 5 5 4 5 6 5 6 3 7 4 7 3 8 2 9 2 9 1 10 0 9-1 11-2 12-3 11-4 12-5 12-5 13-7 14-8 13-8 13-9 14-10 13-10 14-12 13-11 12-11 11-11 11-12 10-11 11-11 10-11 9-11 10-11 9-11 9-10 8-9 8-9 7-9 6-7 6-7 5-6 5-5 3-4 4-4 3-2 3-3 1-1 2-1 0 0 1 1 0 1 0 3 0 2-1 3 0 5 0 5 0 7-2 7-1 8-2 8-2 9-2 9-2 10-2 10-2 10-3 10-2 10-1 11-2 10-2 11-1 11-2 11 0 11-1 12 0 10 1 12 0 10 1 11 2 11 1 9 2 10 2 10 2 9 3 10 3 9 3 9 2 9 4 8 3 7 3 6 4 7 3 6 4 6 3 5 3 5 3 5 3 4 3 4 2 4 3 2 2 4 1 2 2 3 1"/>
<path d="M2561 -7093l 0 0 0 1 1 0 0 0 0 2 2 1 1 2 2 3 3 2 4 3 4 3 5 4 6 5 6 4 6 5 7 5 7 6 8 5 7 6 9 6 8 6 8 6 9 6 7 6 9 7 8 6 9 6 8 6 9 6 9 6 9 5 10 5 10 5 9 4 10 5 9 3 10 5 9 3 8 4 8 3 7 3 8 2 7 1 8 1"/>
<path d="M2803 -7133l-4 4-5 5-6 7-6 8-8 8-8 11-8 11-8 11-8 11-8 11-7 11-9 12-8 12-8 13-8 13-8 13-8 13-8 12-8 13-8 11-6 11-7 11-7 10-5 9-5 10-5 8-5 7-2 6-4 6"/>
<path d="M3031 -7285l 0 1 0 2 0 2 0 3 1 3 0 4 0 5 0 5 0 5 1 6 1 7 1 7 0 8 1 7 1 9 2 10 1 10 2 10 2 10 2 12 2 11 2 12 2 12 2 13 2 14 2 14 2 14 2 15 2 15 1 17 2 16 1 17 2 18 2 17 1 18 2 17 1 18 1 17 1 17 1 16 1 15 0 15 0 14 0 13 0 13 1 13"/>
<path d="M2224 -6231l 0-1 0 0 1-2 0-1 2-2 2-1 2-2 3-2 4-2 5-3 4-2 6-3 5-3 6-2 6-3 8-3 6-2 7-2 7-2 8-1 7-1 8-1 8 0 8 0 7 1 8 1 7 1 6 2 8 2 5 2 6 3 6 3 5 4 5 3 4 5 4 5 3 5 3 5 2 7 2 6 2 7 1 8 0 7 0 8-1 9 0 8-3 10-3 9-4 9-3 10-5 10-5 10-5 10-7 9-6 11-6 10-8 11-7 11-10 10-9 11-9 11-11 10-11 10-10 9-12 10-11 10-11 10-11 9-10 10-10 9-10 9-10 8-10 7-9 7-8 7-8 6-7 6-6 6-6 5-4 4-4 4-3 4-3 3-2 2-1 2-1 1 0 1 0 1 1 1 1 0 1 0 2 0 3 0 3 0 4 0 5-1 6-1 8-1 7-2 8-1 9-2 9-2 10-3 11-2 10-3 11-2 10-2 12-2 12-2 11-2 13-2 11-2 11-1 13-2 12-2 11-1 11-1 11-1 10 0 12 0 10 0 10 0 10 1 10 1 10 1 9 2 9 1 8 2 9 3 8 2 6 3 7 3 6 3 6 3 6 4 5 3 4 3 5 4 4 3 3 4 4 4 4 3 2 4 4 2 3 3"/>
<path d="M2655 -6210l 0-1-1 1 1 1 1 0 1 2 2 1 2 2 3 3 4 2 3 3 4 2 4 4 5 4 4 3 5 4 5 4 5 4 6 4 5 3 6 5 6 4 5 4 6 5 7 4 6 4 6 4 7 5 6 5 7 4 7 5 6 4 7 5 5 5 7 4 6 4 5 4 5 4 5 4 5 3 5 4 5 3 4 3 4 3 4 2 3 2 2 1 3 1"/>
<path d="M2828 -6284l-3 2-2 3-4 4-3 5-4 5-5 7-6 8-5 8-6 9-6 9-6 10-6 10-8 11-7 11-8 12-7 11-8 12-8 12-9 12-8 13-7 12-8 13-7 13-7 12-6 12-6 13-5 10-5 10-5 10-4 9-2 8"/>
<path d="M3080 -6564l 0 0-1 0 0 0-1 1-1 0-1 0 1 0-1 0 0 1 0 1 0 1 0 0-1 2-1 2 0 2 0 3 0 3 0 3 0 5 1 5 1 5 1 6 1 7 1 8 2 8 2 8 3 10 2 10 2 11 3 12 3 12 3 13 2 12 3 13 2 15 3 14 1 15 2 15 2 15 2 15 0 15 2 16 1 15 1 15 1 15 0 17 0 15 1 16 0 16 0 16-1 16 0 16 0 15 1 15 0 15 1 14-1 14 1 12 1 12 0 11 0 10 1 9 1 8 0 8 1 7 1 8 0 5 1 6 0 5 0 5 1 4 0 3 1 4 0 2 1 1 1 1 1 1 0 1 0 1"/>
<path d="M6944 -4419l-1-1 0 0-2 0-1-1 0 0-1 0-1 0 0 1 0 0 0 2 0 2 0 2 0 4 0 5 0 5-2 7 0 8-1 8 0 9-1 10-1 11-1 12-2 12 0 13-1 13-1 14-1 14-2 15 0 15-1 15-1 15-1 14-1 15-1 15-1 15-1 15-2 15-1 15-2 15-1 15-2 15-1 15-2 15-1 13-2 14-1 13-3 13 0 12-2 11-1 10-2 9-1 6-1 6 0 5 0 3-1 2 1 0 0 0 1-2 1-4 1-6"/>
<path d="M6919 -4459l-1-3 1-4 1-4 0-4 1-5 2-6 2-5 3-4 2-4 4-4 4-4 5-4 5-5 5-5 6-5 8-5 7-5 8-5 9-4 9-4 10-4 9-3 10-3 10-2 10-3 10-2 9-2 10-1 9-1 10 0 9-1 9 1 9 1 9 0 9 1 8 2 8 2 7 3 6 2 7 3 6 4 6 4 5 5 3 4 5 6 2 5 3 7 0 7 1 8-1 9-2 9-4 10-4 12-6 12-7 13-8 13-9 14-10 15-10 14-11 14-12 13-12 13-11 12-11 10-11 11-11 9-11 9-10 8-10 8-10 7-10 7-10 6-8 5-10 5-8 4-9 4-7 3-7 2-6 1-5 2-5 0-4 0-4-2-2-1-3-1-2-3-1-4-1-4 1-6 1-6 1-7"/>
<path d="M7328 -4534l-2-1-1 0-1 0-1-1-1 0-1 0-2 0 0 1 1 0 0 0 0 1 1 1 0 2 1 2 0 2 0 3 0 3 1 3 1 4 1 4 1 3 1 5 1 4 1 4 0 4 2 5 1 4 0 5 1 4 0 5 0 5 1 5-1 5-1 5-1 5-2 5-1 5-1 4-2 5-2 5-1 3-3 4-2 3-3 3-2 3-2 2-2 1-2 1-3 1-1 0-3 0-2 0-3-1-2-2-2-2-3-2-2-3-2-4-2-4-2-5-2-5 0-6-2-7 0-6 0-8 1-7 1-8 2-8 2-8 2-8 3-9 3-8 3-8 4-9 4-8 4-8 5-8 3-7 6-8 5-6 6-8 5-7 6-8 6-7 6-6 7-7 5-5 6-5 7-5 6-5 6-5 8-4 6-3 7-4 7-4 7-2 8-3 7-2 8-2 7-1 7-2 6 0 7 0"/>
<path d="M7540 -4582l-1 1-2 2-2 3-2 2-2 3-3 4-2 4-3 5-3 4-3 3-2 5-4 6-2 6-3 6-3 6-3 6-3 7-2 6-2 7-2 6-2 7 0 5-1 5 0 6 1 4 0 5 2 2 2 4 2 3 3 3 3 2 3 2 3 1 4 1 4 0 5 0 6-1 5-2 7-1 7-3 6-3 8-3 8-5 7-5 7-5 7-5 6-5 7-5 6-6 5-6 5-6 4-4 4-6 3-5 3-5 3-6 1-5 1-5 0-5 0-5 0-5-2-4-3-5-2-5-4-5-4-4-5-4-5-4-6-4-6-4-6-4-7-3-6-3-6-3-8-2-6-2-7-2-6-1-6 0-6-1-6 0-5 0-5 1-5 0-4 1-4 1-3 1-2 2-2 1"/>
<path d="M7831 -4849l-1-1 0 0-1 0-1 0 0-1 1 0 0 1 1 0 0 0 0 0 1 2 1 0 0 2 2 2 1 2 2 2 1 3"/>
<path d="M7832 -4611l-1 0-1 1-1 0-1 1 0 1-2 1 0 1 0 1 0 2 0 2 0 2 0 2 0 3 1 4 1 3 0 5 2 4 1 5 2 4 1 5 2 6 3 6 2 6 2 7 3 7 2 7 1 8 3 7 4 9 2 8 3 9 3 9 4 9 3 10 4 10 3 10 3 10 3 10 3 10 3 11 1 11 2 11 3 11 2 11 3 11 2 11 2 12 2 12 2 13 2 13 0 12 1 12 0 13-1 11 0 11-2 10-2 10-2 9-3 8-3 7-3 6-5 7-4 5-5 5-6 3-5 4-8 2-7 2-8 0-8 0-9-1-9-2-9-3-8-4-9-5-8-5-7-5-9-6-8-7-7-6-6-7-6-7-7-7-6-8-5-8-5-9-4-10-3-11-4-12-2-12-1-13-1-13 1-14 1-15 2-15 3-15 4-15"/>
<path d="M8001 -4596l 1 1 0 1 0 2 0 2 1 1 1 2 1 2 1 3 1 1 2 2 2 2 2 1 3 1 2 2 3 1 3 1 3 1 5 0 3 0 5 0 3 0 4-1 5-1 5-2 3-2 5-2 5-3 5-3 4-3 4-5 5-3 4-5 4-5 4-4 4-5 3-5 3-5 3-4 2-4 1-4 1-4 0-3 0-4-1-3-1-2-3-3-2-3-4-2-4-1-4-2-4-1-5-1-7 0-5 0-6 0-6 0-5 1-6 2-7 2-5 3-5 2-6 3-6 4-6 3-6 4-6 4-5 5-5 5-5 3-5 6-5 5-5 6-4 5-4 7-5 6-4 7-5 7-3 7-3 7-4 7-2 8-2 7-1 7-1 7 0 6 1 7 1 6 2 5 4 5 3 5 5 4 5 3 5 3 5 3 7 2 6 1 7 2 9 0 8-1 10-1 10-2 10-3 10-2 12-4 11-4 12-4 12-4"/>
<path d="M8281 -4617l-1-1-2 0-1 0-2 0-2-1-3 0-2 0-2 1-3 0-2 0-3 2-3 0-3 2-3 1-3 2-4 2-2 2-3 2-4 2-3 3-3 4-3 3-4 2-3 4-4 4-3 3-5 4-4 3-2 4-4 4-3 4-3 4-3 4-3 4-2 3-1 4-3 4 0 2-1 4 0 4 1 3 0 4 1 3 2 4 2 3 1 5 3 3 2 4 2 3 3 3 4 3 3 2 4 3 4 2 6 2 5 2 5 1 5 1 6 1 5 0 7 0 5-1 5-1 7-2 6-2 7-3 6-3"/>
<path d="M8455 -4898l 1 2 3 3 2 4 3 5 3 5 4 5 3 7 2 5 3 5 2 7 3 6 1 6 2 7 2 7 2 7 1 8 1 7 1 8 0 8 0 9 0 9 0 10-1 10-1 10-1 11-2 10-2 11-2 11-2 11-3 11-3 11-3 12-3 11-3 12-4 12-3 11-2 10-4 12-2 10-2 10-2 10-1 9 0 9-1 7 1 7 0 6 1 7 2 5 1 4 2 4 3 4 3 3 4 3 4 3 4 2 5 2 5 0 6 1 6 0 6-1 7-1 7-2 7-3 8-3 7-3 8-5 9-5 8-5"/>
<path d="M8365 -4691l-3-1-3 0-2 0-3 0-2 0-2-1-1 0 0-1 2-1 0 0 3 0 2-2 5-1 5-2 5-2 7-3 7-3 9-4 8-4 9-4 10-5 10-5 11-5 11-6 12-5 12-6 13-5 13-6 14-6 14-5 14-6 14-5"/>
<path d="M9562 -5144l 0 0 0-1 0 0 0-1-1-1 0-1-1 0-1 0-1 0 0 0-1-1-1 0-1 0-2 0-1-1-1 0-3 0-2 0-2 0-1 1-3 0-2 1-3 0-3 1-3 2-3 1-3 1-3 1-4 2-3 1-4 2-4 2-4 1-5 1-4 3-4 2-5 1-4 2-4 2-5 2-4 1-5 2-5 2-3 1-4 1-3 1-4 1-3 1-3 1-3 0-2 0-3 1-2 1-3 0-2 0-3 0-2 1-1 0-2 1-1 0-1 0-2 1-1 0 0 0-1 0 0 0-1 0 0 0 0 0 0 0 0 0 0 0 0 0-1 0 1 0 0 0 0 0 0 1 0 1 0 0 0 1 0 2 0 2 0 3 0 3 0 4 0 5 0 5 1 7 0 6 1 7 0 9 0 9 0 8 0 10 0 11 0 11 1 12 1 13 1 15 1 15 1 16 3 16 1 18 1 18 3 19 2 19 1 21 2 22 1 22 2 22 2 23 2 24 2 23 2 24 2 25 2 23 2 24 2 23 2 25 1 23 3 22 1 24 1 23 3 22 1 23 1 23 0 22 0 23 2 24 1 23 0 22 0 24 0 22 0 23 0 22-1 23-1 22-1 23-2 22-1 23-2 23-2 23-3 23-2 23-2 23-2 23-1 22-3 23-2 22-3 20-1 19-2 18-2 18-2 16-1 16-2 14-2 14-2 14-2 13-2 13-2 12-1 12-3 11-1 11-1 11-1 10 0 10 0 9 0 9-1 9 1 8-1 8 0 6 0 7 0 6 1 6 0 5 0 5 0 4 1 3 0 5 1 2 0 3 1 3 0 3 1 2 1 2 0 3 0 1 1 1 0 0 1 1 0 1 1 0 0-1-1 1 1-1 1 0 0-1 1 0 0 1 2 0 2 0 2 0 3 1 3 0 3 0 2 0 4 1 4 0 3 0 4 0 5 0 4 0 5-1 6 0 5-1 6-1 7 0 6-1 6-1 6-1 7-2 7-1 7-1 6-2 7-2 6-1 7-2"/>
<path d="M9657 -4926l-1-1 0 0 0-1-1-1-2-1-1 0-1-1 0 0 1 0-1 0 1 0 1 0 0 1 0 0 0 1 0 2 0 1 0 2 1 3 2 4 0 4 1 5 1 6 2 6 1 6 2 8 1 7 1 8 2 7 1 8 2 7 1 8 2 7 3 6 2 7 3 6 2 5 4 5 2 4 3 5 3 3 3 3 3 2 4 2 3 1 5 1 4 0 5-2 6-2 7-3 7-3 7-5 8-5 8-7 7-6 8-7 7-8 6-9 7-8 6-9 5-8 5-9 5-9 4-8 3-8 3-8 2-8 1-8 1-7 1-8 0-8 0-7 0-7 0-7-1-6-1-6 0-5-1-4-2-5 0-4-2-3-1-3-1-1-1-1-1-2-1-1 0 0-1 0-1 0-1 0-2 1 0 1-1 1 0 2 0 2-1 3 0 3-1 5 0 4 0 6 0 5 1 5 1 7 1 6 2 7 1 6 3 6 2 8 3 6 3 6 3 7 4 6 3 6 5 6 5 7 4 6 4 7 4 5 6 7 4 6 5 6 3 6 5 6 3 4 5 6 3 5 3 5 3 6 3 4 3 6 2 5 3 5 1 5 2 5 1 5 1 5 0 5 0 4 0 5-2 5-1 6-3 6-2 5-3 6-4 5-5 6-5 5-6 6-7 6-6 5-8 4-7 5-8 4-6 4-9 3-8 2-8 3-8 1-7 2-8 1-7 1-9 0-6 1-7 0-7-1-6 0-6-1-6-1-5-1-5-1-5-2-5-1-4-2-4-2-4-2-2-1-2-3-2-1-1-2 0-2-1-2 1-2 1-1 2-3 3-3 2-3"/>
<path d="M9989 -4811l-1-1 0 1-1 0 0 1-1 0-1 0 0 1 2 1 0 1 0 1 0 1 0 3 0 2 0 4 1 4-2 4 1 5 1 4 0 5 1 6 1 7 1 6 1 8 1 7 0 7 2 8 0 7 2 7 1 7 1 7 1 7 2 6 1 7 1 7 1 8 1 8 1 9 0 8 1 9"/>
<path d="M9723 -4402l-1-1 0-1-1-2-2-1 0-1-1-1-1-1 1 0-1 0 0 1 1 1 0 1 0 1 0 2 0 2 0 3 1 3 0 3 0 4 1 4 1 4 1 4 1 4 1 4 0 3 2 3 1 4 2 3 2 3 1 2 2 2 3 2 3 1 3 2 2 1 4 1 3 0 5 0 3-1 4-1 4-2 5-2 5-3 5-3 6-4 5-4 5-4 5-5 5-4 4-5 4-5 5-6 3-5 4-5 3-5 3-5 2-5 3-6 2-5 2-4 2-5 1-5 2-4 0-3 1-5 1-3 1-2 0-3 0-2 0-3 0-1-1-1 0-1-1-1 0-1-1 0 1 0-1 0 1 1-1 2 0 1 0 2-1 3 0 4-1 3 0 4 0 5 0 5 0 6 1 6 1 6 1 6 2 6 2 6 3 7 1 7 3 6 3 8 4 6 4 8 3 7 3 8 3 7 3 7 3 6 2 7 3 7 2 7 3 6 0 8 3 6 2 7 2 6 3 6 1 6 1 4 1 5 1 5 1 4 0 4 1 5 0 4-1 5 0 4 0 4 0 5-2 3-2 4-2 4-2 4-3 3-4 3-5 4-4 2-5 3-6 2-5 3-6 2-7 1-7 2-7 0-7 1-7 0-7 0-7-1-8 0-7-1-7-2-7-1-6-1-7-2-6-2-6-2-5-2-6-2-4-3-4-2-5-2-2-2-3-3-2-1-3-2-1-3-1-2 0-3 0-3 1-4 2-3 3-5"/>
<path d="M9942 -4381l-1-1 1 0 1 0 0 0 2 0 1 0 1 0 1 0 2 0 2 1 2 0 2 0 4 1 3 0 2 0 3 0 3 1 2 0 2 1 3 0 1 1 2 0 2 0 0 1 3 1 0 0 2 0 0 1 0 1 0 1 0 0-2 1-1 1-2 2-1 2-2 2-2 2-4 2-3 4-3 3-2 3-3 5-2 3-3 4-2 3-3 3-1 3-2 3-2 3-2 3-3 2-1 2-1 2-1 2-2 2 0 2-1 1 0 1 1 1 0 1 0 1 1 1 1 1 1 1 2 0 2 0 1 1 2 1 3 0 2 0 4 0 4-1 3-1 4 0 5-1 5-1 5 0 6-1 6-2 5 0 6 0 5-1 5-1 5 0 4 0 4 1"/>
<path d="M9709 -3913l-1-1 1 0 0-1 1-1 0-1 0 0 0 1 1 0 2 0 2 0 3 0 3-1 4 0 3 0 5-1 3 0 4-1"/>
<path d="M9802 -3919l-1 0 1 0 1-1 0 0 1 0 1 0 2 0 2 0 2-1 3-2"/>
<path d="M9898 -3931l 0 0 1 0 0 1 1 0 1 0 1 0 1 1 2 0 2 1 2 0 3 0 2 1 3-1 2-1 3-1 2 0 3-1"/>
<path d="M10142 -5209l 0 0 0 1 1 0 0 1 2 1 1 0 2 1 2 0 3 1 3 0 4 1 3 0 5 0 4-1 3 0 5 0 4-1 5 0 4-1 5-1 5-1 5 0 5-2 5 0 5-1 4-2 5 0 4-2 5 0 5-2 5-1 4 0 4-1 4-1 4 0 3-1 3-1 3 0 3-1 2 0 3 0 2 0 2 0 2 0 2 0 2 0 2 0 0 1 2 1 1 1 2 0 0 1 1 1 1 2 1 1 2 3 1 3 0 4 1 5 1 6 3 7 1 8 0 9 1 9 2 11 2 10 1 11 2 13 0 13 2 14 2 14 1 15 2 15 0 17 2 16 1 18 2 17 0 17 3 19 1 19 1 20 3 19 1 20 1 20 3 21 1 21 1 22 3 22 0 22 2 24 2 23 2 25 2 24 2 24 2 25 2 24 2 25 1 25 1 24 2 24 1 24 2 24 2 22 2 23 2 24 3 22 2 22 2 22 3 21 2 20 2 19 4 20 2 18 2 17 3 16 2 16 2 16 2 16 2 14 1 14 1 14 1 14 1 13 1 13 0 12 0 11 0 11 1 10 0 10 1 10 0 10 1 8 0 9 0 8 0 7 0 8 0 7 0 8 0 7 0 6 0 6 0 6 0 6 0 6 0 5-1 5 0 5-1 5 0 5-1 5-1 5 0 3-1 5 0 3-1 3 0 4-1 2-1 2 0 2-1 2-1 2-1 2-1 1-1 1 0 1-1 2 0 0-1 1 0 1 0 1 0 0 0 1 0 1-1 0-1 2 0 1-1 0 0 1-1 0 0 1-1 0-2 1-1 1-1 1-2 1-1 1-1 1-2 1 0 1-1 1-2 1-1 0-1 1-1 1-2 1-1 0-2 0-2 1-1 1-2 0-2 1-1 0-1 1-3 1-1 0-1 1-3 1-2 0-2 0-1 1-3 1-2 0-2 1-3 0-2 0-3 0-2 0-4 0-3 0-3 0-4-1-4-1-3-1-4 0-3-1-4-1-3 0-3-2-5-1-2-1-4-1-4-3-3-1-4-3-3-3-4-3"/>
<path d="M10553 -4566l 0-1-1-1 1-2 0 0 0-2 1-1 1-2 2-1 1-1 3-2 3-1 5-2 5-1 6-2 7 0 6-2 7-1 7-1 9-1 8-1 8 0 9-1 8 0 9-1 8 0 8 0 6 0"/>
<path d="M10544 -4443l-1 0 0-1 0 0 0 0 2-1 1-1 2-1 4-1 3-1 5 0 6-2 6-1 7-2 6-1 8-2 9-2 9-3 10-2 9-3 10-2"/>
<path d="M10813 -4779l-1-1 1 0 0-1-1-1 0 0 0-1 0 0 0 0 1 0-1 1 2 1 2 1 2 2 4 3 2 3 5 4 4 4 4 5 5 6 5 6 5 7 4 6 4 7 4 7 5 8 5 7 5 7 4 8 5 7 5 7 6 6 5 6 5 6 6 7 5 6 5 6 5 6 5 6 7 6 4 6 5 5 4 6 4 4 5 4 5 4"/>
<path d="M11084 -4848l-1 0-1 1-1 1-1 2-2 2-2 5-2 5-3 5-2 8-3 10-2 9-4 12-2 13-4 13-3 15-3 15-4 16-4 16-3 16-4 17-3 18-4 18-3 18-4 19-4 20-4 20-3 20-5 20-5 21-4 21-5 20-4 19-5 19-4 18-4 18-4 17-3 16-3 15-3 15-4 13-3 13-3 12-2 10-3 10-3 8-2 7-1 6-2 5-1 4"/>
<path d="M11463 -4403l 0-1 0 0 1-1 0-1 0-1 0 0 0-1-1 0-1 1 0 0 0 2-2 1-1 2-1 3-1 2-2 3-1 4-2 3 0 4 0 4-1 4-1 4 0 4 0 4 1 4 1 3 1 4 0 2 2 3 2 2 3 2 3 2 4 2 3 1 4 1 5 0 5 1 6-1 5 0 5 0 6-1 6-1 6-3 6-2 5-2 6-2 6-3 6-3 5-3 5-4 4-3 3-4 5-4 3-5 2-5 2-5 1-4 1-5 1-5-1-5-1-6-3-5-3-5-3-5-4-5-4-4-4-4-4-4-5-3-5-3-4-2-4-2-3-2-4-1-5 0-3-1-2-1-4 0-2 0-2 0-2 0-1 0-1 0-1 0 0-1 0 0 1 0 2-1 0-1 3-1 4-1 4-2 6-1 6-3 7-2 7-2 8-3 7-2 8-3 7-3 8-2 7-2 7-1 7-2 6-2 7 0 7-1 6 0 6-1 6 0 6 0 5 1 7 1 5 1 3 2 5 2 3 2 3 2 3 3 3 2 1 3 2 3 2 3 0 4 2 4 1 4 0 5 0 4 0 4 0 4 0 5 0 4 0 4-1 4-1 4 0 4-1 4 0 3-1 3 0 2-1 3 0 1 0 2 0 0 0 1 1 0 1 0-1-1 1 0 0-1 0-1 1-1 2-2 1-2 4-3 2-4 3-4 4-5 4-6 4-6 5-5 5-5 3-6 5-6 5-6 4-5 3-4 5-4 4-4 4-4 3-4 4-2 4-3 4-2 2-3 3-2 2-1 3-2 2 0 0-1 2-1 1 0 0 0 1 1 1 1 0 0 1 1 1 2 1 2 1 2 1 2 1 2 2 3 0 3 1 4 1 4 1 3 0 5 1 4 1 4 0 4 1 5 1 5 0 5 1 5 1 4 1 5 0 4 1 5-1 3 2 4 1 3 2 3 1 2 1 2 2 2 2 1 4 1 1 1 1 0 3 0 2-2 3-1 5-2 4-3 6-4 5-5"/>
<path d="M12008 -4820l-1 0 0 0 0 1-1 0 0 1 0 2-1 2 0 4-1 4 1 6-1 6 0 8 0 7-1 10-1 9 0 11 0 10-1 11 0 12-1 11-1 11 0 12-1 12-1 12-2 13-1 13-3 13-2 13-2 13-3 14-2 13-2 13-1 13-2 13-1 11-1 11-1 11 1 9 0 9 1 7 1 8 2 5 2 5 3 4 3 3 3 2 4 2 5 1 5 0 6 0 7-1 7-2 8-2 7-4 8-4 7-5 8-6"/>
<path d="M11995 -4659l-2 0-2 0-2 0-3 0-2 0-2 1-1 0-1 0 1 0 0 0 2 1 1 0 2 1 3 0 5 1 3 0 5 0 6 0 6 0"/>
<path d="M12134 -4591l-1 2-1 3-1 4-1 5-2 4-2 5-2 5-1 4-1 5-1 4-1 5-1 4 0 4 1 3 0 4 1 3 2 4 1 3 2 2 3 3 3 2 3 1 3 2 4 1 3 1 6 1 4 0 5 0 4 0 6 0 4-1 5-2 4-2 3-1 5-2 4-3 5-3 4-3 4-3 4-4 3-4 3-4 2-4 3-4 1-5 1-4 0-4 0-5 0-5-1-5-2-5-2-4-3-5-3-4-4-4-3-3-4-4-4-3-4-3-4-2-5-3-4-2-4-3-5-2-5-1-5-2-5-2-4-1-4-1-4-1-3 0-3-1-2 0-3 0-2 1-3 0-1 1"/>
<path d="M12830 -4846l-1-1-2-1-1-1-2-1-3 0-2-1-3 0-3 0-3 1-4 0-3 1-4 2-3 1-5 1-5 3-4 2-5 3-5 2-5 3-5 3-5 4-6 3-5 4-5 3-5 4-5 4-5 3-5 4-4 3-5 3-4 3-4 4-4 2-4 3-2 2-4 3-2 3-2 2-2 2-3 3 0 2-2 1-2 2-1 2 0 2 0 2 0 1 0 2 1 1 2 1 1 1 1 2 3 1 4 1 3 1 4 1 4 1 5 1 5 1 5 1 5 0 7 1 6 2 7 1 7 1 8 2 7 2 8 1 7 3 8 2 8 3 8 3 8 3 8 2 8 4 7 3 8 4 7 3 8 4 7 4 8 4 7 3 7 5 7 4 6 4 6 5 7 4 6 4 6 5 5 4 5 5 5 5 5 5 2 5 3 5 3 5 2 5 1 5 1 5 1 5 0 5 2 5 0 5-1 5-1 6-2 5-2 7-3 5-3 6-5 6-5 6-6 7-7 5-7 7-8 6-8 7-9 7-10 6-9 7-10 6-9 5-12 6-10 5-11 5-12 4-11 4-12 3-12 4-14 3-11 2-11 3-11 2-11 1-11 2-11 0-10 1-10 0-9 0-9-1-9 0-9-2-9-1-7-2-5-2-7-2-7-3-5-3-4-3-4-3-3-3-3-4-2-4-2-3-1-3-1-5 0-4 0-5 1-5 1-6 2-5 2-5 3-6 5-6 4-5 5-6 6-6"/>
<path d="M13005 -4724l 0 0 1-1 0 0 1 0 1 0 1 0 2-1 2-1 2 0 3-1 3 0 4-1 4-1 4 0 4-1 4-1 4 0 5-1 4 0"/>
<path d="M12978 -4664l-1 0 0-1 0 0 0 0 1 0 0 0 1 0 0-1 1 0 2-1 1-1 2 0 3-1 3-1 3-1 3-1 5-1 3-1 4-1 3 0 5-1 4-1 4-1 6-1 5-1 6-1"/>
<path d="M13382 -5086l-1-1 0-2-1-1-2-2 0-1-2-2 0-1-2-1-1-1-1-1-1-1-3 0-1 0-2-1-2 0-2 0-3 0-2 0-4 0-4 1-3 0-4 0-4 1-4 2-4 0-4 1-4 1-4 0-4 1-3 1-3 1-3 0-3 0-2 1-2 0-3 1-1 0-2 0-2 0-1 1-2 0-2 0-1 1-1 0-2 0-1 1-1 0-1 0-1 0 0 0-1 0 0 1 1 0-1 0 1 0 0-1 0 1 0 0 0 0 0 1 0 0 0 1 0 1 0 2 0 2 0 2 0 3-1 4 0 5-1 5-1 7 0 7 0 9-1 8 0 11 0 11 0 12-1 13 0 13 0 14-1 14 1 14-2 15 0 15-1 15 0 16 0 15 0 16 0 16 0 17 0 16 0 16 0 18-1 17 0 18-1 17 0 18-1 17 0 20-2 19-1 20-1 21-2 20-1 22-3 21-3 22-4 23-2 22-4 23-4 23-3 24-4 23-5 24-4 23-4 24-5 24-4 22-3 23-5 22-4 20-5 20-3 20-3 20-3 18-2 16-1 16-2 16-1 15 0 14-1 13-1 12-1 11 0 12-1 10 0 10 0 8 1 9 0 8 0 9 0 7 0 7 2 8 0 8 1 8 1 8 1 7 2 7 0 7 2 6 2 7 1 5 2 5 2 5 3 5 2 5 3 4 3 4 2 4 3 4 3 3 3 3 3 3 3 1 4 2 3 2 3 1 4 2 4 1 4 1 4 1 3 1 5 1 4 0 5 0 5 0 5 1 5 0 4 1 5 0 5 0 4 0 5-1 4-1 5 0 5 0 3-1 5-1 4-1 3-2 4 0 4-1 3-1 4-1 3-1 2-1 3-1 2-1 2 0 1-1"/>
<path d="M13482 -4984l-1-1 0-2-1-1-1-2 0 0-1-2 0-1 0 0 0 1 0 1 0 2-1 2 0 4-1 5 0 5 0 7 0 8 0 8-1 9 0 9 0 9 1 9 0 10 0 9 0 10 0 9 0 9 1 9 1 9 0 9 1 8 1 9 1 9 0 10 1 9 0 10-1 10 0 10 0 10 0 11-1 11-1 10 0 10"/>
<path d="M13453 -4528l-1-1 0-1-1-2-1 0-1-2 0 0 0-1 0 1 0 0 1 0 2 1 0 1 2 0 2 2"/>
<path d="M13490 -4493l 0-1 0 1 0-1 0 1 0 1 1 0 1 0 1 0"/>
<path d="M13541 -4469l-1-1 0 0 2 0 0 0 1 0 1 0 1 0 2-1 1 0"/>
<path d="M13649 -5086l-1-2 0-2 0-3 0-3 0-3 0-3 1-3 1-1 0-1 1-1 1-1 1-1 2 0 1 0 3-2 2 0 2-1 2-1 3-1 4 0 3-1 3 0 2-1 3 0 3 0 3-1 3 0 2-1 3-1 3 0 2 0 3 0 2-1 3 0 3 0 2 0 3 0 2-1 3 0 3 0 2 0 2 0 3 0 2 1 2 0 1 1 2 1 3 1 1 1 1 1 3 1 1 2 1 2 3 1 0 3 1 2 1 3 1 4 2 4 0 5 0 5 0 6 0 7 0 7 0 8 0 9-1 10-1 10-1 11 0 11-2 13-2 13-1 14-2 15-2 14-2 16-1 15-3 17-1 17-2 17-2 17-2 19-2 18-1 18-2 18-2 18-1 18-2 18-2 17-1 16-1 17-1 18-2 17-1 18-1 17-2 18-2 17 0 19-2 18-1 17-2 19-2 17-2 18-1 17-2 17-3 17-1 17-2 17-2 17-1 16-2 17-2 15 0 16-1 15-1 14-1 12-1 13 0 13 0 12 0 12 1 13 1 11 0 12 2 12 1 12 2 11 1 12 1 11 1 11 1 10 1 11 0 10 0 11 1 10 1 9 1 10 0 9 1 9 1 9 0 10 0 8 0 9 1 8 0 7 0 8 0 8 0 8 0 8 1 8 0 7-1 7 0 7 1 7-1 7 1 5-1 5 0 5 0 5 0 4 0 4-1 2 0 4 0 3 0 3 0 2 0 2 0 2 0 2 0 1 0 1-1 2 0 1 0 0 0 1 0 1 0 0-1 0-1 0 0 1 0 0-1 0-1 1-1 0-1 1-1 0-2 0-2 1-2 1-2 0-2 0-2 0-4 1-3 0-3 1-3 0-3 0-4 1-3 0-5 0-2 0-5 0-5 1-4 0-4 1-5 0-5 0-5 0-5 0-5 1-5-1-6 0-6 0-5 1-5-1-5 0"/>
<path d="M13910 -4471l 0-1-1 0 0 1 0 1 0 0 0 1-1 1-1 1-1 2 0 2-2 2 0 3-2 3-1 3-2 3-1 3-2 4-2 3-2 4-2 3-1 4-2 3-2 3-1 4-3 3-2 4-3 4-2 4-4 4-4 4-2 4-5 5-3 5-3 4-3 5-3 5"/>
<path d="M14137 -4883l 0-1-1 0 0-1 0-1 0-1 0 0 0 0 0 0 0 1 1 2 1 1 0 3 2 3 1 4 1 6 2 6 2 7 3 8 3 9 4 10 2 5 2 6 2 7 3 6 3 7 3 8 3 7 4 9 4 8 4 9 4 8 5 10 4 9 5 10 4 10 5 10 5 10 6 9 5 10 6 10 5 10 6 10 5 10 5 10 5 9 6 8 5 10 5 9 5 9 5 8 4 9 5 8 5 8 5 7 4 7 4 7 4 6 3 6 4 6 3 5 3 5 2 4 3 4 2 3 2 3 2 3 1 1 2 2 1 1 0 1 2 0 0 0 1-1 1-1 0-2 1-2"/>
<path d="M14448 -4939l 0-1-1 0 0 0-1-1-1 0-1-1 0 0-1-1-1 0 0 0-2 0-1 0-2 0-1 1-2 2-2 1-3 2-4 3-2 4-4 4-5 5-5 5-5 6-6 7-6 8-8 9-8 9-9 11-9 11-9 12-10 13-10 12-10 14-11 14-11 13-11 14-11 15-11 15-22 28-20 27-19 25-16 22-14 21-14 17-11 16-10 13-9 12-8 11-8 11-7 11-7 10-5 10-4 9-3 9-3 8-3 7-2 6 0 6-1 5 0 5 1 4 2 3 2 3"/>
<path d="M1131 -3594l 1-4 0-7 1-6 1-8 1-9 2-10 3-9 2-8 3-8 2-7 4-8 4-7 4-8 3-6 5-6 3-5 5-6 3-5 4-5 4-5 4-4 4-4 4-3 3-3 4-1 2-2 2 0 3 0 1 1 2 2 1 3 1 3 2 4 1 5 1 5 0 6 1 7-1 9-1 9-1 9-2 12-1 11-2 12-2 12-2 13-3 13-3 13-3 14-2 12-4 14-2 12-3 12-3 11-2 11-2 10-2 10-2 8-2 7-2 8-1 5-2 4 0 3 0 1 0 2 1-1 1-2 1-2 1-3 1-5 3-6 2-8 5-9 3-11 5-12 5-14 5-14 6-15 6-16 6-16 6-16 6-17 7-16 6-15 7-16 6-14 6-15 7-13 6-14 7-13 7-11 6-11 7-11 6-11 7-9 5-9 5-8 5-5 3-5 4-4 3-2 2-1 2-1 1 1 2 1 1 1 1 3 1 3 0 4 0 5 1 5-1 7 0 7-1 7-2 9-1 8-1 8-2 9-3 9-2 10-2 10-3 11-3 10-2 11-3 11-2 10-3 11-2 11-3 10-3 10-1 9-2 9-2 8-1 8-1 5 0 7 0 5 2 4 1 4 2 2 2 2 3 1 4 0 3 0 5-3 5-2 7-5 7-5 8-7 9-8 9-10 10-10"/>
<path d="M1491 -3800l-1 1 0 2-1 1-2 2 0 1-2 2-1 2-1 2-1 1-1 2 0 1-1 2 0 0 0 2 0 0 0 1 0 1 0 1 0 0 0 1-1 0 0 1 0 1 0 1 0 1 0 1-1 1 0 3-1 1 0 2 0 2-1 3-1 3 0 4-1 2-1 4-1 4-1 3-1 4 0 4-2 4-1 5 0 3-1 5-1 5 0 6 0 5 0 6 0 5 0 5 1 5 1 4 1 4 1 4 2 3 1 2 3 3 2 2 3 1 2 1 3 1 2 0 3 0 4 0 2-1 3-1 3-2 3-1 3-3 3-2 2-3 2-3 3-4 2-3 2-4 1-3 2-4 1-4 2-3 1-4 0-3 1-4 0-3 0-3-1-4 0-3 0-4-1-3 1-3 0-3-1-4 0-3 0-3 0-2-1-4 0-3 0-3 1-3 0-2 1-3 0-2 1-3 0-2 2-3 0-2 2-3 1-3 2-2 2-3 2-3 1-2 2-3 1-2 2-2 3-2 2-3 1-1 2-1 2-2 3-1 1-1 2-1 1-1 1-2 2 0 0-1 2-1 1 0 1 0 1-1 3-1 1 0 1-1 3 0 2 0 2 0 1 0 2 0 2 0 2 0 1 0 2 1 2 1 1 1 2 0 1 1 2 1 1 2 2 1 1 1 1 1 1 2 2 1 0 2 1 2 1 2 0 3 1 3 1 3 0 3 1 4 0 4 0 4 0 4 0 5-1 5-1 6 0 5-1 6 0 6-1 5-1 6 0 4 0 5 0 5 0 4 0 4 0 2 1 3 1 2 0 2 0 1 1 1 2 1 0 0 2 0 2-2 2 0 2-3 3-2 3-3 3-4 4-4 4-5 5-6 4-6 4-6 4-6 4-7 4-6 4-7 3-5 3-6 3-4 2-5 3-4 2-3 1-3 1-3 1-1 1-1 1-1 0-1-1 1-1 1 1 0-1 1 0 1 0 2 0 2 0 3 0 3 1 4 0 4 1 5 0 5 0 5 2 5 0 5 3 5 1 4 3 5 2 3 3 5 3 3 4 3 4 2 4 2 4 3 4 1 4 1 5 1 5 1 5 0 5-1 6-1 5-2 5-2 5-3 5-3 5-3 5-4 5-5 3-5 4-5 3-5 3-6 2-6 3-6 2-5 1-6 2-6 0-5 0-5-1-6 0-6-2-6-2-5-3-6-2-5-3-4-4-5-3-5-3-4-3-4-4-3-3-3-3-3-4-2-3-2-3-1-3-1-4-1-3 0-3 0-3 2"/>
<path d="M622 -1707l 0 1-1 0-1 0-1 0-1 1-1 1-1 1-2 1-2 1-1 2-2 1-1 2-2 1-3 2-2 2-1 3-2 3-2 2-1 4-2 3-2 3-1 4-2 3 0 3-2 4 0 3-2 4-1 4 0 3 0 4 0 3-1 3 0 3 0 3 1 3 0 2 1 3 2 2 1 2 1 1 2 2 1 1 2 2 3 0 2 1 1 1 3-1 2 0 3 0 3 0 2-1 3 0 3-1 3-1 2-2 3-2 3-2 3-2 3-2 2-3 3-2 2-3 2-3 2-3 2-3 2-3 2-3 1-3 1-4 1-3 1-2 0-3 1-2 0-3 1-2 0-3-1-2 0-3 0-2-1-2 0-2 0-2-2-2-1-2 0-2-2-1 0-2-1-2-1-1-1-2 0 0-1-2 0-1-1 0 0-1-1-1 0 0-1-1-1-1 1 0 0 1 1 0 0-1 1 0 0 0 1 0 1 0 0-1 1 0 2 0 0 0 1 0 1-1 0 0 1-1 1 0 1 0 1 0 1-1 0-1 2 0 1-1 0 0 1 0 1-1 0 0 2-1 1 0 0 0 1-1 1-1 1-1 1 0 1 0 1 0 1-1 1-1 1 0 1-1 1-1 1-1 2-1 1-1 2-1 2-1"/>
<path d="M750 -1757l 0 0 1 0-1 0 1 1 0 0 0 0 0 0 1 0 0-1 1 0 1 0 1-1 1 0 1-1 2 0 1-1 1-1 3 0 2-1 1-1 2 0 2-2 3-1 2 0 2-1 2-1 2 0 2 0 2-1 1 0 2 0 1 0 1 0 1 0 2 0 0 0 1 1 1 0 0 0 0 1 1 1-1 1 0 2 0 1 0 2-1 2-1 2 0 2-2 3-1 3-2 3-1 4-2 4-2 4-3 4-2 5-2 4-2 5-3 5-3 5-3 5-3 5-4 5-3 5-2 4-3 5-3 5-3 5-3 5-3 5-2 3-2 5-3 4-1 3-2 4-2 3-1 3-1 3-1 2 0 2 0 2 0 1 0 2 1 1 1 1 1 1 1 0 2 0 1 1 3 0 2 1 3 0 3 0 4 0 4 0 4-1 6 0 6-1 6-1 7-1 15-4 17-4 17-6"/>
<path d="M1619 -1754l-1-1 0-2 0-3-1-3 0-4 1-4 1-5 2-4 2-6 4-7 3-7 5-7 5-7 5-8 6-8 7-7 5-8 6-7 6-7 6-7 6-7 6-7 6-5 6-5 6-5 6-5 6-5 5-3 5-3 5-3 5-1 4-2 3-1 4 1 2 1 2 1 2 2 1 3 1 2-1 5 1 5 0 6-1 8-1 9 0 10-2 10-3 11-2 12-4 12-4 12-5 13-4 12-5 13-4 11-5 11-4 11-3 10-5 9-3 10-4 8-3 9-3 7-2 6-3 7-2 5-1 4-1 3 0 2 0 1 0 1 0 0 1-2 2-2 2-3 3-4 4-5 5-7 5-7 8-9 7-10 8-11 7-12 8-12 8-13 8-12 9-13 7-12 8-12 7-11 8-11 7-11 8-10 7-10 8-9 6-9 6-8 6-8 6-6 5-5 4-4 3-2 3-2 1-1 2-1 0 0 0 0 0 1 0 0 0 2-1 2-1 2 0 4-1 4-1 5-1 6-2 7-1 7-2 8-2 8-3 8-2 8-3 9-2 8-3 8-1 8-1 8-2 8-1 7-1 7 1 6 0 5 0 7 0 5 0 6 1 4 1 3 1 3 1 4 2 2 2 1 3 2 4 0 3 0 5 0 4-2 6-2 5-3 7-4 6-4 7-5 7-7 7-6 8-7 7-8 7-8 7-8 7-8 6-8 6-7 6-6 5-6 5-6 4-6 5-5 3-4 4-4 1-3 2-4 1-2 2-3 1-2 0-1 0-1-1-1 0-1-2 1-1 1 0 1 0 1-1 1-1 1 0 2 0 1-1 2-1 2 0 2 0 3 0 2 1 3 1 2 1 2 1 2 2 1 1 3 2 1 3 1 3 2 2 1 3 2 4 0 3 0 3 1 4 1 4 1 4 0 4 0 4 0 4 0 5-1 4-2 5-1 4-1 5-3 5-2 4-3 6-3 5-4 4-3 4-5 4-3 4-4 4-4 2-4 3-5 1-4 1-3 2-4 1-4 0-4 0-3 0-4-1-4-2-2-2-4-2-3-3-2-4-3-4-2-3-1-4-2-5-1-5-1-5 0-5 0-4 1-4 0-5 3-6 2-5 3-6 2-5 4-5 4-6 5-5 5-6 6-5 6-5 6-5 7-4 7-4 8-4 7-4 9-3 8-4 7-2 8-2 7-2 8-2 7-1 7 0 7 1 7 2 5 2 6 3 5 3 4 5 4 5 4 5 3 5 2 5 2 7 0 6 1 7 0 8-1 7-2 8-3 10-3 8-4 9-5 10-5 9-7 9-6 8-7 9-8 9-8 9-9 7-8 8-8 7-9 7-9 6-9 5-7 6-8 4-8 5-7 2-7 4-5 3-4 1-4 3-5 0-2 1-3 1-1-1-1 0-2 0-1-1 0-2 0 0 1-1 0 0 1-2 1-1 2-2 3-2 3-2 4-3 6-3 7-3 7-2 8-3 10-2 9-3 10-1 10-1 10 0 9 0 9 0 8 2 9 0 8 3 8 2 7 3 8 4 6 3 5 3 5 3 4 4 3 3 3 3 2 4 1 3 0 4 0 4-2 5-2 5-3 5-3 7-5 5-7 6-7 6-9 5-10 6-11 6-10 5-12 3-11 5-12 4-11 4-12 4-11 2-11 3-10 3-10 2-9 1-9 2-7 1-7 0-6 0-7 0-5 0-6-1-5 0-5-2-4 0-4-1-4-2-2-1-3-1-1 0-1-1 0-1 0-1 1 0 1"/>
<path d="M2394 -1895l-1 0-2 0 0-1-1 0-1 0-1 0 0-1 1-1 1-1 1-1 1-1 2-2 3-2 3-2 3-3 5-3 5-3 5-3 5-4 5-3 5-4 7-4 5-4 6-4 4-4 6-4 6-4 4-3 5-4 4-4 3-3 3-3 4-4 2-3 1-3 1-2 1-1 0-2 0-3 0-1-2-2 0-2-2 0-1-2-2 0-3 0-3-1-4 0-3 1-5 0-5 1-5 2-6 2-6 2-6 2-6 3-6 3-5 5-5 4-6 5-5 5-5 6-4 6-5 6-5 8-5 7-4 8-3 9-5 9-3 9-3 9-3 10-3 9-1 10-2 8-1 9-1 8 2 9 0 7 2 7 3 7 4 7 3 5 4 5 4 5 5 4 5 4 5 4 6 3 6 3 6 2 7 1 8 2 8 0 9 0 9-1 8-2 10-2 10-2 10-3 9-3 10-4 10-4 9-5 10-6"/>
<path d="M2576 -1991l 0 0-1 0 0 1 1 0 1 0 1 0 2 0 3 0 4 0 4 0 4 0 5 0 6-1 6-1 7 0 6-1 7-2 7-1 7-1 8-1 7-2 7 0 6-1 6-1 6 0 6 0 5 0 5 1 4 1 4 0 5 2 3 1 3 2 3 1 2 2 2 2 2 3 0 2 0 3 0 4 0 3-1 4-1 4-3 5-2 6-3 6-4 6-4 6-5 6-5 7-5 6-4 7-5 7-4 7-4 6-5 8-4 7-4 6-5 7-3 7-3 6-3 6-3 5-1 5-2 5-1 3 0 5 0 3 1 4 1 3 2 4 2 3 3 3 3 2 4 3 4 2 4 3 5 1 5 1 7 2 6 1 7 0 6 1 7 0 8 0"/>
</svg>
