<svg xmlns="http://www.w3.org/2000/svg" viewBox="830 1115 13498 9446" stroke="black" stroke-width="16" stroke-linecap="round" stroke-linejoin="round" fill="none" data-xena="0 -4 0"><style>@media(prefers-color-scheme:dark){svg{background-color:black;stroke:white;}}</style>
<path d="M1299 4213l-1-1 2-24 23-10 24-13 22-14 23-14 26-16 24-10 24-11 28-13 27-12 27-13 30-13 32-17 25-13 25-14 26-14 30-15 28-16 31-15 31-17 32-16 34-18 33-20 34-18 35-19 37-20 38-18 38-21 41-22 22-12 22-13 23-12 22-13 24-13 24-15 24-13 25-14 24-14 24-13 22-15 25-13 25-13 26-14 26-14 26-15 27-14 27-12 30-14 26-15 27-14 28-14 27-14 28-14 28-14 28-15 29-13 28-14 28-14 27-12 27-13 28-13 26-12 25-12 27-14 27-12 26-13 26-13 26-12 25-12 26-12 26-11 24-11 25-10 24-11 24-10 24-10 23-9 43-19 43-17 39-15 36-14 35-13 30-12 29-9 25-9 32-10 29-6"/>
<path d="M3721 3090l-1-1-7 24-3 28-1 25-3 30-2 25-3 30-1 30-3 32-4 34-5 35-3 24-2 24 1 24-2 26-3 27-2 26-4 28-1 28-3 27-2 25-3 28-3 27-3 27-4 30-4 29-4 31-3 31-3 33-3 33-4 34-4 37-3 39-5 41-7 44-5 42-6 44-5 45-3 24-6 46-7 47-6 46-3 26-5 46-2 25-3 25-3 24-3 24-2 26-4 45-5 48-1 24-4 25-3 47-3 25-1 24-4 46-4 46-3 45-3 46-5 46-4 40-6 41-4 37-3 38-1 34 0 31 0 27 1 26 3 31 3 25 6 25"/>
<path d="M1310 4367l 0-1 20 13 26 16 22 15 24 16 28 17 28 22 30 21 23 16 24 15 25 16 26 15 28 14 28 15 32 15 31 13 34 13 35 13 36 12 39 13 40 15 39 15 23 9 42 17 44 18 22 10 23 9 23 10 21 9 23 10 22 10 24 10 22 11 25 12 22 10 25 11 24 11 24 12 24 10 24 12 24 12 22 10 24 11 24 11 23 12 24 11 23 12 24 11 24 11 24 10 24 12 23 11 23 13 25 12 23 11 24 11 25 13 25 12 24 12 24 10 24 11 22 11 24 10 23 11 45 17 23 10 22 9 23 10 23 9 44 17 42 18 42 17 41 15 39 16 37 15 36 13 33 12 31 12 29 10 27 12 24 10 32 14 24 11 23 10"/>
<path d="M2446 2595l 0-1 0-24-6 24 5 24 6 24 6 23 5 26 4 27 5 28 7 25 4 25 6 28 6 25 7 28 5 24 7 24 11 27 5 24 7 26 8 25 9 25 7 25 6 23 6 27 8 26 11 27 10 26 7 26 8 26 6 25 8 26 10 27 7 26 9 28 10 28 9 29 11 28 8 23 10 25 7 25 8 24 9 24 8 26 8 26 9 27 10 27 13 27 12 27 12 28 12 27 13 28 10 26 11 29 10 27 12 30 12 30 8 23 12 32 7 25 12 33 11 32 14 32 14 33 10 24 10 22 10 23 11 21 17 29 11 21 11 21 14 25 11 22 12 21 15 30 14 30 11 23 11 25 12 23 9 24 11 23 13 32 10 24 10 25 11 26 10 26 10 26 9 25 8 25 8 26 9 24 8 27 8 23 8 25 8 25 8 23 7 24 7 25 12 34 9 34 8 31 11 32 8 30 6 27 6 27 7 28 9 25 7 27 7 26 9 24"/>
<path d="M2537 2560l-2-2 25-3 21 13 20 13 26 15 24 15 25 13 29 12 28 15 25 16 22 12 24 11 23 11 28 14 25 16 25 17 27 16 25 12 22 14 22 12 24 13 26 10 25 10 24 10 25 9 29 7 23 7 25 13 27 11 25 9 26 12 27 10 22 11 23 18 24 19 21 13 22 14 19 16 18 16 23 16 21 16 25 13 23 11"/>
<path d="M1311 4183l-1 0-6-25 12-22 12-22 16-26 15-19 17-22 12-21 14-23 16-26 16-26 17-28 20-30 19-30 17-31 18-31 15-22 14-22 15-25 15-25 16-26 15-24 16-22 16-22 17-24 16-23 17-25 15-26 16-25 19-23 18-25 21-24 20-24 20-24 18-25 21-22 19-24 19-25 20-23 20-26 18-24 18-24 17-23 16-24 17-23 17-24 15-24 14-23 14-23 11-23 20-29 19-29 20-25 17-27 20-25 16-25 17-22 14-22 15-20 18-24 16-22 12-21 16-19"/>
<path d="M945 4532l-1 2-10 21 23-7 12-27 8-31 7-25 7-24 4-24 8-26 6-26 4-28 7-27 2-26 0-25 0-25-2-24-2-25-6-36-3-34-3-29 0-29 22 16 10 26 11 30 12 30 12 31 11 32 16 31 15 31 14 31 12 29 14 28 11 24 15 22 10 25 0 25"/>
<path d="M972 4412l-2-1 20-22 27-17 25-15 21-11 22-12"/>
<path d="M3917 2828l-1-2-4 31 3 28 0 30 0 31 0 33 0 31 3 32 3 29 4 25 6 24 6 25"/>
<path d="M3914 2838l-2-3 1-24 12-22 18-21 25-15 27-12 29-10 23-5 28-2 26 3 25 12 6 28-7 25-13 27-15 22-19 22-20 20-19 18-17 17-22 18-19 17 25-1 29-8 26-5 25-1 30 1 30 2 27 5 27 7 24 8 15 22-13 27-18 26-17 19-20 21-23 20-26 16-24 16-23 11-22 10-25 5-25-2"/>
<path d="M3859 5472l-2-1-26-4-25 11-23 15-22 19-19 20-15 23-12 25-10 30-6 24-5 25-2 25 3 29 10 23 18 22 26 13 26 4 25-2 24-6 27-10 21-12 24-12 24-13 25-12"/>
<path d="M2300 2083l 0-3-1-24 9 24 5 30 2 25 2 28 3 27 3 28 3 27 3 27 4 30 8 27 7 24 5-27 2-32 0-26 0-28-3-29-1-30-5-29-4-29-6-29-4-25-6-24-7-23-5-25 8-23 22-14 27-11 27-13 28-5 29 1 29 3 30 7 24 5 29 10 28 11 28 11 21 15 18 16 17 17 8 29-5 32-10 26-16 27-20 29-15 20-15 20-16 18-17 18-17 18-19 16-26 23-22 19-21 20-20 16-22 16-21 11-27 7"/>
<path d="M2801 3860l-1-1 10-22 18-16 14 21-11 23-10 24 25 0 16-21 12-22-18-22-26-3-24 8-16 20 7 24 24 5 25-11 18-16 15-21-9-23-25-6-22 14 4 25 25-2"/>
<path d="M2986 3718l 0-1 2-24 12 21 5 24 3 28 1 26 2 24 2 28 0 25-13-21-4-29-4-28-1-26-3-27 1-27-1-25 0-25 6-24 6-24 24 8 10 22 13 20 15 22 24 10 24-7 17-17 14-21 14-24 11-22 9-28 6-24 8-23 5-25 17 21 3 27 3 27 5 25 4 25 6 27 5 23 8 30 8 29 8 26 7 26 8 23"/>
<path d="M2906 3779l-1 0 25-8 24-14"/>
<path d="M3029 3692l-2-1"/>
<path d="M3160 3560l-1-1"/>
<path d="M3282 3449l-1-1 12-22 19-16 21-15"/>
<path d="M3393 3354l 1 0 18-18"/>
<path d="M3486 3259l 0-1 16-19 20-16"/>
<path d="M3608 3158l 1-1 18-16 18-18 18-17 15-20"/>
<path d="M3116 8427l 0-2 5 25 3 25 3 26 2 31 2 27 2 28 4 28 4 31 4 30 7 35 2 24 4 27 3 24 4 26 6 26 4 25 3 29 5 28 3 28 3 29 5 26 3 26 3 27 4 25 3 25 5 36 2 24 3 25 4 26 0 26 3 27 3 26 3 28 4 27 3 28 2 25 2 27 4 28 3 28 4 31 5 27 2 26 5 25 3 25 3 26 4 27 4 26 3 24 4 25 5 36 1 25 2 25 4 26 4 26 5 23 5 34 5 32 9 32 6 29 3 30 5 26 6 28 5 24 5 29 5 27 6 26 8 25 2 24 0 25-6 26"/>
<path d="M3137 8296l-2 0 23 13 21 14 19 17 22 16 18 15 20 14 24 11 26 11 24 12 28 10 24 9 23 10 22 15 23 15 24 17 24 15 25 17 23 14 25 17 27 17 29 16 28 17 21 14 28 19 21 12 23 12 26 14 24 14 24 14 25 13 22 13 23 14 25 13 25 13 27 13 26 13 26 14 27 13 25 13 27 14 26 13 25 14 25 14 26 15 25 12 27 13 25 16 25 11 23 15 24 16 22 15 22 18 23 16 22 15 22 16 22 15 22 15 21 14 20 15 29 21 28 20 27 18 26 20 24 18 23 16 23 15 22 13 23 16 25 15 19 15-24-13"/>
<path d="M3366 10346l 0 0 12-23 18-21 15-20 19-16 20-17 21-20 24-20 19-15 18-16 22-18 22-18 23-20 23-21 26-22 26-23 27-24 27-25 21-18 21-16 22-19 22-16 20-16 21-18 19-16 21-18 21-16 22-16 21-18 22-19 20-16 21-18 21-15 21-13 22-15 22-15 21-16 20-18 21-16 19-17 21-17 20-14 22-16 21-15 31-19 19-14 27-21 25-21 23-16 24-15 20-13 21-12 28-13 24-13 25-14 23-11 21-11 24-12 22-14 21-13 20-16 23-18 19-16 22-18 18-16 16-17"/>
<path d="M3213 9304l 1 0 22-10-23 9-1 24 20-14 14-20-25 0-3 24 25 4 15-21-5-26-24-6-17 18-5 26-3 24 8 23 24-2 22-17 13-22-13-22-24-7-22 12-10 22 10 22 25-5 21-14"/>
<path d="M5075 9080l-1-2-7 26 4 28 4 33 2 26 0 28 0 28 2 28-2 31 0 28-3 25-1 26 11-23"/>
<path d="M5043 9029l 0-1 16-19 27-8 24-5 25-6 25-1 25 2 28 2 23 9 12 23-9 28-18 25-16 20-20 24-23 21-21 17-18 17-19 15 25-8 25-7 28-6 25-7 27-3 24-1 25 2 24 12 9 24 0 29-7 27-12 27-12 28-14 27-18 24-18 17-22 13-27 14-28 12-26 4-25-1-25-8-18-21"/>
<path d="M2704 9234l 0-1 8 24 6 29 3 28 1 25 1 28 4 27 0 27 2 27 0 26 2 30-2 26-2-32-3-30-2-34-2-35-2-26-3-36-5-35-4-27-6-28-4-24-4-28-2-28 7 25 8 25 7 30 8 24 11 24 11 22 16 27 13 23 18 18 22 11 26 0 21-17 19-28 13-25 12-26 11-27 8-25 5-25 4-25 8-28 0-29-4-27 4 25 3 31 2 25 5 30 7 23 5 25 8 25 4 28 7 27 5 27 6 26 9 24 6 27 7 28 9 25"/>
<path d="M3734 9120l-1 0"/>
<path d="M3845 9143l-1 0 26-3"/>
<path d="M3906 9136l 1 0 22 10"/>
<path d="M3795 9148l-2 0 25-2 24 6 24 4 24 7 25 4 26 2 24 5 25 7 27 0 26 1 25-1 26 3 24 5 26-2 26 0 26 0 27-1 26 2 26 5 24 7 27 2 25 1 24 3 26 3 24 5 24 8 26 2 27 0 25 4 25 3 26 8 23 11 24 6 25 6 24 3"/>
<path d="M3334 9383l-1-1 23-8 26-7 27-1 26-1 25 5 27 3 24 2 26 1 26 2 27 2 24 5 27 6 25-3 28 3 26 0 25-4 28-3 23-7 27-2 25-5 25-5 26-2 27-4 23-6 25-1 28 4 24-6 28-1 26-6 27-5 27 0 26-1 26-6 26 2 24-4 26-2 26 0 25-5 25-2 25-1 27-3 24 1 27-4 24-2 24-2 25-1 24-1 24-3 25 0 25-2 25 0 25-2 24 0"/>
<path d="M4335 9246l 0-1-16 20-1 24 14 21"/>
<path d="M3644 9049l 0 0-6-25 8-27 5-27 3-24 3-28 1-25 0-26 23 8 15 23 10 25 10 25 13 22 15 20"/>
<path d="M3652 8971l-1 0 22-11 23-9 26-13"/>
<path d="M8444 5897l 0 0 14 20 22-10-2-24-24 3-16 19-6 25 24 1 17-18-17-18-17 19-7 24 6 23 22-12 4-25-17-18-16 19 0 25"/>
<path d="M6082 6220l 2-1 25 4 25 8 29 2 27 0 24-2 26-1 26-2 28-1 29-2 31-1 32-2 36-1 24-2 25-1 25-3 25-1 25-2 27-3 26-2 27-2 27-2 28-3 30 0 28-3 30-2 28-2 29-2 28-1 28-2 28-1 28-1 28-2 28 0 29-1 28-2 28-2 28-1 27-3 27-1 28-2 28-3 28-2 28-4 28-3 26-4 27-3 27-3 26-3 27-3 25-2 25-3 24-3 35-5 35-5 33-5 33-4 32-5 31-5 29-4 27-4 25-2 29-3 28-4 27-2 30-1 27 1 28 2 24 0 27 0 26-1 26-5 23-6 23-9 21-12 26 4 25-1 26-5 27-8 25-7 23-8 23-9 24-7 24-13"/>
<path d="M5812 6629l-1 0 11-26 10-28 10-32 5-25 4-33 2-25 1-28-1-28-1-27-1-27-1-35-2-29-5-25-1 26 7 28 10 26 13 27 13 30 16 32 16 31 20 26 20 24 19 23 16 19 21 20 22 15"/>
<path d="M5816 6545l-1-1 17-17 21-12 29-11 25-6 29-7 31-7 35-9"/>
<path d="M8669 6094l 0-1 24-7 18 21 16 25 12 20 13 22 14 21 14 21 15 19 19 23 16 22 15 19 17 18 21 12"/>
<path d="M8891 6073l-2 0-22 14-17 19-14 24-14 29-10 23-9 24-8 25-9 26-8 23-9 24-11 23-9 26-12 24-10 23"/>
<path d="M8382 4371l-1 0-12 22 2 24 23-5 8-25-22-14-21 13"/>
<path d="M8440 4510l 0 1 3-27-1-24-4-24-6-25 10 23 4 28 5 27 5 27 5 29 5 25 6 32 4 24 3 25 5 27 4 30 2 29 2 32 1 30 1 34 1 32 0 31 0 30-2 32 0 31 0 28 1 26 0 27-1 27 0 29 0 27 1 26 0 27 1 29 0 26 0 24 0 24 1 24 1 25 3 30 3 30 1 31 0 29 2 28 1 29 3 26 0 25 1 24 2 28 1 25 1 27-1 24-1 27 0 26-2 25-1 24 0 24-3 24-11-24"/>
<path d="M6181 6140l-1-1-24 6 13-23 22-13 25-13 23-12 23-15 20-14 24-16 27-20 30-21 19-15 21-16 22-16 23-17 24-18 24-15 24-16 25-15 24-16 25-15 25-16 25-16 26-18 25-18 26-17 27-18 25-16 26-19 26-20 26-19 26-20 27-21 26-21 28-21 27-23 27-22 27-23 26-23 26-22 25-22 25-22 24-19 24-19 24-18 23-17 23-21 22-18 21-18 22-18 22-16 22-17 23-18 24-20 24-18 24-20 24-19 25-19 25-19 25-19 25-18 23-19 23-17 22-15 21-15 30-20 27-23 26-24 26-20 26-19 26-22 28-19 28-18 28-20 27-21 17-17 25-17 23-16 23-15 20-16 22-16 21-15 19-18 18-17 18-16 18-21 18-19 19-17 19-17 21-16 21-14 21-12"/>
<path d="M6888 4942l-1-2 20 19 12 28 8 26 7 26 6 25 8 30 7 27 6 28 3 28 2 24"/>
<path d="M8673 3943l-1 0 11 26 6 29 3 27 3 27 4 27 3 27 3 26 2 24 2 29 1 25 5 25"/>
<path d="M8700 3916l-1-2 12-22 24-12 23-9 29-10 30-7 31-2 29 1 27 4 25 7 19 18-3 28-17 23-20 19-22 19-25 18-21 15-21 14 25-1 29-6 25-5 25 0 28 1 28 1 23 6 24 10 16 19 5 28-5 26-11 22-16 20-20 22-18 16-19 14-29 14-29 11-29 8-27 2-25-1-24-5-25-12"/>
<path d="M8762 7755l-1 0-17 17-14 24-13 26-13 23-12 21-12 25-14 25-18 28-19 31-14 23-16 25-17 27-18 28-19 30-19 31-19 30-19 34-21 33-20 34-21 37-22 37-24 40-24 41-12 22-24 39-24 41-25 40-12 22-26 41-14 22-14 21-14 21-14 22-16 21-15 22-16 23-15 22-15 22-15 23-15 24-16 23-15 25-15 23-16 23-15 23-16 23-14 23-15 22-15 22-15 24-16 23-14 23-14 24-15 22-14 22-14 24-13 24-15 21-13 22-13 22-14 21-13 22-14 22-12 20-26 39-27 38-25 37-23 34-21 34-20 32-18 30-18 28-16 26-15 23-13 21-16 28-12 24-9 23-5 27 23-9 22-10 27-2 28 2 28 1 27-1 33 0 26-1 27 0 28-1 30-1 32-1 33-1 35-4 37 0 39-1 40-1 42 0 44-1 47 0 24 0 48 0 25 0 25 0 25 0 25 1 26 0 26 1 26 2 26 0 27 0 26 1 27 0 26 1 27 1 28-2 28 1 27 1 28 1 28 2 27 2 28 1 28 2 28 3 28 1 28 3 27 2 29 2 27 2 29 3 28 2 27 2 28 3 29 2 29 2 28 2 29 3 27 1 28 2 29 2 29 2 29 1 28 2 29 2 28 1 29 1 29 1 29 1 28 2 29 1 29 0 29 0 29 1 28 1 28 1 29 0 28 0 27 1 28 0 26 1 27 1 27 0 26 1 26-1 26 0 25 1 25 0 24 1 24 1 47 2 44 2 43 2 39 1 38 1 35 5 32 1 30 2 27 2 34 0 27 2 24 4"/>
<path d="M8807 7743l-1 0 27 3 22 12 23 15 20 16 24 21 21 16 23 17 26 22 27 23 20 17 21 18 23 18 23 19 25 19 25 20 26 21 26 20 28 21 27 23 28 23 28 25 27 26 27 27 26 28 28 29 27 30 28 31 25 32 26 34 25 34 28 36 26 35 26 33 26 34 25 30 24 32 25 34 25 33 24 34 25 33 24 32 25 31 25 36 24 32 22 33 22 31 22 30 22 30 22 31 21 31 21 31 21 31 21 30 22 29 19 29 18 29 16 28 18 29 17 29 18 27 17 27 17 27 16 22 15 22 15 22 23 27 22 27 22 23 21 25 19 25 17 23 16 20 15 22 18 23 18 20 15 20 14 22-18-18"/>
<path d="M8891 8904l 0 0-2 25 15 20 24-8 2-24-24-3-2 24 24 0-3-24-25 2"/>
<path d="M9082 9091l-1-1 19 19 21 17 22 16 21 13 21 15 23 16 23 16 18 18 21 14"/>
<path d="M9260 9074l-1-1-23 9-20 21-14 20-14 26-16 28-13 21-12 22-11 22-12 22-12 24-11 25"/>
<path d="M8748 7309l-1-2 2 25 4 25 6 28 6 29 6 27 4 24 3 25 2 25-2 27"/>
<path d="M8744 7278l-1-3-2-25 17-20 21-13 27-8 27-2 30-4 29-2 26 1 27 6 22 12 0 26-15 24-19 19-22 19-23 15-24 13-22 9-22 11-23 9 27-6 28-8 27-5 28-3 29-4 31-1 28 2 28 5 22 11 11 22-10 26-17 24-20 17-23 16-24 11-25 10-26 9-25 4-24 2-24-2-26-9"/>
<path d="M8769 7806l 0-1 24 2"/>
<path d="M8822 8000l 0-1-10 24 9 23"/>
<path d="M8833 8179l 0 2 2 24 6 24 1 25"/>
<path d="M8841 8389l-1 0-7 24"/>
<path d="M8836 8590l 0 1"/>
<path d="M8849 8767l 0 2-5 25 2 25 11 23"/>
<path d="M8881 8984l 0 2-1 24 8 23"/>
<path d="M8880 9238l 0 2-2 24 9 23"/>
<path d="M8910 9403l-1 0 1 24"/>
<path d="M8929 9575l 0 1 2 26"/>
<path d="M8947 9687l 0 2-2 24"/>
<path d="M7567 9791l 0-1 16-19 23-11"/>
<path d="M7907 9566l 1-2 16-17 24-11 26-10 24-7"/>
<path d="M8110 9466l 1 0 20-15 24-12"/>
<path d="M8297 9346l 0-1 14-20 20-15 22-12"/>
<path d="M8564 9156l 1-2 16-19 19-15"/>
<path d="M8823 9005l-1-1 17-17 23-12-17 18-21 16"/>
<path d="M8318 9294l-6 3-23 13-26 14-24 13-26 14-23 11-21 12"/>
<path d="M7745 9687l-4 1-25 7-23 9-24 6-23 11"/>
<path d="M7805 8095l-1-1-7 24 0 28 0 26 2 32 1 33 1 32 1 31 1 31 2 31 2 29 0 27 1 25 0 28 1 24 4 24"/>
<path d="M8134 9981l-1 0 6 24 6 26 6 24 3 24 1 27 1 27 1 27"/>
<path d="M8346 9944l-2 1-18 22-13 22-12 25-8 23-8 27-7 27-8 30-7 32-7 35-5 23-6 25-7 24-6 24-6 24-9 33-8 32-8 25-10 29-9 27"/>
<path d="M8379 10145l 0-1 25 2 29 7 27 9 24 14 21 17 0 25-16 24-17 19-20 17-21 17-21 17-20 19-18 20 16 20 27-3 27-5 29-8 25-6 24-6 25-8 26-7"/>
<path d="M9022 10104l 0-1 7-23 24-1 18 19 17 23 20 20 22 20 18 15 22 10"/>
<path d="M9231 10038l-2-1-21 12-10 24-6 26-7 31-6 31-4 24-6 29-7 30-6 30-5 30-6 27-6 24-7 24"/>
<path d="M10583 6714l-1-2 1 29 1 25 0 28-1 31 0 31 1 30 1 29 0 29 0 29 0 26-1 29-3 24-6 23"/>
<path d="M10599 6738l-1-3-4-27 10-24 18-15 25-12 27-10 32-5 25-2 25 0 30 5 26 8 24 12 11 25-10 28-18 23-19 20-20 19-21 18-22 16-21 15-20 15-25 16-24 14 28-6 24-9 23-6 30-5 26 0 25 1 28 6 19 16 3 26-8 27-10 25-16 27-19 26-21 25-22 22-21 21-21 16-21 16-26 12-25 3-28-10-17-19-13-26"/>
<path d="M10899 6628l 0-1 19 21 20 18 21 19 20 21 18 26 17 26 17 25 13 23 13 23 18 19"/>
<path d="M11155 6602l 0 0-5 27 0 34-2 27-3 29-1 32-1 37-1 25-4 34 0 25-3 25-3 25-2 25-5 31-4 26-5 30-5 27"/>
<path d="M11407 6752l-2 0 26-6 28-2 28-3 30-3 28 0"/>
<path d="M11430 6844l 0 0 27 0 28-2 29-5 27-4 27-6 26-6"/>
<path d="M11884 6597l-1-1 24 1 27-3 31-5 26-6 29-4 29-8 29-9 31-11 31-9 30-8 28-7 26-5 29-6"/>
<path d="M11878 6655l 0 0 0 26 2 24 3 29 0 26 0 28 0 31 0 31-2 34-1 31 0 29 0 27 3 26 1 28-4 27-24-9-5-24-4-27-6-24-11-22-22-12-14 20"/>
<path d="M12109 6679l 0-2 27-3 28 3 23 7 17 18-21 18-22 14-23 12-21 13 19 15 26 5 24 5 28 4 28 7 23 6 23 11-2 26-20 20-21 22-19 16-19 16-26 18-27 15-23 11-26 9-26-1"/>
<path d="M12544 6338l 0 0 1 30-6 33-3 24-5 25-6 28-5 30-8 32-7 33-9 35-7 35-9 35-7 36-7 33-6 33-6 32-6 31-5 33-6 29-7 27-4 26-8 31-4 25-6 24"/>
<path d="M12740 6545l 0-1 24 5 26 6 27 6 28 7 26 10 25 10 24 16 14 22 0 24-13 25-20 19-24 18-20 13-28 16-24 15-23 14-21 15 21 14 25 3 28-4 27-2 28-3 30-3 28-3 24-2 26 1"/>
<path d="M11069 7930l-1-1 24-4 25-5 25-5 24-8 26-12 25-8 28-9 23-6"/>
<path d="M11101 7985l-2 1 26-3 28-6 26-6 25-9 27-8 27-8"/>
<path d="M11300 7790l-2 0 25-2 28 3 23 8 24 14 13 22 9 22-4 27-15 21-16 18-20 19-21 19-22 18-17 18"/>
<path d="M11711 7701l 2-1 0 28 2 27 2 25 4 26 4 28 6 29 5 31 4 31 1 24 0 30-3 25-5 29-6 26"/>
<path d="M11723 7711l 0-1 11-22 25-10 27-9 27-3 30 1 28 4 28 7 28 8 25 10 24 13 22 16 17 17 2 26-17 21-25 19-21 14-22 13-23 14-23 13-27 15-23 12-25 10 26-9 27-11 27-8 26-2 24 0 27 3 28 6 23 8 27 11 21 17 14 20-1 25-10 28-15 23-21 24-19 25-20 24-23 18-23 15-28 12-24 6-25 3-25 0-25-3-23-6-28-13-25-16-15-18-8-28"/>
<path d="M12128 7748l-1-2 3-25 10-21 21-13 25 8 15 23 8 24 9 28 8 25 7 23 8 24 10 26 9 26 8 27 7 23 9 27 11 23 22 11 23-14 19-17"/>
<path d="M12365 7618l-1-1-20 16-13 28-10 24-11 28-12 28-9 28-13 32-12 34-11 33-6 23-10 32-8 31-8 28-7 28-8 28-9 25-8 24"/>
<path d="M12573 7787l 1 0 22-9 26-5 24-6 23-5 30-5"/>
<path d="M12541 7864l 0-1 23-9 25-7 27-2 30-4 24-1"/>
<path d="M12983 7489l 0 1 14-21 26-5 25-2 26 1 27-1 24-1 25 5 1 25-13 23-15 21-17 19-17 18-22 19-19 20-18 19 23 7 27-8 26-9 28-8 26-6 26-4"/>
<path d="M12878 7821l 1 0 20-16 24-9 29-8 29-6 28-4 24-3 25-3 25-3 27-4 24-3 24-3 25-4 26-4 25-3 31-3 29-3 27-3"/>
<path d="M13053 7908l 0-1 22-10 28-11 24-4 27-1 26 2 28 2 25 11 20 15-4 26-16 20-21 18-21 14-21 14 9 22 25 4 25 4 25 4 27 3 21 12-4 26-19 19-20 16-24 13-26 12-26 10-25 7-28 1-23-5-21-16-10-25"/>
<path d="M13642 7753l-1-1"/>
<path d="M13860 7496l-1 0 24-9 26-7 25-7 24-8 25-5 28-8 29-9 25-5 28-8 26-7"/>
<path d="M13843 7515l-1 0-2 24 5 28 6 25 1 24 1 25 1 26-3 26-6 26-7 25-9 25-11 24-21-13-10-23-14-21-24 1-17 19-13 21"/>
<path d="M13949 7601l 1-1 20-14 24-12 28-5 25-4 25 6 4 25-17 19-21 14-20 17 16 18 24 4 24 7 22 12 21 13 8 24-17 19-24 16-25 15-29 14-23 10-24 9-22 11"/>
<path d="M13714 7945l 1 0 26-2 26-6 27-5 32-5 27-4 29-5 29-6 29-5 30-6 31-5 32-6 29-6 30-6 28-3 25-3 24-3 27-2 25-1"/>
<path d="M13944 8026l 0 0 24 6 24 5 28 3 25 4 24 9 15 21-18 21-21 14-21 12-24 12-22 12-25 13-23 16-20 16 11 22 28 6 25 5 28 3 26-1 24-1 30-2"/>
<path d="M12673 8998l-1-1 26-2 28-1 27-3 25-5 26-2"/>
<path d="M12679 9114l 0-1 26-7 27-6 33-6 29-5"/>
<path d="M13065 8805l-1 0 27-5 29-7 27-5 24-7 27-7 29-7 30-5 26-7 30-8 24-4"/>
<path d="M13088 8800l-2 0-21 11-7 26-6 30-5 28-4 28-3 33-3 35-1 25 0 35 0 33 1 34-1 30 0 28-2 28-2 27-5 29-8 26-20-18-14-22-14-20-19-15-23 11-14 21-7 24"/>
<path d="M13230 8943l 0 0 28-5 25 1 27 4 27 6 21 11-17 19-25 10-26 9-24 11 5 23 23 6 25 3 25 3 24 10 14 20-9 26-20 20-18 16-19 15-22 11-27 9-28 0-24-5"/>
<path d="M13659 8641l-2 1-14 23-11 30-6 23-5 30-7 35-5 31-5 31-7 34-10 35-10 34-11 38-12 38-13 39-15 38-15 36-16 36-14 34-14 32-13 30-13 29-12 28-12 25-14 31-14 23-13 21"/>
<path d="M13755 8903l 0-2 23-11 28-1 27 3 24 7 24 8 24 10-4 26-20 16-23 15-21 15-22 15 13 20 27 3 24 4 25 9 24 8 24 10 20 14 6 26-14 20-20 16-23 14-24 12-26 12-24 11-25 7-29 3-24-7-25-15"/>
<path d="M8925 4902l-1 0 29-1 26-4 28-8 26-7 26-7 27-7 28-10 25-9 26-5"/>
<path d="M8944 4921l-2 0-21 14-2 28 2 25 3 28 0 25 0 28-1 31-2 31-1 32-1 34 0 32-1 28 1 24 1 26 4 25-19-19-15-22-26-6-19 15-9 23"/>
<path d="M9072 5042l 0-1 23-13 26-1 26 3 20 14-10 22-24 17-22 14-23 15 26 6 25-1 25 0 25 1 25 7 4 25-13 21-16 19-21 19-23 16-25 13-23 13-27 9-27-1"/>
<path d="M9455 4702l-2 1-20 18-13 29-10 29-7 28-8 31-5 24-5 26-6 27-6 29-7 33-6 32-9 33-7 32-9 29-8 33-8 32-8 32-8 32-8 29-7 26-6 24-8 30-6 24-8 25-9 23"/>
<path d="M9525 4964l 1-1 22-14 27-8 26 3 27 3 27 6 24 5 11 21-14 24-21 21-20 14-21 14-21 13-22 16-22 14 18 17 26 5 24 2 27 0 25 3 26 4 28 6 23 8 8 25-15 23-20 20-18 16-21 15-20 17-23 13-22 11-29 14-24 10-27 8-26 0-24-5"/>
<path d="M6885 6515l 0 0 18-17 28-4 25-8 30-4 26-6 29-8 29-7 27-7 27-6 27-8 26-10 26-10"/>
<path d="M6905 6545l-2 0-23-5-12 26-7 25-5 24-4 26-2 27-3 30-1 30-1 31-1 31 1 31 1 28 1 27 1 26 1 28 0 24-2 25-24 7-19-17-17-17-22-12-16 21 0 24 8 24"/>
<path d="M7042 6609l-2 0-21 16-11 23-8 28-6 31-4 25-3 24-1 26 1 31 4 29 8 24 16 22 22 19 27 4 23-8 22-18 12-24-9-26-17-18-21-13-24-3-23 9 1 24"/>
<path d="M7492 6292l-1-1-15 24-7 24-8 30-9 30-9 34-7 24-7 27-7 26-8 27-8 31-9 29-10 33-9 34-9 34-10 36-9 34-9 33-9 34-7 30-7 29-7 25-8 34-8 31-5 27-7 28-8 25"/>
<path d="M7508 6537l 1-2 22-15 25-3 25-2 28-1 29 2 25 1 24 9-9 23-22 17-22 16-24 15-21 14-21 13-21 13 24 5 25-4 29-3 28 0 28-2 28 1 28 3 25 11 18 19-2 25-10 23-14 20-15 21-17 19-19 18-21 15-23 13-28 11-25 3-28-1-26-10-16-19"/>
<path d="M8211 4679l 0-1-6 24 4 25 8 24 12 22 18 18 22 15 26 9 27-3 24-8 24-10 23-14 19-15"/>
<path d="M6825 2035l-1-2-13-22-24-1-19 17-17 20-18 25-13 24-15 26-12 24-11 25-10 26-8 24-5 24-5 27 4 27 19 17 28 5 27-7 24-12 28-15 30-19 29-19"/>
<path d="M6997 2073l-3 0-27 11-21 16-22 18-19 22-13 24-3 27 9 23 21 12 24 4 26-6 24-9 23-13 22-17 14-20-9-22-23-13-21-12-4-24 21-16 21-18 19-17 19-17 20-19 17-19 18-21 12-24-1-24-21 14 8 24 19 16 23 11 22 10 23 10 26 10 21 12 20 18 10 23-3 24-13 24-18 21-21 19-23 15-25 9-23 6-27 5 1-25 24-18 21-13 24-13 25-13 27-11 25-9"/>
<path d="M7500 2116l 0 0 15-20 16-28 15-27 16-30 16-31 11-23 9-24 10-23 9-24 6-24 6-23 4-25 3-24 2-25 1-25 2-35 1-34 0-25-1-25 1 26 3 25 6 29 7 29 10 29 14 33 14 33 11 24 16 33 16 30 15 30 14 26 13 26 11 22 11 24 10 22"/>
<path d="M7561 1973l-1 0 24-13 22-10 30-10 26-7 28-8"/>
<path d="M7871 1691l 0 0 5 28 5 25 6 28 3 25 3 27 2 28 3 28 3 31 5 28 4 26 6 29 5 27"/>
<path d="M7873 1708l-1-2 15-21 28-9 30-1 27 0 30 0 30 2 27 5 27 8 23 13 4 25-17 25-20 18-22 17-20 16-21 17-18 16 25 6 24-1 27 2 25 4 29 4 25 2 28 6 24 13 3 25-12 23-19 20-19 15-20 16-20 15-21 15-22 14-23 12-28 12-25 8-28 2-25-10"/>
<path d="M8272 1586l 0-2 7-23 23 16 15 25 15 23 16 28 13 21 16 23 16 21 17 21 16 20 16 18 20 23 19 22 20 19 19 18 23 8"/>
<path d="M8536 1491l-2-1-19 18-13 28-9 23-9 26-9 28-11 28-13 31-13 30-13 30-13 30-14 30-13 28-13 25-12 28-7 23"/>
<path d="M8675 1605l 0-1 23-10 26-9 26-6 26-4 23-6 24-4"/>
<path d="M8689 1687l 1 0 25-7 22-9 28-10"/>
<path d="M7455 1957l 0-1-19 20-17 18-17 18-17 18-14 22 23 8 22-11 22-13 25-9 24-1"/>
<path d="M9238 1422l-1-1 27-7 26-3 26-5 30-7 23-5 24-7 25-8 23-9 24-7 29-10 25-10"/>
<path d="M9250 1428l-2 0-24 7-4 29 2 29 1 25 1 29 0 30 0 32 1 32 1 32 1 30 0 29 0 30-2 30-2 30-3 26-3 31-3 26-7 24-26-3-13-25-13-27-16-23-20-16-19 16 16 19"/>
<path d="M9425 1511l-1-1 24-11 26-2 24 1 19 16-17 23-21 19-21 17-19 16-22 15-21 15 27 0 23-6 27-5 28-3 25 1 23 6 21 14 4 27-10 24-17 24-18 21-22 18-25 13-27 12-25 5-26 0-15-23"/>
<path d="M9831 1218l-2 0-10 25-3 30-3 26-5 30-7 34-6 25-6 27-9 27-9 30-10 30-10 31-11 33-10 31-13 35-12 32-12 33-11 32-10 31-10 30-8 27-6 24-7 29-5 30-2 26"/>
<path d="M9960 1410l 2-2 20-12 26-6 25 3 27 6 22 13 6 23-12 22-20 20-21 22-17 17-17 19 22 13 24 7 25 6 28 7 24 6 24 3 24 12 11 23-7 24-12 22-17 22-18 19-21 18-24 12-23 7-28 3-28-3"/>
</svg>
