<svg xmlns="http://www.w3.org/2000/svg" viewBox="148 3042 13587 21472" stroke="black" stroke-width="16" stroke-linecap="round" stroke-linejoin="round" fill="none" data-xena="0 -1 0"><style>@media(prefers-color-scheme:dark){svg{background-color:black;stroke:white;}}</style>
<path d="M6645 3910l 0-1 2 25-2 25-2 26-2 26-1 26 2 25 1 26 4 24"/>
<path d="M6724 3817l-2-1-25-9-26-1-26 4-23 5-25 10-27 15-19 19-22 25-21 27-19 29-16 32-12 32-4 30 2 27 11 23 15 21 19 19 22 16 23 13 24 10 25 9 24 8 29 4 29-2 31-4 29-9 27-10 24-15 22-20 16-22 13-24 7-28 4-29 0-32-6-33-8-31-14-28-15-21-19-16-22-11-23-9-24-5-29-3-25 0-24 8"/>
<path d="M6342 4357l-2 0-23 11-22 18-20 19-18 16-20 21-21 23-25 27-18 17-22 21-23 22-27 22-29 27-29 27-34 29-37 29-37 31-18 16-19 16-19 15-18 16-19 17-19 17-19 16-19 19-19 17-19 18-20 19-20 19-19 20-21 20-20 20-21 20-21 20-21 20-23 20-23 21-22 21-22 21-23 21-23 22-23 21-24 22-21 20-23 21-22 21-23 22-22 21-23 20-21 20-21 19-21 20-20 18-19 18-18 16-34 31-32 28-30 27-27 23-25 21-23 19-24 14-20 15-28 22-23 20-20 17-20 17"/>
<path d="M6909 4403l 0-2 24 16 24 16 22 15 28 19 22 14 24 14 26 15 28 14 31 17 32 19 33 19 34 21 35 22 35 23 37 25 39 25 41 26 21 14 21 13 23 13 23 15 23 13 23 13 24 14 25 13 25 14 26 14 26 14 26 14 28 14 27 14 27 15 27 14 29 14 29 14 29 12 29 14 28 14 29 13 29 13 29 13 28 14 28 13 28 13 28 13 27 13 27 14 26 12 26 13 26 13 25 13 25 14 25 13 23 12 23 13 23 12 22 12 21 12 41 23 37 22 35 24 32 22 29 20 26 18 24 18 19 15 25 21 23 20 17 18"/>
<path d="M4475 5937l 0 0 26-3 23 6 21 11 7 26-15 24-21 20-19 15-22 18-18 16-14 21 24 7 26-5 24-4 27-4 25-7"/>
<path d="M4602 5906l-3-2-24-12-26-6-27 1-25 3-28 8-27 13-21 15-20 17-17 21-18 23-15 27-13 28-6 31 0 30 4 29 9 29 16 24 21 19 24 17 26 11 28 6 31 3 30 0 32-6 32-11 25-14 22-12 20-14 19-17 23-22 19-25 14-27 5-23 1-26-2-27-9-30-13-31-19-27-21-22-25-15-26-10-32-4-31 0-32 4-29 6-22 8"/>
<path d="M8852 5736l 0-1 23-12 27-4 24-1 29-1 26 5 23 10-5 24-21 13-25 12-23 13-21 17 19 17 25 3 26 3 28 9 21 13 0 26-25 17-27 13-23 10-23 6-26 3-24 0-25-9"/>
<path d="M8954 5609l-2-2-22-8-28 0-24 5-25 7-25 13-25 19-19 18-20 22-18 26-15 29-10 32-3 34-1 25 5 36 6 23 15 33 22 29 18 17 20 15 20 15 22 13 23 8 23 8 24 6 23 6 33 7 35-1 35-7 23-9 23-10 21-12 20-14 20-14 18-17 23-26 17-28 13-31 7-34 1-25 0-26-3-27-5-26-6-25-8-24-16-31-21-26-25-21-27-15-29-7-32-4-32 0-30 2-29 5-25 6-23 13"/>
<path d="M4211 6439l 0-1-26 7-21 15-25 20-22 17-26 22-19 16-21 18-22 19-24 22-26 23-27 26-26 29-28 28-30 29-30 33-33 34-17 17-16 18-18 19-17 18-18 18-18 19-17 18-18 19-19 20-18 19-18 18-18 21-16 20-17 18-18 19-18 19-18 19-19 18-18 19-18 17-22 19-19 20-20 19-19 21-20 20-19 20-21 24-21 21-19 21-20 20-20 21-21 21-20 21-20 21-20 19-21 22-21 23-22 24-22 23-23 24-24 25-23 23-26 26-23 25-25 25-24 26-23 26-24 26-24 25-23 26-21 24-22 25-20 22-19 21-19 20-18 19-17 18-30 31-29 29-25 25-23 26-20 23-19 19-23 25-17 17-17 21 17-19"/>
<path d="M2178 8321l-1-1-14 21-13 24-12 21-14 26-10 22-10 28-3 27 5 25 25 11 28 4 26-1 26-2 25-4 23-5 27-10 23-14"/>
<path d="M2265 8459l-2 1-19 16-9 24 2 27 1 27 11 24"/>
<path d="M2299 8245l-3-3-24-17-22-10-26-9-32-5-25 2-29 6-30 10-31 17-29 20-19 17-18 17-16 19-14 21-12 22-9 23-12 34-6 32-2 24 4 25 4 24 8 24 15 31 20 29 18 17 29 20 22 11 25 7 24 6 26 3 26 1 24-1 27-3 26-5 25-8 27-9 24-11 24-14 23-15 22-17 19-19 23-27 16-28 11-31 7-32 0-31-7-30-8-24-10-24-12-25-15-28-16-25-17-24-18-23-21-16-20-15-27-14-28-5-28 3-24 11"/>
<path d="M4573 6637l-1-2 12 25 7 25 11 28 10 23 10 28 12 33 10 23 11 24 12 23 15 22 15 24 18 24 19 25 18 27 19 27 22 26 22 29 23 26 23 29 23 28 22 26 22 29 23 29 23 30 23 32 24 31 24 32 22 32 20 33 21 33 20 34 20 36 19 33 19 33 17 33 18 28 16 32 16 31 16 29 15 31 14 31 13 29 12 31 10 28 11 28 9 27 11 23 10 26 8 26 8 26 6 26 10 35 11 31 14 30 12 27 10 25 11 23 11 21 12 25 12 25 12 25 9 22"/>
<path d="M5381 8559l 0-1 27-3 24-3 25-3 26-4 25-4"/>
<path d="M5381 8567l-2 0-22 10-13 21-1 24 25 6 24-5 28-2 24 3 24 2 25 5 22 12 6 23-15 20-23 19-20 13-28 10-28 6-30 0-28-3-21-14"/>
<path d="M5452 8451l-5-2-27-8-26-1-29 4-25 12-26 18-19 21-19 24-17 27-15 31-10 35-5 24-3 35 2 34 7 31 10 28 14 23 20 20 22 18 25 15 25 11 27 7 27 4 29-2 30-3 32-5 31-9 27-13 23-15 22-19 19-20 17-24 12-24 7-26 2-27-2-28-9-31-13-29-17-31-23-23-26-16-28-15-29-13-30-8-29-7-24-6-26 0-24 11"/>
<path d="M9197 6281l 0-2-16 24-7 24-9 29-7 23-6 25-9 28-9 29-10 31-12 36-12 37-12 40-11 42-12 41-9 41-10 42-9 42-8 42-10 43-9 42-8 42-9 46-8 42-8 44-8 43-8 43-7 44-7 43-7 43-7 41-8 40-7 39-7 40-5 38-6 36-6 35-7 31-7 30-6 31-7 29-7 30-6 28-5 25-6 33-7 33-5 34-5 32-5 30-6 26-5 27-6 27-5 25-6 26-7 27-5 24-7 24-4 24-3 24 16-22"/>
<path d="M8679 8566l-2 0-26 7-16 20-12 26-8 27-4 30-1 24 3 30 7 30 10 23 18 18 21 13 27 6 26-3 21-15 12-22-17-19-22-14-28-5-26 4-22 17-14 23"/>
<path d="M8706 8434l-4-2-28-9-27 0-30 8-25 10-25 14-24 19-22 24-21 28-18 33-11 23-10 25-9 27-8 26-5 29-5 31-1 31 0 31 3 30 4 26 7 24 15 30 19 21 22 21 27 13 34 11 36 2 26 0 26-5 26-3 27-4 26-7 27-10 26-12 25-15 24-15 23-18 20-19 19-21 17-24 14-23 14-24 12-25 9-23 7-24 5-35 0-24-5-25-8-25-12-25-14-24-16-23-19-21-20-19-23-17-24-14-24-14-25-12-23-9-34-10-31-5-25-5-24-4"/>
<path d="M9374 6073l 0 0 24 13 24 9 29 13 24 13 25 14 26 18 28 19 19 15 29 22 20 17 22 17 22 17 23 21 24 21 24 22 24 23 26 23 26 23 29 23 30 25 29 24 30 26 30 24 32 28 32 31 34 29 33 35 17 17 34 32 17 17 18 17 17 17 17 19 35 33 18 18 18 19 17 18 18 18 19 20 20 16 20 18 18 19 20 19 21 18 20 19 21 18 21 18 21 18 21 18 22 19 23 17 21 18 24 18 22 19 22 16 23 18 24 18 23 18 23 18 23 19 23 19 24 20 22 19 24 20 22 20 23 19 22 19 22 20 22 19 22 21 21 19 22 20 21 20 22 19 21 20 20 20 21 19 19 19 19 19 19 19 19 19 18 18 19 18 18 18 18 18 18 16 18 17 17 18 33 33 31 32 28 32 28 29 27 28 25 25 23 27 22 23 21 22 18 19 17 18 21 23 20 23 15 18 18 17-5-24-5-24"/>
<path d="M11584 8373l 1-1 24-9 27-6 24 0 27 2 27 2 25 8 9 25-13 21-12 22-17 24-13 24-10 24-10 22-9 22-9 24-4 25"/>
<path d="M11716 8248l-5-3-23-12-28-9-24-6-31-1-25 2-25 7-27 12-27 18-20 16-20 18-20 22-20 22-18 23-15 27-13 28-9 28-7 31-3 29 0 27 5 28 13 34 19 29 23 25 28 20 30 17 22 10 24 8 23 6 36 6 25 2 26 0 25-2 26-5 25-6 26-7 25-11 25-11 23-13 23-16 20-16 18-16 17-17 17-25 12-30 7-35 2-35-4-33-11-33-14-32-21-29-16-18-20-16-21-14-22-11-31-16-31-12-28-10-26-7-27-2-27 2"/>
<path d="M1996 8899l 1-2-18 25-16 23-19 27-13 21-15 23-18 25-20 27-24 29-23 31-25 34-27 35-25 37-28 37-26 37-30 35-26 37-24 36-23 35-18 37-20 35-19 34-15 36-17 33-17 33-16 34-15 34-16 34-15 36-16 31-19 31-14 30-13 28-10 27-10 26-11 25-11 23-11 33-10 30-10 25-11 21-10 23-12 22"/>
<path d="M1114 10516l-1-2-16-19-26-6-27 0-23 8-23 15-17 18-2 26 15 21 22 15 24 12 23 9 27 11 22 12 16 24 3 28-7 23-12 27-14 26-17 16-23 15-22 13-26 5-26-8-12-22-1-24 7-27 13-27 14-21 16-18 17-19 18-19 21-16 24-19"/>
<path d="M1059 10429l-2-3-22-18-25-12-26-4-25 1-32 9-26 10-28 14-25 20-25 21-22 26-14 21-13 23-12 25-8 26-8 27-4 27 0 29-1 31 4 31 6 31 7 28 13 26 15 23 20 20 20 17 25 14 25 11 27 10 30 9 28 6 28 5 28 2 27-1 26 0 28-4 26-7 26-9 23-12 24-13 22-16 23-17 21-23 18-27 17-27 15-29 11-29 9-26 5-27 2-25-7-34-7-23-11-23-13-24-14-25-17-24-18-25-19-22-19-19-19-16-26-21-27-15-26-11-25-6-28-3"/>
<path d="M2253 9027l-2-1 3 25 8 28 9 30 11 34 9 28 11 30 12 34 11 35 11 36 12 36 14 37 14 37 15 37 14 40 16 38 16 40 19 40 15 41 16 44 18 43 14 42 14 42 13 40 11 40 12 38 10 39 10 38 8 37 9 35 8 37 9 32 8 31 8 31 8 28 7 28 7 28 8 26 10 34 10 30 9 25 12 23 12 26 9 24"/>
<path d="M2790 10676l 0-2 0-27-6-24-15-19-25-4-22 13-17 19-11 21-9 25 0 25 24 13 26-5 23-11 23-17-5 26-4 26-1 30-4 27 0 24 5 26 23 7"/>
<path d="M2805 10550l-2-2-21-14-30-7-30 3-28 8-21 14-19 22-18 23-20 24-16 25-14 31-10 34-4 24-6 35 0 24 1 25 5 34 12 31 18 26 20 22 22 16 21 15 24 13 27 7 32 3 31-3 33-10 32-16 21-12 21-15 21-16 20-21 20-20 16-22 15-23 10-22 10-23 11-32 3-35-3-35-6-23-6-24-16-32-13-22-24-22-28-19-28-13-33-11-34-7-26-4-34-5-32-5-29-3-28-2"/>
<path d="M5346 9127l 0-1-20 20-15 22-17 32-14 27-14 29-15 34-16 34-17 35-18 37-18 39-19 39-18 41-10 23-9 22-11 23-11 23-10 23-10 25-11 26-11 26-11 25-11 26-11 26-10 26-12 25-10 25-10 24-10 23-10 24-10 23-17 42-15 39-12 34-10 31-8 26-9 34-10 32-8 27-9 24"/>
<path d="M4673 10517l-1 0-9 27-4 25-5 28-2 30 1 24 0 24-2 31 0 25 3 25 21 12"/>
<path d="M4817 10575l-2 2-18 21-10 24-8 25-4 26 3 25 11 22 18 22 24 13 25 4 24-9 24-14 21-20 13-21 12-22 9-23 5-27-6-23-15-23-21-20-26-15-28-8-28 2-24 7-23 16"/>
<path d="M4709 10395l-4 0-29 3-26 12-24 20-18 20-19 27-19 29-12 21-11 22-11 25-10 25-7 29-5 31-3 33-3 32 0 30 2 28 5 27 8 25 11 21 15 20 26 24 30 18 33 13 24 5 26 5 27 0 30-3 29-7 33-9 32-12 31-16 32-17 32-22 33-23 29-24 28-26 24-27 22-30 18-31 16-31 13-28 9-28 5-25-1-28-5-26-10-28-14-33-16-31-19-31-20-26-23-26-25-24-25-19-25-18-25-13-23-13-22-10-31-13-28-11-23-11-21-17"/>
<path d="M5510 9092l-1-1 16 23 20 28 18 26 14 21 15 24 15 26 17 27 17 29 17 30 18 29 17 31 18 32 19 33 18 35 18 36 20 35 19 37 21 36 20 35 18 38 19 36 17 37 18 39 16 33 17 33 16 32 16 31 16 31 12 29 13 29 11 26 11 25 11 25 15 31 14 30 13 27 13 26 15 27 15 23 24 6"/>
<path d="M6099 10506l 0-1-5 24-6 29-5 25-2 27-3 29 1 27 6 26 20 14"/>
<path d="M6251 10548l-2 1-14 23-5 24 1 28 3 28 3 26"/>
<path d="M6247 10341l-5-2-24-10-29-5-32 0-25 5-27 9-26 10-27 13-27 18-19 16-18 18-19 20-17 20-17 22-15 23-12 25-11 26-8 26-4 27-2 28 2 27 5 28 8 26 11 23 15 21 17 19 19 16 21 15 24 10 24 8 26 7 26 3 27 3 28-2 30-4 30-7 33-11 32-11 30-14 29-14 25-16 22-18 19-17 16-18 14-21 12-21 14-29 8-31-2-31-5-24-10-24-10-24-13-24-15-25-16-24-18-24-19-22-21-21-21-20-20-16-29-20-28-15-24-12-22-11"/>
<path d="M8490 9186l-1-1-20 17-9 23-12 28-12 25-14 30-13 22-14 26-15 28-16 31-18 33-17 35-17 34-17 33-18 35-16 35-16 36-16 37-15 36-14 35-14 33-12 32-13 31-12 30-11 31-12 28-10 28-10 26-9 25-9 25-9 23-12 30-10 28-9 25-8 30-7 23-10 23"/>
<path d="M7700 10474l 0 0-12 23-8 23-4 27-4 24-5 29-4 29-3 25-5 26-3 25"/>
<path d="M7811 10531l 0-2 23-15 27-2 27 2 27 6 22 12 11 24-5 27-12 25-17 22-17 18-17 19-18 18-7 23 26 6 25-4 28-10 25-11 27-12"/>
<path d="M7993 10341l-6-2-27-6-28-4-28-3-27-2-25 0-25 3-24 7-25 10-25 15-27 22-19 20-19 20-18 23-19 26-17 26-15 30-13 30-11 31-6 32-5 33-2 31 3 30 6 27 9 25 14 23 15 20 18 16 21 15 23 12 26 7 28 7 29 4 30 1 31-2 32-4 33-6 33-8 33-11 32-14 31-18 30-24 28-25 24-25 21-25 17-25 13-27 10-26 5-24-1-35-4-25-9-25-12-26-16-26-18-24-20-24-23-22-24-17-25-14-27-13-25-7-26-7-25-4-24-4-35-1-28 1-28 10-23 10"/>
<path d="M8802 9127l 0-1 20 16 16 27 14 27 11 23 11 25 12 23 14 29 14 29 15 30 18 36 19 31 19 33 20 34 20 33 22 36 22 36 22 34 23 36 23 36 22 35 22 37 19 34 20 34 19 35 17 33 16 30 14 30 14 27 12 26 12 27 13 24 10 22 16 30 12 28 10 23 11 23 17 17"/>
<path d="M9268 10442l-1-1-18 19-10 29-7 24-5 28-5 30-8 26-6 28-1 26"/>
<path d="M9380 10474l 0-2 24-11 26 2 26 9 18 16-5 26-22 18-22 11-25 9 9 23 24 4 25 3 23 9 12 22-13 22-22 16-23 11-28 10-23 6-25 7-25 4-28-1-21-14"/>
<path d="M9442 10282l-3-1-29-1-23 7-28 9-26 13-25 15-22 15-23 17-21 24-21 26-20 31-12 21-10 25-8 25-7 27-2 26-1 27 3 25 7 25 8 25 11 24 13 21 16 19 17 17 20 14 22 16 24 9 26 6 26 7 27 1 28 0 26-1 27-4 28-6 27-8 27-11 26-12 24-16 24-16 21-18 19-21 17-20 13-21 16-30 10-30 4-31-2-25-4-25-8-25-11-25-13-26-15-25-19-24-20-23-21-17-22-15-21-13-34-11-32-8-31-3-25-3-26 3"/>
<path d="M11593 9021l 0 0-11 25-12 29-11 23-12 31-10 25-13 28-14 32-16 36-17 39-17 40-19 45-10 22-11 23-10 24-12 25-10 24-12 26-12 26-11 25-11 25-13 26-11 25-11 26-12 26-11 24-10 22-10 23-10 22-9 23-19 42-15 41-13 39-12 36-10 33-9 31-8 28-7 26-6 25-8 32-9 30-8 26-10 26-12 21"/>
<path d="M10934 10456l 1-1-12 23-9 28-9 30-7 28-6 28-6 25-4 24 4 25"/>
<path d="M11074 10444l-2-1-23 6-20 18-16 20-12 22-6 28 0 30 18 21 26 4 32-2 30-3 25-4 28-6 29-6 26-5 28-11"/>
<path d="M11174 10491l-2 0-19 14-2 28-1 24-6 27-6 24-5 29-3 27-1 25 4 25"/>
<path d="M11132 10330l-6-2-27-6-33-3-34 1-24 4-25 4-25 6-26 8-24 8-24 11-23 13-22 14-21 18-20 18-20 19-18 22-17 22-15 25-13 26-9 28-6 28-4 27 4 25 5 26 7 25 11 24 14 24 16 19 20 17 22 14 23 11 25 11 25 9 26 6 27 5 29 1 31-1 30-1 32-5 32-8 33-10 34-14 32-14 30-16 29-16 27-17 25-19 21-18 18-18 20-28 11-24 3-24-6-28-13-30-13-24-16-23-19-24-21-23-22-22-24-18-23-19-25-14-24-13-24-11-23-9-29-12-26-8-25-8"/>
<path d="M12062 8758l-2 0-25 5-3 26 21 21 19 21 18 19 20 21 24 23 18 17 20 19 23 20 24 20 26 23 28 25 31 27 31 28 33 30 34 31 34 31 18 17 18 18 19 17 18 17 19 19 19 17 18 18 19 18 18 18 19 16 18 18 19 17 36 33 19 17 18 16 19 18 18 17 18 17 17 18 19 17 18 18 16 19 16 19 16 18 30 35 28 36 26 33 25 33 22 32 20 30 18 28 15 26 14 21 12 22 11 24 16 32 11 29 8 25 9 28 9 25 7 25 12 22"/>
<path d="M13173 10355l-1 1-17 22-17 22-13 21-13 26-9 23-9 28-8 24-7 26"/>
<path d="M13307 10350l-1-2 27 6 29 2 27 2 28 0"/>
<path d="M13354 10366l-3 0-24 6-21 10-19 15-18 21-10 22 15 23 25 3 26-2 27-3 26-1 26 4 24 8 9 24-19 22-21 15-21 13-25 11-28 9-31 8-29 4-27 1-28-4-22-15"/>
<path d="M13479 10192l-4-3-23-12-28-4-32-1-36 3-25 5-26 7-27 11-28 11-28 13-26 14-26 14-27 18-25 20-25 22-23 24-21 27-18 29-13 31-10 33-6 33-5 34 1 32 5 31 9 26 14 26 15 23 18 20 22 18 22 15 27 13 28 11 32 6 31 4 33 2 33 0 31-1 31-4 32-6 30-10 29-10 27-15 26-15 24-17 22-18 20-16 17-18 15-19 13-21 11-22 10-36 3-27 1-25-2-28-4-26-8-27-10-24-12-21-16-19-18-15-22-15-22-13-25-12-25-12-25-9-26-7-24-6-34-8-32-6-28-3"/>
<path d="M1069 11241l-1-1-19 15-10 25-7 28-11 29-6 24-7 30-8 30-7 35-12 38-13 39-16 44-9 21-8 24-8 24-8 24-8 25-9 25-9 25-8 26-8 25-7 26-8 24-7 26-6 25-6 25-3 25-7 25-6 25-6 25-5 26-6 24-5 25-7 26-6 23-11 45-8 39-6 37-8 31-7 27-6 26-9 31-7 24-10 22-7 24"/>
<path d="M473 12657l 0 0-13 22-7 26-9 30-7 26-9 27-5 26-6 25-4 30 4 24 14 22"/>
<path d="M613 12696l-2 2-21 20-15 20-14 25-10 27-8 28-6 27-3 27 3 25 8 26 18 22 27 11 25 3 24-6 19-15 16-22 6-25-15-22-29-7-25 1-25 3-26 5-21 14"/>
<path d="M571 12571l-6 0-25 2-31 7-32 12-32 15-22 12-22 13-18 16-23 18-19 19-18 20-19 21-19 31-11 23-7 24-9 26-4 26-3 26 1 27 4 25 6 23 11 22 18 28 24 23 28 16 33 8 27 3 28-1 32-1 33-6 37-9 34-11 34-15 34-18 30-21 32-25 29-25 26-23 21-25 19-21 15-21 21-25 10-26 3-25-6-25-13-23-18-24-22-25-19-18-21-16-20-18-22-16-23-17-23-15-23-14-24-12-24-10-32-11-28-8-28-2-25 7"/>
<path d="M1189 11175l-1-1 12 24 14 24 12 22 12 27 9 24 9 24 10 25 12 28 14 29 12 33 16 36 16 38 17 40 17 41 17 41 19 41 17 43 18 40 18 39 18 40 16 35 18 36 16 34 17 35 18 37 17 34 17 36 14 33 17 32 15 33 13 31 11 30 11 31 10 30 10 29 12 27 8 23 10 31 7 26 9 26 9 23"/>
<path d="M1643 12757l-1 0-7 26 1 29 2 24 4 30 5 26 15 19"/>
<path d="M1753 12730l-1 0 27-8 24-6 26-6 24-5 2 25-11 28-10 27-11 28-7 23-10 22-3 24"/>
<path d="M1832 12590l-5-1-28 1-25 5-24 9-24 11-24 16-21 14-24 17-23 19-21 24-15 20-20 29-12 22-10 23-9 23-7 35 3 33 10 29 19 25 21 22 24 14 29 12 35 9 26 4 27 5 30 1 29 1 29-1 29-4 29-3 27-4 35-6 28-8 22-12 17-18 15-24 10-26 7-27-2-27-8-27-12-27-18-27-27-26-16-18-18-18-20-18-19-16-27-21-22-19-26-15-28-11-25-8-27 3"/>
<path d="M2871 11266l-3 1-22 13-7 28-4 25-5 31-2 35-5 28-3 31-6 34-8 36-6 39-8 42-7 45-9 44-8 44-8 46-11 45-5 46-8 44-6 44-1 43-5 41-3 41-3 38-4 39-2 35-2 33 0 30-3 28 0 25-2 31 2 26 9 23 23-9"/>
<path d="M2613 12637l-2-1-13 23-2 26 2 25 0 28 1 25 3 27"/>
<path d="M2782 12592l-3 0-25 1-28 1-24 11-18 18-12 26-4 26 7 24 20 14 24 14 21 11 25 12 20 17 10 22 1 26-6 23-21 15-26 1-20-14-16-26-8-24-3-24 5-24 11-23 13-22 18-25 22-23 19-18 22-17"/>
<path d="M2681 12537l-5-2-27-5-30 1-28 4-30 8-25 8-24 13-21 15-19 19-17 25-17 29-14 30-11 31-5 34 0 33 12 33 13 32 13 25 21 24 24 19 31 14 34 8 25 6 36 4 25 0 27 1 28-2 28-5 29-4 25-9 28-9 29-8 28-14 31-15 25-19 25-23 19-21 20-20 16-20 21-30 10-27 1-25-8-25-15-28-13-22-16-19-17-20-21-21-22-19-23-18-25-17-26-15-26-15-25-13-26-12-24-9-34-7-29-3-31 1-26 2-24 8"/>
<path d="M3016 11173l 0-1 13 22 17 20 17 22 20 26 14 21 17 21 17 23 18 26 17 27 19 28 20 29 22 31 23 31 24 32 25 37 24 35 27 39 27 38 27 38 29 38 25 40 27 37 13 20 28 37 23 36 25 37 24 36 20 32 21 31 19 26 18 27 18 26 16 25 14 24 20 29 17 24 17 24 14 22"/>
<path d="M3687 12481l 1 1-3 24-2 27-4 27-3 26-3 28-4 25-4 25-3 30 1 28 6 25 20 16"/>
<path d="M3926 12536l-2-2-14-23-23-11-25-3-25 6-24 14-18 19-14 20-3 25 25 7 25-7 25-10 21-12 23-11-16 21-11 26-5 26-3 24 0 27 2 25 20 12"/>
<path d="M3887 12370l-5-2-30-5-26-1-28 1-27 5-29 9-32 14-23 10-29 19-33 20-27 24-16 17-17 21-10 22-15 22-14 26-12 26-9 26-6 24-1 25 3 24 6 32 11 31 16 24 24 21 30 19 23 10 25 5 30 11 27 6 29 6 29 6 25 0 27 3 26-1 26-2 26-3 26-5 34-9 31-17 20-14 21-16 19-16 17-18 16-19 13-20 13-22 12-33 7-33-2-34-8-35-12-34-12-22-14-22-18-22-19-22-20-21-20-21-20-18-20-15-20-16-29-16-26-10-25-2-27 1-23 11-10 22"/>
<path d="M4903 11195l-1-2-15 23-7 33-6 30-4 24-5 29-4 33-7 35-6 39-8 42-9 42-7 45-9 47-9 45-6 48-8 46-7 42-7 44-9 41-6 40-6 36-5 35-4 31-4 29-4 29-4 27-3 24-5 32-8 32-7 27-5 26-6 25-3 25 12 21"/>
<path d="M4581 12508l 0-1 21-11 27 3 22 12 4 24-13 22-17 23-17 20-19 21-17 21-20 20-17 18 11 21 24-7 28-8 22-11 24-12"/>
<path d="M4776 12539l-2 1-24 5-20 14-14 23-4 25 1 26 11 26 19 19 25 14 29 2 24-7 23-13 19-22 14-22 6-25-14-21-23-11-28-6-25 1-28 4-25 10"/>
<path d="M4746 12369l-3-2-25-5-25 2-22 11-26 16-19 15-22 19-22 20-23 23-21 25-18 28-18 30-12 22-11 24-10 24-8 25-5 25-4 25 0 25 3 24 5 25 13 31 17 30 21 23 24 17 30 13 30 9 33 8 34 0 24 0 24-3 34-5 24-7 23-11 25-11 22-12 21-13 20-14 20-20 18-21 18-23 15-25 15-24 12-24 9-27 6-23 1-24-5-33-13-34-12-23-16-25-18-26-18-22-19-21-20-19-20-15-23-15-22-14-23-9-33-12-31-5-27-2-30 0-26 7-15 18"/>
<path d="M5037 11119l-1-2 9 25 13 30 14 29 11 22 13 21 15 23 15 25 16 27 16 28 18 30 19 31 17 29 17 32 16 32 17 34 18 36 18 37 19 37 21 38 20 37 21 37 21 39 22 37 22 40 24 40 23 39 24 40 22 37 23 37 22 37 22 36 22 34 21 34 19 29 19 30 16 29 17 29 14 30 12 28 12 26 10 25 9 27 10 23 11 30 8 26 9 27 9 23"/>
<path d="M5598 12785l-1-1 18-17 24-6 26-5 25 8 13 20-7 25-17 20-20 20-19 20-20 16-22 19-20 19-5 23 22 15 24 0 25-6 27-9 29-10 28-12"/>
<path d="M5833 12783l-2-1-12 22-3 25 1 28 1 28 1 26 4 26 12 22"/>
<path d="M5896 12724l-3-4-20-21-23-8-29-3-25 0-28 3-23 6-27 9-29 10-31 13-31 12-31 16-29 16-28 20-25 22-22 25-18 26-14 26-10 27-4 27 2 26 8 28 14 27 18 23 22 19 25 16 30 12 34 12 25 8 27 6 28 3 28 0 29 1 28 0 27-2 26-2 25-7 24-8 25-6 22-12 23-11 21-13 18-16 22-22 16-24 12-26 5-23-3-31-8-27-12-25-15-30-18-30-20-28-22-25-23-20-24-17-28-14-26-4-25 5-25 6-24 17-15 22"/>
<path d="M1883 14876l-1-1 9-24 20-15 27-9 23-8 27-7 27-6 27 4 26 4 23 12 16 23 0 25-7 24-12 26-13 21-14 20-18 20-21 22-19 22-21 24-18 21-19 19-20 16-18 20-19 20-20 21-17 17 24 7 25-10 27-10 29-8 29-3 24-1 26 1"/>
<path d="M2272 14843l 0-2 8 25 2 27 1 30 3 25 1 25 2 27 3 29 3 26 6 31 1 26 2 25 4 27 1 26 5 24"/>
<path d="M1965 15687l-1-1-13 21-6 24-9 28-10 29-13 34-6 25-8 27-7 26-6 24-10 32-9 28-9 26-9 29-5 24"/>
<path d="M2112 15799l-2 0-8 23-4 24-4 32-1 32 2 28 4 29 7 27 11 23 15 21 20 21 24 13 30 0 29-8 20-16 24-20 22-27 21-26 16-29 12-31 7-28 1-25-5-31-7-24-16-25-23-22-25-19-25-13-26-7-28-2-25 4-24 10-23 18-18 23-13 21"/>
<path d="M2583 15876l 0 0 23-8 24-3 26-3 24-3 24 1 26 5 25 2 26-1 26-4 28 0 25 5"/>
<path d="M2832 15819l-1 0 27-4 24 1 25 2 26 3 23 9 2 25-18 18-21 18-22 19-20 17-18 16"/>
<path d="M3173 15697l-2 0 23-10 26-11 23-12 26-10 25-10 22-11"/>
<path d="M3214 15701l-2 1-15 19-8 27-8 25-2 26 5 25 6 23 16 20 30 2 26-6 26-11 24-8 24-7 29-7 25-3 25-4 26-2 24 6 8 25-5 24-12 28-10 23-16 21-21 17-22 15-24 17-28 14-24 6-31 5-25 4-31 3-24 0-27-5"/>
<path d="M3737 15806l 0 0 24 4 25 1 27 0 27-1 28-5 27 3 28-2 26-4 25-2 25-4 26-5 28-5"/>
<path d="M3972 15711l 0 0 23 14 25 8 25 5 26 6 27 11 22 12 19 15-11 24-19 15-23 13-25 12-26 10-23 11-20 16"/>
<path d="M4342 15672l 2-1 25-9 29 2 28 6 25 10 24 11 22 10 24 12 19 15 10 24-9 24-18 19-20 19-25 16-21 12-23 13-20 16-23 17-19 17-17 18 23 16 24 0 25-5 25-1 31-2 31-4 31-1 30 3 27 4 24 10"/>
<path d="M4881 15835l 1-2 26-6 28 0 28 5 26 3 27 5 30 3 24 1 26 1 26-1 28-1 26-1 24-2 29-4 27-4 23-6"/>
<path d="M5215 15745l 0 0 26 8 27 2 28 4 27 6 26 8 23 10 12 23-10 25-17 22-22 18-22 18-22 13"/>
<path d="M5652 15637l 0 0 2 24 1 27 3 25 3 29 5 31 3 29 0 24 2 25 0 25-3 24-2 31-3 27-4 28-4 27 2 25"/>
<path d="M1823 16779l-2-2-12-21 16-22 18-17 25-16 26-16 24-11 24-9 27-6 25 1 27 2 25 7 17 18-4 25-13 24-17 19-22 24-22 25-16 18-16 18-16 18-17 19-18 19-16 18-21 24-21 25-16 21-14 21 10 22 27-1 26-6 31-10 30-12 31-11 31-13 23-8 24-10 25-9 28-9 25-8 24-9 23-10 22-10 31-14 26-18"/>
<path d="M2334 16788l 1-4 5-26-9-24-24-7-27 15-19 20-16 26-16 27-9 22-6 24 0 25 9 23 17 17 25 6 28-4 26-9 28-17 25-16 21-16 17-18 16-22 12-23-1-29-16-26-20-18-24-10-23-6-25 1-23 8-25 13-20 13-22 22"/>
<path d="M2516 16991l 0-1-12 25-11 23-17 26-18 27-15 20"/>
<path d="M2977 16657l 0-1-19 18-12 23-11 23-14 24-13 26-13 27-10 23-10 22-12 28"/>
<path d="M3058 16762l-1 0-9 23-4 25 2 26 7 24 16 23 19 18 25 12 29 6 27-5 27-10 23-10 21-15 21-17 16-19 11-26 3-28-4-28-15-26-22-21-22-21-25-17-24-13-25-8-26 1-22 14-15 24-14 28"/>
<path d="M3524 16726l 0 0 24-9 29-3 28 1 24-2 30-4 31-4 30-5 24-5 33-6 24-5 31-5 26-5"/>
<path d="M3827 16618l-1-1 27-4 26 3 28 5 24 5 23 6 24 6 25 9-4 26-21 16-20 13-23 12-23 17-24 16-25 15-19 15"/>
<path d="M4282 16446l 0 0 27 7 25-5 28-3 26-5 24-7"/>
<path d="M4300 16420l-3 1-23 17-17 23-13 23-6 24-5 26 2 26 8 24 21 16 24 3 32-6 26-10 29-12 28-8 27-6 24-4 28 2 23 10 15 23-6 26-16 21-22 22-18 17-19 19-22 18-21 16-24 14-23 12-26 9-28 5-25 1-18-17"/>
<path d="M4656 16625l-1 0 22 10 27 7 28 6 25 2 28 1 29-3 28-3"/>
<path d="M4899 16536l 0 0 25 11 26 5 25 5 25 7 22 11-13 26-25 16-23 15-21 14-24 13-25 13-25 17-23 17-20 17"/>
<path d="M5287 16450l 1-1 26-4 25-2 27 1 29 2 26 6 27 7 25 12 20 20 6 24-6 24-16 22-20 19-25 18-28 19-29 19-30 21-30 17-30 19-25 18-22 16-20 21-15 20 1 24 28 1 28-4 29-4 28-8 31-7 31-9"/>
<path d="M5595 16763l-1 0-14 20-14 20-10 25-16 22-18 18-22 17"/>
<path d="M5744 16623l-1-1"/>
<path d="M5580 16683l 0 0 24-1 26 2 28-1 28 1 27-2 27-2 29-6 25-2 27-4 24-5 24 3"/>
<path d="M5806 16586l 0-1 24 2 28 2 28 5 28 1 29 0 27 3 24 3 23 12-13 22-25 16-25 13-28 10-27 10-26 13-24 12-23 14"/>
<path d="M6306 16482l-1-1 1 29 0 24-2 31-4 27-6 29-8 29-7 30-6 27-6 31-7 28-8 29-7 26-9 25"/>
<path d="M7585 16471l-3 2-25 20-19 20-20 24-22 26-13 21-13 20-13 22-11 22-10 22-9 24-8 24-7 24-5 24-5 25-4 25-3 25-2 24-2 35 1 34 1 34 3 32 5 28 8 24 13 23 24 16"/>
<path d="M7621 16792l 0 0 5 26 9 26 5 28-1 25-12 21-23-10 0-28 6-27 11-25 15-22 21-14 25-12 25-7"/>
<path d="M7859 16789l-2 2-10 26-5 27-1 28 5 27 6 23"/>
<path d="M8100 16796l-1-1-6-24"/>
<path d="M7803 16627l 0 0"/>
<path d="M8062 16785l-1-2-17-20-27 0-24 16-19 25-13 20-16 24-9 22-6 27 11 24 27-4 22-11 17-17 18-18 16-23 10-24 2-25-13 23-8 24-3 29-1 30 3 28 4 25 6 25 7 29 6 28 7 31 5 30 4 32 0 29-1 26-5 28-9 26-10 28-15 25-15 21-21 21-22 17-24 7-25-3-26-13-20-17-17-21-16-27-12-31-10-35-5-25-2-28 0-26 2-29"/>
<path d="M8169 16574l-1 1-6 29 0 28 1 25 1 28 0 31 0 34-3 33-5 31-5 32-5 29-6 27-4 26 22-22 16-24 17-25 17-27 16-22 19-25 19-17 23 10-1 27-4 30-5 30-5 25-3 25-3 25 6 25 25-13"/>
<path d="M8478 16677l-2 0-18 20-8 28-6 27-5 30-3 31-4 24-3 25-2 26-1 31 2 26 7 24 14 19 23 12 28-4 24-18"/>
<path d="M8327 16852l-4-2 30-2 26-2 29-2 30-5 31-5 31-7 31-9 28-11"/>
<path d="M8573 16517l 1 2 14 19 17 21 13 21 16 21 15 26 16 24 13 27 11 27 8 29 6 29 3 29 2 30-2 31-7 30-7 29-14 28-16 28-13 20-21 28-26 24-28 18"/>
<path d="M7768 15593l 0-2-25 8-14 27-16 28-13 25-17 31-12 23-14 26-14 31-14 29-16 32-13 31-15 31-12 33-13 33-11 33-8 29-7 28-4 26-1 33 3 27 12 26 19 16 24 11"/>
<path d="M7788 16120l-2 0 27-15 23-17 29-19 23-16 23-19 22-19 22-21 21-20 19-20 16-21 16-19 18-30 13-28 8-31 4-32 0-30-3-25-7-23-24 6-16 21-15 23-16 28-15 32-11 23-9 24-9 25-9 25-9 27-6 28-7 26-6 27-5 24-4 34 0 31 3 27 10 29 14 20 22 17 29 3"/>
<path d="M8109 16118l 0 0 27-6 27-11 23-10 22-9 21-13 13-21-18-18-25-4-24 9-19 15-14 23-8 22 2 25 26 12 29 1 29-7 27-10 27-13 30-15 20-15 31-19 21-12 28-19 26-23 21-25 19-24 14-25 10-26 7-28 6-28 4-28-9-24-23 5-18 17-16 21-15 25-13 29-10 29-6 24-4 27-3 32-2 31 0 28 0 28 0 29 0 30-1 26-1 24-4 28-7 23-16 21-24 9"/>
<path d="M8264 16050l 0 0 23 8 26 3 31-1 28-3 31-5 31-6"/>
<path d="M8597 15893l-2 2-18 19-14 26-8 27-6 32-4 26-2 27-2 28 0 27-1 25 1 26 2 33 6 26 11 26 24 11 24-7 24-18"/>
<path d="M8520 16062l-1 1 28 1 31-9 27-8 27-12"/>
<path d="M8805 15827l 0 0 17 19 16 18 21 21 18 18 20 22 19 21 18 21 18 25 16 27 13 28 10 28 6 26 4 27-1 24-4 26-9 25-13 25-15 23-18 21-19 19-20 15-22 17-23 12-23 9-30 9-30 6"/>
<path d="M6719 19378l-1-1-1 27 1 26 3 29 1 24 1 25 0 26-2 25-4 24"/>
<path d="M6755 19298l-3-2-28-3-27 5-23 11-24 16-17 17-17 21-18 23-16 28-14 30-6 25-5 27-3 31 0 30 0 29 4 27 8 34 16 32 19 25 24 20 26 15 29 11 31 4 33-2 34-9 25-12 25-13 24-14 23-17 21-17 19-21 17-19 15-21 12-21 13-30 8-34 1-25-1-24-5-26-6-28-10-27-11-28-13-27-16-20-17-23-18-20-18-17-28-21-28-13-29-5-30 1-27 5-26 11-21 16-17 20"/>
<path d="M6393 19867l 0-2-25 9-20 24-19 24-22 26-16 22-17 23-20 27-20 28-23 28-24 30-27 30-30 32-32 35-18 18-18 18-18 20-20 19-18 21-20 22-20 22-21 22-22 23-21 24-21 24-21 24-22 24-21 25-21 24-20 23-20 24-19 25-19 22-19 22-18 21-17 20-18 20-16 20-16 19-27 35-26 33-22 29-19 26-18 23-15 19-17 22-13 21"/>
<path d="M5107 21180l 1-2 22-15 27-8 23-5 25-3 25 3 2 25-11 22-13 22-15 22-17 21-19 19-17 18-23 20-17 19-12 22-5 23 24 13 28-3 25-5 28-8 28-14 27-13 22-12"/>
<path d="M5228 21048l-4-1-27 1-25 5-27 6-26 9-28 14-28 17-27 23-19 18-18 20-19 24-18 25-16 25-14 28-11 28-10 28-9 26-6 27-4 27 0 26 2 28 5 27 8 25 10 23 12 22 16 18 26 23 31 17 31 14 35 9 28 4 27 1 28-2 27-3 26-10 26-10 28-13 30-18 28-20 29-21 27-26 25-25 24-27 21-26 17-27 14-25 10-22 8-29-4-33-7-24-11-24-15-26-16-26-20-27-20-25-22-22-22-18-22-15-22-13-34-10-31-5-32 1-30 2-30 5-26 9-29 10"/>
<path d="M6973 19916l-1 0 22 15 20 18 27 26 21 22 22 25 22 27 24 29 25 30 26 34 26 35 29 37 31 37 16 19 16 21 19 18 19 19 18 19 21 18 20 19 21 19 22 19 23 17 23 19 23 20 25 20 23 20 24 21 25 22 24 22 23 19 22 21 23 22 22 21 22 22 20 23 21 21 20 22 19 23 17 24 17 23 18 24 16 24 16 23 14 25 14 23 14 24 13 23 11 23 12 23 11 23 21 42 20 40 19 39 17 39 17 36 16 33 15 31 14 26 12 25 13 22 16 29 13 23 13 20-2-29"/>
<path d="M8207 21551l 1-1 23-15 29-4 25-7 29 0 24 4 2 25-24 19-23 17-23 14-22 10-24 13 24 12 28-2 28 4 27 5 24 8 18 17-7 26-19 22-25 16-24 12-27 13-28 9-25 1-26-2"/>
<path d="M8276 21417l-5-1-31-2-26 3-28 10-27 12-26 15-23 15-20 19-15 18-16 28-9 29-7 31-5 35-1 25 2 26 4 25 6 27 8 25 11 25 12 25 13 22 17 21 18 19 20 16 21 14 23 12 23 9 25 7 25 5 26 2 27-3 26-5 27-7 25-10 25-9 25-14 24-17 23-20 23-21 21-22 18-22 16-25 13-25 9-24 6-24 5-35-1-26-4-27-6-27-11-29-14-29-17-29-21-25-23-24-25-21-26-17-26-16-28-14-27-11-28-8-28-4-29 0-28 2-28 7-26 7-25 10-24 10-29 14-24 17"/>
<path d="M4872 21796l-1 1-23 12-20 20-19 21-16 19-19 21-23 24-24 29-28 29-31 35-32 34-17 19-35 37-17 19-18 20-18 20-18 20-17 20-19 20-19 23-17 22-20 20-18 22-18 22-18 22-18 22-17 22-17 22-17 22-17 23-16 22-16 22-17 21-17 24-16 21-17 20-17 21-17 21-17 20-16 22-16 20-15 19-16 20-14 19-26 37-27 37-25 32-23 31-23 31-18 28-16 27-14 21-19 27-17 27-14 21"/>
<path d="M3500 23237l-1 0-10 26-9 29-10 28-9 28-9 28-7 23-6 24-4 27-1 26 16 19 27 9 26-2 29-6 23-5 24-9 26-9 21-13"/>
<path d="M3556 23345l-2 2-14 25-5 28 0 25 0 26 2 30 4 31 5 31 7 31 5 29 8 25"/>
<path d="M3560 23155l-5-2-25-1-28 7-25 10-25 14-23 17-23 23-22 24-18 29-12 22-10 24-10 28-10 28-7 33-8 36-5 37-4 38-3 37 0 36 3 36 5 33 7 32 9 29 11 26 11 22 16 20 24 22 28 19 31 15 33 4 27 1 25-2 25-8 29-7 27-12 28-14 29-18 28-21 29-25 27-30 27-30 24-32 22-33 21-33 15-32 13-30 8-30 3-27 1-28-7-29-12-28-15-29-23-31-23-31-26-35-29-34-30-30-31-28-29-24-28-20-24-16-23-11-28-10-25-1-27 10-18 16"/>
<path d="M5322 21866l 0-1 14 22 8 23 11 29 9 23 9 25 10 24 12 25 14 25 18 26 16 27 18 26 18 30 17 31 19 32 20 37 20 34 22 33 21 33 22 31 20 33 20 33 19 32 17 30 18 29 15 28 14 26 15 25 12 25 12 24 11 23 9 23 14 32 12 28 9 22 10 26 5 24"/>
<path d="M5778 23209l 2-2 21-12 21-12 21-12 21-14 23-15"/>
<path d="M5751 23218l-2 2-21 17-15 22-10 24 5 25 23 10 25-2 26-6 26-7 28-9 27-9 29-1 25 1 16 21-12 25-17 26-17 19-18 21-20 20-22 18-22 15-22 13-27 10-28 3-23-9"/>
<path d="M5756 23034l-5 0-28 2-24 11-26 14-26 14-26 20-23 22-23 26-18 28-15 31-9 24-7 28-6 30-3 33 0 34 2 37 4 41 7 37 9 38 13 35 14 32 18 31 21 28 21 21 25 18 25 14 27 9 28 6 30 2 31-4 31-6 33-12 33-18 31-21 32-25 31-26 28-26 27-27 23-25 21-26 16-24 12-26 7-24 3-24-2-35-11-34-12-25-16-27-19-30-21-28-24-28-24-28-26-22-26-20-28-17-27-12-28-9-29-7-28-3-28 0-27 4-25 5-34 13-29 13-23 14"/>
<path d="M8285 22140l 0-2-17 23-16 31-11 24-13 28-13 30-13 33-13 34-15 37-13 36-15 38-14 40-15 40-15 41-16 43-15 39-15 39-15 37-15 33-14 33-13 32-12 30-11 29-11 27-9 25-8 23-10 28-7 29"/>
<path d="M7864 23304l-1 1-14 20-12 24-8 27-4 29-2 29 1 27 6 26 14 21 25 3 26-9 20-15 18-17-5-26-28-8-27-1-24 2-23 8-7 25"/>
<path d="M7842 23171l-5 0-25 2-28 7-27 16-20 15-18 18-19 21-16 23-15 29-12 32-7 25-5 28-4 30-2 33-1 35 0 34 2 34 3 35 5 31 8 29 10 29 12 22 22 28 26 20 30 15 34 7 36 0 25-6 25-10 26-17 25-19 26-22 24-26 25-27 23-28 22-29 18-28 15-29 12-27 8-26 3-25 0-25-4-25-7-25-10-24-13-25-16-26-19-24-22-25-23-23-24-22-24-18-24-15-25-13-25-9-25-7-35-5-34 2-31 7-26 11-25 14"/>
<path d="M8684 22015l-2-1 13 27 22 25 22 24 15 19 18 23 19 25 19 27 24 30 24 32 26 32 28 33 30 33 33 35 35 34 18 16 19 17 19 17 19 16 19 15 37 31 19 16 20 17 20 17 19 16 20 18 21 16 20 17 21 17 19 17 19 17 20 17 19 18 17 18 18 19 17 17 33 34 32 33 29 32 26 33 24 33 21 31 20 28 17 26 16 26 13 23 19 30 14 25 13 22 14 20"/>
<path d="M9684 23471l 2-1 23-10 24-8 25-11 24-8 13 24-10 27-9 27-6 24-8 27-8 27-8 28-6 26-2 24"/>
<path d="M9784 23315l-4-2-29-6-29-1-25 7-24 9-26 13-24 14-23 19-22 23-22 26-13 22-12 24-11 26-9 31-7 31-6 34-3 34-2 35 1 34 4 33 7 33 8 28 13 25 15 23 17 20 19 16 21 15 23 12 24 9 26 6 27 4 26-2 27-3 28-6 27-10 27-10 27-15 25-16 25-18 22-21 21-22 21-23 18-25 15-25 14-25 11-25 7-25 6-27 1-28-1-28-6-29-9-30-12-30-15-31-18-28-18-26-21-21-22-18-21-14-23-11-23-9-25-6-25-1-27 0-25 9-25 6-33 11-30 8-25 13-20 16-20 18"/>
<path d="M3478 24088l 0 0-9 23-4 25 1 26-3 25 1 25 0 26 2 24 2 24-1 25"/>
<path d="M5851 23915l-1-3-13-23-25-5-19 17-14 22-12 26-13 30-11 34-6 24-6 35-5 26-2 24-2 27 0 26 2 35 5 33 9 26 16 22 24 16 24 5 24-5 24-13 21-18 14-22 11-26 3-29-9-24-21-18-26-13-23-6-27 2-23 12-25 15-20 20"/>
<path d="M7476 24138l 0-1 27-6 27-6 28-4 24-3 24-8 26 0"/>
<path d="M7759 24007l-1 0-6 25 1 30 1 27 0 25-1 26-2 27-3 28-6 29-3 24"/>
<path d="M7951 23976l-1-1-18 21-13 24-10 23-8 24-7 24-5 25-2 24 6 27 22 10 28-4 27-11 23-9 25-10 24-12 24-15 20-14"/>
<path d="M7974 24086l-2 2-13 24-8 27-2 26 1 28 4 26 7 25 7 25 10 23"/>
<path d="M9762 24102l 0 0-14 22-9 28-7 26-5 29-4 31-2 31-1 27-2 29-1 29-3 29-4 29"/>
<path d="M5754 21488l-1-1-15 21-6 23-5 29-3 32-1 32 1 30 3 29 4 26 3 27 4 25"/>
<path d="M8876 21815l-1-1 25-9 24-7 24-9 25-11 23-11"/>
<path d="M9177 21573l-1 0-1 27 0 27 2 25 1 26 1 29 0 27-4 26-2 25"/>
<path d="M9346 21568l-1-1-13 24-13 25-11 22-10 25-7 25-2 25 9 22 27-1 23-8 25-13 25-15 24-12 25-7 25-6"/>
<path d="M9435 21593l-2 0-16 18 0 25 3 29 4 26 5 27 6 23 8 26 6 24 4 24"/>
<path d="M546 10177l 0-2 18-16 25-7 25 0-1 25-15 20-18 19-20 21-10 22-6 24 26-1 24-5 25-11 23-6"/>
<path d="M1649 8041l-1 0-23 14-13 22-10 22-10 25-5 26 4 26 19 16 24 1 27-7 24-10 25-12 22-13"/>
<path d="M1695 8104l-1 0-5 25 0 24 1 25 0 27 0 29 4 27"/>
<path d="M3963 5622l 2-2 14-21 15-19 8-22-13-22-27-6-25 1-23 5-24 8-26 12-19 18 8 24 27 15 25 4 28 3 29 2 30 2 26 2 27 5 23 12 14 21-1 24-12 24-17 21-22 20-24 18-23 13-26 6-26-8-13-21-6-28-3-26 2-29 7-29 9-29 14-29 19-27 22-25 23-24 25-23 24-21"/>
<path d="M6327 3308l-1-1-21 18-13 20-13 26-11 22-11 25-11 26-9 26-8 26-5 23-5 29 3 28"/>
<path d="M6481 3300l-1 0-23 17-16 19-18 26-12 23-10 25-9 26-7 25-5 31 0 25 16 23 26 6 24-4 27-12 22-13 20-19 1-24-22-12-24-5-27-2-25 0-27 5"/>
<path d="M3635 5919l-1-1 9-23 22-20 18-17 26-22 20-16 22-21 25-21 28-23 29-25 35-29 34-30 34-30 36-30 34-29 36-29 34-27 32-27 32-25 30-22 29-22 25-20 24-17 22-17 20-13 27-16 25-16 22-10"/>
<path d="M6007 3645l 1-2 17-24 23-16 32-19 25-17 29-18 32-19 33-20 34-19 38-19 37-19 39-19 39-21 41-22 39-22 39-22 41-22 38-22 37-22 34-20 32-20 30-19 28-18 28-16 25-14 21-13 28-16"/>
<path d="M12276 8157l 0-1 23-13 29-9 24-4 25 0 28 5 24 7 15 20-16 24-19 21-19 16-20 14-21 15-21 12-22 16-16 18 23 11 29-9 23-6 26-4 25-3 24-4"/>
<path d="M9616 5460l-1-1-11 22-9 24-13 28-11 21-14 23-16 27-13 23-7 25 13 21 28 5 28-5 25-7 26-9 24-8 24-8 29-9 25-7 24-7"/>
<path d="M9684 5557l 0 1 5 28-2 24-1 24-3 27-2 30-1 31-1 34"/>
<path d="M9125 12604l 1-2 18 17-5 27-9 27-8 25-9 29-10 33-11 34-9 32-10 32-6 30-3 29 1 29 8 27"/>
<path d="M9416 12647l 1-4 3-26-8-25-19-19-26-2-24 9-21 15-20 17-19 22-15 23-10 26 3 25 17 19 27 5 29-5 23-9 22-13 22-15 20-15 22-20 15-18-23 19-17 28-11 23-9 28-9 30-6 32-5 31-5 30-4 30-2 28-2 26-1 32 2 27 7 28"/>
<path d="M9576 12765l 0 1 23-14 25-4 28-2 25 1"/>
<path d="M9594 12834l 1-1 25-4 26-3 25-2"/>
<path d="M10106 12560l 0-1 4 25 0 28-2 32-4 25-4 27-6 31-8 32-7 30-7 29-8 30-7 25-9 27-8 26-9 26-10 23"/>
<path d="M10436 12621l 0-1-24-3-19 21-17 27-11 22-12 28-11 31-7 33-4 31 1 28 3 28 9 30 16 18 19 17 24 12 29 8 24 5 26 0 26-3 26-5 26-5 27-10 25-12 23-16 21-17 17-20 14-21 9-22 5-28 1-27-2-32-9-28-13-27-16-23-17-20-19-17-26-19-21-13-29-7-28-2-28 0-26 3-24 10-18 16"/>
<path d="M9488 13034l 0-1-17 19-10 22-11 24-10 24-6 27"/>
<path d="M9550 13064l-1 1-18 17-1 25 12 23 23 10 27-2 22-14 17-18 2-24-15-20-23-9"/>
<path d="M11021 12606l 0-1-22-12-21 13-18 17-16 20-17 21-14 20-16 25-12 26-6 26 1 24 11 27 18 23 20 20 23 15 24 10 23 9 25 6 27 3 27-3 29-9 22-10 25-16 22-22 15-20 13-23 12-26 5-30 1-28-4-26-8-24-13-23-14-22-20-24-22-16-24-12-29-6-28-3-26 6-24 14-12 24"/>
<path d="M11481 12556l 1-2-9 25-9 30-6 27-9 28-9 28-8 24-9 25-7 24-8 29-7 26-6 24-3 26 2 25"/>
<path d="M11814 12537l 0-1-3 28-4 25-6 29-5 27-3 29-6 31-6 32-9 29-6 31-6 29-6 27-6 26-5 26-8 30-5 26-3 26"/>
<path d="M12014 12971l 1-2 25-9 24-5 26 5 24 11 9 23-16 20-24 15-22 13-24 14-25 8-20 15-14 21-8 23 19 19 28 2 28-1 24 1 28 3"/>
<path d="M8877 13739l 0-2 0-25 23-15 24-8 26-8 26-3 26-2 29 2 21 12 5 27-13 28-21 24-19 19-22 21-26 22-27 19-27 22-27 21-22 21-21 20-14 21-14 25-3 27 21 17 28 0 22-9 27-13 21-12"/>
<path d="M9228 13755l-3 1-23 9-21 11-21 21-12 24-5 23 2 28 13 25 21 18 25 10 29 6 25-3 26-9 27-13 23-14 22-21 11-22 3-25-10-27-15-20-21-19-23-18-23-13-23-8-28-3"/>
<path d="M9541 13761l-1-2 24-14 27-6 27-1"/>
<path d="M9510 13846l 0 0 26-6 29-8 28-9"/>
<path d="M9956 13531l 0 0-2 27-7 29-5 27-6 28-7 28-6 25-6 28-4 30-6 29-6 28-6 27-5 27-6 27-4 24-7 29-7 26-7 24"/>
<path d="M10375 13638l-2-2-25-6-26 6-20 16-17 23-14 23-13 29-9 23-7 27-4 24-3 29 3 27 12 27 19 23 20 19 28 15 30 5 31-4 24-4 25-9 26-11 22-16 21-21 14-23 5-27-1-27-6-27-10-26-11-27-12-23-12-22-18-20-23-15-25-10-27 2"/>
<path d="M10943 13620l-1-1 4 26-1 27-4 29-7 32-7 25-10 27-8 27-11 28-11 29-12 27-10 26-8 23-8 23-4 26"/>
<path d="M11258 13674l-1-1-24-1-23 16-16 22-13 21-10 26-9 25-4 25 3 28 8 24 17 23 20 17 25 12 24 5 26 0 26-4 28-9 22-11 24-17 16-21 10-28 1-29-9-28-11-22-13-22-16-19-21-18-21-16-26-12-26-4-24 11-8 27"/>
<path d="M11654 13693l-3-1-28 0-28 9-24 16-16 21-12 23-7 28-2 31 2 24 5 24 10 27 13 21 20 22 22 13 29 6 29-7 23-10 25-14 25-18 22-18 16-19 16-24 8-24 0-27-12-29-15-20-18-20-20-19-21-16-21-11-24-11-24-7-23 12"/>
<path d="M11990 13924l 2 0 27 1 23 7 28 6 21 9-6 25-25 16-22 19-21 16-21 13-20 18 10 25 26 4 24-1 29-1 29-6"/>
<path d="M9378 14003l 0 0-19 15-14 21-13 22-9 26 0 25"/>
<path d="M9457 14019l-1 1-17 18-7 24 6 24 26 9 25-6 20-15 15-21 1-24-17-18-23-11-26 0"/>
<path d="M9822 14192l-1-1 20-16 26-4 32-5 29-2 33-3 34-2 25-3 25-3 25-3 28-3 27-3 27-2 29 1 27-3 28-1 26-1 25-1 25 0 35-3 32-4 29-2 27-2 27-1 25 0"/>
<path d="M9796 14564l 1-3 2-28 1-27-3-27-15-20-25-1-21 14-16 19-13 24-9 27-3 29 0 24 0 26 0 27-2 30 0 35-1 24-1 26-2 34-2 33-2 27-3 29-2 28"/>
<path d="M9624 14721l 0-1 24-7 26-6 28-8 26-5 28-3"/>
<path d="M9866 14740l-2 0-12 21 0 28 2 27-1 26"/>
<path d="M9881 14621l-1 0"/>
<path d="M9931 14777l 0 0 1 27 4 25 4 25-1 24-7-23 6-23 10-28 11-26 15-23 15-19 19-17 23-15"/>
<path d="M10113 14740l-1-1-22 9-20 16 4 24 25 7 24-1 25 5 5 24-12 25-20 19-23 15-26 6-25-5"/>
<path d="M10284 14534l 0 0 2 26 0 29-4 28-6 31-8 24-7 31-7 32-6 31-6 26-4 27 2 24 20 17 27 0 24-11 27-17 19-15"/>
<path d="M10212 14722l-1 0 22-11 29-9 26-8 30-11 34-9 24-7"/>
<path d="M10911 14486l 0 0-6 25-5 24-8 30-9 31-10 27-10 27-10 31-9 31-9 30-8 24-5 28 3 26 15 19 27 2 25-13"/>
<path d="M10828 14665l-2 1 25-6 32-6 28-6 28-5 27-5"/>
<path d="M11030 14670l-2 2-13 21-7 26 11 25 24 2 26-9 19-17 6-23-2 24 8 23 17 19 24 6 22-10 3-24-4-24-8-25"/>
<path d="M11268 14688l-3 2-22 17-14 20 3 26 16 20 25 5 25-8 20-14 10-23-12-24-18-17-20-14-26 2-19 19"/>
<path d="M11808 14665l 0 0-27-5-21 14-22 16-19 18 6 25 25 8 25 8 22 8 20 15 11 22-17 22-21 16-25 9-29 0-23-7-15-22"/>
<path d="M11963 14443l-1 0-4 27-3 28-3 31-5 25-4 27-3 29-7 31-8 31-8 32-10 32-10 32-10 23-12 25 24-22 16-22 14-19 17-21 19-22 19-20 21-16 24-7 8 25-2 25-7 24-1 26 11 22"/>
<path d="M12203 14702l 0-2-12-21-26-4-23 7-23 18-18 20-16 23-12 22-6 25 17 19 27-3 25-11 24-14 18-18 4 28 23 11"/>
<path d="M12314 14664l-1-1 24-3 19 15-14 21-20 18-18 18-17 20-16 18-13 23 23 12 25-11 24-14"/>
<path d="M12450 14711l-1 1 24 7 22-13 13-22-14-20-25-6-24 14-16 22-12 22-6 24 9 26 21 12 24 9 24 0 31-5 25-5"/>
<path d="M12732 14670l-1-1-18-16-23-6-25 13-20 15-18 17-16 20-16 24-3 26 23 13 29-3 24-8 22-16 22-19 22-22 15-20 12-24 13-29 8-23 5-24 1-29 2-29 0-31 2-27 0-30-5-25-18 18-9 23-9 28-7 25-5 31-5 32-4 31-3 33 0 31 1 32 2 27 1 30 5 24 14 22 24 10"/>
<path d="M12911 14837l-2 1"/>
</svg>
