<svg xmlns="http://www.w3.org/2000/svg" viewBox="1388 1914 17792 16198" stroke="black" stroke-width="16" stroke-linecap="round" stroke-linejoin="round" fill="none" data-xena="0 -2 0"><style>@media(prefers-color-scheme:dark){svg{background-color:black;stroke:white;}}</style>
<path d="M1491 3336l 28 4 27 1 25 0 28 1 31 2 24 3 26 2 28 0 28 0 28-2 30-3 30-2 25-5 24-4 30-5 26-6 26-6 25-4"/>
<path d="M2252 2934l 24-14 28-8 23-5 32-6 25-6 26-3 28-6 28-7 28-6 27-7 26-8"/>
<path d="M2371 2802l-1 27 5 26 7 30 12 30 10 22 12 27 13 29"/>
<path d="M3035 2693l-11 25 1 26 2 25 3 29 5 31 5 34 4 24 3 24 3 24 5 35 3 33 4 32 1 30 2 26 0 27"/>
<path d="M3179 2702l 24-8 28-2 27 1 31 6 30 11 23 12 13 21 4 26-5 28-13 27-15 24-18 20-21 14 25-3 25-7 25-6 30-3 24 3 30 3 28 7 22 10 20 17 8 27-7 29-15 26-14 20-17 22-18 20-22 19-25 18-26 15-28 13-25 9-25 4-28 0-25-9-22-16"/>
<path d="M3838 2774l 11-21-25-3-8 25-4 26 16 18 23-11"/>
<path d="M3998 3097l 27 5 24 6 26 6 26 6 29 3 31 2 34-1 34-3 33-3 31-4 28-5 28-5 25-5 25-4 25-3 26-5"/>
<path d="M5170 2403l-11 26-9 24-8 26-8 30-7 24-8 25-10 28-11 31-11 34-12 34-13 35-12 37-15 37-13 39-14 39-14 40-13 39-15 40-13 41-14 39-13 39-12 36-11 33-10 27-9 23-9 28-8 29-5 24 8-28"/>
<path d="M5231 3134l 25 1 26 1 28-1 27-3 31-1 24 0 25-4 26-4 28-6 26-6 26-7 28-9 25-3 26-3 25-5"/>
<path d="M6095 2796l 27 0 28-2 26-3 27-4 27-6 27-5 27-8 25-6 25-10 24-13"/>
<path d="M6211 2691l-8 24 0 24 0 28 3 27 3 27 4 25 7 26 8 27"/>
<path d="M6832 3042l 28-5 28-4 26-6 26-2 28 0 29 4 32 5 30 8 28 8 28 7 27 5 25 2 25-1 26-2 27-5 24 3 24-3"/>
<path d="M7619 2763l 27-8 25 0 26 0 25 0 27 0 29-3 29-4 27-6"/>
<path d="M7734 2686l-11 21 6 27 10 22 12 27 13 28 13 27"/>
<path d="M8292 2658l 13 25 4 30 1 30 1 24 0 24 1 25 0 24 0 25 3 24 0 30-1 29 0 27 1 29"/>
<path d="M8459 2696l 24-5 31 4 25 4 25 5 28 3 27 5 26 5 25 7 25 11 22 17 14 23-9 26-15 25-15 20-22 22-22 22-25 21-24 20-25 16-23 17-22 18-18 18 18 18 29 5 31 4 25-1 24-1 30-2 31-2 24-2 31-3 26-3 28 0"/>
<path d="M9024 2807l"/>
<path d="M9180 3039l 27-4 26 2 25 1 28 1 29-1 28-1 29-3 25-3 26-4 27-3 25-4 29-4 27-4 26 1"/>
<path d="M9876 2758l 23-11 24-2 28-1 26 0 25-3 25-5 25-5"/>
<path d="M10236 2985l 25 0 26 3 29 4 28 4 25 4 26 3 30 1 29 2 31 2 31 3 28 1 25 3 28 0 26 2 27-1 26-1"/>
<path d="M10935 2762l 27 1 26-1 28 0 26 1 26 0 25-1 25 0"/>
<path d="M11559 2568l-10 26-7 25-3 29-2 29-1 24-2 31 1 31 0 29-5 29-3 26-4 25-3 28"/>
<path d="M11740 2540l-4 25-4 27-1 28 4 28 0 28 0 28 3 28 0 28-2 28 0 26 0 26-1 26 2 26-1 24"/>
<path d="M12128 2721l 23-9 25-4 28-4 31-5 30-8 29-9 29-9 25-10 23-11"/>
<path d="M12231 2577l 6 26 8 26 5 24 4 25 4 24 5 24 4 27 8 28"/>
<path d="M12564 2967l 24 0 30 2 25 0 26 2 26 2 28 2 28 0 28 0 32-2 31-2 30-4 25-3 27-1 24-4 24 0"/>
<path d="M13325 2605l-17 18 22 12"/>
<path d="M13537 2829l-25-6 20 13 26 6 25 5 24 3 26 3 25 3 25 4 25 2 27 0 27 0 28 1 27 2 28 0 26-1 24 0 30 0 26 1 25 0 25 1 25 2"/>
<path d="M14621 2175l-1 25-5 24-5 26-9 31-7 25-10 28-14 30-14 34-18 35-17 37-18 38-21 40-21 41-20 43-20 41-19 41-17 40-18 38-16 37-16 32-14 32-14 30-11 27-10 24-12 30-7 23-8 24 6-23"/>
<path d="M14694 2790l 24 2 24 5 25 7 28 7 32 6 25 3 27 0 32 0 28 3 25 2 24 4 24 5 24 5 25 5 28 4 27 5 25 7 24 3 24 7"/>
<path d="M15456 2491l 24-2 26-2 26-2 25-2 29 0"/>
<path d="M15975 2267l-2 24-8 31-5 25-5 26-3 26-3 25-1 24 0 28-1 28 1 30-4 28-8 25-3 25"/>
<path d="M16208 2330l-20 13-15 20-13 25-7 27-1 29 9 28 13 27 16 26 20 24 25 17 28 12 31 5 32-1 26-7 29-12 28-16 25-19 23-21 18-19 15-25 4-28-3-30-10-30-15-21-25-22-21-13-23-9-26-10-24-5-30-2-26 1-22 13"/>
<path d="M16841 2346l 23-12 28-2 28 0 27 3 30 3 25 4"/>
<path d="M16833 2408l 24 6 27 6 24 5 26 4 25-1 32-3"/>
<path d="M17332 2143l-22 15-18 27-16 28-15 33-12 26-9 26-11 28-10 28-8 25-7 28-5 25-2 35 2 30 6 28 6 27 11 21 21 18 21 14 23 8 27 1 29-8 25-14 23-20 17-18 13-22 9-25-3-28-16-23-25-19-24-9-27-5-26-1-27 2-30 7-27 10-22 12"/>
<path d="M17572 2201l-23 10-15 20-14 26-12 30-9 23-8 24-8 25-5 27-2 25 0 24 2 34 7 30 10 26 13 22 15 19 23 17 26 10 28 3 29-8 23-14 19-15 18-16 14-24 4-29-9-28-17-22-24-15-24-4-25-3-25-1-26 1-24 6-27 9"/>
<path d="M15481 2587l 25-2 25-10 25-14 22-14 23-15 28-16 25-12 30-13 32-15 24-11 24-11 26-13 28-14 30-15 31-17 32-15 33-16 33-17 35-18 36-18 35-18 36-19 35-17 34-17 35-16 33-16 33-16 33-15 30-14 31-14 27-13 24-12 24-10 31-14 30-11 24-10 29-12 22-9 23-10"/>
<path d="M10960 2942l 13-23 18-16 26-21 26-19 21-15 22-15 25-16 28-17 29-18 31-17 31-20 30-17 31-18 32-17 31-17 32-18 31-16 29-17 30-18 29-17 28-17 25-15 23-16 24-15 23-14 24-12 22-10 28-15 24-12 25-13 22-11"/>
<path d="M17104 2594l 15-23 22-16 21-14 25-16 29-17 33-18 38-20 39-24 22-12 23-13 23-14 24-14 22-13 25-14 23-14 24-14 23-14 23-14 23-14 23-14 22-14 22-13 21-12 40-25 39-21 35-18 34-15 29-15 25-11 28-12 25-9"/>
<path d="M18528 2017l-19 21-16 24-20 30-15 23-13 22-12 24-12 23-9 23-7 24-9 33-3 32 1 29 7 29 16 24 28 14 28 7 29 1 29-6 26-10 23-16 6-25-18-20-26-14-22-8-30-7-24-4-29-2-28 1"/>
<path d="M18830 2100l 27 3 28 0 27-5 30-3 33-3 25-3 31-1 27-2 18 16-5 25-13 24-12 22-13 26-15 28-11 24-8 25-9 22-13 27-11 27-9 25-10 28-9 25-10 23"/>
<path d="M1730 4641l 2-25 3-25 0-25-3-26-5-23-14-21-27-3-23 6-25 14-25 19-20 22-15 21-14 24-12 28-9 30-7 31-3 29-1 26 5 30 10 23 20 17 27 7 30-7 25-17 20-19 17-19 17-21 17-26 13-22 11-22 5-25-10 26 0 28 0 24 2 27 6 27 12 22 24 9"/>
<path d="M2214 4554l 20-14 25-8 24-8 25-7 25-8"/>
<path d="M2218 4495l-8 25 8 23 9 28 8 23 10 24 10 25"/>
<path d="M2736 4373l 0 24 2 30 0 29-2 32-2 35-1 24-2 24-1 25-2 25-1 25-2 35-1 33-1 27-1 27"/>
<path d="M2839 4416l 26-5 24-6 33-5 26-4 30-7 28-8 28-6 25-5 25-1 24 11-1 26-17 21-16 20-22 24-26 24-18 16-28 20-27 20-26 16-22 14-23 13 26-10 26-10 30-12 32-10 32-8 32-5 30-5 29-2 29-1 26 2 29 6 22 11 16 21 9 28-2 28-5 24-9 28-13 31-16 29-18 28-21 23-23 21-25 19-26 15-28 13-31 8-30 5-30 1-29-2-25-7-26-13-19-17-11-25"/>
<path d="M3620 4091l 2 25 1 24 1 24 1 28 2 29 3 31 3 33 3 32 3 33 3 31 2 28 2 24 3 27 4 24 1 26 3 24 5 24-5 25-7 25-4 25-6 25-5 25-4 25-4 26-2 24 4-25 5-27 3-28 3-30 3-24 4-28 4-25 5-25 8-23 11-24 20-15 27-1 24 3 24 8 24 10 24 14 20 16 15 23 5 26-5 23-12 27-10 24-13 23-15 23-17 20-21 23-23 20-24 13-28 9-27-2-24-10-9-24"/>
<path d="M4193 4135l 0 29-2 32-4 30-6 34-5 26-5 29-7 32-7 35-9 39-10 41-10 46-6 23-5 24-7 24-6 24-7 24-7 26-7 24-8 25-8 25-7 25-8 25-7 25-7 23-14 44-12 42-8 40-9 37-8 33-7 27-8 26"/>
<path d="M4388 4522l-25 3-23 14-24 19-20 19-16 21-15 25-13 28-9 29-2 29 0 26 6 26 15 23 21 16 30 10 29 2 33-2 27-4 27-6"/>
<path d="M4740 4510l 26 0 30 5 27 0 31-3 27-3 24-4 27-8"/>
<path d="M4835 4437l-10 26 0 24 5 26 11 27 11 27 11 28 10 22 8 23"/>
<path d="M5516 4566l-14-20-25-7-26 2-26 9-21 13-22 21-15 19-14 25-11 25-11 27-7 28-4 28 1 25 8 26 20 19 25 2 27-9 23-19 16-18 18-23 16-25 15-28 16-29 12-29 12-29 9-28 6-28 5-29 1-29 0-30-1-29-3-30-5-28-5-29-6-30-6-28-7-26-7-23-8-28-9-24-18-18-17 22-8 29-2 31-1 36 1 26 2 30 3 32 4 32 4 33 5 36 6 33 7 33 6 31 7 27 8 26 8 25 8 23 12 32 13 25 15 19 24 17 24 7 29-2"/>
<path d="M5744 4582l 28-2 27-7 25-8 27-9 27-10 26-9"/>
<path d="M5822 4461l-17 23-1 28 1 27 4 30 8 30 7 23 9 23 10 23 17 26"/>
<path d="M6298 4334l 8 27 3 31 3 28 5 32 4 25 4 26 2 26 2 27 1 25 1 24 0 35 2 33-1 29 0 26-1 28 0 27"/>
<path d="M6530 4372l 23-13 28-1 26 0 31 3 28 4 29 8 27 10 27 11 23 12 22 17 17 18 14 23 0 27-7 24-15 27-16 23-21 23-22 23-24 21-26 20-26 19-28 20-27 18-22 16-26 17-22 14 27 10 28-5 28-3 30-3 25 0 27-1 31 0 29 4 26 3 25 6 23 5 24 7 23 8"/>
<path d="M7121 4587l 25 2 23-8 23-10 22-11 22-15 12-22-17-19-26-10-26-3-25 7-23 15-19 15-14 22-10 24-7 26-3 24 4 28 5 24 13 23 14 21 20 17 24 8 25 6 30-2 28-4 27-8 27-8 25-10"/>
<path d="M7589 4523l 24-5 24-8 25-4 25-3 24-6 29-5 25-2 24-4 27-4"/>
<path d="M8365 4239l-8-25-16-20-26-8-26 0-27 6-21 14-18 19-13 22-10 28-8 24-9 25-4 25-1 26 3 25 6 23 12 29 11 22 10 23 12 23 10 24 11 25 8 27 8 30 4 32 0 33 0 33-1 30-2 30-5 27-20 14"/>
<path d="M8129 4549l 26-4 30-5 24-5 28-6 34-4 34-8 26-5 24-7"/>
<path d="M8684 4508l 26-5 26 0 27-3 26-3 27-3 26-4 25-8"/>
<path d="M8738 4426l 0 24 5 24 8 25 7 24 10 23 9 23 8 24 9 27"/>
<path d="M9364 4635l 20-15 19-18 16-22 11-22 1-25-13-23-21-17-23-6-26 3-23 12-21 17-19 18-16 20-14 21-12 22-9 27 0 25 5 28 16 22 23 15 28 6 24-3 23-9 25-14 24-17 16-18 9-23-1-26-10-23-9 25 3 25 1 28 4 27 4 27 6 28 9 27 8 30 8 28 12 27 10 27 8 29 10 28 5 25 5 25 3 25 3 24 5 24 4 31 1 29 0 26 0 26-4 27-8 22-17 19-27 9-29 5-25 2-25 1-27-2-27-6-27-6-26-7-22-12-18-16-6-23 4-26"/>
<path d="M9749 4136l 21 17 8 24 4 29 3 25 5 27 1 28 2 30 0 32 0 31-3 30-2 30-4 30-5 30-4 26-4 28-3 25-6 25 1-25 7-28 9-29 10-29 12-26 13-24 15-19 22-14 24 12 11 26 0 24 1 29-1 25 1 30 3 29 1 27 1 26 2 28 5 25 20 16"/>
<path d="M10292 4090l-2 27-7 24-7 29-9 23-6 24-8 27-9 29-8 29-11 33-9 36-13 36-12 38-13 39-12 37-13 38-11 35-10 35-10 33-7 30-9 28-6 25-9 33-7 27-9 29-6 24"/>
<path d="M10469 4475l-11 27-9 28-5 25-1 29 2 30 1 28 4 25 7 25 7 24 20 13 21-15"/>
<path d="M10470 4341l"/>
<path d="M10876 4326l 27 2 24 2 29 0 29-1"/>
<path d="M10819 4438l 23 10 26-2 24-3 28-4 31-6"/>
<path d="M11462 4083l-20 16-18 19-18 21-19 27-13 22-13 23-13 25-12 27-12 30-10 31-9 32-8 33-6 32-5 32-2 29 0 27 2 25 9 30 13 23 18 16 23 12 27 7 31 1 31-5 31-8 29-10 27-15 24-17 21-18 15-22 3-25-15-23-20-15-24-8-26-2-28 0-27 1-25 6-25 6-26 7-23 10"/>
<path d="M11846 4140l 23-7 25-2 29-2 31-1 28 0 25 0 29 1 23 8 1 25-12 27-16 27-16 29-6 23-9 26-7 28-7 29-4 28-5 27-5 26-7 25-3 25-4 30-5 26-5 28-10 24"/>
<path d="M1979 6319l-3 30 1 27-1 32-2 24-2 26-3 28-2 28-4 30-4 30-2 30-2 30-3 30 0 30-2 29-1 27 0 26 1 31 6 29 20 15"/>
<path d="M2154 6347l 17-20 22-16 24-13 26-11 27-7 25-1 25 3 27 9 18 18 8 24-4 26-11 22-21 24-19 17-19 17-22 16-22 15-24 15-24 12 24-5 31-11 28-10 29-7 29-6 28-1 27 3 27 7 26 10 24 15 21 17 17 19 17 25 8 27-2 31-6 25-11 28-17 28-21 27-15 19-25 24-25 22-24 18-25 12-26 9-27 3-26 0-30-3-24-9-21-15-12-23"/>
<path d="M2659 6239l 18 23 14 27 10 26 10 32 6 24 6 28 5 30 4 32 3 33 3 34 1 33 0 34-3 33-1 32-4 31-3 28-4 26-5 32-5 29-19-16 3-31 6-25 7-25 9-24 15-27 15-24 18-22 25-12 27-6 25 0 28 6 28 9 25 11 21 17 10 25-3 25-10 23-15 23-16 23-23 18-25 16-26 12-29 6-27 1-29-5-21-11"/>
<path d="M3287 6107l 2 24 1 30 0 30-1 25 0 28-3 32-3 34-3 38-4 39-6 43-6 45-8 46-9 46-10 47-5 23-12 46-9 44-10 42-9 38-9 35-7 31-8 28-5 24-7 30-5 29-6 25"/>
<path d="M3520 6592l-23-7-23 11-22 19-16 20-15 25-14 25-13 28-9 31-7 31-3 28 0 25 8 25 14 22 19 15 23 9 30 1 27-2 29-6 32-8 32-9 32-11"/>
<path d="M4023 6543l 26-7 26-7 26-8 24-7 25-7 28-9 24-7"/>
<path d="M4138 6389l 0 24 2 28 0 30 0 31 1 25 1 24 1 24 3 31 3 26 4 27 6 24"/>
<path d="M4595 6288l-5 25 0 27-3 25 0 29 0 33 2 34 2 25 2 35 2 35 2 34 1 35 1 33 0 33 1 29 0 29 0 26 4 25 21 11"/>
<path d="M4731 6344l 19-16 29-9 31-6 26-2 26 0 28 4 25 8 22 10 26 19 22 19 18 23 12 25 9 26 3 28-5 29-8 24-13 26-19 28-15 20-16 20-19 20-21 19-21 19-22 18-20 16-21 17-29 21-24 20-20 16-19 18 24 10 27 0 31-3 27-3 29-7 31-7 31-10 30-9 30-8 27-8"/>
<path d="M5198 6651l 23-5 29-5 28-7 25-7 28-11 23-10 24-13-4-25-25-7-25-2-25 3-24 6-23 7-21 16-17 21-14 24-6 25 5 26 12 23 19 18 24 12 29 6 26 2 31-5 26-5 24-9"/>
<path d="M5797 6481l 23 11 29 3 24-2 29-7 23-8"/>
<path d="M5824 6415l-8 25 2 29 3 26 5 28 8 28 10 22 12 28"/>
<path d="M6250 6491l-13-21-23-15-30 0-24 7-27 12-25 17-19 19-15 20-11 22-4 29 8 27 19 21 22 12 28 8 31-1 29-6 27-9 23-12 16-19 2-25-7-25-5 24 6 27 6 26 10 29 9 23 10 25 12 27 14 26 12 27 11 27 10 27 6 28 6 30 0 31-3 28-5 26-8 27-9 25-15 22-16 20-17 18-24 15-28 7-25 0-31-6-22-9-24-13-20-17-22-21-16-24-14-28-6-32-3-26 0-28"/>
<path d="M6466 6056l 5 26 9 29 8 29 10 35 6 25 6 26 6 28 5 28 6 29 5 30 4 29 2 30 1 28 0 29 0 26-3 35-5 30-3 25-4 24-1-27 6-25 10-25 11-24 13-20 17-23 17-18 18-23 20-15 23-8 24 6 16 22 13 24 9 23 7 25 3 27 3 27 0 26 0 26-1 24-1 25 7 24"/>
<path d="M6954 6016l 3 27 2 25 2 29 3 33 1 25 0 28 0 28-1 29-2 31-3 32-3 33-4 34-4 35-6 35-6 36-8 35-6 36-7 37-9 36-10 38-9 37-9 37-9 35-7 31-7 28-6 25-6 31-3 25 0 25"/>
<path d="M7191 6420l-8 27-5 28-3 27 0 30-2 31 1 29 4 28 8 28 11 22 27 6 24-13"/>
<path d="M7131 6243l"/>
<path d="M7466 6338l 27 0 27 3 24 2 26 0 29 1"/>
<path d="M7440 6447l 24 2 25 2 28 1 28 0"/>
<path d="M8406 6110l 25-8 28-3 30-5 29-5 30-6 31-5 24-4 23-6 19 17-9 28-6 25-7 29-9 32-7 24-9 24-6 25-8 27-8 25-6 26-9 27-8 28-11 27-9 26-8 25-10 31-6 27-8 26-5 25"/>
<path d="M8875 6252l 26-2 29 0 25 2 28 1 28 1 28-3 25-4"/>
<path d="M8982 6183l-10 25-2 24 1 30 0 24 4 24 7 24 9 29 11 28"/>
<path d="M9524 6048l-8-27-12-21-27-4-22 11-20 19-16 21-10 25-8 31 0 27 0 29 8 29 7 32 8 32 9 32 8 30 11 28 8 28 7 28 5 27 2 27 0 25-5 31-6 26-12 23-18 23"/>
<path d="M9311 6358l 18-20 21-12 29-9 31-6 27-3 28-4 30-2 30-3 32-4"/>
<path d="M9769 6261l 26-9 29-5 26-4 32-3 26-2 28-1"/>
<path d="M10271 6250l-17-20-25-12-28 3-22 12-19 15-24 19-18 22-11 22-5 25 6 25 20 17 26 8 25-1 25-5 26-10 20-16 8-23-7 25 6 27 14 20 21 15"/>
<path d="M10423 6265l 27-5 28-2 28-2 28-1 26-2"/>
<path d="M10900 6248l-1-24-25-2-25 11-25 16-20 15-20 17-19 20-16 21-12 21-9 28 2 25 11 26 22 17 25 4 26-3 28-9 22-11 20-14 16-19 16-19 14-24 10-26 9-31 6-33 3-35 1-36 1-25 1-26 0-26 0-26-2-26 0-25-3-34-5-26-13-26-24-9-17 17-14 23-11 29-4 26 0 27 2 33 7 36 3 25 5 25 4 25 5 24 5 24 8 24 6 24 8 33 6 32 8 31 7 29 10 26 15 27 20 20 24 13"/>
<path d="M17131 4005l-2-25-22 8-16 22-13 22-12 25-13 30-13 34-8 24-7 26-7 27-7 28-5 28-5 28-3 27-3 26 1 35 3 29 9 23 14 25 21 22 27 6 28-7 21-18 18-25 11-25 1-25-6-29-17-21-26-7-26 6-20 15"/>
<path d="M17467 4023l-25 5-17 22-15 25-16 31-8 22-10 23-10 33-7 33-3 29 1 31 4 25 10 29 14 20 21 14 28 6 24-4 23-12 19-15 15-23 4-24-2-28-11-23-24-11-24 9-16 18"/>
<path d="M17088 4732l 23-10 25-7 24-7 26-4 24 8 12 23-10 26-7 25-8 25-10 26-9 26-9 27-8 28 0 25 25 3"/>
<path d="M17408 4692l-22 18-14 21-12 27-8 23-8 26-6 27-3 27 0 26 5 29 10 25 20 23 26 14 28 3 24-6 21-12 18-17 10-24-4-24-21-18-25-3-25 7-22 14-12 23"/>
<path d="M17213 5332l-16-18-23-9-25 7-24 10-19 18-4 25 7 25 15 19 16 20 16 21 20 17 15 19 15 20 11 24 0 24-10 23-13 22-17 17-17 17-24 6-17-19-12-21-12-23-11-22 3-25 13-21 13-21 13-22 14-22 13-20 14-21 15-19 21-12"/>
<path d="M17338 5332l 23-7 25-4 24-6 23-8 7 25-5 28-6 26-5 23-6 24-8 25-7 24-6 29-8 23-8 24-3 25"/>
<path d="M8053 6178l-17-23-20-14-24-10-28-5-25 3-25 10-21 18-15 19-10 27-1 29 10 26 19 20 21 15 28 16 23 11 29 12 28 12 26 12 21 14 19 20 13 24 4 29-1 26-9 30-11 26-14 28-18 25-19 21-18 16-22 14-27 5-24-5-18-16-10-25-5-26 2-30 7-34 7-24 9-24 11-24 10-25 12-22 13-22 12-21 20-30 21-27 21-25 17-21 16-21"/>
<path d="M2878 8873l 0-30 0-28-3-26-5-27-7-26-10-24-14-22-21-13-28 2-23 11-20 13-20 20-19 23-18 26-16 28-12 26-9 27-4 24 0 26 12 22 28 3 27-10 23-14 23-18 21-20 19-20 18-19 19-21 16-21-6 24-6 30-4 27-2 30-1 33 0 36-1 25 0 26-1 27 1 28 0 26 1 27 2 24 3 30 7 28 12 21"/>
<path d="M3250 8728l 19-16 26-6 28-4 25-3 24-2 31-2 29 0 24 3 25 10 5 24-16 22-19 21-21 21-19 16-22 19-20 14-18 19 13 22 28 6 25 1 26 2 28 2 28 2 29 4 26 6 26 12 20 15 12 25-1 25-8 25-14 24-18 23-18 17-19 16-20 14-21 13-24 11-27 6-27 5-26 0-25-4-24-9-21-13-21-19"/>
<path d="M5033 8724l 25-13 31-1 30 0 32 4 30 6 28 6 26 13 19 16 7 24-8 28-12 21-16 22-19 24-20 22-23 21-23 22-25 22-23 21-20 21-18 18-18 17 20 18 26 1 29 3 24 3 25 0 24 1 26 1 29 1 29 2 28 2 29 3"/>
<path d="M4847 9633l 22-14 26 0 26 3 27 4 24 13 13 21 1 28-7 25-12 21-15 25-20 25-16 18-16 18-17 18-16 18-23 25-24 24-21 22-21 22-16 20-18 22-11 21 20 15 27 1 31-2 25-2 27-4 28-5 31-5 28-5 27-5 30-7 28-8"/>
<path d="M5174 9642l-6 27-7 25-9 26-11 27-10 26-9 25-5 26 15 21 28 3 25-2 29-6 24-6 31-9 28-11 26-11 25-12"/>
<path d="M5319 9724l-10 23 0 25 3 24 3 29 2 25 4 28 2 26 1 24"/>
<path d="M2768 9660l 16-20 24-3 27-2 30 0 29 1 24 4 17 20-6 29-13 26-15 21-18 22-17 22-17 19-17 22 24 12 29-3 30-4 26 2 22 13 9 26-3 29-3 25-8 26-11 24-15 23-19 23-21 19-23 17-25 13-23 5-23-6-6-28"/>
<path d="M3309 9662l-4-27-13-23-19-16-24-7-25 2-28 9-21 14-22 15-20 18-19 18-16 20-15 24-7 26 12 21 28 7 27-3 24-6 30-10 26-12 23-14-5 26 1 25 6 26 3 25 3 28 2 28-1 30-2 29-4 27-1 27 1 26"/>
<path d="M6337 8763l-12-22-14-21-21-12-22 10-18 17-14 22-11 23-2 25 3 25 15 22 17 22 19 19 21 15 23 16 25 12 24 13 21 11 21 14 16 19 6 25-2 25-6 24-11 26-11 25-14 22-20 18-24 9-28 3-23-8-19-17-12-27-9-23-5-26-2-27 3-30 7-28 10-30 8-24 13-29 11-26 13-23 17-24 18-21 22-17"/>
<path d="M6957 8666l-2 27-11 25-8 23-10 26-9 29-9 23-9 28-5 24-3 25 6 24 23 13 26 1 23-5 24-7 26-8 27-9 23-8 24-11 22-10 22-14"/>
<path d="M7060 8787l-3 26 2 28 6 29 2 25 2 30 2 26 0 25 2 26 1 24"/>
<path d="M6567 9493l 6 25 2 28 0 25-2 30-4 26-2 28-2 30-3 31-3 31-5 30-1 26-3 30-2 26"/>
<path d="M4950 11261l 26-4 29-4 23-9 24-13 25-15 25-16 26-18 20-16 22-15 13 21-4 28-5 26-4 29-5 33-5 35-5 24-5 25-5 27-6 26-5 25-5 25-6 34-3 28-2 29 2 25"/>
<path d="M12293 8397l-1 25-1 26 0 28 0 25 1 28 3 30 3 29 3 29 2 31 2 29 1 27 2 26 4 25"/>
<path d="M12697 8353l 20-15 25-11 24-8 23-9 25-9 25-8"/>
<path d="M12734 8338l-21 12-12 21-11 25-4 29-3 25-2 27 5 27 13 23 27 2 27-8 25-12 26-13 25-10 23-7 27-5 27 1 23 9 11 24-2 28-12 22-16 23-16 23-19 20-20 18-23 14-25 5-26-5-26-11-21-12"/>
<path d="M6558 8800l 21-14 21-12 22-11 25-11 25-6 6 24-6 24-3 30-5 29-6 29-7 28-4 28-3 26-2 25-1 28-1 25 1 24-2 24"/>
<path d="M6818 9467l-10 25-8 24-12 27-11 23-12 26-11 26-9 25-10 24 1 24 24 3 28-4 25-3 27-6 29-7 27-11 23-10 26-13 20-15 17-19"/>
<path d="M6909 9528l-9 23 4 26 6 28 3 28-1 26 3 27 0 28 0 26-2 28-1 24 4 25"/>
<path d="M5360 11138l 27-3 24-2 27-3 30-6 25-6 27-5 26-5 24 7 1 27-2 30-4 33-3 28-4 32-5 34-3 25-4 34-4 34-5 33-5 33-4 28-4 29-1 30-2 25-1 24 0 24"/>
<path d="M13304 8201l-17 17-13 25-11 25-9 28-11 31-12 34-7 23-5 24-7 24-6 24-4 24-4 35 3 29 5 28 12 25 23 15 24 5 29-5 29-10 24-12 24-18 16-18 15-20-9-24-23-11-27-3-28 3-25 7-24 9-23 10-22 15-21 18"/>
<path d="M2448 12887l 20-14 25-2 26-1 27 1 25-5 27-8 26-12 27-13 26-14 22-16 22-15"/>
<path d="M2504 12906l-7 27 3 29 0 25 0 25 1 27 5 26 5 24 26 2 24-10 23-9 25-8 26-7 29-3 26-3 25-3 25-3 24-1 22 10 22 13 13 23 5 27-5 27-6 26-9 25-14 24-19 23-18 17-21 14-22 12-28 7-25 3-24 2-26-9-22-12-11-22 1-25 19-17"/>
<path d="M3051 12943l 6-29 5-26 4-25-1-27-14-23-23-11-25 5-24 12-25 18-23 24-14 21-13 22-11 24-10 29-5 27 6 28 22 11 25 3 30-7 27-15 26-18 20-19 17-18 16-19 4 29 0 28-1 26-1 25-1 25-3 28-2 28-2 30-2 28 0 27 0 27 1 31 4 28 10 23"/>
<path d="M3329 12849l 22-10 27-1 27-3 28-1 27-3 27 0 25 1 23 10 8 26-10 27-12 22-16 23-16 20-19 23-19 21-17 21-19 18 26-4 27-4 25-4 28 0 25 4 25 3 17 18 14 22 3 25 0 25-3 29-8 23-14 23-18 18-23 16-24 10-23 6-27 1-26-1-27-6-25-8"/>
<path d="M3955 12650l-22 14-14 25-9 28-7 25-6 28-7 30-6 29-6 32-5 31-4 32-3 30-1 33-1 33 1 32 4 28 5 27 6 24 9 27 11 23 19 20 22 16 25 6 27-2 26-12 21-13 19-17 17-19 18-25 11-24 8-26-5-28-17-16-23-9-27 0-27 4-26 10-23 15-20 15-19 19-11 22 3 25"/>
<path d="M4441 12877l 17-17 25-7 25-3 28 2 29 5 27 7 24 9 19 15 15 20 6 24-2 25-9 26-9 24-12 27-15 25-18 25-21 24-23 23-23 19-24 20-23 18-20 16-25 18-22 14-24 14 28-1 29-5 30-4 26-2 27-7 26-4 24-5 25-3 29-3 25-3 25-3 25 3"/>
<path d="M5101 12653l 2 24 3 28 4 29 2 29 1 32 0 27 0 30-1 33-2 33-1 34-1 36 0 24 1 33 0 31 1 25 2 28 1 25 3 26 5 24"/>
<path d="M5736 12778l-9-26-13-24-15-20-23-12-26 3-21 14-18 16-17 22-15 20-13 21-14 22-5 23 11 23 24 13 26 10 23 12 24 9 28 7 28 10 29 10 22 11 19 16 13 24 3 28 0 24-6 28-6 30-12 25-17 24-21 20-23 13-24 4-27-7-20-18-14-21-8-28-1-24 2-25 5-26 11-26 11-28 13-27 15-25 16-22 19-25 20-22"/>
<path d="M6025 12693l 24-8 24-2 26-2 28-3 26-2 26-4 26-6 28-3 25 1 4 27-4 24-5 28-7 33-5 23-5 25-5 27-5 27-4 26-3 25-5 34-2 34-1 30 3 27 0 25 3 26"/>
<path d="M6546 12639l 6 23-1 25-3 28-3 25-7 28-8 22-4 27-2 24 22 15 30 0 32-3 26-4 26-4 27-5 24-5 24-5 27-8 28-7 23-7 24-8"/>
<path d="M6720 12707l-11 22 3 30 6 31 10 25 7 30 9 33 9 33 8 32 6 33 7 34 5 33 5 32"/>
<path d="M7583 12831l 16 21 14 21 16 20 14 21 10 22 25 9 19-19 19-25 14-20 14-23 15-24 13-24 15-26 16-27 15-28 15-28 14-27 12-25 15-32 12-31 10-24 10-27"/>
<path d="M2543 14714l 2 29-4 26-5 31-5 28-8 31-7 36-6 25-4 27-5 25-6 25-4 26-5 25-5 26-4 24-4 24-6 34-6 31-6 27-4 25-3 27-3 24"/>
<path d="M2897 15085l 22-12 26-8 25-7 25-10 26-8 25-7 27-6 26-6"/>
<path d="M2988 14944l-3 26-1 26 0 28 1 25 3 25 4 28 3 25 4 25 4 28 4 26"/>
<path d="M3499 14803l-2 26-3 25-3 30-3 24-3 25-5 26-4 27-6 28-6 28-7 26-5 24-5 29-2 28 6 25"/>
<path d="M3706 14708l 26-6 28 3 27 4 28 3 28 4 27 10 22 13 5 24-14 23-19 15-21 15-21 14-21 15-18 17-18 16-7 24 25 5 26 1 26-1 26 2 25 4 24 7 25 10 26 15 21 18 16 23 6 28 0 25-5 26-10 25-16 23-17 18-24 17-25 12-30 10-23 6-25 2-28 1-24-2-26-5-21-13"/>
<path d="M4227 14919l 15-20-24 2"/>
<path d="M2531 14772l 22-15 23-10 25-12 22-9 25-6 25-6 26-5"/>
<path d="M2563 14747l-12 25-4 26-3 25-3 24-5 29-6 31-6 26-7 28-7 29-7 30-7 31-6 31-7 31-4 28-4 24-6 27-3 24 24 0 24-14 19-14 27-8 25-3 29-3 26-2 25 3 27 3 22 11 19 16 17 21 11 23 6 27 0 29-3 27-9 30-9 23-10 22-13 20-19 24-20 22-20 19-21 15-25 13-25 9-25 6-23 7-26 3-25-2-23-7"/>
<path d="M4657 14769l 10-25 4-27-10-24-18-17-24-4-24 2-28 9-28 13-20 15-21 19-15 22-12 22-3 24 13 21 28 8 26-3 30-10 28-12 22-11 24-15 16-18-15 22-10 26-7 27-5 25-6 26-7 29-7 31-6 31-6 34-6 33-6 31-3 26-3 25-3 27-3 26 0 25"/>
<path d="M5282 14716l 18 17 10 24 8 23 8 24"/>
<path d="M5202 14970l 25-8 27-5 27-6 24-6 24-7 23-9 23-9 25-9 26-9 24-8 24-7"/>
<path d="M5367 15063l 23 9 16 19"/>
<path d="M5718 14683l 10-23 23-15 24-7 26-3 26 8 25 10 23 12 20 13 21 17 18 19-7 27-20 21-19 18-24 17-23 16-21 15-22 14 12 21 28 6 28 4 30 5 24 4 28 5 25 7 24 9 23 11 18 18 8 25-2 29-12 23-15 22-17 24-18 17-20 22-23 19-24 18-24 13-26 13-27 6-25 2-25-8"/>
<path d="M6371 14800l 25-8 25-6 24-6 26-6 26-5 26-2 27-6 26-6 27-3"/>
<path d="M6476 14659l-4 27-1 27 1 25 2 24 1 24 0 28-1 28 0 28 1 27-4 24"/>
<path d="M7194 14474l-23 14-19 27-16 27-10 23-9 25-10 26-8 28-6 28-6 29-4 29-3 29-3 29-3 27 0 27 0 26 3 35 6 28 9 25 12 23 17 18 25 12 24 4 26-8 25-14 20-22 11-25-6-26-14-21-18-19-25-14-26-4-27 6-14 22"/>
<path d="M7675 14659l 20-14 27-4 23-9 25-5 28-7 25-9 23-5"/>
<path d="M7764 14549l-8 25-1 25 3 30 5 24 3 25 4 24 6 27"/>
<path d="M8147 14385l 1 27 0 25-1 32-2 25 0 27-3 25 1 27 0 29 0 30 0 29-1 29-3 26-2 29 2 29 0 26"/>
<path d="M8407 14343l 23-7 26-1 28 3 31 6 25 4 25 8 22 9 21 11 16 21 6 25-4 27-11 23-16 23-17 18-18 22-21 22-20 22-21 20-17 20-20 22-16 19 0 25 28 0 29-3 31-5 31-2 25 0 26-2 27-2 25-1 26 2 29-1 25 1"/>
<path d="M8935 14484l"/>
<path d="M9176 14332l 23-8 25 2 23 5 26 9 26 13 22 15 19 18 19 17 18 23 9 24 1 25-9 29-16 25-17 22-19 23-23 23-24 23-17 17-26 24-27 21-25 20-22 19-20 18-20 19-17 19 5 25 24 8 28 5 25 4 24 5 30 2 28 1 27 4 25 3"/>
<path d="M9752 14523l 24 3 27 1 25 1 25-1 29-2"/>
<path d="M10177 14300l 3 26 4 28 1 32 0 28 0 31-2 32-3 32-4 33-5 32-2 31-1 30-2 27-3 30 0 25 0 25-3 24"/>
<path d="M10669 14566l 23-14 24-9 26-7 26-6 24-6 25-5 25-1 26 1"/>
<path d="M11397 14340l-6 23-7 31-6 29-6 31-6 31-3 31-3 29-2 30-3 29-2 28-2 26-2 30-1 30-3 24 3 24"/>
<path d="M11654 14396l-3 27-2 25 0 28 0 25-1 24-3 26 0 26 4 27-3 28-3 26-5 27-5 25-6 28-3 27 19 17"/>
<path d="M11942 14553l 23-15 29-8 27-6 27-4 27-5 31-1 25-1"/>
<path d="M12065 14423l-4 27 2 28-3 30-2 29-1 30-2 25 1 29"/>
<path d="M12640 14372l-2-26-13-21-21-15-22-12-24-3-23 10-23 15-18 19-16 22-9 25-3 28 5 29 16 23 22 15 24 15 25 15 24 17 26 17 27 17 22 16 19 17 15 20 6 27-5 26-12 26-15 22-20 21-23 18-23 18-23 13-22 10-25 6-27-4-23-15-9-23-1-24 3-29 5-33 12-35 8-24 12-23 13-24 14-22 16-19 21-24 19-18 18-17 23-16 26-14"/>
<path d="M13112 14398l-19 17"/>
<path d="M13336 14270l 26-8 29-3 25-2 25-1 26-1 29-2 25 0 24 2 0 26-11 27-12 23-9 26-9 28-9 30-8 31-9 31-9 31-11 31-8 30-8 27-9 23-12 29-10 25-10 25"/>
<path d="M13965 14189l 8 26 11 26 8 25 9 24 9 24 13 23 12 22 12 24"/>
<path d="M13852 14547l 26-9 28-7 29-7 32-4 25-2 26-1 31 1 24 1 29 1"/>
<path d="M13999 14672l 16 21 23 16 17 18"/>
<path d="M14482 14255l 5 25-4 27-9 28-13 24-10 22-17 27-14 23-16 24-11 21-5 26 19 17 28 2 27-2 32 0 30 0 32 0 34-1 31 0 28-1 25 1 30 1 25 0"/>
<path d="M14588 14468l-9 25-6 28-2 27-4 24-2 26 1 27-1 26-3 25 0 30"/>
<path d="M15100 14457l 21-13 28-6 29-2 31-1 29-2 29-3 29 0"/>
<path d="M15628 14224l-8 26-4 29-5 25-5 27-5 29-3 33-6 29-4 29-5 27-5 26-4 24-1 30"/>
<path d="M15886 14310l-24 11-15 19-9 24-10 28-4 30 4 24 10 25 13 22 19 19 21 16 21 12 25 6 25 5 30 1 25-1 27-11 25-15 18-20 13-24 8-26 1-25-2-28-6-31-14-25-18-22-22-12-23-7-27-4-25-2-29 4"/>
<path d="M2100 16528l 25-11 23-7 29-10 24-8 23-7 25-8 24-7 29-8"/>
<path d="M2138 16612l 21-16 27-9 29-8 26-6 29-7 31-8 35-8"/>
<path d="M2741 16310l 24-14 28-6 28-7 25-8 25-7 24-5 29-7 24-5"/>
<path d="M2755 16314l-22 11-14 21-6 26-7 28-6 25 0 25 2 30 9 26 17 21 26 10 28 0 25-6 28-9 28-8 25-10 29-8 26-7 26-5 28 0 27 3 23 13 22 18 15 25 8 28-1 24-12 29-14 23-18 22-23 22-24 18-26 13-28 12-30 10-30 7-30 3-29 2-25-2-27-6-28-10-17-19"/>
<path d="M3349 16470l 22-14 23-9 27-8 24-10 24-7 28-7"/>
<path d="M3412 16342l 7 25 2 27 2 25 3 28 3 26 3 27 6 25 4 24 9 22"/>
<path d="M3878 16225l 19-17 26-9 24-3 26-2 26 1 27-1 25 1 31 1 22 9-1 25-22 18-23 17-25 15-25 18-23 17-22 17-23 15-19 16 25 17 30 5 28 4 32 3 34 3 35 5 33 8 27 10 24 10 20 16 12 23-2 27-14 25-18 23-24 25-28 22-31 18-21 12-30 14-29 10-29 7-26-2-15-19 9-26"/>
<path d="M4463 16231l-7-24-13-23-20-15-25-5-29 6-25 10-26 17-22 20-13 24-7 28 3 26 13 21 24 16 24 7 26 2 27-2 26-3 24-3 24-7 23-8-9 24-7 25-9 25-10 25-10 29-9 27-9 28-3 27 1 26 5 31 11 25"/>
<path d="M4808 16384l 23-14 28-9 25-7 26-6 25-6 27-9"/>
<path d="M4897 16275l-14 25 0 28-2 29 2 26 6 28 7 25"/>
<path d="M5459 16081l-19 22-14 20-16 28-14 25-11 31-10 24-9 26-10 28-11 31-9 31-8 32-6 33-6 31-4 30-1 28 0 25 5 32 9 27 16 21 27 15 24 7 28-1 32-5 29-12 25-13 21-15 21-19 12-24-9-23-26-16-28-10-25-6-27-2-27 2-25 4-29 8-23 11"/>
<path d="M5791 16397l 26-14 30-5 26-4 23-8 29-5"/>
<path d="M5822 16292l-19 15-8 25-2 26 5 26 5 28 8 30"/>
<path d="M6309 16250l 28-2 30 5 28 2 29 3 28 4 27 7 25 8 29 10 20 20 1 28-13 27-19 21-29 23-20 14-20 15-23 13-31 19-22 12-29 19-23 18-18 17-17 24-1 26 19 21 26 7 26 0 29-1 31-7 35-8 25-9 27-11 26-11"/>
<path d="M6754 16248l-24 7-16 23-10 25-5 28-3 25 3 27 7 26 19 16 25 3 30-1 31-1 24-4 24-5 29-6 26-5"/>
<path d="M6811 16332l-12 23-4 29 2 27 4 29 2 31 1 25 2 31 7 28"/>
<path d="M7156 16426l 19-20 25-6 25-3 28-2 26 0 31 1"/>
<path d="M7647 16240l 11 26 3 30 1 28-1 32-5 36-4 25-5 30-4 26-4 27-7 29-4 34-1 31 4 25 7 24"/>
<path d="M7810 16289l 27-12 25-5 29 0 30 2 29 4 30 9 24 13 20 19 6 27-10 23-18 20-22 16-26 17-30 18-31 16-31 13-28 15-26 14-22 17-3 26 23 14 26 4 32 0 28-3 29-6 33-7 24-5 36-6"/>
<path d="M8409 16290l 20-14 27-3 26-3 28-3 28-4 28-3 26-1 25-3"/>
<path d="M8541 16180l-14 20-3 27 3 24 6 26 9 32 7 23"/>
<path d="M8842 16086l-2 30 0 28-2 27-3 29-3 34-1 25-3 25-4 26-5 26-7 25-6 35-6 32-1 31-1 25"/>
<path d="M9110 16080l-12 24-12 23-13 27-10 31-9 24-11 22-8 28-3 24 2 26 19 18 29 4 28-2 34-3 25-4 25-3 25-3 35-6 32-5 28-6 25-5 27-7"/>
<path d="M9250 16170l-13 22-6 27-1 26 4 28 5 24 5 24 5 24 6 24 8 25"/>
<path d="M9609 16261l 24-8 24-3 28 0 32 3 25 6 25 4 31 7"/>
<path d="M10203 16079l-5 29-2 32-4 27-3 30-4 32-4 35-5 23-5 25-4 24-8 32-7 29-6 27-3 27"/>
<path d="M10456 16152l-27 11-18 21-15 25-7 27 3 30 12 24 21 26 24 20 27 17 32 11 31 8 31 3 28 2 28-1 25-4 27-10 23-15 13-25 6-24 6-25 0-26-6-28-13-28-13-28-16-25-18-19-28-16-26-8-30 2-31 6-22 10-23 12-24 18"/>
<path d="M2168 17900l 20-17 22-9 28-7 31-5 30-1 29 2"/>
<path d="M2188 18009l 23-14 25-3 31-3 29-2 27 0 27-1"/>
<path d="M2856 17571l 23-11 27-6 28-8 29-8 28-10 26-10"/>
<path d="M2900 17521l-22 11-21 18-17 23-11 21-9 25-6 26-5 24-4 25 1 25 7 25 17 20 27 4 29-6 28-11 23-8 24-9 27-7 26-8 25-6 27-2 25 1 30 5 24 13 18 17 4 28-8 26-11 21-15 25-21 25-23 25-25 19-24 19-26 14-29 11-32 5-32 4-30 3-27-3-29-10-18-17-2-25 12-27"/>
<path d="M3332 17629l-25 19-23 22-13 20-10 24-7 29 0 28 5 23 12 22 16 18 23 12 25 6 27 3 28-5 28-6 25-10 24-11 24-18 17-25 9-26 1-30-8-24-14-21-19-22-22-21-24-18-23-11-23-8-28-6-27 1-22 15"/>
<path d="M3731 17673l 22-11 25-5 24-4 30-4 25-1"/>
<path d="M3796 17581l 1 27 1 29 3 27 3 28 6 27 7 25"/>
<path d="M4231 17471l 5 26 0 26 3 24 0 28 0 29 0 31 0 31 0 32 0 34-3 35 0 25-1 33 0 29 4 28"/>
<path d="M4423 17525l 24-8 24-5 31 1 24 4 27 4 25 6 25 9 26 12 17 16 10 25-1 25-10 24-19 24-24 21-22 15-25 16-26 17-25 17-23 13-20 14-20 15-19 18-13 21 23 9 26-1 32-4 26-6 29-7 30-8 30-8 29-9"/>
<path d="M4932 17606l 23-6 25-3 28-4 30-7 24-6 28-6 24-5"/>
<path d="M5010 17482l-14 22 0 26 0 28 5 32 3 27 1 28 3 29 2 25 6 31"/>
<path d="M5507 17425l 2 28-7 28-8 27-8 25-10 26-9 27-9 28-4 24 0 25 20 16 29 6 24 2 28-1 29-5 31-5 31-3 30-9 29-8 26-9 24-8 27-10"/>
<path d="M5630 17510l 11 24 3 28 5 24 0 31-1 26-1 28-2 28-1 27-1 28 1 29 3 28"/>
<path d="M6275 17553l 23-9 29-5 28-3 31-3"/>
<path d="M6277 17648l 27-9 28-6 31-5 27-4 31-5 32-7 35-9"/>
<path d="M6847 17334l-29 2-23 14-24 21-19 21-16 28-10 23-10 24-9 27-8 28-7 32-5 30-2 29 0 29 1 25 6 25 15 32 17 24 20 18 22 16 24 8 26 4 31-5 25-12 24-16 18-17 10-25 0-24-14-21-25-17-24-9-26-4-25 1-30 4-27 9-23 16"/>
<path d="M7195 17366l-23 9-23 20-18 23-20 28-13 21-12 21-11 23-8 24-7 25-4 35 3 34 11 30 14 29 16 20 19 17 24 11 29 5 27 0 27-2 27-6 25-16 19-21 6-28-14-25-24-16-24-11-26-5-25-6-26 0-31 1-24 4"/>
<path d="M7842 17589l 11 26 11 26 11 24 15 21 19 17 25 13 29-1 24-12 17-18 17-23 16-26 16-32 15-32 11-34 6-23 8-25 7-24 9-24 10-32 9-28"/>
</svg>
