<svg xmlns="http://www.w3.org/2000/svg" viewBox="1713 3149 8941 3539" stroke="black" stroke-width="16" stroke-linecap="round" stroke-linejoin="round" fill="none" data-xena="0 0 0"><style>@media(prefers-color-scheme:dark){svg{background-color:black;stroke:white;}}</style>
<path d="M2377 3591l-1 0 14 21 24 2 24-5 24-11 23-13 23-13 22-14 24-15 24-17 24-17 23-17 22-16 13 26-2 29-3 28-6 32-8 36-7 25-6 25-6 25-5 27-7 27-6 27-7 28-7 26-7 29-6 29-8 27-6 27-5 24-10 30-2 24-3 25-1 24"/>
<path d="M2768 3524l 0 0 27-10 27-13"/>
<path d="M2993 3284l-1 0 3 28 5 27 2 31 2 26 0 29 0 31-1 33-2 33-2 28-2 25"/>
<path d="M3169 3706l 0-1 23-6 29-5 25-6 27-6 23-6 25-5"/>
<path d="M3167 3777l 0 0 26-2 23-6 27-6 28-3 25-5"/>
<path d="M3161 3892l 1 0 26-3 28-3 28-3 27-1 28 0"/>
<path d="M3599 3501l 0-1 20-14 28 0 27-2 27-4 28-5 25-7 25-7 26-8 25-12 22-11 26-12 23-10 14 22-7 32-8 29-8 33-6 23-7 25-9 24-7 26-6 27-7 29-6 29-5 28-5 27-5 25-1 27-6 35-4 33-6 27-5 24-2 27-3 27-4 27"/>
<path d="M4625 3266l-2-2-25-9-25-2-24 0-25-1-27 0-25 0-26 2-11 22 6 26 7 26 3 28 1 32 1 27 0 30-1 31-1 34-2 34-1 35-1 36-2 37-2 38-2 39-2 38-4 38-2 38-3 38-2 38-2 38-4 35-4 33-3 29-3 26-1 33-1 28 0 24 0 24 16 19 25-3 29-4 27-2 27-1 27-2 26-1 24 0 25 0 25 9"/>
<path d="M4809 3551l 0 0-7 30-2 31-2 28 0 34-3 35-2 25-2 28-3 25-2 25-3 25-2 35-3 32 0 28 0 29"/>
<path d="M4907 3578l 0-2 19-18 29-8 29-5 31 0 29 3 26 5 26 11 20 19 10 22-3 31-7 23-11 24-13 24-18 26-19 25-22 27-21 28-22 26-19 26-16 26-12 23-8 24 12 21 28-6 24-8 28-10 28-12 31-15 32-14 31-13 30-10 29-10 27-10"/>
<path d="M5257 3347l 0-2 19-16 25-5 26 0 25 0 28 0 25 3 27 2 23 7 12 22 3 30 0 26 1 32 3 27 2 29 2 30 2 32 3 35 1 27 2 26 0 27 0 29 0 28 1 27 0 26 2 26 0 35 1 35-1 32 1 28-1 30 1 24 0 27-4 25-8 23-21 16-27 6-27 7-25 7-28 8-27 5-25 3-27 0"/>
<path d="M2079 6048l-1 0 24-5 27-8 25-7 26-9 28-12 26-9 27-9 25-8 22-8 27-8 26-7 26-7"/>
<path d="M2257 6021l 0-2 2 27-2 29-4 28-3 28-2 29-2 31-5 32-6 33-5 25-6 26-6 26-6 26-7 23-6 31-6 23-3 24"/>
<path d="M2058 6523l-1-1 21-12 26-9 30-7 25-4 27-3 27-3 28-6 27-2 28 2"/>
<path d="M2602 6213l-1 0 24-3 28-3 25-6 28-5 25-5 26-8"/>
<path d="M2698 6121l-3 0-8 23 0 30 3 28 1 30 0 25"/>
<path d="M2788 6429l 0 0 19-22 18-21 20-21 25-25 16-19 19-20 16-21 18-24 18-23 17-27 18-25 17-28 17-28 14-26 14-27 12-25 9-25 8-23 10-28 9-24-3 30-1 30 4 35 6 36 5 25 7 24 7 23 10 34 12 33 11 29 10 28 11 25 11 22 13 25 17 21"/>
<path d="M2978 6253l 0 0 27-6 31-4 25-3 26-4"/>
<path d="M2100 5791l-2 0-26 3-21 14-21 22-16 20-19 25-15 20-14 22-14 24-17 27-17 31-17 34-17 33-16 37-13 37-12 39-10 39-9 40-3 40-5 39 0 38 2 35 4 34 11 30 13 28 18 27 20 22 24 19"/>
<path d="M3326 5791l 2 1 20 17 21 24 20 21 20 23 22 28 15 19 14 20 14 21 12 21 13 23 12 25 11 24 11 25 8 27 6 29 5 29 0 30-1 29-5 31-8 32-12 33-13 32-14 32-15 29-14 27-14 27-17 23-14 23-14 22-21 25-17 20"/>
<path d="M4054 5737l-1-2-25-3-24 12-23 13-25 20-25 25-16 21-16 22-15 25-15 26-14 28-13 30-13 33-9 34-8 36-7 37-5 38-5 39-3 37-2 39 0 38 0 37 0 35 4 34 2 28 6 25 6 24 10 26 10 25 14 26 17 19 23 14 26 3"/>
<path d="M4089 5995l 0-1 25-7 26-3 32-5 28-4 30-7 30-5 27-6 26-3 28-4"/>
<path d="M4224 5983l-1 0-7 25 0 25-4 32-2 26-1 28-2 29-3 33 0 33 0 31-1 32-2 31-4 29-3 25"/>
<path d="M4088 6396l-1-1 26 3 27 1 28 2 31 3 31 6 25 3 31 4"/>
<path d="M4493 6218l-1-1 24-6 25-4 29-6 25-4 29-7 30-5 25-4"/>
<path d="M4761 6369l 0-1 20-13 18-20 17-24 21-28 16-22 16-22 17-24 17-25 16-25 15-27 13-27 13-29 11-28 9-27 7-26 8-24 9-31 7-26 4-26-6 24-2 26 2 28 6 32 9 33 11 33 12 34 10 35 11 33 11 30 11 25 10 24 12 25 10 22"/>
<path d="M4886 6190l 0 0 28 1 27-3 25-3 28-3 29-3 29-6"/>
<path d="M5125 5810l-1-1 25 16 20 15 25 17 29 18 21 15 22 17 22 17 23 19 20 18 20 19 16 19 17 22 16 20 14 21 14 23 14 32 9 32 4 33 0 24-4 36-8 26-9 27-11 29-13 29-15 28-16 27-17 24-16 24-16 21-20 23"/>
<path d="M5944 5745l-2-2-26 1-22 14-22 19-18 17-18 24-20 28-14 22-14 23-15 26-13 26-11 28-10 29-9 30-5 29-5 30-2 30-2 30 1 32 1 31 2 28 2 28 4 25 5 25 9 31 15 26 16 21 19 15 27 10"/>
<path d="M6033 5939l 0-1 27-5 28-6 25-8 30-8 32-9 32-10 32-8 31-8 28-4 30-5"/>
<path d="M6220 5927l-1 2-14 21-7 24-3 25 0 30 0 24 2 25 0 25 0 25-1 25-6 26-6 25"/>
<path d="M6030 6280l 0 0 25-3 24-2 24 1 29-1 32-3 24-2 25-1 30-2"/>
<path d="M6485 6060l-1 0 28-4 30-5 29-5 31-5 25-4 31-2"/>
<path d="M6910 6214l-2 2 16-23 16-19 22-22 15-20 16-20 18-22 16-24 18-24 16-24 16-25 14-25 12-24 10-25 9-24 7-23 7-32 3-27 3-27 15 27 7 26 10 29 9 32 10 32 12 34 13 31 14 33 14 29 13 29 12 26 10 24 11 28 10 25"/>
<path d="M7054 6046l 0-1 27-7 28-4 25-4 25-3"/>
<path d="M7366 5799l 0-1 22-11 26 3 24 2 23 5 16 19-19 20-22 16-26 11-24 9 25 11 25 5 25 3 27 2"/>
<path d="M7622 5641l 0 0 20 18 19 19 20 21 18 18 21 18 21 19 20 20 19 22 15 23 13 27 9 30 8 30 5 30 2 29-2 31-4 35-8 32-12 29-17 29-12 21-14 21-15 20-14 20-15 19-21 26-19 22-21 20-21 17"/>
<path d="M6558 5986l 0 0-10 22-4 28 0 26 1 28 2 27 0 26-1 26"/>
<path d="M8261 5603l 0-1-23 14-18 17-17 20-16 23-18 25-14 22-15 22-16 25-17 29-10 23-10 23-10 25-9 26-8 25-7 26-6 26-6 25-4 25-3 25-3 34 0 32 3 29 6 25 6 23 7 27 10 23 8 24 10 22 12 21 15 21"/>
<path d="M8416 5755l 0-1 21-13 24-9 23-8 28-8 24-6 25-6 27-4 26-4"/>
<path d="M8526 5758l-1 0-18 20-6 27-6 27-5 28-3 26-4 27-4 28-5 27-6 24-6 25-6 24-13 25"/>
<path d="M8286 6138l-1 0 24-3 28-2 24-1 30 1 31-3 31-3 28-3 25 0 26 0 26 2"/>
<path d="M8740 5974l 1 0 26-5 26-5 28-7 25-6 25-6"/>
<path d="M8843 5867l 0 0-6 25-3 25-2 30-1 25 1 25 2 24"/>
<path d="M8943 6124l 0-1 17-17 24-17 23-18 28-22 19-17 19-18 20-19 17-19 17-21 16-21 14-22 12-23 10-22 9-23 9-34 8-29 6-24 6-24 7-24 13 23 6 30 4 27 7 31 7 31 9 30 11 29 10 31 11 28 10 27 10 25 11 24 10 22 11 22 15 20"/>
<path d="M9169 5977l 0-1 23-7 25-3 31-6 24-6 23-6 30-7"/>
<path d="M9543 5644l 1-1-3 25-11 26-8 23-6 25 9 23 27 1 26-3 26-8 26-9 24-10"/>
<path d="M9627 5671l-1 0-8 26-2 26-1 27 0 26 2 24"/>
<path d="M9728 5522l 0 0 23 11 21 16 20 18 21 22 20 22 19 21 18 23 16 25 17 25 19 26 13 20 12 22 10 24 8 26 5 29 4 29 2 29-2 28-3 29-5 28-6 26-8 26-8 23-13 29-16 27-17 22-16 19-21 17-27 10"/>
<path d="M9283 4677l 1-1 16-18 16-20 15-22 15-22 18-26 19-31 14-22 12-24 15-26 12-27 11-28 10-29 9-29 9-26 7-25 11-31 8-27 7-23 20 18 12 31 9 28 10 31 13 35 9 24 8 26 9 24 12 34 12 32 10 31 9 29 9 28 5 25 4 30 3 27"/>
<path d="M9428 4536l-1-1 17-22 24-10 25-9 31-7 25-6"/>
<path d="M9886 4341l 1-2 18-16 27-2 27-1 33-2 26-1"/>
<path d="M9902 4416l 1-2 18-15 23-10 27-6 28-4 24-5"/>
<path d="M10440 4099l-2 0-25 8-17 19-15 19-17 25-18 31-13 25-12 27-11 27-9 29-9 29-7 31-6 31-3 30 0 30 3 25 5 23 12 29 18 22 23 16 27 11 28 5 28 1 27-1 26-7 24-10 25-17 18-22 5-25-8-23-22-24-23-18-27-13-30-7-28-1-30 4-30 9-29 10-23 11-22 15-15 21"/>
</svg>
