<svg xmlns="http://www.w3.org/2000/svg" viewBox="1500 1950 15789 13261" stroke="black" stroke-width="16" stroke-linecap="round" stroke-linejoin="round" fill="none" data-xena="0 0 0"><style>@media(prefers-color-scheme:dark){svg{background-color:black;stroke:white;}}</style>
<path d="M1729 2491l-2-28-6-26-26-2-19 17-14 22-15 30-10 23-9 28-8 30-7 32-5 32-4 34-1 34 0 37 3 37 6 36 8 34 11 30 15 26 16 21 18 17 28 18 31 10 32 3 34-3 22-9 22-11 22-15 19-17 19-20 20-21 19-23 17-25 12-24 10-25 8-34 1-32-5-32-11-31-16-32-13-22-15-23-17-23-15-22-18-21-16-20-18-18-26-21-24-15-28-11-25 0-23 10-18 22"/>
<path d="M2199 2898l 6 23 24-6 24-19 22-24 16-19 17-22 17-26 19-27 17-28 18-27 15-26 16-26 12-25 10-24 8-25 6-24 6-36 1-33-3-33-8-28-9-24-16-24-24-2-18 18-16 24-15 33-7 26-8 30-5 34-3 36-2 37 0 39 2 38 4 39 6 38 7 36 9 33 12 31 12 26 15 23 23 25 24 19 25 12 25 7 29-1 23-10 15-19 7-25 1-27-9-31-13-22-16-22-17-17-18-16-24-15-24-10-24-5 17 20"/>
<path d="M2668 2655l"/>
<path d="M2687 2843l 13 23 14 20 16 23 13 20 11 24 9 29 7 25 6 31 6 33 3 24 3 35 0 25 0 25-2 36-3 34-7 32-10 25-12 21-18 19-26 12-28-3-25-10-22-18-22-23-15-20-13-22-10-26-8-29-6-29-4-32"/>
<path d="M2871 2711l"/>
<path d="M2902 2793l"/>
<path d="M3325 2955l 25-3 25-16 22-20 18-18 19-22 20-23 19-25 19-27 17-27 16-27 15-27 12-26 11-25 8-23 9-34 7-34 2-34 1-31-1-25-3-25-6-24-18 18-10 28-8 28-9 34-11 38-10 42-9 44-10 46-6 47-4 24-2 25-3 25-1 25-3 25 0 24-1 25 1 24 0 25 2 25 1 24 4 47 6 45 7 41 7 36 8 32 8 27 12 30 15 23 25 2 12-31 6-24 4-27 2-30 0-29-3-31-4-30-7-30-9-30-9-29-11-29-10-28-10-25-10-23-14-31-12-22-14-22 25 13"/>
<path d="M3717 2774l-19 19-11 22-5 26 0 28 8 25"/>
<path d="M3736 2615l 5 26 6 25"/>
<path d="M3817 2789l-6 25-1 27-2 26 12-22 8-23 9-24 11-26 16-23 18-17 25-9 21 14 6 26 3 26 2 30 4 25 15 25"/>
<path d="M4144 2727l-21-13-25-2-21 13-18 19-16 23-11 21-8 24 1 26 21 16 28-10 24-19 19-20 19-23 17-26 14-27 12-29 9-31 7-31 5-31 2-31-1-35-2-34-2-34-4-34-3-30-5-24-6-24-19 20-7 24-7 32-5 36-3 27-1 29-1 31-1 31 1 32 1 31 2 30 3 29 5 26 5 27 9 32 11 27 13 22 20 19 26 11 24 1"/>
<path d="M4851 2924l 1 26 27 4 25-3 22-10 22-16 22-21 19-23 18-24 15-23 11-24 8-22 7-28 1-28 2-28 2-25 17-17 23 9 25 13 23 16 21 15 12 21-6 27-9 23-13 24-16 21-14 21 24 11"/>
<path d="M5306 2754l-25 5-16 24-15 23-3 25 12 23 24 10 28-5 25-10 25-13 22-17 20-21 8-26-10-26-17-17-23-11-25-3-25 2-1 24"/>
<path d="M5623 2696l-27 2-23 9-24 12-21 16-19 16-15 19-4 27 13 24 26 11 26-2 25-8 22-10 20-13 22-19 11-24-6-26-19-20-21-12-25-7"/>
<path d="M5862 2394l 2 29 2 29-2 30-5 25-6 29-5 33-7 35-6 24-7 24-7 24-7 25-8 24-6 23-6 32-2 26 2 24 20 13 24-6 26-16 22-16 19-17 18-18 15-20"/>
<path d="M5821 2614l-29 7-27 10-24 11 31-5 26-7 28-10 33-9"/>
<path d="M5977 2697l 23-13 25-16 22-12 20-16 22-19 20-17 19-22 16-24 5-25-24-5-15 22-6 24 0 28 5 28 12 24 15 20 15 20 12 22 0 26-15 22-24 13-24 9-25 1-25-1 25-12 28-8 26-5 29-6 26-3 29-3"/>
<path d="M6892 2667l-27 3-17 21-14 25-10 29-6 27 1 27 14 20 27 11 30-6 22-10 22-14 20-16 20-20 11-27-4-26-19-16-25-8-24 3 25 7 22-10 29-17 25-17 29-19 20-16 21-15 22-18 19-19 21-19 18-21 19-20 17-19 14-21 13-21 10-23 8-22 6-24 6-35 3-31 2-25-6-25-24 9-20 27-19 32-12 25-12 30-11 34-12 36-9 43-12 46-6 24-5 26-5 27-5 27-6 27-5 28-6 28-5 27-5 28-4 28-4 28-3 26-3 26-2 24-2 24 0 43 2 37 5 33 7 28 11 23 15 27 18 17 23 14 22-16 7-29 4-31 1-24-1-27-1-26-2-25-3-25-3-34-2-34-3-29-5-29-3-25 13-21 26-2 30-2 29-2"/>
<path d="M8054 2618l 5-24 14-25 14-21 20-20 22-17 25-13 25-4 23 9 18 18 10 25 8 31 7 25 4 27 6 28 4 25 6 28 8 24 16 22 21 11 28-4 28-17 24-22"/>
<path d="M8405 2450l-24 8-21 16-22 20-17 20-21 25-22 29-18 23-19 23-18 22-18 24-17 21-16 20-17 26-13 24"/>
<path d="M8596 2271l-23 14-17 22-14 21-13 24-6 26-2 25 6 23 16 21 25 11 25 2 28-3 23-10 16-18-10-25-25-13-27-4-26 1-24 10"/>
<path d="M8786 2584l 24 2 28 1 24-2 28-6 26-4"/>
<path d="M8887 2524l-17 18 1 26 4 25 3 26"/>
<path d="M9137 2477l 25-7 20 18 17 19 14 22 9 24 10 25 13 27 12 27 11 24 12 21 17 17 20 15 30 1 25-10 25-19 21-24"/>
<path d="M9377 2437l-25 11-20 18-18 18-14 20-17 25-20 26-19 27-17 27-17 27-12 22-8 24"/>
<path d="M9532 2275l 28-1 24-4"/>
<path d="M9554 2302l-19 18-8 24 10 23 25 5 25-6 26-4 25-2 25 5 2 24-18 21-18 16-22 15-23 11-22 10-24 9"/>
<path d="M9771 2512l 24-8 27-7 26-8 24-9"/>
<path d="M9810 2452l-7 24 3 26 5 24 5 28"/>
<path d="M10119 2452l 20-17 23-10 26-3 24 7 21 18 12 25 7 26 2 32 1 28 2 26 6 29 6 27 14 25 14 20 23 9 24-3 26-16"/>
<path d="M10370 2434l-25-2-23 14-18 19-18 23-15 21-18 23-20 28-21 29-14 21-20 28-17 27-16 21-10 25"/>
<path d="M10521 2224l-17 18-10 23-5 24 3 24 23 16 30 7 24-1 28-6 29-5 28-6 24-6"/>
<path d="M10585 2281l-14 21 1 27 6 27 5 25 5 26"/>
<path d="M10797 2481l 24-8 30-6 28-5 29-5 28-8"/>
<path d="M10875 2406l-14 20-6 26 1 24 6 28 8 25"/>
<path d="M11081 2446l 14-23 16-22 18-17 25-17 28-9 28-2 24 8 19 18 8 28 3 30 1 27 2 27 0 29 2 31 1 31 3 28 6 31 13 26 15 18 27 8 26-8 23-13"/>
<path d="M11410 2349l-27 5-23 15-24 22-16 19-21 24-15 24-21 26-23 28-16 20-16 21-15 19-20 28-15 23-14 24"/>
<path d="M11555 2242l 27-8 25 2 24 6-8 25-20 14 7 24 16 20 8 24-15 20-23 12-24 6-25 4"/>
<path d="M11718 2471l 25-2 30-3 31-5 30-7 27-7 25-8"/>
<path d="M11819 2400l-22 12-10 25 5 24 14 25 11 24"/>
<path d="M12139 2422l 5-23 22-13 25-4 24 3 21 15 19 23 11 26 8 23 5 24 5 25 6 28 4 27 5 24 7 28 11 26 20 18 26-1 24-10 23-13 23-17 19-17"/>
<path d="M12453 2340l-25 5-22 12-22 14-18 17-21 22-21 23-20 23-21 26-16 19-18 20-16 23-19 20-15 20-19 26-14 22-12 22"/>
<path d="M12520 2252l 27-2 29 1 30 3 25 3 25 5-15 22-22 13-23 15-21 13-16 21 9 23 24 2 24-2 25-3"/>
<path d="M12777 2439l 27 0 27-3 29-5 26-6"/>
<path d="M12823 2383l-2 27 6 25 11 23 16 22"/>
<path d="M12999 2399l 5-23 18-17 21-12 23-15 25-6 27-2 27 6 21 13 17 17 18 23 12 29 8 26 10 28 6 25 3 26 5 27 8 26 12 21 22 12 28-4 23-10"/>
<path d="M13348 2325l-22 14-19 16-20 18-15 19-23 19-25 22-19 15-19 15-20 14-18 16-19 16-18 16-24 24-18 18"/>
<path d="M14001 2149l-8 23-2 25-1 25-3 26-3 31-6 31-4 33 0 34-1 35-2 36-5 25-4 35-3 24-2 36-4 33-2 30-1 26-1 31-2 28-4 25"/>
<path d="M13526 2449l 27 1 24 2 25 0 24 1 26-1 27 0"/>
<path d="M14316 2380l 24-2 28 1 31-2 28-2"/>
<path d="M14351 2449l 27-2 28 0 31 0 25 1"/>
<path d="M14959 2272l-27-5-25 10-20 17-18 17-20 22-18 25-16 28-12 30-9 29-5 31 1 29 7 28 11 25 15 23 19 20 23 16 26 14 29 9 28 5 33 1 33-3 34-5 32-9 30-10 27-14 23-17 17-19 15-20 12-23 6-23 2-25 0-26-6-25-10-26-14-24-17-23-21-20-22-16-27-13-28-11-30-8-26-6-25-3-25 0-24 5-24 8-25 17"/>
<path d="M15693 2413l 23-12 25-8 30-3"/>
<path d="M15631 2479l 28-2 25 0 28 0 33 0"/>
<path d="M16159 2405l-2-24 22 15 24 7 28-2 24-8 25-14 21-14 19-16 16-18 18-21 17-22 16-22 11-23 9-28 13-29 12-30 9-28 8-24 5-25 5-26-27 6-16 18-18 24-16 28-10 22-12 25-11 28-14 30-12 33-13 37-10 37-7 38-8 39-4 39-3 37-2 37 0 38 2 34 0 34 4 31 3 29 7 27 6 25 9 33 10 27 14 25 17 18 25-14 14-24 9-24 7-30 2-32-1-34 0-38-3-25-5-28-5-28-8-26-7-26-13-32-13-25-18-23-18-18 11 25 23 7 30 3 26-1"/>
<path d="M16692 2137l-27-1-18 20-19 29-16 25-16 30-12 22-10 23-10 25-12 25-8 25-8 28-6 28-5 27-3 26-1 25 1 36 7 32 8 28 14 20 15 25 17 18 23 10"/>
<path d="M16674 2377l 16-20 26-1 25 4 22 11 18 20 8 26 8 28 6 28 12 24 19 18 25 13 29-1 25-8 25-13"/>
<path d="M16904 2365l-24 14-25 17-20 17-20 18-22 22-19 24-18 23-14 21-11 23"/>
<path d="M16966 2125l 25 17 22 17 18 18 19 19 18 21 18 23 21 25 20 27 19 25 15 25 11 27 7 26 1 28-4 30-10 31-17 32-13 22-17 23-17 21-19 22-19 20-22 21-23 20-22 18-23 17-22 15"/>
<path d="M2327 4427l 22-12 23-8 25-5 28-5 25-4"/>
<path d="M2386 4485l 23-12 29-9 28-9 26-6 26-9 27-9"/>
<path d="M2518 4245l 17 17 22 10 26 9 30 7 24 5 32 7 28 4 27 8 22 14-2 27-16 18-23 19-20 13-22 14-21 14-20 13-24 18-19 20"/>
<path d="M3009 4617l 26-11 22-19 21-24 16-18 18-24 21-27 22-29 24-32 23-33 24-31 20-35 20-32 15-33 13-33 10-33 7-32 6-32 3-32 1-31 1-30 1-27-2-24-4-29-10-27-22-14-23 12-14 20-15 34-12 31-9 35-8 39-8 42-5 43-6 47-3 25-4 25-3 25-2 25-2 27-1 26-2 27-1 26 1 27 0 26 1 25 1 27 2 25 2 24 2 24 6 46 6 42 6 37 7 35 8 28 8 26 14 29 16 23 25 3 10-22 6-29 7-37 2-28 0-29-2-30-4-30-5-29-7-29-8-30-9-28-11-28-9-26-9-24-11-29-15-25-17-18 21 17"/>
<path d="M3518 4073l-25 3-13 21-13 25-13 31-9 25-10 28-8 28-8 31-8 32-6 34-5 36-4 36-4 36-1 35 0 35 1 32 6 30 5 27 10 32 14 25 15 19 19 18 24 13"/>
<path d="M3534 4418l 9-25 21-14 26-8 26 5 19 17 15 23 12 28 9 27 7 23 8 28 8 24 10 23 15 20 19 17 25-2 22-19 19-22"/>
<path d="M3750 4403l-20 15-21 20-17 19-18 22-21 28-21 27-20 26-16 23-13 28"/>
<path d="M3855 4110l 8 23 18 25 21 24 19 18 17 21 21 24 19 25 20 26 18 26 16 28 15 30 9 28 5 32-1 33-6 32-10 31-16 32-14 21-16 19-17 19-16 18-18 16-24 23-24 19"/>
<path d="M4229 4352l 26-6 27-3 30-3"/>
<path d="M4233 4433l 22-10 26-2 25-2 28 1 29 0"/>
<path d="M5059 3641l-6 23-5 28-6 25-7 29-7 31-5 24-4 27-5 27-3 28-4 28-3 27-4 26-3 29-4 26-5 27-5 24"/>
<path d="M5353 3864l 24-6 26-3 28-5 29-3"/>
<path d="M5768 3820l-5-25 13-22 18-19 20-14 20 16 9 22 9 25 4 25 4 29 5 27 6 29 5 27 9 24 13 23 17 19 20 16 26 6 25 0 24-7 25-9 22-16"/>
<path d="M6011 3754l-18 20-15 22-15 22-15 20-16 24-18 25-19 26-20 27-19 28-18 27-16 26-14 25-14 27-12 22-11 23"/>
<path d="M6157 3563l 23-10 22-10 24-6 23-7 9 24-9 23-11 22-11 24-10 25-11 22-7 25-2 24"/>
<path d="M4894 4355l 20 16 24 7 25 4 26 0 25-4 27 0 24 0 24 0 25-2 25-4 25-3 25-4 30-3 25-2 25-3 26-2 25-3 28-3 28-3 30-4 27-2 26-3 24-2 33-3 27-2 29-2 25-3 25-2 24-2 31-2 29-1 29-2 31-2 27-2 25-2 27-3 24-1 27-1 24-1 25-1 25 1 27 0 29 0 25-1 27 0 25 0 26 1 26 2 27 2 24 0"/>
<path d="M5140 4629l-11 25-5 30-5 31-6 28-7 29-8 33-6 32-5 31-7 30-6 30-7 28-7 27-6 25-8 27-5 27"/>
<path d="M5324 4806l 24 5 26 2 24-2 26-3"/>
<path d="M5773 4747l 10-23 23-12 25 10 20 16 13 23 12 27 8 27 6 30 6 32 7 28 9 25 12 27 16 22 22 16 25 3 25-9 19-16"/>
<path d="M5978 4719l-23 16-16 22-11 25-11 23-11 25-14 29-13 31-12 21-10 22-16 33-8 23-11 22-10 22"/>
<path d="M6603 4342l 27-4 24-6 24-5 26-6 25-4 25-2 27-2 25-1"/>
<path d="M7066 4119l 19-16 24 0 28 5 26 3 29 6 28 7 27 10 23 12 22 13 19 17 16 25 6 25-3 28-11 23-16 25-21 26-23 25-23 24-18 17-19 15-19 17-19 16-22 16-22 17-21 16-22 16-28 19-23 18-21 16-21 19-17 18 26 11 27-5 31-8 26-5 27-5 26-5 27-3 26-1 25-2 30 1 28 4 29 3 24 6 2 25"/>
<path d="M7893 4342l 23-5 29-5 27-3 26 0 29 3"/>
<path d="M7951 4420l 26 2 26 2 28-2"/>
<path d="M8669 4080l 1-27 10-23 16-24 14-21 17-20 21-15 24-9 24 13 14 22 5 24 4 25 4 27 4 28 4 28 4 25 7 28 14 20 15 22 24 7 25-8 23-11 24-16"/>
<path d="M8997 3904l-26 5-22 17-23 21-19 21-21 25-22 27-16 19-18 20-16 20-19 20-18 20-17 20-16 18-19 23-17 24-10 23"/>
<path d="M9143 4007l 22-10 26-9 28-4 28-4"/>
<path d="M9502 3957l-2-25 12-23 23-17 21-18 22-14 23-11 25 1 9 24 1 28-1 29-3 24 0 26-1 27-1 26 0 26 2 27 7 29 9 24 12 25 17 18 27 6 32-9 22-12 23-13 22-18 21-18"/>
<path d="M9801 3825l-23 14-18 24-17 23-20 28-22 29-15 22-16 22-17 24-16 23-17 23-16 22-16 22-15 21-14 21-20 26-15 21-16 21"/>
<path d="M9932 3679l 24-5 28-4 25-4 25-4 25-2 2 25-12 24-16 22-15 23-16 20-17 21-14 20"/>
<path d="M8584 4422l 26-8 24-3 28-2 27-1 27-2 33-1 25-2 26-1 25 0 30-2 35-1 35-2 25 0 25-2 26 0 26-1 27-1 28-1 29-1 29-2 28 0 29-1 31-1 32-1 35-1 33-2 32-3 30-1 29-2 31-1 30 1 28-1 28-1 27 0 28-1 27-1 25 0 24-1 34 0 32-1 26-1 25 0 27 2 26 0 25-1 26-3 24-1"/>
<path d="M8914 4594l-14 23-11 23-10 22-10 25-11 25-10 26-7 26-10 27-11 28-9 27-9 26-8 30-7 25-5 26"/>
<path d="M8995 4775l 23-7 28-4 26-4 26-4"/>
<path d="M9346 4695l 15-21 19-16 24-14 22-10 25 3 19 19 10 24 7 26 10 25 9 25 13 22 17 23 18 17 21 15 22 10 25 3 24-8 20-15"/>
<path d="M9636 4593l-22 11-23 19-18 17-17 21-18 22-19 24-22 26-16 19-22 27-19 28-14 23-13 27"/>
<path d="M10244 4410l 28 2 27-3 29-5 27-5"/>
<path d="M10730 4120l 4 25-1 27-1 25-3 28-2 31-4 31-4 34-6 35-6 35-7 35-6 35-5 23-4 25-7 35-6 32-6 28-6 28-6 27"/>
<path d="M11091 4298l 23-5 25-4 28-5"/>
<path d="M11105 4387l 27 8 30 3 28 2"/>
<path d="M11699 4398l 1-25 11-23 16-21 20-19 20-13 24 0 22 12 15 22 10 25 8 23 5 27 4 28 6 30 8 30 6 28 7 25 10 27 14 25 17 16 24 9 28-1 27-8 23-9 21-13 22-14 19-17"/>
<path d="M12046 4261l-19 17-14 23-18 24-15 21-17 24-20 26-21 29-15 22-14 22-15 21-15 22-17 20-13 21-20 28-16 25-17 22-17 25-14 23"/>
<path d="M12574 3779l-23 17-18 21-15 23-17 28-18 30-18 32-13 22-13 26-12 28-11 29-11 30-11 31-9 31-9 34-8 34-6 33-5 35-5 36-4 36-2 36-1 35 0 34 1 34 3 31 5 31 5 28 5 26 6 24 9 33 10 30 9 28 11 22 12 27 11 24 12 23 14 23 16 23 17 17"/>
<path d="M12898 3717l-7 27-4 25-5 24-4 30-4 31-6 25-7 25-8 24-8 24-8 23-7 28"/>
<path d="M13014 3901l 24-7 26-4 24-3 30 0 26 2"/>
<path d="M13429 3882l 11-23 19-17 21-12 25-11 25-7 26 2 21 16 10 23 4 24 5 29 5 28 8 23 9 22 8 23 15 20 24 8 26 0 30-6 27-9"/>
<path d="M13759 3763l-24 4-21 16-20 22-18 19-20 22-23 25-16 18-18 17-17 18-22 27-21 25-18 25-14 20-14 23"/>
<path d="M14000 3580l-19 15-19 23-13 23-9 24-4 24-3 24-1 28 6 25 18 19 26 9 25-6 22-14-1-25-18-19-25-8-26 5-22 13"/>
<path d="M12729 4232l 28-5 24-3 34-3 30-4 25-2 27-4 31-5 37-4 39-5 42-4 47-5 48-4 25-3 25-1 28-2 26-1 26-2 26-1 26-2 26-1 25 0 27-3 26-1 25-1 25-1 25-2 25-1 47-3 46-3 44-2 42-2 39 0 35-2 33-1 29 0 29-2 26 0 36 1 26 0 25 1 26 1 24 0"/>
<path d="M13029 4408l-14 20-9 25-4 28-6 32-8 24-5 24-6 26-6 25-7 25-8 25-7 25-6 25-6 27-7 27"/>
<path d="M13192 4576l 25 2 26 0 30-3 24-1"/>
<path d="M13581 4553l 15-20 19-15 21-15 24-8 22 14 13 21 6 25 7 26 6 26 7 23 14 24 21 17 27 2 24-9 25-16"/>
<path d="M13826 4461l-24 7-20 17-18 21-19 21-20 26-19 21-18 21-20 23-18 22-14 21-15 22"/>
<path d="M14204 3757l 16 21 15 22 15 22 17 24 17 26 20 30 13 21 13 22 12 24 10 24 13 24 9 25 7 25 6 24 4 27 4 26 1 26 1 26 0 27-3 28-3 28-4 28-8 28-8 28-8 27-12 29-10 29-11 29-12 29-13 30-12 28-13 26-12 26-14 23-12 23-11 22-14 30-15 26-15 22-16 23"/>
<path d="M14817 4253l 23-5 29-4 24-2 30-3 25-1"/>
<path d="M15358 3904l-3 25-4 29-4 30-5 36-4 27-5 28-5 31-6 33-7 34-8 36-7 36-9 37-5 36-8 35-6 33-7 34-6 29-5 30-4 28-2 25-5 32-3 25-2 26-5 27"/>
<path d="M4010 6545l 24-5 29-6 32-6 31-5 29-5"/>
<path d="M4019 6641l 25-3 30-5 28-3"/>
<path d="M4625 6726l-3-24 18-17 24-6 25 0 26 9 19 17 14 24 11 25 6 29 5 24 2 26 2 24 2 26 2 26 3 25 4 31 4 28 7 27 11 22 23 13 27-5 29-13 23-17 23-19 19-21"/>
<path d="M4962 6627l-23 11-19 19-19 21-15 20-18 25-20 30-15 22-15 24-15 25-17 25-17 26-18 27-15 26-16 26-14 24-14 22-16 30-12 24-10 24"/>
<path d="M5556 6113l-23 14-13 22-16 26-15 26-17 32-12 25-13 27-14 31-14 33-14 35-13 38-13 40-13 41-10 42-8 42-7 43-5 42-3 42-3 40 0 38 0 37 3 37 5 36 5 36 8 34 7 32 9 31 9 29 10 27 9 26 9 23 11 23 16 32 15 28 14 23 17 26 17 20 18 15"/>
<path d="M5703 6286l 12-22 21-12 24-9 26-8 25-4 25 3 17 19 8 23 6 28 3 26 4 27 4 30 4 32 4 31 7 25 10 25 16 21 25 10 28-4 25-13"/>
<path d="M6042 6164l-21 13-18 20-19 24-18 21-18 23-22 27-23 28-18 20-17 19-18 22-19 21-16 22-15 20-17 28-15 22-15 21"/>
<path d="M6204 5977l-17 20-15 27-10 23-10 26-6 26-3 24 5 29 8 26 13 22 22 13 24 3 28-6 21-13 14-20 5-27-9-23-22-16-26-1-24 10-23 18-14 22"/>
<path d="M6416 6332l 27 4 28 0 29-1 29-2 31-3"/>
<path d="M6762 6135l 6 27-1 31-2 28-4 31 0 25-1 27 0 25 2 24 0 25-1 26-1 31 1 26 3 28 2 25"/>
<path d="M5670 6760l 25-11 25-7 32-5 28-2 32-2 26-2 27-1 30-3 32-2 32-1 35-3 37 0 39-1 40-1 42 0 42 0 43 0 43 1 43 1 43 1 39 1 40 1 38 2 37 1 38 2 35 1 32 2 31 2 28 3 29 3 26 3 25 3 35 5 32 5 30 6 24 3 26 5 26 1"/>
<path d="M5976 7076l 11-23 19-14 25 1 12 22 4 25 5 30 4 26 6 28 8 25 7 24 12 26 15 22 23 15 28 4 27-7 20-12"/>
<path d="M6218 6995l-23 8-20 18-20 21-17 19-16 22-18 23-19 28-21 29-14 21-15 22-13 20-13 20-18 28-15 26-12 21-9 26"/>
<path d="M6368 7129l 25-2 27 0 24 0 24-3"/>
<path d="M6732 6970l-8 27-2 26-1 24-2 28-1 30-3 29-1 28-3 25-5 25 3 25"/>
<path d="M7001 6141l 22 14 20 16 20 15 21 17 25 21 19 15 18 17 18 18 17 18 23 29 16 19 16 20 18 32 13 22 10 22 12 23 10 24 7 23 6 25 4 26 5 26 2 28 0 27 1 29-2 29-4 28-3 29-5 27-6 27-5 26-8 27-7 27-9 27-8 28-7 25-9 25-8 25-8 23-8 24-12 32-13 32-14 26-10 24-15 26-13 24"/>
<path d="M7732 6733l 26-8 24-5 25-3 24-2 27-2 29-2"/>
<path d="M8256 6411l 3 29 3 28 2 26-1 29 1 36 2 27 1 30 0 32 0 34-3 35 0 36 0 35 0 36 1 35 0 36 0 35-1 34-2 32 0 29-1 29 0 26 0 35 0 28 1 31 0 26"/>
<path d="M8755 6626l 24-11 28-7 28-7 25-5 27-4"/>
<path d="M8788 6716l 24-11 28-4"/>
<path d="M9308 6416l-5-24-26 13-23 22-19 22-20 26-19 28-18 30-14 31-9 32-2 31 1 31 7 28 14 23 20 21 24 16 27 14 28 11 27 8 26 4 24 0 24-4 25-7 22-9 24-13 22-16 18-20 18-20 16-21 14-22 12-24 9-22 7-24 1-24-3-26-6-25-10-23-13-22-22-23-25-20-21-10-29-9-30-4-28-2-28 0-27 3"/>
<path d="M3087 8626l 23-11 29-6 28-3 28-6 30-4 29-3 28-2"/>
<path d="M3124 8691l 26-5 26-3 28-2 25-2 28-2"/>
<path d="M3298 8492l 23 9 26 8 28 8 26 6 23 8 25 9 23 13 20 15 5 25-14 20-17 18-21 19-21 21-19 17-18 20-13 21-13 22"/>
<path d="M3957 8774l 5-28 11-24 13-21 16-21 19-15 24-4 17 23 6 25 4 24 3 28 2 33 2 24 1 25 3 24 2 24 5 33 8 30 9 28 11 25 9 21 16 25 18 19 26 15 29 4 24-3 27-11 21-14 20-19"/>
<path d="M4256 8652l-26 11-20 19-21 19-24 25-17 19-18 21-19 23-21 24-20 25-22 27-20 26-20 28-19 25-15 25-14 24-15 29-8 30"/>
<path d="M4452 8762l 27-4 27 0 24-1 27-1 27-1"/>
<path d="M4914 8446l 2 24 3 25 3 31 2 25 3 30 3 31-1 34-2 24-4 26-4 26-5 25-5 26-6 26-5 25-4 24-7 32-1 26 2 25 7 25"/>
<path d="M5313 8575l 27-8 31-1 28-1 28 1"/>
<path d="M5331 8657l 24-5 30 0 28-1 24-2 25-1"/>
<path d="M5871 8645l 11-23 19-19 22-12 27 1 22 10 19 16 17 22 13 22 13 24 11 22 13 24 14 24 12 21 14 22 16 19 20 19 23 9 27 0 26-9 22-11"/>
<path d="M6187 8532l-21 14-26 20-19 19-18 21-20 22-22 25-15 19-14 20-15 21-16 22-13 21-15 21-12 22-17 30-11 27-10 27"/>
<path d="M6336 8302l 23-12 24-6 24-5 27-4 27-1 19 16-11 24-10 24-9 26-9 24-9 23-7 25"/>
<path d="M6608 8591l 24-1 24 0 25 0"/>
<path d="M6971 8561l 9-24 18-18 21-13 24-7 23 7 15 20 10 27 8 28 5 28 8 28 11 26 12 24 12 22 16 19 21 16 26 9 28 5 28-2 26-8 22-14"/>
<path d="M7288 8474l-22 12-14 25-14 26-14 24-13 22-17 25-19 26-20 27-18 27-20 28-17 28-15 25-13 23-14 27-10 22"/>
<path d="M7804 8418l 24-2 24-3 25-4 30-3 28-2"/>
<path d="M7825 8506l 26 4 25-1 26-3 25-3 28-6 30-6"/>
<path d="M7996 8318l 22 12 23 13 27 12 26 14 26 11 21 11 19 16 9 25-9 23-18 21-22 19-21 17-19 15-18 16"/>
<path d="M8446 8426l 16-20 20-16 27-3 27 7 21 14 19 19 16 25 11 22 10 27 6 30 5 31 5 31 5 28 4 24 9 24 19 20 24 7 27-6 29-14 23-14"/>
<path d="M8715 8386l-18 16-12 23-13 27-12 26-13 22-13 26-16 27-16 27-19 26-16 25-17 23-11 21-10 22"/>
<path d="M8887 8175l 21-11 25-7 26-5 24-2 10 23-8 25-6 25-8 26-2 25-5 27-4 25"/>
<path d="M9278 8396l 26-11 28-6 29-5"/>
<path d="M9592 8156l 24-9 29 1 29 5 26 4 30 6 29 7 26 10 22 18 8 27-6 29-16 28-18 24-25 26-18 18-20 17-20 18-20 16-20 16-19 15-29 22-26 20-24 19-21 17-23 19-16 17-12 21 24 11 26-4 28-7 30-8 25-7 25-7 26-8 28-8 28-5 25-4"/>
<path d="M9899 8320l 4-24 23-10 26 0 27 10 18 19 16 24 8 25 3 27 5 28 2 28 3 27 4 26 6 28 11 25 18 18 24 11 29 1 26-9 27-15"/>
<path d="M10185 8273l-23 9-23 17-20 19-18 18-20 22-22 25-16 17-19 18-17 18-23 25-21 23-15 26-7 26"/>
<path d="M10439 8312l 23-11 25-3 28-3 31-3 28-1 29-2 26-5"/>
<path d="M10528 8215l-13 21-3 24 0 28 0 29 0 28 2 29 4 28"/>
<path d="M10872 8027l-2 28-5 27-3 26-7 30-5 34-5 25-4 25-5 28-6 27-5 28-4 27-4 27-2 28-3 25-5 33-2 30-5 26-8 27-6 25 7-28"/>
<path d="M11144 8220l 23-8 25-3 25-2 25-1 28-2"/>
<path d="M11128 8284l 26 2 28-2 28-3 29-4 30-4"/>
<path d="M11625 8106l-25 1-14 20-13 25-9 24-11 28-11 32-10 33-6 35-3 35 2 34 8 31 11 25 14 22 15 19 23 18 24 12 26 5 24 0 26-4 28-9 27-15 28-17 24-19 22-23 20-25 18-26 14-30 10-32 9-33 5-35 0-34-7-30-10-28-14-24-16-20-20-17-23-14-28-12-27-8-27-5-26-1-25 1-28 3-26 7"/>
<path d="M2369 10292l 26-8 26-3 24-5 29-7 29-8 27-8 27-7"/>
<path d="M2409 10366l 27 0 30-2 28 0 24-3 27-3"/>
<path d="M2536 10158l 24 11 24 10 28 9 25 7 23 11 21 15 8 24-2 29-10 26-12 21-12 21-11 21-16 26-14 23-13 24-14 21"/>
<path d="M3128 10488l-13-23-4-25 4-25 10-28 11-22 11-23 13-21 13-22 18-22 23-10 22 8 15 25 9 30 6 28 6 29 4 30 5 32 5 31 6 30 9 28 9 25 10 23 10 22 12 28 17 22 21 11 27-4 23-16 18-19 19-24 15-26"/>
<path d="M3480 10198l-23 16-16 20-15 22-17 27-19 31-14 24-13 24-13 26-12 27-14 25-13 26-12 25-13 27-10 25-10 25-9 25-13 31-8 26-4 27"/>
<path d="M3658 10022l-14 20-12 23-12 28-8 24-7 25-3 24-2 29 5 25 12 22 25 12 27 0 25-9 20-15 5-23-18-18-26-3-27 9-20 14-11 21"/>
<path d="M3839 10384l 27-8 25-5 26-7 26-10"/>
<path d="M3887 10299l-11 25-3 28 6 29 8 28 11 26"/>
<path d="M4281 10351l 7-23 24-4 24 8 21 21 17 25 12 25 9 26 9 30 7 29 10 30 6 26 7 26 11 28 17 23 21 15 29-5 24-17 21-23"/>
<path d="M4566 10239l-22 13-19 19-17 20-20 25-15 19-17 21-16 22-18 22-17 23-16 23-18 25-15 25-15 25-15 26-13 24-11 22-12 30-5 25"/>
<path d="M4764 10089l 22-13 26-10 25-7"/>
<path d="M4764 10103l-23 11-14 22-2 25 10 22 22 14 27 1 24-6 24-9 25-9 26-2 24 3 12 23-21 19-23 16-28 14-26 12-26 10-26 3"/>
<path d="M4981 10264l 27-8 25-12 22-10 22-13"/>
<path d="M5033 10179l-11 24 0 25 4 27 5 25 11 25 13 24"/>
<path d="M5285 10278l 2-27 16-21 20-17 23-14 25-8 25 4 19 19 15 24 9 25 5 23 5 25 6 26 6 25 6 24 9 28 12 24 17 23 21 14 27 6 24-9 20-18"/>
<path d="M5564 10181l-22 11-20 17-19 24-18 25-14 23-14 25-16 27-16 28-17 28-14 24-11 28"/>
<path d="M5702 10038l-13 21-7 27 2 25 11 25 22 11 30 2 30-5 25-7 23-8 22-8"/>
<path d="M5789 10076l-19 19-7 23 2 25 3 24 5 23"/>
<path d="M6054 10376l 24-3 27-5 27-3 30-6 31-8 29-9"/>
<path d="M6139 10259l-5 24 1 28 2 25 4 27 3 26 6 27 9 25"/>
<path d="M6362 10230l 14-21 23-14 27-4 22 9 20 20 14 21 13 24 13 29 9 23 6 24 6 25 6 23 7 24 6 27 10 27 17 18 23 8 30-10 21-14 21-19"/>
<path d="M6629 10122l-21 16-20 20-16 18-17 22-20 21-18 24-20 29-17 31-12 21-16 30-14 28-11 26-12 28"/>
<path d="M6754 9902l 18-17 27-9 26-7 27-5 25-4 25 6 1 26-23 16-25 15-25 13-24 13-21 13 26 4 28 0 26 1 25 2 25 3 25 7 0 24-17 17-24 18-22 12-26 11-24 7-25 5"/>
<path d="M7034 10136l 27-2 25-6 27-8 26-7"/>
<path d="M7084 10047l-17 19-5 24 1 25 2 27 4 28 3 25"/>
<path d="M7468 10096l 14-22 24-8 28-5 24 3 25 11 20 15 11 23 9 24 11 26 4 30 2 32 1 33 2 35 1 32 3 28 6 30 11 22 18 17 25 8 24-7 28-16 24-19"/>
<path d="M7776 10042l-21 11-21 16-22 24-16 24-18 26-18 30-13 20-13 22-13 24-15 26-13 27-14 28-14 28-12 26-11 23-14 30-6 28"/>
<path d="M7903 9941l 23 8 23 10 16 22 2 25-13 23-21 15-20 13 17 19 28 3 28 1"/>
<path d="M8146 10176l 23-9 26-8 24-10 22-11"/>
<path d="M8186 10075l-14 20-1 27 4 29 6 25 6 25"/>
<path d="M8330 10091l 17-21 24-10 25-5 26 0 24 5 23 13 17 22 12 26 10 24 8 26 4 29 4 27 6 26 6 26 8 26 16 21 22 13 29 2 25-7 24-10 21-16"/>
<path d="M8642 10038l-26 3-22 16-22 22-19 24-17 24-17 25-17 27-16 26-15 26-14 26-12 25-10 26"/>
<path d="M8938 10039l 21-11 29-4 28-4 27-1 27 0"/>
<path d="M8974 10092l 27 9 27-3 24-4 27-7 28-7"/>
<path d="M9343 9839l 5 29 6 30 4 28 3 29 5 32 4 35 3 25 2 24 1 25 3 35 1 35 2 36-2 25-2 24-5 25-4 25"/>
<path d="M13045 11416l 25-1 31-1 27-3 33-1 28-2 28 0 29-1 32 0 34 0 35 0 40 1 43 1 44 1 47 3 25 1 25 1 25 2 26 2 27 2 26 1 27 1 28 2 27 2 29 2 29 1 29 2 30 2 29 3 30 2 31 3 33 1 33 3 32 2 34 1 34 2 36 1 36 3 37 2 38 1 37 3 38 0 40 3 40 2 40 2 41 2 41 1 41 2 44 2 43 2 45 1 45 2 45 1 46 2 47 1 47 2 45-1 47 2 47 2 48 0 46 2 48 1 47 2 48-1 48 3 48 1 46 2 47 1 47 1 46 1 45 2 46 4 45 1 44 2 43 3 44 1 43 3 44 3 41 2 42 1 42 3 42 3 41 3 38 3 40 3 38 3 37 2 35 2 32 3 34 2 33 2 32 2 32 4 31 3 29 3 31 3 30 3 25 3 25 3 44 0 39 4 31 4 30 4 24 7 29 4"/>
<path d="M14804 9561l 6 27 6 26 4 30 3 29 4 35 2 27 1 30 1 33 2 35 3 38 4 40 6 41 3 44 5 46 3 24 5 25 2 27 2 26 3 28 2 27 3 31 3 30 2 33 1 32 4 33 3 34 2 33 4 37 3 35 3 36 7 37 3 37 3 38 3 38 4 41 4 40 3 39 3 40 1 41 4 41 4 42 5 41 3 41 4 42 5 42 5 44 5 42 4 42 5 43 4 42 4 44 4 43 4 42 4 41 2 41 5 43 3 42 4 41 4 41 4 40 5 41 4 42 5 41 5 39 5 40 4 40 5 39 5 40 5 40 5 37 5 39 5 38 4 37 5 36 4 36 4 36 4 32 4 33 3 32 4 31 4 30 5 29 4 28 3 25 4 28 4 25 4 25 9 44 7 42 8 37 5 35 2 27 6 31 9 25"/>
<path d="M14999 11479l 22 11 24 3 26 0 26 0 30-2 29 0 29-2 25-2 27 1 29-1 28-4 29 1 30 3 31 3 24 0 26 2 25 0 25 4 26 3 29 6 29 4 30 2 31 2 30 5 31 2 33 1 35 1 30 1 32-1 35 2 30 1 26 1 30-1 30-1 26 2 25 1 28 0 25 1 24-3"/>
<path d="M16096 11456l-16 21-2 25 3 26 15 21 27 0 20-14 10-25-1-24-10-24-24 0-18 21-2 24 19 15 26-8 7-24-17-19-25-7-25 4-20 18-6 25 3 24"/>
<path d="M15914 10363l-17 18 22 12 20-14-5-24-16-19-25-6-21 13-9 25 5 24"/>
<path d="M14308 10325l-13 21 20 15 23-10 14-21-11-24-22-13-26 0-21 12-18 21-10 24-9 27-2 28 5 28"/>
<path d="M13701 11461l 25-5 22-12 11-21-19-17-25-3-25 4-22 16-12 24 3 26 13 24 18 22"/>
<path d="M14351 12327l-17 17 2 24 25 4 20-15-4-25-19-15-25 3-12 24-1 25 8 25 22 14"/>
<path d="M15850 12427l 22 10 17-19-5-26-17-17-22 12-15 20-7 25 10 23 24 5 24-10 8-22-8-23-18 18"/>
<path d="M16085 10292l 3-24 17-20 19-17 23-12 24-8 25 5 19 15 7 26 7 26 3 24 5 25 10 25 8 25 13 22 18 18 23-6 21-14"/>
<path d="M16333 10144l-14 23-14 24-13 21-11 24-15 22-13 26-11 27-14 24-15 23-13 24-10 24-10 22"/>
<path d="M16497 10388l 3 27 5 23 7 26 2 25 3 25"/>
<path d="M13807 10032l-14-20 5-26 14-21 17-20 22-14 24-6 23 10 14 22 11 22 10 23 11 23 9 23 14 23 13 23 12 23 25 3 16-18"/>
<path d="M14053 9851l-20 13-15 23-11 21-15 24-12 22-13 24-14 25-14 28-14 27-13 26-13 27-10 26-8 28-5 27"/>
<path d="M14138 10078l-5 24 4 24 6 24"/>
<path d="M14150 9703l 24-5 27 6 19 16-11 22-17 18 10 23 25 0 24-1"/>
<path d="M13197 11126l 3-27 10-23 13-20 17-18 21 15 7 27 7 25 7 23 8 23 9 23 10 25 12 23 21 13 25-8"/>
<path d="M13384 10999l-21 17-13 20-14 21-10 22-13 28-11 22-10 25-10 25-9 25-9 31-5 27"/>
<path d="M13458 11214l-9 23-7 23 5 24"/>
<path d="M13445 10863l 23-8 28-3 25 1 19 17-9 23-19 16 6 24 25-2 25 5 14 19-9 24-20 16-25 6"/>
<path d="M13927 12686l 14-20 26-4 24 12 12 23 10 24 6 28 4 29 4 25 3 25 5 28 6 24 9 26 16 21 20 13 28-4 24-13"/>
<path d="M14176 12654l-25 8-21 14-21 19-19 20-17 23-18 27-16 28-18 28-16 28-15 31-12 29-12 29-8 24-7 28"/>
<path d="M14248 12946l-6 27-3 26 4 25-3 29 0 26"/>
<path d="M14397 12618l-12 24-14 23-5 24-4 24 1 25 17 18 26-3 26-5 26-1 25-8"/>
<path d="M14467 12642l-5 25-1 24-2 28 0 24 3 25-3 25"/>
<path d="M15706 12826l-1-26 6-23 15-19 21-19 23-13 24-1 23 6 19 22 10 21 10 27 6 23 4 27 4 30 10 25 12 25 7 28 7 23 15 19 24-8"/>
<path d="M15980 12695l-23 14-20 20-18 18-17 18-16 19-16 20-13 25-15 24-14 26-17 27-14 26-11 25-10 28-2 25"/>
<path d="M16121 12976l-14 22-8 26-3 26 2 25"/>
<path d="M16136 12597l 22-11 29-2 28-1 26 2"/>
<path d="M16187 12607l-23 9-15 20 2 24 19 17 25 10 25 2 26 4 24 9-13 24-22 17-25 11-25 10-25 1-24-5"/>
<path d="M16283 11846l 5-23 20-19 21-13 24 7 11 23 4 27-2 25 1 28 3 27 6 25 10 23 27 7 24-14"/>
<path d="M16424 11754l-18 17-23 16-23 17-21 20-21 22-21 22-19 25-13 20-13 24 0 25"/>
<path d="M16562 12019l-8 26 0 26 3 25"/>
<path d="M16645 11624l-17 22-9 25-7 26-6 25 5 27 9 25 17 19 26 3 26-1 14-22-11-23-10-22-26 5-14 20"/>
<path d="M16472 9824l 1 29 6 26 5 25 3 27 5 24-3 26-5 26"/>
<path d="M2839 12083l 5-27 9-26 10-27 12-25 13-22 18-20 21-11 20 17 9 27 5 25 3 26 6 30 6 25 5 26 5 27 6 28 7 24 9 29 10 25 16 25 19 16 25 6 25-9 22-20 18-21 17-22"/>
<path d="M3127 11852l-23 12-13 21-14 26-14 29-10 23-13 28-13 29-13 27-13 29-15 33-13 29-10 26-12 24-11 25-9 24-9 22-10 25-6 24"/>
<path d="M3343 12015l 21-14 27 0 25 0 28 3 29 2"/>
<path d="M3396 11952l-3 24 4 26 7 23 7 25 9 29"/>
<path d="M3610 11949l 5-26 15-22 22-14 25-4 25 5 21 11 21 16 18 19 16 23 15 27 10 23 8 25 7 28 6 29 5 31 5 27 7 25 10 25 13 23 17 22 24 10 27-1 23-13 17-17 19-21"/>
<path d="M3914 11834l-27-3-21 11-19 17-20 25-17 24-16 31-14 22-15 24-13 23-14 25-13 24-12 25-10 23-12 32-6 27"/>
<path d="M4028 11640l 20-14 25-6 28-7 23-6 25-8"/>
<path d="M4096 11600l-22 16-16 22-7 26 3 24 22 10 24 1 26-3 25-4 25-2 25 0 22 12 3 28-13 20-18 20-23 18-24 11-25 10-26 2-26-4-20-16"/>
<path d="M4553 11778l-22-11-24 7-25 11-21 12-22 14-21 19-23 21-18 18-16 19-18 26-10 22-6 24-5 30 0 30 11 25 16 19 20 15 24 11 27 5 27 0 26-3 25-7 24-6"/>
<path d="M4318 11968l 25 5 27 0 30 0 26 0 28-3 28-2"/>
<path d="M4822 11683l-5 23-4 33-5 30-4 32-4 35-2 24-2 25-1 25-2 25 1 28-2 26 0 25 0 24-3 32-2 30-3 28-4 28-6 26"/>
<path d="M4920 11629l-10 27-5 31-3 28-3 32-2 25-4 27-3 28-6 29-5 30-4 31-6 32-5 30-5 29-6 31-5 29-6 28-5 31-6 33-4 26-4 27-3 25"/>
<path d="M4856 11653l 20-20 29-9 27-4 29 0 28 2 28 5 25 6 24 9 22 11 19 17 10 25-8 27-14 25-21 23-20 18-21 18-22 17-22 16-24 13-21 12-25 13-21 15-21 12 25 5 24 3 25 6 24 11 24 10 26 15 23 19 24 19 21 18 21 21 18 24 15 20 17 20 14 23 15 19"/>
<path d="M2925 13070l 2-28 15-21 16-20 22-17 25-7 24-3 25 1 21 12 17 18 14 23 10 27 7 23 4 27 5 25 4 24 3 27 5 29 5 24 10 29 11 24 12 21 14 21 24 13 24 1 28-9 22-12 19-16 16-19 13-22"/>
<path d="M3245 12941l-16 24-11 24-13 20-13 25-14 29-17 30-12 21-14 22-13 20-14 21-12 22-18 29-14 25-17 25-12 23"/>
<path d="M3406 12752l 23-9 28 5 24 7 6 24-17 18-19 20-19 17-21 16 15 20 25 5 29 3"/>
<path d="M3615 13016l 27 8 24-3 27-3 29-4"/>
<path d="M3705 12918l-14 23-5 25 0 25 3 28 5 26 8 24 11 23"/>
<path d="M3990 13000l 6-27 14-21 19-16 25-7 19 14 16 20 12 21 7 31 4 26 4 32 4 32 5 31 5 30 6 29 7 29 8 25 12 26 19 22 27 10 27-6 24-10 25-16 23-21"/>
<path d="M4271 12919l-23 13-22 20-19 20-20 23-20 25-19 29-14 20-14 20-14 22-15 22-14 23-13 22-11 22-11 22-14 29-11 26"/>
<path d="M4410 12773l-12 23-8 25-4 25 1 25 15 19 24 8 26 4 25-2 25 0 25-2 24-6"/>
<path d="M4516 12797l-14 20-5 28-1 24 4 26 5 30 6 27"/>
<path d="M4836 12930l-25-2-24 12-19 16-18 19-15 21-10 23-6 25 2 27 14 24 20 14 24 7 27 2 30-4 24-9 24-13"/>
<path d="M4737 13027l 27-1 26-4 27-6 28-8"/>
<path d="M5087 12772l 9 23 3 30 2 29-2 26 0 26-4 30-6 33-7 24-5 26-8 33-9 32-9 30-6 27-7 25-8 25-5 24 9-29 8-27"/>
<path d="M5140 12739l-8 23-6 25-5 32-1 28-3 27-3 29-4 31-4 32-4 34-5 34-7 37-5 24-6 32-4 24-5 26-4 32-4 24 10-27"/>
<path d="M5109 12772l 5-26 22-11 25-9 24-4 29 0 28 2 27 6 23 11 21 16 12 23 4 27-7 25-15 26-14 20-18 23-18 21-19 19-25 18-21 13-25 11-23 9-26 9-26 7 28-7 30 1 28 1 29 7 29 9 30 12 27 15 24 18 22 22 23 21 19 19 14 20 12 24 12 24 10 22"/>
<path d="M2430 14200l 4-26 6-25 10-23 25 10 7 31 5 37 1 26 3 31 0 32 1 34 0 37 1 35 1 37 1 38 2 37 3 35 3 34 5 31 4 27 8 32 8 22 19 21 26-6 16-25 11-31 6-25 7-27 3-29 5-28 2-30 3-29 2-27 1-25 2-33 2-27 4-26 19 19 9 22 10 25 11 27 13 27 15 27 16 29 17 29 16 25 15 20 22 16 25 7 27-7 14-27 6-28 3-36 2-28 1-30-1-29-2-31-3-30-5-31-5-32-8-33-9-32-10-33-10-30-11-26-9-24-11-24-13-23"/>
<path d="M2969 13989l 8 27 8 23 7 24 8 29 5 23 5 28 4 29 3 33 3 35 3 38 2 39 3 42 2 41 3 41 2 40 1 36 2 35 1 30-1 26-2 33-3 26-4 25-5-28 1-31 2-35 3-34 5-32 6-28 6-25 9-27 11-22 16-21 25-6 13 22 9 28 8 29 4 32 5 31 8 26 9 25 20 13 14-20 10-24"/>
<path d="M3226 14462l-6 23-1 27 4 27 5 29 6 24 9 24 19 19 24 1 20-15 16-24 14-24 10-26 9-27 4-27 4-26 1-29-3-26-16 20 3 29 4 26 4 27 6 28 8 31 10 35 7 26 8 26 8 28 9 31 8 32 7 34 7 34 6 35 5 35 6 32 3 31 1 30 2 27 1 24-2 29-5 23-15 20-23-8-23-18-18-19-17-22-17-24-15-24-12-27-9-29-6-31 0-35 1-25 3-27 6-25 6-28 11-26 10-27"/>
<path d="M3964 14649l 16 18 20-13 19-22 18-28 16-26 14-29 14-31 14-30 11-28 9-23 8-24 8-23-3 25-1 29 2 25 5 30 8 26 14 20 24 9 23-6 24-19 18-22 17-28 10-23 12-28 6-24 5-25-3-25-3 27 7 23 13 25 12 28 15 26 15 26 14 23 15 25 10 25-3 25-22 13-28 1-24-3-27-5 26-2 25-7 27-12 23-11"/>
<path d="M4080 14248l"/>
<path d="M4081 14224l"/>
<path d="M4935 14670l 24-5 22-12 23-15 22-17 23-18 22-16 21-15 20-15 21-12 24-9 20-15 22-22 19-24 17-20 18-24 19-27 18-30 12-23 11-23 11-25 10-25 9-27 9-26 7-25 8-26 7-27 6-26 6-25 4-24 7-35 7-31 6-28 7-29 8-24-1 32-5 28-5 33-3 24-5 28-4 29-3 32-5 34-5 35-4 38-5 39-3 39-6 39-6 37-7 36-8 35-7 34-7 31-6 31-6 26-4 33-3 31 25-10 12-29 11-35 9-25 7-27 8-27 8-28 8-28 7-28 8-28 8-29 7-29 7-28 8-27 7-27 8-23 11-33 8-28 7-24 9-27 10 27-2 30-3 34-3 26-4 29-5 30-5 32-5 33-6 31-6 32-6 32-6 32-6 30-5 29-6 28-6 26-6 35-5 28-3 27 17-18 11-25 11-32 12-33 8-23 13-34 12-32 11-30 12-25 10-22 13-25 10-24 1 27 1 25 0 25"/>
<path d="M5576 14419l 13 20 4 25 1 28 2 25-2 30-1 28 0 28 4 24 24-9 13-20"/>
<path d="M5711 14360l-8 26-5 29-3 27-1 27 2 28 2 27 3 26 4 28 4 27"/>
<path d="M5691 14212l-12 23-1 29"/>
<path d="M5868 14410l-3-25-24-9-23 15-17 17-13 22-9 23 16 18 25 5 26 6 28 6 24 12 18 16 4 25-10 22-18 17-22 14-26 11-27 3"/>
<path d="M5128 14260l 27-8 25-3 31-4 28-5 29-6 33-7 35-6 25-3 25-4"/>
<path d="M6511 14385l-14 26-4 30-4 30-2 28-3 28 0 24"/>
<path d="M6520 14160l-14 21 0 27"/>
<path d="M6589 14413l-2 25 3 26 3 26 1 27 0 27-10-23 1-24 3-27 5-30 6-25 8-23 10-23 12-21 17-26 13-21 17-18 23-13 26-1 21 14 16 23"/>
<path d="M6803 14422l 8 23 10 26 7 26 3 26 2 25-1 25-6-24 0-29 4-30 5-30 9-30 11-21 12-25 12-24 15-21 19-18 23-10 25 3"/>
<path d="M7015 14450l 21-14 19-16 19-17 18-17 19-19 0-25-20-16-24-9-25 1-19 17-11 21-12 27-6 27-2 28 2 25 9 23 12 22 19 18 29 8 25-1 25-6 22-9 24-13 73-59 12-23 0-24-13-22-25 6-17 18-12 27-10 26-5 25-2 29 3 25 20 17 27-8 20-17 18-27 12-26 13-30 11-33 8-35 4-24 2-25 3-26 0-27 0-28 0-28-2-28-3-28-3-28-2-27-3-25-3-32-3-24-9-26-24 7-9 28-7 29-5 34-4 25-4 28-2 29-2 32-1 33 1 34 1 34 3 33 5 30 4 27 8 34 10 28 10 22 13 20 19 18 27 6"/>
<path d="M7905 14364l-5 26 2 24-2 28 0 25"/>
<path d="M7928 14216l-8 27 8 25"/>
<path d="M8025 14395l-8 26-5 24-5 24 19-21 14-24 16-25 15-23 16-21 22-12 8 25 6 27 7 25 3 29 2 25 7 26"/>
<path d="M8789 14345l 2 26 7 27 0 27-2 25-11-25 5-24 8-26 8-27 10-26 12-24 14-22 17-21 25-10 26 2"/>
<path d="M9052 14341l-16-21-20-16-25-6-25 11-17 21-13 22-8 25 9 25 24 7 26-6 25-10 20-13 16-20 12 22 23-12 17-20 20-25 17-23 19-25 17-28 16-28 14-30 13-32 8-33 5-32 3-30 1-27-1-25-5-25-6-23-14 26-6 26-4 27-3 31-3 25-3 28-6 30-4 31-2 32-1 32-1 32-1 32 1 30 1 28 3 25 6 30 7 24 12 22 21 14 24-3 24-19 17-23 11-23 9-22 4-30-4-30-13-29-14-24-15-21-17-20-23-19-22-12-23-9-28-2-20 13 27 4 27-4 28-6 24-6 23-5 32-6 28-3 25 0 24 6 9 25-3 25-4 27-5 29-2 28-1 25"/>
<path d="M9414 14008l-8 25 3 26"/>
<path d="M9474 14300l-5 26 3 26 16 18 25 3 24-11 19-15 13-20 2-25-14-22-19-20-23-13-21-16 16-18 22-12 25-2 23 13 13 25 7 27 5 24 1 26 25-10 13-21 13-21 14-23 14-22 20 14 2 27 2 28 4 24 13 20 20 22"/>
<path d="M9894 14233l-15-20-21-14-26 0-23 15-19 23-14 22-12 22-4 25 21 14 27-7 23-12 22-15 15-19-5 27 4 24 20 16 24-11 21-21 17-27 14-24 13-26 11-25 12-27 12-27 9-28 7-29 3-30 5-31 2-32 3-32 2-29 0-25-22 14-10 24-10 31-6 23-6 25-5 26-5 29-5 29-4 30-6 29-4 30-2 29-2 28 1 24 2 32 3 24 13 24 22 10 24-9 19-15"/>
<path d="M10143 14210l 10-22-27 1-16 19-15 22-7 24 21 13 26 13 25 11 24 14 21 14 20 16 8 23-21 15-24 7-25 0-25-2-25-6"/>
</svg>
