<svg xmlns="http://www.w3.org/2000/svg" viewBox="1435 1903 18272 11014" stroke="black" stroke-width="16" stroke-linecap="round" stroke-linejoin="round" fill="none" data-xena="1 -3 0"><style>@media(prefers-color-scheme:dark){svg{background-color:black;stroke:white;}}</style>
<path d="M15927 4288l-26 5-17 19-5 24 25 7 23-10 22-11-21-12"/>
<path d="M16579 4531l 6-29 4-26-1-24-6-26-12-21-20-15-26-6-24 1-27 7-21 11-20 14-17 18-16 20-11 21-8 25 6 26 27 12 26 0 26-6 27-10 19-19-15 23-7 27-6 30-5 24-4 26-6 27-3 30-7 30-8 31-13 29-9 30-13 30-11 30-17 29-19 26-20 24-20 18-21 14-28 9-27-2-26-14-18-27-11-25-6-27-4-30 2-33 6-32 11-31 16-29 21-27 24-25"/>
<path d="M16706 4413l-12 22-8 25-8 25-8 25-8 28 3 24"/>
<path d="M16856 4170l-22-10-9 24"/>
<path d="M17051 4062l-12 21-19 27-17 26-17 31-12 22-12 24-11 26-13 27-12 27-14 29-12 28-13 28-13 28-13 26-10 25-9 25-7 33-4 26 3 25 12 22 25 6 32-8"/>
<path d="M17168 4462l-10-25-20-17-26-6-25 9-26 12-20 13-24 18-19 20 0 24 20 15 27 2 25-4 25-8 22-10 21-14-12 24-8 28-9 29-8 25-7 27-10 30-9 25-10 26-11 26-13 29-16 28-18 27-18 25-18 22-17 18-22 16-27 8-23-15-8-30-1-25-1-29 7-31 10-33 11-23 11-23"/>
<path d="M17401 4480l-9-23-12-22-15-22-22-9-25 2-26 10-23 15-17 19-4 25 15 20 25 6 26 1 26-2 23-6 5 26 19 17 28-2"/>
<path d="M17541 4416l-23 8-16 24-7 24-12 23 22 12 26-17 24-19 21-21 20-20 20-17 20-13-11 23-16 20-13 23 21 14 25-18 21-15 21-13 21-15-3 28-10 24 4 25"/>
<path d="M17828 4444l 19-17 23-13 22-14 15-19-24-11-22 11-22 15-19 15-16 17-12 24 11 23 25 13 30 4 27 0"/>
<path d="M18106 4349l-23-8-22 11 7 25 21 17 22 18 19 17 6 24-21 13-26 5-29 1-27-2-24-5-22-10"/>
<path d="M18337 4076l-14 23-9 23-5 27-5 25-3 28-5 27-5 28-6 28-9 28-12 27-11 26-13 24-14 25-13 23 15-20 17-20 17-18 21-21 18-18 16-17 23-9 18 18 9 22-10 25-17 20-5 24-2 27"/>
<path d="M18558 4350l 26-9 24-5 34-2 30-2"/>
<path d="M18899 4206l 24-11 25 2 27 7 25 10 25 8 20 14-20 18-28 8-25 6-24 8 11 24 23 11 22 16 20 19 16 21 11 24-5 24-21 14-26 8-26 5-29 2-26 1-27-2-28-3-26-4-26-9-21-13"/>
<path d="M19237 4200l 9 24-1 28-5 30-7 28-8 23-9 25-8 23-8 27-15 29-12 28-9 24-12 23"/>
<path d="M9947 2431l 26-11 26 6 27 9 32 7 24 7 25 7 25 8 26 10 24 11 22 13 27 22 19 25 11 25-2 27-14 28-19 20-21 21-28 23-32 24-37 24-42 24-23 13-23 11-26 13-27 12-27 13-27 12-28 14-29 14-29 13-30 13-30 14-26 13-29 14-27 13-27 14-25 13-24 13-22 13-20 14-37 25-28 22-20 23-14 30 0 28 18 27 19 18 29 18 38 18 43 16 25 8 26 8 27 6 28 8 27 7 29 7 31 8 29 8 30 8 30 7 30 9 28 10 29 10 27 8 26 10 24 9 23 10 41 20 33 20 26 21 21 22 14 23 7 24 5 23-7 36-11 23-20 25-24 25-30 27-36 27-20 14-22 14-22 14-23 15-24 14-24 15-24 16-26 13-26 15-25 14-27 15-26 15-28 14-25 13-26 15-24 14-22 15-21 15-20 14-35 29-30 27-24 25-16 25-12 24-7 35 3 25 9 23 14 24 21 23 25 21 28 21 32 19 37 19 40 20 44 20 22 10 22 10 21 10 23 10 42 20 38 20 35 23 31 22 26 23 21 23 17 21 12 21 8 34-3 36-7 26-13 27-17 28-23 30-29 31-33 33-18 17-18 16-20 17-20 17-20 18-22 17-22 18-22 18-23 18-24 19-24 18-25 18-23 18-24 17-22 17-21 16-20 16-19 15-18 16-30 31-27 30-23 29-18 29-12 27-6 27-3 27 5 25 9 26 14 27 19 26 25 27 27 25 32 25 36 25 36 25 42 24 21 12 22 13 21 13 22 13 21 12 20 13 39 27 34 26 30 26 28 27 20 27 14 27 7 27 2 28-3 30-9 31-16 32-24 32-26 33-31 33-18 17-20 17-19 17-21 17-22 18-22 17-22 18-24 18-22 17-22 18-23 19-22 18-22 19-22 17-21 18-20 19-20 20-19 19-17 18-17 18-16 18-28 36-22 33-16 31-11 32-5 32 1 33 0 31 12 32 16 31 22 31 30 31 32 31 35 33 20 16 20 16 19 16 22 16 22 16 21 15 21 16 21 14 21 14 21 16 19 15 19 14 19 15 34 31 30 29 26 30 19 28 15 29 10 29 4 29-1 28-5 31-10 32-16 33-18 34-25 34-29 34-32 36-18 18-19 18-21 19-22 19-22 19-23 20-24 19-26 20-26 20-26 21-27 20-27 22-28 22-27 21-28 22-28 22-27 22-27 22-27 22-27 21-26 21-24 20-23 21-22 20-19 19-19 20-17 19-29 36-24 37-16 34-12 36-6 34-2 35 3 35 7 33 12 34 17 34 21 31 27 34 32 33 18 17 19 16 21 17 20 17 19 17 22 17 21 17 21 17 21 17 21 17 20 17 19 17 20 17 19 17 18 18 18 18 17 18 16 18 30 36 26 36 22 35 18 35 15 34 9 35 3 34-1 37-4 36-10 38-13 38-17 39-24 40-24 39-29 40-16 20-16 19-16 19-17 20-18 19-18 21-17 19-18 21-17 19-18 20-18 20-16 20-18 20-16 20-17 20-15 20-15 21-15 20-13 21-22 40-19 39-14 38-9 37-4 37-1 37 3 35 6 34 9 35 11 32 15 33 15 32 14 32 18 32 19 31 20 31 20 30 19 29 18 29 16 29 14 29 11 28 9 28 6 28 2 27 1 26-4 28-7 26-10 27-13 26-15 27-19 27-21 26-25 28-25 25-25 23-25 25-27 24-25 23-26 24-22 25-23 23-22 23-21 23-19 21-16 22-13 22-14 28-2 28"/>
<path d="M15936 4303l-21-15-24-10-25-5 12 22 25-3 19-14-25 3-22 16-6 23 23 8 24-7 8-24-17-19-20 13"/>
<path d="M12182 9580l 20-15-9 23 9 23 25 10 24-4 13-22-9-23-24-10-22 10-17 18 16 19 26-2 22-12 2-24-24-2-13 20 19 14-8-22-17 19"/>
<path d="M12109 10061l 28 2 30-4 28-6 30-8 23-5 28-8 25-7"/>
<path d="M12176 10057l-25 8-23 14-19 17-16 19-15 19-9 24 6 24 28 3 28-3 25-4 30-4 27-2 29 2 29 2 29 5 22 11 0 27-14 24-21 23-18 20-24 19-28 19-27 16-30 12-28 9-23 6-28 4-25 0-25-11-3-24"/>
<path d="M12529 10045l-17 20-6 28-5 25-3 32-2 25-6 28-7 26-10 28-10 30"/>
<path d="M12549 9037l 24-4 15-21 13-22 18-20 26-18 24-15 28-17 29-18 23-12 23-13 23-13 25-13 24-15 25-15 25-16 25-16 20-16 23-15 19-16 19-15 19-15 21-23 16-22 11-30 0-24-2-27-9-28-15-29-22-31-16-19-17-21-18-20-17-21-16-21-19-31-11-29-2-26 10-27 24-27 24-20 30-21 33-20 35-21 41-19 44-19 22-9 24-9 22-9 25-9 43-17 42-15 39-16 37-16 34-15 32-15 30-14 28-16 27-16 24-16 23-17 20-15 18-17 16-18 18-29 15-30 10-30 3-29 0-30-2-30-5-28-6-28-8-25-8-25-11-24-7-30 1-27 9-28 17-23 27-25 21-18 29-18 28-19 32-19 34-18 31-17 34-16 34-16 32-17 34-16 30-17 29-17 26-16 26-16 22-16 26-21 18-20 16-27 7-27-2-27-13-29-13-22-13-23-20-27-18-27-14-20-19-29-18-29-10-27-4-25 7-26 12-26 15-25 18-17 21-17 25-17 31-15 27-16 28-14 31-15 28-14 31-14 32-15 31-13 33-15 31-14 30-15 28-15 26-15 26-16 23-14 16-17 18-18 16-18 25-27 15-25 10-26 3-28 2-28 3-27-6-29-9-28-16-30-13-29-8-28-13-29-10-29-5-27-3-28 0-29 9-29 14-28 15-20 17-19 20-20 25-19 27-18 29-18 31-18 31-18 30-17 31-15 31-15 30-14 31-13 28-14 28-14 26-13 24-13 31-19 21-20 18-21 13-21 8-25 2-24-1-26-5-28-11-29-11-27-15-25-11-23-12-22-15-25-5-24 6-27 15-20 20-17 26-19 23-15 32-15 31-15 32-15 32-15 23-11 22-10 29-17 28-16 27-16 22-17 22-17 20-18 18-19 16-19 17-17 19-23 18-21 20-21 15-19 13-21 15-23 10-25 4-24-2-25 0-25-11-24-10-23-13-22-8-27-6-26"/>
<path d="M4658 8072l-20 17 1 27 21 16 25 1 27-8 22-16 0-24-23-15-27-2-23 12-8 24 10 23 24 9 26 0 26-9 17-19-2-27-16-20-23-9-24 7-9 24 5 25 16 20 23-9 0-24"/>
<path d="M4398 8537l 26-3 26-3 24-5 29-6 30-6 27-7"/>
<path d="M4466 8514l-25 11-21 13-26 18-19 16-17 17-21 22-14 22-8 23 3 25 25 5 27-11 23-9 25-9 28-3 28 5 22 10 20 17 11 23-6 27-19 23-18 16-26 18-24 13-23 11-27 10-26 7-24 8-26 5-25 1-19-14 6-30"/>
<path d="M4756 8540l-18 16-16 20-15 24-18 22-16 25-15 23-10 21-6 24 19 17 26 9 25 2 28 1 29 0 32-1 26-2 25-3 24-3 28-3 25-3"/>
<path d="M4882 8618l-10 23-7 29-5 26-5 27-7 30-4 28-5 29-5 31-5 28"/>
<path d="M2065 2750l-10-22-17 17"/>
<path d="M2271 2006l 14 23 2 25-2 27-5 25-8 27-12 31-9 22-11 24-11 25-11 25-11 25-12 25-11 24-10 23-11 28-6 24-3 26 1 25 21 17 28-3 26-7 30-7 30-6 29-4 26-3 29-2"/>
<path d="M2515 2347l-26 2-16 22-5 26 11 23 22 13 25 0 27-6 23-13 16-18-1-26-18-21-19-19-22-12 16-22 25-14 22-14 23-14 25-18 25-19 25-19 23-22 23-20 18-20 19-25 15-25 10-24 7-26 4-25-17 25-8 22-8 25-9 28-7 28-8 30-7 29-7 29-6 27-3 27-4 32-2 27 1 24 9 25 18 19 28 8 27 4 24 2 24 1 25 3 24 1 24 3 24 7"/>
<path d="M2209 3114l-2 24-9 24-5 24 14 23 19 22 19 22 19 16 19 18 21 20 19 23 21 23 20 24 19 26 20 28 20 28 15 20 14 21 15 21 13 22 13 22 11 22 13 22 12 22 13 23 12 24 12 24 12 25 12 25 11 26 12 28 12 28 11 31 13 28 13 31 14 30 15 30 14 32 17 32 16 30 19 31 19 31 19 29 22 31 22 31 23 32 23 33 23 34 24 35 25 37 25 36 23 36 24 39 24 38 23 38 22 38 21 38 20 40 19 40 17 41 16 39 14 40 13 41 10 41 11 41 8 41 8 40 8 39 6 39 6 38 9 37 9 34 12 36 16 34 17 33 18 33 21 32 22 33 23 31 24 31 25 30 25 30 25 28 26 30 25 29 25 29 27 29 26 29 26 29 26 30 24 29 24 29 24 30 22 29 21 31 20 28 17 28 17 27 15 26 14 26 12 25 12 25 9 25 7 24 6 24 4 24 6 35 3 35 3 35 2 35 1 24 3 36 6 34 7 33 9 31 10 30 12 29 16 29 18 29 21 29 22 29 15 20 17 19 15 20 20 27 19 26 15 26 15 26 13 26 10 23 9 30 6 29 2 28 1 28-3 28-4 28-4 25-5 26-3 26-2 27-4 27-3 28 1 27 3 26 8 29 13 28 11 21 14 22 15 20 17 21 17 22 18 21 19 23 21 25 21 30 16 22 12 25 14 28"/>
<path d="M16492 5266l 6 27-4 26-8 23-8 25-9 26-10 24-10 25-9 28-9 26"/>
<path d="M16765 5163l 19-19 23-8 26-8 27-5 25-2"/>
<path d="M16875 5127l-25 5-23 11-23 17-19 18-20 19-16 21-13 23-1 25 22 11 25 1 26-1 28-1 25-1 25-1 25 4 18 18-4 24-15 25-23 21-20 16-24 19-26 17-27 13-25 11-25 9"/>
<path d="M17276 5130l-17-19-25-10-25 3-25 9-25 12-27 15-22 14-16 19 17 21 26 0 28-7 28-9 24-9 16 19-9 25-9 22-9 25-13 28-12 28-10 22-9 22-12 30-6 28"/>
<path d="M17333 5413l"/>
<path d="M17625 5428l"/>
<path d="M17866 5455l"/>
<path d="M18188 5453l 23 11"/>
<path d="M13711 10111l 11-23 25-7 25 2 25 3 26 8 28 9 24 12 12 23-8 24-16 25-21 21-23 23-19 16-25 22-24 25-20 22-16 21-11 23"/>
<path d="M13734 10507l"/>
<path d="M5709 8808l 24-2 28 2 27 5 27 9 26 13 23 15 18 20 14 21 2 25-9 29-15 24-22 25-23 26-18 19-16 19-16 20-15 19-16 19"/>
<path d="M5737 9396l-26-5"/>
<path d="M5282 7965l-14-20 6-25 25-14 19-14 20-15 24-13 28-15 27-14 30-16 24-11 25-12 26-14 26-13 32-15 32-16 34-16 37-18 36-17 37-17 40-16 40-18 40-17 41-17 38-18 39-17 40-19 41-19 44-18 42-20 44-21 21-12 25-11 25-12 26-14 29-14 30-15 31-15 31-17 34-16 33-17 34-16 33-16 34-15 34-16 34-15 35-15 35-15 35-15 37-16 37-16 38-17 38-16 39-16 38-16 38-16 39-17 38-16 37-16 39-17 38-17 39-16 38-17 38-17 40-18 39-18 40-19 40-18 40-19 41-20 41-20 43-20 43-20 43-21 43-20 44-21 45-21 45-20 45-21 43-21 43-21 44-21 45-21 45-20 45-21 46-22 44-22 47-22 48-23 47-24 48-23 47-24 49-24 50-24 50-24 51-24 52-23 52-24 53-25 52-24 53-24 53-24 53-24 52-23 53-24 54-23 54-23 54-24 54-24 55-24 55-24 55-24 55-25 56-23 56-24 56-23 57-23 56-23 56-22 56-22 57-22 58-21 56-22 57-20 57-20 57-21 56-20 56-19 57-21 56-20 57-21 56-21 57-20 57-21 59-21 61-21 59-21 57-20 59-21 59-20 58-20 58-19 59-20 57-18 58-19 58-19 58-18 58-18 57-18 57-18 57-17 58-17 56-18 56-17 57-17 55-18 54-17 55-18 54-17 51-17 52-16 53-16 51-16 52-15 51-15 50-14 49-14 49-14 50-14 49-13 48-13 46-13 47-13 47-12 47-12 47-12 45-12 43-11 45-12 45-12 44-10 41-12 41-10 43-11 43-10 41-10 40-11 40-10 39-10 41-10 42-11 40-9 40-10 39-10 39-10 38-10 38-10 37-9 36-9 35-10 34-7 35-9 34-7 32-8 33-7 30-7 30-6 28-6 27-6 26-5 24-5 45-9 43-9 41-9 38-8 37-9 34-7 31-7 26-7 33-8 23-8 23-9"/>
<path d="M14867 4260l 23-12 29 2 28 2 29 3 27 4 28 6 24 6 20 13-9 24-24 14-27 14-22 12-25 13-25 15-25 17-27 15-26 19-23 19-17 23-12 24"/>
<path d="M1897 10739l-23 9-16 21-11 27-6 23-4 25 0 31 5 31 10 27 17 20 23 7 29-1 28-7 27-13 21-14 15-19 7-25-5-25-10-24-20-20-22-13-24-15-25-8"/>
<path d="M2162 10507l-4 29 2 29 2 28 4 31 4 35 3 26 4 26 4 28 4 28 4 28 5 29 5 26 8 33 10 25 10 24 24 11 17-23 16-25 11-22 14-25 13-27 13-28 13-28 10-28 10-26 9-30 9-30 8-30 7-31 6-28 6-26 7-33 6-27"/>
<path d="M2565 10532l-13 25-4 25-3 33-1 31-1 24-1 25-2 26-2 28-1 28-2 29-3 30-3 26-2 26-3 33-2 25"/>
<path d="M2558 10505l 26-4 28 3 26 6 29 6 30 9 28 10 22 12 19 17 9 23-9 26-17 20-19 18-24 18-25 16-27 16-27 15-25 11-27 14"/>
<path d="M2919 10558l-20 14-12 28-7 31-7 28-8 33-6 24-4 25-5 28-4 27-4 26-5 26-4 24-6 32-5 24"/>
<path d="M2880 10524l 2 26 5 27 6 26 9 29 12 29 14 31 13 21 14 22 14 22 14 22 13 21 13 21 19 26 19 22 22 21 27 8 20-13 16-27 12-30 9-34 5-34 2-35 2-26 1-29 0-31 0-28 0-28-2-25-5-32-5-25-8-24-13-20"/>
<path d="M3907 10694l"/>
<path d="M3850 10798l"/>
<path d="M4130 10604l 9 24-7 27-10 32-9 25-10 26-12 29-12 29-11 29-11 28-10 27-10 24-12 28-10 24"/>
<path d="M4422 10616l-13 20-11 29-10 24-11 25-11 28-10 28-11 29-13 31-11 28-10 25-8 29-6 29"/>
<path d="M4766 10664l-7-24-16-23-25-11-24 3-28 10-22 10-21 15-21 15-25 21-16 23 3 25 22 16 24 1 28-4 28-7 27-8 25-7-5 24-16 26-14 22-13 21-12 22-13 22-13 22-12 22-11 24-7 23 3 25"/>
<path d="M4990 10705l-24 14-19 27-16 25-16 21-14 22-10 25 3 25 24 15 27 9 30 3 25 0 25 3 30 5 28 1 29 3 28-2"/>
<path d="M5018 10763l-23 6-12 25-4 24-4 31 0 27 1 27 0 30 0 34-2 31-2 32"/>
<path d="M3655 10357l-5-23 23-10 27 5 25 8 21 18 14 24-1 25-9 23-15 24-17 21-19 22-20 24-22 28-19 28"/>
<path d="M3614 10798l 25 6"/>
<path d="M5248 10393l 20 14 25 0 25-3 24-7 23-10 28-11 31-16 21-12 23-13 25-14 25-14 26-15 27-16 26-16 30-16 28-17 30-16 30-17 30-16 30-17 28-16 31-16 32-17 32-17 34-17 32-18 33-18 33-19 34-19 36-21 36-22 38-24 39-26 40-27 21-15 20-15 20-15 21-15 20-16 22-16 21-16 20-17 21-17 19-16 22-18 19-17 20-18 20-16 19-18 19-17 20-17 18-17 17-18 19-17 19-17 18-17 18-17 18-17 18-17 19-17 18-18 18-17 17-18 18-18 18-19 18-19 18-18 16-19 18-19 18-19 17-20 18-19 17-20 17-20 17-20 21-21 16-20 17-20 17-21 16-20 17-20 16-21 16-21 16-21 16-21 15-22 16-22 16-22 15-22 16-22 15-23 15-22 15-22 14-22 15-21 14-22 14-21 14-22 15-21 13-22 13-22 14-22 13-23 15-23 14-23 14-24 14-24 15-23 16-25 17-25 17-26 18-25 18-26 18-26 20-26 20-26 20-26 20-25 18-25 21-25 20-25 19-24 18-24 18-24 20-23 19-24 21-24 19-24 20-24 21-25 19-24 21-25 21-24 21-24 22-24 22-24 22-23 22-23 23-24 25-22 24-24 25-23 24-22 25-24 26-23 26-23 29-23 27-24 28-23 28-24 29-24 29-24 30-24 30-23 29-25 31-23 31-24 31-22 32-23 31-23 33-22 32-22 32-22 33-22 32-22 32-21 33-21 33-20 33-22 33-22 33-21 33-22 37-22 35-21 36-21 34-22 36-21 36-21 37-21 38-20 34-21 38-20 37-20 37-20 37-19 38-20 38-20 38-19 38-19 40-19 39-18 39-19 40-17 40-19 38-19 40-20 38-18 38-18 40-18 41-19 40-18 41-18 41-17 40-16 44-17 44-16 40-16 41-16 41-16 41-16 41-16 42-16 38-16 40-16 41-16 44-15 42-15 42-15 42-14 42-14 44-14 46-15 43-14 42-15 43-14 42-14 42-15 42-13 43-14 41-14 41-13 40-12 41-13 40-12 41-12 41-12 40-11 37-12 40-11 40-11 39-12 39-11 39-11 39-11 39-11 41-11 39-10 39-10 40-11 39-10 41-10 40-10 40-10 41-9 41-10 40-10 41-9 41-10 41-9 41-9 41-9 41-9 41-9 40-9 42-10 41-9 40-9 41-8 42-9 39-8 40-9 40-7 40-9 39-7 40-8 39-8 39-7 38-6 38-7 37-6 37-6 35-5 36-6 35-5 36-5 35-5 34-4 33-5 33-4 32-4 33-4 32-4 30-3 30-4 32-4 31-4 31-4 30-3 32-3 30-3 31-4 30-3 30-3 30-3 30-4 28-3 30-4 29-4 28-3 28-3 26-4 26-3 25-3 25-3 47-5 46-5 46-5 43-4 41-4 37-4 36-4 37-3 33-2 29-2 28-3 30-4 34-3 33-2 27-2 24-1 37-2 33 0 32 0 31 2 28 2 25 2 31 3 27 5 29 5 23 5 26 6 26 8 22 8 25 9 25 8 24 12 21 14 19 15 20 17 21 17 20 15 20 15 21 14 21 15 21 12"/>
<path d="M15612 5299l 14 24 17 24 21 22 20 21 18 23 18 23 19 26 18 26 13 21 9 23 9 25-13 21-28 10-25 6-29 3-34 4-26 2-26 2-25 2-31 4-25 5-23 10"/>
<path d="M16310 6176l"/>
<path d="M16305 6281l"/>
<path d="M16582 6094l-8 28-3 29-3 26-3 30-5 34-4 24-5 26-6 25-7 25-7 25-7 25-7 24-8 24-8 32-9 29-6 23-4 26"/>
<path d="M16854 6185l-23 8-11 25-8 23-7 27-7 31-8 33-7 34-7 36-6 34-7 33-5 30-2 25-1 25 1 28 9 23"/>
<path d="M17213 6349l 7-33 4-25 1-25 2-28-3-28-13-22-21-11-27-1-26 7-26 12-27 17-20 17-9 25 7 25 18 19 21 12 26 9 25 1 26-2 24-5 6 25-11 24-14 21-10 23-10 28-8 28-4 25-2 24 6 24"/>
<path d="M17522 6256l 18-19 24-1 30 0 25 2 29 4 29 5-74 14-29 4-29 5-24 7-26 13-20 14-15 21 0 25 16 20 26 17 28 13 26 9 29 11 28 9 28 10 24 9 27 14 24 17 16 21-1 25-26 17-29 8-27 4-34 0-35-3-26-3-27-5-27-5-27-5-25-4"/>
<path d="M14303 9825l 18-19 26-17 21-12 24-13 25-16 28-18 28-20 20-15 21-16 19-17 21-17 22-16 22-18 24-21 24-21 24-24 27-26 29-29 31-29 37-32 19-18 19-18 21-18 20-20 22-19 22-21 23-21 23-20 28-22 24-22 26-21 27-22 27-21 27-21 27-21 25-22 25-22 27-21 28-22 27-22 27-23 27-24 29-25 30-25 28-25 27-26 28-27 27-26 28-26 27-26 26-25 25-25 26-25 26-25 25-25 25-25 25-25 25-26 25-26 24-26 26-28 26-28 26-28 26-28 28-29 28-31 28-29 29-30 29-31 27-30 30-30 28-31 28-29 27-29 29-27 24-27 26-27 24-26 24-25 22-25 24-26 22-24 21-25 23-25 20-24 22-24 21-24 19-22 19-22 18-21 17-21 18-20 17-19 15-20 29-36 27-35 24-34 23-31 22-28 19-28 18-26 17-25 14-22 18-29 16-24 11-22 8-27 6-24-23 12-22 11-30 11-34 12-25 8-25 7-25 7-31 6-24 6 25-15 35-14 23-11 25-10 23-9 23-8 31-11 26-9 26-10 24-9 14 21-1 27 0 29 1 25 1 25 2 26 2 28 3 28 3 29 7 28 6 27"/>
<path d="M7410 6512l-28-5-26 3-25 7-24 9-22 10-21 15-7 24 25 13 29 7 28 6 26 4 25 5 24 7 3 26-18 17-25 19-26 16-25 13-24 10-25 5"/>
<path d="M7720 6386l-22-11-26 3-22 9-27 12-21 12-21 16 13 21 28-1 26 0 24 4 28 8 21 13 7 24-15 23-22 18-22 10-25 9-28 2-19-19"/>
<path d="M7902 5996l-13 27-6 28-6 27-7 29-10 33-10 34-8 35-7 25-8 26-8 25-9 25-12 34-9 28-7 23-7 24 20 13 27-20 24-24 24-25 25-25 23-22 20-18 23-18 24-14 22-8 21 14 7 27 4 28 5 26 3 27 6 27 13 28"/>
<path d="M1538 11410l 27-15 23-7 27-5 31-6 34-4 25-3 26-3 29-3 29-2 30-3 33-3 34-3 36-3 39-2 41-2 43-3 45-3 48-3 24-2 25-2 26-2 26-1 27-3 27 0 27-2 28-1 30-3 29-1 31-2 30-1 31-2 31-1 32-2 31 0 31-1 33-1 31-1 32 0 33 0 32 0 31 0 34 0 32 0 34 0 33 0 33 0 34 1 35-1 34 1 35 2 35 1 35 1 35 1 35 1 34 1 35 2 36 1 35 1 36 1 36 1 37 1 37 1 37 0 36 1 37 0 37 1 36 0 36 1 36 1 37 0 37 1 37 0 37 2 37 0 37 0 37 1 36 1 37 0 35 1 36 1 35 1 34 1 34 2 34 0 33 1 34 1 33 1 33 1 33 1 33 0 31 1 31 0 31 1 31 1 29 1 28 0 27 1 26 2 27 1 26 1 26 1 25 0 24 2 25 5 25 1 44 2 40 1 37 1 34-2 32 1 28 2 25 1 31 2 29 0-25-14-30-5-25-5-28-4-32-3-35-4-38-3-42-4-45-3-48-4-24-1-26-1-26-2-26-2-28-2-28-2-28-1-31-2-30-3-32-1-32-3-33-1-33-1-34-2-35-3-34-2-35-1-36-2-35-2-37-1-38-2-39-2-39-1-39-2-40 0-42-1-41-1-43 0-42 0-41 1-43 1-44 0-44 0-43 1-44 1-45 0-46 1-46 1-45 1-46 1-46 1-44 0-46 2-45 1-44 1-45 2-45 1-44 1-45 1-43 1-43 1-43 1-43 0-42 1-42 0-40 1-42 1-41 0-41 0-40 0-41 0-38 1-39 0-38 0-38 0-37 0-35 0-35 0-34-1-34 0-34 0-31-1-31 0-32-1-30 0-29-1-28 0-27-1-26 0-25 1-47-2-43-1-38 0-37-1-32-1-27-1-31-3-25-2 28 12 30 4 28 1 31 0 35 2 36 2 40 1 45 2 48 1 26 0 27 1 28 1 29 0 30 1 30 0 32 1 32 0 34-1 34 1 36 0 36-1 38 0 38-1 40 0 40 0 41 0 42-2 43-1 43 0 44 0 44 0 44 0 45 0 46-1 45 0 47-1 48-1 49 0 48 0 50 0 49-3 51 0 50-1 52-1 50-1 53-1 52 2 52-2 53 0 53-1 53-1 52-1 53-1 53-2 53-2 53-1 53-2 51-1 52-1 50-1 51-1 50 1 49-1 47 0 47 0 47 0 45 0 45 1 42 0 41 0 40 2 37 0 38 1 36 1 35 1 33 2 32 2 31 2 30 2 29 3 26 2 25 3 25 4 41 6 36 8 29 9 31 13 19 15"/>
<path d="M16116 6813l-12-21"/>
<path d="M16027 6809l 26-3 26 1 27 0 26-1 31-1 29 1 25 1 28 3 30 3 26 1 29 2 32 1 36 2 38 1 39 0 44 0 44 0 45 1 46 1 46 0 45 1 45 0 42 0 42 1 43 2 43 0 43 0 45 0 45 0 45 0 47-1 24 0 25-1 25-1 24 0 25-1 26-1 25-1 25 0 27-2 26-1 25 0 28-2 26-1 27 0 27-2 28-1 26-2 28-1 26-1 27-1 25-2 25 0 24 0 43-2 41-1 35-1 33-1 32-1 27-1 27-1 30-3 25-3 29-4 24-4-8-24-25-7-28-5-34-5-28-4-32-4-34-4-37-4-39-4-42-4-43-3-47-4-24-2-46-4-48-3-47-3-46-3-46-1-44-2-41-1-40 0-35 0-41 0-37 1-37 1-39 2-35 3-37 4-37 5-38 4-35 6-33 4-32 5-27 6-24 4-30 7-23 8 15 19 28 8 32 1 31 0 36-1 29-2 33-1 36-2 43-3 43-2 49-3 25-1 26-2 26-1 27-1 30-3 28 0 30-2 31-1 31-2 33-1 34-3 32 0 32-2 33-1 34-2 32-1 33 0 30 0 31 0 30 0 29 0 28 0 29 0 28 0 27 1 28 1 27 0 27 1 27 0 28 1 27 1 27 1 26 0 26 3 25 1 26 2 25 2 24 1 47 5 46 6 45 6 44 7 43 6 39 8 36 7"/>
<path d="M2065 12212l 11 27 7 27 2 24-1 29-5 34-6 24-7 24-10 27-11 29-12 28-13 29-13 28-13 27-15 27-13 24-13 24-15 27"/>
<path d="M2140 12148l 8-24 25-6 26-4 30-2 28 0 28 4 25 7 22 15 10 24-2 25-8 25-15 28-13 21-16 19-17 19-18 19-19 16-21 14-21 14-21 11-27 13-26 11-23 9-23 7-24 5"/>
<path d="M1669 12206l-8 23-6 28-9 23-9 27-9 27-10 28-10 28-9 30-10 30-8 25-9 25-11 26-11 24"/>
<path d="M1594 12252l 17-17 24-7 26 5 22 10 22 11 22 12 6 24-11 22-17 23-16 21-17 19-18 20-18 18-19 15 13 23 20 18 14 22 6 25 2 28-2 24-3 24"/>
<path d="M1780 12345l-2 25 0 24-3 27-4 31-6 29-8 31-10 31-7 27-6 26"/>
<path d="M1800 12320l 5-25 24 8 23 12 24 13 21 19 12 23 5 26-3 25-9 23-14 25-18 26-17 20-17 18-22 18-23 16-21 13-21 13"/>
<path d="M3790 12383l"/>
<path d="M3805 12496l"/>
<path d="M4066 12411l 28 2 29 6 25 6 24 5 20 14-16 19-24 15-21 12-23 11-24 11 16 20 26 6 24 9 21 17 3 24-8 27-14 20-19 23-16 18-23 24-20 18-22 15-23 9 1-27"/>
<path d="M4358 12439l 20-14 28 1 26 4 27 6 20 14-3 26-18 20-21 16-24 15-20 15-19 17 22 13 28 4 25 9 25 8 17 19 8 25-11 22-18 20-20 16-23 13-25 10-24 5-25 3-13-21"/>
<path d="M4706 12486l 22-17 20-19 16-22 12-21-3-26-19-15-25 9-25 13-21 15-19 19-18 23-10 23 8 25 23 13 28 2 27-4 24-7 26-2 4 26-9 26-9 25-10 26-9 29-7 23-9 23-8 24-7 24-9 28-5 25 2 24"/>
<path d="M5039 12436l-20 19-13 23-12 25-10 22-11 23-10 23-10 23-9 25-3 25 15 22 23 14 26 4 30 1 24-1 25-5 25-2 24-1 27-3 25-4 28-4"/>
<path d="M5159 12564l-17 18-13 30-11 27-11 28-9 30-6 31-6 29-6 30-6 28"/>
<path d="M5468 12439l 8-23 14-21 14-20 17-19 20-19 20-21 20-17 21-18 21-20 18-20 19-21 21-19 21-18 21-19 21-20 22-21 19-18 17-18 17-21 21-22 22-20 20-21 21-22 20-22 18-19 15-19 20-25 16-20 17-21 17-22 18-22 19-23 18-24 13-23 16-22 16-22 17-24 14-23 15-24 13-25 14-25 14-27 13-25 13-23 14-26 13-27 13-27 15-28 18-30 16-28 18-30 13-21 11-21 16-31 15-31 15-31 16-31 13-29 13-30 11-29 12-29 13-28 13-29 14-29 15-31 16-31 16-32 10-22 12-22 11-23 11-23 18-31 13-21 14-20 13-20 17-29 19-29 18-29 17-29 16-30 17-29 17-28 18-27 18-27 16-26 19-28 20-28 20-31 17-28 18-27 18-26 18-26 17-27 19-26 17-25 18-25 16-24 16-22 14-24 14-24 16-24 15-23 17-24 15-22 16-25 16-24 14-27 16-27 15-25 17-24 14-24 16-25 14-26 15-24 16-24 15-22 16-25 15-24 15-23 14-24 16-23 16-24 15-25 17-23 17-23 16-24 17-26 18-26 15-23 13-23 14-23 14-23 15-24 13-23 12-23 13-23 14-22 14-21 13-23 12-24 13-21 18-26 14-25 16-26 17-26 16-19 15-27 15-27 15-27 15-25 14-25 14-25 15-27 17-26 14-26 13-26 15-26 16-25 17-26 16-25 18-25 15-21 17-20 14-20 16-19 18-20 15-20 16-20 19-27 15-20 19-18 19-25 15-19 14-20 14-20 16-19 16-21 14-20 14-19 18-26 15-21 15-19 17-20 19-26 18-25 17-25 18-26 19-25 14-22 16-21 17-23 18-23 22-24 22-24 23-24 21-22 17-19 19-24 17-20 19-25 19-23 17-18 20-23 21-22 21-21 20-21 21-21 22-20 21-21 20-20 21-21 17-17 22-20 19-19 17-16 17-17 22-18 25-21 23-18 24-19 24-19 24-16 23-18 25-16 23-18 23-13 23-14 24-17 21-16 24-16 24-17 20-13 23-13 22-14 23-13 22-14 22-12 24-14 23-13 26-17 27-16 26-16 27-18 25-16 28-16 22-13 24-12 21-14 24-12 25-13 26-13 26-13 28-12 26-11 24-11 25-12 29-10 24-12 26-11 30-13 26-11 28-11 27-12 32-13 34-11 33-12 31-12 33-13 30-9 32-12 33-11 23-9 32-11 28-11 30-10 26-10 32-11 26-11 29-13 31-13 24-11 24-12 25-11 23-11 24-10 23-10 23-9 33-14 33-13 23-9 23-10 24-10 25-9 24-10 34-13 32-13 23-9 23-10 34-12 27-10 26-9 28-9 27-9 27-8 27-9 29-9 27-8 27-9 30-8 25-9 25-8 25-8 23-8 26-8 26-9 28-9 29-8 29-8 29-9 29-8 27-8 29-7 28-8 26-7 27-8 30-8 29-8 31-7 29-8 30-7 30-8 31-8 30-7 32-7 35-8 33-8 32-7 32-9 29-7 32-6 31-6 30-7 32-6 33-7 33-6 35-6 34-6 34-6 35-6 36-5 35-5 36-5 34-4 34-5 32-5 34-5 34-4 32-4 33-4 32-4 30-5 33-5 33-4 30-3 33-4 31-4 30-3 29-4 30-4 29-3 31-4 28-3 29-3 28-4 25-2 27-3 26-3 35-3 34-2 32-3 25-2 33-2 34-2 34-2 35-1 35-2 35-1 33 0 34 0 32 1 35 0 32 1 34 0 31 1 26 3 29 2 28 2 31 2 30 3 33 3 35 4 25 3 25 2 26 4 26 3 29 5 27 4 26 5 25 5 34 9 23 5 23 5 24 6 34 9 33 9 31 8 29 8 30 6 29 8 26 8 30 8 29 8 32 9 29 9 32 10 27 9 27 11 28 11 29 13 27 12 27 12 28 12 27 10 26 12 27 10 26 12 24 10 24 10 24 11 24 11 24 12 27 11 23 11 28 14 24 13 25 14 23 14 21 13 21 10-22 9"/>
<path d="M15472 6049l 24-4 23 10 24 11 24 10 25 10 22 12 24 13 20 16 18 21 10 23-16 19-24 5-24 4-27 4-26 3-28 4-24 6-24 9-21 12-18 19"/>
<path d="M5544 12071l-20 16-14 26-14 24-16 26-18 28-18 29-17 30-15 28-13 27-11 26-8 26-6 26-3 24 1 27 7 23 17 24 28 11 28 5 30 2 30-5 26-9 28-10 29-11 30-13 28-12 27-11 27-10 25-10"/>
<path d="M5315 10314l-2-26 4-25-27 12-23 20-23 19-21 20-21 19-22 22-19 21-1 25 25 13 24 6 24 4 30 3 31 3 24 1 27 2 28 4 27 5 25 7 24 10 23 14"/>
<path d="M16941 4859l 38-2 39-4 41-5 43-4 38-5 43-4 44-4 47-5 25-1 25-2 24-1 26-2 27-1 27-2 28-2 28-1 30-2 29-1 30-2 31-2 32-1 31-2 31-1 31-1 32-1 31-2 31-1 31-1 31-1 32-1 31-1 31-1 32-1 30 0 32-2 32-1 32 0 32-1 32-1 31-1 33-1 32-2 32 0 36-2 33-1 33-2 33-2 33 0 32-2 34-1 32-2 28-1 32-1 31-1 32-1 31 0 29-1 31 0 30 0 30 1 31 0 29 0 29 0 28 0 28 0 27 1 27 0 26 1 25 0 24 1 47 2 46 2 44 2 41 3 39 4 36 2 33 2 33 2 30 2 25 3 31 2 29 3 25-2-26-5-25-3-27 0-36 3-26 0-27 0-31 0-33-2-38-1-43-1-24-1-26-1-27 0-28-1-29-2-29 0-30-2-34-1-32-1-33-2-34-1-35-1-36-2-37-2-37-1-38-2-38-2-40-2-39-1-42-2-42-2-43-1-43-2-45-2-45-1-48-2-48-2-50-2-50-2-51-2-51-2-53-2-52-3-55-1-55-2-56-3-54-1-57-2-58-1-59-3-58-1-60-2-60-3-59-1-63-3-61-2-60-2-60-1-60-2-59-1-58-1-60 0-59 0-58-1-58 0-58 0-57 0-55 1-54 0-53 0-50 2-50 1-45 1-45 2-39 2-40 2-39 2-38 2-36 2-36 3-35 3-34 3-38 4-33 3-32 4-31 5-30 3-29 5-29 4-25 6-24 4-46 6-42 6-36 6-35 4-30 3-24 5-30 4 25 8 33 0 28-2 28-2 27-1 27-2 25-1 26-1 36 0 37 1"/>
<path d="M4101 7588l-28 2-26 5-26 11-25 17-28 22-19 19-20 22-21 25-22 28-21 30-21 31-21 34-21 34-21 34-19 34-18 33-15 31-14 31-10 30-10 31-8 31-6 31-6 31-3 31-2 31-1 31 2 31 3 32 4 32 6 31 7 31 9 29 10 30 12 29 15 28 15 28 17 28 20 28 20 27 23 26 25 26 27 24 29 25 30 22 30 24 33 24 34 24 37 24 37 22 35 21 36 18 35 18 36 19 37 17 39 17 39 16 37 14 35 11 33 9 32 8 32 6 29 5 30 1 29 1 27-2 30-3 30-6 31-8 30-11 31-11 32-12 32-14 32-13 30-13 26-12 25-10 22-12 23-12 23-14 22-15 23-15 20-16 21-15 26-23 19-18 17-16 17-17 19-18 17-18 17-19 16-21 15-20 15-22 16-24 18-25 16-28 14-28 15-30 10-29 12-32 12-33 11-36 11-40 10-41 8-42 4-42 5-43 1-42 0-42-3-38-6-39-9-39-14-38-16-37-19-38-22-35-23-34-24-34-25-32-25-31-26-31-26-29-27-27-27-27-28-25-29-24-31-23-32-22-34-20-37-18-38-16-44-14-43-10-44-9-47-6-45-4-24-2-47-3-48-2-47-2-47 0-24 0-46 0-43 2-42 3-41 4-39 6-36 8-36 9-35 11-32 10-31 13-28 13-25 14-24 15-22 16-20 17-20 20-19 21-19 23-18 23-17 24-17 24-15 23"/>
</svg>
