<svg xmlns="http://www.w3.org/2000/svg" viewBox="1485 1877 14515 12544" stroke="black" stroke-width="16" stroke-linecap="round" stroke-linejoin="round" fill="none" data-xena="0 0 0"><style>@media(prefers-color-scheme:dark){svg{background-color:black;stroke:white;}}</style>
<path d="M1662 2045l-2 27 1 25-1 30-1 33-2 36-3 25-1 25-4 27-4 27-3 28-3 28-6 30-4 29-3 28-3 26 0 25-3 33-3 32-4 25-3 25"/>
<path d="M1930 2084l-10 27-7 23-8 29-8 33-5 24-4 25-2 28-2 29-1 30 1 28 1 28 5 26 10 35 13 30 19 22 21 18 27 14 26 7 24 1 24-17 15-19 9-27-1-30-8-28-16-24-25-14-30-1-26 4-25 12-22 14-16 21"/>
<path d="M2801 2150l-24 5-16 18-12 24-11 25-7 29-5 24-5 35-3 24 3 35 6 34 11 30 16 26 19 21 22 15 26 9 25 3 26-1 26-8 25-14 20-17 19-21 12-20 10-25 8-25 3-26-4-24-9-25-15-27-19-29-23-26-23-24-21-15-26-14-25-5-28 8-19 18"/>
<path d="M3269 2182l 27-8 29-8 26-1 28-1 30-2 30-2 26 0 24 5-15 19-21 15-24 19-21 13-30 16-25 17-22 12-23 8 22 17 28-2 25 5 26 11 27 6 23 7 24 8 24 13 18 17 9 23-9 26-16 21-18 17-23 18-25 17-29 13-26 10-23 9-28 7-30 1-26-2-23-8"/>
<path d="M4409 2192l-14 22-16 25-9 27-4 31-1 31 2 25 6 24 14 27 18 26 25 19 24 11 29 8 25 1 26-1 23-6 28-10 23-15 18-21 14-25 10-24-2-26-9-26-13-21-16-20-19-23-22-20-24-19-22-15-22-13-26-13-27-3-25 10-5 26"/>
<path d="M4934 2125l-2 30 0 25 3 28-1 31 2 25 3 25 1 24-1 26 2 26 1 25 2 30 1 30-4 26"/>
<path d="M6274 2095l 17-19 22-14 25-6 28-1 23 6 24 14 11 23 8 24-3 29-7 26-5 25-11 28-13 29-11 22-14 22-14 25-11 27"/>
<path d="M6406 2524l"/>
<path d="M7155 2071l 23-9 28 2 26 4 26 5 22 9 20 14 13 21 0 24-7 29-11 27-10 26-10 22-13 21-18 24-15 25-13 25-10 26"/>
<path d="M7244 2522l"/>
<path d="M9647 2178l 26 4 24-3 26-6 24-6"/>
<path d="M9682 2256l 23 7 25-1 28-3 26-4"/>
<path d="M10057 2025l 20-14 25-9 25-5 24-9 26-8"/>
<path d="M10071 2034l-19 20-14 25-12 22-7 25-3 27 2 25 14 21 24 6 24 2 24-9 26-10 26-9 25-7 29-5 27-3 27 5 26 9 23 11 12 21 7 25-1 25-7 24-17 22-16 19-18 17-19 15-22 13-25 9-27 6-26 4-24-4-26-6-22-13"/>
<path d="M1687 4017l-26 2-22 15-17 18-12 22-10 25-6 23-6 24 1 28 6 26 9 23 13 24 16 18 22 17 26 11 25 6 26 1 27-7 22-10 20-15 19-21 19-22 15-27 10-25 8-24 1-25-3-24-9-24-14-22-17-21-20-20-25-13-26-11-27-8-25 2-22 12-18 20-14 22-9 25-2 25"/>
<path d="M2035 3900l-8 26 0 24 0 28 1 27 2 29 2 30 0 30 1 28 3 28 1 26 0 24-1 29-1 27 2 24"/>
<path d="M2966 3896l 19-17 25 4 21 12 20 20 16 21 10 24 3 26-2 24-9 28-7 29-4 30-6 29"/>
<path d="M3076 4285l"/>
<path d="M4444 3857l 20-16 24-12 26-11 27-1 26 10 19 15 11 23 2 27-5 24-8 27-9 31-10 34"/>
<path d="M4594 4192l"/>
<path d="M5989 3821l 20-17 25-3 28-3 24 0 24 9 18 18 16 19 0 26-7 24-15 28-17 25-21 32"/>
<path d="M6071 4215l 13 23"/>
<path d="M9517 3878l 18-20 24-7 28 3 26 10"/>
<path d="M9535 3973l 27-10 24-2 27-2 27 0"/>
<path d="M10009 3710l-11 23-15 24-13 23-13 22-13 21-13 26-9 24-7 23 11 23 25 9 25 2 30-2 25-3 26-4 25-6 25-5 24-6 29-7 31-6 29-7 27-9 27-9"/>
<path d="M10170 3787l-10 23-1 25 2 28 1 26 1 28 2 25 1 28 1 29-1 30-3 29-7 28"/>
<path d="M1828 5456l-23 13-10 22-12 29-10 25-7 25-7 28-4 25-1 29 1 30 7 32 11 28 14 23 19 20 26 8 24-3 27-12 21-17 21-20 20-24 15-23 13-27 8-25-5-26-14-27-11-22-18-19-22-16-22-13-22-10-24-5-25 0-27 5"/>
<path d="M2171 5522l 20-20 31-4 24 1 25 9 14 20-6 25-19 21-16 19-3 25 19 16 22 12 22 12 19 16 15 22 8 24-6 23-10 26-17 22-21 18-23 16-24 11-25 7-23 6-24-1"/>
<path d="M2894 5549l 2 24-2 25 5 28 8 27 8 22 17 25 19 16 22 10 24 5 25-1 23-9 22-19 15-20 13-22 6-25 1-25-6-26-12-29-13-22-19-18-25-18-27-9-26-5-26 2-27 9-16 19"/>
<path d="M3220 5463l 24-12 26-2 28 2 24 8 21 14 3 24-11 21-20 20-1 24 24 3 27 4 26 2 25 6 24 9 12 22-13 22-17 22-22 14-26 11-25 6-27 4-25-1-27-8"/>
<path d="M9505 5267l 26-4 28-6 28-7 27-6 31-6 29-5 26-4"/>
<path d="M9589 5351l 27-7 28-7 27-6 31-7 35-5 24-4"/>
<path d="M10057 5143l 22-11 28 0 27 5 30 9 23 9 27 15 25 17 17 17 15 22 7 24-3 27-10 25-15 21-20 24-24 23-25 23-26 21-26 20-27 20-21 18-18 18-17 20 4 25 27 10 30 3 24 2 26 0 26 4 26 4 27 6 27 9"/>
<path d="M1819 7297l 25-2 24-3 24-2 30-4 24-1 28-2 31-2 33-1 26-1 25 0 27-1 26 0 28-1 29 0 31 0 34 2 34 1 35 0 37 1 38 0 43 1 42 0 43-1 43-1 43-1 45-2 46-3 47-4 48-3 48-4 47-3 47-2 45-2 46-1 43 0 43-1 43 1 43 0 45 3 45 1 44 2 44 1 47 2 47 1 46 2 25 0 47 1 24 0 48 0 49 1 48 1 43 0 44 2 41 0 40 1 40 0 35 1 34 1 33 1 31 1 33 0 29 0 29 1 28 0 26 2 25 0 33 2 30 1 26 0 26 1 24 2 26 1-26-10"/>
<path d="M9574 6782l 26-6 24-3 28-7 24-4 29-5"/>
<path d="M9595 6897l 27-11 26-6 26-6 26-5 32-6"/>
<path d="M9981 6692l 12-21 27-5 27-1 26 2 25 5 26 10 15 22-8 24-20 23-22 18-25 15-25 13-22 12-22 11 26 3 31-1 25 3 25 7 25 10 24 11 22 12 23 15 12 22 6 26-15 22-19 20-19 15-25 13-28 10-30 8-29 6-27 2-28-3-15-24"/>
<path d="M10330 6688l 26-2 28 2 27 0 27 2 30 6 26 7 21 14 14 23-8 26-15 22-19 20-23 21-27 21-25 21-24 19-20 19-18 17-18 18-14 21 19 18 24 3 29-2 24-1 27-2 28-1 28 0 25 5 24 11"/>
<path d="M1811 8378l-26 16-20 23-16 27-12 23-9 25-8 28-5 28-4 31 3 28 6 26 9 23 15 20 20 16 25 13 26 9 28 3 29-3 28-7 29-12 28-14 27-19 22-20 19-22 15-22 12-23 7-24 3-24 0-24-6-25-9-25-16-23-22-21-21-17-23-12-30-7-26-2-25 4-22 11"/>
<path d="M2221 8491l-23 13-19 22-9 26 3 28 9 26 15 25 21 22 24 18 27 12 31 6 32 2 28-4 23-10 21-14 16-19 9-23 1-29-4-31-6-25-12-27-16-28-20-26-21-25-22-19-24-13-26-5-28 0-27 12-17 18"/>
<path d="M9718 8097l 24-2 28-6 28-8 31-9"/>
<path d="M9773 8211l 24-6 26-7 26-7 29-10"/>
<path d="M10206 7918l-11 26-2 31 2 30 6 35 4 36 3 25 3 26 1 26 3 25 3 24 2 25 3 25 2 24 1 35 5 31 3 28 4 25 2 27 5 24"/>
<path d="M1873 10049l-24 0-17 20-16 25-8 25-5 31-3 32 0 25 5 29 10 23 14 21 21 17 24 6 28 0 24-9 29-16 21-15 20-18 18-20 17-23 14-23 11-25 6-28-1-27-8-27-16-25-22-20-20-13-26-6-30 0-24 5-25 9-19 19"/>
<path d="M2245 10086l-27 5-16 18-3 27 4 28 9 23 12 22 17 16 25 15 27 7 28 1 25-4 29-11 24-17 18-21 11-23 3-29-8-24-18-19-23-16-26-11-30-3-26 2-27 9"/>
<path d="M3402 9987l-24 0-21 11-16 23-9 27-6 28-1 28 1 30 5 26 11 27 18 20 27 9 28 0 31-6 23-11 22-14 19-17 16-19 15-20 14-27 7-26-1-25-9-25-16-21-23-20-27-15-26-10-29-4-27 3-25 8-10 22"/>
<path d="M4453 10003l-21 16-8 26-2 28 2 25 6 25 7 25 14 22 19 17 25 14 28 6 26-2 27-6 28-11 27-15 26-15 20-15 20-21 12-23 5-27-7-26-15-21-21-20-26-19-21-11-27-11-28-6-26 0-24 7"/>
<path d="M4938 9980l-23 11-19 16-16 22-12 22-12 22-10 27-3 26 0 25 8 27 14 21 22 14 28 6 27 2 29-2 28-10 22-9 22-11 25-18 20-18 16-18 9-26-3-27-14-24-16-24-19-23-25-17-27-12-26-7-28 0"/>
<path d="M5875 9914l 25-9 24 3 26 7 21 13 15 22-3 27-13 20-19 20-18 15-20 15-20 15-25 16-23 10-18 18-4 25 25 13 24 3 28-3 26-4 26-7 28-8"/>
<path d="M6400 9770l-17-19-24-14-30-3-24 6-24 18-17 20-12 22-13 25-10 26-6 27-3 28-2 28-1 28 0 27 2 26 2 27 4 25 5 26 4 24 7 23 5 29 0 30"/>
<path d="M6139 10023l 22-16 27-5 29-4 34-2 25-2 30-3"/>
<path d="M9718 9706l 28-2 27-1 24-2 32-1 25 1"/>
<path d="M9709 9842l 27-6 31-8 31-9"/>
<path d="M10139 9608l-26 6-22 17-18 16-21 22-19 26-16 26-13 24-9 23-1 26 9 25 19 18 22 10 29 4 27 1 30-1 29-4 34-5 24-5 26-5 25-5 23-5 32-10 27-9"/>
<path d="M10273 9734l-23 12-17 22-8 29-3 27-1 31 2 32 2 34 6 35 7 23 6 25"/>
<path d="M1812 11338l-24 2-22 13-12 24-9 27-1 25 1 26 3 25 6 24 8 26 17 21 23 11 29 3 28-7 24-9 26-14 21-21 15-24 14-24 10-23-6-29-8-23-12-26-17-20-19-17-25-12-23-7-24 0-21 15-10 25"/>
<path d="M2262 11288l-8 25-4 25 2 25 1 30 1 31 0 25 0 28 0 30-2 28-2 27-1 27-1 30"/>
<path d="M3323 11372l-23-6-22 13-18 20-5 25 1 28 6 29 14 24 22 18 28 7 29 2 26-9 23-14 20-20 13-22 3-26-12-27-16-21-19-16-22-14-25-8-22 13-12 26"/>
<path d="M3642 11349l-24 11-15 19-9 28-5 28 3 25 6 24 11 22 22 18 24 8 26 1 27-1 30-7 31-11 24-12 22-13 21-18 16-23 7-27 0-26-5-26-13-23-19-20-27-14-30-8-25-2-30 1-25 4-27 9"/>
<path d="M9739 11306l 27-2 31-1 25-2 29-3 28-3"/>
<path d="M9740 11396l 24 1 28-6 35-11 30-9"/>
<path d="M10159 11199l 22-13 28-3 29 2 25 7 26 13 19 17 16 22 8 22 0 26-7 27-15 25-16 22-21 21-27 21-20 14-21 13-21 12-20 13-29 17-26 14-23 12-24 15-9 23 18 18 21 14 28 11 28 7 28 3 31 3 25 0 25 0 25 0 25 1 35 2 32 4 30 5 25 7 22 9"/>
<path d="M1764 13448l 28 7 27 6 25 3 32 1 37 0 28 0 31-1 31-1 33-2 31-2 31-3 31-3 29-2 30-2 30-2 29-2 29-2 35-1 29 1 31 3 24 5 23 6 25 1 24 2"/>
<path d="M9105 13175l 24 5 25 3 30 1 26 2 31 1 25 2 24 1 26 0 26 2 30 0 34 2 36 1 41-2 44-1 47-2 48-3 25-1 27-1 27-1 27-1 28-2 27-1 29-2 29-1 29 0 28-1 28-1 28 0 28-1 27 1 26 0 28 1 27 1 28 0 27 1 26 1 27 1 29 2 25 1 26 2 24 1 25 2 48 3 46 3 42 3 42 5 35 2 35 3 30 2 28 3 26 2 24 3 25 3 31 3 25 3"/>
<path d="M9524 13907l 27-8 26-7 23-8 25-10 26-10 28-12 28-9 25-7"/>
<path d="M9627 13881l-24 11-20 16-17 17-20 23-12 22-8 22-10 27-3 27 2 25 19 18 28 2 28-12 26-9 28-10 23-9 23-9 25-7 23-6 27-3 28-2 25 8 12 21 0 29-8 28-10 26-12 28-15 29-16 27-18 24-18 19-20 17-20 15-25 12-27 9-25-8-8-24 2-29"/>
<path d="M10011 13957l-10 27-2 24 6 27 17 24 19 20 25 19 26 15 26 11 24 9 28 4 27 0 26-7 24-17 15-23 14-25 8-30 4-30-5-31-11-24-13-22-18-22-19-20-25-19-22-14-28-12-26-4-28 6-25 17-18 17-16 22-13 22-9 25-6 25"/>
<path d="M10891 14059l 4 27 17 24 18 18 19 16 22 16 25 8 24-7 18-17 16-25 17-32 9-27 11-26 11-27 10-26 12-25 10-27 10-25 9-25 9-25 8-27 9-26 7-28 6-27 7-24 9-31 7-27"/>
<path d="M13510 2579l-22 20-14 22-14 24-12 26-8 27-6 27-1 26 5 31 10 22 20 26 19 18 23 14 24 12 26 7 27 2 28-3 25-6 26-11 24-14 22-18 21-21 18-23 15-25 11-22 8-29-2-28-11-28-15-21-20-19-23-21-27-18-27-12-27-8-27-8-27 0-24 1-28 8"/>
<path d="M13922 2717l 16 23 17 22 19 21 19 16 18 16 25 14 24 14 23 13"/>
<path d="M14057 2735l-24 12-18 17-15 22-14 23-12 25-9 25-6 26"/>
<path d="M14214 2594l 15-20 28-5 24-4 29-1 27 3 24 10 21 13 1 27-14 23-19 24-16 21-20 20-20 21-19 19-16 18-14 22-9 26 10 22 25 7 24 1 30-2 25-3 25-4 29-5"/>
<path d="M14693 2546l-17-23-17-21-18-21-22-15-24 7-20 15-18 19-15 24-13 24-7 26-2 24 2 26 9 25 24 13 25 0 29-7 25-13 21-19 15-20 15-23 12-24-9 27-3 25-3 28-3 29-3 29-3 28-1 30 1 28 5 27 5 24"/>
<path d="M14945 2620l 23-12 27-8 23-6 26-5"/>
<path d="M14956 2685l 28-4 25-7"/>
<path d="M15379 2406l 0 27-9 25-9 24-9 28-7 26 7 24 22 10 24 1 26-5 26-9 27-9 27-9 23-10 23-9 27-11 27-13"/>
<path d="M15543 2412l-11 24-2 26 3 26 2 25 1 29-1 31 0 25 2 29 3 28"/>
<path d="M15880 2380l-13 25-4 30 3 24 4 29 3 31 2 27 0 28 1 29 2 28 2 28 3 31 5 29 4 29 4 26"/>
<path d="M15437 3113l-9 23-9 25-9 23-13 27-14 27-14 23-17 27-20 31-15 23-18 25-19 26-21 28-20 29-23 31-25 31-24 33-27 31-28 32-29 33-32 30-31 33-31 31-31 31-32 31-33 27-34 27-35 27-37 26-36 27-39 26-39 27-41 24-21 12-42 25-41 22-39 22-39 20-39 19-39 18-39 16-37 17-38 16-34 17-37 16-35 15-34 14-35 13-34 14-33 13-34 13-37 13-38 15-38 16-35 12-32 14-33 8-29 8-31 8-31 9-32 9-33 10-30 10-33 10-25 7-32 9-29 7-25 7-25 6"/>
<path d="M13495 4338l-14 27-16 27-14 21-14 23-12 22-16 23-13 24-13 23-9 24-3 24 20 15 24 3 25-3 25-2 26-2 24-1 24 7"/>
<path d="M12852 4702l 22-10 24-6 27-4 25-6 28-4 27-3 24-3 24 2 21 14 11 25 6 23 3 30 3 27 2 29 3 33 2 25 2 25 1 26 3 27 0 27 3 30 3 31 2 30 2 32 2 33 3 37 3 37 4 40 4 40 4 42 3 41 3 43 3 45 2 46 4 47 1 25 3 24 3 48 1 25 4 26 1 27 2 27 1 27 1 27 2 28 1 28 3 28 0 28 3 28 1 29 2 28 1 29 2 29 1 29 3 28 1 30 2 29 2 28 1 30 2 30 2 28 2 29 0 30 2 30 1 29 3 28 2 29 2 28 3 28 2 28 3 27 3 28 3 27 2 28 3 28 3 28 3 28 2 29 3 28 2 28 2 29 3 29 1 30 3 30 2 31 3 30 1 32 3 31 0 31 2 32 1 31 3 33 1 32 2 34 3 34 1 34 4 35 1 35 3 38 1 37 1 38 2 38 1 39 1 38 1 39 0 39 2 38 1 37 1 39 2 38 0 37 1 37 1 36 1 38 1 37 2 37 0 37 1 37 2 36 0 38 2 37 0 38 1 39 0 38 2 39 1 39 0 41 1 41 1 42 1 42 1 42 0 42-1 44 0 44 0 42 0 42 0 43-1 41 0 42-2 43 2 40-1 41 0 40-1 41 0 40 0 40 0 39 0 38-1 39 0 40 0 40 0 41 0 42-1 42 0 43 0 43 0 43 0 42-1 43 0 40-1 41-1 39 0 38-1 39 0 37 1 37 1 36 1 36 0 36 2 36 1 37 1 36 2 36 1 36 0 36 2 35 1 35 1 34-1 34 1 33 1 32 0 32 1 31 0 33 0 32 1 32 2 32 1 31 0 30 1 31 0 30 1 28 0 28 0 26 1 26 1 27 1 26 1 25 0 25 1 25 2 47 1 46 1 45 1 43 1 40 2 38 1 35 2 32 2 29 1 25 3 31 3 26 3 25 6 25-25 2-28-2-25 3-25 2-30 1-26 2-29 3-24 3-27 2-29 4-24 8-23 8"/>
<path d="M3664 9934l 7-23 24-15 24-7 28-5 25-2 26 5 19 17 9 25-1 24-10 29-9 24-11 25-17 24-15 24-14 21-17 20-20 23-18 22-18 23-14 20 25 2 29 0 25-3 29-6 29-4 26-3 25-2 24 2 26 7"/>
</svg>
