<svg xmlns="http://www.w3.org/2000/svg" viewBox="561 4971 13640 27416" stroke="black" stroke-width="32" stroke-linecap="round" stroke-linejoin="round" fill="none" data-xena="0 -2527"><style>@media(prefers-color-scheme:dark){svg{background-color:black;stroke:white;}}</style>
<path d="M5417 18070l 0-1 19-16 7 26 1 24-6 29-10 30-8 26 22-17 16-20 18-23 17-21 17-18 21-18 1 28-10 27-8 25 16 20 27-7 22-10 25-15 25-16 24-17 23-17 20-19 8-25-16-19-25 5-25 18-21 20-21 25-18 27-12 25-7 25 25 0 21-13 23-17 22-18 19-17 4 25-10 29-6 26-7 31-7 37-4 28-2 32-4 34-4 39-5 42-8 42-8 43-10 39-10 34-9 29-9 25-14 26-20 14-13-22-7-35-3-30 0-34 2-38 3-40 6-40 9-36 11-32 13-28 14-25 15-24 17-22 18-21 20-20 21-19 21-19 19-16"/>
<path d="M5931 18194l-1 0 24 11 24-7 25-15 22-18 24-20 23-21 18-19 17-19-25 16-17 23-15 25-10 25-1 28 19 16 26-6 25-15 28-19 28-23 26-23 20-23 18-23-10 23 13 20 15 24 6 26-3 25-15 23-23 16-26 7-24-3 24-14 30-3 26-3 28-4 25-4"/>
<path d="M6064 17966l-1-1"/>
<path d="M6520 18224l 0 0 23-14 23-12 24-15 25-19 19-17 22-21 15-20-23 17-18 24-16 25-12 28-4 25 16 21 25-3 24-13 19-17 22-21 20-22 18-23 18-24 17-26 17-29 17-32 11-23 12-23 15-31 10-23 10-23-18 20-15 21-14 21-15 28-9 22-11 23-11 25-10 25-10 27-8 27-6 25-3 35 0 27 5 26 21 13 26-1 25-9 29-14 30-16"/>
<path d="M6677 18010l-1-1 26-6 30 3 31 6 28 2 30 0 27-2"/>
<path d="M6607 17954l-1 0"/>
<path d="M6987 17839l 1-1 22-12 28-3 26 9 18 19 8 27-7 27-10 22-15 26-11 22-12 26-12 27"/>
<path d="M7022 18207l-1 1 1 25 26 9"/>
<path d="M818 19202l 0 1 21 12 20-14 21-25 15-23 17-28 19-34 20-38 21-41 11-22 11-22 10-23 11-23 10-23 10-23 9-22 17-43 12-40 8-38 3-32 1-28-3-30-25-10-18 17-20 31-13 27-12 33-12 39-12 44-6 25-5 25-5 27-5 26-5 26-2 26-3 25-2 24-3 46 1 41 4 35 6 27 12 26 21 12 28-9 26-18 20-17 19-20"/>
<path d="M1132 19044l-4 1-21 16-14 21-5 23-1 30 8 25 23 15 25-1 24-16 16-20 10-23-13-22-21-13-14-19 19-22 22-17 25-14 23-8 28 2 11 22-4 24-6 24-7 28 25 7 19-24 15-21 14-19 15-20 16 20 6 27 17 18 26-4 23-18 17-25 14-28 7-29 0-26-9-25-18-23-25 6"/>
<path d="M1551 18883l-1-1 25-4 29-6 30-8"/>
<path d="M1709 19111l-1 0 27 1 25-8 22-11 23-15 23-21 22-25 18-28 15-28 10-26 5-24 3-26 24 11 28-2 25-2 29-1 28 0 15 20-12 22-15 22-20 22-20 23-19 20-19 22 28 5 26-15 29-15"/>
<path d="M2211 18910l-1-1-23 10-22 15-19 16-16 21-13 23-9 23 26 9 26-13 25-17 21-19 20-20-19 19 0 26 15 22 24-3 22-18 19-22 19-21 17-21-4 24 16 21 25 3 20-18 18-23 17-20 22 12 8 25 3 24 24-11 18-25 18-29 13-21"/>
<path d="M2605 18717l 0-4-5-26-24 5-10 26-2 32-1 31-1 25-1 27-2 30-3 33-3 33-4 32-5 29-5 31-4 25 6-25 5-29 8-35 7-33 8-26 10-22 15-20 26-8 25-2 24 7-5 25-13 23-22 22-23 20-19 17-14 19 23 9 27 1 25-3 26-7 30-12"/>
<path d="M3217 18967l 0-1 5-24-26 11-17 24-11 24-10 22-1 29 9 23 23 12 27-5 26-13 27-17 24-20 20-18 13-21-8-24-25-12-25-9 24 5 27-1 27-4 25-10 17-17 19-18 24-11 25-7 25 1 10 25-11 22-16 19-18 21-21 23-19 24-13 22 23 15 25-1 27-4 31-10 25-9"/>
<path d="M3849 18982l-1 0 7 24 25 5 25-11 25-20 19-19 22-25 24-28 25-32 25-34 25-34 24-35 22-35 19-35 16-35 13-35 9-35 5-35 2-32 0-28-3-31-22-13-23 24-21 31-15 27-15 31-13 35-13 39-12 43-10 45-10 46-7 44-5 43-1 39 0 30 5 25 13 25 21 17 26 8 35-2"/>
<path d="M4287 18883l-1-1-14-20-26 13-24 22-17 20-15 20-13 21 5 24 27-8 24-10 27-15 26-15 24-15-11 23 12 21 25 6 26 0 28-12 21-15 23-20 24-25 23-25 17-23 9-24-16-18-23 5-22 15-8 23 15 24 22 19 21 22 15 22 6 25-19 20-29 5-31-3-27-3-25-2 29-10 29-10 26-11 28-12 30-14 30-17 21-12 21-14 21-14 20-13 20-15 27-23"/>
<path d="M4743 18546l 1-1-4 25-5 27-8 35-8 28-10 30-11 35-14 36-16 37-16 37-16 36-13 32-9 28-6 31 14 24 30-1 35-15 30-15"/>
<path d="M4564 18804l-2-2 8-29 28-20 26-15 30-16 33-16 33-13 35-14 35-11"/>
<path d="M4954 18763l-1-1 22-13 31-7 29-5 35-5 25-4 30-4"/>
<path d="M5154 18922l 1-1 23-13 29-15 26-16 20-15 21-17 22-20 25-23 25-26 25-30 25-31 23-31 19-30 17-28 13-28 9-25 5-25 1-35-7-29-12-23-23-13-26 9-23 21-16 20-14 25-13 29-11 34-9 37-7 38-7 41-2 40-1 37 1 35 2 31 4 27 8 33 16 23 21 15 29 3"/>
<path d="M5603 18769l-3-1-28 0-25 11-25 16-20 15-18 16-20 22-12 22-5 26 25 7 27-15 28-17 27-19 23-17 19-16-17 19 11 25 24 11 25-4 23-12 20-15 20-17 17-17-16 19-10 25-1 24 27-5 27-20 23-20 25-22 23-24 17-22 14-19 13-22-21 18-16 27-10 27-7 34-5 24-3 27-3 29-1 32-2 32-3 31-3 30-8 29-7 30-10 29-13 28-13 24-15 21-23 23-21 12-26-2-22-22-6-28 0-24 4-28 8-29 12-32 13-29 15-28 17-28 18-26 21-26 22-25 23-24 22-21 23-19"/>
<path d="M5903 18782l-1 1 23 11 24-11 22-16 16-18-18-16-27 5-23 10-22 16-19 17-10 24 16 22 25 9 30 5 25-4"/>
<path d="M6075 18736l-1-1 21-17 24-3 6 24-21 19-18 16-21 21-16 24-7 23 20 15 27 3 25-5 27-12"/>
<path d="M6274 18488l-3-1 24-7 28 4 27 7 27 9 21 17 4 25-9 29-15 26"/>
<path d="M6324 18765l-1 1 0 25 12 22"/>
<path d="M7790 5917l 0 0 24 6 26 6 27 1 24 1 28 5 27 7 29 5 26 2 25 1 30-3 29-3 27-4 25-2 24-1 28 0 28 3 25 0 27 0 25-3 25-2 25 2 25 0 25 0 25 1 25 1 26 6 26 4 26 2 26 1 25 0 26 1 25-1 24-2 25 2 25-1 25-1 27 0 27-3 24-1 28-2 25-2 29 0 24 0 26-2 26-5 25-5 28-6 29-6 25-3 29-3 29-2 25-3 26-1 27-1 29 1 28 4 25 5 25 5 25 3 27 2 25 2 28 0 25 0 27 0 27 0 25 2 25 1 26 0 28 2 29 0 30-1 27-1 26 0 27-1 25 0 27 1 30 2 25 3 29 3 26 2 27 1 28-1 29 0 28-3 28-2 28-2 25-1 24 1 24 2 26-3 25-2"/>
<path d="M6871 5541l-1-1 17-17 21-14 23-13 26-10 24 2 2 24-7 25-10 29-9 26-10 30-8 26-7 24-2 25 2 26 15 22 29 3"/>
<path d="M6983 5784l-1 1 26-7"/>
<path d="M7099 5636l-1-1-5 25 25 7 22-17 16-19 25 11 23-7 21-17 16-21 5-25-17-21-24-15-22-11-25-8"/>
<path d="M7209 5382l-1-1 21 20 14 23 10 24 5 27 6 29 4 28 2 24-1 25-6-23 4-25 13-22 20-15 25 7 14 21 4 24 24-6"/>
<path d="M7421 5463l 0-1-25 0-18 21-5 24 21 14 23-9 13-21 21 11 23-8 18-17 20-25 13-23 11-25 9-26 3-28-2-28-6-30-10-29-11-22-22-14-22 14-15 24-6 32 2 25 7 27 12 29 12 30 13 30 12 26 13 23 17 21 20 14 25-6"/>
<path d="M7379 5414l-2-1 27-14 26-13 22-9 23-10 25-10 24-12 24-11"/>
<path d="M6970 6048l-1-1-21 15-15 25-12 27-10 29-4 29 5 25 16 22 26-6 22-22 19-24 19-29 12-32 5-24 1-34-6-34-7-24-12-25-11-26-12-27-13-23-12-25-21-16-12 25-2 27 4 32 8 25 13 25 15 27 15 28 15 30 12 27 13 20 19 19 26-4"/>
<path d="M7123 6009l-2 1-18 18-9 24 3 28 17 20 25 4 25-10 20-18 9-22-5-25-24-18-26-12-25-5 23-10"/>
<path d="M7236 5966l-1 1-11 21 25-3 24-14 17-21-24-7-23 9-22 15-21 20-9 24 15 22 28 2 26-6 26-13 26-18 23-21 17-24 14-22 6-25-25 0-1 25 22 13 26 6 22 10 1 24-19 18-24-1 24-6 27-2 28-4"/>
<path d="M6928 6363l-1-1 10 27 3 25 4 26 3 29 2 33 2 32 3 27 5 25 24-13"/>
<path d="M6890 6551l-2 1 22-20 26-13 27-15 23-19 18-23 14-25 6-27-2-25-8-23-10-22-10-25 13 26 9 30 8 24 8 25 7 24 8 23 9 28 8 26 20-14 9-25 10-25 8-24 18 18 5 24 25-8"/>
<path d="M7187 6386l-1-1-8 25 3 26 14 21"/>
<path d="M7174 6296l-3 1-18 17 1 26 24 11"/>
<path d="M7235 6413l 0 1 23-13 17-21 12-23 6-25-12-21-25 6 20 19 25 13 20 15 2 26-18 19-24 8 28-4 27-14 24-14"/>
<path d="M7018 6699l-1-1 17 18 2 25 1 31-2 31-4 30-5 27 5-30 7-27 7-27 11-25 11-26 16-20 21 13 2 27-2 25 18-20 13-25 13-25 11-22 15-23-5 25-7 27 0 26 25-1 21-18"/>
<path d="M7252 6645l-1 1-12 20 24 0 23-17 17-20 13-23-24-8-24 8-19 17-16 24-11 26 1 26 22 14 24-1 23-9 22-15"/>
<path d="M7387 6608l-1 0-25-2-18 19-11 22-7 24 24-3 18-19 15-21 2 24 24 10 20-18"/>
<path d="M7454 6573l-1-1-8 25 3 25 17-23 13-24 14-21 16 19 3 26 23 10"/>
<path d="M7557 6387l-1-1 25-2 10 22 0 25 3 25"/>
<path d="M7599 6578l 0 1 16 19"/>
<path d="M13336 31429l 0 0 29 1 25 3 30 3 25 2 26 2 30 2 32 1 33 0 34-2 33-1 32-2 30-3 27-2 24-2 30-3"/>
<path d="M7802 31728l 0 0 26 1 26 4 25 5 27 4 27 1 30 0 26-1 28 0 29 0 32 0 33 0 25 1 35 0 25 0 25-1 25 0 25-1 25-2 24 0 25-1 25-1 26-2 27-2 27-1 26-3 25-2 26-2 26-3 25-2 28-2 25-2 27-2 26-3 26-2 26-2 26-1 26-2 26 0 27 0 27-1 28 1 27 0 25 0 26 0 26 0 25 1 27 0 26 2 27 0 27 1 27 0 28 0 27-1 29 0 28-2 28-1 30-2 29-2 29-1 28 0 27 0 28 0 28 0 28 0 28 0 28 0 28 0 28 0 29-2 29-1 30-2 32-2 30-2 31-1 31-1 30 0 31 1 32 1 33 2 30 2 31 2 31 2 30 1 30 1 30 2 30 0 31 0 32 0 31-1 30-1 30-1 29-1 30-1 30 1 28 0 29 1 29 0 27 1 29 2 27 0 28 2 29 2 29 1 30 1 31 1 31 0 31 0 32 1 31 0 31 1 31-1 32 0 33 0 33 1 32 0 33 1 34 2 34 0 36 3 35 1 33 1 33 1 34 1 31 1 32 1 34 1 32 1 34 2 34 1 35 1 36 0 36 1 35 1 35 1 34 0 36 0 36 0 36 0 37 0 36 0 36 0 38 0 37 0 38 0 38-1 37-1 37-1 37-2 36-1 37-2 35 0 36-2 35 0 37 0 37-2 37-1 38 0 37-1 36 0 35 0 37 1 36 0 37 1 38 1 39 1 38 2 40 2 41 1 41 2 43 2 43 1 43 1 43 1 43 2 45 1 45 0 47 0 46 0 25 0 47 0 25 0 48 0 24 0 46 0 46-2 42-2 42-2 40-3 36-3 34-3 30-4 24-4 26-5"/>
<path d="M7734 32104l 1-2 25-12 26-2 27 5 27 7 35 9 28 5 32 4 36 2 40 1 43 1 44 1 25-1 25-1 25-1 25 0 26-1 25-1 26 0 25 0 25 2 25 1 48 4 24 2 24 1 24 1 49 1 24 0 25 0 24-1 44-2 44-4 38-3 35-5 33-6 27-5 24-6"/>
<path d="M3529 9828l-1 0 22 9 25 5 25-2 25-2 28 0 27-4 25-7 27-8 26-5 27-5 26-4 27 1 27 4 27 5 23 7 25 5 25 1 25 0 26-3 26-2 26-1 29-1 28 0 25 0 28 1 27 0 27 1 24 2 24 3 26 4 26 5 28 4 25 1 28-3 26-2 24-3 28-2 25-2 26-2 29-3 25-1 27-2 26-3 28 0 29-2 29-1 31-2 24-1 31-1 32-2 24-1 29 0 29 2 30 1 28 1 29-1 27-1 28-2 29-2 29-2 29-4 26-4 25-3 25-2 26-3 27-2 28-5 28-2 29-3 28-1 28-2 29-1 27-1 28 0 27 1 27 0 26 0 25 2 26 2 27 3 26 2 26 2 24 2 26 1 25 0 26 0 26 1 25 1 25 0 25 1 26-1 26 0 24 0 24-2 25-2 32-2 24 0 30 1 26 1 26 2 25 2 26 3 29 0 28 1 29 0 25 2 25 2 26 2 29-2 25-1 26-1 26-1 26-2 30 0 32-1 28-1 29 0 29-1 28-1 24 1 29 0 27 5 24 6"/>
<path d="M1896 10101l 0-1 26 5 25 4 24 1 26 5 28 2 25 3 24 1 26-1 28-3 29 0 28 0 28-2 27 0 29 0 28-1 28 0 27-3 26-3 27-2 29-2 31-3 25-1 30-2 30-1 25-1 31 0 24 1 25 0 24-1 31-1 26 0 26 0 26 0 26 0 26 1 27 0 29 0 31-1 30-1 29 0 30 0 28 0 27-2 26-1 26-1 24-3 29-1 29-1 29 1 29 1 32 0 24-2 26-1 25-2 25 0 24 0 31 1 28 3 29 1 31 1 31 3 30 1 31 3 32 2 33 3 24 2 31 0 31 0 31-1 32-1 31 1 29 0 28-1 28 0 28 0 29 0 30-1 28-1 27-1 30 0 26 0 32 0 31-2 30 0 24 0 25-1 25 0 31-2 31 0 30 1 30 0 31 0 32 0 24 0 25 1 25-1 25-1 30-2 26-3 26 0 26 0 28 0 25-2 25 0 29-1 24 0 27 1 27 2 28 2 27 3 25 3 24 4 26 4 27 1 26 1 30-1 25 0 27 1 25-1 25 0 25 1"/>
<path d="M1346 15478l 0-1-19 23-11 29-14 33-12 27-15 33-17 38-19 44-11 23-10 23-10 24-11 26-10 24-9 26-10 26-9 26-9 27-8 26-9 27-8 27-8 28-7 29-7 30-8 31-7 32-8 33-8 35-7 35-9 37-8 37-8 37-8 37-7 37-7 37-6 36-6 36-5 35-5 33-5 33-5 32-4 30-3 31-3 30-2 29-2 30-2 29-1 30-1 29-1 30 0 28-1 30 0 29-1 28 1 27-1 27 0 27 0 26 1 25 1 24 0 24 2 46 2 44 2 42 3 40 4 36 4 34 4 33 5 31 6 31 6 30 5 28 7 25 10 33 10 30 10 27 11 22 11 23 12 22 13 22 12 23 10 23-4-28"/>
<path d="M885 18289l 0-2 8-24 6-24-8 33-5 23-5 28-5 30-4 29-3 26-2 27-1 33 3 28 28-3 14-20 16-28 15-29 12-26 8-28 9 23 10 25 14 20 19 20 25 2 21-19 13-23 11-27 8-30 4-31-3-27-9-24-15-20-19-16-21-12-24 7 6 25"/>
<path d="M1134 18002l-1 0 9 27 9 25 11 33 8 28 7 31 6 35 6 37 4 38 3 40 2 38 0 35-2 32-3 25-4 30-5-35 4-28 5-28 7-29 8-27 8-23 12-28 16-25 21-12 19 16 5 26 1 25-2 27-3 27-2 24-1 25 1 30 5 24 25 11"/>
<path d="M1465 18292l-2-1-25-5-25-4-27 10-15 21-10 24-7 26-5 30-2 27 5 30 22 13 24-15 20-20 20-24 18-26 15-22 11-25 1-25-17 18-3 24 3 28 7 25 8 24 14 23 28-2 23-22 18-29 13-24 12-29"/>
<path d="M1630 18041l-3-1-24 2-20 23-13 29-7 28-4 35-2 26 0 30 2 32 2 34 4 34 4 33 5 31 6 25 11 33 12 22 25 10 20-19"/>
<path d="M1473 18309l-5 1-24 12 18-17 28-20 25-16 29-18 31-21 34-22 36-23 38-24"/>
<path d="M2043 17997l 1-3 8-23-2 25-4 36-4 31-4 35-4 38-2 40-2 40 0 38 1 33 1 30 3 25 7 27 13 21 28-13 19-24"/>
<path d="M1987 18227l-6 4-20 13-23 14 20-22 25-22 19-16 20-17 22-15 22-15 22-13 31-13 25-8 25-3 19 15-2 30-6 25-8 29-6 28-7 30-3 24 26-2 19-26 15-22 15-26 15-27 15-26 12-23 15-27 13-23-3 31-5 30-4 37-1 26-2 29-2 30-2 35-3 35-3 40-4 42-6 42-5 42-7 40-8 37-7 36-8 32-7 27-8 23-13 25-26-13-7-31-3-27-1-34 2-38 6-39 8-42 9-40 12-39 15-36 15-32 17-30 18-27 20-24 20-22 20-20 19-17 24-23 20-15"/>
<path d="M2414 18169l-1 0-3 26 1 28 2 26 0 36 0 28-3 31-2 32-4 34-4 33-5 32-5 30-3 25-6 26 1-27 2-25 1-29 2-31 1-31 1-31 1-31 2-31 3-31 3-27 5-25 5-28 5-25 12-25 20-16 23-10 24-2 29 7 23 18 11 27-8 33-15 31-14 23-16 22-18 23-19 20-20 18-20 15-22 11-23-12"/>
<path d="M2579 18204l-1 2-10 22 22 16 25 0 24-7 22-18 15-24 3-27-19-15-25 3-23 12-22 21-15 20-12 21-12 28-4 24 5 27 16 20 30 8 26-6 33-16 26-17"/>
<path d="M2990 18229l-1-1-24 13-14 27-7 25 1 25 15 20 29-2 25-14 22-23 17-25 10-26-4-27-16-20 28-10 21-17 24-23 18-21 19-22 18-25 18-28 16-29 14-29 11-28 7-26 4-24 2-31-4-25-25-9-23 24-14 20-13 25-13 32-12 37-13 43-5 23-5 25-5 26-5 28-5 27-5 28-4 30-4 30-4 31-3 30-3 29-2 28-2 28 0 27 0 24 2 43 6 35 9 27 15 29 21 20 24-1 20-23 13-31 7-25 5-28 2-28-2-29-5-28-9-27-11-25-12-21-18-26-19-21-22-14 19-20 28-15 32-16 26-12"/>
<path d="M3624 18283l 0-1 24-20 17-17 21-21 22-26 13-20 15-22 14-24 16-27 17-27 16-30 16-31 15-30 12-28 8-24 6-32-3-27-28 1-19 22-14 23-15 30-14 36-12 44-5 24-5 26-5 25-3 28-4 28-4 29-2 30-3 30-2 31-2 30-1 29-2 30-1 27-1 28 0 25 2 46 3 36 6 27 11 24 27 7 20-15 15-19 16-27 14-33 13-36 10-35 5-33 1-32-2-30-5-29-8-26-9-22-16-22-24-11-27 8-20 16 28-14 23-13 25-15 28-15"/>
<path d="M3992 18103l-1-1-20 22-9 23-9 26-8 28-5 27-2 24"/>
<path d="M3999 17999l-4 3-20 18-16 21 0 24"/>
<path d="M4058 18114l-1 0 7 25 0 29-5 26-5 24 19-20 14-22 15-20 21-21 21-15 18 18-10 26-13 27-8 26 18 18"/>
<path d="M4253 18133l-1 1-18 18 23 6 25-4 26-7 21-13 18-18 1-25-24-12-25 1-25 12-19 18-15 25-11 29-4 26 4 26 17 21 26 9 25-4 23-10 24-17 25-20"/>
<path d="M4484 18060l-1 0 26-2 29-2 31-4 31-3"/>
<path d="M4807 17893l 0-1 24 9 2 32-2 32-4 27-6 28-6 30-8 32-9 32-10 32-10 32-10 29-8 25-10 27 6 23 28-12 26-16 19-15 20-17 20-18 18-19"/>
<path d="M4761 18104l-2-1 11-21 22-13 28-11 28-6 26-1 28 4 24 9 18 16-9 25-9 25-11 28-12 30-10 25-2 25 26-6 22-19 17-20 16-18 18-22 15-20-20 15-8 24 5 27 20 14 24-14 21-19 20-17 21-19 22-21 17-18-17 21-12 22-9 26-5 28-1 25 24-10 20-23 16-22 18-22 16-18 19-17 9 23-12 25-8 25 7 23 26 4 24-14"/>
<path d="M5314 18095l-1 0-15 20-1 26 1 27"/>
<path d="M5367 17961l-4 1-29 10-20 13-16 18"/>
</svg>
