<svg xmlns="http://www.w3.org/2000/svg" viewBox="722 -330 13776 16616" stroke="black" stroke-width="32" stroke-linecap="round" stroke-linejoin="round" fill="none" data-xena="13 260"><style>@media(prefers-color-scheme:dark){svg{background-color:black;stroke:white;}}</style>
<path d="M1296 1772l-1 2-4 27 16 20 23-14 13-24 14-25 15-35 18-41 9-22 9-24 10-25 10-25 10-28 10-27 9-28 10-28 8-29 9-28 7-29 6-28 5-28 5-27 4-27 3-26 2-25 4-44 1-36 1-26 0-28-1 35 1 29 3 35 5 40 6 43 9 43 11 45 12 44 13 45 13 44 13 43 11 40 12 36 11 32 11 27 11 24 16 29 13 23 15 19"/>
<path d="M1388 1646l-1-1 15-24 24-19 21-15 25-18 32-21 35-23"/>
<path d="M1915 1602l 0-3 4-28-2-28-3-25-7-24-17-20-26-1-19 16-24 27-16 24-16 26-15 26-13 26-9 25-8 30 0 28 22 12 27-11 23-18 25-20 19-20 17-21 14-21-7 29-4 31-3 25-2 28-3 30-3 33-3 36-3 40-4 43-3 45-5 49-2 24-2 25-2 25-6 46-7 39-8 30-10 23-13 22-25 11-18-23-9-23-5-32-2-39 1-45 1-25 2-26 3-27 3-26 5-27 5-27 6-25 6-25 15-45 16-39 16-35 18-30 18-26 19-23 18-20"/>
<path d="M2009 1635l-1-1 24-14 23-16 19-16 17-18 16-19 13-20-3-24-29-1-25 14-18 20-17 25-15 30-12 34-9 35-2 32 3 25 14 20 27 5 30-12 25-17 26-23 24-26 19-27 17-25 13-23 13-23-1 26-5 28-3 25 3 25 24-15 18-25 15-22 16-22 19-24 19-18 23 11 3 24 2 24 4 29 9 22 23 9 29-8"/>
<path d="M2581 1489l-1-2-10-23-27 1-23 12-18 16-20 24-14 20-14 22-14 24-10 25-9 22-5 31 2 24 17 23 25 0 30-13 24-21 16-20 17-24 16-27 16-29 14-33 13-35 12-37 9-38 5-39 4-42 1-45 0-45-2-44-3-38-3-30-8-32-15-22-26-4-18 26-9 29-5 27-3 31-3 37-1 40 1 43 3 44 4 43 5 42 6 39 7 35 8 30 9 25 13 30 15 23 20 19 25 1"/>
<path d="M2887 1541l 0-2 11-25 5-25-2-27-18-17-30 6-22 18-17 18-18 23-19 27-17 26-16 24-13 23-10 26 1 24 30-4 26-14 30-20 29-21 25-21 19-19 15-19-13 26-5 27 2 28 10 24 16 18 24 12 26 3"/>
<path d="M3114 1661l 0-1 1 29-7 30-10 28-13 30-13 31"/>
<path d="M3455 1189l 1-5 12-26 11-23 15-25 15-20 18-15 18 21 3 32-2 32-2 25-3 28-3 28-2 31-2 30 0 28 0 26 5 32 7 24 19 21 31 0 23-14 28-24 21-22 21-23 18-25"/>
<path d="M3794 974l-1-1-24 14-11 21-13 31-7 26-8 29-7 34-9 38-9 44-5 24-4 25-4 26-4 27-5 26-5 27-5 28-5 27-4 28-5 27-5 26-4 26-5 25-6 45-4 36-2 28 0 30 25 4"/>
<path d="M3899 1477l 1-2 10-26 4-24-14-22-25 2-22 13-25 23-18 22-15 23-14 23-11 23-10 29-2 30 16 20 29-5 24-11 26-17 24-19 19-18 16-22-14 21-3 27 12 22 24-6 19-17 17-18 17-18 17-22 14-22-2 25-3 25 1 27 24 7 20-14 25-21 21-24 17-20 15 23-3 29-2 28 6 27 14 21 22 9 25-3 29-10 29-15 22-13 23-15"/>
<path d="M4323 1556l 8-6 23-20 20-20 16-20 14-28 10-25 3-26-7-26-20-14-24 4-22 12-25 20-16 18-15 20-14 23-10 24-7 24-5 34 0 25 12 24 23 10 27-5 20-14 16-18 14-20 7 31-2 28-1 34-2 26-3 29-4 32-3 35-4 38-6 40-7 42-9 43-9 44-9 41-10 38-11 34-10 29-11 24-15 27-23 15-20-25-11-35-5-30-3-37 1-43 3-47 3-25 4-25 5-24 5-24 12-42 13-37 15-31 17-29 18-26 19-23 19-22 20-18 18-16 27-19 24-14 26-13 26-2"/>
<path d="M1603 2642l 0 0 1 26-5 30-9 34-8 28-10 30-12 32-13 33-12 32-12 31-10 28-10 27-8 24-11 29-9 26"/>
<path d="M1689 3064l-1-1 20-15"/>
<path d="M2337 2529l-1-2-14-20-25-7-24 10-25 16-20 15-20 19-22 23-23 26-23 28-22 31-20 32-19 33-17 32-14 33-11 29-6 26-2 30 6 24 18 22 23 11 31 4 26-1 29-5 33-8 36-10 38-12"/>
<path d="M2565 2804l-3-1-24 1-24 16-17 23-11 22-12 23-8 25 8 23 26-3 22-15 18-17 19-24 11-26-7-24-19-17 25 6 24-17 22-18 25-23 19-18 20-21 22-23 21-23 22-26 20-27 20-27 15-28 13-26 10-26 7-23 3-30-2-24-26 2-19 17-22 27-17 23-17 29-17 33-16 35-14 37-11 39-10 38-6 37-3 34 0 30 3 26 10 30 20 22 28 3 27-15 21-17 23-22 25-27 27-30 25-32 25-32 23-34 20-34 17-35 13-36 10-36 7-33 5-31 3-27 0-32-7-24-24 8-19 18-21 26-15 19-14 23-13 25-13 31-13 33-11 37-10 39-8 38-6 36-2 34-1 30 2 28 4 25 8 31 13 22 24 14 31 0 28-8 31-12"/>
<path d="M3161 2791l-1-3-1-26-24-10-21 13-21 17-21 21-19 24-16 25-9 23 4 25 27-8 24-16 27-21 25-21 17-17-5 25 5 23 16 18 30 4 31-10 26-17 18-17 19-20 21-22 21-26 21-29 23-30 20-31 19-33 16-32 13-34 10-34 9-36 6-34 4-31 2-26-1-28-28-3-22 25-19 24-20 29-19 33-18 36-14 40-11 44-8 47-2 25-3 24-1 47 3 45 6 39 11 31 14 24 23 23 27 10 27 1 24-7 21-14 18-20 11-25 4-30-4-33-11-31-18-29-20-21-22-11-26 1-25 11 23 15 30-1 28 0"/>
<path d="M3654 2721l 0-1-24-3-20 19-20 24-14 22-11 23-10 27 3 25 25 10 27-10 28-14 28-18 27-20 24-20 19-21 1-25-23-12-26-3 22-11 24-5 27-3 24-4 23-10 24-5 27-4 25-5 26 0-6 25-17 21-17 18-16 19-22 21-17 21 5 24 23 8 28 1 27-3 31-6"/>
<path d="M4134 2754l-1-3 0-27-5-24-21-12-27 13-21 17-21 23-20 24-15 21-7 25 24 14 28-6 25-9 25-12 26-13 19-15-11 22 21 14 30-1 24-10 26-15 30-22 22-19 23-21 22-25 21-25 18-28 16-29 15-30 11-31 9-33 8-33 5-32 5-31 2-24 0-24-27 18-15 29-10 23-10 25-9 28-9 31-7 33-8 36-8 38-8 39-6 39-5 36-3 32 2 27 5 28 10 23 24 5 24-18 18-21 16-25 11-26"/>
<path d="M4339 2645l-7 0-25 0-31 2-26 5 25-5 28-8 31-8 34-10 36-8 34-7 32-4"/>
<path d="M4556 2626l-1 0-3 24-5 25-5 26-7 30-6 29-4 25 0 25"/>
<path d="M4623 2514l-3 1-20 16 2 26"/>
<path d="M4636 2709l 1 2 4 25 4 24 12 24 23 13 27-2 24-12 22-18 16-23 6-29-10-25-22-16-26-8-25 1-24 5 28-11 27-12 27-9 24-3 24 10 15 27 4 31 0 26-1 24-2 26 22-23 14-26 14-27 14-23 16-22 21-13 12 23-2 26-1 25-2 25 3 26"/>
<path d="M5384 2623l 0-2-8 26-8 25-3 26 18 18 27-1 27-11 30-16 26-20 16-19 11-22-21-14-22 12-13 23-1 24 15 20 22 8 25 1 28-5 25-9 23-15 22-18 17-22 12-23 3-25-7-26-23-10-22 11"/>
<path d="M5892 2211l-1 0-11 23-8 28-6 24-8 29-10 35-12 40-13 45-7 26-8 26-10 28-10 29-10 30-13 31-12 31-14 32-13 31-14 31-14 30-15 29-12 27-11 25-11 24-16 38-12 32-5 23-5 24"/>
<path d="M6334 2317l-1 1 30 0 32-11 23-8 27-9 28-9 29-10 31-9 30-9 29-8 25-7 31-7"/>
<path d="M6467 2335l 1-1 23 10 6 27 6 30 5 34 5 24 4 25 4 27 3 27 1 28-1 27-3 25-5 34-9 27-14 27-20 15-27 3-29-8-22-14-22-17-20-19-19-22-8-24"/>
<path d="M6757 2618l 1-4 16-24 12-23 5-25-12-23-29-6-24 8-26 15-28 21-18 17-16 19-20 26-15 25-4 28 27 9 29-7 33-13 32-15 28-16 24-13 24-13-9 22-6 26 2 25 22 16 28 1"/>
<path d="M7036 2571l-2-1-22-10-24 5-25 17-21 23-15 20-15 26-2 28 18 21 27 4 25-3 27-7 30-10 30-12"/>
<path d="M7271 2234l-1-1-5 30 0 27-2 35-3 28-4 31-9 34-9 35-10 35-12 36-12 36-14 37-15 36-14 32-11 26-10 28 17-29 10-24 10-26 10-27 11-29 10-27 11-23 13-29 16-25 19-20 26-5 25 8 23 15 9 24-10 23-20 18-25 20-24 13-21 13-25 15-20 14 7 27 20 16 21 12 29 15 25 8 23 8 28 8"/>
<path d="M2579 3432l 2-1 20-17 22 14-3 33-7 35-7 28-8 29-10 33-10 34-11 35-12 37-12 37-13 37-10 32-9 26-9 29-9 24"/>
<path d="M2679 3846l-1 0"/>
<path d="M3111 3397l 0-1 25-13 24-7 30-7 25-3 24-2 31-1 28-2 28-2"/>
<path d="M3134 3414l 0-1 10 28-5 27-9 33-8 25-9 27-9 27-11 28-10 28-10 28-10 27-9 25-11 33-9 26-8 25"/>
<path d="M3081 3625l 0 0 23-9 23-6 27-5 32-6 27-4 28-5 26-4 26 0"/>
<path d="M3028 3809l-1 0 25-5 30-3 31-4 26-5 29-7 29-6 29-6"/>
<path d="M3334 3681l 1-3 9-23 14-21 18-17 27-6 22 15 13 24 11 26 9 30 6 30 6 26 10 25 15 21 28-5 17-18"/>
<path d="M3581 3580l-3 1-23 15-25 20-19 17-19 20-21 22-22 24-22 25-22 25-22 24-19 22-18 20-19 21"/>
<path d="M3759 3507l-1 0"/>
<path d="M3737 3592l-1 1"/>
<path d="M4004 3608l 1-2 17-18 16 19 4 27-2 32-5 27-5 29-6 29-6 25-5 23 5-27 5-27 8-28 9-30 10-31 13-30 12-27 13-21 15-19 20-18 23-11 28-1 27 8"/>
<path d="M4239 3638l 0-1 24 7 25-4 28-8 27-10 23-13 21-17 3-25-25-5-28 2-24 5-24 10-22 15-19 18-16 20-13 22-8 23-2 27 10 28 16 17 25 12 24 3 27-2 29-9 29-14 28-15"/>
<path d="M4494 3589l-1 1-15 19-8 24-4 27-6 25-7 32-7 26-7 30-9 32-10 33-10 34-11 33-9 30-8 28-9 30"/>
<path d="M4445 3661l 2-4 12-25 12-21 18-22 23-21 26-16 25-7 29 0 24 12 15 25 0 25-9 30-13 22-20 22-21 20-22 17-23 12-27 8-26-7"/>
<path d="M4704 3591l 0 1 9 26 7 27 2 28-4 27-8 27-10 23-18-19 3-25 8-28 11-30 14-28 14-25 17-20 21-20 22-11 25-4"/>
<path d="M4870 3616l-1 0-10 25 1 26 4 25 21 18 25 1 26-11 21-15 19-20 13-23 4-28-5-27-19-17-31 0-22 10-22 14"/>
<path d="M5267 3565l 1-4 5-25-2-25-15-22-23-10-27 6-25 14-25 21-23 26-15 20-13 21-14 29-6 26 5 24 22 10 30-7 29-17 24-16 23-20 26-22 24-25 22-28 20-27 17-29 14-29 11-31 9-31 5-34 5-36 2-37 3-38 2-38 1-34 0-29-1-32-27-2-18 27-14 24-13 29-12 32-11 38-10 40-8 45-7 45-4 43-3 42 0 38 0 35 4 30 6 24 12 27 19 19 26 2 25-10 30-18 20-15 21-16 19-17 18-17 22-27 18-23 12-21 4-25-24 5-17 21-13 24-10 26-5 27 0 30 10 26 24 10 29-6 24-13 25-17 23-20 20-19 19-24 12-21-18 20 0 24 6 26 13 22"/>
<path d="M5869 3456l-1-2-11-23-27 0-25 13-22 15-23 19-20 22-17 23-12 24 6 28 27 10 27-1 34-8 25-9 25-10"/>
<path d="M5992 3449l-1-1-15 20-9 22-9 28-11 28-7 25 3 25 25-2"/>
<path d="M6057 3262l-4 0-28 1"/>
<path d="M6107 3554l-2 1 8 23 30-4 27-9 33-17 25-14 26-19 29-21 29-24 29-26 28-29 28-30 24-34 22-36 19-37 15-40 12-38 7-37 2-33 0-25-8-22-24-7-25 10-21 14-21 20-21 24-21 29-20 34-19 38-17 43-15 43-11 44-6 40-1 38 3 33 5 27 12 32 18 21 21 13 29 5 25-9 18-21 0-28-10-25-16-26-15-25-15-24 26-5 25 3"/>
<path d="M6544 3438l-1 0-20 16-12 28-3 24-3 25-1 28"/>
<path d="M6572 3270l-3-1"/>
<path d="M6822 3114l 1-1 10 23 0 25-4 35-6 29-9 31-11 35-14 37-13 37-15 37-14 36-13 34-11 31-6 25-3 27 12 23 26 0 31-12"/>
<path d="M6947 3381l-3 1-22 12-22 17-12 21 10 24 12 23"/>
<path d="M6944 3252l-1-1"/>
<path d="M7177 3121l 1 1 0 26 0 29-2 28-5 32-5 25-8 27-10 30-12 31-13 32-15 32-15 31-14 28-12 27-9 22-8 25 7 24 29-6 27-15 30-21 18-17"/>
<path d="M7035 3351l-4 0 20-19 23-9 25-8 25-8 25-7 25-5 33-4 28 2 25 11 12 23-5 24-13 29-11 23-12 25-10 27-9 25-6 27 13 23 27-9 24-18 18-16 18-19 17-20 18-21 15-20 19-27 14-23 11-22-14 22-12 23-10 31-8 24-7 27-6 32-7 33-8 37-9 39-10 41-9 42-12 45-12 43-16 42-16 41-20 40-21 40-22 40-25 35-21 28-19 22-24 18-24-13-7-30 0-30 3-35 7-38 10-42 15-43 18-42 20-42 23-38 24-36 26-31 27-27 26-24 27-21 28-18 29-14 28-11 27-10"/>
<path d="M8074 3454l 1-4 18-22 22-18 18 23-8 31-10 27-13 30-14 31-14 30-13 28-9 23-8 25 24 6 27-21 25-21 27-25 26-27 26-28 24-29 22-30 19-28 16-27 13-23 11-25-16 23-13 23-12 27-13 32-13 35-14 40-13 43-7 24-8 23-8 25-9 27-8 25-7 26-8 27-9 26-9 27-8 25-9 25-7 25-9 25-9 23-10 24-10 22-20 41-18 37-18 30-15 21-19 16-18-22-3-24 4-33 8-40 14-46 8-26 11-27 11-29 12-30 13-32 15-33 15-32 17-31 17-30 18-29 18-28 18-25 17-22 18-20 17-17 32-28 31-23 26-15 24-12"/>
<path d="M8465 3512l-1 1 23 10 23-12 24-15 25-17 19-20-7-25-25-5-27 9-23 15-25 20-26 25-22 26-14 24-3 27 19 22 31 6 32-5 36-12 24-10 25-10 23-13 30-17 25-20 19-20 16-25 7-25-19 15 2 27 10 23 11 24 12 24 5 24-5 29-18 21-25 10-24 0-27-5-25-8 24-11 28-5 35-6 25-7 28-8 28-9 28-10 28-11 30-12 28-14 28-15 26-18 24-18 23-22 22-23"/>
<path d="M9105 3186l 1-8 3-26-2-25-24-1-14 25-3 24-5 32-4 25-6 29-7 34-8 37-12 41-15 42-17 44-17 42-16 38-13 33-7 26-5 28 12 23 30-9 28-18 22-17 23-19 24-20 21-23 20-23"/>
<path d="M8947 3342l-8 1-32 6-26 4-25 2 30-14 23-10 27-10 27-11 31-11 33-11 34-9 39-9 43-8 47-8 24-3"/>
<path d="M9144 3426l 0 0 25 7 29-3 23-5 24-8 30-10 23-10-14-23-31 1-25 4-27 9-26 14-25 18-22 21-15 23-9 30 8 26 19 18 24 6 33 1 25-3 27-5 29-7 29-8 27-10 28-11 22-12 28-19 19-19 16-24 0-25-20-16 24 4 24 4 20 15 8 24-15 23-22 17-20 17-12 22 25 13 29-2 26-3"/>
<path d="M9726 3429l-1-2-15-22-28-5-25 5-22 10-25 16-23 21-18 22-14 27 4 25 22 11 34-7 31-14 21-14 21-17 21-18 19-21 17-23 16-24 14-27 14-30 11-34 11-34 9-36 8-37 7-37 5-35 4-32 1-25-3-27-27 5-22 17-20 26-10 22-8 27-5 29-4 34-4 39-5 41-5 43-6 42-4 40-1 38 0 32 2 29 7 34 10 22 22 14"/>
<path d="M10002 3478l 2-1 2-25-22-16-23-7-28 3-24 7-23 10-25 18-18 22 5 24 26 2 29-6 28-8 25-11 4 24 1 26 7 24 25 6 23-11 20-13 20-17 22-20 18-20 13-24-23 17-15 20-13 25 12 22 28-6 28-12 22-13 24-17 24-19 22-20 20-19 14-19 12-24 4-26-24 6-13 20-12 31-7 26-6 29-9 31-8 32-9 35-8 37-9 37-10 39-12 38-13 38-13 35-16 33-16 31-17 29-20 28-19 25-19 20-25 23-25 11-15-21-3-32 1-29 8-34 12-40 17-45 10-25 10-23 13-24 12-23 13-22 25-38 25-32 26-26 24-22 25-18 26-15 26-12 28-10 29-9 28-8 25-6 26-5 32-5 24-1"/>
<path d="M2329 4361l-1-1-2-28 10-26 17-18 27-12 28-4 26 0 29 4 28 7 23 13 19 24 5 25-6 30-10 22-14 26-18 26-21 28-23 27-25 26-26 27-24 25-24 22-22 19-22 17-27 18-22 12-24 3 12-21 26-18 26-12 32-9 34-6 35-2 35-1 35 1 31 1 27 3 27 8 18 16"/>
<path d="M2690 4624l-1 0"/>
<path d="M3109 4209l-2-1 22-15 31-8 24-7 25-8 25-6 26-6 30-5 26-3"/>
<path d="M3161 4229l 0-2-9 28-7 28-11 31-8 23-7 26-7 26-7 29-8 28-7 29-8 27-7 24-10 32-7 25-6 25"/>
<path d="M3113 4427l-1 0 25-12 28-7 24-5 26-5 25-5 31-6 26-3"/>
<path d="M3089 4617l 0 0 29-4 29-1 28-1 24 0 25 0 26 0"/>
<path d="M3399 4511l-1-3 8-23 21-18 25-10 26 7 16 18 11 24 7 30 3 25 2 27 1 28 1 26 2 30 7 27 22 9 20-20 17-21"/>
<path d="M3639 4439l-3 0-23 9-20 15-21 17-25 24-19 19-20 22-20 23-21 22-19 22-18 18-20 26-12 24"/>
<path d="M3759 4366l-1-1 10 25"/>
<path d="M3754 4471l-1 1"/>
<path d="M4117 4442l-1-1-13 21-15 24-17 31-13 22-12 22-15 30-8 24 6 26 29-7 22-15 23-19 23-21 20-19 18-19 14 25 18 22 21 13 25 5 23-9 20-21 16-26 12-23 8-24 2-25 0-25-5-25-7-27"/>
<path d="M4479 4497l-1-3-10-24-10-22-26 8-22 21-19 22-19 26-16 24-12 27 14 21 25-9 24-14 23-16 23-18 16-19-19 15-8 25 10 25 23 8 28-5 26-13 21-17 20-18 21-22 19-21 16-21 14-26 2-25-17-18-20 20 3 27 15 23 15 22 11 23 6 25-2 25-12 24-23 14-25-2-22-10 28-6 25-1 27-4 30-5 29-7"/>
<path d="M4789 4457l-1-1 15 24 0 26-6 24-9 26-10 22-14 22 4-27 10-25 15-30 15-29 17-25 15-21 19-20 22-12 21 12 8 25 1 25-3 27-5 25-6 23-2 25"/>
<path d="M5092 4261l 0-1 10 24-4 28-11 29-13 24-16 27-19 25"/>
<path d="M5292 4083l-1 0 3 26 4 30 0 26-4 35-5 29-6 32-12 35-13 36-15 36-16 35-13 33-11 28-7 25-8 30-2 28 10 23 28-2 29-16 22-18"/>
<path d="M5179 4364l-4-1-25 1 30-9 33-6 25-6 28-5 29-5 31-6"/>
<path d="M5984 4405l-1-3-6-23-24-11-28 9-23 23-20 23-17 24-12 24-5 25 23 18 30-7 26-10 23-12 22-16 14-20-1 27 6 26 22 14 29-6 30-16 24-17 25-20 27-23 27-25 23-28 22-27 19-29 16-29 13-31 10-33 7-33 5-33 2-31 0-26-4-28-18-17-22 12-23 25-18 23-18 29-18 35-16 37-15 40-12 39-9 37-5 35 1 33 4 27 14 31 18 20 25 14 26 1 28-10 17-17-4-26-13-25-14-22-10-23 16-20 28-10 28-13 32-18 22-15 23-17 20-17 19-20 16-20 13-21 15-32 9-30 4-33 1-34-2-30-5-25-24 4-14 23-9 24-8 31-7 26-6 29-7 34-7 36-8 37-7 38-8 35-6 33-4 31 0 27 3 32 15 26 24 9 32-6 27-12"/>
<path d="M6521 4397l-1 0 21 16 24-5 25-7 23-10 21-15 8-23-17-18-28-6-27 3-27 9-21 13-16 22-8 25 4 26 10 24 24 19 24 11 33 7 26 1 31-1"/>
<path d="M7330 4031l 1-4 15-22 23 11 2 29-3 30-5 25-9 25-11 28-12 30-14 32-13 32-13 33-15 32-13 31-14 29-12 27-8 23-7 25 12 24 28-6 31-17 25-16 25-19 26-20 24-20 20-18 17-18 19-26 10-24-3-31-13-23-19-20-25-14-28-6-30 1-29 7-24 10-22 12 28-12 29-12 35-11 24-4 24-3 35-1 33 1 27 4 23 9 10 22-12 25-13 22 1 27 19 20 29 3 23-8 20-18 2-25-14-20-17-19-24-6 26 11 27-5 25-4 28-6 33-5 35-6"/>
<path d="M8259 4354l 1-3 15-26 11-27-1-25-17-18-31-1-27 11-28 18-22 14-19 16-23 22-16 19-4 25 22 11 27-2 32-5 30-8 24-5 23-7-15 25-10 24-9 31-7 25-9 27-9 30-10 33-11 35-12 36-14 38-15 36-15 35-17 33-18 29-17 23-22 24-22 11-12-26 1-32 5-27 10-33 13-37 19-42 10-23 10-23 12-23 11-22 13-22 13-23 13-20 26-39 27-33 26-27 24-22 24-17 22-14 21-13 27-13 26-12 24-6-10 26-11 25-8 29-4 27 6 25 26 10 25-6 28-14 22-17 15-21-1-25-17-21-21-19-19-18 26-7"/>
<path d="M8964 4326l-1-1-27-1-21 16-21 17-24 20-24 23-15 20-9 22 14 20 25-6 25-10 24-12 20-13 20-18 9-23-9-23-7-24 22 16 24-3 24-6 25-9 25-9 25-10-1 25-7 27-1 26 1 26 5 24 10 23 25-6 25-21 23-24 24-25 21-27 16-27 11-26 7-27 3-30-5-23-17 19"/>
<path d="M9258 4325l 1 1 26 0 29-7 25-7 23-8 26-14 16-19-17-21-30-2-30 6-23 9-21 11-23 20-15 22-5 28 12 23 20 13 30 8 24 3 26 0 28-1 28-5 23-8 23-12 20-21 13-24-3-26 24-13 24 3 24 7-15 24-22 16-23 19-22 19-18 19 2 24 25 8 27-1 29-5 23-6 30-7"/>
<path d="M10000 4321l-1-1 30 0 23-8 29-12 30-15 28-15 21-16 19-18 6-24-27-9-28 4-25 11-26 16-27 18-25 20-23 23-20 23-15 24-9 23-2 27 13 23 23 9 32-1 30-6 29-11 32-14 30-18 20-14 19-16 18-16 25-23 20-23 16-20 14-21 10 26 3 25 1 25-1 27 0 26 3 27 6 23 15 23 28 12 27-5 28-14 22-16"/>
<path d="M10417 4257l-3 0-26-1-26 13-21 17-28 23-20 19-23 20-26 20-25 23-23 22-17 19-16 25"/>
<path d="M10549 4250l-2-1-19 15-10 25-8 23-7 29-7 33-6 25-7 26-10 26-12 28-13 28-15 28-16 26-14 25-14 21-18 24 7-25 16-32 11-27 13-30 14-33 15-37 14-38 14-38 14-36 13-33 12-29 11-24 15-30 13-20 19-22 21-12 26-8 31-5 26 1 24 5 25 13 15 19 3 25-12 31-19 25-17 18-20 17-21 17-21 15-22 14-21 13-29 14-26 9-25 2"/>
<path d="M10825 4251l-1-1 27-9 27-3 23-5 24-8 28-15 19-16-15-23-30 1-26 8-27 12-29 16-29 19-22 20-20 24-3 29 17 20 29 10 33 1 25-1 26-5 26-5 26-8 23-10 23-9 28-16 22-17 20-23 7-27-7-23-16-20 23-5 27 1 26 8 15 21-11 23-19 17-19 17-19 16-19 17 27 8 28-4 27-6 30-7"/>
<path d="M11246 4204l-1-2-26 5-14 21-10 25-8 25-2 27 17 18"/>
<path d="M11288 4051l-5 0-28-1"/>
<path d="M11343 4197l 1-3 14-23 23-8 14 26 0 27-6 24-10 22-15 21-18 20-22 18 6-23 24-27 19-20 20-20 19-20 18-18 24-20 22-13 24 4-5 28-12 22-16 24-17 21-17 21 24-8 27-21 20-15 20-18 20-20 20-17 26-23 23-15 23-12-2 25-16 22-14 25-5 23 3 27 20 18 27 0 25-9 25-14 23-15 17-20 14-20 24-10 24-7 26-7 25-8-19-19-27 2-29 9-23 11-22 15-18 18-11 26-2 25 8 23 23 13 30 2 27-5 30-10 29-13 26-16 24-18 20-18 19-16-12 26-12 21-14 20 24-10 21-12 25-14 25-15 22-13 23-8-2 27-13 24-7 24 22 11 25-5 25-7 28-13 30-18 20-16 22-16 20-19 21-19 22-20 19-22 18-23 18-25 16-26 16-29 17-29 16-30 12-28 10-25 8-25-28 2-17 26-13 23-13 27-15 29-15 33-17 35-17 33-17 34-16 32-15 31-10 27-9 24-3 26 11 23 27-2 31-12 24-14 24-17 25-19 23-21 21-20 19-20 16-18 18-26 12-24-25 1-9 23 1 29 6 24 4 27 4 29 3 27 0 26-4 24-14 25-26 8-29-6-27-11-20-17 17-16 28-2 30 2 24 1 26 1 31 0 27 0 26-2"/>
<path d="M12135 4041l 3-1 26-3 33-2 27 0 28 0 32 0 30 0 31 0 30-1 28 0 26 0 25 1"/>
<path d="M3211 5405l-1-2 6-26 13-23 20-17 12 24-2 27-8 33-6 23-8 24-8 23-10 30-8 25-8 23 23-17 26-27 23-24 23-27 24-29 25-29 25-30 23-29 20-26 17-24 18-25-5 26-13 30-8 23-8 24-7 26-7 28-7 30-8 32-7 37-9 38-9 42-9 42-9 45-9 44-12 43-13 40-14 37-15 31-15 27-15 23-19 22-25 5-13-23-4-34 2-31 5-37 10-43 6-23 8-24 8-25 10-24 11-24 11-24 11-24 13-22 12-21 14-22 15-20 14-19 30-36 31-32 30-30"/>
<path d="M3591 5383l-1 0 25 4 27-10 25-13 23-16 18-16 4-25-27-1-30 7-25 11-25 18-23 20-22 21-18 21-12 25 6 26 24 14 31 2 30-7 33-12 24-10 24-13 23-13 20-14 20-13 25-21 23-21 20-22 4-25-25-5-20 17 0 26 22 22 25 17 21 17 17 24 5 25-17 21-30 7-31 2-28-1-24-3 25-7 28-3 33-7 24-8 26-7 27-9"/>
<path d="M4034 5056l 0-1 24 11 15 21 11 31 5 32 0 36-4 26-7 27-8 28-10 28-11 28-12 26-10 23-14 27-8 24 28 2 24-14 30-21 21-18 24-19 23-20"/>
<path d="M4012 5221l-6 1-30 6 25-18 35-10 27-5 30-5 31-5 33-5 31-3 30-2"/>
<path d="M4268 5257l-2 1 22 13 29-8 27-13 20-17-25-9-29 5-26 7-25 7-24 10-21 14-22 22-15 24-2 28 21 20 33 5 33-3 25-5 27-8 27-9 26-11 26-11 24-11 21-12 25-17"/>
<path d="M4480 5252l-1-5-23-12-25 7 28-6 26-4 26-2 24 6-6 25-16 20-19 16-20 20-14 19 2 26 26 14 26-1 25-7"/>
<path d="M4824 5241l 1-3 10-27 9-25-4-26-17-19-25-4-32 12-29 19-22 17-20 19-19 21-16 22-12 20-12 31-2 24 15 24 26-1 31-15 27-18 27-23 28-26 27-29 24-32 21-32 19-34 15-34 12-33 9-34 5-35 5-34 2-34 0-32-2-27-4-29-26 8-15 30-10 25-10 28-8 32-7 35-7 38-5 40-4 40-1 40 1 36 4 31 6 27 14 30 17 21 24 16 29 1 26-10"/>
<path d="M5107 5190l-1-1-20-19-25-4-26 8-24 17-19 22-15 24-10 25 2 27 25 8 25-7 28-15 21-18 18-21-17 20 8 24 23 11 25-10 24-4 12 23 6 24 26 8 29-6 22-12 19-16 20-21 20-23 16-22 14-26 8-25 0-25-17 18-7 27-4 26-5 32-6 36-4 28-3 30-3 31-4 34-5 35-6 37-5 41-8 42-9 42-10 43-12 41-12 40-13 37-15 34-12 27-12 22-15 22-26-5-9-26-6-24-4-29 0-33 2-37 5-40 7-41 9-40 13-39 16-36 19-32 21-28 22-27 23-24 22-21 25-20 24-18 23-16 22-14 28-17 26-12"/>
<path d="M5472 5369l 0-1-10 22"/>
<path d="M1231 6389l-1-3 2-27 15-26 18-20 26-18 24-12 27-8 28-4 32 1 33 6 32 9 26 11 20 15 16 27 1 28-11 32-14 25-18 28-22 31-27 31-28 33-32 32-31 30-31 28-31 26-29 24-29 22-26 18-23 15-26 15 20-21 20-13 24-13 24-12 25-10 25-9 23-6 33-7 31-2 27 3 28 9 21 13 15 20 11 23"/>
<path d="M1659 6701l-1 0"/>
<path d="M2047 6271l-1-1 22-10 28-9 25-7 27-8 30-9 33-12 25-8 24-7 25-8 34-8 29-4 26 2"/>
<path d="M2181 6298l 0-2 9 26-7 36-6 29-7 32-8 36-8 37-9 40-10 40-11 37-11 35-10 29-8 25-10 26"/>
<path d="M2315 6533l 0 0-6 24-5 27-6 29-5 30-2 29"/>
<path d="M2354 6358l-4 0-25 4-4 25"/>
<path d="M2414 6506l-1-1 22 12 6 27-3 28-8 23-10 24-14 26 4-25 15-31 13-21 20-29 19-25 18-20 21-17 24-5 11 24-2 30-7 26-12 26-10 22-10 22 20-21 20-26 16-20 16-21 16-21 20-26 17-20 20-14 23 10 2 27-5 31-5 26-7 24-7 30 0 25 7 24"/>
<path d="M2712 6541l-1-1 27 0 29-5 26-9 25-14 23-17 19-19-11-23-26-3-25 9-20 14-20 19-18 22-14 22-12 21-7 29 3 26 11 22 20 13 30 6 27-2 30-9 32-15 21-14 23-16 23-18 23-22 22-24 21-27 21-29 20-30 18-33 17-36 15-38 12-41 10-43 9-41 8-38 5-33 5-27 3-29-8-24-24 15-18 23-13 20-15 26-15 32-15 37-15 41-12 44-10 45-9 43-6 44-5 42-2 37 2 34 4 28 9 31 14 21 24 13 32-5"/>
<path d="M3157 6478l-1 0-10 24-3 27-2 27-4 27-2 29"/>
<path d="M3204 6333l-4 1-24 16"/>
<path d="M3254 6451l-1 0 5 26 3 28-3 27-7 25-10 26-11 24-13 23 12-20 20-32 16-24 15-24 15-23 14-20 19-24 19-16 23-11 13 26-5 25-10 30-13 30-10 28-9 27-2 26 24 0 27-18 23-21 22-22"/>
<path d="M3509 6490l 1 0 12 24 25 9 27-10 24-18 20-16 19-18 5-25-26-9-28 2-24 10-26 17-17 21-14 24-10 26-4 31 10 23 20 18 22 9 28 0 27-7 29-11 31-16 29-18 27-21 24-24 20-25 15-22 10-24 0-25-25 9-10 22-2 25 3 25 8 25 8 26 6 25 4 24-1 25-18 20-28 6-26-3-24-8-20-12 28 1 26 4 29 2 30 0 30 4"/>
<path d="M4269 6576l-1-1 0 25 19 16 28-3 23-12 20-14 24-19 27-25 29-30 32-35 15-19 18-20 17-21 16-21 16-22 17-23 14-22 15-25 13-25 12-25 10-24 10-24 9-24 13-43 10-37 6-28 3-28-31 3-17 20-21 27-25 37-13 21-14 22-14 25-14 26-15 29-15 30-15 31-15 33-15 34-14 35-14 35-14 35-12 35-11 34-8 33-8 34-6 31-5 30-4 30-4 29-2 28-1 26-1 25 0 44 4 37 7 31 8 24 15 23 25 3 16-20 12-21 13-28 12-33 11-36 7-40 4-44 1-44-2-44-2-39-4-33-4-28-6-30-8-26"/>
<path d="M4637 6501l 0 0-21 14-20 22-20 25-10 24 2 25 24 9 24-8 24-10 23-15 20-15 22-18 13-24-14-25-26-7-24 11 26-3 22-13 28-13 26-9 24-7 23-11 27-6 27 8 18 18-6 26-18 17-24 21-19 18-20 20-12 22 10 23 30 0 32-4 28-4 32-7"/>
<path d="M5539 6546l-1-1-14-20-18-21-25-14-31 3-22 12-23 19-25 23-19 23-13 22-5 27 25 11 25-6 35-12 23-11 23-11 21-11 25-15-26 8-19 20-9 25 3 27 16 19 28-3 21-13 24-19 25-23 24-24 21-24 17-22 11-23-13 28-12 26-11 32-8 24-9 26-8 30-10 33-10 35-12 36-12 39-14 38-14 37-13 34-14 29-15 30 6-36 12-32 14-36 14-38 15-42 13-43 15-44 14-42 13-39 14-35 12-31 14-27 12-24 13-21 18-25 21-19 24-10 28 1 23 10 19 16 11 27-1 24-13 27-22 23-17 17-20 17-20 16-20 14-28 17-22 8-15-20"/>
<path d="M5884 6468l 0 1 1 26-2 30-2 28-2 24-4 29-6 31-5 25-6 26-9 28-10 28-12 28-14 28-14 26-14 21-15 23-10-23 8-38 7-30 11-33 12-37 14-39 14-39 14-37 15-34 13-30 14-25 19-29 18-22 21-19 24-14 28-7 27 3 24 12 5 24-13 23-17 18-22 19-23 21-23 20-17 18-17 20 25-5 24-10 32-14 32-17 24-14 25-18 27-20 27-22 26-23 27-25 25-27 23-29 21-29 19-30 14-29 10-30 7-31 6-31 3-32 2-32 1-32-3-28-4-32-13-21-25 9-23 24-20 22-17 28-16 31-16 36-11 39-10 42-8 42-5 44-6 41-2 38 0 32 2 28 10 33 9 24 17 20 30-5"/>
<path d="M6314 6401l-1-1 24 5-1 25-6 27-9 29-12 29-11 23-9 23 21-16 26-28 19-24 22-25 18-23 18-23 16-20 16-24 16-21-18 25-15 25-13 31-9 25-8 29-9 32-9 33-8 34-8 35-9 35-10 36-12 36-13 37-15 36-16 35-16 33-20 31-18 29-17 25-21 26-27 8-16-23-6-33 0-30 7-35 8-40 12-42 15-43 15-40 19-35 20-30 21-26 20-21 22-19 22-16 25-15 24-14 26-13 26-11 25-11"/>
<path d="M6572 6376l-1-1-8 29-9 25-10 24-7 24-4 26 25 4"/>
<path d="M6659 6242l-4-1-25 10"/>
<path d="M6697 6344l-1 0 0 26-8 28-10 25-13 25-7 24 23-11 21-18 26-20 28-22 24-16 24-11 7 24-10 22-12 25-6 25 17 18 29 0 30-8 28-10 29-11 25-11 25-12 23-11-22-11-23 15-23 21-16 18-14 21 0 24 28-3 22-11 22-14 22-13-12 23-6 27 4 25 5 27 6 28 4 34 2 27-1 30-4 31-4 33-7 33-9 34-10 33-15 34-15 34-17 32-18 29-16 24-24 25-22 12-27-4-14-20-6-34-2-29 4-34 5-38 10-43 15-44 9-23 10-23 11-24 10-23 12-22 27-39 28-34 28-30 30-25 27-21 28-18 25-14"/>
<path d="M7663 6149l 1-4 17-25-9 28-10 24-14 27-14 31-15 33-15 35-15 37-13 35-10 35-8 29-4 26 2 30 13 25 28 10 32-5 23-7 24-11 22-13 26-19 18-21 5-26-18-27-26-20-23-12-26-11-27-11-26-9-26-7-33-6-27-2-24-3 15-23 25-13 31-11 35-7 24-1"/>
<path d="M7765 6331l-2 2-12 24-1 25 19 19 24 7 26-7 19-15 12-21 1-29-6-24 24-19 27-4 34-4 26-3 30-3"/>
<path d="M8352 6477l-1 0 22-11 31-20 24-18 28-22 32-27 32-29 34-32 32-34 30-36 25-39 23-40 20-42 17-42 14-40 11-34 8-27 7-24-18 26-7 24-7 28-6 33-2 33-1 36 1 38 4 38 5 38 6 38 8 36 8 33 7 30 6 26 8 31 8 25"/>
<path d="M8551 6317l-2 0 26-18 31-12 34-11 23-6 34-8 25-5 33-6 31-7 26-6 25-7 24 1-1 30-4 31-5 26-6 27-6 26-7 24-9 24 17-26 16-19 18-21 18-21 18-20 22-23 19-17 22-12 7 25-10 27-8 26-8 23 0 25 18 16"/>
<path d="M9276 5968l-1-1-25 11-18 19-12 21-13 29-10 33-7 24-6 26-7 29-6 29-6 33-7 31-6 29-6 26-6 31-2 29 15 20 29-10 26-18 25-25 20-30 9-32-2-33-12-33-20-29-30-19-34-10-35-1-32 3-28 7-27 10 30 2 24-7 29-8 31-10 34-11 34-14 35-14 33-16 33-18 31-19 26-20 22-20 16-18 17-26 14-24 6-27-17 17-10 25-10 33-8 27-9 30-11 33-12 35-15 37-18 38-18 40-20 37-19 37-15 31-13 27-12 27 27-6 18-17 20-20 21-21 21-20 19-18 24-22 22-18 3 25-10 25-4 27 5 25"/>
<path d="M9542 6240l-1-1-8 26-5 29-5 26-7 26-11 23 11-30 15-25 17-24 16-21 22-22 27-15 29-9"/>
<path d="M9702 6279l-1 1-17 20-8 23-3 25 10 23 27 11 31-6 24-11 20-13 13-22-6-23-20-20-27-14-25-8-24-6"/>
<path d="M9916 6234l 2-2 24-14 6 30-6 27-10 35-10 25-10 28-11 30-13 29-13 30-13 30-12 28-12 26-11 22-14 22 12-32 11-36 7-29 8-31 8-34 11-36 11-37 13-35 11-33 9-29 10-23 11-26 12-21 20-17 24-5 26 1 29 7 26 14 16 18 2 29-13 27-20 21-29 21-21 14-29 18-25 14-23 11"/>
<path d="M10172 6214l-1 1-15 21-10 27-7 27 0 25"/>
<path d="M10245 6080l-2 0"/>
<path d="M10324 6199l 1 0-17 22-19 15-21 14-23 15-19 17-8 23 17 17 28 11 27 5 32 3 25 0"/>
<path d="M2347 7193l 0 4-3 28-5 27-6 31-7 31-7 30-6 30-7 27-6 26-9 30"/>
<path d="M2434 7508l-1 0 20 16"/>
<path d="M2809 7199l 1-3 10-22 26 4 12 26 0 28-6 35-9 28-11 32-14 33-15 36-17 34-16 33-16 28-14 24-15 28 15-32 14-28 15-34 16-35 15-36 13-36 12-34 12-33 11-30 9-22 12-28 10-22-4 25-5 27-6 36-3 27-1 30 1 30 4 34 7 33 9 34 12 30 12 25 20 28 21 14 32 1 25-14 25-25 18-23 17-28 17-31 14-33 13-35 10-36 6-38 5-39 1-37-1-36-3-31-5-26-10-25-22-10-21 20"/>
<path d="M3204 7466l-1-1-12-21-27 11-19 18-16 19-14 22-14 28-7 24 2 25 27 4 25-13 21-16 19-16 17-21 10-24 0-28-7-25 25-6 26 4 21 12 18 22 8 23 4 27 5 26 5 25 8 25 26 3 17-28 14-28 13-30 10-32 5-32 4-30 3-28"/>
<path d="M3454 7561l-1-1"/>
<path d="M3956 7228l 1-2 18-17 10 22-6 31-8 27-11 30-12 33-13 35-13 37-14 36-13 36-10 31-9 27-7 28"/>
<path d="M4094 7218l-1 0 27-4 33-5 29-5 30-5 32-6 29-4 25 0"/>
<path d="M4167 7224l-6 2-28 17-23 18-17 19-12 22-13 26-10 28-9 28-6 27-5 24 0 25 26 9 24-14 29-20 21-15 23-13 28-17 29-11 28-6 25-3 27 1 23 11 12 23-5 28-14 28-14 22-17 20-18 20-19 18-20 19-19 17-21 16-22 13-32 16-34 9-33 3-29-3-25-12-11-25"/>
<path d="M4815 7259l 1-4 16-18 22-19 24-1 3 26-3 32-7 28-10 31-10 34-12 35-13 35-11 33-11 34-12 33-11 30-12 30-15 25-14 20-18 21-15-20 8-38 11-31 15-37 20-40 24-40 13-21 13-22 28-39 29-36 28-32 25-28 25-24 24-19 21-14 27-12 26 9 0 33-5 26-10 30-13 34-15 38-17 37-18 34-16 31-15 28-13 25-11 22-15 25 8-26 10-25 14-32 21-37 20-38 24-40 24-40 24-39 27-36 26-32 25-28 22-23 19-18 24-19 25-9 9 24-5 29-7 26-10 28-12 32-15 33-13 33-13 33-10 30-9 28-7 24-8 30-4 27 18 19 27-9"/>
<path d="M5414 7124l-1-1 23-11 30-7 29-9 35-10 25-7 26-6 24-5 35-6 26-3"/>
<path d="M5498 7152l-3-1 5 24-1 28-3 25-4 28-7 30-8 33-10 34-8 23-7 24-8 23-15 33-15 28"/>
<path d="M5222 7556l-1-1 25-12 26-2 33-1 25 0 25-3 27 0 26-1 27-1 27-2 26-1 24-2 33-3 27-1"/>
<path d="M5760 7086l-1-1 25-8 26-3 33-5 24-3 25-4 25-3 25-3 35-3 29-1 27 0"/>
<path d="M5918 7071l-2 1-18 16-4 29 0 31 0 27-6 31-5 24-6 27-8 27-7 28-9 29-10 28-11 28-11 25-10 23-11 26-7 25"/>
<path d="M6798 7064l 1-3-5-24-27 3-24 8-29 8-32 10-32 12-22 10-31 15-30 17-25 18-18 22 16 19 29 2 25-1 29-1 33-1 36 0 35 1 35 4 30 5 23 7 30 16 18 21 11 22-2 31-13 25-22 26-19 17-23 17-25 17-29 16-32 14-32 13-34 11-33 10-34 7-32 5-29 2-26 0-30-7-22-13-9-25 14-29 22-18"/>
<path d="M6966 7351l-1-1-2 28 0 27-3 32-3 28-7 32-12 33-8 25-10 26-10 26-12 25-11 24-15 27-14 22 8-23 16-33 15-28 17-30 14-31 13-31 10-29 7-27 5-25 6-33 3-28 5-28 5-25 24-11 30-1 29 0 29 3 23 7 15 21-5 27-15 24-16 18-23 16-25 14-26 10-24 7-26 1-15-20"/>
<path d="M7220 7291l-1-1 20 15 26 5 27 0 28-1-3 26-23 20-22 20-18 17 6 24 26 9 29-2 25-8 27-15 25-17 22-16 19-17 15-20-13 23-10 27-7 28 2 26 27-4"/>
<path d="M7521 7176l-4-1-26 0"/>
<path d="M7549 7301l 1 0 18 19 5 27-5 25-8 24-10 23-15 23 20-29 16-19 18-20 19-19 20-17 18-16 26-19 25-15 20 17-7 23-12 26-10 23-3 25 20 15 25-5 25-8 25-12 25-12 21-12 24-16 20-14 10-23-22-9-22 11-21 18-15 20-3 24 23 6 23-10 20-13 20-19 16-19-7 25-6 24-3 27-2 29-2 31-3 25-7 28-10 33-8 24-8 24-10 24-11 26-13 26-13 25-13 26-16 24-15 22-24 26-18 16-24-8-4-32 7-37 9-30 13-35 16-38 21-43 22-44 13-21 25-39 25-33 22-28 20-24 20-19 26-21 24-11 28-4 22 8 5 26"/>
<path d="M2225 8128l-1-2 2-26 22-16 29-13 25-7 27-7 26 0 25 2 28 15 19 20 8 29-6 28-11 22-14 23-18 23-21 23-21 23-24 24-25 25-28 25-28 23-27 20-26 18-23 16-23 13-27 15-24 10 30-9 27-5 31-4 32-2 30 0 29 2 26 3 31 5 27 9 24 10"/>
<path d="M2542 8446l-1-1"/>
<path d="M3050 8103l 0-3 6-23 3-25-14-22-27-9-33-1-29 7-22 8-25 12-25 15-28 18-25 20-26 22-24 21-20 21-16 18-14 20 14 22 26 5 36 3 29 0 30 0 30 2 29 3 28 4 26 5 24 5 30 11 25 18 8 26-4 26-12 30-14 22-18 20-20 20-22 18-23 15-25 13-27 10-27 9-28 5-27 5-28 1-25-2-33-7-26-10-21-21"/>
<path d="M3141 8327l-1 0 24 9 28-10 27-11 21-12 19-17-22-13-28-2-27 6-22 9-22 15-21 19-21 24-20 24-15 23-13 28 1 29 11 25 21 15 29 7 27 0 33-7 25-5 25-8 26-10"/>
<path d="M3362 8365l-1 0-11 21-8 29-6 27-6 31-6 25-6 27-5 27-6 29-6 30-7 30-8 29-8 25-10 29-12 22 5-33 6-27 9-31 9-36 11-38 9-38 8-37 6-34 6-29 4-26 6-30 6-28 6-28 14-20 19-15 22-10 24-5 26 3 23 10 17 18 9 25-1 24-12 26-17 26-23 24-22 20-25 17-28 13-28 9-31 3"/>
<path d="M3640 8058l 0-1 22 16 10 24 2 27-3 26-6 32-7 25-9 28-11 31-12 33-13 35-13 34-12 31-9 24-9 28-5 28 22 13 29-6 23-10 27-14 29-21 21-15 23-17"/>
<path d="M3543 8266l-1-1 17-18 28-13 27-9 30-8 34-6 35-6 35-3"/>
<path d="M3883 8197l-1 0 10 24"/>
<path d="M3879 8294l-1 0"/>
<path d="M4292 8369l 0-1 6-27 10-22 5-24-7-25-23-12-26 4-21 14-23 22-15 20-15 22-14 21-12 22-16 27-8 26 15 19 26-6 25-13 28-17 28-19 23-20 20-20-11 25-9 23-1 24 19 15"/>
<path d="M4561 8277l-1-1-27-3-24 8-22 11-22 13-25 18-22 20-16 23-7 25 16 22 25 12 26 4 30-1"/>
<path d="M4728 8286l-2-1-19-16-28 8-24 13-20 15-23 20-25 23-20 27-15 26-5 28 17 20 25 1 34-8"/>
<path d="M4795 8335l-2 1 18-20 20-17 16-19-27-4-26 5-25 9-21 12-17 19-15 23-7 23 2 25 15 24 24 15 25 4 29-2 24-7 28-10 29-15 28-19 18-16 18-18 18-20 19-22 18-22 17-26 18-27 15-28 13-31 10-32 7-34 3-33 2-30 0-26-3-29-12-25-23-11-17 21-10 28-10 33-9 30-11 34-12 36-11 38-13 38-10 38-9 36-7 32-3 28 0 32 11 25 24 8 26-5"/>
<path d="M5106 8308l-1-1 27 7 26-2 24-7 22-10 21-13 25-16 15-21-15-19-30-4-30 7-22 12-22 16-21 17-20 20-11 23-7 28 3 27 12 22 23 13 25 0 31-6 24-7 25-10 25-13 24-14 23-15"/>
<path d="M5389 8248l-2-1-24 7-24 10 26 3 25-1 27 1 9 22-19 21-17 18-20 17-18 19 12 24 28 6 24 0"/>
<path d="M5690 8284l-1-1-2-25-6-23-24-9-26 8-27 17-23 19-22 21-17 22-13 23 5 25 25 2 30-7 23-11 26-13 20-14 10 24 21 13 25-11 22-16 20-15 20-19 23-21 23-25 22-27 24-29 21-32 20-32 17-33 13-33 10-34 7-33 4-29 1-27-4-30-12-23-26 14-13 20-14 25-12 28-11 32-7 25-8 30-8 33-10 32-9 33-11 34-8 31-9 32-6 30-3 24 1 29 14 21 28-1 26-13 27-21"/>
<path d="M5799 8121l-6-1-25 0-28 0 28-12 33-4 25-2 24-1 26-1 24-1 32 1 25 2 26 10-6 29-13 24-14 21-12 21-10 23-9 24-2 28 15 20 23 6 24-9 21-13 20-17 17-21 13-27 2-26-19-16-26-5-25-2 18-21"/>
<path d="M6089 8141l 0-1 25 3 25-1 23 12-5 26-17 20-20 18-20 20-17 20-5 26 9 23 26 17 30 3 32-6"/>
<path d="M6953 8190l-1-1-1-28-4-29-13-23-27-2-26 11-24 16-25 22-24 25-19 24-13 23-6 23 26 16 28-4 35-10 33-12 27-14 21-13 17-20 0 26 8 24 14 20 28-13 20-17 21-23 19-22 17-25 10-23-24 15-12 24-8 25-8 30-8 36-5 29-5 31-9 34-8 33-11 33-10 33-11 32-10 31-8 26-13 31 0-26 8-28 11-33 13-38 14-40 15-45 8-23 8-22 8-23 15-45 15-40 13-36 10-30 9-25 12-28 14-24 15-20 21-14 26-8 27-1 28 12 16 20 9 23-1 27-10 24-16 23-23 24-25 22-23 19-22 12-25 6"/>
<path d="M7346 8094l 0-1 21 13 1 32-3 35-6 27-8 29-9 31-11 34-12 34-13 33-15 34-15 30-15 29-15 24-20 25-17 17 1-32 7-37 10-31 11-34 13-37 14-41 14-40 15-38 15-35 15-30 15-26 13-22 20-24 20-20 19-14 28-4 26 8 18 16-2 24-15 26-18 19-18 16-19 16-18 17-19 17 26-9 26-16 21-13 22-11 22-12 22-13 24-15 25-17 28-21 19-15 21-18 19-19 19-21 17-23 15-24 12-27 10-28 6-32 2-34 3-34 1-32 0-27-2-32-7-23-23-9-20 18-12 30-9 31-8 27-9 31-11 34-12 38-12 38-13 39-11 40-10 36-7 35-2 29 4 33 12 22 20 15 26 1 28-7"/>
<path d="M7803 8027l-2 0-19 16-9 27-8 29-6 29-1 28 9 25"/>
<path d="M7820 7878l-3-1-23 5"/>
<path d="M8039 8025l 1-1 18-20 4-24-23-9-29 3-29 12-23 15-22 17-16 20-11 25 9 25 25 13 28 3 35 0 24-2 25-2"/>
<path d="M8261 8021l-2-1-19-16-26 3-26 10-26 14-22 15-15 20 22 14 27-3 24-7 29-8 24-7 1 26 24 11 27-2 29-13 26-17 27-20 27-23 18-18 17-19 15-20 13-21 12-24 10-27 8-28 9-30 8-30 8-27 10-32 5-25-21 21-14 28-12 24-12 26-11 30-12 32-12 32-11 32-11 30-9 29-9 26-6 32-1 24 11 25 25 4 24-12"/>
<path d="M8370 7931l-6-1-27-2 32-7 35-4 25-2 36-3 36-1 24-1 33 1 28 1 27 2 24 8-4 28-9 23-8 24-9 28-8 27-8 26-6 24"/>
<path d="M8703 7815l-4 1-23 10-17 19 0 29"/>
<path d="M8732 8025l-1 1 20 14 5 24 6 24 26-1 25-15 20-14 20-18-16-22-26-10-25-8-23-7-20-14 23-16 26-13 24-8 25-6 25-4 30-2 25 7 10 23-7 26-11 24-10 23-10 27-10 24 22-12 23-21 25-23 25-25 23-20 19-15-9 26-3 25 17 21 25-4 23-12 25-15 23-14 27-16 28-18 26-21 25-21 16-19 11-22-19-17-18 19-5 25-1 24 0 28-2 30-2 24-1 25-2 31-1 27 3 24-21-12-26-11-26-11 24-6 24 10 25 9 25 13 20 14"/>
<path d="M2145 9008l 0-1 16-19 26-13 24-9 27-6 26-3 30 0 22 15-8 25-19 22-17 17-20 16-22 16-22 15-22 13-22 11-29 15-26 12-22 13 28-12 30-11 24-7 25-5 24-2 24 0 34 3 32 6 27 8 26 14 18 21 2 27-14 26-19 23-27 23-21 15-24 13-24 11-26 10-25 9-26 6-26 5-25 2-32-3-26-7"/>
<path d="M2500 9275l-1-1"/>
<path d="M2727 8883l 1-1 25 0 20 20 10 22 3 25 0 31-6 37-7 26-7 26-11 29-12 29-13 28-13 29-12 29-12 29-9 27-8 24-5 26 10 23 27-10 24-18"/>
<path d="M3034 8836l-2-1-12 22-4 30-4 33-4 26-6 31-7 33-9 36-8 36-8 37-7 36-8 32-5 31-5 27-3 30 2 25 24 10 25-13 22-18"/>
<path d="M2672 9093l-1-1 21-15 24-7 34-10 28-8 32-10 36-10 40-12"/>
<path d="M3080 9164l-1-1 27-3 24-8 26-11 22-13 5-24-30-2-27 4-27 9-25 13-19 15-18 21-8 25 6 29 16 23 26 18 29 5 25 0 30-2"/>
<path d="M3393 9120l-2-1-23-15-25 5-23 16-22 21-16 18-16 20-17 27-9 28-1 28 25 8 26-18 18-16 19-21 19-22 21-25 20-27 20-30 20-32 17-32 15-33 13-33 12-33 8-32 6-30 3-29 1-27-4-33-8-23-22 17-16 25-13 23-12 24-11 27-11 31-9 34-9 36-9 39-6 40-6 38-2 37-2 34 3 32 5 30 7 25 15 30 18 17 30 7 29-9"/>
<path d="M3614 9193l 1-4 8-24 1-25-16-22-26-3-23 12-18 17-18 21-19 23-14 22-10 23-1 26 19 17 27 0 25-9 28-19 24-20 18-17 15-20-12 21-10 24-4 26-2 26 1 26 2 31 2 35-1 25-1 28-3 28-6 28-6 30-10 28-11 25-13 24-21 26-20 15-27 2-26-17-14-25-5-25-1-28 1-32 5-37 10-40 15-41 18-42 22-37 25-33 25-30"/>
<path d="M3706 9142l-1 0 13 24 20 14 29 6 26-5 23-8 17-18-8-25-22-9-26-3-29 4-26 14-24 18-18 21-9 24 9 25 20 22 19 16 27 9 35 2 31-3"/>
<path d="M4225 9250l-1-1 10 22 27-6 30-17 25-17 28-20 31-26 31-28 33-29 31-32 26-32 24-35 19-37 15-36 12-38 8-36 4-36 2-34-1-29-5-33-9-22-26 15-13 21-15 29-16 36-17 45-9 24-9 26-9 27-11 29-10 30-11 32-10 32-10 33-10 34-10 36-9 36-9 34-7 35-7 34-5 35-5 35-3 30-3 30-2 28-2 27-1 44 2 34 5 25 12 20 27-5 21-23 16-25 15-30 12-33 10-35 8-34 3-34-1-33-6-32-9-30-7-29-10-24-16-29-17-18-22-15 18-24 26-12 29-15 31-15 28-11 24-7 26 0 20 18 0 24-6 28-4 30 3 24 27 6 25-18 22-21 18-20 17-20-11 23 8 25 25 7 25-11 22-16 19-18 16-20 14-21-9 24 9 23 25 8 24-12 24-18 20-20 22-14 23 14 7 26 8 24 9 24 20 17 28-6"/>
<path d="M5134 9128l 0-3 1-26-13-22-29 3-23 19-20 23-18 24-14 26-8 23 0 24 19 15 26-2 23-13 27-20 19-18 19-20 18-23 17-26 15-25 13-27 12-29 10-29 10-34 7-35 5-36 3-40 2-40 0-36-2-30-5-32-14-20-26 5-16 23-10 27-7 25-6 29-5 34-6 37-5 41-3 42-4 40-3 40 0 34 0 31 4 27 10 30 16 23 20 13 25 2"/>
<path d="M5784 9199l-1-4 1-25 4-24 3-27-16-21-29 7-26 13-25 18-22 24-19 27-15 29-6 26 6 29 22 16 32-4 27-8 30-12 28-14 23-14 26-20 17-19-25 3 16 21 9 25 1 28 20 13 26-16 27-17"/>
<path d="M6002 9169l-1 0-11 22 1 26 1 27-1 34-5 26-4 26-6 30-6 30-7 30-9 33-8 27-8 27-12 31-12 22 2-31 7-33 5-27 6-30 5-32 6-34 7-37 8-39 10-39 11-35 10-33 12-26 13-22 20-27 15-20 19-20 26 0 21 14 17 21 9 26-6 25-11 22-18 23-20 24-23 23-23 23-19 19-22 19-21-15"/>
<path d="M6234 9118l 1 1 10 23 7 28 2 32 1 27-3 35-5 27-9 27-10 30-13 28-12 26-11 25-12 29-17-24 0-25 3-28 6-33 4-27 9-29 10-30 11-30 14-28 13-26 12-22 16-28 13-21 22-11 25 9 24 11 21 12 20 17 7 26-11 28-21 22-21 16-22 14-22 9-26 6-5-25 23-15 24-10 26-7 27-6 28-9 24-10 23-12 19-16 22-19 22-21 20-22 16-21 15-19-7 23-1 27 9 26 13 24 12 22 5 26-7 26-17 23-20 13-28 7-25-2-27-8-21-13 28-7 27-3 24-2 26-1 25-2 25-1 31 2"/>
<path d="M6850 8961l-1-1 7 26"/>
<path d="M6834 9074l-1-1 27 1"/>
<path d="M7114 9101l 2-4 13-22 13-21 12-22 22 15 10 25-2 30-4 28-6 24-9 23-12 23-13 21-15 23-5-29 11-27 12-21 13-23 15-24 17-25 18-24 18-22 19-19 27-23 20-15 23-10 6 26-7 24-9 27-9 23-9 28-7 25-2 25 21 13"/>
<path d="M7452 9058l-3 1-22 10-18 21-9 24 14 21 23 9 28-8 23-13 20-17 8-24-13-23-22-17 17-25 28-17 27-20 20-16 24-18 25-20 24-22 25-22 23-23 23-24 23-26 18-25 18-27 13-27 11-26 8-23 7-27 2-25-19 18-12 30-10 32-9 25-10 30-11 33-13 37-15 38-17 39-18 39-17 37-14 34-9 28-5 30 8 26 27-3 24-10 24-15"/>
<path d="M7604 8948l-4-2-16-22 19-19 23-13 34-13 28-7 30-8 33-6 37-6 39-6"/>
<path d="M8273 8886l-1-2 20 13-3 33-9 28-11 29-15 30-15 23-17 21 10-29 16-22 19-26 23-26 22-26 22-22 20-20 20-17 24-17 21-11 8 23-10 22-14 26-16 26-16 24-16 21 24-10 24-22 18-17 18-18 19-18 24-21 21-16 23-15 8 27-8 25-9 28-6 27-7 30 14 20 29-10 26-16 21-14 20-15 25-20 23-19 17-20-21 19-15 24-8 26 13 22 28-8 25-11 25-15 23-16 20-16 16-18 2-25-18 18-2 24 2 25 8 23 19 18"/>
<path d="M9073 8816l-1-1-25 1-28 11-29 11-26 13-22 16-20 20-18 20-10 27 1 26 25 15 24 1 33-5 25-6 26-7 27-10 26-11"/>
<path d="M9227 8583l-3-1-13 23-4 34-4 32-5 25-5 27-9 29-9 30-12 32-12 32-14 30-14 28-11 23-12 25 22-26 18-19 18-21 18-20 19-18 24-24 25-17 24-13 23 10-3 28-7 27 0 26 4 26 8 23 19 20"/>
<path d="M9658 8928l 0-1 26-6 25-9 26-8 22-11 31-18 25-17 29-21 30-25 32-28 31-28 29-30 27-31 24-33 22-34 19-37 17-39 15-39 12-39 11-37 8-34 4-28 1-30-21-12-21 14-26 25-19 19-20 22-20 25-20 29-18 32-18 36-18 39-16 43-14 42-12 45-12 43-9 42-8 38-4 33-1 29 5 33 14 25 28 15 30 0 33-7"/>
<path d="M10169 8815l-2-1-13-23-24-12-23 17-23 18-19 21-15 25 0 26 24 13 30-5 24-8 23-15 1 25 24 13 29-8 29-14 25-15 27-21 19-15 18-18 19-20 21-22 20-24 17-24 17-26 14-28 12-30 12-33 10-32 8-33 9-30 6-25 6-26-23 16-16 28-13 24-15 28-14 30-15 33-13 36-14 38-11 37-10 37-7 35-6 31-3 26 0 29 10 26 23 12 26-11 23-16 22-22 17-23 11-24 2-25"/>
<path d="M10338 8696l-6-1-29-3 26-14 26-1 28 0 28 2 27 2 31 5 30 7 24 7"/>
<path d="M10563 8719l-3 0 15 20 26 3 24-11 9-22-20-16-26 1-24 7-25 13-21 20-16 27-7 30 2 28 17 23 23 9 24 0 26-5 27-10 26-13 27-15 25-18 22-20 18-17 16-20 26-5 24 8-8 24-20 21-17 19-12 25-2 25 22 16 26 4 27-2"/>
<path d="M11526 8502l-1-1-13 25-7 23-9 29-11 35-8 25-9 28-11 28-10 29-10 30-11 29-10 27-9 24-10 30-1 28 21 20 30-5 33-11 23-9 23-10 29-17"/>
<path d="M11399 8725l-1 1 23 14 32-7 25-8 25-10 27-11 29-14 30-16 31-17 30-18 30-18 28-19 27-20 25-20 23-21 18-23 14-26 10-25 8-23 10-30-23 9-12 24-11 32-7 26-6 29-9 32-10 35-11 38-14 40-14 42-15 43-15 40-13 38-13 33-10 26-10 29 26-6 19-18 23-20 23-21 24-20 21-19 27-22 22-18 11 23-11 27-10 23-9 24-6 26 5 25 26 12"/>
<path d="M12023 8861l-1-1-18-23-19-17-28 5-27 15-19 14-14 21 12 23 28 8 30-6 26-11 21-13-6 24 15 22 14 22 27-1"/>
<path d="M12140 8861l-1 1-20 16-10 25 3 27 25 2 22-17 20-14 22-16 24-5 1 24-3 25"/>
<path d="M12940 8536l-1-4-22-15-29 15-29 17-23 15-26 18-27 23-28 28-26 31-23 33-20 35-12 35-10 34-3 29 5 26 10 23 16 18 29 20 23 10 27 4 30 1 35-2 34-7 34-10 37-13 33-16 31-18 29-20 25-21 21-25 20-25 16-28 13-30 10-32 5-35 2-36-3-37-7-37-11-36-14-30-16-22-20-14-36-3-29 5-28 10-27 14-23 16-17 21"/>
<path d="M13302 8771l 0-1-13-22-26 1-27 11-23 13-23 16-22 17-17 19-18 23 1 25 22 17 28 10 33 2 26-1 28-3 32-5 32-6"/>
<path d="M13581 8541l 1-1 3 25-1 29-7 29-10 26-10 28-15 30-12 21-18 24-15 24-17 24-17 22-15 21-19 27-14 24 11 23 31 0 28-5 34-5 36-8 24-7 24-7 23-9"/>
<path d="M13450 8701l-6-2-25-13 25-18 29-6 24-3 24-1 27 2 28 2 24 6 26 7 33 14"/>
<path d="M13677 8889l-1 0 5 24"/>
<path d="M1115 9959l-1-1 30-8 32-3 28-3 30-2 28-2 24 1 26 9 2 28-20 25-24 18-29 21-23 13-24 14-23 13-24 13-28 17-23 13 31-2 29-5 35-6 35-3 33-1 31 3 29 4 24 8 21 12 11 23-6 26-13 24-17 26-24 27-19 19-21 18-24 18-27 17-27 15-28 13-29 12-29 10-28 9-27 7-25 5-27 4-25-1 20-19"/>
<path d="M1455 10370l-1 0"/>
<path d="M1906 9914l-1-1 5 30 3 29 2 36-1 27-2 31-4 35-4 38-6 41-6 43-9 45-8 45-10 44-10 42-9 37-8 32-6 23-5 27 5-29 4-26"/>
<path d="M1911 9967l 1-4 6-25 14-23 24-12 31-11 28-6 31-5 34-1 25 0 34 2 31 6 25 8 22 15-2 32-16 30-17 23-21 25-25 25-27 24-30 23-31 22-31 20-30 18-28 17-25 13-22 12-24 12 26-9 28-4 34 0 36 5 35 11 30 17 28 21 20 23 19 23 12 25 9 24 7 29 6 28"/>
<path d="M2331 10261l-1-1 25-8 27-13 25-15 22-16-9-23-29 0-29 5-27 14-22 20-17 22-12 24-4 24 5 26 13 23 25 16 29 4 28-1 31-5 34-8 22-9"/>
<path d="M2590 10180l-1-1-19 18-7 24-7 30-6 25-2 31 2 27 9 24 28-4"/>
<path d="M2615 10088l-3 1-19 15-12 21"/>
<path d="M2713 10204l-1 0-9 22-3 30-6 29-7 28-6 24 21-21 13-21 15-22 14-25 15-22 22-27 19-20 22-17 25-1 6 26-3 24-8 30-13 29-11 22 24-12 22-27 15-20 15-20 23-25 20-24 19-17 23-14 24 7 6 26-2 29-5 24-3 29 3 25"/>
<path d="M3102 10241l-1 1 8 25 24 5 33-7 27-17 21-16 23-20 24-24 25-27 25-29 23-31 22-31 17-33 15-34 10-35 7-36 3-37-2-35-4-33-6-27-10-28-23-12-29 16-26 26-19 24-18 29-18 32-19 35-16 38-12 39-11 40-8 41-4 42-2 42 1 38 4 35 6 33 9 25 10 22 18 23 21 12 31 1 26-10 27-21 19-20 15-21 13-23 13-31 8-26 2-26-8-23-10 22 7 24 23 14 25 2 24-9 21-13 2 25-7 28-6 27-1 27 14 22 25-11 24-20 19-20 17-20 18-23 16-19-5 24 25 8 26-13 25-17 24-23 19-21 14-20 12-22 6-24-25 3 12 23 26 9 25 0 27-3 25-3-12 26-24 21-18 17-19 24-14 23-4 25 24 12 25-3 29-12 24-14 24-16 24-19 22-19 19-19 16-20 15-25 10-27 0-25-19 17 1 27 8 25 14 26 13 21 13 27 4 28-10 25-22 11-25 0-26-8-24-10 11-22 24-11 34-13 27-9"/>
<path d="M4073 10209l-2-1 24-12 27-15 22-15 24-16 24-19 15-18-10-23-28-2-30 10-25 16-27 21-24 24-19 24-12 21-3 29 13 22 26 17 27 9 34 4 26-1 28-4 30-6 31-8 29-11"/>
<path d="M4257 10134l 0-2 9-22 23-10 11 25 1 30-5 28-7 30-8 29-10 26-13 23 4-25 14-31 12-23 12-24 13-21 18-26 17-18 22-18 24 9 2 27-5 24-11 26-13 25-14 22-10 22 18-19 19-26 14-20 17-21 15-19 22-25 22-19 25-15 26-2 16 19-1 24-8 28-12 29-10 22 2 26 30-7 24-21 17-19 17-23 13-22 7 25 23 5 24-7 28-14 27-17 22-19 13-21-12-21-30 2-27 15-19 16-19 17-16 19-16 26-10 24-3 25 12 21 25 6 26-3 27-8 27-11 25-12 22-13 22-14 19-18 7-24 14-21 15 22-7 28-11 28-11 24-12 25 19-19 17-23 17-27 19-26 18-25 15-20 17-20 11 24-5 27-6 27-3 25 3 25"/>
<path d="M5167 9826l 0-1 8 28-2 24-8 32-6 25-6 28-9 28-8 30-9 31-10 30-10 29-10 30-9 27-8 23-9 32-6 29 19 17 21-14 21-17 25-22"/>
<path d="M5092 10010l-11 4-25 10-32 11-31 11-26 8 24-11 31-14 26-11 32-13 35-14 40-14"/>
<path d="M5884 10221l-1-1-25 5 18 17 24-10 22-12 26-18 30-22 33-27 35-31 36-31 33-32 30-32 25-32 20-33 13-34 9-35 6-34 2-34 3-30-4-33-24-7-20 20-17 22-20 30-20 37-22 44-11 24-11 26-11 27-12 27-10 30-11 29-10 30-10 30-9 31-8 31-8 32-7 30-6 30-5 31-4 29-3 28-3 27-2 26-1 24-1 45 2 37 3 31 5 32 12 23 21-23 14-33 9-28 6-31 5-33 3-35-1-38-3-37-5-34-7-27-9-29-8-23 18-18"/>
<path d="M6183 10124l 4-1-24 11-13 23-6 23-2 28 10 22 27 6 28-8 23-10 20-14 19-16 4-25-26-7-26-6 22-12 28-8 25-11 23-11 21 12 25 8 2 24-16 18 3 25 28 8 30 0"/>
<path d="M7019 10161l-2 0-22 15 8 23 27-2 22-11 20-14 23-18 27-23 30-26 30-29 29-30 28-31 26-33 23-35 22-37 19-40 16-43 14-42 12-42 12-38 9-30 8-30-20 20-13 23-14 29-17 34-18 37-20 42-8 23-9 24-8 24-8 24-7 25-7 25-6 25-3 24-6 23-8 45-7 43-3 37-2 32 0 27 2 29 10 23 29-11 26-20 20-17 20-18 21-20"/>
<path d="M7136 10004l 1-1 20-15 23-9 30-7 35-5 25-3 27-1 29-1 29-1 30-1 28 0"/>
<path d="M7446 10026l-2-1 23-17 25-3 25 2 28 5 24 9-12 25-24 21-22 17-23 18-21 20-19 23-8 23 26 9 29 0 27-2 28-3"/>
<path d="M7766 10068l-1-2-10-22-25-11-23 10-21 15-24 19-22 20-20 20-14 25 17 20 29-8 25-9 25-10 23-10 25-11-2 25 21 12 26-10 20-14 22-18 20-20 16-18-6 26-10 22-7 24 25-2 20-17 21-19 21-19 20-17 13 22 15 21 25-8 23-12 25-16 27-20 25-22 22-22 13-21 9-25-2-27-25 0-10 25 6 25 12 28 12 22 11 23 6 25-7 23-22 15-25-1-23-5-28-9-23-8 26-7 25-2 26-1 32-1 28 0 29 1 30 0"/>
<path d="M8292 9946l-1 0 0 29-7 24-6 25-5 28-1 25"/>
<path d="M8354 9805l-4-1-24-5"/>
<path d="M8512 9670l-3-1-23 10 5 28 3 27 1 25-1 29-5 33-10 34-8 26-10 26-12 27-11 27-11 23-16 28-10 25 6 24 31-5 30-14 24-13"/>
<path d="M8399 9868l-6 0-28-1 20-14 29-8 24-6 29-7 31-5 35-5"/>
<path d="M9003 10064l-1 0 12 22 29 0 31-11 34-15 26-15 28-17 32-22 34-26 19-16 37-34 20-17 20-18 18-17 18-18 30-35 24-35 16-35 12-37 7-38 6-34 0-28-3-30-21-18-27 11-25 24-21 23-24 31-26 37-14 21-13 22-14 24-15 25-14 25-13 27-13 28-13 30-13 29-12 30-11 29-10 29-9 30-10 28-9 27-7 26-6 24-5 24-6 41-3 33 1 27 3 30 12 21 28-2 22-19 23-27 16-23 12-23 10-26 7-27 4-29 1-30-1-29-4-24-6-29-18-20"/>
<path d="M9419 9942l-2-1-25-5-25 7-20 19-12 21-4 27 2 26 20 18 27-2 23-10 27-18 21-20 15-20-1-24-20 15 18 18 24-5 26-10"/>
<path d="M9644 9898l 0-1 24 2 25 2 8 23-18 18-21 17-22 17-20 17 24 12 26-8 29-9 27-10 24-9 23-7 23-10 26-10 26-13 25-12 25-15 20-18 1-25-30-5-24 6-26 11-26 15-23 17-17 19-11 24 6 26 21 17 29 8 25 0 27-5 28-10 29-15 21-13 22-13 21-15 28-19 19-20 12-25-2-26-26 8-22 14-15 20 0 25 15 22 18 19 18 18 17 24 10 23-17 18-30 2-25 0 21 12 29 8 30 8 27 8"/>
<path d="M2200 10901l-1 0-4 29-7 30-7 29-10 33-7 25-7 28-7 28-8 30-8 32-10 35-11 36-10 36-9 35-8 30-5 24"/>
<path d="M2324 11288l-1 1"/>
<path d="M2868 10944l-2-1-24-10-25 2-26 9-25 11-27 14-30 14-27 16-24 14-21 20-2 25 25-2 25-6 29-5 28-5 27-4 25-2 30 3 26 8 16 18-4 27-15 27-20 20-23 18-25 15-26 13-28 8-31 7-33 2-32-2-30-4-24-9-23-14"/>
<path d="M2769 10856l 0 0 6 26 0 27-2 28-5 37-5 26-6 30-6 30-6 30-7 30-5 30-5 29-5 25-6 32-5 30-2 25"/>
<path d="M3031 10857l-1-1 26 10 25 0 31-5 25-5 27-8 27-9 27-9 25-12 24-9 31-12 27-9-1 28-12 22-16 28-18 32-21 35-22 34-23 36-21 35-21 34-19 34-17 32-17 31-15 29-12 26-11 24-12 30-5 23 0 25 20 18"/>
<path d="M3331 11237l-3 0"/>
<path d="M3552 10883l-1 0 24 4 29-4 27-4 27-6 28-4 24-3 27 3 10 25-13 28-20 29-16 23-20 26-20 30-24 32-23 32-23 31-21 29-18 29-15 26-11 22-12 24 2 25 28-12 21-19 18-17"/>
<path d="M3815 10900l-1-1 25-6 26-2 24-3 27-9 29-15"/>
<path d="M3878 10879l-4 2-22 15-22 19-16 18-13 21-10 28-9 24-10 24-8 23-3 28 26 10 30-13 27-12 31-11 32-10 33-7 34-5 28-3 24 0 26 5 20 18 0 25-15 27-15 24-23 26-22 23-27 20-31 15-24 8-33 9-30 4-30-3-24-8-23-18"/>
<path d="M4611 11156l-1 1 12 20 25 1 26-5 28-12 21-12 20-14 21-22 13-21-15-22-26-7-27 3-26 11-24 18-24 21-17 19-14 20-10 25 2 27 15 23 22 12 25 4 33-1 37-8"/>
<path d="M4926 11111l-2-1-22-12-30 6-25 16-19 19-16 21-14 22 4 26 29 2 30-9 23-11 26-16 19-16-7 24 10 24 20 15 29 2"/>
<path d="M5169 11084l 0-1-21-12-24 4-22 10-25 16-22 14-19 20-16 24-9 24 3 27 21 13 28 0 25-5 27-10 31-13"/>
<path d="M5242 10814l-2-1-5 26 6 25 9 34 4 26 5 28 2 31 2 30-2 34-5 33-7 33-8 32-9 31-11 27-10 23-13 21 0-32 17-31 14-22 18-22 20-20 18-20 18-16 23-19 22-15 22 13-2 27-5 26-4 27-3 28-1 24 3 26"/>
<path d="M5828 11114l-1-1-13 24 8 26 17 17 28 4 27-6 25-13 21-16 17-20 5 26 21 17 25 3 26-7 23-11 22-15 18-19 13-21 9-27-2-26-10-24-18-20-25 5"/>
<path d="M6302 10991l-2-1-29-4-28 7-24 13-28 18-25 23-22 23-14 24-11 23 23 12 26-7 25-12 23-12 24-14 13 21 3 26 17 19 27 5 28-4 24-9 21-13 20-17 16-20 13-25 5-24 2 24 25-5 19-18 15-21 10-23-17 21-5 26-3 30 0 26 0 29-2 32-2 34-1 27-1 27-3 29-4 30-5 31-6 33-6 35-5 34-8 35-12 31-12 30-14 29-14 25-12 21-24 23-26 14-30 2-26-14-16-21-12-27-6-24-1-26 2-32 6-36 11-40 15-44 19-45 21-40 24-38 24-30 26-25 25-22 25-19 26-14 24-11 25-9 31-8 25-6 25-1"/>
<path d="M6719 11216l-1-1-1 29-8 27-9 23-12 27-15 29"/>
<path d="M7234 10821l 1-3 19-21 18-16-28-4-27 8-32 16-22 14-23 17-23 18-22 17-17 18-20 18 18 19 28-3 35-4 34-4 35-1 29 0 27 0 26 4 12 23-16 23-23 24-19 17-20 17-22 17-24 14-25 14-28 13-27 12-27 9-27 7-27 5-26 1-32 0-26-6"/>
<path d="M7196 10716l 0 0 7 30 2 29 0 35-5 28-5 29-5 32-8 33-6 32-10 32-11 31-12 27-12 26-11 24-13 27"/>
<path d="M7507 10700l-1-1-6 25-5 24-8 32-7 27-7 32-10 36-10 39-11 39-13 40-11 38-12 37-12 32-8 27-8 27"/>
<path d="M7595 10726l-1-1 31-5 30-5 34-8 35-8 32-9 30-9 24-10"/>
<path d="M7676 10698l-5 3-24 16-21 21-15 22-10 22-12 30-9 25-7 25-6 27 10 23 24 1 31-10 28-10 30-9 30-6 32-6 30-3 25 0 25 5 21 18-6 24-15 25-16 21-18 21-18 21-20 22-20 20-20 18-19 16-29 20-30 14-33 11-33 3-31-1-25-8-20-17"/>
<path d="M8109 10492l-1 4-6 31-6 26-7 33-9 35-12 40-13 43-9 24-9 23-9 25-10 25-11 27-11 26-11 26-12 28-12 26-13 27-14 27-14 27-15 26-15 27-15 26-15 25-14 25-13 24-14 20-13 21-20 36-15 28-13 29"/>
<path d="M8271 11003l 0-3-1-27-18-19-25-2-30 10-27 12-27 17-26 22-24 25-21 27-17 26-10 23 0 25 18 18 27 1 27-9 30-16 25-15 23-19 24-22 23-25 23-28 20-31 21-31 18-35 16-35 13-38 11-41 8-42 5-44 3-43 2-42 0-38-1-29-4-27-25-11-22 18-18 27-11 25-9 29-9 33-8 37-7 40-7 45-6 47-2 24-2 25-2 24-2 25-2 46 0 42 1 38 4 32 6 27 13 28 18 16"/>
<path d="M8494 11045l-1-2-14-21-24-8-24 12-19 20-17 24-12 24-5 25 22 13 29-11 25-15 21-17 18-20-3 25-2 28 7 24 19 18 23-10 22-17 23-21 24-17 24-15 20-13-22 15-13 26 0 26 18 19 26-3 21-15 18-16 19-19 18-20 17-20 18-25 14-25-22 12-10 30-3 26 1 27 7 28 6 31 8 31 7 31 4 29 3 27 0 28-2 27-8 25-14 28-17 18-27 16-32 11-35 4-25 0-25-3-26-5-24-6-30-13-22-13-19-18-7-24 13-22"/>
<path d="M8984 11186l 0-1-8 30-13 34-13 26-15 27-15 28-14 29-13 28"/>
<path d="M9520 10749l-1-1-12-23-26-7-30 0-29 8-25 11-25 13-22 14-21 18-13 21 3 25 22 10 27 1 28-1 33-6 24-4 32-5 29-4 30-1 23 12 0 26-13 28-23 23-18 16-24 15-21 15-22 12-22 10-22 10-24 6-24 5-35 2-33-4-25-8-22-13"/>
<path d="M9473 10569l-1-1-3 30-4 25-6 32-6 37-5 28-6 30-6 30-6 33-6 32-5 33-6 28-6 26-7 31-6 26-9 28"/>
<path d="M9815 10747l-1-1 16-22 24-10 23-8 27-5 26-1 26 3 24 3 24 9 7 26-24 16-27 14-32 12-25 10-32 12-30 11-25 8-24 7 29 5 30 1 31 1 35 1 34 3 34 4 29 6 26 11 18 21-10 27-17 20-22 20-28 19-22 12-23 11-27 10-27 8-26 6-27 4-27 2-36 0-32-4-25-8-20-13 7-26"/>
<path d="M10296 10581l-1-1-18 19-17 29-13 24-15 28-17 32-18 35-19 40-17 40-15 40-12 37-8 32-3 28 5 33 12 24 21 14 29 5 35-5 23-10 23-13 22-15 17-17 20-25 5-28-14-22-22-15-29-11-33-7-36 0-34 4-32 9-28 10-24 13"/>
<path d="M10541 10711l-1 0-27 10-23 23-20 23-19 26-15 30-11 34-5 33-1 30 11 28 20 17 32 7 29-1 30-9 28-14 27-19 24-24 15-28 7-30-2-30-12-32-11-23-15-20-22-25-25-10-25 2-25 8-22 14-20 17"/>
<path d="M10934 10501l-1-1-8 28-11 32-10 26-14 31-15 35-20 40-22 44-13 24-12 25-14 27-14 26-15 27-15 28-15 28-16 29-16 28-15 27-15 27-15 27-13 25-12 24-13 22-10 23-17 42-13 35-9 30-8 27"/>
<path d="M10920 10924l-1-1 15 24 2 28-9 28-16 26-17 19-23-8 5-26 12-21 17-21 21-17 20-12 26-4 14 21 0 25-6 25-5 24 20-20 16-23 18-22 19-20 18-17 22-16 6 27-5 25-8 27-7 25 2 26 27 11"/>
<path d="M11248 10967l-3-1-20 15-19 22-9 23 0 27 18 15 25 0 25-12 19-20 13-22-7-26-19-17-24-10 24-10 27-4 25 0 24 13 7 23-3 25-7 24 25-8 23-21 21-17 17-19 19-20 21-14 3 26-1 24 1 27 6 24 25-11"/>
<path d="M11641 10711l-1 0-5 25-4 28-3 25-6 32-7 24-8 28-10 29-9 28-11 27-8 26-8 24-6 29-1 27 20 17 23-9 18-16 18-22 19-24"/>
<path d="M11649 10875l-6-6-21-17-21-12-33-7-30 2-25 6-23 11 24 4 26-9 31-14 22-12 25-15 25-15 25-16 22-19 21-17 18-18 21-27 15-23 8-24-18 25-6 24-6 30-5 35-4 26-4 29-7 28-5 29-7 26-7 24-10 28-11 26 24-21 20-24 17-23 17-18 19-16 19 16 0 25 4 29 3 25 4 24 5 28"/>
<path d="M1936 11908l-1-1 10-25 24-18 23-13 28-14 31-11 33-9 31-5 28 0 30 8 19 17 5 30-8 32-12 25-15 28-19 28-21 29-23 30-27 31-28 29-29 28-30 25-28 22-26 22-24 19-22 17-21 16-25 16-22 10 23-12 27-12 34-11 26-7 27-8 27-5 28-6 26-6 26-7 25-6 33-5 28-2 26-3"/>
<path d="M2298 12179l-1 1"/>
<path d="M2568 11744l 0-1 22 15 7 30 0 36-1 28-3 31-4 35-7 38-10 41-10 41-12 42-13 40-15 39-16 36-15 30-13 22"/>
<path d="M2546 11768l-1-1 12-23 23-10 31-9 25-5 26-3 27 0 26 0 25 4 32 6 29 9 27 15 17 18 4 28-9 22-18 27-17 19-19 19-24 21-26 19-29 20-29 21-30 19-29 18-28 17-26 13-24 11-26 9 23 6 30 5 33 9 23 8 33 14 32 15 25 15 25 19 18 19 13 23"/>
<path d="M2866 12066l-1 1 10 23 30-3 26-12 20-13 21-17 19-17 14-21 3-25-21-12-31-1-26 6-26 13-24 17-21 19-17 21-10 24-3 25 7 27 16 22 22 17 27 12 30 3 24-6 27-15 27-22 19-17 17-17 22-26 13-21 9-24-26 0-9 23-4 30 4 26 24 6 19-20 18-25 13-20 19-25 16-19 20 17-5 25-4 25 1 25 20 13 23-11 20-14"/>
<path d="M3401 11703l-2 1-21 16-6 27 3 31 1 29 1 35 0 27-2 30-3 32-3 31-4 29-3 26-6 31-4 25-2 24 20 15 20-14"/>
<path d="M3267 11921l-3 1 24-22 27-13 31-13 37-16 45-16 25-10"/>
<path d="M4016 12000l-1-3-18-18-26-10-26 10-21 17-22 24-22 30-14 20-13 21-12 29-4 28 24 10 23-12 30-17 21-15 22-14 27-21 19-15 17-19-13 21-5 23 16 19 26 3 29-8 25-12 27-18 19-17 18-17 17-19 21-26 15-25 10-25-9-24-25-4-9 28 3 25 12 23 15 22 19 21 13 25-2 26-21 12-28 4-30 2-25-2 27 8 23-5 28-10 30-16 21-13 20-15 20-15 18-17 24-24 18-24 11-22 5-23-6-25-23-6-16 19-1 26 18 21 20 13 24 12 21 14 19 20 3 27-17 19-28 13-28 6-28 2-28 2-26 3 25-2 32-9 23-7 25-8"/>
<path d="M4609 11889l-2 1-19 18-11 24-13 29-8 27-5 28 0 28-1 26 5 24"/>
<path d="M4581 11751l-3 0-21 14 10 24"/>
<path d="M4627 11992l-1 1 5 25 25-1 22-13 19-14 20-19 17-21 11-22 8-27 2-30-15 21 8 26 15 25 14 19 15 22 9 24 2 24-13 25-27 9-27-2-26-3-23-10 29-8 26-2 32-7 24-6 24-5 26-7"/>
<path d="M4979 11584l 0-1 13 21 13 26 6 30 0 30-5 35-4 28-7 29-6 30-9 30-10 30-11 28-12 25-9 25-10 30-2 25 2 30 20 16 27-13 27-22"/>
<path d="M4837 11831l-6 1-23 8 31-5 25-5 32-8 40-10 42-13"/>
<path d="M5488 11971l 2-2 19-15 16 22-4 33-10 29-13 28-12 26-9 23 25 0 22-18 26-22 24-20 20-15 20-20-9 24-5 26 4 27 13 21 22 12 26-6 21-14 18-20 13-23 3-25-3-25-13-27-12-22-16-21-24-6"/>
<path d="M5863 11986l-4 0-25 5-26 12-17 17-14 21-10 24-4 29 6 23 25 12 25-7 21-13 21-14 17-23 5-25-11-24-20-16-23-12"/>
<path d="M5971 12002l 0-1-9 27-10 28-9 23-7 27 3 25 28 5 30-15 25-18 23-20 20-21 13-24-22 16-5 27 13 21 23 9 25-3 31-8 29-15 23-12 21-16 21-18 21-20 19-21 18-24 15-24 13-25 9-27 4-28 1-32 0-31-2-31-2-26-8-27-21-14-22 12-16 19-17 28-10 23-9 26-9 29-8 30-6 30-5 32-5 31-2 30 0 28 2 25 7 31 11 26 20 19"/>
<path d="M6489 12015l-3-1-20-15-27 7-24 21-17 24-19 26-16 28-11 27-6 27 21 14 21-12 20-14 21-20 24-21 24-27 22-26 22-30 19-30 15-30 12-32 6-30 4-34 3-37-2-38-2-36-3-30-5-30-19-16-23 16-17 21-16 27-10 25-8 28-7 29-5 32-3 32-2 34 1 33 2 32 3 33 3 30 5 27 6 25 10 22 17 25 23 16 26 2"/>
<path d="M7026 12131l-3 2-9 25 16 21 29-5 31-14 27-17 30-20 32-24 33-29 35-32 18-17 16-18 16-18 16-19 14-19 24-41 20-40 15-41 9-43 6-41 2-37 1-30-3-26-26 3-20 24-15 25-18 29-17 33-19 39-19 41-19 45-18 45-9 23-8 23-15 44-12 42-8 38-5 31-2 27 4 27 19 20 26-1 25-15 17-16 18-19 16-21 18-29 8-27 0-24-7-28-20-15"/>
<path d="M7466 12007l-1 1 14 21 25-3 24-13 20-13 25-19 17-19-6-25-30-3-27 4-23 11-25 14-25 18-21 19-15 19-8 25 7 29 20 20 24 11 29 6 32 1 27-3 33-4"/>
<path d="M8063 11911l 1-2 20-15 25 7 4 26-6 25-11 28-12 26-7 24 29-4 25-19 19-15 24-24 18-21 13-22 10-23-15 20-5 28 3 26 11 25 24 14 26-5 25-18 21-18 19-19 15-19 9-27 1-27-6-27-24-6-6 26"/>
<path d="M8440 11864l-1 1 25-3 24-9 21-14 20-15 14-21-28-5-26 3-29 7-24 11-23 16-23 21-16 24-5 29 14 23 23 13 30 5 28-3 33-8 24-9 26-11 23-16 22-19 22-22 20-24 20-27 20-28 16-30 12-33 9-33 8-36 7-36 3-34 5-34 2-29 0-33-7-24-24 2-20 25-13 27-8 24-8 28-5 31-7 34-6 37-5 39-6 40-3 40-3 37 0 33 2 29 3 25 10 27 18 17 25-5"/>
<path d="M8933 11784l-1-1-23-11-23 15-24 19-23 18-20 20-20 23-12 23-2 29 18 21 27 9 25-1 31-5 32-9 31-12"/>
<path d="M9091 11826l-1-1-25 7-20 17-19 18-12 22-2 26 20 17 24-5 28-10 22-10 25-20 15-20 5-24-8-26-16-22 18-20 26 0 25 11 11 26-3 28-11 27-11 22 16-18 19-19 21-21 22-21 24-15 23 5-5 27-6 23 2 25 29-9 22-14 19-16 18-20 16 21 15 21 18 17 27-4 20-12 20-14 21-12 25 4 24-11 22-11 21-14 22-16 13-22-15-19-26-5-26 6-27 15-23 22-16 27-8 30 5 31 9 23 20 24 19 15 25 11 31-1 29-11"/>
<path d="M9737 11927l 1 1 11 23"/>
<path d="M1257 12815l-1-1 2 25-5 27-9 28-14 32-12 26-14 28-16 29-15 30-17 27-16 27-15 24-14 23-18 30-11 24-6 25 22 13 28-3 27-5 30-8 33-10 23-6 24-6 23-7 35-6 32-3 33-2 27 0 25 0"/>
<path d="M1378 12916l-2 1-7 24 2 28 3 26 4 32 1 37 0 28 0 30-3 33-4 32-5 33-6 31-6 28-6 26-7 28-3 24"/>
<path d="M1571 13314l-1 0"/>
<path d="M10291 9550l 0-1 19-18 28-8 27-3 27 4 24 9 20 14 16 24 0 30-12 29-18 27-14 19-15 21-16 21-15 22-16 21-14 20-16 29"/>
<path d="M10356 9985l-1 1-13 21"/>
<path d="M1945 12773l 1-3 19-14 15 26 6 25 2 33 1 27-1 32-2 35-4 40-6 43-9 47-9 46-5 24-6 23-11 44-9 38-8 33-6 25-6 24"/>
<path d="M2232 12718l-1 1-6 26-2 31 1 31 1 35-1 27-1 29-1 31-1 34-3 35-1 36-3 35-3 34-2 32-1 29-1 32 2 25"/>
<path d="M1953 13064l-1 0 23-10 29-19 23-15 27-16 30-16 31-15 33-15 33-13 33-10"/>
<path d="M2357 13089l-1-1-22 13-12 22-7 24-3 27 4 24 17 22 26 0 24-12 23-23 15-20 10-25-5-26-26-9-24 8-20 15 22-11 25-16 20-13 25-14 25-9 24 7 6 23-2 26-2 27 10 22 24-6 17-20 13-24 14 21 19 17 27 1 26-6 26-14 22-21 16-24 5-26-9-23-21-20-26-10"/>
<path d="M3255 12709l-1-1 10 27 5 32-1 33-2 25-4 29-6 32-9 35-8 39-11 41-12 44-13 44-14 44-15 42-11 37-9 30-3 28 23 8 22-19 18-22 22-29 23-33 23-34"/>
<path d="M3124 13060l-5 4-23 15 21-17 27-19 21-13 25-12 25-11 26-9 24-7 33-5 28 3 17 20-5 26-9 25-6 25-3 29 8 28 17 20 28 8 27-12 21-22 12-27 1-25-13-21-23-17-25-7-28 1"/>
<path d="M3929 13010l-1 0-19 21-10 22-10 29-7 24-7 25-5 23 0 27 20 15"/>
<path d="M4003 12835l-1 0"/>
<path d="M4104 12759l 0 1-8 27-6 28-9 29-8 26-9 30-12 34-8 25-8 25-8 26-8 25-7 27-8 25-8 23-7 29-4 28 12 23 25-10 22-23 18-27"/>
<path d="M4003 12986l-6 1-28 15-22 14 26-10 29-14 23-10 24-10 25-9"/>
<path d="M4129 13040l-1 0-14 20 29-1 25-8 26-12 22-15 9-23-27-5-28 8-27 14-20 16-16 18-16 27-9 23 5 24 23 10 33 0 29-7 31-10 32-15 29-19 26-21 18-20 12-24 19-19 26-2 3 27-15 18-18 20-16 22-6 25 20 16 30-3 29-5"/>
<path d="M4536 13058l-1-2 2-27-14-23-26 1-28 10-22 16-21 20-14 21-12 25 1 24 26-3 30-13 22-13 20-14 19-15 2 28 13 21 24 4 28-15 21-19 24-25 18-21 18-23 16-25 15-26 15-27 12-27 11-28 9-30 7-30 5-30 3-28 3-32-26-5-14 20-17 32-13 25-13 28-12 30-10 32-10 34-8 34-7 35-5 32-3 30-1 27 3 31 6 26 20 14 26-10 19-19 20-25"/>
<path d="M4595 12999l-6 2-30 13-22 11 27-10 28-8 24-7 24-5 25-5 34-7 29-3 24-1"/>
<path d="M4782 13021l-1 2 0 24 21 13 24-1 26-8 21-14 17-20-7-24-27-10-25 1-30 10-23 12-22 20-15 23-8 25 3 28 16 20 21 15 32 10 35 1 28-3"/>
<path d="M5430 13162l-2 1-5 26 23 11 33-7 25-11 29-15 31-22 35-27 35-31 19-18 18-18 19-19 18-19 18-20 18-19 15-20 15-20 15-19 25-39 20-37 14-37 10-36 6-35 2-32 0-26-5-27-28 0-24 30-22 32-22 40-11 23-13 25-12 27-11 29-12 31-11 33-12 32-12 35-12 36-11 37-12 38-11 39-10 38-10 39-10 38-9 38-8 35-8 34-6 31-6 30-5 25-7 43-2 32 2 30 23-7 10-22 11-29 11-35 11-38 9-38 8-38 6-36 4-32 2-30 0-26-2-29-7-25"/>
<path d="M5818 13098l-1-1-28-2-25 6-20 19-11 24-6 25 5 25 27 5 23-8 24-14 20-15 20-16 24 13 26-2 23-9 24-18 22-22 17-22 7-23-19 16 4 28 23 15 22 12 18 20-7 25-25 12-31 5-30 3-26-1 25-15 26-9 30-9 32-12 22-9 31-17 20-13"/>
<path d="M6213 12826l-1-1 2 26 5 30-2 24-5 30-8 32-7 24-9 26-10 25-11 23-10 22-13 26-12 24 24 13 27-15 24-20 26-25 16-20"/>
<path d="M6190 12954l-6 2-25 12-28 15 29-15 34-13 24-6 27-6 28-7 29-6 30-6"/>
<path d="M6312 13010l-1-1 25-1 22-13 20-16 14-20-25-4-25 6-26 10-23 14-17 18-17 23-3 25 20 19 27 11 29 8 30 2 31-5 25-10"/>
<path d="M6471 12937l-1 0 22 10 25 3 18 17-14 21-21 20-23 17-21 15-16 18 27 10 26 3 29-1"/>
<path d="M6725 12709l-1-1 27 5 23 9 23 16 19 20 10 25-1 26-7 24-9 22"/>
<path d="M6768 13014l-1 0"/>
<path d="M2082 13643l 1-2 12 21-5 35-7 28-7 32-8 32-10 36-11 37-11 37-10 36-10 33-9 31-8 28-6 24-4 26"/>
<path d="M2203 14009l-1 0-4 24 13 21"/>
<path d="M2545 13648l 1-4 18-20 18 20-2 33-6 30-8 35-10 37-12 39-10 38-9 35-6 30-4 32 5 24 28-3 27-22 21-22 24-26 24-27 22-28 20-24 16-19 19-21-10 27-11 30-9 32-1 28 5 25 12 21 21 19 28 5 27-11 21-19 23-28 16-23 14-27 12-27 10-29 5-28 3-28-1-30-5-30-7-30-10-30-11-25-18-25-22-10-24 10-13 21-7 29"/>
<path d="M2989 13814l-1 1 18 17 27-5 25-14 20-18 14-20-19-15-28-1-25 6-22 10-20 20-13 25-5 27 4 28 12 26 19 22 27 15 26 2 33-7 28-10"/>
<path d="M3150 13820l-1-1 27 2 28-3 30-8 29-12 21-12 8-23-23-8-25 0-26 4-25 13-23 20-21 24-15 25-8 28 0 28 14 25 22 13 33 1 30-8 24-9 25-13 25-16"/>
<path d="M3449 13529l-4 1-20 15-12 22-6 28 0 29 1 35-1 27-2 30-3 32-5 32-6 32-7 33-8 32-6 28-6 32-4 24 10-25 6-27 9-34 10-33 8-29 10-25 12-21 21-17 26-10 24-5 27-3-1 25-20 25-22 20-22 20-22 18-18 17-15 21 16 19 24 0 24-6 24-10 29-16 20-13 21-16 22-16 21-17 21-18 19-20 17-22 16-21 13-24 12-26 10-27 6-29 7-29 3-30 2-30 0-29 0-24-2-28-10-23-23 8-14 29-9 33-7 28-7 33-6 36-8 41-6 41-7 41-3 40-4 35 0 30 3 32 8 24 27-2 18-17 21-23 23-27 19-27 15-22 12-21-16 18-13 24-10 26-4 27 13 23 22-10 21-20 17-20 15-22 16-24 14-21-5 29-3 25-3 27 0 31-1 34 0 35 0 25 0 26-2 26-2 29-4 29-4 31-5 32-7 32-8 31-9 26-9 22-15 24-25 10-24-15-17-25-12-35-4-30-1-32 0-33 6-32 9-31 13-28 16-28 19-26 20-26 22-25 25-26 28-25"/>
<path d="M4267 13787l-2-1-24 14-16 20-10 22-1 28 8 26 17 20 24 8 23-6 17-20 8-27-4-28-17-20 23-17 27-10 27-8 25-6 28-6 26-4 24-3 7 24-15 23-21 22-18 23-15 23-13 26 8 23 25 8 30 1 30-4 35-10 27-9"/>
<path d="M5016 13897l-4-1 27-13 22-14 24-20 22-23 20-23 17-23 6-24-23 14 8 23 17 18 19 22 15 24 11 25 7 25-8 23-22 16-29 0-24-15-17-21 13-22 25-9 28-2 26 0 25-3 26-3 25-6 24-7 25-10 20-15 6-25-9-24-23-8-28 9-21 13-16 20-4 29 12 28 17 21 22 17 24 10 27 1 27-6 25-14 25-20"/>
<path d="M5481 13784l-1-1 0 27 0 29-3 29-5 26 7-26 13-28 15-29 15-26 18-25 21-15 18 17 3 26-3 26-6 25 19-14 18-22 19-22 21-22 19-15 2 25-1 28 0 26 6 25 24-6 21-17 19-17"/>
<path d="M5812 13715l-1 0-17 21-10 28-7 25-4 25 3 29 8 23 29-2"/>
<path d="M5845 13569l-4-1-27 7"/>
<path d="M5984 13633l 0-1 21-11 28 0 25 1"/>
<path d="M6147 13689l 0-3 6-24 23-15 25-9 26 0 7 26-11 32-15 31-13 21-17 31-14 24-5 25 24-12 20-16 25-21 23-22 20-21 21-21-8 23-5 24 7 26 25 9 24-3 24-12 24-19 18-20 15-22 11-25 6-23 1-29-8-24-14-20-24 10"/>
<path d="M6507 13657l 0-1 26 0 25-10 23-15 15-20-22-12-28 4-25 12-22 16-21 20-17 24-10 25 1 27 17 24 23 14 24 7 27 2 33-6 26-10"/>
<path d="M6665 13680l-2 0 28 4 24-9 23-15 21-19 16-21-8-24-29 4-26 11-26 18-20 17-18 18-18 24-11 25 9 23 21 11 24 6 31-3 25-9 27-12 28-19 27-24 18-17 17-20 16-20 15-23 16-23 16-25 15-27 15-27 12-30 10-30 9-30 7-28 9-31-22-11-13 24-5 28-1 27 2 31 0 25-1 26-5 30-5 31-8 31-9 33-10 33-12 31-11 28-8 23-9 22 2-26 9-25 13-27 15-28 18-26 17-21 17-18 21-20 20-15 22-12-8 27-20 22-21 23-18 23-12 20-5 24 20 13 26-2 25-5 28-12 23-13 26-16 24-18 25-21 23-23 20-28 17-31 12-23 11-24 9-27 8-29 8-29 7-29 6-25 10-33 9-24-22 14-12 24-13 32-8 27-9 30-9 31-9 34-9 35-9 35-7 32-7 30-4 26-3 30 2 24 26-1 17-17 18-26 21-27 22-27 20-22 18-21-10 29-10 23-8 25-6 25-4 29 13 20 20-17 17-18 15-19 15-21 17-19 15-20 16-21-15 25-5 26-3 25-1 27-1 29-2 31-3 33-5 25-4 26-6 29-9 32-9 33-10 33-9 35-11 35-13 33-14 30-14 26-11 23-16 25-24 15-26-5-20-14-19-21-14-25-9-29 0-31 6-23 11-25 14-27 20-29 23-31 26-31 28-33 32-32 34-32 37-29 38-26 38-24 37-21 35-15 31-10 25-5 25 2"/>
<path d="M8216 13569l-1-2 2-24-27-3-20 14-23 17-18 19-19 20-13 21-10 23-4 27 10 26 29 6 26-4 31-8 31-12 22-10"/>
<path d="M8318 13574l-2-1 17-17 24-16 23-11 15 23-11 28-14 25-16 28-13 26-12 27 22 15 29-13 24-14 26-16 24-18 20-17 19-20 5-23-16 20-5 25 5 25 14 20 24 4 24-12 23-17 26-19"/>
<path d="M8673 13517l-1-1-25-1 27 9 27-1 30-1 26-3-18 22-17 17-19 18-18 18-16 19-17 25-9 23 8 25 26 3 26-5 26-8 30-15 23-11 22-13 23-14 22-15 26-23"/>
<path d="M8908 13534l 0-9-5-27 27 0 27 4 25 3-8 28-21 15-24 17-22 18-20 19-5 23 23 13 24 10 29 5 24-3 25-11 24-12 23-9 25-6 25 2 25-3 23-13 17-18 18-17 15-22-20-15-25 8-20 14-25 19-15 20-9 24 6 27 20 15 24-5 26-10 27-11 28-13 25-13 24-14 19-17-13 20-6 26 24 12 25-11 25-14 23-13 18 19 11 24 25 10"/>
<path d="M9563 13246l-1 0 7 24-7 28-13 32-13 27-16 33-17 35-16 37-16 38-14 36-13 35-11 31-6 26-4 29 20 13 22-14 20-14 22-17 24-17 22-17 21-18 23-24 12-22"/>
<path d="M9478 13456l-5 0-31 1 25-12 31-5 34-6 23-8 24-9 25-12 27-14 25-15 26-17 24-18 21-19 20-20 16-20 14-20 14-30 6-30 1-27-6-25-23 13-15 21-17 31-12 25-11 27-12 29-12 32-12 34-12 36-13 36-14 36-11 34-11 32-10 27-8 31 25 6 23-19 27-23 26-21 21-18 20-16 1 25-4 29-4 25 24 5 21-21 18-19 19-20 19-17 19-16 20-17-14 20-13 24-12 28-7 26-5 27-2 24 26 7 20-20 16-19 16-20 17-27 12-23 7-24-4 27-5 23-5 27-5 27-6 23-6 28-6 32-7 33-7 33-9 24-8 24-10 25-11 24-9 24-12 21-15 27-18 24-20 19-25 17-23 5-15-20-6-30 5-30 6-26 10-29 10-31 14-32 16-32 20-28 21-26 23-24 23-22 24-18 23-17 23-12 21-13 32-15 30-10 30-5 14 19"/>
<path d="M10101 13640l-1-2 6 24-4 25-10 28-18 29"/>
<path d="M10335 13626l-1 0 27-13 26-14 25-14 32-20 22-17 23-18 24-23 25-24 27-28 27-30 26-31 23-33 19-32 16-33 10-34 6-35 3-32-2-29-8-31-18-18-26 4-28 13-22 16-22 20-20 25-20 30-16 32-17 36-15 39-13 43-10 42-7 42-4 38 0 36 4 32 5 29 7 25 13 30 11 22 17 17 25 2 22-14 17-18 13-20 11-28-1-30-10-30-12-24 20 15 30-2 24-2 29-1 29-1 24 2-4 27-3 26 1 25 11 22 22 10 24-5 25-18 20-16 19-17 19-19 20-22-22 12-11 24 7 26 19 21 30 2 27-8 29-15 22-15 24-18 24-21 25-21 23-24 20-24 17-24 13-26 11-29 8-31 8-34 7-37 6-38 8-36 5-32 3-25-1-24-27 6-18 20-10 23-7 30-4 33-1 35-2 27-2 28-1 30-3 30-5 32-3 30-7 30-6 28-5 25-6 30 1 27 18 20 25-2 26-13 20-18"/>
<path d="M11065 13451l-7 0-33 2-24 0 20-14 30-12 24-7 29-8 32-8 36-6 42-6"/>
<path d="M11445 13439l 1-1 18-18 27-6 25 1 18 16 0 25-11 27-15 32-14 23-14 22-14 20-19 25-14 20 19-22 24-28 18-22 20-23 20-24 20-23 17-18 22-19 21-11-1 25-8 25-11 28-13 29-10 23-10 23 20-17 22-19 18-17 19-17 19-18 19-17 26-23 18-16-5 26-16 25-17 26-11 26-7 26 18 17 27-15 23-18 22-22 21-24 20-23 15-19 11-23-19 19-15 24-9 24-2 26 24 1 30-16 29-19 23-17 22-17 20-18 18-16 19-23 10-26-19-15-23 11-20 24-14 23-8 27-8 28-4 32-3 35-2 27-3 28-5 31-5 32-8 34-9 36-11 36-15 37-15 36-16 38-17 34-17 31-17 25-16 20-21 17-24 5-23-15-12-23-6-32-2-27 1-30 5-33 9-35 14-37 15-35 22-35 23-30 23-27 26-24 25-22 28-20 29-18 29-18 31-17 30-14 29-13"/>
<path d="M12146 13526l-2 0 28 0 28-14 31-17 23-15 25-15 24-15 22-16 20-17 23-25 18-23 10-23 1-27-23-13 28-1 26 5 25 12 22 13 20 15 2 25-20 21-27 19-28 20-27 17-22 13-21 15 28 2 25-6 30-6 30-8 27-8 23-10 22-13 18-20 15-20 18-19 15-20 10-22-26-1-26 7-22 17-22 15-22 18-18 21 3 24 14 22 22 15 29 8 24 2 32-3 24-8 25-10 23-12"/>
<path d="M12638 13441l-3-1 22-14 27-13 24-11 26-11 26-14 22-14 24-21 16-18 7-24-23-5-10 22 7 28 13 27 8 25-1 28-18 22-26 12-24 9-24 2 21-18 26-9 28-3 26-4 27-4 30-7 30-8 29-8 25-9 24-11 23-17 12-22-20-16-21 16-16 24-7 26-1 27 20 16 25-8 27-13 20-15 18-17 8 24 23 10 24-7 24-15 26-17 21-14 21-16 20-17 20-18 18-18 16-20 14-20 12-22 10-24 8-26 7-29 6-29 5-25 4-32 0-25-29 2-25 20-23 24-15 20-14 22-13 26-12 28-11 28-10 28-11 27-10 26-9 24-8 23-5 32-3 28 8 28 25 14 25 0"/>
<path d="M13504 13112l 0-2 13-22-3 29-10 31-9 25-10 28-13 28-14 30-15 29-15 28-15 26-13 23-14 28-8 24 17 18 27-4 24-9"/>
<path d="M13443 13276l-6 1-27 3-33 4 25-9 26-3 31-3 33-4 32-3 28-4 26-4 24-6 19-15 21-16 19-15 18-17-24 8-13 25-4 27 3 27 8 23 11 22 8 23-19 18-27 2-27-10 27-2 27 2 33-1"/>
<path d="M14023 13237l 0 0-20 23-16 24-17 27-11 22-14 28-3 25 30 7"/>
<path d="M14091 13112l-4-1"/>
<path d="M14136 13246l 0 1-9 23-10 22-16 25-15 20 19-17 20-20 22-18 25-18 22-14 23-13 20 13-7 25-10 26-8 27 4 25"/>
<path d="M2586 14361l 0-1 11 22 3 30 0 32-2 27-3 31-6 35-4 25-6 28-7 26-7 26-8 25-10 34-9 27-6 24"/>
<path d="M2784 14524l-1-1 27-7 30 0 33-1 31-2 24-4 27-4"/>
<path d="M3117 14329l 1-2 13-22 30-5 26-2 32-2 34 1 34 3 30 8 20 14 11 21-1 30-8 23-14 27-19 27-23 28-27 29-28 28-28 28-29 25-27 22-26 18-23 15-22 10-27 13-26 7 21-15 29-8 34-5 24 0 26 1 26 4 27 5 28 6 27 6 26 5 24 5 33 6 27 5"/>
<path d="M3955 14554l 1-2 18-19 15-19-17-20-23-10-28 1-28 11-23 17-22 24-21 28-16 30-12 25-5 28 9 22 28 3 28-8 32-16 25-16 26-20 27-23 27-26 25-28 22-28 21-29 16-29 11-28 8-29 2-28 0-30-2-29-3-28-4-26-6-29-25 4-11 27-11 34-8 27-8 30-8 34-6 39-6 38-4 40-4 39-1 35 2 30 6 26 15 27 20 13 24 2 29-10"/>
<path d="M4303 14513l-3-1-14-20-25-8-29 11-26 14-25 19-21 20-14 21-7 26 25 14 30-8 29-12 30-17 26-16 24-15-5 26 1 26 20 16 24-6 24-6 12 23 10 23 29-4 29-17 25-18 26-21 26-24 21-20 17-20 13-22 0-25-21 14-6 25-1 26 5 27 7 27 6 31 2 28 0 32 1 36-1 25-2 26-3 25-5 25-7 24-11 30-15 24-20 17-26 1-22-9-24-15-22-25-13-21-10-23-8-23 2-32 9-27 17-24 23-24 19-17 21-15 22-16 24-14 23-15 25-14 25-15 24-16 26-15 24-16 23-14 19-14 25-23 19-19 17-21-24-5 3 26 17 23 17 24 15 23 8 25-10 23-26 12-26 6-27 0-28-3 29-2 30 0 28-1 28-2 32-5 27-5"/>
<path d="M4972 14583l-1-1 20 17"/>
<path d="M1897 15089l-1-1 15-22 23-6 24-5 29-4 31-3 30 0 29 4 26 8 23 10 19 20 2 25-11 28-14 22-20 24-23 26-27 28-27 29-29 28-26 26-26 24-24 22-23 18-21 15-28 15-25 12 30-7 30-4 34-1 35-2 33 2 31 3 28 5 29 7 26 10 26 10 28 7"/>
<path d="M2275 15421l-1-1"/>
<path d="M2498 15094l-1-1 10-24 24-7 28-8 25-7 30-9 35-10 25-8 27-8 27-9 27-8 26-7 23-6 28-5"/>
<path d="M2660 15070l 1-1 13 21 1 25-1 26-5 33-3 26-4 29-4 32-5 35-5 37-6 36-6 35-6 32-5 28-5 23-5 31-4 28"/>
<path d="M2927 15406l 0-4 5-29-3-24-19-19-24-4-26 10-23 17-23 23-15 19-14 20-12 21-15 31-7 24 2 25 27 4 23-6 27-12 25-17 22-15 20-18-1 24 16 21"/>
<path d="M3095 15425l-2-2-17-18-24-4-23 7-24 15-20 17-19 20-12 21-12 28-3 24 14 20 25 0 28-15 20-19 18-19 16-21 8-23-18 20-8 30-2 29 0 24 0 28 0 31-2 36-4 27-4 31-6 31-7 33-9 33-11 29-11 26-15 30-18 24-26 1-18-24-10-34-4-27-1-33 2-34 6-36 10-37 14-35 19-36 21-34 22-34 24-31"/>
<path d="M3293 15434l 0-2 1-28-3-29-14-20-28-5-25 10-20 17-20 21-18 22-16 23-11 22-5 25 10 27 30 1 22-12 23-14 20-17 18-17-15 20-3 32 3 26 2 30 3 31 2 25 2 26-2 31-3 34-5 34-7 36-8 35-9 35-11 33-12 29-11 26-17 26-19 15-27-13-16-24-9-25-6-30-3-35 1-37 3-37 7-34 11-31 14-28 18-28 19-27 21-25 22-25 25-24"/>
<path d="M3428 15382l-1-1-9 22-6 25-8 24-7 25-6 28-6 25-1 24"/>
<path d="M3453 15296l-2 1-22 13 10 25"/>
<path d="M3495 15402l-1 1 9 25 3 28 0 28 0 24-3 30 18-15 16-29 16-27 15-21 19-17 12 23-4 25-4 26-5 27 0 26 20 16 24-7 27-16 23-17 26-18 23-18 19-14 22-16-7-25 1-25-13 22-11 24-11 21-10 27-6 24-5 29-3 28 1 27 4 28 4 25 10 25 11 22 3 25-2 26-3 25-5 27-6 28-5 25-8 26-11 26-14 27-12 21-14 21-23 22-24 9-26-5-14-25-5-34 0-31 5-38 8-41 12-43 16-42 17-39 17-35 19-35 19-30 20-29 22-26 21-25 20-24 19-21 18-17 24-18"/>
<path d="M4333 15462l-1-1-24-5-16 20-18 25-15 30-14 25-10 22-5 24 16 20 26-9 25-16 22-19 14-20 6-25-3-29-6-23 6-25 25-5 25-5 26 5 14 20 3 25-1 25-2 24-2 25 24-16 21-25 14-23 11-25 5-28-1-27 17 19 22 11 28 2 26-1 26 3 22-12 18-17 16-21 6-24-27-8-30 2-25 8-22 15-19 21-14 21-3 25 9 23 18 17 25 11 23 7 25 4 26-1 25-8 24-11 25-18 23-21"/>
<path d="M4819 15370l-2-1-26 3 27 9 28-1 24 11-2 25-15 22-19 20-19 18-15 23-2 25 31 0 29-10"/>
<path d="M5333 15438l-1 1 9 23 25 0 28-8 25-12 29-17 34-22 38-29 20-14 21-16 21-17 22-17 21-18 21-18 21-18 19-19 18-18 17-19 16-18 25-35 18-31 13-31 5-30 0-29-3-28-6-24-15-23-25-7-26 11-21 14-23 19-22 23-22 24-18 24-15 23-13 29 0 25 13 28 20 20 24 20 25 22 23 23 18 23 13 23 7 24-1 29-13 24-18 17-23 15-29 13-33 9-35 5-35 1-31 0-28-2 24-8 29-3 33-2 25-2 35-1 34-1 31 1 29 3 26 2 31 1 25-1"/>
<path d="M5769 15387l-2 0 28 0 24-11 28-18 21-13 22-18 24-20 24-22 26-26 25-26 25-30 23-32 20-35 18-37 13-40 10-40 8-40 6-36 3-30 3-33-24-5-20 23-17 20-19 23-21 27-21 31-20 34-18 37-18 39-16 39-15 38-12 38-10 36-6 32-2 28 4 32 13 24 17 17 30 8 29-8"/>
<path d="M6162 15270l-1-1-19-15-26-3-23 17-22 23-15 21-13 24-2 27 30 0 25-13 23-15 22-16 15-20 4 25 22 12 30 1"/>
<path d="M6355 15241l-1-1-20-15-23 6-24 16-19 18-20 21-16 19-15 25-6 25 17 20 26 4 32-8 30-13 23-11 22-12"/>
<path d="M6518 14953l-2-1 6 25 4 30 1 31-2 24-4 26-6 26-10 28-10 28-12 29-14 31-12 31-14 27-11 23-14 23-4-27 11-21 13-22 15-22 16-20 20-23 20-16 20-14 20 15 3 27-13 22-20 16-17 17-12 22 14 22 27 12 24 3"/>
<path d="M7042 15025l-1-1-26 0-19 17-18 20-23 28-16 22-17 23-13 27-8 29-5 31 0 29 3 26 8 24 19 25 27 18 34 11 24 2 27 0 26-4 28-8 27-10 27-15 25-18 21-20 18-23 14-25 12-27 5-30 5-30-4-30-6-30-11-28-14-24-16-19-32-16-35-4-35 1-27 5-26 6"/>
<path d="M7380 14939l-2 0-16 23 2 29-2 32-5 26-6 29-9 32-11 33-14 37-16 38-15 39-16 38-16 34-13 31-11 26-10 29"/>
<path d="M7546 15007l-1 0-10 27-20 22-22 19-28 20-22 12-24 15-25 16-25 18-23 17-21 18-18 19-20 25-10 26 10 24 22 18 21 13 23 12 27 10 27 9 27 6 28 8 24 8"/>
<path d="M7638 15049l 0-2 21-14 28 3 22 9 21 13 18 18 4 29-11 30-17 30-15 20-16 20-21 27-16 23-14 28"/>
<path d="M7643 15375l-1 1-9 23 1 25"/>
<path d="M10220 7144l-2-1 15-23 20-13 27-16 34-18 40-23 21-12 23-13 23-13 25-15 26-16 26-16 27-16 28-17 28-18 29-17 29-19 29-18 30-19 30-19 29-19 31-20 29-19 30-20 30-19 28-19 29-19 28-18 28-18 26-17 27-16 25-14 24-14 24-12 23-11 42-19 37-15 32-12 27-8 29-7 26 4"/>
<path d="M11689 6614l 1-6 8-25 9-33 7-28 5-25-2-25-19-17-25 6-23 22-17 20-19 27-19 29-18 31-17 31-15 30-10 27-10 31 3 26 25 0 22-13 26-26 19-21 20-25 20-22 19-22 17-19 22-22 16-20-10 28-9 24-2 26 17 17 23 10 29-2 23-6 28-12"/>
<path d="M11912 6573l-2 0 8-26 12-28 10-23 12-24 11-24 8-25 5-24 3-25-7 29-1 24 5 28 8 24 16 25 16 22 1 26-21 14-24 6-26 5 17 18 23-11 25-16 20-14 23-17 24-22 23-25 16-18"/>
<path d="M12060 6138l-1-1-6 27 10 30 8 25 8 28 7 31 7 32 6 34 3 35 2 35 1 34 0 32 0 29 0 26-1 31-2 26-2-33 0-25 1-31 0-33 2-33 2-32 1-28 4-34 4-29 12-22 28-1 25 6 23 13 17 24 1 25-10 28-14 22-16 18-16 21-15 19 25 15 24-3 31-7 24-8 26-7 31-10 31-8"/>
<path d="M12555 6066l 0-3 11-26 16-19 22-19 27-19 30-20 20-13 21-12 31-16 30-12 26-9"/>
<path d="M12577 6044l-1 1-13 23 1 30 3 30 4 35 2 27 2 29 2 29 3 30 2 26 3 26 3 32 7 28"/>
<path d="M12568 6233l-1-1 7-25 23-14 33-16 24-10 23-10 22-8 33-7 26-1 24 6"/>
<path d="M12596 6365l-4 4-20 21 30-8 33-14 23-12 25-12 28-14 30-14 32-15 34-16 33-17 32-19"/>
<path d="M12913 5894l-1-1 5 24 7 25 6 32 4 26 4 29 2 31 2 33-2 35-2 35-2 34-2 31 1 25 6 29 13 21 28 2 22-14 18-17 20-21 20-25 20-26 15-25 8-24 0-31-16-27-27-22-24-8-26-4-29 1-29 4-29 7-28 10-23 10-29 13-24 11 19-20 27-18 21-15 25-17 26-20 30-23 30-24 28-27 26-26 21-26 14-23 14-30 3-25-24-3-13 26-8 34-3 26 1 29 0 30 0 33 1 33-2 34 0 33 0 30 1 25 3 31 3 25 20-26 16-35 10-23 12-23 15-27 20-20 28-5 24 15 14 21 9 28 10 30 10 26 20 22 30-2"/>
<path d="M13402 6045l-1-1-19-19-26 4-25 12-23 17-21 23-12 24-4 25 20 16 25-4 22-11 23-16 21-17 19-22 12-21-25 12-7 25 5 25 25 2 20-16 17-20 18-22 17-22 12-21-10 23-3 26 3 25 8 24 23 11 22-15 16-20 14-26 13-27 15-25 17-25 21-13 15 20 13 21 14 22 20 20 27 8"/>
<path d="M11433 7101l-1-1 22-13 26-11 24-14 32-18 41-24 23-13 27-13 28-14 32-15 33-14 37-14 37-14 40-13 42-15 42-14 44-14 47-14 48-15 47-14 50-15 52-15 53-16 54-16 55-17 56-17 58-17 57-17 59-18 59-18 58-16 59-17 58-16 57-15 57-15 55-15 54-14 53-15 51-14 50-14 49-14 45-13 44-13 40-12 40-10 35-10 35-10 30-8 28-8 26-7 23-6 40-10 31-9 24-6 27-7 24-9 21-13"/>
<path d="M8704 15111l-1-1 1 29 7 28 11 37 8 27 11 31 11 31 13 32 13 32 13 27 14 21 21 19 26-3 19-27 13-32 13-42 5-24 6-26 6-28 6-28 5-29 8-30 5-28 5-30 7-28 5-28 5-28 7-25 6-26 4-24 6-24 11-44 11-39 9-34 8-27 8-28"/>
<path d="M7741 2190l-1-3 3-26 21-25 19-19 24-23 28-28 30-30 31-32 17-18 34-32 35-31 34-31 34-29 33-27 32-27 32-25 28-23 28-21 28-20 25-17 23-15 26-19 22-17"/>
<path d="M8627 1739l-1-1 24-20 26-22 21-21 22-29 25-36 12-21 13-22 13-24 13-25 13-27 13-28 12-28 13-27 12-28 10-28 10-28 8-26 6-25 4-25 2-25 0-47-7-46-9-42-11-40-11-33-10-24-17-22-15 19-7 25-8 40-9 51-4 29-4 32-5 35-4 37-4 39-4 40-3 41-3 41-2 41-2 41-1 40 0 37 3 36 1 35 3 32 5 32 5 29 6 27 7 27 8 25 8 23 17 41 19 34 18 24 24 22 29 3 19-15 13-31 6-29 4-35 1-39-2-38-6-35-9-32-11-26-13-22-20-24-22-18-20-15-23-14-18-17 23-8"/>
<path d="M8956 1502l-1-1 17-18 20-15 19-16 23-21 19-20 14-20-17-18-30 5-25 10-23 18-17 24-10 26-5 27 3 24 14 21 23 13 27 2 25-6 26-14 27-20"/>
<path d="M9139 1370l-2 0 29-1 22-13 22-17 21-20 17-20 15-23-8-25-28 0-24 8-24 14-19 19-14 24-8 28 2 25 15 21 26 9 29-3 23-8 24-12 23-16"/>
<path d="M9386 1272l-1-1-19 19-7 28 25 6 18-21 15-25 13-29 9-24 8-27 5-27 2-31-2-34-5-25-5-25-8-27-9-28-9-29-8-26-13-31-13-23-16-20-23-9-6 24 0 31 1 29 4 36 4 26 5 28 6 27 4 28 5 26 6 25 11 33 14 27 15 23 15 19 18 19 25 13 26 1 22-10"/>
<path d="M9533 1230l-1 2 12 22 25-10 20-20 18-22 18-28 22-34 20-39 20-40 17-40 12-38 8-39 3-38-2-37-6-39-8-40-10-36-9-32-10-26-12-24-23-8-23 23-12 22-10 27-8 33-6 37-2 41 1 42 5 42 8 41 12 39 12 36 15 34 15 30 17 25 17 20 26 22 24 10 31 1 24-10 21-20 15-27 5-30-4-27-13-24-22-21-24-17-24-12-27-5-23 8 12 24 25 11"/>
<path d="M9955 967l-2-1-27-1-24 14-13 22-8 26-4 25 6 28 16 19 25-1 21-16 14-21 7-25-5-25-8 25 14 20 19 15 26 3"/>
<path d="M10129 897l-2-1-25-4-27 10-20 15-15 23-14 29-8 30 1 28 10 22 24 15 27-1 23-8 22-16 23-24 15-19 15-22"/>
<path d="M10192 569l-4-3-25-11-25 10-5 28 5 27 8 25 10 27 13 30 12 31 12 33 11 33 11 33 8 32 8 30 6 29 3 24 5 27-2-28-3-33 1-25 2-24 6-35 7-27 12-22 25-13 25 0 25 5 3 27-17 24-18 19-19 21-12 25 8 24 25 10 26-4 24-8 25-13"/>
<path d="M10923 673l-1-6-6-30-12-26-29-12-24 0-27 6-27 12-23 17-20 25-14 35-8 25-3 28 2 26 7 34 17 24 23 12 29 0 33-14 24-18 25-25 25-30 23-36 19-39 16-41 12-41 6-40 2-40-4-42-7-43-12-47-12-45-12-44-11-37-10-28-11-24-24 17-8 31-6 27-4 32-3 34 0 37 4 37 5 37 7 36 9 35 11 33 12 32 13 30 12 26 11 22 17 25 22 18 26-1 22-15"/>
<path d="M11087 574l-1 0-13 21 10 31 10 26 10 28 10 24 14 21 19 18 27 5"/>
<path d="M11141 457l-5-2-24-5-25 3 18 22"/>
<path d="M11247 513l-1 0 25 4 27 2 9 27-11 23-14 25-16 26-12 25-5 25 11 22 28-2 27-15 22-19 24-22 22-22 20-18"/>
<path d="M11434 542l-1-1 27-14 25-17 20-19 13-23-18-20-29-4-27 4-24 13-19 21-15 26-9 25 3 29 17 23 21 12 27 5 31-4 29-9"/>
<path d="M11734 342l-1-1-20-17-25 13-26 19-18 20-14 22-11 25-6 28 0 27 7 24 20 24 30 11 29-2 34-12 27-14 25-17 27-21"/>
<path d="M11794 59l-2 0-16 22 9 24 13 25 11 23 13 24 11 28 10 29 8 31 4 31 3 32 2 32 0 29 3 26 4 29 8 23 28-3 20-19"/>
<path d="M11730 313l-3 1 28-14 26-16 30-19 31-21 33-25 32-26"/>
<path d="M11972 -48l-1-2-20-16-23-8-17 25 0 32 7 34 8 24 10 28 8 32 8 36 6 37 5 40 3 39 3 40 3 38 1 36 3 33 4 29 7 32 16 20 25-12 18-27 13-26 12-29 11-29 8-29 5-28 3-24 1-31 0-28 0 26 4 25 5 26 10 24 23 12 26-15 19-23 14-22 9-25 6-28 2-27 1-25-5-27-7 29 2 25 5 27 7 29 6 32 7 35 6 25 7 28 5 29 6 29 5 30 5 29 5 30 4 27 2 29 1 29-1 30-4 28-5 28-6 28-7 24-10 22-17 24-21 13-21-12-14-28-7-28-5-37-2-42 3-48 3-25 5-26 5-26 7-25 7-25 9-25 8-24 10-22 20-40 17-32 18-27 15-19 21-20 26-15 26-8 29-1 22 15"/>
</svg>
