<svg xmlns="http://www.w3.org/2000/svg" viewBox="329 426 13064 6784" stroke="black" stroke-width="32" stroke-linecap="round" stroke-linejoin="round" fill="none" data-xena="47 9"><style>@media(prefers-color-scheme:dark){svg{background-color:black;stroke:white;}}</style>
<path d="M5595 3859l-1 1-3 25-2 29 2 28 7 23 21 17 27-3 25-11 24-18 16-20 3-25-19-23-23-12-26-7-26 1 16 19 30-2 29-3 31-8"/>
<path d="M6274 4051l-2 1 28-20 18-22 22-28 25-35 27-39 13-20 15-21 15-23 15-23 14-23 14-23 15-24 14-24 12-23 12-23 10-22 10-22 16-42 11-38 6-35 3-28 0-29-21 26-8 30-8 36-8 41-6 44-3 45-1 47 1 46 5 42 7 38 8 32 10 29 10 25 12 21 15 27 17 21 26-2 7-23"/>
<path d="M6430 3839l-4 1 18 18 25-2 31-5 24-5 26-7 28-8 28-8"/>
<path d="M6722 3796l-1 2-8 27-2 26-4 27-3 32-1 30-1 27 24 0 16-25 11-22 13-23 12-23 11-22 15-27 14-27 4 26-6 31-5 31-3 28 5 26 25-2 22-18 19-20"/>
<path d="M7029 3556l-1-4-22 13-7 23-8 29-8 33-5 23-5 24-4 25-3 26-3 27-1 25-2 25 0 30 5 30 18 19 20-15 20-24"/>
<path d="M6947 3694l-5 1-29 13-22 15-17 22-8 23 27 1 33-14 25-15 30-20 33-22 34-24 33-26"/>
<path d="M7202 3454l-1-3-24 18-13 27-8 24-8 27-7 30-8 33-8 35-8 38-7 40-8 42-8 42-7 40-6 38-6 35-5 28-2 32 25 6 20-26 15-25 17-28 16-29 14-28 12-27 11-25 10-23 12-25 6 30-6 27-5 28-3 27 0 26 4 27 17 20 30-2"/>
<path d="M7349 3798l-1 0-13 20-9 27-3 24 4 25 3 26-2 24-6-25 2-30 6-25 8-25 12-27 15-23 21-17 24-8"/>
<path d="M7504 3816l-2 1-25 13-16 20-3 25 19 16 30 2 27-5 25-8 24-14 12-24-10-23-18-18-22-9 20 13 25-5 24-5 25-7 25-6 25 3 3 25-3 25-6 32-8 28-8 30-11 32-11 32-11 28-9 23 7-25 7-32 8-36 6-25 5-25 7-23 8-34 10-30 11-28 12-25 17-19 27-4 23 9 16 22 4 25-10 25-14 19-19 18-22 17-20 16"/>
<path d="M7887 3745l-1-1-4 27-6 30-8 24-7 29 0 24"/>
<path d="M7958 3645l-2-1-14 20"/>
<path d="M8084 3741l-1-1-23 15-16 18-20 22-16 22-13 25 1 25 16 20 26 7 28-5 31-9 23-9 28-13 27-10"/>
<path d="M789 6542l-1-4 5-27 17-18 20-13 25-13 28-12 27-9 30-3 22 17-9 28-18 23-18 16-21 18-23 18-25 18-23 16-21 14-24 18-21 17 31-5 26-9 32-10 35-9 35-5 36-5 36-2 33 4 26 11 17 17 9 28-5 25-14 30-15 22-18 23-21 23-24 24-26 23-27 21-27 20-26 19-24 17-23 14-21 12-26 11-25 2"/>
<path d="M1159 6835l-1 0-13 24"/>
<path d="M1580 6496l-2-1 5-25 25-15 29-19 24-14 24-14 25-13 24-12 25-10 23-9 32-11 25-6"/>
<path d="M1694 6441l-5 2-26 14-20 16-5 27 1 26 0 30-3 31-6 35-7 36-7 33-8 31-8 28-7 26-6 24"/>
<path d="M1615 6667l-3-1 14-23 23-10 30-15 33-14 23-8 34-11 35-8 30-5 27 2"/>
<path d="M1594 6846l-2 0 23-11 28-10 32-8 35-9 26-6 26-5 26-3 26-4"/>
<path d="M1906 6678l 1-2 17-21 24-14 25-4 26 10 16 22 9 25 6 32 2 25 1 25 3 29 7 25 25 2"/>
<path d="M2116 6637l-2-1-24 8-21 17-19 17-20 23-21 27-19 28-15 27-8 23"/>
<path d="M2345 6368l-1 1-18 23-11 27-12 33-7 27-6 28-6 30-5 33-4 36-4 36-2 36-1 33 2 28 4 25 10 28 15 21 27 1 20-15 25-25"/>
<path d="M2176 6654l-1 0 25-10 30-8 26-6 29-8 32-8 34-7"/>
<path d="M2489 6756l-1-1 28 5 27-8 24-12 23-16 20-17 19-15 16-20-24-18-25 0-31 4-32 7-32 10-26 11-25 16-17 23-10 25 2 27 11 25 20 15 32 6 32-3 24-6 25-9 24-11 23-12 23-13 29-19 25-19 17-19 16-18 12-22-12 22-8 26-3 26 15 19 18-16 15-19 16-23 11 25 16 22 24-2 28-14 23-14 21-16 18-16 19-20 12-23 2-24-20 13-4 27 6 25 15 25 14 22 11 25-5 25-25 14-27 3-25-2-23-11 13-22 24-1 31-3"/>
<path d="M3143 6669l-2-1-21 17-11 27-7 25-6 25-2 26"/>
<path d="M3154 6575l-3-1-24 6 6 28"/>
<path d="M3233 6707l-1 1-8 24 15 21 23 9 27 0 23-11 4-26-19-22-23-15-22-11 20-15 27-4 29 0 26 1 27 3 18 18-6 24 25-5 24-18 24-18 22-14 23-11 26-1 15 22 7 29 5 29 5 29 6 25 10 23"/>
<path d="M1149 1202l-1 0 22-16 25-13 21-12 24-14 25-16 25-18 27-20 26-21 26-21 25-21 24-19 21-17 25-19"/>
<path d="M1316 1078l-2 2-14 22 11 23 14 22 18 25 17 22 20 23 19 25 18 25 18 25 15 27 11 30 6 30 1 34-6 35-7 24-9 23-13 22-13 21-23 21-23 13-32 3-27-8-23-20-14-25-7-33-1-25 4-25 8-23"/>
<path d="M1593 1333l-2 2-13 24 9 23 28 8 29-4 25-14 16-20-2-26-17-17-23-12-25-6 24-13 25-16 23-21 20-20 20-24 21-28 18-31 15-32 10-34 5-35 1-25 0-24-3-34-3-30-5-24-9-23-13 25-8 30-3 25-3 30-2 35-2 37-3 42-3 43-3 45-2 45-2 43-1 40-1 34 0 28 3 29 25-11 12-32 7-25 6-26 7-23 9-32 10-25 11-25 17 23 3 32 2 25 2 27 2 24 4 27 8 23 27-3 16-21 13-22 11-22 10-26 6-26-5 27 1 27 1 24 6 24 25-8 16-28 14-26 11-26 9-24 11-26 14-22 23 13 8 27 5 27 3 29 2 25 6 27 18 17"/>
<path d="M2599 1307l-1 0-24 10-25 7-30 2-28-3-32-6-31-12-28-17-25-25-16-20-14-26-11-29-8-31-2-34 2-35 7-35 11-32 11-28 13-26 13-23 13-21 22-27 25-21 26-14 28-7 26 12 10 24-2 27-8 23-12 26-16 30-21 33-24 36-26 36-27 35-25 35-26 34-25 33-22 30-19 29-15 26-12 21-11 27-1 25 24 15 30-8 32-15 24-15 27-16 28-19 31-17 31-20 32-19 32-19 30-20 30-17"/>
<path d="M2756 962l-2 0 26-6 27-8 22-11 25-12 27-14 29-15 28-15 28-13 25-10 23-8 28-8 28 0"/>
<path d="M2954 918l-4 1-27 13-20 17-10 25-4 24-2 31-1 35 0 25-1 25-1 26-1 28-2 29-3 28-3 28-4 25-4 29 0 24 26-2"/>
<path d="M3043 1151l-3 1-18 22-11 21-9 23-3 31 3 24 16 22 26 6 25-10 21-21 13-26-1-27-16-24-19-20-19-16 20-17 24-13 27-10 27-4 27 7 16 21 3 27-6 27-7 27-8 26 21-19 17-26 18-27 17-24 17-19 21-17 10 24-7 30-6 26-5 26-2 27 14 22 26-17 20-22 22-28 15-20 15-20 20-27 13-24 12-24-7 27-8 29-6 33-3 37-2 25-3 27-2 30-4 31-4 34-6 35-9 38-10 40-11 41-11 42-11 43-11 42-13 40-14 38-14 34-13 28-12 22-15 20-25-8-10-27-4-27-2-34 1-42 4-48 3-27 5-27 5-29 7-29 9-29 9-28 10-28 12-27 10-26 13-24 12-23 12-22 12-20 26-38 25-34 26-29 26-25 24-19 24-16 25-12 24-8 32-6 27 2"/>
<path d="M3355 1109l 0 0 10 22-4 28-2 24 0 27"/>
<path d="M3808 1036l 0 0 26-4 24-5 30-10 32-11 23-9 26-8 27-10 31-11"/>
<path d="M4398 1168l 1-6 7-33 6-27 3-25-13-21-25 5-25 13-29 22-21 18-22 19-21 21-17 21-16 23-14 22-15 29-9 27 20 14 29-13 27-18 19-16 20-16 19-15 23-21 19-19 2 27 1 24 28 6 23-12 21-14 21-16 20-17 24-20 21-18-20 17-13 22 5 24 28-10 22-16 23-20 22-20 19-17 19-16 8 24-5 27-1 28 9 23 28-6 21-16 28-24 23-19 24-21 25-23 24-24 24-26 22-28 22-28 21-31 19-31 17-33 12-26 11-31 10-34 7-23 5-24 8-31 5-27-26 12-19 40-11 23-9 23-9 24-8 25-8 23-13 43-12 44-14 46-13 46-11 45-8 42-4 37-2 32 1 24 6 25 26 8 19-18 15-19 17-23 15-26"/>
<path d="M4853 942l-6-1-25-3-32-1-29 9-16 18 20 14 24 3 33-2 27-4 28-6 30-7 31-8 30-7 29-8"/>
<path d="M5133 944l-1 1-12 22-10 22-9 23-13 30-9 24-10 26-6 25-3 28 19 19"/>
<path d="M5175 830l-3-1-24-5"/>
<path d="M5247 959l-1-1 29-6 25-7 29-7 32-8"/>
<path d="M5482 1153l-2 1 18 16 26-11 22-12 25-15 26-20 29-23 31-26 31-30 32-31 28-31 25-32 22-30 17-30 9-23 7-24 5-28 3-30-2-27-3-25-11-25-23 8-24 29-26 38-13 22-11 22-10 22-10 22-15 41-13 41-9 40-6 39-2 36 3 34 8 28 10 23 19 26 23 15 28 4 26-5 23-14 18-19 13-22 8-30-2-28-10-25-14-20-18-18 18 21 27 5 30-3 29-7 25-11 24-12 2 24 15 21 26 4 25 0 20-15-16-19-23-12-22-10 20-14 23-6 27-5 25-4 27-3 25 6 6 25-5 26-9 26 27-16 17-18 20-22 20-17 23 9 0 28-1 28 8 23 25-8 21-13 24-15 24-15 24-13 26-15 21-15 25-18 24-22 23-25 22-28 18-28 10-25 6-26 3-32 0-25-4-30-10-23-25 5-23 24-19 28-13 21-12 23-11 23-9 23-9 24-11 42-10 39-8 41-5 39-3 38-1 32 2 29 5 34 7 25 16 21 28-4 20-21 12-21 8-23 4-30-5-30-10-27-13-23 24-2 26 0 26 0 29 1"/>
<path d="M641 1211l 0 0 1 25 25 6 24-20 19-20 20-24 20-28 18-28 15-25 15-26 11-22-1 30-3 26-3 33-2 27-2 27-2 28-1 29-2 26-1 26 0 35 0 29 0 30-1 24"/>
<path d="M647 1531l 0 0 25-5 29-6 28-9 23-8 24-9 24-9 29-10 24-6 26-4"/>
<path d="M987 1551l-1-1"/>
<path d="M2869 1941l-1-3-12-22-25-6-25 4-25 11-20 13-23 20-17 18-19 22-21 26-21 30-22 33-19 38-19 37-14 38-8 35-4 32 3 28 12 32 20 23 27 14 32 6 33-3 34-7 23-8 23-10 22-10 31-17 27-17"/>
<path d="M2889 2342l 0 0 26 1 22-11 18-16 23-23 15-20 17-22 18-26 20-27 17-27 17-30 15-29 13-30 12-29 8-30 7-31 3-32 2-31 0-28-3-31-8-24-26 2-15 18-19 32-13 27-13 33-12 35-12 38-9 40-7 41-5 39-3 38 0 34 3 29 8 24 16 30 20 20 23 10 26 2 28-7"/>
<path d="M3269 2156l-4 0-30 11-24 16-18 19-13 21-6 24 13 21 26-9 21-15 16-19 9 25 22 15 24-3 26-16 24-21 19-18 16-18 15-26 10-23 7-23-19 17 1 27 10 24 16 22 14 20 8 25-16 20-24-2 23-8 23-9 27-17 22-18 23-19 20-22 16-22 12-23 10-26 3-26-24 9-9 23 1 25 9 25 15 21 15 19 17 20 13 22-23 15-26-3-26-4-26-7 24-2 25 0 27-3 26-8 27-10"/>
<path d="M3721 2097l-2 1-11 27-4 29-2 27-2 27 4 28"/>
<path d="M3701 1962l-3 0-21 12 0 24"/>
<path d="M3819 2162l-1 1 26 2 24-13 26-22 20-19 20-20 21-23 20-25 20-24 18-26 16-27 14-27 10-26 7-28 5-29 2-29 0-29-1-27-3-32-16-20-22 14-21 29-13 27-13 34-13 41-12 47-7 26-6 27-6 29-6 30-7 30-6 30-5 32-5 31-5 31-4 31-3 30-3 30-1 28 0 27 1 26 1 24 5 43 7 35 8 27 13 29 14 22 22-18 10-30 4-26 3-28 0-31-3-33-5-35-6-35-8-37-7-35-7-31-7-26-11-25 30 2 24-5"/>
<path d="M4091 2094l 1-3 18-20-19 25-6 24-6 25-2 28 22 12"/>
<path d="M4127 1934l-3-1"/>
<path d="M4195 2061l 1 1 20 15 25-10 22-15 15-20 2-27-26-10-24 9-26 18-17 18-14 20-14 27-1 28 12 23 22 17 29 6 30-4 23-7 24-11 24-17"/>
<path d="M4369 2072l 4-8 10-26 22-13 21 13-6 24-15 23-12 22-10 22 0 24 22 14 30-9 21-12 25-15"/>
<path d="M5021 2034l 0-1 18 23 1 30 3 25 8 24 27-8 22-22 19-22 18-24 15-22 12-22 10-27 6-27"/>
<path d="M5197 2051l-1 0 24-6 25-17 22-18 20-21 15-19 12-25-4-24-12 26-2 24 2 26 6 24 9 27 10 26 0 24-21 15-24 9-24-1 25-12 27-6 29-3 27-1 27 0 24 1"/>
<path d="M5496 2109l 0 0 18 17"/>
<path d="M5847 2113l-1-1 25 5 30-13 28-18 21-14 21-16 20-16 19-16 22-23 15-20 9-27-26 13-10 27-10 33-6 23-6 27-5 28-8 32-9 34-10 35-11 36-12 35-11 37-12 34-12 33-11 28-8 25-7 24 11-26 12-28 13-32 14-33 14-35 11-33 10-35 9-37 9-38 8-39 8-38 9-35 8-32 9-30 9-26 15-31 14-20 21-17 28-4 22 10 21 18 11 25 3 28-4 30-9 24-15 23-20 23-22 22-24 18-19 14-22 13 7-23"/>
<path d="M6294 1905l-1-1 15 21 25 4 19 15-8 22-17 22-15 23-12 23 11 22"/>
<path d="M6442 1973l-1-1-25 10-15 20-10 22 4 25 22 9 27-4 23-8 24-17 17-22 10-23 1-24-7-23 24 7 13 21 7 27 2 25-4 25 23-15 19-21 17-20 19 15 19 15 22-17 19-16 19-16 22-10 15 20 4 27 6 23 27 5 23-12"/>
<path d="M6879 1948l 0-1-5 25-5 31-6 32-6 30-7 24-7 25-8 28-10 28-10 30-11 30-11 29-11 27-8 23-10 25 12-22 13-31 8-27 8-28 7-32 6-32 8-35 8-35 10-35 10-34 10-31 11-27 9-23 14-28 15-21 22-11 25 8 19 16 16 20 8 25-5 24-19 23-20 19-23 17-26 13-27 10"/>
<path d="M7232 1641l-1 0-15 20-8 27-7 26-8 33-6 26-8 29-9 31-9 32-11 34-10 33-10 33-11 30-8 28-6 24-5 28 2 25 25 7 24-12 27-20 20-17 20-18"/>
<path d="M7069 1836l-2 0 33-9 35-11 28-8 30-8 31-8 34-7"/>
<path d="M7598 1998l-1-1 30-5 27-8 31-10 29-11 25-14 24-20 16-21-11-22-27-5-30 6-28 12-28 20-18 19-18 20-15 22-13 22-13 30-4 25 7 25 26 15 27-3 23-7 25-11 25-14 25-16 25-18 23-17 22-17 24-23 18-24 7-24-20 19-17 26-13 26-9 26 24 2 20-15 22-20 20-18 20-15 21-12 25 3 3 24-3 28 5 25 20 16 25 0 24-6 28-12"/>
<path d="M8102 1984l 9-9 21-25 12-26-3-24-22-14-26 7-21 13-24 20-21 24-19 25-14 25-1 27 25 6 28-8 25-10 23-12 21-12 6 25-8 27-5 34-2 26-1 28-2 29-2 29-5 31-7 31-8 31-11 30-14 30-14 29-18 27-18 24-20 21-22 15-27 12-29 0-19-20-8-30 2-26 7-30 12-34 17-37 21-40 12-22 12-22 14-22 14-22 15-22 14-21 15-21 15-20 16-18 30-34 30-31 29-27"/>
<path d="M8315 1856l-1 0-13 22-13 22-12 30-8 25-7 28-5 27-3 30 6 26"/>
<path d="M8369 1774l-1 1-21 12-12 24 0 28 8 24 10 22 10 25 4 26-2 29-7 27-10 23 20-17 18-18 19-17 18-18 18-20 19-15 13 25-1 24-3 30-9 30-8 29-5 24 4 24 29-8 28-13"/>
<path d="M8604 1974l-3-1 28 8 29-4 30-9 27-13 20-19 0-25-27-7-25 1-28 10-27 16-19 18-17 20-15 21-12 28 0 25 11 22 22 15 30 8 27 1 32-6 23-7 25-8 25-10"/>
<path d="M8799 1969l-3 0 19 16 27-4 29-7 27-9 22-15-12-25-24-5-25 3-24 9-20 17-19 21-15 25-6 25 7 28 16 19 24 11 25 2 31-2 37-8 25-7"/>
<path d="M9042 1890l-2-1 23 10 24 8 22 12 13 21-19 22-25 19-21 16-19 19-15 23 20 16 31-1 29-8 29-10"/>
<path d="M9250 1939l-3 1-23 18-19 23-14 27-7 26 0 29 12 20 28-3"/>
<path d="M9344 1809l-3-1-25-5-14 19"/>
<path d="M9357 1949l-1 0-5 26-12 24-12 23 25-12 20-15 23-17 21-15 23 7 4 25 15 20 25 10 25 5 26 2 24-2 28-8 25-14 19-21 8-24-4-27-18-20-30 0-25 12-25 16-22 19-17 20-12 25-1 25 14 20 20 17 18 20 11 23 9 26 7 24 7 25 6 25 4 25 0 30-6 30-12 30-12 22-17 23-20 22-25 23-26 20-30 17-30 14-29 9-27 3-33-6-21-19-9-31 0-29 5-35 15-38 21-42 14-21 13-20 15-20 16-20 17-19 32-34 33-30 32-27 29-22 28-18 25-14 28-11 23-9 24-8"/>
<path d="M10078 1485l-1-1-24-8-21 19-17 24-13 23-17 29-18 35-20 42-11 23-10 23-11 25-11 27-10 26-10 27-10 27-9 28-9 27-8 28-8 27-6 26-7 27-6 26-4 24-9 46-5 42-1 37 0 35 6 29 7 27 11 24 20 27 24 21 29 15 31 12"/>
<path d="M10054 2013l-1-1 24-8 23-8 30-12 23-10 25-10 27-11 28-11 28-11"/>
<path d="M10204 1871l-3 1-16 18-8 25-5 30-2 25-2 25 0 25 0 25 1 27 1 26 0 27 2 25 4 33"/>
<path d="M10459 2009l 0-1-7 27-3 27-4 33-4 27-3 28-5 29-6 29-6 29-5 28-5 25-5 32-4 24"/>
<path d="M10469 2003l 0-3 14-23 23-9 29-1 27 4 23 9 18 19 5 27-8 28-15 23-19 25-21 22-22 19-25 17-25 6"/>
<path d="M10761 1982l-1-1-24-9-21 11-19 16-20 22-16 23-10 26 9 24 28 2 24-7 25-11 21-14 21-17 14-19-15 20 6 27 18 18 26 3 27-8 23-12 23-16 20-18 15-20 15-26 11-26 1-24 25 5 25 2 24-1 24-1 2 26-17 18-21 21-17 19-15 23-5 24 20 14 26-3 26-11 29-16 21-13 21-14 22-15 20-16 20-17 17-18 21-25 15-23 12-24-24 0-11 26-3 29 3 25 9 23 6 24 3 30-9 26-16 19-23 10-25-12-16-20-3-28 19-16 25-2 27-2 24-2 24-3 26-2 26-4 26-4 27-7 25-10 23-11 20-14 17-18 2-25-22-17-25-2-25 8-26 16-21 20-18 24-15 26-12 28-5 27 4 24 17 25 24 17 32 9 28 0 31-8 23-9 23-12 24-15 22-16 19-17 18-17"/>
<path d="M11606 1894l-3-1-25-5-21 12 22 12 28 3 28 2 27 2 24 6-8 25-25 18-23 13-23 16-20 16-17 20-6 24 20 15 28-2 28-7 29-12 31-14 32-17 22-12 21-13"/>
<path d="M11714 1585l-1 0 13 24 23 27 18 20 19 23 20 25 20 27 17 27 15 28 12 28 7 28 8 28 8 28 4 28 5 28 2 27 0 25-3 35-6 24-8 23-12 26-13 25-16 24-18 23-20 22-22 19-23 19-23 15-26 13"/>
<path d="M6247 2609l-1-2-25 0-23 18-18 20-19 28-13 22-14 27-13 29-14 32-13 33-11 35-10 35-6 34-5 32-2 30-2 27-1 26 3 34 8 26 18 25 29 13 28 2 31-2 34-8"/>
<path d="M6289 2983l-1-1 27-3 25-7 27-10 27-13 26-17"/>
<path d="M6372 2883l-1-1-13 23-6 24-6 32-5 28-3 29-3 28-2 26 5 24"/>
<path d="M6757 2922l-1 0"/>
<path d="M6947 2736l-1-1-24-9-21 15-20 17-21 22-16 20-16 21-16 25-16 26-15 27-14 26-11 25-9 25-8 33 0 27 12 23 25 15 28 4 30-3 30-8 29-11 23-10 24-12 24-12 22-11 26-12"/>
<path d="M7149 2965l-1-1-21 15-9 26 6 26 23 14 25-1 25-9 22-16 9-25-11-22-19-19-18-19"/>
<path d="M7365 2721l-1-1 21-19 24-15 27-16 24-10 26-10 25-8 25-4 25-3 25 1"/>
<path d="M7468 2703l-1-1-4 27 1 24 0 31 0 27-3 31-3 33-3 34-4 29-4 26-2 27"/>
<path d="M7648 2570l-1-1 25 5 26 12 24 13 27 19 19 16 19 17 17 19 17 21 14 22 12 23 10 23 7 24 4 24 0 25-3 26-6 26-10 25-12 26-15 25-15 25-16 24-16 22-16 22-14 20-22 27-22 22-18 17"/>
<path d="M1931 2080l-1 0 29-5 24-18 20-19 19-22 15-23 13-24 9-24 8-25-7 26-3 30-2 33-1 35-1 25 0 25-1 25 0 25 0 35 2 31 1 24 2 26"/>
<path d="M1962 2295l-1-1 20-16 26-9 28-5 26-5 25-2 27 0 24 4 21 14 13 22"/>
<path d="M2239 2271l 0-1"/>
<path d="M690 3800l 0-2 6-25 21-19 26-9 33-4 35 1 32 6 26 8 27 15 16 20 9 25-1 31-7 24-14 28-18 25-15 20-18 22-22 24-23 24-27 27-27 25-28 25-26 23-25 21-22 18-19 16-23 17-21 16 26-12 23-11 27-14 32-14 33-12 35-10 33-8 39-6 31-2 25 1 28 5"/>
<path d="M1078 4143l-1-1"/>
<path d="M1498 3719l 0-3 13-26 22-22 22-18 26-16 26-12 25-4 26 4 26 11 25 18 21 24 15 31 5 25 1 29-4 33-11 32-15 35-20 33-23 32-24 32-26 31-27 28-29 26-30 23-28 20-26 18-21 14-25 16-23 12 22-20 26-15 31-14 24-7 23-5 24-4 25-1 35-1 24 1 24 1 35 3 32 5 26 7 24 13 20 18"/>
<path d="M2442 4011l 1-5 3-29 1-26-1-30-8-27-17-23-24-6-26 12-21 19-23 27-14 22-11 21-14 32-7 27 1 25 24 16 29-6 26-14 25-16 20-18 20-19-20 12 0 25 22 15 27 0 22-10 21-15 20-19 16-23 12-21 5-25-10 25-4 33-4 31-5 36-5 27-5 28-5 30-5 30-4 30-4 29-4 26-5 33-4 25 0-30 2-35 2-28 2-30 3-32 2-33 2-33 2-33 4-32 5-30 5-26 10-33 10-25 15-23 20-15 27-4 27 5 28 11 23 18 12 23 3 26-13 29-16 22-22 21-26 17-26 15-24 12-23 7"/>
<path d="M2791 3875l 0 0-1 25-1 29-2 27-4 32-4 24-5 27-7 28-6 31-8 32-8 32-9 32-9 30-7 25-9 26 3-30 4-27 6-32 6-32 5-35 5-35 5-35 7-33 8-30 8-29 8-25 11-32 12-24 18-25 18-15 27-6 24 4 23 13 17 20 8 26-6 31-12 25-16 26-20 25-20 23-18 19-20 20 30-5 22-13 27-16 20-14 21-16 21-18 22-21 20-22 22-23 20-25 20-24 18-26 17-28 15-27 13-30 12-31 8-30 5-30 4-29 1-28 0-24-2-28-11-23-23 8-22 27-18 31-13 27-11 30-11 32-10 37-9 41-7 40-6 42-3 40-1 37 2 33 7 29 9 23 19 25 21 16 31 5 24-8 25-16"/>
<path d="M3249 3833l-1 0-18 19-8 28-2 26 1 31 4 32 6 28 15 24 25 3"/>
<path d="M3274 3691l-2 0-17 19"/>
<path d="M3511 3839l-2-2-21-15-23 7-25 17-23 21-20 20-18 22-15 24-10 22-3 25 11 22 26 9 33-3 28-7 30-11"/>
<path d="M3722 3888l-1-1-10-25-19-15-26 2-25 13-22 18-16 22-10 25 10 22 24 5 29-8 25-12 23-16 17-18 9 22 22 16 25 1 26-7 25-12 28-16 19-14 26-23 17-18 15-20 13-20 17-32 8-23 6-25 4-27 4-28 2-27 2-27 0-31-4-25-27 5-10 23-11 30-9 26-7 29-8 34-8 36-7 39-7 39-4 37-3 34 0 30 2 26 5 28 12 24 23 15 24-7 18-17 13-26"/>
<path d="M3849 3801l-4 0 19-16 26-8 30-9 30-8 29-6 29-4"/>
<path d="M4099 3764l 0 3 0 26-6 27-6 24-6 25-5 24-3 27 25 3"/>
<path d="M4149 3671l-4-1-24-5-23 12-7 25"/>
<path d="M4239 3899l-1 1-11 23 13 23 23 10 25 1 27-9 22-18 16-25 5-29-6-23-19-22-22-13-24-8-29-5-24-2 29-5 30-7 25-6 25-6 27-6 28 0 22 15 8 28 1 29-3 29-7 29-6 27 17-17 15-23 17-22 16-20 20-18 25 5 4 25 8 24 18 19 25-13 25-20 20-19 22-21 19-20 16-20 13-26 7-24-17 17 2 26 8 25 8 25 11 23 13 24 5 28-15 25-25 7-32 0-30-3-25-6 22-12 24-4 26-2 27-2 25-1 24 2 24 3 28 6 21 13"/>
<path d="M1739 4733l 1 0 24 11 24-17 17-19 21-26 16-20 16-21 17-23 18-24 15-22 15-23 16-30 13-24 11-23-6 30-7 37-3 27-3 30-1 31-3 33-1 35-1 37-1 37-2 35 0 35 0 33-1 29 0 26-2 32-3 26-6 27"/>
<path d="M1796 5039l 0 0 27-7 24-7 26-8 27-8 28-6 27-8 27-6 28-6 24-3 26-2"/>
<path d="M2226 4961l-1-1"/>
<path d="M2587 4863l 1-3 4-26 1-25-11-24-22-11-23 8-22 19-19 23-18 28-17 32-13 29-6 24 9 22 26 4 29-15 27-24 21-22 22-25 22-29 22-30 20-31 18-30 15-32 12-29 8-30 6-30 3-29 1-28 0-28-2-27-1-34-4-29-23 9-12 24-11 35-8 29-8 31-8 33-6 37-6 36-4 37-3 35-1 34 0 31 2 27 8 33 12 22 21 15 25-6 21-15 20-22 21-25 17-25 12-23 8-23-20-13-17 23-10 29-4 25 1 27 16 18 25 0 25-12 20-15 19-17 19-22 16-19-17 20 0 26 20 14 29-2 28-12 23-13"/>
<path d="M3000 4759l-2 0 24 1 29-4 27-3 24 2-11 25-21 22-19 23-16 25-8 27 15 23 27 0 23-7 28-15 21-12 29-20"/>
<path d="M3266 4754l-1-1-18 17-7 24-5 25-1 26 4 25 22 15"/>
<path d="M3279 4649l-3-1-24-2 6 27"/>
<path d="M3341 4754l 0 0 14 22 7 26 28 2 18-16 22-19 19-17 23-14 18 17 0 26 2 27 7 24 21 15 27-2 23-8 25-9 25-8 25-9 27-11 21-12 19-18 10-23-17-17-25 1-25 14-15 23-2 24 6 23 10 26 12 27 9 22 10 23 7 24 8 27 8 29 7 32 6 35 1 25-2 28-3 30-6 30-7 30-10 27-12 25-14 23-23 27-23 15-25 0-25-10-20-22-16-28-11-35-5-26 0-29 4-30 8-31 12-33 16-32 20-32 19-33 21-31 20-28 21-25 21-24 22-21 22-18 21-15 25-17 25-10"/>
<path d="M4346 4549l 3-5 19-20 22-17 25 3 13 20 7 30 0 29-3 24-5 28-9 32-12 35-14 35-15 34-17 32-17 31-17 28-16 24-13 21-15 20 18-30 20-30 25-39 14-21 15-23 16-22 15-24 17-24 17-23 16-23 17-23 16-22 17-21 15-20 29-35 25-30 21-23 17-19 20-17 21 16-5 28-8 25-11 31-13 34-15 35-16 37-16 36-17 34-14 30-12 25-12 28-8 23 17-28 15-24 19-31 21-35 24-40 24-40 13-20 12-21 25-39 25-37 24-33 24-28 21-23 17-19 19-20 17 17-7 30-9 26-10 29-10 33-13 34-14 35-13 35-12 33-10 33-8 29-5 26-2 32 2 24 15 24 25 2 23-7 27-13"/>
<path d="M4914 4750l-2 2-19 20-17 22-11 22 21-19 21-23 18-20 20-23 20-27 23-29 20-30 20-30 20-31 18-31 17-32 13-32 11-31 8-29 8-24 7-27-7 28-5 34-3 25-2 29 0 32 0 34 2 36 1 40 2 40 2 41 2 39 3 35 5 30 6 25 9 25 14 20 24-12 4-25"/>
<path d="M4953 4702l-2 0 29-11 28-8 34-8 27-6 28-6 28-6 29-6 30-5"/>
<path d="M5338 4451l-1-1 18-16 26-13 26-11 31-13 32-13 32-12 33-10 32-8 28-5 25-1"/>
<path d="M5468 4429l-1-1-11 25-2 31-3 30-4 33-5 35-5 24-4 24-4 25-5 27-5 25-3 24-6 32-5 25 6 23"/>
<path d="M5774 4417l 1-2-25-4-26 14-24 14-25 17-24 16-21 19-2 27 25 13 25 7 28 6 28 8 28 9 28 8 27 8 26 9 25 10 25 16 12 22-2 31-10 29-12 22-14 21-17 20-16 19-19 18-20 17-20 13-21 13-22 10-35 10-24 3-34-2-29-7-25-10-20-13-20-19-11-23"/>
<path d="M6099 4848l-1-1-9 27-8 25-13 28"/>
<path d="M6377 4731l 1-3 12-21 18 16 11 24 4 30 0 26 0 27 0 30 5 26 23-11 19-25 15-22 14-23 14-25 12-25 10-24 9-25 6-24 5-31 3-26-11 24 4 24"/>
<path d="M6647 4779l 0-1 19-16 24-13 22-11 21-15 13-22-22-15-28 1-24 11-24 17-22 21-18 25-10 27 3 25 16 22 24 15 24 5 29-2 32-7 23-8"/>
<path d="M6852 4704l-2-1 26 10 26-2 25-1 5 27-20 19-20 19-18 22 2 25 26 2 25-7 26-12 28-15 25-15 22-13 23-12 5 28-2 26 27 4 22-12 20-15 21-17 20-18 17-17 17-18 12-22-7 26 0 28 7 24 13 24 14 23 11 28 7 26 4 30 2 25 0 26-3 30-4 32-6 36-7 38-10 38-13 39-15 37-18 35-21 31-21 26-22 21-21 13-29 5-25-11-20-26-10-25-5-32-1-37 3-42 8-44 11-46 14-44 15-43 17-40 16-36 18-33 19-30 22-26 23-22 27-19 28-14 31-12 32-8"/>
<path d="M7607 4867l-1-1 24 8 28-10 21-13 25-17 27-22 32-26 31-30 31-33 30-37 27-37 24-38 20-39 14-40 12-41 9-40 7-38 8-34 5-28 3-28-19 18-12 24-12 31-15 35-14 39-16 42-15 44-8 22-15 46-15 46-13 44-12 41-11 36-8 30-7 32-1 24 25-23 16-21 19-25 22-27 21-27 20-25 19-23 20-26 18-20 0 28-7 25-8 25-5 25 3 28 12 24 21 16 31 5 29-5 30-12 27-13 20-15 15-20 5-25-15-22-23-8-25 11-20 21-13 22-10 26 3 26 20 16 25-1 24-9 23-12 23-15 17-18-8 25 19 16 27-11"/>
<path d="M8299 4713l-2-2-22-12 26-1 28-1 25 1 26 6-2 26-19 20-21 23-18 24-10 26 12 21"/>
<path d="M8614 4736l-4-2-21-12-24-7-24 0-26 12-24 18-18 18-15 20-14 25-5 24 21 14 31-7 29-17 20-13 21-17 19-19 18-20 17-22 13-24 11-26 8-26 6-28 5-29 4-30 4-32 3-33 3-33 3-29 1-34-5-23-23 11-17 27-11 31-8 24-6 27-6 30-6 33-5 36-4 39-3 38-2 37 0 35 3 30 5 25 10 33 16 25 19 19 29 10 26-2"/>
<path d="M1856 5446l 0-2 13-22 25-12 28-5 33 3 26 9 26 12 21 16 16 22 6 28-4 34-9 26-12 28-18 31-22 30-24 32-27 31-29 33-31 30-32 30-30 26-28 24-26 20-23 16-20 14-25 13 14-22 31-18 23-11 25-9 25-8 27-7 26-5 26-4 26-2 34 2 33 6 28 10 25 13 20 16 19 17"/>
<path d="M2215 5862l-1-1"/>
<path d="M2426 5888l-1 0 29-11 26-26 22-26 24-31 26-36 14-20 14-20 15-20 14-21 14-22 13-21 12-21 12-21 18-41 15-39 10-38 7-36 3-35 2-33 1-28 1-28-15 20-7 27-5 32-4 36-4 40-2 43-1 45-1 25 1 47 1 25 0 24 1 24 4 46 5 43 5 37 9 29 13 30 20 17"/>
<path d="M2594 5739l 0 0 30-9 27-7 33-9 24-6 24-7 26-7"/>
<path d="M2819 5711l-2-1 24-10 27-7 27-5 29 1 18 18-12 23-21 24-17 18-19 25-15 24-8 25 16 20 30-3 26-10 28-14"/>
<path d="M3034 5771l-1-1 26 4 22-11 23-15 20-17-19-19-25 4-25 16-18 21-15 26-9 27 0 24 13 21 25 10 28-7 26-11 24-13 22-15 26-15 23-16-2 25-8 24-4 24 25 8 19-16 15-19 15-21 18-25 18-22 22-13 7 23 3 25 10 22"/>
<path d="M3513 5753l-1-4-13-22-17-20-25-5-23 14-17 20-13 26 0 25 23 12 24-7 23-13 19-18-6 26 5 27 15 20 26 10 27 2"/>
<path d="M4021 5640l-1-2-10 23-10 36-8 31-10 36-11 40-12 44-12 46-7 25-5 24-7 24-6 25-5 24-6 24-11 44-8 38-6 31-3 30 24-7"/>
<path d="M3997 5643l 0-2 21-18 30-8 29-5 29-1 27 3 23 9 25 17 15 19 6 24-7 28-15 25-24 29-17 19-20 20-19 19-19 16-27 21-21 15-21 13"/>
<path d="M4263 5677l 0 0 11 23 4 26-4 29-6 31-9 29-10 23-8-28 6-25 11-26 13-24 14-19 22-23 22-18 24-16 29-12 28-7"/>
<path d="M4446 5719l-2 3-12 23-1 25 25-1 25-8 26-13 22-18 14-22-18-18-30 1-27 12-20 15-19 22-13 23 4 26 17 19 25 12 25 5 29-2 29-6 28-10 27-13 24-14 21-17 12-21-17 18-5 27-1 25-2 28-2 31-5 36-5 26-5 28-8 29-7 30-8 28-6 25-6 25 2-33 5-25 5-27 5-29 5-30 5-31 7-33 7-31 8-30 8-28 10-23 9-23 12-25 14-25 20-18 24-7 26 4 25 12 18 18 7 28-11 25-20 23-19 17-22 15-25 15-24 6"/>
<path d="M4910 5788l-1 1-8 26-12 24-12 23-15 27-18 30-12 21"/>
<path d="M5291 5757l-1 0 28-3 25-13 31-20 23-17 22-18 23-18 20-20 18-18 20-27 12-23 5-24-10-23-19 16-8 27-2 25 4 24 13 29 17 27 17 22 9 23-5 25-16 19-25 14-28 9-26 2-26-7 20-15 25-8 25-7 29-9 32-11 31-12"/>
<path d="M5697 5668l-1-1-18 20-7 23-5 26-3 25 11 22 31-2"/>
<path d="M5774 5531l-2-1-27 0-17 20 5 27 12 22"/>
<path d="M5814 5649l 0 1 1 25 3 25 22-12 20-22 18-16 20-20 21 13-1 25-2 25 21 14 21-17 18-15 22-21 18-16 11 22 6 25 27 8 23-13 25-15 20-15 24-19 18-18 0 25-5 25 3 27 15 20"/>
<path d="M6237 5496l-2-2-19-16"/>
<path d="M6305 5646l 0-1 25-3 25-17 24-20 17-18 20-19 20-21 19-21 18-23 16-24 14-24 13-25 8-24 5-24 4-25 0-25-1-25-2-24-4-33-6-25-14-20-17 18-13 26-10 23-10 28-10 32-9 35-9 38-9 39-6 40-4 39-2 39 2 35 2 30 8 26 18 29 24 18 26 7 26 0 26-8"/>
<path d="M6642 5589l-1-1-25-9-28 5-23 15-17 22-7 25 10 24 23 8 27-1 24-6 24 3 29-1"/>
<path d="M6744 5581l-1-1 27 3 26 4 24 5-14 25-22 18-19 22-12 22-3 26 18 18 30 7 30-5"/>
<path d="M7370 5271l 0-1-2 25-8 27-10 33-9 26-7 28-10 30-10 31-10 33-10 32-10 32-7 30-6 27-5 24 0 28 7 25 28 7 26-10 22-12 25-16 25-18 25-20 23-20 19-19 14-19"/>
<path d="M7292 5464l-4 1 31 5 33-7 25-5 26-5 26-6 27-5 25-4 33-3 25 0 23 8-8 24-18 23-17 20-14 25-2 26 18 17 27 4 26-4 27-10 26-15 18-17 6-23-21-19-27-7 27 0 34-7 27-6 28-6"/>
<path d="M8294 5303l 2-2 21-19 24-13 25 10 8 28-2 29-5 25-9 29-13 32-15 37-20 38-22 39-23 38-22 35-20 29-17 24-16 24 18-19 20-25 22-31 26-34 28-35 25-35 24-35 25-35 20-33 22-29 18-25 19-26 6 25-7 25-11 28-10 30-12 32-12 34-11 34-12 36-12 34-8 31-8 26-6 25 25-16 18-24 21-32 22-35 23-37 23-38 23-38 22-38 24-37 22-32 21-30 21-25 18-20 19-18 18 22-6 33-9 27-9 30-12 31-11 31-11 31-11 30-10 27-7 25-10 33-1 25 3 25 30-1 24-13 26-16 26-20"/>
<path d="M8895 5266l-1-1-3 27-2 29-6 29-10 35-8 27-9 30-12 32-13 33-16 35-16 35-17 33-16 30-14 25-16 25-13 22 25-5 22-10 29-12 30-13 34-10 23-5 34-8 33-7 32-6 27-3 26 0 20 17"/>
<path d="M9228 5591l 1-3 10-25 5-24-12-24-25 0-27 13-23 16-23 18-19 20-16 23 3 25 24 5 30-6 24-10 24-11 9 23 26 9 27 2 28-11 25-13 28-19 21-16 21-18 21-20 22-20 21-22 21-24 20-26 18-27 18-30 16-31 13-33 13-35 11-32 9-30 6-26 5-27-24-11-20 14-22 24-17 21-17 25-19 30-19 33-19 37-18 37-15 38-11 35-9 32-5 28-2 32 1 28 5 24"/>
<path d="M9548 5231l 0-1-16 19-11 21-15 25-17 32-19 35-18 38-19 40-18 39-16 39-17 39-16 37-15 33-9 26-8 27-6 26 22-15"/>
<path d="M9554 5245l 0-1 0-24 23-11 24-4 30 1 31 7 23 7 28 12 21 16 11 23-10 28-19 22-26 22-20 15-23 14-24 14-25 13-26 13-24 13-23 11-30 14-25 10 28-9 25-2 26 0 27 3 28 5 27 6 27 7 22 9 22 16 10 22 1 27-9 25-15 30-14 20-15 21-17 19-19 20-19 19-21 16-23 17-23 15-24 13-24 10-24 7-34 7-32 0-24-6-22-17"/>
<path d="M9305 4486l 1-3 15-25 23-18 26-3 24 13 15 25 7 27 0 34-3 26-7 29-9 31-11 34-12 34-15 34-17 33-18 30-16 26-14 23-13 25 12-31 13-28 18-30 18-34 19-36 20-36 18-36 20-35 19-30 19-28 18-22 16-19 22-19 25-7 16 19 5 26-3 34-5 26-8 28-10 31-12 31-11 32-12 30-12 27-10 23-13 27-11 22 14-21 21-33 20-29 22-33 22-33 23-35 22-33 23-31 20-28 20-26 18-20 23-22 25-11 17 22 2 25-4 32-4 25-7 26-7 28-7 28-6 29-6 27-6 26-8 33-6 26-5 27 4 25"/>
<path d="M9959 4444l 0-3 6-23 4 27-6 30-6 24-9 27-10 30-13 31-14 32-14 34-14 33-14 32-12 29-10 25-11 30-6 27 25 7 25-9 27-9 27-9 27-6 27-4 30-1 25 5 23 7 25 8 22 13"/>
<path d="M10507 4827l 1 0 20-19 17-20 19-22 15-22 6-26-25-9-25 8-30 16-22 15-22 18-21 20-20 20-17 21-19 29-8 24 9 24 31-4 27-12 26-15 24-16 20-15 20-16-18 24-16 27-13 26-14 35-11 28-13 33-15 35-16 37-16 40-15 37-12 35-8 30-6 26-2 29 11 23 27-12 24-23 18-22 16-23 14-24 13-26 10-27 7-26 5-27 3-26 0-27 0-25-1-25 0-32 0-28 6-23 24-14 23-10 29-13 22-12 22-12 21-12 20-15 19-16 17-18-12 26-13 22-11 21-14 27-9 22 31-4 24-18 25-19 24-20 19-19 19-20 13-20-12 21-9 24-4 26-5 29 0 24 19 18"/>
<path d="M10892 4819l-1 0 23 9 26-8 26-11 24-16 14-20-13-20-29-6-24 9-21 17-18 18-19 22-12 22-7 28 5 25 23 20 31 2 29-5 32-11 22-9 31-16 25-16 19-17 16-21 9-25-12-20-18 18 7 26 18 22 19 15 20 17 11 21-24 9-24 2-24-2-25-3-25 2 23 6 32 0 29-2 33-4 24-4 26-6"/>
<path d="M11349 4504l 0-1 2 30 0 30-3 29-8 34-5 27-9 29-10 30-11 31-14 32-13 30-13 30-11 28-8 23-6 25 22 16 24-8 33-15 23-12 23-13 20-14 28-18 22-19"/>
<path d="M11314 4731l-6 1-28 3-24 2 26-9 24-6 30-6 34-7 24-4 25-5 34-4 30-2"/>
<path d="M11522 4699l 1 1-3 27-11 26-9 24-9 22-6 24 19 15"/>
<path d="M11592 4631l-4-1-25 5-14 22 4 24 14 21"/>
<path d="M11600 4768l 0 2 9 22 24 9 24 5 24 1 20-15 3-25-17-18-22-12 22-13 27-10 25-11 25-9 25-4 23 14 9 24 4 26 9 24 24-9 21-15 23-18 24-17 23-14 24-15 21-13 22 14 10 23 23 10 25 5 4 25 2 24-26 11-24 5-25 5-26 4 24 13 26 1 30 0 31 0 29 2"/>
<path d="M9847 5717l 0-1-9 22-13 26-15 26-14 20-18 22"/>
<path d="M10154 5692l-1 1 28-7 27-18 22-15 28-20 29-25 31-27 32-30 31-32 30-32 28-34 24-35 20-35 16-35 13-35 8-34 6-31 2-28-2-31-8-24-30 12-23 27-19 27-20 34-20 39-21 44-10 24-10 25-8 25-9 26-8 27-7 28-6 28-5 28-5 28-4 28-3 26-3 27-2 26-1 25-2 46 0 40 3 36 3 29 5 24 10 25 22 14 20-22 16-30 7-27 5-28 2-29-2-30-4-29-6-29-10-27-8-25-10-31-10-24-13-21 18 22 27 8 26 1"/>
<path d="M10565 5569l 0-1-21 12-15 22-14 20-7 23 29 0 24-13 25-18"/>
<path d="M10615 5582l 1-4-23 15-12 24 7 24 25 12 24 1"/>
<path d="M10719 5587l-1 1-15 19-8 24 6 25"/>
<path d="M10757 5435l-1-1"/>
<path d="M10814 5616l-1 0 26-4 21-15 24-20 19-17 18-18 21-20 17-22 16-22 14-24 14-26 12-28 10-30 10-30 6-33 6-32 3-30 3-25 2-25-25-5-16 20-18 30-8 24-12 27-11 29-9 32-9 32-7 34-4 33-2 32 0 30 2 27 4 24 6 31 12 23 22 17 28 5 31-7"/>
<path d="M11086 5549l-1-1 27 0 23-5 30-10 21-13 5-23-23-13-26-1-25 9-22 15-19 20-12 21-1 25 19 20 28 8 29 2"/>
<path d="M11361 5523l-2-2-22-12-25-5-26 6-21 17-20 20-15 24-8 24 6 24 21 15 25 2 31-9 27-15 25-23 17-19 14-21 14-20 12-22 11-24 10-26 7-28 8-30 8-32 7-34 7-32 3-30-1-24-4-26-19-20-24 5-17 18-14 25-13 33-8 27-7 31-7 34-6 35-5 35-5 34-2 32 2 29 3 27 9 25 13 21 22 25 31 15"/>
<path d="M11872 5541l-1-1 21 14-24-7-17-20-2-25 19-16 21-12 22-13 24-10 26-4 24 6 16 19 4 26-10 24-12 22 15-22 20-23 19-21 19-17 22 9 0 28-4 25-7 27-3 26 19 17"/>
<path d="M12514 5191l 1-1 22 14 11 23 5 25-5 33-7 26-10 28-13 30-15 31-20 31-23 32-25 30-21 27-20 22-17 20-19 21-13 20 27-10 26-11 31-9 34-7 35-6 25-3 35-2 30-2 25 2 24 5 23 10"/>
<path d="M12995 5290l-1-2-8-25-24-3-28 9-29 12-21 13-23 14-24 16-23 20-23 20-20 22-19 30-11 30-3 26 8 29 17 19 21 15 30 11 35 6 25 3 27 1 26 0 26 0 25-1 33-2 28-2"/>
<path d="M13110 5579l 0 0 22 14"/>
<path d="M5485 3560l 0-1 14 26-5 32-5 28-8 32-10 37-10 39-11 41-11 41-10 39-10 38-9 36-5 33-2 27 0 24 5 27 18 21 25-6 23-18 18-17 17-20 19-22 14-21 15-30 2-27-8-25-16-22-22-19-24-17-25-12-24-8-27-4-27 1 25 6 32-2 25-1"/>
</svg>
