<svg xmlns="http://www.w3.org/2000/svg" viewBox="-35 -2377 15008 8704" stroke="black" stroke-width="32" stroke-linecap="round" stroke-linejoin="round" fill="none" data-xena="47 540"><style>@media(prefers-color-scheme:dark){svg{background-color:black;stroke:white;}}</style>
<path d="M5925 -1798l 0 0-16 19-12 25-9 24-9 26-7 24-5 28 1 25 15 19"/>
<path d="M5938 -1889l-4-2-27-10-25 6 14 21"/>
<path d="M6128 -1747l-3-3-23-16-23-10-24-2-22 11-22 22-14 22-10 29 2 25 23 12 30-5 26-11 25-15 20-16 19-19 0 28 6 24 17 21 28 8"/>
<path d="M6386 -1660l-1 1-15 23-14 23-14 22-18 27-15 20-16 20-15 20-15 21"/>
<path d="M6762 -1823l-1-1-24-13-29 3-23 12-21 17-22 24-15 19-14 22-13 23-12 23-7 25-3 30 8 25 18 17 29 5 25-1 30-6 32-11"/>
<path d="M6878 -1755l-1-1 15-21 23-14 22-10 12 23-7 24-10 28-8 26-6 27-1 24 15 23 27-8 24-15 24-21 22-21 16-19 16-19-12 24-5 26 3 27 22 11 26-6 28-12 31-15 30-20"/>
<path d="M7240 -1773l-1-1-23-10 23 12 25-3 27-1 26 4 17 18-8 23-15 22-20 22-20 20-12 21 1 24 26 5 27-7 23-9 24-11 27-12 30-12"/>
<path d="M7490 -1790l-4-1-21-13 22-12 28 0 25 8 23 12 11 22-12 23-19 22-18 18-18 22-11 24 15 20 25-2 28-7 34-12 24-8 25-7 29-8"/>
<path d="M7787 -1778l-2-1-24-2-28 4-22 13-17 21 23 10 29-7 26-10 28-14 25-13 23-16-7-24-24 3-23 11-23 19-21 23-15 20-15 26-3 27 15 19 24 8 27 0 24-4 26-7 26-10 26-13 22-14 22-18 17-20-19 16-9 24 21 13 24-15 20-15 20-14 22-16 11 22 1 28 10 22 30 0 22-11 29-19 23-17 22-19 23-21 20-22 17-22 15-23 13-23 10-25 10-26 7-28 7-28 6-26 7-30 0-26-22 18-15 21-15 29-12 25-11 28-12 31-10 33-11 33-9 31-8 30-7 29-4 25-1 30 7 27 25 8 23-10 26-18 25-23"/>
<path d="M8110 -1839l-4 0-26 2 23-21 24-9 27-9 30-9 32-10 35-10"/>
<path d="M8810 -2026l 1-3 13-26 22-13 25 8 16 25 7 30 0 25-3 28-7 31-10 33-13 33-15 33-15 32-16 28-15 25-17 27 14-37 21-33 24-36 14-20 13-20 15-21 13-20 14-20 26-38 24-33 20-26 17-19 20-18 7 26-7 32-9 26-12 29-13 30-13 31-12 30-11 27-9 25-10 30 28-24 22-28 26-32 28-36 30-38 30-37 14-20 27-35 25-31 22-27 20-22 21-24 19 16-5 28-6 25-6 28-9 31-10 34-11 35-9 36-9 34-6 31-4 28-1 32 3 25 18 18 25-3"/>
<path d="M9245 -1740l-3 2-23 17 17 21 25-9 32-15 24-15 26-18 27-23 29-26 27-28 26-31 24-32 22-33 21-33 18-31 16-30 13-28 10-26 8-27-17 18-8 33-4 26-1 28-1 31 1 33 2 35 4 32 3 31 4 28 5 26 7 35 5 27 7 23 19-19"/>
<path d="M9429 -1850l-2-1 31-10 32-8 37-7 39-8 39-7 35-8 34-7 32-8"/>
<path d="M9703 -2022l-1-2 20-19 25-5 31-5 36-3 25-1 24-1 35-3 31-2 28 0"/>
<path d="M9860 -2013l-2 0-22 14-11 26-6 30-6 29-8 34-10 36-8 25-8 27-9 28-9 25-7 25-8 33-5 26 11 22"/>
<path d="M10162 -1993l-1-1-25-5-30 7-30 9-23 10-23 11-24 18-10 22 17 19 22 11 28 10 33 10 34 11 34 11 32 10 31 12 23 10 20 14 17 22 0 28-19 29-20 16-21 14-24 12-25 11-27 11-30 8-28 4-29 0-28-2-27-6-27-8-26-11-25-13-22-15"/>
<path d="M555 1731l-1-2-15-20-23-9-24 13-23 22-21 22-24 28-18 22-17 25-15 26-15 27-14 27-11 25-8 25-5 35 0 33 4 30 8 30 10 27 11 30 10 29 12 29 10 26 10 29 10 29 9 28 6 27 3 26-5 27-11 28-16 28-18 27-20 24-22 21-20 15-22 15 24 9 18 22 9 24 3 32-2 25-4 33-5 23-7 26-8 28-9 28-11 28-10 27-9 30-9 30-8 32-8 33-8 33-8 33-7 33-5 31-4 30-1 28 0 27 2 25 7 33 12 28 14 24 16 22 19 24 20 21 16 20 22 21 20 19 20 15 28 2"/>
<path d="M870 1980l 0 0 26 9 20-15 20-24 19-24 19-25 20-27 16-30 14-25 10-23 11-23 6 29-5 29-6 31-5 27-5 28-4 28-4 29-1 28-2 27 0 25 1 32 1 25 3 27 3 25"/>
<path d="M894 2261l 0 0 19-16 24-10 28-8 30-6 24-5 26-4 24-4 25-3 31-3 25-2"/>
<path d="M1273 2223l 1 0"/>
<path d="M1623 1881l 1-1 17-18 23-10 31-11 30-10 24-6 27-9 26-8 30-9 30-9 30-8"/>
<path d="M1678 1903l 0-1 12 20 3 32-3 33-4 25-6 27-8 28-8 27-10 29-11 28-10 28-9 25-10 30-3 25"/>
<path d="M1658 2071l 0-1 24-13 32-9 28-7 33-7 34-8 33-7 27-4"/>
<path d="M1617 2261l 0 0 24-4 25-6 29-8 32-10 33-11 31-9 29-8 26-5"/>
<path d="M1984 2051l 1-2 24 8 11 28 2 25-3 28-5 30-4 29-5 31 9 23 24-23 18-27 16-23 14-25 13-25 12-24 11-33 6-28 5-24"/>
<path d="M2283 2088l-1-3-14-25-24-6-23 14-22 19-19 22-11 23 21 18 30-7 24-11 22-13-4 25 9 24 28 6 22-10 20-15 24-20 27-25 17-18 16-20 15-22 14-24 11-26 9-28 7-30 6-30 5-29 3-29 2-24 0-27-5-25-25 2-19 22-18 31-10 22-8 28-10 28-8 32-7 34-7 36-6 36-3 34-2 30 0 25 7 31 11 21 22 16 32 0"/>
<path d="M2922 2123l 0-2-20-15-24 13-15 22-4 28 12 23 22 15 24 4 28-6 20-18 5-25-11-25-14-19 25-13 23-12 31-16 25-13 26-16 28-19 29-21 26-22 23-23 19-22 13-22 10-22 7-24 5-26 2-28 1-32-1-28-9-24-26 3-19 18-26 32-24 41-12 23-10 23-8 23-10 24-8 26-9 27-9 28-9 29-9 29-8 31-8 30-7 30-8 29-5 28-5 28-5 26-2 25-3 44 1 38 5 32 7 25 12 30 15 23 25-13 18-28 10-23 7-26 4-28-1-28-5-30-9-29-11-25-13-23-22-26-23-20-22-17 6-25 24 0 26 0 34 3 30 1 35 0"/>
<path d="M3734 2016l 1-1 26-7 20 21 2 25-5 24-8 29-11 28-12 29-12 23 13-21 15-24 17-27 18-28 19-27 18-25 18-23 22-26 17-17 10 27-5 26-10 30-12 30-9 28-8 27 26 0 24-27 17-23 20-24 19-24 18-23 22-26 20-21 7 26-8 29-6 23-5 32 0 28 11 25 24 9 32-9 29-16 26-19 20-20 14-22 27-1 23-7 28-12 27-15 20-19 7-26-22-17-25-1-30 11-23 14-22 18-18 20-15 22-12 28-3 26 12 27 22 20 27 7 26-1 29-9 23-11 24-14 27-16 25-18 26-21"/>
<path d="M4499 1733l-1-1-21-12-10 30-4 27-4 30-4 32-6 31-7 34-9 36-10 38-10 36-9 33-8 30-6 25-3 29 4 26 24 8 24-11 21-12 23-17 24-18 23-18"/>
<path d="M4405 1911l-5 1-28 6-23 6 30-7 31-6 24-6 26-5 29-4 31-5 36-4"/>
<path d="M4714 1986l 0-4-1-30-15-19-25 7-20 12-23 18-22 22-20 25-17 21-9 23 14 19 26 3 25-6 26-8 20-12 20-16 14 25 16 21 27 12 33 6"/>
<path d="M5036 2009l 1-4 13-22 15-23-10-23-30 7-26 11-30 20-22 17-20 18-18 20-17 20-17 29-10 24 5 25 27 14 37 1"/>
<path d="M5197 2031l-4-1-27 2-24 6-23 12-18 20-5 25 11 25 22 15 24 7 27 0 29-6 24-13 15-19 0-27-12-21-20-14 20-17 23-8 24-5"/>
<path d="M5532 2033l 1-4 8-26-2-28-17-21-30-8-24 3-30 10-30 18-20 14-19 16-23 25-13 22-2 28 21 17 32 5 31-4 31-9 27-13 19-14 16-22-27 7-11 29-5 27-2 31 0 33 1 25 0 25-1 25-3 27-5 26-7 27-10 26-13 25-16 24-17 24-19 24-18 20-19 18-24 18-26 4-21-18-9-30-3-26 3-32 8-38 14-42 19-43 22-42 26-38 26-34 27-28"/>
<path d="M5607 1946l-1 0-20 16-1 30 1 31 1 25-4 27-6 25-11 27 10-22 12-22 16-24 16-26 16-25 17-23 16-20 22-23 20-16 20 15-3 29-5 31-4 24-3 26 0 28 27 4 24-11"/>
<path d="M5872 1949l-1-1-25 10-12 21-10 22-9 25-7 24-2 30 3 28 22 12"/>
<path d="M5934 1806l-3-3-18-17"/>
<path d="M6044 1717l-1 0 0 24 3 31 2 33-3 33-6 24-9 26-12 29-15 29-15 30-16 30-14 28-13 26-9 23-8 28 2 25 22 10 24-5 30-11 31-18 29-20 25-20"/>
<path d="M6004 1912l-5 0-26 1-25 1 30 0 28-3 32-4 35-3 33-3 30 0 29 2 14 23-11 24-13 26-10 24-8 23-8 26 0 27 27-2"/>
<path d="M6256 1819l-3-2-26-2-24 6-1 27 20 22 20 25 16 21 17 22 16 23 14 21 14 23 10 23 1 27 15 20 24-3 26-14 16-18 7-25-6-25-15-19-25-6-25 0 28-10 27-8 25-5 24-5 21 13 10 25 0 25-6 24 29-4 21-18 23-21 23-18 20-15 24-14 17 19-1 25-2 29 2 24 20 20"/>
<path d="M7429 2013l-1-6-6-26-7-24-22-15-29 13-24 20-16 18-16 20-18 30-12 26-2 27 27 10 27-7 33-13 29-18 19-17 12-23-24-6-6 24 17 21 25 5 31-4 32-9 24-11 25-13 25-16 26-20 25-21 26-24 26-24 23-28 20-30 15-24 14-31 9-23 9-27 10-27 8-28 6-27 4-26 2-31-10-23-28 4-23 18-16 18-18 24-25 42-15 29-12 30-13 30-10 29-8 28-7 26-10 44-5 45-4 40 1 37 3 30 7 25 14 29 16 19 26 9 23-7 25-16 21-22 13-27 3-30 0-35-6-32-9-27-14-20-24 1 16 21"/>
<path d="M7873 1955l-1 1-20 18-16 24-11 26-4 25 1 27 13 23"/>
<path d="M7916 1771l-1 0"/>
<path d="M7949 2038l-2 2-19 16 12 21 29-8 29-16 22-14 22-19 23-22 22-24 22-26 19-28 16-29 12-32 9-27 8-33 5-25 5-27 3-27 3-26 1-25 1-32-4-26-25 1-19 26-18 29-10 24-12 25-10 26-10 25-8 24-13 44-8 36-5 32-3 30 0 27 3 25 9 34 14 25 26 18 26 4 30-6"/>
<path d="M8240 1918l-1 0-27 6-12 27-2 26 1 28 4 24 14 22"/>
<path d="M8279 1797l-4-2-25-5"/>
<path d="M8435 1666l-1 0 0 29 0 38-5 34-9 33-11 31-12 30-12 31-12 30-12 30-11 29-9 27-6 24-4 28 6 26 27 10 29-1 25-5 28-10 28-11 27-14"/>
<path d="M8354 1864l-4 0-25-3 32-1 31 0 25 0 27 0 29 1 27 0 26 1 32 0 29 1-6 24-14 21-14 27-8 23-3 25 2 25 8 23"/>
<path d="M8650 1793l-1-1-24-13-13 21"/>
<path d="M8678 1944l 0 1 26 5 25-8 28-12 22-14 9-22-26-13-28 2-30 12-20 13-23 17-12 24 5 24 19 22 26 11 25 3 30-3 33-9 22-9 30-17 26-18 20-19 15-26 4-27-5-25-26 3-11 27-2 24 3 27 6 27 12 29 10 27 5 26-12 22-25 7-25-2-23-8-22-13 14-21 24 2 25 5 28 4 30 4"/>
<path d="M9022 2106l 1 0 14 21"/>
<path d="M726 -576l 1-1 28-8 22-11 28-17 22-17 25-20 25-25 25-27 24-28 21-27 19-29 13-27 8-27 2-27-2-25-5-24-12-26-21-15-26 11-20 23-13 21-10 23-9 26-5 28-1 28 0 28 4 29 4 31 4 33 3 36 1 38-1 42-5 45-8 48-6 24-7 25-7 24-8 24-8 23-16 45-15 38-15 32-15 27-14 22-20 23-24 13-20-18-9-24-3-33 1-24 5-24 11-33 13-27 15-19 22-15 28-6 32 2 29 12 24 19 19 23 14 22 14 25 10 24 15 23 23 17 28 6 31-3 26-6"/>
<path d="M1114 -315l 0-1-24 15-16 25-11 22-9 27 6 26 23 10 25-2 24-11 6-23-18-20-21-19-9-22 18-17 24-16 26-13 27-7 28 0 23 12 2 25-13 26-12 24-10 23-9 24 29-4 17-16 18-19 21-22 16-18-15 19-4 28 3 24 11 25 25 14 26 0 25-9 21-14 20-15 16-19 15-26 3-24-6-26-11-26-13-21"/>
<path d="M1799 -371l 0-1 9 28-4 25-6 28-7 29-5 27-1 28 20 15 26-20 19-20 20-27 17-28 13-30 8-30 4-29 1-26-19 18"/>
<path d="M2094 -344l 1-3-3-28-12-23-28-2-23 11-25 19-16 17-17 25-8 25 15 23 27 5 27-6 21-14 2 25 20 16 25-2 29-15 25-18 28-23 17-18 19-19 17-23 17-24 14-27 12-28 10-32 9-35 8-37 8-38 7-37 7-33 5-30 3-25 0-26-10-23-22 11-19 27-16 31-11 27-12 31-13 36-13 41-14 45-6 24-6 24-6 24-9 45-5 41 0 37 2 30 8 23 13 26 19 16 30 3 25-10 28-19 25-26 15-19 14-21 16-30 11-29 6-24-2-25-19 17-19 26-13 24-11 26-8 25-4 29 5 27 22 14 25-7 24-13 23-20 21-20 18-20 16-25 7-25-23 11-14 25-5 26 5 23 17 21 28 6 30-6 27-11 27-16 23-17 20-16 15-19 16-20 18-19 5-23-28-6-23 11-21 21-15 20-12 21-7 28-1 28 6 27 12 22 24 15 27 3 27-4 35-9 25-7 30-9"/>
<path d="M3343 -329l 1-2-1-25-21-15-24 2-24 7-25 13-20 15-17 17-18 24-10 23 3 25 27 12 33-1 28-4 29-6"/>
<path d="M3511 -303l 1-1 18-17-5-24-18-21-26-5-27 7-23 14-25 21-17 17-18 22-9 24 10 23 30 1 30-6 23-9 27-15 22-15 16-20-21 13-14 21-1 26 22 15 24-2 27-7 23-10 27-15 28-18 26-20 25-23 21-27 19-30 9-24 10-26 8-28 8-31 9-32 7-32 9-30 7-27 7-34 5-25 0-24-24 6-16 22-14 20-14 24-17 29-15 33-15 36-15 38-13 39-10 36-7 35-4 30-1 25 4 30 11 26 25 13 30-6 30-13 20-13 22-15 20-18 20-21 19-23 18-26 16-28 14-31 13-34 11-36 9-38 10-35 7-34 5-28 3-33-7-25-25-10-22 20-15 22-18 31-12 27-13 32-13 36-13 38-12 39-9 38-6 35-2 32 1 28 4 25 11 30 14 22 25 18 32 4 29-6 23-8"/>
<path d="M4231 -239l 0-1 26-8 25-11 31-17 25-14 27-17 27-19 28-20 26-23 24-26 23-27 20-28 17-30 14-30 11-33 8-32 7-31 5-29 5-33-2-25-26 1-22 22-18 21-19 27-20 34-21 39-12 21-10 24-12 25-11 25-12 26-11 28-11 27-10 28-9 28-9 28-7 27-7 27-6 26-5 25-3 25-6 46-2 39 1 35 2 29 8 32 8 24 20 18 27-17 20-25 13-26 10-28 7-32 5-35 1-36 0-36-1-34-3-30-3-24-6-26-11-23 13-21 25-6 28-6 24-5 24-7-21 17-15 23-10 23-7 25 5 25 24 10 30-6 29-14 25-17 17-18 6-23-14-22-23-16-24-6 24-3 25-5 31-7 24-4 27-5 25-4 19 15 22 11 20 14-15 21-23 18-24 20-22 21-17 22 10 23 28 7 30 1 30-2 25-3 30-5 32-6"/>
<path d="M5337 -497l 0 0 26 2 25-6 23-7 27-10 28-14 32-15 32-17 31-17 27-18 24-17 17-17 18-25 9-24 4-26-19 16-5 24-8 27-9 23-11 27-14 32-16 34-19 37-21 37-21 38-20 38-19 36-16 34-14 30-11 25-11 29 21-12 14-21 17-27"/>
<path d="M5653 -699l 1-1 25-3 25 3 25 2 27 3 28 5 27 7 26 11 24 12 21 20 7 27-14 24-23 22-20 16-24 16-28 15-30 13-31 13-32 12-31 11-29 9-27 9-23 7-28 8-25 3 25-10 28-9 33-11 24-6 24-5 25-4 26-5 25-1 25-1 33 2 29 6 23 9 23 17 15 20 3 25-10 30-17 26-25 27-20 17-24 17-27 18-28 18-32 18-33 18-35 16-35 14-35 11-34 10-32 7-29 4-26 2-33-1-28-9-10-23 15-20 23-16 29-16 23-9 25-9 25-7 30-6"/>
<path d="M5830 -301l 0 0 14 20 26-4 24-8 27-12 27-12 21-13 18-20-4-26-27-4-27 5-23 10-23 14-24 19-21 19-16 18-8 24 4 24 25 15 28 1 26-4 29-8 30-12 32-13 29-15 27-15 22-15 20-20 14-20-21 17-16 20-14 22-12 23-8 24 28 2 19-16 20-19 22-20 22-17 20-17 23-18 20-14 3 25-13 25-10 24-4 25 2 27 11 23 22 14 30 3 25-2"/>
<path d="M6386 -196l 0 0 0 24-1 27-10 27-16 20-25 23"/>
<path d="M6651 -336l 1-3 10-23 24 11 4 29-5 24-10 28-13 23-17 22-18 22-17 18-18 18 18-20 24-26 21-22 23-25 25-24 26-23 24-22 23-20 20-17 24-21 20-14 22-11-5 26-13 29-15 24-17 23-17 23-13 22-13 25-1 26 27-1 29-10 23-12 25-12 28-13 26-14 24-14 30-15 22-16-19-17-21 12-20 16-18 20-9 24 8 23 21 13 29 5 25-3 25-7 22-13 17-20 1-24-14-22-22-16 27-3 26-9"/>
<path d="M7198 -389l 2-1 23-15 20-19 15-20 14-22 13-26 12-25"/>
<path d="M7378 -646l 1-2-12 26-14 25-16 32-13 23-11 24-11 24-12 24-11 25-10 24-10 25-9 25-8 23-7 30-2 24 5 24 18 18 24 2 24-5 28-11 28-13 26-14 26-17 12-25"/>
<path d="M7171 -419l-3 0 24-8 33-6 23-5 25-7 27-5 30-8 30-7 32-6 32-6 31-6 30-4 27-3"/>
<path d="M7743 -287l-1 0 27 1 29-5 35-9 26-8 25-10 24-10 24-13 28-19 21-18 14-20 4-28-24-2-9 22-4 28 1 24 2 26-1 28-7 27-21 18-24 11-27 5-23-13 21-21 28-6 24-7 26-5 27-5 26-3 26-3 30-1 25-2 25-4-22 10-20 18-16 21-10 24 4 25 22 10 28 0 26-7 24-9 21-12 17-17 1-25-18-20-21-15-27-10-24-5 29-3 32-7 31-4 26-3"/>
<path d="M8554 -211l 1 0 29 2 24-9 33-16 28-16 32-20 34-21 35-24 32-25 29-27 28-31 24-34 22-35 18-39 15-41 12-41 10-39 6-32 3-32-13-21-25 10-26 22-20 25-22 31-24 40-14 24-13 25-16 27-16 29-17 32-18 32-17 35-19 35-18 36-18 37-16 37-16 38-15 36-13 35-13 35-12 34-9 31-9 29-7 30-5 25-5 25-4 42 0 33 3 24 14 26 24 5 25-12 20-16 20-20 19-26 16-27 12-30 8-32 6-32 4-31 2-34 0-31-1-28-1-24-4-26-6-27-5-29-2-27"/>
<path d="M8867 -301l-2-1-25 5-22 17-20 24-14 24-6 25 10 24 23 8 25 0 28-9 22-12 17-21 5-25-13-23-21-13 25 3 25-5 27-8 20-14 26-7 25-1 25 4 16 18 0 26-17 23-18 21-14 20-8 23 11 22 26 8 24 1 31-4 27-6"/>
<path d="M9549 -668l 2-4 7-23 25 8 13 28 7 23 5 28 1 31-1 25-3 25-4 28-6 25-6 26-9 34-6 29 1 25 23 11 31-15 19-16 22-20 23-24 22-25 23-29 23-30 20-31 18-33 14-31 12-33 10-32 9-30 6-26 8-31 5-24-24 11-12 27-9 24-10 28-12 31-14 36-17 38-18 42-10 22-19 44-10 23-10 24-9 22-9 23-16 42-14 40-12 35-11 33-9 30-7 25-5 27 5 24 22-14 17-18"/>
<path d="M9881 -293l 0-2-9-24-17-19-26-1-27 12-25 18-24 22-21 24-17 23-14 25 4 25 28 5 31-11 26-16 24-17 20-19 16-21-13 24-3 26 8 24 25 5 25-9 22-11 23-15 20-14 18-18 12-21-20 19-10 23-9 24-6 24 27-4 20-21 17-18 18-18 21-22 20-17 3 27-6 24-6 25 0 28 14 20 29 3 30-7"/>
<path d="M10299 -261l 2-3 9-26-5-24-17-17-28 1-23 13-29 20-20 19-18 19-17 19-14 20-14 23-5 25 19 17 26-2 24-8 23-13 21-14 20-20 16-23-16 20-8 24-7 29-8 31-5 24-4 24-3 28-5 29-6 32-7 36-10 36-10 37-10 36-12 33-10 31-11 30-10 26-13 29-16 20-19-24-3-37 3-34 5-40 9-43 10-46 12-45 15-41 15-38 15-34 15-29 17-26 16-21 19-19 19-15 29-20 30-13"/>
<path d="M10733 -597l 1-2 15-23 20-15 27-1 21 19 9 28 0 29-5 34-5 25-7 25-6 25-5 25-4 24-5 33 0 28 3 26 20 18 31-8 21-11 25-15"/>
<path d="M11071 -707l-1-1-25-2-18 25-13 29-9 24-11 30-13 34-16 39-18 43-10 23-9 22-9 24-9 24-10 23-10 24-8 23-10 23-8 23-9 22-17 42-13 38-10 32-6 26-3 29 10 22 24-19"/>
<path d="M11074 -259l 0-2 1-25-25-9-24 10-21 13-21 19-21 23-19 24-13 24-6 27 13 24 30 4 24-5 25-11 24-14 20-16 16-20 8-23-4-25-18 19-3 26 3 26 17 18 28 2 30-7"/>
<path d="M11209 -248l-1-1-25 2-15 21-9 25-6 29-4 25-1 25 24-17 17-20 18-23 19-25 19-21 18-18 21-18 24 4 2 24-1 28-4 28-4 28 0 27 5 23 15 20"/>
<path d="M843 2914l 0-1 6-24 12-23 15-19 21-19 23-15 24-10 25-5 25 4 24 10 21 19 14 21 9 26 3 32-2 25-6 25-8 27-13 28-15 29-19 29-20 29-23 27-22 26-23 25-22 24-22 23-20 19-18 17-25 19-22 13-25 10 21-15 27-5 31-1 24 0 26 2 25 3 24 4 29 9 26 10"/>
<path d="M1193 3305l 0 0 19 15"/>
<path d="M1580 2846l-1 0 25 10 30-9 25-9 29-10 28-11 28-11 25-8 25-8"/>
<path d="M1576 2889l 1-3 15-19 25 7 4 24-1 26-8 33-7 25-8 28-10 28-9 30-9 30-9 29-8 27-7 25-8 30-5 24-2 25"/>
<path d="M1586 3077l-1-1 22-17 30-8 30-6 25-4 27-1 25 1"/>
<path d="M1532 3265l 0-1 22-15 24-8 28-5 30-2 32-3 26-2 27 0 27-1 24-3"/>
<path d="M1844 3116l 1-3 18-17 27-1 16 18 4 29-4 30-6 25-6 27-6 26-3 30 3 25 26-9 16-19 15-25 14-28 13-29 8-27 6-25 3-26"/>
<path d="M2132 3169l 1-3 8-27-6-26-24-7-26 14-19 16-18 18-20 24-10 25 10 22 27 4 23-6 25-13 20-17 5 25 21 13 27 0 25-9 25-14 26-20 20-16 19-19 17-20 15-20 13-23 9-24 6-26 4-27 1-31 2-36-1-37-1-39 0-35-1-31-4-31-13-25-25 6-15 20-10 32-5 33-3 26-3 28-3 32-3 35-3 35-2 35-2 33 0 31 2 29 2 27 10 30 14 24 18 16 29 10 28-4 24-7"/>
<path d="M2866 3124l-1 0-23 14-15 25-8 24-2 28 10 24 20 17 26 2 25-10 22-16 15-19 4-26-12-22-22-12 19-20 24-12 31-15 23-13 25-14 26-16 26-18 24-20 21-22 18-23 14-24 11-26 8-25 7-25 4-26 3-25 1-34-2-26-14-20-26 11-21 22-14 22-15 26-14 33-14 40-15 45-6 25-7 27-7 28-6 30-7 30-5 30-5 30-5 32-4 30-4 30-2 30-2 29-2 28-1 27 0 25 0 25 1 44 2 38 4 32 4 28 6 24 7 28 26-3 10-25 9-32 2-25 0-27-1-28-3-30-4-31-4-29-5-26-5-24-8-29-6-24-9-27-9-23 21 14 25 9 25 4 23-5 23-9 18-17 2-24-22-12"/>
<path d="M3570 3078l 1-4 13-23 18-19 22-16 24-12 25 1-3 32-14 29-14 22-13 25-13 25-12 24-10 22-11 30-4 25 28 3 25-15 22-17 22-19 21-20 20-21 16-19 18-24 11-25-21 21-5 26-1 24 11 25 26 8 27-4 26-10 24-15 20-20-1-24-17-21-20-13 23-10 22-8"/>
<path d="M4072 2704l-1-2-8 29-1 28-1 25-4 28-4 31-6 35-8 37-10 39-11 40-14 39-14 39-15 38-14 35-13 33-11 29-9 24-7 24 17-22 15-25 17-30 18-31 20-31 20-28 18-26 16-20 20-22 19-15 25 5 4 27-7 26-9 24-8 23-8 24-5 27 0 26 25 3 31-10 27-12 23-15 24-18 16-20 24-4 29 4 29-5 23-10 22-15-1-25-26-12-26 7-25 15-18 19-17 22-12 24-5 25 9 27 21 20 23 7 25-1 31-9 23-11 25-13 27-16 26-17 25-20 23-22 22-22 22-25 20-27 19-31 18-34 17-33 15-35 13-30 11-28 8-24 7-27 3-24-23 8-10 25-10 27-11 33-9 26-10 30-13 32-12 34-13 33-12 35-10 32-9 33-6 29-3 25 1 30 10 26 22 13 30-7 27-16 20-15 18-17 25-26 20-27 15-30 8-33 0-32-10-29-17-21-26-14-31-4-36 1-24 3-34 5-28 5-25 6 25 1 29-5 24-6 25-9 28-11 29-12 28-15 27-16 26-16 23-15 19-16 21-24 14-24 7-24 4-30-3-28-25 0-17 23-11 24-9 31-5 23-4 26-5 28-5 30-7 31-7 32-8 32-10 31-10 31-9 30-8 29-7 24-8 31-3 27 22-19 24-29 18-22 19-24 18-25 16-23 16-21 19-24 18-22 19-14-1 25-8 23-13 30-14 33-11 32-7 29-3 24 2 24 22 14 24-9 23-15 24-18 23-18 18-16 17-20 9-24-17-18 21 12 24-3 25-11 24-16 18-18 11-23-15-19-28-1-27 8-24 13-23 20-16 17-12 21-8 29 1 28 9 24 15 20 21 14 26 7 33-2 28-8 31-15 29-18 24-21 21-24 19-24 17-25 14-26 19-17 26 4 24 5 23 9-7 25-22 17-24 19-19 18-20 17-18 17-21 22-12 22-2 25 14 22 25 0 35-8 33-11 41-12 48-14"/>
<path d="M5756 3109l 1-1-26 15-18 20-18 24-15 26-5 25 20 19 28-2 28-11 31-16 30-18 22-20 16-26 0-26-13-23-20-20-25-10-28 3-22 12 27 3 25-5 30-7 31-6 30-6"/>
<path d="M5969 3021l 0 0 27 0 26 4 23 7 16 20-18 20-22 17-25 19-22 19-18 18-15 20 4 26 26 5 24 0 30-5 35-8 26-6 29-7"/>
<path d="M6357 3149l 0 0 24 1 28-5 27-7 29-13 25-15 28-17 19-15 29-21 19-16 18-16 24-25 19-21 20-21 0 30-15 24-16 28-14 20-15 21-15 22-14 20-18 29-12 22-9 22 23-16 25-21 20-19 22-19 20-21 22-21 20-19 18-18 20-21 20-18-5 25-13 24-15 27-14 26-9 26 19 21 26-1 26-7 30-11 28-12 22-13 19-15 8-23-25-5-26 15-20 19-16 22-5 24 18 18 28 2 27-3 30-10 24-14 18-23 1-27-15-23-23-9 28-1 25-12 28-15"/>
<path d="M7116 2800l 1-4 5-26-7 26-8 24-10 32-10 26-11 29-12 32-13 35-14 35-15 35-14 33-11 32-7 27-3 30 6 27 23 14 33-7 33-17 24-14 24-17 21-17 19-16 18-26 7-26"/>
<path d="M7056 2969l-6 0-30 1-24 0-27 2 25-19 35-13 26-7 30-8 33-7 37-5 41-5"/>
<path d="M7764 3075l 1-3 5-27 8-24-14-20-26 2-23 9-27 15-30 20-20 15-18 17-24 23-16 23-7 23 20 16 31-6 31-11 30-13 26-14 22-16 10-23-23 10-7 23-1 27 17 20 25 3 29-2 24-4"/>
<path d="M8174 3014l 0-1 11-25 23-11 23-12 24-11 23-10 23-7 24 6 13 24-7 28-12 21-18 22-23 23-24 22-24 20-22 18 22-16 21-17 25-20 26-22 26-21 24-21 21-19 20-17 22-22 21-19 9 26-12 21-15 26-18 27-14 26-12 27 32-4 29-22 21-17 21-17 20-17 19-17 17-18 17-18 23-25 19-16 0 24-14 23-15 24-12 23-10 22-6 28 12 21 26 4 29-3 31-10 30-12 26-15 19-14 15-20 1-26-24-12-23 9-22 18-14 22 3 26 20 18 29 7 26-1 26-5 24-9 26-16 18-19 5-26-11-27-14-23-19-19-24 0"/>
<path d="M9021 2957l 0-3-4-26-15-19-27 3-28 10-23 13-24 17-21 19-21 22-6 25 18 18 27 4 27-4 29-10 30-15 21-13 20-14 18-16 15-19 14-21 11-22 8-25 8-26 7-29 5-33 6-35 4-35 3-35 3-31 0-26-2-28-9-23-23 11-12 21-10 30-7 25-5 27-5 29-6 32-5 32-5 33-3 31-3 29-1 26 1 25 4 30 9 29 18 19 29 5 30-5 24-6 27-11"/>
<path d="M9265 2909l 1-1 10-23-12-22-26 1-23 12-23 17-21 22-15 21-10 23-4 28 9 27 24 18 27 6 26 0 28-4 27-8 26-8 26-11 24-14"/>
<path d="M9408 2875l 1-1 23-15 23-15 21-18 21-19 18-25 12-25 13-27 14-32 10-23 8-23 9-31 3-29-10-23-25-3-23 18-17 22-15 25-17 33-11 25-12 28-12 29-12 30-11 30-9 28-7 27-4 24-2 24 2 32 5 26 8 23 18 22 24 14 28 8 32 0 24-5 29-11"/>
<path d="M9251 2931l-1-1-3 27-6 28-19 21-21 14"/>
<path d="M1669 4093l 1-3 9-26 5-25-19-15-29 12-23 18-28 23-18 19-19 18-15 19-18 26-10 23-3 27 21 13 30-5 30-12 24-12 25-13 23-13 25-13 23-10"/>
<path d="M1818 4110l 1-1 0-24-22-14-24 5-24 13-22 17-19 20-14 25-2 26 22 19 30 0 31-9 23-11 23-12 22-18 15-20-22 13 0 26 20 15 25-6 23-12 24-19 22-20 18-19-4 25 28 2 22-15 24-20 21-17 15-22 13 23 2 27 17 20 28 7"/>
<path d="M2761 4102l-1 0 22 14 24-3 26-9 30-14 23-14 23-15 24-18 25-19 22-20 20-18 22-26 14-25 7-27 3-25-10 25-8 28-9 29-11 33-9 28-11 29-12 32-13 35-14 37-14 39-13 40-13 41-12 39-11 36-8 30-7 26-3 25 25-13 13-23 15-29 15-35 12-37 13-38 12-40 10-43 10-42 10-42 10-38 10-34 9-29 10-31 8-25 21-19 23-10 28-9 29-4 24 5 18 19-5 28-15 26-17 21-22 21-24 19-25 21-24 18-21 18-19 18 26 4 27-16"/>
<path d="M3299 3929l-1-1-24 5 26 0 25-6 25-4 15 21-3 27-16 22-18 15-20 15-18 18-15 24 17 18 26-7 24-8 23-8 30-8 28-9 28-10 24-11"/>
<path d="M3497 3996l-1-1 20-19 21-11 21-13 21-13 14-22-22-14-23 9-25 16-21 20-15 20-11 22-5 24 1 27 12 21 23 15 24 3 32-3 36-7 27-7"/>
<path d="M3841 3977l 1-2 18-20 15-20-21-17-28 0-29 6-25 9-24 15-23 19-22 20-16 21-10 25 9 24 29 4 25-8 30-14 21-13 23-17 23-18 23-19 21-21 19-22 15-23 12-27 9-28 6-30 5-33 5-34 3-34 3-33 2-29-1-32-7-23-24 0-15 27-8 26-8 35-5 26-7 30-7 34-6 33-7 36-6 35-4 33-3 31-1 27 2 25 8 28 14 20 28 10 27-6 32-15 21-12 19-15 24-23 16-24 10-23 5-28-9-24-22 15-14 22-7 27-5 24-4 29 7 25 25 3"/>
<path d="M4109 3779l-1-2-23-8"/>
<path d="M4272 3904l 1-1-22-11-25 8-24 12-26 18-23 22-17 23-11 27 11 26 22 14 29 2 29-6 35-11 24-10 24-11 25-12"/>
<path d="M4493 3650l 1-1 6 27 1 28-4 27-5 27-8 28-10 33-12 32-10 24-9 22-13 32-11 30-8 24-4 26 9 26 25 6 30-10 26-12 27-14 29-15 27-16 24-16"/>
<path d="M4398 3829l-2 0 23-6 28-5 32-8 25-6 27-6 28-5 27-5"/>
<path d="M5242 3939l 0-1 4 27-15 19-18 23-16 24-14 23-12 24-8 24 28-7 24-13 29-18 21-13 28-19 25-18 21-20 17-19 23-12 24-14 22-14 26-20 21-15 22-20 22-20 22-23 19-24 19-24 15-26 14-27 11-27 10-26 7-23 7-30 3-25-17 20-13 24-13 23-14 26-16 30-12 22-11 23-13 25-13 27-14 30-14 29-13 29-11 26-8 24-8 31-2 24 7 25 30 5 25-8 29-14 21-12 21-14 22-14 22-15 22-14 21-15 19-14 24-23 17-20 14-25 6-23-23 13-16 20-11 23-1 26 5 24 9 25 11 24 13 23 10 23-25 1-24-12-27-9-25 0 24 5 29-3 25-3 28-4 28-5 28-5 24-5 25-10"/>
<path d="M5431 3780l 4-1 28-8 27-4 29-3 30-3 31-4 30-3 28-3 25-2"/>
<path d="M5279 3743l 1-1 25 3"/>
<path d="M6501 3894l-1-2-25-13-30 7-23 11-25 16-22 19-18 22-12 23-6 27 9 22 32 2 31-9 31-14 25-17 21-20 9-23-3-27-10-23 8-22 24-13 26-9 25 7 19 17-2 25-11 24-12 26-9 23 21 13 29-13 24-16 22-17 22-22 9-22-25 0-14 21-5 26 12 21 25 3 24-6 26-11 27-13 21-17 12-21 0-25-12-24-23-10 25 9 28-6 30-9 25-6 25-4-1 24-4 29-7 26-11 27-10 24 29-12 21-21 21-21 21-22 22-23 20-20 24-17 22-10 11 22-5 28-6 25-7 27-7 23 2 28 26 14 39 2"/>
<path d="M7428 3919l 0 0 26-11 25-10 33-15 25-15 27-16 29-17 31-20 30-19 28-19 25-19 21-18 18-17 19-23 13-27-24-5-15 20-12 29-13 30-10 23-14 28-16 32-20 35-22 38-23 39-22 38-23 40-22 38-22 37-18 34-18 30-13 25-14 26 25-26 19-26 21-32 22-36 23-37 22-40 12-21 13-22 13-22 12-23 13-23 13-24 12-21 13-22 23-40 21-33 17-26 19-26 18-20 24-7 28-2 29 2 25 9 22 18 13 25-1 29-10 22-16 21-18 21-20 20-22 16-26 16-31 14-32 11-31 8-27 3-24-1"/>
<path d="M8043 3741l 0-1-22 11 12 22 29 2 23-5 24-8 23-11 18-16-6-25-27-8-28 0-25 9-27 14-25 20-18 22-12 24-3 26 7 24 15 21 27 11 29 2 35-5 25-6 26-9 25-10 24-12 23-11 31-17 23-17 18-22 3-28-8-24-20-14 29 0 26 1 27 3 15 19-18 22-21 15-23 19-20 19-17 22-10 22 17 20 25-2 25-7 30-13 23-9 24-11 25-11 27-14 26-16 26-18 24-19 23-20 22-22 17-25 17-25 15-28 13-30 11-30 11-29 8-25 5-28-15-20-22 10-23 17-16 18-19 23-19 29-21 35-23 41-12 24-13 24-14 25-13 26-14 29-13 28-13 29-12 29-12 28-11 28-10 28-8 26-7 25-6 25-7 44-2 38 3 31 5 23 10 23 19 16 27-16 21-24 20-27 16-33 7-25 5-28 3-29 2-30 0-30-2-26-3-24-10-28-19-20-24-7 29-3 29 1 25 5 27 7 25 5"/>
<path d="M8649 3849l-1 0"/>
<path d="M763 4806l 1-4 13-20 24-17 29-8 28-4 31-1 32 1 26 4 28 10 19 19-4 29-16 19-25 18-31 18-24 12-22 12-24 11-31 13-23 9-24 5 12-23 27-15 26-7 32-5 35 0 25 1 33 6 34 8 33 10 31 9 24 12 15 22-3 27-15 24-16 18-19 18-22 20-23 21-23 20-25 19-24 15-27 15-27 11-27 9-27 6-24 3-35-1-30-7-23-11-14-22 23-19 28-12 23-8"/>
<path d="M1198 5132l 0-1"/>
<path d="M1569 4747l 2-4 12-23 5 30-8 23-10 28-11 30-14 33-13 36-14 38-17 38-16 40-14 37-13 34-12 29-9 22-9 25 26-23 18-29"/>
<path d="M1595 4707l 0-1 16-20 28-3 36-3 26-1 28 0 29 1 29 3 30 4 29 7 26 9 22 13 24 23 12 32 0 24-6 28-13 29-20 31-25 30-28 31-33 30-33 28-34 28-34 26-36 24-37 22-35 19-37 19-35 14-33 11-29 9-33 6"/>
<path d="M2028 4966l-3-3-24-11-25 0-21 15-18 20-12 22 2 24 27 4 27-7 28-12 25-12 10-22 0 26 23 12 27-12 26-13 30-20 19-14 20-18 19-18 19-21 20-22 21-24 18-26 16-29 15-31 10-32 10-32 9-30 7-27 7-31 2-25-23 6-12 29-11 33-9 27-13 33-14 35-16 40-16 40-15 39-11 37-8 32-3 27 2 31 16 24 30 8 30-6 34-11 31-16 27-19 22-19"/>
<path d="M2183 4856l-6 0-25 4-26 5 28-15 27-10 31-12 37-11 38-9 40-9 40-7 40-7 38-4 37-3"/>
<path d="M2540 4889l-2-2-13-22-17-18-25 10-23 12-23 16-20 17-18 20 4 25 28 4 31-3 26-3 24-2 24-2 26-5 23-8 25-13 25-15 24-17 19-18 18-21 8-25-18-16-25 12-10 22 5 24 13 24 18 23 18 18 10 24-19 18-25 7"/>
<path d="M2691 4919l 1 0 26-6 29-3 26-3 27-4 29-6 21-12 22-16 14-20-6-25-22-14-24 3-24 14-20 16-19 23-13 27-1 27 8 24 16 19 23 12 31 3 27-5 33-9 25-9 25-13"/>
<path d="M3135 4561l 0-1 1 28 0 24-3 26-8 30-13 34-11 24-14 24-13 27-15 28-13 26-10 26-10 24-8 29 1 25 22 17 31-5 27-12 28-15 27-18 24-20"/>
<path d="M2982 4746l-2-1 18-17 32-8 26-7 26-5 29-4 32-4 35-4 39-4"/>
<path d="M3666 4937l-1 0 25 1 27-12 25-14 29-18 21-13 23-16 24-17 24-17 24-18 22-17 21-16 18-17 24-21 22-19 21-22 15-19 21 16 24 10 17 17-26 3-26-5-27-1-28 2-23 9-22 14-21 17-21 22-18 25-15 25-8 26 0 25 10 22 21 14 24 5 33 0 25-5 27-6 29-8 31-11 33-11 32-14 32-13"/>
<path d="M4157 4746l 0-1 22-9 30-1 27 0 25 2 23 5-1 27-22 18-23 18-23 19-24 21-21 20-16 21-12 23 12 21 28 0 30-7 34-11 25-10 25-11 24-11 23-11 31-16 24-14 20-17-19-17 29-8 24-8 23-9 26-13 19-14-18-19-24-1-27 7-28 13-25 18-20 22-11 24-1 27 15 23 26 13 28 7 33 2 25-2 26-4 27-3 26-6"/>
<path d="M4728 4774l-1-1-23-14-24-7-24 2-25 11-27 16-27 18-22 18-14 21 22 18 29 0 25-5 26-8 23-9 23-14 18-19-21 12-14 20 13 23 29 0 26-7 33-11 24-8 27-11 25-11 26-15 24-16 22-17 20-18 18-19 15-20 15-22 13-24 14-28 11-29 11-31 9-29 6-25 5-29-1-26-26 12-17 28-15 30-11 25-12 30-14 32-13 33-14 34-12 34-11 31-8 30-7 26-2 33 6 30 21 20 26 1 26-9 28-17 27-18 21-20 10-23-1-27-10-27-22-28-20-15-23-12-25-10-26-6-26-4-25-4-33-2-25-2 28-2 32-3 25-1 27-1 28-2 30-1 30-2 28-2 26-2 31-4 28-6-10 24-13 20-10 22-6 25-6 23-6 25-7 25"/>
<path d="M5238 4548l-2-2-21-12-24 8-2 25 4 29 8 29"/>
<path d="M5238 4733l-1 1-10 22-6 23 13 22 28 4 25-3 27-7 26-10 22-14 5-24-15-23-22-20-26-16-27-9-23-7 26-6 24-4 26-3 27-1 25 1 24 7 14 19-4 29-9 25-9 23 21-20 20-18 23-20 25-20 27-20 23-17 22-14 13 23-12 21-11 27-5 24 5 24 28 5 29-2"/>
<path d="M5771 4408l 1-2 23-12 27 0 25 9 19 18 4 24-8 24-14 22-18 25-20 28-13 20-19 30-17 31-16 29-12 27-5 29"/>
<path d="M5753 4784l-1 1-6 24 22 11"/>
<path d="M790 5631l 1-2 9-22 22-17 8 26-19 26-17 20-20 25-23 26-22 27-23 26-24 25-21 24-19 25-15 20-15 26-3 26 21 13 27 0 24-5 28-8 32-13 33-14 22-11 23-9 32-14 30-12 25-11 25-13"/>
<path d="M855 5712l 0-1-11 29-4 32-5 33-5 23-5 27-6 26-6 25-5 25-7 34-5 28-5 26 5 24"/>
<path d="M961 6053l 1-1"/>
<path d="M1193 5641l 1-2 9-24 22-12 30-6 28-2 31 2 29 7 26 11 10 23-10 26-19 25-16 18-18 20-19 22-18 22-17 24-16 22-12 21-12 28-8 29 2 25 9 25"/>
<path d="M1270 6064l 0-1"/>
<path d="M1855 5631l 2-4 13-23 16-19 25-8 17 18 1 27-8 27-8 23-11 25-13 28-13 29-14 29-13 29-13 28-12 29-10 26-9 25-9 31-2 24 17 21 26-12 19-17"/>
<path d="M2149 5578l-1-1-24 10-14 27-11 29-9 23-8 25-8 26-7 27-6 28-4 27-4 27-1 25-1 33 2 26 8 27 19 15 25-3 21-13"/>
<path d="M1903 5801l-1-1 18-19 34-14 28-10 32-11 34-9"/>
<path d="M2223 5764l-2 1-18 18-16 25-8 28-2 29 9 25 26 6 30-6 23-10 20-16 12-21-7-24-18-17-25-7-23 5 23-8 29-12 28-10 26-3 19 18-5 25-10 25-9 24 24 6 22-14 19-14 19-16-2 26 7 26 21 14 29 5 27-4 24-13 20-17 15-25 2-25-7-29-16-24-24-10-23 8"/>
<path d="M3177 5801l 1-3-7-23-20-18-28 0-24 9-28 16-22 18-21 23-18 24-13 22-5 25 19 21 27 1 28-9 22-12 23-15 25-19 25-21 24-25 23-26 20-27 18-30 12-31 10-33 8-36 7-36 5-37 6-37 4-32 4-28 1-29-23-7-18 26-14 32-9 27-9 29-9 31-10 33-8 34-7 35-8 35-5 33-4 29-1 26 5 31 15 27 22 11"/>
<path d="M3318 5785l-3 0-23 8-18 20 3 27 11 21 19 18 24-2 23-14 20-17 18-23 2-28-16-22-25-10-24 1 22 11"/>
<path d="M3438 5788l 0 1 26-2 25-7 20-13-26-8-26 8-26 13-19 19-13 21-1 25 21 19 33 4 31-4 33-8 31-14 29-15 23-16 21-20 12-22-3-24-26-3-17 18 0 25 16 20 19 15 1 24-28 7-29 6-24 5 29 5 25 2 32 3 30 3"/>
<path d="M4330 5470l 1-1 18 19-9 28-13 29-12 22-15 24-16 25-18 28-17 28-16 28-15 26-12 26-11 32-4 27 8 25 28 2 24-11 23-16 21-20 14-20 4-27-12-30-17-23-22-16-24-9-31 1-27 8-22 12 30-16 22-13 26-16 30-17 34-19 34-22 34-20 31-24 26-23 21-22 15-24 12-21 11-32 6-27 0-24-19 19-8 24-8 29-9 35-9 26-11 29-12 28-13 30-14 29-12 28-12 26-11 23-11 30-7 26 22 12 28-17 27-18 26-22 25-21 22-20 20-15 23-18 22-10-8 23-8 28-5 25-2 25 5 25 27 5 28-7"/>
<path d="M4717 5636l-1 0-25 11-19 17-13 21-11 25 1 24"/>
<path d="M4769 5511l-4-2-30-3-22 14 2 25"/>
<path d="M4742 5706l 1 0 25-6 28-15 25-15 24-18 19-19 12-21-20 15 12 27 14 26 10 25 2 24-19 17-28 9-26 2-26-2-24-3 24 2 27 0 26-1 31 1 33-1"/>
<path d="M5564 5622l 1-2-18-17-24 5-23 10-25 15-27 18-24 20-22 22-17 22-13 26 3 28 28 9 25 0 33-5 38-7"/>
<path d="M5703 5665l-2-1-28-2-24 5 18 18 20 17 24 9 25 1 26-3 19-15-2-25-20-14-25-9-25-8 29-8 29-6 24-5 29-5 27-5 19 17-11 25-13 24-15 26-14 20 21-12 23-20 26-23 28-22 26-20 20-15 21-13 5 24-9 26-6 25 3 26 18 17"/>
<path d="M6077 5604l 0-1-7 24-5 29-10 26-16 27-17 21-19 18 12-28 19-24 17-18 17-19 18-20 17-19 25-22 20-16 20-14 5 25-10 28-8 24-9 25-6 25 28 2 27-12 24-13 20-14 25-8 27-4 27-8 25-8 20-15-20-17-24-3-28 5-23 10-18 17-15 24-2 27 13 23 23 13 27 4 27-4 30-7"/>
<path d="M6565 5594l 1-1 21-13-24-2-23 8-27 14-21 13-22 20-13 22-1 24 18 20 27 4 28-5 36-9 26-8"/>
<path d="M6815 5334l 1 0 6 24 1 28-9 30-14 29-12 20-14 23-13 24-14 22-14 22-13 21-16 28-12 23-7 25 8 25 28 2 27-8 29-13"/>
<path d="M6601 5549l 0 0 25-14 30-8 26-6 29-5 33-5 35-4 38-4"/>
<path d="M7565 5302l 3-3 21-17 16 19-7 25-12 22-16 27-20 28-23 31-25 32-26 34-26 35-25 33-22 33-19 30-16 29-10 25-6 31 16 22 28 3 28-5 32-8 35-14 36-14"/>
<path d="M7384 5545l-3-1-25 4 29 0 26-7 33-5 24-5 27-3 29-4 32-3 34-5 33-3 35-4 33-3"/>
<path d="M7722 5584l-1-1-23-8-24 13-18 23-12 22-3 24 15 21 24 9 28-2 26-7 26-10 26-14 14-23-2-26-13-24"/>
<path d="M8210 5604l 3-3 19-20 19-15 13 24-11 30-12 25-15 27-15 25-15 22-15 19 23-18 19-15 21-21 22-22 20-23 20-20 19-19 24-22 21-15 15 20-9 25-13 27-11 26-8 25 25-3 27-18 21-14 23-16 24-15 21-16 20-14 23-18 19-15-19 18-17 23-12 24-8 26 6 24 22 12 25 1 32-3 34-7 33-11 28-11 24-13 12-20-24-6 30-4 26-8 22-9 21-17-4-26-26-5-26 7-22 11-23 13-20 18-17 17-15 27-4 24 9 25 22 11 28 2 25-4 26-6 29-7 30-10 29-11 28-13 27-14 23-14 21-16 19-18 15-20 14-22 13-25 11-27 10-25 9-24 8-27 2-27-24 10-9 30-10 30-9 25-11 26-12 27-14 27-14 25-12 24-9 23-9 28-1 28 26 14 31-2 25-3 28-3 25-6 32-10 24-13"/>
<path d="M8955 5521l-8-1-30-5-25-5-26-3 31-10 35-3 27-1 27 1 29 3 29 2 28 4"/>
<path d="M9215 5581l-1-1-24-5-28 1-31 7-26 9-22 10-22 15-9 22 25 13 28 0 31-4 25-8 23-13-14 23 0 26 9 22 22 17 27 7 31 1 26-6"/>
<path d="M9272 5555l-2 0 31-3 29-1 32-2 34-2 35-3 32 0"/>
<path d="M9780 5573l-1-2-20-14-26-3-27 5-25 10-25 17-19 18-23 23-18 21-7 24 18 22 24 10 35 5 28 2 30-1 32-1"/>
<path d="M9915 5636l-1-1-24-10-24-6-25 1-22 14-17 19-1 24 25 15 28 10 25 0 26-8 20-17 6-25-5-24-11-22 24 6 24 6 28 5 30 2 30-3 30-6 23-11 19-19 3-24-17-19-25-5-24 2-28 7-27 12-24 16-17 17-13 23 6 27 23 18 26 7 29 0 26-5 23-10-23 17-10 24-8 32-7 28-8 32-9 34-8 24-7 26-9 25-9 24-9 24-9 23-15 31-17 26-21 25-26 18-27-9-13-29-4-31 1-26 5-25 8-28 11-29 13-23 15-24 18-23 21-23"/>
<path d="M10207 5361l 0-1 20-15 26 2 27 8 23 12 15 20 8 28-3 27-8 30-9 24-13 24-13 24-15 23"/>
<path d="M10200 5786l 0 1"/>
<path d="M9578 1822l 2-5 16-25 25-26 22-20 29-24 34-28 20-15 21-16 23-16 25-17 27-18 27-18 30-18 30-20 33-19 32-19 34-20 34-20 35-19 33-19 35-19 35-19 35-19 35-18 36-19 36-18 35-17 36-19 36-19 35-17 35-17 33-16 35-15 32-14 32-12 30-11 29-11 29-11 26-9 26-9 23-8 43-15 36-13 28-9 28-8"/>
<path d="M11100 1090l-1-1 20-13 25-7 30-10 32-12 23-8 24-8 23-8 30-14"/>
<path d="M11177 956l-1-1-8 29 3 24 2 27 4 32 1 34 0 35 1 33 2 31 5 26"/>
<path d="M11621 1146l-2 1-23 10-19 15-18 21-5 25 13 23 25 9 25-3 26-12 24-18 16-21 8-24-9-28-19-19-22-13 18-22 27-13 28-5 26 8 18 21 4 24 0 25-5 24 25-18 18-19 20-21 20-21 19-18 19-16 13 23-5 26-4 25 0 28 16 22"/>
<path d="M12418 719l 1-1 15 22 2 29-2 25-5 29-7 34-9 34-11 38-14 38-15 38-15 37-15 34-15 32-13 27-15 30-11 22 13-22 19-27 16-22 19-22 18-21 18-20 23-22 24-15 25 1 3 26-3 25-4 26-5 30-3 29 2 25 28 2 22-12 24-17 24-21 20-20 15-20 11-22-21 14-13 21-12 27-4 28 15 20 24-9 20-13 22-18 21-22 18-21 15-26 5-26-23 17-8 27-5 24-2 28-1 32 0 34 0 25-1 28-3 27-4 28-6 27-7 29-10 29-12 28-14 28-16 26-17 23-16 20-22 22-24 9-16-18-4-31 2-28 5-34 10-38 15-40 18-42 22-40 25-38 25-35 25-32 26-26 24-23"/>
<path d="M12792 1068l 0-1-5 27-1 24-3 33-5 37-6 29-8 30-9 31-9 31-9 28-9 25-10 32-8 23 1-33 6-24 9-28 9-32 11-36 10-36"/>
<path d="M12806 1043l 2-3 12-23 26 9 26 8 25 5 24 3 23 8-7 24-19 20-18 16-19 17-19 17-18 16-20 20-14 19 24 2"/>
<path d="M13021 1074l-1-1-21 13 4 25 19 18 26-1 24-5 25-12 19-19 2-26-20-16-29-7-26 0-28 5"/>
<path d="M13285 749l 1-1 0 27-1 25-4 33-5 24-6 26-6 27-8 30-8 31-9 30-8 29-7 27-8 33-1 26 9 25 26 7 27-12 23-16 21-20 13-22 2-30-9-23-18-24-26-23-31-18-31-11-30-4-31 0-24 5 30-10 35-14 30-12 32-14 33-17 33-18 29-19 26-20 22-21 18-20 17-29 10-27 5-29-19 20-8 33-5 27-5 29-5 32-5 33-5 33-5 34-5 32-5 32-6 28-6 25-7 31-5 26 26-19 20-23 20-26 18-22 18-22 19-16 3 26 0 26 18 19 27-1 26-8 24-9 20-12 18-18 27-7 25-9 23-10 20-17-18-20-30 3-28 10-20 13-19 17-16 19-14 24-1 25 9 22 19 16 32 8 32-1 35-5 23-8 23-10 30-17 25-20 17-21 12-22 7-31 1-26-16-19-25 11-14 20-1 24 6 24 11 22 14 23 17 20 16 21-24 14-26-1-25-2-26-1 26 3 26-2 31-5 28-9 30-11 30-14 27-14 22-13 19-19 10-23-8-24-23 10-11 23-6 24-5 25-3 25 3 25 23 10"/>
<path d="M14053 857l-3-2-23-11"/>
<path d="M14037 1059l-3 1-25 8 27 0 28-13 24-12 23-16 21-16 21-23 13-21 1-25-24 8-15 22 4 28 11 23 13 21 11 24 1 25-22 16-28 3-25-5-25-5 27-4 28 1 31 0 24-1 31 0"/>
<path d="M14479 907l 1-1 20-15 21-13 27-16 22-15 23-16 20-20 19-20 13-20 15-19-11 23-10 25-9 31-7 33-7 34-6 35-5 24-8 34-8 28-6 26-5 28-1 27 5 23"/>
<path d="M14538 1134l-1-1 25-12 25-1 26-2 26-3 25-2 29-1 24 1"/>
<path d="M1106 -1311l 0-1 24-20 23-18 19-16 23-19 26-25 30-26 32-30 34-31 34-31 35-33 18-16 36-33 18-17 36-31 34-28 33-25 31-22 29-19 26-18 23-15 31-15 26-10 24-8 26-9"/>
<path d="M1980 -2023l 1-4 9-25 11 28 2 35-2 29-4 34-4 39-5 43-7 45-5 47-8 45-7 45-6 40-5 35-4 29-2 30"/>
<path d="M1978 -2023l 0-4 6-25 12-21 23-14 23-11 30-10 32-9 32-4 29 3 29 8 23 11 18 16 7 29-8 25-22 31-20 22-23 24-25 23-24 21-23 19-22 15-20 14-27 17-22 12"/>
<path d="M2159 -1609l 1 1 26 8 23-10 19-16 22-22 22-25 16-19 15-19 18-29 14-26 10-27-1-25-21-12 16 20 29-6 26-4 28-3 27 4 18 16-9 28-15 22-13 20-16 28-9 25 23 11 30-16 19-14"/>
<path d="M2596 -1816l-1 1-18 23-14 27-8 27-8 30-2 28 2 25 9 25 24-2"/>
<path d="M2594 -1968l-1 1-16 20-6 25"/>
<path d="M2706 -1678l-1-1 13-20 25-18 20-15 19-17 18-20 16-19 15-26 6-28-10-24-22 13-6 24 4 27 10 23 12 23 9 28 3 29-8 26-16 20-21 14-26 0 11-25 26-11 30-12 26-12 26-14 25-15 22-14 25-17 18-18-6 26-1 26-1 26-5 25 14-28 11-28 10-27 11-22 15-23 19 15 0 28-1 24-1 30 2 26 20-18 13-26 16-21 26-5 24-4 24-6 13 24 1 25 16 22 28 9"/>
<path d="M3806 -2003l-1-1 21-21 22-9 28-12 23-8 24-10 26-9 26-9 25-8 31-11"/>
<path d="M3837 -2028l-1 1-20 15 0 29 1 24 1 32 0 25-1 29-3 31-5 32-6 36-7 34-7 33-6 30-6 28-4 32"/>
<path d="M3804 -1804l-1 0 32-4 35-11 28-8 28-10 28-10 26-9 33-11 26 2"/>
<path d="M3796 -1612l-2 2-19 17 29-7 28-12 23-11 25-11 28-13 29-11 29-13 30-12 30-11 29-10 27-9"/>
<path d="M4102 -1784l-1-1 24 15 16 26 7 27 4 32-1 35 0 30 0 29 24-11 21-32 15-27 17-30 14-30 13-31 11-28 9-24 11-26"/>
<path d="M4494 -1730l-3-4-19-20-22-17-25-5-22 10-21 23-15 22-14 23-10 25 4 24 30 6 28-8 26-13 20-14 10 22 17 17 25 14 25 4 27-8 25-19 23-23 17-20 19-22 19-26 20-26 20-27 17-29 15-30 12-32 10-32 8-31 6-30 4-25 2-28-27 0-19 29-12 26-12 31-10 32-7 34-5 33 0 31 3 29 5 27 8 23 14 27 23 21 27 2 22-11 22-19 21-23 18-27 14-25 10-22 6 27 7 28 7 25 6 25 5 29-5 29-13 22-19 17-28 13-29 6-26-1-23-10 22-15 31-5 32-5 26-4 27-6 28-6 27-4"/>
<path d="M5114 -1575l 0-4-21 15-13 22-16 28-16 30-18 32-16 33"/>
<path d="M5396 -1980l 1-2 20 16 9 33 4 35-1 27-3 29-6 31-8 30-10 32-13 31-14 31-15 28-13 25-18 26 9-33 19-35 24-42 13-22 13-23 14-23 14-23 12-23 13-22 12-23 12-22 21-37 19-31 16-22 17-21 24-9 11 28 0 34-2 29-4 33-6 36-8 37-8 36-9 35-8 33-7 29-10 33-9 22 8-22 11-25 17-33 20-38 22-41 23-42 21-42 21-40 19-36 18-31 15-25 19-25 20-17 13 27-2 29-5 26-7 31-10 35-12 37-12 40-12 40-12 39-10 38-7 35-4 30-1 27 3 30 13 21 25-2 27-18 23-20 23-23"/>
</svg>
