<svg xmlns="http://www.w3.org/2000/svg" viewBox="369 85 10960 6056" stroke="black" stroke-width="32" stroke-linecap="round" stroke-linejoin="round" fill="none" data-xena="-11 -41"><style>@media(prefers-color-scheme:dark){svg{background-color:black;stroke:white;}}</style>
<path d="M964 761l 0-1 0-28 1-28 1-26-3-26-8-26-15-23-27-4-28 14-27 24-20 24-22 29-21 35-22 40-11 22-11 23-11 24-9 25-10 26-8 25-8 27-7 25-8 25-5 25-5 25-6 45-2 41 1 36 4 31 7 24 16 25 22 14 36 3 37-11 35-20 33-28 26-31 24-35 24-39 19-40 15-39 10-36 5-33 1-30-5-33-7-29-10-30-12-31-14-30-13-26-16-20-25-3-12 21-5 29 2 30 8 31"/>
<path d="M834 1098l-1-1"/>
<path d="M824 1086l-1-1 9-26 18-17 27 5 16 19 14 28 9 23 9 23 8 28 7 24 8 25 6 24"/>
<path d="M1071 1064l-1-1 2-24 13-24 14-26 15-23 25 0 1 28-3 28-5 25-6 27-6 29-7 28-6 26-5 24-6 29 0 25 24-1 16-20 19-29 14-21 13-22 13-22 12-23 11-23 16-31 12-27 9-26-20 22-10 29-5 26-4 26-3 30 4 27 20 13 24-9 24-15"/>
<path d="M1334 1062l-1 2-13 22-9 22 27-4 25-12 20-14 18-16 19-16 8-23-25-10-26 7-23 17-16 21-13 26-7 27-3 26 5 27 20 19 30 4 30-7 25-11 28-13 25-13 22-14 24-17 18-17 15-20 15-26 11-23-9 28-8 29-6 25-2 28 27 5 24-20 20-20 19-23 15-22 13-20-9 26-7 27-3 28 4 28 17 21 25 0 25-15 20-18 21-20 16-21 15-25 8-23 23 7 27-3 25-7 24-11 12-22-17-17-25-7-24 5-23 12-22 20-11 25-8 30-5 31 4 27 15 25 22 13 26 1 24-7 28-10"/>
<path d="M2413 1001l-1 0-23 10-19 14-18 19-12 24-6 25 3 27 21 20 31 0 30-12 20-14 21-24 12-23 4-25-17-20 26-5 24-14 29-21 21-18 25-23 26-26 22-24 17-19 18-22 19-25 18-28 18-30 17-31 16-34 12-35 9-33 6-32 2-30 0-26-2-31-8-27-26 4-19 25-15 25-18 33-19 40-10 22-18 47-19 49-17 50-16 49-15 48-12 46-9 42-8 39-5 38-5 36-4 35-2 34 0 33 0 31 1 28 2 26 8 44 10 36 12 26 20 24 27 9 23-17 16-29 10-27 8-32 6-35 2-37-3-38-7-40-10-39-12-36-12-32-12-23-18-20-23-13 14-23 23-13 28-13 24-10 28-9"/>
<path d="M3450 559l 1-2 8-27 10-25-5 28-8 30-6 25-6 29-8 32-7 34-8 35-5 34-6 32-5 29-4 27-5 43 0 29 3 26 9 23 26 6 22-19 19-22 15-25 8-26-12-26-22-17-23-13-26-11-27-11-26-8-30-6-27 1 23-16 27-22 21-18 25-21 28-23 29-25 31-27 31-27 30-27 27-25 24-24 20-21 17-20 17-23 12-20-8 28-6 27-7 33-4 25-4 27-5 30-4 30-5 31-5 32-6 33-6 32-6 29-5 27-4 24-7 40-4 25-2 25 22-12 14-26 12-21 15-26 19-28 20-28 23-27 20-21 21-14 22 15 2 24-2 24-3 30-2 30 1 27 22 15 24-10 22-17 20-16 20-19 20-18 17-17-7 25-7 25-5 26 20 14"/>
<path d="M3958 631l-1-1-24 4-9 23"/>
<path d="M4009 783l 0 1 4 25-2 24-6 26-6 25 22-10 17-20 17-21 20-21 19-18 23-13 16 20-3 33-5 26 0 28 15 19 29 1 27-7 23-9 22-9 24-9 23-12 25-13 21-15 21-20 18-22 11-26-8-23-24 6-22 15-22 20-19 21-13 22-2 27 19 20 25 5 25 2 25-5 23 10 5 24 2 26-3 24-4 30-6 27-6 24-8 26-10 31-12 34-14 33-15 34-15 33-16 30-14 27-13 21-17 22-23 7-8-27 2-32 6-26 8-29 10-31 15-32 15-33 18-36 20-37 22-37 22-37 23-35 23-35 19-27 21-28 19-29 18-26 14-23 14-23-12 23 2 24 5 25 8 24 12 30 12 24 13 24 10 25-13 21-26 6-29-1-27-4-24-5 21-18 26-10 31-7 26-3 28-2 32-2"/>
<path d="M5171 504l 0-2 6-27 5-24 2 25 0 27-2 26-4 31-7 36-7 26-9 28-11 30-12 30-13 30-19 45-13 26-10 24-16 38-11 25-9 27 6 25 28-8 27-19 23-19 18-18 20-20 17-21 11-22 6-28-7-25-17-25-22-22-22-20-24-17 30-11 28-5 33-5 33-5 32-1 28 2 28 8 18 17 2 28-11 25-11 22-10 24-8 28 5 23 25 8 26-9 22-14 17-18 13-23 1-29-8-23-11-22 28-6"/>
<path d="M6058 599l 0-1 6-25 14-23 21-15 23 9 6 24-3 27-6 24-9 33-8 26-10 30-11 31-12 31-10 30-10 28-8 25-8 23-11 37-7 30-5 27-5 33-1 26 6 24 29-1 30-15 26-16 30-21 32-23 32-27 33-28 22-22 21-24"/>
<path d="M5973 746l-1 0 27-11 32-13 27-10 31-11 33-11 37-10"/>
<path d="M6355 884l 1-4 4-25 2-26-10-24-28-5-23 8-30 19-20 16-20 23-12 24 2 25 26 8 27-5 26-9 25-11 24 7 27-5 29-16 24-16 22-15 26-21 19-17 21-19 22-21 22-24 20-26 18-25 16-27 13-27 11-28 9-28 6-30 5-27 2-27-1-34-3-27-9-26-24 1-16 19-12 21-12 28-8 23-10 27-10 30-10 34-9 35-9 37-8 36-6 35-5 31-4 28-2 24 0 35 6 27 17 21 28 0 23-9 27-16 19-15 24-22 22-21"/>
<path d="M6788 468l-1 0-19 16-9 27-5 31-5 32-3 26-4 30-6 32-7 35-7 35-8 35-8 34-8 31-7 29-7 26-9 41-6 31-2 25-3 27 20-17 14-33 9-22 10-22 15-30 15-21 17-19 23-16 27-12 27-5 24 5 7 23-17 20-22 17-26 15-27 10-28 5-27 5-20 13 14 22 20 15 28 12 26 5 29 4 26 5 25 7 26 11"/>
<path d="M7361 979l 0 1 24 10 27-6 23-10 27-16 19-15 21-18 23-21 19-17 24-23 18-19 20-20 20-24 21-26 23-30 22-31 20-34 19-35 16-32 13-31 11-28 8-24 7-27-25 2-16 25-13 23-13 26-14 31-15 34-13 36-20 57-12 35-10 33-8 30-6 26-9 42-3 26-1 29 8 24 26 2 25-14 23-15 22-18 20-18 21-16 24-19 20-17 18-18 17-21 10-24-17-17-21 13-11 24 7 25 0 24 0 26 12 22 25 0 28-9 25-14 17-21 8-27 1-25-4-24-25-2-19 15-23 5-1-24 18-18 26-8 24 1 28 7 24 7 25 9 24 10 24 12 30 17"/>
<path d="M7514 721l 0 0 27-2 33-3 35-3 26-2 31-2"/>
<path d="M8564 479l 0-1-2-25 26-13 27-5 28-8 32-10 24-7 25-9 25-8 25-7 24-7 33-9 27-5"/>
<path d="M8549 499l 0 0 16-19 21-14 3 30-8 24-13 30-10 24-13 26-14 28-14 28-15 29-15 29-14 28-13 25-11 23-17 35-10 25-9 23"/>
<path d="M8513 693l-1 0 25-7 30-6 27-3 31-3 32-2 32-2 30 0 28 1 30 2"/>
<path d="M8378 906l-1-1 30 2 25-1 31-1 34-1 25-1 27-1 25-1 25-1 25 0 36-3 32-3"/>
<path d="M8748 931l 1 0 23-14 26-15 24-14 27-17 20-14 28-17 23-16 29-22 20-15 23-19 22-20 23-21 20-23 21-24 19-25 17-25 15-24 13-21 15-27 13-26-24 6-20 22-17 21-20 25-20 29-22 32-23 33-20 33-19 30-16 27-12 23-16 33-4 26 27 7 26-12 22-12 20-13 27-18 20-14 22-16 23-17 25-19 26-20 24-21 25-21 22-21 21-23 19-22 18-24 15-25 15-24 11-24 10-22 11-30 6-24 2-25-25 10-20 26-15 19-15 24-17 26-18 29-18 31-18 30-17 31-17 29-15 28-12 26-10 23-16 36-9 23 26-8 23-24 20-21 21-21 20-19 22-20 22-17 13 21-5 25-7 29-6 29-3 24 1 24 15 20 27-1"/>
<path d="M9453 815l 1-1 15-21 15-22-1-25-26-4-29 9-27 17-20 16-27 27-17 25-1 27 21 16 30 4 27-4 26-10 23-14-16 20 22 13 27-1 25-4 27-9 21-13 18-17 3-25-23 8-10 24 5 24 25-1 24-11 26-14 20-15 22-14 20-14 12 22 6 26 7 25 18 17 25-12 20-16"/>
<path d="M9825 839l 1-1"/>
<path d="M8963 659l-1 0 27-4 30-1 36-1 27-1 27-2"/>
<path d="M10226 796l 0-1 8-24 8-25 1-27-23-9-22 14-21 18-22 23-23 27-25 32-15 26-8 24 12 23 26-5 23-8 24-12 21-13 20-14 22 11 25 9 25-10 24-14 26-19 25-20 20-17 21-20 22-23 23-25 22-27 22-30 19-32 18-34 16-36 14-36 11-36 7-35 6-31 3-27-1-31-12-20-30 10-23 21-18 21-19 26-18 29-19 33-18 35-16 38-15 38-14 39-11 38-9 38-7 35-5 31-2 27 1 43 5 28 13 25 17 18 26 14 29 5 27-6 20-18 3-25-13-29-13-21-17-23-17-20-15-19-19-16 23 15"/>
<path d="M10628 793l-1-1-25 2-25 11-18 21-7 27 4 25 17 17 26 6 26-4 21-13 7-25-7-24-12-21 20-13 25-4 23 11 2 25-3 26-2 25 6 24 27 3 23-9 23-13 21-17 20-18 17-18-14 21-5 24 26 6 27-12 27-18 23-17 24-20 23-23 20-28 19-32 10-23 10-23 8-25 7-25 6-24 7-33 3-27 1-24-25 3-14 25-12 26-12 33-8 24-8 25-8 26-8 25-6 25-6 35-3 31 1 26 8 25 15 19 25 4 27-8 20-14 17-19 9-22"/>
<path d="M10956 726l-4 0-24-4-24-5-27-4 31-1 27 1 34 1 25 1 26 0 26 1"/>
<path d="M826 1900l 0 1 5 24 19 17 24 9 26-10 18-17 21-21 21-25 19-25 14-22 10-24 4-26-20 20-9 30-6 29-7 32-5 36-5 27-3 29-4 30-4 31-4 31-5 30-5 31-5 30-5 29-4 25-4 27-2 25"/>
<path d="M763 2278l-1 0 27-8 25-8 29-6 27-4 27-3 25 1 29 4 30 4"/>
<path d="M1122 2267l 1 0 28 3"/>
<path d="M1708 1862l 1-3 17-24 8-24-11-23-29-8-31 9-30 17-22 16-22 20-22 22-22 24-21 28-19 27-18 28-16 27-14 28-11 26-6 24-1 34 10 28 18 21 24 15 31 8 37 1 28-3 32-7 32-9 33-11 33-11"/>
<path d="M1846 2084l-3 0-23 11-18 20-13 23-2 25 21 15 29-3 27-11 22-11 24-16 17-19-4-25-22-13-23-10 27-7 25-6 28-11 30-15 22-13 22-17 24-18 24-20 25-23 23-21 22-22 19-23 17-23 14-23 11-23 9-24 7-23 5-35 3-32-1-26-8-22-28 10-22 24-19 22-19 25-21 26-20 31-18 32-18 35-14 35-11 35-8 35-2 33 1 30 4 25 12 28 23 20 24 4 30-3 22-9 23-13 24-15 25-20 25-23 24-25 23-27 21-25 19-28 18-26 15-29 13-29 10-31 7-30 6-30 4-27 0-31-11-24-24 5-21 18-16 21-17 26-13 21-10 23-10 26-10 27-9 29-7 30-7 30-5 29-4 28-2 27 2 33 7 25 15 23 22 14 30 4"/>
<path d="M2508 2010l-1-1-22-14-26 7-14 23-13 26-10 25 7 25 26-10 27-12 24-8 19-15 10-22 24 8 25-3 25-8 20-13 24-22 20-23 23-27 16-20 16-23 17-25 17-27 17-30 16-32 17-33 15-34 14-35 11-33 9-30 6-25 3-25-11-25-29 8-21 16-21 24-17 26-13 22-14 27-14 32-14 37-15 41-14 43-11 43-8 41-4 37 2 33 5 28 9 23 18 24 22 13 25 5 25-3 27-10 23-15 19-17 13-22-2-26-17-20-20-15-24-15-22-13-27-7-25 2 18 18 26 3 26 2"/>
<path d="M2967 1926l-1 0-22 9-20 17-20 23-13 22-8 24 14 24 27 4 25-9 27-13 23-15 19-20-1-25-21-12-24-7-24-7 29-5 26-4 29-2 24 0 27 0 24-8 27-3 26 4 19 18-7 28-16 20-18 23-20 23-14 21-5 24 24 12 25 0 32-3 26-6 27-7 31-9"/>
<path d="M3395 2000l 3-2 19-20 9-22 2-25-20-15-24 8-23 15-19 19-14 21-8 24 16 18 25-1 28-9 26-11 25-13 7 24 9 22 20 14 24 0 26-10 22-15 25-21 18-18 20-19 20-22 19-23 19-24 19-27 18-29 17-31 16-33 15-36 14-35 12-36 10-32 6-25 5-28-24 5-20 25-16 26-11 22-11 25-11 29-12 30-10 34-11 34-10 36-9 36-7 34-5 32-1 28 3 32 10 27 23 16 25-5 23-14 22-22 7-24"/>
<path d="M3646 1848l-4-1-25-8 11-25 23-10 26-9 28-6 28-3 29-1 24 2 27 5 25 10 10 23-1 30-5 29-5 33-3 30-1 27 9 22 23-14 17-20 18-26 13-28 9-29 3-30 2-33 0-32-2-25-9-23-24 13-12 23-3 25 2 27"/>
<path d="M3942 1977l 1-1 21 17 26 2 25-3 26-7 20-16-5-26-23-12-23-6-25-3 13-26 22-18 23-14 26-10 24 9 7 26-1 25-3 29-4 24-4 26 20-17 13-21 15-22 16-22 15-19 17-20 19-17 13 21 2 26 2 24 8 27 18 20"/>
<path d="M4805 1878l 1-4 8-25 7-25-20 23-14 25-13 30-11 28-6 25-2 28 30 2 26-14 20-13 21-14 21-15 26-20 18-16 16-20-22 12-10 26 0 26 23 15 23-6 23-12 20-15 16-20 10-25-4-25"/>
<path d="M5430 1449l 1-2-15 21-20 32-16 26-17 30-21 33-22 36-26 41-13 22-15 22-15 24-15 24-15 25-16 25-16 26-17 26-17 26-17 26-17 26-15 25-15 25-14 24-13 22-11 22-19 39-15 33-10 27-10 28 27 0"/>
<path d="M5847 1654l 0-1 26-15 23-8 27-7 32-8 34-7 24-5 26-5 27-5 27-5 23-5 32-8 25-7"/>
<path d="M6053 1601l-4 1-27 6-24 7-24 11-17 23-3 28 3 28 2 26 2 29 3 32 1 36-1 25-1 25-3 25-3 24-8 33-8 24-16 24-21 17-27 9-24 1-29-3-29-6-28-9-23-10-26-16-15-20-2-27 16-22"/>
<path d="M6173 1954l 1-4 3-24-8-25-27-10-24 4-28 12-23 13-18 18 22 17 28-5 28-5 24-2 11 23 13 21 21 14"/>
<path d="M6396 1901l-1-1-27-4-24 6-23 10-21 14-20 19-12 22 13 24 22 9 27 3 32 0 28-2 30-5"/>
<path d="M6651 1612l-1-1-14 21-6 30-8 32-8 25-10 29-12 31-15 34-17 35-18 35-18 35-18 35-16 32-13 27-10 22-10 25 15-21 13-29 12-22 13-24 12-22 17-30 16-25 17-20 21-18 24-11 24-1 26 6 8 24-16 18-24 14-28 13-22 10-22 11-26 16-19 18 7 24 22 13 26 8 30 7 35 5 24 2 25 2 35 3"/>
<path d="M776 2864l-1-1-1-25 6-25 11-25 14-21 17-19 24-13 28-5 31 5 23 9 22 14 15 20 10 23 2 28-10 31-10 23-16 23-21 23-23 24-20 17-24 20-19 15-21 17-21 16-23 16-24 16-24 16-23 15-28 18-23 12-22 15 30-5 32-6 31-5 42-5 39 0 31 2 32 7 22 9 23 17 17 18 14 20"/>
<path d="M1074 3194l 1-1"/>
<path d="M1425 2734l 0-1 26-10 31-6 29-6 33-8 24-5 25-7 28-7 29-7 29-8 29-8 28-8 25-8 23-7 30-10 24-10"/>
<path d="M1580 2766l 1-1 16 19-5 26-7 32-7 25-7 28-9 32-10 32-11 32-10 31-11 31-10 29-9 28-7 25-10 28-8 24"/>
<path d="M1781 2954l 0 0-4 26-8 27-7 23-8 25-6 25-6 26-3 29 25 10"/>
<path d="M1858 2792l-2 1-24 6-4 27"/>
<path d="M1890 2981l-1 1-14 24-11 27-11 27-9 25-7 24 16-21 15-23 17-24 16-21 23-19 23-11 22 12 0 25-5 29-8 26 28-10 21-20 24-21 23-21 21-18 21-15 22 15-7 24-8 29-5 23-3 27 9 26 25 1 28-12"/>
<path d="M2265 3019l 0 0 24 13 26-3 24-9 22-10 20-13-6-24-23-10-27-3-27 7-24 16-18 18-15 23-9 24-3 24 3 24 18 24 26 11 25 2 34-5 29-5 33-9"/>
<path d="M2380 3068l 0 0 21 14 26-4 29-10 25-15 21-14 24-19 27-22 30-28 31-33 31-35 28-37 25-36 20-33 15-31 11-28 7-26 3-27 2-25 0-24 0-33-1-28-5-26-23 9-18 17-20 29-15 24-15 27-16 32-15 33-15 37-13 38-13 40-12 43-10 42-9 40-7 38-4 32 0 28 5 32 14 20 29 9 28-6"/>
<path d="M2791 2950l-1 1-20 18-13 22-6 25 5 27 16 20"/>
<path d="M2890 2804l-1-1-25 2-7 24"/>
<path d="M2909 2909l 0 1 4 25-1 29-4 30-4 29-2 26 18-19 15-22 18-26 17-23 16-19 20-20 24 6 0 24-6 28-4 28 0 24 23 10 24-9"/>
<path d="M3163 2963l 0 1 21 14 24-6 22-9 25-16 19-18 15-21-25-6-24 12-23 15-19 16-17 22 6 25 25 6 29 1 25-2 29-6 29-10 28-14 20-17 15-20 2-25-24 6 9 25 14 21 11 22 0 25-10 25-23 15-27 0 25-10 29 1 31 0"/>
<path d="M3846 2944l 0-1 1 25 3 26 5 25 14 22 23 12 23-7 22-19 14-22 7-26-6-26-17-23-22-17-22-15 28 7 31-10 29-15 20-13 21-15 22-17 23-20 24-20 22-24 21-24 20-24 18-23 16-22 14-23 10-22 7-24 6-24 5-35 2-35 0-29-4-24-28 9-21 26-16 25-16 30-15 34-15 41-16 46-8 24-8 26-8 27-7 27-7 28-6 28-7 30-5 30-5 29-5 30-4 29-4 29-2 27-3 27-2 26-1 25-2 45 0 41 1 35 2 29 4 30 10 23 13-23 13-32 9-25 8-28 5-30 4-31 1-34 0-34 0-34-3-32-2-27-5-30-7-25 24-8 23 5 30 7 25 5 27 6 30 5"/>
<path d="M4749 2997l 0 0 24-13 22-23 19-23 21-28 24-32 26-34 28-37 14-19 28-39 14-20 14-20 13-21 24-40 13-21 20-41 17-40 14-40 11-36 8-33 5-26 2-27-17 27-11 34-6 26-3 29-3 28-2 30-3 33-2 33-3 35-2 35-1 34 0 30 0 28 2 25 4 31 7 24 12 24"/>
<path d="M4902 2768l-2 0 28-6 33-12 26-9 29-10 31-10 33-11 33-11 32-10 30-7"/>
<path d="M5214 2743l-1 0-5 26-7 25-9 28-10 26 26-20 16-19 16-20 16-19 15-19 20-26 17-19 20-18 6 29-5 24-4 25-2 28 5 24 30 1 26-15 26-20 18-17 20-20 19-20"/>
<path d="M5531 2646l 11-20 23-41 17-40 15-35 10-27 8-23 7-25-25 11-15 26-15 32-10 26-12 29-12 33-13 35-12 36-11 35-9 33-6 29-5 25-2 30 2 27 25 10 22-13 18-18 17-20 13-22 6-29-8-30-14-24-19-21-23-18-24-12-24-7-27 0 23-12 31-15 23-11 25-13 26-14 27-13 26-15 24-15 21-15 28-20 23-20 16-23 11-23 7-24 4-25-25 8-10 25-9 31-10 35-7 26-7 27-8 30-8 32-12 33-11 35-12 32-10 28-9 24-9 26-7 25 24-15 20-22 21-28 20-27 16-23 19-25 20-18 7 26-5 29-5 26-5 25-2 28 10 24"/>
<path d="M5786 2653l 1-1 10 25-8 25-9 25-11 28-12 25-12 22 11-27 18-25 22-28 16-18 23-27 20-23 20-21 22-19 22-13 25 3 14 20"/>
<path d="M5988 2659l 0 1-14 20-19 22-13 20-12 21-6 25 14 20 24 5 27-6 25-12 25-17 20-19 11-21-11-25-22-11-23-9 28-5 28-5 29-6 24-7 26-7 18 16-5 27-6 28-6 26-6 30-8 30-9 34-8 23-9 23-9 24-9 22-15 30-13 24 3-31 12-33 9-24 9-24 10-26 9-24 10-24 11-24 10-22 12-21 18-27 15-21 15-19 20-15 23-7 24 4 22 13 6 23-10 26-18 24-19 17-21 17-21 14-26 15-25 8 8-26 19-15"/>
<path d="M6348 2671l 2-1 4 26-7 24-8 26-6 27"/>
<path d="M6403 2560l-1 0"/>
<path d="M6556 2696l-1-1-19-15-24 5-25 13-25 18-17 17-18 24-12 26 2 26 22 20 23 8 25 3 29-1 36-5"/>
<path d="M7077 2729l 3-3 21-23 15-19 6-25-14-20-27-4-25 5-30 14-23 14-25 15-25 18-25 20-23 22-19 20-15 20-13 22 6 25 27 0 35-10 27-10 28-12 27-12 24-12 27-15 22-12-20 18-14 21-6 26 20 14 28-5 25-8 22-11"/>
<path d="M7248 2696l 0 0-21 14-18 25-10 22-13 27-14 31-9 25-10 27-10 28-11 30-11 27-12 25-9 23-12 27-11 25 15-20 17-25 18-30 12-24 10-27 11-29 12-32 10-32 12-31 11-30 12-27 13-25 18-28 16-21 18-20 20-15 27-9 27 3 26 12 18 22 7 27-13 25-22 21-23 16-26 14-26 13-23 8-24 6"/>
<path d="M7533 2688l-1-1-10 27-5 28-7 25-9 28-12 32-9 23-8 24-10 24-10 23-13 31-13 23-15 22-9-25 12-31 11-25 14-29 15-30 16-30 17-32 17-30 18-27 16-24 15-20 20-20 19-17 23-10 27 9 27 8 20 14-12 21-19 19-23 16-21 13-21 13-21 17 17 19 23-7 30-12 33-15 24-13 25-15 25-16 23-16 24-17 21-18 21-19 21-21 20-22 18-23 16-25 14-26 13-29 11-31 9-32 8-31 6-29 3-24 2-26-18-16-24 16-19 18-21 25-15 21-15 26-16 29-16 32-15 34-13 35-10 35-8 33-5 32-3 28 0 33 6 25 11 22 23 12 31-1"/>
<path d="M8025 2662l-1-1-22 13-8 27-5 23-4 30 3 25 13 20"/>
<path d="M8068 2527l-3 0-24 0"/>
<path d="M8239 2691l 1-2 5-24-27-6-28 9-22 14-20 20-15 22-9 27 9 26 25 15 25 3 32 0"/>
<path d="M8498 2698l-1-1-21-15-26-6-28 1-25 9-23 12-20 19-8 22 21 12 27 1 27-1 26-9 12 21 24 12 24-6 25-10 27-15 30-18 29-22 20-15 19-17 17-20 16-20 14-22 13-23 9-25 8-25 8-25 6-26 6-27 5-27 3-33 0-27-24 7-12 23-12 33-10 26-11 29-11 31-13 31-12 32-10 33-10 30-9 30-6 30-5 25 1 32 11 30 23 12 26-4 29-11 26-17"/>
<path d="M8655 2588l-4-1-27-11 11-22 26-9 31-6 27-3 28 0 29 2 30 4 25 5 23 13 3 25-11 24-12 23-10 25-10 22-8 23-3 25"/>
<path d="M8886 2502l-1-1-19 15-1 25 1 24 4 28 7 25 10 24 6 24-5 25-10 26-3 26 25 3 25-13 21-15 21-20 13-23-5-26-16-18-19-18 14-20 23 5 18 18 13 22 5 27 4 26 24-8 24-19 20-18 24-21 24-21 23-18 23-18 22 10-2 24-2 26-3 27-1 29 5 24 16 20"/>
<path d="M1729 3773l 0 0-6 24 22-13 20-17 25-24 18-17 18-17 17-18 21-27 16-22 15-24-12 21-9 28-8 35-5 25-6 27-6 30-7 31-7 32-5 32-6 31-5 29-4 27-4 24-6 28-4 26-5 25"/>
<path d="M1701 4071l 0 0 21 13 26 1 27-1 31-2 26-2 24-5 28-2 24 6"/>
<path d="M2069 4091l 0-1"/>
<path d="M2426 3702l 1-4 8-25 17-20 25-9 25-2 19 21-4 33-7 26-10 31-13 38-12 39-13 40-11 38-10 37-9 34-7 32-6 27-10 33-9 24 3-33 7-28 10-34 11-39 14-40 16-44 16-44 18-42 17-39 16-35 17-31 15-27 13-22 19-24 20-18 26 7 7 29-1 34-3 27-4 30-5 31-7 30-8 33-9 31-8 30-10 27-7 24-8 26 12-27 10-28 14-33 17-36 19-38 20-39 20-38 21-35 20-32 20-27 19-24 16-21 17-18 20-20 22-16 23 11-1 31-9 33-8 26-10 27-12 29-10 29-10 29-10 29-8 25-9 26-7 24-9 29-5 28 8 23 30-8"/>
<path d="M3008 3606l 0-1 23-10 25-6 26-7 24-5 30-7 34-10 24-6 23-8 30-10 25-9"/>
<path d="M3135 3626l 0 0-8 26-4 30-6 28-7 34-7 26-8 29-8 30-8 31-8 30-7 28-8 27-7 25-8 23-11 32"/>
<path d="M2835 4059l-1-1 25-5 30 3 28 3 33 2 34 2 25 1 24 1 34-1 35-1 34 0 35-3 35-4 34-6 24-5"/>
<path d="M3476 3646l 0-1 22-12 31-1 26 0 27 0 31-1 32-1 29-3 28-2 30-3"/>
<path d="M3614 3691l-1-1-10 26-3 28-5 26-7 31-10 31-10 33-10 29-10 29-9 28-8 28-6 26-7 28"/>
<path d="M4383 3621l 2-3 20-16 19 19-5 29-9 31-8 24-9 25-11 27-10 26-12 26-11 24-12 23-13 21-19 28-16 25-15 22 2-30 13-26 15-31 13-22 12-24 13-25 14-25 12-24 15-31 12-26 11-27 7-26 10-23 21 20 9 24 12 29 14 32 12 25 11 26 12 29 12 28 11 25 10 22 16 25 16 22 23 8 23-21 21-30 14-28 14-31 12-35 11-37 9-41 8-45 8-47 2-25 5-47 4-45 3-40 1-33 0-25-5-25-20 24-9 26-3 31"/>
<path d="M4819 3750l 0-1-20 18-11 24-5 29 1 29 16 21 25-1 23-14 17-23 10-25 2-24-9-27-15-22-22-13 25-1 24-6 25-4 27-2 24 9 14 25 3 24 0 32 2 32 3 24 5 27 8 23 24-12 15-20 17-27 11-22 10-23 10-24 8-23 9-34 7-29 3-25"/>
<path d="M5594 3509l 1-1 8-25 10 27-7 34-8 28-11 31-13 35-14 35-12 37-13 37-11 36-10 33-9 30-8 26-11 28-11 25"/>
<path d="M5747 3501l 0-1 26-5 24-5 26-7 28-6 27-7 26-7 24-8 28-8 27-7"/>
<path d="M5866 3460l-3 1-24 8-23 10-20 18-15 20-14 21-17 24-16 27-15 25-11 25-9 25 13 21 23-8 26-11 29-13 30-13 30-9 29-7 27-3 26-1 29 1 28 10 15 22-2 29-10 28-15 24-20 24-25 24-18 16-22 16-22 13-22 13-23 10-33 11-32 5-29 3-24-3-25-12-20-22"/>
<path d="M1662 4561l 0-2-4-25 21-22 21-15 28-12 24-5 25-2 31 3 27 13 18 23 7 30-2 27-10 30-10 23-13 24-16 25-18 26-21 28-22 26-22 26-24 24-24 21-23 19-23 16-22 15-21 13-26 14-24 8 19-22 29-14 26-9 30-6 28-2 25 3 26 9 21 15 19 19 14 21 11 24 13 22"/>
<path d="M1959 4934l 0-1"/>
<path d="M2312 4518l 1-1 23-8 20 16 14 28 10 30 9 35 6 24 6 24 7 33 8 30 6 23 7 26"/>
<path d="M2649 4420l-1 0-18 20-14 31-10 30-11 38-10 43-5 24-5 24-4 26-4 26-4 27-4 26-4 27-3 26-3 26-3 25-3 25-5 47-6 43-7 40-8 34-9 28-10 28"/>
<path d="M3006 4578l-1-1-10-24-16-19-29 7-25 18-23 19-29 23-21 18-20 20-20 24-19 26-17 28-14 29-12 28-10 27-8 24-6 31-2 27 6 29 12 22 20 15 31 9 34 4 28-2 32-2 35-4 36-7 41-7 42-8"/>
<path d="M3899 4535l 1-2 14-22 9-24-6-23-25 10-26 18-21 17-18 21-17 25-15 29-15 32-12 25-10 28-10 31-6 31-3 33 1 30 5 29 8 27 11 21 20 25 23 13 26 2 30-6 34-14 26-13 27-16 28-18 27-20 24-20 21-20 18-22 14-21 11-25 6-24 2-26-1-27-4-29-6-32-9-34-10-35-10-33-11-29-10-24-17-25-20-14-33-3-32 10-24 14-25 18-24 21-19 20"/>
<path d="M4237 4767l 0-1-24-5-27 6-24 12-19 19-12 21-5 25 9 24 23 10 25-1 24-5 29-9 22-10 23-15"/>
<path d="M4436 4449l 1 1 5 27 4 28 1 25-2 25-6 30-8 28-9 31-12 32-10 34-7 23-7 33-4 24 0 25 5 25 24 12 23-12 19-15 20-20 20-26"/>
<path d="M4352 4664l-4 1-30 4 21-14 23-8 26-9 30-7 31-8 33-8 34-5 32-5"/>
<path d="M1671 5429l 1-2-4-25 18-19 28-8 33-4 28-1 27 0 30 5 25 13 6 24-8 25-15 21-20 25-25 25-20 16-21 15-21 13-29 18-27 15-21 13-21 12 27-15 30-16 25-11 27-12 28-10 29-8 26-7 25-3 36-3 34 3 26 12 20 23 7 30-8 28-11 22-14 22-17 24-20 22-20 22-20 21-23 19-24 17-23 17-24 14-23 13-23 11-23 8-31 9-26 4-25 2"/>
<path d="M2033 5856l 0 2-4 26"/>
<path d="M2500 5395l-1 0 17 19 28-5 31-13 24-12 25-15 24-15 22-15 21-13 30-17 30-11 30-7 30-3 27-2"/>
<path d="M2525 5442l 0-1 18-22 18 16-4 30-4 25-5 28-4 28-6 30-7 31-7 32-10 32-9 32-7 30-7 28-5 25-5 32 0 28"/>
<path d="M2537 5644l 1 0 19-14 25-13 24-11 29-11 31-9 24-8 23-7 34-10 34-6 32-6 33-4"/>
<path d="M2831 5656l 0-1 9 26-10 29-8 30-4 31 7 28 26 10 30-9 24-17 22-21 18-22 14-23-6 25 12 21 25 2 22-10 15-23 8-23 12-24 5 25 1 25 17 18 23-9 22-14"/>
<path d="M3321 5648l 1-1 8-24 13-26 6-25-15-22-28 2-24 12-25 18-17 19-18 20-17 23-15 28-12 27-8 28-3 30 7 26 21 16 27-3 24-12 30-20 23-15 23-19 23-21 21-22 18-25 16-28 14-30 13-30 9-34 9-34 7-37 5-38 3-39 1-42 1-40 0-37 0-33-2-25-5-28-14-20-26 12-18 27-9 26-6 32-3 26-3 31-2 35-2 37-1 40-1 39 1 38 1 36 3 33 4 28 6 25 11 29 19 23 25 9 23-10 19-16 16-20 15-27 8-23 3-30-2-25-5-24-21 14 2 27 12 26 14 25 9 24 7 27 7 26 9 28-22 16-29-6-31-2-27 3 28-4 31 3 26 6 28 5 27 3"/>
<path d="M4309 5343l-1 1-6-25 2-32-4-24-13-24-24-7-26 10-22 17-23 25-22 28-15 22-15 25-13 28-13 32-11 35-10 37-5 38-3 39 3 38 8 37 12 34 16 30 19 26 23 20 26 14 26 8 28 2 27-3 26-8 26-13 28-16 27-20 28-21 26-25 25-27 23-27 19-29 15-26 12-30 7-32 2-35-3-41-8-43-13-46-8-23-17-43-20-37-23-30-24-22-26-14-27-7-26-2-27 5-25 8-24 14-23 16-19 17-22 26"/>
<path d="M4669 5557l-1 0-7-24-26 3-24 13-18 17-18 20-15 23-13 24-10 23-6 26 5 24 19 17 29 4 31-4 24-6 26-9 28-11"/>
<path d="M4893 5332l-1 1-3 27 10 24 20 19 18 18-5 26-8 29-5 25-3 27-9 26-15 22-15 25-18 32-11 23-10 23-11 29-3 26 14 21 24 10 25 11 26 3 27-16"/>
<path d="M4783 5564l-2-1 29-12 24-6 27-2 30-1 32 0 32 1"/>
<path d="M9411 2361l 1-4 12-22 21-13 25 8 21 15 15 20 4 27-9 26-14 24-19 26-13 20-15 22-13 25-12 25-10 23-9 23-9 29-5 25"/>
<path d="M9393 2811l-2-2-9 23"/>
</svg>
