<svg xmlns="http://www.w3.org/2000/svg" viewBox="317 347 9984 11256" stroke="black" stroke-width="32" stroke-linecap="round" stroke-linejoin="round" fill="none" data-xena="4 -176"><style>@media(prefers-color-scheme:dark){svg{background-color:black;stroke:white;}}</style>
<path d="M971 614l-1-1-24-10-31 2-23 10-27 20-20 20-22 26-22 32-23 37-22 43-11 24-10 24-10 27-9 26-8 27-8 28-5 28-5 28-5 27-2 27-1 26 0 25 5 47 12 41 18 35 21 26 23 21 24 15 25 10 25 5 44 0 38-10 38-17 38-23 38-30 34-33 30-38 22-41 17-43 10-43 3-47-2-24-3-26-7-30-10-34-13-36-15-36-18-35-21-34-23-30-25-25-26-17-24-10-25-4-33 4-30 14-20 21"/>
<path d="M979 1089l 1 0 25 7 25 17 16 23 9 25 8 27 6 27 4 25 7 30 9 22 19 16"/>
<path d="M1194 1136l 0-3 3-28 10-27 16-21 13 26-6 29-11 35-9 25-8 25-7 23-5 31 0 24 12 22 27-5 21-19 23-27 14-20 16-30 13-29 7-25 2-27-18 20-6 28 0 25 8 27 14 20 22 13 25 0 23-8 23-15"/>
<path d="M1473 1124l-2-1-27 9-19 16 17 18 27-7 24-11 21-12 20-16 14-22-19-18-25 0-27 10-21 15-17 18-15 20-12 25-1 27 22 17 25 5 33-2 36-7 23-8 23-10 23-11 23-13 19-14 25-21 16-20 10-23-10-25-27-5-18 16-7 24 6 23 19 22 21 15 20 15 19 20-16 21-24 4-30 1-30-1-25-2 25 5 26-3 26-8 33-13 22-10"/>
<path d="M1814 769l-1 0 15 25 9 24 6 29 5 31-1 31-3 31-5 33-9 33-8 35-12 35-12 35-12 33-12 31-9 28-6 24-1 25 21 14 24-11 21-14 24-19 26-22 26-21"/>
<path d="M1723 1029l-1 1 29-8 31-12 26-8 28-10 30-9 31-10"/>
<path d="M2021 979l-2 4-14 23-12 26-9 26-6 27-3 28-2 25 1 30 9 23 25-3 18-18"/>
<path d="M2066 858l-2 0-24 9-21 22-15 23-11 24-8 24-5 25-2 24 4 25 8 26 10 24 12 23 17 25 16 19 18 20 16 19 24 10 24-6 20-17 16-21 14-22 7-24-5-24-21-22-24-15-25-7-24-3 25-5 27-2 25 7 18 18 12 26 3 29-3 27-6 25 23-13 18-27 18-28 19-26 18-24 11 25-5 28-1 27 17 21 27-3 23-16 18-17 17-22 15-22 11-24 9-29 2-26-18 17 4 29 8 29 11 27 14 24 15 23 1 25-21 13-30 12-28 6-26 4-24 0 24-17 24-4 30-5 33-6 24-6"/>
<path d="M3055 1112l-1 0 12 21 25-7 20-13 26-17 31-25 35-31 18-16 19-17 20-18 19-18 19-18 18-19 17-18 17-20 16-22 13-25 13-26 12-29 9-29 7-30 4-29 2-25-2-30-19-18-27 19-17 21-19 30-20 35-20 39-18 41-18 43-16 44-15 43-12 43-11 37-9 38-9 39-8 38-7 37-7 36-4 35-4 32-3 32-1 30-1 28 0 25 2 25 3 42 8 34 9 27 20 24 30 3 25-22 17-25 16-32 15-37 10-41 5-41-1-44-6-41-8-39-9-34-9-25-11-24"/>
<path d="M3480 1085l 0-1-24-4-23 11-19 21-13 23-7 26 4 28 18 17 25 2 25-7 25-12 24-17 21-18 18-21 13-21 4-26-21-15-29 0-25 5 25-2 23-8 28-8 29-9 29-5 26-5 27-2 9 23-18 21-16 23-10 22-8 23-2 25 17 17 28 8 26 0 34-3 27-6"/>
<path d="M4346 752l-1 0 25-8 25-7 32-9 28-7 29-9 31-9 32-10 34-8 33-9 30-7"/>
<path d="M4561 703l 0 0-4 26-1 29-4 29-7 44-13 45-15 43-16 38-17 37-17 38-15 34-14 31-11 25-8 26"/>
<path d="M4657 978l-1 1-26 18-17 17-14 21-12 28-3 26 6 25 16 18 26 7 31-4 22-10 20-15 19-23 9-24-5-28-18-21-24-12 15-21 25-10 27-4 28 3 20 19 5 25-2 30-5 23-7 25 23-10 21-21 23-26 23-26 20-20 19-17 2 28-9 27-6 27-2 25 6 25 26 10 26-10 24-13 25-20 22-24 18-25 16-22 14-24 6-24-19 16-17 24-10 25-6 25-4 30-1 26 4 25 24-5 25-17 19-17 22-20 20-20 17-21 21-28 15-23 10-23-21 15-15 27-10 27-7 36-5 30-6 33-7 37-10 40-10 43-12 45-11 45-12 44-10 43-12 42-13 40-13 36-16 35-17 29-18 27-19 21-27 18-25-10-8-32 1-33 7-40 6-24 8-26 10-28 11-28 12-31 13-31 14-32 15-31 15-32 15-29 16-28 15-26 15-24 15-21 26-36 24-27 20-21 25-21 23-13 27 1"/>
<path d="M5314 1139l-1 1-20 16-15 19-17 25-16 26-15 28"/>
<path d="M5801 720l-1 0-5 25-3 25-6 42-8 47-5 25-5 23-11 44-6 23-7 24-7 23-8 25-8 23-8 23-15 42-13 34-9 26-9 22"/>
<path d="M5780 710l 0-1 19-18 31-3 29 0 35 4 26 7 29 8 30 12 31 14 30 18 41 30 24 22 20 21 15 21 19 40 3 36-6 34-14 36-21 38-30 37-16 20-18 18-19 19-20 17-20 16-21 17-20 15-21 15-20 13-40 25-38 20-36 18-33 11-29 6-24 2-27-9"/>
<path d="M6288 1132l 1-3 16-23 17-19-7-24-23 6-26 17-21 18-19 21-14 21-10 22 17 18 28-4 24-9 22-9 24-14 20-12 20 15 12 22 19 16 24-15 20-18 19-17 18-18 0 26 5 24 25 4 19-16 19-19 17-21 18-17 8 24 7 25 0 29 1 25 29 4"/>
<path d="M6667 1114l-1-1-7 24 2 26-10 25 23-20 17-18 17-18 20-22 17-18 4 27-5 27-5 28 1 25 17 17 27-13"/>
<path d="M6867 1102l 0-1-7 29-4 26-5 25-2 27 9 24 26-4 25-20 21-20 20-20 18-21 14-20 12-21-15 22-11 23-12 30-12 33-7 25-6 27-6 28-7 31-6 33-8 33-8 33-10 34-11 35-13 34-13 31-13 28-13 24-16 28-19 22-27-9-5-25 0-25 5-35 11-40 16-47 10-25 10-25 13-26 11-23 13-24 13-23 13-21 25-37 23-30 21-23 18-16 23-15 30-9 27 2 26 7"/>
<path d="M1273 2230l-2 1-21 14 19 16 29-11 24-17 20-17 20-20 22-24 22-24 25-27 24-26 22-26 20-24 14-23 13-21 11-26 6-24-9 23-8 29-6 23-6 27-5 25-5 26-3 28-3 29-2 30-2 29-2 29-1 27-2 27-2 26-3 25-2 25-3 32 0 28 0 29"/>
<path d="M1349 2548l 0-1 26-6 28-5 26-8 32-9 34-9 33-8 27-5 30-3"/>
<path d="M1672 2528l-1-1"/>
<path d="M1969 2506l-1 1-6 24 3 27 21 12 24-18 18-18 20-24 22-30 26-33 27-37 27-40 26-38 24-40 20-40 18-42 13-42 12-43 10-41 9-38 8-34 7-25 6-26-5 29-8 36-5 31-5 34-5 39-3 42-3 43-1 47 0 45 2 46 5 45 6 40 7 35 6 30 7 24 14 25 18 18"/>
<path d="M2123 2425l-1-1 25-8 35-8 28-7 32-7 34-8 33-8 34-7 32-6"/>
<path d="M2449 2389l-1-1 23-13 24-3 26 2 14 21-15 24-17 24-19 23-16 24-13 23 8 24 30-2 28-8 32-13"/>
<path d="M2657 2428l-1 0 27 6 25-12 23-12 14-19-24-9-25-3-29 1-26 5-18 17-7 25 0 27 7 28 17 22 23 10 35 3 33-5"/>
<path d="M3157 2490l 1 1 18 17 27 3 25-10 26-14 22-14 22-18 25-21 27-25 27-29 28-31 29-35 28-39 14-21 12-22 12-22 11-23 9-23 8-24 8-23 13-44 9-40 6-34 2-26-3-24-29-4-24 19-19 20-18 27-19 32-20 39-10 23-10 24-10 27-11 28-11 31-11 33-11 33-12 35-10 35-11 37-10 35-10 35-8 33-8 32-6 31-5 29-4 27-3 25-2 24 0 42 4 33 5 26 13 26 18 17 25-12 20-24 14-22 12-24 11-25 8-27 5-26 2-27 0-27-3-27-4-26-5-25-10-29-13-26"/>
<path d="M3556 2334l-1-1-23 12-5 26-1 24-1 32 2 30"/>
<path d="M3596 2256l-1 1-23 16-3 26"/>
<path d="M3615 2364l 0 1 2 26 2 27-6 25-12 22 22-16 21-25 21-24 17-17 22-17 10 24-11 25-8 25 17 19 24-6 23-10"/>
<path d="M3837 2385l 0 1 27 8 24-10 20-15 18-19-13-24-26-12-25 0-26 12-16 21-9 27 3 29 11 23 16 19 22 11 25 2 30-4"/>
<path d="M4131 2266l 1-1 32-6 25-4 30-5 35-7 36-8"/>
<path d="M4551 2025l 1-1 15 25 3 33-3 34-5 26-7 29-12 33-14 34-16 37-16 37-17 37-15 36-14 33-10 27-8 30 11 22 27-5 33-15 26-16 26-17 26-18"/>
<path d="M4478 2280l-4 1-23 6 25-8 29-10 31-8 28-7 25-5 28-1 25 3 3 25-12 23-11 22-11 25-8 23 1 26 30 2 22-9 25-14 21-17 18-18 9-23-20 16 1 25 14 21 25 7"/>
<path d="M4821 2321l-1 1-17 21-11 23-11 24 26-4 21-20 20-21 21-20 21-13 0 25-6 28-6 25 2 26 20 17 31-7 21-12 22-17 15-20 3-25 20 15 27-5 23-7 24-13 11-22-24-13-25-2-25 8-20 17-12 22-1 25 14 23 21 13 31 6"/>
<path d="M5325 2354l-2-3-19-15-24-13-23 7-23 11-25 14-23 16-20 16-16 20 0 25 28 11 29-8 26-12 28-21 20-16 18-18 17-19 13-21 10-24 7-26 5-29 2-30 1-31 1-33 1-32 1-32 2-30 0-26 0-27-13-23-25 18-17 27-10 28-8 34-3 27-4 31-3 33-2 32 0 33 0 30 2 29 5 26 10 31 17 24 23 18 30 8"/>
<path d="M5739 2244l 0-2 6-24-10 31-7 28-10 31-10 30-9 27-9 25 23-16 17-27 13-22 12-22 20-30 18-25 16-18 20-14 1 27-7 27-8 29-7 26 2 24 23-15 19-18 22-21 23-22 21-20 22-20-1 26-5 25 2 25 12 21 25 7 24-3 32-9 23-9 22-10 29-16 19-14 13-21-22-10-25 6-24 14-17 19 3 24 25 13 28 1 30-5 28-9 22-13 7-23-16-19-21-15-27-12"/>
<path d="M6391 2222l-1-1-25-17-27-4-28 5-23 10-25 16-23 20-19 24-13 22-2 28 23 12 26-2 33-10 25-12 26-13 24-17 22-17 18-19 20-29 13-30 5-34 2-25-1-26-1-27-2-28-2-30-2-29-2-27-5-31-14-20-17 23-8 26-6 34-3 26-2 28-2 30-1 34-2 35-2 35-1 33-2 30 0 26 3 33 7 25 15 19 26 2 24-9"/>
<path d="M6513 2243l-3-1-23 7 22 15 27 3 28-2 27-9 20-19-9-23-27-11-27-4-28 4-27 11-22 18-16 23-6 28 13 25 22 15 31 9 30 0 33-6 24-8 23-11 24-15 21-18 19-19 16-20 13-21 10-22 7-23 4-27 3-29 1-30 1-32 1-32 1-31-1-27-2-27-28 4-14 21-12 30-5 24-5 26-5 30-4 31-3 34-3 33-2 34-2 32-1 30 1 27 3 24 9 30 13 20 24 14 33-1 25-11 22-16 20-17 15-21 3-26 5-27 18-20 21-20 18-17-15-21-23 7-14 22-1 24 7 25 9 26 13 25 16 24 14 20 12 23-10 22-30-2-29-4-26-4 25 3 24 0 27 0 30 0 30 0 29 0"/>
<path d="M7573 2271l 1-4 6-26 7-29 1-26-7-24-26-10-32 12-30 20-22 17-22 21-21 22-20 23-16 23-14 21-11 27 0 25 22 9 23-6 29-14 20-14 19-15 25-23 19-20 15-20-13 22-3 27 16 21 28-2 22-14 23-21 17-24 10-22-5-25-21 19-11 27-8 31 0 28 8 25 23 10 27-15 20-18 22-27 15-19 14-20 14-28 8-27 1-31-7-25-22 15"/>
<path d="M7883 2262l-3-3-22-21-22-16-25-2-24 13-18 22-16 25-9 23 8 25 29 8 29-3 24-7 25-8 26-12 16-18 4 24 25 9 27-3"/>
<path d="M8001 2264l-1-1-19 18-5 25 2 26 19 18"/>
<path d="M8013 2092l-2-1-24 5 12 23 20 20"/>
<path d="M8041 2324l-1 1 21 16 22-12 27-20 20-19 21-20 22-22 21-25 21-25 18-28 17-30 12-30 9-33 5-37 2-38-1-39-2-40-3-34-5-27-9-27-26-9-25 20-20 29-12 24-10 28-8 33-7 36-5 41-3 43-2 45 1 43 4 40 5 36 8 31 10 28 12 24 12 21 18 23 21 15"/>
<path d="M8393 2303l-1-4-6-25 1-25-22 10-21 18-20 17-15 20 18 18 27-2 27-10 19-15 22 14 28 0 30-12 29-15 21-15 23-17 24-18 22-21 21-22 18-22 14-26 10-27 5-30 3-31 1-34 0-36-2-34-1-30-6-28-24-10-21 21-18 30-12 27-12 31-11 35-11 37-9 39-8 40-6 41-3 39 0 35 3 31 5 26 11 29 12 21 22 11 27-4 19-14 16-21 9-28-10-25-21-13-25-2-26 2 25-12 28-14 25-13 25-16 26-18"/>
<path d="M8778 2002l-1-9-3-36-3-29-4-29-21 15-5 31-3 26-4 30-3 32-4 34-4 35-4 36-5 35-4 36-3 34-3 30 0 27 3 33 9 23 23 14 32-13 19-14"/>
<path d="M8854 2230l-1 1 27 10 30-6 30-10 23-11 10-23-23-11-26 1-29 7-25 14-20 18-14 21-6 24 9 26 24 14 30 5 27-2 34-7 24-8"/>
<path d="M9548 2210l-1-1-28-4-25 5-27 13-24 20-16 22-3 27 19 19 27 5 26-4 24-9 20-16 6-24-9-25-10-24 10-23 22-10 25-3 25 8 18 19 1 26-9 25-9 22 22-13 19-19 21-19 20-18 21-15 21-15 14 21-8 26-8 23-7 30-1 26 6 29"/>
<path d="M2012 3374l-1 0 27-9 27-11 26-16 24-18 20-19-14-23-30-4-28 2-29 7-29 13-26 19-21 25-16 26-10 25-3 30 11 24 23 15 25 5 30-3 24-5 24-9 25-13 25-12 25-15 20-15 26-23 16-23 13-22-22 18-8 26-5 27-1 25 6 25 25 14"/>
<path d="M2281 3124l-1 0"/>
<path d="M2424 3029l 1 0 10 29 5 32-2 33-3 26-5 29-7 31-9 34-11 34-14 36-14 35-12 32-10 28-13 31-7 26 25 3 22-21 23-28 17-27 10-24 0-27-14-26-23-15-27-10-25-5 20-17 27-13 28-15 27-18 22-20 21-22 17-21 14-21 9-25 7-25 5-28 6-29-6 33-2 24-1 27-2 31-3 35-5 37-7 40-8 42-11 40-10 38-11 35-8 29-6 25-6 25 28-19 15-20 16-24 16-24 14-24 13-21 14-25 10 26-1 28 20 16 27-3 23-8 25-13 15-20 26-6 26 0 24-12 20-19 13-23-1-24-26-7-21 14-19 21-12 21-10 24-5 28 7 29 16 20 29 7 25-3 30-7"/>
<path d="M2935 3289l-1-1 24-12 26 2 1 27-15 22-13 21-13 23-8 25 18 17 25-1 25-7"/>
<path d="M3709 3091l-1-2-23-10-17 18-15 23-16 31-10 23-9 23-6 34 0 30 9 26 15 20 22 13 25 7 32 0 25-5 25-7 25-12 23-13 20-17 17-18 19-31 6-34-4-25-8-25-15-27-16-25-19-23-21-20-22-15-30-13-27 1-23 9-17 19-12 23-2 26"/>
<path d="M3925 3291l 0 0 17-21 20-18 27-24 20-19 20-20 20-22 20-23 19-27 16-27 12-30 9-30 5-28 3-33-4-25-22 16-9 32 0 29 6 34 10 34 7 25 8 26 7 25 8 27 7 25 9 33 9 30 7 23 14 24"/>
<path d="M3987 3191l-4-1 31-14 26-6 30-7 31-8 33-7 34-7"/>
<path d="M4321 2980l-2-1 23-13 34-5 26-2 25-4 25-3 24-3 34-4 26-4"/>
<path d="M4459 2970l-1 0-25 11-13 26-6 24-4 28-5 32-5 33-7 35-7 32-7 31-5 27-4 25"/>
<path d="M4303 3261l-3-1-23-9 30-5 29-5 32-6 32-6 33-5 32-4 33-5 31-3 28-3"/>
<path d="M5094 3152l 0-3-24-13-22 9-20 14-19 19-16 20-13 24 3 26 27 11 24-2 29-6 29-10 24-13 20-16-4-26-23-19-22-17"/>
<path d="M5206 3114l 1-1 20-13 28-5 25 2 3 24-19 17-23 19-20 19-14 20 10 23 25 2 28-4"/>
<path d="M5440 3154l 0-1-11-23-22-10-25 1-24 10-21 14-20 18-15 20-11 23 12 22 28 0 32-8 23-7 23-9 30-14 21-15 18-17-25 1-14 26-6 30-2 28 0 35 0 26 0 29-2 33-3 35-7 37-10 40-12 39-14 40-17 38-17 33-20 32-20 26-20 21-18 16-24 11-26-5-15-21-7-36-1-30 3-37 9-41 12-45 8-24 9-22 10-23 11-23 12-22 26-39 26-34 26-29 27-23 27-18 28-16 30-13 31-11 31-9 30-4"/>
<path d="M6153 3122l 1-3-2-26-25-3-30 13-28 18-20 15-17 16-18 17-20 27-16 27-9 25 1 26 22 21 27 3 35-5 27-10 28-12 31-16"/>
<path d="M6276 2853l-1-1-12 24 0 34-1 29-5 30-5 33-7 35-9 35-10 37-11 35-11 33-11 30-9 25-12 32-10 25 22-19 23-29 17-23 18-24 15-22 15-20 18-26 16-20 19-21 7 23-10 28-10 24-6 24-6 27-3 27 16 19 24-2 30-12"/>
<path d="M6426 3163l-1-1 28 2 25-5 24-7 21-12-24-17-24-3-25 2-28 10-23 17-17 24-6 24 9 26 21 17 30 7 34-2 27-4 29-7"/>
<path d="M6706 3140l-2-1-25-8-24 0-26 10-24 17-22 21-17 22-11 24-1 28 17 21 26 1 30-8 25-10"/>
<path d="M6784 2891l-1-1-10 27 6 33 4 32 0 27-3 30-5 33-9 33-11 35-14 32-15 33-16 31-15 28-13 24-12 28 20-25 11-24 12-25 11-27 11-26 10-25 11-24 15-27 17-21 25-10 28 4 24 11-2 28-19 16-23 16-28 18-28 18-24 18-19 17-16 21 20 17 28 1 27-3 31-5 32-7"/>
<path d="M6948 3137l-1-1 16 20-1 24-8 25-9 24-11 28-12 32-8 24-10 25-9 26-8 24-8 24-8 23-12 31-9 25"/>
<path d="M6971 3135l 1-2 4-24 24 5 29 9 24 11 22 14 17 22 4 29-16 25-18 17-23 16-27 15-30 14-27 11-29 8"/>
<path d="M7194 3176l-1-3-18-16-22 13-6 23-6 25 2 25 19 19 30 0 29-9 23-11 25-16 17-21-6-26-23-14-25-6-24-2 22 10 25 0"/>
<path d="M7403 3129l 0 0-19 15-11 24-4 26 7 24"/>
<path d="M7440 3026l-2-1-17 18"/>
<path d="M7466 3141l 1 1 0 26 5 25 26-8 19-21 23-11 12 23 7 25 15 21 30-4"/>
<path d="M7798 2865l 0-4-19 16-7 27-7 34-6 25-7 28-8 30-10 34-10 35-10 34-10 33-9 29-8 26-8 32-2 29 12 21 24-8"/>
<path d="M7659 3073l-4-2-21-14 26-12 31-7 27-6 29-4 31-4 33-5"/>
<path d="M8240 3248l 2-1 22-10 25-16 22-14 23-18 27-20 30-23 31-26 33-29 34-34 18-18 18-18 17-20 17-20 16-22 15-23 15-24 13-24 13-24 10-25 11-25 9-25 7-24 11-43 5-39 1-29-6-27-27-8-23 14-19 18-20 24-20 30-19 34-17 39-15 41-13 44-11 44-8 45-6 43-2 42 0 39 1 35 4 31 8 27 12 22 22 24 31 13 25 1 27-2 30-9"/>
<path d="M8760 2976l-3 1-23 8-20 14-20 25-10 25-5 27-3 27 1 26 5 25 12 27"/>
<path d="M8813 2862l-4 0-25 11-16 20 8 30"/>
<path d="M8851 3140l 0 0 26-7 26-17 28-18 28-21 21-20 15-19 3-26-18-17-23 12-1 28 12 21 17 24 17 24 13 26-1 29-17 20-22 12-28 8-27 0-25-5 21-15 26-3 25-3 30-4 33-4 24-4 25-6"/>
<path d="M9242 2776l-1-1 4 28 1 33-6 34-7 26-9 27-11 29-13 28-14 30-18 31-17 31-16 30-14 25-10 22-8 26 5 24 27 7 28-5 35-11 25-10 28-13 25-14"/>
<path d="M9083 2979l-5-1-25-3 24-6 34-3 26-1 27 0 29 0 31-2 30-1 31-2 29-1"/>
<path d="M9422 2776l 4-4 20-15 29-18 30-12 29-7 28-4 29 0 22 11-3 28-13 22-21 27-16 20-17 21-17 22-17 21-15 22-14 20-17 27-12 25-9 25-3 28 9 23"/>
<path d="M9495 3189l 0-1"/>
<path d="M1319 3958l-1-1-9-23 19-19 23-16 24-12 30-10 25-3 24 0 27 8 19 17 10 25 0 29-8 28-14 32-17 22-18 26-23 26-25 27-26 29-27 26-28 26-27 23-26 22-24 22-20 17-27 21-20 14 28-9 32-12 23-7 35-9 35-7 32-3 31 2 27 5 23 8 24 14 18 21 2 25-9 27"/>
<path d="M1565 4341l-1-1 22-15"/>
<path d="M1806 4014l 1-6 8-32 10-26 10-23 12 25-3 27-7 32-9 37-11 37-12 37-13 36-10 34-8 33-5 30-2 26 2 29 19 20 24-7 30-23 25-24 23-28 23-28 19-25 13-23 13-29 4-24-4-25-15 24-12 32-8 24-5 24-1 25 5 32 10 25 19 18 29 0 24-13 26-23 18-21 18-23 17-25 16-25 13-26 9-26 5-26 1-25-2-25-4-27-6-28-7-27-8-25-10-28-13-20-20 19-3 28"/>
<path d="M2216 3865l 0 0 7 29 6 24 4 32 2 25 0 28-3 31-4 33-7 34-9 35-10 33-10 33-10 33-10 30-10 27-10 28 13-21 15-28 18-32 19-30 18-30 17-25 15-21 17-26 15-19 7 28-2 25-2 28-2 28 0 27 2 25 15 22"/>
<path d="M2496 4164l 0-3-14-22-25-2-24 16-20 19-18 19-12 24 24 13 28-4 22-9 22-12 3 24 25 0 25-18 25-20 18-16 20-19"/>
<path d="M2704 3886l-1-4-11-24-22 17-10 28-7 29-9 35-6 27-5 29-6 29-5 29-4 28-5 28-4 28-4 25-2 25 1 29 9 25 25 5 20-18"/>
<path d="M2471 4114l-2-1 21-21 36-12 29-7 33-8 36-7 38-6 40-7"/>
<path d="M3475 3781l 1-1 10-24 22 11-7 24-10 23-12 28-14 31-16 34-16 37-16 37-14 36-12 37-10 34-5 31-2 27 1 31 14 26 22 11 25-5 29-14 26-21 19-22 6-28-15-27-22-17-26-19-27-14-25-12-30-11-26-8 4-27 22-12 28-11 33-8 34-6 33-4 26-1 27 6 10 26-10 23-13 27-13 26-11 23-6 27 24-1 23-14 28-22 26-21 21-21 16-19 14-20-9 23-6 31-2 27-1 30-2 35-2 25-4 27-6 28-8 31-10 31-10 32-13 30-14 28-13 28-12 25-11 23-16 28-15 21-21 19-22 9-25-6-18-21 1-26 10-33 11-27 14-34 17-39 18-45 10-22 10-24 11-23 10-22 22-41 21-33 20-26 18-21 24-23 22-12 28-7 24-1"/>
<path d="M3761 4057l 1-2-1 32-7 34-8 27-9 30-12 35-11 36-14 37-13 37-13 35-12 33-12 30-9 25-10 28 9-27 10-29 11-33 11-38 10-41 9-43 8-44 6-41 6-36 6-30 4-25 7-28 10-23 19-18 25-2 25 7 23 14 17 19 5 24-7 29-14 24-19 23-23 20-23 17-25 15"/>
<path d="M3944 4065l-1-1-3 25 25 9 27 1 26-5 26-8 15-20-16-22-25-13-28-7-27-2-26 12-15 22-6 25 1 25 6 28 12 25 23 21 28 11 27 4 35-1"/>
<path d="M4532 4073l-3-1-26 1-26 7-23 14-19 24-12 29-3 25 5 30 14 20 26 9 28-3 30-11 28-19 22-22 12-22 2-24-12-26-19-20-25 0 25 8 28-8 24-10 29-12 33-18 36-20 35-24 33-26 30-28 26-27 21-27 15-29 12-31 7-32 4-33 3-31 0-28-4-31-22-15-20 13-18 19-20 25-20 36-20 43-10 24-10 26-10 29-11 30-11 31-10 32-11 34-10 35-9 35-10 37-8 37-7 38-7 37-5 38-4 36-4 35-3 32-2 32-2 28-1 26 1 43 5 34 8 22 20 19 28 2 31-16 22-19 20-26 17-30 11-34 5-38-3-40-8-45-12-47-13-46-15-42-16-34-16-24-24-22-28-7-23 14-5 24 15 21 25 12 23 6 28 2 32 0"/>
<path d="M5349 3819l-2-1 25 3 32-1 25-3 27-4 29-5 29-5 31-7 29-5 27-6 32-5"/>
<path d="M5421 3817l-3 1-23 8-23 18-18 24-14 21-13 24-11 31-6 24-7 25-6 28-6 27-6 28-5 27-5 27-6 25-8 32-8 29"/>
<path d="M5256 4015l 0-1 25-9 24-5 34-5 25-5 27-6 29-6 29-7 28-5 26-4 24-4 35-4"/>
<path d="M5660 3829l 1-1 28-11 27-7 36-6 25-5 25-4 24-4 35-3 29-3 27 0"/>
<path d="M5783 3834l-1 0-14 22-6 27-3 27-3 33-4 35-5 27-5 27-5 27-7 28-7 28-8 27-6 26-8 34-4 26 4 25"/>
<path d="M6289 4069l-1 0-23 16-13 23-11 31-6 24-5 24-2 27 13 21"/>
<path d="M6353 3947l-1 0-21 14-1 28"/>
<path d="M6391 4093l 0-1-24 8-17 19-9 23 19 16 25 6 27 5 24 10-2 24-19 21-23 13-23 7-24 3-25-4-15-19"/>
<path d="M6976 3921l 1-1-22-9-23 11-28 20-27 26-15 21-14 22-11 23-8 23-5 33 3 30 12 23 18 18 28 9 37 1 28-6 32-9 33-13 34-16 31-19 27-21 23-20 15-23 10-22 1-33-11-34-12-23-16-23-16-22-18-22-17-20-16-20-22-22-23-11-24 13-19 21-14 27-5 29"/>
<path d="M7101 4152l 0-1 24-12 25-13 30-21 22-16 23-18 24-20 23-23 20-23 18-26 12-26 10-28 6-28 4-28 1-26 0-35-2-25-14 23-5 30-3 24-2 24 0 27 1 28 2 30 4 30 4 29 5 27 7 25 10 33 12 26 13 22"/>
<path d="M7182 4044l-2-1 35-5 27-3 31-2 33-3 32-4 34-3 32-3 30-3"/>
<path d="M7508 3844l-1-2 18-19 31-6 28-3 26-1 27-3 27 0 30 3"/>
<path d="M7596 3856l 0 0-12 21 0 28-2 30-2 28-1 30-2 31-6 31-9 32-11 33-11 31"/>
<path d="M7452 4153l-1-2 25-9 27-2 28-2 35-3 35-1 34-2 28-3 31 0"/>
<path d="M7798 3830l 2-4 17-22 24-11 26 1 28 9 25 13 20 18 12 26-6 28-15 25-20 26-25 26-17 17-22 23-16 19-11 23"/>
<path d="M7848 4170l 0-1 1 26"/>
<path d="M1198 4922l 1-2 13-24 27-14 30-10 25-4 25-1 25 3 23 11 14 25-9 23-17 20-24 20-27 19-27 17-25 13-25 12 27-5 31-7 36-4 35 2 33 10 29 12 26 18 23 18 20 19 15 25 0 30-15 25-23 28-22 20-23 18-27 17-29 15-29 12-28 10-28 7-25 2-34 1-29-4-24-13-4-28 20-18"/>
<path d="M1572 5279l-4-1-25-10"/>
<path d="M1930 4937l 0-4 0-24 7-26 20-14 19 17 8 24 5 34 0 30-3 34-5 37-5 38-6 40-6 40-8 36-6 37-9 33-7 30-5 27-5 29"/>
<path d="M2181 4812l-3 2-16 24-14 31-6 24-5 25-4 28-2 28 1 31 1 32 4 34 4 35 4 35 5 35 4 34 3 31 3 26 2 30 8 25"/>
<path d="M1911 5245l-1-2 3-27 23-22 20-15 24-15 28-17 32-16 35-15 35-12"/>
<path d="M2301 5143l-2-3-23-16-24 0-21 21-15 27-15 33-9 23-9 29-3 28 16 19 29-5 21-12 23-14 19-18 20-22 12-21 10 23 23 9 23-10 23-20 13-20 15-27 8-25-9-22 19 16 25-7 25 3-1 27-14 25-11 24-11 24-6 25 22 15 23-11 23-21 20-25 14-25 8-23 14 21 1 30-2 29-4 26 14-21 12-28 11-27 11-24 18 18 2 29-1 29 0 25 24-12 13-25 11-23 12-25 12 22 6 25 18 20 20 13 25-5 23-15 25-22 20-25 20-29 14-21 13-25 13-24 11-25 10-27 9-26 7-28 5-31 3-30 2-31 0-28-1-33-6-25-18 26-12 35-9 32-8 37-8 43-7 46-3 24-3 26-4 28-2 28-3 28-2 30-1 30-2 29 0 29 0 29 0 28 0 25 2 25 4 42 6 36 10 31 10 22 17 21 22 11 18-24 8-34 5-27 0-28-2-29-6-29-10-30-13-28-15-27-16-25-17-22-16-18-22-17-24-8 28 9 27-9 31-12 23-11"/>
<path d="M3019 5189l 1-4 15-24 16-21 17-18 22-19 23-10 3 27-9 25-13 31-9 22-12 30-7 26 24 6 20-22 15-21 13-21 12-26 8-24 7 28 13 24 22 12 26-13 21-22 16-21 16-24 16-25 15-26 13-27 10-28 7-27 3-28-1-28-3-27-5-26-5-23-9-25-14-20-16 20-12 29-8 26-4 29-2 31 0 25 1 27 0 30 2 33 1 33 2 35 4 32 4 31 7 27 11 30 16 20 27 8 26-7"/>
<path d="M3897 5172l-1 1 24-7 23-20 18-18 21-20 22-24 23-26 20-25 15-22 11-23-5-25-17 16 17 19 23 11 22 14 14 22-12 25-14 22-15 26-13 22-7 23 24-2 23-13 25-15 24-12 22-13 21-14 26-2 21-15 19-19 18-20 11-24-21-13-25 8-21 12-22 17-22 23-18 26-13 27-3 31 12 26 22 10 29 4 33-4 23-6 25-10 25-13 25-16 24-17 21-18 18-18 19-27 10-23 2-25-11-25-21-12-13 25-1 25 6 27 12 25 13 23 13 22 8 27-7 23-24 14-25 4-26 1-24-6 25 0 29-3 27-7 29-11 29-14"/>
<path d="M4571 5042l-1-1-10 22 2 30 4 25 4 30 4 32 1 36 0 27-4 30-6 32-8 34-10 36-12 35-14 33-12 30-11 23-12 22-1-32 3-24 4-30 5-34 6-37 6-39 6-39 6-38 7-35 7-32 8-27 11-31 9-23 13-21 20-18 24-9 27-1 26 7 14 21-7 26-15 26-20 26-23 27-18 24-18 23"/>
<path d="M4786 5052l-1 0-24 16-21 23-13 20-12 25 1 25 26 5 20-16 16-20 13-25 9-24 11-25 13-25 15-24 18 16 6 25 4 28 4 24 22-12 21-16 24-6 24 2 16 20 26-2 17-22 12-24 9-24 8-25 5 28 12 24 15 20 16 20-3 25-17 18-24 12-26 2-19-14 12-22 19-16"/>
<path d="M5188 5029l 0 0 28-6 23-7 27-11 24-13 21-18-12-24-29 1-28 11-21 13-18 18-17 27-7 25 10 27 20 14 25 7 30-3 23-8 22-14 23-18 19-20 18-24 10-24-23 8 2 25 15 24 16 19 18 17-20 13-30 6-24 7 21 14 25-4 24-5 26-9"/>
<path d="M5561 4752l 0-3 13-21 31 2 28 11 27 17 22 21 15 24 5 31-4 30-9 32-11 34-12 30-13 27-11 24"/>
<path d="M5661 5068l 1 1 11 23"/>
<path d="M9180 3740l 0-1-10 23-7 24-9 34-11 43-6 25-7 27-6 29-7 31-6 33-7 34-6 36-5 36-6 37-4 38-4 38-4 39-4 38-2 39-2 39-1 40 0 40 0 40 0 40 1 41 2 41 1 40 2 42 2 40 2 41 2 42 2 40 3 42 2 40 3 40 2 40 3 39 3 39 3 38 4 37 3 35 4 35 4 34 5 31 5 31 4 29 5 27 5 25 5 25 9 44 9 38 8 31 7 23 9 25-6-24-10-37"/>
<path d="M8482 6649l-1-1 21-13 22-12 26-8 28-8 27-8 29-9 27-10 23-10"/>
<path d="M8857 6875l-1-1 18-18 16-27 13-25 14-26 15-29 9-22 10-22 12-34 8-30 2-31 0-29-1-27-3-25 9 25 13 20 16 21 16 22 17 22 16 22 14 23 16 23 9 24-12 24-23 12-23 9-24 7-26 3 24 4 25-5 25-11 26-13 21-12 25-16 22-14"/>
<path d="M9142 6177l 1 0 14 19 6 28 5 32 3 25 2 29 2 31 2 32 1 34 1 34 1 35 1 32 2 32 3 31 4 26 9 31 11 22 15 21 21 15 27-1 23-14 20-18 20-24 20-28 12-23"/>
<path d="M9068 6468l 2-2 23-20 23-13 28-14 33-15 22-10 24-11 24-10"/>
<path d="M9322 6458l-1 1 27 7 23-11 25-16 20-15 22-22 18-20 11-24-16-24-28-7-25 7-21 17-14 20-12 23-10 23-5 32 2 32 10 27 18 25 20 15 28 6 34-5 27-12 29-15 32-18"/>
<path d="M9727 6290l-6-1-31-3-29 1-29 6-24 12-17 19-17 24-13 28-6 24 5 27 24 12 29-3 23-11 22-16 20-20 18-23 14-22 12-21 3 26-3 32-1 25 1 27 2 26 4 27 6 29 7 29 7 29 9 30 6 31 7 33 4 34 3 34 1 34-2 35-5 37-8 38-12 37-13 30-15 23-21 18-26-9-17-27-8-27-7-34-4-40-2-44 1-48 4-45 6-42 9-37 12-33 16-30 17-30 23-27 26-28 30-27 34-28"/>
<path d="M998 3151l-3-3-24-3-14 23-18 34-15 30-18 38-22 42-11 24-11 25-13 26-12 29-13 29-12 32-13 33-13 34-13 36-14 37-13 38-13 40-15 44-8 23-8 28-9 27-9 30-9 33-9 34-9 36-10 38-9 40-9 44-9 43-8 47-9 48-9 52-6 52-6 53-4 53-3 52-1 55-1 53 1 55 2 55 3 55 4 54 6 55 8 54 16 107 19 98 20 92 21 86 21 78 22 72 21 64 19 57 20 53 21 54 21 52 21 51 24 51 24 49 25 47 26 46 29 45 29 42 30 41 33 39 32 37 33 36 35 34 37 31 38 31 38 29 38 27 39 25 40 24 41 22 41 20 42 19 41 17 41 15 43 13 44 13 43 10 42 10 44 8 43 7 44 7 44 5 42 5 41 5 40 3 39 3 39 2 36 2 36 2 32 1 32 0 30 0 29 0 27 1 24 0 44 1 37 0 30 1 25 2 29-3 31-5 26-9"/>
<path d="M2868 6652l 1-2-10-24-26-1-22 16-18 21-17 29-12 22-10 26-10 28-8 29-7 27-4 26 0 30 12 24 27 8 29-5 24-13 27-17 28-25"/>
<path d="M2984 6722l-3 2-22 19-16 23-4 25 10 23 21 14 29-4 21-16 19-21 14-22 2-27-21-16-29-9-27-1"/>
<path d="M3206 6635l-2-1-27-9-27 4-21 17-17 21-14 28-13 32-9 32-4 28 4 27 22 15 28-15 26-23 20-22 19-28 17-35 16-35 12-37 8-35 3-34-2-32-6-32-9-31-11-31-12-33-12-33-13-29-10-24-17-22-23 18-3 27-1 36 2 26 3 27 6 28 7 31 9 32 12 33 13 32 14 31 14 28 15 26 15 22 24 24 25 12 25 2 28-10"/>
<path d="M3368 6610l-1 2 20 15 25-11 25-19 22-23 15-23 4-25-19-17-30-2-27 11-19 16-17 22-13 28-8 29-3 29 4 27 9 22 22 21 24 9 29-2 23-8 25-12 26-18"/>
<path d="M3570 6620l 0 0 25-6 24-18 22-23 23-30 14-24 14-25 13-29 12-31 9-30 5-33 0-32-3-31-7-33-9-32-11-32-11-30-11-26-15-24-25-9-21 22-10 27-5 27-4 29-3 36-1 40 1 43 5 45 8 43 10 41 12 35 13 33 13 26 14 22 20 26 20 16 30 7 31-9 22-15 19-26 14-29 5-29-4-25-13-23-19-21-24-16-23-6-25 3-22 10-23 18-13 22 24 10"/>
<path d="M3915 6407l-1-1-25 5-15 21-13 25-10 22-10 32-2 26 9 23 23 8 23-7 23-19 16-20 16-26 7-26-8-24-25 10-12 23 5 26 24 5 24-9 22-15 25-21 16-19 14-20 14-24 4-28-9-25-24-7-5 25 12 28 21 20 22 14 25 14 23 13 25 16 17 17 7 26-25 13-24 0-28-6-24-5-8-24 22-17 23-13 23-13 22-13 25-15 25-11 25-6 22-8 23-13 18-19 15-23 12-26-2-27-23-6-28 13-21 21-15 23-14 25-9 25-1 28 8 25 17 18 22 12 28 6 32-3 26-10 28-15 29-20 20-15"/>
<path d="M4469 6164l-1-1 26-8 31-10 26-8 29-9 31-10 32-10 34-14 36-12 35-12 37-12 35-9 36-11 34-10 32-12 30-9 27-8 26-7 24-5 33-7 27-7 26-5 23 6"/>
<path d="M1197 7478l-1-2 3 29-3 27-10 32-8 25-11 28-13 27-13 32-16 33-17 33-14 31-13 27-10 30 5 25 32 4 31-10 28-10 29-13 31-15 23-11 23-12 23-12 25-13 24-14 24-12 21-13 26-15"/>
<path d="M1277 7592l-1-1-9 25 1 29 0 24 0 29 0 33 0 32 0 35 3 35 1 33 1 32 3 30 1 29 2 26 6 33"/>
<path d="M1470 7979l-1-1"/>
<path d="M1776 7523l-2 1-22 9 28-7 22-10 25-13 28-14 30-14 32-13 23-9 33-12 29-9"/>
<path d="M1905 7509l-2 0-10 24 3 25 5 35 3 27 2 30 3 34 0 38 2 39 0 39 0 38-2 34 0 30-1 25 1 24"/>
<path d="M2020 7533l 0 0 14 25 10 29 9 25 8 33 6 24 4 28 3 30 2 30 0 32-2 30-2 30-3 27-3 24-2 25 9-35 6-27 8-30 7-29 8-27 9-27 10-32 9-24 24-5 7 25 3 25 1 30 1 28 2 27 7 28 16 17 26-5 19-15 18-20 17-22 15-20 13-23-1 27-4 28 3 25 22 15 23-14 15-19 12-25 7-24-8-23-24-12 27-4 25-14 23-10 15 20 0 27-1 25 8 23 23-15 14-22 11-23 15 20 6 26 16 18 26-2"/>
<path d="M2732 7738l-1-3-13-27-8-23-19-16-27 3-25 20-19 24-19 30-12 31-5 26 5 26 22 18 30-2 25-18 16-20 12-22 11-26 6-25-3 29 5 31 9 23 11 22 14 25 12 29 9 35 4 25 1 27 0 29-2 33-5 34-5 31-9 30-10 25-12 22-22 23-24 10-26-3-27-18-18-22-20-29-17-37-15-44-7-23-6-25-3-26-2-26-1-26 0-25 1-24 6-45 11-42 12-40 15-38"/>
<path d="M2768 7388l-1 0 0 24 10 22 13 30 9 24 9 28 8 31 6 35 3 37 2 40 0 40-1 40-3 38-4 34-2 26-3 25 8-23 9-35 7-28 7-28 8-25 11-32 10-23 20 17 8 29 10 28 15 20 24 6 23-18 15-23 13-30 12-30 10-24 10-23-5-23 5 25 13 23 15 22 13 22 12 21 5 24-2 28-16 22-23 14-28 11-27 8 22-20 26-9 25-6 29-8"/>
<path d="M3712 7665l 2-2 14-22-16-18-25 11-17 21-6 26 9 26 20 18 25 7 28-8 20-20 2-25-14-22-11-25 5-23 23-10 27 2 22 17 14 19 14 23 24-1 15-23 12-22 11-27 15-19 18 18 10 24 8 26 10 25 12 22 23 18 31-5"/>
<path d="M4426 7505l 0 0 1 30 4 34 4 29 5 36 6 40 5 42 4 46 4 46 1 46 1 44 0 38-1 33-3 25-4-27 0-33"/>
<path d="M4406 7575l 1-5 0-26 5-25 22-13 27-5 24-4 27-1 26 1 30 4 18 20-11 30-20 28-18 21-18 20-18 17-25 23-21 16-21 12"/>
<path d="M4658 7441l 0-2 24-3 27-2 26 2 19 14-2 25-14 20-21 22-18 20-15 20-12 24 25 6 28-14"/>
<path d="M4854 7475l 1-1-21 15-6 27 1 25 9 26 16 18 24 8 25-5 25-14 17-17 10-27-11-25-22-16-29-13-26-3-24 7"/>
<path d="M5045 7290l-4-1-25-1 20 18"/>
<path d="M5082 7455l 0 0 0 24 9 29 13 28 11 25 10 28 10 32 8 35 3 28 0 30-3 30-5 32-7 30-10 29-12 26-12 22-16 20-29 4-26-19-19-27-9-26-7-31-3-35 0-39 5-39 7-36 10-32 13-26"/>
<path d="M5222 7462l 0-1 29-5 23-10 20-15 10-22-18-16-24-6-30 5-29 10-18 16-9 26 4 30 13 22 21 19 29 13 25 3 25-2"/>
<path d="M5496 7367l-4-1-25-5-27 6-20 17-15 22-15 26-11 27-5 27 2 27 22 21 34 1 33-11 24-11 25-14 24-16"/>
<path d="M5653 7096l-4 1-24 8-7 25 11 30 10 30 8 37 4 30 1 33-1 35-2 37-4 34-3 34-3 29-2 26 2 27 17 19 28-17 20-24"/>
<path d="M5541 7321l-1-1 21-15 34-7 25-4 25-5 28-5"/>
<path d="M6260 7330l-1-3-8-23-17-18-28 3-25 18-22 24-15 20-13 23-15 32-7 30 1 26 12 21 27 3 32-12 25-18 25-23 25-29 23-33 20-35 16-37 10-39 5-38 0-38-5-38-9-38-11-41-12-39-12-37-10-31-12-29-19 22-4 26-2 32-2 36 0 40 1 42 2 46 3 48 4 46 6 45 7 42 8 35 8 30 10 25 16 28 23 20 29-5"/>
<path d="M6427 7299l-2 0-20 14-9 25 0 32 4 28 7 26 13 27 21 17 29-11"/>
<path d="M6457 7145l-3 0-24 9-5 25 19 17"/>
<path d="M6534 7257l 0 0 27 0 27 7 24 15 10 22-8 25-19 24-17 19-16 19-14 20-5 24 19 18 26-1 27-9 21-12"/>
<path d="M6716 7346l-1 0 26-5 26-6 25-11 25-16 14-20-4-26-25-16-28-1-22 12-17 17-16 21-14 22-9 28 1 27 12 26 21 20 28 11 25 2 27-6"/>
<path d="M6923 7319l 1-1 14-20-24 3-20 18-15 19-12 24-10 27-5 28 2 26 10 22 25 19 28 2 36-8 27-14 29-19"/>
<path d="M7137 7035l-2 0-22 10-6 26 4 34 6 34 4 27 5 30 3 35 3 37 2 36 3 34 3 29 4 26 7 30 12 25 26 3"/>
<path d="M7057 7270l-1 0 24-6 28-11 35-13 24-9"/>
<path d="M7269 7233l-1 1-5 27 1 26 3 25 1 26 0 26 7 25"/>
<path d="M7334 7164l-3-3-22-16-25 10-6 24 13 21 19 17"/>
<path d="M7357 7263l 4 6 12 23 10 25 13 22 15 19 20 15 18-16 8-23-4-25-17-19-23-10 20-16 23-10 25-5 22 13 13 21 14 21 25-4 15-20 13-21 17-23 24-9 20 19 17 19 17 20 16 22"/>
<path d="M2018 8753l 0-3-2-25-2-29-5-27-15-21-25 1-23 22-19 28-10 23-10 34-5 31 2 27 23 13 27-11 23-18 24-23 19-23 16-22 11-25-12 23 14 20 27-1 19-17 14-20 13-21 10-29 4-26-7-27-11 27 5 27 13 24 20 19 19 15 17 19-20 18-24 6-26 3-25 3 26-7 29-10 25-9 27-10 28-14 30-16"/>
<path d="M2819 8627l 1-6 3-30 1-30-7-24-24-14-26 10-24 21-18 19-17 19-13 22-10 22-7 29 0 27 22 17 30-8 28-15 24-19 21-23 15-21 10-23 20 18 20 18 22 12"/>
<path d="M3588 8427l-1 0-21 15-17 19-16 24-12 23-5 25 6 28 20 15 30 0 22-9 24-16 22-18 17-18 14-24 12 22 19 19 22 10 28-1 24-15 16-19 9-28 3-26-2-27-5-30-10-27-10-25-12-23"/>
<path d="M3914 8155l-1-1-14 23 2 28 6 34 5 27 5 30 3 35 2 38 0 42-2 40-4 41-3 37-4 31-1 25 2 25 25-4 20-27 14-23 14-22 14-22 16-24 15-19 22 15 7 29 6 24 17 23 29 9 27-5"/>
<path d="M4176 8539l 3-2 6 24 9 22 26 3 24-11 16-18 3-27-11-23 3-24 22-19 20-20 22-26 15-19 14-22 14-24 13-23 10-24 10-23 7-23 5-24 7-36 2-24 1-28-28 10-9 24-8 28-8 32-7 34-5 36-5 38-2 38 0 35 2 33 5 29 7 25 15 29 18 17 29 7 30-12 20-16 16-18 15-22 21-14 29-5 23-8 25-13 22-15 19-21 9-25-2-29-15-21-25-6-24 10-20 13-19 20-16 22-12 24-9 23-1 28 9 27 14 21 22 14 31 5 25-4"/>
<path d="M6268 4927l-1-5 0-25 30 6 24 8 29 10 34 10 37 12 38 13 40 15 40 17 40 19 40 21 40 24 20 14 20 13 20 15 19 17 19 17 22 18 20 20 21 20 22 21 22 21 23 23 22 23 24 24 24 24 25 24 25 26 27 26 26 27 28 26 28 27 28 28 28 27 30 29 28 28 30 28 29 30 30 30 29 30 29 31 29 33 28 34 27 33 27 34 26 35 27 37 26 36 25 38 26 39 25 38 26 40 25 41 25 41 26 43 25 42 25 43 25 42 24 44 24 44 24 42 22 45 22 43 21 43 22 44 20 43 20 43 18 43 19 44 17 42 17 43 17 42 15 43 14 42 13 42 14 43 12 43 12 42 10 43 10 42 10 42 8 41 7 41 7 40 5 39 6 38 5 37 4 37 5 36 3 34 5 33 3 31 3 27 3 29 3 27 2 25 3 43 3 37 0 31 0 28"/>
<path d="M7626 8749l 0-3 1-26 21-15 24 8 13 28 4 31 0 25-2 28-3 30-4 29-6 28-6 24-6 31-8-27 2-32 4-36 5-37 7-34 8-30 9-25 12-26 16-18 27 1 17 20 9 25 4 30 1 25 0 24 0 33-1 30 0 29 16-19 7-24 8-27 7-28 7-25 10-31 8-24 13-21 13 24 7 24 4 30 4 32 5 30 7 25 17 18"/>
<path d="M8007 8723l-1-2-25 6-11 25-5 24-1 26 2 27 9 24 26 3 20-19 15-23 5-29-9-23-21-15-27 0-17 19-4 26 25 8 25-13"/>
<path d="M8085 8703l 0-1 26-1 26-9 25-8 27-7 24 7-14 24-16 21-15 26-12 27-6 26 16 19 23-13 25-16 22-16 20-17 19-17 19-16 24-6 23-10 18-17 12-23-5-24-25-8-25 6-19 18-17 26-11 23-8 25-4 25 4 29 17 18 27 8 28-4 33-11 24-12 26-13"/>
<path d="M8610 8365l 1-5 5-28 22 13 10 26 11 34 7 29 5 32 6 35 3 39 1 41 0 45-2 43-5 41-5 36-5 27-7 29 2-24 7-27 8-32 10-33 10-33 11-31 11-26 11-21 16-21 20-16 24 1 18 17 12 25 7 33 5 29 3 29 4 25 8 26 20 14 25-13"/>
<path d="M8960 8580l 0-3-23-8-18 17-15 24-9 25-6 26-2 26 22 13 28-14 20-17 17-20 15-23-6 24 14 22 27-1 23-15"/>
<path d="M9060 8533l-1 0 27-6 26-7 26-5 23 8-9 25-13 22-12 27-3 24 8 23 27 5 22-11 23-17 19-19"/>
<path d="M9259 8515l 0 0-4 24-2 27 0 28-3 25 11-27 9-24 9-22 10-24 24 10 3 26 0 24 2 26 25-14 13-23 12-25 11-23 11-22 15-20 3 27-1 29-1 29 4 25 13 20"/>
<path d="M9490 8600l 1 1 26 0 17-20 17-22 21-30 16-24 16-27 17-29 14-32 14-36 10-35 8-38 4-39 3-40 0-43 0-40-2-35-3-26-6-24-27 3-9 25-6 24-6 33-6 39-7 46-4 27-4 28-4 28-3 31-3 31-3 33-3 34-2 33-2 34-3 34-1 32-1 33 0 30 0 30 0 28 1 27 1 25 5 45 9 36 11 29 16 28 23 14 17-25 7-32 2-26-2-30-5-30-8-32-9-32-11-32-10-29-9-24-10-24 24-2 20-15 22-19 21-22 20-20 16-18 14-20-12 25 4 26 10 22 27-1 14-19 13-23 10-27 4-24-6 27 3 24 20 17 25-17 17-19 20-27 15-21 16-24 17-26 16-26 15-28 12-29 7-30 6-32 2-35 1-35-1-35-2-32-4-24-7-25-25-7-22 23-10 23-10 29-8 37-4 28-4 29-4 33-3 31-1 32 1 31 3 29 5 27 7 23 14 27 17 21 22 14 28 5 32-5 26-7"/>
<path d="M7981 9476l-1-2-20-17-25 8-19 15-18 25-13 30-13 33-7 24-5 32 0 28 12 29 23 15 27 0 33-11 24-13 26-15"/>
<path d="M8124 9500l-2 0-26 6-22 15-13 24-6 28 0 27 13 21 22 11 26-6 22-18 11-23 1-28-8-23-9-23 2-27 20-15 28 5 17 17 13 22 7 29 3 29 27-10 11-22 12-23 14-22 20-14 6 27 1 26 5 25 26 2 18-19 18-25 17-27 12-25 22 16 6 26 11 23 17 18 24 2 25-18"/>
<path d="M8557 9414l 0-1-2 25 6 30 6 31 5 25 5 30 4 32 3 35 4 35 3 34 2 33 3 31 2 26 4 29-1-25-4-25-5-29-6-33-8-32-8-34-9-33-7-32-5-28-1-25 1-28 9-26 16-24 22-17 26-9 24-4 25-3 25 2 15 21-10 26-19 27-16 21-15 20-18 26-11 27 18 16 21-13 25-23 18-19 18-20 17-20 17-23 17-25 17-26 16-27 13-27 12-27 7-27 6-28 3-28 0-30-3-32-4-34-5-34-6-30-5-24-9-26-24 18-10 27-5 24-4 26-3 30-1 33 0 35 1 38 2 37 2 37 5 35 8 34 8 29 9 26 17 27 23 17 28-3 20-14"/>
<path d="M8929 9367l-1-1-8 25 23 10 25-5 22-12 18-17 17-21 0-25-25-13-27 2-22 16-18 22-11 24-4 25 6 29 20 20 22 9 29-2 24-8"/>
<path d="M9125 9045l-1-1 25-2 20 22 9 24 7 29 4 36 0 28-2 30-2 33-4 34-2 31-3 30-1 27 2 34 7 24 16 19 29-8 17-17 18-25"/>
<path d="M9090 9266l-4 1-23 13 27-10 29-11 33-14 24-10 23-11 22-10"/>
<path d="M9309 9209l 0 3-6 31-3 30-2 28 0 26 5 27 22 13"/>
<path d="M9335 9089l-1 1-14 23 0 29 10 26 17 20"/>
<path d="M9405 9254l 2 2 12 22 18 17 21 13 21 12 15-20-13-22-25-11-24-6-25-8-1-28 18-18 22-19 22-11 25-6 21 14 11 23 4 24 2 28 13-27 8-25 9-25 14-23 25-2 16 20 10 22 10 27 10 26 10 23 15 22"/>
<path d="M1505 10718l 1-5-5-31-15-20-28-10-25-3-29 6-24 9-24 13-24 17-24 18-22 20-19 22-18 22-17 21-14 21-15 30-9 27 12 24 31 3 35-4 29-7 30-8 34-10 34-9 35-7 32-6 32-2 28 3 25 5 27 13 16 20 6 26-6 36-12 28-16 32-20 34-23 32-24 32-25 28-23 24-22 22-23 17-22 12-32 9-26 0-23-12-17-21-10-33-1-27 4-27 9-27 14-24 20-21"/>
<path d="M1645 10932l-1 1-10 23-8 26-2 26 7 28 19 22 30-2 26-19 18-20 15-21 10-22 6-27 3-26 2 26 7 28 12 23 24 13 24-6 22-24 16-33 11-27 11-30 11-33 9-35 9-35 5-38 3-39-1-40-4-42-5-39-5-35-4-27-8-27-14 20-7 29-5 26-3 33-4 37-2 42-1 48-1 25-1 27 0 27-1 28-1 30 0 30-1 30 1 30 1 30 1 28 0 28 2 27 3 25 4 45 7 37 9 30 10 23 18 19 28 1 17-28 7-36 2-28-2-29-5-29-7-25-9-24-16-28-15-20-19-16 23-10 20-16 23-26 16-23 17-25 17-27 15-29 14-31 11-32 7-31 6-30 3-29 0-28-2-26-5-25-8-31-13-25-25 7-10 30-3 25-3 29-2 36-1 42-3 48-1 27-1 27-1 30-1 30-2 31 0 30 1 32 0 30 0 29 1 29 2 27 3 26 7 46 8 37 12 29 18 28 23 14 21-17 6-28 1-25-1-30-3-30-7-32-8-29-10-26-12-25-17-30-16-23-16-22 15 21"/>
<path d="M2111 10874l 1 1-3 27 0 24 3 27 5 28 4 27"/>
<path d="M2114 10793l-1-1"/>
<path d="M2195 10832l 1 1 20 19 15 20 17 24 13 22 13 24 12 24 15 23 18 20"/>
<path d="M2317 10849l-1-1-24 11-19 22-17 25-13 20-11 23-9 24-11 25-9 23-12 31"/>
<path d="M2629 10262l-1-1-23 18-15 34-12 34-13 46-7 26-6 30-7 30-5 32-7 35-5 36-6 36-7 38-5 38-6 39-6 40-5 41-5 40-5 41-5 41-5 39-5 39-5 38-4 34-4 35-3 35-3 31-2 29-2 27-1 25 0 43 4 28"/>
<path d="M2606 10877l 0 0 6 26 5 35 2 28 3 32 2 31 3 33 1 34 2 36 0 35 0 33 0 30-3 26-3 27"/>
<path d="M2613 10923l 0-6 4-33 5-27 13-20 19-18 24-14 29-11 26-7 25-3 26 8 18 21-6 31-17 25-16 20-21 20-22 23-23 22-22 20-18 17-21 18"/>
<path d="M2849 10808l-1 1-18 23-4 30 4 30 6 25 7 27 6 26 6 29-2-32 2-29 3-34 5-33 7-31 7-27 8-23 14-27 17-23 23-14 24-2"/>
<path d="M3048 10793l 1 0 24-2 24-16 16-18-16-20-24 2-26 15-18 20-10 23-9 25-3 27 2 28 17 23 25 4 26-10 31-21 24-21 26-25 28-31 28-34 28-35 25-36 20-37 16-37 12-36 8-36 3-36 0-37-2-33-2-29-5-28-18-17-14 22-10 27-8 35-4 27-3 30-1 31 0 31 0 31 2 30 3 32 3 31 5 31 5 31 5 28 6 25 5 25 8 30 5 27 3 28 1 25-4 25"/>
<path d="M3139 10743l 1-3 20-18 22-13 26-15 27-15 30-13 30-11 32-8 30-5 26-3"/>
<path d="M3448 10657l 0 0-2 24-1 28 2 27 2 31 1 26 2 30"/>
<path d="M3443 10590l-2-1"/>
<path d="M3540 10652l 0 0 13 24 18 21 16 19 19 20 18 20 18 20 15 20 14 21"/>
<path d="M3698 10654l-4 1-26 16-21 21-23 28-15 23-15 23-13 26-12 24-10 23-8 31"/>
<path d="M3846 10350l 2-5 14-24 20-21 29-5 25 8 25 18 16 20 12 25 6 32-1 25-3 28-7 30-9 31-10 32"/>
<path d="M4001 10737l-1-1"/>
<path d="M4598 10638l-1 0 11 26 24 12 26 3-11-23-26-11-25-11-22-16-5-24 10-23 21-22 24-15 24-5 25 8 21 18 12 21 10 27 8 25 25 2 18-23 11-25 9-23 10-22 21 13 14 24 15 24 17 21 23 13 25 2"/>
<path d="M5279 10533l 1-1 21 20 6 32 3 34 0 27 1 29 0 34 0 34-1 37-2 39-3 39-4 38-5 37-5 30-5 25-6 24-4-37 2-35 3-42 5-48 3-25 3-25 5-49 2-24 3-47 1-42 2-36 1-31 2-24 5-27 10-27 21-18 29-6 29 1 23 7 23 10 25 14 11 22-14 25-22 22-19 16-27 22-24 18-23 13"/>
<path d="M5590 10471l 0 0-2 27 3 28 1 25-1 26-5 26-7-31 7-31 13-33 17-31 19-25 20-17 25-14 28-3"/>
<path d="M5818 10461l 0 1-11 23-15 20 1 26 20 14 24 2 6-24 15-21 17-18 17-20 20-22 22-25 17-20 16-21 16-23 13-23 12-25 10-28 7-29 6-31 3-31 1-30 0-25-3-30-10-23-25 12-17 20-16 31-12 25-10 29-8 32-8 35-6 39-3 39 0 40 3 37 7 35 10 29 14 25 14 19 23 20 22 12 24 5 23-10 14-27 3-25-5-26-12-26-18-18 26 9 27 0 24 6 27 4 27-9 22-14 23-16 19-16-2-25-25-8-24 1-25 15-21 21-13 24-3 25 16 25 28 10 27 0 30-6 32-13 31-18 29-20 25-21 19-19 16-25 4-25-19 19 0 24 11 25 16 24 18 25 15 25 6 24-4 28-20 18-25 9-29 3-26-4 19-18 31 1 24-1 29-2 32-3 33-2 33 0"/>
<path d="M6631 10530l 1 0 16 22"/>
</svg>
