<svg xmlns="http://www.w3.org/2000/svg" viewBox="-2276 -2985 22856 14824" stroke="black" stroke-width="32" stroke-linecap="round" stroke-linejoin="round" fill="none" data-xena="149 307"><style>@media(prefers-color-scheme:dark){svg{background-color:black;stroke:white;}}</style>
<path d="M4648 -1193l-1-1 28-9 32-6 27-3 28-4 27-3 25-5 28-4"/>
<path d="M4646 -1172l-1 2-18 23-9 30-6 25-1 25-2 26 0 28-2 31-2 31 0 29 0 26 2 30"/>
<path d="M4630 -1057l-1 0 23-8 24-3 28-3 30-3 28-2 29 0"/>
<path d="M4577 -896l-1 0 30 1 27-2 28-3 31-4 33-5 33-6 31-3 28-3"/>
<path d="M4971 -1229l-1-1 22-15 30-2 30 2 27 7 23 16 9 27-4 28-10 27-17 28-20 29-22 27-18 26-14 23-12 28-6 26"/>
<path d="M5031 -832l-1 0"/>
<path d="M4178 -1160l-1 0 10-22 25-2 25 1 32 2 27 1 28 3"/>
<path d="M1274 989l 1-1 24-3 14 27 7 28 5 25 3 25 2 25 3 25 2 25 3 35 2 31 1 30"/>
<path d="M1183 1418l 0-1 30-4 24-5 27-8 31-11 32-9 32-8 33-8 32-7 32-8 30-7 25-5 24-1"/>
<path d="M1299 1579l-1-1 20-21 26-12 27-3 27 1 25 7 22 15 8 25-9 24-14 23-20 26-16 19-18 19-19 19-20 20-19 20-20 19-18 19-21 25-14 20 12 22 28-6 27-10 30-13 22-10 22-9 23-10 24-9 22-9 33-11 28-8"/>
<path d="M1870 970l 0 0 21 16 25 4 33-3 34-8 28-8 31-9 36-10 36-11 38-11 37-11 36-10 33-9 28-8 25-6 32-6 28-2 24 8-4 26-15 25-17 23-18 23-13 21-14 23-17 20"/>
<path d="M1872 1032l-1-1 28 10 24 14 20 16 23 18 25 20 27 21 30 20 29 19 29 18 27 16 27 15 23 13 27 15 24 12 9 22-17 20-19 18-24 22-19 16-21 18-23 20-25 22-25 24-27 26-25 26-25 26-21 25-17 22-21 27-14 24-4 26 23 11 27 3 30-2 36-3 26-3 28-4 30-3 29-3 31-4 30-3 31-3 29-3 27-4 25-2 35-3 30-5 25-5 25-6 24-9-11-24-18-21-23-21-20-16"/>
<path d="M2765 1342l 0 0 24 11 25-9 27-18 22-19 25-24 26-30 27-35 26-38 24-42 20-42 17-45 11-45 5-45 1-45-2-33-4-35-8-30-7-27-13-25-27 2-20 24-20 34-16 37-12 38-9 37-7 40-4 43-2 44 0 44 4 42 6 40 7 36 12 32 11 27 13 22 24 24 26 14 31 3"/>
<path d="M3141 1216l-2 1-21 18-12 24-5 25 5 26 19 20 26 10 24-1 27-10 26-19 17-22 6-26-8-28-13-21-18-18-20-14-27-6-27 11"/>
<path d="M3462 1232l 0-4 4-28 0-27-13-21-24-1-28 13-23 20-17 19-16 20-14 22-12 22-11 29-4 29 16 22 27-1 26-10 29-18 26-21 20-21 15-25 6-25-18 22-6 30-1 25 3 28 6 32 6 35 4 28 5 30 2 32 1 34 0 36-3 35-2 35-4 33-6 35-7 32-8 29-9 25-14 26-18 16-24-8-20-20-12-23-10-27-8-30-5-32-4-32-1-32 0-33 3-34 7-33 9-33 12-31 14-28 17-24 18-21 18-17 28-21"/>
<path d="M3790 816l 0-1 4-25-13 25-13 30-9 25-12 30-12 36-14 41-12 44-5 24-10 45-8 46-5 43-3 39-1 37 2 31 3 27 8 34 9 27 9 22 13 23 16 21 17 19"/>
<path d="M3951 928l 0-1 11 22 6 26 4 37 2 28 2 30 1 32 1 32 0 31-2 32-2 29-3 26-4 31-5 24"/>
<path d="M4177 1118l-1-1 26-13 24-6 28-5 24-3 25-3 30-3 27-2"/>
<path d="M4264 987l-1 0 14 26 7 28 4 25 2 27 0 29-2 27-2 27-3 28"/>
<path d="M4763 879l 0 0 11 23 1 32 2 30 0 35 0 26-3 27-2 26-4 25-4 25-5 30-6 27"/>
<path d="M4784 860l 0-1 16-18 19-19 21-12 25-5 28-1 31 2 30 6 22 12 15 21 3 28-9 24-15 21-20 21-24 17-25 15-23 13-31 9-27 3-25 0"/>
<path d="M5041 720l 0-1 26-7 27-5"/>
<path d="M5217 639l 1-1 23-13 24-2 25 9 18 18 0 28-19 21-21 14-22 14-23 13-22 13 25 10 25-1 28-2 27-1 27 3"/>
<path d="M4642 1100l 0 0 26-2 27 1 28-1 35-1 28-2 30-1 32-3 36-2 38-3 40-3 41-4 43-4 41-4 41-5 43-5 40-5 37-6 35-4 30-4 27-3 33 0 28 0 29 1 25 4"/>
<path d="M4943 1233l-1-1 18-22 23-8 26-2 30 2 25 1 25 2 28 3 25 6 2 26-15 25-22 23-18 16-20 16-22 15-22 15-22 14-21 13-20 12-27 16-23 17 27 8 29-6 33-6 34-5 32-4 27-2 27-1 28 3 24 5"/>
<path d="M5557 660l 0 0 21 11 25 16 25 17 28 20 20 15 19 15 34 30 28 29 21 26 16 24 15 26 14 27 10 27 9 28 6 28 5 30 0 30-4 30-7 30-11 30-13 29-16 28-17 28-17 26-16 24-16 22-20 28-21 23-19 17-23 12-25 5"/>
<path d="M1804 1947l 0-1 11 23 2 27-2 27-2 30-4 35-3 25-4 26-6 26-5 24-7 29-6 24"/>
<path d="M1806 1980l-1-1 9-25 22-17 22-11 29-4 23 9 18 19 4 26-15 23-19 17-23 18-20 13-20 14"/>
<path d="M2126 1933l-1 0 16 21 9 26 2 24 0 30-2 33-3 25-5 26-5 25-5 24-8 32-7 24"/>
<path d="M2124 1955l 0-2 12-25 19-17 26-13 25-6 27 2 20 14 5 26-10 29-17 23-16 19-19 17-21 17"/>
<path d="M2294 1911l 1-1 25 8 16 22 8 24 0 26-19-15 3-28 10-25 17-22 20-16 24-12"/>
<path d="M2455 1899l 0 0 15 22-6 24-8 25 13 20 20-15"/>
<path d="M2501 1796l-1 0"/>
<path d="M2546 1883l 0 1 11 23 6 25-3 27 10-27 13-23 17-25 16-18 18 18-4 28-7 24-8 24 20-21 13-24 13-21 16-18 13 21 0 25-3 27 0 25 17 18 23-18"/>
<path d="M2769 1899l 0-1 25 5 25-8 12-22-13-22-24-1-21 13-10 24-3 27 5 24 8 23 15 20 22 12 25-1"/>
<path d="M929 3193l-1 0 25-5 27-4 30-3 25-2 26-1 26-1"/>
<path d="M934 3266l 0-1 26-1 27-4 26-4 29-4 27-3 29-2"/>
<path d="M1481 3004l 0-1 11 24-1 27-5 33-6 26-9 28-10 29-9 27-10 28"/>
<path d="M1715 2949l 0 0-9 29-10 27-14 33-12 27-14 30-17 32-20 35-23 38-25 41-13 22-14 22-13 22-15 23-14 22-13 23-13 22-12 21-13 20-21 37-18 33-16 28-11 22-11 22 20-12"/>
<path d="M1635 3318l-1-1 1-25 21-14 27-9 26-5 27-1 28 4 23 8 20 17 8 25-5 27-12 21-17 22-24 22-28 21-21 14-30 20-29 18-28 15-25 14 25-3 27-4 29-3 31-1 26 2 25 3 25 4 22 13"/>
<path d="M2121 3164l 0 0 19-16-24 3"/>
<path d="M2380 3438l 0 0"/>
<path d="M2404 3439l 4-1 27-17 23-18 24-26 18-22 19-27 20-28 21-32 21-33 21-33 20-37 18-37 15-39 11-39 7-39 2-37-2-35-5-32-6-28-10-29-17-21-24 4-15 20-12 25-9 23-9 27-8 31-8 36-6 39-5 42-3 44-1 43 1 42 4 38 5 34 6 30 8 26 13 30 15 22 21 17 27 10 30 2"/>
<path d="M2786 3273l-1 0-19 18-9 22-4 26 5 25 22 15 27-3 25-15 17-20 11-25 4-24-11-26-19-22-22-15-25-4-21 20"/>
<path d="M3056 3271l-1-1-11-24-26-6-26 13-17 17-17 20-12 24-9 28 0 25 25 8 25-11 20-14 18-18 17-18 14-22 6-24-22 9-10 23-3 27 5 30 8 24 10 24 12 30 8 23 8 25 8 29 6 30 5 31 3 33 0 32-2 32-3 31-5 29-8 27-7 24-16 28-18 20-23 11-25 3-28-6-28-14-27-17-23-22-18-24-14-23-9-22-4-31 5-26 10-26 14-27"/>
<path d="M3461 2626l 0-3-19 22-16 32-13 26-15 32-17 35-19 41-19 44-9 22-9 23-8 24-14 45-11 45-7 43-6 43-3 39-1 37 1 35 3 31 3 30 5 28 7 25 11 32 12 27 14 21 16 25 14 20 18 20"/>
<path d="M3641 2841l 0 0 4 25 1 25 0 24-1 29-3 35-2 27-5 29-4 30-4 31-6 31-5 30-5 30-5 28-4 26-6 31-6 30-6 24"/>
<path d="M3819 3108l-1-1 27-8 30 2 28 3 29 6 31 4 30 3 29 0 26-2"/>
<path d="M3953 3007l-1 0-4 27-1 27 0 25-3 26-3 25-3 26 0 25"/>
<path d="M4635 2743l 0-1-4 30-4 25-2 26-1 26 0 25 2 30 4 28 4 24"/>
<path d="M4319 3088l-1 0 24-9 20-13 23-9 25 3 28 3 28 0 37-3 27-2 30-3 31-4 33-4 34-5 36-3 36-5 37-4 37-3 36-5 37-4 34-4 34-4 30-4 29-4 26-3 32-4 26 0 26 2 25 4 23 8-17 18"/>
<path d="M4288 3248l-1-1 22-15 25 0 30 2 26 2 28 3 21 12-15 25-17 18-23 23-18 17-22 20-22 20-23 21-25 22-24 22-24 21-22 19-19 18-22 22-19 19 30-8 32-7 28-4 31-2 30-5 29-5 26-5 28-7 24-7"/>
<path d="M4581 3362l-1-1"/>
<path d="M4761 3271l-1-1-6-23 19-17 25 1 26 1 28 2 27 2 25 8 1 28-20 24-23 23-27 24-20 17-21 17-20 18-19 16-25 23-20 20-16 19 28 7 28-6 24-4 24-4 26-2 24-3 29-6 26-8"/>
<path d="M5000 3164l-1-1 20-14 22 9 9 25-20 20-19 16-17 16-18 19 18 19 26 5 27 2"/>
<path d="M5100 2606l 0-1 24 12 22 16 28 24 23 19 23 19 26 22 26 23 27 27 25 28 22 30 23 30 19 31 18 31 16 33 15 33 11 32 8 32 5 30 1 29-1 29-4 29-8 30-13 30-12 31-18 29-17 28-15 26-18 24-15 22-16 20-21 24-18 19-24 17"/>
<path d="M5783 2687l-1-2-17 26-10 24-13 29-15 34-18 38-17 42-20 43-10 22-10 23-10 23-8 23-16 44-11 42-7 39-3 37 0 36 2 33 5 30 6 28 9 23 18 30 20 25 22 20 21 15 24 15 24 11"/>
<path d="M5965 2816l 0-1"/>
<path d="M5968 2807l 0-1 4 25-2 34-4 37-4 30-5 33-7 36-7 37-7 37-7 36-7 32-5 30-5 25-5 32-3 28"/>
<path d="M6109 3031l 0-1 26-10 28-5 25-3 26-3 29-3 30-4 27-5 29-6"/>
<path d="M6223 2932l 0 0 9 26 9 25 7 29 4 29 0 30-1 31"/>
<path d="M6895 2593l 0-1 21 14 5 28 3 26 2 28 0 28 2 26-1 31-2 29"/>
<path d="M6597 2913l 0 0 31 4 33-1 30-2 35-4 39-3 42-4 45-5 49-5 25-2 25-3 25-2 25-3 26-3 25-3 25-3 25-2 25-3 24-3 25-3 45-6 44-5 39-4 36-4 33-1 29-1 26 1 25 1 33 3 25 3 26 3 25 4 24-3"/>
<path d="M6576 3056l 0-1 26-4 31-3 29-1 31 0 28 0 27 3-3 25-16 19-25 23-18 17-19 16-22 17-21 17-22 17-22 18-22 18-22 18-22 16-27 21-20 18-15 18 23 12 26 0 34-4 24-3 34-6 32-5 27-6 23-6 24-10"/>
<path d="M6870 3178l 0-1 23-9"/>
<path d="M7060 3041l 0-2 21-14 27-8 28-6 26-4 28 1 24 9 7 25-17 19-25 17-23 12-25 10-24 8-24 7 24-12 32-6 25-3 25-1 30 2 24 5 26 12 12 21-3 25-14 21-16 18-19 20-20 22-25 23-29 18-31 16-28 10-25 3-30-5-20-15-12-23 0-29 10-23"/>
<path d="M7337 2943l 1-1 25-2 25 5-8 23-20 15-22 16-19 18 16 20 25 2 26-6"/>
<path d="M7508 2515l 2 1 27 12 22 17 24 26 16 21 17 24 18 27 19 28 19 30 17 31 16 31 14 31 11 30 8 30 5 29 3 29 0 31 0 31-2 29-4 29-3 28-5 29-8 27-10 28-10 27-14 28-14 29-15 27-16 25-16 22-22 25-18 19-22 11"/>
<path d="M8137 2540l-1-1-23 9-14 19-17 25-19 32-15 25-17 29-17 33-18 39-18 42-17 44-14 45-12 45-10 45-7 45-5 42-1 39 2 36 5 31 8 27 9 24 13 31 16 25 21 23 19 19 22 13"/>
<path d="M8210 2746l 1-1 25-7 18 19 7 28 3 29-3 33-4 25-6 26-7 29-10 31-10 33-14 33-13 31-13 29-11 25-14 30-13 23-12 21"/>
<path d="M8389 2928l 0-1 25 1 24-1 32 0 26-1 27-3 25-5 27-9"/>
<path d="M8467 2882l-1-1 9 23 5 24 1 30 2 33"/>
<path d="M9002 2550l-1-1-5 24-2 25 0 31 0 33-1 32 0 29-3 24-5 27"/>
<path d="M8674 2918l 2-1 26-9 27-6 34-4 26-2 27-2 29-1 31-1 32 0 35 0 35 0 38 0 39 0 40 2 40 1 39 2 39 0 37 1 35 0 33-1 27 0 25-1 30-1 25 1 24 2 24 8"/>
<path d="M8663 3095l 0-1 27-4 26 2 28 8 23 11 16 22-8 27-16 19-20 20-23 24-19 16-20 15-20 13-30 18-28 14-23 12-23 10 28 3 28-3 29 0 27 1 29 3 27 2"/>
<path d="M8911 3224l 1 0 18-16"/>
<path d="M9128 3096l 1-1 25-3 26-5 29-7 25-8 23-8"/>
<path d="M9136 3111l-3 1-15 20-8 25 4 24 22 9 29-8 22-8 24-7 26-6 28-5 27-2 24 2 14 21-10 23-19 27-21 24-25 21-25 16-25 12-30 8-25-2-25-16-10-29"/>
<path d="M9371 2993l-1 0 12 22-13 24-17 18 16 19 29 0 24-6 24-10"/>
<path d="M9297 3000l-1-1"/>
<path d="M9297 2999l-1 0 21-14 24-11 25-1 19 15-6 25"/>
<path d="M9486 2487l-1-2 1 26 16 24 25 25 21 17 23 19 24 20 23 21 22 23 19 23 17 24 14 25 15 27 12 27 11 28 7 29 5 28 3 30 0 32 2 32-3 32-4 32-4 32-7 30-8 30-8 28-11 29-10 26-12 26-13 23-13 23-20 27-20 23-21 20-24 15-23 12-27 7"/>
<path d="M9960 2943l 0 0"/>
<path d="M10080 3180l-1 0"/>
<path d="M10183 3198l 0 0 22 14"/>
<path d="M10283 3210l 1 0 20 15"/>
<path d="M12536 2014l 0-1-2 26-5 27-7 34-5 25-5 25-6 28-6 29-5 29-5 27-4 35-1 24"/>
<path d="M12009 2577l-3-1-24-5 24-10 33-10 30-8 36-7 42-7 48-8 26-5 28-4 29-4 31-5 31-5 32-5 32-5 32-4 32-4 32-4 31-5 31-3 31-4 29-3 29-3 29-2 28-3 26-2 25-3 24-1 25-1 41-3 36 0 31 0 24 1 28 1 26 0"/>
<path d="M12154 2739l-1 0-12 21-4 28-5 26-5 29-7 29-6 30-8 29-6 26-7 24"/>
<path d="M12284 2795l 0-1 24-18 27-10 32-8 24-5 25-4 25-3 26-1 31 1"/>
<path d="M12625 2710l-1-1 12 22 3 26 2 24 0 28 0 29-3 28-4 25-8 25-10-29 7-33 6-23 8-24 14-31 15-28 16-24 17-21 21-17 23-15 21-12 25-8 28-5 28 0 24 7"/>
<path d="M13240 2427l-1 0 26-12 25-2 30-3 24-2 25-1 25 1"/>
<path d="M13252 2489l-1-1 29-6 31-1 30-1 25 0 27-1"/>
<path d="M13816 2173l 0 0-6 27-5 26-5 36-5 30-7 35-7 38-8 42-8 45-9 44-9 45-8 43-9 38-8 33-9 30-8 25-12 29-13 23-3-25"/>
<path d="M13949 2430l-1 0 25-6 33-7 29-4 32-4 35-3 34-5 31-5 26-5"/>
<path d="M14081 2289l-1 0 2 25 4 30 1 26 0 25-2 25 0 29 0 24"/>
<path d="M14721 1955l 1 0-10 27-2 29 0 28 1 28 1 28 0 26 2 25 0 30-2 28-7 27"/>
<path d="M14397 2344l-1 0 26 16 27 4 25 1 32 0 35-2 38-1 41-2 41-3 40-4 41-4 41-6 40-5 38-7 37-6 35-5 35-7 34-5 31-5 30-4 27-3 29-2 27 4 22 10"/>
<path d="M14397 2556l 0-1 23-15 28-7 30-3 28 2 23 8 6 24-16 20-20 20-26 22-20 16-22 16-22 17-23 16-20 17-20 16-23 22-17 19-13 22 28 5 24-7 31-8 34-9 24-6 32-9 28-6 29-7 26-5"/>
<path d="M14714 2667l-1 0-2 26 4 26 2 26 2 29-1 25-4 26-7 26-7 30-8 22 8-28"/>
<path d="M14737 2608l 0-1 21-12 30 0 25 4 26 7 16 19-9 24-18 20-24 20-26 18-22 10-30 7-26 0-23-14"/>
<path d="M14934 2445l 0-1 28-8 26 3 23 10-6 26-19 21-18 18-20 17 18 17 27 1 28-2 26-3"/>
<path d="M11355 3714l-1-1 24-10 26 5 30 2 27-1 29-3 31-3 30-1"/>
<path d="M11404 3805l-1-1 15-20 24-13 23-8 25-5 25-3 24 1"/>
<path d="M11581 3560l-1-1 25 0 26 6 26 9 25 13 20 14 15 19 13 21 8 25 4 25-5 24-9 22-15 25-15 21-16 20-20 22-23 18-24 7"/>
<path d="M12022 3629l-1-1-18-18 18-17 26-8 29-5 26 0 29 2 30 4 30 7 25 9 21 12 16 22 0 30-13 29-14 21-18 24-20 24-23 25-27 26-27 27-30 28-30 26-30 26-30 23-29 21-26 19-23 16-24 19-20 15 24-5 28-11 33-11 34-8 33-3 30 0 29 2 23 5 28 8 23 8 21 15"/>
<path d="M12369 3898l 0 0 1 25 2 30-1 27-3 34-4 26-6 29-8 30-8 31-10 32-10 29-9 26-12 30-9 25 4-31 9-31 8-24"/>
<path d="M12402 3859l-1-1 20-18 27-9 27-2 26 9 19 18 4 25-7 26-15 28-16 23-20 21-23 19-21 15-21 12-24 10-25-3"/>
<path d="M12618 3670l 0 0 27 1 29-3 26-2 24 5-7 28-19 17-22 20-19 16-18 17-24 18-21 17 26-10 28-12 29-8 27-2 26 9"/>
<path d="M12953 3800l 0-1 23-10 25-10 28-8 28-7 25-7"/>
<path d="M12910 3913l 0-1 21-22 24-14 25-9 27-7 32-3 32 1 34 4"/>
<path d="M13498 3470l-4-1-25 1-25 11-19 16-19 24-14 23-15 26-15 29-15 32-13 33-12 33-12 33-10 33-8 31-6 31-5 31-4 31-3 29 2 26 6 34 11 30 13 27 16 22 17 18 25 18 23 10"/>
<path d="M13577 3609l 0-1-3 31-5 29-7 36-6 28-8 31-7 31-8 32-7 32-6 30-7 27-7 32-5 25"/>
<path d="M13681 3779l 0-1 24-13 27-11 28-7 31-5 26-2 28 0 28 0 32-2"/>
<path d="M14051 3738l 0 0 6 24 1 29-1 26-2 31-4 32-4 29-6 27-3-30 7-29 9-27 11-24 12-21 16-19 19-18 18-16 23-16 24-8 23 9"/>
<path d="M14246 3490l 0 0 24 9 24 15 21 17 21 23 21 28 15 22 13 21 12 23 12 22 10 22 12 34 9 33 4 34-1 34-5 24-6 25-10 24-10 22-13 21-22 28-23 25-22 21-23 18"/>
<path d="M14739 3373l-1-1-24 18-16 25-19 31-15 24-16 27-17 29-16 32-14 34-14 37-12 35-9 34-8 33-4 31-4 27-2 27 1 24 4 35 8 32 10 27 12 25 11 28 10 23 12 21 21 13"/>
<path d="M14892 3511l 0 0 0 28-4 31-7 30-6 25-7 25-8 27-8 28-9 29-8 28-8 26-8 24-8 31-6 26-6 25"/>
<path d="M14973 3686l 0-1 24-8 30-2 26 1 28 1 24 0 26 1 25 0 29 1 24-2"/>
<path d="M15094 3601l 0-1 14 22 4 24 0 29-1 29 0 29-2 27"/>
<path d="M15382 3486l 1-2 17-19 24-1 27 9 26 16 21 21 13 27 3 31-4 27-14 30-20 28-18 20-20 19-22 18-23 17-25 16-25 14-24 12-22 11-31 15-25 12-23 12 26 4 30-5 35-6 24-2 35-3 33-1 29 2 25 3 28 6 26 9"/>
<path d="M15674 3721l 0 1-6 24-3 26-3 24-2 29-5 35-5 25-6 25-7 25-7 23-11 32-13 26-12 22"/>
<path d="M15683 3712l 0-1 12-22 27-8 26 3 24 8 21 11 19 18 4 29-10 22-22 23-21 16-24 14-27 11-25 1-20-14"/>
<path d="M15932 3528l 0-1 28 1 23 9 22 15 11 21-18 22-21 18-21 14-23 13-20 15 22 9 30 1 28-1 29 0"/>
<path d="M16043 3317l-1-1 27 13 23 14 27 18 28 24 17 18 16 21 15 22 14 21 13 21 19 32 13 32 11 34 7 32 8 32 7 31 2 31-5 31-12 34-12 24-14 24-17 25-20 24-18 24-19 20-20 17-25 18-25 9"/>
<path d="M12611 4777l 0-1 23-13 27-9 27-6 30-5 30-3 26-1 24 7"/>
<path d="M12609 4861l 0 0 22-16 24-8 26-5 30-2 25-1 27 0 27 1"/>
<path d="M13069 4591l 0-1 22 12 4 29 1 30-2 36-3 27-4 30-7 33-6 36-11 37-13 37-13 35-14 33-12 30-11 26-12 31-13 25 18-17"/>
<path d="M13284 4784l-1-1 27-2 27-1 25 0 28 0 29-1 27-4"/>
<path d="M13349 4709l-1-1 2 26 0 26 0 27-1 28-1 30 0 28 1 25"/>
<path d="M13649 4619l 0-2 12-21 29-3 25 3 25 6 28 6 31 10 28 11 23 15 19 24 2 33-11 30-15 24-19 25-23 26-28 26-30 24-32 22-31 21-31 19-29 17-27 17-22 13-25 18-20 15 30-5 32-8 25-5 29-5 27-4 28-3 26-3 24-2 35-3 29 1 30 4"/>
<path d="M13962 4869l 0 0 4 26 2 26 3 27 2 31 0 34-3 34-7 35-5 23-7 32-8 23 3-25"/>
<path d="M13991 4811l 1-3 14-26 19-17 27-8 29 5 25 10 23 15 18 20 6 25-10 23-21 20-23 15-27 17-27 14-26 11-24 8-24 4"/>
<path d="M14210 4624l 1-2 22-10 29-3 25 2 26 8 18 16-16 23-24 16-25 13-21 12 14 21 28 5 30 2 27 1"/>
<path d="M14442 4766l-1-1 28-3 26 3 26 4 29 2 25 0 28-1 29-2 31-1 33-2"/>
<path d="M14856 4776l 0 0 21 18 7 23 5 29 0 24-4 25-6 25-12 30-12 24-8-24 5-33 5-27 8-28 10-26 10-22 12-21 15-19 16-18 22-20 24-15 26-10 25-4 27-1 25 2 25 4"/>
<path d="M15235 4742l-1-1 30 1 28-1 28-2 25-2"/>
<path d="M15563 4469l-1-1 22-13 26 3 24 5 25 11 26 15 23 18 20 20 14 21 10 28-6 30-16 26-26 28-21 18-26 20-27 20-29 19-30 20-30 21-31 19-28 18-28 16-25 14-20 13-27 16-20 13 28 8 26-3 34-4 25-3 24-1 25 0 33 1 32 2 30 3 27 3 24 5 25 7"/>
<path d="M15816 4739l 0 0 9 24 10 22 10 26 7 25 2 25-7 28-17 18-7-28 5-24 10-28 12-31 16-28 16-23 17-18 18-18 21-17 22-10 25-7 30-5 27 0"/>
<path d="M16165 4724l-1-1-5 26 0 27 1 24-1 28-4 31-8 34-6 25-9 25-10 26-8 25-11 23-14 28-15 25 12-20 13-24"/>
<path d="M16169 4690l-1-1 23-12 28 4 29 7 29 8 26 10 20 14 15 22 2 24-14 27-23 20-20 12-29 14-29 9-24 4-25-1"/>
<path d="M16489 4544l 0-1 26-4 25 6 20 15 10 25-5 26-20 15-22 10-26 8-22 11 20 17 27 3 29 2 25 3"/>
<path d="M11344 5850l-2-1 11-23 26-13 26-11 26-9 28-9 28-6 28-4 27-1 27 3"/>
<path d="M11341 5897l-1 0 23-9 29-5 28-5 27-4 28-3 30-1 26 0 31 1"/>
<path d="M11511 5706l-1-1 24-3 27 1 31 2 28 5 29 8 25 10 25 14 17 18 1 25-16 25-16 19-20 19-23 21-24 21-24 22-22 18-22 18"/>
<path d="M12071 5976l-1 0 2 26 5 31 3 31 2 26 1 28-2 28-4 26-5 23-7 27-8 24-2-29 2-32 5-29 8-32 9-29 12-24 16-26 18-25 20-22 20-16 22-12 23-8 24-5 29-1"/>
<path d="M12602 5880l-1-1 25-10 29-4 32-4 31 0 25 3"/>
<path d="M12569 5974l-1-1 27-10 29-6 26-4 27-2 28-1 30 3"/>
<path d="M13757 5552l-1 0 4 26 4 28 2 25 2 24 0 25-1 29-2 24-5 27"/>
<path d="M13102 5920l-1-1 31-7 27-5 37-5 28-3 33-3 37-2 39-4 43-4 45-5 24-1 24-2 24-2 25-2 25-1 25-2 27-2 27-1 26-2 29-2 29-1 28-2 29-2 30-1 29-2 29-1 29-1 28-1 29-1 28-1 27-1 26 0 28 0 25-1 25 1 24 0 46 1 45 1 40 2 37 2 33 3 28 2 27 3 32 3 26 2 26 2"/>
<path d="M13191 6133l-1-1 10 25 0 27-3 29-5 30-5 28-7 30-6 32-8 31-7 29-6 28-4 29-5 24 8-27"/>
<path d="M13364 6226l-1-1 22-10 27 2 27 0 28-1 26-2 25-2 25-2"/>
<path d="M13446 6161l-1-1 5 27 1 28 2 27 4 27"/>
<path d="M13703 6032l-1-1 25-2 24 2 27 5 25 7 24 10 21 13 21 19 9 26-11 27-15 21-23 22-28 21-19 14-21 13-21 13-29 18-28 16-24 13-22 13 25 6 25-2 26-3 26-4 25-2 29-2 26 0 25 1"/>
<path d="M13986 6189l-1-1 12 21 6 24 4 25 2 28 0 32-2 35-3 24-5 35-3 24-4 24-4 25-6 33-9 30-6 25-5 25 7-27 3-28 6-35 4-24 7-26 5-24 5-24 7-31 4-29 5-27 2-27 0-28-1-28-3-26-5-28-8-23 24-12 31 2 26 2 28 3 29 5 24 5 24 10 14 20-5 27-19 25-19 20-24 18-25 13-24 12-29 10-28 3-5-26"/>
<path d="M14298 6024l-1-1 25-4 27 1 25 8 9 24-18 21-20 13-21 12-24 7 24-1 25-1 28-1 24 1 28 7"/>
<path d="M11606 7270l 0 0 6 30 4 26 1 33 0 27-2 28-3 32-3 32-5 35-7 37-7 38-8 38-7 36-7 34-7 31-6 27-10 31-8 26 13-28"/>
<path d="M11779 7593l 0-1 26-4 26 1 24-1 25-2 26-4 27-4 25-6 23-5 24-10"/>
<path d="M11935 7481l-2 0 2 24 10 30 5 23 4 26 5 27 3 29"/>
<path d="M12513 7094l-1 1-8 25-2 28 0 31 2 25 3 26 2 28 1 26 2 25 1 26"/>
<path d="M12242 7467l-1 0 24-1 28 0 25-2 28-1 33-4 35-3 36-4 36-4 35-5 35-4 35-4 35-5 35-4 35-5 35-5 34-4 31-4 31-4 26-3 25-2 29-2 29-1"/>
<path d="M12234 7732l-1-1 22-18 30-7 24-4 32 0 30 4 26 11 9 26-9 28-16 27-14 21-18 21-20 20-21 21-22 20-21 21-22 20-20 19-19 20-18 17-20 21-16 20 30-11 28-14 22-11 21-11 22-11 23-9 33-9 31-6 28-3"/>
<path d="M12516 7888l-1 1-10 26-5 27 0 32-2 30 0 33-1 36-1 25-3 36-2 30-1 25"/>
<path d="M12530 7836l-1 0 25-10 25-3 26 0 25 6 20 16 6 25-11 25-19 22-17 18-20 17-21 13-23 12-25-2"/>
<path d="M12728 7643l 0-1 18-19 26-6 28-3 26 3 19 16-8 28-15 18-19 21-19 22 24 7 25-3 29-4"/>
<path d="M14862 7204l-3 1-23 23-17 22-16 29-12 23-10 26-12 27-10 30-9 31-8 32-8 32-6 33-6 34-4 34-4 34-1 34-1 34 1 30 1 29 2 25 6 34 7 31 8 25 12 25 18 18"/>
<path d="M14981 7346l-1 0 2 26-1 26-2 32-3 35-3 26-3 28-3 28-4 30-4 29-4 28-6 26-5 24-7 30-8 29-7 25"/>
<path d="M15165 7561l-1 0 28-3 29-3 25-3 26-3 27-5"/>
<path d="M15235 7479l-1 0-13 24 0 29 0 26 2 27 2 30"/>
<path d="M15759 7153l 0 0-1 28-4 28-6 27-5 23-6 26-6 28-4 30-5 29-4 25"/>
<path d="M15490 7536l 0-1 24-15 26-3 31-2 31-2 35 0 27-1 27 0 26-2 28-1 29-1 27-1 29-1 28 0 28-1 25 0 33-2 28 1 29 1"/>
<path d="M15609 7729l 0 0 11 24 1 30-2 28-6 34-7 25-8 26-9 28-7 28-8 26-5 25-6 32-7 30"/>
<path d="M15561 7705l-1-1 24-16 30-5 25-1 26 2 25 5 24 5 28 10 19 16 3 26-14 25-16 20-19 19-21 18-21 15-21 13-25 13"/>
<path d="M15834 7641l-1-1 24 0 28 5 20 12-7 25-20 18-26 12-22 12 25 1 29 0 29-1 25-2"/>
<path d="M16003 7264l 1-1 24 0 24 7 27 15 27 20 18 18 19 20 19 23 17 25 18 26 15 26 12 27 11 28 9 29 6 29 6 29 3 29 2 28-2 27-3 28-7 28-8 28-10 28-14 28-13 26-14 26-15 22-19 30-19 22-19 17"/>
<path d="M16381 7209l-1-1 25-8 27-1 28 1 25 8 4 24-19 18-20 15-23 13-20 13-20 16 25 14 29 1 28-1 31-1"/>
<path d="M16538 7563l 0-1 26-11 29-7 26-5 26-5 26-4"/>
<path d="M16557 7619l 0 0 28-4 30-6 26-5 27-5"/>
<path d="M17063 7363l 0-1-3 31-4 24-5 30-7 36-6 28-6 30-8 33-8 35-9 35-9 35-11 34-9 32-10 29-8 28-8 32-6 25"/>
<path d="M17138 7630l 1-1 25-13 32-6 27-2 28-1 27-1 29 0 29-2 27-3"/>
<path d="M17287 7539l-1 1 0 26 5 26 3 25-2 26-2 26"/>
<path d="M15371 7739l 0-1 6-24 23-14 24-5 25-3 25 3 22 10 14 19-5 28-17 23-18 22-21 21-24 20-25 19-25 18-23 15-25 16-21 14 21-16 24-10 27-7 27-5 27-2 25 4 17 18"/>
<path d="M17882 7139l 0-2 15 19-4 29-6 29-7 32-5 24-5 24-6 26-6 25-6 24-9 31-5 25-5 26-2 25"/>
<path d="M17604 7626l-1-1 25-14 27-2 29-2 32 0 24 0 37-1 24 0 24-1 27 0 26 0 27 0 27-2 27-1 26-1 25-1 25-1 34-2 29-1 29-1 24 0"/>
<path d="M17680 7801l 1-1 13 21 0 29-3 27-5 33-5 26-3 28-6 30-5 31-5 30-7 32-6 31-5 29-5 27-6 33-4 27-1 24"/>
<path d="M17646 7845l 0-3 14-21 18-17 21-13 22-10 28-6 27 3 24 11 22 17 14 21 3 25-8 23-16 24-21 25-17 17-25 20-25 16-26 11-25 2"/>
<path d="M17914 7709l-1-1 24-10 26 10 22 15 8 24-15 23-20 21-20 14-22 13 19 17 27 1 30 1"/>
<path d="M18338 7574l-1 0 25-6 26-8 26-8 28-11 25-12"/>
<path d="M18412 7497l-1-1-1 27 4 30 5 26 7 28"/>
<path d="M19090 7134l-1-1-22 18-5 30 0 27 1 28 1 29 0 28-1 31-3 29-4 28-4 24"/>
<path d="M18765 7555l 0 0 30-4 27 0 33 0 26-1 29 0 32 0 35 1 38 0 41 0 43 2 42 1 42 2 38 2 38 1 32 2 33 0 29 1 27 1 24 0 35-2 27-2 25-1 27-1"/>
<path d="M18789 7705l 0-1-9 22-11 23-11 25-15 30-17 32-15 28-13 25-11 27-3 26 24 13 30-2 27-6 31-6 32-9 31-10 30-8 26-9 28-8"/>
<path d="M18841 7808l-2-1-14 27 0 28-3 28-1 30-1 34-3 35-2 32-2 31 1 25 1 25"/>
<path d="M19040 7864l-1-1-4 30 1 30 1 30 0 32-1 36-3 25-3 26-5 25-5 24-8 32-6 28-5 27"/>
<path d="M19046 7917l-1-4-3-25 23-14 24-1 27 3 29 4 28 6 26 11 11 23-3 24-15 21-22 21-26 19-27 14-25 7-25-3"/>
<path d="M19309 7676l-1 0-3 27-9 27-13 25-13 25-12 23-8 24 26 5 27-4 24-6 27-7 25-7 24-10"/>
<path d="M19344 7744l-2-1-10 25 5 29 2 28-4 28-5 28"/>
<path d="M15216 8825l 0-1-1 28-3 25-2 28-4 31-5 34-6 25-5 26-9 28"/>
<path d="M14849 9301l-1-2 27-4 26 1 34-1 28 0 30-1 33-2 39-5 41-6 48-8 24-3 26-4 26-4 25-4 27-4 26-4 27-5 26-5 27-4 25-5 25-4 25-5 47-8 44-7 41-5 37-5 33-4 28-2 34-1 26 3"/>
<path d="M14889 9541l-1-1 13-22 24-13 24-5 29-1 24-1 24 4 29 8 18 18-1 31-12 22-21 30-19 22-21 22-24 23-26 21-26 20-28 19-26 18-24 17-20 17-25 22-20 19-17 19 29-2 28-6 33-10 25-7 25-8 27-7 25-7 25-5 31-3 28-1"/>
<path d="M15220 9715l-1 0-9 25-4 25-5 31-7 35-5 27-6 28-7 31-7 33-8 34-7 32-6 31-6 27-5 27"/>
<path d="M15201 9666l-1-2 15-19 28 0 25 3 26 4 23 8 25 11 20 21 3 26-12 23-22 23-21 15-25 12-25 11-23 7-25 3"/>
<path d="M15454 9481l-1-1 22-11 28 3 18 17-14 23-20 16 18 17 25 2 24 0"/>
<path d="M15885 9312l 0-1 24-6 29-2 29-1"/>
<path d="M15861 9388l-1-1 24-10 31-8 28-6 31-6"/>
<path d="M16206 9166l-1-3-5-25 16-18 24-8 27-2 31 6 29 9 23 7 23 12 19 16 18 17 15 26 5 31-4 25-12 26-18 29-16 20-17 20-21 20-24 21-26 21-27 21-28 19-27 19-27 17-26 15-24 14-22 11-28 15-26 10 23-12 32-9 35-6 35-3 33 1 31 1 29 2 27 1 29 5 24 9 22 12"/>
<path d="M16594 9351l-1-1 24-10-24 4"/>
<path d="M16791 9333l 0-2 8-23 16-21 21-18 25-10 26-2 20 15 10 23 5 32 0 27 3 29 5 26 2 25 5 30 8 23 11 26 18 21 20 15 24-1 21-12"/>
<path d="M17043 9261l-2 0-24 16-15 23-14 22-18 25-19 28-14 20-15 21-18 20-16 21-23 26-18 23-18 21"/>
<path d="M17326 9246l-1 0 29-3 25 2 29 1 30 0 24 1"/>
<path d="M17266 9329l-1-1 29-4 31-5 28-5 31-5 31-6"/>
<path d="M17416 9154l-1-1 24 0 23 5 27 8 26 10 26 10 22 12 21 16 13 21 2 25-14 27-22 21-21 15-22 16-23 14-24 15-22 13"/>
<path d="M17757 9223l 1-4 15-27 18-21 20-14 25-4 22 13 19 21 15 26 9 24 5 27 5 31 5 32 3 32 3 30 6 25 11 24 22 14 25-10 25-20"/>
<path d="M18021 9176l-3 0-23 7-19 17-21 22-23 26-19 19-21 22-23 23-24 25-23 25-20 23-17 22-18 29"/>
<path d="M18094 9206l 0-1 22-13 26-5 25-2 27-3 26-1"/>
<path d="M18113 9256l-1 0 29 3 31 1 24 0"/>
<path d="M18671 8817l 1-1 5 27 2 30 1 28 0 31 1 34-1 35-2 25-1 24-2 36-3 33"/>
<path d="M18367 9251l 0 0 26-1 28 0 37-3 30-2 33-2 37-1 38-2 38-2 39-3 38-4 37-4 35-5 34-3 32-4 31-3 27-3 25-3 31-2 30 1 25 8"/>
<path d="M18500 9401l-1-1-15 27-14 22-17 23-19 25-20 27-19 26-18 25-13 23-8 25 10 24 24 3 25-4 31-6 31-9 30-9 30-10 27-10 25-7"/>
<path d="M18514 9514l-3 0-21 16-5 26-2 32 0 29 2 28 2 27 1 26 0 25-1 24"/>
<path d="M18630 9560l 0 3 1 33 3 33 5 35 3 35-1 35-2 35-6 35-7 32-7 29-8 28"/>
<path d="M18655 9501l-1-1 19-15 33 1 31 4 30 9 29 9 21 12 18 17 4 27-14 21-19 18-23 17-25 17-27 13-24 10-28 7"/>
<path d="M18889 9406l-1-1 27-5 29 5 25 10 11 22-12 24-21 15-22 13-17 18 22 18 27 7 26 3"/>
<path d="M14653 10526l-1 0-11 24-8 28-11 27-9 23-11 25-11 30-12 32-13 34-13 36-11 35-11 37-8 37-7 36-4 37-2 35 1 33 2 31 4 28 6 26 6 23 11 29 12 25 15 25 17 20 23 17 27 5"/>
<path d="M14825 10726l-1-1 14 22 9 32 4 30 4 35 1 26-1 30 0 32-4 35-7 36-5 38-9 36-6 36-6 32-4 27-4 29"/>
<path d="M14948 10934l-1-1 26-2 31-4 28-4 29-6 30-6 31-6 30-6 23-6"/>
<path d="M15072 10836l-1-1 3 27 9 25 8 32 6 28 4 30"/>
<path d="M15613 10511l-1 0 12 21 8 25 1 31-2 29-7 33-7 23-8 23-12 31"/>
<path d="M15373 10882l 1-1 24-8 24-2 31-3 36 0 28-2 32 0 32-1 36-2 37-2 37-1 38-2 35-1 36 0 34-1 33-1 32-1 29-1 26-2 34-2 25-1 24 1"/>
<path d="M15440 11051l-1 0-8 24-13 28-10 24-13 25-14 26-12 24-12 29-7 25 21 18 25-2 26-7 27-8 27-10 26-10 28-12 26-10"/>
<path d="M15511 11161l 0 1 0 24 2 29 1 25 1 30-1 34-2 24-1 26-2 26-3 25-2 31-2 28"/>
<path d="M15628 11180l 0 0 18 19 9 25 4 24 3 28-1 31-4 34-4 35-4 33-5 30-6 24-7 24"/>
<path d="M15637 11183l-1-2 15-20 25-6 30-2 25 1 25 6 24 10 21 19 10 22-1 27-14 24-17 20-20 18-20 15-24 12-26 0"/>
<path d="M15824 11026l 1-1 25-7 28 4 21 11 4 27-14 20-21 20-22 15 19 20 28 0 25-3 25-5"/>
<path d="M16022 10639l-1-1 20 15 25 22 22 21 25 23 18 17 20 18 18 19 18 21 17 22 15 24 12 25 11 28 9 29 5 29 2 29 0 29-2 29-5 28-8 29-11 31-14 29-16 28-16 26-15 24-17 20-22 25-23 17"/>
<path d="M16234 10511l 0-1 25-4 26 1 25 1 25 5 25 7 22 10-2 24-20 13-22 10 22 12 25 1 25-1"/>
<path d="M16535 10829l 1 0 30 6 29-1 27-3 27-3 27-3"/>
<path d="M16543 10926l-1-1 25-11 25-9 35-10 27-8 28-7"/>
<path d="M17062 10619l-1-1 17 21 3 25 0 36-2 30-4 34-7 38-7 39-10 43-11 44-11 42-12 43-13 37-11 35-11 29-10 31-7 23"/>
<path d="M17149 10895l 0-1 26-5 26 2 24 3 31 2 24 1 25 0 25-2 26-4"/>
<path d="M17240 10832l-1 0 10 24 7 25 7 25 6 27 1 30"/>
<path d="M17910 10507l-1-1 5 24 3 24 0 31-1 26 0 27-4 28-4 28-7 27"/>
<path d="M17604 10900l-1 0 25-1 27 0 38 1 30 0 33 0 37-1 40 0 43 0 43 1 44 0 42-1 42 0 41-3 40-1 40-1 36 0 34 0 30 1 26 1 35 3 29 5 25 4"/>
<path d="M17661 11078l 1-1 28-3 32 4 25 4 27 5 27 9 19 16-1 25-19 27-21 23-19 16-20 16-23 15-22 14-23 14-20 13-30 18-25 16-22 15 22 8 25-6 28-7 30-6 29-6 30-5 30-3 26-2"/>
<path d="M17936 11249l-1 1-10 22 0 28-4 27-3 31-5 25-4 26-5 27-7 27-6 27-6 25-6 31-3 29"/>
<path d="M17913 11206l-1 0 31-1 32 0 26 2 30 7 24 13 10 25-11 25-22 22-27 17-26 10-26 3"/>
<path d="M18141 11083l-1-1 28-1 25 6 22 10 4 25-20 20-20 14-25 13-23 9 26 3 27 0 25 0 28-2"/>
<path d="M18621 10903l 0-1 24-15 25-5 25-2 26 0"/>
<path d="M18656 10866l-1-1 5 25 6 26 7 29 7 25"/>
<path d="M19316 10439l-1 0-3 24 2 27 3 25 6 27 4 31 3 31 1 32 1 32-2 30-3 29"/>
<path d="M18991 10859l 0 0 29 8 28 3 26 1 31 0 35-1 40 0 45-2 24 0 24-1 25-2 27 0 26-1 27-1 27 0 27 0 27-1 26 0 27 1 25 0 25 1 46 1 43 1 42 1 38 1 36-1 31-1 27 0 33-1 25 0 24 1"/>
<path d="M19015 11083l-1-1-4 26 1 24 3 30 1 25-1 27-4 31-6 30-6 31-4 27-5 31-3 27"/>
<path d="M19229 11053l 1-2-20 21-15 26-13 25-12 27-10 27-7 30-3 27 3 25 5 30 15 22 19 15 23 9 25 2 25-5 25-10 18-19-3-28-18-22-24-9-28-2-26 7-23 13-18 17"/>
<path d="M19425 11233l 0 0 5 26 1 26 1 31-1 27-5 31-5 32-7 31-6 28-7 25-5 27"/>
<path d="M19431 11251l-1-4-1-25 15-20 29-4 27 3 29 9 21 12 17 20-2 26-19 17-28 12-28 6-31-1-24-7"/>
<path d="M19678 10992l 0-1 11 23-5 29-12 26-14 22 12 21 30-2 27-6 26-3 27-3 27-4"/>
<path d="M19747 11029l-1-1 7 27-1 26-1 32-2 24-4 30-2 25"/>
<path d="M10558 8916l 0-1 24-8 27-4 25-1 25-1 25 4"/>
<path d="M10525 9023l-1-1 24-8 23-5 27-3 28-1 30 5"/>
<path d="M11056 8590l 1-3-21 14-17 25-18 30-11 23-12 25-13 28-13 30-14 34-16 37-16 41-16 41-15 44-15 44-12 43-10 43-7 42-4 38-2 37 0 32 2 28 4 25 8 32 12 25 13 21 19 21 22 16 23 10 27 3 26-4"/>
<path d="M11155 8804l 0-3 4 32-4 35-3 24-3 26-2 26-1 26-2 26 0 25-2 25-2 25-4 24-3 25-6 33-4 25-5 27"/>
<path d="M11269 9014l 0-1 23-8 26-6 24-4 26-3 27-2 31 0 26 1"/>
<path d="M11380 8906l 0-1 11 24 5 25 1 31 0 27-1 30-2 33"/>
<path d="M11890 8651l-1-2-2 28 0 27 1 26 1 28 1 31-1 24-1 25-7 24-5 30"/>
<path d="M11553 9029l-3-1 24-6 33-4 27-4 31-4 34-5 38-6 40-5 42-5 43-4 45-3 45-2 41-2 41-2 39-1 35-1 34-1 29 0 24-2 30-1 27-1-8 26-22 20"/>
<path d="M11710 9127l-1-1-9 29-13 26-18 30-13 20-20 30-18 30-17 27-14 25-13 25 5 23 27-3 27-5 30-7 35-10 34-8 24-7 31-8 32-7 25-6 24-4"/>
<path d="M11757 9266l-1-1-4 30-2 25-4 32-4 35-4 26-4 27-3 27-4 29-4 28-4 28-3 28-3 25 0 30"/>
<path d="M11899 9323l-2 0-11 22-1 27-2 24 0 28 0 30-1 33-2 34-4 35-5 35-6 30-6 25"/>
<path d="M11889 9293l-1-1 18-21 31-7 26-2 26 3 29 8 20 12 14 24-7 25-17 20-25 18-21 12-30 10-24 5"/>
<path d="M12062 9121l-1-1 27-10 27 0 26 4 22 8 3 27-23 16-26 15-21 13-20 14 22 15 30-4 28-3 24-3"/>
<path d="M12253 8609l-1-3-11-22 26 0 27 11 24 15 26 20 20 15 20 17 23 18 21 21 21 22 19 22 18 25 17 26 16 27 13 27 13 29 9 29 9 28 6 29 3 30 1 31-1 31-3 31-5 30-7 31-9 29-13 27-13 28-15 26-18 25-17 24-17 22-17 21-19 19-18 16-25 21-23 16-24 15"/>
<path d="M12538 8502l-1-1 25-8 25 9 24 9 18 18-20 19-24 15-26 13-22 12 27 3 24-5 26-5 29 0"/>
<path d="M12762 8971l-1-1 21-12 26-6 25-5 30-3 27 1 27 4"/>
<path d="M13274 8619l-1-4 4-25-24 22-18 30-12 23-13 25-15 26-12 29-14 32-13 34-11 38-12 39-12 41-10 41-9 40-9 39-7 39-5 35-3 35-3 32 0 30-1 30 1 27 3 26 6 35 9 30 7 27 8 23 12 26 15 21 15 21 17 19"/>
<path d="M13550 8653l 0-3 7-24 14-19 10 22 3 27 1 31 0 32-3 25-1 25-4 25-4 31-4 24"/>
<path d="M13330 9002l-1-1 28-6 27-4 37-5 30-3 31-3 34-4 33-3 34-3 33-4 32-3 31-3 26-3 26-3 24-3 33-4 31-5 25-4 25-2"/>
<path d="M13371 9118l-1-1-8 26-7 26-8 23-9 24-8 23-10 23-10 28-5 25 20 18 29-7 23-7 25-8 28-8 27-7 25-7 30-8"/>
<path d="M13441 9196l-1 0-3 28-2 29-5 27-5 31-5 31-5 32-3 29-3 28-2 30"/>
<path d="M13585 9269l 0 1 2 28 1 25 1 24-2 30-2 36-3 26-3 26-5 25-5 26-5 26-6 25-5 24-7 31-7 25"/>
<path d="M13583 9291l 1-2 15-19 25 7 26 10 22 10 18 19-12 28-21 23-19 17-20 15-24 12"/>
<path d="M13768 9146l 1-1 25 1 22 13 9 23-15 20-23 18-23 15 25 6 25-4 26-4 26-5 23-5"/>
<path d="M13866 8630l 0-1 20 15 22 20 22 18 23 21 26 23 16 19 16 19 15 22 14 23 13 25 13 27 11 26 10 28 7 27 6 29 5 28 5 28 4 29 1 31 0 32-4 32-6 35-8 34-11 35-11 37-15 36-14 33-13 30-13 25-15 29-17 25-21 18-22 11"/>
<path d="M14093 8450l 1-1 28 0 29 1 28 1 25 5 23 11 12 23-17 23-24 15-25 14-24 12-21 12 24 15 26 4 31 2 25 3 25 6"/>
<path d="M9992 10467l 0-1 25-7 24-7 29-9 26-7 26-6 27 0"/>
<path d="M9992 10577l-1-1 22-16 28-8 28-2 30 0 25 2 27 6"/>
<path d="M10467 10156l 0-1-16 22-13 24-10 23-11 27-13 34-8 25-10 27-8 29-9 31-8 30-7 33-5 33-5 33-4 31-3 30-3 30-1 28-2 27 0 28 0 25 2 24 5 33 4 28 5 25 7 30 12 25 15 20 18 18"/>
<path d="M10591 10394l-1-1 12 22 3 28 0 27-1 33-1 25-1 24 0 25-2 24-1 24-3 35-3 33-2 29-1 26 2 25"/>
<path d="M10674 10223l-1-1 20 19 22 23 20 19 23 21 21 23 21 25 20 27 18 29 12 21 9 23 7 25 6 27 2 28 1 30-1 28-4 29-5 30-9 30-11 29-10 28-12 25-10 22-14 29-11 22-17 19-23 9"/>
<path d="M11024 10591l-1 0"/>
<path d="M11309 10217l 0 0-14 21-10 25-8 26-7 24-7 28-8 33-7 34-5 25-5 25-5 26-3 27-3 25-3 26-1 35-1 24 2 34 3 31 5 30 6 27 7 23 10 27 10 25 8 25 8 24"/>
<path d="M11508 10309l 0-1 4 30-4 27-5 33-5 36-4 26-5 27-5 28-5 26-5 25-3 24-5 33-4 29-1 29 1 27"/>
<path d="M11633 10489l 0-1 25 5 24 2 25 0 25-5 25-5 25 0"/>
<path d="M11723 10374l 0-1 20 14 3 26 0 27-3 30-4 31-6 28-5 24-4 26"/>
<path d="M12223 10171l-1-1 0 27 0 25-3 25-4 29-3 24-5 26-5 29"/>
<path d="M11988 10495l 0-1 27-10 30-5 29-2 33-2 25-1 25-2 27-1 30-2 30-3 32-2 31-3 30-2 31-3 31-3 30-4 28-4 25-4 32-5 29-2 29-2 27 1"/>
<path d="M12001 10656l-1-1 24-13 29-4 30 2 27 5 23 12 4 26-16 22-19 19-23 19-27 19-28 20-26 18-25 18-23 17-20 16-20 16 25-2 28-8 24-7 26-7 25-6 26-6 28-5 24 1"/>
<path d="M12259 10764l 0 0-3 25 1 29 1 30 1 27-1 29-4 34-4 25-5 25-6 34-5 26-7 24"/>
<path d="M12246 10743l 1-3 7-25 21-19 24-11 28-8 30-3 31 1 26 7 17 19-11 23-18 18-21 17-24 15-25 13-23 10-25 7"/>
<path d="M12438 10601l 0 0 27 1 24 6 23 12-5 24-20 19-20 16 16 20 26-2 30-5"/>
<path d="M12624 10139l 1-1 25 7 24 13 23 14 23 16 24 19 25 23 18 18 16 18 20 31 11 21 11 24 12 25 8 25 8 26 5 29 2 29 0 29-1 30-2 28-4 26-5 26-6 26-7 26-8 26-9 23-12 32-13 29-13 25-14 23-16 18-21 16"/>
<path d="M15529 2599l 0-1 24-13 22-8 31-9 24-8 23-5"/>
<path d="M15543 2661l-1-1 20-18 23-5 31-5 26 0 25 1"/>
<path d="M15994 2272l 0-1 3 26 2 26 2 26 2 31 2 36 0 26 0 26 0 25 0 26 1 26-1 25 0 24-1 35-1 33 0 31-3 30-3 25-4 27-3 26"/>
<path d="M16346 2513l-1-1 25 10 24 5 26-1 28-6 24-7 23-9 23-10"/>
<path d="M16427 2449l-1 0 2 26 10 25 7 24 7 26 6 27"/>
<path d="M17162 1981l 1-1 15 20 0 31-1 27-1 29 0 30 0 28 1 27-1 25-2 25-3 30"/>
<path d="M16722 2441l-1 0 24-1 33-3 27-3 33-4 37-4 42-4 24-2 25-3 27-2 27-3 28-2 31-3 32-2 32-3 33-2 34-3 33-2 35-2 35-1 34-2 35 0 34-1 32-1 33 0 31 0 30-1 30 0 29 1 27 1 26 1 27 0 25 0 25 1 25 1 45 1 40 1 37 1 31 0 26-1 30-2 26-6"/>
<path d="M16839 2634l-1-1 16 25-4 27-6 35-6 26-7 26-6 26-7 27-5 26-5 25-6 32-6 27"/>
<path d="M16932 2783l-1-1 28 2 32-2 27-5 28-5 27-5 25-5 27-8"/>
<path d="M17047 2676l-1 1-14 22 2 30 3 29 4 24 6 25 4 31 7 27"/>
<path d="M17274 2603l 0-1 28 2 31 5 25 4 23 7 27 10 22 17 0 25-12 20-21 22-22 22-23 21-25 20-26 20-24 19-20 17-19 19-15 20 26 15 33 1 28-2 32-3 31-4 30-5"/>
<path d="M17521 2796l-1 0 2 24 4 30 1 27 0 30-2 34-3 24-2 26-6 27-6 27-7 25-6 25-5 32-5 30"/>
<path d="M17519 2802l-1-2 13-21 27-6 28-2 29 4 25 7 20 19 3 25-10 25-16 20-18 17-22 15-28 10"/>
<path d="M17778 2656l-1 0 27-8 25 2 28 2 22 9-7 24-21 19-21 13-23 15 25 10 29-4 26-3"/>
<path d="M18220 2367l-1-1 26 1 27-1 28-4 30-4 29-5 27-2"/>
<path d="M18257 2329l-1 0 5 25 5 24 8 30 4 30 6 28 4 26 2 25"/>
<path d="M19262 2003l 0-1 11 24 3 31 1 29-1 31 1 29 2 25 2 25 2 26"/>
<path d="M18872 2426l-1-1 15 21 26 6 24 0 31-1 36-3 39-3 43-4 43-4 45-4 43-2 45-2 47-2 25 0 25-2 26 0 28-2 28-1 28-2 28 0 29-2 28 0 27 0 26 0 25 0 24 0 46 1 42 1 43 1 37 1 35 2 33 2 28 3 27 2 24 3 30 3 27 3"/>
<path d="M18955 2661l 0 0-9 25-4 29-2 26-3 31-4 34-3 25-4 25-6 35-5 31-2 28"/>
<path d="M19065 2784l 1-1 23-10 25-4 32-3 26-1 26-2 26-4 31-4"/>
<path d="M19175 2692l-2 0-12 21 4 30 4 28 2 28 6 30 10 28"/>
<path d="M19374 2669l 1-2 22-14 26-4 24 1 26 3 23 5 27 10 20 17-2 25-18 21-23 19-21 14-21 13-23 14-24 14-21 13-27 18-20 16-15 20 24 12 31 4 32 0 33-3 34-2 33-5"/>
<path d="M19606 2814l 0 0 6 29 0 29-2 24-3 26-5 27-9 29-8 30-8 30-10 27-10 28"/>
<path d="M19585 2829l 1-4 6-26 15-22 27-9 27 5 24 8 24 17 13 25-4 25-15 20-23 16-29 11-25 4"/>
<path d="M19796 2695l 1-1 25 2 25 1 2 25-17 17-20 17-2 25 24 8 26 5 25 2"/>
<path d="M18830 2175l-1-1-26 3-19 22-18 25-12 22-15 25-15 27-15 31-14 35-14 37-12 40-12 42-12 43-9 43-7 44-2 42 2 40 5 38 10 36 15 32 20 31 22 28 29 26 31 22"/>
<path d="M19932 2164l 0-1 22 18 16 21 18 27 17 19 18 22 20 23 23 25 25 24 25 27 23 28 22 28 18 28 17 28 14 28 12 29 9 28 6 28 3 29-3 27-3 27-6 26-8 25-9 24-11 23-13 21-14 21-13 20-22 27-20 21-23 17"/>
<path d="M20135 2060l 1-1 25-11 28 0 25 3 25 5 22 12-2 25-21 13-22 11-20 13 19 19 28 8 28 4 24 2 26 1"/>
<path d="M-1994 -2347l-1 0-8 24-2 29 0 25 1 26 1 30 0 32 0 33-2 32-1 30-3 27-4 25-3 28-4 26"/>
<path d="M-1576 -2344l 0-1 24-14 25-8 28-7 28-3 26 2 28 10 16 20 3 25-6 25-13 28-17 31-15 21-16 23-18 23-19 24-20 22-19 21-19 20-18 18-18 16-21 22-19 18 26-9 25-8 27-8 28-7 28-7 27-6 27-3 25-2 31 2 27 4"/>
<path d="M-901 -2388l-1-1 18-21 24-8 27-6 30-6 29-4 27 6 8 23-11 27-17 25-20 25-21 21-19 17-21 13-24 8 24-13 28-8 23-5 25-4 25-2 30 1 24 7 16 22-8 27-17 25-20 19-24 18-29 16-31 14-34 9-32 4-30 1-27-3-26-11"/>
<path d="M-249 -2487l-1 0-5 27-10 24-11 22-14 24-14 27-12 27-11 28-6 25 18 20 27-2 25-4 27-6 32-8 34-10 34-9 33-10 30-9 25-6 23-6"/>
<path d="M-128 -2423l-2 0-17 19 0 32 0 27 0 31-1 32-2 30-4 30-1 28-2 25 0 25"/>
<path d="M-426 -2017l-1-1 12-25 19-22 17-19 21-22 23-26 25-30 31-32 33-34 18-18 18-17 19-19 19-19 18-17 19-19 18-18 17-18 33-33 31-30 28-27 25-23 20-22 18-18 21-23 17-19 17-22"/>
<path d="M492 -2413l 0-2 16-19 28-9 24-6 28-7 29-6 26-5 25-3"/>
<path d="M482 -2404l-2 1-13 23-3 25-1 31-1 31 0 30 1 28 5 24 24 2 21-18 21-17 25-17 28-15 29-12 29-6 28-3 25 2 25 4 26 7 20 17-4 25-14 22-18 24-22 22-25 21-27 18-29 13-29 10-30 6-25 3-28 1"/>
<path d="M1228 -2509l-2 1-22 15-21 25-15 27-14 33-6 23-6 27-3 28-2 27 0 28 2 26 5 25 11 31 17 25 20 18 23 11 25 4 25-2 29-11 21-18 5-28-18-19-25-15-27-10-27-5-26 4-23 9-22 17-13 21-5 28"/>
<path d="M1763 -2496l-1 0 22 14 27-2 27-6 31-7 29-10 28-8 24-7 24-5 16 17-11 31-12 32-10 25-10 25-8 27-8 28-9 28-7 27-6 25-5 32-2 25 0 25 4 26"/>
<path d="M2630 -2511l 0-4-3-30-19-19-30-3-32 6-22 11-21 13-21 20-12 20 2 27 19 20 29 14 27 10 30 9 29 11 25 11 21 15 18 23 8 30-1 25-8 25-15 25-18 21-26 19-28 12-26 6-25-1-27-14-17-20-8-26 0-32 5-24 6-24 10-22 12-22 23-26 28-22 21-14 22-14"/>
<path d="M2770 -2729l 0 1-15 25-19 27-15 23-17 25-20 28-20 30-25 30-30 33-29 36-31 36-15 20-15 20-25 39-25 39-23 39-21 35-19 35-15 32-14 28-10 25-11 30"/>
<path d="M3403 -2447l 2-4 12-25 10-28 0-27-6-27-13-25-21-15-28 2-25 13-29 22-18 17-16 18-20 30-16 28-10 25 3 25 24 15 32-5 32-13 22-12 21-15 27-22 19-19 16-19-13 24-9 29-2 25-2 26-2 29-3 32-5 31-4 29-5 25-5 27-1 24"/>
<path d="M3983 -2544l-1-1-18 25-9 25-10 31-11 35-7 25-6 27-7 28-6 29-4 27-3 24-2 28 8 26"/>
<path d="M4060 -2451l-3 2-16 24-8 23-7 28-3 30 3 30 10 27 16 22 20 15 25 8 27 2 27-5 28-11 26-17 22-23 14-26 6-25-2-28-13-29-18-30-15-18-25-22-29-11-29 0-26 8-21 12"/>
<path d="M4684 -2538l 1-1 4 27-5 26-9 34-5 25-5 28-5 28-4 29-3 28-2 26-1 33 0 25 3 25"/>
<path d="M4871 -2556l-1 1-17 20-8 28-4 25-2 27-2 30 0 35-2 26-2 27-1 26-2 26-2 24-2 31-1 25 5 25"/>
<path d="M5420 -2523l-1 0-3 29 0 32-5 31-6 36-4 26-6 28-5 29-6 26-6 24-8 33-5 27-4 26"/>
<path d="M5531 -2484l 1-1 27-1 28 5 31 6 24 5 29 11 19 16 2 25-8 25-15 20-20 20-24 21-27 19-28 17-29 16-27 16-24 14-20 13 25 10 27-5 28-4 29-2 31 0 28 0 27 1"/>
<path d="M5790 -2632l-3 0-23 10-28 19-20 17-24 20-26 24-30 27-32 31-32 33-32 36-16 18-18 19-15 19-17 18-17 19-16 19-15 18-30 34-26 31-24 29-22 26-20 22-17 19-21 21-20 19"/>
<path d="M-1581 -1281l-1-1-24 11-19 23-14 21-14 25-16 27-15 31-13 32-13 35-11 35-9 40-9 40-7 40-7 42-6 40-6 38-4 37-3 37-3 34 0 31 0 28 1 26 4 34 5 28 8 24 10 22 14 25 16 22 18 18 21 18 21 14"/>
<path d="M-1367 -1104l 0-1-6 28-5 29-5 34-3 27-4 30-3 32-5 34-5 33-5 34-4 34-4 31-4 29-3 27-3 33-1 28 0 27"/>
<path d="M-1058 -876l-1-1-18-17 25-2 26 1 27-2 24-5"/>
<path d="M-1001 -962l-1 1-9 25 1 28 2 26 3 25"/>
<path d="M-583 -1208l-1 0-10 26-2 25 1 28 2 27 1 28 2 27 3 24"/>
<path d="M-758 -887l 0 0 29-6 32-8 28-6 32-6 33-7 34-6 35-6 35-5 32-4 26-2 28 3"/>
<path d="M-689 -761l 0-2 26-10 29 0 26 6 22 13 9 24-8 23-18 21-24 21-19 14-22 12-24 15-23 13 30-2 25-3 29-4 30-7 33-7 34-9 34-9"/>
<path d="M-339 -858l-1-1 24-11 28-5 24-3 26-4 25-3 25-4 24-3"/>
<path d="M-245 -930l-1 1-16 20-3 27 5 30 8 26 12 28"/>
<path d="M212 -1191l-1-3 10 28 2 24 2 28 0 32-2 32-4 33-6 35-5 32"/>
<path d="M29 -834l 0-1 26-3 30-4 30-5 35-6 27-4 27-3 29-5 29-3 28-3 26-3 24-2 32-2 26 0 25 0"/>
<path d="M160 -757l-1-1-15 25-13 24-14 27-12 26-2 24 29 3 31-2 27-4 29-4 28-4 27-5 24-6"/>
<path d="M252 -706l-2 1-19 18-9 27-1 24 4 26 6 26 7 24"/>
<path d="M534 -852l 0-1 24 2 32-2 27-2 27-3 24-4 29-4"/>
<path d="M608 -917l-3 1-17 20 6 26 13 25 14 23"/>
<path d="M753 -734l-1-1"/>
<path d="M891 -726l 0-1"/>
<path d="M994 -735l 0 0 24-3 24-6"/>
<path d="M1012 -1278l 0 0 17 21 19 17 25 19 21 14 23 15 25 16 26 17 25 17 24 20 20 22 17 23 15 25 12 28 10 29 7 30 7 31 3 30 0 28-3 29-5 30-6 28-8 27-9 26-10 25-12 24-14 24-15 22-15 20-17 19-20 23-18 17"/>
<path d="M1790 -1367l-1-1-24 12-14 25-12 25-13 33-10 25-10 29-11 31-14 32-15 35-16 38-17 37-14 38-12 37-8 36-6 34-4 32-2 29 1 27 2 25 5 32 6 30 10 28 8 27 11 25 14 25 14 21 17 23 19 22 17 18"/>
<path d="M2159 -1334l-1-1 7 24 0 31-2 29-3 31-2 30-2 29-2 27-2 25-3 28 0 25"/>
<path d="M1890 -918l-1 0 26-11 29-4 27-2 33-2 37 0 28-1 29-1 31 0 31 0 30 0 30-1 27 0 27 0 24 0 31 0 25 0 26 0"/>
<path d="M2160 -750l 0-2 10-24 15-25 9-23-5-24-23-14-29 2-31 13-23 15-22 18-16 20-16 24-6 25 23 5 26-7 24-9 24-10 28-11 24-9 14 24-3 27-5 26-5 29-5 31-4 30-6 29-6 28"/>
<path d="M-1998 -551l 4-2 31-7 36-5 27-1 29-2 32-3 35-4 39-6 42-7 46-8 26-5 27-5 28-5 29-6 31-5 33-5 34-6 35-7 35-5 37-7 38-6 40-7 41-6 42-6 44-8 46-7 47-6 48-7 51-7 51-8 52-7 54-8 56-8 57-9 58-9 60-9 63-9 63-9 65-10 66-10 67-10 67-10 69-9 69-11 70-10 71-9 71-10 73-10 72-9 73-9 72-10 74-9 74-9 74-10 73-9 73-9 73-9 73-8 74-9 73-7 73-7 71-7 72-7 71-6 71-6 70-5 70-6 67-5 67-5 65-4 65-5 63-5 62-6 59-4 59-6 58-5 56-5 54-5 53-5 50-5 49-5 48-5 46-5 43-5 42-5 40-5 37-5 35-5 34-4 31-5 28-5 25-3 25-5 41-6 34-5 25-4"/>
<path d="M3916 -1194l-2 4-14 27-9 24-9 29-10 30-7 34-8 36-7 36-6 36-5 35-4 33-3 32-4 29-1 26-2 33 2 27"/>
<path d="M3866 -1171l-1-3 16-19 26-7 28-7 36-5 25-3 26 0 26 3 25 4 24 5 32 10 23 12 18 21-2 26-16 27-16 18-21 19-22 18-23 15-23 13-32 15-28 10-25 5-25 0"/>
<path d="M4257 -1162l 1-1 22-10 28-10 25-7 30-8 33-5 30-5 27-2 25-1"/>
<path d="M4307 -1154l-1 0-9 26 2 31 4 32 3 27 3 28 2 31 2 31 0 31-2 29"/>
<path d="M4181 -800l-1 0 25-12 23-5 27-4 29-4 30-3 28-3 31-3 28-4 26-3"/>
</svg>
